<?xml version="1.0" encoding="utf-8" standalone="no"?>
<!DOCTYPE svg PUBLIC "-//W3C//DTD SVG 1.1//EN"
  "http://www.w3.org/Graphics/SVG/1.1/DTD/svg11.dtd">
<!-- Created with matplotlib (http://matplotlib.org/) -->
<svg height="864pt" version="1.1" viewBox="0 0 720 864" width="720pt" xmlns="http://www.w3.org/2000/svg" xmlns:xlink="http://www.w3.org/1999/xlink">
 <defs>
  <style type="text/css">
*{stroke-linecap:butt;stroke-linejoin:round;}
  </style>
 </defs>
 <g id="figure_1">
  <g id="patch_1">
   <path d="M 0 864 
L 720 864 
L 720 0 
L 0 0 
z
" style="fill:#ffffff;"/>
  </g>
  <g id="axes_1">
   <g id="patch_2">
    <path d="M 47.72 469 
L 703.286581 469 
L 703.286581 103.68 
L 47.72 103.68 
z
" style="fill:#ffffff;"/>
   </g>
   <g id="PolyCollection_1">
    <path clip-path="url(#pe7646d98dd)" d="M 77.518481 185.633603 
L 77.518481 283.655825 
L 80.543707 278.210146 
L 83.568934 283.655825 
L 86.59416 283.655825 
L 89.619387 283.655825 
L 92.644613 283.655825 
L 95.66984 289.101504 
L 98.695066 289.101504 
L 101.720293 289.101504 
L 104.745519 289.101504 
L 107.770746 289.101504 
L 110.795972 289.101504 
L 113.821199 294.547183 
L 116.846425 299.992862 
L 119.871652 321.775578 
L 122.896878 349.003973 
L 125.922105 359.895331 
L 128.947331 370.786689 
L 131.972558 381.678047 
L 134.997784 398.015084 
L 138.023011 403.460763 
L 141.048237 403.460763 
L 144.073464 403.460763 
L 147.09869 403.460763 
L 150.123917 403.460763 
L 153.149143 403.460763 
L 156.17437 408.906442 
L 159.199596 414.352121 
L 162.224823 414.352121 
L 165.250049 414.352121 
L 168.275276 414.352121 
L 171.300502 414.352121 
L 174.325729 419.7978 
L 177.350955 414.352121 
L 180.376182 414.352121 
L 183.401408 414.352121 
L 186.426635 414.352121 
L 189.451861 414.352121 
L 192.477088 414.352121 
L 195.502314 419.7978 
L 198.527541 414.352121 
L 201.552767 414.352121 
L 204.577994 414.352121 
L 207.60322 408.906442 
L 210.628447 398.015084 
L 213.653673 376.232368 
L 216.6789 359.895331 
L 219.704126 343.558294 
L 222.729353 316.329899 
L 225.754579 289.101504 
L 228.779806 283.655825 
L 231.805032 283.655825 
L 234.830259 283.655825 
L 237.855485 283.655825 
L 240.880712 278.210146 
L 243.905938 278.210146 
L 246.931165 278.210146 
L 249.956391 278.210146 
L 252.981618 278.210146 
L 256.006844 278.210146 
L 259.032071 278.210146 
L 262.057297 278.210146 
L 265.082524 278.210146 
L 268.10775 278.210146 
L 271.132977 278.210146 
L 274.158203 278.210146 
L 277.18343 283.655825 
L 280.208656 283.655825 
L 283.233883 283.655825 
L 286.259109 283.655825 
L 289.284336 283.655825 
L 292.309562 283.655825 
L 295.334789 283.655825 
L 298.360015 289.101504 
L 301.385242 289.101504 
L 304.410468 293.458047 
L 307.435694 299.992862 
L 310.460921 310.88422 
L 313.486147 321.775578 
L 316.511374 332.666936 
L 319.5366 343.558294 
L 322.561827 354.449652 
L 325.587053 359.895331 
L 328.61228 370.786689 
L 331.637506 370.786689 
L 334.662733 370.786689 
L 337.687959 370.786689 
L 340.713186 370.786689 
L 343.738412 370.786689 
L 346.763639 370.786689 
L 349.788865 376.232368 
L 352.814092 381.678047 
L 355.839318 387.123726 
L 358.864545 392.569405 
L 361.889771 398.015084 
L 364.914998 403.460763 
L 367.940224 408.906442 
L 370.965451 408.906442 
L 373.990677 408.906442 
L 377.015904 408.906442 
L 380.04113 408.906442 
L 383.066357 408.906442 
L 386.091583 414.352121 
L 389.11681 414.352121 
L 392.142036 419.7978 
L 395.167263 419.7978 
L 398.192489 419.7978 
L 401.217716 419.7978 
L 404.242942 419.7978 
L 407.268169 419.7978 
L 410.293395 419.7978 
L 413.318622 419.7978 
L 416.343848 419.7978 
L 419.369075 419.7978 
L 422.394301 414.352121 
L 425.419528 414.352121 
L 428.444754 408.906442 
L 431.469981 403.460763 
L 434.495207 392.569405 
L 437.520434 381.678047 
L 440.54566 370.786689 
L 443.570887 359.895331 
L 446.596113 349.003973 
L 449.62134 332.666936 
L 452.646566 321.775578 
L 455.671793 316.329899 
L 458.697019 299.992862 
L 461.722246 289.101504 
L 464.747472 289.101504 
L 467.772699 289.101504 
L 470.797925 283.655825 
L 473.823152 283.655825 
L 476.848378 283.655825 
L 479.873605 283.655825 
L 482.898831 283.655825 
L 485.924058 283.655825 
L 488.949284 289.101504 
L 491.974511 289.101504 
L 494.999737 283.655825 
L 498.024964 283.655825 
L 501.05019 289.101504 
L 504.075417 289.101504 
L 507.100643 283.655825 
L 510.12587 283.655825 
L 513.151096 289.101504 
L 516.176323 289.101504 
L 519.201549 289.101504 
L 522.226776 289.101504 
L 525.252002 289.101504 
L 528.277229 294.547183 
L 531.302455 289.101504 
L 534.327682 289.101504 
L 537.352908 289.101504 
L 540.378135 305.438541 
L 543.403361 321.775578 
L 546.428588 310.88422 
L 549.453814 321.775578 
L 552.47904 343.558294 
L 555.504267 349.003973 
L 558.529493 359.895331 
L 561.55472 370.786689 
L 564.579946 387.123726 
L 567.605173 398.015084 
L 570.630399 403.460763 
L 573.655626 403.460763 
L 576.680852 408.906442 
L 579.706079 414.352121 
L 582.731305 414.352121 
L 585.756532 419.7978 
L 588.781758 419.7978 
L 591.806985 419.7978 
L 594.832211 419.7978 
L 597.857438 419.7978 
L 600.882664 419.7978 
L 603.907891 419.7978 
L 606.933117 419.7978 
L 609.958344 419.7978 
L 612.98357 419.7978 
L 616.008797 419.7978 
L 619.034023 425.243479 
L 622.05925 425.243479 
L 625.084476 419.7978 
L 628.109703 419.7978 
L 631.134929 419.7978 
L 634.160156 414.352121 
L 637.185382 408.906442 
L 640.210609 403.460763 
L 643.235835 392.569405 
L 646.261062 376.232368 
L 649.286288 343.558294 
L 652.311515 316.329899 
L 655.336741 299.992862 
L 658.361968 289.101504 
L 661.387194 289.101504 
L 664.412421 283.655825 
L 667.437647 289.101504 
L 670.462874 289.101504 
L 673.4881 289.101504 
L 673.4881 207.416319 
L 673.4881 207.416319 
L 670.462874 212.861998 
L 667.437647 207.416319 
L 664.412421 207.416319 
L 661.387194 212.861998 
L 658.361968 218.307677 
L 655.336741 218.307677 
L 652.311515 223.753356 
L 649.286288 229.199035 
L 646.261062 240.090393 
L 643.235835 245.536072 
L 640.210609 250.981751 
L 637.185382 256.42743 
L 634.160156 256.42743 
L 631.134929 261.873109 
L 628.109703 261.873109 
L 625.084476 261.873109 
L 622.05925 261.873109 
L 619.034023 261.873109 
L 616.008797 261.873109 
L 612.98357 261.873109 
L 609.958344 261.873109 
L 606.933117 261.873109 
L 603.907891 261.873109 
L 600.882664 261.873109 
L 597.857438 261.873109 
L 594.832211 261.873109 
L 591.806985 261.873109 
L 588.781758 261.873109 
L 585.756532 261.873109 
L 582.731305 261.873109 
L 579.706079 256.42743 
L 576.680852 256.42743 
L 573.655626 256.42743 
L 570.630399 250.981751 
L 567.605173 250.981751 
L 564.579946 245.536072 
L 561.55472 240.090393 
L 558.529493 240.090393 
L 555.504267 234.644714 
L 552.47904 234.644714 
L 549.453814 229.199035 
L 546.428588 223.753356 
L 543.403361 229.199035 
L 540.378135 223.753356 
L 537.352908 212.861998 
L 534.327682 212.861998 
L 531.302455 212.861998 
L 528.277229 218.307677 
L 525.252002 212.861998 
L 522.226776 212.861998 
L 519.201549 212.861998 
L 516.176323 218.307677 
L 513.151096 207.416319 
L 510.12587 196.524961 
L 507.100643 201.97064 
L 504.075417 207.416319 
L 501.05019 201.97064 
L 498.024964 196.524961 
L 494.999737 201.97064 
L 491.974511 212.861998 
L 488.949284 201.97064 
L 485.924058 196.524961 
L 482.898831 201.97064 
L 479.873605 201.97064 
L 476.848378 201.97064 
L 473.823152 196.524961 
L 470.797925 207.416319 
L 467.772699 212.861998 
L 464.747472 212.861998 
L 461.722246 212.861998 
L 458.697019 218.307677 
L 455.671793 223.753356 
L 452.646566 223.753356 
L 449.62134 229.199035 
L 446.596113 234.644714 
L 443.570887 240.090393 
L 440.54566 240.090393 
L 437.520434 245.536072 
L 434.495207 250.981751 
L 431.469981 250.981751 
L 428.444754 256.42743 
L 425.419528 256.42743 
L 422.394301 261.873109 
L 419.369075 261.873109 
L 416.343848 261.873109 
L 413.318622 261.873109 
L 410.293395 261.873109 
L 407.268169 261.873109 
L 404.242942 261.873109 
L 401.217716 261.873109 
L 398.192489 261.873109 
L 395.167263 261.873109 
L 392.142036 261.873109 
L 389.11681 261.873109 
L 386.091583 256.42743 
L 383.066357 256.42743 
L 380.04113 256.42743 
L 377.015904 256.42743 
L 373.990677 256.42743 
L 370.965451 256.42743 
L 367.940224 256.42743 
L 364.914998 256.42743 
L 361.889771 250.981751 
L 358.864545 250.981751 
L 355.839318 245.536072 
L 352.814092 245.536072 
L 349.788865 245.536072 
L 346.763639 240.090393 
L 343.738412 240.090393 
L 340.713186 240.090393 
L 337.687959 240.090393 
L 334.662733 240.090393 
L 331.637506 240.090393 
L 328.61228 240.090393 
L 325.587053 240.090393 
L 322.561827 234.644714 
L 319.5366 234.644714 
L 316.511374 229.199035 
L 313.486147 223.753356 
L 310.460921 223.753356 
L 307.435694 218.307677 
L 304.410468 218.307677 
L 301.385242 212.861998 
L 298.360015 207.416319 
L 295.334789 201.97064 
L 292.309562 196.524961 
L 289.284336 196.524961 
L 286.259109 191.079282 
L 283.233883 174.742245 
L 280.208656 163.850887 
L 277.18343 158.405208 
L 274.158203 147.51385 
L 271.132977 136.622492 
L 268.10775 125.731134 
L 265.082524 120.285455 
L 262.057297 125.731134 
L 259.032071 120.285455 
L 256.006844 125.731134 
L 252.981618 131.176813 
L 249.956391 142.068171 
L 246.931165 152.959529 
L 243.905938 163.850887 
L 240.880712 169.296566 
L 237.855485 174.742245 
L 234.830259 191.079282 
L 231.805032 201.97064 
L 228.779806 207.416319 
L 225.754579 212.861998 
L 222.729353 223.753356 
L 219.704126 229.199035 
L 216.6789 240.090393 
L 213.653673 240.090393 
L 210.628447 250.981751 
L 207.60322 256.42743 
L 204.577994 256.42743 
L 201.552767 256.42743 
L 198.527541 261.873109 
L 195.502314 261.873109 
L 192.477088 261.873109 
L 189.451861 261.873109 
L 186.426635 261.873109 
L 183.401408 261.873109 
L 180.376182 256.42743 
L 177.350955 261.873109 
L 174.325729 261.873109 
L 171.300502 261.873109 
L 168.275276 261.873109 
L 165.250049 256.42743 
L 162.224823 256.42743 
L 159.199596 256.42743 
L 156.17437 256.42743 
L 153.149143 256.42743 
L 150.123917 250.981751 
L 147.09869 256.42743 
L 144.073464 256.42743 
L 141.048237 256.42743 
L 138.023011 250.981751 
L 134.997784 250.981751 
L 131.972558 245.536072 
L 128.947331 240.090393 
L 125.922105 240.090393 
L 122.896878 234.644714 
L 119.871652 229.199035 
L 116.846425 218.307677 
L 113.821199 218.307677 
L 110.795972 212.861998 
L 107.770746 207.416319 
L 104.745519 207.416319 
L 101.720293 207.416319 
L 98.695066 212.861998 
L 95.66984 207.416319 
L 92.644613 196.524961 
L 89.619387 180.187924 
L 86.59416 174.742245 
L 83.568934 169.296566 
L 80.543707 169.296566 
L 77.518481 185.633603 
z
" style="fill:#008000;fill-opacity:0.4;"/>
   </g>
   <g id="matplotlib.axis_1">
    <g id="xtick_1">
     <g id="line2d_1">
      <defs>
       <path d="M 0 0 
L 0 3.5 
" id="mdd66159e4e" style="stroke:#000000;stroke-width:0.8;"/>
      </defs>
      <g>
       <use style="stroke:#000000;stroke-width:0.8;" x="77.518481" xlink:href="#mdd66159e4e" y="469"/>
      </g>
     </g>
     <g id="text_1">
      <!-- 0.0 -->
      <defs>
       <path d="M 31.78125 66.40625 
Q 24.171875 66.40625 20.328125 58.90625 
Q 16.5 51.421875 16.5 36.375 
Q 16.5 21.390625 20.328125 13.890625 
Q 24.171875 6.390625 31.78125 6.390625 
Q 39.453125 6.390625 43.28125 13.890625 
Q 47.125 21.390625 47.125 36.375 
Q 47.125 51.421875 43.28125 58.90625 
Q 39.453125 66.40625 31.78125 66.40625 
z
M 31.78125 74.21875 
Q 44.046875 74.21875 50.515625 64.515625 
Q 56.984375 54.828125 56.984375 36.375 
Q 56.984375 17.96875 50.515625 8.265625 
Q 44.046875 -1.421875 31.78125 -1.421875 
Q 19.53125 -1.421875 13.0625 8.265625 
Q 6.59375 17.96875 6.59375 36.375 
Q 6.59375 54.828125 13.0625 64.515625 
Q 19.53125 74.21875 31.78125 74.21875 
z
" id="DejaVuSans-30"/>
       <path d="M 10.6875 12.40625 
L 21 12.40625 
L 21 0 
L 10.6875 0 
z
" id="DejaVuSans-2e"/>
      </defs>
      <g transform="translate(69.566918 483.598437)scale(0.1 -0.1)">
       <use xlink:href="#DejaVuSans-30"/>
       <use x="63.623047" xlink:href="#DejaVuSans-2e"/>
       <use x="95.410156" xlink:href="#DejaVuSans-30"/>
      </g>
     </g>
    </g>
    <g id="xtick_2">
     <g id="line2d_2">
      <g>
       <use style="stroke:#000000;stroke-width:0.8;" x="196.712405" xlink:href="#mdd66159e4e" y="469"/>
      </g>
     </g>
     <g id="text_2">
      <!-- 0.2 -->
      <defs>
       <path d="M 19.1875 8.296875 
L 53.609375 8.296875 
L 53.609375 0 
L 7.328125 0 
L 7.328125 8.296875 
Q 12.9375 14.109375 22.625 23.890625 
Q 32.328125 33.6875 34.8125 36.53125 
Q 39.546875 41.84375 41.421875 45.53125 
Q 43.3125 49.21875 43.3125 52.78125 
Q 43.3125 58.59375 39.234375 62.25 
Q 35.15625 65.921875 28.609375 65.921875 
Q 23.96875 65.921875 18.8125 64.3125 
Q 13.671875 62.703125 7.8125 59.421875 
L 7.8125 69.390625 
Q 13.765625 71.78125 18.9375 73 
Q 24.125 74.21875 28.421875 74.21875 
Q 39.75 74.21875 46.484375 68.546875 
Q 53.21875 62.890625 53.21875 53.421875 
Q 53.21875 48.921875 51.53125 44.890625 
Q 49.859375 40.875 45.40625 35.40625 
Q 44.1875 33.984375 37.640625 27.21875 
Q 31.109375 20.453125 19.1875 8.296875 
z
" id="DejaVuSans-32"/>
      </defs>
      <g transform="translate(188.760842 483.598437)scale(0.1 -0.1)">
       <use xlink:href="#DejaVuSans-30"/>
       <use x="63.623047" xlink:href="#DejaVuSans-2e"/>
       <use x="95.410156" xlink:href="#DejaVuSans-32"/>
      </g>
     </g>
    </g>
    <g id="xtick_3">
     <g id="line2d_3">
      <g>
       <use style="stroke:#000000;stroke-width:0.8;" x="315.906329" xlink:href="#mdd66159e4e" y="469"/>
      </g>
     </g>
     <g id="text_3">
      <!-- 0.4 -->
      <defs>
       <path d="M 37.796875 64.3125 
L 12.890625 25.390625 
L 37.796875 25.390625 
z
M 35.203125 72.90625 
L 47.609375 72.90625 
L 47.609375 25.390625 
L 58.015625 25.390625 
L 58.015625 17.1875 
L 47.609375 17.1875 
L 47.609375 0 
L 37.796875 0 
L 37.796875 17.1875 
L 4.890625 17.1875 
L 4.890625 26.703125 
z
" id="DejaVuSans-34"/>
      </defs>
      <g transform="translate(307.954766 483.598437)scale(0.1 -0.1)">
       <use xlink:href="#DejaVuSans-30"/>
       <use x="63.623047" xlink:href="#DejaVuSans-2e"/>
       <use x="95.410156" xlink:href="#DejaVuSans-34"/>
      </g>
     </g>
    </g>
    <g id="xtick_4">
     <g id="line2d_4">
      <g>
       <use style="stroke:#000000;stroke-width:0.8;" x="435.100253" xlink:href="#mdd66159e4e" y="469"/>
      </g>
     </g>
     <g id="text_4">
      <!-- 0.6 -->
      <defs>
       <path d="M 33.015625 40.375 
Q 26.375 40.375 22.484375 35.828125 
Q 18.609375 31.296875 18.609375 23.390625 
Q 18.609375 15.53125 22.484375 10.953125 
Q 26.375 6.390625 33.015625 6.390625 
Q 39.65625 6.390625 43.53125 10.953125 
Q 47.40625 15.53125 47.40625 23.390625 
Q 47.40625 31.296875 43.53125 35.828125 
Q 39.65625 40.375 33.015625 40.375 
z
M 52.59375 71.296875 
L 52.59375 62.3125 
Q 48.875 64.0625 45.09375 64.984375 
Q 41.3125 65.921875 37.59375 65.921875 
Q 27.828125 65.921875 22.671875 59.328125 
Q 17.53125 52.734375 16.796875 39.40625 
Q 19.671875 43.65625 24.015625 45.921875 
Q 28.375 48.1875 33.59375 48.1875 
Q 44.578125 48.1875 50.953125 41.515625 
Q 57.328125 34.859375 57.328125 23.390625 
Q 57.328125 12.15625 50.6875 5.359375 
Q 44.046875 -1.421875 33.015625 -1.421875 
Q 20.359375 -1.421875 13.671875 8.265625 
Q 6.984375 17.96875 6.984375 36.375 
Q 6.984375 53.65625 15.1875 63.9375 
Q 23.390625 74.21875 37.203125 74.21875 
Q 40.921875 74.21875 44.703125 73.484375 
Q 48.484375 72.75 52.59375 71.296875 
z
" id="DejaVuSans-36"/>
      </defs>
      <g transform="translate(427.14869 483.598437)scale(0.1 -0.1)">
       <use xlink:href="#DejaVuSans-30"/>
       <use x="63.623047" xlink:href="#DejaVuSans-2e"/>
       <use x="95.410156" xlink:href="#DejaVuSans-36"/>
      </g>
     </g>
    </g>
    <g id="xtick_5">
     <g id="line2d_5">
      <g>
       <use style="stroke:#000000;stroke-width:0.8;" x="554.294176" xlink:href="#mdd66159e4e" y="469"/>
      </g>
     </g>
     <g id="text_5">
      <!-- 0.8 -->
      <defs>
       <path d="M 31.78125 34.625 
Q 24.75 34.625 20.71875 30.859375 
Q 16.703125 27.09375 16.703125 20.515625 
Q 16.703125 13.921875 20.71875 10.15625 
Q 24.75 6.390625 31.78125 6.390625 
Q 38.8125 6.390625 42.859375 10.171875 
Q 46.921875 13.96875 46.921875 20.515625 
Q 46.921875 27.09375 42.890625 30.859375 
Q 38.875 34.625 31.78125 34.625 
z
M 21.921875 38.8125 
Q 15.578125 40.375 12.03125 44.71875 
Q 8.5 49.078125 8.5 55.328125 
Q 8.5 64.0625 14.71875 69.140625 
Q 20.953125 74.21875 31.78125 74.21875 
Q 42.671875 74.21875 48.875 69.140625 
Q 55.078125 64.0625 55.078125 55.328125 
Q 55.078125 49.078125 51.53125 44.71875 
Q 48 40.375 41.703125 38.8125 
Q 48.828125 37.15625 52.796875 32.3125 
Q 56.78125 27.484375 56.78125 20.515625 
Q 56.78125 9.90625 50.3125 4.234375 
Q 43.84375 -1.421875 31.78125 -1.421875 
Q 19.734375 -1.421875 13.25 4.234375 
Q 6.78125 9.90625 6.78125 20.515625 
Q 6.78125 27.484375 10.78125 32.3125 
Q 14.796875 37.15625 21.921875 38.8125 
z
M 18.3125 54.390625 
Q 18.3125 48.734375 21.84375 45.5625 
Q 25.390625 42.390625 31.78125 42.390625 
Q 38.140625 42.390625 41.71875 45.5625 
Q 45.3125 48.734375 45.3125 54.390625 
Q 45.3125 60.0625 41.71875 63.234375 
Q 38.140625 66.40625 31.78125 66.40625 
Q 25.390625 66.40625 21.84375 63.234375 
Q 18.3125 60.0625 18.3125 54.390625 
z
" id="DejaVuSans-38"/>
      </defs>
      <g transform="translate(546.342614 483.598437)scale(0.1 -0.1)">
       <use xlink:href="#DejaVuSans-30"/>
       <use x="63.623047" xlink:href="#DejaVuSans-2e"/>
       <use x="95.410156" xlink:href="#DejaVuSans-38"/>
      </g>
     </g>
    </g>
    <g id="xtick_6">
     <g id="line2d_6">
      <g>
       <use style="stroke:#000000;stroke-width:0.8;" x="673.4881" xlink:href="#mdd66159e4e" y="469"/>
      </g>
     </g>
     <g id="text_6">
      <!-- 1.0 -->
      <defs>
       <path d="M 12.40625 8.296875 
L 28.515625 8.296875 
L 28.515625 63.921875 
L 10.984375 60.40625 
L 10.984375 69.390625 
L 28.421875 72.90625 
L 38.28125 72.90625 
L 38.28125 8.296875 
L 54.390625 8.296875 
L 54.390625 0 
L 12.40625 0 
z
" id="DejaVuSans-31"/>
      </defs>
      <g transform="translate(665.536538 483.598437)scale(0.1 -0.1)">
       <use xlink:href="#DejaVuSans-31"/>
       <use x="63.623047" xlink:href="#DejaVuSans-2e"/>
       <use x="95.410156" xlink:href="#DejaVuSans-30"/>
      </g>
     </g>
    </g>
   </g>
   <g id="matplotlib.axis_2">
    <g id="ytick_1">
     <g id="line2d_7">
      <defs>
       <path d="M 0 0 
L -3.5 0 
" id="mcf175c4ade" style="stroke:#000000;stroke-width:0.8;"/>
      </defs>
      <g>
       <use style="stroke:#000000;stroke-width:0.8;" x="47.72" xlink:href="#mcf175c4ade" y="457.917553"/>
      </g>
     </g>
     <g id="text_7">
      <!-- 0.0 -->
      <g transform="translate(24.816875 461.716772)scale(0.1 -0.1)">
       <use xlink:href="#DejaVuSans-30"/>
       <use x="63.623047" xlink:href="#DejaVuSans-2e"/>
       <use x="95.410156" xlink:href="#DejaVuSans-30"/>
      </g>
     </g>
    </g>
    <g id="ytick_2">
     <g id="line2d_8">
      <g>
       <use style="stroke:#000000;stroke-width:0.8;" x="47.72" xlink:href="#mcf175c4ade" y="403.460763"/>
      </g>
     </g>
     <g id="text_8">
      <!-- 0.1 -->
      <g transform="translate(24.816875 407.259982)scale(0.1 -0.1)">
       <use xlink:href="#DejaVuSans-30"/>
       <use x="63.623047" xlink:href="#DejaVuSans-2e"/>
       <use x="95.410156" xlink:href="#DejaVuSans-31"/>
      </g>
     </g>
    </g>
    <g id="ytick_3">
     <g id="line2d_9">
      <g>
       <use style="stroke:#000000;stroke-width:0.8;" x="47.72" xlink:href="#mcf175c4ade" y="349.003973"/>
      </g>
     </g>
     <g id="text_9">
      <!-- 0.2 -->
      <g transform="translate(24.816875 352.803192)scale(0.1 -0.1)">
       <use xlink:href="#DejaVuSans-30"/>
       <use x="63.623047" xlink:href="#DejaVuSans-2e"/>
       <use x="95.410156" xlink:href="#DejaVuSans-32"/>
      </g>
     </g>
    </g>
    <g id="ytick_4">
     <g id="line2d_10">
      <g>
       <use style="stroke:#000000;stroke-width:0.8;" x="47.72" xlink:href="#mcf175c4ade" y="294.547183"/>
      </g>
     </g>
     <g id="text_10">
      <!-- 0.3 -->
      <defs>
       <path d="M 40.578125 39.3125 
Q 47.65625 37.796875 51.625 33 
Q 55.609375 28.21875 55.609375 21.1875 
Q 55.609375 10.40625 48.1875 4.484375 
Q 40.765625 -1.421875 27.09375 -1.421875 
Q 22.515625 -1.421875 17.65625 -0.515625 
Q 12.796875 0.390625 7.625 2.203125 
L 7.625 11.71875 
Q 11.71875 9.328125 16.59375 8.109375 
Q 21.484375 6.890625 26.8125 6.890625 
Q 36.078125 6.890625 40.9375 10.546875 
Q 45.796875 14.203125 45.796875 21.1875 
Q 45.796875 27.640625 41.28125 31.265625 
Q 36.765625 34.90625 28.71875 34.90625 
L 20.21875 34.90625 
L 20.21875 43.015625 
L 29.109375 43.015625 
Q 36.375 43.015625 40.234375 45.921875 
Q 44.09375 48.828125 44.09375 54.296875 
Q 44.09375 59.90625 40.109375 62.90625 
Q 36.140625 65.921875 28.71875 65.921875 
Q 24.65625 65.921875 20.015625 65.03125 
Q 15.375 64.15625 9.8125 62.3125 
L 9.8125 71.09375 
Q 15.4375 72.65625 20.34375 73.4375 
Q 25.25 74.21875 29.59375 74.21875 
Q 40.828125 74.21875 47.359375 69.109375 
Q 53.90625 64.015625 53.90625 55.328125 
Q 53.90625 49.265625 50.4375 45.09375 
Q 46.96875 40.921875 40.578125 39.3125 
z
" id="DejaVuSans-33"/>
      </defs>
      <g transform="translate(24.816875 298.346402)scale(0.1 -0.1)">
       <use xlink:href="#DejaVuSans-30"/>
       <use x="63.623047" xlink:href="#DejaVuSans-2e"/>
       <use x="95.410156" xlink:href="#DejaVuSans-33"/>
      </g>
     </g>
    </g>
    <g id="ytick_5">
     <g id="line2d_11">
      <g>
       <use style="stroke:#000000;stroke-width:0.8;" x="47.72" xlink:href="#mcf175c4ade" y="240.090393"/>
      </g>
     </g>
     <g id="text_11">
      <!-- 0.4 -->
      <g transform="translate(24.816875 243.889611)scale(0.1 -0.1)">
       <use xlink:href="#DejaVuSans-30"/>
       <use x="63.623047" xlink:href="#DejaVuSans-2e"/>
       <use x="95.410156" xlink:href="#DejaVuSans-34"/>
      </g>
     </g>
    </g>
    <g id="ytick_6">
     <g id="line2d_12">
      <g>
       <use style="stroke:#000000;stroke-width:0.8;" x="47.72" xlink:href="#mcf175c4ade" y="185.633603"/>
      </g>
     </g>
     <g id="text_12">
      <!-- 0.5 -->
      <defs>
       <path d="M 10.796875 72.90625 
L 49.515625 72.90625 
L 49.515625 64.59375 
L 19.828125 64.59375 
L 19.828125 46.734375 
Q 21.96875 47.46875 24.109375 47.828125 
Q 26.265625 48.1875 28.421875 48.1875 
Q 40.625 48.1875 47.75 41.5 
Q 54.890625 34.8125 54.890625 23.390625 
Q 54.890625 11.625 47.5625 5.09375 
Q 40.234375 -1.421875 26.90625 -1.421875 
Q 22.3125 -1.421875 17.546875 -0.640625 
Q 12.796875 0.140625 7.71875 1.703125 
L 7.71875 11.625 
Q 12.109375 9.234375 16.796875 8.0625 
Q 21.484375 6.890625 26.703125 6.890625 
Q 35.15625 6.890625 40.078125 11.328125 
Q 45.015625 15.765625 45.015625 23.390625 
Q 45.015625 31 40.078125 35.4375 
Q 35.15625 39.890625 26.703125 39.890625 
Q 22.75 39.890625 18.8125 39.015625 
Q 14.890625 38.140625 10.796875 36.28125 
z
" id="DejaVuSans-35"/>
      </defs>
      <g transform="translate(24.816875 189.432821)scale(0.1 -0.1)">
       <use xlink:href="#DejaVuSans-30"/>
       <use x="63.623047" xlink:href="#DejaVuSans-2e"/>
       <use x="95.410156" xlink:href="#DejaVuSans-35"/>
      </g>
     </g>
    </g>
    <g id="ytick_7">
     <g id="line2d_13">
      <g>
       <use style="stroke:#000000;stroke-width:0.8;" x="47.72" xlink:href="#mcf175c4ade" y="131.176813"/>
      </g>
     </g>
     <g id="text_13">
      <!-- 0.6 -->
      <g transform="translate(24.816875 134.976031)scale(0.1 -0.1)">
       <use xlink:href="#DejaVuSans-30"/>
       <use x="63.623047" xlink:href="#DejaVuSans-2e"/>
       <use x="95.410156" xlink:href="#DejaVuSans-36"/>
      </g>
     </g>
    </g>
   </g>
   <g id="line2d_14">
    <path clip-path="url(#pe7646d98dd)" d="M 77.518481 189.131362 
L 80.543707 183.240227 
L 83.568934 193.918114 
L 86.59416 195.022498 
L 89.619387 219.691968 
L 92.644613 241.415871 
L 95.66984 258.353022 
L 98.695066 254.671198 
L 101.720293 246.570751 
L 104.745519 255.775582 
L 107.770746 262.771646 
L 110.795972 277.499485 
L 113.821199 284.126876 
L 116.846425 307.323835 
L 119.871652 332.361433 
L 125.922105 362.922039 
L 128.947331 372.126871 
L 131.972558 396.060085 
L 134.997784 406.737755 
L 138.023011 410.051559 
L 141.048237 414.101729 
L 144.073464 411.156161 
L 147.09869 410.051559 
L 150.123917 410.051559 
L 153.149143 415.942749 
L 156.17437 426.252346 
L 159.199596 429.197968 
L 162.224823 431.038934 
L 165.250049 436.561942 
L 168.275276 436.561942 
L 171.300502 438.402962 
L 174.325729 433.984556 
L 177.350955 431.775353 
L 180.376182 435.089158 
L 183.401408 434.720975 
L 186.426635 436.930124 
L 189.451861 437.298361 
L 192.477088 439.507564 
L 195.502314 436.561942 
L 198.527541 432.143536 
L 201.552767 426.252346 
L 204.577994 418.151952 
L 207.60322 397.164469 
L 210.628447 371.758743 
L 213.653673 350.402968 
L 216.6789 330.520249 
L 219.704126 301.432699 
L 222.729353 273.817661 
L 225.754579 249.884446 
L 228.779806 229.6336 
L 231.805032 213.800833 
L 234.830259 196.495554 
L 237.855485 188.026979 
L 240.880712 180.662787 
L 243.905938 174.035396 
L 249.956391 153.784549 
L 252.981618 146.788485 
L 256.006844 140.161094 
L 259.032071 143.842917 
L 262.057297 138.31991 
L 265.082524 140.529222 
L 268.10775 153.784549 
L 271.132977 165.56682 
L 274.158203 179.558403 
L 277.18343 180.294659 
L 280.208656 195.39117 
L 283.233883 217.851329 
L 286.259109 221.533152 
L 289.284336 224.110592 
L 292.309562 234.420352 
L 295.334789 243.625183 
L 298.360015 264.612285 
L 304.410468 286.336188 
L 307.435694 299.591515 
L 310.460921 304.746395 
L 313.486147 318.001722 
L 316.511374 327.942809 
L 319.5366 340.093753 
L 322.561827 347.089272 
L 325.587053 359.976472 
L 328.61228 363.290167 
L 334.662733 361.080855 
L 337.687959 363.658295 
L 340.713186 363.290167 
L 343.738412 356.294103 
L 349.788865 377.28175 
L 352.814092 383.172886 
L 355.839318 386.486582 
L 358.864545 402.319349 
L 361.889771 412.997127 
L 364.914998 415.942749 
L 367.940224 417.78377 
L 370.965451 416.310932 
L 373.990677 419.256554 
L 377.015904 418.888372 
L 380.04113 421.465757 
L 383.066357 427.725129 
L 389.11681 438.034726 
L 392.142036 441.716767 
L 395.167263 446.135173 
L 398.192489 447.607957 
L 401.217716 446.503355 
L 404.242942 444.662335 
L 407.268169 447.607957 
L 410.293395 447.976139 
L 413.318622 443.557733 
L 416.343848 439.507564 
L 419.369075 435.825523 
L 422.394301 428.829731 
L 425.419528 418.888372 
L 428.444754 404.528552 
L 431.469981 395.691957 
L 434.495207 375.072438 
L 437.520434 359.976472 
L 440.54566 348.930456 
L 443.570887 334.570745 
L 446.596113 319.106106 
L 449.62134 306.587579 
L 452.646566 304.746395 
L 455.671793 287.072988 
L 458.697019 272.344605 
L 461.722246 269.030909 
L 464.747472 260.930462 
L 467.772699 249.516319 
L 470.797925 224.47872 
L 473.823152 235.524735 
L 476.848378 238.838431 
L 479.873605 231.474239 
L 482.898831 221.533152 
L 485.924058 232.21104 
L 488.949284 260.930462 
L 491.974511 238.470303 
L 494.999737 228.160544 
L 498.024964 236.629119 
L 501.05019 255.407454 
L 504.075417 238.470303 
L 507.100643 226.688032 
L 510.12587 252.461886 
L 513.151096 272.712733 
L 516.176323 271.608349 
L 519.201549 267.926526 
L 522.226776 266.821597 
L 525.252002 277.867613 
L 528.277229 271.976477 
L 531.302455 262.403518 
L 534.327682 271.608349 
L 537.352908 287.072988 
L 540.378135 308.060091 
L 543.403361 298.487132 
L 546.428588 308.060091 
L 549.453814 327.574681 
L 555.504267 347.089272 
L 558.529493 355.925976 
L 561.55472 382.068502 
L 564.579946 400.110037 
L 567.605173 406.369518 
L 570.630399 410.787924 
L 573.655626 416.679169 
L 576.680852 430.302569 
L 579.706079 436.561942 
L 582.731305 439.139327 
L 585.756532 443.189551 
L 588.781758 446.503355 
L 591.806985 446.871538 
L 594.832211 445.398754 
L 597.857438 445.398754 
L 600.882664 443.557733 
L 603.907891 445.030572 
L 606.933117 447.607957 
L 609.958344 448.712559 
L 612.98357 451.289944 
L 616.008797 452.394545 
L 619.034023 452.394545 
L 622.05925 449.080741 
L 625.084476 443.557733 
L 628.109703 439.507564 
L 631.134929 433.984556 
L 634.160156 425.515926 
L 637.185382 410.419742 
L 643.235835 368.445047 
L 646.261062 329.783993 
L 649.286288 302.168955 
L 652.311515 285.231804 
L 655.336741 274.553917 
L 658.361968 259.45795 
L 661.387194 242.152127 
L 664.412421 253.198142 
L 667.437647 260.194206 
L 670.462874 250.620702 
L 673.4881 236.260991 
L 673.4881 236.260991 
" style="fill:none;stroke:#1f77b4;stroke-linecap:square;stroke-width:1.5;"/>
   </g>
   <g id="line2d_15">
    <path clip-path="url(#pe7646d98dd)" d="M 77.518481 222.012429 
L 80.543707 214.502257 
L 83.568934 214.019845 
L 86.59416 217.732192 
L 89.619387 219.260465 
L 92.644613 230.509637 
L 95.66984 239.848219 
L 98.695066 246.920688 
L 101.720293 244.982942 
L 104.745519 241.505675 
L 107.770746 245.87404 
L 110.795972 249.645856 
L 113.821199 256.737097 
L 116.846425 261.265526 
L 119.871652 272.241071 
L 122.896878 284.524282 
L 125.922105 292.159768 
L 128.947331 298.957463 
L 131.972558 303.986861 
L 134.997784 313.369364 
L 138.023011 318.323173 
L 141.048237 319.616078 
L 144.073464 320.731008 
L 147.09869 319.764607 
L 150.123917 319.222726 
L 153.149143 319.669528 
L 156.17437 322.059809 
L 159.199596 325.697499 
L 162.224823 327.026013 
L 165.250049 327.846681 
L 168.275276 329.747456 
L 171.300502 329.882156 
L 174.325729 330.346728 
L 177.350955 328.764002 
L 180.376182 327.917971 
L 183.401408 329.029175 
L 186.426635 329.181931 
L 189.451861 329.88409 
L 192.477088 330.070234 
L 195.502314 330.746601 
L 198.527541 329.736135 
L 201.552767 327.899414 
L 204.577994 325.700078 
L 207.60322 321.918947 
L 210.628447 313.304163 
L 213.653673 302.093323 
L 219.704126 281.891541 
L 225.754579 253.256462 
L 228.779806 242.02341 
L 231.805032 232.452972 
L 234.830259 224.728856 
L 237.855485 217.877855 
L 240.880712 214.315182 
L 243.905938 211.929701 
L 246.931165 209.101287 
L 249.956391 205.092385 
L 252.981618 201.479199 
L 256.006844 199.29885 
L 259.032071 197.400224 
L 262.057297 198.449953 
L 265.082524 196.427876 
L 268.10775 198.249766 
L 271.132977 203.32631 
L 274.158203 207.339654 
L 277.18343 212.262081 
L 280.208656 212.93551 
L 283.233883 219.787013 
L 286.259109 228.341468 
L 292.309562 231.514729 
L 295.334789 235.57572 
L 298.360015 241.064102 
L 301.385242 250.321577 
L 304.410468 255.701912 
L 310.460921 267.775836 
L 313.486147 271.142191 
L 316.511374 277.013322 
L 319.5366 282.359337 
L 322.561827 288.112677 
L 325.587053 291.728656 
L 328.61228 297.210375 
L 331.637506 298.580016 
L 334.662733 298.23997 
L 337.687959 298.323441 
L 340.713186 298.916193 
L 343.738412 298.038493 
L 346.763639 295.925064 
L 349.788865 301.119398 
L 352.814092 305.647756 
L 355.839318 307.628348 
L 358.864545 310.091997 
L 361.889771 316.540547 
L 364.914998 320.730076 
L 367.940224 321.885272 
L 370.965451 322.30141 
L 373.990677 322.182974 
L 377.015904 323.114912 
L 380.04113 323.064399 
L 383.066357 324.14114 
L 389.11681 328.567684 
L 392.142036 330.52019 
L 398.192489 333.180229 
L 401.217716 333.705702 
L 407.268169 332.888833 
L 410.293395 333.630113 
L 413.318622 333.715375 
L 419.369075 330.748965 
L 422.394301 329.472754 
L 425.419528 326.475033 
L 428.444754 322.4422 
L 431.469981 317.190618 
L 434.495207 312.542105 
L 437.520434 303.931333 
L 440.54566 296.690776 
L 443.570887 291.701788 
L 446.596113 284.630394 
L 449.62134 276.906421 
L 452.646566 271.116612 
L 455.671793 269.434223 
L 458.697019 260.675855 
L 461.722246 253.210033 
L 464.747472 251.793247 
L 467.772699 247.80892 
L 470.797925 241.1005 
L 473.823152 231.03769 
L 476.848378 236.147981 
L 479.873605 237.829295 
L 482.898831 233.208367 
L 485.924058 229.50254 
L 488.949284 236.561037 
L 491.974511 247.819452 
L 494.999737 237.053838 
L 498.024964 232.109702 
L 501.05019 237.828722 
L 504.075417 244.911794 
L 507.100643 236.685133 
L 510.12587 232.508357 
L 513.151096 245.358812 
L 516.176323 254.680986 
L 519.201549 253.601237 
L 522.226776 251.289626 
L 525.252002 251.308828 
L 528.277229 256.505026 
L 534.327682 249.299648 
L 537.352908 253.868487 
L 543.403361 271.658493 
L 546.428588 267.505433 
L 549.453814 272.451791 
L 552.47904 281.698734 
L 555.504267 286.830375 
L 558.529493 291.277984 
L 561.55472 296.427466 
L 564.579946 307.571602 
L 567.605173 315.64472 
L 570.630399 318.113241 
L 573.655626 319.744115 
L 576.680852 322.457318 
L 579.706079 327.214092 
L 582.731305 330.010909 
L 585.756532 330.782712 
L 588.781758 332.33993 
L 591.806985 333.31235 
L 594.832211 333.318941 
L 603.907891 332.378334 
L 606.933117 332.850859 
L 609.958344 333.706419 
L 612.98357 334.207675 
L 616.008797 334.928607 
L 619.034023 335.311141 
L 622.05925 335.321315 
L 625.084476 334.138749 
L 628.109703 332.114666 
L 631.134929 330.554008 
L 634.160156 328.490733 
L 637.185382 325.25915 
L 640.210609 318.86706 
L 643.235835 310.222255 
L 646.261062 299.959545 
L 649.286288 282.09008 
L 652.311515 267.897425 
L 655.336741 259.618603 
L 658.361968 254.325034 
L 661.387194 246.502473 
L 664.412421 239.484099 
L 667.437647 244.733603 
L 670.462874 247.672572 
L 673.4881 242.517573 
L 673.4881 242.517573 
" style="fill:none;stroke:#ff7f0e;stroke-linecap:square;stroke-width:1.5;"/>
   </g>
   <g id="line2d_16">
    <path clip-path="url(#pe7646d98dd)" d="M 77.518481 283.655825 
L 80.543707 278.210146 
L 83.568934 283.655825 
L 92.644613 283.655825 
L 95.66984 289.101504 
L 110.795972 289.101504 
L 116.846425 299.992862 
L 119.871652 321.775578 
L 122.896878 349.003973 
L 131.972558 381.678047 
L 134.997784 398.015084 
L 138.023011 403.460763 
L 153.149143 403.460763 
L 159.199596 414.352121 
L 171.300502 414.352121 
L 174.325729 419.7978 
L 177.350955 414.352121 
L 192.477088 414.352121 
L 195.502314 419.7978 
L 198.527541 414.352121 
L 204.577994 414.352121 
L 207.60322 408.906442 
L 210.628447 398.015084 
L 213.653673 376.232368 
L 219.704126 343.558294 
L 225.754579 289.101504 
L 228.779806 283.655825 
L 237.855485 283.655825 
L 240.880712 278.210146 
L 274.158203 278.210146 
L 277.18343 283.655825 
L 295.334789 283.655825 
L 298.360015 289.101504 
L 301.385242 289.101504 
L 304.410468 293.458047 
L 307.435694 299.992862 
L 322.561827 354.449652 
L 325.587053 359.895331 
L 328.61228 370.786689 
L 346.763639 370.786689 
L 367.940224 408.906442 
L 383.066357 408.906442 
L 386.091583 414.352121 
L 389.11681 414.352121 
L 392.142036 419.7978 
L 419.369075 419.7978 
L 422.394301 414.352121 
L 425.419528 414.352121 
L 431.469981 403.460763 
L 446.596113 349.003973 
L 449.62134 332.666936 
L 452.646566 321.775578 
L 455.671793 316.329899 
L 458.697019 299.992862 
L 461.722246 289.101504 
L 467.772699 289.101504 
L 470.797925 283.655825 
L 485.924058 283.655825 
L 488.949284 289.101504 
L 491.974511 289.101504 
L 494.999737 283.655825 
L 498.024964 283.655825 
L 501.05019 289.101504 
L 504.075417 289.101504 
L 507.100643 283.655825 
L 510.12587 283.655825 
L 513.151096 289.101504 
L 525.252002 289.101504 
L 528.277229 294.547183 
L 531.302455 289.101504 
L 537.352908 289.101504 
L 543.403361 321.775578 
L 546.428588 310.88422 
L 549.453814 321.775578 
L 552.47904 343.558294 
L 555.504267 349.003973 
L 561.55472 370.786689 
L 564.579946 387.123726 
L 567.605173 398.015084 
L 570.630399 403.460763 
L 573.655626 403.460763 
L 579.706079 414.352121 
L 582.731305 414.352121 
L 585.756532 419.7978 
L 616.008797 419.7978 
L 619.034023 425.243479 
L 622.05925 425.243479 
L 625.084476 419.7978 
L 631.134929 419.7978 
L 640.210609 403.460763 
L 643.235835 392.569405 
L 646.261062 376.232368 
L 649.286288 343.558294 
L 652.311515 316.329899 
L 655.336741 299.992862 
L 658.361968 289.101504 
L 661.387194 289.101504 
L 664.412421 283.655825 
L 667.437647 289.101504 
L 673.4881 289.101504 
L 673.4881 289.101504 
" style="fill:none;stroke:#2ca02c;stroke-linecap:square;stroke-width:1.5;"/>
   </g>
   <g id="line2d_17">
    <path clip-path="url(#pe7646d98dd)" d="M 77.518481 185.633603 
L 80.543707 169.296566 
L 83.568934 169.296566 
L 89.619387 180.187924 
L 92.644613 196.524961 
L 95.66984 207.416319 
L 98.695066 212.861998 
L 101.720293 207.416319 
L 107.770746 207.416319 
L 113.821199 218.307677 
L 116.846425 218.307677 
L 119.871652 229.199035 
L 125.922105 240.090393 
L 128.947331 240.090393 
L 134.997784 250.981751 
L 138.023011 250.981751 
L 141.048237 256.42743 
L 147.09869 256.42743 
L 150.123917 250.981751 
L 153.149143 256.42743 
L 165.250049 256.42743 
L 168.275276 261.873109 
L 177.350955 261.873109 
L 180.376182 256.42743 
L 183.401408 261.873109 
L 198.527541 261.873109 
L 201.552767 256.42743 
L 207.60322 256.42743 
L 210.628447 250.981751 
L 213.653673 240.090393 
L 216.6789 240.090393 
L 219.704126 229.199035 
L 222.729353 223.753356 
L 225.754579 212.861998 
L 231.805032 201.97064 
L 234.830259 191.079282 
L 237.855485 174.742245 
L 243.905938 163.850887 
L 252.981618 131.176813 
L 259.032071 120.285455 
L 262.057297 125.731134 
L 265.082524 120.285455 
L 268.10775 125.731134 
L 277.18343 158.405208 
L 280.208656 163.850887 
L 283.233883 174.742245 
L 286.259109 191.079282 
L 289.284336 196.524961 
L 292.309562 196.524961 
L 304.410468 218.307677 
L 307.435694 218.307677 
L 310.460921 223.753356 
L 313.486147 223.753356 
L 319.5366 234.644714 
L 322.561827 234.644714 
L 325.587053 240.090393 
L 346.763639 240.090393 
L 349.788865 245.536072 
L 355.839318 245.536072 
L 358.864545 250.981751 
L 361.889771 250.981751 
L 364.914998 256.42743 
L 386.091583 256.42743 
L 389.11681 261.873109 
L 422.394301 261.873109 
L 425.419528 256.42743 
L 428.444754 256.42743 
L 431.469981 250.981751 
L 434.495207 250.981751 
L 440.54566 240.090393 
L 443.570887 240.090393 
L 452.646566 223.753356 
L 455.671793 223.753356 
L 461.722246 212.861998 
L 467.772699 212.861998 
L 470.797925 207.416319 
L 473.823152 196.524961 
L 476.848378 201.97064 
L 482.898831 201.97064 
L 485.924058 196.524961 
L 488.949284 201.97064 
L 491.974511 212.861998 
L 494.999737 201.97064 
L 498.024964 196.524961 
L 504.075417 207.416319 
L 510.12587 196.524961 
L 516.176323 218.307677 
L 519.201549 212.861998 
L 525.252002 212.861998 
L 528.277229 218.307677 
L 531.302455 212.861998 
L 537.352908 212.861998 
L 540.378135 223.753356 
L 543.403361 229.199035 
L 546.428588 223.753356 
L 552.47904 234.644714 
L 555.504267 234.644714 
L 558.529493 240.090393 
L 561.55472 240.090393 
L 567.605173 250.981751 
L 570.630399 250.981751 
L 573.655626 256.42743 
L 579.706079 256.42743 
L 582.731305 261.873109 
L 631.134929 261.873109 
L 634.160156 256.42743 
L 637.185382 256.42743 
L 646.261062 240.090393 
L 649.286288 229.199035 
L 655.336741 218.307677 
L 658.361968 218.307677 
L 664.412421 207.416319 
L 667.437647 207.416319 
L 670.462874 212.861998 
L 673.4881 207.416319 
L 673.4881 207.416319 
" style="fill:none;stroke:#d62728;stroke-linecap:square;stroke-width:1.5;"/>
   </g>
   <g id="patch_3">
    <path d="M 47.72 469 
L 47.72 103.68 
" style="fill:none;stroke:#000000;stroke-linecap:square;stroke-linejoin:miter;stroke-width:0.8;"/>
   </g>
   <g id="patch_4">
    <path d="M 703.286581 469 
L 703.286581 103.68 
" style="fill:none;stroke:#000000;stroke-linecap:square;stroke-linejoin:miter;stroke-width:0.8;"/>
   </g>
   <g id="patch_5">
    <path d="M 47.72 469 
L 703.286581 469 
" style="fill:none;stroke:#000000;stroke-linecap:square;stroke-linejoin:miter;stroke-width:0.8;"/>
   </g>
   <g id="patch_6">
    <path d="M 47.72 103.68 
L 703.286581 103.68 
" style="fill:none;stroke:#000000;stroke-linecap:square;stroke-linejoin:miter;stroke-width:0.8;"/>
   </g>
   <g id="text_14">
    <!-- Plot of Test Data vs MCMC Uncertainty  -->
    <defs>
     <path d="M 19.671875 64.796875 
L 19.671875 37.40625 
L 32.078125 37.40625 
Q 38.96875 37.40625 42.71875 40.96875 
Q 46.484375 44.53125 46.484375 51.125 
Q 46.484375 57.671875 42.71875 61.234375 
Q 38.96875 64.796875 32.078125 64.796875 
z
M 9.8125 72.90625 
L 32.078125 72.90625 
Q 44.34375 72.90625 50.609375 67.359375 
Q 56.890625 61.8125 56.890625 51.125 
Q 56.890625 40.328125 50.609375 34.8125 
Q 44.34375 29.296875 32.078125 29.296875 
L 19.671875 29.296875 
L 19.671875 0 
L 9.8125 0 
z
" id="DejaVuSans-50"/>
     <path d="M 9.421875 75.984375 
L 18.40625 75.984375 
L 18.40625 0 
L 9.421875 0 
z
" id="DejaVuSans-6c"/>
     <path d="M 30.609375 48.390625 
Q 23.390625 48.390625 19.1875 42.75 
Q 14.984375 37.109375 14.984375 27.296875 
Q 14.984375 17.484375 19.15625 11.84375 
Q 23.34375 6.203125 30.609375 6.203125 
Q 37.796875 6.203125 41.984375 11.859375 
Q 46.1875 17.53125 46.1875 27.296875 
Q 46.1875 37.015625 41.984375 42.703125 
Q 37.796875 48.390625 30.609375 48.390625 
z
M 30.609375 56 
Q 42.328125 56 49.015625 48.375 
Q 55.71875 40.765625 55.71875 27.296875 
Q 55.71875 13.875 49.015625 6.21875 
Q 42.328125 -1.421875 30.609375 -1.421875 
Q 18.84375 -1.421875 12.171875 6.21875 
Q 5.515625 13.875 5.515625 27.296875 
Q 5.515625 40.765625 12.171875 48.375 
Q 18.84375 56 30.609375 56 
z
" id="DejaVuSans-6f"/>
     <path d="M 18.3125 70.21875 
L 18.3125 54.6875 
L 36.8125 54.6875 
L 36.8125 47.703125 
L 18.3125 47.703125 
L 18.3125 18.015625 
Q 18.3125 11.328125 20.140625 9.421875 
Q 21.96875 7.515625 27.59375 7.515625 
L 36.8125 7.515625 
L 36.8125 0 
L 27.59375 0 
Q 17.1875 0 13.234375 3.875 
Q 9.28125 7.765625 9.28125 18.015625 
L 9.28125 47.703125 
L 2.6875 47.703125 
L 2.6875 54.6875 
L 9.28125 54.6875 
L 9.28125 70.21875 
z
" id="DejaVuSans-74"/>
     <path id="DejaVuSans-20"/>
     <path d="M 37.109375 75.984375 
L 37.109375 68.5 
L 28.515625 68.5 
Q 23.6875 68.5 21.796875 66.546875 
Q 19.921875 64.59375 19.921875 59.515625 
L 19.921875 54.6875 
L 34.71875 54.6875 
L 34.71875 47.703125 
L 19.921875 47.703125 
L 19.921875 0 
L 10.890625 0 
L 10.890625 47.703125 
L 2.296875 47.703125 
L 2.296875 54.6875 
L 10.890625 54.6875 
L 10.890625 58.5 
Q 10.890625 67.625 15.140625 71.796875 
Q 19.390625 75.984375 28.609375 75.984375 
z
" id="DejaVuSans-66"/>
     <path d="M -0.296875 72.90625 
L 61.375 72.90625 
L 61.375 64.59375 
L 35.5 64.59375 
L 35.5 0 
L 25.59375 0 
L 25.59375 64.59375 
L -0.296875 64.59375 
z
" id="DejaVuSans-54"/>
     <path d="M 56.203125 29.59375 
L 56.203125 25.203125 
L 14.890625 25.203125 
Q 15.484375 15.921875 20.484375 11.0625 
Q 25.484375 6.203125 34.421875 6.203125 
Q 39.59375 6.203125 44.453125 7.46875 
Q 49.3125 8.734375 54.109375 11.28125 
L 54.109375 2.78125 
Q 49.265625 0.734375 44.1875 -0.34375 
Q 39.109375 -1.421875 33.890625 -1.421875 
Q 20.796875 -1.421875 13.15625 6.1875 
Q 5.515625 13.8125 5.515625 26.8125 
Q 5.515625 40.234375 12.765625 48.109375 
Q 20.015625 56 32.328125 56 
Q 43.359375 56 49.78125 48.890625 
Q 56.203125 41.796875 56.203125 29.59375 
z
M 47.21875 32.234375 
Q 47.125 39.59375 43.09375 43.984375 
Q 39.0625 48.390625 32.421875 48.390625 
Q 24.90625 48.390625 20.390625 44.140625 
Q 15.875 39.890625 15.1875 32.171875 
z
" id="DejaVuSans-65"/>
     <path d="M 44.28125 53.078125 
L 44.28125 44.578125 
Q 40.484375 46.53125 36.375 47.5 
Q 32.28125 48.484375 27.875 48.484375 
Q 21.1875 48.484375 17.84375 46.4375 
Q 14.5 44.390625 14.5 40.28125 
Q 14.5 37.15625 16.890625 35.375 
Q 19.28125 33.59375 26.515625 31.984375 
L 29.59375 31.296875 
Q 39.15625 29.25 43.1875 25.515625 
Q 47.21875 21.78125 47.21875 15.09375 
Q 47.21875 7.46875 41.1875 3.015625 
Q 35.15625 -1.421875 24.609375 -1.421875 
Q 20.21875 -1.421875 15.453125 -0.5625 
Q 10.6875 0.296875 5.421875 2 
L 5.421875 11.28125 
Q 10.40625 8.6875 15.234375 7.390625 
Q 20.0625 6.109375 24.8125 6.109375 
Q 31.15625 6.109375 34.5625 8.28125 
Q 37.984375 10.453125 37.984375 14.40625 
Q 37.984375 18.0625 35.515625 20.015625 
Q 33.0625 21.96875 24.703125 23.78125 
L 21.578125 24.515625 
Q 13.234375 26.265625 9.515625 29.90625 
Q 5.8125 33.546875 5.8125 39.890625 
Q 5.8125 47.609375 11.28125 51.796875 
Q 16.75 56 26.8125 56 
Q 31.78125 56 36.171875 55.265625 
Q 40.578125 54.546875 44.28125 53.078125 
z
" id="DejaVuSans-73"/>
     <path d="M 19.671875 64.796875 
L 19.671875 8.109375 
L 31.59375 8.109375 
Q 46.6875 8.109375 53.6875 14.9375 
Q 60.6875 21.78125 60.6875 36.53125 
Q 60.6875 51.171875 53.6875 57.984375 
Q 46.6875 64.796875 31.59375 64.796875 
z
M 9.8125 72.90625 
L 30.078125 72.90625 
Q 51.265625 72.90625 61.171875 64.09375 
Q 71.09375 55.28125 71.09375 36.53125 
Q 71.09375 17.671875 61.125 8.828125 
Q 51.171875 0 30.078125 0 
L 9.8125 0 
z
" id="DejaVuSans-44"/>
     <path d="M 34.28125 27.484375 
Q 23.390625 27.484375 19.1875 25 
Q 14.984375 22.515625 14.984375 16.5 
Q 14.984375 11.71875 18.140625 8.90625 
Q 21.296875 6.109375 26.703125 6.109375 
Q 34.1875 6.109375 38.703125 11.40625 
Q 43.21875 16.703125 43.21875 25.484375 
L 43.21875 27.484375 
z
M 52.203125 31.203125 
L 52.203125 0 
L 43.21875 0 
L 43.21875 8.296875 
Q 40.140625 3.328125 35.546875 0.953125 
Q 30.953125 -1.421875 24.3125 -1.421875 
Q 15.921875 -1.421875 10.953125 3.296875 
Q 6 8.015625 6 15.921875 
Q 6 25.140625 12.171875 29.828125 
Q 18.359375 34.515625 30.609375 34.515625 
L 43.21875 34.515625 
L 43.21875 35.40625 
Q 43.21875 41.609375 39.140625 45 
Q 35.0625 48.390625 27.6875 48.390625 
Q 23 48.390625 18.546875 47.265625 
Q 14.109375 46.140625 10.015625 43.890625 
L 10.015625 52.203125 
Q 14.9375 54.109375 19.578125 55.046875 
Q 24.21875 56 28.609375 56 
Q 40.484375 56 46.34375 49.84375 
Q 52.203125 43.703125 52.203125 31.203125 
z
" id="DejaVuSans-61"/>
     <path d="M 2.984375 54.6875 
L 12.5 54.6875 
L 29.59375 8.796875 
L 46.6875 54.6875 
L 56.203125 54.6875 
L 35.6875 0 
L 23.484375 0 
z
" id="DejaVuSans-76"/>
     <path d="M 9.8125 72.90625 
L 24.515625 72.90625 
L 43.109375 23.296875 
L 61.8125 72.90625 
L 76.515625 72.90625 
L 76.515625 0 
L 66.890625 0 
L 66.890625 64.015625 
L 48.09375 14.015625 
L 38.1875 14.015625 
L 19.390625 64.015625 
L 19.390625 0 
L 9.8125 0 
z
" id="DejaVuSans-4d"/>
     <path d="M 64.40625 67.28125 
L 64.40625 56.890625 
Q 59.421875 61.53125 53.78125 63.8125 
Q 48.140625 66.109375 41.796875 66.109375 
Q 29.296875 66.109375 22.65625 58.46875 
Q 16.015625 50.828125 16.015625 36.375 
Q 16.015625 21.96875 22.65625 14.328125 
Q 29.296875 6.6875 41.796875 6.6875 
Q 48.140625 6.6875 53.78125 8.984375 
Q 59.421875 11.28125 64.40625 15.921875 
L 64.40625 5.609375 
Q 59.234375 2.09375 53.4375 0.328125 
Q 47.65625 -1.421875 41.21875 -1.421875 
Q 24.65625 -1.421875 15.125 8.703125 
Q 5.609375 18.84375 5.609375 36.375 
Q 5.609375 53.953125 15.125 64.078125 
Q 24.65625 74.21875 41.21875 74.21875 
Q 47.75 74.21875 53.53125 72.484375 
Q 59.328125 70.75 64.40625 67.28125 
z
" id="DejaVuSans-43"/>
     <path d="M 8.6875 72.90625 
L 18.609375 72.90625 
L 18.609375 28.609375 
Q 18.609375 16.890625 22.84375 11.734375 
Q 27.09375 6.59375 36.625 6.59375 
Q 46.09375 6.59375 50.34375 11.734375 
Q 54.59375 16.890625 54.59375 28.609375 
L 54.59375 72.90625 
L 64.5 72.90625 
L 64.5 27.390625 
Q 64.5 13.140625 57.4375 5.859375 
Q 50.390625 -1.421875 36.625 -1.421875 
Q 22.796875 -1.421875 15.734375 5.859375 
Q 8.6875 13.140625 8.6875 27.390625 
z
" id="DejaVuSans-55"/>
     <path d="M 54.890625 33.015625 
L 54.890625 0 
L 45.90625 0 
L 45.90625 32.71875 
Q 45.90625 40.484375 42.875 44.328125 
Q 39.84375 48.1875 33.796875 48.1875 
Q 26.515625 48.1875 22.3125 43.546875 
Q 18.109375 38.921875 18.109375 30.90625 
L 18.109375 0 
L 9.078125 0 
L 9.078125 54.6875 
L 18.109375 54.6875 
L 18.109375 46.1875 
Q 21.34375 51.125 25.703125 53.5625 
Q 30.078125 56 35.796875 56 
Q 45.21875 56 50.046875 50.171875 
Q 54.890625 44.34375 54.890625 33.015625 
z
" id="DejaVuSans-6e"/>
     <path d="M 48.78125 52.59375 
L 48.78125 44.1875 
Q 44.96875 46.296875 41.140625 47.34375 
Q 37.3125 48.390625 33.40625 48.390625 
Q 24.65625 48.390625 19.8125 42.84375 
Q 14.984375 37.3125 14.984375 27.296875 
Q 14.984375 17.28125 19.8125 11.734375 
Q 24.65625 6.203125 33.40625 6.203125 
Q 37.3125 6.203125 41.140625 7.25 
Q 44.96875 8.296875 48.78125 10.40625 
L 48.78125 2.09375 
Q 45.015625 0.34375 40.984375 -0.53125 
Q 36.96875 -1.421875 32.421875 -1.421875 
Q 20.0625 -1.421875 12.78125 6.34375 
Q 5.515625 14.109375 5.515625 27.296875 
Q 5.515625 40.671875 12.859375 48.328125 
Q 20.21875 56 33.015625 56 
Q 37.15625 56 41.109375 55.140625 
Q 45.0625 54.296875 48.78125 52.59375 
z
" id="DejaVuSans-63"/>
     <path d="M 41.109375 46.296875 
Q 39.59375 47.171875 37.8125 47.578125 
Q 36.03125 48 33.890625 48 
Q 26.265625 48 22.1875 43.046875 
Q 18.109375 38.09375 18.109375 28.8125 
L 18.109375 0 
L 9.078125 0 
L 9.078125 54.6875 
L 18.109375 54.6875 
L 18.109375 46.1875 
Q 20.953125 51.171875 25.484375 53.578125 
Q 30.03125 56 36.53125 56 
Q 37.453125 56 38.578125 55.875 
Q 39.703125 55.765625 41.0625 55.515625 
z
" id="DejaVuSans-72"/>
     <path d="M 9.421875 54.6875 
L 18.40625 54.6875 
L 18.40625 0 
L 9.421875 0 
z
M 9.421875 75.984375 
L 18.40625 75.984375 
L 18.40625 64.59375 
L 9.421875 64.59375 
z
" id="DejaVuSans-69"/>
     <path d="M 32.171875 -5.078125 
Q 28.375 -14.84375 24.75 -17.8125 
Q 21.140625 -20.796875 15.09375 -20.796875 
L 7.90625 -20.796875 
L 7.90625 -13.28125 
L 13.1875 -13.28125 
Q 16.890625 -13.28125 18.9375 -11.515625 
Q 21 -9.765625 23.484375 -3.21875 
L 25.09375 0.875 
L 2.984375 54.6875 
L 12.5 54.6875 
L 29.59375 11.921875 
L 46.6875 54.6875 
L 56.203125 54.6875 
z
" id="DejaVuSans-79"/>
    </defs>
    <g transform="translate(257.456103 97.68)scale(0.12 -0.12)">
     <use xlink:href="#DejaVuSans-50"/>
     <use x="60.302734" xlink:href="#DejaVuSans-6c"/>
     <use x="88.085938" xlink:href="#DejaVuSans-6f"/>
     <use x="149.267578" xlink:href="#DejaVuSans-74"/>
     <use x="188.476562" xlink:href="#DejaVuSans-20"/>
     <use x="220.263672" xlink:href="#DejaVuSans-6f"/>
     <use x="281.445312" xlink:href="#DejaVuSans-66"/>
     <use x="316.650391" xlink:href="#DejaVuSans-20"/>
     <use x="348.4375" xlink:href="#DejaVuSans-54"/>
     <use x="409.255859" xlink:href="#DejaVuSans-65"/>
     <use x="470.779297" xlink:href="#DejaVuSans-73"/>
     <use x="522.878906" xlink:href="#DejaVuSans-74"/>
     <use x="562.087891" xlink:href="#DejaVuSans-20"/>
     <use x="593.875" xlink:href="#DejaVuSans-44"/>
     <use x="670.876953" xlink:href="#DejaVuSans-61"/>
     <use x="732.15625" xlink:href="#DejaVuSans-74"/>
     <use x="771.365234" xlink:href="#DejaVuSans-61"/>
     <use x="832.644531" xlink:href="#DejaVuSans-20"/>
     <use x="864.431641" xlink:href="#DejaVuSans-76"/>
     <use x="923.611328" xlink:href="#DejaVuSans-73"/>
     <use x="975.710938" xlink:href="#DejaVuSans-20"/>
     <use x="1007.498047" xlink:href="#DejaVuSans-4d"/>
     <use x="1093.777344" xlink:href="#DejaVuSans-43"/>
     <use x="1163.601562" xlink:href="#DejaVuSans-4d"/>
     <use x="1249.880859" xlink:href="#DejaVuSans-43"/>
     <use x="1319.705078" xlink:href="#DejaVuSans-20"/>
     <use x="1351.492188" xlink:href="#DejaVuSans-55"/>
     <use x="1424.685547" xlink:href="#DejaVuSans-6e"/>
     <use x="1488.064453" xlink:href="#DejaVuSans-63"/>
     <use x="1543.044922" xlink:href="#DejaVuSans-65"/>
     <use x="1604.568359" xlink:href="#DejaVuSans-72"/>
     <use x="1645.681641" xlink:href="#DejaVuSans-74"/>
     <use x="1684.890625" xlink:href="#DejaVuSans-61"/>
     <use x="1746.169922" xlink:href="#DejaVuSans-69"/>
     <use x="1773.953125" xlink:href="#DejaVuSans-6e"/>
     <use x="1837.332031" xlink:href="#DejaVuSans-74"/>
     <use x="1876.541016" xlink:href="#DejaVuSans-79"/>
     <use x="1935.720703" xlink:href="#DejaVuSans-20"/>
    </g>
   </g>
   <g id="legend_1">
    <g id="patch_7">
     <path d="M 566.410019 170.3925 
L 696.286581 170.3925 
Q 698.286581 170.3925 698.286581 168.3925 
L 698.286581 110.68 
Q 698.286581 108.68 696.286581 108.68 
L 566.410019 108.68 
Q 564.410019 108.68 564.410019 110.68 
L 564.410019 168.3925 
Q 564.410019 170.3925 566.410019 170.3925 
z
" style="fill:#ffffff;opacity:0.8;stroke:#cccccc;stroke-linejoin:miter;"/>
    </g>
    <g id="line2d_18">
     <path d="M 568.410019 116.778437 
L 588.410019 116.778437 
" style="fill:none;stroke:#1f77b4;stroke-linecap:square;stroke-width:1.5;"/>
    </g>
    <g id="line2d_19"/>
    <g id="text_15">
     <!-- actual -->
     <defs>
      <path d="M 8.5 21.578125 
L 8.5 54.6875 
L 17.484375 54.6875 
L 17.484375 21.921875 
Q 17.484375 14.15625 20.5 10.265625 
Q 23.53125 6.390625 29.59375 6.390625 
Q 36.859375 6.390625 41.078125 11.03125 
Q 45.3125 15.671875 45.3125 23.6875 
L 45.3125 54.6875 
L 54.296875 54.6875 
L 54.296875 0 
L 45.3125 0 
L 45.3125 8.40625 
Q 42.046875 3.421875 37.71875 1 
Q 33.40625 -1.421875 27.6875 -1.421875 
Q 18.265625 -1.421875 13.375 4.4375 
Q 8.5 10.296875 8.5 21.578125 
z
M 31.109375 56 
z
" id="DejaVuSans-75"/>
     </defs>
     <g transform="translate(596.410019 120.278437)scale(0.1 -0.1)">
      <use xlink:href="#DejaVuSans-61"/>
      <use x="61.279297" xlink:href="#DejaVuSans-63"/>
      <use x="116.259766" xlink:href="#DejaVuSans-74"/>
      <use x="155.46875" xlink:href="#DejaVuSans-75"/>
      <use x="218.847656" xlink:href="#DejaVuSans-61"/>
      <use x="280.126953" xlink:href="#DejaVuSans-6c"/>
     </g>
    </g>
    <g id="line2d_20">
     <path d="M 568.410019 131.456562 
L 588.410019 131.456562 
" style="fill:none;stroke:#ff7f0e;stroke-linecap:square;stroke-width:1.5;"/>
    </g>
    <g id="line2d_21"/>
    <g id="text_16">
     <!-- pred. (mean) -->
     <defs>
      <path d="M 18.109375 8.203125 
L 18.109375 -20.796875 
L 9.078125 -20.796875 
L 9.078125 54.6875 
L 18.109375 54.6875 
L 18.109375 46.390625 
Q 20.953125 51.265625 25.265625 53.625 
Q 29.59375 56 35.59375 56 
Q 45.5625 56 51.78125 48.09375 
Q 58.015625 40.1875 58.015625 27.296875 
Q 58.015625 14.40625 51.78125 6.484375 
Q 45.5625 -1.421875 35.59375 -1.421875 
Q 29.59375 -1.421875 25.265625 0.953125 
Q 20.953125 3.328125 18.109375 8.203125 
z
M 48.6875 27.296875 
Q 48.6875 37.203125 44.609375 42.84375 
Q 40.53125 48.484375 33.40625 48.484375 
Q 26.265625 48.484375 22.1875 42.84375 
Q 18.109375 37.203125 18.109375 27.296875 
Q 18.109375 17.390625 22.1875 11.75 
Q 26.265625 6.109375 33.40625 6.109375 
Q 40.53125 6.109375 44.609375 11.75 
Q 48.6875 17.390625 48.6875 27.296875 
z
" id="DejaVuSans-70"/>
      <path d="M 45.40625 46.390625 
L 45.40625 75.984375 
L 54.390625 75.984375 
L 54.390625 0 
L 45.40625 0 
L 45.40625 8.203125 
Q 42.578125 3.328125 38.25 0.953125 
Q 33.9375 -1.421875 27.875 -1.421875 
Q 17.96875 -1.421875 11.734375 6.484375 
Q 5.515625 14.40625 5.515625 27.296875 
Q 5.515625 40.1875 11.734375 48.09375 
Q 17.96875 56 27.875 56 
Q 33.9375 56 38.25 53.625 
Q 42.578125 51.265625 45.40625 46.390625 
z
M 14.796875 27.296875 
Q 14.796875 17.390625 18.875 11.75 
Q 22.953125 6.109375 30.078125 6.109375 
Q 37.203125 6.109375 41.296875 11.75 
Q 45.40625 17.390625 45.40625 27.296875 
Q 45.40625 37.203125 41.296875 42.84375 
Q 37.203125 48.484375 30.078125 48.484375 
Q 22.953125 48.484375 18.875 42.84375 
Q 14.796875 37.203125 14.796875 27.296875 
z
" id="DejaVuSans-64"/>
      <path d="M 31 75.875 
Q 24.46875 64.65625 21.28125 53.65625 
Q 18.109375 42.671875 18.109375 31.390625 
Q 18.109375 20.125 21.3125 9.0625 
Q 24.515625 -2 31 -13.1875 
L 23.1875 -13.1875 
Q 15.875 -1.703125 12.234375 9.375 
Q 8.59375 20.453125 8.59375 31.390625 
Q 8.59375 42.28125 12.203125 53.3125 
Q 15.828125 64.359375 23.1875 75.875 
z
" id="DejaVuSans-28"/>
      <path d="M 52 44.1875 
Q 55.375 50.25 60.0625 53.125 
Q 64.75 56 71.09375 56 
Q 79.640625 56 84.28125 50.015625 
Q 88.921875 44.046875 88.921875 33.015625 
L 88.921875 0 
L 79.890625 0 
L 79.890625 32.71875 
Q 79.890625 40.578125 77.09375 44.375 
Q 74.3125 48.1875 68.609375 48.1875 
Q 61.625 48.1875 57.5625 43.546875 
Q 53.515625 38.921875 53.515625 30.90625 
L 53.515625 0 
L 44.484375 0 
L 44.484375 32.71875 
Q 44.484375 40.625 41.703125 44.40625 
Q 38.921875 48.1875 33.109375 48.1875 
Q 26.21875 48.1875 22.15625 43.53125 
Q 18.109375 38.875 18.109375 30.90625 
L 18.109375 0 
L 9.078125 0 
L 9.078125 54.6875 
L 18.109375 54.6875 
L 18.109375 46.1875 
Q 21.1875 51.21875 25.484375 53.609375 
Q 29.78125 56 35.6875 56 
Q 41.65625 56 45.828125 52.96875 
Q 50 49.953125 52 44.1875 
z
" id="DejaVuSans-6d"/>
      <path d="M 8.015625 75.875 
L 15.828125 75.875 
Q 23.140625 64.359375 26.78125 53.3125 
Q 30.421875 42.28125 30.421875 31.390625 
Q 30.421875 20.453125 26.78125 9.375 
Q 23.140625 -1.703125 15.828125 -13.1875 
L 8.015625 -13.1875 
Q 14.5 -2 17.703125 9.0625 
Q 20.90625 20.125 20.90625 31.390625 
Q 20.90625 42.671875 17.703125 53.65625 
Q 14.5 64.65625 8.015625 75.875 
z
" id="DejaVuSans-29"/>
     </defs>
     <g transform="translate(596.410019 134.956562)scale(0.1 -0.1)">
      <use xlink:href="#DejaVuSans-70"/>
      <use x="63.476562" xlink:href="#DejaVuSans-72"/>
      <use x="104.558594" xlink:href="#DejaVuSans-65"/>
      <use x="166.082031" xlink:href="#DejaVuSans-64"/>
      <use x="229.558594" xlink:href="#DejaVuSans-2e"/>
      <use x="261.345703" xlink:href="#DejaVuSans-20"/>
      <use x="293.132812" xlink:href="#DejaVuSans-28"/>
      <use x="332.146484" xlink:href="#DejaVuSans-6d"/>
      <use x="429.558594" xlink:href="#DejaVuSans-65"/>
      <use x="491.082031" xlink:href="#DejaVuSans-61"/>
      <use x="552.361328" xlink:href="#DejaVuSans-6e"/>
      <use x="615.740234" xlink:href="#DejaVuSans-29"/>
     </g>
    </g>
    <g id="line2d_22">
     <path d="M 568.410019 146.134687 
L 588.410019 146.134687 
" style="fill:none;stroke:#2ca02c;stroke-linecap:square;stroke-width:1.5;"/>
    </g>
    <g id="line2d_23"/>
    <g id="text_17">
     <!-- pred.(5th percen.) -->
     <defs>
      <path d="M 54.890625 33.015625 
L 54.890625 0 
L 45.90625 0 
L 45.90625 32.71875 
Q 45.90625 40.484375 42.875 44.328125 
Q 39.84375 48.1875 33.796875 48.1875 
Q 26.515625 48.1875 22.3125 43.546875 
Q 18.109375 38.921875 18.109375 30.90625 
L 18.109375 0 
L 9.078125 0 
L 9.078125 75.984375 
L 18.109375 75.984375 
L 18.109375 46.1875 
Q 21.34375 51.125 25.703125 53.5625 
Q 30.078125 56 35.796875 56 
Q 45.21875 56 50.046875 50.171875 
Q 54.890625 44.34375 54.890625 33.015625 
z
" id="DejaVuSans-68"/>
     </defs>
     <g transform="translate(596.410019 149.634687)scale(0.1 -0.1)">
      <use xlink:href="#DejaVuSans-70"/>
      <use x="63.476562" xlink:href="#DejaVuSans-72"/>
      <use x="104.558594" xlink:href="#DejaVuSans-65"/>
      <use x="166.082031" xlink:href="#DejaVuSans-64"/>
      <use x="229.558594" xlink:href="#DejaVuSans-2e"/>
      <use x="261.345703" xlink:href="#DejaVuSans-28"/>
      <use x="300.359375" xlink:href="#DejaVuSans-35"/>
      <use x="363.982422" xlink:href="#DejaVuSans-74"/>
      <use x="403.191406" xlink:href="#DejaVuSans-68"/>
      <use x="466.570312" xlink:href="#DejaVuSans-20"/>
      <use x="498.357422" xlink:href="#DejaVuSans-70"/>
      <use x="561.833984" xlink:href="#DejaVuSans-65"/>
      <use x="623.357422" xlink:href="#DejaVuSans-72"/>
      <use x="664.439453" xlink:href="#DejaVuSans-63"/>
      <use x="719.419922" xlink:href="#DejaVuSans-65"/>
      <use x="780.943359" xlink:href="#DejaVuSans-6e"/>
      <use x="844.322266" xlink:href="#DejaVuSans-2e"/>
      <use x="876.109375" xlink:href="#DejaVuSans-29"/>
     </g>
    </g>
    <g id="line2d_24">
     <path d="M 568.410019 160.812812 
L 588.410019 160.812812 
" style="fill:none;stroke:#d62728;stroke-linecap:square;stroke-width:1.5;"/>
    </g>
    <g id="line2d_25"/>
    <g id="text_18">
     <!-- pred.(95th percen.) -->
     <defs>
      <path d="M 10.984375 1.515625 
L 10.984375 10.5 
Q 14.703125 8.734375 18.5 7.8125 
Q 22.3125 6.890625 25.984375 6.890625 
Q 35.75 6.890625 40.890625 13.453125 
Q 46.046875 20.015625 46.78125 33.40625 
Q 43.953125 29.203125 39.59375 26.953125 
Q 35.25 24.703125 29.984375 24.703125 
Q 19.046875 24.703125 12.671875 31.3125 
Q 6.296875 37.9375 6.296875 49.421875 
Q 6.296875 60.640625 12.9375 67.421875 
Q 19.578125 74.21875 30.609375 74.21875 
Q 43.265625 74.21875 49.921875 64.515625 
Q 56.59375 54.828125 56.59375 36.375 
Q 56.59375 19.140625 48.40625 8.859375 
Q 40.234375 -1.421875 26.421875 -1.421875 
Q 22.703125 -1.421875 18.890625 -0.6875 
Q 15.09375 0.046875 10.984375 1.515625 
z
M 30.609375 32.421875 
Q 37.25 32.421875 41.125 36.953125 
Q 45.015625 41.5 45.015625 49.421875 
Q 45.015625 57.28125 41.125 61.84375 
Q 37.25 66.40625 30.609375 66.40625 
Q 23.96875 66.40625 20.09375 61.84375 
Q 16.21875 57.28125 16.21875 49.421875 
Q 16.21875 41.5 20.09375 36.953125 
Q 23.96875 32.421875 30.609375 32.421875 
z
" id="DejaVuSans-39"/>
     </defs>
     <g transform="translate(596.410019 164.312812)scale(0.1 -0.1)">
      <use xlink:href="#DejaVuSans-70"/>
      <use x="63.476562" xlink:href="#DejaVuSans-72"/>
      <use x="104.558594" xlink:href="#DejaVuSans-65"/>
      <use x="166.082031" xlink:href="#DejaVuSans-64"/>
      <use x="229.558594" xlink:href="#DejaVuSans-2e"/>
      <use x="261.345703" xlink:href="#DejaVuSans-28"/>
      <use x="300.359375" xlink:href="#DejaVuSans-39"/>
      <use x="363.982422" xlink:href="#DejaVuSans-35"/>
      <use x="427.605469" xlink:href="#DejaVuSans-74"/>
      <use x="466.814453" xlink:href="#DejaVuSans-68"/>
      <use x="530.193359" xlink:href="#DejaVuSans-20"/>
      <use x="561.980469" xlink:href="#DejaVuSans-70"/>
      <use x="625.457031" xlink:href="#DejaVuSans-65"/>
      <use x="686.980469" xlink:href="#DejaVuSans-72"/>
      <use x="728.0625" xlink:href="#DejaVuSans-63"/>
      <use x="783.042969" xlink:href="#DejaVuSans-65"/>
      <use x="844.566406" xlink:href="#DejaVuSans-6e"/>
      <use x="907.945312" xlink:href="#DejaVuSans-2e"/>
      <use x="939.732422" xlink:href="#DejaVuSans-29"/>
     </g>
    </g>
   </g>
  </g>
 </g>
 <defs>
  <clipPath id="pe7646d98dd">
   <rect height="365.32" width="655.566581" x="47.72" y="103.68"/>
  </clipPath>
 </defs>
</svg>
