<?xml version="1.0" encoding="utf-8" standalone="no"?>
<!DOCTYPE svg PUBLIC "-//W3C//DTD SVG 1.1//EN"
  "http://www.w3.org/Graphics/SVG/1.1/DTD/svg11.dtd">
<!-- Created with matplotlib (http://matplotlib.org/) -->
<svg height="864pt" version="1.1" viewBox="0 0 720 864" width="720pt" xmlns="http://www.w3.org/2000/svg" xmlns:xlink="http://www.w3.org/1999/xlink">
 <defs>
  <style type="text/css">
*{stroke-linecap:butt;stroke-linejoin:round;}
  </style>
 </defs>
 <g id="figure_1">
  <g id="patch_1">
   <path d="M 0 864 
L 720 864 
L 720 0 
L 0 0 
z
" style="fill:#ffffff;"/>
  </g>
  <g id="axes_1">
   <g id="patch_2">
    <path d="M 47.72 469 
L 703.286581 469 
L 703.286581 103.68 
L 47.72 103.68 
z
" style="fill:#ffffff;"/>
   </g>
   <g id="PolyCollection_1">
    <path clip-path="url(#p20040b282a)" d="M 77.518481 331.428065 
L 77.518481 430.210943 
L 79.525113 430.210943 
L 81.531744 430.210943 
L 83.538376 430.210943 
L 85.545008 430.210943 
L 87.55164 423.39833 
L 89.558271 423.39833 
L 91.564903 416.585718 
L 93.571535 406.3668 
L 95.578166 389.335269 
L 97.584798 362.08482 
L 99.59143 348.459596 
L 101.598062 345.05329 
L 103.604693 345.05329 
L 105.611325 341.646983 
L 107.617957 341.646983 
L 109.624588 341.646983 
L 111.63122 338.240677 
L 113.637852 338.240677 
L 115.644484 338.240677 
L 117.651115 338.240677 
L 119.657747 338.240677 
L 121.664379 338.240677 
L 123.67101 341.646983 
L 125.677642 341.646983 
L 127.684274 341.646983 
L 129.690906 341.646983 
L 131.697537 345.05329 
L 133.704169 341.646983 
L 135.710801 345.05329 
L 137.717432 345.05329 
L 139.724064 345.05329 
L 141.730696 348.459596 
L 143.737328 345.05329 
L 145.743959 345.05329 
L 147.750591 345.05329 
L 149.757223 345.05329 
L 151.763854 345.05329 
L 153.770486 345.05329 
L 155.777118 348.459596 
L 157.78375 348.459596 
L 159.790381 348.459596 
L 161.797013 351.865902 
L 163.803645 351.865902 
L 165.810276 351.865902 
L 167.816908 358.678514 
L 169.82354 372.303739 
L 171.830172 379.116351 
L 173.836803 382.522657 
L 175.843435 389.335269 
L 177.850067 399.554188 
L 179.856698 406.3668 
L 181.86333 406.3668 
L 183.869962 406.3668 
L 185.876594 409.773106 
L 187.883225 413.179412 
L 189.889857 416.585718 
L 191.896489 416.585718 
L 193.90312 423.39833 
L 195.909752 426.804637 
L 197.916384 426.804637 
L 199.923016 423.39833 
L 201.929647 423.39833 
L 203.936279 423.39833 
L 205.942911 423.39833 
L 207.949542 419.992024 
L 209.956174 416.585718 
L 211.962806 409.773106 
L 213.969438 399.554188 
L 215.976069 392.741575 
L 217.982701 385.928963 
L 219.989333 375.710045 
L 221.995964 368.897432 
L 224.002596 365.491126 
L 226.009228 358.678514 
L 228.01586 351.865902 
L 230.022491 348.459596 
L 232.029123 348.459596 
L 234.035755 348.459596 
L 236.042386 348.459596 
L 238.049018 348.459596 
L 240.05565 345.05329 
L 242.062282 341.646983 
L 244.068913 341.646983 
L 246.075545 341.646983 
L 248.082177 341.646983 
L 250.088808 338.240677 
L 252.09544 338.240677 
L 254.102072 341.646983 
L 256.108704 341.646983 
L 258.115335 341.646983 
L 260.121967 341.646983 
L 262.128599 341.646983 
L 264.13523 345.05329 
L 266.141862 345.05329 
L 268.148494 345.05329 
L 270.155126 345.05329 
L 272.161757 345.05329 
L 274.168389 348.459596 
L 276.175021 348.459596 
L 278.181652 348.459596 
L 280.188284 348.459596 
L 282.194916 348.459596 
L 284.201548 348.459596 
L 286.208179 348.459596 
L 288.214811 348.459596 
L 290.221443 348.459596 
L 292.228074 348.459596 
L 294.234706 348.459596 
L 296.241338 348.459596 
L 298.24797 348.459596 
L 300.254601 351.865902 
L 302.261233 351.865902 
L 304.267865 351.865902 
L 306.274496 351.865902 
L 308.281128 358.678514 
L 310.28776 362.08482 
L 312.294392 362.08482 
L 314.301023 365.491126 
L 316.307655 375.710045 
L 318.314287 382.522657 
L 320.320918 389.335269 
L 322.32755 396.147881 
L 324.334182 406.3668 
L 326.340814 409.773106 
L 328.347445 413.179412 
L 330.354077 413.179412 
L 332.360709 416.585718 
L 334.36734 419.992024 
L 336.373972 423.39833 
L 338.380604 426.804637 
L 340.387236 430.210943 
L 342.393867 433.617249 
L 344.400499 433.617249 
L 346.407131 433.617249 
L 348.413762 433.617249 
L 350.420394 433.617249 
L 352.427026 433.617249 
L 354.433658 430.210943 
L 356.440289 430.210943 
L 358.446921 426.804637 
L 360.453553 423.39833 
L 362.460184 419.992024 
L 364.466816 409.773106 
L 366.473448 402.960494 
L 368.48008 389.335269 
L 370.486711 382.522657 
L 372.493343 368.897432 
L 374.499975 355.272208 
L 376.506606 351.865902 
L 378.513238 348.459596 
L 380.51987 348.459596 
L 382.526502 345.05329 
L 384.533133 345.05329 
L 386.539765 345.05329 
L 388.546397 341.646983 
L 390.553028 345.05329 
L 392.55966 345.05329 
L 394.566292 341.646983 
L 396.572924 341.646983 
L 398.579555 345.05329 
L 400.586187 345.05329 
L 402.592819 345.05329 
L 404.59945 345.05329 
L 406.606082 345.05329 
L 408.612714 345.05329 
L 410.619346 345.05329 
L 412.625977 348.459596 
L 414.632609 348.459596 
L 416.639241 348.459596 
L 418.645872 348.459596 
L 420.652504 348.459596 
L 422.659136 348.459596 
L 424.665768 348.459596 
L 426.672399 351.865902 
L 428.679031 348.459596 
L 430.685663 351.865902 
L 432.692294 355.272208 
L 434.698926 362.08482 
L 436.705558 365.491126 
L 438.71219 362.08482 
L 440.718821 365.491126 
L 442.725453 365.491126 
L 444.732085 358.678514 
L 446.738716 358.678514 
L 448.745348 358.678514 
L 450.75198 362.08482 
L 452.758612 365.491126 
L 454.765243 372.303739 
L 456.771875 379.116351 
L 458.778507 385.928963 
L 460.785138 392.741575 
L 462.79177 399.554188 
L 464.798402 402.960494 
L 466.805034 406.3668 
L 468.811665 413.179412 
L 470.818297 416.585718 
L 472.824929 419.992024 
L 474.83156 426.804637 
L 476.838192 430.210943 
L 478.844824 430.210943 
L 480.851456 433.617249 
L 482.858087 433.617249 
L 484.864719 430.210943 
L 486.871351 426.804637 
L 488.877982 423.39833 
L 490.884614 416.585718 
L 492.891246 409.773106 
L 494.897878 399.554188 
L 496.904509 382.522657 
L 498.911141 365.491126 
L 500.917773 355.272208 
L 502.924404 348.459596 
L 504.931036 348.459596 
L 506.937668 348.459596 
L 508.9443 345.05329 
L 510.950931 345.05329 
L 512.957563 341.646983 
L 514.964195 341.646983 
L 516.970826 338.240677 
L 518.977458 338.240677 
L 520.98409 338.240677 
L 522.990722 338.240677 
L 524.997353 341.646983 
L 527.003985 341.646983 
L 529.010617 341.646983 
L 531.017249 341.646983 
L 533.02388 341.646983 
L 535.030512 341.646983 
L 537.037144 345.05329 
L 539.043775 345.05329 
L 541.050407 341.646983 
L 543.057039 341.646983 
L 545.063671 341.646983 
L 547.070302 341.646983 
L 549.076934 345.05329 
L 551.083566 345.05329 
L 553.090197 345.05329 
L 555.096829 348.459596 
L 557.103461 348.459596 
L 559.110093 351.865902 
L 561.116724 351.865902 
L 563.123356 351.865902 
L 565.129988 351.865902 
L 567.136619 355.272208 
L 569.143251 362.08482 
L 571.149883 375.710045 
L 573.156515 385.928963 
L 575.163146 392.741575 
L 577.169778 406.3668 
L 579.17641 413.179412 
L 581.183041 416.585718 
L 583.189673 419.992024 
L 585.196305 419.992024 
L 587.202937 423.39833 
L 589.209568 426.804637 
L 591.2162 426.804637 
L 593.222832 426.804637 
L 595.229463 426.804637 
L 597.236095 426.804637 
L 599.242727 423.39833 
L 601.249359 423.39833 
L 603.25599 423.39833 
L 605.262622 423.39833 
L 607.269254 426.804637 
L 609.275885 426.804637 
L 611.282517 430.210943 
L 613.289149 430.210943 
L 615.295781 433.617249 
L 617.302412 433.617249 
L 619.309044 433.617249 
L 621.315676 433.617249 
L 623.322307 433.617249 
L 625.328939 433.617249 
L 627.335571 433.617249 
L 629.342203 430.210943 
L 631.348834 426.804637 
L 633.355466 423.39833 
L 635.362098 419.992024 
L 637.368729 413.179412 
L 639.375361 399.554188 
L 641.381993 392.741575 
L 643.388625 385.928963 
L 645.395256 375.710045 
L 647.401888 362.08482 
L 649.40852 355.272208 
L 651.415151 351.865902 
L 653.421783 351.865902 
L 655.428415 351.865902 
L 657.435047 348.459596 
L 659.441678 348.459596 
L 661.44831 351.865902 
L 663.454942 351.865902 
L 665.461573 348.459596 
L 667.468205 348.459596 
L 669.474837 351.865902 
L 671.481469 351.865902 
L 673.4881 348.459596 
L 673.4881 297.365004 
L 673.4881 297.365004 
L 671.481469 300.77131 
L 669.474837 300.77131 
L 667.468205 297.365004 
L 665.461573 297.365004 
L 663.454942 300.77131 
L 661.44831 300.77131 
L 659.441678 297.365004 
L 657.435047 297.365004 
L 655.428415 300.77131 
L 653.421783 304.177616 
L 651.415151 304.177616 
L 649.40852 307.583922 
L 647.401888 310.990228 
L 645.395256 314.396534 
L 643.388625 317.80284 
L 641.381993 317.80284 
L 639.375361 321.209147 
L 637.368729 324.615453 
L 635.362098 328.021759 
L 633.355466 328.021759 
L 631.348834 331.428065 
L 629.342203 334.834371 
L 627.335571 334.834371 
L 625.328939 334.834371 
L 623.322307 334.834371 
L 621.315676 334.834371 
L 619.309044 334.834371 
L 617.302412 334.834371 
L 615.295781 334.834371 
L 613.289149 334.834371 
L 611.282517 334.834371 
L 609.275885 331.428065 
L 607.269254 331.428065 
L 605.262622 331.428065 
L 603.25599 328.021759 
L 601.249359 328.021759 
L 599.242727 328.021759 
L 597.236095 331.428065 
L 595.229463 331.428065 
L 593.222832 331.428065 
L 591.2162 331.428065 
L 589.209568 331.428065 
L 587.202937 331.428065 
L 585.196305 328.021759 
L 583.189673 328.021759 
L 581.183041 328.021759 
L 579.17641 324.615453 
L 577.169778 324.615453 
L 575.163146 317.80284 
L 573.156515 317.80284 
L 571.149883 314.396534 
L 569.143251 310.990228 
L 567.136619 307.583922 
L 565.129988 304.177616 
L 563.123356 304.177616 
L 561.116724 304.177616 
L 559.110093 297.365004 
L 557.103461 287.146085 
L 555.096829 270.114555 
L 553.090197 253.083024 
L 551.083566 236.051493 
L 549.076934 222.426269 
L 547.070302 219.019963 
L 545.063671 215.613657 
L 543.057039 219.019963 
L 541.050407 222.426269 
L 539.043775 222.426269 
L 537.037144 219.019963 
L 535.030512 205.394738 
L 533.02388 201.988432 
L 531.017249 195.17582 
L 529.010617 184.956901 
L 527.003985 178.144289 
L 524.997353 174.737983 
L 522.990722 174.737983 
L 520.98409 174.737983 
L 518.977458 181.550595 
L 516.970826 195.17582 
L 514.964195 208.801044 
L 512.957563 225.832575 
L 510.950931 263.301942 
L 508.9443 276.927167 
L 506.937668 283.739779 
L 504.931036 290.552391 
L 502.924404 300.77131 
L 500.917773 307.583922 
L 498.911141 310.990228 
L 496.904509 314.396534 
L 494.897878 321.209147 
L 492.891246 324.615453 
L 490.884614 328.021759 
L 488.877982 328.021759 
L 486.871351 331.428065 
L 484.864719 331.428065 
L 482.858087 334.834371 
L 480.851456 334.834371 
L 478.844824 334.834371 
L 476.838192 331.428065 
L 474.83156 331.428065 
L 472.824929 328.021759 
L 470.818297 328.021759 
L 468.811665 324.615453 
L 466.805034 324.615453 
L 464.798402 321.209147 
L 462.79177 321.209147 
L 460.785138 317.80284 
L 458.778507 317.80284 
L 456.771875 314.396534 
L 454.765243 314.396534 
L 452.758612 310.990228 
L 450.75198 310.990228 
L 448.745348 307.583922 
L 446.738716 307.583922 
L 444.732085 307.583922 
L 442.725453 310.990228 
L 440.718821 310.990228 
L 438.71219 310.990228 
L 436.705558 310.990228 
L 434.698926 310.990228 
L 432.692294 307.583922 
L 430.685663 300.77131 
L 428.679031 300.77131 
L 426.672399 300.77131 
L 424.665768 297.365004 
L 422.659136 293.958698 
L 420.652504 290.552391 
L 418.645872 287.146085 
L 416.639241 283.739779 
L 414.632609 270.114555 
L 412.625977 266.708249 
L 410.619346 256.48933 
L 408.612714 249.676718 
L 406.606082 239.4578 
L 404.59945 232.645187 
L 402.592819 232.645187 
L 400.586187 229.238881 
L 398.579555 229.238881 
L 396.572924 222.426269 
L 394.566292 225.832575 
L 392.55966 232.645187 
L 390.553028 232.645187 
L 388.546397 232.645187 
L 386.539765 239.4578 
L 384.533133 253.083024 
L 382.526502 270.114555 
L 380.51987 287.146085 
L 378.513238 297.365004 
L 376.506606 304.177616 
L 374.499975 307.583922 
L 372.493343 310.990228 
L 370.486711 314.396534 
L 368.48008 317.80284 
L 366.473448 321.209147 
L 364.466816 324.615453 
L 362.460184 328.021759 
L 360.453553 331.428065 
L 358.446921 331.428065 
L 356.440289 331.428065 
L 354.433658 334.834371 
L 352.427026 334.834371 
L 350.420394 334.834371 
L 348.413762 334.834371 
L 346.407131 334.834371 
L 344.400499 334.834371 
L 342.393867 334.834371 
L 340.387236 331.428065 
L 338.380604 331.428065 
L 336.373972 331.428065 
L 334.36734 328.021759 
L 332.360709 328.021759 
L 330.354077 324.615453 
L 328.347445 324.615453 
L 326.340814 324.615453 
L 324.334182 321.209147 
L 322.32755 321.209147 
L 320.320918 317.80284 
L 318.314287 317.80284 
L 316.307655 314.396534 
L 314.301023 310.990228 
L 312.294392 310.990228 
L 310.28776 310.990228 
L 308.281128 307.583922 
L 306.274496 304.177616 
L 304.267865 300.77131 
L 302.261233 300.77131 
L 300.254601 300.77131 
L 298.24797 297.365004 
L 296.241338 297.365004 
L 294.234706 293.958698 
L 292.228074 293.958698 
L 290.221443 293.958698 
L 288.214811 290.552391 
L 286.208179 290.552391 
L 284.201548 290.552391 
L 282.194916 290.552391 
L 280.188284 287.146085 
L 278.181652 276.927167 
L 276.175021 273.520861 
L 274.168389 266.708249 
L 272.161757 256.48933 
L 270.155126 242.864106 
L 268.148494 225.832575 
L 266.141862 212.20735 
L 264.13523 205.394738 
L 262.128599 191.769514 
L 260.121967 188.363208 
L 258.115335 184.956901 
L 256.108704 188.363208 
L 254.102072 188.363208 
L 252.09544 181.550595 
L 250.088808 184.956901 
L 248.082177 195.17582 
L 246.075545 201.988432 
L 244.068913 222.426269 
L 242.062282 249.676718 
L 240.05565 283.739779 
L 238.049018 293.958698 
L 236.042386 293.958698 
L 234.035755 293.958698 
L 232.029123 297.365004 
L 230.022491 297.365004 
L 228.01586 304.177616 
L 226.009228 307.583922 
L 224.002596 310.990228 
L 221.995964 310.990228 
L 219.989333 314.396534 
L 217.982701 317.80284 
L 215.976069 317.80284 
L 213.969438 321.209147 
L 211.962806 324.615453 
L 209.956174 328.021759 
L 207.949542 328.021759 
L 205.942911 328.021759 
L 203.936279 328.021759 
L 201.929647 331.428065 
L 199.923016 331.428065 
L 197.916384 331.428065 
L 195.909752 331.428065 
L 193.90312 328.021759 
L 191.896489 328.021759 
L 189.889857 328.021759 
L 187.883225 324.615453 
L 185.876594 324.615453 
L 183.869962 321.209147 
L 181.86333 324.615453 
L 179.856698 324.615453 
L 177.850067 321.209147 
L 175.843435 317.80284 
L 173.836803 317.80284 
L 171.830172 314.396534 
L 169.82354 310.990228 
L 167.816908 307.583922 
L 165.810276 307.583922 
L 163.803645 304.177616 
L 161.797013 300.77131 
L 159.790381 293.958698 
L 157.78375 287.146085 
L 155.777118 266.708249 
L 153.770486 256.48933 
L 151.763854 256.48933 
L 149.757223 253.083024 
L 147.750591 246.270412 
L 145.743959 242.864106 
L 143.737328 256.48933 
L 141.730696 256.48933 
L 139.724064 236.051493 
L 137.717432 222.426269 
L 135.710801 215.613657 
L 133.704169 205.394738 
L 131.697537 198.582126 
L 129.690906 188.363208 
L 127.684274 184.956901 
L 125.677642 184.956901 
L 123.67101 174.737983 
L 121.664379 171.331677 
L 119.657747 167.925371 
L 117.651115 174.737983 
L 115.644484 174.737983 
L 113.637852 178.144289 
L 111.63122 191.769514 
L 109.624588 205.394738 
L 107.617957 212.20735 
L 105.611325 229.238881 
L 103.604693 256.48933 
L 101.598062 287.146085 
L 99.59143 300.77131 
L 97.584798 307.583922 
L 95.578166 317.80284 
L 93.571535 321.209147 
L 91.564903 324.615453 
L 89.558271 328.021759 
L 87.55164 331.428065 
L 85.545008 331.428065 
L 83.538376 331.428065 
L 81.531744 331.428065 
L 79.525113 331.428065 
L 77.518481 331.428065 
z
" style="fill:#008000;fill-opacity:0.4;"/>
   </g>
   <g id="matplotlib.axis_1">
    <g id="xtick_1">
     <g id="line2d_1">
      <defs>
       <path d="M 0 0 
L 0 3.5 
" id="m620364405c" style="stroke:#000000;stroke-width:0.8;"/>
      </defs>
      <g>
       <use style="stroke:#000000;stroke-width:0.8;" x="77.518481" xlink:href="#m620364405c" y="469"/>
      </g>
     </g>
     <g id="text_1">
      <!-- 0.0 -->
      <defs>
       <path d="M 31.78125 66.40625 
Q 24.171875 66.40625 20.328125 58.90625 
Q 16.5 51.421875 16.5 36.375 
Q 16.5 21.390625 20.328125 13.890625 
Q 24.171875 6.390625 31.78125 6.390625 
Q 39.453125 6.390625 43.28125 13.890625 
Q 47.125 21.390625 47.125 36.375 
Q 47.125 51.421875 43.28125 58.90625 
Q 39.453125 66.40625 31.78125 66.40625 
z
M 31.78125 74.21875 
Q 44.046875 74.21875 50.515625 64.515625 
Q 56.984375 54.828125 56.984375 36.375 
Q 56.984375 17.96875 50.515625 8.265625 
Q 44.046875 -1.421875 31.78125 -1.421875 
Q 19.53125 -1.421875 13.0625 8.265625 
Q 6.59375 17.96875 6.59375 36.375 
Q 6.59375 54.828125 13.0625 64.515625 
Q 19.53125 74.21875 31.78125 74.21875 
z
" id="DejaVuSans-30"/>
       <path d="M 10.6875 12.40625 
L 21 12.40625 
L 21 0 
L 10.6875 0 
z
" id="DejaVuSans-2e"/>
      </defs>
      <g transform="translate(69.566918 483.598437)scale(0.1 -0.1)">
       <use xlink:href="#DejaVuSans-30"/>
       <use x="63.623047" xlink:href="#DejaVuSans-2e"/>
       <use x="95.410156" xlink:href="#DejaVuSans-30"/>
      </g>
     </g>
    </g>
    <g id="xtick_2">
     <g id="line2d_2">
      <g>
       <use style="stroke:#000000;stroke-width:0.8;" x="196.712405" xlink:href="#m620364405c" y="469"/>
      </g>
     </g>
     <g id="text_2">
      <!-- 0.2 -->
      <defs>
       <path d="M 19.1875 8.296875 
L 53.609375 8.296875 
L 53.609375 0 
L 7.328125 0 
L 7.328125 8.296875 
Q 12.9375 14.109375 22.625 23.890625 
Q 32.328125 33.6875 34.8125 36.53125 
Q 39.546875 41.84375 41.421875 45.53125 
Q 43.3125 49.21875 43.3125 52.78125 
Q 43.3125 58.59375 39.234375 62.25 
Q 35.15625 65.921875 28.609375 65.921875 
Q 23.96875 65.921875 18.8125 64.3125 
Q 13.671875 62.703125 7.8125 59.421875 
L 7.8125 69.390625 
Q 13.765625 71.78125 18.9375 73 
Q 24.125 74.21875 28.421875 74.21875 
Q 39.75 74.21875 46.484375 68.546875 
Q 53.21875 62.890625 53.21875 53.421875 
Q 53.21875 48.921875 51.53125 44.890625 
Q 49.859375 40.875 45.40625 35.40625 
Q 44.1875 33.984375 37.640625 27.21875 
Q 31.109375 20.453125 19.1875 8.296875 
z
" id="DejaVuSans-32"/>
      </defs>
      <g transform="translate(188.760842 483.598437)scale(0.1 -0.1)">
       <use xlink:href="#DejaVuSans-30"/>
       <use x="63.623047" xlink:href="#DejaVuSans-2e"/>
       <use x="95.410156" xlink:href="#DejaVuSans-32"/>
      </g>
     </g>
    </g>
    <g id="xtick_3">
     <g id="line2d_3">
      <g>
       <use style="stroke:#000000;stroke-width:0.8;" x="315.906329" xlink:href="#m620364405c" y="469"/>
      </g>
     </g>
     <g id="text_3">
      <!-- 0.4 -->
      <defs>
       <path d="M 37.796875 64.3125 
L 12.890625 25.390625 
L 37.796875 25.390625 
z
M 35.203125 72.90625 
L 47.609375 72.90625 
L 47.609375 25.390625 
L 58.015625 25.390625 
L 58.015625 17.1875 
L 47.609375 17.1875 
L 47.609375 0 
L 37.796875 0 
L 37.796875 17.1875 
L 4.890625 17.1875 
L 4.890625 26.703125 
z
" id="DejaVuSans-34"/>
      </defs>
      <g transform="translate(307.954766 483.598437)scale(0.1 -0.1)">
       <use xlink:href="#DejaVuSans-30"/>
       <use x="63.623047" xlink:href="#DejaVuSans-2e"/>
       <use x="95.410156" xlink:href="#DejaVuSans-34"/>
      </g>
     </g>
    </g>
    <g id="xtick_4">
     <g id="line2d_4">
      <g>
       <use style="stroke:#000000;stroke-width:0.8;" x="435.100253" xlink:href="#m620364405c" y="469"/>
      </g>
     </g>
     <g id="text_4">
      <!-- 0.6 -->
      <defs>
       <path d="M 33.015625 40.375 
Q 26.375 40.375 22.484375 35.828125 
Q 18.609375 31.296875 18.609375 23.390625 
Q 18.609375 15.53125 22.484375 10.953125 
Q 26.375 6.390625 33.015625 6.390625 
Q 39.65625 6.390625 43.53125 10.953125 
Q 47.40625 15.53125 47.40625 23.390625 
Q 47.40625 31.296875 43.53125 35.828125 
Q 39.65625 40.375 33.015625 40.375 
z
M 52.59375 71.296875 
L 52.59375 62.3125 
Q 48.875 64.0625 45.09375 64.984375 
Q 41.3125 65.921875 37.59375 65.921875 
Q 27.828125 65.921875 22.671875 59.328125 
Q 17.53125 52.734375 16.796875 39.40625 
Q 19.671875 43.65625 24.015625 45.921875 
Q 28.375 48.1875 33.59375 48.1875 
Q 44.578125 48.1875 50.953125 41.515625 
Q 57.328125 34.859375 57.328125 23.390625 
Q 57.328125 12.15625 50.6875 5.359375 
Q 44.046875 -1.421875 33.015625 -1.421875 
Q 20.359375 -1.421875 13.671875 8.265625 
Q 6.984375 17.96875 6.984375 36.375 
Q 6.984375 53.65625 15.1875 63.9375 
Q 23.390625 74.21875 37.203125 74.21875 
Q 40.921875 74.21875 44.703125 73.484375 
Q 48.484375 72.75 52.59375 71.296875 
z
" id="DejaVuSans-36"/>
      </defs>
      <g transform="translate(427.14869 483.598437)scale(0.1 -0.1)">
       <use xlink:href="#DejaVuSans-30"/>
       <use x="63.623047" xlink:href="#DejaVuSans-2e"/>
       <use x="95.410156" xlink:href="#DejaVuSans-36"/>
      </g>
     </g>
    </g>
    <g id="xtick_5">
     <g id="line2d_5">
      <g>
       <use style="stroke:#000000;stroke-width:0.8;" x="554.294176" xlink:href="#m620364405c" y="469"/>
      </g>
     </g>
     <g id="text_5">
      <!-- 0.8 -->
      <defs>
       <path d="M 31.78125 34.625 
Q 24.75 34.625 20.71875 30.859375 
Q 16.703125 27.09375 16.703125 20.515625 
Q 16.703125 13.921875 20.71875 10.15625 
Q 24.75 6.390625 31.78125 6.390625 
Q 38.8125 6.390625 42.859375 10.171875 
Q 46.921875 13.96875 46.921875 20.515625 
Q 46.921875 27.09375 42.890625 30.859375 
Q 38.875 34.625 31.78125 34.625 
z
M 21.921875 38.8125 
Q 15.578125 40.375 12.03125 44.71875 
Q 8.5 49.078125 8.5 55.328125 
Q 8.5 64.0625 14.71875 69.140625 
Q 20.953125 74.21875 31.78125 74.21875 
Q 42.671875 74.21875 48.875 69.140625 
Q 55.078125 64.0625 55.078125 55.328125 
Q 55.078125 49.078125 51.53125 44.71875 
Q 48 40.375 41.703125 38.8125 
Q 48.828125 37.15625 52.796875 32.3125 
Q 56.78125 27.484375 56.78125 20.515625 
Q 56.78125 9.90625 50.3125 4.234375 
Q 43.84375 -1.421875 31.78125 -1.421875 
Q 19.734375 -1.421875 13.25 4.234375 
Q 6.78125 9.90625 6.78125 20.515625 
Q 6.78125 27.484375 10.78125 32.3125 
Q 14.796875 37.15625 21.921875 38.8125 
z
M 18.3125 54.390625 
Q 18.3125 48.734375 21.84375 45.5625 
Q 25.390625 42.390625 31.78125 42.390625 
Q 38.140625 42.390625 41.71875 45.5625 
Q 45.3125 48.734375 45.3125 54.390625 
Q 45.3125 60.0625 41.71875 63.234375 
Q 38.140625 66.40625 31.78125 66.40625 
Q 25.390625 66.40625 21.84375 63.234375 
Q 18.3125 60.0625 18.3125 54.390625 
z
" id="DejaVuSans-38"/>
      </defs>
      <g transform="translate(546.342614 483.598437)scale(0.1 -0.1)">
       <use xlink:href="#DejaVuSans-30"/>
       <use x="63.623047" xlink:href="#DejaVuSans-2e"/>
       <use x="95.410156" xlink:href="#DejaVuSans-38"/>
      </g>
     </g>
    </g>
    <g id="xtick_6">
     <g id="line2d_6">
      <g>
       <use style="stroke:#000000;stroke-width:0.8;" x="673.4881" xlink:href="#m620364405c" y="469"/>
      </g>
     </g>
     <g id="text_6">
      <!-- 1.0 -->
      <defs>
       <path d="M 12.40625 8.296875 
L 28.515625 8.296875 
L 28.515625 63.921875 
L 10.984375 60.40625 
L 10.984375 69.390625 
L 28.421875 72.90625 
L 38.28125 72.90625 
L 38.28125 8.296875 
L 54.390625 8.296875 
L 54.390625 0 
L 12.40625 0 
z
" id="DejaVuSans-31"/>
      </defs>
      <g transform="translate(665.536538 483.598437)scale(0.1 -0.1)">
       <use xlink:href="#DejaVuSans-31"/>
       <use x="63.623047" xlink:href="#DejaVuSans-2e"/>
       <use x="95.410156" xlink:href="#DejaVuSans-30"/>
      </g>
     </g>
    </g>
   </g>
   <g id="matplotlib.axis_2">
    <g id="ytick_1">
     <g id="line2d_7">
      <defs>
       <path d="M 0 0 
L -3.5 0 
" id="maff2a0256f" style="stroke:#000000;stroke-width:0.8;"/>
      </defs>
      <g>
       <use style="stroke:#000000;stroke-width:0.8;" x="47.72" xlink:href="#maff2a0256f" y="457.461392"/>
      </g>
     </g>
     <g id="text_7">
      <!-- 0.0 -->
      <g transform="translate(24.816875 461.260611)scale(0.1 -0.1)">
       <use xlink:href="#DejaVuSans-30"/>
       <use x="63.623047" xlink:href="#DejaVuSans-2e"/>
       <use x="95.410156" xlink:href="#DejaVuSans-30"/>
      </g>
     </g>
    </g>
    <g id="ytick_2">
     <g id="line2d_8">
      <g>
       <use style="stroke:#000000;stroke-width:0.8;" x="47.72" xlink:href="#maff2a0256f" y="389.335269"/>
      </g>
     </g>
     <g id="text_8">
      <!-- 0.2 -->
      <g transform="translate(24.816875 393.134488)scale(0.1 -0.1)">
       <use xlink:href="#DejaVuSans-30"/>
       <use x="63.623047" xlink:href="#DejaVuSans-2e"/>
       <use x="95.410156" xlink:href="#DejaVuSans-32"/>
      </g>
     </g>
    </g>
    <g id="ytick_3">
     <g id="line2d_9">
      <g>
       <use style="stroke:#000000;stroke-width:0.8;" x="47.72" xlink:href="#maff2a0256f" y="321.209147"/>
      </g>
     </g>
     <g id="text_9">
      <!-- 0.4 -->
      <g transform="translate(24.816875 325.008365)scale(0.1 -0.1)">
       <use xlink:href="#DejaVuSans-30"/>
       <use x="63.623047" xlink:href="#DejaVuSans-2e"/>
       <use x="95.410156" xlink:href="#DejaVuSans-34"/>
      </g>
     </g>
    </g>
    <g id="ytick_4">
     <g id="line2d_10">
      <g>
       <use style="stroke:#000000;stroke-width:0.8;" x="47.72" xlink:href="#maff2a0256f" y="253.083024"/>
      </g>
     </g>
     <g id="text_10">
      <!-- 0.6 -->
      <g transform="translate(24.816875 256.882243)scale(0.1 -0.1)">
       <use xlink:href="#DejaVuSans-30"/>
       <use x="63.623047" xlink:href="#DejaVuSans-2e"/>
       <use x="95.410156" xlink:href="#DejaVuSans-36"/>
      </g>
     </g>
    </g>
    <g id="ytick_5">
     <g id="line2d_11">
      <g>
       <use style="stroke:#000000;stroke-width:0.8;" x="47.72" xlink:href="#maff2a0256f" y="184.956901"/>
      </g>
     </g>
     <g id="text_11">
      <!-- 0.8 -->
      <g transform="translate(24.816875 188.75612)scale(0.1 -0.1)">
       <use xlink:href="#DejaVuSans-30"/>
       <use x="63.623047" xlink:href="#DejaVuSans-2e"/>
       <use x="95.410156" xlink:href="#DejaVuSans-38"/>
      </g>
     </g>
    </g>
    <g id="ytick_6">
     <g id="line2d_12">
      <g>
       <use style="stroke:#000000;stroke-width:0.8;" x="47.72" xlink:href="#maff2a0256f" y="116.830779"/>
      </g>
     </g>
     <g id="text_12">
      <!-- 1.0 -->
      <g transform="translate(24.816875 120.629998)scale(0.1 -0.1)">
       <use xlink:href="#DejaVuSans-31"/>
       <use x="63.623047" xlink:href="#DejaVuSans-2e"/>
       <use x="95.410156" xlink:href="#DejaVuSans-30"/>
      </g>
     </g>
    </g>
   </g>
   <g id="line2d_13">
    <path clip-path="url(#p20040b282a)" d="M 77.518481 440.188047 
L 79.525113 440.418348 
L 81.531744 439.497112 
L 83.538376 438.115242 
L 85.545008 429.363386 
L 87.55164 425.90871 
L 89.558271 416.465816 
L 91.564903 401.495782 
L 93.571535 383.992137 
L 95.578166 354.972794 
L 97.584798 330.559798 
L 99.59143 302.922392 
L 103.604693 242.580701 
L 105.611325 218.167705 
L 107.617957 210.567555 
L 109.624588 190.069767 
L 111.63122 152.068335 
L 113.637852 139.171038 
L 115.644484 136.176895 
L 117.651115 121.667393 
L 119.657747 120.285455 
L 121.664379 131.570547 
L 123.67101 155.983883 
L 125.677642 164.505099 
L 127.684274 166.808443 
L 129.690906 188.687829 
L 131.697537 201.3552 
L 133.704169 215.173902 
L 135.710801 225.768196 
L 137.717432 242.350435 
L 139.724064 268.605902 
L 141.730696 271.830311 
L 143.737328 255.478338 
L 145.743959 258.702748 
L 147.750591 266.302898 
L 149.757223 269.066775 
L 151.763854 266.302898 
L 153.770486 278.739662 
L 155.777118 300.389122 
L 157.78375 307.52874 
L 159.790381 325.032385 
L 161.797013 340.463292 
L 163.803645 342.536029 
L 165.810276 349.215114 
L 167.816908 360.730473 
L 169.82354 371.324766 
L 171.830172 374.318909 
L 173.836803 377.773585 
L 175.843435 390.671222 
L 177.850067 398.731905 
L 179.856698 402.647114 
L 181.86333 399.653311 
L 183.869962 404.950458 
L 185.876594 410.938403 
L 187.883225 414.162813 
L 189.889857 417.156956 
L 191.896489 424.52684 
L 193.90312 432.357461 
L 195.909752 432.357461 
L 197.916384 429.133085 
L 199.923016 430.514956 
L 201.929647 427.981515 
L 203.936279 424.52684 
L 205.942911 423.835939 
L 207.949542 417.156956 
L 209.956174 405.180724 
L 211.962806 392.05282 
L 213.969438 386.755674 
L 215.976069 379.846322 
L 217.982701 368.791496 
L 219.989333 361.882145 
L 221.995964 356.124466 
L 224.002596 349.445381 
L 226.009228 340.923825 
L 228.01586 322.498774 
L 230.022491 316.280562 
L 232.029123 311.904481 
L 234.035755 310.522542 
L 236.042386 307.989273 
L 238.049018 296.70384 
L 244.068913 205.730941 
L 246.075545 188.918095 
L 248.082177 173.717794 
L 250.088808 153.680539 
L 252.09544 170.493385 
L 254.102072 175.099733 
L 256.108704 168.650914 
L 258.115335 169.571979 
L 260.121967 178.784675 
L 262.128599 201.3552 
L 264.13523 214.713029 
L 266.141862 229.683404 
L 268.148494 254.787199 
L 270.155126 266.993697 
L 272.161757 277.357724 
L 274.168389 286.57042 
L 276.175021 288.643157 
L 278.181652 300.619389 
L 280.188284 302.922392 
L 282.194916 303.613191 
L 284.201548 302.922392 
L 286.208179 304.534597 
L 288.214811 309.371211 
L 290.221443 309.831744 
L 292.228074 313.977218 
L 294.234706 317.431894 
L 296.241338 319.735238 
L 298.24797 321.807975 
L 300.254601 328.947593 
L 302.261233 330.329531 
L 304.267865 340.233026 
L 306.274496 348.754241 
L 308.281128 354.972794 
L 310.28776 353.821121 
L 312.294392 356.124466 
L 316.307655 374.779442 
L 318.314287 382.149666 
L 320.320918 388.137612 
L 322.32755 398.501639 
L 324.334182 406.792929 
L 326.340814 409.787072 
L 328.347445 411.398936 
L 330.354077 415.084218 
L 334.36734 427.751215 
L 336.373972 433.508996 
L 338.380604 440.188047 
L 340.387236 445.024559 
L 342.393867 448.709569 
L 344.400499 450.09144 
L 346.407131 449.17017 
L 348.413762 448.479235 
L 350.420394 448.018634 
L 352.427026 444.794259 
L 354.433658 443.182088 
L 356.440289 436.272737 
L 358.446921 430.745256 
L 360.453553 418.999427 
L 362.460184 407.944601 
L 364.466816 397.580574 
L 366.473448 382.379933 
L 368.48008 374.549176 
L 370.486711 361.421612 
L 372.493343 345.760439 
L 374.499975 334.014473 
L 378.513238 301.77072 
L 380.51987 283.576276 
L 382.526502 267.224304 
L 386.539765 242.810967 
L 388.546397 241.429369 
L 390.553028 241.199103 
L 392.55966 237.513821 
L 394.566292 231.756141 
L 396.572924 237.513821 
L 398.579555 238.20496 
L 400.586187 241.659636 
L 402.592819 239.817165 
L 404.59945 248.799253 
L 406.606082 259.854079 
L 408.612714 266.072632 
L 410.619346 278.27913 
L 412.625977 280.8124 
L 414.632609 297.394979 
L 418.645872 303.843798 
L 422.659136 317.431894 
L 424.665768 325.032385 
L 426.672399 322.498774 
L 428.679031 330.099265 
L 430.685663 343.457094 
L 432.692294 353.590855 
L 434.698926 356.124466 
L 436.705558 355.20306 
L 440.718821 357.966937 
L 442.725453 351.518118 
L 444.732085 350.13618 
L 446.738716 348.063442 
L 448.745348 351.748384 
L 450.75198 358.427469 
L 452.758612 362.342678 
L 454.765243 371.785639 
L 456.771875 376.391647 
L 458.778507 385.834608 
L 460.785138 390.671222 
L 462.79177 394.816697 
L 464.798402 401.726048 
L 466.805034 409.095932 
L 468.811665 414.393079 
L 470.818297 418.76916 
L 472.824929 429.59372 
L 474.83156 437.424307 
L 476.838192 442.030518 
L 478.844824 445.024559 
L 480.851456 445.254894 
L 482.858087 442.951788 
L 484.864719 436.272737 
L 486.871351 428.44215 
L 490.884614 407.713994 
L 492.891246 393.204492 
L 494.897878 375.010049 
L 496.904509 357.966937 
L 498.911141 348.293709 
L 500.917773 325.492917 
L 502.924404 307.989273 
L 504.931036 297.625245 
L 506.937668 290.485628 
L 508.9443 278.739662 
L 510.950931 241.889902 
L 512.957563 214.02223 
L 514.964195 190.069767 
L 516.970826 164.044566 
L 518.977458 139.861836 
L 520.98409 134.334424 
L 522.990722 135.946628 
L 524.997353 145.619856 
L 527.003985 159.668825 
L 529.010617 180.166273 
L 531.017249 197.439651 
L 533.02388 203.427937 
L 535.030512 220.240783 
L 537.037144 231.525875 
L 539.043775 231.065342 
L 541.050407 224.84679 
L 543.057039 222.774053 
L 545.063671 223.464852 
L 547.070302 225.307323 
L 549.076934 245.344578 
L 551.083566 261.466284 
L 555.096829 301.540454 
L 557.103461 313.977218 
L 559.110093 332.402269 
L 561.116724 337.699415 
L 563.123356 338.851087 
L 565.129988 344.608767 
L 567.136619 352.66979 
L 569.143251 367.639824 
L 571.149883 374.318909 
L 573.156515 382.379933 
L 575.163146 398.962172 
L 577.169778 410.247604 
L 579.17641 416.465816 
L 581.183041 418.999427 
L 583.189673 422.684369 
L 585.196305 428.672451 
L 587.202937 430.97559 
L 589.209568 429.82402 
L 591.2162 431.436191 
L 593.222832 430.284655 
L 595.229463 433.048396 
L 597.236095 427.29058 
L 599.242727 428.21185 
L 601.249359 427.751215 
L 603.25599 428.21185 
L 605.262622 433.048396 
L 607.269254 435.581802 
L 609.275885 440.878983 
L 611.282517 443.412389 
L 613.289149 446.636764 
L 615.295781 449.400505 
L 617.302412 450.55204 
L 619.309044 452.164245 
L 621.315676 452.394545 
L 625.328939 447.7883 
L 627.335571 444.333624 
L 631.348834 429.133085 
L 633.355466 421.072164 
L 635.362098 411.859809 
L 637.368729 393.895291 
L 639.375361 385.374076 
L 641.381993 378.234118 
L 643.388625 366.488493 
L 645.395256 357.045531 
L 647.401888 342.996562 
L 649.40852 342.536029 
L 651.415151 334.014473 
L 653.421783 329.177859 
L 655.428415 320.426037 
L 657.435047 313.746952 
L 659.441678 322.959647 
L 661.44831 324.341245 
L 663.454942 319.735238 
L 665.461573 319.274365 
L 667.468205 327.335388 
L 669.474837 331.941736 
L 671.481469 321.807975 
L 673.4881 319.735238 
L 673.4881 319.735238 
" style="fill:none;stroke:#1f77b4;stroke-linecap:square;stroke-width:1.5;"/>
   </g>
   <g id="line2d_14">
    <path clip-path="url(#p20040b282a)" d="M 77.518481 375.377145 
L 79.525113 375.775164 
L 81.531744 375.818591 
L 83.538376 375.524503 
L 85.545008 374.705385 
L 87.55164 371.548574 
L 89.558271 369.861309 
L 91.564903 365.69222 
L 93.571535 358.730412 
L 95.578166 350.100924 
L 97.584798 335.832264 
L 103.604693 297.314585 
L 105.611325 287.512418 
L 107.617957 281.597309 
L 109.624588 280.265934 
L 111.63122 274.689281 
L 113.637852 267.952992 
L 115.644484 267.685884 
L 117.651115 267.619286 
L 119.657747 265.362398 
L 121.664379 266.06925 
L 123.67101 268.440421 
L 125.677642 272.520952 
L 127.684274 272.717025 
L 129.690906 273.150584 
L 131.697537 278.022939 
L 133.704169 280.099619 
L 135.710801 283.380841 
L 137.717432 285.850878 
L 139.724064 290.951755 
L 141.730696 299.450333 
L 143.737328 298.464586 
L 145.743959 292.891294 
L 147.750591 294.916031 
L 149.757223 297.51877 
L 151.763854 298.061861 
L 153.770486 297.375087 
L 155.777118 303.025957 
L 157.78375 311.578898 
L 159.790381 314.793074 
L 161.797013 322.597752 
L 163.803645 329.722425 
L 165.810276 330.966003 
L 167.816908 334.158578 
L 169.82354 340.074359 
L 171.830172 344.933987 
L 173.836803 346.56447 
L 175.843435 348.75467 
L 177.850067 354.424721 
L 179.856698 358.430229 
L 181.86333 359.642032 
L 183.869962 358.810993 
L 187.883225 363.758237 
L 189.889857 365.337673 
L 191.896489 366.693339 
L 195.909752 372.84172 
L 197.916384 372.709735 
L 199.923016 371.596932 
L 201.929647 371.835402 
L 203.936279 370.977249 
L 205.942911 369.636059 
L 207.949542 368.932658 
L 209.956174 366.041433 
L 211.962806 360.750353 
L 213.969438 355.018231 
L 215.976069 352.078199 
L 217.982701 348.78779 
L 219.989333 343.474795 
L 221.995964 339.752933 
L 224.002596 337.10681 
L 226.009228 333.5462 
L 228.01586 328.272375 
L 230.022491 320.396886 
L 232.029123 317.333966 
L 234.035755 315.436062 
L 236.042386 315.078333 
L 238.049018 313.897319 
L 240.05565 307.686284 
L 242.062282 294.898238 
L 244.068913 284.879831 
L 246.075545 278.378561 
L 250.088808 272.220096 
L 252.09544 269.724693 
L 254.102072 274.277728 
L 256.108704 274.14256 
L 258.115335 272.443777 
L 260.121967 273.105901 
L 262.128599 275.627567 
L 264.13523 280.579652 
L 266.141862 283.235545 
L 268.148494 287.640371 
L 270.155126 294.69849 
L 274.168389 302.283834 
L 276.175021 305.044957 
L 278.181652 306.17107 
L 280.188284 310.889435 
L 282.194916 312.069911 
L 284.201548 311.775778 
L 286.208179 311.653697 
L 288.214811 312.675701 
L 290.221443 314.619857 
L 292.228074 314.819919 
L 294.234706 316.836723 
L 296.241338 318.602373 
L 298.24797 319.221205 
L 300.254601 320.898297 
L 302.261233 323.682366 
L 304.267865 324.840389 
L 306.274496 329.775129 
L 308.281128 333.90218 
L 310.28776 336.582453 
L 312.294392 336.173051 
L 314.301023 337.562912 
L 316.307655 342.334474 
L 318.314287 346.773809 
L 320.320918 350.371035 
L 322.32755 353.543756 
L 324.334182 358.1045 
L 326.340814 361.971613 
L 328.347445 363.382 
L 330.354077 363.933202 
L 332.360709 365.805606 
L 336.373972 371.170634 
L 340.387236 375.84203 
L 342.393867 377.816213 
L 344.400499 378.982304 
L 346.407131 379.391795 
L 352.427026 378.617494 
L 354.433658 377.542203 
L 356.440289 376.607413 
L 358.446921 374.236466 
L 360.453553 371.676168 
L 362.460184 367.149216 
L 366.473448 356.966061 
L 368.48008 350.38811 
L 370.486711 345.840229 
L 372.493343 339.365536 
L 374.499975 331.56395 
L 376.506606 325.265208 
L 382.526502 302.49174 
L 384.533133 296.44572 
L 386.539765 292.185966 
L 388.546397 289.024405 
L 392.55966 288.969191 
L 394.566292 287.693658 
L 396.572924 286.245177 
L 398.579555 288.343368 
L 400.586187 288.478446 
L 402.592819 289.264131 
L 404.59945 288.985414 
L 406.606082 291.909805 
L 408.612714 295.543691 
L 410.619346 297.882235 
L 412.625977 301.960391 
L 414.632609 303.404435 
L 416.639241 309.600099 
L 418.645872 311.102226 
L 420.652504 312.38224 
L 422.659136 315.492083 
L 424.665768 318.815836 
L 426.672399 321.715308 
L 428.679031 320.937646 
L 430.685663 325.088719 
L 432.692294 331.662861 
L 434.698926 335.940362 
L 436.705558 337.012247 
L 438.71219 336.816442 
L 440.718821 337.71251 
L 442.725453 337.755042 
L 444.732085 334.81008 
L 446.738716 333.905407 
L 448.745348 333.496722 
L 450.75198 335.462569 
L 452.758612 338.403138 
L 454.765243 340.852246 
L 456.771875 345.197779 
L 458.778507 347.9092 
L 460.785138 352.129559 
L 462.79177 354.464563 
L 464.798402 356.439553 
L 468.811665 363.037582 
L 470.818297 365.532851 
L 472.824929 367.486508 
L 474.83156 371.752625 
L 476.838192 374.917324 
L 478.844824 376.577027 
L 480.851456 377.667421 
L 482.858087 377.778164 
L 484.864719 376.638561 
L 486.871351 374.119897 
L 488.877982 370.92423 
L 490.884614 366.594697 
L 492.891246 361.860019 
L 494.897878 354.992775 
L 496.904509 346.078834 
L 498.911141 337.731827 
L 500.917773 332.104889 
L 502.924404 321.692497 
L 504.931036 312.812392 
L 506.937668 308.824274 
L 508.9443 305.99243 
L 510.950931 299.848665 
L 512.957563 287.009887 
L 514.964195 279.807189 
L 518.977458 270.194239 
L 520.98409 267.137012 
L 522.990722 267.531624 
L 524.997353 268.196662 
L 527.003985 270.051408 
L 529.010617 272.670057 
L 531.017249 276.465957 
L 533.02388 279.369462 
L 535.030512 280.2511 
L 537.037144 284.654491 
L 539.043775 286.966325 
L 541.050407 285.888524 
L 543.057039 284.303755 
L 545.063671 283.872482 
L 547.070302 284.22286 
L 549.076934 285.359819 
L 551.083566 291.719692 
L 553.090197 297.035913 
L 557.103461 312.031817 
L 559.110093 317.790874 
L 561.116724 325.752322 
L 563.123356 328.298593 
L 565.129988 328.923071 
L 567.136619 331.822946 
L 569.143251 336.149657 
L 571.149883 343.133514 
L 575.163146 350.900009 
L 577.169778 358.38084 
L 579.17641 363.642744 
L 581.183041 366.215681 
L 583.189673 367.393289 
L 585.196305 368.900973 
L 587.202937 371.365453 
L 589.209568 372.253992 
L 591.2162 371.939243 
L 593.222832 372.254081 
L 595.229463 372.234272 
L 597.236095 372.784624 
L 599.242727 370.876097 
L 603.25599 370.919749 
L 605.262622 371.467366 
L 607.269254 373.045323 
L 609.275885 374.211817 
L 611.282517 376.086775 
L 615.295781 378.32354 
L 617.302412 379.218981 
L 621.315676 380.153727 
L 623.322307 380.094165 
L 625.328939 379.45306 
L 627.335571 378.496309 
L 629.342203 377.108421 
L 631.348834 374.345012 
L 635.362098 368.028568 
L 637.368729 363.296265 
L 639.375361 355.901392 
L 641.381993 351.564688 
L 643.388625 347.797247 
L 649.40852 330.905814 
L 651.415151 329.826758 
L 653.421783 325.991107 
L 655.428415 323.50637 
L 657.435047 319.104367 
L 659.441678 316.773218 
L 661.44831 320.87293 
L 663.454942 321.250468 
L 665.461573 319.213855 
L 667.468205 319.601252 
L 669.474837 323.617291 
L 671.481469 324.592775 
L 673.4881 320.247466 
L 673.4881 320.247466 
" style="fill:none;stroke:#ff7f0e;stroke-linecap:square;stroke-width:1.5;"/>
   </g>
   <g id="line2d_15">
    <path clip-path="url(#p20040b282a)" d="M 77.518481 430.210943 
L 85.545008 430.210943 
L 87.55164 423.39833 
L 89.558271 423.39833 
L 91.564903 416.585718 
L 93.571535 406.3668 
L 95.578166 389.335269 
L 97.584798 362.08482 
L 99.59143 348.459596 
L 101.598062 345.05329 
L 103.604693 345.05329 
L 105.611325 341.646983 
L 109.624588 341.646983 
L 111.63122 338.240677 
L 121.664379 338.240677 
L 123.67101 341.646983 
L 129.690906 341.646983 
L 131.697537 345.05329 
L 133.704169 341.646983 
L 135.710801 345.05329 
L 139.724064 345.05329 
L 141.730696 348.459596 
L 143.737328 345.05329 
L 153.770486 345.05329 
L 155.777118 348.459596 
L 159.790381 348.459596 
L 161.797013 351.865902 
L 165.810276 351.865902 
L 167.816908 358.678514 
L 169.82354 372.303739 
L 171.830172 379.116351 
L 173.836803 382.522657 
L 175.843435 389.335269 
L 177.850067 399.554188 
L 179.856698 406.3668 
L 183.869962 406.3668 
L 189.889857 416.585718 
L 191.896489 416.585718 
L 193.90312 423.39833 
L 195.909752 426.804637 
L 197.916384 426.804637 
L 199.923016 423.39833 
L 205.942911 423.39833 
L 209.956174 416.585718 
L 211.962806 409.773106 
L 213.969438 399.554188 
L 217.982701 385.928963 
L 219.989333 375.710045 
L 221.995964 368.897432 
L 224.002596 365.491126 
L 228.01586 351.865902 
L 230.022491 348.459596 
L 238.049018 348.459596 
L 242.062282 341.646983 
L 248.082177 341.646983 
L 250.088808 338.240677 
L 252.09544 338.240677 
L 254.102072 341.646983 
L 262.128599 341.646983 
L 264.13523 345.05329 
L 272.161757 345.05329 
L 274.168389 348.459596 
L 298.24797 348.459596 
L 300.254601 351.865902 
L 306.274496 351.865902 
L 308.281128 358.678514 
L 310.28776 362.08482 
L 312.294392 362.08482 
L 314.301023 365.491126 
L 316.307655 375.710045 
L 322.32755 396.147881 
L 324.334182 406.3668 
L 328.347445 413.179412 
L 330.354077 413.179412 
L 342.393867 433.617249 
L 352.427026 433.617249 
L 354.433658 430.210943 
L 356.440289 430.210943 
L 362.460184 419.992024 
L 364.466816 409.773106 
L 366.473448 402.960494 
L 368.48008 389.335269 
L 370.486711 382.522657 
L 374.499975 355.272208 
L 378.513238 348.459596 
L 380.51987 348.459596 
L 382.526502 345.05329 
L 386.539765 345.05329 
L 388.546397 341.646983 
L 390.553028 345.05329 
L 392.55966 345.05329 
L 394.566292 341.646983 
L 396.572924 341.646983 
L 398.579555 345.05329 
L 410.619346 345.05329 
L 412.625977 348.459596 
L 424.665768 348.459596 
L 426.672399 351.865902 
L 428.679031 348.459596 
L 432.692294 355.272208 
L 434.698926 362.08482 
L 436.705558 365.491126 
L 438.71219 362.08482 
L 440.718821 365.491126 
L 442.725453 365.491126 
L 444.732085 358.678514 
L 448.745348 358.678514 
L 452.758612 365.491126 
L 462.79177 399.554188 
L 466.805034 406.3668 
L 468.811665 413.179412 
L 472.824929 419.992024 
L 474.83156 426.804637 
L 476.838192 430.210943 
L 478.844824 430.210943 
L 480.851456 433.617249 
L 482.858087 433.617249 
L 488.877982 423.39833 
L 492.891246 409.773106 
L 494.897878 399.554188 
L 498.911141 365.491126 
L 500.917773 355.272208 
L 502.924404 348.459596 
L 506.937668 348.459596 
L 508.9443 345.05329 
L 510.950931 345.05329 
L 512.957563 341.646983 
L 514.964195 341.646983 
L 516.970826 338.240677 
L 522.990722 338.240677 
L 524.997353 341.646983 
L 535.030512 341.646983 
L 537.037144 345.05329 
L 539.043775 345.05329 
L 541.050407 341.646983 
L 547.070302 341.646983 
L 549.076934 345.05329 
L 553.090197 345.05329 
L 555.096829 348.459596 
L 557.103461 348.459596 
L 559.110093 351.865902 
L 565.129988 351.865902 
L 567.136619 355.272208 
L 569.143251 362.08482 
L 571.149883 375.710045 
L 573.156515 385.928963 
L 575.163146 392.741575 
L 577.169778 406.3668 
L 579.17641 413.179412 
L 583.189673 419.992024 
L 585.196305 419.992024 
L 589.209568 426.804637 
L 597.236095 426.804637 
L 599.242727 423.39833 
L 605.262622 423.39833 
L 607.269254 426.804637 
L 609.275885 426.804637 
L 611.282517 430.210943 
L 613.289149 430.210943 
L 615.295781 433.617249 
L 627.335571 433.617249 
L 635.362098 419.992024 
L 637.368729 413.179412 
L 639.375361 399.554188 
L 643.388625 385.928963 
L 645.395256 375.710045 
L 647.401888 362.08482 
L 649.40852 355.272208 
L 651.415151 351.865902 
L 655.428415 351.865902 
L 657.435047 348.459596 
L 659.441678 348.459596 
L 661.44831 351.865902 
L 663.454942 351.865902 
L 665.461573 348.459596 
L 667.468205 348.459596 
L 669.474837 351.865902 
L 671.481469 351.865902 
L 673.4881 348.459596 
L 673.4881 348.459596 
" style="fill:none;stroke:#2ca02c;stroke-linecap:square;stroke-width:1.5;"/>
   </g>
   <g id="line2d_16">
    <path clip-path="url(#p20040b282a)" d="M 77.518481 331.428065 
L 87.55164 331.428065 
L 95.578166 317.80284 
L 97.584798 307.583922 
L 99.59143 300.77131 
L 101.598062 287.146085 
L 103.604693 256.48933 
L 105.611325 229.238881 
L 107.617957 212.20735 
L 109.624588 205.394738 
L 113.637852 178.144289 
L 115.644484 174.737983 
L 117.651115 174.737983 
L 119.657747 167.925371 
L 123.67101 174.737983 
L 125.677642 184.956901 
L 127.684274 184.956901 
L 129.690906 188.363208 
L 131.697537 198.582126 
L 133.704169 205.394738 
L 135.710801 215.613657 
L 137.717432 222.426269 
L 139.724064 236.051493 
L 141.730696 256.48933 
L 143.737328 256.48933 
L 145.743959 242.864106 
L 147.750591 246.270412 
L 149.757223 253.083024 
L 151.763854 256.48933 
L 153.770486 256.48933 
L 155.777118 266.708249 
L 157.78375 287.146085 
L 161.797013 300.77131 
L 165.810276 307.583922 
L 167.816908 307.583922 
L 173.836803 317.80284 
L 175.843435 317.80284 
L 179.856698 324.615453 
L 181.86333 324.615453 
L 183.869962 321.209147 
L 185.876594 324.615453 
L 187.883225 324.615453 
L 189.889857 328.021759 
L 193.90312 328.021759 
L 195.909752 331.428065 
L 201.929647 331.428065 
L 203.936279 328.021759 
L 209.956174 328.021759 
L 215.976069 317.80284 
L 217.982701 317.80284 
L 221.995964 310.990228 
L 224.002596 310.990228 
L 228.01586 304.177616 
L 230.022491 297.365004 
L 232.029123 297.365004 
L 234.035755 293.958698 
L 238.049018 293.958698 
L 240.05565 283.739779 
L 242.062282 249.676718 
L 244.068913 222.426269 
L 246.075545 201.988432 
L 248.082177 195.17582 
L 250.088808 184.956901 
L 252.09544 181.550595 
L 254.102072 188.363208 
L 256.108704 188.363208 
L 258.115335 184.956901 
L 262.128599 191.769514 
L 264.13523 205.394738 
L 266.141862 212.20735 
L 268.148494 225.832575 
L 270.155126 242.864106 
L 272.161757 256.48933 
L 274.168389 266.708249 
L 276.175021 273.520861 
L 278.181652 276.927167 
L 280.188284 287.146085 
L 282.194916 290.552391 
L 288.214811 290.552391 
L 290.221443 293.958698 
L 294.234706 293.958698 
L 296.241338 297.365004 
L 298.24797 297.365004 
L 300.254601 300.77131 
L 304.267865 300.77131 
L 310.28776 310.990228 
L 314.301023 310.990228 
L 318.314287 317.80284 
L 320.320918 317.80284 
L 322.32755 321.209147 
L 324.334182 321.209147 
L 326.340814 324.615453 
L 330.354077 324.615453 
L 332.360709 328.021759 
L 334.36734 328.021759 
L 336.373972 331.428065 
L 340.387236 331.428065 
L 342.393867 334.834371 
L 354.433658 334.834371 
L 356.440289 331.428065 
L 360.453553 331.428065 
L 376.506606 304.177616 
L 378.513238 297.365004 
L 380.51987 287.146085 
L 384.533133 253.083024 
L 386.539765 239.4578 
L 388.546397 232.645187 
L 392.55966 232.645187 
L 394.566292 225.832575 
L 396.572924 222.426269 
L 398.579555 229.238881 
L 400.586187 229.238881 
L 402.592819 232.645187 
L 404.59945 232.645187 
L 406.606082 239.4578 
L 408.612714 249.676718 
L 410.619346 256.48933 
L 412.625977 266.708249 
L 414.632609 270.114555 
L 416.639241 283.739779 
L 426.672399 300.77131 
L 430.685663 300.77131 
L 432.692294 307.583922 
L 434.698926 310.990228 
L 442.725453 310.990228 
L 444.732085 307.583922 
L 448.745348 307.583922 
L 450.75198 310.990228 
L 452.758612 310.990228 
L 454.765243 314.396534 
L 456.771875 314.396534 
L 458.778507 317.80284 
L 460.785138 317.80284 
L 462.79177 321.209147 
L 464.798402 321.209147 
L 466.805034 324.615453 
L 468.811665 324.615453 
L 470.818297 328.021759 
L 472.824929 328.021759 
L 474.83156 331.428065 
L 476.838192 331.428065 
L 478.844824 334.834371 
L 482.858087 334.834371 
L 484.864719 331.428065 
L 486.871351 331.428065 
L 488.877982 328.021759 
L 490.884614 328.021759 
L 494.897878 321.209147 
L 496.904509 314.396534 
L 500.917773 307.583922 
L 502.924404 300.77131 
L 504.931036 290.552391 
L 508.9443 276.927167 
L 510.950931 263.301942 
L 512.957563 225.832575 
L 514.964195 208.801044 
L 518.977458 181.550595 
L 520.98409 174.737983 
L 524.997353 174.737983 
L 527.003985 178.144289 
L 529.010617 184.956901 
L 531.017249 195.17582 
L 533.02388 201.988432 
L 535.030512 205.394738 
L 537.037144 219.019963 
L 539.043775 222.426269 
L 541.050407 222.426269 
L 545.063671 215.613657 
L 549.076934 222.426269 
L 551.083566 236.051493 
L 557.103461 287.146085 
L 559.110093 297.365004 
L 561.116724 304.177616 
L 565.129988 304.177616 
L 573.156515 317.80284 
L 575.163146 317.80284 
L 577.169778 324.615453 
L 579.17641 324.615453 
L 581.183041 328.021759 
L 585.196305 328.021759 
L 587.202937 331.428065 
L 597.236095 331.428065 
L 599.242727 328.021759 
L 603.25599 328.021759 
L 605.262622 331.428065 
L 609.275885 331.428065 
L 611.282517 334.834371 
L 629.342203 334.834371 
L 633.355466 328.021759 
L 635.362098 328.021759 
L 641.381993 317.80284 
L 643.388625 317.80284 
L 651.415151 304.177616 
L 653.421783 304.177616 
L 657.435047 297.365004 
L 659.441678 297.365004 
L 661.44831 300.77131 
L 663.454942 300.77131 
L 665.461573 297.365004 
L 667.468205 297.365004 
L 669.474837 300.77131 
L 671.481469 300.77131 
L 673.4881 297.365004 
L 673.4881 297.365004 
" style="fill:none;stroke:#d62728;stroke-linecap:square;stroke-width:1.5;"/>
   </g>
   <g id="patch_3">
    <path d="M 47.72 469 
L 47.72 103.68 
" style="fill:none;stroke:#000000;stroke-linecap:square;stroke-linejoin:miter;stroke-width:0.8;"/>
   </g>
   <g id="patch_4">
    <path d="M 703.286581 469 
L 703.286581 103.68 
" style="fill:none;stroke:#000000;stroke-linecap:square;stroke-linejoin:miter;stroke-width:0.8;"/>
   </g>
   <g id="patch_5">
    <path d="M 47.72 469 
L 703.286581 469 
" style="fill:none;stroke:#000000;stroke-linecap:square;stroke-linejoin:miter;stroke-width:0.8;"/>
   </g>
   <g id="patch_6">
    <path d="M 47.72 103.68 
L 703.286581 103.68 
" style="fill:none;stroke:#000000;stroke-linecap:square;stroke-linejoin:miter;stroke-width:0.8;"/>
   </g>
   <g id="text_13">
    <!-- Plot of Train Data vs MCMC Uncertainty  -->
    <defs>
     <path d="M 19.671875 64.796875 
L 19.671875 37.40625 
L 32.078125 37.40625 
Q 38.96875 37.40625 42.71875 40.96875 
Q 46.484375 44.53125 46.484375 51.125 
Q 46.484375 57.671875 42.71875 61.234375 
Q 38.96875 64.796875 32.078125 64.796875 
z
M 9.8125 72.90625 
L 32.078125 72.90625 
Q 44.34375 72.90625 50.609375 67.359375 
Q 56.890625 61.8125 56.890625 51.125 
Q 56.890625 40.328125 50.609375 34.8125 
Q 44.34375 29.296875 32.078125 29.296875 
L 19.671875 29.296875 
L 19.671875 0 
L 9.8125 0 
z
" id="DejaVuSans-50"/>
     <path d="M 9.421875 75.984375 
L 18.40625 75.984375 
L 18.40625 0 
L 9.421875 0 
z
" id="DejaVuSans-6c"/>
     <path d="M 30.609375 48.390625 
Q 23.390625 48.390625 19.1875 42.75 
Q 14.984375 37.109375 14.984375 27.296875 
Q 14.984375 17.484375 19.15625 11.84375 
Q 23.34375 6.203125 30.609375 6.203125 
Q 37.796875 6.203125 41.984375 11.859375 
Q 46.1875 17.53125 46.1875 27.296875 
Q 46.1875 37.015625 41.984375 42.703125 
Q 37.796875 48.390625 30.609375 48.390625 
z
M 30.609375 56 
Q 42.328125 56 49.015625 48.375 
Q 55.71875 40.765625 55.71875 27.296875 
Q 55.71875 13.875 49.015625 6.21875 
Q 42.328125 -1.421875 30.609375 -1.421875 
Q 18.84375 -1.421875 12.171875 6.21875 
Q 5.515625 13.875 5.515625 27.296875 
Q 5.515625 40.765625 12.171875 48.375 
Q 18.84375 56 30.609375 56 
z
" id="DejaVuSans-6f"/>
     <path d="M 18.3125 70.21875 
L 18.3125 54.6875 
L 36.8125 54.6875 
L 36.8125 47.703125 
L 18.3125 47.703125 
L 18.3125 18.015625 
Q 18.3125 11.328125 20.140625 9.421875 
Q 21.96875 7.515625 27.59375 7.515625 
L 36.8125 7.515625 
L 36.8125 0 
L 27.59375 0 
Q 17.1875 0 13.234375 3.875 
Q 9.28125 7.765625 9.28125 18.015625 
L 9.28125 47.703125 
L 2.6875 47.703125 
L 2.6875 54.6875 
L 9.28125 54.6875 
L 9.28125 70.21875 
z
" id="DejaVuSans-74"/>
     <path id="DejaVuSans-20"/>
     <path d="M 37.109375 75.984375 
L 37.109375 68.5 
L 28.515625 68.5 
Q 23.6875 68.5 21.796875 66.546875 
Q 19.921875 64.59375 19.921875 59.515625 
L 19.921875 54.6875 
L 34.71875 54.6875 
L 34.71875 47.703125 
L 19.921875 47.703125 
L 19.921875 0 
L 10.890625 0 
L 10.890625 47.703125 
L 2.296875 47.703125 
L 2.296875 54.6875 
L 10.890625 54.6875 
L 10.890625 58.5 
Q 10.890625 67.625 15.140625 71.796875 
Q 19.390625 75.984375 28.609375 75.984375 
z
" id="DejaVuSans-66"/>
     <path d="M -0.296875 72.90625 
L 61.375 72.90625 
L 61.375 64.59375 
L 35.5 64.59375 
L 35.5 0 
L 25.59375 0 
L 25.59375 64.59375 
L -0.296875 64.59375 
z
" id="DejaVuSans-54"/>
     <path d="M 41.109375 46.296875 
Q 39.59375 47.171875 37.8125 47.578125 
Q 36.03125 48 33.890625 48 
Q 26.265625 48 22.1875 43.046875 
Q 18.109375 38.09375 18.109375 28.8125 
L 18.109375 0 
L 9.078125 0 
L 9.078125 54.6875 
L 18.109375 54.6875 
L 18.109375 46.1875 
Q 20.953125 51.171875 25.484375 53.578125 
Q 30.03125 56 36.53125 56 
Q 37.453125 56 38.578125 55.875 
Q 39.703125 55.765625 41.0625 55.515625 
z
" id="DejaVuSans-72"/>
     <path d="M 34.28125 27.484375 
Q 23.390625 27.484375 19.1875 25 
Q 14.984375 22.515625 14.984375 16.5 
Q 14.984375 11.71875 18.140625 8.90625 
Q 21.296875 6.109375 26.703125 6.109375 
Q 34.1875 6.109375 38.703125 11.40625 
Q 43.21875 16.703125 43.21875 25.484375 
L 43.21875 27.484375 
z
M 52.203125 31.203125 
L 52.203125 0 
L 43.21875 0 
L 43.21875 8.296875 
Q 40.140625 3.328125 35.546875 0.953125 
Q 30.953125 -1.421875 24.3125 -1.421875 
Q 15.921875 -1.421875 10.953125 3.296875 
Q 6 8.015625 6 15.921875 
Q 6 25.140625 12.171875 29.828125 
Q 18.359375 34.515625 30.609375 34.515625 
L 43.21875 34.515625 
L 43.21875 35.40625 
Q 43.21875 41.609375 39.140625 45 
Q 35.0625 48.390625 27.6875 48.390625 
Q 23 48.390625 18.546875 47.265625 
Q 14.109375 46.140625 10.015625 43.890625 
L 10.015625 52.203125 
Q 14.9375 54.109375 19.578125 55.046875 
Q 24.21875 56 28.609375 56 
Q 40.484375 56 46.34375 49.84375 
Q 52.203125 43.703125 52.203125 31.203125 
z
" id="DejaVuSans-61"/>
     <path d="M 9.421875 54.6875 
L 18.40625 54.6875 
L 18.40625 0 
L 9.421875 0 
z
M 9.421875 75.984375 
L 18.40625 75.984375 
L 18.40625 64.59375 
L 9.421875 64.59375 
z
" id="DejaVuSans-69"/>
     <path d="M 54.890625 33.015625 
L 54.890625 0 
L 45.90625 0 
L 45.90625 32.71875 
Q 45.90625 40.484375 42.875 44.328125 
Q 39.84375 48.1875 33.796875 48.1875 
Q 26.515625 48.1875 22.3125 43.546875 
Q 18.109375 38.921875 18.109375 30.90625 
L 18.109375 0 
L 9.078125 0 
L 9.078125 54.6875 
L 18.109375 54.6875 
L 18.109375 46.1875 
Q 21.34375 51.125 25.703125 53.5625 
Q 30.078125 56 35.796875 56 
Q 45.21875 56 50.046875 50.171875 
Q 54.890625 44.34375 54.890625 33.015625 
z
" id="DejaVuSans-6e"/>
     <path d="M 19.671875 64.796875 
L 19.671875 8.109375 
L 31.59375 8.109375 
Q 46.6875 8.109375 53.6875 14.9375 
Q 60.6875 21.78125 60.6875 36.53125 
Q 60.6875 51.171875 53.6875 57.984375 
Q 46.6875 64.796875 31.59375 64.796875 
z
M 9.8125 72.90625 
L 30.078125 72.90625 
Q 51.265625 72.90625 61.171875 64.09375 
Q 71.09375 55.28125 71.09375 36.53125 
Q 71.09375 17.671875 61.125 8.828125 
Q 51.171875 0 30.078125 0 
L 9.8125 0 
z
" id="DejaVuSans-44"/>
     <path d="M 2.984375 54.6875 
L 12.5 54.6875 
L 29.59375 8.796875 
L 46.6875 54.6875 
L 56.203125 54.6875 
L 35.6875 0 
L 23.484375 0 
z
" id="DejaVuSans-76"/>
     <path d="M 44.28125 53.078125 
L 44.28125 44.578125 
Q 40.484375 46.53125 36.375 47.5 
Q 32.28125 48.484375 27.875 48.484375 
Q 21.1875 48.484375 17.84375 46.4375 
Q 14.5 44.390625 14.5 40.28125 
Q 14.5 37.15625 16.890625 35.375 
Q 19.28125 33.59375 26.515625 31.984375 
L 29.59375 31.296875 
Q 39.15625 29.25 43.1875 25.515625 
Q 47.21875 21.78125 47.21875 15.09375 
Q 47.21875 7.46875 41.1875 3.015625 
Q 35.15625 -1.421875 24.609375 -1.421875 
Q 20.21875 -1.421875 15.453125 -0.5625 
Q 10.6875 0.296875 5.421875 2 
L 5.421875 11.28125 
Q 10.40625 8.6875 15.234375 7.390625 
Q 20.0625 6.109375 24.8125 6.109375 
Q 31.15625 6.109375 34.5625 8.28125 
Q 37.984375 10.453125 37.984375 14.40625 
Q 37.984375 18.0625 35.515625 20.015625 
Q 33.0625 21.96875 24.703125 23.78125 
L 21.578125 24.515625 
Q 13.234375 26.265625 9.515625 29.90625 
Q 5.8125 33.546875 5.8125 39.890625 
Q 5.8125 47.609375 11.28125 51.796875 
Q 16.75 56 26.8125 56 
Q 31.78125 56 36.171875 55.265625 
Q 40.578125 54.546875 44.28125 53.078125 
z
" id="DejaVuSans-73"/>
     <path d="M 9.8125 72.90625 
L 24.515625 72.90625 
L 43.109375 23.296875 
L 61.8125 72.90625 
L 76.515625 72.90625 
L 76.515625 0 
L 66.890625 0 
L 66.890625 64.015625 
L 48.09375 14.015625 
L 38.1875 14.015625 
L 19.390625 64.015625 
L 19.390625 0 
L 9.8125 0 
z
" id="DejaVuSans-4d"/>
     <path d="M 64.40625 67.28125 
L 64.40625 56.890625 
Q 59.421875 61.53125 53.78125 63.8125 
Q 48.140625 66.109375 41.796875 66.109375 
Q 29.296875 66.109375 22.65625 58.46875 
Q 16.015625 50.828125 16.015625 36.375 
Q 16.015625 21.96875 22.65625 14.328125 
Q 29.296875 6.6875 41.796875 6.6875 
Q 48.140625 6.6875 53.78125 8.984375 
Q 59.421875 11.28125 64.40625 15.921875 
L 64.40625 5.609375 
Q 59.234375 2.09375 53.4375 0.328125 
Q 47.65625 -1.421875 41.21875 -1.421875 
Q 24.65625 -1.421875 15.125 8.703125 
Q 5.609375 18.84375 5.609375 36.375 
Q 5.609375 53.953125 15.125 64.078125 
Q 24.65625 74.21875 41.21875 74.21875 
Q 47.75 74.21875 53.53125 72.484375 
Q 59.328125 70.75 64.40625 67.28125 
z
" id="DejaVuSans-43"/>
     <path d="M 8.6875 72.90625 
L 18.609375 72.90625 
L 18.609375 28.609375 
Q 18.609375 16.890625 22.84375 11.734375 
Q 27.09375 6.59375 36.625 6.59375 
Q 46.09375 6.59375 50.34375 11.734375 
Q 54.59375 16.890625 54.59375 28.609375 
L 54.59375 72.90625 
L 64.5 72.90625 
L 64.5 27.390625 
Q 64.5 13.140625 57.4375 5.859375 
Q 50.390625 -1.421875 36.625 -1.421875 
Q 22.796875 -1.421875 15.734375 5.859375 
Q 8.6875 13.140625 8.6875 27.390625 
z
" id="DejaVuSans-55"/>
     <path d="M 48.78125 52.59375 
L 48.78125 44.1875 
Q 44.96875 46.296875 41.140625 47.34375 
Q 37.3125 48.390625 33.40625 48.390625 
Q 24.65625 48.390625 19.8125 42.84375 
Q 14.984375 37.3125 14.984375 27.296875 
Q 14.984375 17.28125 19.8125 11.734375 
Q 24.65625 6.203125 33.40625 6.203125 
Q 37.3125 6.203125 41.140625 7.25 
Q 44.96875 8.296875 48.78125 10.40625 
L 48.78125 2.09375 
Q 45.015625 0.34375 40.984375 -0.53125 
Q 36.96875 -1.421875 32.421875 -1.421875 
Q 20.0625 -1.421875 12.78125 6.34375 
Q 5.515625 14.109375 5.515625 27.296875 
Q 5.515625 40.671875 12.859375 48.328125 
Q 20.21875 56 33.015625 56 
Q 37.15625 56 41.109375 55.140625 
Q 45.0625 54.296875 48.78125 52.59375 
z
" id="DejaVuSans-63"/>
     <path d="M 56.203125 29.59375 
L 56.203125 25.203125 
L 14.890625 25.203125 
Q 15.484375 15.921875 20.484375 11.0625 
Q 25.484375 6.203125 34.421875 6.203125 
Q 39.59375 6.203125 44.453125 7.46875 
Q 49.3125 8.734375 54.109375 11.28125 
L 54.109375 2.78125 
Q 49.265625 0.734375 44.1875 -0.34375 
Q 39.109375 -1.421875 33.890625 -1.421875 
Q 20.796875 -1.421875 13.15625 6.1875 
Q 5.515625 13.8125 5.515625 26.8125 
Q 5.515625 40.234375 12.765625 48.109375 
Q 20.015625 56 32.328125 56 
Q 43.359375 56 49.78125 48.890625 
Q 56.203125 41.796875 56.203125 29.59375 
z
M 47.21875 32.234375 
Q 47.125 39.59375 43.09375 43.984375 
Q 39.0625 48.390625 32.421875 48.390625 
Q 24.90625 48.390625 20.390625 44.140625 
Q 15.875 39.890625 15.1875 32.171875 
z
" id="DejaVuSans-65"/>
     <path d="M 32.171875 -5.078125 
Q 28.375 -14.84375 24.75 -17.8125 
Q 21.140625 -20.796875 15.09375 -20.796875 
L 7.90625 -20.796875 
L 7.90625 -13.28125 
L 13.1875 -13.28125 
Q 16.890625 -13.28125 18.9375 -11.515625 
Q 21 -9.765625 23.484375 -3.21875 
L 25.09375 0.875 
L 2.984375 54.6875 
L 12.5 54.6875 
L 29.59375 11.921875 
L 46.6875 54.6875 
L 56.203125 54.6875 
z
" id="DejaVuSans-79"/>
    </defs>
    <g transform="translate(255.010166 97.68)scale(0.12 -0.12)">
     <use xlink:href="#DejaVuSans-50"/>
     <use x="60.302734" xlink:href="#DejaVuSans-6c"/>
     <use x="88.085938" xlink:href="#DejaVuSans-6f"/>
     <use x="149.267578" xlink:href="#DejaVuSans-74"/>
     <use x="188.476562" xlink:href="#DejaVuSans-20"/>
     <use x="220.263672" xlink:href="#DejaVuSans-6f"/>
     <use x="281.445312" xlink:href="#DejaVuSans-66"/>
     <use x="316.650391" xlink:href="#DejaVuSans-20"/>
     <use x="348.4375" xlink:href="#DejaVuSans-54"/>
     <use x="409.302734" xlink:href="#DejaVuSans-72"/>
     <use x="450.416016" xlink:href="#DejaVuSans-61"/>
     <use x="511.695312" xlink:href="#DejaVuSans-69"/>
     <use x="539.478516" xlink:href="#DejaVuSans-6e"/>
     <use x="602.857422" xlink:href="#DejaVuSans-20"/>
     <use x="634.644531" xlink:href="#DejaVuSans-44"/>
     <use x="711.646484" xlink:href="#DejaVuSans-61"/>
     <use x="772.925781" xlink:href="#DejaVuSans-74"/>
     <use x="812.134766" xlink:href="#DejaVuSans-61"/>
     <use x="873.414062" xlink:href="#DejaVuSans-20"/>
     <use x="905.201172" xlink:href="#DejaVuSans-76"/>
     <use x="964.380859" xlink:href="#DejaVuSans-73"/>
     <use x="1016.480469" xlink:href="#DejaVuSans-20"/>
     <use x="1048.267578" xlink:href="#DejaVuSans-4d"/>
     <use x="1134.546875" xlink:href="#DejaVuSans-43"/>
     <use x="1204.371094" xlink:href="#DejaVuSans-4d"/>
     <use x="1290.650391" xlink:href="#DejaVuSans-43"/>
     <use x="1360.474609" xlink:href="#DejaVuSans-20"/>
     <use x="1392.261719" xlink:href="#DejaVuSans-55"/>
     <use x="1465.455078" xlink:href="#DejaVuSans-6e"/>
     <use x="1528.833984" xlink:href="#DejaVuSans-63"/>
     <use x="1583.814453" xlink:href="#DejaVuSans-65"/>
     <use x="1645.337891" xlink:href="#DejaVuSans-72"/>
     <use x="1686.451172" xlink:href="#DejaVuSans-74"/>
     <use x="1725.660156" xlink:href="#DejaVuSans-61"/>
     <use x="1786.939453" xlink:href="#DejaVuSans-69"/>
     <use x="1814.722656" xlink:href="#DejaVuSans-6e"/>
     <use x="1878.101562" xlink:href="#DejaVuSans-74"/>
     <use x="1917.310547" xlink:href="#DejaVuSans-79"/>
     <use x="1976.490234" xlink:href="#DejaVuSans-20"/>
    </g>
   </g>
   <g id="legend_1">
    <g id="patch_7">
     <path d="M 566.410019 170.3925 
L 696.286581 170.3925 
Q 698.286581 170.3925 698.286581 168.3925 
L 698.286581 110.68 
Q 698.286581 108.68 696.286581 108.68 
L 566.410019 108.68 
Q 564.410019 108.68 564.410019 110.68 
L 564.410019 168.3925 
Q 564.410019 170.3925 566.410019 170.3925 
z
" style="fill:#ffffff;opacity:0.8;stroke:#cccccc;stroke-linejoin:miter;"/>
    </g>
    <g id="line2d_17">
     <path d="M 568.410019 116.778437 
L 588.410019 116.778437 
" style="fill:none;stroke:#1f77b4;stroke-linecap:square;stroke-width:1.5;"/>
    </g>
    <g id="line2d_18"/>
    <g id="text_14">
     <!-- actual -->
     <defs>
      <path d="M 8.5 21.578125 
L 8.5 54.6875 
L 17.484375 54.6875 
L 17.484375 21.921875 
Q 17.484375 14.15625 20.5 10.265625 
Q 23.53125 6.390625 29.59375 6.390625 
Q 36.859375 6.390625 41.078125 11.03125 
Q 45.3125 15.671875 45.3125 23.6875 
L 45.3125 54.6875 
L 54.296875 54.6875 
L 54.296875 0 
L 45.3125 0 
L 45.3125 8.40625 
Q 42.046875 3.421875 37.71875 1 
Q 33.40625 -1.421875 27.6875 -1.421875 
Q 18.265625 -1.421875 13.375 4.4375 
Q 8.5 10.296875 8.5 21.578125 
z
M 31.109375 56 
z
" id="DejaVuSans-75"/>
     </defs>
     <g transform="translate(596.410019 120.278437)scale(0.1 -0.1)">
      <use xlink:href="#DejaVuSans-61"/>
      <use x="61.279297" xlink:href="#DejaVuSans-63"/>
      <use x="116.259766" xlink:href="#DejaVuSans-74"/>
      <use x="155.46875" xlink:href="#DejaVuSans-75"/>
      <use x="218.847656" xlink:href="#DejaVuSans-61"/>
      <use x="280.126953" xlink:href="#DejaVuSans-6c"/>
     </g>
    </g>
    <g id="line2d_19">
     <path d="M 568.410019 131.456562 
L 588.410019 131.456562 
" style="fill:none;stroke:#ff7f0e;stroke-linecap:square;stroke-width:1.5;"/>
    </g>
    <g id="line2d_20"/>
    <g id="text_15">
     <!-- pred. (mean) -->
     <defs>
      <path d="M 18.109375 8.203125 
L 18.109375 -20.796875 
L 9.078125 -20.796875 
L 9.078125 54.6875 
L 18.109375 54.6875 
L 18.109375 46.390625 
Q 20.953125 51.265625 25.265625 53.625 
Q 29.59375 56 35.59375 56 
Q 45.5625 56 51.78125 48.09375 
Q 58.015625 40.1875 58.015625 27.296875 
Q 58.015625 14.40625 51.78125 6.484375 
Q 45.5625 -1.421875 35.59375 -1.421875 
Q 29.59375 -1.421875 25.265625 0.953125 
Q 20.953125 3.328125 18.109375 8.203125 
z
M 48.6875 27.296875 
Q 48.6875 37.203125 44.609375 42.84375 
Q 40.53125 48.484375 33.40625 48.484375 
Q 26.265625 48.484375 22.1875 42.84375 
Q 18.109375 37.203125 18.109375 27.296875 
Q 18.109375 17.390625 22.1875 11.75 
Q 26.265625 6.109375 33.40625 6.109375 
Q 40.53125 6.109375 44.609375 11.75 
Q 48.6875 17.390625 48.6875 27.296875 
z
" id="DejaVuSans-70"/>
      <path d="M 45.40625 46.390625 
L 45.40625 75.984375 
L 54.390625 75.984375 
L 54.390625 0 
L 45.40625 0 
L 45.40625 8.203125 
Q 42.578125 3.328125 38.25 0.953125 
Q 33.9375 -1.421875 27.875 -1.421875 
Q 17.96875 -1.421875 11.734375 6.484375 
Q 5.515625 14.40625 5.515625 27.296875 
Q 5.515625 40.1875 11.734375 48.09375 
Q 17.96875 56 27.875 56 
Q 33.9375 56 38.25 53.625 
Q 42.578125 51.265625 45.40625 46.390625 
z
M 14.796875 27.296875 
Q 14.796875 17.390625 18.875 11.75 
Q 22.953125 6.109375 30.078125 6.109375 
Q 37.203125 6.109375 41.296875 11.75 
Q 45.40625 17.390625 45.40625 27.296875 
Q 45.40625 37.203125 41.296875 42.84375 
Q 37.203125 48.484375 30.078125 48.484375 
Q 22.953125 48.484375 18.875 42.84375 
Q 14.796875 37.203125 14.796875 27.296875 
z
" id="DejaVuSans-64"/>
      <path d="M 31 75.875 
Q 24.46875 64.65625 21.28125 53.65625 
Q 18.109375 42.671875 18.109375 31.390625 
Q 18.109375 20.125 21.3125 9.0625 
Q 24.515625 -2 31 -13.1875 
L 23.1875 -13.1875 
Q 15.875 -1.703125 12.234375 9.375 
Q 8.59375 20.453125 8.59375 31.390625 
Q 8.59375 42.28125 12.203125 53.3125 
Q 15.828125 64.359375 23.1875 75.875 
z
" id="DejaVuSans-28"/>
      <path d="M 52 44.1875 
Q 55.375 50.25 60.0625 53.125 
Q 64.75 56 71.09375 56 
Q 79.640625 56 84.28125 50.015625 
Q 88.921875 44.046875 88.921875 33.015625 
L 88.921875 0 
L 79.890625 0 
L 79.890625 32.71875 
Q 79.890625 40.578125 77.09375 44.375 
Q 74.3125 48.1875 68.609375 48.1875 
Q 61.625 48.1875 57.5625 43.546875 
Q 53.515625 38.921875 53.515625 30.90625 
L 53.515625 0 
L 44.484375 0 
L 44.484375 32.71875 
Q 44.484375 40.625 41.703125 44.40625 
Q 38.921875 48.1875 33.109375 48.1875 
Q 26.21875 48.1875 22.15625 43.53125 
Q 18.109375 38.875 18.109375 30.90625 
L 18.109375 0 
L 9.078125 0 
L 9.078125 54.6875 
L 18.109375 54.6875 
L 18.109375 46.1875 
Q 21.1875 51.21875 25.484375 53.609375 
Q 29.78125 56 35.6875 56 
Q 41.65625 56 45.828125 52.96875 
Q 50 49.953125 52 44.1875 
z
" id="DejaVuSans-6d"/>
      <path d="M 8.015625 75.875 
L 15.828125 75.875 
Q 23.140625 64.359375 26.78125 53.3125 
Q 30.421875 42.28125 30.421875 31.390625 
Q 30.421875 20.453125 26.78125 9.375 
Q 23.140625 -1.703125 15.828125 -13.1875 
L 8.015625 -13.1875 
Q 14.5 -2 17.703125 9.0625 
Q 20.90625 20.125 20.90625 31.390625 
Q 20.90625 42.671875 17.703125 53.65625 
Q 14.5 64.65625 8.015625 75.875 
z
" id="DejaVuSans-29"/>
     </defs>
     <g transform="translate(596.410019 134.956562)scale(0.1 -0.1)">
      <use xlink:href="#DejaVuSans-70"/>
      <use x="63.476562" xlink:href="#DejaVuSans-72"/>
      <use x="104.558594" xlink:href="#DejaVuSans-65"/>
      <use x="166.082031" xlink:href="#DejaVuSans-64"/>
      <use x="229.558594" xlink:href="#DejaVuSans-2e"/>
      <use x="261.345703" xlink:href="#DejaVuSans-20"/>
      <use x="293.132812" xlink:href="#DejaVuSans-28"/>
      <use x="332.146484" xlink:href="#DejaVuSans-6d"/>
      <use x="429.558594" xlink:href="#DejaVuSans-65"/>
      <use x="491.082031" xlink:href="#DejaVuSans-61"/>
      <use x="552.361328" xlink:href="#DejaVuSans-6e"/>
      <use x="615.740234" xlink:href="#DejaVuSans-29"/>
     </g>
    </g>
    <g id="line2d_21">
     <path d="M 568.410019 146.134687 
L 588.410019 146.134687 
" style="fill:none;stroke:#2ca02c;stroke-linecap:square;stroke-width:1.5;"/>
    </g>
    <g id="line2d_22"/>
    <g id="text_16">
     <!-- pred.(5th percen.) -->
     <defs>
      <path d="M 10.796875 72.90625 
L 49.515625 72.90625 
L 49.515625 64.59375 
L 19.828125 64.59375 
L 19.828125 46.734375 
Q 21.96875 47.46875 24.109375 47.828125 
Q 26.265625 48.1875 28.421875 48.1875 
Q 40.625 48.1875 47.75 41.5 
Q 54.890625 34.8125 54.890625 23.390625 
Q 54.890625 11.625 47.5625 5.09375 
Q 40.234375 -1.421875 26.90625 -1.421875 
Q 22.3125 -1.421875 17.546875 -0.640625 
Q 12.796875 0.140625 7.71875 1.703125 
L 7.71875 11.625 
Q 12.109375 9.234375 16.796875 8.0625 
Q 21.484375 6.890625 26.703125 6.890625 
Q 35.15625 6.890625 40.078125 11.328125 
Q 45.015625 15.765625 45.015625 23.390625 
Q 45.015625 31 40.078125 35.4375 
Q 35.15625 39.890625 26.703125 39.890625 
Q 22.75 39.890625 18.8125 39.015625 
Q 14.890625 38.140625 10.796875 36.28125 
z
" id="DejaVuSans-35"/>
      <path d="M 54.890625 33.015625 
L 54.890625 0 
L 45.90625 0 
L 45.90625 32.71875 
Q 45.90625 40.484375 42.875 44.328125 
Q 39.84375 48.1875 33.796875 48.1875 
Q 26.515625 48.1875 22.3125 43.546875 
Q 18.109375 38.921875 18.109375 30.90625 
L 18.109375 0 
L 9.078125 0 
L 9.078125 75.984375 
L 18.109375 75.984375 
L 18.109375 46.1875 
Q 21.34375 51.125 25.703125 53.5625 
Q 30.078125 56 35.796875 56 
Q 45.21875 56 50.046875 50.171875 
Q 54.890625 44.34375 54.890625 33.015625 
z
" id="DejaVuSans-68"/>
     </defs>
     <g transform="translate(596.410019 149.634687)scale(0.1 -0.1)">
      <use xlink:href="#DejaVuSans-70"/>
      <use x="63.476562" xlink:href="#DejaVuSans-72"/>
      <use x="104.558594" xlink:href="#DejaVuSans-65"/>
      <use x="166.082031" xlink:href="#DejaVuSans-64"/>
      <use x="229.558594" xlink:href="#DejaVuSans-2e"/>
      <use x="261.345703" xlink:href="#DejaVuSans-28"/>
      <use x="300.359375" xlink:href="#DejaVuSans-35"/>
      <use x="363.982422" xlink:href="#DejaVuSans-74"/>
      <use x="403.191406" xlink:href="#DejaVuSans-68"/>
      <use x="466.570312" xlink:href="#DejaVuSans-20"/>
      <use x="498.357422" xlink:href="#DejaVuSans-70"/>
      <use x="561.833984" xlink:href="#DejaVuSans-65"/>
      <use x="623.357422" xlink:href="#DejaVuSans-72"/>
      <use x="664.439453" xlink:href="#DejaVuSans-63"/>
      <use x="719.419922" xlink:href="#DejaVuSans-65"/>
      <use x="780.943359" xlink:href="#DejaVuSans-6e"/>
      <use x="844.322266" xlink:href="#DejaVuSans-2e"/>
      <use x="876.109375" xlink:href="#DejaVuSans-29"/>
     </g>
    </g>
    <g id="line2d_23">
     <path d="M 568.410019 160.812812 
L 588.410019 160.812812 
" style="fill:none;stroke:#d62728;stroke-linecap:square;stroke-width:1.5;"/>
    </g>
    <g id="line2d_24"/>
    <g id="text_17">
     <!-- pred.(95th percen.) -->
     <defs>
      <path d="M 10.984375 1.515625 
L 10.984375 10.5 
Q 14.703125 8.734375 18.5 7.8125 
Q 22.3125 6.890625 25.984375 6.890625 
Q 35.75 6.890625 40.890625 13.453125 
Q 46.046875 20.015625 46.78125 33.40625 
Q 43.953125 29.203125 39.59375 26.953125 
Q 35.25 24.703125 29.984375 24.703125 
Q 19.046875 24.703125 12.671875 31.3125 
Q 6.296875 37.9375 6.296875 49.421875 
Q 6.296875 60.640625 12.9375 67.421875 
Q 19.578125 74.21875 30.609375 74.21875 
Q 43.265625 74.21875 49.921875 64.515625 
Q 56.59375 54.828125 56.59375 36.375 
Q 56.59375 19.140625 48.40625 8.859375 
Q 40.234375 -1.421875 26.421875 -1.421875 
Q 22.703125 -1.421875 18.890625 -0.6875 
Q 15.09375 0.046875 10.984375 1.515625 
z
M 30.609375 32.421875 
Q 37.25 32.421875 41.125 36.953125 
Q 45.015625 41.5 45.015625 49.421875 
Q 45.015625 57.28125 41.125 61.84375 
Q 37.25 66.40625 30.609375 66.40625 
Q 23.96875 66.40625 20.09375 61.84375 
Q 16.21875 57.28125 16.21875 49.421875 
Q 16.21875 41.5 20.09375 36.953125 
Q 23.96875 32.421875 30.609375 32.421875 
z
" id="DejaVuSans-39"/>
     </defs>
     <g transform="translate(596.410019 164.312812)scale(0.1 -0.1)">
      <use xlink:href="#DejaVuSans-70"/>
      <use x="63.476562" xlink:href="#DejaVuSans-72"/>
      <use x="104.558594" xlink:href="#DejaVuSans-65"/>
      <use x="166.082031" xlink:href="#DejaVuSans-64"/>
      <use x="229.558594" xlink:href="#DejaVuSans-2e"/>
      <use x="261.345703" xlink:href="#DejaVuSans-28"/>
      <use x="300.359375" xlink:href="#DejaVuSans-39"/>
      <use x="363.982422" xlink:href="#DejaVuSans-35"/>
      <use x="427.605469" xlink:href="#DejaVuSans-74"/>
      <use x="466.814453" xlink:href="#DejaVuSans-68"/>
      <use x="530.193359" xlink:href="#DejaVuSans-20"/>
      <use x="561.980469" xlink:href="#DejaVuSans-70"/>
      <use x="625.457031" xlink:href="#DejaVuSans-65"/>
      <use x="686.980469" xlink:href="#DejaVuSans-72"/>
      <use x="728.0625" xlink:href="#DejaVuSans-63"/>
      <use x="783.042969" xlink:href="#DejaVuSans-65"/>
      <use x="844.566406" xlink:href="#DejaVuSans-6e"/>
      <use x="907.945312" xlink:href="#DejaVuSans-2e"/>
      <use x="939.732422" xlink:href="#DejaVuSans-29"/>
     </g>
    </g>
   </g>
  </g>
 </g>
 <defs>
  <clipPath id="p20040b282a">
   <rect height="365.32" width="655.566581" x="47.72" y="103.68"/>
  </clipPath>
 </defs>
</svg>
