<?xml version="1.0" encoding="utf-8" standalone="no"?>
<!DOCTYPE svg PUBLIC "-//W3C//DTD SVG 1.1//EN"
  "http://www.w3.org/Graphics/SVG/1.1/DTD/svg11.dtd">
<!-- Created with matplotlib (http://matplotlib.org/) -->
<svg height="864pt" version="1.1" viewBox="0 0 720 864" width="720pt" xmlns="http://www.w3.org/2000/svg" xmlns:xlink="http://www.w3.org/1999/xlink">
 <defs>
  <style type="text/css">
*{stroke-linecap:butt;stroke-linejoin:round;}
  </style>
 </defs>
 <g id="figure_1">
  <g id="patch_1">
   <path d="M 0 864 
L 720 864 
L 720 0 
L 0 0 
z
" style="fill:#ffffff;"/>
  </g>
  <g id="axes_1">
   <g id="patch_2">
    <path d="M 56.09 695.2 
L 706.68 695.2 
L 706.68 103.68 
L 56.09 103.68 
z
" style="fill:#ffffff;"/>
   </g>
   <g id="PolyCollection_1">
    <path clip-path="url(#p5ddc8ea103)" d="M 85.662273 252.021483 
L 85.662273 373.475693 
L 88.664534 373.475693 
L 91.666795 364.800392 
L 94.669056 364.800392 
L 97.671317 364.800392 
L 100.673579 364.800392 
L 103.67584 373.475693 
L 106.678101 373.475693 
L 109.680362 382.150993 
L 112.682623 373.475693 
L 115.684885 373.475693 
L 118.687146 382.150993 
L 121.689407 399.501595 
L 124.691668 416.852196 
L 127.693929 451.553399 
L 130.696191 486.254602 
L 133.698452 512.280504 
L 136.700713 538.306406 
L 139.702974 546.981707 
L 142.705235 564.332308 
L 145.707497 581.682909 
L 148.709758 581.682909 
L 151.712019 590.35821 
L 154.71428 590.35821 
L 157.716541 581.682909 
L 160.718802 590.35821 
L 163.721064 590.35821 
L 166.723325 599.033511 
L 169.725586 599.033511 
L 172.727847 599.033511 
L 175.730108 607.708812 
L 178.73237 607.708812 
L 181.734631 607.708812 
L 184.736892 607.708812 
L 187.739153 599.033511 
L 190.741414 599.033511 
L 193.743676 607.708812 
L 196.745937 607.708812 
L 199.748198 607.708812 
L 202.750459 607.708812 
L 205.75272 607.708812 
L 208.754982 599.033511 
L 211.757243 599.033511 
L 214.759504 590.35821 
L 217.761765 581.682909 
L 220.764026 555.657007 
L 223.766287 529.631105 
L 226.768549 503.605203 
L 229.77081 468.904 
L 232.773071 416.852196 
L 235.775332 382.150993 
L 238.777593 373.475693 
L 241.779855 373.475693 
L 244.782116 373.475693 
L 247.784377 364.800392 
L 250.786638 364.800392 
L 253.788899 364.800392 
L 256.791161 364.800392 
L 259.793422 364.800392 
L 262.795683 364.800392 
L 265.797944 364.800392 
L 268.800205 364.800392 
L 271.802467 364.800392 
L 274.804728 364.800392 
L 277.806989 364.800392 
L 280.80925 364.800392 
L 283.811511 364.800392 
L 286.813772 364.800392 
L 289.816034 364.800392 
L 292.818295 373.475693 
L 295.820556 373.475693 
L 298.822817 373.475693 
L 301.825078 373.475693 
L 304.82734 373.475693 
L 307.829601 382.150993 
L 310.831862 399.501595 
L 313.834123 425.527497 
L 316.836384 442.878098 
L 319.838646 451.553399 
L 322.840907 468.904 
L 325.843168 486.254602 
L 328.845429 503.605203 
L 331.84769 520.955805 
L 334.849952 529.631105 
L 337.852213 538.306406 
L 340.854474 538.306406 
L 343.856735 538.306406 
L 346.858996 538.306406 
L 349.861257 538.306406 
L 352.863519 538.306406 
L 355.86578 538.306406 
L 358.868041 555.657007 
L 361.870302 555.657007 
L 364.872563 564.332308 
L 367.874825 573.007609 
L 370.877086 590.35821 
L 373.879347 590.35821 
L 376.881608 590.35821 
L 379.883869 590.35821 
L 382.886131 590.35821 
L 385.888392 590.35821 
L 388.890653 590.35821 
L 391.892914 599.033511 
L 394.895175 599.033511 
L 397.897437 607.708812 
L 400.899698 607.708812 
L 403.901959 607.708812 
L 406.90422 607.708812 
L 409.906481 607.708812 
L 412.908743 607.708812 
L 415.911004 607.708812 
L 418.913265 607.708812 
L 421.915526 607.708812 
L 424.917787 607.708812 
L 427.920048 607.708812 
L 430.92231 599.033511 
L 433.924571 590.35821 
L 436.926832 581.682909 
L 439.929093 573.007609 
L 442.931354 555.657007 
L 445.933616 538.306406 
L 448.935877 529.631105 
L 451.938138 512.280504 
L 454.940399 486.254602 
L 457.94266 468.904 
L 460.944922 451.553399 
L 463.947183 434.202797 
L 466.949444 408.176895 
L 469.951705 399.501595 
L 472.953966 390.826294 
L 475.956228 382.150993 
L 478.958489 373.475693 
L 481.96075 373.475693 
L 484.963011 373.475693 
L 487.965272 373.475693 
L 490.967533 373.475693 
L 493.969795 373.475693 
L 496.972056 373.475693 
L 499.974317 382.150993 
L 502.976578 373.475693 
L 505.978839 373.475693 
L 508.981101 373.475693 
L 511.983362 373.475693 
L 514.985623 373.475693 
L 517.987884 373.475693 
L 520.990145 390.826294 
L 523.992407 399.501595 
L 526.994668 399.501595 
L 529.996929 390.826294 
L 532.99919 408.176895 
L 536.001451 399.501595 
L 539.003713 390.826294 
L 542.005974 399.501595 
L 545.008235 416.852196 
L 548.010496 451.553399 
L 551.012757 451.553399 
L 554.015018 460.2287 
L 557.01728 486.254602 
L 560.019541 503.605203 
L 563.021802 512.280504 
L 566.024063 529.631105 
L 569.026324 555.657007 
L 572.028586 573.007609 
L 575.030847 581.682909 
L 578.033108 581.682909 
L 581.035369 590.35821 
L 584.03763 599.033511 
L 587.039892 607.708812 
L 590.042153 607.708812 
L 593.044414 607.708812 
L 596.046675 607.708812 
L 599.048936 607.708812 
L 602.051198 607.708812 
L 605.053459 607.708812 
L 608.05572 607.708812 
L 611.057981 607.708812 
L 614.060242 607.708812 
L 617.062503 607.708812 
L 620.064765 616.384112 
L 623.067026 616.384112 
L 626.069287 616.384112 
L 629.071548 616.384112 
L 632.073809 607.708812 
L 635.076071 607.708812 
L 638.078332 607.708812 
L 641.080593 599.033511 
L 644.082854 590.35821 
L 647.085115 573.007609 
L 650.087377 555.657007 
L 653.089638 512.280504 
L 656.091899 468.904 
L 659.09416 434.202797 
L 662.096421 408.176895 
L 665.098683 390.826294 
L 668.100944 373.475693 
L 671.103205 373.475693 
L 674.105466 382.150993 
L 677.107727 382.150993 
L 677.107727 269.372084 
L 677.107727 269.372084 
L 674.105466 269.372084 
L 671.103205 269.372084 
L 668.100944 269.372084 
L 665.098683 278.047385 
L 662.096421 278.047385 
L 659.09416 278.047385 
L 656.091899 278.047385 
L 653.089638 286.722685 
L 650.087377 286.722685 
L 647.085115 278.047385 
L 644.082854 278.047385 
L 641.080593 278.047385 
L 638.078332 278.047385 
L 635.076071 278.047385 
L 632.073809 278.047385 
L 629.071548 278.047385 
L 626.069287 278.047385 
L 623.067026 278.047385 
L 620.064765 278.047385 
L 617.062503 278.047385 
L 614.060242 278.047385 
L 611.057981 278.047385 
L 608.05572 278.047385 
L 605.053459 278.047385 
L 602.051198 278.047385 
L 599.048936 278.047385 
L 596.046675 278.047385 
L 593.044414 278.047385 
L 590.042153 278.047385 
L 587.039892 278.047385 
L 584.03763 278.047385 
L 581.035369 278.047385 
L 578.033108 278.047385 
L 575.030847 278.047385 
L 572.028586 278.047385 
L 569.026324 278.047385 
L 566.024063 278.047385 
L 563.021802 278.047385 
L 560.019541 278.047385 
L 557.01728 278.047385 
L 554.015018 278.047385 
L 551.012757 278.047385 
L 548.010496 278.047385 
L 545.008235 269.372084 
L 542.005974 269.372084 
L 539.003713 269.372084 
L 536.001451 278.047385 
L 532.99919 269.372084 
L 529.996929 269.372084 
L 526.994668 278.047385 
L 523.992407 269.372084 
L 520.990145 269.372084 
L 517.987884 260.696783 
L 514.985623 260.696783 
L 511.983362 269.372084 
L 508.981101 269.372084 
L 505.978839 260.696783 
L 502.976578 260.696783 
L 499.974317 269.372084 
L 496.972056 269.372084 
L 493.969795 252.021483 
L 490.967533 260.696783 
L 487.965272 260.696783 
L 484.963011 269.372084 
L 481.96075 260.696783 
L 478.958489 260.696783 
L 475.956228 269.372084 
L 472.953966 269.372084 
L 469.951705 269.372084 
L 466.949444 278.047385 
L 463.947183 278.047385 
L 460.944922 278.047385 
L 457.94266 278.047385 
L 454.940399 278.047385 
L 451.938138 278.047385 
L 448.935877 278.047385 
L 445.933616 278.047385 
L 442.931354 278.047385 
L 439.929093 278.047385 
L 436.926832 278.047385 
L 433.924571 278.047385 
L 430.92231 278.047385 
L 427.920048 278.047385 
L 424.917787 278.047385 
L 421.915526 278.047385 
L 418.913265 278.047385 
L 415.911004 278.047385 
L 412.908743 278.047385 
L 409.906481 278.047385 
L 406.90422 278.047385 
L 403.901959 278.047385 
L 400.899698 278.047385 
L 397.897437 278.047385 
L 394.895175 278.047385 
L 391.892914 278.047385 
L 388.890653 278.047385 
L 385.888392 278.047385 
L 382.886131 278.047385 
L 379.883869 278.047385 
L 376.881608 278.047385 
L 373.879347 278.047385 
L 370.877086 278.047385 
L 367.874825 278.047385 
L 364.872563 278.047385 
L 361.870302 278.047385 
L 358.868041 278.047385 
L 355.86578 278.047385 
L 352.863519 278.047385 
L 349.861257 278.047385 
L 346.858996 278.047385 
L 343.856735 278.047385 
L 340.854474 278.047385 
L 337.852213 278.047385 
L 334.849952 278.047385 
L 331.84769 278.047385 
L 328.845429 278.047385 
L 325.843168 278.047385 
L 322.840907 278.047385 
L 319.838646 278.047385 
L 316.836384 278.047385 
L 313.834123 269.372084 
L 310.831862 269.372084 
L 307.829601 269.372084 
L 304.82734 260.696783 
L 301.825078 260.696783 
L 298.822817 252.021483 
L 295.820556 252.021483 
L 292.818295 243.346182 
L 289.816034 217.32028 
L 286.813772 199.969678 
L 283.811511 191.294378 
L 280.80925 165.268476 
L 277.806989 147.917874 
L 274.804728 130.567273 
L 271.802467 130.567273 
L 268.800205 139.242573 
L 265.797944 139.242573 
L 262.795683 147.917874 
L 259.793422 156.593175 
L 256.791161 173.943776 
L 253.788899 191.294378 
L 250.786638 199.969678 
L 247.784377 217.32028 
L 244.782116 234.670881 
L 241.779855 252.021483 
L 238.777593 269.372084 
L 235.775332 269.372084 
L 232.773071 278.047385 
L 229.77081 278.047385 
L 226.768549 278.047385 
L 223.766287 278.047385 
L 220.764026 278.047385 
L 217.761765 278.047385 
L 214.759504 278.047385 
L 211.757243 278.047385 
L 208.754982 278.047385 
L 205.75272 278.047385 
L 202.750459 278.047385 
L 199.748198 278.047385 
L 196.745937 278.047385 
L 193.743676 278.047385 
L 190.741414 278.047385 
L 187.739153 278.047385 
L 184.736892 278.047385 
L 181.734631 278.047385 
L 178.73237 278.047385 
L 175.730108 278.047385 
L 172.727847 278.047385 
L 169.725586 278.047385 
L 166.723325 278.047385 
L 163.721064 278.047385 
L 160.718802 278.047385 
L 157.716541 278.047385 
L 154.71428 278.047385 
L 151.712019 278.047385 
L 148.709758 278.047385 
L 145.707497 278.047385 
L 142.705235 278.047385 
L 139.702974 278.047385 
L 136.700713 278.047385 
L 133.698452 278.047385 
L 130.696191 278.047385 
L 127.693929 269.372084 
L 124.691668 269.372084 
L 121.689407 269.372084 
L 118.687146 269.372084 
L 115.684885 269.372084 
L 112.682623 269.372084 
L 109.680362 269.372084 
L 106.678101 269.372084 
L 103.67584 260.696783 
L 100.673579 243.346182 
L 97.671317 225.995581 
L 94.669056 217.32028 
L 91.666795 208.644979 
L 88.664534 217.32028 
L 85.662273 252.021483 
z
" style="fill:#008000;fill-opacity:0.4;"/>
   </g>
   <g id="matplotlib.axis_1">
    <g id="xtick_1">
     <g id="line2d_1">
      <defs>
       <path d="M 0 0 
L 0 3.5 
" id="m8435a485aa" style="stroke:#000000;stroke-width:0.8;"/>
      </defs>
      <g>
       <use style="stroke:#000000;stroke-width:0.8;" x="85.662273" xlink:href="#m8435a485aa" y="695.2"/>
      </g>
     </g>
     <g id="text_1">
      <!-- 0.0 -->
      <defs>
       <path d="M 31.78125 66.40625 
Q 24.171875 66.40625 20.328125 58.90625 
Q 16.5 51.421875 16.5 36.375 
Q 16.5 21.390625 20.328125 13.890625 
Q 24.171875 6.390625 31.78125 6.390625 
Q 39.453125 6.390625 43.28125 13.890625 
Q 47.125 21.390625 47.125 36.375 
Q 47.125 51.421875 43.28125 58.90625 
Q 39.453125 66.40625 31.78125 66.40625 
z
M 31.78125 74.21875 
Q 44.046875 74.21875 50.515625 64.515625 
Q 56.984375 54.828125 56.984375 36.375 
Q 56.984375 17.96875 50.515625 8.265625 
Q 44.046875 -1.421875 31.78125 -1.421875 
Q 19.53125 -1.421875 13.0625 8.265625 
Q 6.59375 17.96875 6.59375 36.375 
Q 6.59375 54.828125 13.0625 64.515625 
Q 19.53125 74.21875 31.78125 74.21875 
z
" id="DejaVuSans-30"/>
       <path d="M 10.6875 12.40625 
L 21 12.40625 
L 21 0 
L 10.6875 0 
z
" id="DejaVuSans-2e"/>
      </defs>
      <g transform="translate(77.71071 709.798437)scale(0.1 -0.1)">
       <use xlink:href="#DejaVuSans-30"/>
       <use x="63.623047" xlink:href="#DejaVuSans-2e"/>
       <use x="95.410156" xlink:href="#DejaVuSans-30"/>
      </g>
     </g>
    </g>
    <g id="xtick_2">
     <g id="line2d_2">
      <g>
       <use style="stroke:#000000;stroke-width:0.8;" x="203.951364" xlink:href="#m8435a485aa" y="695.2"/>
      </g>
     </g>
     <g id="text_2">
      <!-- 0.2 -->
      <defs>
       <path d="M 19.1875 8.296875 
L 53.609375 8.296875 
L 53.609375 0 
L 7.328125 0 
L 7.328125 8.296875 
Q 12.9375 14.109375 22.625 23.890625 
Q 32.328125 33.6875 34.8125 36.53125 
Q 39.546875 41.84375 41.421875 45.53125 
Q 43.3125 49.21875 43.3125 52.78125 
Q 43.3125 58.59375 39.234375 62.25 
Q 35.15625 65.921875 28.609375 65.921875 
Q 23.96875 65.921875 18.8125 64.3125 
Q 13.671875 62.703125 7.8125 59.421875 
L 7.8125 69.390625 
Q 13.765625 71.78125 18.9375 73 
Q 24.125 74.21875 28.421875 74.21875 
Q 39.75 74.21875 46.484375 68.546875 
Q 53.21875 62.890625 53.21875 53.421875 
Q 53.21875 48.921875 51.53125 44.890625 
Q 49.859375 40.875 45.40625 35.40625 
Q 44.1875 33.984375 37.640625 27.21875 
Q 31.109375 20.453125 19.1875 8.296875 
z
" id="DejaVuSans-32"/>
      </defs>
      <g transform="translate(195.999801 709.798437)scale(0.1 -0.1)">
       <use xlink:href="#DejaVuSans-30"/>
       <use x="63.623047" xlink:href="#DejaVuSans-2e"/>
       <use x="95.410156" xlink:href="#DejaVuSans-32"/>
      </g>
     </g>
    </g>
    <g id="xtick_3">
     <g id="line2d_3">
      <g>
       <use style="stroke:#000000;stroke-width:0.8;" x="322.240455" xlink:href="#m8435a485aa" y="695.2"/>
      </g>
     </g>
     <g id="text_3">
      <!-- 0.4 -->
      <defs>
       <path d="M 37.796875 64.3125 
L 12.890625 25.390625 
L 37.796875 25.390625 
z
M 35.203125 72.90625 
L 47.609375 72.90625 
L 47.609375 25.390625 
L 58.015625 25.390625 
L 58.015625 17.1875 
L 47.609375 17.1875 
L 47.609375 0 
L 37.796875 0 
L 37.796875 17.1875 
L 4.890625 17.1875 
L 4.890625 26.703125 
z
" id="DejaVuSans-34"/>
      </defs>
      <g transform="translate(314.288892 709.798437)scale(0.1 -0.1)">
       <use xlink:href="#DejaVuSans-30"/>
       <use x="63.623047" xlink:href="#DejaVuSans-2e"/>
       <use x="95.410156" xlink:href="#DejaVuSans-34"/>
      </g>
     </g>
    </g>
    <g id="xtick_4">
     <g id="line2d_4">
      <g>
       <use style="stroke:#000000;stroke-width:0.8;" x="440.529545" xlink:href="#m8435a485aa" y="695.2"/>
      </g>
     </g>
     <g id="text_4">
      <!-- 0.6 -->
      <defs>
       <path d="M 33.015625 40.375 
Q 26.375 40.375 22.484375 35.828125 
Q 18.609375 31.296875 18.609375 23.390625 
Q 18.609375 15.53125 22.484375 10.953125 
Q 26.375 6.390625 33.015625 6.390625 
Q 39.65625 6.390625 43.53125 10.953125 
Q 47.40625 15.53125 47.40625 23.390625 
Q 47.40625 31.296875 43.53125 35.828125 
Q 39.65625 40.375 33.015625 40.375 
z
M 52.59375 71.296875 
L 52.59375 62.3125 
Q 48.875 64.0625 45.09375 64.984375 
Q 41.3125 65.921875 37.59375 65.921875 
Q 27.828125 65.921875 22.671875 59.328125 
Q 17.53125 52.734375 16.796875 39.40625 
Q 19.671875 43.65625 24.015625 45.921875 
Q 28.375 48.1875 33.59375 48.1875 
Q 44.578125 48.1875 50.953125 41.515625 
Q 57.328125 34.859375 57.328125 23.390625 
Q 57.328125 12.15625 50.6875 5.359375 
Q 44.046875 -1.421875 33.015625 -1.421875 
Q 20.359375 -1.421875 13.671875 8.265625 
Q 6.984375 17.96875 6.984375 36.375 
Q 6.984375 53.65625 15.1875 63.9375 
Q 23.390625 74.21875 37.203125 74.21875 
Q 40.921875 74.21875 44.703125 73.484375 
Q 48.484375 72.75 52.59375 71.296875 
z
" id="DejaVuSans-36"/>
      </defs>
      <g transform="translate(432.577983 709.798437)scale(0.1 -0.1)">
       <use xlink:href="#DejaVuSans-30"/>
       <use x="63.623047" xlink:href="#DejaVuSans-2e"/>
       <use x="95.410156" xlink:href="#DejaVuSans-36"/>
      </g>
     </g>
    </g>
    <g id="xtick_5">
     <g id="line2d_5">
      <g>
       <use style="stroke:#000000;stroke-width:0.8;" x="558.818636" xlink:href="#m8435a485aa" y="695.2"/>
      </g>
     </g>
     <g id="text_5">
      <!-- 0.8 -->
      <defs>
       <path d="M 31.78125 34.625 
Q 24.75 34.625 20.71875 30.859375 
Q 16.703125 27.09375 16.703125 20.515625 
Q 16.703125 13.921875 20.71875 10.15625 
Q 24.75 6.390625 31.78125 6.390625 
Q 38.8125 6.390625 42.859375 10.171875 
Q 46.921875 13.96875 46.921875 20.515625 
Q 46.921875 27.09375 42.890625 30.859375 
Q 38.875 34.625 31.78125 34.625 
z
M 21.921875 38.8125 
Q 15.578125 40.375 12.03125 44.71875 
Q 8.5 49.078125 8.5 55.328125 
Q 8.5 64.0625 14.71875 69.140625 
Q 20.953125 74.21875 31.78125 74.21875 
Q 42.671875 74.21875 48.875 69.140625 
Q 55.078125 64.0625 55.078125 55.328125 
Q 55.078125 49.078125 51.53125 44.71875 
Q 48 40.375 41.703125 38.8125 
Q 48.828125 37.15625 52.796875 32.3125 
Q 56.78125 27.484375 56.78125 20.515625 
Q 56.78125 9.90625 50.3125 4.234375 
Q 43.84375 -1.421875 31.78125 -1.421875 
Q 19.734375 -1.421875 13.25 4.234375 
Q 6.78125 9.90625 6.78125 20.515625 
Q 6.78125 27.484375 10.78125 32.3125 
Q 14.796875 37.15625 21.921875 38.8125 
z
M 18.3125 54.390625 
Q 18.3125 48.734375 21.84375 45.5625 
Q 25.390625 42.390625 31.78125 42.390625 
Q 38.140625 42.390625 41.71875 45.5625 
Q 45.3125 48.734375 45.3125 54.390625 
Q 45.3125 60.0625 41.71875 63.234375 
Q 38.140625 66.40625 31.78125 66.40625 
Q 25.390625 66.40625 21.84375 63.234375 
Q 18.3125 60.0625 18.3125 54.390625 
z
" id="DejaVuSans-38"/>
      </defs>
      <g transform="translate(550.867074 709.798437)scale(0.1 -0.1)">
       <use xlink:href="#DejaVuSans-30"/>
       <use x="63.623047" xlink:href="#DejaVuSans-2e"/>
       <use x="95.410156" xlink:href="#DejaVuSans-38"/>
      </g>
     </g>
    </g>
    <g id="xtick_6">
     <g id="line2d_6">
      <g>
       <use style="stroke:#000000;stroke-width:0.8;" x="677.107727" xlink:href="#m8435a485aa" y="695.2"/>
      </g>
     </g>
     <g id="text_6">
      <!-- 1.0 -->
      <defs>
       <path d="M 12.40625 8.296875 
L 28.515625 8.296875 
L 28.515625 63.921875 
L 10.984375 60.40625 
L 10.984375 69.390625 
L 28.421875 72.90625 
L 38.28125 72.90625 
L 38.28125 8.296875 
L 54.390625 8.296875 
L 54.390625 0 
L 12.40625 0 
z
" id="DejaVuSans-31"/>
      </defs>
      <g transform="translate(669.156165 709.798437)scale(0.1 -0.1)">
       <use xlink:href="#DejaVuSans-31"/>
       <use x="63.623047" xlink:href="#DejaVuSans-2e"/>
       <use x="95.410156" xlink:href="#DejaVuSans-30"/>
      </g>
     </g>
    </g>
   </g>
   <g id="matplotlib.axis_2">
    <g id="ytick_1">
     <g id="line2d_7">
      <defs>
       <path d="M 0 0 
L -3.5 0 
" id="m36567cec93" style="stroke:#000000;stroke-width:0.8;"/>
      </defs>
      <g>
       <use style="stroke:#000000;stroke-width:0.8;" x="56.09" xlink:href="#m36567cec93" y="677.111217"/>
      </g>
     </g>
     <g id="text_7">
      <!-- 0.0 -->
      <g transform="translate(33.186875 680.910436)scale(0.1 -0.1)">
       <use xlink:href="#DejaVuSans-30"/>
       <use x="63.623047" xlink:href="#DejaVuSans-2e"/>
       <use x="95.410156" xlink:href="#DejaVuSans-30"/>
      </g>
     </g>
    </g>
    <g id="ytick_2">
     <g id="line2d_8">
      <g>
       <use style="stroke:#000000;stroke-width:0.8;" x="56.09" xlink:href="#m36567cec93" y="590.35821"/>
      </g>
     </g>
     <g id="text_8">
      <!-- 0.1 -->
      <g transform="translate(33.186875 594.157429)scale(0.1 -0.1)">
       <use xlink:href="#DejaVuSans-30"/>
       <use x="63.623047" xlink:href="#DejaVuSans-2e"/>
       <use x="95.410156" xlink:href="#DejaVuSans-31"/>
      </g>
     </g>
    </g>
    <g id="ytick_3">
     <g id="line2d_9">
      <g>
       <use style="stroke:#000000;stroke-width:0.8;" x="56.09" xlink:href="#m36567cec93" y="503.605203"/>
      </g>
     </g>
     <g id="text_9">
      <!-- 0.2 -->
      <g transform="translate(33.186875 507.404422)scale(0.1 -0.1)">
       <use xlink:href="#DejaVuSans-30"/>
       <use x="63.623047" xlink:href="#DejaVuSans-2e"/>
       <use x="95.410156" xlink:href="#DejaVuSans-32"/>
      </g>
     </g>
    </g>
    <g id="ytick_4">
     <g id="line2d_10">
      <g>
       <use style="stroke:#000000;stroke-width:0.8;" x="56.09" xlink:href="#m36567cec93" y="416.852196"/>
      </g>
     </g>
     <g id="text_10">
      <!-- 0.3 -->
      <defs>
       <path d="M 40.578125 39.3125 
Q 47.65625 37.796875 51.625 33 
Q 55.609375 28.21875 55.609375 21.1875 
Q 55.609375 10.40625 48.1875 4.484375 
Q 40.765625 -1.421875 27.09375 -1.421875 
Q 22.515625 -1.421875 17.65625 -0.515625 
Q 12.796875 0.390625 7.625 2.203125 
L 7.625 11.71875 
Q 11.71875 9.328125 16.59375 8.109375 
Q 21.484375 6.890625 26.8125 6.890625 
Q 36.078125 6.890625 40.9375 10.546875 
Q 45.796875 14.203125 45.796875 21.1875 
Q 45.796875 27.640625 41.28125 31.265625 
Q 36.765625 34.90625 28.71875 34.90625 
L 20.21875 34.90625 
L 20.21875 43.015625 
L 29.109375 43.015625 
Q 36.375 43.015625 40.234375 45.921875 
Q 44.09375 48.828125 44.09375 54.296875 
Q 44.09375 59.90625 40.109375 62.90625 
Q 36.140625 65.921875 28.71875 65.921875 
Q 24.65625 65.921875 20.015625 65.03125 
Q 15.375 64.15625 9.8125 62.3125 
L 9.8125 71.09375 
Q 15.4375 72.65625 20.34375 73.4375 
Q 25.25 74.21875 29.59375 74.21875 
Q 40.828125 74.21875 47.359375 69.109375 
Q 53.90625 64.015625 53.90625 55.328125 
Q 53.90625 49.265625 50.4375 45.09375 
Q 46.96875 40.921875 40.578125 39.3125 
z
" id="DejaVuSans-33"/>
      </defs>
      <g transform="translate(33.186875 420.651415)scale(0.1 -0.1)">
       <use xlink:href="#DejaVuSans-30"/>
       <use x="63.623047" xlink:href="#DejaVuSans-2e"/>
       <use x="95.410156" xlink:href="#DejaVuSans-33"/>
      </g>
     </g>
    </g>
    <g id="ytick_5">
     <g id="line2d_11">
      <g>
       <use style="stroke:#000000;stroke-width:0.8;" x="56.09" xlink:href="#m36567cec93" y="330.099189"/>
      </g>
     </g>
     <g id="text_11">
      <!-- 0.4 -->
      <g transform="translate(33.186875 333.898408)scale(0.1 -0.1)">
       <use xlink:href="#DejaVuSans-30"/>
       <use x="63.623047" xlink:href="#DejaVuSans-2e"/>
       <use x="95.410156" xlink:href="#DejaVuSans-34"/>
      </g>
     </g>
    </g>
    <g id="ytick_6">
     <g id="line2d_12">
      <g>
       <use style="stroke:#000000;stroke-width:0.8;" x="56.09" xlink:href="#m36567cec93" y="243.346182"/>
      </g>
     </g>
     <g id="text_12">
      <!-- 0.5 -->
      <defs>
       <path d="M 10.796875 72.90625 
L 49.515625 72.90625 
L 49.515625 64.59375 
L 19.828125 64.59375 
L 19.828125 46.734375 
Q 21.96875 47.46875 24.109375 47.828125 
Q 26.265625 48.1875 28.421875 48.1875 
Q 40.625 48.1875 47.75 41.5 
Q 54.890625 34.8125 54.890625 23.390625 
Q 54.890625 11.625 47.5625 5.09375 
Q 40.234375 -1.421875 26.90625 -1.421875 
Q 22.3125 -1.421875 17.546875 -0.640625 
Q 12.796875 0.140625 7.71875 1.703125 
L 7.71875 11.625 
Q 12.109375 9.234375 16.796875 8.0625 
Q 21.484375 6.890625 26.703125 6.890625 
Q 35.15625 6.890625 40.078125 11.328125 
Q 45.015625 15.765625 45.015625 23.390625 
Q 45.015625 31 40.078125 35.4375 
Q 35.15625 39.890625 26.703125 39.890625 
Q 22.75 39.890625 18.8125 39.015625 
Q 14.890625 38.140625 10.796875 36.28125 
z
" id="DejaVuSans-35"/>
      </defs>
      <g transform="translate(33.186875 247.145401)scale(0.1 -0.1)">
       <use xlink:href="#DejaVuSans-30"/>
       <use x="63.623047" xlink:href="#DejaVuSans-2e"/>
       <use x="95.410156" xlink:href="#DejaVuSans-35"/>
      </g>
     </g>
    </g>
    <g id="ytick_7">
     <g id="line2d_13">
      <g>
       <use style="stroke:#000000;stroke-width:0.8;" x="56.09" xlink:href="#m36567cec93" y="156.593175"/>
      </g>
     </g>
     <g id="text_13">
      <!-- 0.6 -->
      <g transform="translate(33.186875 160.392394)scale(0.1 -0.1)">
       <use xlink:href="#DejaVuSans-30"/>
       <use x="63.623047" xlink:href="#DejaVuSans-2e"/>
       <use x="95.410156" xlink:href="#DejaVuSans-36"/>
      </g>
     </g>
    </g>
   </g>
   <g id="line2d_14">
    <path clip-path="url(#p5ddc8ea103)" d="M 85.662273 248.918328 
L 88.664534 239.533387 
L 91.666795 256.543917 
L 94.669056 258.303268 
L 97.671317 297.603248 
L 100.673579 332.210757 
L 103.67584 359.192677 
L 106.678101 353.327307 
L 109.680362 340.422797 
L 112.682623 355.086658 
L 115.684885 366.231816 
L 118.687146 389.694167 
L 121.689407 400.252008 
L 124.691668 437.206187 
L 127.693929 477.092617 
L 133.698452 525.777537 
L 136.700713 540.441397 
L 139.702974 578.568477 
L 142.705235 595.578659 
L 145.707497 600.857753 
L 148.709758 607.309921 
L 151.712019 602.617451 
L 154.71428 600.857753 
L 157.716541 600.857753 
L 160.718802 610.24278 
L 163.721064 626.666599 
L 166.723325 631.359156 
L 169.725586 634.291928 
L 172.727847 643.090418 
L 175.730108 643.090418 
L 178.73237 646.023277 
L 181.734631 638.984485 
L 184.736892 635.465089 
L 187.739153 640.744183 
L 190.741414 640.157646 
L 193.743676 643.676955 
L 196.745937 644.263579 
L 199.748198 647.782975 
L 202.750459 643.090418 
L 205.75272 636.051626 
L 208.754982 626.666599 
L 211.757243 613.762176 
L 214.759504 580.327828 
L 217.761765 539.854947 
L 220.764026 505.833888 
L 223.766287 474.159497 
L 226.768549 427.821246 
L 229.77081 383.828796 
L 232.773071 345.701717 
L 235.775332 313.440877 
L 238.777593 288.218307 
L 241.779855 260.649937 
L 244.782116 247.158977 
L 247.784377 235.427367 
L 250.786638 224.869526 
L 256.791161 192.608686 
L 259.793422 181.463527 
L 262.795683 170.905686 
L 265.797944 176.771057 
L 268.800205 167.972567 
L 271.802467 171.492136 
L 274.804728 192.608686 
L 277.806989 211.378566 
L 280.80925 233.668016 
L 283.811511 234.840917 
L 286.813772 258.890586 
L 289.816034 294.670996 
L 292.818295 300.536367 
L 295.820556 304.642387 
L 298.822817 321.066466 
L 301.825078 335.730327 
L 304.82734 369.164068 
L 310.831862 403.771578 
L 313.834123 424.888127 
L 316.836384 433.100167 
L 319.838646 454.216716 
L 322.840907 470.053478 
L 325.843168 489.410676 
L 328.845429 500.554967 
L 331.84769 521.085067 
L 334.849952 526.363987 
L 340.854474 522.844417 
L 343.856735 526.950437 
L 346.858996 526.363987 
L 349.861257 515.218828 
L 355.86578 548.653437 
L 358.868041 558.038377 
L 361.870302 563.317298 
L 364.872563 588.539867 
L 367.874825 605.550223 
L 370.877086 610.24278 
L 373.879347 613.175639 
L 376.881608 610.829317 
L 379.883869 615.521874 
L 382.886131 614.935337 
L 385.888392 619.04127 
L 388.890653 629.012834 
L 394.895175 645.436653 
L 397.897437 651.302371 
L 400.899698 658.341163 
L 403.901959 660.687398 
L 406.90422 658.9277 
L 409.906481 655.994841 
L 412.908743 660.687398 
L 415.911004 661.273935 
L 418.913265 654.235143 
L 421.915526 647.782975 
L 424.917787 641.917257 
L 427.920048 630.772532 
L 430.92231 614.935337 
L 433.924571 592.059263 
L 436.926832 577.982026 
L 439.929093 545.133868 
L 442.931354 521.085067 
L 445.933616 503.488087 
L 448.935877 480.612186 
L 451.938138 455.976067 
L 454.940399 436.033286 
L 457.94266 433.100167 
L 460.944922 404.945346 
L 463.947183 381.482128 
L 466.949444 376.203207 
L 469.951705 363.298697 
L 472.953966 345.115267 
L 475.956228 305.228837 
L 478.958489 322.825817 
L 481.96075 328.104737 
L 484.963011 316.373128 
L 487.965272 300.536367 
L 490.967533 317.546896 
L 493.969795 363.298697 
L 496.972056 327.518287 
L 499.974317 311.094208 
L 502.976578 324.585168 
L 505.978839 354.500207 
L 508.981101 327.518287 
L 511.983362 308.748406 
L 514.985623 349.807737 
L 517.987884 382.068578 
L 520.990145 380.309227 
L 523.992407 374.443856 
L 526.994668 372.683638 
L 529.996929 390.280618 
L 532.99919 380.895677 
L 536.001451 365.645366 
L 539.003713 380.309227 
L 542.005974 404.945346 
L 545.008235 438.379087 
L 548.010496 423.128776 
L 551.012757 438.379087 
L 554.015018 469.467027 
L 557.01728 484.718206 
L 560.019541 500.554967 
L 563.021802 514.632378 
L 566.024063 556.279026 
L 569.026324 585.020298 
L 572.028586 594.992035 
L 575.030847 602.030827 
L 578.033108 611.415941 
L 581.035369 633.118854 
L 584.03763 643.090418 
L 587.039892 647.196351 
L 590.042153 653.648606 
L 593.044414 658.9277 
L 596.046675 659.514237 
L 599.048936 657.168002 
L 602.051198 657.168002 
L 605.053459 654.235143 
L 608.05572 656.581465 
L 611.057981 660.687398 
L 614.060242 662.447096 
L 617.062503 666.553029 
L 620.064765 668.312727 
L 623.067026 668.312727 
L 626.069287 663.033633 
L 629.071548 654.235143 
L 632.073809 647.782975 
L 635.076071 638.984485 
L 638.078332 625.493438 
L 641.080593 601.44429 
L 647.085115 534.576027 
L 650.087377 472.986597 
L 653.089638 428.994147 
L 656.091899 402.012227 
L 659.09416 385.001697 
L 662.096421 360.952896 
L 665.098683 333.383658 
L 668.100944 350.980638 
L 671.103205 362.125797 
L 674.105466 346.874618 
L 677.107727 323.998718 
L 677.107727 323.998718 
" style="fill:none;stroke:#1f77b4;stroke-linecap:square;stroke-width:1.5;"/>
   </g>
   <g id="line2d_15">
    <path clip-path="url(#p5ddc8ea103)" d="M 85.662273 303.602362 
L 88.664534 289.386696 
L 91.666795 282.269844 
L 94.669056 285.449532 
L 97.671317 287.646498 
L 100.673579 298.394555 
L 103.67584 314.056447 
L 106.678101 327.47662 
L 109.680362 331.888705 
L 112.682623 326.14022 
L 115.684885 328.02061 
L 118.687146 333.15832 
L 124.691668 348.864279 
L 127.693929 358.197048 
L 130.696191 374.694733 
L 133.698452 386.101857 
L 136.700713 395.255618 
L 139.702974 401.155028 
L 145.707497 418.52047 
L 148.709758 421.214962 
L 151.712019 422.755259 
L 154.71428 423.205407 
L 157.716541 421.788178 
L 160.718802 421.708949 
L 163.721064 422.999341 
L 166.723325 426.51547 
L 169.725586 429.597091 
L 172.727847 430.078976 
L 175.730108 431.67213 
L 178.73237 432.697435 
L 181.734631 433.097921 
L 184.736892 432.783058 
L 187.739153 431.054048 
L 193.743676 431.857646 
L 196.745937 432.428465 
L 202.750459 433.369402 
L 205.75272 433.506056 
L 208.754982 431.685602 
L 211.757243 430.207524 
L 214.759504 427.166888 
L 217.761765 421.375248 
L 226.768549 385.856976 
L 229.77081 370.90073 
L 232.773071 351.689146 
L 235.775332 333.628104 
L 238.777593 319.042205 
L 241.779855 305.349066 
L 244.782116 294.878884 
L 247.784377 285.668269 
L 250.786638 281.642628 
L 253.788899 276.947874 
L 256.791161 271.744977 
L 259.793422 264.742631 
L 265.797944 256.245768 
L 271.802467 255.21898 
L 274.804728 253.467138 
L 277.806989 260.172658 
L 280.80925 266.088393 
L 283.811511 275.082896 
L 286.813772 279.015151 
L 289.816034 284.412697 
L 292.818295 298.220227 
L 295.820556 305.430922 
L 298.822817 307.91501 
L 301.825078 312.273552 
L 304.82734 318.860685 
L 307.829601 330.853697 
L 310.831862 340.598712 
L 316.836384 356.961911 
L 319.838646 362.409347 
L 325.843168 375.513515 
L 328.845429 383.153351 
L 331.84769 388.012387 
L 334.849952 394.094687 
L 337.852213 398.611688 
L 343.856735 398.510882 
L 346.858996 398.637489 
L 349.861257 399.514952 
L 352.863519 396.359467 
L 355.86578 398.214513 
L 358.868041 404.203998 
L 361.870302 407.979392 
L 364.872563 409.635108 
L 367.874825 414.788801 
L 370.877086 421.051708 
L 373.879347 423.874064 
L 376.881608 424.882586 
L 379.883869 424.710199 
L 382.886131 425.367211 
L 385.888392 425.647711 
L 388.890653 426.145465 
L 391.892914 428.025741 
L 397.897437 432.326631 
L 400.899698 434.029725 
L 403.901959 435.477664 
L 406.90422 436.63711 
L 409.906481 436.591445 
L 412.908743 436.080676 
L 415.911004 436.288226 
L 418.913265 437.005517 
L 421.915526 436.367798 
L 424.917787 434.609106 
L 427.920048 433.338121 
L 430.92231 431.345166 
L 433.924571 427.863515 
L 439.929093 417.629651 
L 442.931354 410.645229 
L 445.933616 400.743924 
L 448.935877 394.487068 
L 451.938138 386.96619 
L 457.94266 368.772718 
L 460.944922 364.539414 
L 463.947183 358.443642 
L 466.949444 345.848073 
L 469.951705 341.224671 
L 472.953966 336.895469 
L 475.956228 330.29635 
L 478.958489 315.880669 
L 481.96075 312.204712 
L 484.963011 318.845387 
L 487.965272 315.738649 
L 490.967533 309.283719 
L 493.969795 310.145198 
L 496.972056 326.902491 
L 499.974317 326.569133 
L 502.976578 313.094732 
L 505.978839 314.211253 
L 508.981101 325.261273 
L 511.983362 324.599238 
L 514.985623 312.729522 
L 517.987884 319.664397 
L 520.990145 337.524397 
L 523.992407 342.05487 
L 526.994668 340.824413 
L 529.996929 337.645068 
L 532.99919 343.255416 
L 536.001451 344.059356 
L 539.003713 337.693131 
L 542.005974 338.854062 
L 545.008235 347.128534 
L 548.010496 361.577093 
L 551.012757 362.49086 
L 554.015018 362.880158 
L 557.01728 372.800642 
L 560.019541 381.824942 
L 566.024063 392.611129 
L 569.026324 401.916271 
L 572.028586 413.592023 
L 575.030847 419.374643 
L 578.033108 420.94291 
L 581.035369 423.424601 
L 584.03763 427.34955 
L 587.039892 431.667221 
L 593.044414 434.455556 
L 596.046675 436.012635 
L 599.048936 436.456047 
L 602.051198 436.341997 
L 605.053459 436.105564 
L 608.05572 435.726084 
L 611.057981 435.587489 
L 617.062503 437.107122 
L 623.067026 438.340661 
L 626.069287 438.620134 
L 629.071548 438.250129 
L 632.073809 436.428305 
L 635.076071 434.786517 
L 638.078332 432.786825 
L 641.080593 430.396237 
L 644.082854 425.793612 
L 647.085115 417.312961 
L 650.087377 407.745014 
L 653.089638 390.647171 
L 656.091899 370.248969 
L 659.09416 355.719011 
L 662.096421 347.207307 
L 665.098683 338.313382 
L 668.100944 326.004365 
L 671.103205 324.901315 
L 674.105466 332.152652 
L 677.107727 330.3693 
L 677.107727 330.3693 
" style="fill:none;stroke:#ff7f0e;stroke-linecap:square;stroke-width:1.5;"/>
   </g>
   <g id="line2d_16">
    <path clip-path="url(#p5ddc8ea103)" d="M 85.662273 373.475693 
L 88.664534 373.475693 
L 91.666795 364.800392 
L 100.673579 364.800392 
L 103.67584 373.475693 
L 106.678101 373.475693 
L 109.680362 382.150993 
L 112.682623 373.475693 
L 115.684885 373.475693 
L 118.687146 382.150993 
L 124.691668 416.852196 
L 130.696191 486.254602 
L 136.700713 538.306406 
L 139.702974 546.981707 
L 145.707497 581.682909 
L 148.709758 581.682909 
L 151.712019 590.35821 
L 154.71428 590.35821 
L 157.716541 581.682909 
L 160.718802 590.35821 
L 163.721064 590.35821 
L 166.723325 599.033511 
L 172.727847 599.033511 
L 175.730108 607.708812 
L 184.736892 607.708812 
L 187.739153 599.033511 
L 190.741414 599.033511 
L 193.743676 607.708812 
L 205.75272 607.708812 
L 208.754982 599.033511 
L 211.757243 599.033511 
L 217.761765 581.682909 
L 226.768549 503.605203 
L 229.77081 468.904 
L 232.773071 416.852196 
L 235.775332 382.150993 
L 238.777593 373.475693 
L 244.782116 373.475693 
L 247.784377 364.800392 
L 289.816034 364.800392 
L 292.818295 373.475693 
L 304.82734 373.475693 
L 307.829601 382.150993 
L 310.831862 399.501595 
L 313.834123 425.527497 
L 316.836384 442.878098 
L 319.838646 451.553399 
L 331.84769 520.955805 
L 337.852213 538.306406 
L 355.86578 538.306406 
L 358.868041 555.657007 
L 361.870302 555.657007 
L 367.874825 573.007609 
L 370.877086 590.35821 
L 388.890653 590.35821 
L 391.892914 599.033511 
L 394.895175 599.033511 
L 397.897437 607.708812 
L 427.920048 607.708812 
L 439.929093 573.007609 
L 445.933616 538.306406 
L 448.935877 529.631105 
L 451.938138 512.280504 
L 454.940399 486.254602 
L 463.947183 434.202797 
L 466.949444 408.176895 
L 478.958489 373.475693 
L 496.972056 373.475693 
L 499.974317 382.150993 
L 502.976578 373.475693 
L 517.987884 373.475693 
L 520.990145 390.826294 
L 523.992407 399.501595 
L 526.994668 399.501595 
L 529.996929 390.826294 
L 532.99919 408.176895 
L 539.003713 390.826294 
L 542.005974 399.501595 
L 545.008235 416.852196 
L 548.010496 451.553399 
L 551.012757 451.553399 
L 554.015018 460.2287 
L 557.01728 486.254602 
L 560.019541 503.605203 
L 563.021802 512.280504 
L 566.024063 529.631105 
L 569.026324 555.657007 
L 572.028586 573.007609 
L 575.030847 581.682909 
L 578.033108 581.682909 
L 587.039892 607.708812 
L 617.062503 607.708812 
L 620.064765 616.384112 
L 629.071548 616.384112 
L 632.073809 607.708812 
L 638.078332 607.708812 
L 644.082854 590.35821 
L 650.087377 555.657007 
L 656.091899 468.904 
L 659.09416 434.202797 
L 662.096421 408.176895 
L 668.100944 373.475693 
L 671.103205 373.475693 
L 674.105466 382.150993 
L 677.107727 382.150993 
L 677.107727 382.150993 
" style="fill:none;stroke:#2ca02c;stroke-linecap:square;stroke-width:1.5;"/>
   </g>
   <g id="line2d_17">
    <path clip-path="url(#p5ddc8ea103)" d="M 85.662273 252.021483 
L 88.664534 217.32028 
L 91.666795 208.644979 
L 97.671317 225.995581 
L 103.67584 260.696783 
L 106.678101 269.372084 
L 127.693929 269.372084 
L 130.696191 278.047385 
L 232.773071 278.047385 
L 235.775332 269.372084 
L 238.777593 269.372084 
L 250.786638 199.969678 
L 253.788899 191.294378 
L 259.793422 156.593175 
L 265.797944 139.242573 
L 268.800205 139.242573 
L 271.802467 130.567273 
L 274.804728 130.567273 
L 280.80925 165.268476 
L 283.811511 191.294378 
L 286.813772 199.969678 
L 289.816034 217.32028 
L 292.818295 243.346182 
L 295.820556 252.021483 
L 298.822817 252.021483 
L 301.825078 260.696783 
L 304.82734 260.696783 
L 307.829601 269.372084 
L 313.834123 269.372084 
L 316.836384 278.047385 
L 466.949444 278.047385 
L 469.951705 269.372084 
L 475.956228 269.372084 
L 478.958489 260.696783 
L 481.96075 260.696783 
L 484.963011 269.372084 
L 487.965272 260.696783 
L 490.967533 260.696783 
L 493.969795 252.021483 
L 496.972056 269.372084 
L 499.974317 269.372084 
L 502.976578 260.696783 
L 505.978839 260.696783 
L 508.981101 269.372084 
L 511.983362 269.372084 
L 514.985623 260.696783 
L 517.987884 260.696783 
L 520.990145 269.372084 
L 523.992407 269.372084 
L 526.994668 278.047385 
L 529.996929 269.372084 
L 532.99919 269.372084 
L 536.001451 278.047385 
L 539.003713 269.372084 
L 545.008235 269.372084 
L 548.010496 278.047385 
L 647.085115 278.047385 
L 650.087377 286.722685 
L 653.089638 286.722685 
L 656.091899 278.047385 
L 665.098683 278.047385 
L 668.100944 269.372084 
L 677.107727 269.372084 
L 677.107727 269.372084 
" style="fill:none;stroke:#d62728;stroke-linecap:square;stroke-width:1.5;"/>
   </g>
   <g id="patch_3">
    <path d="M 56.09 695.2 
L 56.09 103.68 
" style="fill:none;stroke:#000000;stroke-linecap:square;stroke-linejoin:miter;stroke-width:0.8;"/>
   </g>
   <g id="patch_4">
    <path d="M 706.68 695.2 
L 706.68 103.68 
" style="fill:none;stroke:#000000;stroke-linecap:square;stroke-linejoin:miter;stroke-width:0.8;"/>
   </g>
   <g id="patch_5">
    <path d="M 56.09 695.2 
L 706.68 695.2 
" style="fill:none;stroke:#000000;stroke-linecap:square;stroke-linejoin:miter;stroke-width:0.8;"/>
   </g>
   <g id="patch_6">
    <path d="M 56.09 103.68 
L 706.68 103.68 
" style="fill:none;stroke:#000000;stroke-linecap:square;stroke-linejoin:miter;stroke-width:0.8;"/>
   </g>
   <g id="text_14">
    <!-- Plot of Test Data vs MCMC Uncertainty  -->
    <defs>
     <path d="M 19.671875 64.796875 
L 19.671875 37.40625 
L 32.078125 37.40625 
Q 38.96875 37.40625 42.71875 40.96875 
Q 46.484375 44.53125 46.484375 51.125 
Q 46.484375 57.671875 42.71875 61.234375 
Q 38.96875 64.796875 32.078125 64.796875 
z
M 9.8125 72.90625 
L 32.078125 72.90625 
Q 44.34375 72.90625 50.609375 67.359375 
Q 56.890625 61.8125 56.890625 51.125 
Q 56.890625 40.328125 50.609375 34.8125 
Q 44.34375 29.296875 32.078125 29.296875 
L 19.671875 29.296875 
L 19.671875 0 
L 9.8125 0 
z
" id="DejaVuSans-50"/>
     <path d="M 9.421875 75.984375 
L 18.40625 75.984375 
L 18.40625 0 
L 9.421875 0 
z
" id="DejaVuSans-6c"/>
     <path d="M 30.609375 48.390625 
Q 23.390625 48.390625 19.1875 42.75 
Q 14.984375 37.109375 14.984375 27.296875 
Q 14.984375 17.484375 19.15625 11.84375 
Q 23.34375 6.203125 30.609375 6.203125 
Q 37.796875 6.203125 41.984375 11.859375 
Q 46.1875 17.53125 46.1875 27.296875 
Q 46.1875 37.015625 41.984375 42.703125 
Q 37.796875 48.390625 30.609375 48.390625 
z
M 30.609375 56 
Q 42.328125 56 49.015625 48.375 
Q 55.71875 40.765625 55.71875 27.296875 
Q 55.71875 13.875 49.015625 6.21875 
Q 42.328125 -1.421875 30.609375 -1.421875 
Q 18.84375 -1.421875 12.171875 6.21875 
Q 5.515625 13.875 5.515625 27.296875 
Q 5.515625 40.765625 12.171875 48.375 
Q 18.84375 56 30.609375 56 
z
" id="DejaVuSans-6f"/>
     <path d="M 18.3125 70.21875 
L 18.3125 54.6875 
L 36.8125 54.6875 
L 36.8125 47.703125 
L 18.3125 47.703125 
L 18.3125 18.015625 
Q 18.3125 11.328125 20.140625 9.421875 
Q 21.96875 7.515625 27.59375 7.515625 
L 36.8125 7.515625 
L 36.8125 0 
L 27.59375 0 
Q 17.1875 0 13.234375 3.875 
Q 9.28125 7.765625 9.28125 18.015625 
L 9.28125 47.703125 
L 2.6875 47.703125 
L 2.6875 54.6875 
L 9.28125 54.6875 
L 9.28125 70.21875 
z
" id="DejaVuSans-74"/>
     <path id="DejaVuSans-20"/>
     <path d="M 37.109375 75.984375 
L 37.109375 68.5 
L 28.515625 68.5 
Q 23.6875 68.5 21.796875 66.546875 
Q 19.921875 64.59375 19.921875 59.515625 
L 19.921875 54.6875 
L 34.71875 54.6875 
L 34.71875 47.703125 
L 19.921875 47.703125 
L 19.921875 0 
L 10.890625 0 
L 10.890625 47.703125 
L 2.296875 47.703125 
L 2.296875 54.6875 
L 10.890625 54.6875 
L 10.890625 58.5 
Q 10.890625 67.625 15.140625 71.796875 
Q 19.390625 75.984375 28.609375 75.984375 
z
" id="DejaVuSans-66"/>
     <path d="M -0.296875 72.90625 
L 61.375 72.90625 
L 61.375 64.59375 
L 35.5 64.59375 
L 35.5 0 
L 25.59375 0 
L 25.59375 64.59375 
L -0.296875 64.59375 
z
" id="DejaVuSans-54"/>
     <path d="M 56.203125 29.59375 
L 56.203125 25.203125 
L 14.890625 25.203125 
Q 15.484375 15.921875 20.484375 11.0625 
Q 25.484375 6.203125 34.421875 6.203125 
Q 39.59375 6.203125 44.453125 7.46875 
Q 49.3125 8.734375 54.109375 11.28125 
L 54.109375 2.78125 
Q 49.265625 0.734375 44.1875 -0.34375 
Q 39.109375 -1.421875 33.890625 -1.421875 
Q 20.796875 -1.421875 13.15625 6.1875 
Q 5.515625 13.8125 5.515625 26.8125 
Q 5.515625 40.234375 12.765625 48.109375 
Q 20.015625 56 32.328125 56 
Q 43.359375 56 49.78125 48.890625 
Q 56.203125 41.796875 56.203125 29.59375 
z
M 47.21875 32.234375 
Q 47.125 39.59375 43.09375 43.984375 
Q 39.0625 48.390625 32.421875 48.390625 
Q 24.90625 48.390625 20.390625 44.140625 
Q 15.875 39.890625 15.1875 32.171875 
z
" id="DejaVuSans-65"/>
     <path d="M 44.28125 53.078125 
L 44.28125 44.578125 
Q 40.484375 46.53125 36.375 47.5 
Q 32.28125 48.484375 27.875 48.484375 
Q 21.1875 48.484375 17.84375 46.4375 
Q 14.5 44.390625 14.5 40.28125 
Q 14.5 37.15625 16.890625 35.375 
Q 19.28125 33.59375 26.515625 31.984375 
L 29.59375 31.296875 
Q 39.15625 29.25 43.1875 25.515625 
Q 47.21875 21.78125 47.21875 15.09375 
Q 47.21875 7.46875 41.1875 3.015625 
Q 35.15625 -1.421875 24.609375 -1.421875 
Q 20.21875 -1.421875 15.453125 -0.5625 
Q 10.6875 0.296875 5.421875 2 
L 5.421875 11.28125 
Q 10.40625 8.6875 15.234375 7.390625 
Q 20.0625 6.109375 24.8125 6.109375 
Q 31.15625 6.109375 34.5625 8.28125 
Q 37.984375 10.453125 37.984375 14.40625 
Q 37.984375 18.0625 35.515625 20.015625 
Q 33.0625 21.96875 24.703125 23.78125 
L 21.578125 24.515625 
Q 13.234375 26.265625 9.515625 29.90625 
Q 5.8125 33.546875 5.8125 39.890625 
Q 5.8125 47.609375 11.28125 51.796875 
Q 16.75 56 26.8125 56 
Q 31.78125 56 36.171875 55.265625 
Q 40.578125 54.546875 44.28125 53.078125 
z
" id="DejaVuSans-73"/>
     <path d="M 19.671875 64.796875 
L 19.671875 8.109375 
L 31.59375 8.109375 
Q 46.6875 8.109375 53.6875 14.9375 
Q 60.6875 21.78125 60.6875 36.53125 
Q 60.6875 51.171875 53.6875 57.984375 
Q 46.6875 64.796875 31.59375 64.796875 
z
M 9.8125 72.90625 
L 30.078125 72.90625 
Q 51.265625 72.90625 61.171875 64.09375 
Q 71.09375 55.28125 71.09375 36.53125 
Q 71.09375 17.671875 61.125 8.828125 
Q 51.171875 0 30.078125 0 
L 9.8125 0 
z
" id="DejaVuSans-44"/>
     <path d="M 34.28125 27.484375 
Q 23.390625 27.484375 19.1875 25 
Q 14.984375 22.515625 14.984375 16.5 
Q 14.984375 11.71875 18.140625 8.90625 
Q 21.296875 6.109375 26.703125 6.109375 
Q 34.1875 6.109375 38.703125 11.40625 
Q 43.21875 16.703125 43.21875 25.484375 
L 43.21875 27.484375 
z
M 52.203125 31.203125 
L 52.203125 0 
L 43.21875 0 
L 43.21875 8.296875 
Q 40.140625 3.328125 35.546875 0.953125 
Q 30.953125 -1.421875 24.3125 -1.421875 
Q 15.921875 -1.421875 10.953125 3.296875 
Q 6 8.015625 6 15.921875 
Q 6 25.140625 12.171875 29.828125 
Q 18.359375 34.515625 30.609375 34.515625 
L 43.21875 34.515625 
L 43.21875 35.40625 
Q 43.21875 41.609375 39.140625 45 
Q 35.0625 48.390625 27.6875 48.390625 
Q 23 48.390625 18.546875 47.265625 
Q 14.109375 46.140625 10.015625 43.890625 
L 10.015625 52.203125 
Q 14.9375 54.109375 19.578125 55.046875 
Q 24.21875 56 28.609375 56 
Q 40.484375 56 46.34375 49.84375 
Q 52.203125 43.703125 52.203125 31.203125 
z
" id="DejaVuSans-61"/>
     <path d="M 2.984375 54.6875 
L 12.5 54.6875 
L 29.59375 8.796875 
L 46.6875 54.6875 
L 56.203125 54.6875 
L 35.6875 0 
L 23.484375 0 
z
" id="DejaVuSans-76"/>
     <path d="M 9.8125 72.90625 
L 24.515625 72.90625 
L 43.109375 23.296875 
L 61.8125 72.90625 
L 76.515625 72.90625 
L 76.515625 0 
L 66.890625 0 
L 66.890625 64.015625 
L 48.09375 14.015625 
L 38.1875 14.015625 
L 19.390625 64.015625 
L 19.390625 0 
L 9.8125 0 
z
" id="DejaVuSans-4d"/>
     <path d="M 64.40625 67.28125 
L 64.40625 56.890625 
Q 59.421875 61.53125 53.78125 63.8125 
Q 48.140625 66.109375 41.796875 66.109375 
Q 29.296875 66.109375 22.65625 58.46875 
Q 16.015625 50.828125 16.015625 36.375 
Q 16.015625 21.96875 22.65625 14.328125 
Q 29.296875 6.6875 41.796875 6.6875 
Q 48.140625 6.6875 53.78125 8.984375 
Q 59.421875 11.28125 64.40625 15.921875 
L 64.40625 5.609375 
Q 59.234375 2.09375 53.4375 0.328125 
Q 47.65625 -1.421875 41.21875 -1.421875 
Q 24.65625 -1.421875 15.125 8.703125 
Q 5.609375 18.84375 5.609375 36.375 
Q 5.609375 53.953125 15.125 64.078125 
Q 24.65625 74.21875 41.21875 74.21875 
Q 47.75 74.21875 53.53125 72.484375 
Q 59.328125 70.75 64.40625 67.28125 
z
" id="DejaVuSans-43"/>
     <path d="M 8.6875 72.90625 
L 18.609375 72.90625 
L 18.609375 28.609375 
Q 18.609375 16.890625 22.84375 11.734375 
Q 27.09375 6.59375 36.625 6.59375 
Q 46.09375 6.59375 50.34375 11.734375 
Q 54.59375 16.890625 54.59375 28.609375 
L 54.59375 72.90625 
L 64.5 72.90625 
L 64.5 27.390625 
Q 64.5 13.140625 57.4375 5.859375 
Q 50.390625 -1.421875 36.625 -1.421875 
Q 22.796875 -1.421875 15.734375 5.859375 
Q 8.6875 13.140625 8.6875 27.390625 
z
" id="DejaVuSans-55"/>
     <path d="M 54.890625 33.015625 
L 54.890625 0 
L 45.90625 0 
L 45.90625 32.71875 
Q 45.90625 40.484375 42.875 44.328125 
Q 39.84375 48.1875 33.796875 48.1875 
Q 26.515625 48.1875 22.3125 43.546875 
Q 18.109375 38.921875 18.109375 30.90625 
L 18.109375 0 
L 9.078125 0 
L 9.078125 54.6875 
L 18.109375 54.6875 
L 18.109375 46.1875 
Q 21.34375 51.125 25.703125 53.5625 
Q 30.078125 56 35.796875 56 
Q 45.21875 56 50.046875 50.171875 
Q 54.890625 44.34375 54.890625 33.015625 
z
" id="DejaVuSans-6e"/>
     <path d="M 48.78125 52.59375 
L 48.78125 44.1875 
Q 44.96875 46.296875 41.140625 47.34375 
Q 37.3125 48.390625 33.40625 48.390625 
Q 24.65625 48.390625 19.8125 42.84375 
Q 14.984375 37.3125 14.984375 27.296875 
Q 14.984375 17.28125 19.8125 11.734375 
Q 24.65625 6.203125 33.40625 6.203125 
Q 37.3125 6.203125 41.140625 7.25 
Q 44.96875 8.296875 48.78125 10.40625 
L 48.78125 2.09375 
Q 45.015625 0.34375 40.984375 -0.53125 
Q 36.96875 -1.421875 32.421875 -1.421875 
Q 20.0625 -1.421875 12.78125 6.34375 
Q 5.515625 14.109375 5.515625 27.296875 
Q 5.515625 40.671875 12.859375 48.328125 
Q 20.21875 56 33.015625 56 
Q 37.15625 56 41.109375 55.140625 
Q 45.0625 54.296875 48.78125 52.59375 
z
" id="DejaVuSans-63"/>
     <path d="M 41.109375 46.296875 
Q 39.59375 47.171875 37.8125 47.578125 
Q 36.03125 48 33.890625 48 
Q 26.265625 48 22.1875 43.046875 
Q 18.109375 38.09375 18.109375 28.8125 
L 18.109375 0 
L 9.078125 0 
L 9.078125 54.6875 
L 18.109375 54.6875 
L 18.109375 46.1875 
Q 20.953125 51.171875 25.484375 53.578125 
Q 30.03125 56 36.53125 56 
Q 37.453125 56 38.578125 55.875 
Q 39.703125 55.765625 41.0625 55.515625 
z
" id="DejaVuSans-72"/>
     <path d="M 9.421875 54.6875 
L 18.40625 54.6875 
L 18.40625 0 
L 9.421875 0 
z
M 9.421875 75.984375 
L 18.40625 75.984375 
L 18.40625 64.59375 
L 9.421875 64.59375 
z
" id="DejaVuSans-69"/>
     <path d="M 32.171875 -5.078125 
Q 28.375 -14.84375 24.75 -17.8125 
Q 21.140625 -20.796875 15.09375 -20.796875 
L 7.90625 -20.796875 
L 7.90625 -13.28125 
L 13.1875 -13.28125 
Q 16.890625 -13.28125 18.9375 -11.515625 
Q 21 -9.765625 23.484375 -3.21875 
L 25.09375 0.875 
L 2.984375 54.6875 
L 12.5 54.6875 
L 29.59375 11.921875 
L 46.6875 54.6875 
L 56.203125 54.6875 
z
" id="DejaVuSans-79"/>
    </defs>
    <g transform="translate(263.337812 97.68)scale(0.12 -0.12)">
     <use xlink:href="#DejaVuSans-50"/>
     <use x="60.302734" xlink:href="#DejaVuSans-6c"/>
     <use x="88.085938" xlink:href="#DejaVuSans-6f"/>
     <use x="149.267578" xlink:href="#DejaVuSans-74"/>
     <use x="188.476562" xlink:href="#DejaVuSans-20"/>
     <use x="220.263672" xlink:href="#DejaVuSans-6f"/>
     <use x="281.445312" xlink:href="#DejaVuSans-66"/>
     <use x="316.650391" xlink:href="#DejaVuSans-20"/>
     <use x="348.4375" xlink:href="#DejaVuSans-54"/>
     <use x="409.255859" xlink:href="#DejaVuSans-65"/>
     <use x="470.779297" xlink:href="#DejaVuSans-73"/>
     <use x="522.878906" xlink:href="#DejaVuSans-74"/>
     <use x="562.087891" xlink:href="#DejaVuSans-20"/>
     <use x="593.875" xlink:href="#DejaVuSans-44"/>
     <use x="670.876953" xlink:href="#DejaVuSans-61"/>
     <use x="732.15625" xlink:href="#DejaVuSans-74"/>
     <use x="771.365234" xlink:href="#DejaVuSans-61"/>
     <use x="832.644531" xlink:href="#DejaVuSans-20"/>
     <use x="864.431641" xlink:href="#DejaVuSans-76"/>
     <use x="923.611328" xlink:href="#DejaVuSans-73"/>
     <use x="975.710938" xlink:href="#DejaVuSans-20"/>
     <use x="1007.498047" xlink:href="#DejaVuSans-4d"/>
     <use x="1093.777344" xlink:href="#DejaVuSans-43"/>
     <use x="1163.601562" xlink:href="#DejaVuSans-4d"/>
     <use x="1249.880859" xlink:href="#DejaVuSans-43"/>
     <use x="1319.705078" xlink:href="#DejaVuSans-20"/>
     <use x="1351.492188" xlink:href="#DejaVuSans-55"/>
     <use x="1424.685547" xlink:href="#DejaVuSans-6e"/>
     <use x="1488.064453" xlink:href="#DejaVuSans-63"/>
     <use x="1543.044922" xlink:href="#DejaVuSans-65"/>
     <use x="1604.568359" xlink:href="#DejaVuSans-72"/>
     <use x="1645.681641" xlink:href="#DejaVuSans-74"/>
     <use x="1684.890625" xlink:href="#DejaVuSans-61"/>
     <use x="1746.169922" xlink:href="#DejaVuSans-69"/>
     <use x="1773.953125" xlink:href="#DejaVuSans-6e"/>
     <use x="1837.332031" xlink:href="#DejaVuSans-74"/>
     <use x="1876.541016" xlink:href="#DejaVuSans-79"/>
     <use x="1935.720703" xlink:href="#DejaVuSans-20"/>
    </g>
   </g>
   <g id="legend_1">
    <g id="patch_7">
     <path d="M 569.803438 170.3925 
L 699.68 170.3925 
Q 701.68 170.3925 701.68 168.3925 
L 701.68 110.68 
Q 701.68 108.68 699.68 108.68 
L 569.803438 108.68 
Q 567.803438 108.68 567.803438 110.68 
L 567.803438 168.3925 
Q 567.803438 170.3925 569.803438 170.3925 
z
" style="fill:#ffffff;opacity:0.8;stroke:#cccccc;stroke-linejoin:miter;"/>
    </g>
    <g id="line2d_18">
     <path d="M 571.803438 116.778437 
L 591.803438 116.778437 
" style="fill:none;stroke:#1f77b4;stroke-linecap:square;stroke-width:1.5;"/>
    </g>
    <g id="line2d_19"/>
    <g id="text_15">
     <!-- actual -->
     <defs>
      <path d="M 8.5 21.578125 
L 8.5 54.6875 
L 17.484375 54.6875 
L 17.484375 21.921875 
Q 17.484375 14.15625 20.5 10.265625 
Q 23.53125 6.390625 29.59375 6.390625 
Q 36.859375 6.390625 41.078125 11.03125 
Q 45.3125 15.671875 45.3125 23.6875 
L 45.3125 54.6875 
L 54.296875 54.6875 
L 54.296875 0 
L 45.3125 0 
L 45.3125 8.40625 
Q 42.046875 3.421875 37.71875 1 
Q 33.40625 -1.421875 27.6875 -1.421875 
Q 18.265625 -1.421875 13.375 4.4375 
Q 8.5 10.296875 8.5 21.578125 
z
M 31.109375 56 
z
" id="DejaVuSans-75"/>
     </defs>
     <g transform="translate(599.803438 120.278437)scale(0.1 -0.1)">
      <use xlink:href="#DejaVuSans-61"/>
      <use x="61.279297" xlink:href="#DejaVuSans-63"/>
      <use x="116.259766" xlink:href="#DejaVuSans-74"/>
      <use x="155.46875" xlink:href="#DejaVuSans-75"/>
      <use x="218.847656" xlink:href="#DejaVuSans-61"/>
      <use x="280.126953" xlink:href="#DejaVuSans-6c"/>
     </g>
    </g>
    <g id="line2d_20">
     <path d="M 571.803438 131.456562 
L 591.803438 131.456562 
" style="fill:none;stroke:#ff7f0e;stroke-linecap:square;stroke-width:1.5;"/>
    </g>
    <g id="line2d_21"/>
    <g id="text_16">
     <!-- pred. (mean) -->
     <defs>
      <path d="M 18.109375 8.203125 
L 18.109375 -20.796875 
L 9.078125 -20.796875 
L 9.078125 54.6875 
L 18.109375 54.6875 
L 18.109375 46.390625 
Q 20.953125 51.265625 25.265625 53.625 
Q 29.59375 56 35.59375 56 
Q 45.5625 56 51.78125 48.09375 
Q 58.015625 40.1875 58.015625 27.296875 
Q 58.015625 14.40625 51.78125 6.484375 
Q 45.5625 -1.421875 35.59375 -1.421875 
Q 29.59375 -1.421875 25.265625 0.953125 
Q 20.953125 3.328125 18.109375 8.203125 
z
M 48.6875 27.296875 
Q 48.6875 37.203125 44.609375 42.84375 
Q 40.53125 48.484375 33.40625 48.484375 
Q 26.265625 48.484375 22.1875 42.84375 
Q 18.109375 37.203125 18.109375 27.296875 
Q 18.109375 17.390625 22.1875 11.75 
Q 26.265625 6.109375 33.40625 6.109375 
Q 40.53125 6.109375 44.609375 11.75 
Q 48.6875 17.390625 48.6875 27.296875 
z
" id="DejaVuSans-70"/>
      <path d="M 45.40625 46.390625 
L 45.40625 75.984375 
L 54.390625 75.984375 
L 54.390625 0 
L 45.40625 0 
L 45.40625 8.203125 
Q 42.578125 3.328125 38.25 0.953125 
Q 33.9375 -1.421875 27.875 -1.421875 
Q 17.96875 -1.421875 11.734375 6.484375 
Q 5.515625 14.40625 5.515625 27.296875 
Q 5.515625 40.1875 11.734375 48.09375 
Q 17.96875 56 27.875 56 
Q 33.9375 56 38.25 53.625 
Q 42.578125 51.265625 45.40625 46.390625 
z
M 14.796875 27.296875 
Q 14.796875 17.390625 18.875 11.75 
Q 22.953125 6.109375 30.078125 6.109375 
Q 37.203125 6.109375 41.296875 11.75 
Q 45.40625 17.390625 45.40625 27.296875 
Q 45.40625 37.203125 41.296875 42.84375 
Q 37.203125 48.484375 30.078125 48.484375 
Q 22.953125 48.484375 18.875 42.84375 
Q 14.796875 37.203125 14.796875 27.296875 
z
" id="DejaVuSans-64"/>
      <path d="M 31 75.875 
Q 24.46875 64.65625 21.28125 53.65625 
Q 18.109375 42.671875 18.109375 31.390625 
Q 18.109375 20.125 21.3125 9.0625 
Q 24.515625 -2 31 -13.1875 
L 23.1875 -13.1875 
Q 15.875 -1.703125 12.234375 9.375 
Q 8.59375 20.453125 8.59375 31.390625 
Q 8.59375 42.28125 12.203125 53.3125 
Q 15.828125 64.359375 23.1875 75.875 
z
" id="DejaVuSans-28"/>
      <path d="M 52 44.1875 
Q 55.375 50.25 60.0625 53.125 
Q 64.75 56 71.09375 56 
Q 79.640625 56 84.28125 50.015625 
Q 88.921875 44.046875 88.921875 33.015625 
L 88.921875 0 
L 79.890625 0 
L 79.890625 32.71875 
Q 79.890625 40.578125 77.09375 44.375 
Q 74.3125 48.1875 68.609375 48.1875 
Q 61.625 48.1875 57.5625 43.546875 
Q 53.515625 38.921875 53.515625 30.90625 
L 53.515625 0 
L 44.484375 0 
L 44.484375 32.71875 
Q 44.484375 40.625 41.703125 44.40625 
Q 38.921875 48.1875 33.109375 48.1875 
Q 26.21875 48.1875 22.15625 43.53125 
Q 18.109375 38.875 18.109375 30.90625 
L 18.109375 0 
L 9.078125 0 
L 9.078125 54.6875 
L 18.109375 54.6875 
L 18.109375 46.1875 
Q 21.1875 51.21875 25.484375 53.609375 
Q 29.78125 56 35.6875 56 
Q 41.65625 56 45.828125 52.96875 
Q 50 49.953125 52 44.1875 
z
" id="DejaVuSans-6d"/>
      <path d="M 8.015625 75.875 
L 15.828125 75.875 
Q 23.140625 64.359375 26.78125 53.3125 
Q 30.421875 42.28125 30.421875 31.390625 
Q 30.421875 20.453125 26.78125 9.375 
Q 23.140625 -1.703125 15.828125 -13.1875 
L 8.015625 -13.1875 
Q 14.5 -2 17.703125 9.0625 
Q 20.90625 20.125 20.90625 31.390625 
Q 20.90625 42.671875 17.703125 53.65625 
Q 14.5 64.65625 8.015625 75.875 
z
" id="DejaVuSans-29"/>
     </defs>
     <g transform="translate(599.803438 134.956562)scale(0.1 -0.1)">
      <use xlink:href="#DejaVuSans-70"/>
      <use x="63.476562" xlink:href="#DejaVuSans-72"/>
      <use x="104.558594" xlink:href="#DejaVuSans-65"/>
      <use x="166.082031" xlink:href="#DejaVuSans-64"/>
      <use x="229.558594" xlink:href="#DejaVuSans-2e"/>
      <use x="261.345703" xlink:href="#DejaVuSans-20"/>
      <use x="293.132812" xlink:href="#DejaVuSans-28"/>
      <use x="332.146484" xlink:href="#DejaVuSans-6d"/>
      <use x="429.558594" xlink:href="#DejaVuSans-65"/>
      <use x="491.082031" xlink:href="#DejaVuSans-61"/>
      <use x="552.361328" xlink:href="#DejaVuSans-6e"/>
      <use x="615.740234" xlink:href="#DejaVuSans-29"/>
     </g>
    </g>
    <g id="line2d_22">
     <path d="M 571.803438 146.134687 
L 591.803438 146.134687 
" style="fill:none;stroke:#2ca02c;stroke-linecap:square;stroke-width:1.5;"/>
    </g>
    <g id="line2d_23"/>
    <g id="text_17">
     <!-- pred.(5th percen.) -->
     <defs>
      <path d="M 54.890625 33.015625 
L 54.890625 0 
L 45.90625 0 
L 45.90625 32.71875 
Q 45.90625 40.484375 42.875 44.328125 
Q 39.84375 48.1875 33.796875 48.1875 
Q 26.515625 48.1875 22.3125 43.546875 
Q 18.109375 38.921875 18.109375 30.90625 
L 18.109375 0 
L 9.078125 0 
L 9.078125 75.984375 
L 18.109375 75.984375 
L 18.109375 46.1875 
Q 21.34375 51.125 25.703125 53.5625 
Q 30.078125 56 35.796875 56 
Q 45.21875 56 50.046875 50.171875 
Q 54.890625 44.34375 54.890625 33.015625 
z
" id="DejaVuSans-68"/>
     </defs>
     <g transform="translate(599.803438 149.634687)scale(0.1 -0.1)">
      <use xlink:href="#DejaVuSans-70"/>
      <use x="63.476562" xlink:href="#DejaVuSans-72"/>
      <use x="104.558594" xlink:href="#DejaVuSans-65"/>
      <use x="166.082031" xlink:href="#DejaVuSans-64"/>
      <use x="229.558594" xlink:href="#DejaVuSans-2e"/>
      <use x="261.345703" xlink:href="#DejaVuSans-28"/>
      <use x="300.359375" xlink:href="#DejaVuSans-35"/>
      <use x="363.982422" xlink:href="#DejaVuSans-74"/>
      <use x="403.191406" xlink:href="#DejaVuSans-68"/>
      <use x="466.570312" xlink:href="#DejaVuSans-20"/>
      <use x="498.357422" xlink:href="#DejaVuSans-70"/>
      <use x="561.833984" xlink:href="#DejaVuSans-65"/>
      <use x="623.357422" xlink:href="#DejaVuSans-72"/>
      <use x="664.439453" xlink:href="#DejaVuSans-63"/>
      <use x="719.419922" xlink:href="#DejaVuSans-65"/>
      <use x="780.943359" xlink:href="#DejaVuSans-6e"/>
      <use x="844.322266" xlink:href="#DejaVuSans-2e"/>
      <use x="876.109375" xlink:href="#DejaVuSans-29"/>
     </g>
    </g>
    <g id="line2d_24">
     <path d="M 571.803438 160.812812 
L 591.803438 160.812812 
" style="fill:none;stroke:#d62728;stroke-linecap:square;stroke-width:1.5;"/>
    </g>
    <g id="line2d_25"/>
    <g id="text_18">
     <!-- pred.(95th percen.) -->
     <defs>
      <path d="M 10.984375 1.515625 
L 10.984375 10.5 
Q 14.703125 8.734375 18.5 7.8125 
Q 22.3125 6.890625 25.984375 6.890625 
Q 35.75 6.890625 40.890625 13.453125 
Q 46.046875 20.015625 46.78125 33.40625 
Q 43.953125 29.203125 39.59375 26.953125 
Q 35.25 24.703125 29.984375 24.703125 
Q 19.046875 24.703125 12.671875 31.3125 
Q 6.296875 37.9375 6.296875 49.421875 
Q 6.296875 60.640625 12.9375 67.421875 
Q 19.578125 74.21875 30.609375 74.21875 
Q 43.265625 74.21875 49.921875 64.515625 
Q 56.59375 54.828125 56.59375 36.375 
Q 56.59375 19.140625 48.40625 8.859375 
Q 40.234375 -1.421875 26.421875 -1.421875 
Q 22.703125 -1.421875 18.890625 -0.6875 
Q 15.09375 0.046875 10.984375 1.515625 
z
M 30.609375 32.421875 
Q 37.25 32.421875 41.125 36.953125 
Q 45.015625 41.5 45.015625 49.421875 
Q 45.015625 57.28125 41.125 61.84375 
Q 37.25 66.40625 30.609375 66.40625 
Q 23.96875 66.40625 20.09375 61.84375 
Q 16.21875 57.28125 16.21875 49.421875 
Q 16.21875 41.5 20.09375 36.953125 
Q 23.96875 32.421875 30.609375 32.421875 
z
" id="DejaVuSans-39"/>
     </defs>
     <g transform="translate(599.803438 164.312812)scale(0.1 -0.1)">
      <use xlink:href="#DejaVuSans-70"/>
      <use x="63.476562" xlink:href="#DejaVuSans-72"/>
      <use x="104.558594" xlink:href="#DejaVuSans-65"/>
      <use x="166.082031" xlink:href="#DejaVuSans-64"/>
      <use x="229.558594" xlink:href="#DejaVuSans-2e"/>
      <use x="261.345703" xlink:href="#DejaVuSans-28"/>
      <use x="300.359375" xlink:href="#DejaVuSans-39"/>
      <use x="363.982422" xlink:href="#DejaVuSans-35"/>
      <use x="427.605469" xlink:href="#DejaVuSans-74"/>
      <use x="466.814453" xlink:href="#DejaVuSans-68"/>
      <use x="530.193359" xlink:href="#DejaVuSans-20"/>
      <use x="561.980469" xlink:href="#DejaVuSans-70"/>
      <use x="625.457031" xlink:href="#DejaVuSans-65"/>
      <use x="686.980469" xlink:href="#DejaVuSans-72"/>
      <use x="728.0625" xlink:href="#DejaVuSans-63"/>
      <use x="783.042969" xlink:href="#DejaVuSans-65"/>
      <use x="844.566406" xlink:href="#DejaVuSans-6e"/>
      <use x="907.945312" xlink:href="#DejaVuSans-2e"/>
      <use x="939.732422" xlink:href="#DejaVuSans-29"/>
     </g>
    </g>
   </g>
  </g>
 </g>
 <defs>
  <clipPath id="p5ddc8ea103">
   <rect height="591.52" width="650.59" x="56.09" y="103.68"/>
  </clipPath>
 </defs>
</svg>
