<?xml version="1.0" encoding="utf-8" standalone="no"?>
<!DOCTYPE svg PUBLIC "-//W3C//DTD SVG 1.1//EN"
  "http://www.w3.org/Graphics/SVG/1.1/DTD/svg11.dtd">
<!-- Created with matplotlib (http://matplotlib.org/) -->
<svg height="864pt" version="1.1" viewBox="0 0 720 864" width="720pt" xmlns="http://www.w3.org/2000/svg" xmlns:xlink="http://www.w3.org/1999/xlink">
 <defs>
  <style type="text/css">
*{stroke-linecap:butt;stroke-linejoin:round;}
  </style>
 </defs>
 <g id="figure_1">
  <g id="patch_1">
   <path d="M 0 864 
L 720 864 
L 720 0 
L 0 0 
z
" style="fill:#ffffff;"/>
  </g>
  <g id="axes_1">
   <g id="patch_2">
    <path d="M 56.09 695.2 
L 706.68 695.2 
L 706.68 103.68 
L 56.09 103.68 
z
" style="fill:#ffffff;"/>
   </g>
   <g id="PolyCollection_1">
    <path clip-path="url(#pc7b255a0c0)" d="M 85.662273 422.806934 
L 85.662273 626.877977 
L 87.653672 626.877977 
L 89.64507 626.877977 
L 91.636469 626.877977 
L 93.627868 626.877977 
L 95.619267 621.362544 
L 97.610666 615.84711 
L 99.602065 610.331676 
L 101.593463 599.300809 
L 103.584862 577.239075 
L 105.576261 538.63104 
L 107.56766 500.023005 
L 109.559059 483.476704 
L 111.550458 483.476704 
L 113.541856 483.476704 
L 115.533255 477.96127 
L 117.524654 477.96127 
L 119.516053 477.96127 
L 121.507452 477.96127 
L 123.498851 477.96127 
L 125.490249 477.96127 
L 127.481648 477.96127 
L 129.473047 472.445837 
L 131.464446 472.445837 
L 133.455845 472.445837 
L 135.447244 472.445837 
L 137.438642 472.445837 
L 139.430041 472.445837 
L 141.42144 472.445837 
L 143.412839 472.445837 
L 145.404238 477.96127 
L 147.395637 472.445837 
L 149.387036 477.96127 
L 151.378434 477.96127 
L 153.369833 477.96127 
L 155.361232 477.96127 
L 157.352631 477.96127 
L 159.34403 477.96127 
L 161.335429 477.96127 
L 163.326827 477.96127 
L 165.318226 477.96127 
L 167.309625 483.476704 
L 169.301024 483.476704 
L 171.292423 494.507571 
L 173.283822 505.538438 
L 175.27522 511.053872 
L 177.266619 527.600172 
L 179.258018 549.661907 
L 181.249417 555.17734 
L 183.240816 560.692774 
L 185.232215 577.239075 
L 187.223613 588.269942 
L 189.215012 593.785376 
L 191.206411 593.785376 
L 193.19781 593.785376 
L 195.189209 599.300809 
L 197.180608 604.816243 
L 199.172006 610.331676 
L 201.163405 615.84711 
L 203.154804 621.362544 
L 205.146203 621.362544 
L 207.137602 621.362544 
L 209.129001 621.362544 
L 211.120399 621.362544 
L 213.111798 615.84711 
L 215.103197 615.84711 
L 217.094596 610.331676 
L 219.085995 599.300809 
L 221.077394 588.269942 
L 223.068792 577.239075 
L 225.060191 566.208208 
L 227.05159 555.17734 
L 229.042989 538.63104 
L 231.034388 527.600172 
L 233.025787 516.569305 
L 235.017185 505.538438 
L 237.008584 488.992137 
L 238.999983 483.476704 
L 240.991382 483.476704 
L 242.982781 483.476704 
L 244.97418 483.476704 
L 246.965579 483.476704 
L 248.956977 483.476704 
L 250.948376 477.96127 
L 252.939775 477.96127 
L 254.931174 477.96127 
L 256.922573 477.96127 
L 258.913972 477.96127 
L 260.90537 472.445837 
L 262.896769 477.96127 
L 264.888168 477.96127 
L 266.879567 472.445837 
L 268.870966 472.445837 
L 270.862365 472.445837 
L 272.853763 472.445837 
L 274.845162 472.445837 
L 276.836561 477.96127 
L 278.82796 477.96127 
L 280.819359 477.96127 
L 282.810758 477.96127 
L 284.802156 477.96127 
L 286.793555 477.96127 
L 288.784954 483.476704 
L 290.776353 483.476704 
L 292.767752 483.476704 
L 294.759151 483.476704 
L 296.750549 483.476704 
L 298.741948 483.476704 
L 300.733347 483.476704 
L 302.724746 483.476704 
L 304.716145 483.476704 
L 306.707544 483.476704 
L 308.698942 483.476704 
L 310.690341 483.476704 
L 312.68174 494.507571 
L 314.673139 511.053872 
L 316.664538 522.084739 
L 318.655937 522.084739 
L 320.647335 527.600172 
L 322.638734 538.63104 
L 324.630133 555.17734 
L 326.621532 566.208208 
L 328.612931 577.239075 
L 330.60433 588.269942 
L 332.595728 599.300809 
L 334.587127 599.300809 
L 336.578526 604.816243 
L 338.569925 604.816243 
L 340.561324 610.331676 
L 342.552723 615.84711 
L 344.544122 621.362544 
L 346.53552 626.877977 
L 348.526919 632.393411 
L 350.518318 632.393411 
L 352.509717 632.393411 
L 354.501116 632.393411 
L 356.492515 632.393411 
L 358.483913 632.393411 
L 360.475312 632.393411 
L 362.466711 632.393411 
L 364.45811 626.877977 
L 366.449509 621.362544 
L 368.440908 615.84711 
L 370.432306 604.816243 
L 372.423705 593.785376 
L 374.415104 577.239075 
L 376.406503 560.692774 
L 378.397902 544.146473 
L 380.389301 516.569305 
L 382.380699 494.507571 
L 384.372098 488.992137 
L 386.363497 483.476704 
L 388.354896 483.476704 
L 390.346295 477.96127 
L 392.337694 477.96127 
L 394.329092 477.96127 
L 396.320491 477.96127 
L 398.31189 477.96127 
L 400.303289 477.96127 
L 402.294688 477.96127 
L 404.286087 477.96127 
L 406.277485 477.96127 
L 408.268884 477.96127 
L 410.260283 477.96127 
L 412.251682 477.96127 
L 414.243081 477.96127 
L 416.23448 477.96127 
L 418.225878 477.96127 
L 420.217277 477.96127 
L 422.208676 477.96127 
L 424.200075 483.476704 
L 426.191474 483.476704 
L 428.182873 483.476704 
L 430.174272 483.476704 
L 432.16567 483.476704 
L 434.157069 483.476704 
L 436.148468 483.476704 
L 438.139867 500.023005 
L 440.131266 516.569305 
L 442.122665 527.600172 
L 444.114063 527.600172 
L 446.105462 527.600172 
L 448.096861 527.600172 
L 450.08826 522.084739 
L 452.079659 516.569305 
L 454.071058 516.569305 
L 456.062456 516.569305 
L 458.053855 527.600172 
L 460.045254 538.63104 
L 462.036653 549.661907 
L 464.028052 560.692774 
L 466.019451 571.723641 
L 468.010849 577.239075 
L 470.002248 582.754508 
L 471.993647 593.785376 
L 473.985046 599.300809 
L 475.976445 604.816243 
L 477.967844 610.331676 
L 479.959242 615.84711 
L 481.950641 626.877977 
L 483.94204 626.877977 
L 485.933439 632.393411 
L 487.924838 632.393411 
L 489.916237 632.393411 
L 491.907635 626.877977 
L 493.899034 621.362544 
L 495.890433 610.331676 
L 497.881832 604.816243 
L 499.873231 588.269942 
L 501.86463 566.208208 
L 503.856028 538.63104 
L 505.847427 516.569305 
L 507.838826 494.507571 
L 509.830225 483.476704 
L 511.821624 483.476704 
L 513.813023 483.476704 
L 515.804421 483.476704 
L 517.79582 483.476704 
L 519.787219 477.96127 
L 521.778618 477.96127 
L 523.770017 477.96127 
L 525.761416 477.96127 
L 527.752815 477.96127 
L 529.744213 472.445837 
L 531.735612 472.445837 
L 533.727011 472.445837 
L 535.71841 472.445837 
L 537.709809 472.445837 
L 539.701208 472.445837 
L 541.692606 472.445837 
L 543.684005 477.96127 
L 545.675404 477.96127 
L 547.666803 477.96127 
L 549.658202 477.96127 
L 551.649601 477.96127 
L 553.640999 477.96127 
L 555.632398 472.445837 
L 557.623797 477.96127 
L 559.615196 477.96127 
L 561.606595 477.96127 
L 563.597994 483.476704 
L 565.589392 483.476704 
L 567.580791 494.507571 
L 569.57219 494.507571 
L 571.563589 505.538438 
L 573.554988 516.569305 
L 575.546387 538.63104 
L 577.537785 555.17734 
L 579.529184 566.208208 
L 581.520583 582.754508 
L 583.511982 599.300809 
L 585.503381 604.816243 
L 587.49478 610.331676 
L 589.486178 615.84711 
L 591.477577 615.84711 
L 593.468976 621.362544 
L 595.460375 621.362544 
L 597.451774 621.362544 
L 599.443173 621.362544 
L 601.434571 621.362544 
L 603.42597 621.362544 
L 605.417369 615.84711 
L 607.408768 621.362544 
L 609.400167 621.362544 
L 611.391566 621.362544 
L 613.382964 626.877977 
L 615.374363 626.877977 
L 617.365762 632.393411 
L 619.357161 632.393411 
L 621.34856 632.393411 
L 623.339959 632.393411 
L 625.331358 632.393411 
L 627.322756 637.908844 
L 629.314155 632.393411 
L 631.305554 632.393411 
L 633.296953 632.393411 
L 635.288352 626.877977 
L 637.279751 621.362544 
L 639.271149 615.84711 
L 641.262548 604.816243 
L 643.253947 588.269942 
L 645.245346 577.239075 
L 647.236745 566.208208 
L 649.228144 549.661907 
L 651.219542 533.115606 
L 653.210941 511.053872 
L 655.20234 500.023005 
L 657.193739 494.507571 
L 659.185138 488.992137 
L 661.176537 483.476704 
L 663.167935 483.476704 
L 665.159334 483.476704 
L 667.150733 483.476704 
L 669.142132 483.476704 
L 671.133531 483.476704 
L 673.12493 483.476704 
L 675.116328 488.992137 
L 677.107727 483.476704 
L 677.107727 417.291501 
L 677.107727 417.291501 
L 675.116328 417.291501 
L 673.12493 417.291501 
L 671.133531 411.776067 
L 669.142132 417.291501 
L 667.150733 417.291501 
L 665.159334 411.776067 
L 663.167935 411.776067 
L 661.176537 417.291501 
L 659.185138 417.291501 
L 657.193739 417.291501 
L 655.20234 422.806934 
L 653.210941 422.806934 
L 651.219542 422.806934 
L 649.228144 422.806934 
L 647.236745 422.806934 
L 645.245346 422.806934 
L 643.253947 422.806934 
L 641.262548 422.806934 
L 639.271149 422.806934 
L 637.279751 422.806934 
L 635.288352 422.806934 
L 633.296953 422.806934 
L 631.305554 422.806934 
L 629.314155 422.806934 
L 627.322756 422.806934 
L 625.331358 422.806934 
L 623.339959 422.806934 
L 621.34856 422.806934 
L 619.357161 422.806934 
L 617.365762 422.806934 
L 615.374363 422.806934 
L 613.382964 422.806934 
L 611.391566 422.806934 
L 609.400167 422.806934 
L 607.408768 422.806934 
L 605.417369 422.806934 
L 603.42597 422.806934 
L 601.434571 422.806934 
L 599.443173 422.806934 
L 597.451774 422.806934 
L 595.460375 422.806934 
L 593.468976 422.806934 
L 591.477577 422.806934 
L 589.486178 422.806934 
L 587.49478 422.806934 
L 585.503381 422.806934 
L 583.511982 422.806934 
L 581.520583 422.806934 
L 579.529184 422.806934 
L 577.537785 422.806934 
L 575.546387 417.291501 
L 573.554988 417.291501 
L 571.563589 417.291501 
L 569.57219 417.291501 
L 567.580791 417.291501 
L 565.589392 411.776067 
L 563.597994 406.260633 
L 561.606595 389.714333 
L 559.615196 356.621731 
L 557.623797 329.044563 
L 555.632398 301.467395 
L 553.640999 284.921094 
L 551.649601 284.921094 
L 549.658202 284.921094 
L 547.666803 284.921094 
L 545.675404 290.436528 
L 543.684005 290.436528 
L 541.692606 273.890227 
L 539.701208 262.85936 
L 537.709809 251.828493 
L 535.71841 235.282192 
L 533.727011 224.251325 
L 531.735612 218.735891 
L 529.744213 213.220458 
L 527.752815 213.220458 
L 525.761416 213.220458 
L 523.770017 229.766758 
L 521.778618 251.828493 
L 519.787219 279.405661 
L 517.79582 318.013696 
L 515.804421 362.137165 
L 513.813023 389.714333 
L 511.821624 400.7452 
L 509.830225 411.776067 
L 507.838826 422.806934 
L 505.847427 422.806934 
L 503.856028 422.806934 
L 501.86463 422.806934 
L 499.873231 428.322368 
L 497.881832 422.806934 
L 495.890433 422.806934 
L 493.899034 422.806934 
L 491.907635 422.806934 
L 489.916237 422.806934 
L 487.924838 422.806934 
L 485.933439 422.806934 
L 483.94204 422.806934 
L 481.950641 422.806934 
L 479.959242 422.806934 
L 477.967844 422.806934 
L 475.976445 422.806934 
L 473.985046 422.806934 
L 471.993647 422.806934 
L 470.002248 422.806934 
L 468.010849 422.806934 
L 466.019451 422.806934 
L 464.028052 422.806934 
L 462.036653 422.806934 
L 460.045254 422.806934 
L 458.053855 422.806934 
L 456.062456 422.806934 
L 454.071058 422.806934 
L 452.079659 422.806934 
L 450.08826 422.806934 
L 448.096861 422.806934 
L 446.105462 422.806934 
L 444.114063 422.806934 
L 442.122665 422.806934 
L 440.131266 417.291501 
L 438.139867 417.291501 
L 436.148468 417.291501 
L 434.157069 417.291501 
L 432.16567 417.291501 
L 430.174272 411.776067 
L 428.182873 406.260633 
L 426.191474 400.7452 
L 424.200075 395.229766 
L 422.208676 384.198899 
L 420.217277 367.652598 
L 418.225878 356.621731 
L 416.23448 340.07543 
L 414.243081 329.044563 
L 412.251682 312.498262 
L 410.260283 306.982829 
L 408.268884 306.982829 
L 406.277485 301.467395 
L 404.286087 295.951961 
L 402.294688 295.951961 
L 400.303289 301.467395 
L 398.31189 306.982829 
L 396.320491 306.982829 
L 394.329092 312.498262 
L 392.337694 329.044563 
L 390.346295 351.106297 
L 388.354896 378.683465 
L 386.363497 406.260633 
L 384.372098 417.291501 
L 382.380699 422.806934 
L 380.389301 422.806934 
L 378.397902 422.806934 
L 376.406503 422.806934 
L 374.415104 422.806934 
L 372.423705 422.806934 
L 370.432306 422.806934 
L 368.440908 422.806934 
L 366.449509 422.806934 
L 364.45811 422.806934 
L 362.466711 422.806934 
L 360.475312 422.806934 
L 358.483913 422.806934 
L 356.492515 422.806934 
L 354.501116 422.806934 
L 352.509717 422.806934 
L 350.518318 422.806934 
L 348.526919 422.806934 
L 346.53552 422.806934 
L 344.544122 422.806934 
L 342.552723 422.806934 
L 340.561324 422.806934 
L 338.569925 422.806934 
L 336.578526 422.806934 
L 334.587127 422.806934 
L 332.595728 422.806934 
L 330.60433 422.806934 
L 328.612931 422.806934 
L 326.621532 422.806934 
L 324.630133 422.806934 
L 322.638734 422.806934 
L 320.647335 422.806934 
L 318.655937 422.806934 
L 316.664538 422.806934 
L 314.673139 417.291501 
L 312.68174 417.291501 
L 310.690341 417.291501 
L 308.698942 417.291501 
L 306.707544 411.776067 
L 304.716145 411.776067 
L 302.724746 411.776067 
L 300.733347 406.260633 
L 298.741948 406.260633 
L 296.750549 406.260633 
L 294.759151 400.7452 
L 292.767752 400.7452 
L 290.776353 400.7452 
L 288.784954 400.7452 
L 286.793555 389.714333 
L 284.802156 378.683465 
L 282.810758 373.168032 
L 280.819359 356.621731 
L 278.82796 340.07543 
L 276.836561 312.498262 
L 274.845162 284.921094 
L 272.853763 268.374793 
L 270.862365 251.828493 
L 268.870966 240.797625 
L 266.879567 229.766758 
L 264.888168 229.766758 
L 262.896769 235.282192 
L 260.90537 229.766758 
L 258.913972 224.251325 
L 256.922573 235.282192 
L 254.931174 246.313059 
L 252.939775 268.374793 
L 250.948376 301.467395 
L 248.956977 351.106297 
L 246.965579 400.7452 
L 244.97418 406.260633 
L 242.982781 406.260633 
L 240.991382 411.776067 
L 238.999983 411.776067 
L 237.008584 417.291501 
L 235.017185 422.806934 
L 233.025787 422.806934 
L 231.034388 422.806934 
L 229.042989 422.806934 
L 227.05159 422.806934 
L 225.060191 422.806934 
L 223.068792 422.806934 
L 221.077394 422.806934 
L 219.085995 422.806934 
L 217.094596 422.806934 
L 215.103197 422.806934 
L 213.111798 422.806934 
L 211.120399 422.806934 
L 209.129001 422.806934 
L 207.137602 422.806934 
L 205.146203 422.806934 
L 203.154804 422.806934 
L 201.163405 422.806934 
L 199.172006 422.806934 
L 197.180608 422.806934 
L 195.189209 422.806934 
L 193.19781 422.806934 
L 191.206411 422.806934 
L 189.215012 422.806934 
L 187.223613 422.806934 
L 185.232215 422.806934 
L 183.240816 422.806934 
L 181.249417 422.806934 
L 179.258018 422.806934 
L 177.266619 417.291501 
L 175.27522 417.291501 
L 173.283822 417.291501 
L 171.292423 417.291501 
L 169.301024 411.776067 
L 167.309625 400.7452 
L 165.318226 384.198899 
L 163.326827 356.621731 
L 161.335429 345.590864 
L 159.34403 345.590864 
L 157.352631 340.07543 
L 155.361232 329.044563 
L 153.369833 334.559997 
L 151.378434 351.106297 
L 149.387036 334.559997 
L 147.395637 301.467395 
L 145.404238 284.921094 
L 143.412839 268.374793 
L 141.42144 257.343926 
L 139.430041 240.797625 
L 137.438642 229.766758 
L 135.447244 229.766758 
L 133.455845 224.251325 
L 131.464446 207.705024 
L 129.473047 202.18959 
L 127.481648 207.705024 
L 125.490249 213.220458 
L 123.498851 213.220458 
L 121.507452 224.251325 
L 119.516053 251.828493 
L 117.524654 268.374793 
L 115.533255 284.921094 
L 113.541856 312.498262 
L 111.550458 362.137165 
L 109.559059 411.776067 
L 107.56766 422.806934 
L 105.576261 428.322368 
L 103.584862 428.322368 
L 101.593463 422.806934 
L 99.602065 422.806934 
L 97.610666 422.806934 
L 95.619267 422.806934 
L 93.627868 422.806934 
L 91.636469 422.806934 
L 89.64507 422.806934 
L 87.653672 422.806934 
L 85.662273 422.806934 
z
" style="fill:#008000;fill-opacity:0.4;"/>
   </g>
   <g id="matplotlib.axis_1">
    <g id="xtick_1">
     <g id="line2d_1">
      <defs>
       <path d="M 0 0 
L 0 3.5 
" id="mc41377139b" style="stroke:#000000;stroke-width:0.8;"/>
      </defs>
      <g>
       <use style="stroke:#000000;stroke-width:0.8;" x="85.662273" xlink:href="#mc41377139b" y="695.2"/>
      </g>
     </g>
     <g id="text_1">
      <!-- 0.0 -->
      <defs>
       <path d="M 31.78125 66.40625 
Q 24.171875 66.40625 20.328125 58.90625 
Q 16.5 51.421875 16.5 36.375 
Q 16.5 21.390625 20.328125 13.890625 
Q 24.171875 6.390625 31.78125 6.390625 
Q 39.453125 6.390625 43.28125 13.890625 
Q 47.125 21.390625 47.125 36.375 
Q 47.125 51.421875 43.28125 58.90625 
Q 39.453125 66.40625 31.78125 66.40625 
z
M 31.78125 74.21875 
Q 44.046875 74.21875 50.515625 64.515625 
Q 56.984375 54.828125 56.984375 36.375 
Q 56.984375 17.96875 50.515625 8.265625 
Q 44.046875 -1.421875 31.78125 -1.421875 
Q 19.53125 -1.421875 13.0625 8.265625 
Q 6.59375 17.96875 6.59375 36.375 
Q 6.59375 54.828125 13.0625 64.515625 
Q 19.53125 74.21875 31.78125 74.21875 
z
" id="DejaVuSans-30"/>
       <path d="M 10.6875 12.40625 
L 21 12.40625 
L 21 0 
L 10.6875 0 
z
" id="DejaVuSans-2e"/>
      </defs>
      <g transform="translate(77.71071 709.798437)scale(0.1 -0.1)">
       <use xlink:href="#DejaVuSans-30"/>
       <use x="63.623047" xlink:href="#DejaVuSans-2e"/>
       <use x="95.410156" xlink:href="#DejaVuSans-30"/>
      </g>
     </g>
    </g>
    <g id="xtick_2">
     <g id="line2d_2">
      <g>
       <use style="stroke:#000000;stroke-width:0.8;" x="203.951364" xlink:href="#mc41377139b" y="695.2"/>
      </g>
     </g>
     <g id="text_2">
      <!-- 0.2 -->
      <defs>
       <path d="M 19.1875 8.296875 
L 53.609375 8.296875 
L 53.609375 0 
L 7.328125 0 
L 7.328125 8.296875 
Q 12.9375 14.109375 22.625 23.890625 
Q 32.328125 33.6875 34.8125 36.53125 
Q 39.546875 41.84375 41.421875 45.53125 
Q 43.3125 49.21875 43.3125 52.78125 
Q 43.3125 58.59375 39.234375 62.25 
Q 35.15625 65.921875 28.609375 65.921875 
Q 23.96875 65.921875 18.8125 64.3125 
Q 13.671875 62.703125 7.8125 59.421875 
L 7.8125 69.390625 
Q 13.765625 71.78125 18.9375 73 
Q 24.125 74.21875 28.421875 74.21875 
Q 39.75 74.21875 46.484375 68.546875 
Q 53.21875 62.890625 53.21875 53.421875 
Q 53.21875 48.921875 51.53125 44.890625 
Q 49.859375 40.875 45.40625 35.40625 
Q 44.1875 33.984375 37.640625 27.21875 
Q 31.109375 20.453125 19.1875 8.296875 
z
" id="DejaVuSans-32"/>
      </defs>
      <g transform="translate(195.999801 709.798437)scale(0.1 -0.1)">
       <use xlink:href="#DejaVuSans-30"/>
       <use x="63.623047" xlink:href="#DejaVuSans-2e"/>
       <use x="95.410156" xlink:href="#DejaVuSans-32"/>
      </g>
     </g>
    </g>
    <g id="xtick_3">
     <g id="line2d_3">
      <g>
       <use style="stroke:#000000;stroke-width:0.8;" x="322.240455" xlink:href="#mc41377139b" y="695.2"/>
      </g>
     </g>
     <g id="text_3">
      <!-- 0.4 -->
      <defs>
       <path d="M 37.796875 64.3125 
L 12.890625 25.390625 
L 37.796875 25.390625 
z
M 35.203125 72.90625 
L 47.609375 72.90625 
L 47.609375 25.390625 
L 58.015625 25.390625 
L 58.015625 17.1875 
L 47.609375 17.1875 
L 47.609375 0 
L 37.796875 0 
L 37.796875 17.1875 
L 4.890625 17.1875 
L 4.890625 26.703125 
z
" id="DejaVuSans-34"/>
      </defs>
      <g transform="translate(314.288892 709.798437)scale(0.1 -0.1)">
       <use xlink:href="#DejaVuSans-30"/>
       <use x="63.623047" xlink:href="#DejaVuSans-2e"/>
       <use x="95.410156" xlink:href="#DejaVuSans-34"/>
      </g>
     </g>
    </g>
    <g id="xtick_4">
     <g id="line2d_4">
      <g>
       <use style="stroke:#000000;stroke-width:0.8;" x="440.529545" xlink:href="#mc41377139b" y="695.2"/>
      </g>
     </g>
     <g id="text_4">
      <!-- 0.6 -->
      <defs>
       <path d="M 33.015625 40.375 
Q 26.375 40.375 22.484375 35.828125 
Q 18.609375 31.296875 18.609375 23.390625 
Q 18.609375 15.53125 22.484375 10.953125 
Q 26.375 6.390625 33.015625 6.390625 
Q 39.65625 6.390625 43.53125 10.953125 
Q 47.40625 15.53125 47.40625 23.390625 
Q 47.40625 31.296875 43.53125 35.828125 
Q 39.65625 40.375 33.015625 40.375 
z
M 52.59375 71.296875 
L 52.59375 62.3125 
Q 48.875 64.0625 45.09375 64.984375 
Q 41.3125 65.921875 37.59375 65.921875 
Q 27.828125 65.921875 22.671875 59.328125 
Q 17.53125 52.734375 16.796875 39.40625 
Q 19.671875 43.65625 24.015625 45.921875 
Q 28.375 48.1875 33.59375 48.1875 
Q 44.578125 48.1875 50.953125 41.515625 
Q 57.328125 34.859375 57.328125 23.390625 
Q 57.328125 12.15625 50.6875 5.359375 
Q 44.046875 -1.421875 33.015625 -1.421875 
Q 20.359375 -1.421875 13.671875 8.265625 
Q 6.984375 17.96875 6.984375 36.375 
Q 6.984375 53.65625 15.1875 63.9375 
Q 23.390625 74.21875 37.203125 74.21875 
Q 40.921875 74.21875 44.703125 73.484375 
Q 48.484375 72.75 52.59375 71.296875 
z
" id="DejaVuSans-36"/>
      </defs>
      <g transform="translate(432.577983 709.798437)scale(0.1 -0.1)">
       <use xlink:href="#DejaVuSans-30"/>
       <use x="63.623047" xlink:href="#DejaVuSans-2e"/>
       <use x="95.410156" xlink:href="#DejaVuSans-36"/>
      </g>
     </g>
    </g>
    <g id="xtick_5">
     <g id="line2d_5">
      <g>
       <use style="stroke:#000000;stroke-width:0.8;" x="558.818636" xlink:href="#mc41377139b" y="695.2"/>
      </g>
     </g>
     <g id="text_5">
      <!-- 0.8 -->
      <defs>
       <path d="M 31.78125 34.625 
Q 24.75 34.625 20.71875 30.859375 
Q 16.703125 27.09375 16.703125 20.515625 
Q 16.703125 13.921875 20.71875 10.15625 
Q 24.75 6.390625 31.78125 6.390625 
Q 38.8125 6.390625 42.859375 10.171875 
Q 46.921875 13.96875 46.921875 20.515625 
Q 46.921875 27.09375 42.890625 30.859375 
Q 38.875 34.625 31.78125 34.625 
z
M 21.921875 38.8125 
Q 15.578125 40.375 12.03125 44.71875 
Q 8.5 49.078125 8.5 55.328125 
Q 8.5 64.0625 14.71875 69.140625 
Q 20.953125 74.21875 31.78125 74.21875 
Q 42.671875 74.21875 48.875 69.140625 
Q 55.078125 64.0625 55.078125 55.328125 
Q 55.078125 49.078125 51.53125 44.71875 
Q 48 40.375 41.703125 38.8125 
Q 48.828125 37.15625 52.796875 32.3125 
Q 56.78125 27.484375 56.78125 20.515625 
Q 56.78125 9.90625 50.3125 4.234375 
Q 43.84375 -1.421875 31.78125 -1.421875 
Q 19.734375 -1.421875 13.25 4.234375 
Q 6.78125 9.90625 6.78125 20.515625 
Q 6.78125 27.484375 10.78125 32.3125 
Q 14.796875 37.15625 21.921875 38.8125 
z
M 18.3125 54.390625 
Q 18.3125 48.734375 21.84375 45.5625 
Q 25.390625 42.390625 31.78125 42.390625 
Q 38.140625 42.390625 41.71875 45.5625 
Q 45.3125 48.734375 45.3125 54.390625 
Q 45.3125 60.0625 41.71875 63.234375 
Q 38.140625 66.40625 31.78125 66.40625 
Q 25.390625 66.40625 21.84375 63.234375 
Q 18.3125 60.0625 18.3125 54.390625 
z
" id="DejaVuSans-38"/>
      </defs>
      <g transform="translate(550.867074 709.798437)scale(0.1 -0.1)">
       <use xlink:href="#DejaVuSans-30"/>
       <use x="63.623047" xlink:href="#DejaVuSans-2e"/>
       <use x="95.410156" xlink:href="#DejaVuSans-38"/>
      </g>
     </g>
    </g>
    <g id="xtick_6">
     <g id="line2d_6">
      <g>
       <use style="stroke:#000000;stroke-width:0.8;" x="677.107727" xlink:href="#mc41377139b" y="695.2"/>
      </g>
     </g>
     <g id="text_6">
      <!-- 1.0 -->
      <defs>
       <path d="M 12.40625 8.296875 
L 28.515625 8.296875 
L 28.515625 63.921875 
L 10.984375 60.40625 
L 10.984375 69.390625 
L 28.421875 72.90625 
L 38.28125 72.90625 
L 38.28125 8.296875 
L 54.390625 8.296875 
L 54.390625 0 
L 12.40625 0 
z
" id="DejaVuSans-31"/>
      </defs>
      <g transform="translate(669.156165 709.798437)scale(0.1 -0.1)">
       <use xlink:href="#DejaVuSans-31"/>
       <use x="63.623047" xlink:href="#DejaVuSans-2e"/>
       <use x="95.410156" xlink:href="#DejaVuSans-30"/>
      </g>
     </g>
    </g>
   </g>
   <g id="matplotlib.axis_2">
    <g id="ytick_1">
     <g id="line2d_7">
      <defs>
       <path d="M 0 0 
L -3.5 0 
" id="md631cb5543" style="stroke:#000000;stroke-width:0.8;"/>
      </defs>
      <g>
       <use style="stroke:#000000;stroke-width:0.8;" x="56.09" xlink:href="#md631cb5543" y="676.51688"/>
      </g>
     </g>
     <g id="text_7">
      <!-- 0.0 -->
      <g transform="translate(33.186875 680.316098)scale(0.1 -0.1)">
       <use xlink:href="#DejaVuSans-30"/>
       <use x="63.623047" xlink:href="#DejaVuSans-2e"/>
       <use x="95.410156" xlink:href="#DejaVuSans-30"/>
      </g>
     </g>
    </g>
    <g id="ytick_2">
     <g id="line2d_8">
      <g>
       <use style="stroke:#000000;stroke-width:0.8;" x="56.09" xlink:href="#md631cb5543" y="566.208208"/>
      </g>
     </g>
     <g id="text_8">
      <!-- 0.2 -->
      <g transform="translate(33.186875 570.007426)scale(0.1 -0.1)">
       <use xlink:href="#DejaVuSans-30"/>
       <use x="63.623047" xlink:href="#DejaVuSans-2e"/>
       <use x="95.410156" xlink:href="#DejaVuSans-32"/>
      </g>
     </g>
    </g>
    <g id="ytick_3">
     <g id="line2d_9">
      <g>
       <use style="stroke:#000000;stroke-width:0.8;" x="56.09" xlink:href="#md631cb5543" y="455.899536"/>
      </g>
     </g>
     <g id="text_9">
      <!-- 0.4 -->
      <g transform="translate(33.186875 459.698754)scale(0.1 -0.1)">
       <use xlink:href="#DejaVuSans-30"/>
       <use x="63.623047" xlink:href="#DejaVuSans-2e"/>
       <use x="95.410156" xlink:href="#DejaVuSans-34"/>
      </g>
     </g>
    </g>
    <g id="ytick_4">
     <g id="line2d_10">
      <g>
       <use style="stroke:#000000;stroke-width:0.8;" x="56.09" xlink:href="#md631cb5543" y="345.590864"/>
      </g>
     </g>
     <g id="text_10">
      <!-- 0.6 -->
      <g transform="translate(33.186875 349.390083)scale(0.1 -0.1)">
       <use xlink:href="#DejaVuSans-30"/>
       <use x="63.623047" xlink:href="#DejaVuSans-2e"/>
       <use x="95.410156" xlink:href="#DejaVuSans-36"/>
      </g>
     </g>
    </g>
    <g id="ytick_5">
     <g id="line2d_11">
      <g>
       <use style="stroke:#000000;stroke-width:0.8;" x="56.09" xlink:href="#md631cb5543" y="235.282192"/>
      </g>
     </g>
     <g id="text_11">
      <!-- 0.8 -->
      <g transform="translate(33.186875 239.081411)scale(0.1 -0.1)">
       <use xlink:href="#DejaVuSans-30"/>
       <use x="63.623047" xlink:href="#DejaVuSans-2e"/>
       <use x="95.410156" xlink:href="#DejaVuSans-38"/>
      </g>
     </g>
    </g>
    <g id="ytick_6">
     <g id="line2d_12">
      <g>
       <use style="stroke:#000000;stroke-width:0.8;" x="56.09" xlink:href="#md631cb5543" y="124.97352"/>
      </g>
     </g>
     <g id="text_12">
      <!-- 1.0 -->
      <g transform="translate(33.186875 128.772739)scale(0.1 -0.1)">
       <use xlink:href="#DejaVuSans-31"/>
       <use x="63.623047" xlink:href="#DejaVuSans-2e"/>
       <use x="95.410156" xlink:href="#DejaVuSans-30"/>
      </g>
     </g>
    </g>
   </g>
   <g id="line2d_13">
    <path clip-path="url(#pc7b255a0c0)" d="M 85.662273 648.548171 
L 87.653672 648.921069 
L 89.64507 647.42942 
L 91.636469 645.191919 
L 93.627868 631.021061 
L 95.619267 625.427308 
L 97.610666 610.137533 
L 99.602065 585.898306 
L 101.593463 557.556699 
L 103.584862 510.569065 
L 105.576261 471.039953 
L 107.56766 426.28993 
L 111.550458 328.585679 
L 113.541856 289.056566 
L 115.533255 276.750531 
L 117.524654 243.560858 
L 119.516053 182.029577 
L 121.507452 161.146491 
L 123.498851 156.298425 
L 125.490249 132.804884 
L 127.481648 130.567273 
L 129.473047 148.839904 
L 131.464446 188.369568 
L 133.455845 202.166977 
L 135.447244 205.896513 
L 137.438642 241.323246 
L 139.430041 261.834041 
L 141.42144 284.209052 
L 143.412839 301.363153 
L 145.404238 328.212836 
L 147.395637 370.725246 
L 149.387036 375.946156 
L 151.378434 349.469317 
L 153.369833 354.690226 
L 155.361232 366.996262 
L 157.352631 371.471484 
L 159.34403 366.996262 
L 161.335429 387.133661 
L 163.326827 422.188103 
L 165.318226 433.748451 
L 167.309625 462.090058 
L 169.301024 487.075524 
L 171.292423 490.431665 
L 173.283822 501.246328 
L 175.27522 519.891803 
L 177.266619 537.045904 
L 179.258018 541.89397 
L 181.249417 547.487723 
L 183.240816 568.371361 
L 185.232215 581.423083 
L 187.223613 587.762522 
L 189.215012 582.915008 
L 191.206411 591.492058 
L 193.19781 601.187639 
L 195.189209 606.408549 
L 197.180608 611.256615 
L 199.172006 623.189807 
L 201.163405 635.869016 
L 203.154804 635.869016 
L 205.146203 630.648162 
L 207.137602 632.885663 
L 209.129001 628.78356 
L 211.120399 623.189807 
L 213.111798 622.071111 
L 215.103197 611.256615 
L 217.094596 591.864902 
L 219.085995 570.608421 
L 221.077394 562.03137 
L 223.068792 550.843864 
L 225.060191 532.944076 
L 227.05159 521.756571 
L 229.042989 512.433833 
L 231.034388 501.619171 
L 233.025787 487.821211 
L 235.017185 457.987679 
L 237.008584 447.919255 
L 238.999983 440.833577 
L 240.991382 438.595966 
L 242.982781 434.494138 
L 244.97418 416.220955 
L 250.948376 268.919167 
L 252.939775 241.69609 
L 254.931174 217.084019 
L 256.922573 184.640032 
L 258.913972 211.863109 
L 260.90537 219.32163 
L 262.896769 208.879811 
L 264.888168 210.371185 
L 266.879567 225.288226 
L 268.870966 261.834041 
L 270.862365 283.462814 
L 272.853763 307.702593 
L 274.845162 348.350235 
L 276.836561 368.114792 
L 278.82796 384.89605 
L 280.819359 399.813092 
L 282.810758 403.169233 
L 284.802156 422.560946 
L 286.793555 426.28993 
L 288.784954 427.40846 
L 290.776353 426.28993 
L 292.767752 428.900385 
L 294.759151 436.731749 
L 296.750549 437.477436 
L 298.741948 444.189719 
L 300.733347 449.783471 
L 302.724746 453.513008 
L 304.716145 456.869149 
L 306.707544 468.429498 
L 308.698942 470.667109 
L 310.690341 486.702681 
L 312.68174 500.50009 
L 314.673139 510.569065 
L 316.664538 508.704297 
L 318.655937 512.433833 
L 322.638734 542.639657 
L 324.630133 554.5734 
L 326.621532 564.268981 
L 328.612931 581.050239 
L 330.60433 594.475356 
L 332.595728 599.323423 
L 334.587127 601.933326 
L 336.578526 607.900473 
L 340.561324 628.410661 
L 342.552723 637.733564 
L 344.544122 648.548171 
L 346.53552 656.37937 
L 348.526919 662.346076 
L 350.518318 664.583577 
L 352.509717 663.091873 
L 354.501116 661.973122 
L 356.492515 661.227326 
L 358.483913 656.006471 
L 360.475312 653.396072 
L 362.466711 642.208566 
L 364.45811 633.258562 
L 366.449509 614.239913 
L 368.440908 596.340124 
L 370.432306 579.558866 
L 372.423705 554.946244 
L 374.415104 542.266814 
L 376.406503 521.010884 
L 378.397902 495.652575 
L 380.389301 476.633705 
L 384.372098 424.425162 
L 386.363497 394.965025 
L 388.354896 368.488186 
L 392.337694 328.958522 
L 394.329092 326.721462 
L 396.320491 326.348619 
L 398.31189 320.381471 
L 400.303289 311.058734 
L 402.294688 320.381471 
L 404.286087 321.500553 
L 406.277485 327.094306 
L 408.268884 324.111008 
L 410.260283 338.654655 
L 412.251682 356.554443 
L 414.243081 366.623418 
L 416.23448 386.387975 
L 418.225878 390.489803 
L 420.217277 417.340036 
L 424.200075 427.781855 
L 428.182873 449.783471 
L 430.174272 462.090058 
L 432.16567 457.987679 
L 434.157069 470.294266 
L 436.148468 491.923039 
L 438.139867 508.331454 
L 440.131266 512.433833 
L 442.122665 510.941908 
L 446.105462 515.417131 
L 448.096861 504.975312 
L 450.08826 502.737701 
L 452.079659 499.38156 
L 454.071058 505.348156 
L 456.062456 516.162818 
L 458.053855 522.502257 
L 460.045254 537.792142 
L 462.036653 545.250112 
L 464.028052 560.539997 
L 466.019451 568.371361 
L 468.010849 575.083643 
L 470.002248 586.271149 
L 471.993647 598.204341 
L 473.985046 606.781392 
L 475.976445 613.867069 
L 477.967844 631.394014 
L 479.959242 644.073169 
L 481.950641 651.531469 
L 483.94204 656.37937 
L 485.933439 656.752323 
L 487.924838 653.023173 
L 489.916237 642.208566 
L 491.907635 629.529412 
L 495.890433 595.96673 
L 497.881832 572.473189 
L 499.873231 543.013052 
L 501.86463 515.417131 
L 503.856028 499.754403 
L 505.847427 462.835745 
L 507.838826 434.494138 
L 509.830225 417.71288 
L 511.821624 406.152531 
L 513.813023 387.133661 
L 515.804421 327.467149 
L 517.79582 282.344284 
L 519.787219 243.560858 
L 521.778618 201.42129 
L 523.770017 162.265021 
L 525.761416 153.315127 
L 527.752815 155.925582 
L 529.744213 171.58831 
L 531.735612 194.336164 
L 533.727011 227.525286 
L 535.71841 255.49405 
L 537.709809 265.190182 
L 539.701208 292.413259 
L 541.692606 310.685891 
L 543.684005 309.940204 
L 545.675404 299.871229 
L 547.666803 296.515087 
L 549.658202 297.633617 
L 551.649601 300.616915 
L 553.640999 333.060902 
L 555.632398 359.164897 
L 559.615196 424.052319 
L 561.606595 444.189719 
L 563.597994 474.023251 
L 565.589392 482.600301 
L 567.580791 484.465069 
L 569.57219 493.787807 
L 571.563589 506.84008 
L 573.554988 531.079308 
L 575.546387 541.89397 
L 577.537785 554.946244 
L 579.529184 581.795926 
L 581.520583 600.069109 
L 583.511982 610.137533 
L 585.503381 614.239913 
L 587.49478 620.206509 
L 589.486178 629.90231 
L 591.477577 633.631515 
L 593.468976 631.766913 
L 595.460375 634.377312 
L 597.451774 632.512765 
L 599.443173 636.987767 
L 601.434571 627.664809 
L 603.42597 629.156513 
L 605.417369 628.410661 
L 607.408768 629.156513 
L 609.400167 636.987767 
L 611.391566 641.089816 
L 613.382964 649.666922 
L 615.374363 653.76897 
L 617.365762 658.989824 
L 619.357161 663.464827 
L 621.34856 665.329374 
L 623.339959 667.939829 
L 625.331358 668.312727 
L 629.314155 660.854372 
L 631.305554 655.260619 
L 635.288352 630.648162 
L 637.279751 617.596054 
L 639.271149 602.679564 
L 641.262548 573.591719 
L 643.253947 559.79431 
L 645.245346 548.23341 
L 647.236745 529.215091 
L 649.228144 513.925206 
L 651.219542 491.177352 
L 653.210941 490.431665 
L 655.20234 476.633705 
L 657.193739 468.802341 
L 659.185138 454.631538 
L 661.176537 443.816875 
L 663.167935 458.733917 
L 665.159334 460.970977 
L 667.150733 453.513008 
L 669.142132 452.766769 
L 671.133531 465.819043 
L 673.12493 473.277564 
L 675.116328 456.869149 
L 677.107727 453.513008 
L 677.107727 453.513008 
" style="fill:none;stroke:#1f77b4;stroke-linecap:square;stroke-width:1.5;"/>
   </g>
   <g id="line2d_14">
    <path clip-path="url(#pc7b255a0c0)" d="M 85.662273 518.741438 
L 87.653672 519.374563 
L 89.64507 519.781525 
L 91.636469 519.491636 
L 93.627868 519.386684 
L 95.619267 516.908839 
L 97.610666 514.186978 
L 99.602065 511.935296 
L 101.593463 505.056355 
L 103.584862 496.922052 
L 105.576261 481.828751 
L 109.559059 445.274687 
L 111.550458 424.508815 
L 113.541856 406.109229 
L 115.533255 391.871224 
L 117.524654 385.703069 
L 119.516053 380.734896 
L 121.507452 369.571206 
L 123.498851 362.82908 
L 125.490249 361.876744 
L 127.481648 359.421472 
L 129.473047 357.702245 
L 131.464446 358.634694 
L 133.455845 363.38897 
L 135.447244 367.844793 
L 137.438642 368.232303 
L 139.430041 373.126588 
L 141.42144 378.75728 
L 143.412839 383.679219 
L 147.395637 394.967531 
L 149.387036 407.766763 
L 151.378434 415.80838 
L 153.369833 409.617434 
L 155.361232 407.000089 
L 157.352631 410.505028 
L 159.34403 413.535577 
L 161.335429 412.979896 
L 163.326827 416.113147 
L 165.318226 428.746459 
L 167.309625 437.738597 
L 169.301024 446.135643 
L 171.292423 458.565292 
L 173.283822 463.989927 
L 175.27522 466.819136 
L 177.266619 473.302583 
L 179.258018 480.891222 
L 181.249417 484.932244 
L 183.240816 486.794383 
L 185.232215 491.830129 
L 187.223613 498.014106 
L 189.215012 501.354867 
L 191.206411 500.922211 
L 193.19781 501.923975 
L 195.189209 504.875918 
L 197.180608 507.314424 
L 199.172006 508.643092 
L 201.163405 511.042186 
L 203.154804 514.941167 
L 205.146203 516.52387 
L 207.137602 515.638526 
L 209.129001 515.220387 
L 211.120399 515.179378 
L 213.111798 513.66962 
L 215.103197 512.872825 
L 217.094596 511.380196 
L 219.085995 506.571049 
L 221.077394 499.748938 
L 223.068792 494.734387 
L 225.060191 491.189383 
L 227.05159 485.713797 
L 229.042989 479.37631 
L 231.034388 475.683604 
L 233.025787 471.542928 
L 235.017185 465.903599 
L 237.008584 455.877108 
L 238.999983 447.56578 
L 240.991382 443.884179 
L 242.982781 441.792321 
L 244.97418 441.098954 
L 246.965579 436.103201 
L 248.956977 421.04815 
L 250.948376 401.683673 
L 252.939775 387.775185 
L 254.931174 378.853958 
L 256.922573 373.539502 
L 258.913972 367.250281 
L 260.90537 367.894221 
L 262.896769 371.825355 
L 264.888168 370.298685 
L 266.879567 369.629851 
L 268.870966 371.212481 
L 270.862365 377.128562 
L 272.853763 383.708541 
L 274.845162 389.70047 
L 276.836561 400.318278 
L 278.82796 409.544708 
L 280.819359 416.879458 
L 282.810758 422.865217 
L 284.802156 426.025033 
L 288.784954 436.175927 
L 290.776353 436.669696 
L 292.767752 436.415735 
L 294.759151 437.064682 
L 296.750549 439.372542 
L 298.741948 441.283383 
L 300.733347 442.363606 
L 302.724746 445.897795 
L 304.716145 447.232778 
L 306.707544 448.934368 
L 308.698942 452.824785 
L 310.690341 455.103539 
L 312.68174 459.748291 
L 314.673139 466.293649 
L 316.664538 471.272564 
L 318.655937 472.764322 
L 320.647335 472.740008 
L 322.638734 477.250774 
L 324.630133 483.220928 
L 326.621532 488.485594 
L 328.612931 492.350825 
L 330.60433 497.08369 
L 332.595728 502.171549 
L 334.587127 505.282154 
L 336.578526 506.2432 
L 338.569925 507.475844 
L 340.561324 509.936704 
L 342.552723 513.001076 
L 346.53552 518.229306 
L 348.526919 520.569392 
L 350.518318 522.278675 
L 352.509717 523.211487 
L 354.501116 523.313681 
L 356.492515 522.969647 
L 358.483913 522.926026 
L 362.466711 521.178202 
L 364.45811 519.532354 
L 366.449509 516.907678 
L 368.440908 513.315497 
L 372.423705 502.217638 
L 374.415104 494.810161 
L 378.397902 481.527177 
L 384.372098 452.179685 
L 388.354896 428.479361 
L 390.346295 417.281267 
L 392.337694 408.516162 
L 394.329092 401.855472 
L 396.320491 398.778544 
L 398.31189 398.440098 
L 400.303289 397.661884 
L 402.294688 394.772869 
L 404.286087 395.36121 
L 406.277485 397.072599 
L 410.260283 398.416582 
L 412.251682 400.038478 
L 414.243081 406.045213 
L 416.23448 410.701868 
L 418.225878 416.61294 
L 420.217277 420.757608 
L 424.200075 434.238666 
L 426.191474 435.933071 
L 428.182873 439.656188 
L 430.174272 444.43086 
L 432.16567 449.990931 
L 434.157069 450.910895 
L 436.148468 452.9031 
L 438.139867 461.258775 
L 440.131266 469.033003 
L 442.122665 473.092171 
L 446.105462 473.681238 
L 448.096861 474.965125 
L 452.079659 470.032299 
L 454.071058 468.796244 
L 456.062456 469.762298 
L 458.053855 473.339672 
L 460.045254 476.548262 
L 462.036653 481.416709 
L 464.028052 485.620675 
L 466.019451 490.140152 
L 468.010849 494.361973 
L 470.002248 496.677091 
L 471.993647 499.837923 
L 475.976445 507.054511 
L 477.967844 509.068998 
L 479.959242 512.642816 
L 481.950641 516.978009 
L 483.94204 519.426821 
L 485.933439 520.920321 
L 487.924838 521.561284 
L 489.916237 521.446534 
L 491.907635 519.428781 
L 493.899034 516.617499 
L 495.890433 512.432113 
L 497.881832 507.524909 
L 499.873231 501.093502 
L 501.86463 491.367497 
L 503.856028 480.229791 
L 505.847427 471.192725 
L 507.838826 460.232769 
L 509.830225 444.916499 
L 511.821624 435.375649 
L 513.813023 430.285467 
L 515.804421 423.650979 
L 517.79582 408.126402 
L 519.787219 390.4887 
L 521.778618 380.753404 
L 523.770017 372.161333 
L 525.761416 364.240636 
L 527.752815 361.292974 
L 529.744213 360.977755 
L 531.735612 362.137165 
L 533.727011 365.426392 
L 535.71841 370.397178 
L 537.709809 376.734447 
L 539.701208 380.575435 
L 541.692606 385.059275 
L 543.684005 392.190362 
L 545.675404 393.403337 
L 547.666803 391.964127 
L 549.658202 389.789091 
L 551.649601 389.706639 
L 553.640999 390.054375 
L 555.632398 396.024529 
L 559.615196 416.53194 
L 561.606595 430.007046 
L 563.597994 440.302377 
L 565.589392 451.634383 
L 567.580791 459.693492 
L 569.57219 461.519341 
L 571.563589 463.951241 
L 573.554988 468.843639 
L 575.546387 476.816377 
L 577.537785 484.079054 
L 579.529184 488.266545 
L 581.520583 495.584891 
L 583.511982 503.396063 
L 585.503381 507.755136 
L 587.49478 509.763744 
L 589.486178 510.996896 
L 591.477577 513.476554 
L 593.468976 515.418315 
L 597.451774 515.673873 
L 599.443173 515.583872 
L 601.434571 516.317159 
L 603.42597 515.435081 
L 605.417369 514.208752 
L 609.400167 514.349777 
L 613.382964 517.054727 
L 615.374363 518.992641 
L 617.365762 520.278487 
L 619.357161 521.404872 
L 621.34856 522.746533 
L 623.339959 523.331318 
L 625.331358 524.063153 
L 627.322756 524.240469 
L 629.314155 524.007919 
L 631.305554 523.141011 
L 633.296953 522.023408 
L 635.288352 519.94505 
L 637.279751 516.54216 
L 639.271149 513.390691 
L 641.262548 509.414048 
L 645.245346 494.751298 
L 647.236745 490.32204 
L 649.228144 484.206579 
L 651.219542 477.359718 
L 653.210941 468.872309 
L 655.20234 464.758343 
L 657.193739 461.065274 
L 661.176537 451.838191 
L 663.167935 445.272147 
L 665.159334 447.525135 
L 667.150733 451.283236 
L 669.142132 449.642542 
L 671.133531 447.792596 
L 673.12493 451.279897 
L 675.116328 456.108859 
L 677.107727 452.611106 
L 677.107727 452.611106 
" style="fill:none;stroke:#ff7f0e;stroke-linecap:square;stroke-width:1.5;"/>
   </g>
   <g id="line2d_15">
    <path clip-path="url(#pc7b255a0c0)" d="M 85.662273 626.877977 
L 93.627868 626.877977 
L 99.602065 610.331676 
L 101.593463 599.300809 
L 103.584862 577.239075 
L 107.56766 500.023005 
L 109.559059 483.476704 
L 113.541856 483.476704 
L 115.533255 477.96127 
L 127.481648 477.96127 
L 129.473047 472.445837 
L 143.412839 472.445837 
L 145.404238 477.96127 
L 147.395637 472.445837 
L 149.387036 477.96127 
L 165.318226 477.96127 
L 167.309625 483.476704 
L 169.301024 483.476704 
L 173.283822 505.538438 
L 175.27522 511.053872 
L 177.266619 527.600172 
L 179.258018 549.661907 
L 183.240816 560.692774 
L 185.232215 577.239075 
L 187.223613 588.269942 
L 189.215012 593.785376 
L 193.19781 593.785376 
L 203.154804 621.362544 
L 211.120399 621.362544 
L 213.111798 615.84711 
L 215.103197 615.84711 
L 217.094596 610.331676 
L 227.05159 555.17734 
L 229.042989 538.63104 
L 235.017185 505.538438 
L 237.008584 488.992137 
L 238.999983 483.476704 
L 248.956977 483.476704 
L 250.948376 477.96127 
L 258.913972 477.96127 
L 260.90537 472.445837 
L 262.896769 477.96127 
L 264.888168 477.96127 
L 266.879567 472.445837 
L 274.845162 472.445837 
L 276.836561 477.96127 
L 286.793555 477.96127 
L 288.784954 483.476704 
L 310.690341 483.476704 
L 312.68174 494.507571 
L 314.673139 511.053872 
L 316.664538 522.084739 
L 318.655937 522.084739 
L 320.647335 527.600172 
L 322.638734 538.63104 
L 324.630133 555.17734 
L 332.595728 599.300809 
L 334.587127 599.300809 
L 336.578526 604.816243 
L 338.569925 604.816243 
L 348.526919 632.393411 
L 362.466711 632.393411 
L 368.440908 615.84711 
L 372.423705 593.785376 
L 378.397902 544.146473 
L 380.389301 516.569305 
L 382.380699 494.507571 
L 386.363497 483.476704 
L 388.354896 483.476704 
L 390.346295 477.96127 
L 422.208676 477.96127 
L 424.200075 483.476704 
L 436.148468 483.476704 
L 440.131266 516.569305 
L 442.122665 527.600172 
L 448.096861 527.600172 
L 452.079659 516.569305 
L 456.062456 516.569305 
L 466.019451 571.723641 
L 470.002248 582.754508 
L 471.993647 593.785376 
L 479.959242 615.84711 
L 481.950641 626.877977 
L 483.94204 626.877977 
L 485.933439 632.393411 
L 489.916237 632.393411 
L 493.899034 621.362544 
L 495.890433 610.331676 
L 497.881832 604.816243 
L 499.873231 588.269942 
L 501.86463 566.208208 
L 503.856028 538.63104 
L 507.838826 494.507571 
L 509.830225 483.476704 
L 517.79582 483.476704 
L 519.787219 477.96127 
L 527.752815 477.96127 
L 529.744213 472.445837 
L 541.692606 472.445837 
L 543.684005 477.96127 
L 553.640999 477.96127 
L 555.632398 472.445837 
L 557.623797 477.96127 
L 561.606595 477.96127 
L 563.597994 483.476704 
L 565.589392 483.476704 
L 567.580791 494.507571 
L 569.57219 494.507571 
L 573.554988 516.569305 
L 575.546387 538.63104 
L 577.537785 555.17734 
L 579.529184 566.208208 
L 583.511982 599.300809 
L 589.486178 615.84711 
L 591.477577 615.84711 
L 593.468976 621.362544 
L 603.42597 621.362544 
L 605.417369 615.84711 
L 607.408768 621.362544 
L 611.391566 621.362544 
L 613.382964 626.877977 
L 615.374363 626.877977 
L 617.365762 632.393411 
L 625.331358 632.393411 
L 627.322756 637.908844 
L 629.314155 632.393411 
L 633.296953 632.393411 
L 639.271149 615.84711 
L 641.262548 604.816243 
L 643.253947 588.269942 
L 647.236745 566.208208 
L 651.219542 533.115606 
L 653.210941 511.053872 
L 655.20234 500.023005 
L 661.176537 483.476704 
L 673.12493 483.476704 
L 675.116328 488.992137 
L 677.107727 483.476704 
L 677.107727 483.476704 
" style="fill:none;stroke:#2ca02c;stroke-linecap:square;stroke-width:1.5;"/>
   </g>
   <g id="line2d_16">
    <path clip-path="url(#pc7b255a0c0)" d="M 85.662273 422.806934 
L 101.593463 422.806934 
L 103.584862 428.322368 
L 105.576261 428.322368 
L 107.56766 422.806934 
L 109.559059 411.776067 
L 113.541856 312.498262 
L 115.533255 284.921094 
L 119.516053 251.828493 
L 121.507452 224.251325 
L 123.498851 213.220458 
L 125.490249 213.220458 
L 129.473047 202.18959 
L 131.464446 207.705024 
L 133.455845 224.251325 
L 135.447244 229.766758 
L 137.438642 229.766758 
L 139.430041 240.797625 
L 141.42144 257.343926 
L 143.412839 268.374793 
L 147.395637 301.467395 
L 149.387036 334.559997 
L 151.378434 351.106297 
L 153.369833 334.559997 
L 155.361232 329.044563 
L 157.352631 340.07543 
L 159.34403 345.590864 
L 161.335429 345.590864 
L 163.326827 356.621731 
L 165.318226 384.198899 
L 167.309625 400.7452 
L 169.301024 411.776067 
L 171.292423 417.291501 
L 177.266619 417.291501 
L 179.258018 422.806934 
L 235.017185 422.806934 
L 238.999983 411.776067 
L 240.991382 411.776067 
L 242.982781 406.260633 
L 244.97418 406.260633 
L 246.965579 400.7452 
L 250.948376 301.467395 
L 252.939775 268.374793 
L 254.931174 246.313059 
L 258.913972 224.251325 
L 262.896769 235.282192 
L 264.888168 229.766758 
L 266.879567 229.766758 
L 270.862365 251.828493 
L 274.845162 284.921094 
L 278.82796 340.07543 
L 282.810758 373.168032 
L 284.802156 378.683465 
L 288.784954 400.7452 
L 294.759151 400.7452 
L 296.750549 406.260633 
L 300.733347 406.260633 
L 302.724746 411.776067 
L 306.707544 411.776067 
L 308.698942 417.291501 
L 314.673139 417.291501 
L 316.664538 422.806934 
L 382.380699 422.806934 
L 384.372098 417.291501 
L 386.363497 406.260633 
L 390.346295 351.106297 
L 392.337694 329.044563 
L 394.329092 312.498262 
L 396.320491 306.982829 
L 398.31189 306.982829 
L 402.294688 295.951961 
L 404.286087 295.951961 
L 408.268884 306.982829 
L 410.260283 306.982829 
L 412.251682 312.498262 
L 414.243081 329.044563 
L 416.23448 340.07543 
L 418.225878 356.621731 
L 420.217277 367.652598 
L 422.208676 384.198899 
L 424.200075 395.229766 
L 432.16567 417.291501 
L 440.131266 417.291501 
L 442.122665 422.806934 
L 497.881832 422.806934 
L 499.873231 428.322368 
L 501.86463 422.806934 
L 507.838826 422.806934 
L 513.813023 389.714333 
L 515.804421 362.137165 
L 517.79582 318.013696 
L 519.787219 279.405661 
L 521.778618 251.828493 
L 523.770017 229.766758 
L 525.761416 213.220458 
L 529.744213 213.220458 
L 533.727011 224.251325 
L 535.71841 235.282192 
L 537.709809 251.828493 
L 541.692606 273.890227 
L 543.684005 290.436528 
L 545.675404 290.436528 
L 547.666803 284.921094 
L 553.640999 284.921094 
L 555.632398 301.467395 
L 559.615196 356.621731 
L 561.606595 389.714333 
L 563.597994 406.260633 
L 567.580791 417.291501 
L 575.546387 417.291501 
L 577.537785 422.806934 
L 655.20234 422.806934 
L 657.193739 417.291501 
L 661.176537 417.291501 
L 663.167935 411.776067 
L 665.159334 411.776067 
L 667.150733 417.291501 
L 669.142132 417.291501 
L 671.133531 411.776067 
L 673.12493 417.291501 
L 677.107727 417.291501 
L 677.107727 417.291501 
" style="fill:none;stroke:#d62728;stroke-linecap:square;stroke-width:1.5;"/>
   </g>
   <g id="patch_3">
    <path d="M 56.09 695.2 
L 56.09 103.68 
" style="fill:none;stroke:#000000;stroke-linecap:square;stroke-linejoin:miter;stroke-width:0.8;"/>
   </g>
   <g id="patch_4">
    <path d="M 706.68 695.2 
L 706.68 103.68 
" style="fill:none;stroke:#000000;stroke-linecap:square;stroke-linejoin:miter;stroke-width:0.8;"/>
   </g>
   <g id="patch_5">
    <path d="M 56.09 695.2 
L 706.68 695.2 
" style="fill:none;stroke:#000000;stroke-linecap:square;stroke-linejoin:miter;stroke-width:0.8;"/>
   </g>
   <g id="patch_6">
    <path d="M 56.09 103.68 
L 706.68 103.68 
" style="fill:none;stroke:#000000;stroke-linecap:square;stroke-linejoin:miter;stroke-width:0.8;"/>
   </g>
   <g id="text_13">
    <!-- Plot of Train Data vs MCMC Uncertainty  -->
    <defs>
     <path d="M 19.671875 64.796875 
L 19.671875 37.40625 
L 32.078125 37.40625 
Q 38.96875 37.40625 42.71875 40.96875 
Q 46.484375 44.53125 46.484375 51.125 
Q 46.484375 57.671875 42.71875 61.234375 
Q 38.96875 64.796875 32.078125 64.796875 
z
M 9.8125 72.90625 
L 32.078125 72.90625 
Q 44.34375 72.90625 50.609375 67.359375 
Q 56.890625 61.8125 56.890625 51.125 
Q 56.890625 40.328125 50.609375 34.8125 
Q 44.34375 29.296875 32.078125 29.296875 
L 19.671875 29.296875 
L 19.671875 0 
L 9.8125 0 
z
" id="DejaVuSans-50"/>
     <path d="M 9.421875 75.984375 
L 18.40625 75.984375 
L 18.40625 0 
L 9.421875 0 
z
" id="DejaVuSans-6c"/>
     <path d="M 30.609375 48.390625 
Q 23.390625 48.390625 19.1875 42.75 
Q 14.984375 37.109375 14.984375 27.296875 
Q 14.984375 17.484375 19.15625 11.84375 
Q 23.34375 6.203125 30.609375 6.203125 
Q 37.796875 6.203125 41.984375 11.859375 
Q 46.1875 17.53125 46.1875 27.296875 
Q 46.1875 37.015625 41.984375 42.703125 
Q 37.796875 48.390625 30.609375 48.390625 
z
M 30.609375 56 
Q 42.328125 56 49.015625 48.375 
Q 55.71875 40.765625 55.71875 27.296875 
Q 55.71875 13.875 49.015625 6.21875 
Q 42.328125 -1.421875 30.609375 -1.421875 
Q 18.84375 -1.421875 12.171875 6.21875 
Q 5.515625 13.875 5.515625 27.296875 
Q 5.515625 40.765625 12.171875 48.375 
Q 18.84375 56 30.609375 56 
z
" id="DejaVuSans-6f"/>
     <path d="M 18.3125 70.21875 
L 18.3125 54.6875 
L 36.8125 54.6875 
L 36.8125 47.703125 
L 18.3125 47.703125 
L 18.3125 18.015625 
Q 18.3125 11.328125 20.140625 9.421875 
Q 21.96875 7.515625 27.59375 7.515625 
L 36.8125 7.515625 
L 36.8125 0 
L 27.59375 0 
Q 17.1875 0 13.234375 3.875 
Q 9.28125 7.765625 9.28125 18.015625 
L 9.28125 47.703125 
L 2.6875 47.703125 
L 2.6875 54.6875 
L 9.28125 54.6875 
L 9.28125 70.21875 
z
" id="DejaVuSans-74"/>
     <path id="DejaVuSans-20"/>
     <path d="M 37.109375 75.984375 
L 37.109375 68.5 
L 28.515625 68.5 
Q 23.6875 68.5 21.796875 66.546875 
Q 19.921875 64.59375 19.921875 59.515625 
L 19.921875 54.6875 
L 34.71875 54.6875 
L 34.71875 47.703125 
L 19.921875 47.703125 
L 19.921875 0 
L 10.890625 0 
L 10.890625 47.703125 
L 2.296875 47.703125 
L 2.296875 54.6875 
L 10.890625 54.6875 
L 10.890625 58.5 
Q 10.890625 67.625 15.140625 71.796875 
Q 19.390625 75.984375 28.609375 75.984375 
z
" id="DejaVuSans-66"/>
     <path d="M -0.296875 72.90625 
L 61.375 72.90625 
L 61.375 64.59375 
L 35.5 64.59375 
L 35.5 0 
L 25.59375 0 
L 25.59375 64.59375 
L -0.296875 64.59375 
z
" id="DejaVuSans-54"/>
     <path d="M 41.109375 46.296875 
Q 39.59375 47.171875 37.8125 47.578125 
Q 36.03125 48 33.890625 48 
Q 26.265625 48 22.1875 43.046875 
Q 18.109375 38.09375 18.109375 28.8125 
L 18.109375 0 
L 9.078125 0 
L 9.078125 54.6875 
L 18.109375 54.6875 
L 18.109375 46.1875 
Q 20.953125 51.171875 25.484375 53.578125 
Q 30.03125 56 36.53125 56 
Q 37.453125 56 38.578125 55.875 
Q 39.703125 55.765625 41.0625 55.515625 
z
" id="DejaVuSans-72"/>
     <path d="M 34.28125 27.484375 
Q 23.390625 27.484375 19.1875 25 
Q 14.984375 22.515625 14.984375 16.5 
Q 14.984375 11.71875 18.140625 8.90625 
Q 21.296875 6.109375 26.703125 6.109375 
Q 34.1875 6.109375 38.703125 11.40625 
Q 43.21875 16.703125 43.21875 25.484375 
L 43.21875 27.484375 
z
M 52.203125 31.203125 
L 52.203125 0 
L 43.21875 0 
L 43.21875 8.296875 
Q 40.140625 3.328125 35.546875 0.953125 
Q 30.953125 -1.421875 24.3125 -1.421875 
Q 15.921875 -1.421875 10.953125 3.296875 
Q 6 8.015625 6 15.921875 
Q 6 25.140625 12.171875 29.828125 
Q 18.359375 34.515625 30.609375 34.515625 
L 43.21875 34.515625 
L 43.21875 35.40625 
Q 43.21875 41.609375 39.140625 45 
Q 35.0625 48.390625 27.6875 48.390625 
Q 23 48.390625 18.546875 47.265625 
Q 14.109375 46.140625 10.015625 43.890625 
L 10.015625 52.203125 
Q 14.9375 54.109375 19.578125 55.046875 
Q 24.21875 56 28.609375 56 
Q 40.484375 56 46.34375 49.84375 
Q 52.203125 43.703125 52.203125 31.203125 
z
" id="DejaVuSans-61"/>
     <path d="M 9.421875 54.6875 
L 18.40625 54.6875 
L 18.40625 0 
L 9.421875 0 
z
M 9.421875 75.984375 
L 18.40625 75.984375 
L 18.40625 64.59375 
L 9.421875 64.59375 
z
" id="DejaVuSans-69"/>
     <path d="M 54.890625 33.015625 
L 54.890625 0 
L 45.90625 0 
L 45.90625 32.71875 
Q 45.90625 40.484375 42.875 44.328125 
Q 39.84375 48.1875 33.796875 48.1875 
Q 26.515625 48.1875 22.3125 43.546875 
Q 18.109375 38.921875 18.109375 30.90625 
L 18.109375 0 
L 9.078125 0 
L 9.078125 54.6875 
L 18.109375 54.6875 
L 18.109375 46.1875 
Q 21.34375 51.125 25.703125 53.5625 
Q 30.078125 56 35.796875 56 
Q 45.21875 56 50.046875 50.171875 
Q 54.890625 44.34375 54.890625 33.015625 
z
" id="DejaVuSans-6e"/>
     <path d="M 19.671875 64.796875 
L 19.671875 8.109375 
L 31.59375 8.109375 
Q 46.6875 8.109375 53.6875 14.9375 
Q 60.6875 21.78125 60.6875 36.53125 
Q 60.6875 51.171875 53.6875 57.984375 
Q 46.6875 64.796875 31.59375 64.796875 
z
M 9.8125 72.90625 
L 30.078125 72.90625 
Q 51.265625 72.90625 61.171875 64.09375 
Q 71.09375 55.28125 71.09375 36.53125 
Q 71.09375 17.671875 61.125 8.828125 
Q 51.171875 0 30.078125 0 
L 9.8125 0 
z
" id="DejaVuSans-44"/>
     <path d="M 2.984375 54.6875 
L 12.5 54.6875 
L 29.59375 8.796875 
L 46.6875 54.6875 
L 56.203125 54.6875 
L 35.6875 0 
L 23.484375 0 
z
" id="DejaVuSans-76"/>
     <path d="M 44.28125 53.078125 
L 44.28125 44.578125 
Q 40.484375 46.53125 36.375 47.5 
Q 32.28125 48.484375 27.875 48.484375 
Q 21.1875 48.484375 17.84375 46.4375 
Q 14.5 44.390625 14.5 40.28125 
Q 14.5 37.15625 16.890625 35.375 
Q 19.28125 33.59375 26.515625 31.984375 
L 29.59375 31.296875 
Q 39.15625 29.25 43.1875 25.515625 
Q 47.21875 21.78125 47.21875 15.09375 
Q 47.21875 7.46875 41.1875 3.015625 
Q 35.15625 -1.421875 24.609375 -1.421875 
Q 20.21875 -1.421875 15.453125 -0.5625 
Q 10.6875 0.296875 5.421875 2 
L 5.421875 11.28125 
Q 10.40625 8.6875 15.234375 7.390625 
Q 20.0625 6.109375 24.8125 6.109375 
Q 31.15625 6.109375 34.5625 8.28125 
Q 37.984375 10.453125 37.984375 14.40625 
Q 37.984375 18.0625 35.515625 20.015625 
Q 33.0625 21.96875 24.703125 23.78125 
L 21.578125 24.515625 
Q 13.234375 26.265625 9.515625 29.90625 
Q 5.8125 33.546875 5.8125 39.890625 
Q 5.8125 47.609375 11.28125 51.796875 
Q 16.75 56 26.8125 56 
Q 31.78125 56 36.171875 55.265625 
Q 40.578125 54.546875 44.28125 53.078125 
z
" id="DejaVuSans-73"/>
     <path d="M 9.8125 72.90625 
L 24.515625 72.90625 
L 43.109375 23.296875 
L 61.8125 72.90625 
L 76.515625 72.90625 
L 76.515625 0 
L 66.890625 0 
L 66.890625 64.015625 
L 48.09375 14.015625 
L 38.1875 14.015625 
L 19.390625 64.015625 
L 19.390625 0 
L 9.8125 0 
z
" id="DejaVuSans-4d"/>
     <path d="M 64.40625 67.28125 
L 64.40625 56.890625 
Q 59.421875 61.53125 53.78125 63.8125 
Q 48.140625 66.109375 41.796875 66.109375 
Q 29.296875 66.109375 22.65625 58.46875 
Q 16.015625 50.828125 16.015625 36.375 
Q 16.015625 21.96875 22.65625 14.328125 
Q 29.296875 6.6875 41.796875 6.6875 
Q 48.140625 6.6875 53.78125 8.984375 
Q 59.421875 11.28125 64.40625 15.921875 
L 64.40625 5.609375 
Q 59.234375 2.09375 53.4375 0.328125 
Q 47.65625 -1.421875 41.21875 -1.421875 
Q 24.65625 -1.421875 15.125 8.703125 
Q 5.609375 18.84375 5.609375 36.375 
Q 5.609375 53.953125 15.125 64.078125 
Q 24.65625 74.21875 41.21875 74.21875 
Q 47.75 74.21875 53.53125 72.484375 
Q 59.328125 70.75 64.40625 67.28125 
z
" id="DejaVuSans-43"/>
     <path d="M 8.6875 72.90625 
L 18.609375 72.90625 
L 18.609375 28.609375 
Q 18.609375 16.890625 22.84375 11.734375 
Q 27.09375 6.59375 36.625 6.59375 
Q 46.09375 6.59375 50.34375 11.734375 
Q 54.59375 16.890625 54.59375 28.609375 
L 54.59375 72.90625 
L 64.5 72.90625 
L 64.5 27.390625 
Q 64.5 13.140625 57.4375 5.859375 
Q 50.390625 -1.421875 36.625 -1.421875 
Q 22.796875 -1.421875 15.734375 5.859375 
Q 8.6875 13.140625 8.6875 27.390625 
z
" id="DejaVuSans-55"/>
     <path d="M 48.78125 52.59375 
L 48.78125 44.1875 
Q 44.96875 46.296875 41.140625 47.34375 
Q 37.3125 48.390625 33.40625 48.390625 
Q 24.65625 48.390625 19.8125 42.84375 
Q 14.984375 37.3125 14.984375 27.296875 
Q 14.984375 17.28125 19.8125 11.734375 
Q 24.65625 6.203125 33.40625 6.203125 
Q 37.3125 6.203125 41.140625 7.25 
Q 44.96875 8.296875 48.78125 10.40625 
L 48.78125 2.09375 
Q 45.015625 0.34375 40.984375 -0.53125 
Q 36.96875 -1.421875 32.421875 -1.421875 
Q 20.0625 -1.421875 12.78125 6.34375 
Q 5.515625 14.109375 5.515625 27.296875 
Q 5.515625 40.671875 12.859375 48.328125 
Q 20.21875 56 33.015625 56 
Q 37.15625 56 41.109375 55.140625 
Q 45.0625 54.296875 48.78125 52.59375 
z
" id="DejaVuSans-63"/>
     <path d="M 56.203125 29.59375 
L 56.203125 25.203125 
L 14.890625 25.203125 
Q 15.484375 15.921875 20.484375 11.0625 
Q 25.484375 6.203125 34.421875 6.203125 
Q 39.59375 6.203125 44.453125 7.46875 
Q 49.3125 8.734375 54.109375 11.28125 
L 54.109375 2.78125 
Q 49.265625 0.734375 44.1875 -0.34375 
Q 39.109375 -1.421875 33.890625 -1.421875 
Q 20.796875 -1.421875 13.15625 6.1875 
Q 5.515625 13.8125 5.515625 26.8125 
Q 5.515625 40.234375 12.765625 48.109375 
Q 20.015625 56 32.328125 56 
Q 43.359375 56 49.78125 48.890625 
Q 56.203125 41.796875 56.203125 29.59375 
z
M 47.21875 32.234375 
Q 47.125 39.59375 43.09375 43.984375 
Q 39.0625 48.390625 32.421875 48.390625 
Q 24.90625 48.390625 20.390625 44.140625 
Q 15.875 39.890625 15.1875 32.171875 
z
" id="DejaVuSans-65"/>
     <path d="M 32.171875 -5.078125 
Q 28.375 -14.84375 24.75 -17.8125 
Q 21.140625 -20.796875 15.09375 -20.796875 
L 7.90625 -20.796875 
L 7.90625 -13.28125 
L 13.1875 -13.28125 
Q 16.890625 -13.28125 18.9375 -11.515625 
Q 21 -9.765625 23.484375 -3.21875 
L 25.09375 0.875 
L 2.984375 54.6875 
L 12.5 54.6875 
L 29.59375 11.921875 
L 46.6875 54.6875 
L 56.203125 54.6875 
z
" id="DejaVuSans-79"/>
    </defs>
    <g transform="translate(260.891875 97.68)scale(0.12 -0.12)">
     <use xlink:href="#DejaVuSans-50"/>
     <use x="60.302734" xlink:href="#DejaVuSans-6c"/>
     <use x="88.085938" xlink:href="#DejaVuSans-6f"/>
     <use x="149.267578" xlink:href="#DejaVuSans-74"/>
     <use x="188.476562" xlink:href="#DejaVuSans-20"/>
     <use x="220.263672" xlink:href="#DejaVuSans-6f"/>
     <use x="281.445312" xlink:href="#DejaVuSans-66"/>
     <use x="316.650391" xlink:href="#DejaVuSans-20"/>
     <use x="348.4375" xlink:href="#DejaVuSans-54"/>
     <use x="409.302734" xlink:href="#DejaVuSans-72"/>
     <use x="450.416016" xlink:href="#DejaVuSans-61"/>
     <use x="511.695312" xlink:href="#DejaVuSans-69"/>
     <use x="539.478516" xlink:href="#DejaVuSans-6e"/>
     <use x="602.857422" xlink:href="#DejaVuSans-20"/>
     <use x="634.644531" xlink:href="#DejaVuSans-44"/>
     <use x="711.646484" xlink:href="#DejaVuSans-61"/>
     <use x="772.925781" xlink:href="#DejaVuSans-74"/>
     <use x="812.134766" xlink:href="#DejaVuSans-61"/>
     <use x="873.414062" xlink:href="#DejaVuSans-20"/>
     <use x="905.201172" xlink:href="#DejaVuSans-76"/>
     <use x="964.380859" xlink:href="#DejaVuSans-73"/>
     <use x="1016.480469" xlink:href="#DejaVuSans-20"/>
     <use x="1048.267578" xlink:href="#DejaVuSans-4d"/>
     <use x="1134.546875" xlink:href="#DejaVuSans-43"/>
     <use x="1204.371094" xlink:href="#DejaVuSans-4d"/>
     <use x="1290.650391" xlink:href="#DejaVuSans-43"/>
     <use x="1360.474609" xlink:href="#DejaVuSans-20"/>
     <use x="1392.261719" xlink:href="#DejaVuSans-55"/>
     <use x="1465.455078" xlink:href="#DejaVuSans-6e"/>
     <use x="1528.833984" xlink:href="#DejaVuSans-63"/>
     <use x="1583.814453" xlink:href="#DejaVuSans-65"/>
     <use x="1645.337891" xlink:href="#DejaVuSans-72"/>
     <use x="1686.451172" xlink:href="#DejaVuSans-74"/>
     <use x="1725.660156" xlink:href="#DejaVuSans-61"/>
     <use x="1786.939453" xlink:href="#DejaVuSans-69"/>
     <use x="1814.722656" xlink:href="#DejaVuSans-6e"/>
     <use x="1878.101562" xlink:href="#DejaVuSans-74"/>
     <use x="1917.310547" xlink:href="#DejaVuSans-79"/>
     <use x="1976.490234" xlink:href="#DejaVuSans-20"/>
    </g>
   </g>
   <g id="legend_1">
    <g id="patch_7">
     <path d="M 569.803438 170.3925 
L 699.68 170.3925 
Q 701.68 170.3925 701.68 168.3925 
L 701.68 110.68 
Q 701.68 108.68 699.68 108.68 
L 569.803438 108.68 
Q 567.803438 108.68 567.803438 110.68 
L 567.803438 168.3925 
Q 567.803438 170.3925 569.803438 170.3925 
z
" style="fill:#ffffff;opacity:0.8;stroke:#cccccc;stroke-linejoin:miter;"/>
    </g>
    <g id="line2d_17">
     <path d="M 571.803438 116.778437 
L 591.803438 116.778437 
" style="fill:none;stroke:#1f77b4;stroke-linecap:square;stroke-width:1.5;"/>
    </g>
    <g id="line2d_18"/>
    <g id="text_14">
     <!-- actual -->
     <defs>
      <path d="M 8.5 21.578125 
L 8.5 54.6875 
L 17.484375 54.6875 
L 17.484375 21.921875 
Q 17.484375 14.15625 20.5 10.265625 
Q 23.53125 6.390625 29.59375 6.390625 
Q 36.859375 6.390625 41.078125 11.03125 
Q 45.3125 15.671875 45.3125 23.6875 
L 45.3125 54.6875 
L 54.296875 54.6875 
L 54.296875 0 
L 45.3125 0 
L 45.3125 8.40625 
Q 42.046875 3.421875 37.71875 1 
Q 33.40625 -1.421875 27.6875 -1.421875 
Q 18.265625 -1.421875 13.375 4.4375 
Q 8.5 10.296875 8.5 21.578125 
z
M 31.109375 56 
z
" id="DejaVuSans-75"/>
     </defs>
     <g transform="translate(599.803438 120.278437)scale(0.1 -0.1)">
      <use xlink:href="#DejaVuSans-61"/>
      <use x="61.279297" xlink:href="#DejaVuSans-63"/>
      <use x="116.259766" xlink:href="#DejaVuSans-74"/>
      <use x="155.46875" xlink:href="#DejaVuSans-75"/>
      <use x="218.847656" xlink:href="#DejaVuSans-61"/>
      <use x="280.126953" xlink:href="#DejaVuSans-6c"/>
     </g>
    </g>
    <g id="line2d_19">
     <path d="M 571.803438 131.456562 
L 591.803438 131.456562 
" style="fill:none;stroke:#ff7f0e;stroke-linecap:square;stroke-width:1.5;"/>
    </g>
    <g id="line2d_20"/>
    <g id="text_15">
     <!-- pred. (mean) -->
     <defs>
      <path d="M 18.109375 8.203125 
L 18.109375 -20.796875 
L 9.078125 -20.796875 
L 9.078125 54.6875 
L 18.109375 54.6875 
L 18.109375 46.390625 
Q 20.953125 51.265625 25.265625 53.625 
Q 29.59375 56 35.59375 56 
Q 45.5625 56 51.78125 48.09375 
Q 58.015625 40.1875 58.015625 27.296875 
Q 58.015625 14.40625 51.78125 6.484375 
Q 45.5625 -1.421875 35.59375 -1.421875 
Q 29.59375 -1.421875 25.265625 0.953125 
Q 20.953125 3.328125 18.109375 8.203125 
z
M 48.6875 27.296875 
Q 48.6875 37.203125 44.609375 42.84375 
Q 40.53125 48.484375 33.40625 48.484375 
Q 26.265625 48.484375 22.1875 42.84375 
Q 18.109375 37.203125 18.109375 27.296875 
Q 18.109375 17.390625 22.1875 11.75 
Q 26.265625 6.109375 33.40625 6.109375 
Q 40.53125 6.109375 44.609375 11.75 
Q 48.6875 17.390625 48.6875 27.296875 
z
" id="DejaVuSans-70"/>
      <path d="M 45.40625 46.390625 
L 45.40625 75.984375 
L 54.390625 75.984375 
L 54.390625 0 
L 45.40625 0 
L 45.40625 8.203125 
Q 42.578125 3.328125 38.25 0.953125 
Q 33.9375 -1.421875 27.875 -1.421875 
Q 17.96875 -1.421875 11.734375 6.484375 
Q 5.515625 14.40625 5.515625 27.296875 
Q 5.515625 40.1875 11.734375 48.09375 
Q 17.96875 56 27.875 56 
Q 33.9375 56 38.25 53.625 
Q 42.578125 51.265625 45.40625 46.390625 
z
M 14.796875 27.296875 
Q 14.796875 17.390625 18.875 11.75 
Q 22.953125 6.109375 30.078125 6.109375 
Q 37.203125 6.109375 41.296875 11.75 
Q 45.40625 17.390625 45.40625 27.296875 
Q 45.40625 37.203125 41.296875 42.84375 
Q 37.203125 48.484375 30.078125 48.484375 
Q 22.953125 48.484375 18.875 42.84375 
Q 14.796875 37.203125 14.796875 27.296875 
z
" id="DejaVuSans-64"/>
      <path d="M 31 75.875 
Q 24.46875 64.65625 21.28125 53.65625 
Q 18.109375 42.671875 18.109375 31.390625 
Q 18.109375 20.125 21.3125 9.0625 
Q 24.515625 -2 31 -13.1875 
L 23.1875 -13.1875 
Q 15.875 -1.703125 12.234375 9.375 
Q 8.59375 20.453125 8.59375 31.390625 
Q 8.59375 42.28125 12.203125 53.3125 
Q 15.828125 64.359375 23.1875 75.875 
z
" id="DejaVuSans-28"/>
      <path d="M 52 44.1875 
Q 55.375 50.25 60.0625 53.125 
Q 64.75 56 71.09375 56 
Q 79.640625 56 84.28125 50.015625 
Q 88.921875 44.046875 88.921875 33.015625 
L 88.921875 0 
L 79.890625 0 
L 79.890625 32.71875 
Q 79.890625 40.578125 77.09375 44.375 
Q 74.3125 48.1875 68.609375 48.1875 
Q 61.625 48.1875 57.5625 43.546875 
Q 53.515625 38.921875 53.515625 30.90625 
L 53.515625 0 
L 44.484375 0 
L 44.484375 32.71875 
Q 44.484375 40.625 41.703125 44.40625 
Q 38.921875 48.1875 33.109375 48.1875 
Q 26.21875 48.1875 22.15625 43.53125 
Q 18.109375 38.875 18.109375 30.90625 
L 18.109375 0 
L 9.078125 0 
L 9.078125 54.6875 
L 18.109375 54.6875 
L 18.109375 46.1875 
Q 21.1875 51.21875 25.484375 53.609375 
Q 29.78125 56 35.6875 56 
Q 41.65625 56 45.828125 52.96875 
Q 50 49.953125 52 44.1875 
z
" id="DejaVuSans-6d"/>
      <path d="M 8.015625 75.875 
L 15.828125 75.875 
Q 23.140625 64.359375 26.78125 53.3125 
Q 30.421875 42.28125 30.421875 31.390625 
Q 30.421875 20.453125 26.78125 9.375 
Q 23.140625 -1.703125 15.828125 -13.1875 
L 8.015625 -13.1875 
Q 14.5 -2 17.703125 9.0625 
Q 20.90625 20.125 20.90625 31.390625 
Q 20.90625 42.671875 17.703125 53.65625 
Q 14.5 64.65625 8.015625 75.875 
z
" id="DejaVuSans-29"/>
     </defs>
     <g transform="translate(599.803438 134.956562)scale(0.1 -0.1)">
      <use xlink:href="#DejaVuSans-70"/>
      <use x="63.476562" xlink:href="#DejaVuSans-72"/>
      <use x="104.558594" xlink:href="#DejaVuSans-65"/>
      <use x="166.082031" xlink:href="#DejaVuSans-64"/>
      <use x="229.558594" xlink:href="#DejaVuSans-2e"/>
      <use x="261.345703" xlink:href="#DejaVuSans-20"/>
      <use x="293.132812" xlink:href="#DejaVuSans-28"/>
      <use x="332.146484" xlink:href="#DejaVuSans-6d"/>
      <use x="429.558594" xlink:href="#DejaVuSans-65"/>
      <use x="491.082031" xlink:href="#DejaVuSans-61"/>
      <use x="552.361328" xlink:href="#DejaVuSans-6e"/>
      <use x="615.740234" xlink:href="#DejaVuSans-29"/>
     </g>
    </g>
    <g id="line2d_21">
     <path d="M 571.803438 146.134687 
L 591.803438 146.134687 
" style="fill:none;stroke:#2ca02c;stroke-linecap:square;stroke-width:1.5;"/>
    </g>
    <g id="line2d_22"/>
    <g id="text_16">
     <!-- pred.(5th percen.) -->
     <defs>
      <path d="M 10.796875 72.90625 
L 49.515625 72.90625 
L 49.515625 64.59375 
L 19.828125 64.59375 
L 19.828125 46.734375 
Q 21.96875 47.46875 24.109375 47.828125 
Q 26.265625 48.1875 28.421875 48.1875 
Q 40.625 48.1875 47.75 41.5 
Q 54.890625 34.8125 54.890625 23.390625 
Q 54.890625 11.625 47.5625 5.09375 
Q 40.234375 -1.421875 26.90625 -1.421875 
Q 22.3125 -1.421875 17.546875 -0.640625 
Q 12.796875 0.140625 7.71875 1.703125 
L 7.71875 11.625 
Q 12.109375 9.234375 16.796875 8.0625 
Q 21.484375 6.890625 26.703125 6.890625 
Q 35.15625 6.890625 40.078125 11.328125 
Q 45.015625 15.765625 45.015625 23.390625 
Q 45.015625 31 40.078125 35.4375 
Q 35.15625 39.890625 26.703125 39.890625 
Q 22.75 39.890625 18.8125 39.015625 
Q 14.890625 38.140625 10.796875 36.28125 
z
" id="DejaVuSans-35"/>
      <path d="M 54.890625 33.015625 
L 54.890625 0 
L 45.90625 0 
L 45.90625 32.71875 
Q 45.90625 40.484375 42.875 44.328125 
Q 39.84375 48.1875 33.796875 48.1875 
Q 26.515625 48.1875 22.3125 43.546875 
Q 18.109375 38.921875 18.109375 30.90625 
L 18.109375 0 
L 9.078125 0 
L 9.078125 75.984375 
L 18.109375 75.984375 
L 18.109375 46.1875 
Q 21.34375 51.125 25.703125 53.5625 
Q 30.078125 56 35.796875 56 
Q 45.21875 56 50.046875 50.171875 
Q 54.890625 44.34375 54.890625 33.015625 
z
" id="DejaVuSans-68"/>
     </defs>
     <g transform="translate(599.803438 149.634687)scale(0.1 -0.1)">
      <use xlink:href="#DejaVuSans-70"/>
      <use x="63.476562" xlink:href="#DejaVuSans-72"/>
      <use x="104.558594" xlink:href="#DejaVuSans-65"/>
      <use x="166.082031" xlink:href="#DejaVuSans-64"/>
      <use x="229.558594" xlink:href="#DejaVuSans-2e"/>
      <use x="261.345703" xlink:href="#DejaVuSans-28"/>
      <use x="300.359375" xlink:href="#DejaVuSans-35"/>
      <use x="363.982422" xlink:href="#DejaVuSans-74"/>
      <use x="403.191406" xlink:href="#DejaVuSans-68"/>
      <use x="466.570312" xlink:href="#DejaVuSans-20"/>
      <use x="498.357422" xlink:href="#DejaVuSans-70"/>
      <use x="561.833984" xlink:href="#DejaVuSans-65"/>
      <use x="623.357422" xlink:href="#DejaVuSans-72"/>
      <use x="664.439453" xlink:href="#DejaVuSans-63"/>
      <use x="719.419922" xlink:href="#DejaVuSans-65"/>
      <use x="780.943359" xlink:href="#DejaVuSans-6e"/>
      <use x="844.322266" xlink:href="#DejaVuSans-2e"/>
      <use x="876.109375" xlink:href="#DejaVuSans-29"/>
     </g>
    </g>
    <g id="line2d_23">
     <path d="M 571.803438 160.812812 
L 591.803438 160.812812 
" style="fill:none;stroke:#d62728;stroke-linecap:square;stroke-width:1.5;"/>
    </g>
    <g id="line2d_24"/>
    <g id="text_17">
     <!-- pred.(95th percen.) -->
     <defs>
      <path d="M 10.984375 1.515625 
L 10.984375 10.5 
Q 14.703125 8.734375 18.5 7.8125 
Q 22.3125 6.890625 25.984375 6.890625 
Q 35.75 6.890625 40.890625 13.453125 
Q 46.046875 20.015625 46.78125 33.40625 
Q 43.953125 29.203125 39.59375 26.953125 
Q 35.25 24.703125 29.984375 24.703125 
Q 19.046875 24.703125 12.671875 31.3125 
Q 6.296875 37.9375 6.296875 49.421875 
Q 6.296875 60.640625 12.9375 67.421875 
Q 19.578125 74.21875 30.609375 74.21875 
Q 43.265625 74.21875 49.921875 64.515625 
Q 56.59375 54.828125 56.59375 36.375 
Q 56.59375 19.140625 48.40625 8.859375 
Q 40.234375 -1.421875 26.421875 -1.421875 
Q 22.703125 -1.421875 18.890625 -0.6875 
Q 15.09375 0.046875 10.984375 1.515625 
z
M 30.609375 32.421875 
Q 37.25 32.421875 41.125 36.953125 
Q 45.015625 41.5 45.015625 49.421875 
Q 45.015625 57.28125 41.125 61.84375 
Q 37.25 66.40625 30.609375 66.40625 
Q 23.96875 66.40625 20.09375 61.84375 
Q 16.21875 57.28125 16.21875 49.421875 
Q 16.21875 41.5 20.09375 36.953125 
Q 23.96875 32.421875 30.609375 32.421875 
z
" id="DejaVuSans-39"/>
     </defs>
     <g transform="translate(599.803438 164.312812)scale(0.1 -0.1)">
      <use xlink:href="#DejaVuSans-70"/>
      <use x="63.476562" xlink:href="#DejaVuSans-72"/>
      <use x="104.558594" xlink:href="#DejaVuSans-65"/>
      <use x="166.082031" xlink:href="#DejaVuSans-64"/>
      <use x="229.558594" xlink:href="#DejaVuSans-2e"/>
      <use x="261.345703" xlink:href="#DejaVuSans-28"/>
      <use x="300.359375" xlink:href="#DejaVuSans-39"/>
      <use x="363.982422" xlink:href="#DejaVuSans-35"/>
      <use x="427.605469" xlink:href="#DejaVuSans-74"/>
      <use x="466.814453" xlink:href="#DejaVuSans-68"/>
      <use x="530.193359" xlink:href="#DejaVuSans-20"/>
      <use x="561.980469" xlink:href="#DejaVuSans-70"/>
      <use x="625.457031" xlink:href="#DejaVuSans-65"/>
      <use x="686.980469" xlink:href="#DejaVuSans-72"/>
      <use x="728.0625" xlink:href="#DejaVuSans-63"/>
      <use x="783.042969" xlink:href="#DejaVuSans-65"/>
      <use x="844.566406" xlink:href="#DejaVuSans-6e"/>
      <use x="907.945312" xlink:href="#DejaVuSans-2e"/>
      <use x="939.732422" xlink:href="#DejaVuSans-29"/>
     </g>
    </g>
   </g>
  </g>
 </g>
 <defs>
  <clipPath id="pc7b255a0c0">
   <rect height="591.52" width="650.59" x="56.09" y="103.68"/>
  </clipPath>
 </defs>
</svg>
