<?xml version="1.0" encoding="utf-8" standalone="no"?>
<!DOCTYPE svg PUBLIC "-//W3C//DTD SVG 1.1//EN"
  "http://www.w3.org/Graphics/SVG/1.1/DTD/svg11.dtd">
<!-- Created with matplotlib (http://matplotlib.org/) -->
<svg height="345.6pt" version="1.1" viewBox="0 0 460.8 345.6" width="460.8pt" xmlns="http://www.w3.org/2000/svg" xmlns:xlink="http://www.w3.org/1999/xlink">
 <defs>
  <style type="text/css">
*{stroke-linecap:butt;stroke-linejoin:round;}
  </style>
 </defs>
 <g id="figure_1">
  <g id="patch_1">
   <path d="M 0 345.6 
L 460.8 345.6 
L 460.8 0 
L 0 0 
z
" style="fill:#ffffff;"/>
  </g>
  <g id="axes_1">
   <g id="patch_2">
    <path d="M 57.6 307.584 
L 414.72 307.584 
L 414.72 41.472 
L 57.6 41.472 
z
" style="fill:#ffffff;"/>
   </g>
   <g id="PolyCollection_1">
    <path clip-path="url(#p70a4aeb887)" d="M 73.832727 61.378708 
L 73.832727 207.332632 
L 75.48072 206.022262 
L 77.128713 205.563987 
L 78.776705 205.361051 
L 80.424698 206.084712 
L 82.07269 206.492813 
L 83.720683 207.712566 
L 85.368676 208.651248 
L 87.016668 209.843399 
L 88.664661 209.429333 
L 90.312653 208.934501 
L 91.960646 209.869033 
L 93.608639 211.023968 
L 95.256631 213.07004 
L 96.904624 216.135383 
L 98.552617 226.509797 
L 100.200609 234.604453 
L 101.848602 240.921311 
L 103.496594 246.634202 
L 105.144587 254.964672 
L 106.79258 258.035497 
L 108.440572 258.981103 
L 110.088565 259.795314 
L 111.736557 258.885056 
L 113.38455 258.808835 
L 115.032543 259.179826 
L 116.680535 261.017404 
L 118.328528 263.424653 
L 119.976521 264.093835 
L 121.624513 265.006202 
L 123.272506 265.858945 
L 124.920498 266.101805 
L 126.568491 266.296792 
L 128.216484 265.181536 
L 129.864476 265.000362 
L 131.512469 265.484291 
L 133.160461 265.722587 
L 134.808454 266.01662 
L 136.456447 266.217776 
L 138.104439 266.621661 
L 139.752432 265.769547 
L 141.400425 264.81368 
L 143.048417 262.931374 
L 144.69641 260.122105 
L 146.344402 251.367105 
L 147.992395 241.516718 
L 149.640388 232.173147 
L 151.28838 223.483666 
L 152.936373 217.04405 
L 154.584365 212.416256 
L 156.232358 210.253777 
L 157.880351 208.609377 
L 159.528343 207.419556 
L 161.176336 206.530139 
L 162.824329 205.655938 
L 164.472321 205.248502 
L 166.120314 204.928423 
L 167.768306 204.580258 
L 169.416299 204.186269 
L 171.064292 203.712063 
L 172.712284 203.347018 
L 174.360277 202.896016 
L 176.008269 203.236195 
L 177.656262 202.994023 
L 179.304255 202.925572 
L 180.952247 203.533568 
L 182.60024 204.260776 
L 184.248233 205.283428 
L 185.896225 205.667898 
L 187.544218 206.302754 
L 189.19221 207.160133 
L 190.840203 207.417087 
L 192.488196 207.511744 
L 194.136188 208.282189 
L 195.784181 208.979746 
L 197.432174 211.043059 
L 199.080166 213.142268 
L 200.728159 215.131176 
L 202.376151 216.823435 
L 204.024144 218.569193 
L 205.672137 223.898452 
L 207.320129 228.679554 
L 208.968122 233.252073 
L 210.616114 238.946069 
L 212.264107 239.055117 
L 213.9121 239.401007 
L 215.560092 238.857252 
L 217.208085 239.99308 
L 218.856078 237.799257 
L 220.50407 237.359999 
L 222.152063 243.510304 
L 223.800055 247.078253 
L 225.448048 248.640945 
L 227.096041 251.975674 
L 228.744033 257.099126 
L 230.392026 259.734914 
L 232.040018 260.510572 
L 233.688011 260.757069 
L 235.336004 260.947863 
L 236.983996 261.353438 
L 238.631989 261.436158 
L 240.279982 262.44479 
L 241.927974 263.881973 
L 243.575967 265.314037 
L 245.223959 266.466898 
L 246.871952 267.313057 
L 248.519945 268.25346 
L 250.167937 268.418451 
L 251.81593 268.18152 
L 253.463922 267.995645 
L 255.111915 268.500447 
L 256.759908 268.42245 
L 258.4079 267.428469 
L 260.055893 266.708137 
L 261.703886 265.617463 
L 263.351878 263.471688 
L 264.999871 260.674508 
L 266.647863 256.265257 
L 268.295856 251.900708 
L 269.943849 242.695228 
L 271.591841 236.908791 
L 273.239834 231.441766 
L 274.887826 225.501873 
L 276.535819 220.416003 
L 278.183812 217.899837 
L 279.831804 216.478167 
L 281.479797 213.898234 
L 283.12779 211.956957 
L 284.775782 210.940146 
L 286.423775 210.416507 
L 288.071767 209.478737 
L 289.71976 208.635635 
L 291.367753 207.647472 
L 293.015745 208.021026 
L 294.663738 208.021713 
L 296.311731 207.699425 
L 297.959723 207.740314 
L 299.607716 208.359047 
L 301.255708 209.385777 
L 302.903701 208.190886 
L 304.551694 207.988974 
L 306.199686 208.236375 
L 307.847679 209.104927 
L 309.495671 208.250382 
L 311.143664 208.214899 
L 312.791657 209.946779 
L 314.439649 211.161501 
L 316.087642 210.752338 
L 317.735635 210.695552 
L 319.383627 211.063164 
L 321.03162 211.380737 
L 322.679612 210.733582 
L 324.327605 210.629547 
L 325.975598 213.736193 
L 327.62359 215.473773 
L 329.271583 216.4506 
L 330.919575 217.164341 
L 332.567568 223.04628 
L 334.215561 227.66085 
L 335.863553 232.40614 
L 337.511546 239.162265 
L 339.159539 250.680096 
L 340.807531 256.1401 
L 342.455524 257.625656 
L 344.103516 259.325288 
L 345.751509 261.237165 
L 347.399502 264.701238 
L 349.047494 265.9701 
L 350.695487 266.699091 
L 352.343479 267.711303 
L 353.991472 268.188372 
L 355.639465 268.267639 
L 357.287457 268.025269 
L 358.93545 267.861985 
L 360.583443 267.692987 
L 362.231435 268.005398 
L 363.879428 268.546734 
L 365.52742 268.849963 
L 367.175413 269.321734 
L 368.823406 269.532867 
L 370.471398 269.50526 
L 372.119391 268.586151 
L 373.767383 267.46928 
L 375.415376 266.4647 
L 377.063369 265.10175 
L 378.711361 262.653294 
L 380.359354 257.090193 
L 382.007347 249.735344 
L 383.655339 238.219916 
L 385.303332 224.771429 
L 386.951324 217.25513 
L 388.599317 214.065879 
L 390.24731 211.90168 
L 391.895302 210.62506 
L 393.543295 209.473135 
L 395.191287 208.731595 
L 396.83928 209.616855 
L 398.487273 209.664691 
L 398.487273 65.847314 
L 398.487273 65.847314 
L 396.83928 65.606736 
L 395.191287 65.031665 
L 393.543295 65.732578 
L 391.895302 66.976215 
L 390.24731 68.354358 
L 388.599317 70.105765 
L 386.951324 72.775637 
L 385.303332 77.568835 
L 383.655339 80.531164 
L 382.007347 82.370376 
L 380.359354 82.917865 
L 378.711361 82.705699 
L 377.063369 82.810514 
L 375.415376 82.914299 
L 373.767383 82.901638 
L 372.119391 82.792233 
L 370.471398 82.50508 
L 368.823406 82.440593 
L 367.175413 82.478433 
L 365.52742 82.599545 
L 363.879428 82.528098 
L 362.231435 82.461104 
L 360.583443 82.547127 
L 358.93545 82.564623 
L 357.287457 82.71427 
L 355.639465 82.626841 
L 353.991472 82.458116 
L 352.343479 82.256642 
L 350.695487 82.186339 
L 349.047494 82.047301 
L 347.399502 81.360757 
L 345.751509 81.447988 
L 344.103516 81.28998 
L 342.455524 81.179204 
L 340.807531 79.766858 
L 339.159539 77.419954 
L 337.511546 76.668569 
L 335.863553 75.135964 
L 334.215561 73.960578 
L 332.567568 72.089712 
L 330.919575 70.994822 
L 329.271583 71.299809 
L 327.62359 70.099573 
L 325.975598 68.677613 
L 324.327605 67.062996 
L 322.679612 67.314592 
L 321.03162 67.859206 
L 319.383627 67.705282 
L 317.735635 67.397146 
L 316.087642 67.312675 
L 314.439649 67.80704 
L 312.791657 66.404718 
L 311.143664 63.822419 
L 309.495671 63.657115 
L 307.847679 65.09213 
L 306.199686 64.297384 
L 304.551694 63.384757 
L 302.903701 63.467753 
L 301.255708 65.608639 
L 299.607716 64.208368 
L 297.959723 62.962636 
L 296.311731 62.711685 
L 294.663738 63.553278 
L 293.015745 63.746754 
L 291.367753 62.771663 
L 289.71976 64.193748 
L 288.071767 65.675722 
L 286.423775 67.058426 
L 284.775782 67.378532 
L 283.12779 68.611454 
L 281.479797 70.270878 
L 279.831804 71.16416 
L 278.183812 72.171235 
L 276.535819 73.849141 
L 274.887826 75.793018 
L 273.239834 77.238866 
L 271.591841 78.675175 
L 269.943849 81.187188 
L 268.295856 81.68037 
L 266.647863 82.636363 
L 264.999871 82.521925 
L 263.351878 82.76031 
L 261.703886 82.788721 
L 260.055893 82.824876 
L 258.4079 82.833188 
L 256.759908 82.726242 
L 255.111915 82.510576 
L 253.463922 82.684234 
L 251.81593 82.72709 
L 250.167937 82.628807 
L 248.519945 82.393646 
L 246.871952 82.276299 
L 245.223959 81.975878 
L 243.575967 81.952927 
L 241.927974 81.738228 
L 240.279982 81.746145 
L 238.631989 81.843402 
L 236.983996 81.692883 
L 235.336004 81.832239 
L 233.688011 81.703096 
L 232.040018 81.588122 
L 230.392026 81.058018 
L 228.744033 80.00197 
L 227.096041 80.077961 
L 225.448048 79.397869 
L 223.800055 78.565302 
L 222.152063 77.688987 
L 220.50407 77.831015 
L 218.856078 77.83216 
L 217.208085 77.793889 
L 215.560092 77.968707 
L 213.9121 77.904747 
L 212.264107 77.640876 
L 210.616114 76.576344 
L 208.968122 75.43039 
L 207.320129 74.148598 
L 205.672137 72.73867 
L 204.024144 71.615173 
L 202.376151 70.888699 
L 200.728159 69.674811 
L 199.080166 68.6754 
L 197.432174 67.574421 
L 195.784181 65.472119 
L 194.136188 64.160902 
L 192.488196 62.6418 
L 190.840203 62.300216 
L 189.19221 61.727899 
L 187.544218 59.971555 
L 185.896225 58.546846 
L 184.248233 57.8296 
L 182.60024 56.763376 
L 180.952247 55.785068 
L 179.304255 54.887043 
L 177.656262 54.172608 
L 176.008269 53.568 
L 174.360277 53.938023 
L 172.712284 54.250464 
L 171.064292 54.8019 
L 169.416299 55.556382 
L 167.768306 56.446517 
L 166.120314 57.306886 
L 164.472321 58.108521 
L 162.824329 58.804375 
L 161.176336 60.209242 
L 159.528343 61.960039 
L 157.880351 64.151527 
L 156.232358 66.608173 
L 154.584365 69.359256 
L 152.936373 72.863753 
L 151.28838 75.619357 
L 149.640388 78.431092 
L 147.992395 81.076467 
L 146.344402 82.835786 
L 144.69641 82.440944 
L 143.048417 82.549113 
L 141.400425 82.567392 
L 139.752432 82.7408 
L 138.104439 82.272697 
L 136.456447 82.326805 
L 134.808454 82.239104 
L 133.160461 82.375425 
L 131.512469 82.135573 
L 129.864476 82.332419 
L 128.216484 82.801218 
L 126.568491 82.258931 
L 124.920498 82.370813 
L 123.272506 82.041412 
L 121.624513 82.174885 
L 119.976521 82.06672 
L 118.328528 81.467698 
L 116.680535 81.432527 
L 115.032543 81.645104 
L 113.38455 81.689402 
L 111.736557 81.950514 
L 110.088565 81.492527 
L 108.440572 81.459871 
L 106.79258 80.887877 
L 105.144587 78.738514 
L 103.496594 78.063404 
L 101.848602 76.832815 
L 100.200609 74.942549 
L 98.552617 72.284673 
L 96.904624 69.970685 
L 95.256631 68.956111 
L 93.608639 67.43084 
L 91.960646 66.310288 
L 90.312653 65.140783 
L 88.664661 65.567681 
L 87.016668 65.885354 
L 85.368676 65.095506 
L 83.720683 62.821303 
L 82.07269 60.332592 
L 80.424698 59.427142 
L 78.776705 58.113874 
L 77.128713 58.620168 
L 75.48072 59.467745 
L 73.832727 61.378708 
z
" style="fill:#008000;fill-opacity:0.4;"/>
   </g>
   <g id="matplotlib.axis_1">
    <g id="xtick_1">
     <g id="line2d_1">
      <defs>
       <path d="M 0 0 
L 0 3.5 
" id="m7498eaef83" style="stroke:#000000;stroke-width:0.8;"/>
      </defs>
      <g>
       <use style="stroke:#000000;stroke-width:0.8;" x="73.832727" xlink:href="#m7498eaef83" y="307.584"/>
      </g>
     </g>
     <g id="text_1">
      <!-- 0.0 -->
      <defs>
       <path d="M 31.78125 66.40625 
Q 24.171875 66.40625 20.328125 58.90625 
Q 16.5 51.421875 16.5 36.375 
Q 16.5 21.390625 20.328125 13.890625 
Q 24.171875 6.390625 31.78125 6.390625 
Q 39.453125 6.390625 43.28125 13.890625 
Q 47.125 21.390625 47.125 36.375 
Q 47.125 51.421875 43.28125 58.90625 
Q 39.453125 66.40625 31.78125 66.40625 
z
M 31.78125 74.21875 
Q 44.046875 74.21875 50.515625 64.515625 
Q 56.984375 54.828125 56.984375 36.375 
Q 56.984375 17.96875 50.515625 8.265625 
Q 44.046875 -1.421875 31.78125 -1.421875 
Q 19.53125 -1.421875 13.0625 8.265625 
Q 6.59375 17.96875 6.59375 36.375 
Q 6.59375 54.828125 13.0625 64.515625 
Q 19.53125 74.21875 31.78125 74.21875 
z
" id="DejaVuSans-30"/>
       <path d="M 10.6875 12.40625 
L 21 12.40625 
L 21 0 
L 10.6875 0 
z
" id="DejaVuSans-2e"/>
      </defs>
      <g transform="translate(65.881165 322.182437)scale(0.1 -0.1)">
       <use xlink:href="#DejaVuSans-30"/>
       <use x="63.623047" xlink:href="#DejaVuSans-2e"/>
       <use x="95.410156" xlink:href="#DejaVuSans-30"/>
      </g>
     </g>
    </g>
    <g id="xtick_2">
     <g id="line2d_2">
      <g>
       <use style="stroke:#000000;stroke-width:0.8;" x="138.763636" xlink:href="#m7498eaef83" y="307.584"/>
      </g>
     </g>
     <g id="text_2">
      <!-- 0.2 -->
      <defs>
       <path d="M 19.1875 8.296875 
L 53.609375 8.296875 
L 53.609375 0 
L 7.328125 0 
L 7.328125 8.296875 
Q 12.9375 14.109375 22.625 23.890625 
Q 32.328125 33.6875 34.8125 36.53125 
Q 39.546875 41.84375 41.421875 45.53125 
Q 43.3125 49.21875 43.3125 52.78125 
Q 43.3125 58.59375 39.234375 62.25 
Q 35.15625 65.921875 28.609375 65.921875 
Q 23.96875 65.921875 18.8125 64.3125 
Q 13.671875 62.703125 7.8125 59.421875 
L 7.8125 69.390625 
Q 13.765625 71.78125 18.9375 73 
Q 24.125 74.21875 28.421875 74.21875 
Q 39.75 74.21875 46.484375 68.546875 
Q 53.21875 62.890625 53.21875 53.421875 
Q 53.21875 48.921875 51.53125 44.890625 
Q 49.859375 40.875 45.40625 35.40625 
Q 44.1875 33.984375 37.640625 27.21875 
Q 31.109375 20.453125 19.1875 8.296875 
z
" id="DejaVuSans-32"/>
      </defs>
      <g transform="translate(130.812074 322.182437)scale(0.1 -0.1)">
       <use xlink:href="#DejaVuSans-30"/>
       <use x="63.623047" xlink:href="#DejaVuSans-2e"/>
       <use x="95.410156" xlink:href="#DejaVuSans-32"/>
      </g>
     </g>
    </g>
    <g id="xtick_3">
     <g id="line2d_3">
      <g>
       <use style="stroke:#000000;stroke-width:0.8;" x="203.694545" xlink:href="#m7498eaef83" y="307.584"/>
      </g>
     </g>
     <g id="text_3">
      <!-- 0.4 -->
      <defs>
       <path d="M 37.796875 64.3125 
L 12.890625 25.390625 
L 37.796875 25.390625 
z
M 35.203125 72.90625 
L 47.609375 72.90625 
L 47.609375 25.390625 
L 58.015625 25.390625 
L 58.015625 17.1875 
L 47.609375 17.1875 
L 47.609375 0 
L 37.796875 0 
L 37.796875 17.1875 
L 4.890625 17.1875 
L 4.890625 26.703125 
z
" id="DejaVuSans-34"/>
      </defs>
      <g transform="translate(195.742983 322.182437)scale(0.1 -0.1)">
       <use xlink:href="#DejaVuSans-30"/>
       <use x="63.623047" xlink:href="#DejaVuSans-2e"/>
       <use x="95.410156" xlink:href="#DejaVuSans-34"/>
      </g>
     </g>
    </g>
    <g id="xtick_4">
     <g id="line2d_4">
      <g>
       <use style="stroke:#000000;stroke-width:0.8;" x="268.625455" xlink:href="#m7498eaef83" y="307.584"/>
      </g>
     </g>
     <g id="text_4">
      <!-- 0.6 -->
      <defs>
       <path d="M 33.015625 40.375 
Q 26.375 40.375 22.484375 35.828125 
Q 18.609375 31.296875 18.609375 23.390625 
Q 18.609375 15.53125 22.484375 10.953125 
Q 26.375 6.390625 33.015625 6.390625 
Q 39.65625 6.390625 43.53125 10.953125 
Q 47.40625 15.53125 47.40625 23.390625 
Q 47.40625 31.296875 43.53125 35.828125 
Q 39.65625 40.375 33.015625 40.375 
z
M 52.59375 71.296875 
L 52.59375 62.3125 
Q 48.875 64.0625 45.09375 64.984375 
Q 41.3125 65.921875 37.59375 65.921875 
Q 27.828125 65.921875 22.671875 59.328125 
Q 17.53125 52.734375 16.796875 39.40625 
Q 19.671875 43.65625 24.015625 45.921875 
Q 28.375 48.1875 33.59375 48.1875 
Q 44.578125 48.1875 50.953125 41.515625 
Q 57.328125 34.859375 57.328125 23.390625 
Q 57.328125 12.15625 50.6875 5.359375 
Q 44.046875 -1.421875 33.015625 -1.421875 
Q 20.359375 -1.421875 13.671875 8.265625 
Q 6.984375 17.96875 6.984375 36.375 
Q 6.984375 53.65625 15.1875 63.9375 
Q 23.390625 74.21875 37.203125 74.21875 
Q 40.921875 74.21875 44.703125 73.484375 
Q 48.484375 72.75 52.59375 71.296875 
z
" id="DejaVuSans-36"/>
      </defs>
      <g transform="translate(260.673892 322.182437)scale(0.1 -0.1)">
       <use xlink:href="#DejaVuSans-30"/>
       <use x="63.623047" xlink:href="#DejaVuSans-2e"/>
       <use x="95.410156" xlink:href="#DejaVuSans-36"/>
      </g>
     </g>
    </g>
    <g id="xtick_5">
     <g id="line2d_5">
      <g>
       <use style="stroke:#000000;stroke-width:0.8;" x="333.556364" xlink:href="#m7498eaef83" y="307.584"/>
      </g>
     </g>
     <g id="text_5">
      <!-- 0.8 -->
      <defs>
       <path d="M 31.78125 34.625 
Q 24.75 34.625 20.71875 30.859375 
Q 16.703125 27.09375 16.703125 20.515625 
Q 16.703125 13.921875 20.71875 10.15625 
Q 24.75 6.390625 31.78125 6.390625 
Q 38.8125 6.390625 42.859375 10.171875 
Q 46.921875 13.96875 46.921875 20.515625 
Q 46.921875 27.09375 42.890625 30.859375 
Q 38.875 34.625 31.78125 34.625 
z
M 21.921875 38.8125 
Q 15.578125 40.375 12.03125 44.71875 
Q 8.5 49.078125 8.5 55.328125 
Q 8.5 64.0625 14.71875 69.140625 
Q 20.953125 74.21875 31.78125 74.21875 
Q 42.671875 74.21875 48.875 69.140625 
Q 55.078125 64.0625 55.078125 55.328125 
Q 55.078125 49.078125 51.53125 44.71875 
Q 48 40.375 41.703125 38.8125 
Q 48.828125 37.15625 52.796875 32.3125 
Q 56.78125 27.484375 56.78125 20.515625 
Q 56.78125 9.90625 50.3125 4.234375 
Q 43.84375 -1.421875 31.78125 -1.421875 
Q 19.734375 -1.421875 13.25 4.234375 
Q 6.78125 9.90625 6.78125 20.515625 
Q 6.78125 27.484375 10.78125 32.3125 
Q 14.796875 37.15625 21.921875 38.8125 
z
M 18.3125 54.390625 
Q 18.3125 48.734375 21.84375 45.5625 
Q 25.390625 42.390625 31.78125 42.390625 
Q 38.140625 42.390625 41.71875 45.5625 
Q 45.3125 48.734375 45.3125 54.390625 
Q 45.3125 60.0625 41.71875 63.234375 
Q 38.140625 66.40625 31.78125 66.40625 
Q 25.390625 66.40625 21.84375 63.234375 
Q 18.3125 60.0625 18.3125 54.390625 
z
" id="DejaVuSans-38"/>
      </defs>
      <g transform="translate(325.604801 322.182437)scale(0.1 -0.1)">
       <use xlink:href="#DejaVuSans-30"/>
       <use x="63.623047" xlink:href="#DejaVuSans-2e"/>
       <use x="95.410156" xlink:href="#DejaVuSans-38"/>
      </g>
     </g>
    </g>
    <g id="xtick_6">
     <g id="line2d_6">
      <g>
       <use style="stroke:#000000;stroke-width:0.8;" x="398.487273" xlink:href="#m7498eaef83" y="307.584"/>
      </g>
     </g>
     <g id="text_6">
      <!-- 1.0 -->
      <defs>
       <path d="M 12.40625 8.296875 
L 28.515625 8.296875 
L 28.515625 63.921875 
L 10.984375 60.40625 
L 10.984375 69.390625 
L 28.421875 72.90625 
L 38.28125 72.90625 
L 38.28125 8.296875 
L 54.390625 8.296875 
L 54.390625 0 
L 12.40625 0 
z
" id="DejaVuSans-31"/>
      </defs>
      <g transform="translate(390.53571 322.182437)scale(0.1 -0.1)">
       <use xlink:href="#DejaVuSans-31"/>
       <use x="63.623047" xlink:href="#DejaVuSans-2e"/>
       <use x="95.410156" xlink:href="#DejaVuSans-30"/>
      </g>
     </g>
    </g>
   </g>
   <g id="matplotlib.axis_2">
    <g id="ytick_1">
     <g id="line2d_7">
      <defs>
       <path d="M 0 0 
L -3.5 0 
" id="mfdec188dad" style="stroke:#000000;stroke-width:0.8;"/>
      </defs>
      <g>
       <use style="stroke:#000000;stroke-width:0.8;" x="57.6" xlink:href="#mfdec188dad" y="299.259784"/>
      </g>
     </g>
     <g id="text_7">
      <!-- 0.0 -->
      <g transform="translate(34.696875 303.059002)scale(0.1 -0.1)">
       <use xlink:href="#DejaVuSans-30"/>
       <use x="63.623047" xlink:href="#DejaVuSans-2e"/>
       <use x="95.410156" xlink:href="#DejaVuSans-30"/>
      </g>
     </g>
    </g>
    <g id="ytick_2">
     <g id="line2d_8">
      <g>
       <use style="stroke:#000000;stroke-width:0.8;" x="57.6" xlink:href="#mfdec188dad" y="262.070042"/>
      </g>
     </g>
     <g id="text_8">
      <!-- 0.1 -->
      <g transform="translate(34.696875 265.869261)scale(0.1 -0.1)">
       <use xlink:href="#DejaVuSans-30"/>
       <use x="63.623047" xlink:href="#DejaVuSans-2e"/>
       <use x="95.410156" xlink:href="#DejaVuSans-31"/>
      </g>
     </g>
    </g>
    <g id="ytick_3">
     <g id="line2d_9">
      <g>
       <use style="stroke:#000000;stroke-width:0.8;" x="57.6" xlink:href="#mfdec188dad" y="224.880301"/>
      </g>
     </g>
     <g id="text_9">
      <!-- 0.2 -->
      <g transform="translate(34.696875 228.67952)scale(0.1 -0.1)">
       <use xlink:href="#DejaVuSans-30"/>
       <use x="63.623047" xlink:href="#DejaVuSans-2e"/>
       <use x="95.410156" xlink:href="#DejaVuSans-32"/>
      </g>
     </g>
    </g>
    <g id="ytick_4">
     <g id="line2d_10">
      <g>
       <use style="stroke:#000000;stroke-width:0.8;" x="57.6" xlink:href="#mfdec188dad" y="187.69056"/>
      </g>
     </g>
     <g id="text_10">
      <!-- 0.3 -->
      <defs>
       <path d="M 40.578125 39.3125 
Q 47.65625 37.796875 51.625 33 
Q 55.609375 28.21875 55.609375 21.1875 
Q 55.609375 10.40625 48.1875 4.484375 
Q 40.765625 -1.421875 27.09375 -1.421875 
Q 22.515625 -1.421875 17.65625 -0.515625 
Q 12.796875 0.390625 7.625 2.203125 
L 7.625 11.71875 
Q 11.71875 9.328125 16.59375 8.109375 
Q 21.484375 6.890625 26.8125 6.890625 
Q 36.078125 6.890625 40.9375 10.546875 
Q 45.796875 14.203125 45.796875 21.1875 
Q 45.796875 27.640625 41.28125 31.265625 
Q 36.765625 34.90625 28.71875 34.90625 
L 20.21875 34.90625 
L 20.21875 43.015625 
L 29.109375 43.015625 
Q 36.375 43.015625 40.234375 45.921875 
Q 44.09375 48.828125 44.09375 54.296875 
Q 44.09375 59.90625 40.109375 62.90625 
Q 36.140625 65.921875 28.71875 65.921875 
Q 24.65625 65.921875 20.015625 65.03125 
Q 15.375 64.15625 9.8125 62.3125 
L 9.8125 71.09375 
Q 15.4375 72.65625 20.34375 73.4375 
Q 25.25 74.21875 29.59375 74.21875 
Q 40.828125 74.21875 47.359375 69.109375 
Q 53.90625 64.015625 53.90625 55.328125 
Q 53.90625 49.265625 50.4375 45.09375 
Q 46.96875 40.921875 40.578125 39.3125 
z
" id="DejaVuSans-33"/>
      </defs>
      <g transform="translate(34.696875 191.489779)scale(0.1 -0.1)">
       <use xlink:href="#DejaVuSans-30"/>
       <use x="63.623047" xlink:href="#DejaVuSans-2e"/>
       <use x="95.410156" xlink:href="#DejaVuSans-33"/>
      </g>
     </g>
    </g>
    <g id="ytick_5">
     <g id="line2d_11">
      <g>
       <use style="stroke:#000000;stroke-width:0.8;" x="57.6" xlink:href="#mfdec188dad" y="150.500819"/>
      </g>
     </g>
     <g id="text_11">
      <!-- 0.4 -->
      <g transform="translate(34.696875 154.300038)scale(0.1 -0.1)">
       <use xlink:href="#DejaVuSans-30"/>
       <use x="63.623047" xlink:href="#DejaVuSans-2e"/>
       <use x="95.410156" xlink:href="#DejaVuSans-34"/>
      </g>
     </g>
    </g>
    <g id="ytick_6">
     <g id="line2d_12">
      <g>
       <use style="stroke:#000000;stroke-width:0.8;" x="57.6" xlink:href="#mfdec188dad" y="113.311078"/>
      </g>
     </g>
     <g id="text_12">
      <!-- 0.5 -->
      <defs>
       <path d="M 10.796875 72.90625 
L 49.515625 72.90625 
L 49.515625 64.59375 
L 19.828125 64.59375 
L 19.828125 46.734375 
Q 21.96875 47.46875 24.109375 47.828125 
Q 26.265625 48.1875 28.421875 48.1875 
Q 40.625 48.1875 47.75 41.5 
Q 54.890625 34.8125 54.890625 23.390625 
Q 54.890625 11.625 47.5625 5.09375 
Q 40.234375 -1.421875 26.90625 -1.421875 
Q 22.3125 -1.421875 17.546875 -0.640625 
Q 12.796875 0.140625 7.71875 1.703125 
L 7.71875 11.625 
Q 12.109375 9.234375 16.796875 8.0625 
Q 21.484375 6.890625 26.703125 6.890625 
Q 35.15625 6.890625 40.078125 11.328125 
Q 45.015625 15.765625 45.015625 23.390625 
Q 45.015625 31 40.078125 35.4375 
Q 35.15625 39.890625 26.703125 39.890625 
Q 22.75 39.890625 18.8125 39.015625 
Q 14.890625 38.140625 10.796875 36.28125 
z
" id="DejaVuSans-35"/>
      </defs>
      <g transform="translate(34.696875 117.110297)scale(0.1 -0.1)">
       <use xlink:href="#DejaVuSans-30"/>
       <use x="63.623047" xlink:href="#DejaVuSans-2e"/>
       <use x="95.410156" xlink:href="#DejaVuSans-35"/>
      </g>
     </g>
    </g>
    <g id="ytick_7">
     <g id="line2d_13">
      <g>
       <use style="stroke:#000000;stroke-width:0.8;" x="57.6" xlink:href="#mfdec188dad" y="76.121337"/>
      </g>
     </g>
     <g id="text_13">
      <!-- 0.6 -->
      <g transform="translate(34.696875 79.920556)scale(0.1 -0.1)">
       <use xlink:href="#DejaVuSans-30"/>
       <use x="63.623047" xlink:href="#DejaVuSans-2e"/>
       <use x="95.410156" xlink:href="#DejaVuSans-36"/>
      </g>
     </g>
    </g>
   </g>
   <g id="line2d_14">
    <path clip-path="url(#p70a4aeb887)" d="M 73.832727 115.699775 
L 75.48072 111.676589 
L 77.128713 118.968753 
L 78.776705 119.722961 
L 80.424698 136.570286 
L 82.07269 151.406018 
L 83.720683 162.972771 
L 85.368676 160.458372 
L 87.016668 154.926398 
L 88.664661 161.21258 
L 90.312653 165.990346 
L 91.960646 176.048312 
L 93.608639 180.574303 
L 95.256631 196.416017 
L 96.904624 213.514745 
L 100.200609 234.385255 
L 101.848602 240.671437 
L 103.496594 257.015957 
L 105.144587 264.307972 
L 106.79258 266.571042 
L 108.440572 269.336992 
L 110.088565 267.325399 
L 111.736557 266.571042 
L 113.38455 266.571042 
L 115.032543 270.594266 
L 116.680535 277.634916 
L 118.328528 279.646546 
L 119.976521 280.903783 
L 121.624513 284.675566 
L 123.272506 284.675566 
L 124.920498 285.93284 
L 126.568491 282.915413 
L 128.216484 281.4067 
L 129.864476 283.66977 
L 131.512469 283.41833 
L 133.160461 284.927006 
L 134.808454 285.178483 
L 136.456447 286.687197 
L 138.104439 284.675566 
L 139.752432 281.658139 
L 141.400425 277.634916 
L 143.048417 272.102979 
L 144.69641 257.770165 
L 146.344402 240.420035 
L 147.992395 225.835706 
L 149.640388 212.257359 
L 152.936373 173.533913 
L 154.584365 157.189394 
L 156.232358 143.359645 
L 157.880351 132.5471 
L 159.528343 120.728944 
L 161.176336 114.945567 
L 162.824329 109.916399 
L 164.472321 105.390407 
L 167.768306 91.560658 
L 171.064292 82.256901 
L 172.712284 84.771299 
L 174.360277 80.999515 
L 176.008269 82.508303 
L 177.656262 91.560658 
L 179.304255 99.60703 
L 180.952247 109.162191 
L 182.60024 109.664996 
L 184.248233 119.974736 
L 185.896225 135.313273 
L 187.544218 137.827671 
L 189.19221 139.587862 
L 190.840203 146.628623 
L 192.488196 152.914805 
L 194.136188 167.24736 
L 197.432174 182.083091 
L 199.080166 191.135446 
L 200.728159 194.655827 
L 202.376151 203.708182 
L 204.024144 210.497169 
L 205.672137 218.795316 
L 207.320129 223.57271 
L 208.968122 232.373662 
L 210.616114 234.636658 
L 213.9121 233.12787 
L 215.560092 234.888061 
L 217.208085 234.636658 
L 218.856078 229.858892 
L 222.152063 244.191818 
L 223.800055 248.215004 
L 225.448048 250.478 
L 227.096041 261.290545 
L 228.744033 268.582636 
L 230.392026 270.594266 
L 232.040018 271.851539 
L 233.688011 270.845706 
L 235.336004 272.857336 
L 236.983996 272.605896 
L 238.631989 274.366049 
L 240.279982 278.640713 
L 243.575967 285.681363 
L 245.223959 288.19591 
L 246.871952 291.213337 
L 248.519945 292.219133 
L 250.167937 291.464777 
L 251.81593 290.207503 
L 253.463922 292.219133 
L 255.111915 292.470573 
L 256.759908 289.453146 
L 258.4079 286.687197 
L 260.055893 284.172649 
L 261.703886 279.395069 
L 263.351878 272.605896 
L 264.999871 262.799259 
L 266.647863 256.764554 
L 268.295856 242.68303 
L 269.943849 232.373662 
L 271.591841 224.830095 
L 273.239834 215.023532 
L 274.887826 204.46239 
L 276.535819 195.913212 
L 278.183812 194.655827 
L 279.831804 182.586268 
L 281.479797 172.527931 
L 283.12779 170.264935 
L 284.775782 164.732961 
L 286.423775 156.937992 
L 288.071767 139.839264 
L 289.71976 147.382831 
L 291.367753 149.645827 
L 293.015745 144.616658 
L 294.663738 137.827671 
L 296.311731 145.119836 
L 297.959723 164.732961 
L 299.607716 149.394424 
L 301.255708 142.353663 
L 302.903701 148.137039 
L 304.551694 160.961178 
L 306.199686 149.394424 
L 307.847679 141.348052 
L 309.495671 158.949585 
L 311.143664 172.779334 
L 312.791657 172.025126 
L 314.439649 169.510727 
L 316.087642 168.756147 
L 317.735635 176.299715 
L 319.383627 172.276528 
L 321.03162 165.738944 
L 322.679612 172.025126 
L 324.327605 182.586268 
L 325.975598 196.918823 
L 327.62359 190.381238 
L 329.271583 196.918823 
L 330.919575 210.245766 
L 335.863553 229.607489 
L 337.511546 247.460796 
L 339.159539 259.781758 
L 340.807531 264.056495 
L 342.455524 267.073922 
L 344.103516 271.097183 
L 345.751509 280.400903 
L 347.399502 284.675566 
L 349.047494 286.43572 
L 350.695487 289.201706 
L 352.343479 291.464777 
L 353.991472 291.716216 
L 355.639465 290.71042 
L 357.287457 290.71042 
L 358.93545 289.453146 
L 360.583443 290.45898 
L 362.231435 292.219133 
L 363.879428 292.97349 
L 365.52742 294.733643 
L 367.175413 295.488 
L 368.823406 295.488 
L 370.471398 293.22493 
L 372.119391 289.453146 
L 373.767383 286.687197 
L 375.415376 282.915413 
L 377.063369 277.131999 
L 378.711361 266.822482 
L 382.007347 238.157039 
L 383.655339 211.754554 
L 385.303332 192.895636 
L 386.951324 181.328883 
L 388.599317 174.036719 
L 390.24731 163.727351 
L 391.895302 151.908823 
L 393.543295 159.45239 
L 395.191287 164.230156 
L 396.83928 157.692199 
L 398.487273 147.885637 
L 398.487273 147.885637 
" style="fill:none;stroke:#1f77b4;stroke-linecap:square;stroke-width:1.5;"/>
   </g>
   <g id="line2d_15">
    <path clip-path="url(#p70a4aeb887)" d="M 73.832727 136.654659 
L 75.48072 132.646459 
L 77.128713 131.783955 
L 78.776705 132.539421 
L 80.424698 134.742482 
L 82.07269 139.58242 
L 83.720683 144.814289 
L 85.368676 148.740079 
L 87.016668 148.161006 
L 88.664661 147.332693 
L 90.312653 148.526879 
L 91.960646 150.730238 
L 93.608639 153.945713 
L 95.256631 156.297779 
L 98.552617 166.506602 
L 100.200609 170.437512 
L 101.848602 173.338172 
L 103.496594 175.828307 
L 105.144587 179.406089 
L 106.79258 181.833198 
L 108.440572 182.671997 
L 110.088565 183.184532 
L 113.38455 182.766017 
L 115.032543 182.84115 
L 116.680535 183.644294 
L 118.328528 185.062682 
L 119.976521 185.804271 
L 121.624513 186.250359 
L 123.272506 186.84916 
L 124.920498 187.11205 
L 126.568491 187.248423 
L 129.864476 186.441278 
L 134.808454 187.038113 
L 138.104439 187.418163 
L 139.752432 187.113173 
L 141.400425 186.492969 
L 143.048417 185.542989 
L 144.69641 184.076157 
L 146.344402 180.71477 
L 149.640388 171.603748 
L 151.28838 166.996067 
L 152.936373 160.545182 
L 154.584365 153.643005 
L 157.880351 142.24263 
L 159.528343 138.392574 
L 161.176336 134.105486 
L 164.472321 130.150514 
L 166.120314 128.505262 
L 167.768306 126.079043 
L 169.416299 124.021131 
L 171.064292 122.278749 
L 172.712284 121.108705 
L 174.360277 121.243228 
L 176.008269 120.276854 
L 177.656262 121.686206 
L 179.304255 123.614416 
L 180.952247 126.715288 
L 182.60024 129.28469 
L 184.248233 130.561746 
L 185.896225 134.189163 
L 187.544218 138.253391 
L 189.19221 140.23838 
L 190.840203 141.078254 
L 192.488196 143.140584 
L 194.136188 146.328572 
L 195.784181 150.238609 
L 197.432174 153.625951 
L 199.080166 156.513641 
L 200.728159 159.156469 
L 202.376151 161.250555 
L 204.024144 163.553664 
L 205.672137 166.343189 
L 207.320129 168.590286 
L 210.616114 172.737813 
L 212.264107 173.618131 
L 213.9121 173.795588 
L 215.560092 173.627497 
L 217.208085 173.889422 
L 220.50407 173.074342 
L 222.152063 174.543539 
L 223.800055 176.397838 
L 227.096041 178.723191 
L 228.744033 180.968948 
L 230.392026 182.856852 
L 232.040018 183.638734 
L 233.688011 183.885522 
L 235.336004 183.945688 
L 240.279982 184.653229 
L 245.223959 187.176428 
L 248.519945 188.381616 
L 250.167937 188.669716 
L 253.463922 188.425734 
L 256.759908 188.730614 
L 260.055893 187.645153 
L 261.703886 187.036576 
L 263.351878 185.932139 
L 264.999871 184.372492 
L 268.295856 180.125431 
L 269.943849 176.696174 
L 271.591841 173.629125 
L 273.239834 171.045546 
L 274.887826 168.011666 
L 276.535819 164.536571 
L 278.183812 161.886522 
L 279.831804 160.583923 
L 281.479797 156.57653 
L 283.12779 153.654245 
L 286.423775 150.230734 
L 288.071767 146.544383 
L 289.71976 142.369069 
L 291.367753 143.724534 
L 293.015745 144.06589 
L 296.311731 140.836892 
L 297.959723 144.167059 
L 299.607716 148.058694 
L 301.255708 144.685655 
L 302.903701 142.570647 
L 304.551694 144.648107 
L 306.199686 147.242599 
L 307.847679 144.416666 
L 309.495671 142.873648 
L 311.143664 148.033483 
L 312.791657 152.009409 
L 314.439649 152.902619 
L 316.087642 151.580422 
L 317.735635 152.257993 
L 319.383627 153.634142 
L 322.679612 151.397726 
L 324.327605 152.689223 
L 325.975598 157.239526 
L 327.62359 160.16971 
L 329.271583 160.139738 
L 330.919575 161.858062 
L 332.567568 165.55535 
L 334.215561 168.191771 
L 335.863553 170.224413 
L 337.511546 172.624497 
L 339.159539 176.872254 
L 340.807531 180.425577 
L 342.455524 181.880679 
L 344.103516 182.75162 
L 345.751509 183.785339 
L 347.399502 185.647652 
L 349.047494 186.88103 
L 353.991472 188.445693 
L 355.639465 188.589955 
L 360.583443 188.224239 
L 362.231435 188.32788 
L 365.52742 188.902291 
L 368.823406 189.392023 
L 370.471398 189.428968 
L 372.119391 189.00604 
L 377.063369 186.768436 
L 378.711361 185.460719 
L 380.359354 182.958335 
L 382.007347 179.588778 
L 383.655339 174.890642 
L 386.951324 160.855472 
L 388.599317 156.619114 
L 390.24731 153.566031 
L 391.895302 149.58283 
L 393.543295 146.592665 
L 395.191287 148.087018 
L 396.83928 149.281188 
L 398.487273 147.385303 
L 398.487273 147.385303 
" style="fill:none;stroke:#ff7f0e;stroke-linecap:square;stroke-width:1.5;"/>
   </g>
   <g id="line2d_16">
    <path clip-path="url(#p70a4aeb887)" d="M 73.832727 207.332632 
L 75.48072 206.022262 
L 77.128713 205.563987 
L 78.776705 205.361051 
L 80.424698 206.084712 
L 82.07269 206.492813 
L 83.720683 207.712566 
L 85.368676 208.651248 
L 87.016668 209.843399 
L 90.312653 208.934501 
L 91.960646 209.869033 
L 93.608639 211.023968 
L 95.256631 213.07004 
L 96.904624 216.135383 
L 98.552617 226.509797 
L 100.200609 234.604453 
L 101.848602 240.921311 
L 103.496594 246.634202 
L 105.144587 254.964672 
L 106.79258 258.035497 
L 108.440572 258.981103 
L 110.088565 259.795314 
L 111.736557 258.885056 
L 113.38455 258.808835 
L 115.032543 259.179826 
L 116.680535 261.017404 
L 118.328528 263.424653 
L 119.976521 264.093835 
L 123.272506 265.858945 
L 126.568491 266.296792 
L 128.216484 265.181536 
L 129.864476 265.000362 
L 131.512469 265.484291 
L 136.456447 266.217776 
L 138.104439 266.621661 
L 141.400425 264.81368 
L 143.048417 262.931374 
L 144.69641 260.122105 
L 146.344402 251.367105 
L 149.640388 232.173147 
L 151.28838 223.483666 
L 152.936373 217.04405 
L 154.584365 212.416256 
L 156.232358 210.253777 
L 157.880351 208.609377 
L 159.528343 207.419556 
L 162.824329 205.655938 
L 166.120314 204.928423 
L 169.416299 204.186269 
L 172.712284 203.347018 
L 174.360277 202.896016 
L 176.008269 203.236195 
L 177.656262 202.994023 
L 179.304255 202.925572 
L 180.952247 203.533568 
L 182.60024 204.260776 
L 184.248233 205.283428 
L 185.896225 205.667898 
L 187.544218 206.302754 
L 189.19221 207.160133 
L 190.840203 207.417087 
L 192.488196 207.511744 
L 195.784181 208.979746 
L 200.728159 215.131176 
L 204.024144 218.569193 
L 205.672137 223.898452 
L 208.968122 233.252073 
L 210.616114 238.946069 
L 212.264107 239.055117 
L 213.9121 239.401007 
L 215.560092 238.857252 
L 217.208085 239.99308 
L 218.856078 237.799257 
L 220.50407 237.359999 
L 222.152063 243.510304 
L 223.800055 247.078253 
L 225.448048 248.640945 
L 227.096041 251.975674 
L 228.744033 257.099126 
L 230.392026 259.734914 
L 232.040018 260.510572 
L 238.631989 261.436158 
L 240.279982 262.44479 
L 243.575967 265.314037 
L 245.223959 266.466898 
L 248.519945 268.25346 
L 250.167937 268.418451 
L 253.463922 267.995645 
L 255.111915 268.500447 
L 256.759908 268.42245 
L 258.4079 267.428469 
L 260.055893 266.708137 
L 261.703886 265.617463 
L 263.351878 263.471688 
L 264.999871 260.674508 
L 268.295856 251.900708 
L 269.943849 242.695228 
L 274.887826 225.501873 
L 276.535819 220.416003 
L 278.183812 217.899837 
L 279.831804 216.478167 
L 281.479797 213.898234 
L 283.12779 211.956957 
L 284.775782 210.940146 
L 286.423775 210.416507 
L 291.367753 207.647472 
L 293.015745 208.021026 
L 294.663738 208.021713 
L 296.311731 207.699425 
L 297.959723 207.740314 
L 299.607716 208.359047 
L 301.255708 209.385777 
L 302.903701 208.190886 
L 304.551694 207.988974 
L 306.199686 208.236375 
L 307.847679 209.104927 
L 309.495671 208.250382 
L 311.143664 208.214899 
L 312.791657 209.946779 
L 314.439649 211.161501 
L 316.087642 210.752338 
L 317.735635 210.695552 
L 321.03162 211.380737 
L 322.679612 210.733582 
L 324.327605 210.629547 
L 325.975598 213.736193 
L 327.62359 215.473773 
L 329.271583 216.4506 
L 330.919575 217.164341 
L 332.567568 223.04628 
L 335.863553 232.40614 
L 337.511546 239.162265 
L 339.159539 250.680096 
L 340.807531 256.1401 
L 342.455524 257.625656 
L 344.103516 259.325288 
L 345.751509 261.237165 
L 347.399502 264.701238 
L 349.047494 265.9701 
L 350.695487 266.699091 
L 352.343479 267.711303 
L 353.991472 268.188372 
L 355.639465 268.267639 
L 358.93545 267.861985 
L 360.583443 267.692987 
L 362.231435 268.005398 
L 363.879428 268.546734 
L 365.52742 268.849963 
L 367.175413 269.321734 
L 368.823406 269.532867 
L 370.471398 269.50526 
L 372.119391 268.586151 
L 377.063369 265.10175 
L 378.711361 262.653294 
L 380.359354 257.090193 
L 382.007347 249.735344 
L 383.655339 238.219916 
L 385.303332 224.771429 
L 386.951324 217.25513 
L 388.599317 214.065879 
L 390.24731 211.90168 
L 393.543295 209.473135 
L 395.191287 208.731595 
L 396.83928 209.616855 
L 398.487273 209.664691 
L 398.487273 209.664691 
" style="fill:none;stroke:#2ca02c;stroke-linecap:square;stroke-width:1.5;"/>
   </g>
   <g id="line2d_17">
    <path clip-path="url(#p70a4aeb887)" d="M 73.832727 61.378708 
L 75.48072 59.467745 
L 77.128713 58.620168 
L 78.776705 58.113874 
L 80.424698 59.427142 
L 82.07269 60.332592 
L 83.720683 62.821303 
L 85.368676 65.095506 
L 87.016668 65.885354 
L 90.312653 65.140783 
L 93.608639 67.43084 
L 95.256631 68.956111 
L 96.904624 69.970685 
L 98.552617 72.284673 
L 100.200609 74.942549 
L 101.848602 76.832815 
L 103.496594 78.063404 
L 105.144587 78.738514 
L 106.79258 80.887877 
L 108.440572 81.459871 
L 110.088565 81.492527 
L 111.736557 81.950514 
L 113.38455 81.689402 
L 115.032543 81.645104 
L 116.680535 81.432527 
L 118.328528 81.467698 
L 119.976521 82.06672 
L 121.624513 82.174885 
L 123.272506 82.041412 
L 124.920498 82.370813 
L 126.568491 82.258931 
L 128.216484 82.801218 
L 129.864476 82.332419 
L 131.512469 82.135573 
L 133.160461 82.375425 
L 134.808454 82.239104 
L 136.456447 82.326805 
L 138.104439 82.272697 
L 139.752432 82.7408 
L 141.400425 82.567392 
L 144.69641 82.440944 
L 146.344402 82.835786 
L 147.992395 81.076467 
L 151.28838 75.619357 
L 152.936373 72.863753 
L 154.584365 69.359256 
L 156.232358 66.608173 
L 157.880351 64.151527 
L 159.528343 61.960039 
L 161.176336 60.209242 
L 162.824329 58.804375 
L 166.120314 57.306886 
L 171.064292 54.8019 
L 172.712284 54.250464 
L 176.008269 53.568 
L 179.304255 54.887043 
L 182.60024 56.763376 
L 184.248233 57.8296 
L 185.896225 58.546846 
L 187.544218 59.971555 
L 189.19221 61.727899 
L 190.840203 62.300216 
L 192.488196 62.6418 
L 194.136188 64.160902 
L 195.784181 65.472119 
L 197.432174 67.574421 
L 202.376151 70.888699 
L 204.024144 71.615173 
L 205.672137 72.73867 
L 208.968122 75.43039 
L 212.264107 77.640876 
L 213.9121 77.904747 
L 215.560092 77.968707 
L 217.208085 77.793889 
L 220.50407 77.831015 
L 222.152063 77.688987 
L 225.448048 79.397869 
L 227.096041 80.077961 
L 228.744033 80.00197 
L 230.392026 81.058018 
L 232.040018 81.588122 
L 235.336004 81.832239 
L 236.983996 81.692883 
L 238.631989 81.843402 
L 241.927974 81.738228 
L 243.575967 81.952927 
L 245.223959 81.975878 
L 246.871952 82.276299 
L 248.519945 82.393646 
L 250.167937 82.628807 
L 251.81593 82.72709 
L 253.463922 82.684234 
L 255.111915 82.510576 
L 258.4079 82.833188 
L 263.351878 82.76031 
L 264.999871 82.521925 
L 266.647863 82.636363 
L 268.295856 81.68037 
L 269.943849 81.187188 
L 271.591841 78.675175 
L 274.887826 75.793018 
L 276.535819 73.849141 
L 278.183812 72.171235 
L 281.479797 70.270878 
L 283.12779 68.611454 
L 284.775782 67.378532 
L 286.423775 67.058426 
L 291.367753 62.771663 
L 293.015745 63.746754 
L 294.663738 63.553278 
L 296.311731 62.711685 
L 297.959723 62.962636 
L 299.607716 64.208368 
L 301.255708 65.608639 
L 302.903701 63.467753 
L 304.551694 63.384757 
L 307.847679 65.09213 
L 309.495671 63.657115 
L 311.143664 63.822419 
L 312.791657 66.404718 
L 314.439649 67.80704 
L 316.087642 67.312675 
L 317.735635 67.397146 
L 319.383627 67.705282 
L 321.03162 67.859206 
L 322.679612 67.314592 
L 324.327605 67.062996 
L 325.975598 68.677613 
L 327.62359 70.099573 
L 329.271583 71.299809 
L 330.919575 70.994822 
L 332.567568 72.089712 
L 334.215561 73.960578 
L 335.863553 75.135964 
L 337.511546 76.668569 
L 339.159539 77.419954 
L 340.807531 79.766858 
L 342.455524 81.179204 
L 345.751509 81.447988 
L 347.399502 81.360757 
L 349.047494 82.047301 
L 357.287457 82.71427 
L 358.93545 82.564623 
L 370.471398 82.50508 
L 372.119391 82.792233 
L 375.415376 82.914299 
L 378.711361 82.705699 
L 380.359354 82.917865 
L 382.007347 82.370376 
L 383.655339 80.531164 
L 385.303332 77.568835 
L 386.951324 72.775637 
L 388.599317 70.105765 
L 390.24731 68.354358 
L 393.543295 65.732578 
L 395.191287 65.031665 
L 396.83928 65.606736 
L 398.487273 65.847314 
L 398.487273 65.847314 
" style="fill:none;stroke:#d62728;stroke-linecap:square;stroke-width:1.5;"/>
   </g>
   <g id="patch_3">
    <path d="M 57.6 307.584 
L 57.6 41.472 
" style="fill:none;stroke:#000000;stroke-linecap:square;stroke-linejoin:miter;stroke-width:0.8;"/>
   </g>
   <g id="patch_4">
    <path d="M 414.72 307.584 
L 414.72 41.472 
" style="fill:none;stroke:#000000;stroke-linecap:square;stroke-linejoin:miter;stroke-width:0.8;"/>
   </g>
   <g id="patch_5">
    <path d="M 57.6 307.584 
L 414.72 307.584 
" style="fill:none;stroke:#000000;stroke-linecap:square;stroke-linejoin:miter;stroke-width:0.8;"/>
   </g>
   <g id="patch_6">
    <path d="M 57.6 41.472 
L 414.72 41.472 
" style="fill:none;stroke:#000000;stroke-linecap:square;stroke-linejoin:miter;stroke-width:0.8;"/>
   </g>
   <g id="text_14">
    <!-- Plot of Test Data vs MCMC Uncertainty  -->
    <defs>
     <path d="M 19.671875 64.796875 
L 19.671875 37.40625 
L 32.078125 37.40625 
Q 38.96875 37.40625 42.71875 40.96875 
Q 46.484375 44.53125 46.484375 51.125 
Q 46.484375 57.671875 42.71875 61.234375 
Q 38.96875 64.796875 32.078125 64.796875 
z
M 9.8125 72.90625 
L 32.078125 72.90625 
Q 44.34375 72.90625 50.609375 67.359375 
Q 56.890625 61.8125 56.890625 51.125 
Q 56.890625 40.328125 50.609375 34.8125 
Q 44.34375 29.296875 32.078125 29.296875 
L 19.671875 29.296875 
L 19.671875 0 
L 9.8125 0 
z
" id="DejaVuSans-50"/>
     <path d="M 9.421875 75.984375 
L 18.40625 75.984375 
L 18.40625 0 
L 9.421875 0 
z
" id="DejaVuSans-6c"/>
     <path d="M 30.609375 48.390625 
Q 23.390625 48.390625 19.1875 42.75 
Q 14.984375 37.109375 14.984375 27.296875 
Q 14.984375 17.484375 19.15625 11.84375 
Q 23.34375 6.203125 30.609375 6.203125 
Q 37.796875 6.203125 41.984375 11.859375 
Q 46.1875 17.53125 46.1875 27.296875 
Q 46.1875 37.015625 41.984375 42.703125 
Q 37.796875 48.390625 30.609375 48.390625 
z
M 30.609375 56 
Q 42.328125 56 49.015625 48.375 
Q 55.71875 40.765625 55.71875 27.296875 
Q 55.71875 13.875 49.015625 6.21875 
Q 42.328125 -1.421875 30.609375 -1.421875 
Q 18.84375 -1.421875 12.171875 6.21875 
Q 5.515625 13.875 5.515625 27.296875 
Q 5.515625 40.765625 12.171875 48.375 
Q 18.84375 56 30.609375 56 
z
" id="DejaVuSans-6f"/>
     <path d="M 18.3125 70.21875 
L 18.3125 54.6875 
L 36.8125 54.6875 
L 36.8125 47.703125 
L 18.3125 47.703125 
L 18.3125 18.015625 
Q 18.3125 11.328125 20.140625 9.421875 
Q 21.96875 7.515625 27.59375 7.515625 
L 36.8125 7.515625 
L 36.8125 0 
L 27.59375 0 
Q 17.1875 0 13.234375 3.875 
Q 9.28125 7.765625 9.28125 18.015625 
L 9.28125 47.703125 
L 2.6875 47.703125 
L 2.6875 54.6875 
L 9.28125 54.6875 
L 9.28125 70.21875 
z
" id="DejaVuSans-74"/>
     <path id="DejaVuSans-20"/>
     <path d="M 37.109375 75.984375 
L 37.109375 68.5 
L 28.515625 68.5 
Q 23.6875 68.5 21.796875 66.546875 
Q 19.921875 64.59375 19.921875 59.515625 
L 19.921875 54.6875 
L 34.71875 54.6875 
L 34.71875 47.703125 
L 19.921875 47.703125 
L 19.921875 0 
L 10.890625 0 
L 10.890625 47.703125 
L 2.296875 47.703125 
L 2.296875 54.6875 
L 10.890625 54.6875 
L 10.890625 58.5 
Q 10.890625 67.625 15.140625 71.796875 
Q 19.390625 75.984375 28.609375 75.984375 
z
" id="DejaVuSans-66"/>
     <path d="M -0.296875 72.90625 
L 61.375 72.90625 
L 61.375 64.59375 
L 35.5 64.59375 
L 35.5 0 
L 25.59375 0 
L 25.59375 64.59375 
L -0.296875 64.59375 
z
" id="DejaVuSans-54"/>
     <path d="M 56.203125 29.59375 
L 56.203125 25.203125 
L 14.890625 25.203125 
Q 15.484375 15.921875 20.484375 11.0625 
Q 25.484375 6.203125 34.421875 6.203125 
Q 39.59375 6.203125 44.453125 7.46875 
Q 49.3125 8.734375 54.109375 11.28125 
L 54.109375 2.78125 
Q 49.265625 0.734375 44.1875 -0.34375 
Q 39.109375 -1.421875 33.890625 -1.421875 
Q 20.796875 -1.421875 13.15625 6.1875 
Q 5.515625 13.8125 5.515625 26.8125 
Q 5.515625 40.234375 12.765625 48.109375 
Q 20.015625 56 32.328125 56 
Q 43.359375 56 49.78125 48.890625 
Q 56.203125 41.796875 56.203125 29.59375 
z
M 47.21875 32.234375 
Q 47.125 39.59375 43.09375 43.984375 
Q 39.0625 48.390625 32.421875 48.390625 
Q 24.90625 48.390625 20.390625 44.140625 
Q 15.875 39.890625 15.1875 32.171875 
z
" id="DejaVuSans-65"/>
     <path d="M 44.28125 53.078125 
L 44.28125 44.578125 
Q 40.484375 46.53125 36.375 47.5 
Q 32.28125 48.484375 27.875 48.484375 
Q 21.1875 48.484375 17.84375 46.4375 
Q 14.5 44.390625 14.5 40.28125 
Q 14.5 37.15625 16.890625 35.375 
Q 19.28125 33.59375 26.515625 31.984375 
L 29.59375 31.296875 
Q 39.15625 29.25 43.1875 25.515625 
Q 47.21875 21.78125 47.21875 15.09375 
Q 47.21875 7.46875 41.1875 3.015625 
Q 35.15625 -1.421875 24.609375 -1.421875 
Q 20.21875 -1.421875 15.453125 -0.5625 
Q 10.6875 0.296875 5.421875 2 
L 5.421875 11.28125 
Q 10.40625 8.6875 15.234375 7.390625 
Q 20.0625 6.109375 24.8125 6.109375 
Q 31.15625 6.109375 34.5625 8.28125 
Q 37.984375 10.453125 37.984375 14.40625 
Q 37.984375 18.0625 35.515625 20.015625 
Q 33.0625 21.96875 24.703125 23.78125 
L 21.578125 24.515625 
Q 13.234375 26.265625 9.515625 29.90625 
Q 5.8125 33.546875 5.8125 39.890625 
Q 5.8125 47.609375 11.28125 51.796875 
Q 16.75 56 26.8125 56 
Q 31.78125 56 36.171875 55.265625 
Q 40.578125 54.546875 44.28125 53.078125 
z
" id="DejaVuSans-73"/>
     <path d="M 19.671875 64.796875 
L 19.671875 8.109375 
L 31.59375 8.109375 
Q 46.6875 8.109375 53.6875 14.9375 
Q 60.6875 21.78125 60.6875 36.53125 
Q 60.6875 51.171875 53.6875 57.984375 
Q 46.6875 64.796875 31.59375 64.796875 
z
M 9.8125 72.90625 
L 30.078125 72.90625 
Q 51.265625 72.90625 61.171875 64.09375 
Q 71.09375 55.28125 71.09375 36.53125 
Q 71.09375 17.671875 61.125 8.828125 
Q 51.171875 0 30.078125 0 
L 9.8125 0 
z
" id="DejaVuSans-44"/>
     <path d="M 34.28125 27.484375 
Q 23.390625 27.484375 19.1875 25 
Q 14.984375 22.515625 14.984375 16.5 
Q 14.984375 11.71875 18.140625 8.90625 
Q 21.296875 6.109375 26.703125 6.109375 
Q 34.1875 6.109375 38.703125 11.40625 
Q 43.21875 16.703125 43.21875 25.484375 
L 43.21875 27.484375 
z
M 52.203125 31.203125 
L 52.203125 0 
L 43.21875 0 
L 43.21875 8.296875 
Q 40.140625 3.328125 35.546875 0.953125 
Q 30.953125 -1.421875 24.3125 -1.421875 
Q 15.921875 -1.421875 10.953125 3.296875 
Q 6 8.015625 6 15.921875 
Q 6 25.140625 12.171875 29.828125 
Q 18.359375 34.515625 30.609375 34.515625 
L 43.21875 34.515625 
L 43.21875 35.40625 
Q 43.21875 41.609375 39.140625 45 
Q 35.0625 48.390625 27.6875 48.390625 
Q 23 48.390625 18.546875 47.265625 
Q 14.109375 46.140625 10.015625 43.890625 
L 10.015625 52.203125 
Q 14.9375 54.109375 19.578125 55.046875 
Q 24.21875 56 28.609375 56 
Q 40.484375 56 46.34375 49.84375 
Q 52.203125 43.703125 52.203125 31.203125 
z
" id="DejaVuSans-61"/>
     <path d="M 2.984375 54.6875 
L 12.5 54.6875 
L 29.59375 8.796875 
L 46.6875 54.6875 
L 56.203125 54.6875 
L 35.6875 0 
L 23.484375 0 
z
" id="DejaVuSans-76"/>
     <path d="M 9.8125 72.90625 
L 24.515625 72.90625 
L 43.109375 23.296875 
L 61.8125 72.90625 
L 76.515625 72.90625 
L 76.515625 0 
L 66.890625 0 
L 66.890625 64.015625 
L 48.09375 14.015625 
L 38.1875 14.015625 
L 19.390625 64.015625 
L 19.390625 0 
L 9.8125 0 
z
" id="DejaVuSans-4d"/>
     <path d="M 64.40625 67.28125 
L 64.40625 56.890625 
Q 59.421875 61.53125 53.78125 63.8125 
Q 48.140625 66.109375 41.796875 66.109375 
Q 29.296875 66.109375 22.65625 58.46875 
Q 16.015625 50.828125 16.015625 36.375 
Q 16.015625 21.96875 22.65625 14.328125 
Q 29.296875 6.6875 41.796875 6.6875 
Q 48.140625 6.6875 53.78125 8.984375 
Q 59.421875 11.28125 64.40625 15.921875 
L 64.40625 5.609375 
Q 59.234375 2.09375 53.4375 0.328125 
Q 47.65625 -1.421875 41.21875 -1.421875 
Q 24.65625 -1.421875 15.125 8.703125 
Q 5.609375 18.84375 5.609375 36.375 
Q 5.609375 53.953125 15.125 64.078125 
Q 24.65625 74.21875 41.21875 74.21875 
Q 47.75 74.21875 53.53125 72.484375 
Q 59.328125 70.75 64.40625 67.28125 
z
" id="DejaVuSans-43"/>
     <path d="M 8.6875 72.90625 
L 18.609375 72.90625 
L 18.609375 28.609375 
Q 18.609375 16.890625 22.84375 11.734375 
Q 27.09375 6.59375 36.625 6.59375 
Q 46.09375 6.59375 50.34375 11.734375 
Q 54.59375 16.890625 54.59375 28.609375 
L 54.59375 72.90625 
L 64.5 72.90625 
L 64.5 27.390625 
Q 64.5 13.140625 57.4375 5.859375 
Q 50.390625 -1.421875 36.625 -1.421875 
Q 22.796875 -1.421875 15.734375 5.859375 
Q 8.6875 13.140625 8.6875 27.390625 
z
" id="DejaVuSans-55"/>
     <path d="M 54.890625 33.015625 
L 54.890625 0 
L 45.90625 0 
L 45.90625 32.71875 
Q 45.90625 40.484375 42.875 44.328125 
Q 39.84375 48.1875 33.796875 48.1875 
Q 26.515625 48.1875 22.3125 43.546875 
Q 18.109375 38.921875 18.109375 30.90625 
L 18.109375 0 
L 9.078125 0 
L 9.078125 54.6875 
L 18.109375 54.6875 
L 18.109375 46.1875 
Q 21.34375 51.125 25.703125 53.5625 
Q 30.078125 56 35.796875 56 
Q 45.21875 56 50.046875 50.171875 
Q 54.890625 44.34375 54.890625 33.015625 
z
" id="DejaVuSans-6e"/>
     <path d="M 48.78125 52.59375 
L 48.78125 44.1875 
Q 44.96875 46.296875 41.140625 47.34375 
Q 37.3125 48.390625 33.40625 48.390625 
Q 24.65625 48.390625 19.8125 42.84375 
Q 14.984375 37.3125 14.984375 27.296875 
Q 14.984375 17.28125 19.8125 11.734375 
Q 24.65625 6.203125 33.40625 6.203125 
Q 37.3125 6.203125 41.140625 7.25 
Q 44.96875 8.296875 48.78125 10.40625 
L 48.78125 2.09375 
Q 45.015625 0.34375 40.984375 -0.53125 
Q 36.96875 -1.421875 32.421875 -1.421875 
Q 20.0625 -1.421875 12.78125 6.34375 
Q 5.515625 14.109375 5.515625 27.296875 
Q 5.515625 40.671875 12.859375 48.328125 
Q 20.21875 56 33.015625 56 
Q 37.15625 56 41.109375 55.140625 
Q 45.0625 54.296875 48.78125 52.59375 
z
" id="DejaVuSans-63"/>
     <path d="M 41.109375 46.296875 
Q 39.59375 47.171875 37.8125 47.578125 
Q 36.03125 48 33.890625 48 
Q 26.265625 48 22.1875 43.046875 
Q 18.109375 38.09375 18.109375 28.8125 
L 18.109375 0 
L 9.078125 0 
L 9.078125 54.6875 
L 18.109375 54.6875 
L 18.109375 46.1875 
Q 20.953125 51.171875 25.484375 53.578125 
Q 30.03125 56 36.53125 56 
Q 37.453125 56 38.578125 55.875 
Q 39.703125 55.765625 41.0625 55.515625 
z
" id="DejaVuSans-72"/>
     <path d="M 9.421875 54.6875 
L 18.40625 54.6875 
L 18.40625 0 
L 9.421875 0 
z
M 9.421875 75.984375 
L 18.40625 75.984375 
L 18.40625 64.59375 
L 9.421875 64.59375 
z
" id="DejaVuSans-69"/>
     <path d="M 32.171875 -5.078125 
Q 28.375 -14.84375 24.75 -17.8125 
Q 21.140625 -20.796875 15.09375 -20.796875 
L 7.90625 -20.796875 
L 7.90625 -13.28125 
L 13.1875 -13.28125 
Q 16.890625 -13.28125 18.9375 -11.515625 
Q 21 -9.765625 23.484375 -3.21875 
L 25.09375 0.875 
L 2.984375 54.6875 
L 12.5 54.6875 
L 29.59375 11.921875 
L 46.6875 54.6875 
L 56.203125 54.6875 
z
" id="DejaVuSans-79"/>
    </defs>
    <g transform="translate(118.112813 35.472)scale(0.12 -0.12)">
     <use xlink:href="#DejaVuSans-50"/>
     <use x="60.302734" xlink:href="#DejaVuSans-6c"/>
     <use x="88.085938" xlink:href="#DejaVuSans-6f"/>
     <use x="149.267578" xlink:href="#DejaVuSans-74"/>
     <use x="188.476562" xlink:href="#DejaVuSans-20"/>
     <use x="220.263672" xlink:href="#DejaVuSans-6f"/>
     <use x="281.445312" xlink:href="#DejaVuSans-66"/>
     <use x="316.650391" xlink:href="#DejaVuSans-20"/>
     <use x="348.4375" xlink:href="#DejaVuSans-54"/>
     <use x="409.255859" xlink:href="#DejaVuSans-65"/>
     <use x="470.779297" xlink:href="#DejaVuSans-73"/>
     <use x="522.878906" xlink:href="#DejaVuSans-74"/>
     <use x="562.087891" xlink:href="#DejaVuSans-20"/>
     <use x="593.875" xlink:href="#DejaVuSans-44"/>
     <use x="670.876953" xlink:href="#DejaVuSans-61"/>
     <use x="732.15625" xlink:href="#DejaVuSans-74"/>
     <use x="771.365234" xlink:href="#DejaVuSans-61"/>
     <use x="832.644531" xlink:href="#DejaVuSans-20"/>
     <use x="864.431641" xlink:href="#DejaVuSans-76"/>
     <use x="923.611328" xlink:href="#DejaVuSans-73"/>
     <use x="975.710938" xlink:href="#DejaVuSans-20"/>
     <use x="1007.498047" xlink:href="#DejaVuSans-4d"/>
     <use x="1093.777344" xlink:href="#DejaVuSans-43"/>
     <use x="1163.601562" xlink:href="#DejaVuSans-4d"/>
     <use x="1249.880859" xlink:href="#DejaVuSans-43"/>
     <use x="1319.705078" xlink:href="#DejaVuSans-20"/>
     <use x="1351.492188" xlink:href="#DejaVuSans-55"/>
     <use x="1424.685547" xlink:href="#DejaVuSans-6e"/>
     <use x="1488.064453" xlink:href="#DejaVuSans-63"/>
     <use x="1543.044922" xlink:href="#DejaVuSans-65"/>
     <use x="1604.568359" xlink:href="#DejaVuSans-72"/>
     <use x="1645.681641" xlink:href="#DejaVuSans-74"/>
     <use x="1684.890625" xlink:href="#DejaVuSans-61"/>
     <use x="1746.169922" xlink:href="#DejaVuSans-69"/>
     <use x="1773.953125" xlink:href="#DejaVuSans-6e"/>
     <use x="1837.332031" xlink:href="#DejaVuSans-74"/>
     <use x="1876.541016" xlink:href="#DejaVuSans-79"/>
     <use x="1935.720703" xlink:href="#DejaVuSans-20"/>
    </g>
   </g>
   <g id="legend_1">
    <g id="patch_7">
     <path d="M 275.02 302.584 
L 407.72 302.584 
Q 409.72 302.584 409.72 300.584 
L 409.72 242.8715 
Q 409.72 240.8715 407.72 240.8715 
L 275.02 240.8715 
Q 273.02 240.8715 273.02 242.8715 
L 273.02 300.584 
Q 273.02 302.584 275.02 302.584 
z
" style="fill:#ffffff;opacity:0.8;stroke:#cccccc;stroke-linejoin:miter;"/>
    </g>
    <g id="line2d_18">
     <path d="M 277.02 248.969937 
L 297.02 248.969937 
" style="fill:none;stroke:#1f77b4;stroke-linecap:square;stroke-width:1.5;"/>
    </g>
    <g id="line2d_19"/>
    <g id="text_15">
     <!-- actual -->
     <defs>
      <path d="M 8.5 21.578125 
L 8.5 54.6875 
L 17.484375 54.6875 
L 17.484375 21.921875 
Q 17.484375 14.15625 20.5 10.265625 
Q 23.53125 6.390625 29.59375 6.390625 
Q 36.859375 6.390625 41.078125 11.03125 
Q 45.3125 15.671875 45.3125 23.6875 
L 45.3125 54.6875 
L 54.296875 54.6875 
L 54.296875 0 
L 45.3125 0 
L 45.3125 8.40625 
Q 42.046875 3.421875 37.71875 1 
Q 33.40625 -1.421875 27.6875 -1.421875 
Q 18.265625 -1.421875 13.375 4.4375 
Q 8.5 10.296875 8.5 21.578125 
z
M 31.109375 56 
z
" id="DejaVuSans-75"/>
     </defs>
     <g transform="translate(305.02 252.469937)scale(0.1 -0.1)">
      <use xlink:href="#DejaVuSans-61"/>
      <use x="61.279297" xlink:href="#DejaVuSans-63"/>
      <use x="116.259766" xlink:href="#DejaVuSans-74"/>
      <use x="155.46875" xlink:href="#DejaVuSans-75"/>
      <use x="218.847656" xlink:href="#DejaVuSans-61"/>
      <use x="280.126953" xlink:href="#DejaVuSans-6c"/>
     </g>
    </g>
    <g id="line2d_20">
     <path d="M 277.02 263.648062 
L 297.02 263.648062 
" style="fill:none;stroke:#ff7f0e;stroke-linecap:square;stroke-width:1.5;"/>
    </g>
    <g id="line2d_21"/>
    <g id="text_16">
     <!-- pred. (mean) -->
     <defs>
      <path d="M 18.109375 8.203125 
L 18.109375 -20.796875 
L 9.078125 -20.796875 
L 9.078125 54.6875 
L 18.109375 54.6875 
L 18.109375 46.390625 
Q 20.953125 51.265625 25.265625 53.625 
Q 29.59375 56 35.59375 56 
Q 45.5625 56 51.78125 48.09375 
Q 58.015625 40.1875 58.015625 27.296875 
Q 58.015625 14.40625 51.78125 6.484375 
Q 45.5625 -1.421875 35.59375 -1.421875 
Q 29.59375 -1.421875 25.265625 0.953125 
Q 20.953125 3.328125 18.109375 8.203125 
z
M 48.6875 27.296875 
Q 48.6875 37.203125 44.609375 42.84375 
Q 40.53125 48.484375 33.40625 48.484375 
Q 26.265625 48.484375 22.1875 42.84375 
Q 18.109375 37.203125 18.109375 27.296875 
Q 18.109375 17.390625 22.1875 11.75 
Q 26.265625 6.109375 33.40625 6.109375 
Q 40.53125 6.109375 44.609375 11.75 
Q 48.6875 17.390625 48.6875 27.296875 
z
" id="DejaVuSans-70"/>
      <path d="M 45.40625 46.390625 
L 45.40625 75.984375 
L 54.390625 75.984375 
L 54.390625 0 
L 45.40625 0 
L 45.40625 8.203125 
Q 42.578125 3.328125 38.25 0.953125 
Q 33.9375 -1.421875 27.875 -1.421875 
Q 17.96875 -1.421875 11.734375 6.484375 
Q 5.515625 14.40625 5.515625 27.296875 
Q 5.515625 40.1875 11.734375 48.09375 
Q 17.96875 56 27.875 56 
Q 33.9375 56 38.25 53.625 
Q 42.578125 51.265625 45.40625 46.390625 
z
M 14.796875 27.296875 
Q 14.796875 17.390625 18.875 11.75 
Q 22.953125 6.109375 30.078125 6.109375 
Q 37.203125 6.109375 41.296875 11.75 
Q 45.40625 17.390625 45.40625 27.296875 
Q 45.40625 37.203125 41.296875 42.84375 
Q 37.203125 48.484375 30.078125 48.484375 
Q 22.953125 48.484375 18.875 42.84375 
Q 14.796875 37.203125 14.796875 27.296875 
z
" id="DejaVuSans-64"/>
      <path d="M 31 75.875 
Q 24.46875 64.65625 21.28125 53.65625 
Q 18.109375 42.671875 18.109375 31.390625 
Q 18.109375 20.125 21.3125 9.0625 
Q 24.515625 -2 31 -13.1875 
L 23.1875 -13.1875 
Q 15.875 -1.703125 12.234375 9.375 
Q 8.59375 20.453125 8.59375 31.390625 
Q 8.59375 42.28125 12.203125 53.3125 
Q 15.828125 64.359375 23.1875 75.875 
z
" id="DejaVuSans-28"/>
      <path d="M 52 44.1875 
Q 55.375 50.25 60.0625 53.125 
Q 64.75 56 71.09375 56 
Q 79.640625 56 84.28125 50.015625 
Q 88.921875 44.046875 88.921875 33.015625 
L 88.921875 0 
L 79.890625 0 
L 79.890625 32.71875 
Q 79.890625 40.578125 77.09375 44.375 
Q 74.3125 48.1875 68.609375 48.1875 
Q 61.625 48.1875 57.5625 43.546875 
Q 53.515625 38.921875 53.515625 30.90625 
L 53.515625 0 
L 44.484375 0 
L 44.484375 32.71875 
Q 44.484375 40.625 41.703125 44.40625 
Q 38.921875 48.1875 33.109375 48.1875 
Q 26.21875 48.1875 22.15625 43.53125 
Q 18.109375 38.875 18.109375 30.90625 
L 18.109375 0 
L 9.078125 0 
L 9.078125 54.6875 
L 18.109375 54.6875 
L 18.109375 46.1875 
Q 21.1875 51.21875 25.484375 53.609375 
Q 29.78125 56 35.6875 56 
Q 41.65625 56 45.828125 52.96875 
Q 50 49.953125 52 44.1875 
z
" id="DejaVuSans-6d"/>
      <path d="M 8.015625 75.875 
L 15.828125 75.875 
Q 23.140625 64.359375 26.78125 53.3125 
Q 30.421875 42.28125 30.421875 31.390625 
Q 30.421875 20.453125 26.78125 9.375 
Q 23.140625 -1.703125 15.828125 -13.1875 
L 8.015625 -13.1875 
Q 14.5 -2 17.703125 9.0625 
Q 20.90625 20.125 20.90625 31.390625 
Q 20.90625 42.671875 17.703125 53.65625 
Q 14.5 64.65625 8.015625 75.875 
z
" id="DejaVuSans-29"/>
     </defs>
     <g transform="translate(305.02 267.148062)scale(0.1 -0.1)">
      <use xlink:href="#DejaVuSans-70"/>
      <use x="63.476562" xlink:href="#DejaVuSans-72"/>
      <use x="104.558594" xlink:href="#DejaVuSans-65"/>
      <use x="166.082031" xlink:href="#DejaVuSans-64"/>
      <use x="229.558594" xlink:href="#DejaVuSans-2e"/>
      <use x="261.345703" xlink:href="#DejaVuSans-20"/>
      <use x="293.132812" xlink:href="#DejaVuSans-28"/>
      <use x="332.146484" xlink:href="#DejaVuSans-6d"/>
      <use x="429.558594" xlink:href="#DejaVuSans-65"/>
      <use x="491.082031" xlink:href="#DejaVuSans-61"/>
      <use x="552.361328" xlink:href="#DejaVuSans-6e"/>
      <use x="615.740234" xlink:href="#DejaVuSans-29"/>
     </g>
    </g>
    <g id="line2d_22">
     <path d="M 277.02 278.326187 
L 297.02 278.326187 
" style="fill:none;stroke:#2ca02c;stroke-linecap:square;stroke-width:1.5;"/>
    </g>
    <g id="line2d_23"/>
    <g id="text_17">
     <!-- pred.(5th percen.) -->
     <defs>
      <path d="M 54.890625 33.015625 
L 54.890625 0 
L 45.90625 0 
L 45.90625 32.71875 
Q 45.90625 40.484375 42.875 44.328125 
Q 39.84375 48.1875 33.796875 48.1875 
Q 26.515625 48.1875 22.3125 43.546875 
Q 18.109375 38.921875 18.109375 30.90625 
L 18.109375 0 
L 9.078125 0 
L 9.078125 75.984375 
L 18.109375 75.984375 
L 18.109375 46.1875 
Q 21.34375 51.125 25.703125 53.5625 
Q 30.078125 56 35.796875 56 
Q 45.21875 56 50.046875 50.171875 
Q 54.890625 44.34375 54.890625 33.015625 
z
" id="DejaVuSans-68"/>
     </defs>
     <g transform="translate(305.02 281.826187)scale(0.1 -0.1)">
      <use xlink:href="#DejaVuSans-70"/>
      <use x="63.476562" xlink:href="#DejaVuSans-72"/>
      <use x="104.558594" xlink:href="#DejaVuSans-65"/>
      <use x="166.082031" xlink:href="#DejaVuSans-64"/>
      <use x="229.558594" xlink:href="#DejaVuSans-2e"/>
      <use x="261.345703" xlink:href="#DejaVuSans-28"/>
      <use x="300.359375" xlink:href="#DejaVuSans-35"/>
      <use x="363.982422" xlink:href="#DejaVuSans-74"/>
      <use x="403.191406" xlink:href="#DejaVuSans-68"/>
      <use x="466.570312" xlink:href="#DejaVuSans-20"/>
      <use x="498.357422" xlink:href="#DejaVuSans-70"/>
      <use x="561.833984" xlink:href="#DejaVuSans-65"/>
      <use x="623.357422" xlink:href="#DejaVuSans-72"/>
      <use x="664.439453" xlink:href="#DejaVuSans-63"/>
      <use x="719.419922" xlink:href="#DejaVuSans-65"/>
      <use x="780.943359" xlink:href="#DejaVuSans-6e"/>
      <use x="844.322266" xlink:href="#DejaVuSans-2e"/>
      <use x="876.109375" xlink:href="#DejaVuSans-29"/>
     </g>
    </g>
    <g id="line2d_24">
     <path d="M 277.02 293.004312 
L 297.02 293.004312 
" style="fill:none;stroke:#d62728;stroke-linecap:square;stroke-width:1.5;"/>
    </g>
    <g id="line2d_25"/>
    <g id="text_18">
     <!-- pred.(95th	percen.) -->
     <defs>
      <path d="M 10.984375 1.515625 
L 10.984375 10.5 
Q 14.703125 8.734375 18.5 7.8125 
Q 22.3125 6.890625 25.984375 6.890625 
Q 35.75 6.890625 40.890625 13.453125 
Q 46.046875 20.015625 46.78125 33.40625 
Q 43.953125 29.203125 39.59375 26.953125 
Q 35.25 24.703125 29.984375 24.703125 
Q 19.046875 24.703125 12.671875 31.3125 
Q 6.296875 37.9375 6.296875 49.421875 
Q 6.296875 60.640625 12.9375 67.421875 
Q 19.578125 74.21875 30.609375 74.21875 
Q 43.265625 74.21875 49.921875 64.515625 
Q 56.59375 54.828125 56.59375 36.375 
Q 56.59375 19.140625 48.40625 8.859375 
Q 40.234375 -1.421875 26.421875 -1.421875 
Q 22.703125 -1.421875 18.890625 -0.6875 
Q 15.09375 0.046875 10.984375 1.515625 
z
M 30.609375 32.421875 
Q 37.25 32.421875 41.125 36.953125 
Q 45.015625 41.5 45.015625 49.421875 
Q 45.015625 57.28125 41.125 61.84375 
Q 37.25 66.40625 30.609375 66.40625 
Q 23.96875 66.40625 20.09375 61.84375 
Q 16.21875 57.28125 16.21875 49.421875 
Q 16.21875 41.5 20.09375 36.953125 
Q 23.96875 32.421875 30.609375 32.421875 
z
" id="DejaVuSans-39"/>
      <path d="M 4.984375 -17.671875 
L 4.984375 70.515625 
L 54.984375 70.515625 
L 54.984375 -17.671875 
z
M 10.59375 -12.109375 
L 49.421875 -12.109375 
L 49.421875 64.890625 
L 10.59375 64.890625 
z
" id="DejaVuSans-9"/>
     </defs>
     <g transform="translate(305.02 296.504312)scale(0.1 -0.1)">
      <use xlink:href="#DejaVuSans-70"/>
      <use x="63.476562" xlink:href="#DejaVuSans-72"/>
      <use x="104.558594" xlink:href="#DejaVuSans-65"/>
      <use x="166.082031" xlink:href="#DejaVuSans-64"/>
      <use x="229.558594" xlink:href="#DejaVuSans-2e"/>
      <use x="261.345703" xlink:href="#DejaVuSans-28"/>
      <use x="300.359375" xlink:href="#DejaVuSans-39"/>
      <use x="363.982422" xlink:href="#DejaVuSans-35"/>
      <use x="427.605469" xlink:href="#DejaVuSans-74"/>
      <use x="466.814453" xlink:href="#DejaVuSans-68"/>
      <use x="530.193359" xlink:href="#DejaVuSans-9"/>
      <use x="590.203125" xlink:href="#DejaVuSans-70"/>
      <use x="653.679688" xlink:href="#DejaVuSans-65"/>
      <use x="715.203125" xlink:href="#DejaVuSans-72"/>
      <use x="756.285156" xlink:href="#DejaVuSans-63"/>
      <use x="811.265625" xlink:href="#DejaVuSans-65"/>
      <use x="872.789062" xlink:href="#DejaVuSans-6e"/>
      <use x="936.167969" xlink:href="#DejaVuSans-2e"/>
      <use x="967.955078" xlink:href="#DejaVuSans-29"/>
     </g>
    </g>
   </g>
  </g>
 </g>
 <defs>
  <clipPath id="p70a4aeb887">
   <rect height="266.112" width="357.12" x="57.6" y="41.472"/>
  </clipPath>
 </defs>
</svg>
