<?xml version="1.0" encoding="utf-8" standalone="no"?>
<!DOCTYPE svg PUBLIC "-//W3C//DTD SVG 1.1//EN"
  "http://www.w3.org/Graphics/SVG/1.1/DTD/svg11.dtd">
<!-- Created with matplotlib (http://matplotlib.org/) -->
<svg height="345.6pt" version="1.1" viewBox="0 0 460.8 345.6" width="460.8pt" xmlns="http://www.w3.org/2000/svg" xmlns:xlink="http://www.w3.org/1999/xlink">
 <defs>
  <style type="text/css">
*{stroke-linecap:butt;stroke-linejoin:round;}
  </style>
 </defs>
 <g id="figure_1">
  <g id="patch_1">
   <path d="M 0 345.6 
L 460.8 345.6 
L 460.8 0 
L 0 0 
z
" style="fill:#ffffff;"/>
  </g>
  <g id="axes_1">
   <g id="patch_2">
    <path d="M 57.6 307.584 
L 414.72 307.584 
L 414.72 41.472 
L 57.6 41.472 
z
" style="fill:#ffffff;"/>
   </g>
   <g id="PolyCollection_1">
    <path clip-path="url(#pb69933d868)" d="M 73.832727 154.170411 
L 73.832727 275.564511 
L 74.92584 275.957472 
L 76.018953 275.884861 
L 77.112066 275.792588 
L 78.205179 274.827321 
L 79.298292 272.507075 
L 80.391405 271.211392 
L 81.484518 265.975035 
L 82.577631 259.36413 
L 83.670744 250.802362 
L 84.763857 243.905772 
L 85.85697 240.348425 
L 86.950083 238.622359 
L 88.043196 236.711858 
L 89.136309 235.971547 
L 90.229421 234.82065 
L 91.322534 233.128307 
L 92.415647 232.648242 
L 93.50876 232.306506 
L 94.601873 229.919742 
L 95.694986 228.865413 
L 96.788099 229.283502 
L 97.881212 228.294728 
L 98.974325 228.128304 
L 100.067438 228.074512 
L 101.160551 229.351384 
L 102.253664 230.239128 
L 103.346777 229.429263 
L 104.43989 230.868608 
L 105.533003 231.607606 
L 106.626116 232.471835 
L 107.719229 233.115124 
L 108.812342 234.022739 
L 109.905455 235.19436 
L 110.998567 235.827171 
L 112.09168 234.77649 
L 113.184793 234.863611 
L 114.277906 235.165835 
L 115.371019 235.593885 
L 116.464132 235.535416 
L 117.557245 236.370492 
L 118.650358 237.627112 
L 119.743471 238.259018 
L 120.836584 239.291165 
L 121.929697 240.544365 
L 123.02281 241.626692 
L 124.115923 243.245456 
L 125.209036 245.610155 
L 126.302149 247.262187 
L 127.395262 249.906675 
L 128.488375 257.061308 
L 129.581488 260.638893 
L 130.674601 260.856799 
L 131.767713 260.80318 
L 132.860826 263.640022 
L 133.953939 266.105393 
L 135.047052 267.328359 
L 136.140165 268.851267 
L 137.233278 271.859509 
L 138.326391 273.656501 
L 139.419504 273.453017 
L 140.512617 272.776342 
L 141.60573 273.022451 
L 142.698843 272.119644 
L 143.791956 271.019051 
L 144.885069 270.370537 
L 145.978182 266.972519 
L 147.071295 261.120258 
L 148.164408 255.775279 
L 149.257521 252.803774 
L 150.350634 249.561833 
L 151.443747 246.222307 
L 152.53686 244.575484 
L 153.629972 243.524313 
L 154.723085 241.91551 
L 155.816198 240.652063 
L 156.909311 239.634976 
L 158.002424 238.467153 
L 159.095537 238.126195 
L 160.18865 237.937269 
L 161.281763 237.823851 
L 162.374876 237.308027 
L 163.467989 236.396064 
L 164.561102 235.903251 
L 165.654215 234.582156 
L 166.747328 232.553104 
L 167.840441 231.409565 
L 168.933554 231.236073 
L 170.026667 229.064875 
L 171.11978 229.974798 
L 172.212893 230.64141 
L 173.306006 230.233271 
L 174.399118 230.170315 
L 175.492231 230.041065 
L 176.585344 231.578092 
L 177.678457 232.489008 
L 178.77157 232.995161 
L 179.864683 234.71154 
L 180.957796 235.374418 
L 182.050909 236.075412 
L 183.144022 236.595125 
L 184.237135 236.915574 
L 185.330248 237.466613 
L 186.423361 237.506199 
L 187.516474 237.514337 
L 188.609587 237.579305 
L 189.7027 237.683741 
L 190.795813 237.791178 
L 191.888926 237.883528 
L 192.982039 238.123797 
L 194.075152 238.275062 
L 195.168264 238.581352 
L 196.261377 238.622364 
L 197.35449 239.300723 
L 198.447603 239.692254 
L 199.540716 241.18676 
L 200.633829 242.509903 
L 201.726942 242.778207 
L 202.820055 243.253753 
L 203.913168 244.421398 
L 205.006281 247.680853 
L 206.099394 251.518557 
L 207.192507 255.253282 
L 208.28562 260.937361 
L 209.378733 264.500833 
L 210.471846 265.206546 
L 211.564959 266.065315 
L 212.658072 268.16963 
L 213.751185 270.495583 
L 214.844298 272.672047 
L 215.93741 274.295578 
L 217.030523 276.144018 
L 218.123636 277.372578 
L 219.216749 278.130411 
L 220.309862 278.386592 
L 221.402975 278.180271 
L 222.496088 278.102543 
L 223.589201 277.778455 
L 224.682314 277.162378 
L 225.775427 276.385595 
L 226.86854 274.654987 
L 227.961653 272.519246 
L 229.054766 267.796308 
L 230.147879 262.860678 
L 231.240992 257.27187 
L 232.334105 251.466964 
L 233.427218 247.300302 
L 234.520331 244.497425 
L 235.613444 241.629494 
L 236.706556 240.1984 
L 237.799669 239.081606 
L 238.892782 237.997748 
L 239.985895 236.774356 
L 241.079008 236.082267 
L 242.172121 235.46669 
L 243.265234 234.98754 
L 244.358347 234.277106 
L 245.45146 234.249203 
L 246.544573 234.266151 
L 247.637686 234.247249 
L 248.730799 233.556257 
L 249.823912 233.995393 
L 250.917025 233.970341 
L 252.010138 234.286717 
L 253.103251 234.028315 
L 254.196364 234.327869 
L 255.289477 235.039572 
L 256.38259 235.154049 
L 257.475702 236.231539 
L 258.568815 236.31297 
L 259.661928 237.310029 
L 260.755041 237.4759 
L 261.848154 237.707927 
L 262.941267 238.018344 
L 264.03438 238.289863 
L 265.127493 238.873876 
L 266.220606 238.89876 
L 267.313719 239.933874 
L 268.406832 241.866326 
L 269.499945 242.9681 
L 270.593058 243.140407 
L 271.686171 243.302478 
L 272.779284 243.235391 
L 273.872397 242.693367 
L 274.96551 241.896521 
L 276.058623 241.768529 
L 277.151736 242.266135 
L 278.244848 243.14183 
L 279.337961 244.25039 
L 280.431074 245.954016 
L 281.524187 248.89973 
L 282.6173 253.60906 
L 283.710413 255.713494 
L 284.803526 258.445704 
L 285.896639 262.147317 
L 286.989752 265.678391 
L 288.082865 267.562511 
L 289.175978 269.692718 
L 290.269091 273.280625 
L 291.362204 275.284468 
L 292.455317 276.538394 
L 293.54843 277.198288 
L 294.641543 277.268784 
L 295.734656 276.311504 
L 296.827769 274.6003 
L 297.920882 271.679133 
L 299.013994 267.520797 
L 300.107107 262.44387 
L 301.20022 255.372909 
L 302.293333 248.070509 
L 303.386446 244.101976 
L 304.479559 241.694668 
L 305.572672 240.058436 
L 306.665785 238.456365 
L 307.758898 237.471231 
L 308.852011 236.92893 
L 309.945124 236.143129 
L 311.038237 236.223835 
L 312.13135 234.832637 
L 313.224463 233.099864 
L 314.317576 231.937254 
L 315.410689 230.794016 
L 316.503802 229.142018 
L 317.596915 228.739563 
L 318.690028 228.608339 
L 319.78314 228.88904 
L 320.876253 229.17721 
L 321.969366 230.202834 
L 323.062479 231.573068 
L 324.155592 231.593211 
L 325.248705 232.570163 
L 326.341818 233.631425 
L 327.434931 233.792908 
L 328.528044 233.364645 
L 329.621157 233.195297 
L 330.71427 233.329135 
L 331.807383 232.889336 
L 332.900496 234.245539 
L 333.993609 235.185704 
L 335.086722 236.558663 
L 336.179835 237.762667 
L 337.272948 238.504532 
L 338.366061 239.672378 
L 339.459174 240.11323 
L 340.552287 240.624186 
L 341.645399 242.334956 
L 342.738512 244.607782 
L 343.831625 247.453742 
L 344.924738 252.857872 
L 346.017851 262.02291 
L 347.110964 266.177641 
L 348.204077 268.361979 
L 349.29719 269.206699 
L 350.390303 270.937868 
L 351.483416 272.6727 
L 352.576529 273.164228 
L 353.669642 273.068992 
L 354.762755 273.193186 
L 355.855868 273.423879 
L 356.948981 273.405591 
L 358.042094 272.1403 
L 359.135207 272.275694 
L 360.22832 272.335488 
L 361.321433 272.831583 
L 362.414545 273.904874 
L 363.507658 274.963176 
L 364.600771 276.175884 
L 365.693884 276.916646 
L 366.786997 277.734946 
L 367.88011 278.293429 
L 368.973223 278.683081 
L 370.066336 278.86799 
L 371.159449 278.889499 
L 372.252562 278.382785 
L 373.345675 277.725764 
L 374.438788 276.767742 
L 375.531901 274.614976 
L 376.625014 272.254688 
L 377.718127 268.976237 
L 378.81124 263.702421 
L 379.904353 256.816685 
L 380.997466 252.34275 
L 382.090579 248.728994 
L 383.183691 245.601825 
L 384.276804 243.594417 
L 385.369917 241.51104 
L 386.46303 240.443064 
L 387.556143 240.075097 
L 388.649256 239.480201 
L 389.742369 238.882353 
L 390.835482 238.503097 
L 391.928595 238.139126 
L 393.021708 238.569814 
L 394.114821 238.693945 
L 395.207934 238.492974 
L 396.301047 238.609881 
L 397.39416 238.97781 
L 398.487273 239.148809 
L 398.487273 143.182535 
L 398.487273 143.182535 
L 397.39416 142.943025 
L 396.301047 142.627781 
L 395.207934 142.222341 
L 394.114821 142.464439 
L 393.021708 142.469159 
L 391.928595 141.764828 
L 390.835482 141.979386 
L 389.742369 142.759978 
L 388.649256 143.54812 
L 387.556143 144.38552 
L 386.46303 144.696088 
L 385.369917 145.912409 
L 384.276804 146.998948 
L 383.183691 148.482393 
L 382.090579 149.469923 
L 380.997466 150.719913 
L 379.904353 152.740162 
L 378.81124 153.91395 
L 377.718127 154.36015 
L 376.625014 154.584242 
L 375.531901 154.871531 
L 374.438788 154.872316 
L 373.345675 154.759095 
L 372.252562 154.750496 
L 371.159449 154.627324 
L 370.066336 154.596843 
L 368.973223 154.596203 
L 367.88011 154.429347 
L 366.786997 154.239436 
L 365.693884 154.267745 
L 364.600771 153.985064 
L 363.507658 154.051492 
L 362.414545 153.851357 
L 361.321433 153.999916 
L 360.22832 154.008122 
L 359.135207 153.926676 
L 358.042094 154.47404 
L 356.948981 153.946509 
L 355.855868 154.119859 
L 354.762755 153.930592 
L 353.669642 154.103625 
L 352.576529 153.929189 
L 351.483416 153.612949 
L 350.390303 153.426949 
L 349.29719 153.398793 
L 348.204077 152.813542 
L 347.110964 151.74039 
L 346.017851 150.053656 
L 344.924738 148.718764 
L 343.831625 147.90211 
L 342.738512 146.514723 
L 341.645399 145.597939 
L 340.552287 144.840896 
L 339.459174 144.516503 
L 338.366061 143.961691 
L 337.272948 142.254527 
L 336.179835 140.713499 
L 335.086722 138.660099 
L 333.993609 136.894345 
L 332.900496 135.098449 
L 331.807383 130.95695 
L 330.71427 124.543473 
L 329.621157 121.759906 
L 328.528044 121.423609 
L 327.434931 121.441562 
L 326.341818 125.542298 
L 325.248705 124.754505 
L 324.155592 120.837997 
L 323.062479 112.691055 
L 321.969366 109.072138 
L 320.876253 102.720232 
L 319.78314 95.570029 
L 318.690028 90.573737 
L 317.596915 86.271177 
L 316.503802 85.338843 
L 315.410689 85.415723 
L 314.317576 89.461873 
L 313.224463 97.68776 
L 312.13135 108.075972 
L 311.038237 116.676546 
L 309.945124 137.592049 
L 308.852011 139.023801 
L 307.758898 140.107042 
L 306.665785 141.853496 
L 305.572672 144.452475 
L 304.479559 145.84002 
L 303.386446 147.777763 
L 302.293333 150.221691 
L 301.20022 152.252286 
L 300.107107 153.664922 
L 299.013994 154.402482 
L 297.920882 154.69615 
L 296.827769 154.707125 
L 295.734656 154.777624 
L 294.641543 154.568554 
L 293.54843 154.225697 
L 292.455317 154.064399 
L 291.362204 153.835822 
L 290.269091 153.13587 
L 289.175978 153.158923 
L 288.082865 152.79769 
L 286.989752 151.9223 
L 285.896639 151.395396 
L 284.803526 150.85827 
L 283.710413 150.186884 
L 282.6173 149.040025 
L 281.524187 148.256432 
L 280.431074 147.357776 
L 279.337961 146.812807 
L 278.244848 146.110778 
L 277.151736 145.743441 
L 276.058623 145.76732 
L 274.96551 145.793199 
L 273.872397 146.339758 
L 272.779284 146.365381 
L 271.686171 146.361095 
L 270.593058 146.372759 
L 269.499945 146.079873 
L 268.406832 145.296959 
L 267.313719 144.105577 
L 266.220606 143.07716 
L 265.127493 142.702505 
L 264.03438 142.119829 
L 262.941267 141.422573 
L 261.848154 140.450059 
L 260.755041 139.940893 
L 259.661928 139.622692 
L 258.568815 138.259877 
L 257.475702 137.748247 
L 256.38259 136.661846 
L 255.289477 136.146543 
L 254.196364 135.014235 
L 253.103251 132.759535 
L 252.010138 130.615531 
L 250.917025 130.576768 
L 249.823912 129.362947 
L 248.730799 128.746708 
L 247.637686 127.157058 
L 246.544573 128.458728 
L 245.45146 130.667127 
L 244.358347 130.783773 
L 243.265234 131.522501 
L 242.172121 134.922144 
L 241.079008 137.038856 
L 239.985895 138.896174 
L 238.892782 140.714117 
L 237.799669 142.988623 
L 236.706556 144.408787 
L 235.613444 146.184596 
L 234.520331 147.863624 
L 233.427218 149.063094 
L 232.334105 151.076047 
L 231.240992 152.348929 
L 230.147879 153.748582 
L 229.054766 154.554698 
L 227.961653 154.492634 
L 226.86854 154.784353 
L 225.775427 154.654684 
L 224.682314 154.849619 
L 223.589201 154.652579 
L 222.496088 154.543124 
L 221.402975 154.681067 
L 220.309862 154.511578 
L 219.216749 154.345814 
L 218.123636 154.159148 
L 217.030523 153.878354 
L 215.93741 153.726907 
L 214.844298 153.50638 
L 213.751185 153.175338 
L 212.658072 152.960756 
L 211.564959 152.819395 
L 210.471846 152.526173 
L 209.378733 151.614021 
L 208.28562 150.732696 
L 207.192507 149.747856 
L 206.099394 148.715829 
L 205.006281 147.73505 
L 203.913168 146.780509 
L 202.820055 146.164726 
L 201.726942 146.246732 
L 200.633829 145.730196 
L 199.540716 145.051805 
L 198.447603 143.945781 
L 197.35449 143.390074 
L 196.261377 142.673084 
L 195.168264 142.404651 
L 194.075152 141.900606 
L 192.982039 141.616871 
L 191.888926 141.079919 
L 190.795813 140.830816 
L 189.7027 140.435032 
L 188.609587 140.123754 
L 187.516474 140.099894 
L 186.423361 140.025634 
L 185.330248 139.953897 
L 184.237135 138.880523 
L 183.144022 138.512182 
L 182.050909 137.604049 
L 180.957796 136.905083 
L 179.864683 135.911384 
L 178.77157 132.395243 
L 177.678457 126.207638 
L 176.585344 118.166738 
L 175.492231 111.140459 
L 174.399118 102.759513 
L 173.306006 96.993381 
L 172.212893 94.882977 
L 171.11978 97.139719 
L 170.026667 98.778402 
L 168.933554 90.9294 
L 167.840441 93.045017 
L 166.747328 99.070059 
L 165.654215 104.300489 
L 164.561102 116.366354 
L 163.467989 130.72335 
L 162.374876 139.794086 
L 161.281763 140.85246 
L 160.18865 141.052329 
L 159.095537 141.470459 
L 158.002424 142.194253 
L 156.909311 143.90416 
L 155.816198 144.797446 
L 154.723085 145.965994 
L 153.629972 146.844793 
L 152.53686 147.43092 
L 151.443747 148.724983 
L 150.350634 149.782242 
L 149.257521 150.521765 
L 148.164408 152.059255 
L 147.071295 153.481461 
L 145.978182 154.087519 
L 144.885069 153.906083 
L 143.791956 154.245365 
L 142.698843 154.26382 
L 141.60573 153.953954 
L 140.512617 154.250438 
L 139.419504 154.112361 
L 138.326391 153.60773 
L 137.233278 153.247282 
L 136.140165 153.167469 
L 135.047052 152.984034 
L 133.953939 152.255608 
L 132.860826 151.711301 
L 131.767713 151.985358 
L 130.674601 151.578439 
L 129.581488 151.034068 
L 128.488375 149.427556 
L 127.395262 148.571609 
L 126.302149 148.12125 
L 125.209036 147.256541 
L 124.115923 146.154018 
L 123.02281 145.249658 
L 121.929697 144.895443 
L 120.836584 143.512803 
L 119.743471 141.420673 
L 118.650358 140.297298 
L 117.557245 138.359387 
L 116.464132 137.129038 
L 115.371019 136.56247 
L 114.277906 136.316791 
L 113.184793 135.935216 
L 112.09168 135.433485 
L 110.998567 135.913354 
L 109.905455 136.257568 
L 108.812342 135.053582 
L 107.719229 130.929319 
L 106.626116 123.146881 
L 105.533003 118.554513 
L 104.43989 111.477918 
L 103.346777 105.656345 
L 102.253664 98.357133 
L 101.160551 94.523894 
L 100.067438 94.043829 
L 98.974325 87.54216 
L 97.881212 82.511788 
L 96.788099 81.840481 
L 95.694986 84.536089 
L 94.601873 86.259144 
L 93.50876 86.812375 
L 92.415647 95.672308 
L 91.322534 111.25843 
L 90.229421 113.020528 
L 89.136309 120.134152 
L 88.043196 137.153543 
L 86.950083 141.962368 
L 85.85697 144.990132 
L 84.763857 148.499384 
L 83.670744 151.360079 
L 82.577631 153.315203 
L 81.484518 154.369647 
L 80.391405 154.298133 
L 79.298292 154.720921 
L 78.205179 154.437729 
L 77.112066 154.369845 
L 76.018953 154.369695 
L 74.92584 154.255383 
L 73.832727 154.170411 
z
" style="fill:#008000;fill-opacity:0.4;"/>
   </g>
   <g id="matplotlib.axis_1">
    <g id="xtick_1">
     <g id="line2d_1">
      <defs>
       <path d="M 0 0 
L 0 3.5 
" id="m5c2f6231b2" style="stroke:#000000;stroke-width:0.8;"/>
      </defs>
      <g>
       <use style="stroke:#000000;stroke-width:0.8;" x="73.832727" xlink:href="#m5c2f6231b2" y="307.584"/>
      </g>
     </g>
     <g id="text_1">
      <!-- 0.0 -->
      <defs>
       <path d="M 31.78125 66.40625 
Q 24.171875 66.40625 20.328125 58.90625 
Q 16.5 51.421875 16.5 36.375 
Q 16.5 21.390625 20.328125 13.890625 
Q 24.171875 6.390625 31.78125 6.390625 
Q 39.453125 6.390625 43.28125 13.890625 
Q 47.125 21.390625 47.125 36.375 
Q 47.125 51.421875 43.28125 58.90625 
Q 39.453125 66.40625 31.78125 66.40625 
z
M 31.78125 74.21875 
Q 44.046875 74.21875 50.515625 64.515625 
Q 56.984375 54.828125 56.984375 36.375 
Q 56.984375 17.96875 50.515625 8.265625 
Q 44.046875 -1.421875 31.78125 -1.421875 
Q 19.53125 -1.421875 13.0625 8.265625 
Q 6.59375 17.96875 6.59375 36.375 
Q 6.59375 54.828125 13.0625 64.515625 
Q 19.53125 74.21875 31.78125 74.21875 
z
" id="DejaVuSans-30"/>
       <path d="M 10.6875 12.40625 
L 21 12.40625 
L 21 0 
L 10.6875 0 
z
" id="DejaVuSans-2e"/>
      </defs>
      <g transform="translate(65.881165 322.182437)scale(0.1 -0.1)">
       <use xlink:href="#DejaVuSans-30"/>
       <use x="63.623047" xlink:href="#DejaVuSans-2e"/>
       <use x="95.410156" xlink:href="#DejaVuSans-30"/>
      </g>
     </g>
    </g>
    <g id="xtick_2">
     <g id="line2d_2">
      <g>
       <use style="stroke:#000000;stroke-width:0.8;" x="138.763636" xlink:href="#m5c2f6231b2" y="307.584"/>
      </g>
     </g>
     <g id="text_2">
      <!-- 0.2 -->
      <defs>
       <path d="M 19.1875 8.296875 
L 53.609375 8.296875 
L 53.609375 0 
L 7.328125 0 
L 7.328125 8.296875 
Q 12.9375 14.109375 22.625 23.890625 
Q 32.328125 33.6875 34.8125 36.53125 
Q 39.546875 41.84375 41.421875 45.53125 
Q 43.3125 49.21875 43.3125 52.78125 
Q 43.3125 58.59375 39.234375 62.25 
Q 35.15625 65.921875 28.609375 65.921875 
Q 23.96875 65.921875 18.8125 64.3125 
Q 13.671875 62.703125 7.8125 59.421875 
L 7.8125 69.390625 
Q 13.765625 71.78125 18.9375 73 
Q 24.125 74.21875 28.421875 74.21875 
Q 39.75 74.21875 46.484375 68.546875 
Q 53.21875 62.890625 53.21875 53.421875 
Q 53.21875 48.921875 51.53125 44.890625 
Q 49.859375 40.875 45.40625 35.40625 
Q 44.1875 33.984375 37.640625 27.21875 
Q 31.109375 20.453125 19.1875 8.296875 
z
" id="DejaVuSans-32"/>
      </defs>
      <g transform="translate(130.812074 322.182437)scale(0.1 -0.1)">
       <use xlink:href="#DejaVuSans-30"/>
       <use x="63.623047" xlink:href="#DejaVuSans-2e"/>
       <use x="95.410156" xlink:href="#DejaVuSans-32"/>
      </g>
     </g>
    </g>
    <g id="xtick_3">
     <g id="line2d_3">
      <g>
       <use style="stroke:#000000;stroke-width:0.8;" x="203.694545" xlink:href="#m5c2f6231b2" y="307.584"/>
      </g>
     </g>
     <g id="text_3">
      <!-- 0.4 -->
      <defs>
       <path d="M 37.796875 64.3125 
L 12.890625 25.390625 
L 37.796875 25.390625 
z
M 35.203125 72.90625 
L 47.609375 72.90625 
L 47.609375 25.390625 
L 58.015625 25.390625 
L 58.015625 17.1875 
L 47.609375 17.1875 
L 47.609375 0 
L 37.796875 0 
L 37.796875 17.1875 
L 4.890625 17.1875 
L 4.890625 26.703125 
z
" id="DejaVuSans-34"/>
      </defs>
      <g transform="translate(195.742983 322.182437)scale(0.1 -0.1)">
       <use xlink:href="#DejaVuSans-30"/>
       <use x="63.623047" xlink:href="#DejaVuSans-2e"/>
       <use x="95.410156" xlink:href="#DejaVuSans-34"/>
      </g>
     </g>
    </g>
    <g id="xtick_4">
     <g id="line2d_4">
      <g>
       <use style="stroke:#000000;stroke-width:0.8;" x="268.625455" xlink:href="#m5c2f6231b2" y="307.584"/>
      </g>
     </g>
     <g id="text_4">
      <!-- 0.6 -->
      <defs>
       <path d="M 33.015625 40.375 
Q 26.375 40.375 22.484375 35.828125 
Q 18.609375 31.296875 18.609375 23.390625 
Q 18.609375 15.53125 22.484375 10.953125 
Q 26.375 6.390625 33.015625 6.390625 
Q 39.65625 6.390625 43.53125 10.953125 
Q 47.40625 15.53125 47.40625 23.390625 
Q 47.40625 31.296875 43.53125 35.828125 
Q 39.65625 40.375 33.015625 40.375 
z
M 52.59375 71.296875 
L 52.59375 62.3125 
Q 48.875 64.0625 45.09375 64.984375 
Q 41.3125 65.921875 37.59375 65.921875 
Q 27.828125 65.921875 22.671875 59.328125 
Q 17.53125 52.734375 16.796875 39.40625 
Q 19.671875 43.65625 24.015625 45.921875 
Q 28.375 48.1875 33.59375 48.1875 
Q 44.578125 48.1875 50.953125 41.515625 
Q 57.328125 34.859375 57.328125 23.390625 
Q 57.328125 12.15625 50.6875 5.359375 
Q 44.046875 -1.421875 33.015625 -1.421875 
Q 20.359375 -1.421875 13.671875 8.265625 
Q 6.984375 17.96875 6.984375 36.375 
Q 6.984375 53.65625 15.1875 63.9375 
Q 23.390625 74.21875 37.203125 74.21875 
Q 40.921875 74.21875 44.703125 73.484375 
Q 48.484375 72.75 52.59375 71.296875 
z
" id="DejaVuSans-36"/>
      </defs>
      <g transform="translate(260.673892 322.182437)scale(0.1 -0.1)">
       <use xlink:href="#DejaVuSans-30"/>
       <use x="63.623047" xlink:href="#DejaVuSans-2e"/>
       <use x="95.410156" xlink:href="#DejaVuSans-36"/>
      </g>
     </g>
    </g>
    <g id="xtick_5">
     <g id="line2d_5">
      <g>
       <use style="stroke:#000000;stroke-width:0.8;" x="333.556364" xlink:href="#m5c2f6231b2" y="307.584"/>
      </g>
     </g>
     <g id="text_5">
      <!-- 0.8 -->
      <defs>
       <path d="M 31.78125 34.625 
Q 24.75 34.625 20.71875 30.859375 
Q 16.703125 27.09375 16.703125 20.515625 
Q 16.703125 13.921875 20.71875 10.15625 
Q 24.75 6.390625 31.78125 6.390625 
Q 38.8125 6.390625 42.859375 10.171875 
Q 46.921875 13.96875 46.921875 20.515625 
Q 46.921875 27.09375 42.890625 30.859375 
Q 38.875 34.625 31.78125 34.625 
z
M 21.921875 38.8125 
Q 15.578125 40.375 12.03125 44.71875 
Q 8.5 49.078125 8.5 55.328125 
Q 8.5 64.0625 14.71875 69.140625 
Q 20.953125 74.21875 31.78125 74.21875 
Q 42.671875 74.21875 48.875 69.140625 
Q 55.078125 64.0625 55.078125 55.328125 
Q 55.078125 49.078125 51.53125 44.71875 
Q 48 40.375 41.703125 38.8125 
Q 48.828125 37.15625 52.796875 32.3125 
Q 56.78125 27.484375 56.78125 20.515625 
Q 56.78125 9.90625 50.3125 4.234375 
Q 43.84375 -1.421875 31.78125 -1.421875 
Q 19.734375 -1.421875 13.25 4.234375 
Q 6.78125 9.90625 6.78125 20.515625 
Q 6.78125 27.484375 10.78125 32.3125 
Q 14.796875 37.15625 21.921875 38.8125 
z
M 18.3125 54.390625 
Q 18.3125 48.734375 21.84375 45.5625 
Q 25.390625 42.390625 31.78125 42.390625 
Q 38.140625 42.390625 41.71875 45.5625 
Q 45.3125 48.734375 45.3125 54.390625 
Q 45.3125 60.0625 41.71875 63.234375 
Q 38.140625 66.40625 31.78125 66.40625 
Q 25.390625 66.40625 21.84375 63.234375 
Q 18.3125 60.0625 18.3125 54.390625 
z
" id="DejaVuSans-38"/>
      </defs>
      <g transform="translate(325.604801 322.182437)scale(0.1 -0.1)">
       <use xlink:href="#DejaVuSans-30"/>
       <use x="63.623047" xlink:href="#DejaVuSans-2e"/>
       <use x="95.410156" xlink:href="#DejaVuSans-38"/>
      </g>
     </g>
    </g>
    <g id="xtick_6">
     <g id="line2d_6">
      <g>
       <use style="stroke:#000000;stroke-width:0.8;" x="398.487273" xlink:href="#m5c2f6231b2" y="307.584"/>
      </g>
     </g>
     <g id="text_6">
      <!-- 1.0 -->
      <defs>
       <path d="M 12.40625 8.296875 
L 28.515625 8.296875 
L 28.515625 63.921875 
L 10.984375 60.40625 
L 10.984375 69.390625 
L 28.421875 72.90625 
L 38.28125 72.90625 
L 38.28125 8.296875 
L 54.390625 8.296875 
L 54.390625 0 
L 12.40625 0 
z
" id="DejaVuSans-31"/>
      </defs>
      <g transform="translate(390.53571 322.182437)scale(0.1 -0.1)">
       <use xlink:href="#DejaVuSans-31"/>
       <use x="63.623047" xlink:href="#DejaVuSans-2e"/>
       <use x="95.410156" xlink:href="#DejaVuSans-30"/>
      </g>
     </g>
    </g>
   </g>
   <g id="matplotlib.axis_2">
    <g id="ytick_1">
     <g id="line2d_7">
      <defs>
       <path d="M 0 0 
L -3.5 0 
" id="m67e83554fb" style="stroke:#000000;stroke-width:0.8;"/>
      </defs>
      <g>
       <use style="stroke:#000000;stroke-width:0.8;" x="57.6" xlink:href="#m67e83554fb" y="299.17887"/>
      </g>
     </g>
     <g id="text_7">
      <!-- 0.0 -->
      <g transform="translate(34.696875 302.978089)scale(0.1 -0.1)">
       <use xlink:href="#DejaVuSans-30"/>
       <use x="63.623047" xlink:href="#DejaVuSans-2e"/>
       <use x="95.410156" xlink:href="#DejaVuSans-30"/>
      </g>
     </g>
    </g>
    <g id="ytick_2">
     <g id="line2d_8">
      <g>
       <use style="stroke:#000000;stroke-width:0.8;" x="57.6" xlink:href="#m67e83554fb" y="249.553394"/>
      </g>
     </g>
     <g id="text_8">
      <!-- 0.2 -->
      <g transform="translate(34.696875 253.352613)scale(0.1 -0.1)">
       <use xlink:href="#DejaVuSans-30"/>
       <use x="63.623047" xlink:href="#DejaVuSans-2e"/>
       <use x="95.410156" xlink:href="#DejaVuSans-32"/>
      </g>
     </g>
    </g>
    <g id="ytick_3">
     <g id="line2d_9">
      <g>
       <use style="stroke:#000000;stroke-width:0.8;" x="57.6" xlink:href="#m67e83554fb" y="199.927919"/>
      </g>
     </g>
     <g id="text_9">
      <!-- 0.4 -->
      <g transform="translate(34.696875 203.727138)scale(0.1 -0.1)">
       <use xlink:href="#DejaVuSans-30"/>
       <use x="63.623047" xlink:href="#DejaVuSans-2e"/>
       <use x="95.410156" xlink:href="#DejaVuSans-34"/>
      </g>
     </g>
    </g>
    <g id="ytick_4">
     <g id="line2d_10">
      <g>
       <use style="stroke:#000000;stroke-width:0.8;" x="57.6" xlink:href="#m67e83554fb" y="150.302443"/>
      </g>
     </g>
     <g id="text_10">
      <!-- 0.6 -->
      <g transform="translate(34.696875 154.101662)scale(0.1 -0.1)">
       <use xlink:href="#DejaVuSans-30"/>
       <use x="63.623047" xlink:href="#DejaVuSans-2e"/>
       <use x="95.410156" xlink:href="#DejaVuSans-36"/>
      </g>
     </g>
    </g>
    <g id="ytick_5">
     <g id="line2d_11">
      <g>
       <use style="stroke:#000000;stroke-width:0.8;" x="57.6" xlink:href="#m67e83554fb" y="100.676968"/>
      </g>
     </g>
     <g id="text_11">
      <!-- 0.8 -->
      <g transform="translate(34.696875 104.476186)scale(0.1 -0.1)">
       <use xlink:href="#DejaVuSans-30"/>
       <use x="63.623047" xlink:href="#DejaVuSans-2e"/>
       <use x="95.410156" xlink:href="#DejaVuSans-38"/>
      </g>
     </g>
    </g>
    <g id="ytick_6">
     <g id="line2d_12">
      <g>
       <use style="stroke:#000000;stroke-width:0.8;" x="57.6" xlink:href="#m67e83554fb" y="51.051492"/>
      </g>
     </g>
     <g id="text_12">
      <!-- 1.0 -->
      <g transform="translate(34.696875 54.850711)scale(0.1 -0.1)">
       <use xlink:href="#DejaVuSans-31"/>
       <use x="63.623047" xlink:href="#DejaVuSans-2e"/>
       <use x="95.410156" xlink:href="#DejaVuSans-30"/>
      </g>
     </g>
    </g>
   </g>
   <g id="line2d_13">
    <path clip-path="url(#pb69933d868)" d="M 73.832727 286.596355 
L 74.92584 286.764114 
L 76.018953 286.093054 
L 77.112066 285.086451 
L 78.205179 278.711289 
L 79.298292 276.194781 
L 80.391405 269.316244 
L 81.484518 258.411542 
L 82.577631 245.661268 
L 83.670744 224.522553 
L 84.763857 206.739263 
L 85.85697 186.607201 
L 88.043196 142.65218 
L 89.136309 124.868891 
L 90.229421 119.332673 
L 91.322534 104.40136 
L 92.415647 76.719773 
L 93.50876 67.324926 
L 94.601873 65.143887 
L 95.694986 54.574653 
L 96.788099 53.568 
L 97.881212 61.78846 
L 98.974325 79.571997 
L 100.067438 85.779152 
L 101.160551 87.456989 
L 102.253664 103.394707 
L 105.533003 130.405357 
L 106.626116 142.484446 
L 107.719229 161.609856 
L 108.812342 163.95863 
L 109.905455 152.047275 
L 110.998567 154.396049 
L 112.09168 159.932267 
L 113.184793 161.945572 
L 114.277906 159.932267 
L 115.371019 168.991645 
L 116.464132 184.761877 
L 117.557245 189.962627 
L 118.650358 202.712901 
L 119.743471 213.953319 
L 120.836584 215.463174 
L 121.929697 220.328456 
L 124.115923 236.433907 
L 125.209036 238.614947 
L 126.302149 241.131455 
L 127.395262 250.52655 
L 128.488375 256.398236 
L 129.581488 259.250212 
L 130.674601 257.069421 
L 131.767713 260.92805 
L 132.860826 265.289881 
L 135.047052 269.819694 
L 137.233278 280.892279 
L 138.326391 280.892279 
L 139.419504 278.54353 
L 140.512617 279.550133 
L 141.60573 277.704686 
L 142.698843 275.188178 
L 143.791956 274.684901 
L 144.885069 269.819694 
L 147.071295 251.532955 
L 148.164408 247.674326 
L 149.257521 242.64131 
L 150.350634 234.588584 
L 151.443747 229.555568 
L 152.53686 225.361471 
L 153.629972 220.49619 
L 154.723085 214.288787 
L 155.816198 200.867329 
L 156.909311 196.337764 
L 158.002424 193.150071 
L 159.095537 192.143419 
L 160.18865 190.298095 
L 161.281763 182.077387 
L 164.561102 115.809512 
L 167.840441 77.89416 
L 168.933554 90.141231 
L 170.026667 93.496658 
L 171.11978 88.79911 
L 172.212893 89.470047 
L 173.306006 96.1809 
L 174.399118 112.622068 
L 175.492231 122.352383 
L 176.585344 133.257333 
L 177.678457 151.543825 
L 178.77157 160.435469 
L 179.864683 167.984993 
L 180.957796 174.695846 
L 182.050909 176.205701 
L 183.144022 184.929611 
L 184.237135 186.607201 
L 185.330248 187.110403 
L 186.423361 186.607201 
L 187.516474 187.781587 
L 188.609587 191.304748 
L 189.7027 191.640216 
L 190.795813 194.659926 
L 191.888926 197.176434 
L 194.075152 200.364127 
L 195.168264 205.564877 
L 196.261377 206.571529 
L 197.35449 213.785585 
L 198.447603 219.992739 
L 199.540716 224.522553 
L 200.633829 223.683634 
L 201.726942 225.361471 
L 203.913168 238.950415 
L 205.006281 244.319147 
L 206.099394 248.680979 
L 207.192507 256.230502 
L 208.28562 262.270171 
L 209.378733 264.45121 
L 210.471846 265.625349 
L 211.564959 268.309839 
L 213.751185 277.536927 
L 214.844298 281.731099 
L 215.93741 286.596355 
L 217.030523 290.119442 
L 218.123636 292.803733 
L 219.216749 293.810336 
L 220.309862 293.139251 
L 221.402975 292.635949 
L 222.496088 292.300432 
L 223.589201 289.951683 
L 224.682314 288.777321 
L 225.775427 283.744305 
L 226.86854 279.717892 
L 229.054766 263.109089 
L 230.147879 255.559566 
L 231.240992 244.486881 
L 232.334105 238.782681 
L 233.427218 229.2201 
L 234.520331 217.811948 
L 235.613444 209.255771 
L 239.985895 160.603451 
L 242.172121 142.819914 
L 243.265234 141.813509 
L 244.358347 141.645775 
L 245.45146 138.961285 
L 246.544573 134.767188 
L 247.637686 138.961285 
L 248.730799 139.464736 
L 249.823912 141.981244 
L 250.917025 140.639123 
L 252.010138 147.181993 
L 253.103251 155.234719 
L 254.196364 159.764533 
L 255.289477 168.656177 
L 256.38259 170.501501 
L 257.475702 182.580838 
L 259.661928 187.278385 
L 262.941267 202.712901 
L 264.03438 200.867329 
L 265.127493 206.403795 
L 266.220606 216.13411 
L 267.313719 223.5159 
L 268.406832 225.361471 
L 269.499945 224.690287 
L 271.686171 226.703592 
L 272.779284 222.006045 
L 273.872397 220.999392 
L 274.96551 219.489537 
L 276.058623 222.173779 
L 277.151736 227.03906 
L 278.244848 229.891037 
L 279.337961 236.769624 
L 280.431074 240.124802 
L 281.524187 247.003389 
L 282.6173 250.52655 
L 283.710413 253.54626 
L 285.896639 263.94776 
L 286.989752 267.806389 
L 288.082865 270.994081 
L 289.175978 278.879073 
L 290.269091 284.583149 
L 291.362204 287.938476 
L 292.455317 290.119442 
L 293.54843 290.287225 
L 294.641543 288.609562 
L 295.734656 283.744305 
L 296.827769 278.040229 
L 299.013994 262.941107 
L 300.107107 252.371873 
L 302.293333 226.703592 
L 303.386446 219.657271 
L 304.479559 203.048369 
L 305.572672 190.298095 
L 306.665785 182.748572 
L 307.758898 177.547822 
L 308.852011 168.991645 
L 309.945124 142.148978 
L 311.038237 121.849181 
L 314.317576 67.828129 
L 315.410689 63.801766 
L 316.503802 64.976152 
L 317.596915 72.022474 
L 318.690028 82.256239 
L 319.78314 97.187304 
L 320.876253 109.769844 
L 321.969366 114.131923 
L 323.062479 126.378994 
L 324.155592 134.599454 
L 325.248705 134.263986 
L 326.341818 129.734172 
L 327.434931 128.224317 
L 328.528044 128.72752 
L 329.621157 130.069641 
L 330.71427 144.665485 
L 331.807383 156.409106 
L 333.993609 185.600548 
L 335.086722 194.659926 
L 336.179835 208.081384 
L 337.272948 211.940013 
L 338.366061 212.778932 
L 339.459174 216.973029 
L 340.552287 222.844963 
L 341.645399 233.749665 
L 342.738512 238.614947 
L 343.831625 244.486881 
L 344.924738 256.56597 
L 346.017851 264.786678 
L 347.110964 269.316244 
L 348.204077 271.161815 
L 349.29719 273.846057 
L 350.390303 278.207988 
L 351.483416 279.885676 
L 352.576529 279.046832 
L 353.669642 280.221194 
L 354.762755 279.382374 
L 355.855868 281.395581 
L 356.948981 277.201384 
L 358.042094 277.87247 
L 359.135207 277.536927 
L 360.22832 277.87247 
L 361.321433 281.395581 
L 362.414545 283.241003 
L 363.507658 287.099657 
L 364.600771 288.94508 
L 365.693884 291.293828 
L 366.786997 293.307035 
L 367.88011 294.145854 
L 368.973223 295.320241 
L 370.066336 295.488 
L 372.252562 292.132648 
L 373.345675 289.61614 
L 376.625014 272.67167 
L 377.718127 265.961065 
L 378.81124 252.875076 
L 379.904353 246.667921 
L 380.997466 241.466923 
L 382.090579 232.910995 
L 383.183691 226.032408 
L 384.276804 215.798642 
L 385.369917 215.463174 
L 386.46303 209.255771 
L 387.556143 205.732611 
L 388.649256 199.357474 
L 389.742369 194.492192 
L 390.835482 201.203045 
L 391.928595 202.20945 
L 393.021708 198.854272 
L 394.114821 198.518555 
L 395.207934 204.39049 
L 396.301047 207.745916 
L 397.39416 200.364127 
L 398.487273 198.854272 
L 398.487273 198.854272 
" style="fill:none;stroke:#1f77b4;stroke-linecap:square;stroke-width:1.5;"/>
   </g>
   <g id="line2d_14">
    <path clip-path="url(#pb69933d868)" d="M 73.832727 223.346349 
L 74.92584 223.618962 
L 76.018953 223.665735 
L 77.112066 223.594363 
L 78.205179 223.213954 
L 79.298292 222.074761 
L 80.391405 221.163585 
L 81.484518 219.331271 
L 82.577631 216.520421 
L 83.670744 212.261068 
L 85.85697 198.936759 
L 89.136309 176.612684 
L 90.229421 172.09303 
L 91.322534 169.834947 
L 93.50876 161.562582 
L 94.601873 159.706396 
L 95.694986 158.788549 
L 96.788099 157.685 
L 97.881212 157.439562 
L 98.974325 158.793004 
L 100.067438 161.29776 
L 102.253664 163.520959 
L 105.533003 171.017594 
L 106.626116 172.907844 
L 107.719229 176.939271 
L 108.812342 181.821887 
L 109.905455 182.09946 
L 110.998567 180.161997 
L 112.09168 180.283047 
L 113.184793 181.76118 
L 114.277906 182.274366 
L 115.371019 182.329301 
L 116.464132 185.590848 
L 117.557245 189.938454 
L 118.650358 192.781483 
L 119.743471 197.077955 
L 120.836584 200.693159 
L 121.929697 201.998551 
L 123.02281 203.749922 
L 124.115923 206.467244 
L 125.209036 208.819013 
L 127.395262 211.082788 
L 128.488375 213.458036 
L 129.581488 215.419698 
L 130.674601 216.095622 
L 131.767713 216.15876 
L 132.860826 216.878918 
L 133.953939 218.017798 
L 136.140165 219.45478 
L 138.326391 221.98678 
L 139.419504 222.245021 
L 140.512617 221.883904 
L 141.60573 221.866552 
L 142.698843 221.577841 
L 143.791956 221.013202 
L 144.885069 220.633143 
L 145.978182 219.491896 
L 147.071295 217.226824 
L 148.164408 214.644284 
L 150.350634 211.38346 
L 151.443747 208.909947 
L 152.53686 207.077625 
L 153.629972 205.588243 
L 154.723085 203.672844 
L 155.816198 201.007405 
L 156.909311 197.246853 
L 158.002424 194.913919 
L 159.095537 193.74178 
L 160.18865 193.455396 
L 161.281763 192.532728 
L 162.374876 188.925756 
L 164.561102 175.064214 
L 165.654215 169.682396 
L 166.747328 166.308687 
L 167.840441 163.673675 
L 168.933554 162.068105 
L 170.026667 163.387881 
L 171.11978 163.777258 
L 172.212893 163.345615 
L 173.306006 163.44792 
L 174.399118 165.064891 
L 177.678457 174.283227 
L 178.77157 178.578797 
L 179.864683 182.221345 
L 180.957796 184.627935 
L 182.050909 186.611152 
L 183.144022 187.828371 
L 184.237135 190.345945 
L 185.330248 191.198426 
L 187.516474 191.385686 
L 188.609587 191.843997 
L 189.7027 192.829005 
L 190.795813 193.074679 
L 191.888926 194.377271 
L 194.075152 195.71589 
L 196.261377 197.759019 
L 197.35449 199.030211 
L 199.540716 203.37689 
L 200.633829 204.810289 
L 201.726942 204.895962 
L 202.820055 205.720879 
L 203.913168 207.669009 
L 205.006281 209.87589 
L 206.099394 211.68855 
L 207.192507 213.256501 
L 209.378733 217.086761 
L 210.471846 217.877245 
L 211.564959 218.283001 
L 212.658072 219.03639 
L 217.030523 223.469524 
L 218.123636 224.354365 
L 219.216749 224.941388 
L 220.309862 225.224501 
L 222.496088 225.070138 
L 223.589201 224.921942 
L 225.775427 224.111277 
L 226.86854 223.203334 
L 227.961653 222.04697 
L 229.054766 220.119504 
L 231.240992 215.434171 
L 232.334105 212.505667 
L 233.427218 210.028045 
L 234.520331 206.953382 
L 235.613444 203.028468 
L 236.706556 199.583703 
L 238.892782 190.880719 
L 241.079008 182.235994 
L 242.172121 179.188588 
L 243.265234 176.917726 
L 244.358347 176.185448 
L 245.45146 176.126834 
L 246.544573 175.17854 
L 247.637686 174.546228 
L 248.730799 175.298331 
L 249.823912 175.535482 
L 250.917025 176.159032 
L 252.010138 176.131612 
L 253.103251 177.898844 
L 256.38259 184.387146 
L 257.475702 186.052598 
L 258.568815 189.255788 
L 259.661928 190.600596 
L 260.755041 191.652835 
L 261.848154 193.246823 
L 262.941267 195.305325 
L 264.03438 196.615731 
L 265.127493 196.899569 
L 266.220606 198.903904 
L 267.313719 201.896487 
L 268.406832 204.321294 
L 269.499945 205.213892 
L 270.593058 205.342512 
L 271.686171 205.658539 
L 272.779284 205.524117 
L 273.872397 204.502455 
L 274.96551 203.832464 
L 276.058623 203.666568 
L 277.151736 204.422112 
L 279.337961 207.235612 
L 282.6173 212.422118 
L 283.710413 213.691664 
L 284.803526 214.743248 
L 285.896639 216.108414 
L 286.989752 217.653247 
L 289.175978 219.766524 
L 290.269091 221.48406 
L 291.362204 222.942021 
L 292.455317 223.837733 
L 293.54843 224.36685 
L 294.641543 224.51326 
L 295.734656 224.110568 
L 296.827769 223.167244 
L 297.920882 221.737495 
L 299.013994 219.880385 
L 300.107107 217.701847 
L 301.20022 214.569049 
L 303.386446 206.325856 
L 304.479559 203.20337 
L 305.572672 197.711859 
L 306.665785 192.816975 
L 308.852011 187.889881 
L 309.945124 184.08831 
L 311.038237 176.532644 
L 312.13135 171.00365 
L 313.224463 166.545023 
L 314.317576 162.561297 
L 315.410689 159.926894 
L 316.503802 158.991825 
L 317.596915 159.104554 
L 318.690028 160.274145 
L 319.78314 162.140125 
L 321.969366 167.44708 
L 323.062479 168.950542 
L 324.155592 171.936731 
L 325.248705 173.530192 
L 326.341818 173.86666 
L 327.434931 172.848924 
L 328.528044 172.402212 
L 329.621157 172.455133 
L 330.71427 173.41743 
L 332.900496 180.866311 
L 335.086722 190.435537 
L 337.272948 198.533241 
L 338.366061 200.388389 
L 339.459174 201.095726 
L 340.552287 202.444943 
L 341.645399 204.663165 
L 342.738512 207.904779 
L 344.924738 211.972177 
L 346.017851 215.184105 
L 347.110964 217.68866 
L 348.204077 219.102152 
L 350.390303 220.485065 
L 351.483416 221.438627 
L 352.576529 221.950424 
L 354.762755 222.01346 
L 356.948981 222.182163 
L 358.042094 221.663798 
L 359.135207 221.469115 
L 360.22832 221.512072 
L 361.321433 221.677918 
L 363.507658 222.87794 
L 364.600771 223.605283 
L 366.786997 224.658967 
L 367.88011 225.084946 
L 370.066336 225.547481 
L 371.159449 225.607319 
L 372.252562 225.364937 
L 373.345675 224.947222 
L 374.438788 224.386778 
L 375.531901 223.255115 
L 376.625014 221.921769 
L 377.718127 220.40684 
L 378.81124 218.314592 
L 379.904353 215.237274 
L 380.997466 212.855414 
L 382.090579 210.926105 
L 384.276804 205.524343 
L 385.369917 202.86223 
L 386.46303 201.498694 
L 388.649256 198.300445 
L 389.742369 195.857675 
L 390.835482 194.953728 
L 391.928595 196.242639 
L 393.021708 196.710661 
L 394.114821 195.925737 
L 395.207934 196.136961 
L 396.301047 197.827111 
L 397.39416 198.197634 
L 398.487273 196.910225 
L 398.487273 196.910225 
" style="fill:none;stroke:#ff7f0e;stroke-linecap:square;stroke-width:1.5;"/>
   </g>
   <g id="line2d_15">
    <path clip-path="url(#pb69933d868)" d="M 73.832727 275.564511 
L 74.92584 275.957472 
L 77.112066 275.792588 
L 78.205179 274.827321 
L 79.298292 272.507075 
L 80.391405 271.211392 
L 81.484518 265.975035 
L 82.577631 259.36413 
L 83.670744 250.802362 
L 84.763857 243.905772 
L 85.85697 240.348425 
L 88.043196 236.711858 
L 89.136309 235.971547 
L 90.229421 234.82065 
L 91.322534 233.128307 
L 92.415647 232.648242 
L 93.50876 232.306506 
L 94.601873 229.919742 
L 95.694986 228.865413 
L 96.788099 229.283502 
L 97.881212 228.294728 
L 98.974325 228.128304 
L 100.067438 228.074512 
L 101.160551 229.351384 
L 102.253664 230.239128 
L 103.346777 229.429263 
L 104.43989 230.868608 
L 107.719229 233.115124 
L 108.812342 234.022739 
L 109.905455 235.19436 
L 110.998567 235.827171 
L 112.09168 234.77649 
L 113.184793 234.863611 
L 114.277906 235.165835 
L 115.371019 235.593885 
L 116.464132 235.535416 
L 117.557245 236.370492 
L 118.650358 237.627112 
L 119.743471 238.259018 
L 120.836584 239.291165 
L 121.929697 240.544365 
L 123.02281 241.626692 
L 124.115923 243.245456 
L 125.209036 245.610155 
L 126.302149 247.262187 
L 127.395262 249.906675 
L 128.488375 257.061308 
L 129.581488 260.638893 
L 130.674601 260.856799 
L 131.767713 260.80318 
L 132.860826 263.640022 
L 133.953939 266.105393 
L 135.047052 267.328359 
L 136.140165 268.851267 
L 137.233278 271.859509 
L 138.326391 273.656501 
L 139.419504 273.453017 
L 140.512617 272.776342 
L 141.60573 273.022451 
L 142.698843 272.119644 
L 143.791956 271.019051 
L 144.885069 270.370537 
L 145.978182 266.972519 
L 148.164408 255.775279 
L 150.350634 249.561833 
L 151.443747 246.222307 
L 152.53686 244.575484 
L 153.629972 243.524313 
L 154.723085 241.91551 
L 155.816198 240.652063 
L 158.002424 238.467153 
L 159.095537 238.126195 
L 161.281763 237.823851 
L 162.374876 237.308027 
L 163.467989 236.396064 
L 164.561102 235.903251 
L 165.654215 234.582156 
L 166.747328 232.553104 
L 167.840441 231.409565 
L 168.933554 231.236073 
L 170.026667 229.064875 
L 171.11978 229.974798 
L 172.212893 230.64141 
L 173.306006 230.233271 
L 175.492231 230.041065 
L 176.585344 231.578092 
L 177.678457 232.489008 
L 178.77157 232.995161 
L 179.864683 234.71154 
L 183.144022 236.595125 
L 184.237135 236.915574 
L 185.330248 237.466613 
L 189.7027 237.683741 
L 191.888926 237.883528 
L 195.168264 238.581352 
L 196.261377 238.622364 
L 197.35449 239.300723 
L 198.447603 239.692254 
L 200.633829 242.509903 
L 201.726942 242.778207 
L 202.820055 243.253753 
L 203.913168 244.421398 
L 205.006281 247.680853 
L 207.192507 255.253282 
L 208.28562 260.937361 
L 209.378733 264.500833 
L 210.471846 265.206546 
L 211.564959 266.065315 
L 213.751185 270.495583 
L 214.844298 272.672047 
L 215.93741 274.295578 
L 217.030523 276.144018 
L 218.123636 277.372578 
L 219.216749 278.130411 
L 220.309862 278.386592 
L 221.402975 278.180271 
L 222.496088 278.102543 
L 223.589201 277.778455 
L 224.682314 277.162378 
L 225.775427 276.385595 
L 226.86854 274.654987 
L 227.961653 272.519246 
L 230.147879 262.860678 
L 232.334105 251.466964 
L 233.427218 247.300302 
L 235.613444 241.629494 
L 236.706556 240.1984 
L 239.985895 236.774356 
L 242.172121 235.46669 
L 243.265234 234.98754 
L 244.358347 234.277106 
L 247.637686 234.247249 
L 248.730799 233.556257 
L 249.823912 233.995393 
L 250.917025 233.970341 
L 252.010138 234.286717 
L 253.103251 234.028315 
L 254.196364 234.327869 
L 255.289477 235.039572 
L 256.38259 235.154049 
L 257.475702 236.231539 
L 258.568815 236.31297 
L 259.661928 237.310029 
L 261.848154 237.707927 
L 264.03438 238.289863 
L 265.127493 238.873876 
L 266.220606 238.89876 
L 267.313719 239.933874 
L 268.406832 241.866326 
L 269.499945 242.9681 
L 271.686171 243.302478 
L 272.779284 243.235391 
L 273.872397 242.693367 
L 274.96551 241.896521 
L 276.058623 241.768529 
L 277.151736 242.266135 
L 278.244848 243.14183 
L 279.337961 244.25039 
L 280.431074 245.954016 
L 281.524187 248.89973 
L 282.6173 253.60906 
L 283.710413 255.713494 
L 284.803526 258.445704 
L 286.989752 265.678391 
L 288.082865 267.562511 
L 289.175978 269.692718 
L 290.269091 273.280625 
L 291.362204 275.284468 
L 292.455317 276.538394 
L 293.54843 277.198288 
L 294.641543 277.268784 
L 295.734656 276.311504 
L 296.827769 274.6003 
L 297.920882 271.679133 
L 299.013994 267.520797 
L 300.107107 262.44387 
L 302.293333 248.070509 
L 303.386446 244.101976 
L 304.479559 241.694668 
L 306.665785 238.456365 
L 307.758898 237.471231 
L 308.852011 236.92893 
L 309.945124 236.143129 
L 311.038237 236.223835 
L 312.13135 234.832637 
L 313.224463 233.099864 
L 315.410689 230.794016 
L 316.503802 229.142018 
L 317.596915 228.739563 
L 318.690028 228.608339 
L 320.876253 229.17721 
L 321.969366 230.202834 
L 323.062479 231.573068 
L 324.155592 231.593211 
L 326.341818 233.631425 
L 327.434931 233.792908 
L 328.528044 233.364645 
L 329.621157 233.195297 
L 330.71427 233.329135 
L 331.807383 232.889336 
L 332.900496 234.245539 
L 333.993609 235.185704 
L 336.179835 237.762667 
L 337.272948 238.504532 
L 338.366061 239.672378 
L 340.552287 240.624186 
L 341.645399 242.334956 
L 342.738512 244.607782 
L 343.831625 247.453742 
L 344.924738 252.857872 
L 346.017851 262.02291 
L 347.110964 266.177641 
L 348.204077 268.361979 
L 349.29719 269.206699 
L 351.483416 272.6727 
L 352.576529 273.164228 
L 353.669642 273.068992 
L 356.948981 273.405591 
L 358.042094 272.1403 
L 360.22832 272.335488 
L 361.321433 272.831583 
L 364.600771 276.175884 
L 367.88011 278.293429 
L 368.973223 278.683081 
L 370.066336 278.86799 
L 371.159449 278.889499 
L 372.252562 278.382785 
L 373.345675 277.725764 
L 374.438788 276.767742 
L 376.625014 272.254688 
L 377.718127 268.976237 
L 378.81124 263.702421 
L 379.904353 256.816685 
L 380.997466 252.34275 
L 382.090579 248.728994 
L 383.183691 245.601825 
L 385.369917 241.51104 
L 386.46303 240.443064 
L 387.556143 240.075097 
L 389.742369 238.882353 
L 391.928595 238.139126 
L 393.021708 238.569814 
L 394.114821 238.693945 
L 395.207934 238.492974 
L 396.301047 238.609881 
L 397.39416 238.97781 
L 398.487273 239.148809 
L 398.487273 239.148809 
" style="fill:none;stroke:#2ca02c;stroke-linecap:square;stroke-width:1.5;"/>
   </g>
   <g id="line2d_16">
    <path clip-path="url(#pb69933d868)" d="M 73.832727 154.170411 
L 78.205179 154.437729 
L 79.298292 154.720921 
L 80.391405 154.298133 
L 81.484518 154.369647 
L 82.577631 153.315203 
L 83.670744 151.360079 
L 84.763857 148.499384 
L 85.85697 144.990132 
L 86.950083 141.962368 
L 88.043196 137.153543 
L 89.136309 120.134152 
L 90.229421 113.020528 
L 91.322534 111.25843 
L 92.415647 95.672308 
L 93.50876 86.812375 
L 94.601873 86.259144 
L 95.694986 84.536089 
L 96.788099 81.840481 
L 97.881212 82.511788 
L 98.974325 87.54216 
L 100.067438 94.043829 
L 101.160551 94.523894 
L 102.253664 98.357133 
L 103.346777 105.656345 
L 104.43989 111.477918 
L 105.533003 118.554513 
L 106.626116 123.146881 
L 107.719229 130.929319 
L 108.812342 135.053582 
L 109.905455 136.257568 
L 110.998567 135.913354 
L 112.09168 135.433485 
L 114.277906 136.316791 
L 115.371019 136.56247 
L 116.464132 137.129038 
L 117.557245 138.359387 
L 118.650358 140.297298 
L 119.743471 141.420673 
L 120.836584 143.512803 
L 121.929697 144.895443 
L 123.02281 145.249658 
L 124.115923 146.154018 
L 125.209036 147.256541 
L 126.302149 148.12125 
L 127.395262 148.571609 
L 128.488375 149.427556 
L 129.581488 151.034068 
L 130.674601 151.578439 
L 131.767713 151.985358 
L 132.860826 151.711301 
L 133.953939 152.255608 
L 135.047052 152.984034 
L 138.326391 153.60773 
L 139.419504 154.112361 
L 140.512617 154.250438 
L 141.60573 153.953954 
L 142.698843 154.26382 
L 143.791956 154.245365 
L 144.885069 153.906083 
L 145.978182 154.087519 
L 147.071295 153.481461 
L 149.257521 150.521765 
L 150.350634 149.782242 
L 151.443747 148.724983 
L 152.53686 147.43092 
L 153.629972 146.844793 
L 154.723085 145.965994 
L 155.816198 144.797446 
L 156.909311 143.90416 
L 158.002424 142.194253 
L 159.095537 141.470459 
L 160.18865 141.052329 
L 161.281763 140.85246 
L 162.374876 139.794086 
L 163.467989 130.72335 
L 164.561102 116.366354 
L 165.654215 104.300489 
L 166.747328 99.070059 
L 167.840441 93.045017 
L 168.933554 90.9294 
L 170.026667 98.778402 
L 171.11978 97.139719 
L 172.212893 94.882977 
L 173.306006 96.993381 
L 174.399118 102.759513 
L 175.492231 111.140459 
L 176.585344 118.166738 
L 177.678457 126.207638 
L 178.77157 132.395243 
L 179.864683 135.911384 
L 180.957796 136.905083 
L 182.050909 137.604049 
L 183.144022 138.512182 
L 184.237135 138.880523 
L 185.330248 139.953897 
L 188.609587 140.123754 
L 191.888926 141.079919 
L 192.982039 141.616871 
L 194.075152 141.900606 
L 195.168264 142.404651 
L 196.261377 142.673084 
L 197.35449 143.390074 
L 198.447603 143.945781 
L 199.540716 145.051805 
L 200.633829 145.730196 
L 201.726942 146.246732 
L 202.820055 146.164726 
L 203.913168 146.780509 
L 210.471846 152.526173 
L 211.564959 152.819395 
L 213.751185 153.175338 
L 215.93741 153.726907 
L 217.030523 153.878354 
L 219.216749 154.345814 
L 221.402975 154.681067 
L 222.496088 154.543124 
L 224.682314 154.849619 
L 225.775427 154.654684 
L 226.86854 154.784353 
L 227.961653 154.492634 
L 229.054766 154.554698 
L 230.147879 153.748582 
L 232.334105 151.076047 
L 233.427218 149.063094 
L 234.520331 147.863624 
L 237.799669 142.988623 
L 238.892782 140.714117 
L 241.079008 137.038856 
L 242.172121 134.922144 
L 243.265234 131.522501 
L 244.358347 130.783773 
L 245.45146 130.667127 
L 246.544573 128.458728 
L 247.637686 127.157058 
L 248.730799 128.746708 
L 249.823912 129.362947 
L 250.917025 130.576768 
L 252.010138 130.615531 
L 254.196364 135.014235 
L 255.289477 136.146543 
L 256.38259 136.661846 
L 257.475702 137.748247 
L 258.568815 138.259877 
L 259.661928 139.622692 
L 260.755041 139.940893 
L 261.848154 140.450059 
L 262.941267 141.422573 
L 265.127493 142.702505 
L 266.220606 143.07716 
L 267.313719 144.105577 
L 268.406832 145.296959 
L 269.499945 146.079873 
L 270.593058 146.372759 
L 273.872397 146.339758 
L 274.96551 145.793199 
L 277.151736 145.743441 
L 278.244848 146.110778 
L 279.337961 146.812807 
L 280.431074 147.357776 
L 284.803526 150.85827 
L 286.989752 151.9223 
L 288.082865 152.79769 
L 289.175978 153.158923 
L 290.269091 153.13587 
L 291.362204 153.835822 
L 295.734656 154.777624 
L 297.920882 154.69615 
L 299.013994 154.402482 
L 300.107107 153.664922 
L 301.20022 152.252286 
L 302.293333 150.221691 
L 303.386446 147.777763 
L 304.479559 145.84002 
L 305.572672 144.452475 
L 306.665785 141.853496 
L 307.758898 140.107042 
L 308.852011 139.023801 
L 309.945124 137.592049 
L 311.038237 116.676546 
L 312.13135 108.075972 
L 313.224463 97.68776 
L 314.317576 89.461873 
L 315.410689 85.415723 
L 316.503802 85.338843 
L 317.596915 86.271177 
L 318.690028 90.573737 
L 319.78314 95.570029 
L 320.876253 102.720232 
L 321.969366 109.072138 
L 323.062479 112.691055 
L 324.155592 120.837997 
L 325.248705 124.754505 
L 326.341818 125.542298 
L 327.434931 121.441562 
L 328.528044 121.423609 
L 329.621157 121.759906 
L 330.71427 124.543473 
L 331.807383 130.95695 
L 332.900496 135.098449 
L 335.086722 138.660099 
L 336.179835 140.713499 
L 338.366061 143.961691 
L 339.459174 144.516503 
L 340.552287 144.840896 
L 341.645399 145.597939 
L 342.738512 146.514723 
L 343.831625 147.90211 
L 344.924738 148.718764 
L 346.017851 150.053656 
L 347.110964 151.74039 
L 348.204077 152.813542 
L 349.29719 153.398793 
L 350.390303 153.426949 
L 351.483416 153.612949 
L 352.576529 153.929189 
L 353.669642 154.103625 
L 354.762755 153.930592 
L 355.855868 154.119859 
L 356.948981 153.946509 
L 358.042094 154.47404 
L 359.135207 153.926676 
L 361.321433 153.999916 
L 362.414545 153.851357 
L 363.507658 154.051492 
L 364.600771 153.985064 
L 365.693884 154.267745 
L 366.786997 154.239436 
L 368.973223 154.596203 
L 371.159449 154.627324 
L 372.252562 154.750496 
L 375.531901 154.871531 
L 378.81124 153.91395 
L 379.904353 152.740162 
L 380.997466 150.719913 
L 382.090579 149.469923 
L 383.183691 148.482393 
L 384.276804 146.998948 
L 386.46303 144.696088 
L 387.556143 144.38552 
L 390.835482 141.979386 
L 391.928595 141.764828 
L 393.021708 142.469159 
L 394.114821 142.464439 
L 395.207934 142.222341 
L 397.39416 142.943025 
L 398.487273 143.182535 
L 398.487273 143.182535 
" style="fill:none;stroke:#d62728;stroke-linecap:square;stroke-width:1.5;"/>
   </g>
   <g id="patch_3">
    <path d="M 57.6 307.584 
L 57.6 41.472 
" style="fill:none;stroke:#000000;stroke-linecap:square;stroke-linejoin:miter;stroke-width:0.8;"/>
   </g>
   <g id="patch_4">
    <path d="M 414.72 307.584 
L 414.72 41.472 
" style="fill:none;stroke:#000000;stroke-linecap:square;stroke-linejoin:miter;stroke-width:0.8;"/>
   </g>
   <g id="patch_5">
    <path d="M 57.6 307.584 
L 414.72 307.584 
" style="fill:none;stroke:#000000;stroke-linecap:square;stroke-linejoin:miter;stroke-width:0.8;"/>
   </g>
   <g id="patch_6">
    <path d="M 57.6 41.472 
L 414.72 41.472 
" style="fill:none;stroke:#000000;stroke-linecap:square;stroke-linejoin:miter;stroke-width:0.8;"/>
   </g>
   <g id="text_13">
    <!-- Plot of Train Data	vs MCMC	Uncertainty	 -->
    <defs>
     <path d="M 19.671875 64.796875 
L 19.671875 37.40625 
L 32.078125 37.40625 
Q 38.96875 37.40625 42.71875 40.96875 
Q 46.484375 44.53125 46.484375 51.125 
Q 46.484375 57.671875 42.71875 61.234375 
Q 38.96875 64.796875 32.078125 64.796875 
z
M 9.8125 72.90625 
L 32.078125 72.90625 
Q 44.34375 72.90625 50.609375 67.359375 
Q 56.890625 61.8125 56.890625 51.125 
Q 56.890625 40.328125 50.609375 34.8125 
Q 44.34375 29.296875 32.078125 29.296875 
L 19.671875 29.296875 
L 19.671875 0 
L 9.8125 0 
z
" id="DejaVuSans-50"/>
     <path d="M 9.421875 75.984375 
L 18.40625 75.984375 
L 18.40625 0 
L 9.421875 0 
z
" id="DejaVuSans-6c"/>
     <path d="M 30.609375 48.390625 
Q 23.390625 48.390625 19.1875 42.75 
Q 14.984375 37.109375 14.984375 27.296875 
Q 14.984375 17.484375 19.15625 11.84375 
Q 23.34375 6.203125 30.609375 6.203125 
Q 37.796875 6.203125 41.984375 11.859375 
Q 46.1875 17.53125 46.1875 27.296875 
Q 46.1875 37.015625 41.984375 42.703125 
Q 37.796875 48.390625 30.609375 48.390625 
z
M 30.609375 56 
Q 42.328125 56 49.015625 48.375 
Q 55.71875 40.765625 55.71875 27.296875 
Q 55.71875 13.875 49.015625 6.21875 
Q 42.328125 -1.421875 30.609375 -1.421875 
Q 18.84375 -1.421875 12.171875 6.21875 
Q 5.515625 13.875 5.515625 27.296875 
Q 5.515625 40.765625 12.171875 48.375 
Q 18.84375 56 30.609375 56 
z
" id="DejaVuSans-6f"/>
     <path d="M 18.3125 70.21875 
L 18.3125 54.6875 
L 36.8125 54.6875 
L 36.8125 47.703125 
L 18.3125 47.703125 
L 18.3125 18.015625 
Q 18.3125 11.328125 20.140625 9.421875 
Q 21.96875 7.515625 27.59375 7.515625 
L 36.8125 7.515625 
L 36.8125 0 
L 27.59375 0 
Q 17.1875 0 13.234375 3.875 
Q 9.28125 7.765625 9.28125 18.015625 
L 9.28125 47.703125 
L 2.6875 47.703125 
L 2.6875 54.6875 
L 9.28125 54.6875 
L 9.28125 70.21875 
z
" id="DejaVuSans-74"/>
     <path id="DejaVuSans-20"/>
     <path d="M 37.109375 75.984375 
L 37.109375 68.5 
L 28.515625 68.5 
Q 23.6875 68.5 21.796875 66.546875 
Q 19.921875 64.59375 19.921875 59.515625 
L 19.921875 54.6875 
L 34.71875 54.6875 
L 34.71875 47.703125 
L 19.921875 47.703125 
L 19.921875 0 
L 10.890625 0 
L 10.890625 47.703125 
L 2.296875 47.703125 
L 2.296875 54.6875 
L 10.890625 54.6875 
L 10.890625 58.5 
Q 10.890625 67.625 15.140625 71.796875 
Q 19.390625 75.984375 28.609375 75.984375 
z
" id="DejaVuSans-66"/>
     <path d="M -0.296875 72.90625 
L 61.375 72.90625 
L 61.375 64.59375 
L 35.5 64.59375 
L 35.5 0 
L 25.59375 0 
L 25.59375 64.59375 
L -0.296875 64.59375 
z
" id="DejaVuSans-54"/>
     <path d="M 41.109375 46.296875 
Q 39.59375 47.171875 37.8125 47.578125 
Q 36.03125 48 33.890625 48 
Q 26.265625 48 22.1875 43.046875 
Q 18.109375 38.09375 18.109375 28.8125 
L 18.109375 0 
L 9.078125 0 
L 9.078125 54.6875 
L 18.109375 54.6875 
L 18.109375 46.1875 
Q 20.953125 51.171875 25.484375 53.578125 
Q 30.03125 56 36.53125 56 
Q 37.453125 56 38.578125 55.875 
Q 39.703125 55.765625 41.0625 55.515625 
z
" id="DejaVuSans-72"/>
     <path d="M 34.28125 27.484375 
Q 23.390625 27.484375 19.1875 25 
Q 14.984375 22.515625 14.984375 16.5 
Q 14.984375 11.71875 18.140625 8.90625 
Q 21.296875 6.109375 26.703125 6.109375 
Q 34.1875 6.109375 38.703125 11.40625 
Q 43.21875 16.703125 43.21875 25.484375 
L 43.21875 27.484375 
z
M 52.203125 31.203125 
L 52.203125 0 
L 43.21875 0 
L 43.21875 8.296875 
Q 40.140625 3.328125 35.546875 0.953125 
Q 30.953125 -1.421875 24.3125 -1.421875 
Q 15.921875 -1.421875 10.953125 3.296875 
Q 6 8.015625 6 15.921875 
Q 6 25.140625 12.171875 29.828125 
Q 18.359375 34.515625 30.609375 34.515625 
L 43.21875 34.515625 
L 43.21875 35.40625 
Q 43.21875 41.609375 39.140625 45 
Q 35.0625 48.390625 27.6875 48.390625 
Q 23 48.390625 18.546875 47.265625 
Q 14.109375 46.140625 10.015625 43.890625 
L 10.015625 52.203125 
Q 14.9375 54.109375 19.578125 55.046875 
Q 24.21875 56 28.609375 56 
Q 40.484375 56 46.34375 49.84375 
Q 52.203125 43.703125 52.203125 31.203125 
z
" id="DejaVuSans-61"/>
     <path d="M 9.421875 54.6875 
L 18.40625 54.6875 
L 18.40625 0 
L 9.421875 0 
z
M 9.421875 75.984375 
L 18.40625 75.984375 
L 18.40625 64.59375 
L 9.421875 64.59375 
z
" id="DejaVuSans-69"/>
     <path d="M 54.890625 33.015625 
L 54.890625 0 
L 45.90625 0 
L 45.90625 32.71875 
Q 45.90625 40.484375 42.875 44.328125 
Q 39.84375 48.1875 33.796875 48.1875 
Q 26.515625 48.1875 22.3125 43.546875 
Q 18.109375 38.921875 18.109375 30.90625 
L 18.109375 0 
L 9.078125 0 
L 9.078125 54.6875 
L 18.109375 54.6875 
L 18.109375 46.1875 
Q 21.34375 51.125 25.703125 53.5625 
Q 30.078125 56 35.796875 56 
Q 45.21875 56 50.046875 50.171875 
Q 54.890625 44.34375 54.890625 33.015625 
z
" id="DejaVuSans-6e"/>
     <path d="M 19.671875 64.796875 
L 19.671875 8.109375 
L 31.59375 8.109375 
Q 46.6875 8.109375 53.6875 14.9375 
Q 60.6875 21.78125 60.6875 36.53125 
Q 60.6875 51.171875 53.6875 57.984375 
Q 46.6875 64.796875 31.59375 64.796875 
z
M 9.8125 72.90625 
L 30.078125 72.90625 
Q 51.265625 72.90625 61.171875 64.09375 
Q 71.09375 55.28125 71.09375 36.53125 
Q 71.09375 17.671875 61.125 8.828125 
Q 51.171875 0 30.078125 0 
L 9.8125 0 
z
" id="DejaVuSans-44"/>
     <path d="M 4.984375 -17.671875 
L 4.984375 70.515625 
L 54.984375 70.515625 
L 54.984375 -17.671875 
z
M 10.59375 -12.109375 
L 49.421875 -12.109375 
L 49.421875 64.890625 
L 10.59375 64.890625 
z
" id="DejaVuSans-9"/>
     <path d="M 2.984375 54.6875 
L 12.5 54.6875 
L 29.59375 8.796875 
L 46.6875 54.6875 
L 56.203125 54.6875 
L 35.6875 0 
L 23.484375 0 
z
" id="DejaVuSans-76"/>
     <path d="M 44.28125 53.078125 
L 44.28125 44.578125 
Q 40.484375 46.53125 36.375 47.5 
Q 32.28125 48.484375 27.875 48.484375 
Q 21.1875 48.484375 17.84375 46.4375 
Q 14.5 44.390625 14.5 40.28125 
Q 14.5 37.15625 16.890625 35.375 
Q 19.28125 33.59375 26.515625 31.984375 
L 29.59375 31.296875 
Q 39.15625 29.25 43.1875 25.515625 
Q 47.21875 21.78125 47.21875 15.09375 
Q 47.21875 7.46875 41.1875 3.015625 
Q 35.15625 -1.421875 24.609375 -1.421875 
Q 20.21875 -1.421875 15.453125 -0.5625 
Q 10.6875 0.296875 5.421875 2 
L 5.421875 11.28125 
Q 10.40625 8.6875 15.234375 7.390625 
Q 20.0625 6.109375 24.8125 6.109375 
Q 31.15625 6.109375 34.5625 8.28125 
Q 37.984375 10.453125 37.984375 14.40625 
Q 37.984375 18.0625 35.515625 20.015625 
Q 33.0625 21.96875 24.703125 23.78125 
L 21.578125 24.515625 
Q 13.234375 26.265625 9.515625 29.90625 
Q 5.8125 33.546875 5.8125 39.890625 
Q 5.8125 47.609375 11.28125 51.796875 
Q 16.75 56 26.8125 56 
Q 31.78125 56 36.171875 55.265625 
Q 40.578125 54.546875 44.28125 53.078125 
z
" id="DejaVuSans-73"/>
     <path d="M 9.8125 72.90625 
L 24.515625 72.90625 
L 43.109375 23.296875 
L 61.8125 72.90625 
L 76.515625 72.90625 
L 76.515625 0 
L 66.890625 0 
L 66.890625 64.015625 
L 48.09375 14.015625 
L 38.1875 14.015625 
L 19.390625 64.015625 
L 19.390625 0 
L 9.8125 0 
z
" id="DejaVuSans-4d"/>
     <path d="M 64.40625 67.28125 
L 64.40625 56.890625 
Q 59.421875 61.53125 53.78125 63.8125 
Q 48.140625 66.109375 41.796875 66.109375 
Q 29.296875 66.109375 22.65625 58.46875 
Q 16.015625 50.828125 16.015625 36.375 
Q 16.015625 21.96875 22.65625 14.328125 
Q 29.296875 6.6875 41.796875 6.6875 
Q 48.140625 6.6875 53.78125 8.984375 
Q 59.421875 11.28125 64.40625 15.921875 
L 64.40625 5.609375 
Q 59.234375 2.09375 53.4375 0.328125 
Q 47.65625 -1.421875 41.21875 -1.421875 
Q 24.65625 -1.421875 15.125 8.703125 
Q 5.609375 18.84375 5.609375 36.375 
Q 5.609375 53.953125 15.125 64.078125 
Q 24.65625 74.21875 41.21875 74.21875 
Q 47.75 74.21875 53.53125 72.484375 
Q 59.328125 70.75 64.40625 67.28125 
z
" id="DejaVuSans-43"/>
     <path d="M 8.6875 72.90625 
L 18.609375 72.90625 
L 18.609375 28.609375 
Q 18.609375 16.890625 22.84375 11.734375 
Q 27.09375 6.59375 36.625 6.59375 
Q 46.09375 6.59375 50.34375 11.734375 
Q 54.59375 16.890625 54.59375 28.609375 
L 54.59375 72.90625 
L 64.5 72.90625 
L 64.5 27.390625 
Q 64.5 13.140625 57.4375 5.859375 
Q 50.390625 -1.421875 36.625 -1.421875 
Q 22.796875 -1.421875 15.734375 5.859375 
Q 8.6875 13.140625 8.6875 27.390625 
z
" id="DejaVuSans-55"/>
     <path d="M 48.78125 52.59375 
L 48.78125 44.1875 
Q 44.96875 46.296875 41.140625 47.34375 
Q 37.3125 48.390625 33.40625 48.390625 
Q 24.65625 48.390625 19.8125 42.84375 
Q 14.984375 37.3125 14.984375 27.296875 
Q 14.984375 17.28125 19.8125 11.734375 
Q 24.65625 6.203125 33.40625 6.203125 
Q 37.3125 6.203125 41.140625 7.25 
Q 44.96875 8.296875 48.78125 10.40625 
L 48.78125 2.09375 
Q 45.015625 0.34375 40.984375 -0.53125 
Q 36.96875 -1.421875 32.421875 -1.421875 
Q 20.0625 -1.421875 12.78125 6.34375 
Q 5.515625 14.109375 5.515625 27.296875 
Q 5.515625 40.671875 12.859375 48.328125 
Q 20.21875 56 33.015625 56 
Q 37.15625 56 41.109375 55.140625 
Q 45.0625 54.296875 48.78125 52.59375 
z
" id="DejaVuSans-63"/>
     <path d="M 56.203125 29.59375 
L 56.203125 25.203125 
L 14.890625 25.203125 
Q 15.484375 15.921875 20.484375 11.0625 
Q 25.484375 6.203125 34.421875 6.203125 
Q 39.59375 6.203125 44.453125 7.46875 
Q 49.3125 8.734375 54.109375 11.28125 
L 54.109375 2.78125 
Q 49.265625 0.734375 44.1875 -0.34375 
Q 39.109375 -1.421875 33.890625 -1.421875 
Q 20.796875 -1.421875 13.15625 6.1875 
Q 5.515625 13.8125 5.515625 26.8125 
Q 5.515625 40.234375 12.765625 48.109375 
Q 20.015625 56 32.328125 56 
Q 43.359375 56 49.78125 48.890625 
Q 56.203125 41.796875 56.203125 29.59375 
z
M 47.21875 32.234375 
Q 47.125 39.59375 43.09375 43.984375 
Q 39.0625 48.390625 32.421875 48.390625 
Q 24.90625 48.390625 20.390625 44.140625 
Q 15.875 39.890625 15.1875 32.171875 
z
" id="DejaVuSans-65"/>
     <path d="M 32.171875 -5.078125 
Q 28.375 -14.84375 24.75 -17.8125 
Q 21.140625 -20.796875 15.09375 -20.796875 
L 7.90625 -20.796875 
L 7.90625 -13.28125 
L 13.1875 -13.28125 
Q 16.890625 -13.28125 18.9375 -11.515625 
Q 21 -9.765625 23.484375 -3.21875 
L 25.09375 0.875 
L 2.984375 54.6875 
L 12.5 54.6875 
L 29.59375 11.921875 
L 46.6875 54.6875 
L 56.203125 54.6875 
z
" id="DejaVuSans-79"/>
    </defs>
    <g transform="translate(110.584688 35.472)scale(0.12 -0.12)">
     <use xlink:href="#DejaVuSans-50"/>
     <use x="60.302734" xlink:href="#DejaVuSans-6c"/>
     <use x="88.085938" xlink:href="#DejaVuSans-6f"/>
     <use x="149.267578" xlink:href="#DejaVuSans-74"/>
     <use x="188.476562" xlink:href="#DejaVuSans-20"/>
     <use x="220.263672" xlink:href="#DejaVuSans-6f"/>
     <use x="281.445312" xlink:href="#DejaVuSans-66"/>
     <use x="316.650391" xlink:href="#DejaVuSans-20"/>
     <use x="348.4375" xlink:href="#DejaVuSans-54"/>
     <use x="409.302734" xlink:href="#DejaVuSans-72"/>
     <use x="450.416016" xlink:href="#DejaVuSans-61"/>
     <use x="511.695312" xlink:href="#DejaVuSans-69"/>
     <use x="539.478516" xlink:href="#DejaVuSans-6e"/>
     <use x="602.857422" xlink:href="#DejaVuSans-20"/>
     <use x="634.644531" xlink:href="#DejaVuSans-44"/>
     <use x="711.646484" xlink:href="#DejaVuSans-61"/>
     <use x="772.925781" xlink:href="#DejaVuSans-74"/>
     <use x="812.134766" xlink:href="#DejaVuSans-61"/>
     <use x="873.414062" xlink:href="#DejaVuSans-9"/>
     <use x="933.423828" xlink:href="#DejaVuSans-76"/>
     <use x="992.603516" xlink:href="#DejaVuSans-73"/>
     <use x="1044.703125" xlink:href="#DejaVuSans-20"/>
     <use x="1076.490234" xlink:href="#DejaVuSans-4d"/>
     <use x="1162.769531" xlink:href="#DejaVuSans-43"/>
     <use x="1232.59375" xlink:href="#DejaVuSans-4d"/>
     <use x="1318.873047" xlink:href="#DejaVuSans-43"/>
     <use x="1388.697266" xlink:href="#DejaVuSans-9"/>
     <use x="1448.707031" xlink:href="#DejaVuSans-55"/>
     <use x="1521.900391" xlink:href="#DejaVuSans-6e"/>
     <use x="1585.279297" xlink:href="#DejaVuSans-63"/>
     <use x="1640.259766" xlink:href="#DejaVuSans-65"/>
     <use x="1701.783203" xlink:href="#DejaVuSans-72"/>
     <use x="1742.896484" xlink:href="#DejaVuSans-74"/>
     <use x="1782.105469" xlink:href="#DejaVuSans-61"/>
     <use x="1843.384766" xlink:href="#DejaVuSans-69"/>
     <use x="1871.167969" xlink:href="#DejaVuSans-6e"/>
     <use x="1934.546875" xlink:href="#DejaVuSans-74"/>
     <use x="1973.755859" xlink:href="#DejaVuSans-79"/>
     <use x="2032.935547" xlink:href="#DejaVuSans-9"/>
    </g>
   </g>
   <g id="legend_1">
    <g id="patch_7">
     <path d="M 169.81 108.1845 
L 302.51 108.1845 
Q 304.51 108.1845 304.51 106.1845 
L 304.51 48.472 
Q 304.51 46.472 302.51 46.472 
L 169.81 46.472 
Q 167.81 46.472 167.81 48.472 
L 167.81 106.1845 
Q 167.81 108.1845 169.81 108.1845 
z
" style="fill:#ffffff;opacity:0.8;stroke:#cccccc;stroke-linejoin:miter;"/>
    </g>
    <g id="line2d_17">
     <path d="M 171.81 54.570438 
L 191.81 54.570438 
" style="fill:none;stroke:#1f77b4;stroke-linecap:square;stroke-width:1.5;"/>
    </g>
    <g id="line2d_18"/>
    <g id="text_14">
     <!-- actual -->
     <defs>
      <path d="M 8.5 21.578125 
L 8.5 54.6875 
L 17.484375 54.6875 
L 17.484375 21.921875 
Q 17.484375 14.15625 20.5 10.265625 
Q 23.53125 6.390625 29.59375 6.390625 
Q 36.859375 6.390625 41.078125 11.03125 
Q 45.3125 15.671875 45.3125 23.6875 
L 45.3125 54.6875 
L 54.296875 54.6875 
L 54.296875 0 
L 45.3125 0 
L 45.3125 8.40625 
Q 42.046875 3.421875 37.71875 1 
Q 33.40625 -1.421875 27.6875 -1.421875 
Q 18.265625 -1.421875 13.375 4.4375 
Q 8.5 10.296875 8.5 21.578125 
z
M 31.109375 56 
z
" id="DejaVuSans-75"/>
     </defs>
     <g transform="translate(199.81 58.070438)scale(0.1 -0.1)">
      <use xlink:href="#DejaVuSans-61"/>
      <use x="61.279297" xlink:href="#DejaVuSans-63"/>
      <use x="116.259766" xlink:href="#DejaVuSans-74"/>
      <use x="155.46875" xlink:href="#DejaVuSans-75"/>
      <use x="218.847656" xlink:href="#DejaVuSans-61"/>
      <use x="280.126953" xlink:href="#DejaVuSans-6c"/>
     </g>
    </g>
    <g id="line2d_19">
     <path d="M 171.81 69.248563 
L 191.81 69.248563 
" style="fill:none;stroke:#ff7f0e;stroke-linecap:square;stroke-width:1.5;"/>
    </g>
    <g id="line2d_20"/>
    <g id="text_15">
     <!-- pred. (mean) -->
     <defs>
      <path d="M 18.109375 8.203125 
L 18.109375 -20.796875 
L 9.078125 -20.796875 
L 9.078125 54.6875 
L 18.109375 54.6875 
L 18.109375 46.390625 
Q 20.953125 51.265625 25.265625 53.625 
Q 29.59375 56 35.59375 56 
Q 45.5625 56 51.78125 48.09375 
Q 58.015625 40.1875 58.015625 27.296875 
Q 58.015625 14.40625 51.78125 6.484375 
Q 45.5625 -1.421875 35.59375 -1.421875 
Q 29.59375 -1.421875 25.265625 0.953125 
Q 20.953125 3.328125 18.109375 8.203125 
z
M 48.6875 27.296875 
Q 48.6875 37.203125 44.609375 42.84375 
Q 40.53125 48.484375 33.40625 48.484375 
Q 26.265625 48.484375 22.1875 42.84375 
Q 18.109375 37.203125 18.109375 27.296875 
Q 18.109375 17.390625 22.1875 11.75 
Q 26.265625 6.109375 33.40625 6.109375 
Q 40.53125 6.109375 44.609375 11.75 
Q 48.6875 17.390625 48.6875 27.296875 
z
" id="DejaVuSans-70"/>
      <path d="M 45.40625 46.390625 
L 45.40625 75.984375 
L 54.390625 75.984375 
L 54.390625 0 
L 45.40625 0 
L 45.40625 8.203125 
Q 42.578125 3.328125 38.25 0.953125 
Q 33.9375 -1.421875 27.875 -1.421875 
Q 17.96875 -1.421875 11.734375 6.484375 
Q 5.515625 14.40625 5.515625 27.296875 
Q 5.515625 40.1875 11.734375 48.09375 
Q 17.96875 56 27.875 56 
Q 33.9375 56 38.25 53.625 
Q 42.578125 51.265625 45.40625 46.390625 
z
M 14.796875 27.296875 
Q 14.796875 17.390625 18.875 11.75 
Q 22.953125 6.109375 30.078125 6.109375 
Q 37.203125 6.109375 41.296875 11.75 
Q 45.40625 17.390625 45.40625 27.296875 
Q 45.40625 37.203125 41.296875 42.84375 
Q 37.203125 48.484375 30.078125 48.484375 
Q 22.953125 48.484375 18.875 42.84375 
Q 14.796875 37.203125 14.796875 27.296875 
z
" id="DejaVuSans-64"/>
      <path d="M 31 75.875 
Q 24.46875 64.65625 21.28125 53.65625 
Q 18.109375 42.671875 18.109375 31.390625 
Q 18.109375 20.125 21.3125 9.0625 
Q 24.515625 -2 31 -13.1875 
L 23.1875 -13.1875 
Q 15.875 -1.703125 12.234375 9.375 
Q 8.59375 20.453125 8.59375 31.390625 
Q 8.59375 42.28125 12.203125 53.3125 
Q 15.828125 64.359375 23.1875 75.875 
z
" id="DejaVuSans-28"/>
      <path d="M 52 44.1875 
Q 55.375 50.25 60.0625 53.125 
Q 64.75 56 71.09375 56 
Q 79.640625 56 84.28125 50.015625 
Q 88.921875 44.046875 88.921875 33.015625 
L 88.921875 0 
L 79.890625 0 
L 79.890625 32.71875 
Q 79.890625 40.578125 77.09375 44.375 
Q 74.3125 48.1875 68.609375 48.1875 
Q 61.625 48.1875 57.5625 43.546875 
Q 53.515625 38.921875 53.515625 30.90625 
L 53.515625 0 
L 44.484375 0 
L 44.484375 32.71875 
Q 44.484375 40.625 41.703125 44.40625 
Q 38.921875 48.1875 33.109375 48.1875 
Q 26.21875 48.1875 22.15625 43.53125 
Q 18.109375 38.875 18.109375 30.90625 
L 18.109375 0 
L 9.078125 0 
L 9.078125 54.6875 
L 18.109375 54.6875 
L 18.109375 46.1875 
Q 21.1875 51.21875 25.484375 53.609375 
Q 29.78125 56 35.6875 56 
Q 41.65625 56 45.828125 52.96875 
Q 50 49.953125 52 44.1875 
z
" id="DejaVuSans-6d"/>
      <path d="M 8.015625 75.875 
L 15.828125 75.875 
Q 23.140625 64.359375 26.78125 53.3125 
Q 30.421875 42.28125 30.421875 31.390625 
Q 30.421875 20.453125 26.78125 9.375 
Q 23.140625 -1.703125 15.828125 -13.1875 
L 8.015625 -13.1875 
Q 14.5 -2 17.703125 9.0625 
Q 20.90625 20.125 20.90625 31.390625 
Q 20.90625 42.671875 17.703125 53.65625 
Q 14.5 64.65625 8.015625 75.875 
z
" id="DejaVuSans-29"/>
     </defs>
     <g transform="translate(199.81 72.748563)scale(0.1 -0.1)">
      <use xlink:href="#DejaVuSans-70"/>
      <use x="63.476562" xlink:href="#DejaVuSans-72"/>
      <use x="104.558594" xlink:href="#DejaVuSans-65"/>
      <use x="166.082031" xlink:href="#DejaVuSans-64"/>
      <use x="229.558594" xlink:href="#DejaVuSans-2e"/>
      <use x="261.345703" xlink:href="#DejaVuSans-20"/>
      <use x="293.132812" xlink:href="#DejaVuSans-28"/>
      <use x="332.146484" xlink:href="#DejaVuSans-6d"/>
      <use x="429.558594" xlink:href="#DejaVuSans-65"/>
      <use x="491.082031" xlink:href="#DejaVuSans-61"/>
      <use x="552.361328" xlink:href="#DejaVuSans-6e"/>
      <use x="615.740234" xlink:href="#DejaVuSans-29"/>
     </g>
    </g>
    <g id="line2d_21">
     <path d="M 171.81 83.926688 
L 191.81 83.926688 
" style="fill:none;stroke:#2ca02c;stroke-linecap:square;stroke-width:1.5;"/>
    </g>
    <g id="line2d_22"/>
    <g id="text_16">
     <!-- pred.(5th percen.) -->
     <defs>
      <path d="M 10.796875 72.90625 
L 49.515625 72.90625 
L 49.515625 64.59375 
L 19.828125 64.59375 
L 19.828125 46.734375 
Q 21.96875 47.46875 24.109375 47.828125 
Q 26.265625 48.1875 28.421875 48.1875 
Q 40.625 48.1875 47.75 41.5 
Q 54.890625 34.8125 54.890625 23.390625 
Q 54.890625 11.625 47.5625 5.09375 
Q 40.234375 -1.421875 26.90625 -1.421875 
Q 22.3125 -1.421875 17.546875 -0.640625 
Q 12.796875 0.140625 7.71875 1.703125 
L 7.71875 11.625 
Q 12.109375 9.234375 16.796875 8.0625 
Q 21.484375 6.890625 26.703125 6.890625 
Q 35.15625 6.890625 40.078125 11.328125 
Q 45.015625 15.765625 45.015625 23.390625 
Q 45.015625 31 40.078125 35.4375 
Q 35.15625 39.890625 26.703125 39.890625 
Q 22.75 39.890625 18.8125 39.015625 
Q 14.890625 38.140625 10.796875 36.28125 
z
" id="DejaVuSans-35"/>
      <path d="M 54.890625 33.015625 
L 54.890625 0 
L 45.90625 0 
L 45.90625 32.71875 
Q 45.90625 40.484375 42.875 44.328125 
Q 39.84375 48.1875 33.796875 48.1875 
Q 26.515625 48.1875 22.3125 43.546875 
Q 18.109375 38.921875 18.109375 30.90625 
L 18.109375 0 
L 9.078125 0 
L 9.078125 75.984375 
L 18.109375 75.984375 
L 18.109375 46.1875 
Q 21.34375 51.125 25.703125 53.5625 
Q 30.078125 56 35.796875 56 
Q 45.21875 56 50.046875 50.171875 
Q 54.890625 44.34375 54.890625 33.015625 
z
" id="DejaVuSans-68"/>
     </defs>
     <g transform="translate(199.81 87.426688)scale(0.1 -0.1)">
      <use xlink:href="#DejaVuSans-70"/>
      <use x="63.476562" xlink:href="#DejaVuSans-72"/>
      <use x="104.558594" xlink:href="#DejaVuSans-65"/>
      <use x="166.082031" xlink:href="#DejaVuSans-64"/>
      <use x="229.558594" xlink:href="#DejaVuSans-2e"/>
      <use x="261.345703" xlink:href="#DejaVuSans-28"/>
      <use x="300.359375" xlink:href="#DejaVuSans-35"/>
      <use x="363.982422" xlink:href="#DejaVuSans-74"/>
      <use x="403.191406" xlink:href="#DejaVuSans-68"/>
      <use x="466.570312" xlink:href="#DejaVuSans-20"/>
      <use x="498.357422" xlink:href="#DejaVuSans-70"/>
      <use x="561.833984" xlink:href="#DejaVuSans-65"/>
      <use x="623.357422" xlink:href="#DejaVuSans-72"/>
      <use x="664.439453" xlink:href="#DejaVuSans-63"/>
      <use x="719.419922" xlink:href="#DejaVuSans-65"/>
      <use x="780.943359" xlink:href="#DejaVuSans-6e"/>
      <use x="844.322266" xlink:href="#DejaVuSans-2e"/>
      <use x="876.109375" xlink:href="#DejaVuSans-29"/>
     </g>
    </g>
    <g id="line2d_23">
     <path d="M 171.81 98.604813 
L 191.81 98.604813 
" style="fill:none;stroke:#d62728;stroke-linecap:square;stroke-width:1.5;"/>
    </g>
    <g id="line2d_24"/>
    <g id="text_17">
     <!-- pred.(95th	percen.) -->
     <defs>
      <path d="M 10.984375 1.515625 
L 10.984375 10.5 
Q 14.703125 8.734375 18.5 7.8125 
Q 22.3125 6.890625 25.984375 6.890625 
Q 35.75 6.890625 40.890625 13.453125 
Q 46.046875 20.015625 46.78125 33.40625 
Q 43.953125 29.203125 39.59375 26.953125 
Q 35.25 24.703125 29.984375 24.703125 
Q 19.046875 24.703125 12.671875 31.3125 
Q 6.296875 37.9375 6.296875 49.421875 
Q 6.296875 60.640625 12.9375 67.421875 
Q 19.578125 74.21875 30.609375 74.21875 
Q 43.265625 74.21875 49.921875 64.515625 
Q 56.59375 54.828125 56.59375 36.375 
Q 56.59375 19.140625 48.40625 8.859375 
Q 40.234375 -1.421875 26.421875 -1.421875 
Q 22.703125 -1.421875 18.890625 -0.6875 
Q 15.09375 0.046875 10.984375 1.515625 
z
M 30.609375 32.421875 
Q 37.25 32.421875 41.125 36.953125 
Q 45.015625 41.5 45.015625 49.421875 
Q 45.015625 57.28125 41.125 61.84375 
Q 37.25 66.40625 30.609375 66.40625 
Q 23.96875 66.40625 20.09375 61.84375 
Q 16.21875 57.28125 16.21875 49.421875 
Q 16.21875 41.5 20.09375 36.953125 
Q 23.96875 32.421875 30.609375 32.421875 
z
" id="DejaVuSans-39"/>
     </defs>
     <g transform="translate(199.81 102.104813)scale(0.1 -0.1)">
      <use xlink:href="#DejaVuSans-70"/>
      <use x="63.476562" xlink:href="#DejaVuSans-72"/>
      <use x="104.558594" xlink:href="#DejaVuSans-65"/>
      <use x="166.082031" xlink:href="#DejaVuSans-64"/>
      <use x="229.558594" xlink:href="#DejaVuSans-2e"/>
      <use x="261.345703" xlink:href="#DejaVuSans-28"/>
      <use x="300.359375" xlink:href="#DejaVuSans-39"/>
      <use x="363.982422" xlink:href="#DejaVuSans-35"/>
      <use x="427.605469" xlink:href="#DejaVuSans-74"/>
      <use x="466.814453" xlink:href="#DejaVuSans-68"/>
      <use x="530.193359" xlink:href="#DejaVuSans-9"/>
      <use x="590.203125" xlink:href="#DejaVuSans-70"/>
      <use x="653.679688" xlink:href="#DejaVuSans-65"/>
      <use x="715.203125" xlink:href="#DejaVuSans-72"/>
      <use x="756.285156" xlink:href="#DejaVuSans-63"/>
      <use x="811.265625" xlink:href="#DejaVuSans-65"/>
      <use x="872.789062" xlink:href="#DejaVuSans-6e"/>
      <use x="936.167969" xlink:href="#DejaVuSans-2e"/>
      <use x="967.955078" xlink:href="#DejaVuSans-29"/>
     </g>
    </g>
   </g>
  </g>
 </g>
 <defs>
  <clipPath id="pb69933d868">
   <rect height="266.112" width="357.12" x="57.6" y="41.472"/>
  </clipPath>
 </defs>
</svg>
