<?xml version="1.0" encoding="utf-8" standalone="no"?>
<!DOCTYPE svg PUBLIC "-//W3C//DTD SVG 1.1//EN"
  "http://www.w3.org/Graphics/SVG/1.1/DTD/svg11.dtd">
<!-- Created with matplotlib (http://matplotlib.org/) -->
<svg height="864pt" version="1.1" viewBox="0 0 720 864" width="720pt" xmlns="http://www.w3.org/2000/svg" xmlns:xlink="http://www.w3.org/1999/xlink">
 <defs>
  <style type="text/css">
*{stroke-linecap:butt;stroke-linejoin:round;}
  </style>
 </defs>
 <g id="figure_1">
  <g id="patch_1">
   <path d="M 0 864 
L 720 864 
L 720 0 
L 0 0 
z
" style="fill:#ffffff;"/>
  </g>
  <g id="axes_1">
   <g id="patch_2">
    <path d="M 56 544.4 
L 706.68 544.4 
L 706.68 103.68 
L 56 103.68 
z
" style="fill:#ffffff;"/>
   </g>
   <g id="PolyCollection_1">
    <path clip-path="url(#p8440d34645)" d="M 85.576364 407.199429 
L 85.576364 497.605099 
L 87.568038 497.605099 
L 89.559712 497.605099 
L 91.551387 497.605099 
L 93.543061 497.605099 
L 95.534735 493.49575 
L 97.52641 489.386402 
L 99.518084 485.277053 
L 101.509758 481.167704 
L 103.501433 481.167704 
L 105.493107 477.058356 
L 107.484781 472.949007 
L 109.476455 468.839658 
L 111.46813 464.73031 
L 113.459804 460.620961 
L 115.451478 460.620961 
L 117.443153 456.511613 
L 119.434827 456.511613 
L 121.426501 452.402264 
L 123.418176 448.292915 
L 125.40985 448.292915 
L 127.401524 448.292915 
L 129.393199 448.292915 
L 131.384873 448.292915 
L 133.376547 452.402264 
L 135.368222 452.402264 
L 137.359896 452.402264 
L 139.35157 452.402264 
L 141.343245 456.511613 
L 143.334919 456.511613 
L 145.326593 460.620961 
L 147.318268 460.620961 
L 149.309942 464.73031 
L 151.301616 464.73031 
L 153.29329 464.73031 
L 155.284965 464.73031 
L 157.276639 464.73031 
L 159.268313 464.73031 
L 161.259988 464.73031 
L 163.251662 464.73031 
L 165.243336 468.839658 
L 167.235011 468.839658 
L 169.226685 472.949007 
L 171.218359 472.949007 
L 173.210034 472.949007 
L 175.201708 477.058356 
L 177.193382 477.058356 
L 179.185057 477.058356 
L 181.176731 477.058356 
L 183.168405 477.058356 
L 185.16008 481.167704 
L 187.151754 481.167704 
L 189.143428 481.167704 
L 191.135103 481.167704 
L 193.126777 481.167704 
L 195.118451 481.167704 
L 197.110125 485.277053 
L 199.1018 485.277053 
L 201.093474 489.386402 
L 203.085148 493.49575 
L 205.076823 493.49575 
L 207.068497 493.49575 
L 209.060171 493.49575 
L 211.051846 493.49575 
L 213.04352 489.386402 
L 215.035194 489.386402 
L 217.026869 485.277053 
L 219.018543 481.167704 
L 221.010217 481.167704 
L 223.001892 481.167704 
L 224.993566 481.167704 
L 226.98524 477.058356 
L 228.976915 477.058356 
L 230.968589 477.058356 
L 232.960263 477.058356 
L 234.951938 472.949007 
L 236.943612 472.949007 
L 238.935286 472.949007 
L 240.926961 468.839658 
L 242.918635 468.839658 
L 244.910309 468.839658 
L 246.901983 468.839658 
L 248.893658 464.73031 
L 250.885332 460.620961 
L 252.877006 456.511613 
L 254.868681 456.511613 
L 256.860355 452.402264 
L 258.852029 452.402264 
L 260.843704 452.402264 
L 262.835378 452.402264 
L 264.827052 452.402264 
L 266.818727 452.402264 
L 268.810401 452.402264 
L 270.802075 456.511613 
L 272.79375 456.511613 
L 274.785424 460.620961 
L 276.777098 460.620961 
L 278.768773 464.73031 
L 280.760447 464.73031 
L 282.752121 468.839658 
L 284.743796 468.839658 
L 286.73547 468.839658 
L 288.727144 468.839658 
L 290.718818 468.839658 
L 292.710493 468.839658 
L 294.702167 468.839658 
L 296.693841 468.839658 
L 298.685516 468.839658 
L 300.67719 468.839658 
L 302.668864 472.949007 
L 304.660539 472.949007 
L 306.652213 472.949007 
L 308.643887 472.949007 
L 310.635562 472.949007 
L 312.627236 472.949007 
L 314.61891 477.058356 
L 316.610585 477.058356 
L 318.602259 477.058356 
L 320.593933 477.058356 
L 322.585608 477.058356 
L 324.577282 477.058356 
L 326.568956 481.167704 
L 328.560631 481.167704 
L 330.552305 481.167704 
L 332.543979 481.167704 
L 334.535654 481.167704 
L 336.527328 485.277053 
L 338.519002 485.277053 
L 340.510676 489.386402 
L 342.502351 493.49575 
L 344.494025 493.49575 
L 346.485699 497.605099 
L 348.477374 501.714447 
L 350.469048 501.714447 
L 352.460722 501.714447 
L 354.452397 501.714447 
L 356.444071 501.714447 
L 358.435745 501.714447 
L 360.42742 501.714447 
L 362.419094 501.714447 
L 364.410768 497.605099 
L 366.402443 493.49575 
L 368.394117 489.386402 
L 370.385791 481.167704 
L 372.377466 481.167704 
L 374.36914 481.167704 
L 376.360814 477.058356 
L 378.352489 477.058356 
L 380.344163 477.058356 
L 382.335837 472.949007 
L 384.327511 472.949007 
L 386.319186 468.839658 
L 388.31086 468.839658 
L 390.302534 464.73031 
L 392.294209 464.73031 
L 394.285883 460.620961 
L 396.277557 460.620961 
L 398.269232 460.620961 
L 400.260906 460.620961 
L 402.25258 460.620961 
L 404.244255 460.620961 
L 406.235929 460.620961 
L 408.227603 460.620961 
L 410.219278 460.620961 
L 412.210952 460.620961 
L 414.202626 464.73031 
L 416.194301 464.73031 
L 418.185975 464.73031 
L 420.177649 464.73031 
L 422.169324 468.839658 
L 424.160998 468.839658 
L 426.152672 468.839658 
L 428.144346 468.839658 
L 430.136021 472.949007 
L 432.127695 472.949007 
L 434.119369 472.949007 
L 436.111044 472.949007 
L 438.102718 472.949007 
L 440.094392 477.058356 
L 442.086067 477.058356 
L 444.077741 477.058356 
L 446.069415 477.058356 
L 448.06109 477.058356 
L 450.052764 477.058356 
L 452.044438 477.058356 
L 454.036113 477.058356 
L 456.027787 477.058356 
L 458.019461 477.058356 
L 460.011136 477.058356 
L 462.00281 477.058356 
L 463.994484 477.058356 
L 465.986159 481.167704 
L 467.977833 481.167704 
L 469.969507 481.167704 
L 471.961182 481.167704 
L 473.952856 481.167704 
L 475.94453 485.277053 
L 477.936204 485.277053 
L 479.927879 493.49575 
L 481.919553 497.605099 
L 483.911227 497.605099 
L 485.902902 501.714447 
L 487.894576 501.714447 
L 489.88625 501.714447 
L 491.877925 497.605099 
L 493.869599 493.49575 
L 495.861273 489.386402 
L 497.852948 481.167704 
L 499.844622 481.167704 
L 501.836296 477.058356 
L 503.827971 477.058356 
L 505.819645 477.058356 
L 507.811319 472.949007 
L 509.802994 468.839658 
L 511.794668 468.839658 
L 513.786342 468.839658 
L 515.778017 464.73031 
L 517.769691 460.620961 
L 519.761365 460.620961 
L 521.753039 456.511613 
L 523.744714 452.402264 
L 525.736388 448.292915 
L 527.728062 448.292915 
L 529.719737 448.292915 
L 531.711411 448.292915 
L 533.703085 452.402264 
L 535.69476 452.402264 
L 537.686434 456.511613 
L 539.678108 456.511613 
L 541.669783 456.511613 
L 543.661457 460.620961 
L 545.653131 460.620961 
L 547.644806 460.620961 
L 549.63648 460.620961 
L 551.628154 460.620961 
L 553.619829 460.620961 
L 555.611503 460.620961 
L 557.603177 464.73031 
L 559.594852 464.73031 
L 561.586526 468.839658 
L 563.5782 468.839658 
L 565.569875 472.949007 
L 567.561549 472.949007 
L 569.553223 472.949007 
L 571.544897 472.949007 
L 573.536572 477.058356 
L 575.528246 477.058356 
L 577.51992 477.058356 
L 579.511595 481.167704 
L 581.503269 481.167704 
L 583.494943 481.167704 
L 585.486618 485.277053 
L 587.478292 485.277053 
L 589.469966 489.386402 
L 591.461641 493.49575 
L 593.453315 493.49575 
L 595.444989 493.49575 
L 597.436664 493.49575 
L 599.428338 493.49575 
L 601.420012 493.49575 
L 603.411687 493.49575 
L 605.403361 493.49575 
L 607.395035 493.49575 
L 609.38671 493.49575 
L 611.378384 493.49575 
L 613.370058 497.605099 
L 615.361732 497.605099 
L 617.353407 501.714447 
L 619.345081 501.714447 
L 621.336755 501.714447 
L 623.32843 501.714447 
L 625.320104 501.714447 
L 627.311778 501.714447 
L 629.303453 501.714447 
L 631.295127 501.714447 
L 633.286801 501.714447 
L 635.278476 497.605099 
L 637.27015 493.49575 
L 639.261824 489.386402 
L 641.253499 485.277053 
L 643.245173 481.167704 
L 645.236847 481.167704 
L 647.228522 477.058356 
L 649.220196 477.058356 
L 651.21187 477.058356 
L 653.203545 472.949007 
L 655.195219 472.949007 
L 657.186893 472.949007 
L 659.178567 472.949007 
L 661.170242 472.949007 
L 663.161916 468.839658 
L 665.15359 472.949007 
L 667.145265 472.949007 
L 669.136939 472.949007 
L 671.128613 472.949007 
L 673.120288 472.949007 
L 675.111962 472.949007 
L 677.103636 472.949007 
L 677.103636 357.887246 
L 677.103636 357.887246 
L 675.111962 361.996594 
L 673.120288 357.887246 
L 671.128613 353.777897 
L 669.136939 353.777897 
L 667.145265 357.887246 
L 665.15359 353.777897 
L 663.161916 349.668549 
L 661.170242 353.777897 
L 659.178567 361.996594 
L 657.186893 366.105943 
L 655.195219 370.215292 
L 653.203545 370.215292 
L 651.21187 374.32464 
L 649.220196 382.543337 
L 647.228522 386.652686 
L 645.236847 386.652686 
L 643.245173 390.762035 
L 641.253499 398.980732 
L 639.261824 403.090081 
L 637.27015 403.090081 
L 635.278476 407.199429 
L 633.286801 411.308778 
L 631.295127 411.308778 
L 629.303453 411.308778 
L 627.311778 411.308778 
L 625.320104 411.308778 
L 623.32843 411.308778 
L 621.336755 411.308778 
L 619.345081 411.308778 
L 617.353407 411.308778 
L 615.361732 407.199429 
L 613.370058 407.199429 
L 611.378384 407.199429 
L 609.38671 403.090081 
L 607.395035 403.090081 
L 605.403361 403.090081 
L 603.411687 403.090081 
L 601.420012 407.199429 
L 599.428338 403.090081 
L 597.436664 403.090081 
L 595.444989 403.090081 
L 593.453315 403.090081 
L 591.461641 403.090081 
L 589.469966 403.090081 
L 587.478292 398.980732 
L 585.486618 398.980732 
L 583.494943 398.980732 
L 581.503269 390.762035 
L 579.511595 386.652686 
L 577.51992 382.543337 
L 575.528246 378.433989 
L 573.536572 374.32464 
L 571.544897 370.215292 
L 569.553223 366.105943 
L 567.561549 366.105943 
L 565.569875 361.996594 
L 563.5782 345.5592 
L 561.586526 325.012457 
L 559.594852 300.356365 
L 557.603177 275.700273 
L 555.611503 259.262879 
L 553.619829 242.825484 
L 551.628154 238.716136 
L 549.63648 238.716136 
L 547.644806 238.716136 
L 545.653131 246.934833 
L 543.661457 242.825484 
L 541.669783 234.606787 
L 539.678108 222.278741 
L 537.686434 218.169393 
L 535.69476 209.950696 
L 533.703085 197.62265 
L 531.711411 193.513301 
L 529.719737 189.403952 
L 527.728062 189.403952 
L 525.736388 189.403952 
L 523.744714 201.731998 
L 521.753039 214.060044 
L 519.761365 230.497439 
L 517.769691 255.15353 
L 515.778017 296.247016 
L 513.786342 316.79376 
L 511.794668 329.121805 
L 509.802994 341.449851 
L 507.811319 357.887246 
L 505.819645 370.215292 
L 503.827971 378.433989 
L 501.836296 382.543337 
L 499.844622 390.762035 
L 497.852948 398.980732 
L 495.861273 398.980732 
L 493.869599 403.090081 
L 491.877925 407.199429 
L 489.88625 411.308778 
L 487.894576 411.308778 
L 485.902902 411.308778 
L 483.911227 407.199429 
L 481.919553 407.199429 
L 479.927879 403.090081 
L 477.936204 398.980732 
L 475.94453 398.980732 
L 473.952856 394.871383 
L 471.961182 394.871383 
L 469.969507 390.762035 
L 467.977833 390.762035 
L 465.986159 386.652686 
L 463.994484 382.543337 
L 462.00281 382.543337 
L 460.011136 378.433989 
L 458.019461 374.32464 
L 456.027787 374.32464 
L 454.036113 370.215292 
L 452.044438 374.32464 
L 450.052764 374.32464 
L 448.06109 374.32464 
L 446.069415 374.32464 
L 444.077741 374.32464 
L 442.086067 374.32464 
L 440.094392 374.32464 
L 438.102718 366.105943 
L 436.111044 361.996594 
L 434.119369 357.887246 
L 432.127695 357.887246 
L 430.136021 349.668549 
L 428.144346 341.449851 
L 426.152672 333.231154 
L 424.160998 329.121805 
L 422.169324 320.903108 
L 420.177649 304.465714 
L 418.185975 296.247016 
L 416.194301 283.918971 
L 414.202626 275.700273 
L 412.210952 263.372228 
L 410.219278 255.15353 
L 408.227603 255.15353 
L 406.235929 251.044182 
L 404.244255 251.044182 
L 402.25258 246.934833 
L 400.260906 251.044182 
L 398.269232 255.15353 
L 396.277557 255.15353 
L 394.285883 259.262879 
L 392.294209 271.590925 
L 390.302534 283.918971 
L 388.31086 308.575062 
L 386.319186 333.231154 
L 384.327511 353.777897 
L 382.335837 366.105943 
L 380.344163 370.215292 
L 378.352489 378.433989 
L 376.360814 382.543337 
L 374.36914 386.652686 
L 372.377466 394.871383 
L 370.385791 398.980732 
L 368.394117 403.090081 
L 366.402443 403.090081 
L 364.410768 407.199429 
L 362.419094 411.308778 
L 360.42742 411.308778 
L 358.435745 411.308778 
L 356.444071 411.308778 
L 354.452397 411.308778 
L 352.460722 411.308778 
L 350.469048 411.308778 
L 348.477374 411.308778 
L 346.485699 407.199429 
L 344.494025 407.199429 
L 342.502351 403.090081 
L 340.510676 403.090081 
L 338.519002 398.980732 
L 336.527328 398.980732 
L 334.535654 398.980732 
L 332.543979 394.871383 
L 330.552305 390.762035 
L 328.560631 390.762035 
L 326.568956 386.652686 
L 324.577282 382.543337 
L 322.585608 378.433989 
L 320.593933 374.32464 
L 318.602259 374.32464 
L 316.610585 374.32464 
L 314.61891 370.215292 
L 312.627236 366.105943 
L 310.635562 361.996594 
L 308.643887 357.887246 
L 306.652213 353.777897 
L 304.660539 353.777897 
L 302.668864 349.668549 
L 300.67719 345.5592 
L 298.685516 341.449851 
L 296.693841 341.449851 
L 294.702167 333.231154 
L 292.710493 333.231154 
L 290.718818 333.231154 
L 288.727144 333.231154 
L 286.73547 329.121805 
L 284.743796 312.684411 
L 282.752121 308.575062 
L 280.760447 296.247016 
L 278.768773 283.918971 
L 276.777098 267.481576 
L 274.785424 242.825484 
L 272.79375 230.497439 
L 270.802075 222.278741 
L 268.810401 209.950696 
L 266.818727 201.731998 
L 264.827052 201.731998 
L 262.835378 205.841347 
L 260.843704 201.731998 
L 258.852029 197.62265 
L 256.860355 205.841347 
L 254.868681 214.060044 
L 252.877006 226.38809 
L 250.885332 251.044182 
L 248.893658 283.918971 
L 246.901983 320.903108 
L 244.910309 341.449851 
L 242.918635 341.449851 
L 240.926961 345.5592 
L 238.935286 349.668549 
L 236.943612 357.887246 
L 234.951938 366.105943 
L 232.960263 374.32464 
L 230.968589 374.32464 
L 228.976915 378.433989 
L 226.98524 382.543337 
L 224.993566 386.652686 
L 223.001892 390.762035 
L 221.010217 390.762035 
L 219.018543 394.871383 
L 217.026869 398.980732 
L 215.035194 403.090081 
L 213.04352 403.090081 
L 211.051846 403.090081 
L 209.060171 403.090081 
L 207.068497 403.090081 
L 205.076823 407.199429 
L 203.085148 407.199429 
L 201.093474 403.090081 
L 199.1018 398.980732 
L 197.110125 398.980732 
L 195.118451 398.980732 
L 193.126777 394.871383 
L 191.135103 394.871383 
L 189.143428 394.871383 
L 187.151754 390.762035 
L 185.16008 390.762035 
L 183.168405 386.652686 
L 181.176731 382.543337 
L 179.185057 382.543337 
L 177.193382 378.433989 
L 175.201708 370.215292 
L 173.210034 370.215292 
L 171.218359 366.105943 
L 169.226685 353.777897 
L 167.235011 337.340503 
L 165.243336 325.012457 
L 163.251662 300.356365 
L 161.259988 283.918971 
L 159.268313 288.028319 
L 157.276639 283.918971 
L 155.284965 275.700273 
L 153.29329 275.700273 
L 151.301616 288.028319 
L 149.309942 279.809622 
L 147.318268 255.15353 
L 145.326593 238.716136 
L 143.334919 230.497439 
L 141.343245 222.278741 
L 139.35157 214.060044 
L 137.359896 201.731998 
L 135.368222 201.731998 
L 133.376547 197.62265 
L 131.384873 189.403952 
L 129.393199 185.294604 
L 127.401524 185.294604 
L 125.40985 189.403952 
L 123.418176 189.403952 
L 121.426501 197.62265 
L 119.434827 214.060044 
L 117.443153 226.38809 
L 115.451478 234.606787 
L 113.459804 259.262879 
L 111.46813 292.137668 
L 109.476455 333.231154 
L 107.484781 361.996594 
L 105.493107 374.32464 
L 103.501433 386.652686 
L 101.509758 394.871383 
L 99.518084 398.980732 
L 97.52641 403.090081 
L 95.534735 403.090081 
L 93.543061 407.199429 
L 91.551387 407.199429 
L 89.559712 407.199429 
L 87.568038 407.199429 
L 85.576364 407.199429 
z
" style="fill:#008000;fill-opacity:0.4;"/>
   </g>
   <g id="matplotlib.axis_1">
    <g id="xtick_1">
     <g id="line2d_1">
      <defs>
       <path d="M 0 0 
L 0 3.5 
" id="m22a5364df3" style="stroke:#000000;stroke-width:0.8;"/>
      </defs>
      <g>
       <use style="stroke:#000000;stroke-width:0.8;" x="85.576364" xlink:href="#m22a5364df3" y="544.4"/>
      </g>
     </g>
     <g id="text_1">
      <!-- 0.0 -->
      <defs>
       <path d="M 31.78125 66.40625 
Q 24.171875 66.40625 20.328125 58.90625 
Q 16.5 51.421875 16.5 36.375 
Q 16.5 21.390625 20.328125 13.890625 
Q 24.171875 6.390625 31.78125 6.390625 
Q 39.453125 6.390625 43.28125 13.890625 
Q 47.125 21.390625 47.125 36.375 
Q 47.125 51.421875 43.28125 58.90625 
Q 39.453125 66.40625 31.78125 66.40625 
z
M 31.78125 74.21875 
Q 44.046875 74.21875 50.515625 64.515625 
Q 56.984375 54.828125 56.984375 36.375 
Q 56.984375 17.96875 50.515625 8.265625 
Q 44.046875 -1.421875 31.78125 -1.421875 
Q 19.53125 -1.421875 13.0625 8.265625 
Q 6.59375 17.96875 6.59375 36.375 
Q 6.59375 54.828125 13.0625 64.515625 
Q 19.53125 74.21875 31.78125 74.21875 
z
" id="DejaVuSans-30"/>
       <path d="M 10.6875 12.40625 
L 21 12.40625 
L 21 0 
L 10.6875 0 
z
" id="DejaVuSans-2e"/>
      </defs>
      <g transform="translate(77.624801 558.998437)scale(0.1 -0.1)">
       <use xlink:href="#DejaVuSans-30"/>
       <use x="63.623047" xlink:href="#DejaVuSans-2e"/>
       <use x="95.410156" xlink:href="#DejaVuSans-30"/>
      </g>
     </g>
    </g>
    <g id="xtick_2">
     <g id="line2d_2">
      <g>
       <use style="stroke:#000000;stroke-width:0.8;" x="203.881818" xlink:href="#m22a5364df3" y="544.4"/>
      </g>
     </g>
     <g id="text_2">
      <!-- 0.2 -->
      <defs>
       <path d="M 19.1875 8.296875 
L 53.609375 8.296875 
L 53.609375 0 
L 7.328125 0 
L 7.328125 8.296875 
Q 12.9375 14.109375 22.625 23.890625 
Q 32.328125 33.6875 34.8125 36.53125 
Q 39.546875 41.84375 41.421875 45.53125 
Q 43.3125 49.21875 43.3125 52.78125 
Q 43.3125 58.59375 39.234375 62.25 
Q 35.15625 65.921875 28.609375 65.921875 
Q 23.96875 65.921875 18.8125 64.3125 
Q 13.671875 62.703125 7.8125 59.421875 
L 7.8125 69.390625 
Q 13.765625 71.78125 18.9375 73 
Q 24.125 74.21875 28.421875 74.21875 
Q 39.75 74.21875 46.484375 68.546875 
Q 53.21875 62.890625 53.21875 53.421875 
Q 53.21875 48.921875 51.53125 44.890625 
Q 49.859375 40.875 45.40625 35.40625 
Q 44.1875 33.984375 37.640625 27.21875 
Q 31.109375 20.453125 19.1875 8.296875 
z
" id="DejaVuSans-32"/>
      </defs>
      <g transform="translate(195.930256 558.998437)scale(0.1 -0.1)">
       <use xlink:href="#DejaVuSans-30"/>
       <use x="63.623047" xlink:href="#DejaVuSans-2e"/>
       <use x="95.410156" xlink:href="#DejaVuSans-32"/>
      </g>
     </g>
    </g>
    <g id="xtick_3">
     <g id="line2d_3">
      <g>
       <use style="stroke:#000000;stroke-width:0.8;" x="322.187273" xlink:href="#m22a5364df3" y="544.4"/>
      </g>
     </g>
     <g id="text_3">
      <!-- 0.4 -->
      <defs>
       <path d="M 37.796875 64.3125 
L 12.890625 25.390625 
L 37.796875 25.390625 
z
M 35.203125 72.90625 
L 47.609375 72.90625 
L 47.609375 25.390625 
L 58.015625 25.390625 
L 58.015625 17.1875 
L 47.609375 17.1875 
L 47.609375 0 
L 37.796875 0 
L 37.796875 17.1875 
L 4.890625 17.1875 
L 4.890625 26.703125 
z
" id="DejaVuSans-34"/>
      </defs>
      <g transform="translate(314.23571 558.998437)scale(0.1 -0.1)">
       <use xlink:href="#DejaVuSans-30"/>
       <use x="63.623047" xlink:href="#DejaVuSans-2e"/>
       <use x="95.410156" xlink:href="#DejaVuSans-34"/>
      </g>
     </g>
    </g>
    <g id="xtick_4">
     <g id="line2d_4">
      <g>
       <use style="stroke:#000000;stroke-width:0.8;" x="440.492727" xlink:href="#m22a5364df3" y="544.4"/>
      </g>
     </g>
     <g id="text_4">
      <!-- 0.6 -->
      <defs>
       <path d="M 33.015625 40.375 
Q 26.375 40.375 22.484375 35.828125 
Q 18.609375 31.296875 18.609375 23.390625 
Q 18.609375 15.53125 22.484375 10.953125 
Q 26.375 6.390625 33.015625 6.390625 
Q 39.65625 6.390625 43.53125 10.953125 
Q 47.40625 15.53125 47.40625 23.390625 
Q 47.40625 31.296875 43.53125 35.828125 
Q 39.65625 40.375 33.015625 40.375 
z
M 52.59375 71.296875 
L 52.59375 62.3125 
Q 48.875 64.0625 45.09375 64.984375 
Q 41.3125 65.921875 37.59375 65.921875 
Q 27.828125 65.921875 22.671875 59.328125 
Q 17.53125 52.734375 16.796875 39.40625 
Q 19.671875 43.65625 24.015625 45.921875 
Q 28.375 48.1875 33.59375 48.1875 
Q 44.578125 48.1875 50.953125 41.515625 
Q 57.328125 34.859375 57.328125 23.390625 
Q 57.328125 12.15625 50.6875 5.359375 
Q 44.046875 -1.421875 33.015625 -1.421875 
Q 20.359375 -1.421875 13.671875 8.265625 
Q 6.984375 17.96875 6.984375 36.375 
Q 6.984375 53.65625 15.1875 63.9375 
Q 23.390625 74.21875 37.203125 74.21875 
Q 40.921875 74.21875 44.703125 73.484375 
Q 48.484375 72.75 52.59375 71.296875 
z
" id="DejaVuSans-36"/>
      </defs>
      <g transform="translate(432.541165 558.998437)scale(0.1 -0.1)">
       <use xlink:href="#DejaVuSans-30"/>
       <use x="63.623047" xlink:href="#DejaVuSans-2e"/>
       <use x="95.410156" xlink:href="#DejaVuSans-36"/>
      </g>
     </g>
    </g>
    <g id="xtick_5">
     <g id="line2d_5">
      <g>
       <use style="stroke:#000000;stroke-width:0.8;" x="558.798182" xlink:href="#m22a5364df3" y="544.4"/>
      </g>
     </g>
     <g id="text_5">
      <!-- 0.8 -->
      <defs>
       <path d="M 31.78125 34.625 
Q 24.75 34.625 20.71875 30.859375 
Q 16.703125 27.09375 16.703125 20.515625 
Q 16.703125 13.921875 20.71875 10.15625 
Q 24.75 6.390625 31.78125 6.390625 
Q 38.8125 6.390625 42.859375 10.171875 
Q 46.921875 13.96875 46.921875 20.515625 
Q 46.921875 27.09375 42.890625 30.859375 
Q 38.875 34.625 31.78125 34.625 
z
M 21.921875 38.8125 
Q 15.578125 40.375 12.03125 44.71875 
Q 8.5 49.078125 8.5 55.328125 
Q 8.5 64.0625 14.71875 69.140625 
Q 20.953125 74.21875 31.78125 74.21875 
Q 42.671875 74.21875 48.875 69.140625 
Q 55.078125 64.0625 55.078125 55.328125 
Q 55.078125 49.078125 51.53125 44.71875 
Q 48 40.375 41.703125 38.8125 
Q 48.828125 37.15625 52.796875 32.3125 
Q 56.78125 27.484375 56.78125 20.515625 
Q 56.78125 9.90625 50.3125 4.234375 
Q 43.84375 -1.421875 31.78125 -1.421875 
Q 19.734375 -1.421875 13.25 4.234375 
Q 6.78125 9.90625 6.78125 20.515625 
Q 6.78125 27.484375 10.78125 32.3125 
Q 14.796875 37.15625 21.921875 38.8125 
z
M 18.3125 54.390625 
Q 18.3125 48.734375 21.84375 45.5625 
Q 25.390625 42.390625 31.78125 42.390625 
Q 38.140625 42.390625 41.71875 45.5625 
Q 45.3125 48.734375 45.3125 54.390625 
Q 45.3125 60.0625 41.71875 63.234375 
Q 38.140625 66.40625 31.78125 66.40625 
Q 25.390625 66.40625 21.84375 63.234375 
Q 18.3125 60.0625 18.3125 54.390625 
z
" id="DejaVuSans-38"/>
      </defs>
      <g transform="translate(550.846619 558.998437)scale(0.1 -0.1)">
       <use xlink:href="#DejaVuSans-30"/>
       <use x="63.623047" xlink:href="#DejaVuSans-2e"/>
       <use x="95.410156" xlink:href="#DejaVuSans-38"/>
      </g>
     </g>
    </g>
    <g id="xtick_6">
     <g id="line2d_6">
      <g>
       <use style="stroke:#000000;stroke-width:0.8;" x="677.103636" xlink:href="#m22a5364df3" y="544.4"/>
      </g>
     </g>
     <g id="text_6">
      <!-- 1.0 -->
      <defs>
       <path d="M 12.40625 8.296875 
L 28.515625 8.296875 
L 28.515625 63.921875 
L 10.984375 60.40625 
L 10.984375 69.390625 
L 28.421875 72.90625 
L 38.28125 72.90625 
L 38.28125 8.296875 
L 54.390625 8.296875 
L 54.390625 0 
L 12.40625 0 
z
" id="DejaVuSans-31"/>
      </defs>
      <g transform="translate(669.152074 558.998437)scale(0.1 -0.1)">
       <use xlink:href="#DejaVuSans-31"/>
       <use x="63.623047" xlink:href="#DejaVuSans-2e"/>
       <use x="95.410156" xlink:href="#DejaVuSans-30"/>
      </g>
     </g>
    </g>
   </g>
   <g id="matplotlib.axis_2">
    <g id="ytick_1">
     <g id="line2d_7">
      <defs>
       <path d="M 0 0 
L -3.5 0 
" id="me75e6967cd" style="stroke:#000000;stroke-width:0.8;"/>
      </defs>
      <g>
       <use style="stroke:#000000;stroke-width:0.8;" x="56" xlink:href="#me75e6967cd" y="530.479888"/>
      </g>
     </g>
     <g id="text_7">
      <!-- 0.0 -->
      <g transform="translate(33.096875 534.279106)scale(0.1 -0.1)">
       <use xlink:href="#DejaVuSans-30"/>
       <use x="63.623047" xlink:href="#DejaVuSans-2e"/>
       <use x="95.410156" xlink:href="#DejaVuSans-30"/>
      </g>
     </g>
    </g>
    <g id="ytick_2">
     <g id="line2d_8">
      <g>
       <use style="stroke:#000000;stroke-width:0.8;" x="56" xlink:href="#me75e6967cd" y="448.292915"/>
      </g>
     </g>
     <g id="text_8">
      <!-- 0.2 -->
      <g transform="translate(33.096875 452.092134)scale(0.1 -0.1)">
       <use xlink:href="#DejaVuSans-30"/>
       <use x="63.623047" xlink:href="#DejaVuSans-2e"/>
       <use x="95.410156" xlink:href="#DejaVuSans-32"/>
      </g>
     </g>
    </g>
    <g id="ytick_3">
     <g id="line2d_9">
      <g>
       <use style="stroke:#000000;stroke-width:0.8;" x="56" xlink:href="#me75e6967cd" y="366.105943"/>
      </g>
     </g>
     <g id="text_9">
      <!-- 0.4 -->
      <g transform="translate(33.096875 369.905162)scale(0.1 -0.1)">
       <use xlink:href="#DejaVuSans-30"/>
       <use x="63.623047" xlink:href="#DejaVuSans-2e"/>
       <use x="95.410156" xlink:href="#DejaVuSans-34"/>
      </g>
     </g>
    </g>
    <g id="ytick_4">
     <g id="line2d_10">
      <g>
       <use style="stroke:#000000;stroke-width:0.8;" x="56" xlink:href="#me75e6967cd" y="283.918971"/>
      </g>
     </g>
     <g id="text_10">
      <!-- 0.6 -->
      <g transform="translate(33.096875 287.718189)scale(0.1 -0.1)">
       <use xlink:href="#DejaVuSans-30"/>
       <use x="63.623047" xlink:href="#DejaVuSans-2e"/>
       <use x="95.410156" xlink:href="#DejaVuSans-36"/>
      </g>
     </g>
    </g>
    <g id="ytick_5">
     <g id="line2d_11">
      <g>
       <use style="stroke:#000000;stroke-width:0.8;" x="56" xlink:href="#me75e6967cd" y="201.731998"/>
      </g>
     </g>
     <g id="text_11">
      <!-- 0.8 -->
      <g transform="translate(33.096875 205.531217)scale(0.1 -0.1)">
       <use xlink:href="#DejaVuSans-30"/>
       <use x="63.623047" xlink:href="#DejaVuSans-2e"/>
       <use x="95.410156" xlink:href="#DejaVuSans-38"/>
      </g>
     </g>
    </g>
    <g id="ytick_6">
     <g id="line2d_12">
      <g>
       <use style="stroke:#000000;stroke-width:0.8;" x="56" xlink:href="#me75e6967cd" y="119.545026"/>
      </g>
     </g>
     <g id="text_12">
      <!-- 1.0 -->
      <g transform="translate(33.096875 123.344245)scale(0.1 -0.1)">
       <use xlink:href="#DejaVuSans-31"/>
       <use x="63.623047" xlink:href="#DejaVuSans-2e"/>
       <use x="95.410156" xlink:href="#DejaVuSans-30"/>
      </g>
     </g>
    </g>
   </g>
   <g id="line2d_13">
    <path clip-path="url(#p8440d34645)" d="M 85.576364 509.641422 
L 87.568038 509.919255 
L 89.559712 508.807882 
L 91.551387 507.140801 
L 93.543061 496.582611 
L 95.534735 492.414909 
L 97.52641 481.023055 
L 99.518084 462.96329 
L 101.509758 441.846991 
L 103.501433 406.838217 
L 105.493107 377.386516 
L 107.484781 344.044905 
L 111.46813 271.249027 
L 113.459804 241.797325 
L 115.451478 232.628547 
L 117.443153 207.900131 
L 119.434827 162.055415 
L 121.426501 146.496189 
L 123.418176 142.884071 
L 125.40985 125.37989 
L 127.401524 123.712727 
L 129.393199 137.326999 
L 131.384873 166.779112 
L 133.376547 177.059058 
L 135.368222 179.8378 
L 137.359896 206.232968 
L 139.35157 221.514813 
L 141.343245 238.185619 
L 143.334919 250.966515 
L 145.326593 270.971235 
L 147.318268 302.645683 
L 149.309942 306.535593 
L 151.301616 286.808665 
L 153.29329 290.698574 
L 155.284965 299.867353 
L 157.276639 303.201678 
L 159.268313 299.867353 
L 161.259988 314.870995 
L 163.251662 340.988782 
L 165.243336 349.601977 
L 167.235011 370.718276 
L 169.226685 389.334036 
L 171.218359 391.834575 
L 173.210034 399.892185 
L 175.201708 413.784249 
L 177.193382 426.565145 
L 179.185057 430.177263 
L 181.176731 434.344964 
L 183.168405 449.904602 
L 185.16008 459.628964 
L 187.151754 464.35225 
L 189.143428 460.740543 
L 191.135103 467.130991 
L 193.126777 474.354815 
L 195.118451 478.244725 
L 197.110125 481.856842 
L 199.1018 490.747829 
L 201.093474 500.194646 
L 203.085148 500.194646 
L 205.076823 496.304778 
L 207.068497 497.971858 
L 209.060171 494.91553 
L 211.051846 490.747829 
L 213.04352 489.91433 
L 215.035194 481.856842 
L 217.026869 467.408783 
L 219.018543 451.571354 
L 221.010217 445.180906 
L 223.001892 436.845503 
L 224.993566 423.509023 
L 226.98524 415.17362 
L 228.976915 408.227588 
L 230.968589 400.169977 
L 232.960263 389.88962 
L 234.951938 367.661742 
L 236.943612 360.160126 
L 238.935286 354.880846 
L 240.926961 353.213684 
L 242.918635 350.157561 
L 244.910309 336.542878 
L 250.885332 226.793683 
L 252.877006 206.51076 
L 254.868681 188.173202 
L 256.860355 164.00037 
L 258.852029 184.283293 
L 260.843704 189.840365 
L 262.835378 182.060546 
L 264.827052 183.171714 
L 266.818727 194.285859 
L 268.810401 221.514813 
L 270.802075 237.629624 
L 272.79375 255.6898 
L 274.785424 285.974878 
L 276.777098 300.700729 
L 278.768773 313.203833 
L 280.760447 324.317977 
L 282.752121 326.818516 
L 284.743796 341.266574 
L 286.73547 344.044905 
L 288.727144 344.878281 
L 290.718818 344.044905 
L 292.710493 345.98986 
L 294.702167 351.824724 
L 296.693841 352.380308 
L 298.685516 357.381385 
L 300.67719 361.549086 
L 302.668864 364.327828 
L 304.660539 366.828366 
L 306.652213 375.441561 
L 308.643887 377.108724 
L 310.635562 389.056244 
L 312.627236 399.336191 
L 314.61891 406.838217 
L 316.610585 405.448847 
L 318.602259 408.227588 
L 322.585608 430.732847 
L 324.577282 439.624244 
L 326.568956 446.848068 
L 328.560631 459.351172 
L 330.552305 469.353738 
L 332.543979 472.965855 
L 334.535654 474.910399 
L 336.527328 479.356303 
L 340.510676 494.637697 
L 342.502351 501.583852 
L 344.494025 509.641422 
L 346.485699 515.476163 
L 348.477374 519.921738 
L 350.469048 521.588819 
L 352.460722 520.477404 
L 354.452397 519.643864 
L 356.444071 519.088198 
L 358.435745 515.19833 
L 360.42742 513.253416 
L 362.419094 504.918013 
L 364.410768 498.249691 
L 366.402443 484.079589 
L 368.394117 470.743109 
L 370.385791 458.240005 
L 372.377466 439.902036 
L 374.36914 430.455055 
L 376.360814 414.618036 
L 378.352489 395.724484 
L 380.344163 381.554217 
L 384.327511 342.655534 
L 386.319186 320.705859 
L 388.31086 300.978931 
L 392.294209 271.526819 
L 394.285883 269.860067 
L 396.277557 269.582275 
L 398.269232 265.136371 
L 400.260906 258.190339 
L 402.25258 265.136371 
L 404.244255 265.970158 
L 406.235929 270.137859 
L 408.227603 267.915112 
L 410.219278 278.751054 
L 412.210952 292.087534 
L 414.202626 299.589561 
L 416.194301 314.315411 
L 418.185975 317.371534 
L 420.177649 337.376665 
L 424.160998 345.156484 
L 428.144346 361.549086 
L 430.136021 370.718276 
L 432.127695 367.661742 
L 434.119369 376.830932 
L 436.111044 392.945743 
L 438.102718 405.171055 
L 440.094392 408.227588 
L 442.086067 407.116009 
L 446.069415 410.450335 
L 448.06109 402.670516 
L 450.052764 401.003353 
L 452.044438 398.502815 
L 454.036113 402.948308 
L 456.027787 411.005919 
L 458.019461 415.729204 
L 460.011136 427.12114 
L 462.00281 432.677802 
L 463.994484 444.069738 
L 465.986159 449.904602 
L 467.977833 454.905679 
L 469.969507 463.241082 
L 471.961182 472.132069 
L 473.952856 478.522517 
L 475.94453 483.801797 
L 477.936204 496.860485 
L 479.927879 506.307261 
L 481.919553 511.864169 
L 483.911227 515.476163 
L 485.902902 515.754037 
L 487.894576 512.975583 
L 489.88625 504.918013 
L 491.877925 495.471237 
L 495.861273 470.464906 
L 497.852948 452.960724 
L 499.844622 431.01105 
L 501.836296 410.450335 
L 503.827971 398.780607 
L 505.819645 371.27386 
L 507.811319 350.157561 
L 509.802994 337.654457 
L 511.794668 329.041262 
L 513.786342 314.870995 
L 515.778017 270.415651 
L 517.769691 236.796248 
L 519.761365 207.900131 
L 521.753039 176.503474 
L 523.744714 147.329565 
L 525.736388 140.661325 
L 527.728062 142.606279 
L 529.719737 154.276008 
L 531.711411 171.224605 
L 533.703085 195.95261 
L 535.69476 216.791117 
L 537.686434 224.015352 
L 539.678108 244.298275 
L 541.669783 257.912547 
L 543.661457 257.356963 
L 545.653131 249.854936 
L 547.644806 247.354398 
L 549.63648 248.187773 
L 551.628154 250.41052 
L 553.619829 274.583352 
L 555.611503 294.032489 
L 559.594852 342.377742 
L 561.586526 357.381385 
L 563.5782 379.609263 
L 565.569875 385.999711 
L 567.561549 387.389081 
L 569.553223 394.335113 
L 571.544897 404.059887 
L 573.536572 422.119652 
L 575.528246 430.177263 
L 577.51992 439.902036 
L 579.511595 459.906756 
L 581.503269 473.521439 
L 583.494943 481.023055 
L 585.486618 484.079589 
L 587.478292 488.525082 
L 589.469966 495.74907 
L 591.461641 498.527565 
L 593.453315 497.138318 
L 595.444989 499.083231 
L 597.436664 497.694025 
L 599.428338 501.028186 
L 601.420012 494.08199 
L 603.411687 495.193404 
L 605.403361 494.637697 
L 607.395035 495.193404 
L 609.38671 501.028186 
L 611.378384 504.084473 
L 613.370058 510.474962 
L 615.361732 513.531249 
L 617.353407 517.421117 
L 619.345081 520.755279 
L 621.336755 522.144485 
L 623.32843 524.08944 
L 625.320104 524.367273 
L 629.303453 518.810324 
L 631.295127 514.642623 
L 635.278476 496.304778 
L 637.27015 486.580127 
L 639.261824 475.466394 
L 641.253499 453.7941 
L 643.245173 443.514154 
L 645.236847 434.900548 
L 647.228522 420.730692 
L 649.220196 409.338756 
L 651.21187 392.390159 
L 653.203545 391.834575 
L 655.195219 381.554217 
L 657.186893 375.719353 
L 659.178567 365.161204 
L 661.170242 357.103593 
L 663.161916 368.217737 
L 665.15359 369.884489 
L 667.145265 364.327828 
L 669.136939 363.771833 
L 671.128613 373.496606 
L 673.120288 379.053679 
L 675.111962 366.828366 
L 677.103636 364.327828 
L 677.103636 364.327828 
" style="fill:none;stroke:#1f77b4;stroke-linecap:square;stroke-width:1.5;"/>
   </g>
   <g id="line2d_14">
    <path clip-path="url(#p8440d34645)" d="M 85.576364 460.641184 
L 87.568038 461.27305 
L 89.559712 461.37281 
L 91.551387 461.116841 
L 93.543061 460.352069 
L 95.534735 457.056426 
L 97.52641 455.10508 
L 99.518084 450.52267 
L 101.509758 443.179642 
L 103.501433 432.451971 
L 107.484781 396.046062 
L 111.46813 355.008863 
L 113.459804 337.552891 
L 115.451478 325.549484 
L 117.443153 320.835466 
L 119.434827 313.420471 
L 121.426501 302.929953 
L 123.418176 298.383013 
L 125.40985 297.110142 
L 127.401524 294.475292 
L 129.393199 293.614492 
L 131.384873 295.631155 
L 133.376547 300.966495 
L 135.368222 303.921604 
L 137.359896 305.135429 
L 139.35157 310.929503 
L 141.343245 316.085762 
L 143.334919 321.705891 
L 145.326593 326.481441 
L 147.318268 334.641958 
L 149.309942 348.095858 
L 151.301616 351.309098 
L 153.29329 344.317528 
L 155.284965 344.376897 
L 157.276639 348.382268 
L 159.268313 350.271325 
L 161.259988 349.553325 
L 163.251662 356.52424 
L 165.243336 369.703678 
L 167.235011 376.815717 
L 169.226685 388.756348 
L 171.218359 399.980764 
L 173.210034 403.133553 
L 175.201708 407.779767 
L 177.193382 415.591963 
L 179.185057 422.688916 
L 181.176731 425.538749 
L 183.168405 428.149483 
L 185.16008 435.320134 
L 187.151754 440.411942 
L 189.143428 442.541341 
L 191.135103 441.851133 
L 193.126777 444.201626 
L 195.118451 447.324731 
L 197.110125 449.134413 
L 199.1018 450.792859 
L 203.085148 457.560362 
L 205.076823 457.864183 
L 207.068497 456.775692 
L 209.060171 457.075837 
L 211.051846 456.090026 
L 213.04352 454.571676 
L 215.035194 453.961924 
L 217.026869 450.890889 
L 219.018543 444.952015 
L 221.010217 437.846248 
L 223.001892 433.941394 
L 224.993566 429.60349 
L 226.98524 422.67529 
L 228.976915 417.659884 
L 230.968589 413.516958 
L 232.960263 408.499497 
L 234.951938 401.9911 
L 236.943612 390.070583 
L 238.935286 383.972363 
L 240.926961 380.614485 
L 242.918635 379.471221 
L 244.910309 377.431794 
L 246.901983 369.368766 
L 248.893658 350.969211 
L 250.885332 333.759151 
L 252.877006 320.475466 
L 254.868681 313.131843 
L 258.852029 302.607802 
L 260.843704 305.37853 
L 262.835378 307.236118 
L 264.827052 306.03289 
L 266.818727 305.924154 
L 268.810401 308.494822 
L 270.802075 315.450976 
L 272.79375 321.503722 
L 274.785424 328.431165 
L 276.777098 340.080843 
L 278.768773 348.690794 
L 280.760447 355.246611 
L 282.752121 361.179267 
L 284.743796 363.682509 
L 286.73547 370.898417 
L 288.727144 373.415014 
L 290.718818 373.995243 
L 292.710493 373.817406 
L 294.702167 374.870373 
L 296.693841 377.898097 
L 298.685516 378.633184 
L 300.67719 381.673778 
L 302.668864 383.873577 
L 306.652213 387.795626 
L 308.643887 391.954178 
L 310.635562 394.343224 
L 314.61891 407.039813 
L 316.610585 411.496294 
L 318.602259 411.493753 
L 320.593933 413.256717 
L 322.585608 419.104374 
L 324.577282 425.390813 
L 326.568956 430.330898 
L 328.560631 434.338487 
L 330.552305 440.200635 
L 332.543979 444.9558 
L 334.535654 446.796788 
L 336.527328 447.84451 
L 338.519002 449.735675 
L 342.502351 455.689581 
L 344.494025 458.280309 
L 346.485699 461.10527 
L 348.477374 463.219583 
L 350.469048 464.612436 
L 352.460722 465.200019 
L 358.435745 464.437573 
L 360.42742 463.408181 
L 362.419094 462.527483 
L 366.402443 457.336078 
L 368.394117 452.16138 
L 372.377466 440.544739 
L 374.36914 432.095701 
L 376.360814 426.080264 
L 378.352489 417.597054 
L 380.344163 406.717175 
L 382.335837 397.507422 
L 390.302534 350.794456 
L 392.294209 343.143173 
L 394.285883 336.707933 
L 396.277557 334.989036 
L 398.269232 334.802818 
L 400.260906 332.956152 
L 402.25258 330.621447 
L 404.244255 332.457894 
L 406.235929 333.145777 
L 408.227603 334.766699 
L 410.219278 334.356359 
L 412.210952 338.301495 
L 414.202626 344.219336 
L 416.194301 348.694579 
L 418.185975 355.310306 
L 420.177649 358.562206 
L 422.169324 368.036958 
L 424.160998 371.694441 
L 426.152672 374.231639 
L 428.144346 378.811184 
L 432.127695 388.932672 
L 434.119369 388.652803 
L 436.111044 393.717576 
L 438.102718 402.734622 
L 440.094392 410.189142 
L 442.086067 412.66389 
L 444.077741 412.593922 
L 446.069415 413.407033 
L 448.06109 413.881068 
L 450.052764 410.337998 
L 452.044438 408.740381 
L 454.036113 407.69493 
L 456.027787 409.806811 
L 458.019461 414.091564 
L 460.011136 417.524762 
L 462.00281 423.198745 
L 463.994484 426.986321 
L 465.986159 432.486847 
L 467.977833 435.764052 
L 469.969507 438.489091 
L 471.961182 442.256174 
L 473.952856 446.317076 
L 475.94453 449.125924 
L 477.936204 451.561848 
L 479.927879 456.376437 
L 481.919553 459.867815 
L 483.911227 461.957094 
L 485.902902 463.235102 
L 487.894576 463.440407 
L 489.88625 462.448161 
L 491.877925 459.9533 
L 493.869599 456.421099 
L 495.861273 451.648631 
L 497.852948 446.24089 
L 499.844622 438.134443 
L 501.836296 427.285276 
L 503.827971 415.667553 
L 505.819645 407.761166 
L 507.811319 392.192358 
L 509.802994 378.80064 
L 511.794668 370.993635 
L 513.786342 365.263851 
L 515.778017 357.016767 
L 517.769691 337.675306 
L 519.761365 323.802578 
L 521.753039 313.933707 
L 523.744714 305.592054 
L 525.736388 299.046618 
L 527.728062 296.852442 
L 529.719737 296.91684 
L 531.711411 298.919769 
L 533.703085 302.444239 
L 537.686434 314.285976 
L 539.678108 317.336194 
L 541.669783 323.726555 
L 543.661457 328.837179 
L 545.653131 329.626985 
L 547.644806 327.191763 
L 549.63648 325.938088 
L 551.628154 326.034711 
L 553.619829 327.162133 
L 555.611503 335.70536 
L 557.603177 345.078622 
L 561.586526 370.812337 
L 563.5782 381.146862 
L 565.569875 393.718819 
L 567.561549 398.988302 
L 569.553223 400.511951 
L 571.544897 404.345108 
L 573.536572 410.288037 
L 575.528246 420.00151 
L 579.511595 430.720313 
L 581.503269 440.105579 
L 583.494943 446.605271 
L 585.486618 450.166292 
L 587.478292 451.59256 
L 589.469966 453.50238 
L 591.461641 456.083862 
L 593.453315 457.227613 
L 595.444989 456.986188 
L 597.436664 457.429133 
L 599.428338 457.277952 
L 601.420012 457.950588 
L 603.411687 456.086403 
L 607.395035 455.989942 
L 609.38671 456.284301 
L 611.378384 458.027151 
L 613.370058 459.450662 
L 615.361732 461.405144 
L 619.345081 463.89741 
L 621.336755 464.903714 
L 625.320104 465.996584 
L 627.311778 466.140141 
L 629.303453 465.378127 
L 631.295127 464.431787 
L 633.286801 463.128421 
L 635.278476 460.113024 
L 637.27015 456.86599 
L 639.261824 453.045918 
L 641.253499 448.128217 
L 643.245173 439.286683 
L 645.236847 433.361976 
L 647.228522 428.512512 
L 651.21187 414.046307 
L 653.203545 405.187525 
L 655.195219 402.741218 
L 657.186893 397.543379 
L 659.178567 393.446359 
L 661.170242 387.017986 
L 663.161916 382.861812 
L 665.15359 387.435571 
L 667.145265 389.100344 
L 669.136939 386.488853 
L 671.128613 386.213797 
L 673.120288 391.25321 
L 675.111962 394.016044 
L 677.103636 388.852539 
L 677.103636 388.852539 
" style="fill:none;stroke:#ff7f0e;stroke-linecap:square;stroke-width:1.5;"/>
   </g>
   <g id="line2d_15">
    <path clip-path="url(#p8440d34645)" d="M 85.576364 497.605099 
L 93.543061 497.605099 
L 101.509758 481.167704 
L 103.501433 481.167704 
L 113.459804 460.620961 
L 115.451478 460.620961 
L 117.443153 456.511613 
L 119.434827 456.511613 
L 123.418176 448.292915 
L 131.384873 448.292915 
L 133.376547 452.402264 
L 139.35157 452.402264 
L 141.343245 456.511613 
L 143.334919 456.511613 
L 145.326593 460.620961 
L 147.318268 460.620961 
L 149.309942 464.73031 
L 163.251662 464.73031 
L 165.243336 468.839658 
L 167.235011 468.839658 
L 169.226685 472.949007 
L 173.210034 472.949007 
L 175.201708 477.058356 
L 183.168405 477.058356 
L 185.16008 481.167704 
L 195.118451 481.167704 
L 197.110125 485.277053 
L 199.1018 485.277053 
L 203.085148 493.49575 
L 211.051846 493.49575 
L 213.04352 489.386402 
L 215.035194 489.386402 
L 219.018543 481.167704 
L 224.993566 481.167704 
L 226.98524 477.058356 
L 232.960263 477.058356 
L 234.951938 472.949007 
L 238.935286 472.949007 
L 240.926961 468.839658 
L 246.901983 468.839658 
L 252.877006 456.511613 
L 254.868681 456.511613 
L 256.860355 452.402264 
L 268.810401 452.402264 
L 270.802075 456.511613 
L 272.79375 456.511613 
L 274.785424 460.620961 
L 276.777098 460.620961 
L 278.768773 464.73031 
L 280.760447 464.73031 
L 282.752121 468.839658 
L 300.67719 468.839658 
L 302.668864 472.949007 
L 312.627236 472.949007 
L 314.61891 477.058356 
L 324.577282 477.058356 
L 326.568956 481.167704 
L 334.535654 481.167704 
L 336.527328 485.277053 
L 338.519002 485.277053 
L 342.502351 493.49575 
L 344.494025 493.49575 
L 348.477374 501.714447 
L 362.419094 501.714447 
L 368.394117 489.386402 
L 370.385791 481.167704 
L 374.36914 481.167704 
L 376.360814 477.058356 
L 380.344163 477.058356 
L 382.335837 472.949007 
L 384.327511 472.949007 
L 386.319186 468.839658 
L 388.31086 468.839658 
L 390.302534 464.73031 
L 392.294209 464.73031 
L 394.285883 460.620961 
L 412.210952 460.620961 
L 414.202626 464.73031 
L 420.177649 464.73031 
L 422.169324 468.839658 
L 428.144346 468.839658 
L 430.136021 472.949007 
L 438.102718 472.949007 
L 440.094392 477.058356 
L 463.994484 477.058356 
L 465.986159 481.167704 
L 473.952856 481.167704 
L 475.94453 485.277053 
L 477.936204 485.277053 
L 479.927879 493.49575 
L 481.919553 497.605099 
L 483.911227 497.605099 
L 485.902902 501.714447 
L 489.88625 501.714447 
L 495.861273 489.386402 
L 497.852948 481.167704 
L 499.844622 481.167704 
L 501.836296 477.058356 
L 505.819645 477.058356 
L 509.802994 468.839658 
L 513.786342 468.839658 
L 517.769691 460.620961 
L 519.761365 460.620961 
L 525.736388 448.292915 
L 531.711411 448.292915 
L 533.703085 452.402264 
L 535.69476 452.402264 
L 537.686434 456.511613 
L 541.669783 456.511613 
L 543.661457 460.620961 
L 555.611503 460.620961 
L 557.603177 464.73031 
L 559.594852 464.73031 
L 561.586526 468.839658 
L 563.5782 468.839658 
L 565.569875 472.949007 
L 571.544897 472.949007 
L 573.536572 477.058356 
L 577.51992 477.058356 
L 579.511595 481.167704 
L 583.494943 481.167704 
L 585.486618 485.277053 
L 587.478292 485.277053 
L 591.461641 493.49575 
L 611.378384 493.49575 
L 613.370058 497.605099 
L 615.361732 497.605099 
L 617.353407 501.714447 
L 633.286801 501.714447 
L 643.245173 481.167704 
L 645.236847 481.167704 
L 647.228522 477.058356 
L 651.21187 477.058356 
L 653.203545 472.949007 
L 661.170242 472.949007 
L 663.161916 468.839658 
L 665.15359 472.949007 
L 677.103636 472.949007 
L 677.103636 472.949007 
" style="fill:none;stroke:#2ca02c;stroke-linecap:square;stroke-width:1.5;"/>
   </g>
   <g id="line2d_16">
    <path clip-path="url(#p8440d34645)" d="M 85.576364 407.199429 
L 93.543061 407.199429 
L 95.534735 403.090081 
L 97.52641 403.090081 
L 101.509758 394.871383 
L 103.501433 386.652686 
L 107.484781 361.996594 
L 109.476455 333.231154 
L 111.46813 292.137668 
L 113.459804 259.262879 
L 115.451478 234.606787 
L 117.443153 226.38809 
L 119.434827 214.060044 
L 121.426501 197.62265 
L 123.418176 189.403952 
L 125.40985 189.403952 
L 127.401524 185.294604 
L 129.393199 185.294604 
L 131.384873 189.403952 
L 133.376547 197.62265 
L 135.368222 201.731998 
L 137.359896 201.731998 
L 139.35157 214.060044 
L 145.326593 238.716136 
L 147.318268 255.15353 
L 149.309942 279.809622 
L 151.301616 288.028319 
L 153.29329 275.700273 
L 155.284965 275.700273 
L 157.276639 283.918971 
L 159.268313 288.028319 
L 161.259988 283.918971 
L 163.251662 300.356365 
L 165.243336 325.012457 
L 167.235011 337.340503 
L 169.226685 353.777897 
L 171.218359 366.105943 
L 173.210034 370.215292 
L 175.201708 370.215292 
L 177.193382 378.433989 
L 179.185057 382.543337 
L 181.176731 382.543337 
L 185.16008 390.762035 
L 187.151754 390.762035 
L 189.143428 394.871383 
L 193.126777 394.871383 
L 195.118451 398.980732 
L 199.1018 398.980732 
L 203.085148 407.199429 
L 205.076823 407.199429 
L 207.068497 403.090081 
L 215.035194 403.090081 
L 221.010217 390.762035 
L 223.001892 390.762035 
L 230.968589 374.32464 
L 232.960263 374.32464 
L 238.935286 349.668549 
L 242.918635 341.449851 
L 244.910309 341.449851 
L 246.901983 320.903108 
L 248.893658 283.918971 
L 250.885332 251.044182 
L 252.877006 226.38809 
L 254.868681 214.060044 
L 258.852029 197.62265 
L 262.835378 205.841347 
L 264.827052 201.731998 
L 266.818727 201.731998 
L 268.810401 209.950696 
L 270.802075 222.278741 
L 272.79375 230.497439 
L 274.785424 242.825484 
L 276.777098 267.481576 
L 278.768773 283.918971 
L 282.752121 308.575062 
L 284.743796 312.684411 
L 286.73547 329.121805 
L 288.727144 333.231154 
L 294.702167 333.231154 
L 296.693841 341.449851 
L 298.685516 341.449851 
L 304.660539 353.777897 
L 306.652213 353.777897 
L 316.610585 374.32464 
L 320.593933 374.32464 
L 328.560631 390.762035 
L 330.552305 390.762035 
L 334.535654 398.980732 
L 338.519002 398.980732 
L 340.510676 403.090081 
L 342.502351 403.090081 
L 344.494025 407.199429 
L 346.485699 407.199429 
L 348.477374 411.308778 
L 362.419094 411.308778 
L 366.402443 403.090081 
L 368.394117 403.090081 
L 372.377466 394.871383 
L 374.36914 386.652686 
L 378.352489 378.433989 
L 380.344163 370.215292 
L 382.335837 366.105943 
L 384.327511 353.777897 
L 386.319186 333.231154 
L 390.302534 283.918971 
L 394.285883 259.262879 
L 396.277557 255.15353 
L 398.269232 255.15353 
L 402.25258 246.934833 
L 404.244255 251.044182 
L 406.235929 251.044182 
L 408.227603 255.15353 
L 410.219278 255.15353 
L 412.210952 263.372228 
L 414.202626 275.700273 
L 416.194301 283.918971 
L 418.185975 296.247016 
L 420.177649 304.465714 
L 422.169324 320.903108 
L 424.160998 329.121805 
L 426.152672 333.231154 
L 432.127695 357.887246 
L 434.119369 357.887246 
L 438.102718 366.105943 
L 440.094392 374.32464 
L 452.044438 374.32464 
L 454.036113 370.215292 
L 456.027787 374.32464 
L 458.019461 374.32464 
L 462.00281 382.543337 
L 463.994484 382.543337 
L 467.977833 390.762035 
L 469.969507 390.762035 
L 471.961182 394.871383 
L 473.952856 394.871383 
L 475.94453 398.980732 
L 477.936204 398.980732 
L 481.919553 407.199429 
L 483.911227 407.199429 
L 485.902902 411.308778 
L 489.88625 411.308778 
L 495.861273 398.980732 
L 497.852948 398.980732 
L 501.836296 382.543337 
L 503.827971 378.433989 
L 505.819645 370.215292 
L 507.811319 357.887246 
L 509.802994 341.449851 
L 513.786342 316.79376 
L 515.778017 296.247016 
L 517.769691 255.15353 
L 519.761365 230.497439 
L 521.753039 214.060044 
L 525.736388 189.403952 
L 529.719737 189.403952 
L 533.703085 197.62265 
L 535.69476 209.950696 
L 537.686434 218.169393 
L 539.678108 222.278741 
L 541.669783 234.606787 
L 543.661457 242.825484 
L 545.653131 246.934833 
L 547.644806 238.716136 
L 551.628154 238.716136 
L 553.619829 242.825484 
L 557.603177 275.700273 
L 561.586526 325.012457 
L 563.5782 345.5592 
L 565.569875 361.996594 
L 567.561549 366.105943 
L 569.553223 366.105943 
L 581.503269 390.762035 
L 583.494943 398.980732 
L 587.478292 398.980732 
L 589.469966 403.090081 
L 599.428338 403.090081 
L 601.420012 407.199429 
L 603.411687 403.090081 
L 609.38671 403.090081 
L 611.378384 407.199429 
L 615.361732 407.199429 
L 617.353407 411.308778 
L 633.286801 411.308778 
L 637.27015 403.090081 
L 639.261824 403.090081 
L 641.253499 398.980732 
L 643.245173 390.762035 
L 645.236847 386.652686 
L 647.228522 386.652686 
L 649.220196 382.543337 
L 651.21187 374.32464 
L 653.203545 370.215292 
L 655.195219 370.215292 
L 659.178567 361.996594 
L 661.170242 353.777897 
L 663.161916 349.668549 
L 667.145265 357.887246 
L 669.136939 353.777897 
L 671.128613 353.777897 
L 675.111962 361.996594 
L 677.103636 357.887246 
L 677.103636 357.887246 
" style="fill:none;stroke:#d62728;stroke-linecap:square;stroke-width:1.5;"/>
   </g>
   <g id="patch_3">
    <path d="M 56 544.4 
L 56 103.68 
" style="fill:none;stroke:#000000;stroke-linecap:square;stroke-linejoin:miter;stroke-width:0.8;"/>
   </g>
   <g id="patch_4">
    <path d="M 706.68 544.4 
L 706.68 103.68 
" style="fill:none;stroke:#000000;stroke-linecap:square;stroke-linejoin:miter;stroke-width:0.8;"/>
   </g>
   <g id="patch_5">
    <path d="M 56 544.4 
L 706.68 544.4 
" style="fill:none;stroke:#000000;stroke-linecap:square;stroke-linejoin:miter;stroke-width:0.8;"/>
   </g>
   <g id="patch_6">
    <path d="M 56 103.68 
L 706.68 103.68 
" style="fill:none;stroke:#000000;stroke-linecap:square;stroke-linejoin:miter;stroke-width:0.8;"/>
   </g>
   <g id="text_13">
    <!-- Plot of Train Data vs MCMC Uncertainty  -->
    <defs>
     <path d="M 19.671875 64.796875 
L 19.671875 37.40625 
L 32.078125 37.40625 
Q 38.96875 37.40625 42.71875 40.96875 
Q 46.484375 44.53125 46.484375 51.125 
Q 46.484375 57.671875 42.71875 61.234375 
Q 38.96875 64.796875 32.078125 64.796875 
z
M 9.8125 72.90625 
L 32.078125 72.90625 
Q 44.34375 72.90625 50.609375 67.359375 
Q 56.890625 61.8125 56.890625 51.125 
Q 56.890625 40.328125 50.609375 34.8125 
Q 44.34375 29.296875 32.078125 29.296875 
L 19.671875 29.296875 
L 19.671875 0 
L 9.8125 0 
z
" id="DejaVuSans-50"/>
     <path d="M 9.421875 75.984375 
L 18.40625 75.984375 
L 18.40625 0 
L 9.421875 0 
z
" id="DejaVuSans-6c"/>
     <path d="M 30.609375 48.390625 
Q 23.390625 48.390625 19.1875 42.75 
Q 14.984375 37.109375 14.984375 27.296875 
Q 14.984375 17.484375 19.15625 11.84375 
Q 23.34375 6.203125 30.609375 6.203125 
Q 37.796875 6.203125 41.984375 11.859375 
Q 46.1875 17.53125 46.1875 27.296875 
Q 46.1875 37.015625 41.984375 42.703125 
Q 37.796875 48.390625 30.609375 48.390625 
z
M 30.609375 56 
Q 42.328125 56 49.015625 48.375 
Q 55.71875 40.765625 55.71875 27.296875 
Q 55.71875 13.875 49.015625 6.21875 
Q 42.328125 -1.421875 30.609375 -1.421875 
Q 18.84375 -1.421875 12.171875 6.21875 
Q 5.515625 13.875 5.515625 27.296875 
Q 5.515625 40.765625 12.171875 48.375 
Q 18.84375 56 30.609375 56 
z
" id="DejaVuSans-6f"/>
     <path d="M 18.3125 70.21875 
L 18.3125 54.6875 
L 36.8125 54.6875 
L 36.8125 47.703125 
L 18.3125 47.703125 
L 18.3125 18.015625 
Q 18.3125 11.328125 20.140625 9.421875 
Q 21.96875 7.515625 27.59375 7.515625 
L 36.8125 7.515625 
L 36.8125 0 
L 27.59375 0 
Q 17.1875 0 13.234375 3.875 
Q 9.28125 7.765625 9.28125 18.015625 
L 9.28125 47.703125 
L 2.6875 47.703125 
L 2.6875 54.6875 
L 9.28125 54.6875 
L 9.28125 70.21875 
z
" id="DejaVuSans-74"/>
     <path id="DejaVuSans-20"/>
     <path d="M 37.109375 75.984375 
L 37.109375 68.5 
L 28.515625 68.5 
Q 23.6875 68.5 21.796875 66.546875 
Q 19.921875 64.59375 19.921875 59.515625 
L 19.921875 54.6875 
L 34.71875 54.6875 
L 34.71875 47.703125 
L 19.921875 47.703125 
L 19.921875 0 
L 10.890625 0 
L 10.890625 47.703125 
L 2.296875 47.703125 
L 2.296875 54.6875 
L 10.890625 54.6875 
L 10.890625 58.5 
Q 10.890625 67.625 15.140625 71.796875 
Q 19.390625 75.984375 28.609375 75.984375 
z
" id="DejaVuSans-66"/>
     <path d="M -0.296875 72.90625 
L 61.375 72.90625 
L 61.375 64.59375 
L 35.5 64.59375 
L 35.5 0 
L 25.59375 0 
L 25.59375 64.59375 
L -0.296875 64.59375 
z
" id="DejaVuSans-54"/>
     <path d="M 41.109375 46.296875 
Q 39.59375 47.171875 37.8125 47.578125 
Q 36.03125 48 33.890625 48 
Q 26.265625 48 22.1875 43.046875 
Q 18.109375 38.09375 18.109375 28.8125 
L 18.109375 0 
L 9.078125 0 
L 9.078125 54.6875 
L 18.109375 54.6875 
L 18.109375 46.1875 
Q 20.953125 51.171875 25.484375 53.578125 
Q 30.03125 56 36.53125 56 
Q 37.453125 56 38.578125 55.875 
Q 39.703125 55.765625 41.0625 55.515625 
z
" id="DejaVuSans-72"/>
     <path d="M 34.28125 27.484375 
Q 23.390625 27.484375 19.1875 25 
Q 14.984375 22.515625 14.984375 16.5 
Q 14.984375 11.71875 18.140625 8.90625 
Q 21.296875 6.109375 26.703125 6.109375 
Q 34.1875 6.109375 38.703125 11.40625 
Q 43.21875 16.703125 43.21875 25.484375 
L 43.21875 27.484375 
z
M 52.203125 31.203125 
L 52.203125 0 
L 43.21875 0 
L 43.21875 8.296875 
Q 40.140625 3.328125 35.546875 0.953125 
Q 30.953125 -1.421875 24.3125 -1.421875 
Q 15.921875 -1.421875 10.953125 3.296875 
Q 6 8.015625 6 15.921875 
Q 6 25.140625 12.171875 29.828125 
Q 18.359375 34.515625 30.609375 34.515625 
L 43.21875 34.515625 
L 43.21875 35.40625 
Q 43.21875 41.609375 39.140625 45 
Q 35.0625 48.390625 27.6875 48.390625 
Q 23 48.390625 18.546875 47.265625 
Q 14.109375 46.140625 10.015625 43.890625 
L 10.015625 52.203125 
Q 14.9375 54.109375 19.578125 55.046875 
Q 24.21875 56 28.609375 56 
Q 40.484375 56 46.34375 49.84375 
Q 52.203125 43.703125 52.203125 31.203125 
z
" id="DejaVuSans-61"/>
     <path d="M 9.421875 54.6875 
L 18.40625 54.6875 
L 18.40625 0 
L 9.421875 0 
z
M 9.421875 75.984375 
L 18.40625 75.984375 
L 18.40625 64.59375 
L 9.421875 64.59375 
z
" id="DejaVuSans-69"/>
     <path d="M 54.890625 33.015625 
L 54.890625 0 
L 45.90625 0 
L 45.90625 32.71875 
Q 45.90625 40.484375 42.875 44.328125 
Q 39.84375 48.1875 33.796875 48.1875 
Q 26.515625 48.1875 22.3125 43.546875 
Q 18.109375 38.921875 18.109375 30.90625 
L 18.109375 0 
L 9.078125 0 
L 9.078125 54.6875 
L 18.109375 54.6875 
L 18.109375 46.1875 
Q 21.34375 51.125 25.703125 53.5625 
Q 30.078125 56 35.796875 56 
Q 45.21875 56 50.046875 50.171875 
Q 54.890625 44.34375 54.890625 33.015625 
z
" id="DejaVuSans-6e"/>
     <path d="M 19.671875 64.796875 
L 19.671875 8.109375 
L 31.59375 8.109375 
Q 46.6875 8.109375 53.6875 14.9375 
Q 60.6875 21.78125 60.6875 36.53125 
Q 60.6875 51.171875 53.6875 57.984375 
Q 46.6875 64.796875 31.59375 64.796875 
z
M 9.8125 72.90625 
L 30.078125 72.90625 
Q 51.265625 72.90625 61.171875 64.09375 
Q 71.09375 55.28125 71.09375 36.53125 
Q 71.09375 17.671875 61.125 8.828125 
Q 51.171875 0 30.078125 0 
L 9.8125 0 
z
" id="DejaVuSans-44"/>
     <path d="M 2.984375 54.6875 
L 12.5 54.6875 
L 29.59375 8.796875 
L 46.6875 54.6875 
L 56.203125 54.6875 
L 35.6875 0 
L 23.484375 0 
z
" id="DejaVuSans-76"/>
     <path d="M 44.28125 53.078125 
L 44.28125 44.578125 
Q 40.484375 46.53125 36.375 47.5 
Q 32.28125 48.484375 27.875 48.484375 
Q 21.1875 48.484375 17.84375 46.4375 
Q 14.5 44.390625 14.5 40.28125 
Q 14.5 37.15625 16.890625 35.375 
Q 19.28125 33.59375 26.515625 31.984375 
L 29.59375 31.296875 
Q 39.15625 29.25 43.1875 25.515625 
Q 47.21875 21.78125 47.21875 15.09375 
Q 47.21875 7.46875 41.1875 3.015625 
Q 35.15625 -1.421875 24.609375 -1.421875 
Q 20.21875 -1.421875 15.453125 -0.5625 
Q 10.6875 0.296875 5.421875 2 
L 5.421875 11.28125 
Q 10.40625 8.6875 15.234375 7.390625 
Q 20.0625 6.109375 24.8125 6.109375 
Q 31.15625 6.109375 34.5625 8.28125 
Q 37.984375 10.453125 37.984375 14.40625 
Q 37.984375 18.0625 35.515625 20.015625 
Q 33.0625 21.96875 24.703125 23.78125 
L 21.578125 24.515625 
Q 13.234375 26.265625 9.515625 29.90625 
Q 5.8125 33.546875 5.8125 39.890625 
Q 5.8125 47.609375 11.28125 51.796875 
Q 16.75 56 26.8125 56 
Q 31.78125 56 36.171875 55.265625 
Q 40.578125 54.546875 44.28125 53.078125 
z
" id="DejaVuSans-73"/>
     <path d="M 9.8125 72.90625 
L 24.515625 72.90625 
L 43.109375 23.296875 
L 61.8125 72.90625 
L 76.515625 72.90625 
L 76.515625 0 
L 66.890625 0 
L 66.890625 64.015625 
L 48.09375 14.015625 
L 38.1875 14.015625 
L 19.390625 64.015625 
L 19.390625 0 
L 9.8125 0 
z
" id="DejaVuSans-4d"/>
     <path d="M 64.40625 67.28125 
L 64.40625 56.890625 
Q 59.421875 61.53125 53.78125 63.8125 
Q 48.140625 66.109375 41.796875 66.109375 
Q 29.296875 66.109375 22.65625 58.46875 
Q 16.015625 50.828125 16.015625 36.375 
Q 16.015625 21.96875 22.65625 14.328125 
Q 29.296875 6.6875 41.796875 6.6875 
Q 48.140625 6.6875 53.78125 8.984375 
Q 59.421875 11.28125 64.40625 15.921875 
L 64.40625 5.609375 
Q 59.234375 2.09375 53.4375 0.328125 
Q 47.65625 -1.421875 41.21875 -1.421875 
Q 24.65625 -1.421875 15.125 8.703125 
Q 5.609375 18.84375 5.609375 36.375 
Q 5.609375 53.953125 15.125 64.078125 
Q 24.65625 74.21875 41.21875 74.21875 
Q 47.75 74.21875 53.53125 72.484375 
Q 59.328125 70.75 64.40625 67.28125 
z
" id="DejaVuSans-43"/>
     <path d="M 8.6875 72.90625 
L 18.609375 72.90625 
L 18.609375 28.609375 
Q 18.609375 16.890625 22.84375 11.734375 
Q 27.09375 6.59375 36.625 6.59375 
Q 46.09375 6.59375 50.34375 11.734375 
Q 54.59375 16.890625 54.59375 28.609375 
L 54.59375 72.90625 
L 64.5 72.90625 
L 64.5 27.390625 
Q 64.5 13.140625 57.4375 5.859375 
Q 50.390625 -1.421875 36.625 -1.421875 
Q 22.796875 -1.421875 15.734375 5.859375 
Q 8.6875 13.140625 8.6875 27.390625 
z
" id="DejaVuSans-55"/>
     <path d="M 48.78125 52.59375 
L 48.78125 44.1875 
Q 44.96875 46.296875 41.140625 47.34375 
Q 37.3125 48.390625 33.40625 48.390625 
Q 24.65625 48.390625 19.8125 42.84375 
Q 14.984375 37.3125 14.984375 27.296875 
Q 14.984375 17.28125 19.8125 11.734375 
Q 24.65625 6.203125 33.40625 6.203125 
Q 37.3125 6.203125 41.140625 7.25 
Q 44.96875 8.296875 48.78125 10.40625 
L 48.78125 2.09375 
Q 45.015625 0.34375 40.984375 -0.53125 
Q 36.96875 -1.421875 32.421875 -1.421875 
Q 20.0625 -1.421875 12.78125 6.34375 
Q 5.515625 14.109375 5.515625 27.296875 
Q 5.515625 40.671875 12.859375 48.328125 
Q 20.21875 56 33.015625 56 
Q 37.15625 56 41.109375 55.140625 
Q 45.0625 54.296875 48.78125 52.59375 
z
" id="DejaVuSans-63"/>
     <path d="M 56.203125 29.59375 
L 56.203125 25.203125 
L 14.890625 25.203125 
Q 15.484375 15.921875 20.484375 11.0625 
Q 25.484375 6.203125 34.421875 6.203125 
Q 39.59375 6.203125 44.453125 7.46875 
Q 49.3125 8.734375 54.109375 11.28125 
L 54.109375 2.78125 
Q 49.265625 0.734375 44.1875 -0.34375 
Q 39.109375 -1.421875 33.890625 -1.421875 
Q 20.796875 -1.421875 13.15625 6.1875 
Q 5.515625 13.8125 5.515625 26.8125 
Q 5.515625 40.234375 12.765625 48.109375 
Q 20.015625 56 32.328125 56 
Q 43.359375 56 49.78125 48.890625 
Q 56.203125 41.796875 56.203125 29.59375 
z
M 47.21875 32.234375 
Q 47.125 39.59375 43.09375 43.984375 
Q 39.0625 48.390625 32.421875 48.390625 
Q 24.90625 48.390625 20.390625 44.140625 
Q 15.875 39.890625 15.1875 32.171875 
z
" id="DejaVuSans-65"/>
     <path d="M 32.171875 -5.078125 
Q 28.375 -14.84375 24.75 -17.8125 
Q 21.140625 -20.796875 15.09375 -20.796875 
L 7.90625 -20.796875 
L 7.90625 -13.28125 
L 13.1875 -13.28125 
Q 16.890625 -13.28125 18.9375 -11.515625 
Q 21 -9.765625 23.484375 -3.21875 
L 25.09375 0.875 
L 2.984375 54.6875 
L 12.5 54.6875 
L 29.59375 11.921875 
L 46.6875 54.6875 
L 56.203125 54.6875 
z
" id="DejaVuSans-79"/>
    </defs>
    <g transform="translate(260.846875 97.68)scale(0.12 -0.12)">
     <use xlink:href="#DejaVuSans-50"/>
     <use x="60.302734" xlink:href="#DejaVuSans-6c"/>
     <use x="88.085938" xlink:href="#DejaVuSans-6f"/>
     <use x="149.267578" xlink:href="#DejaVuSans-74"/>
     <use x="188.476562" xlink:href="#DejaVuSans-20"/>
     <use x="220.263672" xlink:href="#DejaVuSans-6f"/>
     <use x="281.445312" xlink:href="#DejaVuSans-66"/>
     <use x="316.650391" xlink:href="#DejaVuSans-20"/>
     <use x="348.4375" xlink:href="#DejaVuSans-54"/>
     <use x="409.302734" xlink:href="#DejaVuSans-72"/>
     <use x="450.416016" xlink:href="#DejaVuSans-61"/>
     <use x="511.695312" xlink:href="#DejaVuSans-69"/>
     <use x="539.478516" xlink:href="#DejaVuSans-6e"/>
     <use x="602.857422" xlink:href="#DejaVuSans-20"/>
     <use x="634.644531" xlink:href="#DejaVuSans-44"/>
     <use x="711.646484" xlink:href="#DejaVuSans-61"/>
     <use x="772.925781" xlink:href="#DejaVuSans-74"/>
     <use x="812.134766" xlink:href="#DejaVuSans-61"/>
     <use x="873.414062" xlink:href="#DejaVuSans-20"/>
     <use x="905.201172" xlink:href="#DejaVuSans-76"/>
     <use x="964.380859" xlink:href="#DejaVuSans-73"/>
     <use x="1016.480469" xlink:href="#DejaVuSans-20"/>
     <use x="1048.267578" xlink:href="#DejaVuSans-4d"/>
     <use x="1134.546875" xlink:href="#DejaVuSans-43"/>
     <use x="1204.371094" xlink:href="#DejaVuSans-4d"/>
     <use x="1290.650391" xlink:href="#DejaVuSans-43"/>
     <use x="1360.474609" xlink:href="#DejaVuSans-20"/>
     <use x="1392.261719" xlink:href="#DejaVuSans-55"/>
     <use x="1465.455078" xlink:href="#DejaVuSans-6e"/>
     <use x="1528.833984" xlink:href="#DejaVuSans-63"/>
     <use x="1583.814453" xlink:href="#DejaVuSans-65"/>
     <use x="1645.337891" xlink:href="#DejaVuSans-72"/>
     <use x="1686.451172" xlink:href="#DejaVuSans-74"/>
     <use x="1725.660156" xlink:href="#DejaVuSans-61"/>
     <use x="1786.939453" xlink:href="#DejaVuSans-69"/>
     <use x="1814.722656" xlink:href="#DejaVuSans-6e"/>
     <use x="1878.101562" xlink:href="#DejaVuSans-74"/>
     <use x="1917.310547" xlink:href="#DejaVuSans-79"/>
     <use x="1976.490234" xlink:href="#DejaVuSans-20"/>
    </g>
   </g>
   <g id="legend_1">
    <g id="patch_7">
     <path d="M 569.803438 170.3925 
L 699.68 170.3925 
Q 701.68 170.3925 701.68 168.3925 
L 701.68 110.68 
Q 701.68 108.68 699.68 108.68 
L 569.803438 108.68 
Q 567.803438 108.68 567.803438 110.68 
L 567.803438 168.3925 
Q 567.803438 170.3925 569.803438 170.3925 
z
" style="fill:#ffffff;opacity:0.8;stroke:#cccccc;stroke-linejoin:miter;"/>
    </g>
    <g id="line2d_17">
     <path d="M 571.803438 116.778437 
L 591.803438 116.778437 
" style="fill:none;stroke:#1f77b4;stroke-linecap:square;stroke-width:1.5;"/>
    </g>
    <g id="line2d_18"/>
    <g id="text_14">
     <!-- actual -->
     <defs>
      <path d="M 8.5 21.578125 
L 8.5 54.6875 
L 17.484375 54.6875 
L 17.484375 21.921875 
Q 17.484375 14.15625 20.5 10.265625 
Q 23.53125 6.390625 29.59375 6.390625 
Q 36.859375 6.390625 41.078125 11.03125 
Q 45.3125 15.671875 45.3125 23.6875 
L 45.3125 54.6875 
L 54.296875 54.6875 
L 54.296875 0 
L 45.3125 0 
L 45.3125 8.40625 
Q 42.046875 3.421875 37.71875 1 
Q 33.40625 -1.421875 27.6875 -1.421875 
Q 18.265625 -1.421875 13.375 4.4375 
Q 8.5 10.296875 8.5 21.578125 
z
M 31.109375 56 
z
" id="DejaVuSans-75"/>
     </defs>
     <g transform="translate(599.803438 120.278437)scale(0.1 -0.1)">
      <use xlink:href="#DejaVuSans-61"/>
      <use x="61.279297" xlink:href="#DejaVuSans-63"/>
      <use x="116.259766" xlink:href="#DejaVuSans-74"/>
      <use x="155.46875" xlink:href="#DejaVuSans-75"/>
      <use x="218.847656" xlink:href="#DejaVuSans-61"/>
      <use x="280.126953" xlink:href="#DejaVuSans-6c"/>
     </g>
    </g>
    <g id="line2d_19">
     <path d="M 571.803438 131.456562 
L 591.803438 131.456562 
" style="fill:none;stroke:#ff7f0e;stroke-linecap:square;stroke-width:1.5;"/>
    </g>
    <g id="line2d_20"/>
    <g id="text_15">
     <!-- pred. (mean) -->
     <defs>
      <path d="M 18.109375 8.203125 
L 18.109375 -20.796875 
L 9.078125 -20.796875 
L 9.078125 54.6875 
L 18.109375 54.6875 
L 18.109375 46.390625 
Q 20.953125 51.265625 25.265625 53.625 
Q 29.59375 56 35.59375 56 
Q 45.5625 56 51.78125 48.09375 
Q 58.015625 40.1875 58.015625 27.296875 
Q 58.015625 14.40625 51.78125 6.484375 
Q 45.5625 -1.421875 35.59375 -1.421875 
Q 29.59375 -1.421875 25.265625 0.953125 
Q 20.953125 3.328125 18.109375 8.203125 
z
M 48.6875 27.296875 
Q 48.6875 37.203125 44.609375 42.84375 
Q 40.53125 48.484375 33.40625 48.484375 
Q 26.265625 48.484375 22.1875 42.84375 
Q 18.109375 37.203125 18.109375 27.296875 
Q 18.109375 17.390625 22.1875 11.75 
Q 26.265625 6.109375 33.40625 6.109375 
Q 40.53125 6.109375 44.609375 11.75 
Q 48.6875 17.390625 48.6875 27.296875 
z
" id="DejaVuSans-70"/>
      <path d="M 45.40625 46.390625 
L 45.40625 75.984375 
L 54.390625 75.984375 
L 54.390625 0 
L 45.40625 0 
L 45.40625 8.203125 
Q 42.578125 3.328125 38.25 0.953125 
Q 33.9375 -1.421875 27.875 -1.421875 
Q 17.96875 -1.421875 11.734375 6.484375 
Q 5.515625 14.40625 5.515625 27.296875 
Q 5.515625 40.1875 11.734375 48.09375 
Q 17.96875 56 27.875 56 
Q 33.9375 56 38.25 53.625 
Q 42.578125 51.265625 45.40625 46.390625 
z
M 14.796875 27.296875 
Q 14.796875 17.390625 18.875 11.75 
Q 22.953125 6.109375 30.078125 6.109375 
Q 37.203125 6.109375 41.296875 11.75 
Q 45.40625 17.390625 45.40625 27.296875 
Q 45.40625 37.203125 41.296875 42.84375 
Q 37.203125 48.484375 30.078125 48.484375 
Q 22.953125 48.484375 18.875 42.84375 
Q 14.796875 37.203125 14.796875 27.296875 
z
" id="DejaVuSans-64"/>
      <path d="M 31 75.875 
Q 24.46875 64.65625 21.28125 53.65625 
Q 18.109375 42.671875 18.109375 31.390625 
Q 18.109375 20.125 21.3125 9.0625 
Q 24.515625 -2 31 -13.1875 
L 23.1875 -13.1875 
Q 15.875 -1.703125 12.234375 9.375 
Q 8.59375 20.453125 8.59375 31.390625 
Q 8.59375 42.28125 12.203125 53.3125 
Q 15.828125 64.359375 23.1875 75.875 
z
" id="DejaVuSans-28"/>
      <path d="M 52 44.1875 
Q 55.375 50.25 60.0625 53.125 
Q 64.75 56 71.09375 56 
Q 79.640625 56 84.28125 50.015625 
Q 88.921875 44.046875 88.921875 33.015625 
L 88.921875 0 
L 79.890625 0 
L 79.890625 32.71875 
Q 79.890625 40.578125 77.09375 44.375 
Q 74.3125 48.1875 68.609375 48.1875 
Q 61.625 48.1875 57.5625 43.546875 
Q 53.515625 38.921875 53.515625 30.90625 
L 53.515625 0 
L 44.484375 0 
L 44.484375 32.71875 
Q 44.484375 40.625 41.703125 44.40625 
Q 38.921875 48.1875 33.109375 48.1875 
Q 26.21875 48.1875 22.15625 43.53125 
Q 18.109375 38.875 18.109375 30.90625 
L 18.109375 0 
L 9.078125 0 
L 9.078125 54.6875 
L 18.109375 54.6875 
L 18.109375 46.1875 
Q 21.1875 51.21875 25.484375 53.609375 
Q 29.78125 56 35.6875 56 
Q 41.65625 56 45.828125 52.96875 
Q 50 49.953125 52 44.1875 
z
" id="DejaVuSans-6d"/>
      <path d="M 8.015625 75.875 
L 15.828125 75.875 
Q 23.140625 64.359375 26.78125 53.3125 
Q 30.421875 42.28125 30.421875 31.390625 
Q 30.421875 20.453125 26.78125 9.375 
Q 23.140625 -1.703125 15.828125 -13.1875 
L 8.015625 -13.1875 
Q 14.5 -2 17.703125 9.0625 
Q 20.90625 20.125 20.90625 31.390625 
Q 20.90625 42.671875 17.703125 53.65625 
Q 14.5 64.65625 8.015625 75.875 
z
" id="DejaVuSans-29"/>
     </defs>
     <g transform="translate(599.803438 134.956562)scale(0.1 -0.1)">
      <use xlink:href="#DejaVuSans-70"/>
      <use x="63.476562" xlink:href="#DejaVuSans-72"/>
      <use x="104.558594" xlink:href="#DejaVuSans-65"/>
      <use x="166.082031" xlink:href="#DejaVuSans-64"/>
      <use x="229.558594" xlink:href="#DejaVuSans-2e"/>
      <use x="261.345703" xlink:href="#DejaVuSans-20"/>
      <use x="293.132812" xlink:href="#DejaVuSans-28"/>
      <use x="332.146484" xlink:href="#DejaVuSans-6d"/>
      <use x="429.558594" xlink:href="#DejaVuSans-65"/>
      <use x="491.082031" xlink:href="#DejaVuSans-61"/>
      <use x="552.361328" xlink:href="#DejaVuSans-6e"/>
      <use x="615.740234" xlink:href="#DejaVuSans-29"/>
     </g>
    </g>
    <g id="line2d_21">
     <path d="M 571.803438 146.134687 
L 591.803438 146.134687 
" style="fill:none;stroke:#2ca02c;stroke-linecap:square;stroke-width:1.5;"/>
    </g>
    <g id="line2d_22"/>
    <g id="text_16">
     <!-- pred.(5th percen.) -->
     <defs>
      <path d="M 10.796875 72.90625 
L 49.515625 72.90625 
L 49.515625 64.59375 
L 19.828125 64.59375 
L 19.828125 46.734375 
Q 21.96875 47.46875 24.109375 47.828125 
Q 26.265625 48.1875 28.421875 48.1875 
Q 40.625 48.1875 47.75 41.5 
Q 54.890625 34.8125 54.890625 23.390625 
Q 54.890625 11.625 47.5625 5.09375 
Q 40.234375 -1.421875 26.90625 -1.421875 
Q 22.3125 -1.421875 17.546875 -0.640625 
Q 12.796875 0.140625 7.71875 1.703125 
L 7.71875 11.625 
Q 12.109375 9.234375 16.796875 8.0625 
Q 21.484375 6.890625 26.703125 6.890625 
Q 35.15625 6.890625 40.078125 11.328125 
Q 45.015625 15.765625 45.015625 23.390625 
Q 45.015625 31 40.078125 35.4375 
Q 35.15625 39.890625 26.703125 39.890625 
Q 22.75 39.890625 18.8125 39.015625 
Q 14.890625 38.140625 10.796875 36.28125 
z
" id="DejaVuSans-35"/>
      <path d="M 54.890625 33.015625 
L 54.890625 0 
L 45.90625 0 
L 45.90625 32.71875 
Q 45.90625 40.484375 42.875 44.328125 
Q 39.84375 48.1875 33.796875 48.1875 
Q 26.515625 48.1875 22.3125 43.546875 
Q 18.109375 38.921875 18.109375 30.90625 
L 18.109375 0 
L 9.078125 0 
L 9.078125 75.984375 
L 18.109375 75.984375 
L 18.109375 46.1875 
Q 21.34375 51.125 25.703125 53.5625 
Q 30.078125 56 35.796875 56 
Q 45.21875 56 50.046875 50.171875 
Q 54.890625 44.34375 54.890625 33.015625 
z
" id="DejaVuSans-68"/>
     </defs>
     <g transform="translate(599.803438 149.634687)scale(0.1 -0.1)">
      <use xlink:href="#DejaVuSans-70"/>
      <use x="63.476562" xlink:href="#DejaVuSans-72"/>
      <use x="104.558594" xlink:href="#DejaVuSans-65"/>
      <use x="166.082031" xlink:href="#DejaVuSans-64"/>
      <use x="229.558594" xlink:href="#DejaVuSans-2e"/>
      <use x="261.345703" xlink:href="#DejaVuSans-28"/>
      <use x="300.359375" xlink:href="#DejaVuSans-35"/>
      <use x="363.982422" xlink:href="#DejaVuSans-74"/>
      <use x="403.191406" xlink:href="#DejaVuSans-68"/>
      <use x="466.570312" xlink:href="#DejaVuSans-20"/>
      <use x="498.357422" xlink:href="#DejaVuSans-70"/>
      <use x="561.833984" xlink:href="#DejaVuSans-65"/>
      <use x="623.357422" xlink:href="#DejaVuSans-72"/>
      <use x="664.439453" xlink:href="#DejaVuSans-63"/>
      <use x="719.419922" xlink:href="#DejaVuSans-65"/>
      <use x="780.943359" xlink:href="#DejaVuSans-6e"/>
      <use x="844.322266" xlink:href="#DejaVuSans-2e"/>
      <use x="876.109375" xlink:href="#DejaVuSans-29"/>
     </g>
    </g>
    <g id="line2d_23">
     <path d="M 571.803438 160.812812 
L 591.803438 160.812812 
" style="fill:none;stroke:#d62728;stroke-linecap:square;stroke-width:1.5;"/>
    </g>
    <g id="line2d_24"/>
    <g id="text_17">
     <!-- pred.(95th percen.) -->
     <defs>
      <path d="M 10.984375 1.515625 
L 10.984375 10.5 
Q 14.703125 8.734375 18.5 7.8125 
Q 22.3125 6.890625 25.984375 6.890625 
Q 35.75 6.890625 40.890625 13.453125 
Q 46.046875 20.015625 46.78125 33.40625 
Q 43.953125 29.203125 39.59375 26.953125 
Q 35.25 24.703125 29.984375 24.703125 
Q 19.046875 24.703125 12.671875 31.3125 
Q 6.296875 37.9375 6.296875 49.421875 
Q 6.296875 60.640625 12.9375 67.421875 
Q 19.578125 74.21875 30.609375 74.21875 
Q 43.265625 74.21875 49.921875 64.515625 
Q 56.59375 54.828125 56.59375 36.375 
Q 56.59375 19.140625 48.40625 8.859375 
Q 40.234375 -1.421875 26.421875 -1.421875 
Q 22.703125 -1.421875 18.890625 -0.6875 
Q 15.09375 0.046875 10.984375 1.515625 
z
M 30.609375 32.421875 
Q 37.25 32.421875 41.125 36.953125 
Q 45.015625 41.5 45.015625 49.421875 
Q 45.015625 57.28125 41.125 61.84375 
Q 37.25 66.40625 30.609375 66.40625 
Q 23.96875 66.40625 20.09375 61.84375 
Q 16.21875 57.28125 16.21875 49.421875 
Q 16.21875 41.5 20.09375 36.953125 
Q 23.96875 32.421875 30.609375 32.421875 
z
" id="DejaVuSans-39"/>
     </defs>
     <g transform="translate(599.803438 164.312812)scale(0.1 -0.1)">
      <use xlink:href="#DejaVuSans-70"/>
      <use x="63.476562" xlink:href="#DejaVuSans-72"/>
      <use x="104.558594" xlink:href="#DejaVuSans-65"/>
      <use x="166.082031" xlink:href="#DejaVuSans-64"/>
      <use x="229.558594" xlink:href="#DejaVuSans-2e"/>
      <use x="261.345703" xlink:href="#DejaVuSans-28"/>
      <use x="300.359375" xlink:href="#DejaVuSans-39"/>
      <use x="363.982422" xlink:href="#DejaVuSans-35"/>
      <use x="427.605469" xlink:href="#DejaVuSans-74"/>
      <use x="466.814453" xlink:href="#DejaVuSans-68"/>
      <use x="530.193359" xlink:href="#DejaVuSans-20"/>
      <use x="561.980469" xlink:href="#DejaVuSans-70"/>
      <use x="625.457031" xlink:href="#DejaVuSans-65"/>
      <use x="686.980469" xlink:href="#DejaVuSans-72"/>
      <use x="728.0625" xlink:href="#DejaVuSans-63"/>
      <use x="783.042969" xlink:href="#DejaVuSans-65"/>
      <use x="844.566406" xlink:href="#DejaVuSans-6e"/>
      <use x="907.945312" xlink:href="#DejaVuSans-2e"/>
      <use x="939.732422" xlink:href="#DejaVuSans-29"/>
     </g>
    </g>
   </g>
  </g>
 </g>
 <defs>
  <clipPath id="p8440d34645">
   <rect height="440.72" width="650.68" x="56" y="103.68"/>
  </clipPath>
 </defs>
</svg>
