<?xml version="1.0" encoding="utf-8" standalone="no"?>
<!DOCTYPE svg PUBLIC "-//W3C//DTD SVG 1.1//EN"
  "http://www.w3.org/Graphics/SVG/1.1/DTD/svg11.dtd">
<!-- Created with matplotlib (http://matplotlib.org/) -->
<svg height="864pt" version="1.1" viewBox="0 0 720 864" width="720pt" xmlns="http://www.w3.org/2000/svg" xmlns:xlink="http://www.w3.org/1999/xlink">
 <defs>
  <style type="text/css">
*{stroke-linecap:butt;stroke-linejoin:round;}
  </style>
 </defs>
 <g id="figure_1">
  <g id="patch_1">
   <path d="M 0 864 
L 720 864 
L 720 0 
L 0 0 
z
" style="fill:#ffffff;"/>
  </g>
  <g id="axes_1">
   <g id="patch_2">
    <path d="M 56 544.4 
L 706.68 544.4 
L 706.68 103.68 
L 56 103.68 
z
" style="fill:#ffffff;"/>
   </g>
   <g id="PolyCollection_1">
    <path clip-path="url(#p6cf8458cc5)" d="M 85.576364 214.203834 
L 85.576364 433.96795 
L 88.57904 433.96795 
L 91.581717 433.96795 
L 94.584393 433.96795 
L 97.58707 433.96795 
L 100.589746 433.96795 
L 103.592423 440.4316 
L 106.595099 440.4316 
L 109.597776 440.4316 
L 112.600452 440.4316 
L 115.603129 440.4316 
L 118.605805 440.4316 
L 121.608482 440.4316 
L 124.611158 446.895251 
L 127.613835 446.895251 
L 130.616511 446.895251 
L 133.619188 453.358901 
L 136.621864 453.358901 
L 139.624541 453.358901 
L 142.627217 459.822552 
L 145.629894 466.286202 
L 148.63257 472.749853 
L 151.635247 472.749853 
L 154.637923 472.749853 
L 157.6406 472.749853 
L 160.643276 472.749853 
L 163.645953 472.749853 
L 166.648629 479.213503 
L 169.651306 479.213503 
L 172.653982 479.213503 
L 175.656659 485.677154 
L 178.659335 485.677154 
L 181.662012 485.677154 
L 184.664689 485.677154 
L 187.667365 479.213503 
L 190.670042 485.677154 
L 193.672718 485.677154 
L 196.675395 485.677154 
L 199.678071 485.677154 
L 202.680748 485.677154 
L 205.683424 485.677154 
L 208.686101 479.213503 
L 211.688777 479.213503 
L 214.691454 472.749853 
L 217.69413 466.286202 
L 220.696807 453.358901 
L 223.699483 453.358901 
L 226.70216 446.895251 
L 229.704836 446.895251 
L 232.707513 440.4316 
L 235.710189 440.4316 
L 238.712866 440.4316 
L 241.715542 433.96795 
L 244.718219 433.96795 
L 247.720895 433.96795 
L 250.723572 433.96795 
L 253.726248 427.504299 
L 256.728925 427.504299 
L 259.731601 427.504299 
L 262.734278 427.504299 
L 265.736954 427.504299 
L 268.739631 427.504299 
L 271.742307 427.504299 
L 274.744984 427.504299 
L 277.74766 427.504299 
L 280.750337 427.504299 
L 283.753013 427.504299 
L 286.75569 427.827482 
L 289.758366 433.96795 
L 292.761043 433.96795 
L 295.763719 433.96795 
L 298.766396 433.96795 
L 301.769072 440.4316 
L 304.771749 440.4316 
L 307.774425 440.4316 
L 310.777102 440.4316 
L 313.779778 446.895251 
L 316.782455 446.895251 
L 319.785132 446.895251 
L 322.787808 446.895251 
L 325.790485 446.895251 
L 328.793161 453.358901 
L 331.795838 453.358901 
L 334.798514 453.358901 
L 337.801191 453.358901 
L 340.803867 453.358901 
L 343.806544 453.358901 
L 346.80922 453.358901 
L 349.811897 453.358901 
L 352.814573 453.358901 
L 355.81725 453.358901 
L 358.819926 453.358901 
L 361.822603 453.358901 
L 364.825279 459.822552 
L 367.827956 466.286202 
L 370.830632 472.749853 
L 373.833309 472.749853 
L 376.835985 472.749853 
L 379.838662 472.749853 
L 382.841338 472.749853 
L 385.844015 472.749853 
L 388.846691 479.213503 
L 391.849368 479.213503 
L 394.852044 479.213503 
L 397.854721 485.677154 
L 400.857397 485.677154 
L 403.860074 485.677154 
L 406.86275 485.677154 
L 409.865427 485.677154 
L 412.868103 485.677154 
L 415.87078 485.677154 
L 418.873456 485.677154 
L 421.876133 485.677154 
L 424.878809 485.677154 
L 427.881486 485.677154 
L 430.884162 479.213503 
L 433.886839 472.749853 
L 436.889515 466.286202 
L 439.892192 459.822552 
L 442.894868 453.358901 
L 445.897545 453.358901 
L 448.900222 453.358901 
L 451.902898 453.358901 
L 454.905575 446.895251 
L 457.908251 446.895251 
L 460.910928 446.895251 
L 463.913604 446.895251 
L 466.916281 440.4316 
L 469.918957 440.4316 
L 472.921634 440.4316 
L 475.92431 440.4316 
L 478.926987 433.96795 
L 481.929663 440.4316 
L 484.93234 440.4316 
L 487.935016 440.4316 
L 490.937693 433.96795 
L 493.940369 433.96795 
L 496.943046 440.4316 
L 499.945722 440.4316 
L 502.948399 433.96795 
L 505.951075 440.4316 
L 508.953752 440.4316 
L 511.956428 440.4316 
L 514.959105 433.96795 
L 517.961781 440.4316 
L 520.964458 440.4316 
L 523.967134 440.4316 
L 526.969811 440.4316 
L 529.972487 440.4316 
L 532.975164 440.4316 
L 535.97784 440.4316 
L 538.980517 440.4316 
L 541.983193 440.4316 
L 544.98587 446.895251 
L 547.988546 446.895251 
L 550.991223 446.895251 
L 553.993899 446.895251 
L 556.996576 446.895251 
L 559.999252 453.358901 
L 563.001929 453.358901 
L 566.004605 453.358901 
L 569.007282 453.358901 
L 572.009958 466.286202 
L 575.012635 466.286202 
L 578.015311 472.749853 
L 581.017988 472.749853 
L 584.020665 479.213503 
L 587.023341 485.677154 
L 590.026018 485.677154 
L 593.028694 485.677154 
L 596.031371 485.677154 
L 599.034047 485.677154 
L 602.036724 485.677154 
L 605.0394 485.677154 
L 608.042077 485.677154 
L 611.044753 485.677154 
L 614.04743 485.677154 
L 617.050106 485.677154 
L 620.052783 492.140804 
L 623.055459 492.140804 
L 626.058136 492.140804 
L 629.060812 485.677154 
L 632.063489 485.677154 
L 635.066165 485.677154 
L 638.068842 485.677154 
L 641.071518 479.213503 
L 644.074195 472.749853 
L 647.076871 459.822552 
L 650.079548 453.358901 
L 653.082224 446.895251 
L 656.084901 446.895251 
L 659.087577 446.895251 
L 662.090254 440.4316 
L 665.09293 440.4316 
L 668.095607 440.4316 
L 671.098283 440.4316 
L 674.10096 440.4316 
L 677.103636 440.4316 
L 677.103636 259.449387 
L 677.103636 259.449387 
L 674.10096 265.913038 
L 671.098283 259.449387 
L 668.095607 259.449387 
L 665.09293 265.913038 
L 662.090254 278.840339 
L 659.087577 285.303989 
L 656.084901 291.76764 
L 653.082224 304.694941 
L 650.079548 317.622241 
L 647.076871 324.085892 
L 644.074195 330.549542 
L 641.071518 337.013193 
L 638.068842 343.476843 
L 635.066165 343.476843 
L 632.063489 343.476843 
L 629.060812 343.476843 
L 626.058136 343.476843 
L 623.055459 343.476843 
L 620.052783 343.476843 
L 617.050106 343.476843 
L 614.04743 343.476843 
L 611.044753 343.476843 
L 608.042077 343.476843 
L 605.0394 343.476843 
L 602.036724 343.476843 
L 599.034047 343.476843 
L 596.031371 343.476843 
L 593.028694 343.476843 
L 590.026018 343.476843 
L 587.023341 343.476843 
L 584.020665 337.013193 
L 581.017988 337.013193 
L 578.015311 330.549542 
L 575.012635 330.549542 
L 572.009958 330.549542 
L 569.007282 317.622241 
L 566.004605 311.158591 
L 563.001929 311.158591 
L 559.999252 304.694941 
L 556.996576 298.23129 
L 553.993899 291.76764 
L 550.991223 285.303989 
L 547.988546 291.76764 
L 544.98587 278.840339 
L 541.983193 272.376688 
L 538.980517 272.376688 
L 535.97784 272.376688 
L 532.975164 278.840339 
L 529.972487 272.376688 
L 526.969811 272.376688 
L 523.967134 272.376688 
L 520.964458 272.376688 
L 517.961781 259.449387 
L 514.959105 246.522086 
L 511.956428 252.985737 
L 508.953752 259.449387 
L 505.951075 252.985737 
L 502.948399 246.522086 
L 499.945722 252.985737 
L 496.943046 265.913038 
L 493.940369 246.522086 
L 490.937693 233.594785 
L 487.935016 246.522086 
L 484.93234 252.985737 
L 481.929663 246.522086 
L 478.926987 240.058436 
L 475.92431 259.449387 
L 472.921634 265.913038 
L 469.918957 272.376688 
L 466.916281 278.840339 
L 463.913604 285.303989 
L 460.910928 291.76764 
L 457.908251 291.76764 
L 454.905575 298.23129 
L 451.902898 304.694941 
L 448.900222 311.158591 
L 445.897545 311.158591 
L 442.894868 317.622241 
L 439.892192 324.085892 
L 436.889515 330.549542 
L 433.886839 337.013193 
L 430.884162 337.013193 
L 427.881486 343.476843 
L 424.878809 343.476843 
L 421.876133 343.476843 
L 418.873456 343.476843 
L 415.87078 343.476843 
L 412.868103 343.476843 
L 409.865427 343.476843 
L 406.86275 343.476843 
L 403.860074 343.476843 
L 400.857397 343.476843 
L 397.854721 343.476843 
L 394.852044 337.013193 
L 391.849368 337.013193 
L 388.846691 337.013193 
L 385.844015 337.013193 
L 382.841338 337.013193 
L 379.838662 337.013193 
L 376.835985 337.013193 
L 373.833309 330.549542 
L 370.830632 330.549542 
L 367.827956 330.549542 
L 364.825279 324.085892 
L 361.822603 324.085892 
L 358.819926 317.622241 
L 355.81725 317.622241 
L 352.814573 311.158591 
L 349.811897 317.622241 
L 346.80922 317.622241 
L 343.806544 311.158591 
L 340.803867 311.158591 
L 337.801191 317.622241 
L 334.798514 311.158591 
L 331.795838 311.158591 
L 328.793161 304.694941 
L 325.790485 298.23129 
L 322.787808 298.23129 
L 319.785132 291.76764 
L 316.782455 285.303989 
L 313.779778 278.840339 
L 310.777102 278.840339 
L 307.774425 265.913038 
L 304.771749 259.449387 
L 301.769072 246.522086 
L 298.766396 240.058436 
L 295.763719 233.594785 
L 292.761043 227.131135 
L 289.758366 194.812882 
L 286.75569 181.885582 
L 283.753013 175.421931 
L 280.750337 156.03098 
L 277.74766 143.103679 
L 274.744984 130.176378 
L 271.742307 123.712727 
L 268.739631 130.176378 
L 265.736954 130.176378 
L 262.734278 136.640028 
L 259.731601 143.103679 
L 256.728925 156.03098 
L 253.726248 168.958281 
L 250.723572 181.885582 
L 247.720895 188.349232 
L 244.718219 201.276533 
L 241.715542 227.131135 
L 238.712866 246.522086 
L 235.710189 265.913038 
L 232.707513 278.840339 
L 229.704836 291.76764 
L 226.70216 304.694941 
L 223.699483 311.158591 
L 220.696807 317.622241 
L 217.69413 330.549542 
L 214.691454 337.013193 
L 211.688777 337.013193 
L 208.686101 337.013193 
L 205.683424 343.476843 
L 202.680748 343.476843 
L 199.678071 343.476843 
L 196.675395 343.476843 
L 193.672718 343.476843 
L 190.670042 343.476843 
L 187.667365 337.013193 
L 184.664689 343.476843 
L 181.662012 343.476843 
L 178.659335 343.476843 
L 175.656659 343.476843 
L 172.653982 337.013193 
L 169.651306 337.013193 
L 166.648629 337.013193 
L 163.645953 330.549542 
L 160.643276 330.549542 
L 157.6406 330.549542 
L 154.637923 330.549542 
L 151.635247 330.549542 
L 148.63257 330.549542 
L 145.629894 330.549542 
L 142.627217 324.085892 
L 139.624541 317.622241 
L 136.621864 311.158591 
L 133.619188 311.158591 
L 130.616511 298.23129 
L 127.613835 291.76764 
L 124.611158 278.840339 
L 121.608482 278.840339 
L 118.605805 272.376688 
L 115.603129 265.913038 
L 112.600452 259.449387 
L 109.597776 265.913038 
L 106.595099 265.913038 
L 103.592423 252.985737 
L 100.589746 227.131135 
L 97.58707 201.276533 
L 94.584393 194.812882 
L 91.581717 188.349232 
L 88.57904 194.812882 
L 85.576364 214.203834 
z
" style="fill:#008000;fill-opacity:0.4;"/>
   </g>
   <g id="matplotlib.axis_1">
    <g id="xtick_1">
     <g id="line2d_1">
      <defs>
       <path d="M 0 0 
L 0 3.5 
" id="m4c79655100" style="stroke:#000000;stroke-width:0.8;"/>
      </defs>
      <g>
       <use style="stroke:#000000;stroke-width:0.8;" x="85.576364" xlink:href="#m4c79655100" y="544.4"/>
      </g>
     </g>
     <g id="text_1">
      <!-- 0.0 -->
      <defs>
       <path d="M 31.78125 66.40625 
Q 24.171875 66.40625 20.328125 58.90625 
Q 16.5 51.421875 16.5 36.375 
Q 16.5 21.390625 20.328125 13.890625 
Q 24.171875 6.390625 31.78125 6.390625 
Q 39.453125 6.390625 43.28125 13.890625 
Q 47.125 21.390625 47.125 36.375 
Q 47.125 51.421875 43.28125 58.90625 
Q 39.453125 66.40625 31.78125 66.40625 
z
M 31.78125 74.21875 
Q 44.046875 74.21875 50.515625 64.515625 
Q 56.984375 54.828125 56.984375 36.375 
Q 56.984375 17.96875 50.515625 8.265625 
Q 44.046875 -1.421875 31.78125 -1.421875 
Q 19.53125 -1.421875 13.0625 8.265625 
Q 6.59375 17.96875 6.59375 36.375 
Q 6.59375 54.828125 13.0625 64.515625 
Q 19.53125 74.21875 31.78125 74.21875 
z
" id="DejaVuSans-30"/>
       <path d="M 10.6875 12.40625 
L 21 12.40625 
L 21 0 
L 10.6875 0 
z
" id="DejaVuSans-2e"/>
      </defs>
      <g transform="translate(77.624801 558.998437)scale(0.1 -0.1)">
       <use xlink:href="#DejaVuSans-30"/>
       <use x="63.623047" xlink:href="#DejaVuSans-2e"/>
       <use x="95.410156" xlink:href="#DejaVuSans-30"/>
      </g>
     </g>
    </g>
    <g id="xtick_2">
     <g id="line2d_2">
      <g>
       <use style="stroke:#000000;stroke-width:0.8;" x="203.881818" xlink:href="#m4c79655100" y="544.4"/>
      </g>
     </g>
     <g id="text_2">
      <!-- 0.2 -->
      <defs>
       <path d="M 19.1875 8.296875 
L 53.609375 8.296875 
L 53.609375 0 
L 7.328125 0 
L 7.328125 8.296875 
Q 12.9375 14.109375 22.625 23.890625 
Q 32.328125 33.6875 34.8125 36.53125 
Q 39.546875 41.84375 41.421875 45.53125 
Q 43.3125 49.21875 43.3125 52.78125 
Q 43.3125 58.59375 39.234375 62.25 
Q 35.15625 65.921875 28.609375 65.921875 
Q 23.96875 65.921875 18.8125 64.3125 
Q 13.671875 62.703125 7.8125 59.421875 
L 7.8125 69.390625 
Q 13.765625 71.78125 18.9375 73 
Q 24.125 74.21875 28.421875 74.21875 
Q 39.75 74.21875 46.484375 68.546875 
Q 53.21875 62.890625 53.21875 53.421875 
Q 53.21875 48.921875 51.53125 44.890625 
Q 49.859375 40.875 45.40625 35.40625 
Q 44.1875 33.984375 37.640625 27.21875 
Q 31.109375 20.453125 19.1875 8.296875 
z
" id="DejaVuSans-32"/>
      </defs>
      <g transform="translate(195.930256 558.998437)scale(0.1 -0.1)">
       <use xlink:href="#DejaVuSans-30"/>
       <use x="63.623047" xlink:href="#DejaVuSans-2e"/>
       <use x="95.410156" xlink:href="#DejaVuSans-32"/>
      </g>
     </g>
    </g>
    <g id="xtick_3">
     <g id="line2d_3">
      <g>
       <use style="stroke:#000000;stroke-width:0.8;" x="322.187273" xlink:href="#m4c79655100" y="544.4"/>
      </g>
     </g>
     <g id="text_3">
      <!-- 0.4 -->
      <defs>
       <path d="M 37.796875 64.3125 
L 12.890625 25.390625 
L 37.796875 25.390625 
z
M 35.203125 72.90625 
L 47.609375 72.90625 
L 47.609375 25.390625 
L 58.015625 25.390625 
L 58.015625 17.1875 
L 47.609375 17.1875 
L 47.609375 0 
L 37.796875 0 
L 37.796875 17.1875 
L 4.890625 17.1875 
L 4.890625 26.703125 
z
" id="DejaVuSans-34"/>
      </defs>
      <g transform="translate(314.23571 558.998437)scale(0.1 -0.1)">
       <use xlink:href="#DejaVuSans-30"/>
       <use x="63.623047" xlink:href="#DejaVuSans-2e"/>
       <use x="95.410156" xlink:href="#DejaVuSans-34"/>
      </g>
     </g>
    </g>
    <g id="xtick_4">
     <g id="line2d_4">
      <g>
       <use style="stroke:#000000;stroke-width:0.8;" x="440.492727" xlink:href="#m4c79655100" y="544.4"/>
      </g>
     </g>
     <g id="text_4">
      <!-- 0.6 -->
      <defs>
       <path d="M 33.015625 40.375 
Q 26.375 40.375 22.484375 35.828125 
Q 18.609375 31.296875 18.609375 23.390625 
Q 18.609375 15.53125 22.484375 10.953125 
Q 26.375 6.390625 33.015625 6.390625 
Q 39.65625 6.390625 43.53125 10.953125 
Q 47.40625 15.53125 47.40625 23.390625 
Q 47.40625 31.296875 43.53125 35.828125 
Q 39.65625 40.375 33.015625 40.375 
z
M 52.59375 71.296875 
L 52.59375 62.3125 
Q 48.875 64.0625 45.09375 64.984375 
Q 41.3125 65.921875 37.59375 65.921875 
Q 27.828125 65.921875 22.671875 59.328125 
Q 17.53125 52.734375 16.796875 39.40625 
Q 19.671875 43.65625 24.015625 45.921875 
Q 28.375 48.1875 33.59375 48.1875 
Q 44.578125 48.1875 50.953125 41.515625 
Q 57.328125 34.859375 57.328125 23.390625 
Q 57.328125 12.15625 50.6875 5.359375 
Q 44.046875 -1.421875 33.015625 -1.421875 
Q 20.359375 -1.421875 13.671875 8.265625 
Q 6.984375 17.96875 6.984375 36.375 
Q 6.984375 53.65625 15.1875 63.9375 
Q 23.390625 74.21875 37.203125 74.21875 
Q 40.921875 74.21875 44.703125 73.484375 
Q 48.484375 72.75 52.59375 71.296875 
z
" id="DejaVuSans-36"/>
      </defs>
      <g transform="translate(432.541165 558.998437)scale(0.1 -0.1)">
       <use xlink:href="#DejaVuSans-30"/>
       <use x="63.623047" xlink:href="#DejaVuSans-2e"/>
       <use x="95.410156" xlink:href="#DejaVuSans-36"/>
      </g>
     </g>
    </g>
    <g id="xtick_5">
     <g id="line2d_5">
      <g>
       <use style="stroke:#000000;stroke-width:0.8;" x="558.798182" xlink:href="#m4c79655100" y="544.4"/>
      </g>
     </g>
     <g id="text_5">
      <!-- 0.8 -->
      <defs>
       <path d="M 31.78125 34.625 
Q 24.75 34.625 20.71875 30.859375 
Q 16.703125 27.09375 16.703125 20.515625 
Q 16.703125 13.921875 20.71875 10.15625 
Q 24.75 6.390625 31.78125 6.390625 
Q 38.8125 6.390625 42.859375 10.171875 
Q 46.921875 13.96875 46.921875 20.515625 
Q 46.921875 27.09375 42.890625 30.859375 
Q 38.875 34.625 31.78125 34.625 
z
M 21.921875 38.8125 
Q 15.578125 40.375 12.03125 44.71875 
Q 8.5 49.078125 8.5 55.328125 
Q 8.5 64.0625 14.71875 69.140625 
Q 20.953125 74.21875 31.78125 74.21875 
Q 42.671875 74.21875 48.875 69.140625 
Q 55.078125 64.0625 55.078125 55.328125 
Q 55.078125 49.078125 51.53125 44.71875 
Q 48 40.375 41.703125 38.8125 
Q 48.828125 37.15625 52.796875 32.3125 
Q 56.78125 27.484375 56.78125 20.515625 
Q 56.78125 9.90625 50.3125 4.234375 
Q 43.84375 -1.421875 31.78125 -1.421875 
Q 19.734375 -1.421875 13.25 4.234375 
Q 6.78125 9.90625 6.78125 20.515625 
Q 6.78125 27.484375 10.78125 32.3125 
Q 14.796875 37.15625 21.921875 38.8125 
z
M 18.3125 54.390625 
Q 18.3125 48.734375 21.84375 45.5625 
Q 25.390625 42.390625 31.78125 42.390625 
Q 38.140625 42.390625 41.71875 45.5625 
Q 45.3125 48.734375 45.3125 54.390625 
Q 45.3125 60.0625 41.71875 63.234375 
Q 38.140625 66.40625 31.78125 66.40625 
Q 25.390625 66.40625 21.84375 63.234375 
Q 18.3125 60.0625 18.3125 54.390625 
z
" id="DejaVuSans-38"/>
      </defs>
      <g transform="translate(550.846619 558.998437)scale(0.1 -0.1)">
       <use xlink:href="#DejaVuSans-30"/>
       <use x="63.623047" xlink:href="#DejaVuSans-2e"/>
       <use x="95.410156" xlink:href="#DejaVuSans-38"/>
      </g>
     </g>
    </g>
    <g id="xtick_6">
     <g id="line2d_6">
      <g>
       <use style="stroke:#000000;stroke-width:0.8;" x="677.103636" xlink:href="#m4c79655100" y="544.4"/>
      </g>
     </g>
     <g id="text_6">
      <!-- 1.0 -->
      <defs>
       <path d="M 12.40625 8.296875 
L 28.515625 8.296875 
L 28.515625 63.921875 
L 10.984375 60.40625 
L 10.984375 69.390625 
L 28.421875 72.90625 
L 38.28125 72.90625 
L 38.28125 8.296875 
L 54.390625 8.296875 
L 54.390625 0 
L 12.40625 0 
z
" id="DejaVuSans-31"/>
      </defs>
      <g transform="translate(669.152074 558.998437)scale(0.1 -0.1)">
       <use xlink:href="#DejaVuSans-31"/>
       <use x="63.623047" xlink:href="#DejaVuSans-2e"/>
       <use x="95.410156" xlink:href="#DejaVuSans-30"/>
      </g>
     </g>
    </g>
   </g>
   <g id="matplotlib.axis_2">
    <g id="ytick_1">
     <g id="line2d_7">
      <defs>
       <path d="M 0 0 
L -3.5 0 
" id="m4c6290eb62" style="stroke:#000000;stroke-width:0.8;"/>
      </defs>
      <g>
       <use style="stroke:#000000;stroke-width:0.8;" x="56" xlink:href="#m4c6290eb62" y="530.922707"/>
      </g>
     </g>
     <g id="text_7">
      <!-- 0.0 -->
      <g transform="translate(33.096875 534.721926)scale(0.1 -0.1)">
       <use xlink:href="#DejaVuSans-30"/>
       <use x="63.623047" xlink:href="#DejaVuSans-2e"/>
       <use x="95.410156" xlink:href="#DejaVuSans-30"/>
      </g>
     </g>
    </g>
    <g id="ytick_2">
     <g id="line2d_8">
      <g>
       <use style="stroke:#000000;stroke-width:0.8;" x="56" xlink:href="#m4c6290eb62" y="466.286202"/>
      </g>
     </g>
     <g id="text_8">
      <!-- 0.1 -->
      <g transform="translate(33.096875 470.085421)scale(0.1 -0.1)">
       <use xlink:href="#DejaVuSans-30"/>
       <use x="63.623047" xlink:href="#DejaVuSans-2e"/>
       <use x="95.410156" xlink:href="#DejaVuSans-31"/>
      </g>
     </g>
    </g>
    <g id="ytick_3">
     <g id="line2d_9">
      <g>
       <use style="stroke:#000000;stroke-width:0.8;" x="56" xlink:href="#m4c6290eb62" y="401.649698"/>
      </g>
     </g>
     <g id="text_9">
      <!-- 0.2 -->
      <g transform="translate(33.096875 405.448916)scale(0.1 -0.1)">
       <use xlink:href="#DejaVuSans-30"/>
       <use x="63.623047" xlink:href="#DejaVuSans-2e"/>
       <use x="95.410156" xlink:href="#DejaVuSans-32"/>
      </g>
     </g>
    </g>
    <g id="ytick_4">
     <g id="line2d_10">
      <g>
       <use style="stroke:#000000;stroke-width:0.8;" x="56" xlink:href="#m4c6290eb62" y="337.013193"/>
      </g>
     </g>
     <g id="text_10">
      <!-- 0.3 -->
      <defs>
       <path d="M 40.578125 39.3125 
Q 47.65625 37.796875 51.625 33 
Q 55.609375 28.21875 55.609375 21.1875 
Q 55.609375 10.40625 48.1875 4.484375 
Q 40.765625 -1.421875 27.09375 -1.421875 
Q 22.515625 -1.421875 17.65625 -0.515625 
Q 12.796875 0.390625 7.625 2.203125 
L 7.625 11.71875 
Q 11.71875 9.328125 16.59375 8.109375 
Q 21.484375 6.890625 26.8125 6.890625 
Q 36.078125 6.890625 40.9375 10.546875 
Q 45.796875 14.203125 45.796875 21.1875 
Q 45.796875 27.640625 41.28125 31.265625 
Q 36.765625 34.90625 28.71875 34.90625 
L 20.21875 34.90625 
L 20.21875 43.015625 
L 29.109375 43.015625 
Q 36.375 43.015625 40.234375 45.921875 
Q 44.09375 48.828125 44.09375 54.296875 
Q 44.09375 59.90625 40.109375 62.90625 
Q 36.140625 65.921875 28.71875 65.921875 
Q 24.65625 65.921875 20.015625 65.03125 
Q 15.375 64.15625 9.8125 62.3125 
L 9.8125 71.09375 
Q 15.4375 72.65625 20.34375 73.4375 
Q 25.25 74.21875 29.59375 74.21875 
Q 40.828125 74.21875 47.359375 69.109375 
Q 53.90625 64.015625 53.90625 55.328125 
Q 53.90625 49.265625 50.4375 45.09375 
Q 46.96875 40.921875 40.578125 39.3125 
z
" id="DejaVuSans-33"/>
      </defs>
      <g transform="translate(33.096875 340.812412)scale(0.1 -0.1)">
       <use xlink:href="#DejaVuSans-30"/>
       <use x="63.623047" xlink:href="#DejaVuSans-2e"/>
       <use x="95.410156" xlink:href="#DejaVuSans-33"/>
      </g>
     </g>
    </g>
    <g id="ytick_5">
     <g id="line2d_11">
      <g>
       <use style="stroke:#000000;stroke-width:0.8;" x="56" xlink:href="#m4c6290eb62" y="272.376688"/>
      </g>
     </g>
     <g id="text_11">
      <!-- 0.4 -->
      <g transform="translate(33.096875 276.175907)scale(0.1 -0.1)">
       <use xlink:href="#DejaVuSans-30"/>
       <use x="63.623047" xlink:href="#DejaVuSans-2e"/>
       <use x="95.410156" xlink:href="#DejaVuSans-34"/>
      </g>
     </g>
    </g>
    <g id="ytick_6">
     <g id="line2d_12">
      <g>
       <use style="stroke:#000000;stroke-width:0.8;" x="56" xlink:href="#m4c6290eb62" y="207.740183"/>
      </g>
     </g>
     <g id="text_12">
      <!-- 0.5 -->
      <defs>
       <path d="M 10.796875 72.90625 
L 49.515625 72.90625 
L 49.515625 64.59375 
L 19.828125 64.59375 
L 19.828125 46.734375 
Q 21.96875 47.46875 24.109375 47.828125 
Q 26.265625 48.1875 28.421875 48.1875 
Q 40.625 48.1875 47.75 41.5 
Q 54.890625 34.8125 54.890625 23.390625 
Q 54.890625 11.625 47.5625 5.09375 
Q 40.234375 -1.421875 26.90625 -1.421875 
Q 22.3125 -1.421875 17.546875 -0.640625 
Q 12.796875 0.140625 7.71875 1.703125 
L 7.71875 11.625 
Q 12.109375 9.234375 16.796875 8.0625 
Q 21.484375 6.890625 26.703125 6.890625 
Q 35.15625 6.890625 40.078125 11.328125 
Q 45.015625 15.765625 45.015625 23.390625 
Q 45.015625 31 40.078125 35.4375 
Q 35.15625 39.890625 26.703125 39.890625 
Q 22.75 39.890625 18.8125 39.015625 
Q 14.890625 38.140625 10.796875 36.28125 
z
" id="DejaVuSans-35"/>
      </defs>
      <g transform="translate(33.096875 211.539402)scale(0.1 -0.1)">
       <use xlink:href="#DejaVuSans-30"/>
       <use x="63.623047" xlink:href="#DejaVuSans-2e"/>
       <use x="95.410156" xlink:href="#DejaVuSans-35"/>
      </g>
     </g>
    </g>
    <g id="ytick_7">
     <g id="line2d_13">
      <g>
       <use style="stroke:#000000;stroke-width:0.8;" x="56" xlink:href="#m4c6290eb62" y="143.103679"/>
      </g>
     </g>
     <g id="text_13">
      <!-- 0.6 -->
      <g transform="translate(33.096875 146.902897)scale(0.1 -0.1)">
       <use xlink:href="#DejaVuSans-30"/>
       <use x="63.623047" xlink:href="#DejaVuSans-2e"/>
       <use x="95.410156" xlink:href="#DejaVuSans-36"/>
      </g>
     </g>
    </g>
   </g>
   <g id="line2d_14">
    <path clip-path="url(#p6cf8458cc5)" d="M 85.576364 211.891786 
L 88.57904 204.899409 
L 91.581717 217.573335 
L 94.584393 218.884163 
L 97.58707 248.165146 
L 100.589746 273.949941 
L 103.592423 294.053186 
L 106.595099 289.683112 
L 109.597776 280.068432 
L 112.600452 290.993941 
L 115.603129 299.297792 
L 118.605805 316.778735 
L 121.608482 324.644998 
L 124.611158 352.17821 
L 127.613835 381.896135 
L 133.619188 418.169495 
L 136.621864 429.095004 
L 139.624541 457.502101 
L 142.627217 470.175769 
L 145.629894 474.109029 
L 148.63257 478.916305 
L 151.635247 475.420116 
L 154.637923 474.109029 
L 157.6406 474.109029 
L 160.643276 481.101471 
L 163.645953 493.33826 
L 166.648629 496.834513 
L 169.651306 499.019615 
L 172.653982 505.575049 
L 175.656659 505.575049 
L 178.659335 507.760216 
L 181.662012 502.515868 
L 184.664689 499.893694 
L 187.667365 503.826955 
L 190.670042 503.389948 
L 193.672718 506.012057 
L 196.675395 506.449129 
L 199.678071 509.071302 
L 202.680748 505.575049 
L 205.683424 500.330702 
L 208.686101 493.33826 
L 211.688777 483.723645 
L 214.691454 458.81293 
L 217.69413 428.658061 
L 220.696807 403.310209 
L 223.699483 379.710775 
L 226.70216 345.185833 
L 229.704836 312.408661 
L 232.707513 284.001564 
L 235.710189 259.965187 
L 238.712866 241.172769 
L 241.715542 220.632581 
L 244.718219 210.580958 
L 247.720895 201.840163 
L 250.723572 193.973901 
L 256.728925 169.937524 
L 259.731601 161.633672 
L 262.734278 153.767409 
L 265.736954 158.137483 
L 268.739631 151.582049 
L 271.742307 154.204352 
L 274.744984 169.937524 
L 277.74766 183.922278 
L 280.750337 200.529335 
L 283.753013 201.40322 
L 286.75569 219.321752 
L 289.758366 245.980432 
L 292.761043 250.350506 
L 295.763719 253.409752 
L 298.766396 265.646735 
L 301.769072 276.572244 
L 304.771749 301.482506 
L 310.777102 327.267301 
L 313.779778 343.000472 
L 316.782455 349.118964 
L 319.785132 364.852135 
L 322.787808 376.651529 
L 325.790485 391.073873 
L 328.793161 399.377078 
L 331.795838 414.673307 
L 334.798514 418.606438 
L 340.803867 415.984135 
L 343.806544 419.043381 
L 346.80922 418.606438 
L 349.811897 410.302586 
L 355.81725 435.213495 
L 358.819926 442.205872 
L 361.822603 446.139004 
L 364.825279 464.931421 
L 367.827956 477.605218 
L 370.830632 481.101471 
L 373.833309 483.286637 
L 376.835985 481.538478 
L 379.838662 485.034732 
L 382.841338 484.597724 
L 385.844015 487.656905 
L 388.846691 495.086354 
L 394.852044 507.323144 
L 397.854721 511.693476 
L 400.857397 516.937824 
L 403.860074 518.685918 
L 406.86275 517.374831 
L 409.865427 515.189665 
L 412.868103 518.685918 
L 415.87078 519.122925 
L 418.873456 513.878578 
L 421.876133 509.071302 
L 424.878809 504.70097 
L 427.881486 496.397441 
L 430.884162 484.597724 
L 433.886839 467.553595 
L 436.889515 457.065159 
L 439.892192 432.591192 
L 442.894868 414.673307 
L 445.897545 401.562438 
L 448.900222 384.518438 
L 451.902898 366.162964 
L 454.905575 351.304324 
L 457.908251 349.118964 
L 460.910928 328.141833 
L 463.913604 310.660244 
L 466.916281 306.727112 
L 469.918957 297.112432 
L 472.921634 283.564621 
L 475.92431 253.846695 
L 478.926987 266.957564 
L 481.929663 270.890695 
L 484.93234 262.1499 
L 487.935016 250.350506 
L 490.937693 263.024432 
L 493.940369 297.112432 
L 496.943046 270.453752 
L 499.945722 258.216769 
L 502.948399 268.268392 
L 505.951075 290.556998 
L 508.953752 270.453752 
L 511.956428 256.468998 
L 514.959105 287.060809 
L 517.961781 311.097186 
L 520.964458 309.786358 
L 523.967134 305.416284 
L 526.969811 304.104809 
L 529.972487 317.215678 
L 532.975164 310.223301 
L 535.97784 298.86085 
L 538.980517 309.786358 
L 541.983193 328.141833 
L 544.98587 353.052095 
L 547.988546 341.689644 
L 550.991223 353.052095 
L 553.993899 376.214587 
L 556.996576 387.577684 
L 559.999252 399.377078 
L 563.001929 409.865644 
L 566.004605 440.895044 
L 569.007282 462.309118 
L 572.009958 469.738697 
L 575.012635 474.983044 
L 578.015311 481.97555 
L 581.017988 498.1456 
L 584.020665 505.575049 
L 587.023341 508.63423 
L 590.026018 513.44157 
L 593.028694 517.374831 
L 596.031371 517.811838 
L 599.034047 516.063744 
L 602.036724 516.063744 
L 605.0394 513.878578 
L 608.042077 515.626737 
L 611.044753 518.685918 
L 614.04743 519.997005 
L 617.050106 523.056186 
L 620.052783 524.367273 
L 623.055459 524.367273 
L 626.058136 520.434012 
L 629.060812 513.878578 
L 632.063489 509.071302 
L 635.066165 502.515868 
L 638.068842 492.464181 
L 641.071518 474.546037 
L 647.076871 424.72493 
L 650.079548 378.83689 
L 653.082224 346.059718 
L 656.084901 325.956472 
L 659.087577 313.282547 
L 662.090254 295.364661 
L 665.09293 274.823826 
L 668.095607 287.934695 
L 671.098283 296.238547 
L 674.10096 284.875449 
L 677.103636 267.831449 
L 677.103636 267.831449 
" style="fill:none;stroke:#1f77b4;stroke-linecap:square;stroke-width:1.5;"/>
   </g>
   <g id="line2d_15">
    <path clip-path="url(#p6cf8458cc5)" d="M 85.576364 283.515599 
L 88.57904 270.951283 
L 91.581717 266.565951 
L 94.584393 270.902466 
L 97.58707 274.301835 
L 100.589746 288.769867 
L 103.592423 304.654883 
L 106.595099 317.118927 
L 109.597776 316.004118 
L 112.600452 311.673047 
L 115.603129 316.183994 
L 118.605805 321.976361 
L 121.608482 331.920262 
L 124.611158 337.833991 
L 127.613835 353.009452 
L 130.616511 369.015747 
L 133.619188 379.602951 
L 136.621864 388.395132 
L 139.624541 394.512297 
L 142.627217 405.697219 
L 145.629894 411.413977 
L 148.63257 413.353498 
L 151.635247 414.999262 
L 154.637923 414.081169 
L 157.6406 413.605835 
L 160.643276 413.63288 
L 163.645953 416.000958 
L 166.648629 420.147049 
L 169.651306 421.540136 
L 172.653982 422.562498 
L 175.656659 424.477015 
L 178.659335 424.862197 
L 181.662012 425.363811 
L 184.664689 423.827163 
L 187.667365 422.973025 
L 190.670042 423.964515 
L 193.672718 424.111478 
L 196.675395 424.841786 
L 199.678071 425.092848 
L 202.680748 425.802318 
L 205.683424 424.796285 
L 208.686101 423.076869 
L 211.688777 420.630632 
L 214.691454 417.020429 
L 217.69413 407.922755 
L 223.699483 383.09766 
L 226.70216 370.604359 
L 229.704836 351.974418 
L 232.707513 332.293963 
L 235.710189 314.901555 
L 238.712866 299.141984 
L 241.715542 287.699622 
L 244.718219 275.52321 
L 247.720895 269.198443 
L 250.723572 263.989506 
L 253.726248 259.535371 
L 259.731601 247.256221 
L 262.734278 242.704535 
L 265.736954 239.076641 
L 268.739631 239.958845 
L 271.742307 237.553516 
L 274.744984 239.032842 
L 277.74766 245.256657 
L 280.750337 253.007764 
L 283.753013 261.188109 
L 286.75569 263.627967 
L 289.758366 272.838244 
L 292.761043 286.742321 
L 295.763719 291.756668 
L 298.766396 293.814746 
L 301.769072 300.317178 
L 304.771749 308.088782 
L 307.774425 321.483592 
L 310.777102 330.701778 
L 313.779778 338.94727 
L 316.782455 347.602438 
L 319.785132 352.603773 
L 322.787808 360.367553 
L 325.790485 367.762309 
L 328.793161 374.855485 
L 331.795838 379.896792 
L 334.798514 386.808391 
L 337.801191 389.084446 
L 340.803867 389.120251 
L 343.806544 388.493788 
L 346.80922 389.581467 
L 349.811897 389.062844 
L 352.814573 386.539639 
L 355.81725 391.338049 
L 358.819926 396.696415 
L 361.822603 399.95367 
L 364.825279 402.432565 
L 367.827956 409.288457 
L 370.830632 414.24293 
L 373.833309 415.965408 
L 376.835985 416.676154 
L 379.838662 416.446694 
L 382.841338 417.307636 
L 385.844015 417.381798 
L 388.846691 418.506813 
L 391.849368 420.912226 
L 394.852044 423.130704 
L 397.854721 425.200774 
L 403.860074 428.218193 
L 406.86275 428.85903 
L 409.865427 428.547244 
L 412.868103 427.955479 
L 415.87078 428.85146 
L 418.873456 429.018495 
L 421.876133 427.47819 
L 427.881486 424.582474 
L 430.884162 421.63573 
L 433.886839 417.593057 
L 436.889515 411.525475 
L 439.892192 406.720601 
L 442.894868 396.889644 
L 445.897545 388.616512 
L 448.900222 381.636875 
L 451.902898 373.065479 
L 454.905575 363.146582 
L 457.908251 354.919971 
L 460.910928 352.178873 
L 463.913604 340.730047 
L 466.916281 330.952925 
L 469.918957 326.835835 
L 472.921634 321.52467 
L 475.92431 312.418918 
L 478.926987 297.280113 
L 481.929663 301.372199 
L 484.93234 303.793176 
L 487.935016 299.37408 
L 490.937693 293.34358 
L 493.940369 300.348306 
L 496.943046 316.798891 
L 499.945722 305.982568 
L 502.948399 298.258675 
L 505.951075 303.096888 
L 508.953752 313.96254 
L 511.956428 305.299632 
L 514.959105 297.915847 
L 517.961781 313.061626 
L 520.964458 327.045563 
L 523.967134 328.864486 
L 526.969811 325.848938 
L 529.972487 326.11063 
L 532.975164 331.872294 
L 535.97784 328.893742 
L 538.980517 323.539373 
L 541.983193 328.087402 
L 547.988546 351.861219 
L 550.991223 349.351111 
L 553.993899 354.544314 
L 556.996576 366.351702 
L 559.999252 373.374799 
L 566.004605 385.436906 
L 569.007282 398.544084 
L 572.009958 407.890012 
L 575.012635 411.398924 
L 578.015311 413.733747 
L 581.017988 416.295649 
L 584.020665 421.699346 
L 587.023341 424.429898 
L 590.026018 425.737342 
L 593.028694 427.213605 
L 596.031371 428.32025 
L 599.034047 428.681194 
L 602.036724 428.158319 
L 605.0394 428.034659 
L 608.042077 427.520033 
L 611.044753 427.932431 
L 614.04743 428.88701 
L 617.050106 429.395087 
L 620.052783 430.207211 
L 623.055459 430.699214 
L 626.058136 430.731702 
L 629.060812 429.527337 
L 632.063489 427.552267 
L 635.066165 425.986787 
L 638.068842 423.858886 
L 641.071518 420.39641 
L 644.074195 413.921703 
L 647.076871 404.637605 
L 650.079548 392.750016 
L 653.082224 371.74732 
L 656.084901 352.614744 
L 659.087577 340.072626 
L 662.090254 331.524873 
L 668.095607 309.406772 
L 674.10096 319.203284 
L 677.103636 313.702122 
L 677.103636 313.702122 
" style="fill:none;stroke:#ff7f0e;stroke-linecap:square;stroke-width:1.5;"/>
   </g>
   <g id="line2d_16">
    <path clip-path="url(#p6cf8458cc5)" d="M 85.576364 433.96795 
L 100.589746 433.96795 
L 103.592423 440.4316 
L 121.608482 440.4316 
L 124.611158 446.895251 
L 130.616511 446.895251 
L 133.619188 453.358901 
L 139.624541 453.358901 
L 148.63257 472.749853 
L 163.645953 472.749853 
L 166.648629 479.213503 
L 172.653982 479.213503 
L 175.656659 485.677154 
L 184.664689 485.677154 
L 187.667365 479.213503 
L 190.670042 485.677154 
L 205.683424 485.677154 
L 208.686101 479.213503 
L 211.688777 479.213503 
L 217.69413 466.286202 
L 220.696807 453.358901 
L 223.699483 453.358901 
L 226.70216 446.895251 
L 229.704836 446.895251 
L 232.707513 440.4316 
L 238.712866 440.4316 
L 241.715542 433.96795 
L 250.723572 433.96795 
L 253.726248 427.504299 
L 283.753013 427.504299 
L 286.75569 427.827482 
L 289.758366 433.96795 
L 298.766396 433.96795 
L 301.769072 440.4316 
L 310.777102 440.4316 
L 313.779778 446.895251 
L 325.790485 446.895251 
L 328.793161 453.358901 
L 361.822603 453.358901 
L 370.830632 472.749853 
L 385.844015 472.749853 
L 388.846691 479.213503 
L 394.852044 479.213503 
L 397.854721 485.677154 
L 427.881486 485.677154 
L 442.894868 453.358901 
L 451.902898 453.358901 
L 454.905575 446.895251 
L 463.913604 446.895251 
L 466.916281 440.4316 
L 475.92431 440.4316 
L 478.926987 433.96795 
L 481.929663 440.4316 
L 487.935016 440.4316 
L 490.937693 433.96795 
L 493.940369 433.96795 
L 496.943046 440.4316 
L 499.945722 440.4316 
L 502.948399 433.96795 
L 505.951075 440.4316 
L 511.956428 440.4316 
L 514.959105 433.96795 
L 517.961781 440.4316 
L 541.983193 440.4316 
L 544.98587 446.895251 
L 556.996576 446.895251 
L 559.999252 453.358901 
L 569.007282 453.358901 
L 572.009958 466.286202 
L 575.012635 466.286202 
L 578.015311 472.749853 
L 581.017988 472.749853 
L 587.023341 485.677154 
L 617.050106 485.677154 
L 620.052783 492.140804 
L 626.058136 492.140804 
L 629.060812 485.677154 
L 638.068842 485.677154 
L 644.074195 472.749853 
L 647.076871 459.822552 
L 653.082224 446.895251 
L 659.087577 446.895251 
L 662.090254 440.4316 
L 677.103636 440.4316 
L 677.103636 440.4316 
" style="fill:none;stroke:#2ca02c;stroke-linecap:square;stroke-width:1.5;"/>
   </g>
   <g id="line2d_17">
    <path clip-path="url(#p6cf8458cc5)" d="M 85.576364 214.203834 
L 88.57904 194.812882 
L 91.581717 188.349232 
L 97.58707 201.276533 
L 103.592423 252.985737 
L 106.595099 265.913038 
L 109.597776 265.913038 
L 112.600452 259.449387 
L 121.608482 278.840339 
L 124.611158 278.840339 
L 127.613835 291.76764 
L 130.616511 298.23129 
L 133.619188 311.158591 
L 136.621864 311.158591 
L 145.629894 330.549542 
L 163.645953 330.549542 
L 166.648629 337.013193 
L 172.653982 337.013193 
L 175.656659 343.476843 
L 184.664689 343.476843 
L 187.667365 337.013193 
L 190.670042 343.476843 
L 205.683424 343.476843 
L 208.686101 337.013193 
L 214.691454 337.013193 
L 217.69413 330.549542 
L 220.696807 317.622241 
L 226.70216 304.694941 
L 235.710189 265.913038 
L 241.715542 227.131135 
L 244.718219 201.276533 
L 247.720895 188.349232 
L 250.723572 181.885582 
L 259.731601 143.103679 
L 265.736954 130.176378 
L 268.739631 130.176378 
L 271.742307 123.712727 
L 274.744984 130.176378 
L 280.750337 156.03098 
L 283.753013 175.421931 
L 286.75569 181.885582 
L 289.758366 194.812882 
L 292.761043 227.131135 
L 301.769072 246.522086 
L 304.771749 259.449387 
L 307.774425 265.913038 
L 310.777102 278.840339 
L 313.779778 278.840339 
L 322.787808 298.23129 
L 325.790485 298.23129 
L 331.795838 311.158591 
L 334.798514 311.158591 
L 337.801191 317.622241 
L 340.803867 311.158591 
L 343.806544 311.158591 
L 346.80922 317.622241 
L 349.811897 317.622241 
L 352.814573 311.158591 
L 355.81725 317.622241 
L 358.819926 317.622241 
L 361.822603 324.085892 
L 364.825279 324.085892 
L 367.827956 330.549542 
L 373.833309 330.549542 
L 376.835985 337.013193 
L 394.852044 337.013193 
L 397.854721 343.476843 
L 427.881486 343.476843 
L 430.884162 337.013193 
L 433.886839 337.013193 
L 445.897545 311.158591 
L 448.900222 311.158591 
L 457.908251 291.76764 
L 460.910928 291.76764 
L 475.92431 259.449387 
L 478.926987 240.058436 
L 484.93234 252.985737 
L 487.935016 246.522086 
L 490.937693 233.594785 
L 493.940369 246.522086 
L 496.943046 265.913038 
L 499.945722 252.985737 
L 502.948399 246.522086 
L 508.953752 259.449387 
L 514.959105 246.522086 
L 520.964458 272.376688 
L 529.972487 272.376688 
L 532.975164 278.840339 
L 535.97784 272.376688 
L 541.983193 272.376688 
L 544.98587 278.840339 
L 547.988546 291.76764 
L 550.991223 285.303989 
L 563.001929 311.158591 
L 566.004605 311.158591 
L 569.007282 317.622241 
L 572.009958 330.549542 
L 578.015311 330.549542 
L 581.017988 337.013193 
L 584.020665 337.013193 
L 587.023341 343.476843 
L 638.068842 343.476843 
L 650.079548 317.622241 
L 656.084901 291.76764 
L 662.090254 278.840339 
L 665.09293 265.913038 
L 668.095607 259.449387 
L 671.098283 259.449387 
L 674.10096 265.913038 
L 677.103636 259.449387 
L 677.103636 259.449387 
" style="fill:none;stroke:#d62728;stroke-linecap:square;stroke-width:1.5;"/>
   </g>
   <g id="patch_3">
    <path d="M 56 544.4 
L 56 103.68 
" style="fill:none;stroke:#000000;stroke-linecap:square;stroke-linejoin:miter;stroke-width:0.8;"/>
   </g>
   <g id="patch_4">
    <path d="M 706.68 544.4 
L 706.68 103.68 
" style="fill:none;stroke:#000000;stroke-linecap:square;stroke-linejoin:miter;stroke-width:0.8;"/>
   </g>
   <g id="patch_5">
    <path d="M 56 544.4 
L 706.68 544.4 
" style="fill:none;stroke:#000000;stroke-linecap:square;stroke-linejoin:miter;stroke-width:0.8;"/>
   </g>
   <g id="patch_6">
    <path d="M 56 103.68 
L 706.68 103.68 
" style="fill:none;stroke:#000000;stroke-linecap:square;stroke-linejoin:miter;stroke-width:0.8;"/>
   </g>
   <g id="text_14">
    <!-- Plot of Test Data vs MCMC Uncertainty  -->
    <defs>
     <path d="M 19.671875 64.796875 
L 19.671875 37.40625 
L 32.078125 37.40625 
Q 38.96875 37.40625 42.71875 40.96875 
Q 46.484375 44.53125 46.484375 51.125 
Q 46.484375 57.671875 42.71875 61.234375 
Q 38.96875 64.796875 32.078125 64.796875 
z
M 9.8125 72.90625 
L 32.078125 72.90625 
Q 44.34375 72.90625 50.609375 67.359375 
Q 56.890625 61.8125 56.890625 51.125 
Q 56.890625 40.328125 50.609375 34.8125 
Q 44.34375 29.296875 32.078125 29.296875 
L 19.671875 29.296875 
L 19.671875 0 
L 9.8125 0 
z
" id="DejaVuSans-50"/>
     <path d="M 9.421875 75.984375 
L 18.40625 75.984375 
L 18.40625 0 
L 9.421875 0 
z
" id="DejaVuSans-6c"/>
     <path d="M 30.609375 48.390625 
Q 23.390625 48.390625 19.1875 42.75 
Q 14.984375 37.109375 14.984375 27.296875 
Q 14.984375 17.484375 19.15625 11.84375 
Q 23.34375 6.203125 30.609375 6.203125 
Q 37.796875 6.203125 41.984375 11.859375 
Q 46.1875 17.53125 46.1875 27.296875 
Q 46.1875 37.015625 41.984375 42.703125 
Q 37.796875 48.390625 30.609375 48.390625 
z
M 30.609375 56 
Q 42.328125 56 49.015625 48.375 
Q 55.71875 40.765625 55.71875 27.296875 
Q 55.71875 13.875 49.015625 6.21875 
Q 42.328125 -1.421875 30.609375 -1.421875 
Q 18.84375 -1.421875 12.171875 6.21875 
Q 5.515625 13.875 5.515625 27.296875 
Q 5.515625 40.765625 12.171875 48.375 
Q 18.84375 56 30.609375 56 
z
" id="DejaVuSans-6f"/>
     <path d="M 18.3125 70.21875 
L 18.3125 54.6875 
L 36.8125 54.6875 
L 36.8125 47.703125 
L 18.3125 47.703125 
L 18.3125 18.015625 
Q 18.3125 11.328125 20.140625 9.421875 
Q 21.96875 7.515625 27.59375 7.515625 
L 36.8125 7.515625 
L 36.8125 0 
L 27.59375 0 
Q 17.1875 0 13.234375 3.875 
Q 9.28125 7.765625 9.28125 18.015625 
L 9.28125 47.703125 
L 2.6875 47.703125 
L 2.6875 54.6875 
L 9.28125 54.6875 
L 9.28125 70.21875 
z
" id="DejaVuSans-74"/>
     <path id="DejaVuSans-20"/>
     <path d="M 37.109375 75.984375 
L 37.109375 68.5 
L 28.515625 68.5 
Q 23.6875 68.5 21.796875 66.546875 
Q 19.921875 64.59375 19.921875 59.515625 
L 19.921875 54.6875 
L 34.71875 54.6875 
L 34.71875 47.703125 
L 19.921875 47.703125 
L 19.921875 0 
L 10.890625 0 
L 10.890625 47.703125 
L 2.296875 47.703125 
L 2.296875 54.6875 
L 10.890625 54.6875 
L 10.890625 58.5 
Q 10.890625 67.625 15.140625 71.796875 
Q 19.390625 75.984375 28.609375 75.984375 
z
" id="DejaVuSans-66"/>
     <path d="M -0.296875 72.90625 
L 61.375 72.90625 
L 61.375 64.59375 
L 35.5 64.59375 
L 35.5 0 
L 25.59375 0 
L 25.59375 64.59375 
L -0.296875 64.59375 
z
" id="DejaVuSans-54"/>
     <path d="M 56.203125 29.59375 
L 56.203125 25.203125 
L 14.890625 25.203125 
Q 15.484375 15.921875 20.484375 11.0625 
Q 25.484375 6.203125 34.421875 6.203125 
Q 39.59375 6.203125 44.453125 7.46875 
Q 49.3125 8.734375 54.109375 11.28125 
L 54.109375 2.78125 
Q 49.265625 0.734375 44.1875 -0.34375 
Q 39.109375 -1.421875 33.890625 -1.421875 
Q 20.796875 -1.421875 13.15625 6.1875 
Q 5.515625 13.8125 5.515625 26.8125 
Q 5.515625 40.234375 12.765625 48.109375 
Q 20.015625 56 32.328125 56 
Q 43.359375 56 49.78125 48.890625 
Q 56.203125 41.796875 56.203125 29.59375 
z
M 47.21875 32.234375 
Q 47.125 39.59375 43.09375 43.984375 
Q 39.0625 48.390625 32.421875 48.390625 
Q 24.90625 48.390625 20.390625 44.140625 
Q 15.875 39.890625 15.1875 32.171875 
z
" id="DejaVuSans-65"/>
     <path d="M 44.28125 53.078125 
L 44.28125 44.578125 
Q 40.484375 46.53125 36.375 47.5 
Q 32.28125 48.484375 27.875 48.484375 
Q 21.1875 48.484375 17.84375 46.4375 
Q 14.5 44.390625 14.5 40.28125 
Q 14.5 37.15625 16.890625 35.375 
Q 19.28125 33.59375 26.515625 31.984375 
L 29.59375 31.296875 
Q 39.15625 29.25 43.1875 25.515625 
Q 47.21875 21.78125 47.21875 15.09375 
Q 47.21875 7.46875 41.1875 3.015625 
Q 35.15625 -1.421875 24.609375 -1.421875 
Q 20.21875 -1.421875 15.453125 -0.5625 
Q 10.6875 0.296875 5.421875 2 
L 5.421875 11.28125 
Q 10.40625 8.6875 15.234375 7.390625 
Q 20.0625 6.109375 24.8125 6.109375 
Q 31.15625 6.109375 34.5625 8.28125 
Q 37.984375 10.453125 37.984375 14.40625 
Q 37.984375 18.0625 35.515625 20.015625 
Q 33.0625 21.96875 24.703125 23.78125 
L 21.578125 24.515625 
Q 13.234375 26.265625 9.515625 29.90625 
Q 5.8125 33.546875 5.8125 39.890625 
Q 5.8125 47.609375 11.28125 51.796875 
Q 16.75 56 26.8125 56 
Q 31.78125 56 36.171875 55.265625 
Q 40.578125 54.546875 44.28125 53.078125 
z
" id="DejaVuSans-73"/>
     <path d="M 19.671875 64.796875 
L 19.671875 8.109375 
L 31.59375 8.109375 
Q 46.6875 8.109375 53.6875 14.9375 
Q 60.6875 21.78125 60.6875 36.53125 
Q 60.6875 51.171875 53.6875 57.984375 
Q 46.6875 64.796875 31.59375 64.796875 
z
M 9.8125 72.90625 
L 30.078125 72.90625 
Q 51.265625 72.90625 61.171875 64.09375 
Q 71.09375 55.28125 71.09375 36.53125 
Q 71.09375 17.671875 61.125 8.828125 
Q 51.171875 0 30.078125 0 
L 9.8125 0 
z
" id="DejaVuSans-44"/>
     <path d="M 34.28125 27.484375 
Q 23.390625 27.484375 19.1875 25 
Q 14.984375 22.515625 14.984375 16.5 
Q 14.984375 11.71875 18.140625 8.90625 
Q 21.296875 6.109375 26.703125 6.109375 
Q 34.1875 6.109375 38.703125 11.40625 
Q 43.21875 16.703125 43.21875 25.484375 
L 43.21875 27.484375 
z
M 52.203125 31.203125 
L 52.203125 0 
L 43.21875 0 
L 43.21875 8.296875 
Q 40.140625 3.328125 35.546875 0.953125 
Q 30.953125 -1.421875 24.3125 -1.421875 
Q 15.921875 -1.421875 10.953125 3.296875 
Q 6 8.015625 6 15.921875 
Q 6 25.140625 12.171875 29.828125 
Q 18.359375 34.515625 30.609375 34.515625 
L 43.21875 34.515625 
L 43.21875 35.40625 
Q 43.21875 41.609375 39.140625 45 
Q 35.0625 48.390625 27.6875 48.390625 
Q 23 48.390625 18.546875 47.265625 
Q 14.109375 46.140625 10.015625 43.890625 
L 10.015625 52.203125 
Q 14.9375 54.109375 19.578125 55.046875 
Q 24.21875 56 28.609375 56 
Q 40.484375 56 46.34375 49.84375 
Q 52.203125 43.703125 52.203125 31.203125 
z
" id="DejaVuSans-61"/>
     <path d="M 2.984375 54.6875 
L 12.5 54.6875 
L 29.59375 8.796875 
L 46.6875 54.6875 
L 56.203125 54.6875 
L 35.6875 0 
L 23.484375 0 
z
" id="DejaVuSans-76"/>
     <path d="M 9.8125 72.90625 
L 24.515625 72.90625 
L 43.109375 23.296875 
L 61.8125 72.90625 
L 76.515625 72.90625 
L 76.515625 0 
L 66.890625 0 
L 66.890625 64.015625 
L 48.09375 14.015625 
L 38.1875 14.015625 
L 19.390625 64.015625 
L 19.390625 0 
L 9.8125 0 
z
" id="DejaVuSans-4d"/>
     <path d="M 64.40625 67.28125 
L 64.40625 56.890625 
Q 59.421875 61.53125 53.78125 63.8125 
Q 48.140625 66.109375 41.796875 66.109375 
Q 29.296875 66.109375 22.65625 58.46875 
Q 16.015625 50.828125 16.015625 36.375 
Q 16.015625 21.96875 22.65625 14.328125 
Q 29.296875 6.6875 41.796875 6.6875 
Q 48.140625 6.6875 53.78125 8.984375 
Q 59.421875 11.28125 64.40625 15.921875 
L 64.40625 5.609375 
Q 59.234375 2.09375 53.4375 0.328125 
Q 47.65625 -1.421875 41.21875 -1.421875 
Q 24.65625 -1.421875 15.125 8.703125 
Q 5.609375 18.84375 5.609375 36.375 
Q 5.609375 53.953125 15.125 64.078125 
Q 24.65625 74.21875 41.21875 74.21875 
Q 47.75 74.21875 53.53125 72.484375 
Q 59.328125 70.75 64.40625 67.28125 
z
" id="DejaVuSans-43"/>
     <path d="M 8.6875 72.90625 
L 18.609375 72.90625 
L 18.609375 28.609375 
Q 18.609375 16.890625 22.84375 11.734375 
Q 27.09375 6.59375 36.625 6.59375 
Q 46.09375 6.59375 50.34375 11.734375 
Q 54.59375 16.890625 54.59375 28.609375 
L 54.59375 72.90625 
L 64.5 72.90625 
L 64.5 27.390625 
Q 64.5 13.140625 57.4375 5.859375 
Q 50.390625 -1.421875 36.625 -1.421875 
Q 22.796875 -1.421875 15.734375 5.859375 
Q 8.6875 13.140625 8.6875 27.390625 
z
" id="DejaVuSans-55"/>
     <path d="M 54.890625 33.015625 
L 54.890625 0 
L 45.90625 0 
L 45.90625 32.71875 
Q 45.90625 40.484375 42.875 44.328125 
Q 39.84375 48.1875 33.796875 48.1875 
Q 26.515625 48.1875 22.3125 43.546875 
Q 18.109375 38.921875 18.109375 30.90625 
L 18.109375 0 
L 9.078125 0 
L 9.078125 54.6875 
L 18.109375 54.6875 
L 18.109375 46.1875 
Q 21.34375 51.125 25.703125 53.5625 
Q 30.078125 56 35.796875 56 
Q 45.21875 56 50.046875 50.171875 
Q 54.890625 44.34375 54.890625 33.015625 
z
" id="DejaVuSans-6e"/>
     <path d="M 48.78125 52.59375 
L 48.78125 44.1875 
Q 44.96875 46.296875 41.140625 47.34375 
Q 37.3125 48.390625 33.40625 48.390625 
Q 24.65625 48.390625 19.8125 42.84375 
Q 14.984375 37.3125 14.984375 27.296875 
Q 14.984375 17.28125 19.8125 11.734375 
Q 24.65625 6.203125 33.40625 6.203125 
Q 37.3125 6.203125 41.140625 7.25 
Q 44.96875 8.296875 48.78125 10.40625 
L 48.78125 2.09375 
Q 45.015625 0.34375 40.984375 -0.53125 
Q 36.96875 -1.421875 32.421875 -1.421875 
Q 20.0625 -1.421875 12.78125 6.34375 
Q 5.515625 14.109375 5.515625 27.296875 
Q 5.515625 40.671875 12.859375 48.328125 
Q 20.21875 56 33.015625 56 
Q 37.15625 56 41.109375 55.140625 
Q 45.0625 54.296875 48.78125 52.59375 
z
" id="DejaVuSans-63"/>
     <path d="M 41.109375 46.296875 
Q 39.59375 47.171875 37.8125 47.578125 
Q 36.03125 48 33.890625 48 
Q 26.265625 48 22.1875 43.046875 
Q 18.109375 38.09375 18.109375 28.8125 
L 18.109375 0 
L 9.078125 0 
L 9.078125 54.6875 
L 18.109375 54.6875 
L 18.109375 46.1875 
Q 20.953125 51.171875 25.484375 53.578125 
Q 30.03125 56 36.53125 56 
Q 37.453125 56 38.578125 55.875 
Q 39.703125 55.765625 41.0625 55.515625 
z
" id="DejaVuSans-72"/>
     <path d="M 9.421875 54.6875 
L 18.40625 54.6875 
L 18.40625 0 
L 9.421875 0 
z
M 9.421875 75.984375 
L 18.40625 75.984375 
L 18.40625 64.59375 
L 9.421875 64.59375 
z
" id="DejaVuSans-69"/>
     <path d="M 32.171875 -5.078125 
Q 28.375 -14.84375 24.75 -17.8125 
Q 21.140625 -20.796875 15.09375 -20.796875 
L 7.90625 -20.796875 
L 7.90625 -13.28125 
L 13.1875 -13.28125 
Q 16.890625 -13.28125 18.9375 -11.515625 
Q 21 -9.765625 23.484375 -3.21875 
L 25.09375 0.875 
L 2.984375 54.6875 
L 12.5 54.6875 
L 29.59375 11.921875 
L 46.6875 54.6875 
L 56.203125 54.6875 
z
" id="DejaVuSans-79"/>
    </defs>
    <g transform="translate(263.292813 97.68)scale(0.12 -0.12)">
     <use xlink:href="#DejaVuSans-50"/>
     <use x="60.302734" xlink:href="#DejaVuSans-6c"/>
     <use x="88.085938" xlink:href="#DejaVuSans-6f"/>
     <use x="149.267578" xlink:href="#DejaVuSans-74"/>
     <use x="188.476562" xlink:href="#DejaVuSans-20"/>
     <use x="220.263672" xlink:href="#DejaVuSans-6f"/>
     <use x="281.445312" xlink:href="#DejaVuSans-66"/>
     <use x="316.650391" xlink:href="#DejaVuSans-20"/>
     <use x="348.4375" xlink:href="#DejaVuSans-54"/>
     <use x="409.255859" xlink:href="#DejaVuSans-65"/>
     <use x="470.779297" xlink:href="#DejaVuSans-73"/>
     <use x="522.878906" xlink:href="#DejaVuSans-74"/>
     <use x="562.087891" xlink:href="#DejaVuSans-20"/>
     <use x="593.875" xlink:href="#DejaVuSans-44"/>
     <use x="670.876953" xlink:href="#DejaVuSans-61"/>
     <use x="732.15625" xlink:href="#DejaVuSans-74"/>
     <use x="771.365234" xlink:href="#DejaVuSans-61"/>
     <use x="832.644531" xlink:href="#DejaVuSans-20"/>
     <use x="864.431641" xlink:href="#DejaVuSans-76"/>
     <use x="923.611328" xlink:href="#DejaVuSans-73"/>
     <use x="975.710938" xlink:href="#DejaVuSans-20"/>
     <use x="1007.498047" xlink:href="#DejaVuSans-4d"/>
     <use x="1093.777344" xlink:href="#DejaVuSans-43"/>
     <use x="1163.601562" xlink:href="#DejaVuSans-4d"/>
     <use x="1249.880859" xlink:href="#DejaVuSans-43"/>
     <use x="1319.705078" xlink:href="#DejaVuSans-20"/>
     <use x="1351.492188" xlink:href="#DejaVuSans-55"/>
     <use x="1424.685547" xlink:href="#DejaVuSans-6e"/>
     <use x="1488.064453" xlink:href="#DejaVuSans-63"/>
     <use x="1543.044922" xlink:href="#DejaVuSans-65"/>
     <use x="1604.568359" xlink:href="#DejaVuSans-72"/>
     <use x="1645.681641" xlink:href="#DejaVuSans-74"/>
     <use x="1684.890625" xlink:href="#DejaVuSans-61"/>
     <use x="1746.169922" xlink:href="#DejaVuSans-69"/>
     <use x="1773.953125" xlink:href="#DejaVuSans-6e"/>
     <use x="1837.332031" xlink:href="#DejaVuSans-74"/>
     <use x="1876.541016" xlink:href="#DejaVuSans-79"/>
     <use x="1935.720703" xlink:href="#DejaVuSans-20"/>
    </g>
   </g>
   <g id="legend_1">
    <g id="patch_7">
     <path d="M 569.803438 170.3925 
L 699.68 170.3925 
Q 701.68 170.3925 701.68 168.3925 
L 701.68 110.68 
Q 701.68 108.68 699.68 108.68 
L 569.803438 108.68 
Q 567.803438 108.68 567.803438 110.68 
L 567.803438 168.3925 
Q 567.803438 170.3925 569.803438 170.3925 
z
" style="fill:#ffffff;opacity:0.8;stroke:#cccccc;stroke-linejoin:miter;"/>
    </g>
    <g id="line2d_18">
     <path d="M 571.803438 116.778437 
L 591.803438 116.778437 
" style="fill:none;stroke:#1f77b4;stroke-linecap:square;stroke-width:1.5;"/>
    </g>
    <g id="line2d_19"/>
    <g id="text_15">
     <!-- actual -->
     <defs>
      <path d="M 8.5 21.578125 
L 8.5 54.6875 
L 17.484375 54.6875 
L 17.484375 21.921875 
Q 17.484375 14.15625 20.5 10.265625 
Q 23.53125 6.390625 29.59375 6.390625 
Q 36.859375 6.390625 41.078125 11.03125 
Q 45.3125 15.671875 45.3125 23.6875 
L 45.3125 54.6875 
L 54.296875 54.6875 
L 54.296875 0 
L 45.3125 0 
L 45.3125 8.40625 
Q 42.046875 3.421875 37.71875 1 
Q 33.40625 -1.421875 27.6875 -1.421875 
Q 18.265625 -1.421875 13.375 4.4375 
Q 8.5 10.296875 8.5 21.578125 
z
M 31.109375 56 
z
" id="DejaVuSans-75"/>
     </defs>
     <g transform="translate(599.803438 120.278437)scale(0.1 -0.1)">
      <use xlink:href="#DejaVuSans-61"/>
      <use x="61.279297" xlink:href="#DejaVuSans-63"/>
      <use x="116.259766" xlink:href="#DejaVuSans-74"/>
      <use x="155.46875" xlink:href="#DejaVuSans-75"/>
      <use x="218.847656" xlink:href="#DejaVuSans-61"/>
      <use x="280.126953" xlink:href="#DejaVuSans-6c"/>
     </g>
    </g>
    <g id="line2d_20">
     <path d="M 571.803438 131.456562 
L 591.803438 131.456562 
" style="fill:none;stroke:#ff7f0e;stroke-linecap:square;stroke-width:1.5;"/>
    </g>
    <g id="line2d_21"/>
    <g id="text_16">
     <!-- pred. (mean) -->
     <defs>
      <path d="M 18.109375 8.203125 
L 18.109375 -20.796875 
L 9.078125 -20.796875 
L 9.078125 54.6875 
L 18.109375 54.6875 
L 18.109375 46.390625 
Q 20.953125 51.265625 25.265625 53.625 
Q 29.59375 56 35.59375 56 
Q 45.5625 56 51.78125 48.09375 
Q 58.015625 40.1875 58.015625 27.296875 
Q 58.015625 14.40625 51.78125 6.484375 
Q 45.5625 -1.421875 35.59375 -1.421875 
Q 29.59375 -1.421875 25.265625 0.953125 
Q 20.953125 3.328125 18.109375 8.203125 
z
M 48.6875 27.296875 
Q 48.6875 37.203125 44.609375 42.84375 
Q 40.53125 48.484375 33.40625 48.484375 
Q 26.265625 48.484375 22.1875 42.84375 
Q 18.109375 37.203125 18.109375 27.296875 
Q 18.109375 17.390625 22.1875 11.75 
Q 26.265625 6.109375 33.40625 6.109375 
Q 40.53125 6.109375 44.609375 11.75 
Q 48.6875 17.390625 48.6875 27.296875 
z
" id="DejaVuSans-70"/>
      <path d="M 45.40625 46.390625 
L 45.40625 75.984375 
L 54.390625 75.984375 
L 54.390625 0 
L 45.40625 0 
L 45.40625 8.203125 
Q 42.578125 3.328125 38.25 0.953125 
Q 33.9375 -1.421875 27.875 -1.421875 
Q 17.96875 -1.421875 11.734375 6.484375 
Q 5.515625 14.40625 5.515625 27.296875 
Q 5.515625 40.1875 11.734375 48.09375 
Q 17.96875 56 27.875 56 
Q 33.9375 56 38.25 53.625 
Q 42.578125 51.265625 45.40625 46.390625 
z
M 14.796875 27.296875 
Q 14.796875 17.390625 18.875 11.75 
Q 22.953125 6.109375 30.078125 6.109375 
Q 37.203125 6.109375 41.296875 11.75 
Q 45.40625 17.390625 45.40625 27.296875 
Q 45.40625 37.203125 41.296875 42.84375 
Q 37.203125 48.484375 30.078125 48.484375 
Q 22.953125 48.484375 18.875 42.84375 
Q 14.796875 37.203125 14.796875 27.296875 
z
" id="DejaVuSans-64"/>
      <path d="M 31 75.875 
Q 24.46875 64.65625 21.28125 53.65625 
Q 18.109375 42.671875 18.109375 31.390625 
Q 18.109375 20.125 21.3125 9.0625 
Q 24.515625 -2 31 -13.1875 
L 23.1875 -13.1875 
Q 15.875 -1.703125 12.234375 9.375 
Q 8.59375 20.453125 8.59375 31.390625 
Q 8.59375 42.28125 12.203125 53.3125 
Q 15.828125 64.359375 23.1875 75.875 
z
" id="DejaVuSans-28"/>
      <path d="M 52 44.1875 
Q 55.375 50.25 60.0625 53.125 
Q 64.75 56 71.09375 56 
Q 79.640625 56 84.28125 50.015625 
Q 88.921875 44.046875 88.921875 33.015625 
L 88.921875 0 
L 79.890625 0 
L 79.890625 32.71875 
Q 79.890625 40.578125 77.09375 44.375 
Q 74.3125 48.1875 68.609375 48.1875 
Q 61.625 48.1875 57.5625 43.546875 
Q 53.515625 38.921875 53.515625 30.90625 
L 53.515625 0 
L 44.484375 0 
L 44.484375 32.71875 
Q 44.484375 40.625 41.703125 44.40625 
Q 38.921875 48.1875 33.109375 48.1875 
Q 26.21875 48.1875 22.15625 43.53125 
Q 18.109375 38.875 18.109375 30.90625 
L 18.109375 0 
L 9.078125 0 
L 9.078125 54.6875 
L 18.109375 54.6875 
L 18.109375 46.1875 
Q 21.1875 51.21875 25.484375 53.609375 
Q 29.78125 56 35.6875 56 
Q 41.65625 56 45.828125 52.96875 
Q 50 49.953125 52 44.1875 
z
" id="DejaVuSans-6d"/>
      <path d="M 8.015625 75.875 
L 15.828125 75.875 
Q 23.140625 64.359375 26.78125 53.3125 
Q 30.421875 42.28125 30.421875 31.390625 
Q 30.421875 20.453125 26.78125 9.375 
Q 23.140625 -1.703125 15.828125 -13.1875 
L 8.015625 -13.1875 
Q 14.5 -2 17.703125 9.0625 
Q 20.90625 20.125 20.90625 31.390625 
Q 20.90625 42.671875 17.703125 53.65625 
Q 14.5 64.65625 8.015625 75.875 
z
" id="DejaVuSans-29"/>
     </defs>
     <g transform="translate(599.803438 134.956562)scale(0.1 -0.1)">
      <use xlink:href="#DejaVuSans-70"/>
      <use x="63.476562" xlink:href="#DejaVuSans-72"/>
      <use x="104.558594" xlink:href="#DejaVuSans-65"/>
      <use x="166.082031" xlink:href="#DejaVuSans-64"/>
      <use x="229.558594" xlink:href="#DejaVuSans-2e"/>
      <use x="261.345703" xlink:href="#DejaVuSans-20"/>
      <use x="293.132812" xlink:href="#DejaVuSans-28"/>
      <use x="332.146484" xlink:href="#DejaVuSans-6d"/>
      <use x="429.558594" xlink:href="#DejaVuSans-65"/>
      <use x="491.082031" xlink:href="#DejaVuSans-61"/>
      <use x="552.361328" xlink:href="#DejaVuSans-6e"/>
      <use x="615.740234" xlink:href="#DejaVuSans-29"/>
     </g>
    </g>
    <g id="line2d_22">
     <path d="M 571.803438 146.134687 
L 591.803438 146.134687 
" style="fill:none;stroke:#2ca02c;stroke-linecap:square;stroke-width:1.5;"/>
    </g>
    <g id="line2d_23"/>
    <g id="text_17">
     <!-- pred.(5th percen.) -->
     <defs>
      <path d="M 54.890625 33.015625 
L 54.890625 0 
L 45.90625 0 
L 45.90625 32.71875 
Q 45.90625 40.484375 42.875 44.328125 
Q 39.84375 48.1875 33.796875 48.1875 
Q 26.515625 48.1875 22.3125 43.546875 
Q 18.109375 38.921875 18.109375 30.90625 
L 18.109375 0 
L 9.078125 0 
L 9.078125 75.984375 
L 18.109375 75.984375 
L 18.109375 46.1875 
Q 21.34375 51.125 25.703125 53.5625 
Q 30.078125 56 35.796875 56 
Q 45.21875 56 50.046875 50.171875 
Q 54.890625 44.34375 54.890625 33.015625 
z
" id="DejaVuSans-68"/>
     </defs>
     <g transform="translate(599.803438 149.634687)scale(0.1 -0.1)">
      <use xlink:href="#DejaVuSans-70"/>
      <use x="63.476562" xlink:href="#DejaVuSans-72"/>
      <use x="104.558594" xlink:href="#DejaVuSans-65"/>
      <use x="166.082031" xlink:href="#DejaVuSans-64"/>
      <use x="229.558594" xlink:href="#DejaVuSans-2e"/>
      <use x="261.345703" xlink:href="#DejaVuSans-28"/>
      <use x="300.359375" xlink:href="#DejaVuSans-35"/>
      <use x="363.982422" xlink:href="#DejaVuSans-74"/>
      <use x="403.191406" xlink:href="#DejaVuSans-68"/>
      <use x="466.570312" xlink:href="#DejaVuSans-20"/>
      <use x="498.357422" xlink:href="#DejaVuSans-70"/>
      <use x="561.833984" xlink:href="#DejaVuSans-65"/>
      <use x="623.357422" xlink:href="#DejaVuSans-72"/>
      <use x="664.439453" xlink:href="#DejaVuSans-63"/>
      <use x="719.419922" xlink:href="#DejaVuSans-65"/>
      <use x="780.943359" xlink:href="#DejaVuSans-6e"/>
      <use x="844.322266" xlink:href="#DejaVuSans-2e"/>
      <use x="876.109375" xlink:href="#DejaVuSans-29"/>
     </g>
    </g>
    <g id="line2d_24">
     <path d="M 571.803438 160.812812 
L 591.803438 160.812812 
" style="fill:none;stroke:#d62728;stroke-linecap:square;stroke-width:1.5;"/>
    </g>
    <g id="line2d_25"/>
    <g id="text_18">
     <!-- pred.(95th percen.) -->
     <defs>
      <path d="M 10.984375 1.515625 
L 10.984375 10.5 
Q 14.703125 8.734375 18.5 7.8125 
Q 22.3125 6.890625 25.984375 6.890625 
Q 35.75 6.890625 40.890625 13.453125 
Q 46.046875 20.015625 46.78125 33.40625 
Q 43.953125 29.203125 39.59375 26.953125 
Q 35.25 24.703125 29.984375 24.703125 
Q 19.046875 24.703125 12.671875 31.3125 
Q 6.296875 37.9375 6.296875 49.421875 
Q 6.296875 60.640625 12.9375 67.421875 
Q 19.578125 74.21875 30.609375 74.21875 
Q 43.265625 74.21875 49.921875 64.515625 
Q 56.59375 54.828125 56.59375 36.375 
Q 56.59375 19.140625 48.40625 8.859375 
Q 40.234375 -1.421875 26.421875 -1.421875 
Q 22.703125 -1.421875 18.890625 -0.6875 
Q 15.09375 0.046875 10.984375 1.515625 
z
M 30.609375 32.421875 
Q 37.25 32.421875 41.125 36.953125 
Q 45.015625 41.5 45.015625 49.421875 
Q 45.015625 57.28125 41.125 61.84375 
Q 37.25 66.40625 30.609375 66.40625 
Q 23.96875 66.40625 20.09375 61.84375 
Q 16.21875 57.28125 16.21875 49.421875 
Q 16.21875 41.5 20.09375 36.953125 
Q 23.96875 32.421875 30.609375 32.421875 
z
" id="DejaVuSans-39"/>
     </defs>
     <g transform="translate(599.803438 164.312812)scale(0.1 -0.1)">
      <use xlink:href="#DejaVuSans-70"/>
      <use x="63.476562" xlink:href="#DejaVuSans-72"/>
      <use x="104.558594" xlink:href="#DejaVuSans-65"/>
      <use x="166.082031" xlink:href="#DejaVuSans-64"/>
      <use x="229.558594" xlink:href="#DejaVuSans-2e"/>
      <use x="261.345703" xlink:href="#DejaVuSans-28"/>
      <use x="300.359375" xlink:href="#DejaVuSans-39"/>
      <use x="363.982422" xlink:href="#DejaVuSans-35"/>
      <use x="427.605469" xlink:href="#DejaVuSans-74"/>
      <use x="466.814453" xlink:href="#DejaVuSans-68"/>
      <use x="530.193359" xlink:href="#DejaVuSans-20"/>
      <use x="561.980469" xlink:href="#DejaVuSans-70"/>
      <use x="625.457031" xlink:href="#DejaVuSans-65"/>
      <use x="686.980469" xlink:href="#DejaVuSans-72"/>
      <use x="728.0625" xlink:href="#DejaVuSans-63"/>
      <use x="783.042969" xlink:href="#DejaVuSans-65"/>
      <use x="844.566406" xlink:href="#DejaVuSans-6e"/>
      <use x="907.945312" xlink:href="#DejaVuSans-2e"/>
      <use x="939.732422" xlink:href="#DejaVuSans-29"/>
     </g>
    </g>
   </g>
  </g>
 </g>
 <defs>
  <clipPath id="p6cf8458cc5">
   <rect height="440.72" width="650.68" x="56" y="103.68"/>
  </clipPath>
 </defs>
</svg>
