<?xml version="1.0" encoding="utf-8" standalone="no"?>
<!DOCTYPE svg PUBLIC "-//W3C//DTD SVG 1.1//EN"
  "http://www.w3.org/Graphics/SVG/1.1/DTD/svg11.dtd">
<!-- Created with matplotlib (http://matplotlib.org/) -->
<svg height="864pt" version="1.1" viewBox="0 0 720 864" width="720pt" xmlns="http://www.w3.org/2000/svg" xmlns:xlink="http://www.w3.org/1999/xlink">
 <defs>
  <style type="text/css">
*{stroke-linecap:butt;stroke-linejoin:round;}
  </style>
 </defs>
 <g id="figure_1">
  <g id="patch_1">
   <path d="M 0 864 
L 720 864 
L 720 0 
L 0 0 
z
" style="fill:#ffffff;"/>
  </g>
  <g id="axes_1">
   <g id="patch_2">
    <path d="M 86.31 804.96 
L 698.76 804.96 
L 698.76 103.68 
L 86.31 103.68 
z
" style="fill:#ffffff;"/>
   </g>
   <g id="PolyCollection_1">
    <path clip-path="url(#p21fb8d929a)" d="M 114.148636 135.556364 
L 114.148636 476.907804 
L 116.974894 451.145432 
L 119.801151 451.145432 
L 122.627409 457.586025 
L 125.453666 470.467211 
L 128.279924 502.670177 
L 131.106181 528.43255 
L 133.932439 547.75433 
L 136.758696 541.313737 
L 139.584954 534.873144 
L 142.411211 541.313737 
L 145.237469 554.194923 
L 148.063726 573.516703 
L 150.889984 586.397889 
L 153.716241 618.600855 
L 156.542499 644.363228 
L 159.368756 657.244415 
L 162.195014 670.125601 
L 165.021271 683.006788 
L 167.847529 702.328567 
L 170.673786 708.769161 
L 173.500044 708.769161 
L 176.326301 715.209754 
L 179.152559 708.769161 
L 181.978816 708.769161 
L 184.805074 708.769161 
L 187.631331 715.209754 
L 190.457589 721.650347 
L 193.283846 721.650347 
L 196.110104 728.09094 
L 198.936361 728.09094 
L 201.762619 728.09094 
L 204.588876 728.09094 
L 207.415134 728.09094 
L 210.241391 728.09094 
L 213.067649 728.09094 
L 215.893906 728.09094 
L 218.720164 728.09094 
L 221.546421 728.09094 
L 224.372679 728.09094 
L 227.198936 728.09094 
L 230.025194 721.650347 
L 232.851451 721.650347 
L 235.677709 715.209754 
L 238.503966 702.328567 
L 241.330224 683.006788 
L 244.156481 663.685008 
L 246.982739 637.922635 
L 249.808996 605.719669 
L 252.635254 567.07611 
L 255.461511 534.873144 
L 258.287769 502.670177 
L 261.114026 483.348398 
L 263.940284 457.586025 
L 266.766541 451.145432 
L 269.592799 438.264245 
L 272.419056 431.823652 
L 275.245314 418.942465 
L 278.071571 406.061279 
L 280.897829 399.620686 
L 283.724086 393.180093 
L 286.550344 393.180093 
L 289.376601 386.739499 
L 292.202859 399.620686 
L 295.029116 412.501872 
L 297.855374 425.383059 
L 300.681631 438.264245 
L 303.507889 444.704838 
L 306.334146 470.467211 
L 309.160404 489.788991 
L 311.986661 496.229584 
L 314.812919 502.670177 
L 317.639176 515.551364 
L 320.465434 534.873144 
L 323.291691 554.194923 
L 326.117949 573.516703 
L 328.944206 586.397889 
L 331.770464 599.279076 
L 334.596721 612.160262 
L 337.422979 625.041449 
L 340.249236 637.922635 
L 343.075494 650.803822 
L 345.901751 657.244415 
L 348.728009 670.125601 
L 351.554266 670.125601 
L 354.380524 676.566194 
L 357.206781 670.125601 
L 360.033039 676.566194 
L 362.859296 670.125601 
L 365.685554 670.125601 
L 368.511811 676.566194 
L 371.338069 683.006788 
L 374.164326 689.447381 
L 376.990584 695.887974 
L 379.816841 708.769161 
L 382.643099 715.209754 
L 385.469356 715.209754 
L 388.295614 715.209754 
L 391.121871 715.209754 
L 393.948129 715.209754 
L 396.774386 715.209754 
L 399.600644 721.650347 
L 402.426901 721.650347 
L 405.253159 728.09094 
L 408.079416 728.09094 
L 410.905674 728.09094 
L 413.731931 734.531533 
L 416.558189 734.531533 
L 419.384446 734.531533 
L 422.210704 734.531533 
L 425.036961 734.531533 
L 427.863219 734.531533 
L 430.689476 728.09094 
L 433.515734 728.09094 
L 436.341991 728.09094 
L 439.168249 721.650347 
L 441.994506 715.209754 
L 444.820764 708.769161 
L 447.647021 702.328567 
L 450.473279 683.006788 
L 453.299536 670.125601 
L 456.125794 657.244415 
L 458.952051 644.363228 
L 461.778309 625.041449 
L 464.604566 612.160262 
L 467.430824 605.719669 
L 470.257081 586.397889 
L 473.083339 567.07611 
L 475.909596 560.635516 
L 478.735854 547.75433 
L 481.562111 528.43255 
L 484.388369 509.110771 
L 487.214626 515.551364 
L 490.040884 515.551364 
L 492.867141 509.110771 
L 495.693399 496.229584 
L 498.519656 528.43255 
L 501.345914 541.313737 
L 504.172171 515.551364 
L 506.998429 509.110771 
L 509.824686 521.991957 
L 512.650944 534.873144 
L 515.477201 515.551364 
L 518.303459 509.110771 
L 521.129716 547.75433 
L 523.955974 560.635516 
L 526.782231 567.07611 
L 529.608489 560.635516 
L 532.434746 560.635516 
L 535.261004 567.07611 
L 538.087261 560.635516 
L 540.913519 560.635516 
L 543.739776 567.07611 
L 546.566034 592.838483 
L 549.392291 605.719669 
L 552.218549 605.719669 
L 555.044806 618.600855 
L 557.871064 637.922635 
L 560.697321 644.363228 
L 563.523579 657.244415 
L 566.349836 670.125601 
L 569.176094 689.447381 
L 572.002351 702.328567 
L 574.828609 708.769161 
L 577.654866 715.209754 
L 580.481124 715.209754 
L 583.307381 721.650347 
L 586.133639 728.09094 
L 588.959896 728.09094 
L 591.786154 728.09094 
L 594.612411 734.531533 
L 597.438669 734.531533 
L 600.264926 734.531533 
L 603.091184 734.531533 
L 605.917441 728.09094 
L 608.743699 734.531533 
L 611.569956 734.531533 
L 614.396214 734.531533 
L 617.222471 734.531533 
L 620.048729 734.531533 
L 622.874986 734.531533 
L 625.701244 734.531533 
L 628.527501 728.09094 
L 631.353759 728.09094 
L 634.180016 728.09094 
L 637.006274 721.650347 
L 639.832531 708.769161 
L 642.658789 695.887974 
L 645.485046 676.566194 
L 648.311304 644.363228 
L 651.137561 605.719669 
L 653.963819 586.397889 
L 656.790076 567.07611 
L 659.616334 547.75433 
L 662.442591 528.43255 
L 665.268849 541.313737 
L 668.095106 547.75433 
L 670.921364 534.873144 
L 670.921364 135.556364 
L 670.921364 135.556364 
L 668.095106 135.556364 
L 665.268849 135.556364 
L 662.442591 135.556364 
L 659.616334 135.556364 
L 656.790076 135.556364 
L 653.963819 135.556364 
L 651.137561 135.556364 
L 648.311304 135.556364 
L 645.485046 135.556364 
L 642.658789 135.556364 
L 639.832531 135.556364 
L 637.006274 135.556364 
L 634.180016 135.556364 
L 631.353759 135.556364 
L 628.527501 135.556364 
L 625.701244 135.556364 
L 622.874986 135.556364 
L 620.048729 135.556364 
L 617.222471 135.556364 
L 614.396214 135.556364 
L 611.569956 135.556364 
L 608.743699 135.556364 
L 605.917441 135.556364 
L 603.091184 135.556364 
L 600.264926 135.556364 
L 597.438669 135.556364 
L 594.612411 135.556364 
L 591.786154 135.556364 
L 588.959896 135.556364 
L 586.133639 135.556364 
L 583.307381 135.556364 
L 580.481124 135.556364 
L 577.654866 135.556364 
L 574.828609 135.556364 
L 572.002351 135.556364 
L 569.176094 135.556364 
L 566.349836 135.556364 
L 563.523579 135.556364 
L 560.697321 135.556364 
L 557.871064 135.556364 
L 555.044806 135.556364 
L 552.218549 135.556364 
L 549.392291 135.556364 
L 546.566034 135.556364 
L 543.739776 135.556364 
L 540.913519 135.556364 
L 538.087261 135.556364 
L 535.261004 135.556364 
L 532.434746 135.556364 
L 529.608489 135.556364 
L 526.782231 135.556364 
L 523.955974 135.556364 
L 521.129716 135.556364 
L 518.303459 135.556364 
L 515.477201 135.556364 
L 512.650944 135.556364 
L 509.824686 135.556364 
L 506.998429 135.556364 
L 504.172171 135.556364 
L 501.345914 135.556364 
L 498.519656 135.556364 
L 495.693399 135.556364 
L 492.867141 135.556364 
L 490.040884 135.556364 
L 487.214626 135.556364 
L 484.388369 135.556364 
L 481.562111 135.556364 
L 478.735854 135.556364 
L 475.909596 135.556364 
L 473.083339 135.556364 
L 470.257081 135.556364 
L 467.430824 135.556364 
L 464.604566 135.556364 
L 461.778309 135.556364 
L 458.952051 135.556364 
L 456.125794 135.556364 
L 453.299536 135.556364 
L 450.473279 135.556364 
L 447.647021 135.556364 
L 444.820764 135.556364 
L 441.994506 135.556364 
L 439.168249 135.556364 
L 436.341991 135.556364 
L 433.515734 135.556364 
L 430.689476 135.556364 
L 427.863219 135.556364 
L 425.036961 135.556364 
L 422.210704 135.556364 
L 419.384446 135.556364 
L 416.558189 135.556364 
L 413.731931 135.556364 
L 410.905674 135.556364 
L 408.079416 135.556364 
L 405.253159 135.556364 
L 402.426901 135.556364 
L 399.600644 135.556364 
L 396.774386 135.556364 
L 393.948129 135.556364 
L 391.121871 135.556364 
L 388.295614 135.556364 
L 385.469356 135.556364 
L 382.643099 135.556364 
L 379.816841 135.556364 
L 376.990584 135.556364 
L 374.164326 135.556364 
L 371.338069 135.556364 
L 368.511811 135.556364 
L 365.685554 135.556364 
L 362.859296 135.556364 
L 360.033039 135.556364 
L 357.206781 135.556364 
L 354.380524 135.556364 
L 351.554266 135.556364 
L 348.728009 135.556364 
L 345.901751 135.556364 
L 343.075494 135.556364 
L 340.249236 135.556364 
L 337.422979 135.556364 
L 334.596721 135.556364 
L 331.770464 135.556364 
L 328.944206 135.556364 
L 326.117949 135.556364 
L 323.291691 135.556364 
L 320.465434 135.556364 
L 317.639176 135.556364 
L 314.812919 135.556364 
L 311.986661 135.556364 
L 309.160404 135.556364 
L 306.334146 135.556364 
L 303.507889 135.556364 
L 300.681631 135.556364 
L 297.855374 135.556364 
L 295.029116 135.556364 
L 292.202859 135.556364 
L 289.376601 135.556364 
L 286.550344 135.556364 
L 283.724086 135.556364 
L 280.897829 135.556364 
L 278.071571 135.556364 
L 275.245314 135.556364 
L 272.419056 135.556364 
L 269.592799 135.556364 
L 266.766541 135.556364 
L 263.940284 135.556364 
L 261.114026 135.556364 
L 258.287769 135.556364 
L 255.461511 135.556364 
L 252.635254 135.556364 
L 249.808996 135.556364 
L 246.982739 135.556364 
L 244.156481 135.556364 
L 241.330224 135.556364 
L 238.503966 135.556364 
L 235.677709 135.556364 
L 232.851451 135.556364 
L 230.025194 135.556364 
L 227.198936 135.556364 
L 224.372679 135.556364 
L 221.546421 135.556364 
L 218.720164 135.556364 
L 215.893906 135.556364 
L 213.067649 135.556364 
L 210.241391 135.556364 
L 207.415134 135.556364 
L 204.588876 135.556364 
L 201.762619 135.556364 
L 198.936361 135.556364 
L 196.110104 135.556364 
L 193.283846 135.556364 
L 190.457589 135.556364 
L 187.631331 135.556364 
L 184.805074 135.556364 
L 181.978816 135.556364 
L 179.152559 135.556364 
L 176.326301 135.556364 
L 173.500044 135.556364 
L 170.673786 135.556364 
L 167.847529 135.556364 
L 165.021271 135.556364 
L 162.195014 135.556364 
L 159.368756 135.556364 
L 156.542499 135.556364 
L 153.716241 135.556364 
L 150.889984 135.556364 
L 148.063726 135.556364 
L 145.237469 135.556364 
L 142.411211 135.556364 
L 139.584954 135.556364 
L 136.758696 135.556364 
L 133.932439 135.556364 
L 131.106181 135.556364 
L 128.279924 135.556364 
L 125.453666 135.556364 
L 122.627409 135.556364 
L 119.801151 135.556364 
L 116.974894 135.556364 
L 114.148636 135.556364 
z
" style="fill:#008000;fill-opacity:0.4;"/>
   </g>
   <g id="matplotlib.axis_1">
    <g id="xtick_1">
     <g id="line2d_1">
      <defs>
       <path d="M 0 0 
L 0 3.5 
" id="mecf77a45b4" style="stroke:#000000;stroke-width:0.8;"/>
      </defs>
      <g>
       <use style="stroke:#000000;stroke-width:0.8;" x="114.148636" xlink:href="#mecf77a45b4" y="804.96"/>
      </g>
     </g>
     <g id="text_1">
      <!-- 0.0 -->
      <defs>
       <path d="M 31.78125 66.40625 
Q 24.171875 66.40625 20.328125 58.90625 
Q 16.5 51.421875 16.5 36.375 
Q 16.5 21.390625 20.328125 13.890625 
Q 24.171875 6.390625 31.78125 6.390625 
Q 39.453125 6.390625 43.28125 13.890625 
Q 47.125 21.390625 47.125 36.375 
Q 47.125 51.421875 43.28125 58.90625 
Q 39.453125 66.40625 31.78125 66.40625 
z
M 31.78125 74.21875 
Q 44.046875 74.21875 50.515625 64.515625 
Q 56.984375 54.828125 56.984375 36.375 
Q 56.984375 17.96875 50.515625 8.265625 
Q 44.046875 -1.421875 31.78125 -1.421875 
Q 19.53125 -1.421875 13.0625 8.265625 
Q 6.59375 17.96875 6.59375 36.375 
Q 6.59375 54.828125 13.0625 64.515625 
Q 19.53125 74.21875 31.78125 74.21875 
z
" id="DejaVuSans-30"/>
       <path d="M 10.6875 12.40625 
L 21 12.40625 
L 21 0 
L 10.6875 0 
z
" id="DejaVuSans-2e"/>
      </defs>
      <g transform="translate(106.197074 819.558437)scale(0.1 -0.1)">
       <use xlink:href="#DejaVuSans-30"/>
       <use x="63.623047" xlink:href="#DejaVuSans-2e"/>
       <use x="95.410156" xlink:href="#DejaVuSans-30"/>
      </g>
     </g>
    </g>
    <g id="xtick_2">
     <g id="line2d_2">
      <g>
       <use style="stroke:#000000;stroke-width:0.8;" x="225.503182" xlink:href="#mecf77a45b4" y="804.96"/>
      </g>
     </g>
     <g id="text_2">
      <!-- 0.2 -->
      <defs>
       <path d="M 19.1875 8.296875 
L 53.609375 8.296875 
L 53.609375 0 
L 7.328125 0 
L 7.328125 8.296875 
Q 12.9375 14.109375 22.625 23.890625 
Q 32.328125 33.6875 34.8125 36.53125 
Q 39.546875 41.84375 41.421875 45.53125 
Q 43.3125 49.21875 43.3125 52.78125 
Q 43.3125 58.59375 39.234375 62.25 
Q 35.15625 65.921875 28.609375 65.921875 
Q 23.96875 65.921875 18.8125 64.3125 
Q 13.671875 62.703125 7.8125 59.421875 
L 7.8125 69.390625 
Q 13.765625 71.78125 18.9375 73 
Q 24.125 74.21875 28.421875 74.21875 
Q 39.75 74.21875 46.484375 68.546875 
Q 53.21875 62.890625 53.21875 53.421875 
Q 53.21875 48.921875 51.53125 44.890625 
Q 49.859375 40.875 45.40625 35.40625 
Q 44.1875 33.984375 37.640625 27.21875 
Q 31.109375 20.453125 19.1875 8.296875 
z
" id="DejaVuSans-32"/>
      </defs>
      <g transform="translate(217.551619 819.558437)scale(0.1 -0.1)">
       <use xlink:href="#DejaVuSans-30"/>
       <use x="63.623047" xlink:href="#DejaVuSans-2e"/>
       <use x="95.410156" xlink:href="#DejaVuSans-32"/>
      </g>
     </g>
    </g>
    <g id="xtick_3">
     <g id="line2d_3">
      <g>
       <use style="stroke:#000000;stroke-width:0.8;" x="336.857727" xlink:href="#mecf77a45b4" y="804.96"/>
      </g>
     </g>
     <g id="text_3">
      <!-- 0.4 -->
      <defs>
       <path d="M 37.796875 64.3125 
L 12.890625 25.390625 
L 37.796875 25.390625 
z
M 35.203125 72.90625 
L 47.609375 72.90625 
L 47.609375 25.390625 
L 58.015625 25.390625 
L 58.015625 17.1875 
L 47.609375 17.1875 
L 47.609375 0 
L 37.796875 0 
L 37.796875 17.1875 
L 4.890625 17.1875 
L 4.890625 26.703125 
z
" id="DejaVuSans-34"/>
      </defs>
      <g transform="translate(328.906165 819.558437)scale(0.1 -0.1)">
       <use xlink:href="#DejaVuSans-30"/>
       <use x="63.623047" xlink:href="#DejaVuSans-2e"/>
       <use x="95.410156" xlink:href="#DejaVuSans-34"/>
      </g>
     </g>
    </g>
    <g id="xtick_4">
     <g id="line2d_4">
      <g>
       <use style="stroke:#000000;stroke-width:0.8;" x="448.212273" xlink:href="#mecf77a45b4" y="804.96"/>
      </g>
     </g>
     <g id="text_4">
      <!-- 0.6 -->
      <defs>
       <path d="M 33.015625 40.375 
Q 26.375 40.375 22.484375 35.828125 
Q 18.609375 31.296875 18.609375 23.390625 
Q 18.609375 15.53125 22.484375 10.953125 
Q 26.375 6.390625 33.015625 6.390625 
Q 39.65625 6.390625 43.53125 10.953125 
Q 47.40625 15.53125 47.40625 23.390625 
Q 47.40625 31.296875 43.53125 35.828125 
Q 39.65625 40.375 33.015625 40.375 
z
M 52.59375 71.296875 
L 52.59375 62.3125 
Q 48.875 64.0625 45.09375 64.984375 
Q 41.3125 65.921875 37.59375 65.921875 
Q 27.828125 65.921875 22.671875 59.328125 
Q 17.53125 52.734375 16.796875 39.40625 
Q 19.671875 43.65625 24.015625 45.921875 
Q 28.375 48.1875 33.59375 48.1875 
Q 44.578125 48.1875 50.953125 41.515625 
Q 57.328125 34.859375 57.328125 23.390625 
Q 57.328125 12.15625 50.6875 5.359375 
Q 44.046875 -1.421875 33.015625 -1.421875 
Q 20.359375 -1.421875 13.671875 8.265625 
Q 6.984375 17.96875 6.984375 36.375 
Q 6.984375 53.65625 15.1875 63.9375 
Q 23.390625 74.21875 37.203125 74.21875 
Q 40.921875 74.21875 44.703125 73.484375 
Q 48.484375 72.75 52.59375 71.296875 
z
" id="DejaVuSans-36"/>
      </defs>
      <g transform="translate(440.26071 819.558437)scale(0.1 -0.1)">
       <use xlink:href="#DejaVuSans-30"/>
       <use x="63.623047" xlink:href="#DejaVuSans-2e"/>
       <use x="95.410156" xlink:href="#DejaVuSans-36"/>
      </g>
     </g>
    </g>
    <g id="xtick_5">
     <g id="line2d_5">
      <g>
       <use style="stroke:#000000;stroke-width:0.8;" x="559.566818" xlink:href="#mecf77a45b4" y="804.96"/>
      </g>
     </g>
     <g id="text_5">
      <!-- 0.8 -->
      <defs>
       <path d="M 31.78125 34.625 
Q 24.75 34.625 20.71875 30.859375 
Q 16.703125 27.09375 16.703125 20.515625 
Q 16.703125 13.921875 20.71875 10.15625 
Q 24.75 6.390625 31.78125 6.390625 
Q 38.8125 6.390625 42.859375 10.171875 
Q 46.921875 13.96875 46.921875 20.515625 
Q 46.921875 27.09375 42.890625 30.859375 
Q 38.875 34.625 31.78125 34.625 
z
M 21.921875 38.8125 
Q 15.578125 40.375 12.03125 44.71875 
Q 8.5 49.078125 8.5 55.328125 
Q 8.5 64.0625 14.71875 69.140625 
Q 20.953125 74.21875 31.78125 74.21875 
Q 42.671875 74.21875 48.875 69.140625 
Q 55.078125 64.0625 55.078125 55.328125 
Q 55.078125 49.078125 51.53125 44.71875 
Q 48 40.375 41.703125 38.8125 
Q 48.828125 37.15625 52.796875 32.3125 
Q 56.78125 27.484375 56.78125 20.515625 
Q 56.78125 9.90625 50.3125 4.234375 
Q 43.84375 -1.421875 31.78125 -1.421875 
Q 19.734375 -1.421875 13.25 4.234375 
Q 6.78125 9.90625 6.78125 20.515625 
Q 6.78125 27.484375 10.78125 32.3125 
Q 14.796875 37.15625 21.921875 38.8125 
z
M 18.3125 54.390625 
Q 18.3125 48.734375 21.84375 45.5625 
Q 25.390625 42.390625 31.78125 42.390625 
Q 38.140625 42.390625 41.71875 45.5625 
Q 45.3125 48.734375 45.3125 54.390625 
Q 45.3125 60.0625 41.71875 63.234375 
Q 38.140625 66.40625 31.78125 66.40625 
Q 25.390625 66.40625 21.84375 63.234375 
Q 18.3125 60.0625 18.3125 54.390625 
z
" id="DejaVuSans-38"/>
      </defs>
      <g transform="translate(551.615256 819.558437)scale(0.1 -0.1)">
       <use xlink:href="#DejaVuSans-30"/>
       <use x="63.623047" xlink:href="#DejaVuSans-2e"/>
       <use x="95.410156" xlink:href="#DejaVuSans-38"/>
      </g>
     </g>
    </g>
    <g id="xtick_6">
     <g id="line2d_6">
      <g>
       <use style="stroke:#000000;stroke-width:0.8;" x="670.921364" xlink:href="#mecf77a45b4" y="804.96"/>
      </g>
     </g>
     <g id="text_6">
      <!-- 1.0 -->
      <defs>
       <path d="M 12.40625 8.296875 
L 28.515625 8.296875 
L 28.515625 63.921875 
L 10.984375 60.40625 
L 10.984375 69.390625 
L 28.421875 72.90625 
L 38.28125 72.90625 
L 38.28125 8.296875 
L 54.390625 8.296875 
L 54.390625 0 
L 12.40625 0 
z
" id="DejaVuSans-31"/>
      </defs>
      <g transform="translate(662.969801 819.558437)scale(0.1 -0.1)">
       <use xlink:href="#DejaVuSans-31"/>
       <use x="63.623047" xlink:href="#DejaVuSans-2e"/>
       <use x="95.410156" xlink:href="#DejaVuSans-30"/>
      </g>
     </g>
    </g>
   </g>
   <g id="matplotlib.axis_2">
    <g id="ytick_1">
     <g id="line2d_7">
      <defs>
       <path d="M 0 0 
L -3.5 0 
" id="m53fb6d3115" style="stroke:#000000;stroke-width:0.8;"/>
      </defs>
      <g>
       <use style="stroke:#000000;stroke-width:0.8;" x="86.31" xlink:href="#m53fb6d3115" y="779.615686"/>
      </g>
     </g>
     <g id="text_7">
      <!-- 0.0 -->
      <g transform="translate(63.406875 783.414905)scale(0.1 -0.1)">
       <use xlink:href="#DejaVuSans-30"/>
       <use x="63.623047" xlink:href="#DejaVuSans-2e"/>
       <use x="95.410156" xlink:href="#DejaVuSans-30"/>
      </g>
     </g>
    </g>
    <g id="ytick_2">
     <g id="line2d_8">
      <g>
       <use style="stroke:#000000;stroke-width:0.8;" x="86.31" xlink:href="#m53fb6d3115" y="650.803822"/>
      </g>
     </g>
     <g id="text_8">
      <!-- 0.2 -->
      <g transform="translate(63.406875 654.60304)scale(0.1 -0.1)">
       <use xlink:href="#DejaVuSans-30"/>
       <use x="63.623047" xlink:href="#DejaVuSans-2e"/>
       <use x="95.410156" xlink:href="#DejaVuSans-32"/>
      </g>
     </g>
    </g>
    <g id="ytick_3">
     <g id="line2d_9">
      <g>
       <use style="stroke:#000000;stroke-width:0.8;" x="86.31" xlink:href="#m53fb6d3115" y="521.991957"/>
      </g>
     </g>
     <g id="text_9">
      <!-- 0.4 -->
      <g transform="translate(63.406875 525.791176)scale(0.1 -0.1)">
       <use xlink:href="#DejaVuSans-30"/>
       <use x="63.623047" xlink:href="#DejaVuSans-2e"/>
       <use x="95.410156" xlink:href="#DejaVuSans-34"/>
      </g>
     </g>
    </g>
    <g id="ytick_4">
     <g id="line2d_10">
      <g>
       <use style="stroke:#000000;stroke-width:0.8;" x="86.31" xlink:href="#m53fb6d3115" y="393.180093"/>
      </g>
     </g>
     <g id="text_10">
      <!-- 0.6 -->
      <g transform="translate(63.406875 396.979311)scale(0.1 -0.1)">
       <use xlink:href="#DejaVuSans-30"/>
       <use x="63.623047" xlink:href="#DejaVuSans-2e"/>
       <use x="95.410156" xlink:href="#DejaVuSans-36"/>
      </g>
     </g>
    </g>
    <g id="ytick_5">
     <g id="line2d_11">
      <g>
       <use style="stroke:#000000;stroke-width:0.8;" x="86.31" xlink:href="#m53fb6d3115" y="264.368228"/>
      </g>
     </g>
     <g id="text_11">
      <!-- 0.8 -->
      <g transform="translate(63.406875 268.167447)scale(0.1 -0.1)">
       <use xlink:href="#DejaVuSans-30"/>
       <use x="63.623047" xlink:href="#DejaVuSans-2e"/>
       <use x="95.410156" xlink:href="#DejaVuSans-38"/>
      </g>
     </g>
    </g>
    <g id="ytick_6">
     <g id="line2d_12">
      <g>
       <use style="stroke:#000000;stroke-width:0.8;" x="86.31" xlink:href="#m53fb6d3115" y="135.556364"/>
      </g>
     </g>
     <g id="text_12">
      <!-- 1.0 -->
      <g transform="translate(63.406875 139.355582)scale(0.1 -0.1)">
       <use xlink:href="#DejaVuSans-31"/>
       <use x="63.623047" xlink:href="#DejaVuSans-2e"/>
       <use x="95.410156" xlink:href="#DejaVuSans-30"/>
      </g>
     </g>
    </g>
   </g>
   <g id="line2d_13">
    <path clip-path="url(#p21fb8d929a)" d="M 114.148636 461.722818 
L 116.974894 454.755384 
L 119.801151 467.384099 
L 122.627409 468.690252 
L 125.453666 497.866783 
L 128.279924 523.559597 
L 131.106181 543.59113 
L 133.932439 539.236645 
L 136.758696 529.656263 
L 139.584954 540.542798 
L 142.411211 548.817028 
L 145.237469 566.235612 
L 148.063726 574.073814 
L 150.889984 601.508809 
L 153.716241 631.120725 
L 159.368756 667.26469 
L 162.195014 678.151224 
L 165.021271 706.456988 
L 167.847529 719.085445 
L 170.673786 723.004675 
L 173.500044 727.794802 
L 176.326301 724.311085 
L 179.152559 723.004675 
L 181.978816 723.004675 
L 184.805074 729.972173 
L 187.631331 742.165311 
L 190.457589 745.649092 
L 193.283846 747.826399 
L 196.110104 754.358449 
L 198.936361 754.358449 
L 201.762619 756.53582 
L 204.588876 751.31018 
L 207.415134 748.697361 
L 210.241391 752.61659 
L 213.067649 752.181142 
L 215.893906 754.793897 
L 218.720164 755.22941 
L 221.546421 757.84223 
L 224.372679 754.358449 
L 227.198936 749.132809 
L 230.025194 742.165311 
L 232.851451 732.584993 
L 235.677709 707.76314 
L 238.503966 677.71584 
L 241.330224 652.45841 
L 244.156481 628.94316 
L 246.982739 594.541375 
L 249.808996 561.881127 
L 252.635254 533.575364 
L 255.461511 509.62473 
L 258.287769 490.899349 
L 261.114026 470.432432 
L 263.940284 460.416666 
L 266.766541 451.707051 
L 269.592799 443.868849 
L 275.245314 419.918215 
L 278.071571 411.643985 
L 280.897829 403.805783 
L 283.724086 408.160268 
L 286.550344 401.628219 
L 289.376601 404.241167 
L 292.202859 419.918215 
L 295.029116 433.853083 
L 297.855374 450.400899 
L 300.681631 451.271667 
L 303.507889 469.12628 
L 306.334146 495.689862 
L 309.160404 500.044348 
L 311.986661 503.09268 
L 314.812919 515.286011 
L 317.639176 526.172546 
L 320.465434 550.993948 
L 326.117949 576.686763 
L 328.944206 592.363811 
L 331.770464 598.460476 
L 334.596721 614.137524 
L 337.422979 625.894827 
L 340.249236 640.265723 
L 343.075494 648.539309 
L 345.901751 663.780973 
L 348.728009 667.700074 
L 354.380524 665.087125 
L 357.206781 668.135458 
L 360.033039 667.700074 
L 362.859296 659.425844 
L 368.511811 684.24789 
L 371.338069 691.215324 
L 374.164326 695.134425 
L 376.990584 713.859805 
L 379.816841 726.488392 
L 382.643099 729.972173 
L 385.469356 732.149544 
L 388.295614 730.407622 
L 391.121871 733.891403 
L 393.948129 733.455954 
L 396.774386 736.504223 
L 399.600644 743.907169 
L 405.253159 756.100307 
L 408.079416 760.45505 
L 410.905674 765.68069 
L 413.731931 767.422548 
L 416.558189 766.116138 
L 419.384446 763.938767 
L 422.210704 767.422548 
L 425.036961 767.857997 
L 427.863219 762.632357 
L 430.689476 757.84223 
L 433.515734 753.487487 
L 436.341991 745.213579 
L 439.168249 733.455954 
L 441.994506 716.472625 
L 444.820764 706.021603 
L 447.647021 681.634941 
L 450.473279 663.780973 
L 453.299536 650.716874 
L 456.125794 633.733673 
L 458.952051 615.443677 
L 461.778309 600.638041 
L 464.604566 598.460476 
L 467.430824 577.558175 
L 470.257081 560.138947 
L 473.083339 556.219846 
L 475.909596 546.639463 
L 478.735854 533.13998 
L 481.562111 503.528064 
L 484.388369 516.592164 
L 487.214626 520.511265 
L 490.040884 511.80165 
L 492.867141 500.044348 
L 495.693399 512.673063 
L 498.519656 546.639463 
L 501.345914 520.075881 
L 504.172171 507.882549 
L 506.998429 517.898316 
L 509.824686 540.107414 
L 512.650944 520.075881 
L 515.477201 506.141013 
L 518.303459 536.623697 
L 521.129716 560.574331 
L 523.955974 559.268178 
L 526.782231 554.913693 
L 529.608489 553.606897 
L 532.434746 566.670996 
L 535.261004 559.703563 
L 538.087261 548.381644 
L 540.913519 559.268178 
L 543.739776 577.558175 
L 546.566034 602.379577 
L 549.392291 591.057658 
L 552.218549 602.379577 
L 555.044806 625.459443 
L 563.523579 658.99046 
L 566.349836 689.909171 
L 569.176094 711.246857 
L 572.002351 718.649932 
L 574.828609 723.875572 
L 577.654866 730.843135 
L 580.481124 746.955502 
L 583.307381 754.358449 
L 586.133639 757.406717 
L 588.959896 762.196908 
L 591.786154 766.116138 
L 594.612411 766.551587 
L 597.438669 764.809728 
L 600.264926 764.809728 
L 603.091184 762.632357 
L 605.917441 764.37428 
L 608.743699 767.422548 
L 611.569956 768.728958 
L 614.396214 771.777226 
L 617.222471 773.083636 
L 620.048729 773.083636 
L 622.874986 769.164407 
L 625.701244 762.632357 
L 628.527501 757.84223 
L 631.353759 751.31018 
L 634.180016 741.29435 
L 637.006274 723.440123 
L 642.658789 673.796739 
L 645.485046 628.072392 
L 648.311304 595.412144 
L 651.137561 575.380611 
L 653.963819 562.751895 
L 656.790076 544.897927 
L 659.616334 524.430366 
L 662.442591 537.494465 
L 665.268849 545.768695 
L 668.095106 534.446132 
L 670.921364 517.462932 
L 670.921364 517.462932 
" style="fill:none;stroke:#1f77b4;stroke-linecap:square;stroke-width:1.5;"/>
   </g>
   <g id="line2d_14">
    <path clip-path="url(#p21fb8d929a)" d="M 114.148636 235.057571 
L 116.974894 229.625736 
L 119.801151 229.951147 
L 122.627409 230.5593 
L 125.453666 235.23195 
L 128.279924 243.857193 
L 131.106181 251.923875 
L 133.932439 258.022795 
L 136.758696 255.225323 
L 139.584954 254.455672 
L 142.411211 257.150416 
L 145.237469 260.945697 
L 148.063726 266.419235 
L 150.889984 270.183923 
L 153.716241 278.904003 
L 156.542499 286.76523 
L 159.368756 291.928171 
L 162.195014 295.853551 
L 165.021271 299.475741 
L 167.847529 304.505522 
L 170.673786 307.067912 
L 173.500044 307.557236 
L 176.326301 308.759695 
L 179.152559 307.702149 
L 181.978816 307.593948 
L 184.805074 307.627278 
L 187.631331 309.088326 
L 190.457589 310.832278 
L 193.283846 311.136596 
L 196.110104 312.121201 
L 198.936361 312.670262 
L 201.762619 312.846734 
L 204.588876 312.8857 
L 207.415134 312.617127 
L 210.241391 312.168379 
L 213.067649 312.473341 
L 218.720164 312.788125 
L 224.372679 312.973131 
L 227.198936 312.799396 
L 230.025194 311.523675 
L 232.851451 310.98331 
L 235.677709 309.290561 
L 238.503966 304.694553 
L 241.330224 298.943426 
L 244.156481 292.701042 
L 246.982739 285.508348 
L 249.808996 274.978783 
L 252.635254 263.548663 
L 258.287769 244.448922 
L 261.114026 239.109993 
L 263.940284 231.785428 
L 266.766541 229.37729 
L 269.592799 225.81049 
L 272.419056 223.626162 
L 275.245314 218.97863 
L 278.071571 216.175845 
L 280.897829 213.955129 
L 283.724086 212.205059 
L 286.550344 212.989684 
L 289.376601 210.403786 
L 292.202859 214.527053 
L 295.029116 216.915547 
L 297.855374 222.254316 
L 300.681631 226.086308 
L 303.507889 227.99369 
L 306.334146 234.709618 
L 309.160404 240.898706 
L 311.986661 243.58073 
L 314.812919 244.433304 
L 317.639176 248.772171 
L 320.465434 254.150066 
L 323.291691 260.459432 
L 326.117949 266.022172 
L 328.944206 270.515613 
L 331.770464 274.554026 
L 337.422979 281.723856 
L 340.249236 286.005723 
L 343.075494 289.423585 
L 345.901751 291.990322 
L 348.728009 295.37743 
L 351.554266 295.951287 
L 354.380524 296.188945 
L 357.206781 295.960626 
L 360.033039 296.312121 
L 362.859296 295.813941 
L 365.685554 295.704934 
L 371.338069 299.811296 
L 376.990584 303.270216 
L 379.816841 306.325151 
L 382.643099 308.323667 
L 385.469356 309.047589 
L 396.774386 309.423881 
L 402.426901 311.042885 
L 405.253159 312.192209 
L 408.079416 312.899225 
L 410.905674 313.135756 
L 413.731931 314.12004 
L 416.558189 314.435307 
L 422.210704 314.135014 
L 425.036961 314.434341 
L 427.863219 314.539 
L 430.689476 313.36649 
L 436.341991 312.768481 
L 439.168249 311.251238 
L 441.994506 309.382017 
L 444.820764 307.297197 
L 447.647021 304.273178 
L 450.473279 299.211676 
L 453.299536 295.907974 
L 456.125794 292.081296 
L 458.952051 287.273715 
L 461.778309 281.733195 
L 464.604566 277.79284 
L 467.430824 275.820408 
L 470.257081 268.779229 
L 473.083339 264.492532 
L 475.909596 262.007751 
L 478.735854 258.66299 
L 481.562111 251.875248 
L 484.388369 245.434655 
L 487.214626 249.35907 
L 490.040884 248.806306 
L 492.867141 245.634314 
L 495.693399 243.918701 
L 498.519656 251.570286 
L 501.345914 256.680092 
L 504.172171 248.404091 
L 506.998429 246.702486 
L 509.824686 251.127013 
L 512.650944 254.981225 
L 515.477201 248.271092 
L 518.303459 247.70271 
L 521.129716 257.621707 
L 523.955974 262.894137 
L 526.782231 263.865862 
L 529.608489 261.625824 
L 532.434746 263.124711 
L 535.261004 265.175556 
L 538.087261 262.456338 
L 540.913519 261.496046 
L 543.739776 264.308653 
L 546.566034 272.174549 
L 549.392291 276.058066 
L 552.218549 275.529937 
L 555.044806 279.420055 
L 557.871064 285.093252 
L 563.523579 291.636251 
L 566.349836 295.38532 
L 569.176094 301.23837 
L 572.002351 305.256012 
L 574.828609 307.079183 
L 577.654866 308.253625 
L 580.481124 309.131317 
L 583.307381 311.14368 
L 586.133639 312.673804 
L 591.786154 313.325753 
L 594.612411 314.126158 
L 597.438669 314.337893 
L 600.264926 314.157717 
L 603.091184 314.102489 
L 605.917441 313.395151 
L 608.743699 314.097498 
L 611.569956 314.443679 
L 617.222471 314.798073 
L 622.874986 314.904504 
L 625.701244 314.655253 
L 628.527501 313.380659 
L 631.353759 313.016122 
L 634.180016 312.520357 
L 637.006274 310.930658 
L 639.832531 307.539363 
L 642.658789 303.621551 
L 645.485046 296.973731 
L 651.137561 275.26861 
L 653.963819 268.959083 
L 656.790076 264.234747 
L 659.616334 257.227703 
L 662.442591 252.805109 
L 665.268849 256.80826 
L 668.095106 257.864678 
L 670.921364 254.285318 
L 670.921364 254.285318 
" style="fill:none;stroke:#ff7f0e;stroke-linecap:square;stroke-width:1.5;"/>
   </g>
   <g id="line2d_15">
    <path clip-path="url(#p21fb8d929a)" d="M 114.148636 476.907804 
L 116.974894 451.145432 
L 119.801151 451.145432 
L 122.627409 457.586025 
L 125.453666 470.467211 
L 128.279924 502.670177 
L 131.106181 528.43255 
L 133.932439 547.75433 
L 139.584954 534.873144 
L 142.411211 541.313737 
L 145.237469 554.194923 
L 148.063726 573.516703 
L 150.889984 586.397889 
L 153.716241 618.600855 
L 156.542499 644.363228 
L 165.021271 683.006788 
L 167.847529 702.328567 
L 170.673786 708.769161 
L 173.500044 708.769161 
L 176.326301 715.209754 
L 179.152559 708.769161 
L 184.805074 708.769161 
L 190.457589 721.650347 
L 193.283846 721.650347 
L 196.110104 728.09094 
L 227.198936 728.09094 
L 230.025194 721.650347 
L 232.851451 721.650347 
L 235.677709 715.209754 
L 238.503966 702.328567 
L 244.156481 663.685008 
L 246.982739 637.922635 
L 249.808996 605.719669 
L 252.635254 567.07611 
L 258.287769 502.670177 
L 261.114026 483.348398 
L 263.940284 457.586025 
L 266.766541 451.145432 
L 269.592799 438.264245 
L 272.419056 431.823652 
L 278.071571 406.061279 
L 283.724086 393.180093 
L 286.550344 393.180093 
L 289.376601 386.739499 
L 300.681631 438.264245 
L 303.507889 444.704838 
L 306.334146 470.467211 
L 309.160404 489.788991 
L 314.812919 502.670177 
L 317.639176 515.551364 
L 326.117949 573.516703 
L 343.075494 650.803822 
L 345.901751 657.244415 
L 348.728009 670.125601 
L 351.554266 670.125601 
L 354.380524 676.566194 
L 357.206781 670.125601 
L 360.033039 676.566194 
L 362.859296 670.125601 
L 365.685554 670.125601 
L 376.990584 695.887974 
L 379.816841 708.769161 
L 382.643099 715.209754 
L 396.774386 715.209754 
L 399.600644 721.650347 
L 402.426901 721.650347 
L 405.253159 728.09094 
L 410.905674 728.09094 
L 413.731931 734.531533 
L 427.863219 734.531533 
L 430.689476 728.09094 
L 436.341991 728.09094 
L 447.647021 702.328567 
L 450.473279 683.006788 
L 458.952051 644.363228 
L 461.778309 625.041449 
L 464.604566 612.160262 
L 467.430824 605.719669 
L 473.083339 567.07611 
L 475.909596 560.635516 
L 478.735854 547.75433 
L 484.388369 509.110771 
L 487.214626 515.551364 
L 490.040884 515.551364 
L 492.867141 509.110771 
L 495.693399 496.229584 
L 498.519656 528.43255 
L 501.345914 541.313737 
L 504.172171 515.551364 
L 506.998429 509.110771 
L 512.650944 534.873144 
L 515.477201 515.551364 
L 518.303459 509.110771 
L 521.129716 547.75433 
L 523.955974 560.635516 
L 526.782231 567.07611 
L 529.608489 560.635516 
L 532.434746 560.635516 
L 535.261004 567.07611 
L 538.087261 560.635516 
L 540.913519 560.635516 
L 543.739776 567.07611 
L 546.566034 592.838483 
L 549.392291 605.719669 
L 552.218549 605.719669 
L 555.044806 618.600855 
L 557.871064 637.922635 
L 560.697321 644.363228 
L 566.349836 670.125601 
L 569.176094 689.447381 
L 572.002351 702.328567 
L 577.654866 715.209754 
L 580.481124 715.209754 
L 586.133639 728.09094 
L 591.786154 728.09094 
L 594.612411 734.531533 
L 603.091184 734.531533 
L 605.917441 728.09094 
L 608.743699 734.531533 
L 625.701244 734.531533 
L 628.527501 728.09094 
L 634.180016 728.09094 
L 637.006274 721.650347 
L 642.658789 695.887974 
L 645.485046 676.566194 
L 648.311304 644.363228 
L 651.137561 605.719669 
L 662.442591 528.43255 
L 665.268849 541.313737 
L 668.095106 547.75433 
L 670.921364 534.873144 
L 670.921364 534.873144 
" style="fill:none;stroke:#2ca02c;stroke-linecap:square;stroke-width:1.5;"/>
   </g>
   <g id="line2d_16">
    <path clip-path="url(#p21fb8d929a)" d="M 114.148636 135.556364 
L 670.921364 135.556364 
L 670.921364 135.556364 
" style="fill:none;stroke:#d62728;stroke-linecap:square;stroke-width:1.5;"/>
   </g>
   <g id="patch_3">
    <path d="M 86.31 804.96 
L 86.31 103.68 
" style="fill:none;stroke:#000000;stroke-linecap:square;stroke-linejoin:miter;stroke-width:0.8;"/>
   </g>
   <g id="patch_4">
    <path d="M 698.76 804.96 
L 698.76 103.68 
" style="fill:none;stroke:#000000;stroke-linecap:square;stroke-linejoin:miter;stroke-width:0.8;"/>
   </g>
   <g id="patch_5">
    <path d="M 86.31 804.96 
L 698.76 804.96 
" style="fill:none;stroke:#000000;stroke-linecap:square;stroke-linejoin:miter;stroke-width:0.8;"/>
   </g>
   <g id="patch_6">
    <path d="M 86.31 103.68 
L 698.76 103.68 
" style="fill:none;stroke:#000000;stroke-linecap:square;stroke-linejoin:miter;stroke-width:0.8;"/>
   </g>
   <g id="text_13">
    <!-- Plot of Test Data vs MCMC Uncertainty  -->
    <defs>
     <path d="M 19.671875 64.796875 
L 19.671875 37.40625 
L 32.078125 37.40625 
Q 38.96875 37.40625 42.71875 40.96875 
Q 46.484375 44.53125 46.484375 51.125 
Q 46.484375 57.671875 42.71875 61.234375 
Q 38.96875 64.796875 32.078125 64.796875 
z
M 9.8125 72.90625 
L 32.078125 72.90625 
Q 44.34375 72.90625 50.609375 67.359375 
Q 56.890625 61.8125 56.890625 51.125 
Q 56.890625 40.328125 50.609375 34.8125 
Q 44.34375 29.296875 32.078125 29.296875 
L 19.671875 29.296875 
L 19.671875 0 
L 9.8125 0 
z
" id="DejaVuSans-50"/>
     <path d="M 9.421875 75.984375 
L 18.40625 75.984375 
L 18.40625 0 
L 9.421875 0 
z
" id="DejaVuSans-6c"/>
     <path d="M 30.609375 48.390625 
Q 23.390625 48.390625 19.1875 42.75 
Q 14.984375 37.109375 14.984375 27.296875 
Q 14.984375 17.484375 19.15625 11.84375 
Q 23.34375 6.203125 30.609375 6.203125 
Q 37.796875 6.203125 41.984375 11.859375 
Q 46.1875 17.53125 46.1875 27.296875 
Q 46.1875 37.015625 41.984375 42.703125 
Q 37.796875 48.390625 30.609375 48.390625 
z
M 30.609375 56 
Q 42.328125 56 49.015625 48.375 
Q 55.71875 40.765625 55.71875 27.296875 
Q 55.71875 13.875 49.015625 6.21875 
Q 42.328125 -1.421875 30.609375 -1.421875 
Q 18.84375 -1.421875 12.171875 6.21875 
Q 5.515625 13.875 5.515625 27.296875 
Q 5.515625 40.765625 12.171875 48.375 
Q 18.84375 56 30.609375 56 
z
" id="DejaVuSans-6f"/>
     <path d="M 18.3125 70.21875 
L 18.3125 54.6875 
L 36.8125 54.6875 
L 36.8125 47.703125 
L 18.3125 47.703125 
L 18.3125 18.015625 
Q 18.3125 11.328125 20.140625 9.421875 
Q 21.96875 7.515625 27.59375 7.515625 
L 36.8125 7.515625 
L 36.8125 0 
L 27.59375 0 
Q 17.1875 0 13.234375 3.875 
Q 9.28125 7.765625 9.28125 18.015625 
L 9.28125 47.703125 
L 2.6875 47.703125 
L 2.6875 54.6875 
L 9.28125 54.6875 
L 9.28125 70.21875 
z
" id="DejaVuSans-74"/>
     <path id="DejaVuSans-20"/>
     <path d="M 37.109375 75.984375 
L 37.109375 68.5 
L 28.515625 68.5 
Q 23.6875 68.5 21.796875 66.546875 
Q 19.921875 64.59375 19.921875 59.515625 
L 19.921875 54.6875 
L 34.71875 54.6875 
L 34.71875 47.703125 
L 19.921875 47.703125 
L 19.921875 0 
L 10.890625 0 
L 10.890625 47.703125 
L 2.296875 47.703125 
L 2.296875 54.6875 
L 10.890625 54.6875 
L 10.890625 58.5 
Q 10.890625 67.625 15.140625 71.796875 
Q 19.390625 75.984375 28.609375 75.984375 
z
" id="DejaVuSans-66"/>
     <path d="M -0.296875 72.90625 
L 61.375 72.90625 
L 61.375 64.59375 
L 35.5 64.59375 
L 35.5 0 
L 25.59375 0 
L 25.59375 64.59375 
L -0.296875 64.59375 
z
" id="DejaVuSans-54"/>
     <path d="M 56.203125 29.59375 
L 56.203125 25.203125 
L 14.890625 25.203125 
Q 15.484375 15.921875 20.484375 11.0625 
Q 25.484375 6.203125 34.421875 6.203125 
Q 39.59375 6.203125 44.453125 7.46875 
Q 49.3125 8.734375 54.109375 11.28125 
L 54.109375 2.78125 
Q 49.265625 0.734375 44.1875 -0.34375 
Q 39.109375 -1.421875 33.890625 -1.421875 
Q 20.796875 -1.421875 13.15625 6.1875 
Q 5.515625 13.8125 5.515625 26.8125 
Q 5.515625 40.234375 12.765625 48.109375 
Q 20.015625 56 32.328125 56 
Q 43.359375 56 49.78125 48.890625 
Q 56.203125 41.796875 56.203125 29.59375 
z
M 47.21875 32.234375 
Q 47.125 39.59375 43.09375 43.984375 
Q 39.0625 48.390625 32.421875 48.390625 
Q 24.90625 48.390625 20.390625 44.140625 
Q 15.875 39.890625 15.1875 32.171875 
z
" id="DejaVuSans-65"/>
     <path d="M 44.28125 53.078125 
L 44.28125 44.578125 
Q 40.484375 46.53125 36.375 47.5 
Q 32.28125 48.484375 27.875 48.484375 
Q 21.1875 48.484375 17.84375 46.4375 
Q 14.5 44.390625 14.5 40.28125 
Q 14.5 37.15625 16.890625 35.375 
Q 19.28125 33.59375 26.515625 31.984375 
L 29.59375 31.296875 
Q 39.15625 29.25 43.1875 25.515625 
Q 47.21875 21.78125 47.21875 15.09375 
Q 47.21875 7.46875 41.1875 3.015625 
Q 35.15625 -1.421875 24.609375 -1.421875 
Q 20.21875 -1.421875 15.453125 -0.5625 
Q 10.6875 0.296875 5.421875 2 
L 5.421875 11.28125 
Q 10.40625 8.6875 15.234375 7.390625 
Q 20.0625 6.109375 24.8125 6.109375 
Q 31.15625 6.109375 34.5625 8.28125 
Q 37.984375 10.453125 37.984375 14.40625 
Q 37.984375 18.0625 35.515625 20.015625 
Q 33.0625 21.96875 24.703125 23.78125 
L 21.578125 24.515625 
Q 13.234375 26.265625 9.515625 29.90625 
Q 5.8125 33.546875 5.8125 39.890625 
Q 5.8125 47.609375 11.28125 51.796875 
Q 16.75 56 26.8125 56 
Q 31.78125 56 36.171875 55.265625 
Q 40.578125 54.546875 44.28125 53.078125 
z
" id="DejaVuSans-73"/>
     <path d="M 19.671875 64.796875 
L 19.671875 8.109375 
L 31.59375 8.109375 
Q 46.6875 8.109375 53.6875 14.9375 
Q 60.6875 21.78125 60.6875 36.53125 
Q 60.6875 51.171875 53.6875 57.984375 
Q 46.6875 64.796875 31.59375 64.796875 
z
M 9.8125 72.90625 
L 30.078125 72.90625 
Q 51.265625 72.90625 61.171875 64.09375 
Q 71.09375 55.28125 71.09375 36.53125 
Q 71.09375 17.671875 61.125 8.828125 
Q 51.171875 0 30.078125 0 
L 9.8125 0 
z
" id="DejaVuSans-44"/>
     <path d="M 34.28125 27.484375 
Q 23.390625 27.484375 19.1875 25 
Q 14.984375 22.515625 14.984375 16.5 
Q 14.984375 11.71875 18.140625 8.90625 
Q 21.296875 6.109375 26.703125 6.109375 
Q 34.1875 6.109375 38.703125 11.40625 
Q 43.21875 16.703125 43.21875 25.484375 
L 43.21875 27.484375 
z
M 52.203125 31.203125 
L 52.203125 0 
L 43.21875 0 
L 43.21875 8.296875 
Q 40.140625 3.328125 35.546875 0.953125 
Q 30.953125 -1.421875 24.3125 -1.421875 
Q 15.921875 -1.421875 10.953125 3.296875 
Q 6 8.015625 6 15.921875 
Q 6 25.140625 12.171875 29.828125 
Q 18.359375 34.515625 30.609375 34.515625 
L 43.21875 34.515625 
L 43.21875 35.40625 
Q 43.21875 41.609375 39.140625 45 
Q 35.0625 48.390625 27.6875 48.390625 
Q 23 48.390625 18.546875 47.265625 
Q 14.109375 46.140625 10.015625 43.890625 
L 10.015625 52.203125 
Q 14.9375 54.109375 19.578125 55.046875 
Q 24.21875 56 28.609375 56 
Q 40.484375 56 46.34375 49.84375 
Q 52.203125 43.703125 52.203125 31.203125 
z
" id="DejaVuSans-61"/>
     <path d="M 2.984375 54.6875 
L 12.5 54.6875 
L 29.59375 8.796875 
L 46.6875 54.6875 
L 56.203125 54.6875 
L 35.6875 0 
L 23.484375 0 
z
" id="DejaVuSans-76"/>
     <path d="M 9.8125 72.90625 
L 24.515625 72.90625 
L 43.109375 23.296875 
L 61.8125 72.90625 
L 76.515625 72.90625 
L 76.515625 0 
L 66.890625 0 
L 66.890625 64.015625 
L 48.09375 14.015625 
L 38.1875 14.015625 
L 19.390625 64.015625 
L 19.390625 0 
L 9.8125 0 
z
" id="DejaVuSans-4d"/>
     <path d="M 64.40625 67.28125 
L 64.40625 56.890625 
Q 59.421875 61.53125 53.78125 63.8125 
Q 48.140625 66.109375 41.796875 66.109375 
Q 29.296875 66.109375 22.65625 58.46875 
Q 16.015625 50.828125 16.015625 36.375 
Q 16.015625 21.96875 22.65625 14.328125 
Q 29.296875 6.6875 41.796875 6.6875 
Q 48.140625 6.6875 53.78125 8.984375 
Q 59.421875 11.28125 64.40625 15.921875 
L 64.40625 5.609375 
Q 59.234375 2.09375 53.4375 0.328125 
Q 47.65625 -1.421875 41.21875 -1.421875 
Q 24.65625 -1.421875 15.125 8.703125 
Q 5.609375 18.84375 5.609375 36.375 
Q 5.609375 53.953125 15.125 64.078125 
Q 24.65625 74.21875 41.21875 74.21875 
Q 47.75 74.21875 53.53125 72.484375 
Q 59.328125 70.75 64.40625 67.28125 
z
" id="DejaVuSans-43"/>
     <path d="M 8.6875 72.90625 
L 18.609375 72.90625 
L 18.609375 28.609375 
Q 18.609375 16.890625 22.84375 11.734375 
Q 27.09375 6.59375 36.625 6.59375 
Q 46.09375 6.59375 50.34375 11.734375 
Q 54.59375 16.890625 54.59375 28.609375 
L 54.59375 72.90625 
L 64.5 72.90625 
L 64.5 27.390625 
Q 64.5 13.140625 57.4375 5.859375 
Q 50.390625 -1.421875 36.625 -1.421875 
Q 22.796875 -1.421875 15.734375 5.859375 
Q 8.6875 13.140625 8.6875 27.390625 
z
" id="DejaVuSans-55"/>
     <path d="M 54.890625 33.015625 
L 54.890625 0 
L 45.90625 0 
L 45.90625 32.71875 
Q 45.90625 40.484375 42.875 44.328125 
Q 39.84375 48.1875 33.796875 48.1875 
Q 26.515625 48.1875 22.3125 43.546875 
Q 18.109375 38.921875 18.109375 30.90625 
L 18.109375 0 
L 9.078125 0 
L 9.078125 54.6875 
L 18.109375 54.6875 
L 18.109375 46.1875 
Q 21.34375 51.125 25.703125 53.5625 
Q 30.078125 56 35.796875 56 
Q 45.21875 56 50.046875 50.171875 
Q 54.890625 44.34375 54.890625 33.015625 
z
" id="DejaVuSans-6e"/>
     <path d="M 48.78125 52.59375 
L 48.78125 44.1875 
Q 44.96875 46.296875 41.140625 47.34375 
Q 37.3125 48.390625 33.40625 48.390625 
Q 24.65625 48.390625 19.8125 42.84375 
Q 14.984375 37.3125 14.984375 27.296875 
Q 14.984375 17.28125 19.8125 11.734375 
Q 24.65625 6.203125 33.40625 6.203125 
Q 37.3125 6.203125 41.140625 7.25 
Q 44.96875 8.296875 48.78125 10.40625 
L 48.78125 2.09375 
Q 45.015625 0.34375 40.984375 -0.53125 
Q 36.96875 -1.421875 32.421875 -1.421875 
Q 20.0625 -1.421875 12.78125 6.34375 
Q 5.515625 14.109375 5.515625 27.296875 
Q 5.515625 40.671875 12.859375 48.328125 
Q 20.21875 56 33.015625 56 
Q 37.15625 56 41.109375 55.140625 
Q 45.0625 54.296875 48.78125 52.59375 
z
" id="DejaVuSans-63"/>
     <path d="M 41.109375 46.296875 
Q 39.59375 47.171875 37.8125 47.578125 
Q 36.03125 48 33.890625 48 
Q 26.265625 48 22.1875 43.046875 
Q 18.109375 38.09375 18.109375 28.8125 
L 18.109375 0 
L 9.078125 0 
L 9.078125 54.6875 
L 18.109375 54.6875 
L 18.109375 46.1875 
Q 20.953125 51.171875 25.484375 53.578125 
Q 30.03125 56 36.53125 56 
Q 37.453125 56 38.578125 55.875 
Q 39.703125 55.765625 41.0625 55.515625 
z
" id="DejaVuSans-72"/>
     <path d="M 9.421875 54.6875 
L 18.40625 54.6875 
L 18.40625 0 
L 9.421875 0 
z
M 9.421875 75.984375 
L 18.40625 75.984375 
L 18.40625 64.59375 
L 9.421875 64.59375 
z
" id="DejaVuSans-69"/>
     <path d="M 32.171875 -5.078125 
Q 28.375 -14.84375 24.75 -17.8125 
Q 21.140625 -20.796875 15.09375 -20.796875 
L 7.90625 -20.796875 
L 7.90625 -13.28125 
L 13.1875 -13.28125 
Q 16.890625 -13.28125 18.9375 -11.515625 
Q 21 -9.765625 23.484375 -3.21875 
L 25.09375 0.875 
L 2.984375 54.6875 
L 12.5 54.6875 
L 29.59375 11.921875 
L 46.6875 54.6875 
L 56.203125 54.6875 
z
" id="DejaVuSans-79"/>
    </defs>
    <g transform="translate(274.487813 97.68)scale(0.12 -0.12)">
     <use xlink:href="#DejaVuSans-50"/>
     <use x="60.302734" xlink:href="#DejaVuSans-6c"/>
     <use x="88.085938" xlink:href="#DejaVuSans-6f"/>
     <use x="149.267578" xlink:href="#DejaVuSans-74"/>
     <use x="188.476562" xlink:href="#DejaVuSans-20"/>
     <use x="220.263672" xlink:href="#DejaVuSans-6f"/>
     <use x="281.445312" xlink:href="#DejaVuSans-66"/>
     <use x="316.650391" xlink:href="#DejaVuSans-20"/>
     <use x="348.4375" xlink:href="#DejaVuSans-54"/>
     <use x="409.255859" xlink:href="#DejaVuSans-65"/>
     <use x="470.779297" xlink:href="#DejaVuSans-73"/>
     <use x="522.878906" xlink:href="#DejaVuSans-74"/>
     <use x="562.087891" xlink:href="#DejaVuSans-20"/>
     <use x="593.875" xlink:href="#DejaVuSans-44"/>
     <use x="670.876953" xlink:href="#DejaVuSans-61"/>
     <use x="732.15625" xlink:href="#DejaVuSans-74"/>
     <use x="771.365234" xlink:href="#DejaVuSans-61"/>
     <use x="832.644531" xlink:href="#DejaVuSans-20"/>
     <use x="864.431641" xlink:href="#DejaVuSans-76"/>
     <use x="923.611328" xlink:href="#DejaVuSans-73"/>
     <use x="975.710938" xlink:href="#DejaVuSans-20"/>
     <use x="1007.498047" xlink:href="#DejaVuSans-4d"/>
     <use x="1093.777344" xlink:href="#DejaVuSans-43"/>
     <use x="1163.601562" xlink:href="#DejaVuSans-4d"/>
     <use x="1249.880859" xlink:href="#DejaVuSans-43"/>
     <use x="1319.705078" xlink:href="#DejaVuSans-20"/>
     <use x="1351.492188" xlink:href="#DejaVuSans-55"/>
     <use x="1424.685547" xlink:href="#DejaVuSans-6e"/>
     <use x="1488.064453" xlink:href="#DejaVuSans-63"/>
     <use x="1543.044922" xlink:href="#DejaVuSans-65"/>
     <use x="1604.568359" xlink:href="#DejaVuSans-72"/>
     <use x="1645.681641" xlink:href="#DejaVuSans-74"/>
     <use x="1684.890625" xlink:href="#DejaVuSans-61"/>
     <use x="1746.169922" xlink:href="#DejaVuSans-69"/>
     <use x="1773.953125" xlink:href="#DejaVuSans-6e"/>
     <use x="1837.332031" xlink:href="#DejaVuSans-74"/>
     <use x="1876.541016" xlink:href="#DejaVuSans-79"/>
     <use x="1935.720703" xlink:href="#DejaVuSans-20"/>
    </g>
   </g>
   <g id="legend_1">
    <g id="patch_7">
     <path d="M 561.883438 170.3925 
L 691.76 170.3925 
Q 693.76 170.3925 693.76 168.3925 
L 693.76 110.68 
Q 693.76 108.68 691.76 108.68 
L 561.883438 108.68 
Q 559.883438 108.68 559.883438 110.68 
L 559.883438 168.3925 
Q 559.883438 170.3925 561.883438 170.3925 
z
" style="fill:#ffffff;opacity:0.8;stroke:#cccccc;stroke-linejoin:miter;"/>
    </g>
    <g id="line2d_17">
     <path d="M 563.883438 116.778437 
L 583.883438 116.778437 
" style="fill:none;stroke:#1f77b4;stroke-linecap:square;stroke-width:1.5;"/>
    </g>
    <g id="line2d_18"/>
    <g id="text_14">
     <!-- actual -->
     <defs>
      <path d="M 8.5 21.578125 
L 8.5 54.6875 
L 17.484375 54.6875 
L 17.484375 21.921875 
Q 17.484375 14.15625 20.5 10.265625 
Q 23.53125 6.390625 29.59375 6.390625 
Q 36.859375 6.390625 41.078125 11.03125 
Q 45.3125 15.671875 45.3125 23.6875 
L 45.3125 54.6875 
L 54.296875 54.6875 
L 54.296875 0 
L 45.3125 0 
L 45.3125 8.40625 
Q 42.046875 3.421875 37.71875 1 
Q 33.40625 -1.421875 27.6875 -1.421875 
Q 18.265625 -1.421875 13.375 4.4375 
Q 8.5 10.296875 8.5 21.578125 
z
M 31.109375 56 
z
" id="DejaVuSans-75"/>
     </defs>
     <g transform="translate(591.883438 120.278437)scale(0.1 -0.1)">
      <use xlink:href="#DejaVuSans-61"/>
      <use x="61.279297" xlink:href="#DejaVuSans-63"/>
      <use x="116.259766" xlink:href="#DejaVuSans-74"/>
      <use x="155.46875" xlink:href="#DejaVuSans-75"/>
      <use x="218.847656" xlink:href="#DejaVuSans-61"/>
      <use x="280.126953" xlink:href="#DejaVuSans-6c"/>
     </g>
    </g>
    <g id="line2d_19">
     <path d="M 563.883438 131.456562 
L 583.883438 131.456562 
" style="fill:none;stroke:#ff7f0e;stroke-linecap:square;stroke-width:1.5;"/>
    </g>
    <g id="line2d_20"/>
    <g id="text_15">
     <!-- pred. (mean) -->
     <defs>
      <path d="M 18.109375 8.203125 
L 18.109375 -20.796875 
L 9.078125 -20.796875 
L 9.078125 54.6875 
L 18.109375 54.6875 
L 18.109375 46.390625 
Q 20.953125 51.265625 25.265625 53.625 
Q 29.59375 56 35.59375 56 
Q 45.5625 56 51.78125 48.09375 
Q 58.015625 40.1875 58.015625 27.296875 
Q 58.015625 14.40625 51.78125 6.484375 
Q 45.5625 -1.421875 35.59375 -1.421875 
Q 29.59375 -1.421875 25.265625 0.953125 
Q 20.953125 3.328125 18.109375 8.203125 
z
M 48.6875 27.296875 
Q 48.6875 37.203125 44.609375 42.84375 
Q 40.53125 48.484375 33.40625 48.484375 
Q 26.265625 48.484375 22.1875 42.84375 
Q 18.109375 37.203125 18.109375 27.296875 
Q 18.109375 17.390625 22.1875 11.75 
Q 26.265625 6.109375 33.40625 6.109375 
Q 40.53125 6.109375 44.609375 11.75 
Q 48.6875 17.390625 48.6875 27.296875 
z
" id="DejaVuSans-70"/>
      <path d="M 45.40625 46.390625 
L 45.40625 75.984375 
L 54.390625 75.984375 
L 54.390625 0 
L 45.40625 0 
L 45.40625 8.203125 
Q 42.578125 3.328125 38.25 0.953125 
Q 33.9375 -1.421875 27.875 -1.421875 
Q 17.96875 -1.421875 11.734375 6.484375 
Q 5.515625 14.40625 5.515625 27.296875 
Q 5.515625 40.1875 11.734375 48.09375 
Q 17.96875 56 27.875 56 
Q 33.9375 56 38.25 53.625 
Q 42.578125 51.265625 45.40625 46.390625 
z
M 14.796875 27.296875 
Q 14.796875 17.390625 18.875 11.75 
Q 22.953125 6.109375 30.078125 6.109375 
Q 37.203125 6.109375 41.296875 11.75 
Q 45.40625 17.390625 45.40625 27.296875 
Q 45.40625 37.203125 41.296875 42.84375 
Q 37.203125 48.484375 30.078125 48.484375 
Q 22.953125 48.484375 18.875 42.84375 
Q 14.796875 37.203125 14.796875 27.296875 
z
" id="DejaVuSans-64"/>
      <path d="M 31 75.875 
Q 24.46875 64.65625 21.28125 53.65625 
Q 18.109375 42.671875 18.109375 31.390625 
Q 18.109375 20.125 21.3125 9.0625 
Q 24.515625 -2 31 -13.1875 
L 23.1875 -13.1875 
Q 15.875 -1.703125 12.234375 9.375 
Q 8.59375 20.453125 8.59375 31.390625 
Q 8.59375 42.28125 12.203125 53.3125 
Q 15.828125 64.359375 23.1875 75.875 
z
" id="DejaVuSans-28"/>
      <path d="M 52 44.1875 
Q 55.375 50.25 60.0625 53.125 
Q 64.75 56 71.09375 56 
Q 79.640625 56 84.28125 50.015625 
Q 88.921875 44.046875 88.921875 33.015625 
L 88.921875 0 
L 79.890625 0 
L 79.890625 32.71875 
Q 79.890625 40.578125 77.09375 44.375 
Q 74.3125 48.1875 68.609375 48.1875 
Q 61.625 48.1875 57.5625 43.546875 
Q 53.515625 38.921875 53.515625 30.90625 
L 53.515625 0 
L 44.484375 0 
L 44.484375 32.71875 
Q 44.484375 40.625 41.703125 44.40625 
Q 38.921875 48.1875 33.109375 48.1875 
Q 26.21875 48.1875 22.15625 43.53125 
Q 18.109375 38.875 18.109375 30.90625 
L 18.109375 0 
L 9.078125 0 
L 9.078125 54.6875 
L 18.109375 54.6875 
L 18.109375 46.1875 
Q 21.1875 51.21875 25.484375 53.609375 
Q 29.78125 56 35.6875 56 
Q 41.65625 56 45.828125 52.96875 
Q 50 49.953125 52 44.1875 
z
" id="DejaVuSans-6d"/>
      <path d="M 8.015625 75.875 
L 15.828125 75.875 
Q 23.140625 64.359375 26.78125 53.3125 
Q 30.421875 42.28125 30.421875 31.390625 
Q 30.421875 20.453125 26.78125 9.375 
Q 23.140625 -1.703125 15.828125 -13.1875 
L 8.015625 -13.1875 
Q 14.5 -2 17.703125 9.0625 
Q 20.90625 20.125 20.90625 31.390625 
Q 20.90625 42.671875 17.703125 53.65625 
Q 14.5 64.65625 8.015625 75.875 
z
" id="DejaVuSans-29"/>
     </defs>
     <g transform="translate(591.883438 134.956562)scale(0.1 -0.1)">
      <use xlink:href="#DejaVuSans-70"/>
      <use x="63.476562" xlink:href="#DejaVuSans-72"/>
      <use x="104.558594" xlink:href="#DejaVuSans-65"/>
      <use x="166.082031" xlink:href="#DejaVuSans-64"/>
      <use x="229.558594" xlink:href="#DejaVuSans-2e"/>
      <use x="261.345703" xlink:href="#DejaVuSans-20"/>
      <use x="293.132812" xlink:href="#DejaVuSans-28"/>
      <use x="332.146484" xlink:href="#DejaVuSans-6d"/>
      <use x="429.558594" xlink:href="#DejaVuSans-65"/>
      <use x="491.082031" xlink:href="#DejaVuSans-61"/>
      <use x="552.361328" xlink:href="#DejaVuSans-6e"/>
      <use x="615.740234" xlink:href="#DejaVuSans-29"/>
     </g>
    </g>
    <g id="line2d_21">
     <path d="M 563.883438 146.134687 
L 583.883438 146.134687 
" style="fill:none;stroke:#2ca02c;stroke-linecap:square;stroke-width:1.5;"/>
    </g>
    <g id="line2d_22"/>
    <g id="text_16">
     <!-- pred.(5th percen.) -->
     <defs>
      <path d="M 10.796875 72.90625 
L 49.515625 72.90625 
L 49.515625 64.59375 
L 19.828125 64.59375 
L 19.828125 46.734375 
Q 21.96875 47.46875 24.109375 47.828125 
Q 26.265625 48.1875 28.421875 48.1875 
Q 40.625 48.1875 47.75 41.5 
Q 54.890625 34.8125 54.890625 23.390625 
Q 54.890625 11.625 47.5625 5.09375 
Q 40.234375 -1.421875 26.90625 -1.421875 
Q 22.3125 -1.421875 17.546875 -0.640625 
Q 12.796875 0.140625 7.71875 1.703125 
L 7.71875 11.625 
Q 12.109375 9.234375 16.796875 8.0625 
Q 21.484375 6.890625 26.703125 6.890625 
Q 35.15625 6.890625 40.078125 11.328125 
Q 45.015625 15.765625 45.015625 23.390625 
Q 45.015625 31 40.078125 35.4375 
Q 35.15625 39.890625 26.703125 39.890625 
Q 22.75 39.890625 18.8125 39.015625 
Q 14.890625 38.140625 10.796875 36.28125 
z
" id="DejaVuSans-35"/>
      <path d="M 54.890625 33.015625 
L 54.890625 0 
L 45.90625 0 
L 45.90625 32.71875 
Q 45.90625 40.484375 42.875 44.328125 
Q 39.84375 48.1875 33.796875 48.1875 
Q 26.515625 48.1875 22.3125 43.546875 
Q 18.109375 38.921875 18.109375 30.90625 
L 18.109375 0 
L 9.078125 0 
L 9.078125 75.984375 
L 18.109375 75.984375 
L 18.109375 46.1875 
Q 21.34375 51.125 25.703125 53.5625 
Q 30.078125 56 35.796875 56 
Q 45.21875 56 50.046875 50.171875 
Q 54.890625 44.34375 54.890625 33.015625 
z
" id="DejaVuSans-68"/>
     </defs>
     <g transform="translate(591.883438 149.634687)scale(0.1 -0.1)">
      <use xlink:href="#DejaVuSans-70"/>
      <use x="63.476562" xlink:href="#DejaVuSans-72"/>
      <use x="104.558594" xlink:href="#DejaVuSans-65"/>
      <use x="166.082031" xlink:href="#DejaVuSans-64"/>
      <use x="229.558594" xlink:href="#DejaVuSans-2e"/>
      <use x="261.345703" xlink:href="#DejaVuSans-28"/>
      <use x="300.359375" xlink:href="#DejaVuSans-35"/>
      <use x="363.982422" xlink:href="#DejaVuSans-74"/>
      <use x="403.191406" xlink:href="#DejaVuSans-68"/>
      <use x="466.570312" xlink:href="#DejaVuSans-20"/>
      <use x="498.357422" xlink:href="#DejaVuSans-70"/>
      <use x="561.833984" xlink:href="#DejaVuSans-65"/>
      <use x="623.357422" xlink:href="#DejaVuSans-72"/>
      <use x="664.439453" xlink:href="#DejaVuSans-63"/>
      <use x="719.419922" xlink:href="#DejaVuSans-65"/>
      <use x="780.943359" xlink:href="#DejaVuSans-6e"/>
      <use x="844.322266" xlink:href="#DejaVuSans-2e"/>
      <use x="876.109375" xlink:href="#DejaVuSans-29"/>
     </g>
    </g>
    <g id="line2d_23">
     <path d="M 563.883438 160.812812 
L 583.883438 160.812812 
" style="fill:none;stroke:#d62728;stroke-linecap:square;stroke-width:1.5;"/>
    </g>
    <g id="line2d_24"/>
    <g id="text_17">
     <!-- pred.(95th percen.) -->
     <defs>
      <path d="M 10.984375 1.515625 
L 10.984375 10.5 
Q 14.703125 8.734375 18.5 7.8125 
Q 22.3125 6.890625 25.984375 6.890625 
Q 35.75 6.890625 40.890625 13.453125 
Q 46.046875 20.015625 46.78125 33.40625 
Q 43.953125 29.203125 39.59375 26.953125 
Q 35.25 24.703125 29.984375 24.703125 
Q 19.046875 24.703125 12.671875 31.3125 
Q 6.296875 37.9375 6.296875 49.421875 
Q 6.296875 60.640625 12.9375 67.421875 
Q 19.578125 74.21875 30.609375 74.21875 
Q 43.265625 74.21875 49.921875 64.515625 
Q 56.59375 54.828125 56.59375 36.375 
Q 56.59375 19.140625 48.40625 8.859375 
Q 40.234375 -1.421875 26.421875 -1.421875 
Q 22.703125 -1.421875 18.890625 -0.6875 
Q 15.09375 0.046875 10.984375 1.515625 
z
M 30.609375 32.421875 
Q 37.25 32.421875 41.125 36.953125 
Q 45.015625 41.5 45.015625 49.421875 
Q 45.015625 57.28125 41.125 61.84375 
Q 37.25 66.40625 30.609375 66.40625 
Q 23.96875 66.40625 20.09375 61.84375 
Q 16.21875 57.28125 16.21875 49.421875 
Q 16.21875 41.5 20.09375 36.953125 
Q 23.96875 32.421875 30.609375 32.421875 
z
" id="DejaVuSans-39"/>
     </defs>
     <g transform="translate(591.883438 164.312812)scale(0.1 -0.1)">
      <use xlink:href="#DejaVuSans-70"/>
      <use x="63.476562" xlink:href="#DejaVuSans-72"/>
      <use x="104.558594" xlink:href="#DejaVuSans-65"/>
      <use x="166.082031" xlink:href="#DejaVuSans-64"/>
      <use x="229.558594" xlink:href="#DejaVuSans-2e"/>
      <use x="261.345703" xlink:href="#DejaVuSans-28"/>
      <use x="300.359375" xlink:href="#DejaVuSans-39"/>
      <use x="363.982422" xlink:href="#DejaVuSans-35"/>
      <use x="427.605469" xlink:href="#DejaVuSans-74"/>
      <use x="466.814453" xlink:href="#DejaVuSans-68"/>
      <use x="530.193359" xlink:href="#DejaVuSans-20"/>
      <use x="561.980469" xlink:href="#DejaVuSans-70"/>
      <use x="625.457031" xlink:href="#DejaVuSans-65"/>
      <use x="686.980469" xlink:href="#DejaVuSans-72"/>
      <use x="728.0625" xlink:href="#DejaVuSans-63"/>
      <use x="783.042969" xlink:href="#DejaVuSans-65"/>
      <use x="844.566406" xlink:href="#DejaVuSans-6e"/>
      <use x="907.945312" xlink:href="#DejaVuSans-2e"/>
      <use x="939.732422" xlink:href="#DejaVuSans-29"/>
     </g>
    </g>
   </g>
  </g>
 </g>
 <defs>
  <clipPath id="p21fb8d929a">
   <rect height="701.28" width="612.45" x="86.31" y="103.68"/>
  </clipPath>
 </defs>
</svg>
