<?xml version="1.0" encoding="utf-8" standalone="no"?>
<!DOCTYPE svg PUBLIC "-//W3C//DTD SVG 1.1//EN"
  "http://www.w3.org/Graphics/SVG/1.1/DTD/svg11.dtd">
<!-- Created with matplotlib (http://matplotlib.org/) -->
<svg height="864pt" version="1.1" viewBox="0 0 720 864" width="720pt" xmlns="http://www.w3.org/2000/svg" xmlns:xlink="http://www.w3.org/1999/xlink">
 <defs>
  <style type="text/css">
*{stroke-linecap:butt;stroke-linejoin:round;}
  </style>
 </defs>
 <g id="figure_1">
  <g id="patch_1">
   <path d="M 0 864 
L 720 864 
L 720 0 
L 0 0 
z
" style="fill:#ffffff;"/>
  </g>
  <g id="axes_1">
   <g id="patch_2">
    <path d="M 86.31 804.96 
L 698.76 804.96 
L 698.76 103.68 
L 86.31 103.68 
z
" style="fill:#ffffff;"/>
   </g>
   <g id="PolyCollection_1">
    <path clip-path="url(#p094485df15)" d="M 114.148636 135.556364 
L 114.148636 724.466156 
L 116.023292 724.466156 
L 117.897948 724.466156 
L 119.772603 724.466156 
L 121.647259 724.466156 
L 123.521915 717.99462 
L 125.39657 711.523084 
L 127.271226 698.580011 
L 129.145882 679.165403 
L 131.020537 653.279258 
L 132.895193 601.506969 
L 134.769848 543.263143 
L 136.644504 478.547781 
L 138.51916 413.832419 
L 140.393815 362.06013 
L 142.268471 329.702449 
L 144.143127 316.759377 
L 146.017782 290.873232 
L 147.892438 264.987087 
L 149.767094 258.515551 
L 151.641749 252.044015 
L 153.516405 245.572479 
L 155.391061 245.572479 
L 157.265716 258.515551 
L 159.140372 271.458623 
L 161.015028 271.458623 
L 162.889683 284.401696 
L 164.764339 303.816304 
L 166.638994 316.759377 
L 168.51365 336.173985 
L 170.388306 342.645521 
L 172.262961 387.946275 
L 174.137617 420.303956 
L 176.012273 407.360883 
L 177.886928 394.417811 
L 179.761584 400.889347 
L 181.63624 407.360883 
L 183.510895 413.832419 
L 185.385551 413.832419 
L 187.260207 452.661636 
L 189.134862 485.019317 
L 191.009518 497.96239 
L 192.884174 543.263143 
L 194.758829 562.677752 
L 196.633485 569.149288 
L 198.50814 588.563896 
L 200.382796 614.450041 
L 202.257452 627.393113 
L 204.132107 633.86465 
L 206.006763 646.807722 
L 207.881419 666.22233 
L 209.756074 679.165403 
L 211.63073 679.165403 
L 213.505386 679.165403 
L 215.380041 685.636939 
L 217.254697 692.108475 
L 219.129353 698.580011 
L 221.004008 705.051548 
L 222.878664 711.523084 
L 224.75332 717.99462 
L 226.627975 717.99462 
L 228.502631 717.99462 
L 230.377287 717.99462 
L 232.251942 711.523084 
L 234.126598 711.523084 
L 236.001253 711.523084 
L 237.875909 698.580011 
L 239.750565 685.636939 
L 241.62522 672.693867 
L 243.499876 659.750794 
L 245.374532 646.807722 
L 247.249187 627.393113 
L 249.123843 614.450041 
L 250.998499 601.506969 
L 252.873154 582.09236 
L 254.74781 562.677752 
L 256.622466 530.320071 
L 258.497121 510.905462 
L 260.371777 504.433926 
L 262.246433 497.96239 
L 264.121088 491.490854 
L 265.995744 459.133173 
L 267.870399 400.889347 
L 269.745055 349.117058 
L 271.619711 316.759377 
L 273.494366 290.873232 
L 275.369022 277.93016 
L 277.243678 271.458623 
L 279.118333 284.401696 
L 280.992989 277.93016 
L 282.867645 277.93016 
L 284.7423 277.93016 
L 286.616956 290.873232 
L 288.491612 316.759377 
L 290.366267 329.702449 
L 292.240923 362.06013 
L 294.115579 394.417811 
L 295.990234 420.303956 
L 297.86489 433.247028 
L 299.739545 446.1901 
L 301.614201 459.133173 
L 303.488857 478.547781 
L 305.363512 485.019317 
L 307.238168 485.019317 
L 309.112824 485.019317 
L 310.987479 485.019317 
L 312.862135 497.96239 
L 314.736791 497.96239 
L 316.611446 510.905462 
L 318.486102 510.905462 
L 320.360758 517.376998 
L 322.235413 530.320071 
L 324.110069 536.791607 
L 325.984725 549.734679 
L 327.85938 569.149288 
L 329.734036 582.09236 
L 331.608691 595.035432 
L 333.483347 595.035432 
L 335.358003 601.506969 
L 337.232658 620.921577 
L 339.107314 633.86465 
L 340.98197 646.807722 
L 342.856625 659.750794 
L 344.731281 679.165403 
L 346.605937 685.636939 
L 348.480592 692.108475 
L 350.355248 692.108475 
L 352.229904 698.580011 
L 354.104559 705.051548 
L 355.979215 717.99462 
L 357.853871 717.99462 
L 359.728526 724.466156 
L 361.603182 730.937692 
L 363.477837 730.937692 
L 365.352493 737.409228 
L 367.227149 730.937692 
L 369.101804 730.937692 
L 370.97646 730.937692 
L 372.851116 730.937692 
L 374.725771 730.937692 
L 376.600427 724.466156 
L 378.475083 717.99462 
L 380.349738 705.051548 
L 382.224394 692.108475 
L 384.09905 672.693867 
L 385.973705 653.279258 
L 387.848361 633.86465 
L 389.723017 607.978505 
L 391.597672 582.09236 
L 393.472328 549.734679 
L 395.346983 517.376998 
L 397.221639 478.547781 
L 399.096295 439.718564 
L 400.97095 407.360883 
L 402.845606 381.474739 
L 404.720262 368.531666 
L 406.594917 362.06013 
L 408.469573 362.06013 
L 410.344229 355.588594 
L 412.218884 355.588594 
L 414.09354 362.06013 
L 415.968196 362.06013 
L 417.842851 368.531666 
L 419.717507 362.06013 
L 421.592163 381.474739 
L 423.466818 400.889347 
L 425.341474 413.832419 
L 427.216129 433.247028 
L 429.090785 439.718564 
L 430.965441 472.076245 
L 432.840096 478.547781 
L 434.714752 485.019317 
L 436.589408 497.96239 
L 438.464063 517.376998 
L 440.338719 530.320071 
L 442.213375 530.320071 
L 444.08803 549.734679 
L 445.962686 575.620824 
L 447.837342 595.035432 
L 449.711997 595.035432 
L 451.586653 601.506969 
L 453.461309 601.506969 
L 455.335964 601.506969 
L 457.21062 588.563896 
L 459.085275 588.563896 
L 460.959931 588.563896 
L 462.834587 595.035432 
L 464.709242 601.506969 
L 466.583898 614.450041 
L 468.458554 627.393113 
L 470.333209 640.336186 
L 472.207865 653.279258 
L 474.082521 666.22233 
L 475.957176 672.693867 
L 477.831832 679.165403 
L 479.706488 692.108475 
L 481.581143 698.580011 
L 483.455799 705.051548 
L 485.330455 717.99462 
L 487.20511 724.466156 
L 489.079766 730.937692 
L 490.954421 730.937692 
L 492.829077 730.937692 
L 494.703733 730.937692 
L 496.578388 724.466156 
L 498.453044 711.523084 
L 500.3277 705.051548 
L 502.202355 692.108475 
L 504.077011 666.22233 
L 505.951667 640.336186 
L 507.826322 607.978505 
L 509.700978 582.09236 
L 511.575634 536.791607 
L 513.450289 491.490854 
L 515.324945 472.076245 
L 517.199601 452.661636 
L 519.074256 420.303956 
L 520.948912 362.06013 
L 522.823567 323.230913 
L 524.698223 297.344768 
L 526.572879 271.458623 
L 528.447534 258.515551 
L 530.32219 252.044015 
L 532.196846 258.515551 
L 534.071501 264.987087 
L 535.946157 271.458623 
L 537.820813 290.873232 
L 539.695468 310.287841 
L 541.570124 316.759377 
L 543.44478 342.645521 
L 545.319435 349.117058 
L 547.194091 349.117058 
L 549.068747 336.173985 
L 550.943402 336.173985 
L 552.818058 336.173985 
L 554.692713 349.117058 
L 556.567369 387.946275 
L 558.442025 407.360883 
L 560.31668 452.661636 
L 562.191336 485.019317 
L 564.065992 517.376998 
L 565.940647 549.734679 
L 567.815303 556.206215 
L 569.689959 562.677752 
L 571.564614 575.620824 
L 573.43927 595.035432 
L 575.313926 627.393113 
L 577.188581 633.86465 
L 579.063237 653.279258 
L 580.937893 679.165403 
L 582.812548 692.108475 
L 584.687204 698.580011 
L 586.56186 705.051548 
L 588.436515 711.523084 
L 590.311171 717.99462 
L 592.185826 717.99462 
L 594.060482 717.99462 
L 595.935138 717.99462 
L 597.809793 717.99462 
L 599.684449 717.99462 
L 601.559105 717.99462 
L 603.43376 711.523084 
L 605.308416 711.523084 
L 607.183072 717.99462 
L 609.057727 717.99462 
L 610.932383 724.466156 
L 612.807039 724.466156 
L 614.681694 730.937692 
L 616.55635 730.937692 
L 618.431006 737.409228 
L 620.305661 737.409228 
L 622.180317 737.409228 
L 624.054972 737.409228 
L 625.929628 737.409228 
L 627.804284 730.937692 
L 629.678939 730.937692 
L 631.553595 724.466156 
L 633.428251 717.99462 
L 635.302906 705.051548 
L 637.177562 692.108475 
L 639.052218 672.693867 
L 640.926873 659.750794 
L 642.801529 640.336186 
L 644.676185 620.921577 
L 646.55084 601.506969 
L 648.425496 575.620824 
L 650.300152 569.149288 
L 652.174807 556.206215 
L 654.049463 543.263143 
L 655.924118 517.376998 
L 657.798774 510.905462 
L 659.67343 523.848534 
L 661.548085 530.320071 
L 663.422741 517.376998 
L 665.297397 523.848534 
L 667.172052 536.791607 
L 669.046708 536.791607 
L 670.921364 530.320071 
L 670.921364 135.556364 
L 670.921364 135.556364 
L 669.046708 135.556364 
L 667.172052 135.556364 
L 665.297397 135.556364 
L 663.422741 135.556364 
L 661.548085 135.556364 
L 659.67343 135.556364 
L 657.798774 135.556364 
L 655.924118 135.556364 
L 654.049463 135.556364 
L 652.174807 135.556364 
L 650.300152 135.556364 
L 648.425496 135.556364 
L 646.55084 135.556364 
L 644.676185 135.556364 
L 642.801529 135.556364 
L 640.926873 135.556364 
L 639.052218 135.556364 
L 637.177562 135.556364 
L 635.302906 135.556364 
L 633.428251 135.556364 
L 631.553595 135.556364 
L 629.678939 135.556364 
L 627.804284 135.556364 
L 625.929628 135.556364 
L 624.054972 135.556364 
L 622.180317 135.556364 
L 620.305661 135.556364 
L 618.431006 135.556364 
L 616.55635 135.556364 
L 614.681694 135.556364 
L 612.807039 135.556364 
L 610.932383 135.556364 
L 609.057727 135.556364 
L 607.183072 135.556364 
L 605.308416 135.556364 
L 603.43376 135.556364 
L 601.559105 135.556364 
L 599.684449 135.556364 
L 597.809793 135.556364 
L 595.935138 135.556364 
L 594.060482 135.556364 
L 592.185826 135.556364 
L 590.311171 135.556364 
L 588.436515 135.556364 
L 586.56186 135.556364 
L 584.687204 135.556364 
L 582.812548 135.556364 
L 580.937893 135.556364 
L 579.063237 135.556364 
L 577.188581 135.556364 
L 575.313926 135.556364 
L 573.43927 135.556364 
L 571.564614 135.556364 
L 569.689959 135.556364 
L 567.815303 135.556364 
L 565.940647 135.556364 
L 564.065992 135.556364 
L 562.191336 135.556364 
L 560.31668 135.556364 
L 558.442025 135.556364 
L 556.567369 135.556364 
L 554.692713 135.556364 
L 552.818058 135.556364 
L 550.943402 135.556364 
L 549.068747 135.556364 
L 547.194091 135.556364 
L 545.319435 135.556364 
L 543.44478 135.556364 
L 541.570124 135.556364 
L 539.695468 135.556364 
L 537.820813 135.556364 
L 535.946157 135.556364 
L 534.071501 135.556364 
L 532.196846 135.556364 
L 530.32219 135.556364 
L 528.447534 135.556364 
L 526.572879 135.556364 
L 524.698223 135.556364 
L 522.823567 135.556364 
L 520.948912 135.556364 
L 519.074256 135.556364 
L 517.199601 135.556364 
L 515.324945 135.556364 
L 513.450289 135.556364 
L 511.575634 135.556364 
L 509.700978 135.556364 
L 507.826322 135.556364 
L 505.951667 135.556364 
L 504.077011 135.556364 
L 502.202355 135.556364 
L 500.3277 135.556364 
L 498.453044 135.556364 
L 496.578388 135.556364 
L 494.703733 135.556364 
L 492.829077 135.556364 
L 490.954421 135.556364 
L 489.079766 135.556364 
L 487.20511 135.556364 
L 485.330455 135.556364 
L 483.455799 135.556364 
L 481.581143 135.556364 
L 479.706488 135.556364 
L 477.831832 135.556364 
L 475.957176 135.556364 
L 474.082521 135.556364 
L 472.207865 135.556364 
L 470.333209 135.556364 
L 468.458554 135.556364 
L 466.583898 135.556364 
L 464.709242 135.556364 
L 462.834587 135.556364 
L 460.959931 135.556364 
L 459.085275 135.556364 
L 457.21062 135.556364 
L 455.335964 135.556364 
L 453.461309 135.556364 
L 451.586653 135.556364 
L 449.711997 135.556364 
L 447.837342 135.556364 
L 445.962686 135.556364 
L 444.08803 135.556364 
L 442.213375 135.556364 
L 440.338719 135.556364 
L 438.464063 135.556364 
L 436.589408 135.556364 
L 434.714752 135.556364 
L 432.840096 135.556364 
L 430.965441 135.556364 
L 429.090785 135.556364 
L 427.216129 135.556364 
L 425.341474 135.556364 
L 423.466818 135.556364 
L 421.592163 135.556364 
L 419.717507 135.556364 
L 417.842851 135.556364 
L 415.968196 135.556364 
L 414.09354 135.556364 
L 412.218884 135.556364 
L 410.344229 135.556364 
L 408.469573 135.556364 
L 406.594917 135.556364 
L 404.720262 135.556364 
L 402.845606 135.556364 
L 400.97095 135.556364 
L 399.096295 135.556364 
L 397.221639 135.556364 
L 395.346983 135.556364 
L 393.472328 135.556364 
L 391.597672 135.556364 
L 389.723017 135.556364 
L 387.848361 135.556364 
L 385.973705 135.556364 
L 384.09905 135.556364 
L 382.224394 135.556364 
L 380.349738 135.556364 
L 378.475083 135.556364 
L 376.600427 135.556364 
L 374.725771 135.556364 
L 372.851116 135.556364 
L 370.97646 135.556364 
L 369.101804 135.556364 
L 367.227149 135.556364 
L 365.352493 135.556364 
L 363.477837 135.556364 
L 361.603182 135.556364 
L 359.728526 135.556364 
L 357.853871 135.556364 
L 355.979215 135.556364 
L 354.104559 135.556364 
L 352.229904 135.556364 
L 350.355248 135.556364 
L 348.480592 135.556364 
L 346.605937 135.556364 
L 344.731281 135.556364 
L 342.856625 135.556364 
L 340.98197 135.556364 
L 339.107314 135.556364 
L 337.232658 135.556364 
L 335.358003 135.556364 
L 333.483347 135.556364 
L 331.608691 135.556364 
L 329.734036 135.556364 
L 327.85938 135.556364 
L 325.984725 135.556364 
L 324.110069 135.556364 
L 322.235413 135.556364 
L 320.360758 135.556364 
L 318.486102 135.556364 
L 316.611446 135.556364 
L 314.736791 135.556364 
L 312.862135 135.556364 
L 310.987479 135.556364 
L 309.112824 135.556364 
L 307.238168 135.556364 
L 305.363512 135.556364 
L 303.488857 135.556364 
L 301.614201 135.556364 
L 299.739545 135.556364 
L 297.86489 135.556364 
L 295.990234 135.556364 
L 294.115579 135.556364 
L 292.240923 135.556364 
L 290.366267 135.556364 
L 288.491612 135.556364 
L 286.616956 135.556364 
L 284.7423 135.556364 
L 282.867645 135.556364 
L 280.992989 135.556364 
L 279.118333 135.556364 
L 277.243678 135.556364 
L 275.369022 135.556364 
L 273.494366 135.556364 
L 271.619711 135.556364 
L 269.745055 135.556364 
L 267.870399 135.556364 
L 265.995744 135.556364 
L 264.121088 135.556364 
L 262.246433 135.556364 
L 260.371777 135.556364 
L 258.497121 135.556364 
L 256.622466 135.556364 
L 254.74781 135.556364 
L 252.873154 135.556364 
L 250.998499 135.556364 
L 249.123843 135.556364 
L 247.249187 135.556364 
L 245.374532 135.556364 
L 243.499876 135.556364 
L 241.62522 135.556364 
L 239.750565 135.556364 
L 237.875909 135.556364 
L 236.001253 135.556364 
L 234.126598 135.556364 
L 232.251942 135.556364 
L 230.377287 135.556364 
L 228.502631 135.556364 
L 226.627975 135.556364 
L 224.75332 135.556364 
L 222.878664 135.556364 
L 221.004008 135.556364 
L 219.129353 135.556364 
L 217.254697 135.556364 
L 215.380041 135.556364 
L 213.505386 135.556364 
L 211.63073 135.556364 
L 209.756074 135.556364 
L 207.881419 135.556364 
L 206.006763 135.556364 
L 204.132107 135.556364 
L 202.257452 135.556364 
L 200.382796 135.556364 
L 198.50814 135.556364 
L 196.633485 135.556364 
L 194.758829 135.556364 
L 192.884174 135.556364 
L 191.009518 135.556364 
L 189.134862 135.556364 
L 187.260207 135.556364 
L 185.385551 135.556364 
L 183.510895 135.556364 
L 181.63624 135.556364 
L 179.761584 135.556364 
L 177.886928 135.556364 
L 176.012273 135.556364 
L 174.137617 135.556364 
L 172.262961 135.556364 
L 170.388306 135.556364 
L 168.51365 135.556364 
L 166.638994 135.556364 
L 164.764339 135.556364 
L 162.889683 135.556364 
L 161.015028 135.556364 
L 159.140372 135.556364 
L 157.265716 135.556364 
L 155.391061 135.556364 
L 153.516405 135.556364 
L 151.641749 135.556364 
L 149.767094 135.556364 
L 147.892438 135.556364 
L 146.017782 135.556364 
L 144.143127 135.556364 
L 142.268471 135.556364 
L 140.393815 135.556364 
L 138.51916 135.556364 
L 136.644504 135.556364 
L 134.769848 135.556364 
L 132.895193 135.556364 
L 131.020537 135.556364 
L 129.145882 135.556364 
L 127.271226 135.556364 
L 125.39657 135.556364 
L 123.521915 135.556364 
L 121.647259 135.556364 
L 119.772603 135.556364 
L 117.897948 135.556364 
L 116.023292 135.556364 
L 114.148636 135.556364 
z
" style="fill:#008000;fill-opacity:0.4;"/>
   </g>
   <g id="matplotlib.axis_1">
    <g id="xtick_1">
     <g id="line2d_1">
      <defs>
       <path d="M 0 0 
L 0 3.5 
" id="ma0858bd126" style="stroke:#000000;stroke-width:0.8;"/>
      </defs>
      <g>
       <use style="stroke:#000000;stroke-width:0.8;" x="114.148636" xlink:href="#ma0858bd126" y="804.96"/>
      </g>
     </g>
     <g id="text_1">
      <!-- 0.0 -->
      <defs>
       <path d="M 31.78125 66.40625 
Q 24.171875 66.40625 20.328125 58.90625 
Q 16.5 51.421875 16.5 36.375 
Q 16.5 21.390625 20.328125 13.890625 
Q 24.171875 6.390625 31.78125 6.390625 
Q 39.453125 6.390625 43.28125 13.890625 
Q 47.125 21.390625 47.125 36.375 
Q 47.125 51.421875 43.28125 58.90625 
Q 39.453125 66.40625 31.78125 66.40625 
z
M 31.78125 74.21875 
Q 44.046875 74.21875 50.515625 64.515625 
Q 56.984375 54.828125 56.984375 36.375 
Q 56.984375 17.96875 50.515625 8.265625 
Q 44.046875 -1.421875 31.78125 -1.421875 
Q 19.53125 -1.421875 13.0625 8.265625 
Q 6.59375 17.96875 6.59375 36.375 
Q 6.59375 54.828125 13.0625 64.515625 
Q 19.53125 74.21875 31.78125 74.21875 
z
" id="DejaVuSans-30"/>
       <path d="M 10.6875 12.40625 
L 21 12.40625 
L 21 0 
L 10.6875 0 
z
" id="DejaVuSans-2e"/>
      </defs>
      <g transform="translate(106.197074 819.558437)scale(0.1 -0.1)">
       <use xlink:href="#DejaVuSans-30"/>
       <use x="63.623047" xlink:href="#DejaVuSans-2e"/>
       <use x="95.410156" xlink:href="#DejaVuSans-30"/>
      </g>
     </g>
    </g>
    <g id="xtick_2">
     <g id="line2d_2">
      <g>
       <use style="stroke:#000000;stroke-width:0.8;" x="225.503182" xlink:href="#ma0858bd126" y="804.96"/>
      </g>
     </g>
     <g id="text_2">
      <!-- 0.2 -->
      <defs>
       <path d="M 19.1875 8.296875 
L 53.609375 8.296875 
L 53.609375 0 
L 7.328125 0 
L 7.328125 8.296875 
Q 12.9375 14.109375 22.625 23.890625 
Q 32.328125 33.6875 34.8125 36.53125 
Q 39.546875 41.84375 41.421875 45.53125 
Q 43.3125 49.21875 43.3125 52.78125 
Q 43.3125 58.59375 39.234375 62.25 
Q 35.15625 65.921875 28.609375 65.921875 
Q 23.96875 65.921875 18.8125 64.3125 
Q 13.671875 62.703125 7.8125 59.421875 
L 7.8125 69.390625 
Q 13.765625 71.78125 18.9375 73 
Q 24.125 74.21875 28.421875 74.21875 
Q 39.75 74.21875 46.484375 68.546875 
Q 53.21875 62.890625 53.21875 53.421875 
Q 53.21875 48.921875 51.53125 44.890625 
Q 49.859375 40.875 45.40625 35.40625 
Q 44.1875 33.984375 37.640625 27.21875 
Q 31.109375 20.453125 19.1875 8.296875 
z
" id="DejaVuSans-32"/>
      </defs>
      <g transform="translate(217.551619 819.558437)scale(0.1 -0.1)">
       <use xlink:href="#DejaVuSans-30"/>
       <use x="63.623047" xlink:href="#DejaVuSans-2e"/>
       <use x="95.410156" xlink:href="#DejaVuSans-32"/>
      </g>
     </g>
    </g>
    <g id="xtick_3">
     <g id="line2d_3">
      <g>
       <use style="stroke:#000000;stroke-width:0.8;" x="336.857727" xlink:href="#ma0858bd126" y="804.96"/>
      </g>
     </g>
     <g id="text_3">
      <!-- 0.4 -->
      <defs>
       <path d="M 37.796875 64.3125 
L 12.890625 25.390625 
L 37.796875 25.390625 
z
M 35.203125 72.90625 
L 47.609375 72.90625 
L 47.609375 25.390625 
L 58.015625 25.390625 
L 58.015625 17.1875 
L 47.609375 17.1875 
L 47.609375 0 
L 37.796875 0 
L 37.796875 17.1875 
L 4.890625 17.1875 
L 4.890625 26.703125 
z
" id="DejaVuSans-34"/>
      </defs>
      <g transform="translate(328.906165 819.558437)scale(0.1 -0.1)">
       <use xlink:href="#DejaVuSans-30"/>
       <use x="63.623047" xlink:href="#DejaVuSans-2e"/>
       <use x="95.410156" xlink:href="#DejaVuSans-34"/>
      </g>
     </g>
    </g>
    <g id="xtick_4">
     <g id="line2d_4">
      <g>
       <use style="stroke:#000000;stroke-width:0.8;" x="448.212273" xlink:href="#ma0858bd126" y="804.96"/>
      </g>
     </g>
     <g id="text_4">
      <!-- 0.6 -->
      <defs>
       <path d="M 33.015625 40.375 
Q 26.375 40.375 22.484375 35.828125 
Q 18.609375 31.296875 18.609375 23.390625 
Q 18.609375 15.53125 22.484375 10.953125 
Q 26.375 6.390625 33.015625 6.390625 
Q 39.65625 6.390625 43.53125 10.953125 
Q 47.40625 15.53125 47.40625 23.390625 
Q 47.40625 31.296875 43.53125 35.828125 
Q 39.65625 40.375 33.015625 40.375 
z
M 52.59375 71.296875 
L 52.59375 62.3125 
Q 48.875 64.0625 45.09375 64.984375 
Q 41.3125 65.921875 37.59375 65.921875 
Q 27.828125 65.921875 22.671875 59.328125 
Q 17.53125 52.734375 16.796875 39.40625 
Q 19.671875 43.65625 24.015625 45.921875 
Q 28.375 48.1875 33.59375 48.1875 
Q 44.578125 48.1875 50.953125 41.515625 
Q 57.328125 34.859375 57.328125 23.390625 
Q 57.328125 12.15625 50.6875 5.359375 
Q 44.046875 -1.421875 33.015625 -1.421875 
Q 20.359375 -1.421875 13.671875 8.265625 
Q 6.984375 17.96875 6.984375 36.375 
Q 6.984375 53.65625 15.1875 63.9375 
Q 23.390625 74.21875 37.203125 74.21875 
Q 40.921875 74.21875 44.703125 73.484375 
Q 48.484375 72.75 52.59375 71.296875 
z
" id="DejaVuSans-36"/>
      </defs>
      <g transform="translate(440.26071 819.558437)scale(0.1 -0.1)">
       <use xlink:href="#DejaVuSans-30"/>
       <use x="63.623047" xlink:href="#DejaVuSans-2e"/>
       <use x="95.410156" xlink:href="#DejaVuSans-36"/>
      </g>
     </g>
    </g>
    <g id="xtick_5">
     <g id="line2d_5">
      <g>
       <use style="stroke:#000000;stroke-width:0.8;" x="559.566818" xlink:href="#ma0858bd126" y="804.96"/>
      </g>
     </g>
     <g id="text_5">
      <!-- 0.8 -->
      <defs>
       <path d="M 31.78125 34.625 
Q 24.75 34.625 20.71875 30.859375 
Q 16.703125 27.09375 16.703125 20.515625 
Q 16.703125 13.921875 20.71875 10.15625 
Q 24.75 6.390625 31.78125 6.390625 
Q 38.8125 6.390625 42.859375 10.171875 
Q 46.921875 13.96875 46.921875 20.515625 
Q 46.921875 27.09375 42.890625 30.859375 
Q 38.875 34.625 31.78125 34.625 
z
M 21.921875 38.8125 
Q 15.578125 40.375 12.03125 44.71875 
Q 8.5 49.078125 8.5 55.328125 
Q 8.5 64.0625 14.71875 69.140625 
Q 20.953125 74.21875 31.78125 74.21875 
Q 42.671875 74.21875 48.875 69.140625 
Q 55.078125 64.0625 55.078125 55.328125 
Q 55.078125 49.078125 51.53125 44.71875 
Q 48 40.375 41.703125 38.8125 
Q 48.828125 37.15625 52.796875 32.3125 
Q 56.78125 27.484375 56.78125 20.515625 
Q 56.78125 9.90625 50.3125 4.234375 
Q 43.84375 -1.421875 31.78125 -1.421875 
Q 19.734375 -1.421875 13.25 4.234375 
Q 6.78125 9.90625 6.78125 20.515625 
Q 6.78125 27.484375 10.78125 32.3125 
Q 14.796875 37.15625 21.921875 38.8125 
z
M 18.3125 54.390625 
Q 18.3125 48.734375 21.84375 45.5625 
Q 25.390625 42.390625 31.78125 42.390625 
Q 38.140625 42.390625 41.71875 45.5625 
Q 45.3125 48.734375 45.3125 54.390625 
Q 45.3125 60.0625 41.71875 63.234375 
Q 38.140625 66.40625 31.78125 66.40625 
Q 25.390625 66.40625 21.84375 63.234375 
Q 18.3125 60.0625 18.3125 54.390625 
z
" id="DejaVuSans-38"/>
      </defs>
      <g transform="translate(551.615256 819.558437)scale(0.1 -0.1)">
       <use xlink:href="#DejaVuSans-30"/>
       <use x="63.623047" xlink:href="#DejaVuSans-2e"/>
       <use x="95.410156" xlink:href="#DejaVuSans-38"/>
      </g>
     </g>
    </g>
    <g id="xtick_6">
     <g id="line2d_6">
      <g>
       <use style="stroke:#000000;stroke-width:0.8;" x="670.921364" xlink:href="#ma0858bd126" y="804.96"/>
      </g>
     </g>
     <g id="text_6">
      <!-- 1.0 -->
      <defs>
       <path d="M 12.40625 8.296875 
L 28.515625 8.296875 
L 28.515625 63.921875 
L 10.984375 60.40625 
L 10.984375 69.390625 
L 28.421875 72.90625 
L 38.28125 72.90625 
L 38.28125 8.296875 
L 54.390625 8.296875 
L 54.390625 0 
L 12.40625 0 
z
" id="DejaVuSans-31"/>
      </defs>
      <g transform="translate(662.969801 819.558437)scale(0.1 -0.1)">
       <use xlink:href="#DejaVuSans-31"/>
       <use x="63.623047" xlink:href="#DejaVuSans-2e"/>
       <use x="95.410156" xlink:href="#DejaVuSans-30"/>
      </g>
     </g>
    </g>
   </g>
   <g id="matplotlib.axis_2">
    <g id="ytick_1">
     <g id="line2d_7">
      <defs>
       <path d="M 0 0 
L -3.5 0 
" id="m1eddce0d1a" style="stroke:#000000;stroke-width:0.8;"/>
      </defs>
      <g>
       <use style="stroke:#000000;stroke-width:0.8;" x="86.31" xlink:href="#m1eddce0d1a" y="782.709982"/>
      </g>
     </g>
     <g id="text_7">
      <!-- 0.0 -->
      <g transform="translate(63.406875 786.5092)scale(0.1 -0.1)">
       <use xlink:href="#DejaVuSans-30"/>
       <use x="63.623047" xlink:href="#DejaVuSans-2e"/>
       <use x="95.410156" xlink:href="#DejaVuSans-30"/>
      </g>
     </g>
    </g>
    <g id="ytick_2">
     <g id="line2d_8">
      <g>
       <use style="stroke:#000000;stroke-width:0.8;" x="86.31" xlink:href="#m1eddce0d1a" y="653.279258"/>
      </g>
     </g>
     <g id="text_8">
      <!-- 0.2 -->
      <g transform="translate(63.406875 657.078477)scale(0.1 -0.1)">
       <use xlink:href="#DejaVuSans-30"/>
       <use x="63.623047" xlink:href="#DejaVuSans-2e"/>
       <use x="95.410156" xlink:href="#DejaVuSans-32"/>
      </g>
     </g>
    </g>
    <g id="ytick_3">
     <g id="line2d_9">
      <g>
       <use style="stroke:#000000;stroke-width:0.8;" x="86.31" xlink:href="#m1eddce0d1a" y="523.848534"/>
      </g>
     </g>
     <g id="text_9">
      <!-- 0.4 -->
      <g transform="translate(63.406875 527.647753)scale(0.1 -0.1)">
       <use xlink:href="#DejaVuSans-30"/>
       <use x="63.623047" xlink:href="#DejaVuSans-2e"/>
       <use x="95.410156" xlink:href="#DejaVuSans-34"/>
      </g>
     </g>
    </g>
    <g id="ytick_4">
     <g id="line2d_10">
      <g>
       <use style="stroke:#000000;stroke-width:0.8;" x="86.31" xlink:href="#m1eddce0d1a" y="394.417811"/>
      </g>
     </g>
     <g id="text_10">
      <!-- 0.6 -->
      <g transform="translate(63.406875 398.21703)scale(0.1 -0.1)">
       <use xlink:href="#DejaVuSans-30"/>
       <use x="63.623047" xlink:href="#DejaVuSans-2e"/>
       <use x="95.410156" xlink:href="#DejaVuSans-36"/>
      </g>
     </g>
    </g>
    <g id="ytick_5">
     <g id="line2d_11">
      <g>
       <use style="stroke:#000000;stroke-width:0.8;" x="86.31" xlink:href="#m1eddce0d1a" y="264.987087"/>
      </g>
     </g>
     <g id="text_11">
      <!-- 0.8 -->
      <g transform="translate(63.406875 268.786306)scale(0.1 -0.1)">
       <use xlink:href="#DejaVuSans-30"/>
       <use x="63.623047" xlink:href="#DejaVuSans-2e"/>
       <use x="95.410156" xlink:href="#DejaVuSans-38"/>
      </g>
     </g>
    </g>
    <g id="ytick_6">
     <g id="line2d_12">
      <g>
       <use style="stroke:#000000;stroke-width:0.8;" x="86.31" xlink:href="#m1eddce0d1a" y="135.556364"/>
      </g>
     </g>
     <g id="text_12">
      <!-- 1.0 -->
      <g transform="translate(63.406875 139.355582)scale(0.1 -0.1)">
       <use xlink:href="#DejaVuSans-31"/>
       <use x="63.623047" xlink:href="#DejaVuSans-2e"/>
       <use x="95.410156" xlink:href="#DejaVuSans-30"/>
      </g>
     </g>
    </g>
   </g>
   <g id="line2d_13">
    <path clip-path="url(#p094485df15)" d="M 114.148636 749.892886 
L 116.023292 750.330427 
L 117.897948 748.5802 
L 119.772603 745.954827 
L 121.647259 729.327445 
L 123.521915 722.764013 
L 125.39657 704.823749 
L 127.271226 676.382642 
L 129.145882 643.128006 
L 131.020537 587.995048 
L 132.895193 541.613548 
L 134.769848 489.106092 
L 138.51916 374.464771 
L 140.393815 328.083271 
L 142.268471 313.643979 
L 144.143127 274.700863 
L 146.017782 202.503111 
L 147.892438 177.999934 
L 149.767094 172.311453 
L 151.641749 144.745298 
L 153.516405 142.119796 
L 155.391061 163.559995 
L 157.265716 209.942142 
L 159.140372 226.131337 
L 161.015028 230.50739 
L 162.889683 272.075361 
L 164.764339 296.14171 
L 166.638994 322.395438 
L 168.51365 342.523209 
L 170.388306 374.027295 
L 172.262961 423.909248 
L 174.137617 430.035205 
L 176.012273 398.968595 
L 177.886928 405.094551 
L 179.761584 419.533843 
L 181.63624 424.784847 
L 183.510895 419.533843 
L 185.385551 443.162069 
L 187.260207 484.293211 
L 189.134862 497.857551 
L 191.009518 531.112187 
L 192.884174 560.428893 
L 194.758829 564.366823 
L 196.633485 577.056211 
L 198.50814 598.933886 
L 200.382796 619.061658 
L 202.257452 624.750138 
L 204.132107 631.31357 
L 206.006763 655.817395 
L 207.881419 671.131638 
L 209.756074 678.570021 
L 211.63073 672.882188 
L 213.505386 682.946074 
L 215.380041 694.322388 
L 217.254697 700.448344 
L 219.129353 706.136824 
L 221.004008 720.13864 
L 222.878664 735.015796 
L 224.75332 735.015796 
L 226.627975 728.889904 
L 228.502631 731.515277 
L 230.377287 726.702072 
L 232.251942 720.13864 
L 234.126598 718.826018 
L 236.001253 706.136824 
L 237.875909 683.38355 
L 239.750565 658.44225 
L 241.62522 648.378364 
L 243.499876 635.2515 
L 245.374532 614.248776 
L 247.249187 601.121912 
L 249.123843 590.183075 
L 250.998499 577.493687 
L 252.873154 561.303844 
L 254.74781 526.298658 
L 256.622466 514.484869 
L 258.497121 506.170886 
L 260.371777 503.545384 
L 262.246433 498.732503 
L 264.121088 477.291656 
L 269.745055 304.455045 
L 271.619711 272.512837 
L 273.494366 243.634254 
L 275.369022 205.566089 
L 277.243678 237.508297 
L 279.118333 246.259756 
L 280.992989 234.007844 
L 282.867645 235.757747 
L 284.7423 253.260664 
L 286.616956 296.14171 
L 288.491612 321.519839 
L 290.366267 349.961593 
L 292.240923 397.65552 
L 294.115579 420.84627 
L 295.990234 440.536566 
L 297.86489 458.039483 
L 299.739545 461.977413 
L 301.614201 484.730687 
L 303.488857 489.106092 
L 305.363512 490.41852 
L 307.238168 489.106092 
L 309.112824 492.169071 
L 310.987479 501.358005 
L 312.862135 502.232956 
L 314.736791 510.108816 
L 316.611446 516.672248 
L 318.486102 521.048301 
L 320.360758 524.986231 
L 322.235413 538.55057 
L 324.110069 541.176073 
L 325.984725 559.991417 
L 327.85938 576.180612 
L 329.734036 587.995048 
L 331.608691 585.807022 
L 333.483347 590.183075 
L 337.232658 625.62509 
L 339.107314 639.627553 
L 340.98197 651.003866 
L 342.856625 670.694162 
L 344.731281 686.446528 
L 346.605937 692.135008 
L 348.480592 695.197339 
L 350.355248 702.198894 
L 354.104559 726.264531 
L 355.979215 737.203563 
L 357.853871 749.892886 
L 359.728526 759.081627 
L 361.603182 766.082664 
L 363.477837 768.708037 
L 365.352493 766.957745 
L 367.227149 765.645059 
L 369.101804 764.769977 
L 370.97646 758.644086 
L 372.851116 755.581173 
L 374.725771 742.454309 
L 376.600427 731.952817 
L 380.349738 688.634555 
L 382.224394 668.944259 
L 384.09905 640.065028 
L 385.973705 625.187614 
L 387.848361 600.246961 
L 389.723017 570.492779 
L 391.597672 548.17698 
L 395.346983 486.918066 
L 397.221639 452.351003 
L 399.096295 421.284393 
L 402.845606 374.902246 
L 404.720262 372.277391 
L 406.594917 371.839915 
L 408.469573 364.83836 
L 410.344229 353.899523 
L 412.218884 364.83836 
L 414.09354 366.151435 
L 415.968196 372.714867 
L 417.842851 369.214413 
L 419.717507 386.279207 
L 421.592163 407.28193 
L 423.466818 419.096367 
L 425.341474 442.287117 
L 427.216129 447.099998 
L 429.090785 478.604731 
L 432.840096 490.856643 
L 436.589408 516.672248 
L 438.464063 531.112187 
L 440.338719 526.298658 
L 442.213375 540.738597 
L 444.08803 566.116726 
L 445.962686 585.369546 
L 447.837342 590.183075 
L 449.711997 588.432524 
L 453.461309 593.683529 
L 455.335964 581.431616 
L 457.21062 578.806114 
L 459.085275 574.868184 
L 460.959931 581.869092 
L 462.834587 594.55848 
L 464.709242 601.996864 
L 466.583898 619.937257 
L 468.458554 628.688068 
L 470.333209 646.62846 
L 472.207865 655.817395 
L 474.082521 663.693254 
L 475.957176 676.820118 
L 477.831832 690.821934 
L 479.706488 700.88582 
L 481.581143 709.199802 
L 483.455799 729.76505 
L 485.330455 744.642141 
L 487.20511 753.39334 
L 489.079766 759.081627 
L 490.954421 759.519232 
L 492.829077 755.143632 
L 494.703733 742.454309 
L 496.578388 727.577218 
L 500.3277 688.196432 
L 502.202355 660.630276 
L 504.077011 626.063213 
L 505.951667 593.683529 
L 507.826322 575.30566 
L 509.700978 531.987138 
L 511.575634 498.732503 
L 513.450289 479.042207 
L 515.324945 465.477867 
L 517.199601 443.162069 
L 519.074256 373.152343 
L 520.948912 320.207411 
L 522.823567 274.700863 
L 524.698223 225.256385 
L 526.572879 179.312361 
L 528.447534 168.810999 
L 530.32219 171.873978 
L 532.196846 190.251846 
L 534.071501 216.94305 
L 535.946157 255.885519 
L 537.820813 288.702679 
L 539.695468 300.079639 
L 541.570124 332.021848 
L 543.44478 353.462047 
L 545.319435 352.587095 
L 547.194091 340.772659 
L 549.068747 336.834729 
L 550.943402 338.147157 
L 552.818058 341.647611 
L 554.692713 379.715775 
L 556.567369 410.344909 
L 560.31668 486.48059 
L 562.191336 510.108816 
L 564.065992 545.114002 
L 565.940647 555.177888 
L 567.815303 557.365915 
L 569.689959 568.304752 
L 571.564614 583.619643 
L 573.43927 612.06075 
L 575.313926 624.750138 
L 577.188581 640.065028 
L 579.063237 671.569114 
L 580.937893 693.00996 
L 582.812548 704.823749 
L 584.687204 709.637278 
L 586.56186 716.638186 
L 588.436515 728.014758 
L 590.311171 732.390423 
L 592.185826 730.20259 
L 594.060482 733.265504 
L 595.935138 731.077736 
L 597.809793 736.328482 
L 599.684449 725.389385 
L 601.559105 727.139677 
L 603.43376 726.264531 
L 605.308416 727.139677 
L 607.183072 736.328482 
L 609.057727 741.141622 
L 610.932383 751.205573 
L 612.807039 756.018713 
L 614.681694 762.144605 
L 616.55635 767.39535 
L 618.431006 769.583118 
L 620.305661 772.646096 
L 622.180317 773.083636 
L 625.929628 764.332372 
L 627.804284 757.76894 
L 631.553595 728.889904 
L 633.428251 713.575208 
L 635.302906 696.072938 
L 637.177562 661.942704 
L 639.052218 645.753509 
L 640.926873 632.188522 
L 642.801529 609.873371 
L 644.676185 591.932978 
L 646.55084 565.241774 
L 648.425496 564.366823 
L 650.300152 548.17698 
L 652.174807 538.988046 
L 654.049463 522.360728 
L 655.924118 509.67134 
L 657.798774 527.174257 
L 659.67343 529.799112 
L 661.548085 521.048301 
L 663.422741 520.172702 
L 665.297397 535.487592 
L 667.172052 544.239051 
L 669.046708 524.986231 
L 670.921364 521.048301 
L 670.921364 521.048301 
" style="fill:none;stroke:#1f77b4;stroke-linecap:square;stroke-width:1.5;"/>
   </g>
   <g id="line2d_14">
    <path clip-path="url(#p094485df15)" d="M 114.148636 311.896017 
L 116.023292 312.184971 
L 119.772603 312.174455 
L 121.647259 311.763027 
L 123.521915 309.844864 
L 125.39657 308.196725 
L 127.271226 304.388712 
L 129.145882 298.144003 
L 131.020537 288.823211 
L 134.769848 255.522142 
L 138.51916 215.938344 
L 140.393815 200.101524 
L 142.268471 192.61881 
L 144.143127 188.541743 
L 146.017782 178.274003 
L 147.892438 170.940458 
L 149.767094 169.83787 
L 153.516405 166.196661 
L 155.391061 167.022914 
L 157.265716 171.137031 
L 159.140372 175.998773 
L 161.015028 175.664842 
L 162.889683 178.826996 
L 164.764339 184.928684 
L 166.638994 188.428329 
L 168.51365 194.733385 
L 170.388306 197.564035 
L 172.262961 208.800239 
L 174.137617 218.948579 
L 176.012273 215.58613 
L 177.886928 211.361673 
L 179.761584 213.407326 
L 181.63624 216.988027 
L 183.510895 217.452683 
L 185.385551 217.543447 
L 189.134862 237.997546 
L 191.009518 243.845711 
L 192.884174 255.619053 
L 194.758829 263.2079 
L 196.633485 265.734064 
L 198.50814 270.828781 
L 200.382796 277.796684 
L 202.257452 282.699035 
L 204.132107 285.036715 
L 206.006763 288.17444 
L 207.881419 293.719899 
L 209.756074 297.661712 
L 211.63073 298.464344 
L 213.505386 298.613027 
L 215.380041 300.369564 
L 217.254697 302.425571 
L 221.004008 305.635615 
L 222.878664 307.901462 
L 224.75332 309.871721 
L 226.627975 310.007785 
L 228.502631 309.782252 
L 230.377287 309.755718 
L 232.251942 308.463676 
L 234.126598 308.000638 
L 236.001253 306.958721 
L 237.875909 304.613274 
L 241.62522 295.048182 
L 243.499876 291.598529 
L 245.374532 287.788898 
L 247.249187 281.354573 
L 250.998499 274.245914 
L 252.873154 268.995233 
L 254.74781 261.968277 
L 256.622466 252.505112 
L 258.497121 247.412013 
L 260.371777 245.01981 
L 262.246433 244.489305 
L 264.121088 241.584233 
L 265.995744 230.406434 
L 267.870399 210.906563 
L 269.745055 197.37361 
L 271.619711 186.200017 
L 275.369022 175.646883 
L 277.243678 174.377168 
L 279.118333 179.010949 
L 282.867645 176.673269 
L 284.7423 177.795919 
L 286.616956 182.397343 
L 288.491612 189.047331 
L 290.366267 193.779319 
L 292.240923 202.06968 
L 294.115579 211.445642 
L 295.990234 219.431355 
L 297.86489 224.172079 
L 299.739545 228.488756 
L 301.614201 231.00586 
L 303.488857 237.934125 
L 305.363512 238.819916 
L 309.112824 239.2527 
L 310.987479 240.561568 
L 312.862135 243.726635 
L 314.736791 243.334298 
L 316.611446 247.675566 
L 318.486102 248.318513 
L 320.360758 250.219042 
L 322.235413 253.337351 
L 324.110069 255.675032 
L 325.984725 259.145879 
L 327.85938 264.652509 
L 329.734036 269.487232 
L 331.608691 273.142032 
L 333.483347 272.475302 
L 335.358003 275.269064 
L 337.232658 280.34016 
L 339.107314 284.971676 
L 342.856625 292.709045 
L 344.731281 297.489083 
L 346.605937 300.523749 
L 348.480592 302.27074 
L 350.355248 302.609201 
L 352.229904 304.368812 
L 354.104559 306.372238 
L 355.979215 309.045467 
L 357.853871 310.247232 
L 361.603182 313.698017 
L 363.477837 314.053789 
L 365.352493 314.981969 
L 367.227149 314.27916 
L 369.101804 314.242434 
L 372.851116 313.817255 
L 374.725771 313.331404 
L 376.600427 311.76691 
L 378.475083 309.818978 
L 382.224394 301.52085 
L 384.09905 296.027811 
L 387.848361 284.23829 
L 389.723017 276.770784 
L 391.597672 266.448037 
L 393.472328 258.236466 
L 399.096295 224.562798 
L 400.97095 214.623813 
L 402.845606 208.20324 
L 404.720262 203.771694 
L 408.469573 203.685299 
L 410.344229 200.810804 
L 412.218884 200.074182 
L 414.09354 202.159149 
L 415.968196 202.105921 
L 417.842851 203.969561 
L 419.717507 203.01048 
L 421.592163 208.830008 
L 423.466818 214.073247 
L 425.341474 218.425355 
L 427.216129 223.740913 
L 429.090785 226.980726 
L 430.965441 235.521859 
L 432.840096 237.386471 
L 434.714752 240.42874 
L 436.589408 244.3314 
L 438.464063 249.779786 
L 440.338719 252.484888 
L 442.213375 252.952457 
L 444.08803 259.144261 
L 445.962686 266.685057 
L 447.837342 272.255593 
L 449.711997 273.548768 
L 451.586653 273.784979 
L 453.461309 275.115203 
L 455.335964 274.197863 
L 457.21062 271.043151 
L 459.085275 270.093938 
L 460.959931 269.838474 
L 462.834587 271.794011 
L 464.709242 275.251105 
L 470.333209 286.804901 
L 472.207865 290.774865 
L 474.082521 293.814869 
L 477.831832 298.570315 
L 479.706488 302.048119 
L 483.455799 305.976988 
L 485.330455 309.444599 
L 487.20511 311.606416 
L 489.079766 313.014946 
L 490.954421 313.671645 
L 492.829077 313.811916 
L 494.703733 312.509034 
L 496.578388 311.746201 
L 500.3277 305.415583 
L 502.202355 301.182874 
L 504.077011 294.147182 
L 505.951667 285.015845 
L 507.826322 275.207099 
L 509.700978 267.539946 
L 511.575634 252.147074 
L 513.450289 241.028004 
L 515.324945 235.767778 
L 517.199601 229.221172 
L 519.074256 218.706543 
L 520.948912 198.768388 
L 524.698223 180.11014 
L 526.572879 172.631794 
L 528.447534 169.705366 
L 530.32219 169.20188 
L 532.196846 170.31191 
L 534.071501 173.213747 
L 535.946157 176.70595 
L 537.820813 182.287812 
L 539.695468 187.292412 
L 541.570124 188.780057 
L 543.44478 196.858961 
L 545.319435 198.175271 
L 547.194091 198.401128 
L 549.068747 195.353358 
L 550.943402 195.194644 
L 552.818058 195.249652 
L 554.692713 198.303246 
L 556.567369 208.834215 
L 558.442025 216.070525 
L 560.31668 228.560266 
L 562.191336 238.891588 
L 565.940647 258.362499 
L 567.815303 261.804224 
L 569.689959 263.690353 
L 571.564614 267.357611 
L 573.43927 272.942061 
L 575.313926 281.372046 
L 577.188581 285.025067 
L 579.063237 290.228343 
L 580.937893 297.475979 
L 582.812548 302.076108 
L 584.687204 304.403273 
L 590.311171 309.093033 
L 592.185826 309.811697 
L 599.684449 309.956821 
L 601.559105 308.6287 
L 603.43376 308.421611 
L 605.308416 308.452027 
L 607.183072 309.589885 
L 609.057727 310.018463 
L 610.932383 311.554158 
L 612.807039 312.078191 
L 614.681694 313.524741 
L 616.55635 313.914651 
L 618.431006 314.895736 
L 620.305661 315.302796 
L 622.180317 315.485455 
L 624.054972 315.535771 
L 625.929628 315.195368 
L 627.804284 314.134198 
L 629.678939 313.682647 
L 631.553595 311.769499 
L 635.302906 306.408802 
L 637.177562 301.824527 
L 639.052218 295.841107 
L 640.926873 291.316694 
L 642.801529 286.306107 
L 644.676185 280.3311 
L 646.55084 273.313366 
L 648.425496 267.066877 
L 650.300152 264.24642 
L 652.174807 259.482884 
L 654.049463 255.616303 
L 655.924118 249.393112 
L 657.798774 248.332589 
L 659.67343 251.933028 
L 661.548085 252.438617 
L 663.422741 250.319027 
L 665.297397 251.824953 
L 667.172052 255.846366 
L 669.046708 256.030319 
L 670.921364 252.849721 
L 670.921364 252.849721 
" style="fill:none;stroke:#ff7f0e;stroke-linecap:square;stroke-width:1.5;"/>
   </g>
   <g id="line2d_15">
    <path clip-path="url(#p094485df15)" d="M 114.148636 724.466156 
L 121.647259 724.466156 
L 125.39657 711.523084 
L 127.271226 698.580011 
L 129.145882 679.165403 
L 131.020537 653.279258 
L 132.895193 601.506969 
L 134.769848 543.263143 
L 138.51916 413.832419 
L 140.393815 362.06013 
L 142.268471 329.702449 
L 144.143127 316.759377 
L 147.892438 264.987087 
L 153.516405 245.572479 
L 155.391061 245.572479 
L 159.140372 271.458623 
L 161.015028 271.458623 
L 162.889683 284.401696 
L 164.764339 303.816304 
L 166.638994 316.759377 
L 168.51365 336.173985 
L 170.388306 342.645521 
L 172.262961 387.946275 
L 174.137617 420.303956 
L 177.886928 394.417811 
L 183.510895 413.832419 
L 185.385551 413.832419 
L 187.260207 452.661636 
L 189.134862 485.019317 
L 191.009518 497.96239 
L 192.884174 543.263143 
L 194.758829 562.677752 
L 196.633485 569.149288 
L 198.50814 588.563896 
L 200.382796 614.450041 
L 202.257452 627.393113 
L 204.132107 633.86465 
L 206.006763 646.807722 
L 207.881419 666.22233 
L 209.756074 679.165403 
L 213.505386 679.165403 
L 224.75332 717.99462 
L 230.377287 717.99462 
L 232.251942 711.523084 
L 236.001253 711.523084 
L 245.374532 646.807722 
L 247.249187 627.393113 
L 250.998499 601.506969 
L 254.74781 562.677752 
L 256.622466 530.320071 
L 258.497121 510.905462 
L 264.121088 491.490854 
L 265.995744 459.133173 
L 267.870399 400.889347 
L 269.745055 349.117058 
L 271.619711 316.759377 
L 273.494366 290.873232 
L 275.369022 277.93016 
L 277.243678 271.458623 
L 279.118333 284.401696 
L 280.992989 277.93016 
L 284.7423 277.93016 
L 286.616956 290.873232 
L 288.491612 316.759377 
L 290.366267 329.702449 
L 294.115579 394.417811 
L 295.990234 420.303956 
L 301.614201 459.133173 
L 303.488857 478.547781 
L 305.363512 485.019317 
L 310.987479 485.019317 
L 312.862135 497.96239 
L 314.736791 497.96239 
L 316.611446 510.905462 
L 318.486102 510.905462 
L 320.360758 517.376998 
L 322.235413 530.320071 
L 324.110069 536.791607 
L 325.984725 549.734679 
L 327.85938 569.149288 
L 331.608691 595.035432 
L 333.483347 595.035432 
L 335.358003 601.506969 
L 337.232658 620.921577 
L 342.856625 659.750794 
L 344.731281 679.165403 
L 348.480592 692.108475 
L 350.355248 692.108475 
L 354.104559 705.051548 
L 355.979215 717.99462 
L 357.853871 717.99462 
L 361.603182 730.937692 
L 363.477837 730.937692 
L 365.352493 737.409228 
L 367.227149 730.937692 
L 374.725771 730.937692 
L 378.475083 717.99462 
L 382.224394 692.108475 
L 387.848361 633.86465 
L 391.597672 582.09236 
L 395.346983 517.376998 
L 399.096295 439.718564 
L 400.97095 407.360883 
L 402.845606 381.474739 
L 404.720262 368.531666 
L 406.594917 362.06013 
L 408.469573 362.06013 
L 410.344229 355.588594 
L 412.218884 355.588594 
L 414.09354 362.06013 
L 415.968196 362.06013 
L 417.842851 368.531666 
L 419.717507 362.06013 
L 423.466818 400.889347 
L 425.341474 413.832419 
L 427.216129 433.247028 
L 429.090785 439.718564 
L 430.965441 472.076245 
L 434.714752 485.019317 
L 436.589408 497.96239 
L 438.464063 517.376998 
L 440.338719 530.320071 
L 442.213375 530.320071 
L 444.08803 549.734679 
L 445.962686 575.620824 
L 447.837342 595.035432 
L 449.711997 595.035432 
L 451.586653 601.506969 
L 455.335964 601.506969 
L 457.21062 588.563896 
L 460.959931 588.563896 
L 464.709242 601.506969 
L 474.082521 666.22233 
L 477.831832 679.165403 
L 479.706488 692.108475 
L 483.455799 705.051548 
L 485.330455 717.99462 
L 489.079766 730.937692 
L 494.703733 730.937692 
L 496.578388 724.466156 
L 498.453044 711.523084 
L 500.3277 705.051548 
L 502.202355 692.108475 
L 505.951667 640.336186 
L 507.826322 607.978505 
L 509.700978 582.09236 
L 513.450289 491.490854 
L 517.199601 452.661636 
L 519.074256 420.303956 
L 520.948912 362.06013 
L 522.823567 323.230913 
L 526.572879 271.458623 
L 528.447534 258.515551 
L 530.32219 252.044015 
L 535.946157 271.458623 
L 539.695468 310.287841 
L 541.570124 316.759377 
L 543.44478 342.645521 
L 545.319435 349.117058 
L 547.194091 349.117058 
L 549.068747 336.173985 
L 552.818058 336.173985 
L 554.692713 349.117058 
L 556.567369 387.946275 
L 558.442025 407.360883 
L 560.31668 452.661636 
L 565.940647 549.734679 
L 569.689959 562.677752 
L 571.564614 575.620824 
L 573.43927 595.035432 
L 575.313926 627.393113 
L 577.188581 633.86465 
L 579.063237 653.279258 
L 580.937893 679.165403 
L 582.812548 692.108475 
L 590.311171 717.99462 
L 601.559105 717.99462 
L 603.43376 711.523084 
L 605.308416 711.523084 
L 607.183072 717.99462 
L 609.057727 717.99462 
L 610.932383 724.466156 
L 612.807039 724.466156 
L 614.681694 730.937692 
L 616.55635 730.937692 
L 618.431006 737.409228 
L 625.929628 737.409228 
L 627.804284 730.937692 
L 629.678939 730.937692 
L 633.428251 717.99462 
L 637.177562 692.108475 
L 639.052218 672.693867 
L 640.926873 659.750794 
L 646.55084 601.506969 
L 648.425496 575.620824 
L 650.300152 569.149288 
L 654.049463 543.263143 
L 655.924118 517.376998 
L 657.798774 510.905462 
L 659.67343 523.848534 
L 661.548085 530.320071 
L 663.422741 517.376998 
L 665.297397 523.848534 
L 667.172052 536.791607 
L 669.046708 536.791607 
L 670.921364 530.320071 
L 670.921364 530.320071 
" style="fill:none;stroke:#2ca02c;stroke-linecap:square;stroke-width:1.5;"/>
   </g>
   <g id="line2d_16">
    <path clip-path="url(#p094485df15)" d="M 114.148636 135.556364 
L 670.921364 135.556364 
L 670.921364 135.556364 
" style="fill:none;stroke:#d62728;stroke-linecap:square;stroke-width:1.5;"/>
   </g>
   <g id="patch_3">
    <path d="M 86.31 804.96 
L 86.31 103.68 
" style="fill:none;stroke:#000000;stroke-linecap:square;stroke-linejoin:miter;stroke-width:0.8;"/>
   </g>
   <g id="patch_4">
    <path d="M 698.76 804.96 
L 698.76 103.68 
" style="fill:none;stroke:#000000;stroke-linecap:square;stroke-linejoin:miter;stroke-width:0.8;"/>
   </g>
   <g id="patch_5">
    <path d="M 86.31 804.96 
L 698.76 804.96 
" style="fill:none;stroke:#000000;stroke-linecap:square;stroke-linejoin:miter;stroke-width:0.8;"/>
   </g>
   <g id="patch_6">
    <path d="M 86.31 103.68 
L 698.76 103.68 
" style="fill:none;stroke:#000000;stroke-linecap:square;stroke-linejoin:miter;stroke-width:0.8;"/>
   </g>
   <g id="text_13">
    <!-- Plot of Train Data vs MCMC Uncertainty  -->
    <defs>
     <path d="M 19.671875 64.796875 
L 19.671875 37.40625 
L 32.078125 37.40625 
Q 38.96875 37.40625 42.71875 40.96875 
Q 46.484375 44.53125 46.484375 51.125 
Q 46.484375 57.671875 42.71875 61.234375 
Q 38.96875 64.796875 32.078125 64.796875 
z
M 9.8125 72.90625 
L 32.078125 72.90625 
Q 44.34375 72.90625 50.609375 67.359375 
Q 56.890625 61.8125 56.890625 51.125 
Q 56.890625 40.328125 50.609375 34.8125 
Q 44.34375 29.296875 32.078125 29.296875 
L 19.671875 29.296875 
L 19.671875 0 
L 9.8125 0 
z
" id="DejaVuSans-50"/>
     <path d="M 9.421875 75.984375 
L 18.40625 75.984375 
L 18.40625 0 
L 9.421875 0 
z
" id="DejaVuSans-6c"/>
     <path d="M 30.609375 48.390625 
Q 23.390625 48.390625 19.1875 42.75 
Q 14.984375 37.109375 14.984375 27.296875 
Q 14.984375 17.484375 19.15625 11.84375 
Q 23.34375 6.203125 30.609375 6.203125 
Q 37.796875 6.203125 41.984375 11.859375 
Q 46.1875 17.53125 46.1875 27.296875 
Q 46.1875 37.015625 41.984375 42.703125 
Q 37.796875 48.390625 30.609375 48.390625 
z
M 30.609375 56 
Q 42.328125 56 49.015625 48.375 
Q 55.71875 40.765625 55.71875 27.296875 
Q 55.71875 13.875 49.015625 6.21875 
Q 42.328125 -1.421875 30.609375 -1.421875 
Q 18.84375 -1.421875 12.171875 6.21875 
Q 5.515625 13.875 5.515625 27.296875 
Q 5.515625 40.765625 12.171875 48.375 
Q 18.84375 56 30.609375 56 
z
" id="DejaVuSans-6f"/>
     <path d="M 18.3125 70.21875 
L 18.3125 54.6875 
L 36.8125 54.6875 
L 36.8125 47.703125 
L 18.3125 47.703125 
L 18.3125 18.015625 
Q 18.3125 11.328125 20.140625 9.421875 
Q 21.96875 7.515625 27.59375 7.515625 
L 36.8125 7.515625 
L 36.8125 0 
L 27.59375 0 
Q 17.1875 0 13.234375 3.875 
Q 9.28125 7.765625 9.28125 18.015625 
L 9.28125 47.703125 
L 2.6875 47.703125 
L 2.6875 54.6875 
L 9.28125 54.6875 
L 9.28125 70.21875 
z
" id="DejaVuSans-74"/>
     <path id="DejaVuSans-20"/>
     <path d="M 37.109375 75.984375 
L 37.109375 68.5 
L 28.515625 68.5 
Q 23.6875 68.5 21.796875 66.546875 
Q 19.921875 64.59375 19.921875 59.515625 
L 19.921875 54.6875 
L 34.71875 54.6875 
L 34.71875 47.703125 
L 19.921875 47.703125 
L 19.921875 0 
L 10.890625 0 
L 10.890625 47.703125 
L 2.296875 47.703125 
L 2.296875 54.6875 
L 10.890625 54.6875 
L 10.890625 58.5 
Q 10.890625 67.625 15.140625 71.796875 
Q 19.390625 75.984375 28.609375 75.984375 
z
" id="DejaVuSans-66"/>
     <path d="M -0.296875 72.90625 
L 61.375 72.90625 
L 61.375 64.59375 
L 35.5 64.59375 
L 35.5 0 
L 25.59375 0 
L 25.59375 64.59375 
L -0.296875 64.59375 
z
" id="DejaVuSans-54"/>
     <path d="M 41.109375 46.296875 
Q 39.59375 47.171875 37.8125 47.578125 
Q 36.03125 48 33.890625 48 
Q 26.265625 48 22.1875 43.046875 
Q 18.109375 38.09375 18.109375 28.8125 
L 18.109375 0 
L 9.078125 0 
L 9.078125 54.6875 
L 18.109375 54.6875 
L 18.109375 46.1875 
Q 20.953125 51.171875 25.484375 53.578125 
Q 30.03125 56 36.53125 56 
Q 37.453125 56 38.578125 55.875 
Q 39.703125 55.765625 41.0625 55.515625 
z
" id="DejaVuSans-72"/>
     <path d="M 34.28125 27.484375 
Q 23.390625 27.484375 19.1875 25 
Q 14.984375 22.515625 14.984375 16.5 
Q 14.984375 11.71875 18.140625 8.90625 
Q 21.296875 6.109375 26.703125 6.109375 
Q 34.1875 6.109375 38.703125 11.40625 
Q 43.21875 16.703125 43.21875 25.484375 
L 43.21875 27.484375 
z
M 52.203125 31.203125 
L 52.203125 0 
L 43.21875 0 
L 43.21875 8.296875 
Q 40.140625 3.328125 35.546875 0.953125 
Q 30.953125 -1.421875 24.3125 -1.421875 
Q 15.921875 -1.421875 10.953125 3.296875 
Q 6 8.015625 6 15.921875 
Q 6 25.140625 12.171875 29.828125 
Q 18.359375 34.515625 30.609375 34.515625 
L 43.21875 34.515625 
L 43.21875 35.40625 
Q 43.21875 41.609375 39.140625 45 
Q 35.0625 48.390625 27.6875 48.390625 
Q 23 48.390625 18.546875 47.265625 
Q 14.109375 46.140625 10.015625 43.890625 
L 10.015625 52.203125 
Q 14.9375 54.109375 19.578125 55.046875 
Q 24.21875 56 28.609375 56 
Q 40.484375 56 46.34375 49.84375 
Q 52.203125 43.703125 52.203125 31.203125 
z
" id="DejaVuSans-61"/>
     <path d="M 9.421875 54.6875 
L 18.40625 54.6875 
L 18.40625 0 
L 9.421875 0 
z
M 9.421875 75.984375 
L 18.40625 75.984375 
L 18.40625 64.59375 
L 9.421875 64.59375 
z
" id="DejaVuSans-69"/>
     <path d="M 54.890625 33.015625 
L 54.890625 0 
L 45.90625 0 
L 45.90625 32.71875 
Q 45.90625 40.484375 42.875 44.328125 
Q 39.84375 48.1875 33.796875 48.1875 
Q 26.515625 48.1875 22.3125 43.546875 
Q 18.109375 38.921875 18.109375 30.90625 
L 18.109375 0 
L 9.078125 0 
L 9.078125 54.6875 
L 18.109375 54.6875 
L 18.109375 46.1875 
Q 21.34375 51.125 25.703125 53.5625 
Q 30.078125 56 35.796875 56 
Q 45.21875 56 50.046875 50.171875 
Q 54.890625 44.34375 54.890625 33.015625 
z
" id="DejaVuSans-6e"/>
     <path d="M 19.671875 64.796875 
L 19.671875 8.109375 
L 31.59375 8.109375 
Q 46.6875 8.109375 53.6875 14.9375 
Q 60.6875 21.78125 60.6875 36.53125 
Q 60.6875 51.171875 53.6875 57.984375 
Q 46.6875 64.796875 31.59375 64.796875 
z
M 9.8125 72.90625 
L 30.078125 72.90625 
Q 51.265625 72.90625 61.171875 64.09375 
Q 71.09375 55.28125 71.09375 36.53125 
Q 71.09375 17.671875 61.125 8.828125 
Q 51.171875 0 30.078125 0 
L 9.8125 0 
z
" id="DejaVuSans-44"/>
     <path d="M 2.984375 54.6875 
L 12.5 54.6875 
L 29.59375 8.796875 
L 46.6875 54.6875 
L 56.203125 54.6875 
L 35.6875 0 
L 23.484375 0 
z
" id="DejaVuSans-76"/>
     <path d="M 44.28125 53.078125 
L 44.28125 44.578125 
Q 40.484375 46.53125 36.375 47.5 
Q 32.28125 48.484375 27.875 48.484375 
Q 21.1875 48.484375 17.84375 46.4375 
Q 14.5 44.390625 14.5 40.28125 
Q 14.5 37.15625 16.890625 35.375 
Q 19.28125 33.59375 26.515625 31.984375 
L 29.59375 31.296875 
Q 39.15625 29.25 43.1875 25.515625 
Q 47.21875 21.78125 47.21875 15.09375 
Q 47.21875 7.46875 41.1875 3.015625 
Q 35.15625 -1.421875 24.609375 -1.421875 
Q 20.21875 -1.421875 15.453125 -0.5625 
Q 10.6875 0.296875 5.421875 2 
L 5.421875 11.28125 
Q 10.40625 8.6875 15.234375 7.390625 
Q 20.0625 6.109375 24.8125 6.109375 
Q 31.15625 6.109375 34.5625 8.28125 
Q 37.984375 10.453125 37.984375 14.40625 
Q 37.984375 18.0625 35.515625 20.015625 
Q 33.0625 21.96875 24.703125 23.78125 
L 21.578125 24.515625 
Q 13.234375 26.265625 9.515625 29.90625 
Q 5.8125 33.546875 5.8125 39.890625 
Q 5.8125 47.609375 11.28125 51.796875 
Q 16.75 56 26.8125 56 
Q 31.78125 56 36.171875 55.265625 
Q 40.578125 54.546875 44.28125 53.078125 
z
" id="DejaVuSans-73"/>
     <path d="M 9.8125 72.90625 
L 24.515625 72.90625 
L 43.109375 23.296875 
L 61.8125 72.90625 
L 76.515625 72.90625 
L 76.515625 0 
L 66.890625 0 
L 66.890625 64.015625 
L 48.09375 14.015625 
L 38.1875 14.015625 
L 19.390625 64.015625 
L 19.390625 0 
L 9.8125 0 
z
" id="DejaVuSans-4d"/>
     <path d="M 64.40625 67.28125 
L 64.40625 56.890625 
Q 59.421875 61.53125 53.78125 63.8125 
Q 48.140625 66.109375 41.796875 66.109375 
Q 29.296875 66.109375 22.65625 58.46875 
Q 16.015625 50.828125 16.015625 36.375 
Q 16.015625 21.96875 22.65625 14.328125 
Q 29.296875 6.6875 41.796875 6.6875 
Q 48.140625 6.6875 53.78125 8.984375 
Q 59.421875 11.28125 64.40625 15.921875 
L 64.40625 5.609375 
Q 59.234375 2.09375 53.4375 0.328125 
Q 47.65625 -1.421875 41.21875 -1.421875 
Q 24.65625 -1.421875 15.125 8.703125 
Q 5.609375 18.84375 5.609375 36.375 
Q 5.609375 53.953125 15.125 64.078125 
Q 24.65625 74.21875 41.21875 74.21875 
Q 47.75 74.21875 53.53125 72.484375 
Q 59.328125 70.75 64.40625 67.28125 
z
" id="DejaVuSans-43"/>
     <path d="M 8.6875 72.90625 
L 18.609375 72.90625 
L 18.609375 28.609375 
Q 18.609375 16.890625 22.84375 11.734375 
Q 27.09375 6.59375 36.625 6.59375 
Q 46.09375 6.59375 50.34375 11.734375 
Q 54.59375 16.890625 54.59375 28.609375 
L 54.59375 72.90625 
L 64.5 72.90625 
L 64.5 27.390625 
Q 64.5 13.140625 57.4375 5.859375 
Q 50.390625 -1.421875 36.625 -1.421875 
Q 22.796875 -1.421875 15.734375 5.859375 
Q 8.6875 13.140625 8.6875 27.390625 
z
" id="DejaVuSans-55"/>
     <path d="M 48.78125 52.59375 
L 48.78125 44.1875 
Q 44.96875 46.296875 41.140625 47.34375 
Q 37.3125 48.390625 33.40625 48.390625 
Q 24.65625 48.390625 19.8125 42.84375 
Q 14.984375 37.3125 14.984375 27.296875 
Q 14.984375 17.28125 19.8125 11.734375 
Q 24.65625 6.203125 33.40625 6.203125 
Q 37.3125 6.203125 41.140625 7.25 
Q 44.96875 8.296875 48.78125 10.40625 
L 48.78125 2.09375 
Q 45.015625 0.34375 40.984375 -0.53125 
Q 36.96875 -1.421875 32.421875 -1.421875 
Q 20.0625 -1.421875 12.78125 6.34375 
Q 5.515625 14.109375 5.515625 27.296875 
Q 5.515625 40.671875 12.859375 48.328125 
Q 20.21875 56 33.015625 56 
Q 37.15625 56 41.109375 55.140625 
Q 45.0625 54.296875 48.78125 52.59375 
z
" id="DejaVuSans-63"/>
     <path d="M 56.203125 29.59375 
L 56.203125 25.203125 
L 14.890625 25.203125 
Q 15.484375 15.921875 20.484375 11.0625 
Q 25.484375 6.203125 34.421875 6.203125 
Q 39.59375 6.203125 44.453125 7.46875 
Q 49.3125 8.734375 54.109375 11.28125 
L 54.109375 2.78125 
Q 49.265625 0.734375 44.1875 -0.34375 
Q 39.109375 -1.421875 33.890625 -1.421875 
Q 20.796875 -1.421875 13.15625 6.1875 
Q 5.515625 13.8125 5.515625 26.8125 
Q 5.515625 40.234375 12.765625 48.109375 
Q 20.015625 56 32.328125 56 
Q 43.359375 56 49.78125 48.890625 
Q 56.203125 41.796875 56.203125 29.59375 
z
M 47.21875 32.234375 
Q 47.125 39.59375 43.09375 43.984375 
Q 39.0625 48.390625 32.421875 48.390625 
Q 24.90625 48.390625 20.390625 44.140625 
Q 15.875 39.890625 15.1875 32.171875 
z
" id="DejaVuSans-65"/>
     <path d="M 32.171875 -5.078125 
Q 28.375 -14.84375 24.75 -17.8125 
Q 21.140625 -20.796875 15.09375 -20.796875 
L 7.90625 -20.796875 
L 7.90625 -13.28125 
L 13.1875 -13.28125 
Q 16.890625 -13.28125 18.9375 -11.515625 
Q 21 -9.765625 23.484375 -3.21875 
L 25.09375 0.875 
L 2.984375 54.6875 
L 12.5 54.6875 
L 29.59375 11.921875 
L 46.6875 54.6875 
L 56.203125 54.6875 
z
" id="DejaVuSans-79"/>
    </defs>
    <g transform="translate(272.041875 97.68)scale(0.12 -0.12)">
     <use xlink:href="#DejaVuSans-50"/>
     <use x="60.302734" xlink:href="#DejaVuSans-6c"/>
     <use x="88.085938" xlink:href="#DejaVuSans-6f"/>
     <use x="149.267578" xlink:href="#DejaVuSans-74"/>
     <use x="188.476562" xlink:href="#DejaVuSans-20"/>
     <use x="220.263672" xlink:href="#DejaVuSans-6f"/>
     <use x="281.445312" xlink:href="#DejaVuSans-66"/>
     <use x="316.650391" xlink:href="#DejaVuSans-20"/>
     <use x="348.4375" xlink:href="#DejaVuSans-54"/>
     <use x="409.302734" xlink:href="#DejaVuSans-72"/>
     <use x="450.416016" xlink:href="#DejaVuSans-61"/>
     <use x="511.695312" xlink:href="#DejaVuSans-69"/>
     <use x="539.478516" xlink:href="#DejaVuSans-6e"/>
     <use x="602.857422" xlink:href="#DejaVuSans-20"/>
     <use x="634.644531" xlink:href="#DejaVuSans-44"/>
     <use x="711.646484" xlink:href="#DejaVuSans-61"/>
     <use x="772.925781" xlink:href="#DejaVuSans-74"/>
     <use x="812.134766" xlink:href="#DejaVuSans-61"/>
     <use x="873.414062" xlink:href="#DejaVuSans-20"/>
     <use x="905.201172" xlink:href="#DejaVuSans-76"/>
     <use x="964.380859" xlink:href="#DejaVuSans-73"/>
     <use x="1016.480469" xlink:href="#DejaVuSans-20"/>
     <use x="1048.267578" xlink:href="#DejaVuSans-4d"/>
     <use x="1134.546875" xlink:href="#DejaVuSans-43"/>
     <use x="1204.371094" xlink:href="#DejaVuSans-4d"/>
     <use x="1290.650391" xlink:href="#DejaVuSans-43"/>
     <use x="1360.474609" xlink:href="#DejaVuSans-20"/>
     <use x="1392.261719" xlink:href="#DejaVuSans-55"/>
     <use x="1465.455078" xlink:href="#DejaVuSans-6e"/>
     <use x="1528.833984" xlink:href="#DejaVuSans-63"/>
     <use x="1583.814453" xlink:href="#DejaVuSans-65"/>
     <use x="1645.337891" xlink:href="#DejaVuSans-72"/>
     <use x="1686.451172" xlink:href="#DejaVuSans-74"/>
     <use x="1725.660156" xlink:href="#DejaVuSans-61"/>
     <use x="1786.939453" xlink:href="#DejaVuSans-69"/>
     <use x="1814.722656" xlink:href="#DejaVuSans-6e"/>
     <use x="1878.101562" xlink:href="#DejaVuSans-74"/>
     <use x="1917.310547" xlink:href="#DejaVuSans-79"/>
     <use x="1976.490234" xlink:href="#DejaVuSans-20"/>
    </g>
   </g>
   <g id="legend_1">
    <g id="patch_7">
     <path d="M 561.883438 170.3925 
L 691.76 170.3925 
Q 693.76 170.3925 693.76 168.3925 
L 693.76 110.68 
Q 693.76 108.68 691.76 108.68 
L 561.883438 108.68 
Q 559.883438 108.68 559.883438 110.68 
L 559.883438 168.3925 
Q 559.883438 170.3925 561.883438 170.3925 
z
" style="fill:#ffffff;opacity:0.8;stroke:#cccccc;stroke-linejoin:miter;"/>
    </g>
    <g id="line2d_17">
     <path d="M 563.883438 116.778437 
L 583.883438 116.778437 
" style="fill:none;stroke:#1f77b4;stroke-linecap:square;stroke-width:1.5;"/>
    </g>
    <g id="line2d_18"/>
    <g id="text_14">
     <!-- actual -->
     <defs>
      <path d="M 8.5 21.578125 
L 8.5 54.6875 
L 17.484375 54.6875 
L 17.484375 21.921875 
Q 17.484375 14.15625 20.5 10.265625 
Q 23.53125 6.390625 29.59375 6.390625 
Q 36.859375 6.390625 41.078125 11.03125 
Q 45.3125 15.671875 45.3125 23.6875 
L 45.3125 54.6875 
L 54.296875 54.6875 
L 54.296875 0 
L 45.3125 0 
L 45.3125 8.40625 
Q 42.046875 3.421875 37.71875 1 
Q 33.40625 -1.421875 27.6875 -1.421875 
Q 18.265625 -1.421875 13.375 4.4375 
Q 8.5 10.296875 8.5 21.578125 
z
M 31.109375 56 
z
" id="DejaVuSans-75"/>
     </defs>
     <g transform="translate(591.883438 120.278437)scale(0.1 -0.1)">
      <use xlink:href="#DejaVuSans-61"/>
      <use x="61.279297" xlink:href="#DejaVuSans-63"/>
      <use x="116.259766" xlink:href="#DejaVuSans-74"/>
      <use x="155.46875" xlink:href="#DejaVuSans-75"/>
      <use x="218.847656" xlink:href="#DejaVuSans-61"/>
      <use x="280.126953" xlink:href="#DejaVuSans-6c"/>
     </g>
    </g>
    <g id="line2d_19">
     <path d="M 563.883438 131.456562 
L 583.883438 131.456562 
" style="fill:none;stroke:#ff7f0e;stroke-linecap:square;stroke-width:1.5;"/>
    </g>
    <g id="line2d_20"/>
    <g id="text_15">
     <!-- pred. (mean) -->
     <defs>
      <path d="M 18.109375 8.203125 
L 18.109375 -20.796875 
L 9.078125 -20.796875 
L 9.078125 54.6875 
L 18.109375 54.6875 
L 18.109375 46.390625 
Q 20.953125 51.265625 25.265625 53.625 
Q 29.59375 56 35.59375 56 
Q 45.5625 56 51.78125 48.09375 
Q 58.015625 40.1875 58.015625 27.296875 
Q 58.015625 14.40625 51.78125 6.484375 
Q 45.5625 -1.421875 35.59375 -1.421875 
Q 29.59375 -1.421875 25.265625 0.953125 
Q 20.953125 3.328125 18.109375 8.203125 
z
M 48.6875 27.296875 
Q 48.6875 37.203125 44.609375 42.84375 
Q 40.53125 48.484375 33.40625 48.484375 
Q 26.265625 48.484375 22.1875 42.84375 
Q 18.109375 37.203125 18.109375 27.296875 
Q 18.109375 17.390625 22.1875 11.75 
Q 26.265625 6.109375 33.40625 6.109375 
Q 40.53125 6.109375 44.609375 11.75 
Q 48.6875 17.390625 48.6875 27.296875 
z
" id="DejaVuSans-70"/>
      <path d="M 45.40625 46.390625 
L 45.40625 75.984375 
L 54.390625 75.984375 
L 54.390625 0 
L 45.40625 0 
L 45.40625 8.203125 
Q 42.578125 3.328125 38.25 0.953125 
Q 33.9375 -1.421875 27.875 -1.421875 
Q 17.96875 -1.421875 11.734375 6.484375 
Q 5.515625 14.40625 5.515625 27.296875 
Q 5.515625 40.1875 11.734375 48.09375 
Q 17.96875 56 27.875 56 
Q 33.9375 56 38.25 53.625 
Q 42.578125 51.265625 45.40625 46.390625 
z
M 14.796875 27.296875 
Q 14.796875 17.390625 18.875 11.75 
Q 22.953125 6.109375 30.078125 6.109375 
Q 37.203125 6.109375 41.296875 11.75 
Q 45.40625 17.390625 45.40625 27.296875 
Q 45.40625 37.203125 41.296875 42.84375 
Q 37.203125 48.484375 30.078125 48.484375 
Q 22.953125 48.484375 18.875 42.84375 
Q 14.796875 37.203125 14.796875 27.296875 
z
" id="DejaVuSans-64"/>
      <path d="M 31 75.875 
Q 24.46875 64.65625 21.28125 53.65625 
Q 18.109375 42.671875 18.109375 31.390625 
Q 18.109375 20.125 21.3125 9.0625 
Q 24.515625 -2 31 -13.1875 
L 23.1875 -13.1875 
Q 15.875 -1.703125 12.234375 9.375 
Q 8.59375 20.453125 8.59375 31.390625 
Q 8.59375 42.28125 12.203125 53.3125 
Q 15.828125 64.359375 23.1875 75.875 
z
" id="DejaVuSans-28"/>
      <path d="M 52 44.1875 
Q 55.375 50.25 60.0625 53.125 
Q 64.75 56 71.09375 56 
Q 79.640625 56 84.28125 50.015625 
Q 88.921875 44.046875 88.921875 33.015625 
L 88.921875 0 
L 79.890625 0 
L 79.890625 32.71875 
Q 79.890625 40.578125 77.09375 44.375 
Q 74.3125 48.1875 68.609375 48.1875 
Q 61.625 48.1875 57.5625 43.546875 
Q 53.515625 38.921875 53.515625 30.90625 
L 53.515625 0 
L 44.484375 0 
L 44.484375 32.71875 
Q 44.484375 40.625 41.703125 44.40625 
Q 38.921875 48.1875 33.109375 48.1875 
Q 26.21875 48.1875 22.15625 43.53125 
Q 18.109375 38.875 18.109375 30.90625 
L 18.109375 0 
L 9.078125 0 
L 9.078125 54.6875 
L 18.109375 54.6875 
L 18.109375 46.1875 
Q 21.1875 51.21875 25.484375 53.609375 
Q 29.78125 56 35.6875 56 
Q 41.65625 56 45.828125 52.96875 
Q 50 49.953125 52 44.1875 
z
" id="DejaVuSans-6d"/>
      <path d="M 8.015625 75.875 
L 15.828125 75.875 
Q 23.140625 64.359375 26.78125 53.3125 
Q 30.421875 42.28125 30.421875 31.390625 
Q 30.421875 20.453125 26.78125 9.375 
Q 23.140625 -1.703125 15.828125 -13.1875 
L 8.015625 -13.1875 
Q 14.5 -2 17.703125 9.0625 
Q 20.90625 20.125 20.90625 31.390625 
Q 20.90625 42.671875 17.703125 53.65625 
Q 14.5 64.65625 8.015625 75.875 
z
" id="DejaVuSans-29"/>
     </defs>
     <g transform="translate(591.883438 134.956562)scale(0.1 -0.1)">
      <use xlink:href="#DejaVuSans-70"/>
      <use x="63.476562" xlink:href="#DejaVuSans-72"/>
      <use x="104.558594" xlink:href="#DejaVuSans-65"/>
      <use x="166.082031" xlink:href="#DejaVuSans-64"/>
      <use x="229.558594" xlink:href="#DejaVuSans-2e"/>
      <use x="261.345703" xlink:href="#DejaVuSans-20"/>
      <use x="293.132812" xlink:href="#DejaVuSans-28"/>
      <use x="332.146484" xlink:href="#DejaVuSans-6d"/>
      <use x="429.558594" xlink:href="#DejaVuSans-65"/>
      <use x="491.082031" xlink:href="#DejaVuSans-61"/>
      <use x="552.361328" xlink:href="#DejaVuSans-6e"/>
      <use x="615.740234" xlink:href="#DejaVuSans-29"/>
     </g>
    </g>
    <g id="line2d_21">
     <path d="M 563.883438 146.134687 
L 583.883438 146.134687 
" style="fill:none;stroke:#2ca02c;stroke-linecap:square;stroke-width:1.5;"/>
    </g>
    <g id="line2d_22"/>
    <g id="text_16">
     <!-- pred.(5th percen.) -->
     <defs>
      <path d="M 10.796875 72.90625 
L 49.515625 72.90625 
L 49.515625 64.59375 
L 19.828125 64.59375 
L 19.828125 46.734375 
Q 21.96875 47.46875 24.109375 47.828125 
Q 26.265625 48.1875 28.421875 48.1875 
Q 40.625 48.1875 47.75 41.5 
Q 54.890625 34.8125 54.890625 23.390625 
Q 54.890625 11.625 47.5625 5.09375 
Q 40.234375 -1.421875 26.90625 -1.421875 
Q 22.3125 -1.421875 17.546875 -0.640625 
Q 12.796875 0.140625 7.71875 1.703125 
L 7.71875 11.625 
Q 12.109375 9.234375 16.796875 8.0625 
Q 21.484375 6.890625 26.703125 6.890625 
Q 35.15625 6.890625 40.078125 11.328125 
Q 45.015625 15.765625 45.015625 23.390625 
Q 45.015625 31 40.078125 35.4375 
Q 35.15625 39.890625 26.703125 39.890625 
Q 22.75 39.890625 18.8125 39.015625 
Q 14.890625 38.140625 10.796875 36.28125 
z
" id="DejaVuSans-35"/>
      <path d="M 54.890625 33.015625 
L 54.890625 0 
L 45.90625 0 
L 45.90625 32.71875 
Q 45.90625 40.484375 42.875 44.328125 
Q 39.84375 48.1875 33.796875 48.1875 
Q 26.515625 48.1875 22.3125 43.546875 
Q 18.109375 38.921875 18.109375 30.90625 
L 18.109375 0 
L 9.078125 0 
L 9.078125 75.984375 
L 18.109375 75.984375 
L 18.109375 46.1875 
Q 21.34375 51.125 25.703125 53.5625 
Q 30.078125 56 35.796875 56 
Q 45.21875 56 50.046875 50.171875 
Q 54.890625 44.34375 54.890625 33.015625 
z
" id="DejaVuSans-68"/>
     </defs>
     <g transform="translate(591.883438 149.634687)scale(0.1 -0.1)">
      <use xlink:href="#DejaVuSans-70"/>
      <use x="63.476562" xlink:href="#DejaVuSans-72"/>
      <use x="104.558594" xlink:href="#DejaVuSans-65"/>
      <use x="166.082031" xlink:href="#DejaVuSans-64"/>
      <use x="229.558594" xlink:href="#DejaVuSans-2e"/>
      <use x="261.345703" xlink:href="#DejaVuSans-28"/>
      <use x="300.359375" xlink:href="#DejaVuSans-35"/>
      <use x="363.982422" xlink:href="#DejaVuSans-74"/>
      <use x="403.191406" xlink:href="#DejaVuSans-68"/>
      <use x="466.570312" xlink:href="#DejaVuSans-20"/>
      <use x="498.357422" xlink:href="#DejaVuSans-70"/>
      <use x="561.833984" xlink:href="#DejaVuSans-65"/>
      <use x="623.357422" xlink:href="#DejaVuSans-72"/>
      <use x="664.439453" xlink:href="#DejaVuSans-63"/>
      <use x="719.419922" xlink:href="#DejaVuSans-65"/>
      <use x="780.943359" xlink:href="#DejaVuSans-6e"/>
      <use x="844.322266" xlink:href="#DejaVuSans-2e"/>
      <use x="876.109375" xlink:href="#DejaVuSans-29"/>
     </g>
    </g>
    <g id="line2d_23">
     <path d="M 563.883438 160.812812 
L 583.883438 160.812812 
" style="fill:none;stroke:#d62728;stroke-linecap:square;stroke-width:1.5;"/>
    </g>
    <g id="line2d_24"/>
    <g id="text_17">
     <!-- pred.(95th percen.) -->
     <defs>
      <path d="M 10.984375 1.515625 
L 10.984375 10.5 
Q 14.703125 8.734375 18.5 7.8125 
Q 22.3125 6.890625 25.984375 6.890625 
Q 35.75 6.890625 40.890625 13.453125 
Q 46.046875 20.015625 46.78125 33.40625 
Q 43.953125 29.203125 39.59375 26.953125 
Q 35.25 24.703125 29.984375 24.703125 
Q 19.046875 24.703125 12.671875 31.3125 
Q 6.296875 37.9375 6.296875 49.421875 
Q 6.296875 60.640625 12.9375 67.421875 
Q 19.578125 74.21875 30.609375 74.21875 
Q 43.265625 74.21875 49.921875 64.515625 
Q 56.59375 54.828125 56.59375 36.375 
Q 56.59375 19.140625 48.40625 8.859375 
Q 40.234375 -1.421875 26.421875 -1.421875 
Q 22.703125 -1.421875 18.890625 -0.6875 
Q 15.09375 0.046875 10.984375 1.515625 
z
M 30.609375 32.421875 
Q 37.25 32.421875 41.125 36.953125 
Q 45.015625 41.5 45.015625 49.421875 
Q 45.015625 57.28125 41.125 61.84375 
Q 37.25 66.40625 30.609375 66.40625 
Q 23.96875 66.40625 20.09375 61.84375 
Q 16.21875 57.28125 16.21875 49.421875 
Q 16.21875 41.5 20.09375 36.953125 
Q 23.96875 32.421875 30.609375 32.421875 
z
" id="DejaVuSans-39"/>
     </defs>
     <g transform="translate(591.883438 164.312812)scale(0.1 -0.1)">
      <use xlink:href="#DejaVuSans-70"/>
      <use x="63.476562" xlink:href="#DejaVuSans-72"/>
      <use x="104.558594" xlink:href="#DejaVuSans-65"/>
      <use x="166.082031" xlink:href="#DejaVuSans-64"/>
      <use x="229.558594" xlink:href="#DejaVuSans-2e"/>
      <use x="261.345703" xlink:href="#DejaVuSans-28"/>
      <use x="300.359375" xlink:href="#DejaVuSans-39"/>
      <use x="363.982422" xlink:href="#DejaVuSans-35"/>
      <use x="427.605469" xlink:href="#DejaVuSans-74"/>
      <use x="466.814453" xlink:href="#DejaVuSans-68"/>
      <use x="530.193359" xlink:href="#DejaVuSans-20"/>
      <use x="561.980469" xlink:href="#DejaVuSans-70"/>
      <use x="625.457031" xlink:href="#DejaVuSans-65"/>
      <use x="686.980469" xlink:href="#DejaVuSans-72"/>
      <use x="728.0625" xlink:href="#DejaVuSans-63"/>
      <use x="783.042969" xlink:href="#DejaVuSans-65"/>
      <use x="844.566406" xlink:href="#DejaVuSans-6e"/>
      <use x="907.945312" xlink:href="#DejaVuSans-2e"/>
      <use x="939.732422" xlink:href="#DejaVuSans-29"/>
     </g>
    </g>
   </g>
  </g>
 </g>
 <defs>
  <clipPath id="p094485df15">
   <rect height="701.28" width="612.45" x="86.31" y="103.68"/>
  </clipPath>
 </defs>
</svg>
