<?xml version="1.0" encoding="utf-8" standalone="no"?>
<!DOCTYPE svg PUBLIC "-//W3C//DTD SVG 1.1//EN"
  "http://www.w3.org/Graphics/SVG/1.1/DTD/svg11.dtd">
<!-- Created with matplotlib (http://matplotlib.org/) -->
<svg height="864pt" version="1.1" viewBox="0 0 720 864" width="720pt" xmlns="http://www.w3.org/2000/svg" xmlns:xlink="http://www.w3.org/1999/xlink">
 <defs>
  <style type="text/css">
*{stroke-linecap:butt;stroke-linejoin:round;}
  </style>
 </defs>
 <g id="figure_1">
  <g id="patch_1">
   <path d="M 0 864 
L 720 864 
L 720 0 
L 0 0 
z
" style="fill:#ffffff;"/>
  </g>
  <g id="axes_1">
   <g id="patch_2">
    <path d="M 56.09 822.04 
L 706.68 822.04 
L 706.68 103.68 
L 56.09 103.68 
z
" style="fill:#ffffff;"/>
   </g>
   <g id="PolyCollection_1">
    <path clip-path="url(#p341d4fd2ff)" d="M 85.662273 269.01387 
L 85.662273 707.882267 
L 88.664534 707.882267 
L 91.666795 707.882267 
L 94.669056 707.882267 
L 97.671317 707.882267 
L 100.673579 707.882267 
L 103.67584 707.882267 
L 106.678101 707.882267 
L 109.680362 707.882267 
L 112.682623 707.882267 
L 115.684885 707.882267 
L 118.687146 707.882267 
L 121.689407 707.882267 
L 124.691668 707.882267 
L 127.693929 697.676025 
L 130.696191 697.676025 
L 133.698452 697.676025 
L 136.700713 697.676025 
L 139.702974 697.676025 
L 142.705235 707.882267 
L 145.707497 718.088509 
L 148.709758 718.088509 
L 151.712019 718.088509 
L 154.71428 718.088509 
L 157.716541 718.088509 
L 160.718802 718.088509 
L 163.721064 718.088509 
L 166.723325 728.294751 
L 169.725586 728.294751 
L 172.727847 728.294751 
L 175.730108 728.294751 
L 178.73237 728.294751 
L 181.734631 728.294751 
L 184.736892 728.294751 
L 187.739153 728.294751 
L 190.741414 728.294751 
L 193.743676 728.294751 
L 196.745937 728.294751 
L 199.748198 728.294751 
L 202.750459 728.294751 
L 205.75272 728.294751 
L 208.754982 728.294751 
L 211.757243 728.294751 
L 214.759504 718.088509 
L 217.761765 707.882267 
L 220.764026 697.676025 
L 223.766287 697.676025 
L 226.768549 697.676025 
L 229.77081 697.676025 
L 232.773071 707.882267 
L 235.775332 707.882267 
L 238.777593 707.882267 
L 241.779855 707.882267 
L 244.782116 707.882267 
L 247.784377 707.882267 
L 250.786638 707.882267 
L 253.788899 707.882267 
L 256.791161 707.882267 
L 259.793422 718.088509 
L 262.795683 718.088509 
L 265.797944 718.088509 
L 268.800205 718.088509 
L 271.802467 718.088509 
L 274.804728 718.088509 
L 277.806989 718.088509 
L 280.80925 718.088509 
L 283.811511 707.882267 
L 286.813772 707.882267 
L 289.816034 707.882267 
L 292.818295 707.882267 
L 295.820556 707.882267 
L 298.822817 707.882267 
L 301.825078 707.882267 
L 304.82734 707.882267 
L 307.829601 707.882267 
L 310.831862 707.882267 
L 313.834123 707.882267 
L 316.836384 707.882267 
L 319.838646 697.676025 
L 322.840907 697.676025 
L 325.843168 697.676025 
L 328.845429 697.676025 
L 331.84769 697.676025 
L 334.849952 697.676025 
L 337.852213 697.676025 
L 340.854474 697.676025 
L 343.856735 697.676025 
L 346.858996 697.676025 
L 349.861257 697.676025 
L 352.863519 697.676025 
L 355.86578 697.676025 
L 358.868041 697.676025 
L 361.870302 697.676025 
L 364.872563 707.882267 
L 367.874825 707.882267 
L 370.877086 718.088509 
L 373.879347 718.088509 
L 376.881608 718.088509 
L 379.883869 718.088509 
L 382.886131 718.088509 
L 385.888392 718.088509 
L 388.890653 718.088509 
L 391.892914 728.294751 
L 394.895175 728.294751 
L 397.897437 728.294751 
L 400.899698 738.500992 
L 403.901959 738.500992 
L 406.90422 738.500992 
L 409.906481 738.500992 
L 412.908743 738.500992 
L 415.911004 738.500992 
L 418.913265 738.500992 
L 421.915526 738.500992 
L 424.917787 728.294751 
L 427.920048 728.294751 
L 430.92231 728.294751 
L 433.924571 718.088509 
L 436.926832 707.882267 
L 439.929093 707.882267 
L 442.931354 697.676025 
L 445.933616 697.676025 
L 448.935877 697.676025 
L 451.938138 697.676025 
L 454.940399 697.676025 
L 457.94266 697.676025 
L 460.944922 697.676025 
L 463.947183 707.882267 
L 466.949444 707.882267 
L 469.951705 707.882267 
L 472.953966 707.882267 
L 475.956228 707.882267 
L 478.958489 707.882267 
L 481.96075 707.882267 
L 484.963011 707.882267 
L 487.965272 707.882267 
L 490.967533 707.882267 
L 493.969795 707.882267 
L 496.972056 707.882267 
L 499.974317 707.882267 
L 502.976578 707.882267 
L 505.978839 707.882267 
L 508.981101 707.882267 
L 511.983362 707.882267 
L 514.985623 707.882267 
L 517.987884 707.882267 
L 520.990145 707.882267 
L 523.992407 707.882267 
L 526.994668 707.882267 
L 529.996929 707.882267 
L 532.99919 707.882267 
L 536.001451 707.882267 
L 539.003713 707.882267 
L 542.005974 707.882267 
L 545.008235 707.882267 
L 548.010496 697.676025 
L 551.012757 697.676025 
L 554.015018 697.676025 
L 557.01728 697.676025 
L 560.019541 697.676025 
L 563.021802 697.676025 
L 566.024063 697.676025 
L 569.026324 697.676025 
L 572.028586 707.882267 
L 575.030847 718.088509 
L 578.033108 718.088509 
L 581.035369 718.088509 
L 584.03763 728.294751 
L 587.039892 728.294751 
L 590.042153 738.500992 
L 593.044414 738.500992 
L 596.046675 738.500992 
L 599.048936 738.500992 
L 602.051198 738.500992 
L 605.053459 738.500992 
L 608.05572 738.500992 
L 611.057981 738.500992 
L 614.060242 738.500992 
L 617.062503 738.500992 
L 620.064765 738.500992 
L 623.067026 738.500992 
L 626.069287 738.500992 
L 629.071548 738.500992 
L 632.073809 738.500992 
L 635.076071 728.294751 
L 638.078332 728.294751 
L 641.080593 718.088509 
L 644.082854 718.088509 
L 647.085115 697.676025 
L 650.087377 697.676025 
L 653.089638 697.676025 
L 656.091899 697.676025 
L 659.09416 707.882267 
L 662.096421 707.882267 
L 665.098683 707.882267 
L 668.100944 707.882267 
L 671.103205 707.882267 
L 674.105466 707.882267 
L 677.107727 707.882267 
L 677.107727 371.076288 
L 677.107727 371.076288 
L 674.105466 381.28253 
L 671.103205 381.28253 
L 668.100944 371.076288 
L 665.098683 371.076288 
L 662.096421 381.28253 
L 659.09416 391.488772 
L 656.091899 391.488772 
L 653.089638 391.488772 
L 650.087377 401.695014 
L 647.085115 401.695014 
L 644.082854 411.901255 
L 641.080593 422.107497 
L 638.078332 422.107497 
L 635.076071 422.107497 
L 632.073809 422.107497 
L 629.071548 422.107497 
L 626.069287 422.107497 
L 623.067026 422.107497 
L 620.064765 422.107497 
L 617.062503 422.107497 
L 614.060242 422.107497 
L 611.057981 422.107497 
L 608.05572 422.107497 
L 605.053459 422.107497 
L 602.051198 422.107497 
L 599.048936 422.107497 
L 596.046675 422.107497 
L 593.044414 422.107497 
L 590.042153 422.107497 
L 587.039892 422.107497 
L 584.03763 422.107497 
L 581.035369 422.107497 
L 578.033108 422.107497 
L 575.030847 411.901255 
L 572.028586 422.107497 
L 569.026324 422.107497 
L 566.024063 411.901255 
L 563.021802 401.695014 
L 560.019541 401.695014 
L 557.01728 401.695014 
L 554.015018 401.695014 
L 551.012757 391.488772 
L 548.010496 391.488772 
L 545.008235 391.488772 
L 542.005974 381.28253 
L 539.003713 381.28253 
L 536.001451 381.28253 
L 532.99919 381.28253 
L 529.996929 381.28253 
L 526.994668 381.28253 
L 523.992407 381.28253 
L 520.990145 381.28253 
L 517.987884 381.28253 
L 514.985623 350.663805 
L 511.983362 340.457563 
L 508.981101 381.28253 
L 505.978839 360.870046 
L 502.976578 340.457563 
L 499.974317 340.457563 
L 496.972056 381.28253 
L 493.969795 360.870046 
L 490.967533 330.251321 
L 487.965272 340.457563 
L 484.963011 350.663805 
L 481.96075 350.663805 
L 478.958489 340.457563 
L 475.956228 360.870046 
L 472.953966 381.28253 
L 469.951705 381.28253 
L 466.949444 381.28253 
L 463.947183 381.28253 
L 460.944922 391.488772 
L 457.94266 391.488772 
L 454.940399 391.488772 
L 451.938138 401.695014 
L 448.935877 401.695014 
L 445.933616 401.695014 
L 442.931354 401.695014 
L 439.929093 411.901255 
L 436.926832 411.901255 
L 433.924571 411.901255 
L 430.92231 422.107497 
L 427.920048 422.107497 
L 424.917787 422.107497 
L 421.915526 422.107497 
L 418.913265 422.107497 
L 415.911004 422.107497 
L 412.908743 422.107497 
L 409.906481 422.107497 
L 406.90422 422.107497 
L 403.901959 422.107497 
L 400.899698 422.107497 
L 397.897437 422.107497 
L 394.895175 422.107497 
L 391.892914 422.107497 
L 388.890653 422.107497 
L 385.888392 422.107497 
L 382.886131 422.107497 
L 379.883869 422.107497 
L 376.881608 422.107497 
L 373.879347 422.107497 
L 370.877086 422.107497 
L 367.874825 422.107497 
L 364.872563 411.901255 
L 361.870302 411.901255 
L 358.868041 411.901255 
L 355.86578 411.901255 
L 352.863519 401.695014 
L 349.861257 401.695014 
L 346.858996 401.695014 
L 343.856735 401.695014 
L 340.854474 401.695014 
L 337.852213 401.695014 
L 334.849952 411.901255 
L 331.84769 401.695014 
L 328.845429 401.695014 
L 325.843168 401.695014 
L 322.840907 401.695014 
L 319.838646 391.488772 
L 316.836384 391.488772 
L 313.834123 391.488772 
L 310.831862 391.488772 
L 307.829601 381.28253 
L 304.82734 371.076288 
L 301.825078 350.663805 
L 298.822817 330.251321 
L 295.820556 320.045079 
L 292.818295 299.632596 
L 289.816034 269.01387 
L 286.813772 228.188903 
L 283.811511 217.982662 
L 280.80925 197.570178 
L 277.806989 166.951453 
L 274.804728 156.745211 
L 271.802467 136.332727 
L 268.800205 146.538969 
L 265.797944 146.538969 
L 262.795683 156.745211 
L 259.793422 166.951453 
L 256.791161 187.363936 
L 253.788899 207.77642 
L 250.786638 228.188903 
L 247.784377 238.395145 
L 244.782116 258.807629 
L 241.779855 299.632596 
L 238.777593 320.045079 
L 235.775332 371.076288 
L 232.773071 381.28253 
L 229.77081 391.488772 
L 226.768549 401.695014 
L 223.766287 401.695014 
L 220.764026 401.695014 
L 217.761765 401.695014 
L 214.759504 411.901255 
L 211.757243 422.107497 
L 208.754982 422.107497 
L 205.75272 422.107497 
L 202.750459 422.107497 
L 199.748198 422.107497 
L 196.745937 422.107497 
L 193.743676 422.107497 
L 190.741414 422.107497 
L 187.739153 422.107497 
L 184.736892 422.107497 
L 181.734631 422.107497 
L 178.73237 422.107497 
L 175.730108 422.107497 
L 172.727847 422.107497 
L 169.725586 422.107497 
L 166.723325 422.107497 
L 163.721064 422.107497 
L 160.718802 422.107497 
L 157.716541 422.107497 
L 154.71428 411.901255 
L 151.712019 422.107497 
L 148.709758 422.107497 
L 145.707497 422.107497 
L 142.705235 422.107497 
L 139.702974 411.901255 
L 136.700713 411.901255 
L 133.698452 401.695014 
L 130.696191 401.695014 
L 127.693929 401.695014 
L 124.691668 391.488772 
L 121.689407 391.488772 
L 118.687146 381.28253 
L 115.684885 381.28253 
L 112.682623 371.076288 
L 109.680362 371.076288 
L 106.678101 381.28253 
L 103.67584 360.870046 
L 100.673579 320.045079 
L 97.671317 269.01387 
L 94.669056 248.601387 
L 91.666795 248.601387 
L 88.664534 248.601387 
L 85.662273 269.01387 
z
" style="fill:#008000;fill-opacity:0.4;"/>
   </g>
   <g id="matplotlib.axis_1">
    <g id="xtick_1">
     <g id="line2d_1">
      <defs>
       <path d="M 0 0 
L 0 3.5 
" id="mefee3c7f6b" style="stroke:#000000;stroke-width:0.8;"/>
      </defs>
      <g>
       <use style="stroke:#000000;stroke-width:0.8;" x="85.662273" xlink:href="#mefee3c7f6b" y="822.04"/>
      </g>
     </g>
     <g id="text_1">
      <!-- 0.0 -->
      <defs>
       <path d="M 31.78125 66.40625 
Q 24.171875 66.40625 20.328125 58.90625 
Q 16.5 51.421875 16.5 36.375 
Q 16.5 21.390625 20.328125 13.890625 
Q 24.171875 6.390625 31.78125 6.390625 
Q 39.453125 6.390625 43.28125 13.890625 
Q 47.125 21.390625 47.125 36.375 
Q 47.125 51.421875 43.28125 58.90625 
Q 39.453125 66.40625 31.78125 66.40625 
z
M 31.78125 74.21875 
Q 44.046875 74.21875 50.515625 64.515625 
Q 56.984375 54.828125 56.984375 36.375 
Q 56.984375 17.96875 50.515625 8.265625 
Q 44.046875 -1.421875 31.78125 -1.421875 
Q 19.53125 -1.421875 13.0625 8.265625 
Q 6.59375 17.96875 6.59375 36.375 
Q 6.59375 54.828125 13.0625 64.515625 
Q 19.53125 74.21875 31.78125 74.21875 
z
" id="DejaVuSans-30"/>
       <path d="M 10.6875 12.40625 
L 21 12.40625 
L 21 0 
L 10.6875 0 
z
" id="DejaVuSans-2e"/>
      </defs>
      <g transform="translate(77.71071 836.638438)scale(0.1 -0.1)">
       <use xlink:href="#DejaVuSans-30"/>
       <use x="63.623047" xlink:href="#DejaVuSans-2e"/>
       <use x="95.410156" xlink:href="#DejaVuSans-30"/>
      </g>
     </g>
    </g>
    <g id="xtick_2">
     <g id="line2d_2">
      <g>
       <use style="stroke:#000000;stroke-width:0.8;" x="203.951364" xlink:href="#mefee3c7f6b" y="822.04"/>
      </g>
     </g>
     <g id="text_2">
      <!-- 0.2 -->
      <defs>
       <path d="M 19.1875 8.296875 
L 53.609375 8.296875 
L 53.609375 0 
L 7.328125 0 
L 7.328125 8.296875 
Q 12.9375 14.109375 22.625 23.890625 
Q 32.328125 33.6875 34.8125 36.53125 
Q 39.546875 41.84375 41.421875 45.53125 
Q 43.3125 49.21875 43.3125 52.78125 
Q 43.3125 58.59375 39.234375 62.25 
Q 35.15625 65.921875 28.609375 65.921875 
Q 23.96875 65.921875 18.8125 64.3125 
Q 13.671875 62.703125 7.8125 59.421875 
L 7.8125 69.390625 
Q 13.765625 71.78125 18.9375 73 
Q 24.125 74.21875 28.421875 74.21875 
Q 39.75 74.21875 46.484375 68.546875 
Q 53.21875 62.890625 53.21875 53.421875 
Q 53.21875 48.921875 51.53125 44.890625 
Q 49.859375 40.875 45.40625 35.40625 
Q 44.1875 33.984375 37.640625 27.21875 
Q 31.109375 20.453125 19.1875 8.296875 
z
" id="DejaVuSans-32"/>
      </defs>
      <g transform="translate(195.999801 836.638438)scale(0.1 -0.1)">
       <use xlink:href="#DejaVuSans-30"/>
       <use x="63.623047" xlink:href="#DejaVuSans-2e"/>
       <use x="95.410156" xlink:href="#DejaVuSans-32"/>
      </g>
     </g>
    </g>
    <g id="xtick_3">
     <g id="line2d_3">
      <g>
       <use style="stroke:#000000;stroke-width:0.8;" x="322.240455" xlink:href="#mefee3c7f6b" y="822.04"/>
      </g>
     </g>
     <g id="text_3">
      <!-- 0.4 -->
      <defs>
       <path d="M 37.796875 64.3125 
L 12.890625 25.390625 
L 37.796875 25.390625 
z
M 35.203125 72.90625 
L 47.609375 72.90625 
L 47.609375 25.390625 
L 58.015625 25.390625 
L 58.015625 17.1875 
L 47.609375 17.1875 
L 47.609375 0 
L 37.796875 0 
L 37.796875 17.1875 
L 4.890625 17.1875 
L 4.890625 26.703125 
z
" id="DejaVuSans-34"/>
      </defs>
      <g transform="translate(314.288892 836.638438)scale(0.1 -0.1)">
       <use xlink:href="#DejaVuSans-30"/>
       <use x="63.623047" xlink:href="#DejaVuSans-2e"/>
       <use x="95.410156" xlink:href="#DejaVuSans-34"/>
      </g>
     </g>
    </g>
    <g id="xtick_4">
     <g id="line2d_4">
      <g>
       <use style="stroke:#000000;stroke-width:0.8;" x="440.529545" xlink:href="#mefee3c7f6b" y="822.04"/>
      </g>
     </g>
     <g id="text_4">
      <!-- 0.6 -->
      <defs>
       <path d="M 33.015625 40.375 
Q 26.375 40.375 22.484375 35.828125 
Q 18.609375 31.296875 18.609375 23.390625 
Q 18.609375 15.53125 22.484375 10.953125 
Q 26.375 6.390625 33.015625 6.390625 
Q 39.65625 6.390625 43.53125 10.953125 
Q 47.40625 15.53125 47.40625 23.390625 
Q 47.40625 31.296875 43.53125 35.828125 
Q 39.65625 40.375 33.015625 40.375 
z
M 52.59375 71.296875 
L 52.59375 62.3125 
Q 48.875 64.0625 45.09375 64.984375 
Q 41.3125 65.921875 37.59375 65.921875 
Q 27.828125 65.921875 22.671875 59.328125 
Q 17.53125 52.734375 16.796875 39.40625 
Q 19.671875 43.65625 24.015625 45.921875 
Q 28.375 48.1875 33.59375 48.1875 
Q 44.578125 48.1875 50.953125 41.515625 
Q 57.328125 34.859375 57.328125 23.390625 
Q 57.328125 12.15625 50.6875 5.359375 
Q 44.046875 -1.421875 33.015625 -1.421875 
Q 20.359375 -1.421875 13.671875 8.265625 
Q 6.984375 17.96875 6.984375 36.375 
Q 6.984375 53.65625 15.1875 63.9375 
Q 23.390625 74.21875 37.203125 74.21875 
Q 40.921875 74.21875 44.703125 73.484375 
Q 48.484375 72.75 52.59375 71.296875 
z
" id="DejaVuSans-36"/>
      </defs>
      <g transform="translate(432.577983 836.638438)scale(0.1 -0.1)">
       <use xlink:href="#DejaVuSans-30"/>
       <use x="63.623047" xlink:href="#DejaVuSans-2e"/>
       <use x="95.410156" xlink:href="#DejaVuSans-36"/>
      </g>
     </g>
    </g>
    <g id="xtick_5">
     <g id="line2d_5">
      <g>
       <use style="stroke:#000000;stroke-width:0.8;" x="558.818636" xlink:href="#mefee3c7f6b" y="822.04"/>
      </g>
     </g>
     <g id="text_5">
      <!-- 0.8 -->
      <defs>
       <path d="M 31.78125 34.625 
Q 24.75 34.625 20.71875 30.859375 
Q 16.703125 27.09375 16.703125 20.515625 
Q 16.703125 13.921875 20.71875 10.15625 
Q 24.75 6.390625 31.78125 6.390625 
Q 38.8125 6.390625 42.859375 10.171875 
Q 46.921875 13.96875 46.921875 20.515625 
Q 46.921875 27.09375 42.890625 30.859375 
Q 38.875 34.625 31.78125 34.625 
z
M 21.921875 38.8125 
Q 15.578125 40.375 12.03125 44.71875 
Q 8.5 49.078125 8.5 55.328125 
Q 8.5 64.0625 14.71875 69.140625 
Q 20.953125 74.21875 31.78125 74.21875 
Q 42.671875 74.21875 48.875 69.140625 
Q 55.078125 64.0625 55.078125 55.328125 
Q 55.078125 49.078125 51.53125 44.71875 
Q 48 40.375 41.703125 38.8125 
Q 48.828125 37.15625 52.796875 32.3125 
Q 56.78125 27.484375 56.78125 20.515625 
Q 56.78125 9.90625 50.3125 4.234375 
Q 43.84375 -1.421875 31.78125 -1.421875 
Q 19.734375 -1.421875 13.25 4.234375 
Q 6.78125 9.90625 6.78125 20.515625 
Q 6.78125 27.484375 10.78125 32.3125 
Q 14.796875 37.15625 21.921875 38.8125 
z
M 18.3125 54.390625 
Q 18.3125 48.734375 21.84375 45.5625 
Q 25.390625 42.390625 31.78125 42.390625 
Q 38.140625 42.390625 41.71875 45.5625 
Q 45.3125 48.734375 45.3125 54.390625 
Q 45.3125 60.0625 41.71875 63.234375 
Q 38.140625 66.40625 31.78125 66.40625 
Q 25.390625 66.40625 21.84375 63.234375 
Q 18.3125 60.0625 18.3125 54.390625 
z
" id="DejaVuSans-38"/>
      </defs>
      <g transform="translate(550.867074 836.638438)scale(0.1 -0.1)">
       <use xlink:href="#DejaVuSans-30"/>
       <use x="63.623047" xlink:href="#DejaVuSans-2e"/>
       <use x="95.410156" xlink:href="#DejaVuSans-38"/>
      </g>
     </g>
    </g>
    <g id="xtick_6">
     <g id="line2d_6">
      <g>
       <use style="stroke:#000000;stroke-width:0.8;" x="677.107727" xlink:href="#mefee3c7f6b" y="822.04"/>
      </g>
     </g>
     <g id="text_6">
      <!-- 1.0 -->
      <defs>
       <path d="M 12.40625 8.296875 
L 28.515625 8.296875 
L 28.515625 63.921875 
L 10.984375 60.40625 
L 10.984375 69.390625 
L 28.421875 72.90625 
L 38.28125 72.90625 
L 38.28125 8.296875 
L 54.390625 8.296875 
L 54.390625 0 
L 12.40625 0 
z
" id="DejaVuSans-31"/>
      </defs>
      <g transform="translate(669.156165 836.638438)scale(0.1 -0.1)">
       <use xlink:href="#DejaVuSans-31"/>
       <use x="63.623047" xlink:href="#DejaVuSans-2e"/>
       <use x="95.410156" xlink:href="#DejaVuSans-30"/>
      </g>
     </g>
    </g>
   </g>
   <g id="matplotlib.axis_2">
    <g id="ytick_1">
     <g id="line2d_7">
      <defs>
       <path d="M 0 0 
L -3.5 0 
" id="m7765e923fb" style="stroke:#000000;stroke-width:0.8;"/>
      </defs>
      <g>
       <use style="stroke:#000000;stroke-width:0.8;" x="56.09" xlink:href="#m7765e923fb" y="799.738443"/>
      </g>
     </g>
     <g id="text_7">
      <!-- 0.0 -->
      <g transform="translate(33.186875 803.537662)scale(0.1 -0.1)">
       <use xlink:href="#DejaVuSans-30"/>
       <use x="63.623047" xlink:href="#DejaVuSans-2e"/>
       <use x="95.410156" xlink:href="#DejaVuSans-30"/>
      </g>
     </g>
    </g>
    <g id="ytick_2">
     <g id="line2d_8">
      <g>
       <use style="stroke:#000000;stroke-width:0.8;" x="56.09" xlink:href="#m7765e923fb" y="697.676025"/>
      </g>
     </g>
     <g id="text_8">
      <!-- 0.1 -->
      <g transform="translate(33.186875 701.475244)scale(0.1 -0.1)">
       <use xlink:href="#DejaVuSans-30"/>
       <use x="63.623047" xlink:href="#DejaVuSans-2e"/>
       <use x="95.410156" xlink:href="#DejaVuSans-31"/>
      </g>
     </g>
    </g>
    <g id="ytick_3">
     <g id="line2d_9">
      <g>
       <use style="stroke:#000000;stroke-width:0.8;" x="56.09" xlink:href="#m7765e923fb" y="595.613607"/>
      </g>
     </g>
     <g id="text_9">
      <!-- 0.2 -->
      <g transform="translate(33.186875 599.412826)scale(0.1 -0.1)">
       <use xlink:href="#DejaVuSans-30"/>
       <use x="63.623047" xlink:href="#DejaVuSans-2e"/>
       <use x="95.410156" xlink:href="#DejaVuSans-32"/>
      </g>
     </g>
    </g>
    <g id="ytick_4">
     <g id="line2d_10">
      <g>
       <use style="stroke:#000000;stroke-width:0.8;" x="56.09" xlink:href="#m7765e923fb" y="493.55119"/>
      </g>
     </g>
     <g id="text_10">
      <!-- 0.3 -->
      <defs>
       <path d="M 40.578125 39.3125 
Q 47.65625 37.796875 51.625 33 
Q 55.609375 28.21875 55.609375 21.1875 
Q 55.609375 10.40625 48.1875 4.484375 
Q 40.765625 -1.421875 27.09375 -1.421875 
Q 22.515625 -1.421875 17.65625 -0.515625 
Q 12.796875 0.390625 7.625 2.203125 
L 7.625 11.71875 
Q 11.71875 9.328125 16.59375 8.109375 
Q 21.484375 6.890625 26.8125 6.890625 
Q 36.078125 6.890625 40.9375 10.546875 
Q 45.796875 14.203125 45.796875 21.1875 
Q 45.796875 27.640625 41.28125 31.265625 
Q 36.765625 34.90625 28.71875 34.90625 
L 20.21875 34.90625 
L 20.21875 43.015625 
L 29.109375 43.015625 
Q 36.375 43.015625 40.234375 45.921875 
Q 44.09375 48.828125 44.09375 54.296875 
Q 44.09375 59.90625 40.109375 62.90625 
Q 36.140625 65.921875 28.71875 65.921875 
Q 24.65625 65.921875 20.015625 65.03125 
Q 15.375 64.15625 9.8125 62.3125 
L 9.8125 71.09375 
Q 15.4375 72.65625 20.34375 73.4375 
Q 25.25 74.21875 29.59375 74.21875 
Q 40.828125 74.21875 47.359375 69.109375 
Q 53.90625 64.015625 53.90625 55.328125 
Q 53.90625 49.265625 50.4375 45.09375 
Q 46.96875 40.921875 40.578125 39.3125 
z
" id="DejaVuSans-33"/>
      </defs>
      <g transform="translate(33.186875 497.350408)scale(0.1 -0.1)">
       <use xlink:href="#DejaVuSans-30"/>
       <use x="63.623047" xlink:href="#DejaVuSans-2e"/>
       <use x="95.410156" xlink:href="#DejaVuSans-33"/>
      </g>
     </g>
    </g>
    <g id="ytick_5">
     <g id="line2d_11">
      <g>
       <use style="stroke:#000000;stroke-width:0.8;" x="56.09" xlink:href="#m7765e923fb" y="391.488772"/>
      </g>
     </g>
     <g id="text_11">
      <!-- 0.4 -->
      <g transform="translate(33.186875 395.287991)scale(0.1 -0.1)">
       <use xlink:href="#DejaVuSans-30"/>
       <use x="63.623047" xlink:href="#DejaVuSans-2e"/>
       <use x="95.410156" xlink:href="#DejaVuSans-34"/>
      </g>
     </g>
    </g>
    <g id="ytick_6">
     <g id="line2d_12">
      <g>
       <use style="stroke:#000000;stroke-width:0.8;" x="56.09" xlink:href="#m7765e923fb" y="289.426354"/>
      </g>
     </g>
     <g id="text_12">
      <!-- 0.5 -->
      <defs>
       <path d="M 10.796875 72.90625 
L 49.515625 72.90625 
L 49.515625 64.59375 
L 19.828125 64.59375 
L 19.828125 46.734375 
Q 21.96875 47.46875 24.109375 47.828125 
Q 26.265625 48.1875 28.421875 48.1875 
Q 40.625 48.1875 47.75 41.5 
Q 54.890625 34.8125 54.890625 23.390625 
Q 54.890625 11.625 47.5625 5.09375 
Q 40.234375 -1.421875 26.90625 -1.421875 
Q 22.3125 -1.421875 17.546875 -0.640625 
Q 12.796875 0.140625 7.71875 1.703125 
L 7.71875 11.625 
Q 12.109375 9.234375 16.796875 8.0625 
Q 21.484375 6.890625 26.703125 6.890625 
Q 35.15625 6.890625 40.078125 11.328125 
Q 45.015625 15.765625 45.015625 23.390625 
Q 45.015625 31 40.078125 35.4375 
Q 35.15625 39.890625 26.703125 39.890625 
Q 22.75 39.890625 18.8125 39.015625 
Q 14.890625 38.140625 10.796875 36.28125 
z
" id="DejaVuSans-35"/>
      </defs>
      <g transform="translate(33.186875 293.225573)scale(0.1 -0.1)">
       <use xlink:href="#DejaVuSans-30"/>
       <use x="63.623047" xlink:href="#DejaVuSans-2e"/>
       <use x="95.410156" xlink:href="#DejaVuSans-35"/>
      </g>
     </g>
    </g>
    <g id="ytick_7">
     <g id="line2d_13">
      <g>
       <use style="stroke:#000000;stroke-width:0.8;" x="56.09" xlink:href="#m7765e923fb" y="187.363936"/>
      </g>
     </g>
     <g id="text_13">
      <!-- 0.6 -->
      <g transform="translate(33.186875 191.163155)scale(0.1 -0.1)">
       <use xlink:href="#DejaVuSans-30"/>
       <use x="63.623047" xlink:href="#DejaVuSans-2e"/>
       <use x="95.410156" xlink:href="#DejaVuSans-36"/>
      </g>
     </g>
    </g>
   </g>
   <g id="line2d_14">
    <path clip-path="url(#p341d4fd2ff)" d="M 85.662273 295.981823 
L 88.664534 284.940711 
L 91.666795 304.95311 
L 94.669056 307.022935 
L 97.671317 353.258231 
L 100.673579 393.972971 
L 103.67584 425.716424 
L 106.678101 418.815984 
L 109.680362 403.6342 
L 112.682623 420.88581 
L 115.684885 433.997769 
L 118.687146 461.60055 
L 121.689407 474.021546 
L 124.691668 517.497074 
L 127.693929 564.422312 
L 133.698452 621.69872 
L 136.700713 638.950331 
L 139.702974 683.805743 
L 142.705235 703.817733 
L 145.707497 710.028436 
L 148.709758 717.619226 
L 151.712019 712.09867 
L 154.71428 710.028436 
L 157.716541 710.028436 
L 160.718802 721.06965 
L 163.721064 740.391801 
L 166.723325 745.912459 
L 169.725586 749.362781 
L 172.727847 759.713952 
L 175.730108 759.713952 
L 178.73237 763.164376 
L 181.734631 754.883439 
L 184.736892 750.742971 
L 187.739153 756.953673 
L 190.741414 756.263629 
L 193.743676 760.403996 
L 196.745937 761.094142 
L 199.748198 765.23461 
L 202.750459 759.713952 
L 205.75272 751.433015 
L 208.754982 740.391801 
L 211.757243 725.210118 
L 214.759504 685.875569 
L 217.761765 638.260389 
L 220.764026 598.235591 
L 223.766287 560.971582 
L 226.768549 506.455962 
L 229.77081 454.70011 
L 232.773071 409.844698 
L 235.775332 371.890746 
L 238.777593 342.217119 
L 241.779855 309.783724 
L 244.782116 293.911997 
L 247.784377 280.110097 
L 250.786638 267.6891 
L 256.791161 229.735149 
L 259.793422 216.62319 
L 262.795683 204.202194 
L 265.797944 211.102634 
L 268.800205 200.751464 
L 271.802467 204.892136 
L 274.804728 229.735149 
L 277.806989 251.817374 
L 280.80925 278.040271 
L 283.811511 279.420155 
L 286.813772 307.713898 
L 289.816034 349.808522 
L 292.818295 356.708962 
L 295.820556 361.539576 
L 298.822817 380.862033 
L 301.825078 398.113643 
L 304.82734 437.447479 
L 310.831862 478.162218 
L 313.834123 503.005231 
L 316.836384 512.66646 
L 319.838646 537.509473 
L 322.840907 556.140967 
L 325.843168 578.914155 
L 328.845429 592.025093 
L 331.84769 616.178164 
L 334.849952 622.388662 
L 340.854474 618.24799 
L 343.856735 623.078604 
L 346.858996 622.388662 
L 349.861257 609.276703 
L 355.86578 648.611559 
L 358.868041 659.652672 
L 361.870302 665.86317 
L 364.872563 695.536797 
L 367.874825 715.548992 
L 370.877086 721.06965 
L 373.879347 724.520074 
L 376.881608 721.759694 
L 379.883869 727.280352 
L 382.886131 726.590308 
L 385.888392 731.42082 
L 388.890653 743.152079 
L 394.895175 762.47423 
L 397.897437 769.375078 
L 400.899698 777.656014 
L 403.901959 780.416292 
L 406.90422 778.346058 
L 409.906481 774.895634 
L 412.908743 780.416292 
L 415.911004 781.106336 
L 418.913265 772.8254 
L 421.915526 765.23461 
L 424.917787 758.333761 
L 427.920048 745.222313 
L 430.92231 726.590308 
L 433.924571 699.677265 
L 436.926832 683.115801 
L 439.929093 644.470887 
L 442.931354 616.178164 
L 445.933616 595.475823 
L 448.935877 568.562984 
L 451.938138 539.579299 
L 454.940399 516.11719 
L 457.94266 512.66646 
L 460.944922 479.543123 
L 463.947183 451.939321 
L 466.949444 445.728823 
L 469.951705 430.547039 
L 472.953966 409.154756 
L 475.956228 362.229518 
L 478.958489 382.931859 
L 481.96075 389.142357 
L 484.963011 375.340456 
L 487.965272 356.708962 
L 490.967533 376.721361 
L 493.969795 430.547039 
L 496.972056 388.452415 
L 499.974317 369.129958 
L 502.976578 385.001685 
L 505.978839 420.195868 
L 508.981101 388.452415 
L 511.983362 366.37019 
L 514.985623 414.675312 
L 517.987884 452.629263 
L 520.990145 450.559437 
L 523.992407 443.658997 
L 526.994668 441.588151 
L 529.996929 462.290492 
L 532.99919 451.249379 
L 536.001451 433.307827 
L 539.003713 450.559437 
L 542.005974 479.543123 
L 545.008235 518.876958 
L 548.010496 500.935406 
L 551.012757 518.876958 
L 554.015018 555.451025 
L 557.01728 573.393599 
L 560.019541 592.025093 
L 563.021802 608.586761 
L 566.024063 657.582846 
L 569.026324 691.396125 
L 572.028586 703.127587 
L 575.030847 711.408524 
L 578.033108 722.44984 
L 581.035369 747.982693 
L 584.03763 759.713952 
L 587.039892 764.544464 
L 590.042153 772.135356 
L 593.044414 778.346058 
L 596.046675 779.036102 
L 599.048936 776.275824 
L 602.051198 776.275824 
L 605.053459 772.8254 
L 608.05572 775.58578 
L 611.057981 780.416292 
L 614.060242 782.486526 
L 617.062503 787.317039 
L 620.064765 789.387273 
L 623.067026 789.387273 
L 626.069287 783.17657 
L 629.071548 772.8254 
L 632.073809 765.23461 
L 635.076071 754.883439 
L 638.078332 739.011611 
L 641.080593 710.71848 
L 647.085115 632.049891 
L 650.087377 559.591698 
L 653.089638 507.835846 
L 656.091899 476.092392 
L 659.09416 456.079994 
L 662.096421 427.787271 
L 665.098683 395.352855 
L 668.100944 416.055196 
L 671.103205 429.167155 
L 674.105466 411.224582 
L 677.107727 384.311743 
L 677.107727 384.311743 
" style="fill:none;stroke:#1f77b4;stroke-linecap:square;stroke-width:1.5;"/>
   </g>
   <g id="line2d_15">
    <path clip-path="url(#p341d4fd2ff)" d="M 85.662273 384.404431 
L 88.664534 368.135816 
L 91.666795 370.266504 
L 94.669056 374.384856 
L 97.671317 389.107494 
L 100.673579 418.279082 
L 103.67584 443.059972 
L 106.678101 460.221633 
L 109.680362 448.190354 
L 112.682623 448.795879 
L 115.684885 457.225967 
L 118.687146 468.770972 
L 121.689407 486.937411 
L 124.691668 496.355086 
L 127.693929 525.08982 
L 130.696191 544.685267 
L 133.698452 558.603223 
L 139.702974 576.863264 
L 142.705235 590.435686 
L 145.707497 593.369309 
L 151.712019 596.267613 
L 154.71428 594.437204 
L 160.718802 595.149492 
L 163.721064 599.267442 
L 166.723325 602.927185 
L 169.725586 602.361545 
L 172.727847 604.966957 
L 175.730108 605.048875 
L 178.73237 604.977029 
L 181.734631 605.203043 
L 184.736892 603.261843 
L 190.741414 604.467522 
L 193.743676 604.488338 
L 196.745937 604.876981 
L 199.748198 605.148386 
L 202.750459 606.05983 
L 205.75272 604.056184 
L 208.754982 602.959147 
L 211.757243 600.242944 
L 214.759504 595.55801 
L 220.764026 568.677992 
L 223.766287 551.445693 
L 226.768549 532.340683 
L 232.773071 468.427988 
L 235.775332 444.032653 
L 238.777593 412.287078 
L 241.779855 397.161696 
L 244.782116 373.700232 
L 247.784377 368.220958 
L 250.786638 357.78709 
L 253.788899 350.236351 
L 256.791161 335.636188 
L 259.793422 326.878158 
L 262.795683 319.023381 
L 265.797944 314.60757 
L 268.800205 316.522046 
L 271.802467 309.503777 
L 274.804728 323.801514 
L 277.806989 331.567389 
L 280.80925 348.989578 
L 283.811511 360.571783 
L 286.813772 364.606605 
L 289.816034 389.404281 
L 292.818295 407.945934 
L 295.820556 414.038254 
L 298.822817 418.198507 
L 301.825078 431.187292 
L 304.82734 449.570479 
L 307.829601 469.112881 
L 310.831862 484.734205 
L 313.834123 498.397812 
L 316.836384 509.004917 
L 319.838646 518.646055 
L 322.840907 528.686311 
L 325.843168 542.173994 
L 328.845429 549.547869 
L 334.849952 565.719257 
L 337.852213 565.523861 
L 340.854474 566.928696 
L 343.856735 565.730537 
L 346.858996 567.475267 
L 349.861257 562.910526 
L 352.863519 564.48269 
L 355.86578 572.213784 
L 358.868041 577.199936 
L 361.870302 579.763717 
L 364.872563 585.064651 
L 367.874825 593.710546 
L 370.877086 596.220073 
L 373.879347 597.416084 
L 376.881608 597.670702 
L 379.883869 597.643172 
L 382.886131 598.124074 
L 385.888392 598.306712 
L 388.890653 599.927759 
L 391.892914 603.378946 
L 394.895175 605.510036 
L 397.897437 606.596464 
L 403.901959 609.484427 
L 406.90422 608.472666 
L 412.908743 607.919515 
L 415.911004 609.713665 
L 418.913265 608.474009 
L 421.915526 606.702555 
L 424.917787 605.90808 
L 427.920048 603.919474 
L 430.92231 600.935625 
L 433.924571 596.49121 
L 439.929093 584.529092 
L 442.931354 570.120161 
L 445.933616 562.205624 
L 448.935877 552.139449 
L 451.938138 539.518088 
L 454.940399 523.922682 
L 457.94266 515.012499 
L 460.944922 511.07289 
L 463.947183 484.328104 
L 466.949444 477.426402 
L 469.951705 469.478963 
L 472.953966 460.325575 
L 475.956228 436.571488 
L 478.958489 418.025 
L 481.96075 436.217492 
L 484.963011 430.195272 
L 487.965272 419.642824 
L 490.967533 414.128365 
L 493.969795 442.143558 
L 496.972056 455.617946 
L 499.974317 424.160698 
L 502.976578 423.956304 
L 505.978839 441.349217 
L 508.981101 450.41706 
L 511.983362 425.374703 
L 514.985623 426.645783 
L 517.987884 464.032455 
L 520.990145 474.796415 
L 523.992407 475.779437 
L 526.994668 466.731872 
L 529.996929 475.698996 
L 532.99919 480.831527 
L 536.001451 470.465477 
L 539.003713 468.779298 
L 542.005974 478.149434 
L 545.008235 505.720656 
L 548.010496 512.103451 
L 551.012757 508.66932 
L 554.015018 522.591976 
L 557.01728 539.76935 
L 560.019541 548.187753 
L 563.021802 555.910387 
L 566.024063 566.064792 
L 569.026324 583.767384 
L 572.028586 591.731073 
L 575.030847 592.464176 
L 578.033108 595.785502 
L 581.035369 598.525744 
L 584.03763 605.207072 
L 587.039892 605.080031 
L 590.042153 607.287802 
L 593.044414 608.800878 
L 596.046675 608.220465 
L 599.048936 608.410355 
L 602.051198 607.936167 
L 605.053459 607.786028 
L 608.05572 607.424109 
L 611.057981 609.069732 
L 614.060242 609.753147 
L 623.067026 610.609531 
L 626.069287 609.553319 
L 629.071548 607.988676 
L 632.073809 606.866795 
L 635.076071 605.452559 
L 638.078332 603.203828 
L 641.080593 599.626003 
L 644.082854 590.303944 
L 647.085115 580.141348 
L 650.087377 560.826975 
L 653.089638 530.003185 
L 656.091899 504.539552 
L 659.09416 488.845038 
L 662.096421 475.162496 
L 665.098683 452.056102 
L 668.100944 441.789563 
L 671.103205 457.290964 
L 674.105466 458.570907 
L 677.107727 443.534159 
L 677.107727 443.534159 
" style="fill:none;stroke:#ff7f0e;stroke-linecap:square;stroke-width:1.5;"/>
   </g>
   <g id="line2d_16">
    <path clip-path="url(#p341d4fd2ff)" d="M 85.662273 707.882267 
L 124.691668 707.882267 
L 127.693929 697.676025 
L 139.702974 697.676025 
L 145.707497 718.088509 
L 163.721064 718.088509 
L 166.723325 728.294751 
L 211.757243 728.294751 
L 220.764026 697.676025 
L 229.77081 697.676025 
L 232.773071 707.882267 
L 256.791161 707.882267 
L 259.793422 718.088509 
L 280.80925 718.088509 
L 283.811511 707.882267 
L 316.836384 707.882267 
L 319.838646 697.676025 
L 361.870302 697.676025 
L 364.872563 707.882267 
L 367.874825 707.882267 
L 370.877086 718.088509 
L 388.890653 718.088509 
L 391.892914 728.294751 
L 397.897437 728.294751 
L 400.899698 738.500992 
L 421.915526 738.500992 
L 424.917787 728.294751 
L 430.92231 728.294751 
L 436.926832 707.882267 
L 439.929093 707.882267 
L 442.931354 697.676025 
L 460.944922 697.676025 
L 463.947183 707.882267 
L 545.008235 707.882267 
L 548.010496 697.676025 
L 569.026324 697.676025 
L 575.030847 718.088509 
L 581.035369 718.088509 
L 584.03763 728.294751 
L 587.039892 728.294751 
L 590.042153 738.500992 
L 632.073809 738.500992 
L 635.076071 728.294751 
L 638.078332 728.294751 
L 641.080593 718.088509 
L 644.082854 718.088509 
L 647.085115 697.676025 
L 656.091899 697.676025 
L 659.09416 707.882267 
L 677.107727 707.882267 
L 677.107727 707.882267 
" style="fill:none;stroke:#2ca02c;stroke-linecap:square;stroke-width:1.5;"/>
   </g>
   <g id="line2d_17">
    <path clip-path="url(#p341d4fd2ff)" d="M 85.662273 269.01387 
L 88.664534 248.601387 
L 94.669056 248.601387 
L 97.671317 269.01387 
L 100.673579 320.045079 
L 103.67584 360.870046 
L 106.678101 381.28253 
L 109.680362 371.076288 
L 112.682623 371.076288 
L 115.684885 381.28253 
L 118.687146 381.28253 
L 121.689407 391.488772 
L 124.691668 391.488772 
L 127.693929 401.695014 
L 133.698452 401.695014 
L 136.700713 411.901255 
L 139.702974 411.901255 
L 142.705235 422.107497 
L 151.712019 422.107497 
L 154.71428 411.901255 
L 157.716541 422.107497 
L 211.757243 422.107497 
L 217.761765 401.695014 
L 226.768549 401.695014 
L 235.775332 371.076288 
L 238.777593 320.045079 
L 241.779855 299.632596 
L 244.782116 258.807629 
L 247.784377 238.395145 
L 250.786638 228.188903 
L 259.793422 166.951453 
L 265.797944 146.538969 
L 268.800205 146.538969 
L 271.802467 136.332727 
L 274.804728 156.745211 
L 277.806989 166.951453 
L 280.80925 197.570178 
L 283.811511 217.982662 
L 286.813772 228.188903 
L 289.816034 269.01387 
L 292.818295 299.632596 
L 295.820556 320.045079 
L 298.822817 330.251321 
L 304.82734 371.076288 
L 310.831862 391.488772 
L 319.838646 391.488772 
L 322.840907 401.695014 
L 331.84769 401.695014 
L 334.849952 411.901255 
L 337.852213 401.695014 
L 352.863519 401.695014 
L 355.86578 411.901255 
L 364.872563 411.901255 
L 367.874825 422.107497 
L 430.92231 422.107497 
L 433.924571 411.901255 
L 439.929093 411.901255 
L 442.931354 401.695014 
L 451.938138 401.695014 
L 454.940399 391.488772 
L 460.944922 391.488772 
L 463.947183 381.28253 
L 472.953966 381.28253 
L 478.958489 340.457563 
L 481.96075 350.663805 
L 484.963011 350.663805 
L 490.967533 330.251321 
L 493.969795 360.870046 
L 496.972056 381.28253 
L 499.974317 340.457563 
L 502.976578 340.457563 
L 508.981101 381.28253 
L 511.983362 340.457563 
L 514.985623 350.663805 
L 517.987884 381.28253 
L 542.005974 381.28253 
L 545.008235 391.488772 
L 551.012757 391.488772 
L 554.015018 401.695014 
L 563.021802 401.695014 
L 569.026324 422.107497 
L 572.028586 422.107497 
L 575.030847 411.901255 
L 578.033108 422.107497 
L 641.080593 422.107497 
L 647.085115 401.695014 
L 650.087377 401.695014 
L 653.089638 391.488772 
L 659.09416 391.488772 
L 665.098683 371.076288 
L 668.100944 371.076288 
L 671.103205 381.28253 
L 674.105466 381.28253 
L 677.107727 371.076288 
L 677.107727 371.076288 
" style="fill:none;stroke:#d62728;stroke-linecap:square;stroke-width:1.5;"/>
   </g>
   <g id="patch_3">
    <path d="M 56.09 822.04 
L 56.09 103.68 
" style="fill:none;stroke:#000000;stroke-linecap:square;stroke-linejoin:miter;stroke-width:0.8;"/>
   </g>
   <g id="patch_4">
    <path d="M 706.68 822.04 
L 706.68 103.68 
" style="fill:none;stroke:#000000;stroke-linecap:square;stroke-linejoin:miter;stroke-width:0.8;"/>
   </g>
   <g id="patch_5">
    <path d="M 56.09 822.04 
L 706.68 822.04 
" style="fill:none;stroke:#000000;stroke-linecap:square;stroke-linejoin:miter;stroke-width:0.8;"/>
   </g>
   <g id="patch_6">
    <path d="M 56.09 103.68 
L 706.68 103.68 
" style="fill:none;stroke:#000000;stroke-linecap:square;stroke-linejoin:miter;stroke-width:0.8;"/>
   </g>
   <g id="text_14">
    <!-- Plot of Test Data vs MCMC Uncertainty  -->
    <defs>
     <path d="M 19.671875 64.796875 
L 19.671875 37.40625 
L 32.078125 37.40625 
Q 38.96875 37.40625 42.71875 40.96875 
Q 46.484375 44.53125 46.484375 51.125 
Q 46.484375 57.671875 42.71875 61.234375 
Q 38.96875 64.796875 32.078125 64.796875 
z
M 9.8125 72.90625 
L 32.078125 72.90625 
Q 44.34375 72.90625 50.609375 67.359375 
Q 56.890625 61.8125 56.890625 51.125 
Q 56.890625 40.328125 50.609375 34.8125 
Q 44.34375 29.296875 32.078125 29.296875 
L 19.671875 29.296875 
L 19.671875 0 
L 9.8125 0 
z
" id="DejaVuSans-50"/>
     <path d="M 9.421875 75.984375 
L 18.40625 75.984375 
L 18.40625 0 
L 9.421875 0 
z
" id="DejaVuSans-6c"/>
     <path d="M 30.609375 48.390625 
Q 23.390625 48.390625 19.1875 42.75 
Q 14.984375 37.109375 14.984375 27.296875 
Q 14.984375 17.484375 19.15625 11.84375 
Q 23.34375 6.203125 30.609375 6.203125 
Q 37.796875 6.203125 41.984375 11.859375 
Q 46.1875 17.53125 46.1875 27.296875 
Q 46.1875 37.015625 41.984375 42.703125 
Q 37.796875 48.390625 30.609375 48.390625 
z
M 30.609375 56 
Q 42.328125 56 49.015625 48.375 
Q 55.71875 40.765625 55.71875 27.296875 
Q 55.71875 13.875 49.015625 6.21875 
Q 42.328125 -1.421875 30.609375 -1.421875 
Q 18.84375 -1.421875 12.171875 6.21875 
Q 5.515625 13.875 5.515625 27.296875 
Q 5.515625 40.765625 12.171875 48.375 
Q 18.84375 56 30.609375 56 
z
" id="DejaVuSans-6f"/>
     <path d="M 18.3125 70.21875 
L 18.3125 54.6875 
L 36.8125 54.6875 
L 36.8125 47.703125 
L 18.3125 47.703125 
L 18.3125 18.015625 
Q 18.3125 11.328125 20.140625 9.421875 
Q 21.96875 7.515625 27.59375 7.515625 
L 36.8125 7.515625 
L 36.8125 0 
L 27.59375 0 
Q 17.1875 0 13.234375 3.875 
Q 9.28125 7.765625 9.28125 18.015625 
L 9.28125 47.703125 
L 2.6875 47.703125 
L 2.6875 54.6875 
L 9.28125 54.6875 
L 9.28125 70.21875 
z
" id="DejaVuSans-74"/>
     <path id="DejaVuSans-20"/>
     <path d="M 37.109375 75.984375 
L 37.109375 68.5 
L 28.515625 68.5 
Q 23.6875 68.5 21.796875 66.546875 
Q 19.921875 64.59375 19.921875 59.515625 
L 19.921875 54.6875 
L 34.71875 54.6875 
L 34.71875 47.703125 
L 19.921875 47.703125 
L 19.921875 0 
L 10.890625 0 
L 10.890625 47.703125 
L 2.296875 47.703125 
L 2.296875 54.6875 
L 10.890625 54.6875 
L 10.890625 58.5 
Q 10.890625 67.625 15.140625 71.796875 
Q 19.390625 75.984375 28.609375 75.984375 
z
" id="DejaVuSans-66"/>
     <path d="M -0.296875 72.90625 
L 61.375 72.90625 
L 61.375 64.59375 
L 35.5 64.59375 
L 35.5 0 
L 25.59375 0 
L 25.59375 64.59375 
L -0.296875 64.59375 
z
" id="DejaVuSans-54"/>
     <path d="M 56.203125 29.59375 
L 56.203125 25.203125 
L 14.890625 25.203125 
Q 15.484375 15.921875 20.484375 11.0625 
Q 25.484375 6.203125 34.421875 6.203125 
Q 39.59375 6.203125 44.453125 7.46875 
Q 49.3125 8.734375 54.109375 11.28125 
L 54.109375 2.78125 
Q 49.265625 0.734375 44.1875 -0.34375 
Q 39.109375 -1.421875 33.890625 -1.421875 
Q 20.796875 -1.421875 13.15625 6.1875 
Q 5.515625 13.8125 5.515625 26.8125 
Q 5.515625 40.234375 12.765625 48.109375 
Q 20.015625 56 32.328125 56 
Q 43.359375 56 49.78125 48.890625 
Q 56.203125 41.796875 56.203125 29.59375 
z
M 47.21875 32.234375 
Q 47.125 39.59375 43.09375 43.984375 
Q 39.0625 48.390625 32.421875 48.390625 
Q 24.90625 48.390625 20.390625 44.140625 
Q 15.875 39.890625 15.1875 32.171875 
z
" id="DejaVuSans-65"/>
     <path d="M 44.28125 53.078125 
L 44.28125 44.578125 
Q 40.484375 46.53125 36.375 47.5 
Q 32.28125 48.484375 27.875 48.484375 
Q 21.1875 48.484375 17.84375 46.4375 
Q 14.5 44.390625 14.5 40.28125 
Q 14.5 37.15625 16.890625 35.375 
Q 19.28125 33.59375 26.515625 31.984375 
L 29.59375 31.296875 
Q 39.15625 29.25 43.1875 25.515625 
Q 47.21875 21.78125 47.21875 15.09375 
Q 47.21875 7.46875 41.1875 3.015625 
Q 35.15625 -1.421875 24.609375 -1.421875 
Q 20.21875 -1.421875 15.453125 -0.5625 
Q 10.6875 0.296875 5.421875 2 
L 5.421875 11.28125 
Q 10.40625 8.6875 15.234375 7.390625 
Q 20.0625 6.109375 24.8125 6.109375 
Q 31.15625 6.109375 34.5625 8.28125 
Q 37.984375 10.453125 37.984375 14.40625 
Q 37.984375 18.0625 35.515625 20.015625 
Q 33.0625 21.96875 24.703125 23.78125 
L 21.578125 24.515625 
Q 13.234375 26.265625 9.515625 29.90625 
Q 5.8125 33.546875 5.8125 39.890625 
Q 5.8125 47.609375 11.28125 51.796875 
Q 16.75 56 26.8125 56 
Q 31.78125 56 36.171875 55.265625 
Q 40.578125 54.546875 44.28125 53.078125 
z
" id="DejaVuSans-73"/>
     <path d="M 19.671875 64.796875 
L 19.671875 8.109375 
L 31.59375 8.109375 
Q 46.6875 8.109375 53.6875 14.9375 
Q 60.6875 21.78125 60.6875 36.53125 
Q 60.6875 51.171875 53.6875 57.984375 
Q 46.6875 64.796875 31.59375 64.796875 
z
M 9.8125 72.90625 
L 30.078125 72.90625 
Q 51.265625 72.90625 61.171875 64.09375 
Q 71.09375 55.28125 71.09375 36.53125 
Q 71.09375 17.671875 61.125 8.828125 
Q 51.171875 0 30.078125 0 
L 9.8125 0 
z
" id="DejaVuSans-44"/>
     <path d="M 34.28125 27.484375 
Q 23.390625 27.484375 19.1875 25 
Q 14.984375 22.515625 14.984375 16.5 
Q 14.984375 11.71875 18.140625 8.90625 
Q 21.296875 6.109375 26.703125 6.109375 
Q 34.1875 6.109375 38.703125 11.40625 
Q 43.21875 16.703125 43.21875 25.484375 
L 43.21875 27.484375 
z
M 52.203125 31.203125 
L 52.203125 0 
L 43.21875 0 
L 43.21875 8.296875 
Q 40.140625 3.328125 35.546875 0.953125 
Q 30.953125 -1.421875 24.3125 -1.421875 
Q 15.921875 -1.421875 10.953125 3.296875 
Q 6 8.015625 6 15.921875 
Q 6 25.140625 12.171875 29.828125 
Q 18.359375 34.515625 30.609375 34.515625 
L 43.21875 34.515625 
L 43.21875 35.40625 
Q 43.21875 41.609375 39.140625 45 
Q 35.0625 48.390625 27.6875 48.390625 
Q 23 48.390625 18.546875 47.265625 
Q 14.109375 46.140625 10.015625 43.890625 
L 10.015625 52.203125 
Q 14.9375 54.109375 19.578125 55.046875 
Q 24.21875 56 28.609375 56 
Q 40.484375 56 46.34375 49.84375 
Q 52.203125 43.703125 52.203125 31.203125 
z
" id="DejaVuSans-61"/>
     <path d="M 2.984375 54.6875 
L 12.5 54.6875 
L 29.59375 8.796875 
L 46.6875 54.6875 
L 56.203125 54.6875 
L 35.6875 0 
L 23.484375 0 
z
" id="DejaVuSans-76"/>
     <path d="M 9.8125 72.90625 
L 24.515625 72.90625 
L 43.109375 23.296875 
L 61.8125 72.90625 
L 76.515625 72.90625 
L 76.515625 0 
L 66.890625 0 
L 66.890625 64.015625 
L 48.09375 14.015625 
L 38.1875 14.015625 
L 19.390625 64.015625 
L 19.390625 0 
L 9.8125 0 
z
" id="DejaVuSans-4d"/>
     <path d="M 64.40625 67.28125 
L 64.40625 56.890625 
Q 59.421875 61.53125 53.78125 63.8125 
Q 48.140625 66.109375 41.796875 66.109375 
Q 29.296875 66.109375 22.65625 58.46875 
Q 16.015625 50.828125 16.015625 36.375 
Q 16.015625 21.96875 22.65625 14.328125 
Q 29.296875 6.6875 41.796875 6.6875 
Q 48.140625 6.6875 53.78125 8.984375 
Q 59.421875 11.28125 64.40625 15.921875 
L 64.40625 5.609375 
Q 59.234375 2.09375 53.4375 0.328125 
Q 47.65625 -1.421875 41.21875 -1.421875 
Q 24.65625 -1.421875 15.125 8.703125 
Q 5.609375 18.84375 5.609375 36.375 
Q 5.609375 53.953125 15.125 64.078125 
Q 24.65625 74.21875 41.21875 74.21875 
Q 47.75 74.21875 53.53125 72.484375 
Q 59.328125 70.75 64.40625 67.28125 
z
" id="DejaVuSans-43"/>
     <path d="M 8.6875 72.90625 
L 18.609375 72.90625 
L 18.609375 28.609375 
Q 18.609375 16.890625 22.84375 11.734375 
Q 27.09375 6.59375 36.625 6.59375 
Q 46.09375 6.59375 50.34375 11.734375 
Q 54.59375 16.890625 54.59375 28.609375 
L 54.59375 72.90625 
L 64.5 72.90625 
L 64.5 27.390625 
Q 64.5 13.140625 57.4375 5.859375 
Q 50.390625 -1.421875 36.625 -1.421875 
Q 22.796875 -1.421875 15.734375 5.859375 
Q 8.6875 13.140625 8.6875 27.390625 
z
" id="DejaVuSans-55"/>
     <path d="M 54.890625 33.015625 
L 54.890625 0 
L 45.90625 0 
L 45.90625 32.71875 
Q 45.90625 40.484375 42.875 44.328125 
Q 39.84375 48.1875 33.796875 48.1875 
Q 26.515625 48.1875 22.3125 43.546875 
Q 18.109375 38.921875 18.109375 30.90625 
L 18.109375 0 
L 9.078125 0 
L 9.078125 54.6875 
L 18.109375 54.6875 
L 18.109375 46.1875 
Q 21.34375 51.125 25.703125 53.5625 
Q 30.078125 56 35.796875 56 
Q 45.21875 56 50.046875 50.171875 
Q 54.890625 44.34375 54.890625 33.015625 
z
" id="DejaVuSans-6e"/>
     <path d="M 48.78125 52.59375 
L 48.78125 44.1875 
Q 44.96875 46.296875 41.140625 47.34375 
Q 37.3125 48.390625 33.40625 48.390625 
Q 24.65625 48.390625 19.8125 42.84375 
Q 14.984375 37.3125 14.984375 27.296875 
Q 14.984375 17.28125 19.8125 11.734375 
Q 24.65625 6.203125 33.40625 6.203125 
Q 37.3125 6.203125 41.140625 7.25 
Q 44.96875 8.296875 48.78125 10.40625 
L 48.78125 2.09375 
Q 45.015625 0.34375 40.984375 -0.53125 
Q 36.96875 -1.421875 32.421875 -1.421875 
Q 20.0625 -1.421875 12.78125 6.34375 
Q 5.515625 14.109375 5.515625 27.296875 
Q 5.515625 40.671875 12.859375 48.328125 
Q 20.21875 56 33.015625 56 
Q 37.15625 56 41.109375 55.140625 
Q 45.0625 54.296875 48.78125 52.59375 
z
" id="DejaVuSans-63"/>
     <path d="M 41.109375 46.296875 
Q 39.59375 47.171875 37.8125 47.578125 
Q 36.03125 48 33.890625 48 
Q 26.265625 48 22.1875 43.046875 
Q 18.109375 38.09375 18.109375 28.8125 
L 18.109375 0 
L 9.078125 0 
L 9.078125 54.6875 
L 18.109375 54.6875 
L 18.109375 46.1875 
Q 20.953125 51.171875 25.484375 53.578125 
Q 30.03125 56 36.53125 56 
Q 37.453125 56 38.578125 55.875 
Q 39.703125 55.765625 41.0625 55.515625 
z
" id="DejaVuSans-72"/>
     <path d="M 9.421875 54.6875 
L 18.40625 54.6875 
L 18.40625 0 
L 9.421875 0 
z
M 9.421875 75.984375 
L 18.40625 75.984375 
L 18.40625 64.59375 
L 9.421875 64.59375 
z
" id="DejaVuSans-69"/>
     <path d="M 32.171875 -5.078125 
Q 28.375 -14.84375 24.75 -17.8125 
Q 21.140625 -20.796875 15.09375 -20.796875 
L 7.90625 -20.796875 
L 7.90625 -13.28125 
L 13.1875 -13.28125 
Q 16.890625 -13.28125 18.9375 -11.515625 
Q 21 -9.765625 23.484375 -3.21875 
L 25.09375 0.875 
L 2.984375 54.6875 
L 12.5 54.6875 
L 29.59375 11.921875 
L 46.6875 54.6875 
L 56.203125 54.6875 
z
" id="DejaVuSans-79"/>
    </defs>
    <g transform="translate(263.337812 97.68)scale(0.12 -0.12)">
     <use xlink:href="#DejaVuSans-50"/>
     <use x="60.302734" xlink:href="#DejaVuSans-6c"/>
     <use x="88.085938" xlink:href="#DejaVuSans-6f"/>
     <use x="149.267578" xlink:href="#DejaVuSans-74"/>
     <use x="188.476562" xlink:href="#DejaVuSans-20"/>
     <use x="220.263672" xlink:href="#DejaVuSans-6f"/>
     <use x="281.445312" xlink:href="#DejaVuSans-66"/>
     <use x="316.650391" xlink:href="#DejaVuSans-20"/>
     <use x="348.4375" xlink:href="#DejaVuSans-54"/>
     <use x="409.255859" xlink:href="#DejaVuSans-65"/>
     <use x="470.779297" xlink:href="#DejaVuSans-73"/>
     <use x="522.878906" xlink:href="#DejaVuSans-74"/>
     <use x="562.087891" xlink:href="#DejaVuSans-20"/>
     <use x="593.875" xlink:href="#DejaVuSans-44"/>
     <use x="670.876953" xlink:href="#DejaVuSans-61"/>
     <use x="732.15625" xlink:href="#DejaVuSans-74"/>
     <use x="771.365234" xlink:href="#DejaVuSans-61"/>
     <use x="832.644531" xlink:href="#DejaVuSans-20"/>
     <use x="864.431641" xlink:href="#DejaVuSans-76"/>
     <use x="923.611328" xlink:href="#DejaVuSans-73"/>
     <use x="975.710938" xlink:href="#DejaVuSans-20"/>
     <use x="1007.498047" xlink:href="#DejaVuSans-4d"/>
     <use x="1093.777344" xlink:href="#DejaVuSans-43"/>
     <use x="1163.601562" xlink:href="#DejaVuSans-4d"/>
     <use x="1249.880859" xlink:href="#DejaVuSans-43"/>
     <use x="1319.705078" xlink:href="#DejaVuSans-20"/>
     <use x="1351.492188" xlink:href="#DejaVuSans-55"/>
     <use x="1424.685547" xlink:href="#DejaVuSans-6e"/>
     <use x="1488.064453" xlink:href="#DejaVuSans-63"/>
     <use x="1543.044922" xlink:href="#DejaVuSans-65"/>
     <use x="1604.568359" xlink:href="#DejaVuSans-72"/>
     <use x="1645.681641" xlink:href="#DejaVuSans-74"/>
     <use x="1684.890625" xlink:href="#DejaVuSans-61"/>
     <use x="1746.169922" xlink:href="#DejaVuSans-69"/>
     <use x="1773.953125" xlink:href="#DejaVuSans-6e"/>
     <use x="1837.332031" xlink:href="#DejaVuSans-74"/>
     <use x="1876.541016" xlink:href="#DejaVuSans-79"/>
     <use x="1935.720703" xlink:href="#DejaVuSans-20"/>
    </g>
   </g>
   <g id="legend_1">
    <g id="patch_7">
     <path d="M 569.803438 170.3925 
L 699.68 170.3925 
Q 701.68 170.3925 701.68 168.3925 
L 701.68 110.68 
Q 701.68 108.68 699.68 108.68 
L 569.803438 108.68 
Q 567.803438 108.68 567.803438 110.68 
L 567.803438 168.3925 
Q 567.803438 170.3925 569.803438 170.3925 
z
" style="fill:#ffffff;opacity:0.8;stroke:#cccccc;stroke-linejoin:miter;"/>
    </g>
    <g id="line2d_18">
     <path d="M 571.803438 116.778437 
L 591.803438 116.778437 
" style="fill:none;stroke:#1f77b4;stroke-linecap:square;stroke-width:1.5;"/>
    </g>
    <g id="line2d_19"/>
    <g id="text_15">
     <!-- actual -->
     <defs>
      <path d="M 8.5 21.578125 
L 8.5 54.6875 
L 17.484375 54.6875 
L 17.484375 21.921875 
Q 17.484375 14.15625 20.5 10.265625 
Q 23.53125 6.390625 29.59375 6.390625 
Q 36.859375 6.390625 41.078125 11.03125 
Q 45.3125 15.671875 45.3125 23.6875 
L 45.3125 54.6875 
L 54.296875 54.6875 
L 54.296875 0 
L 45.3125 0 
L 45.3125 8.40625 
Q 42.046875 3.421875 37.71875 1 
Q 33.40625 -1.421875 27.6875 -1.421875 
Q 18.265625 -1.421875 13.375 4.4375 
Q 8.5 10.296875 8.5 21.578125 
z
M 31.109375 56 
z
" id="DejaVuSans-75"/>
     </defs>
     <g transform="translate(599.803438 120.278437)scale(0.1 -0.1)">
      <use xlink:href="#DejaVuSans-61"/>
      <use x="61.279297" xlink:href="#DejaVuSans-63"/>
      <use x="116.259766" xlink:href="#DejaVuSans-74"/>
      <use x="155.46875" xlink:href="#DejaVuSans-75"/>
      <use x="218.847656" xlink:href="#DejaVuSans-61"/>
      <use x="280.126953" xlink:href="#DejaVuSans-6c"/>
     </g>
    </g>
    <g id="line2d_20">
     <path d="M 571.803438 131.456562 
L 591.803438 131.456562 
" style="fill:none;stroke:#ff7f0e;stroke-linecap:square;stroke-width:1.5;"/>
    </g>
    <g id="line2d_21"/>
    <g id="text_16">
     <!-- pred. (mean) -->
     <defs>
      <path d="M 18.109375 8.203125 
L 18.109375 -20.796875 
L 9.078125 -20.796875 
L 9.078125 54.6875 
L 18.109375 54.6875 
L 18.109375 46.390625 
Q 20.953125 51.265625 25.265625 53.625 
Q 29.59375 56 35.59375 56 
Q 45.5625 56 51.78125 48.09375 
Q 58.015625 40.1875 58.015625 27.296875 
Q 58.015625 14.40625 51.78125 6.484375 
Q 45.5625 -1.421875 35.59375 -1.421875 
Q 29.59375 -1.421875 25.265625 0.953125 
Q 20.953125 3.328125 18.109375 8.203125 
z
M 48.6875 27.296875 
Q 48.6875 37.203125 44.609375 42.84375 
Q 40.53125 48.484375 33.40625 48.484375 
Q 26.265625 48.484375 22.1875 42.84375 
Q 18.109375 37.203125 18.109375 27.296875 
Q 18.109375 17.390625 22.1875 11.75 
Q 26.265625 6.109375 33.40625 6.109375 
Q 40.53125 6.109375 44.609375 11.75 
Q 48.6875 17.390625 48.6875 27.296875 
z
" id="DejaVuSans-70"/>
      <path d="M 45.40625 46.390625 
L 45.40625 75.984375 
L 54.390625 75.984375 
L 54.390625 0 
L 45.40625 0 
L 45.40625 8.203125 
Q 42.578125 3.328125 38.25 0.953125 
Q 33.9375 -1.421875 27.875 -1.421875 
Q 17.96875 -1.421875 11.734375 6.484375 
Q 5.515625 14.40625 5.515625 27.296875 
Q 5.515625 40.1875 11.734375 48.09375 
Q 17.96875 56 27.875 56 
Q 33.9375 56 38.25 53.625 
Q 42.578125 51.265625 45.40625 46.390625 
z
M 14.796875 27.296875 
Q 14.796875 17.390625 18.875 11.75 
Q 22.953125 6.109375 30.078125 6.109375 
Q 37.203125 6.109375 41.296875 11.75 
Q 45.40625 17.390625 45.40625 27.296875 
Q 45.40625 37.203125 41.296875 42.84375 
Q 37.203125 48.484375 30.078125 48.484375 
Q 22.953125 48.484375 18.875 42.84375 
Q 14.796875 37.203125 14.796875 27.296875 
z
" id="DejaVuSans-64"/>
      <path d="M 31 75.875 
Q 24.46875 64.65625 21.28125 53.65625 
Q 18.109375 42.671875 18.109375 31.390625 
Q 18.109375 20.125 21.3125 9.0625 
Q 24.515625 -2 31 -13.1875 
L 23.1875 -13.1875 
Q 15.875 -1.703125 12.234375 9.375 
Q 8.59375 20.453125 8.59375 31.390625 
Q 8.59375 42.28125 12.203125 53.3125 
Q 15.828125 64.359375 23.1875 75.875 
z
" id="DejaVuSans-28"/>
      <path d="M 52 44.1875 
Q 55.375 50.25 60.0625 53.125 
Q 64.75 56 71.09375 56 
Q 79.640625 56 84.28125 50.015625 
Q 88.921875 44.046875 88.921875 33.015625 
L 88.921875 0 
L 79.890625 0 
L 79.890625 32.71875 
Q 79.890625 40.578125 77.09375 44.375 
Q 74.3125 48.1875 68.609375 48.1875 
Q 61.625 48.1875 57.5625 43.546875 
Q 53.515625 38.921875 53.515625 30.90625 
L 53.515625 0 
L 44.484375 0 
L 44.484375 32.71875 
Q 44.484375 40.625 41.703125 44.40625 
Q 38.921875 48.1875 33.109375 48.1875 
Q 26.21875 48.1875 22.15625 43.53125 
Q 18.109375 38.875 18.109375 30.90625 
L 18.109375 0 
L 9.078125 0 
L 9.078125 54.6875 
L 18.109375 54.6875 
L 18.109375 46.1875 
Q 21.1875 51.21875 25.484375 53.609375 
Q 29.78125 56 35.6875 56 
Q 41.65625 56 45.828125 52.96875 
Q 50 49.953125 52 44.1875 
z
" id="DejaVuSans-6d"/>
      <path d="M 8.015625 75.875 
L 15.828125 75.875 
Q 23.140625 64.359375 26.78125 53.3125 
Q 30.421875 42.28125 30.421875 31.390625 
Q 30.421875 20.453125 26.78125 9.375 
Q 23.140625 -1.703125 15.828125 -13.1875 
L 8.015625 -13.1875 
Q 14.5 -2 17.703125 9.0625 
Q 20.90625 20.125 20.90625 31.390625 
Q 20.90625 42.671875 17.703125 53.65625 
Q 14.5 64.65625 8.015625 75.875 
z
" id="DejaVuSans-29"/>
     </defs>
     <g transform="translate(599.803438 134.956562)scale(0.1 -0.1)">
      <use xlink:href="#DejaVuSans-70"/>
      <use x="63.476562" xlink:href="#DejaVuSans-72"/>
      <use x="104.558594" xlink:href="#DejaVuSans-65"/>
      <use x="166.082031" xlink:href="#DejaVuSans-64"/>
      <use x="229.558594" xlink:href="#DejaVuSans-2e"/>
      <use x="261.345703" xlink:href="#DejaVuSans-20"/>
      <use x="293.132812" xlink:href="#DejaVuSans-28"/>
      <use x="332.146484" xlink:href="#DejaVuSans-6d"/>
      <use x="429.558594" xlink:href="#DejaVuSans-65"/>
      <use x="491.082031" xlink:href="#DejaVuSans-61"/>
      <use x="552.361328" xlink:href="#DejaVuSans-6e"/>
      <use x="615.740234" xlink:href="#DejaVuSans-29"/>
     </g>
    </g>
    <g id="line2d_22">
     <path d="M 571.803438 146.134687 
L 591.803438 146.134687 
" style="fill:none;stroke:#2ca02c;stroke-linecap:square;stroke-width:1.5;"/>
    </g>
    <g id="line2d_23"/>
    <g id="text_17">
     <!-- pred.(5th percen.) -->
     <defs>
      <path d="M 54.890625 33.015625 
L 54.890625 0 
L 45.90625 0 
L 45.90625 32.71875 
Q 45.90625 40.484375 42.875 44.328125 
Q 39.84375 48.1875 33.796875 48.1875 
Q 26.515625 48.1875 22.3125 43.546875 
Q 18.109375 38.921875 18.109375 30.90625 
L 18.109375 0 
L 9.078125 0 
L 9.078125 75.984375 
L 18.109375 75.984375 
L 18.109375 46.1875 
Q 21.34375 51.125 25.703125 53.5625 
Q 30.078125 56 35.796875 56 
Q 45.21875 56 50.046875 50.171875 
Q 54.890625 44.34375 54.890625 33.015625 
z
" id="DejaVuSans-68"/>
     </defs>
     <g transform="translate(599.803438 149.634687)scale(0.1 -0.1)">
      <use xlink:href="#DejaVuSans-70"/>
      <use x="63.476562" xlink:href="#DejaVuSans-72"/>
      <use x="104.558594" xlink:href="#DejaVuSans-65"/>
      <use x="166.082031" xlink:href="#DejaVuSans-64"/>
      <use x="229.558594" xlink:href="#DejaVuSans-2e"/>
      <use x="261.345703" xlink:href="#DejaVuSans-28"/>
      <use x="300.359375" xlink:href="#DejaVuSans-35"/>
      <use x="363.982422" xlink:href="#DejaVuSans-74"/>
      <use x="403.191406" xlink:href="#DejaVuSans-68"/>
      <use x="466.570312" xlink:href="#DejaVuSans-20"/>
      <use x="498.357422" xlink:href="#DejaVuSans-70"/>
      <use x="561.833984" xlink:href="#DejaVuSans-65"/>
      <use x="623.357422" xlink:href="#DejaVuSans-72"/>
      <use x="664.439453" xlink:href="#DejaVuSans-63"/>
      <use x="719.419922" xlink:href="#DejaVuSans-65"/>
      <use x="780.943359" xlink:href="#DejaVuSans-6e"/>
      <use x="844.322266" xlink:href="#DejaVuSans-2e"/>
      <use x="876.109375" xlink:href="#DejaVuSans-29"/>
     </g>
    </g>
    <g id="line2d_24">
     <path d="M 571.803438 160.812812 
L 591.803438 160.812812 
" style="fill:none;stroke:#d62728;stroke-linecap:square;stroke-width:1.5;"/>
    </g>
    <g id="line2d_25"/>
    <g id="text_18">
     <!-- pred.(95th percen.) -->
     <defs>
      <path d="M 10.984375 1.515625 
L 10.984375 10.5 
Q 14.703125 8.734375 18.5 7.8125 
Q 22.3125 6.890625 25.984375 6.890625 
Q 35.75 6.890625 40.890625 13.453125 
Q 46.046875 20.015625 46.78125 33.40625 
Q 43.953125 29.203125 39.59375 26.953125 
Q 35.25 24.703125 29.984375 24.703125 
Q 19.046875 24.703125 12.671875 31.3125 
Q 6.296875 37.9375 6.296875 49.421875 
Q 6.296875 60.640625 12.9375 67.421875 
Q 19.578125 74.21875 30.609375 74.21875 
Q 43.265625 74.21875 49.921875 64.515625 
Q 56.59375 54.828125 56.59375 36.375 
Q 56.59375 19.140625 48.40625 8.859375 
Q 40.234375 -1.421875 26.421875 -1.421875 
Q 22.703125 -1.421875 18.890625 -0.6875 
Q 15.09375 0.046875 10.984375 1.515625 
z
M 30.609375 32.421875 
Q 37.25 32.421875 41.125 36.953125 
Q 45.015625 41.5 45.015625 49.421875 
Q 45.015625 57.28125 41.125 61.84375 
Q 37.25 66.40625 30.609375 66.40625 
Q 23.96875 66.40625 20.09375 61.84375 
Q 16.21875 57.28125 16.21875 49.421875 
Q 16.21875 41.5 20.09375 36.953125 
Q 23.96875 32.421875 30.609375 32.421875 
z
" id="DejaVuSans-39"/>
     </defs>
     <g transform="translate(599.803438 164.312812)scale(0.1 -0.1)">
      <use xlink:href="#DejaVuSans-70"/>
      <use x="63.476562" xlink:href="#DejaVuSans-72"/>
      <use x="104.558594" xlink:href="#DejaVuSans-65"/>
      <use x="166.082031" xlink:href="#DejaVuSans-64"/>
      <use x="229.558594" xlink:href="#DejaVuSans-2e"/>
      <use x="261.345703" xlink:href="#DejaVuSans-28"/>
      <use x="300.359375" xlink:href="#DejaVuSans-39"/>
      <use x="363.982422" xlink:href="#DejaVuSans-35"/>
      <use x="427.605469" xlink:href="#DejaVuSans-74"/>
      <use x="466.814453" xlink:href="#DejaVuSans-68"/>
      <use x="530.193359" xlink:href="#DejaVuSans-20"/>
      <use x="561.980469" xlink:href="#DejaVuSans-70"/>
      <use x="625.457031" xlink:href="#DejaVuSans-65"/>
      <use x="686.980469" xlink:href="#DejaVuSans-72"/>
      <use x="728.0625" xlink:href="#DejaVuSans-63"/>
      <use x="783.042969" xlink:href="#DejaVuSans-65"/>
      <use x="844.566406" xlink:href="#DejaVuSans-6e"/>
      <use x="907.945312" xlink:href="#DejaVuSans-2e"/>
      <use x="939.732422" xlink:href="#DejaVuSans-29"/>
     </g>
    </g>
   </g>
  </g>
 </g>
 <defs>
  <clipPath id="p341d4fd2ff">
   <rect height="718.36" width="650.59" x="56.09" y="103.68"/>
  </clipPath>
 </defs>
</svg>
