<?xml version="1.0" encoding="utf-8" standalone="no"?>
<!DOCTYPE svg PUBLIC "-//W3C//DTD SVG 1.1//EN"
  "http://www.w3.org/Graphics/SVG/1.1/DTD/svg11.dtd">
<!-- Created with matplotlib (http://matplotlib.org/) -->
<svg height="864pt" version="1.1" viewBox="0 0 720 864" width="720pt" xmlns="http://www.w3.org/2000/svg" xmlns:xlink="http://www.w3.org/1999/xlink">
 <defs>
  <style type="text/css">
*{stroke-linecap:butt;stroke-linejoin:round;}
  </style>
 </defs>
 <g id="figure_1">
  <g id="patch_1">
   <path d="M 0 864 
L 720 864 
L 720 0 
L 0 0 
z
" style="fill:#ffffff;"/>
  </g>
  <g id="axes_1">
   <g id="patch_2">
    <path d="M 56.09 822.04 
L 706.68 822.04 
L 706.68 103.68 
L 56.09 103.68 
z
" style="fill:#ffffff;"/>
   </g>
   <g id="PolyCollection_1">
    <path clip-path="url(#p8c022af4b8)" d="M 85.662273 551.520523 
L 85.662273 752.463866 
L 87.653672 752.463866 
L 89.64507 752.463866 
L 91.636469 752.463866 
L 93.627868 752.463866 
L 95.619267 745.765755 
L 97.610666 739.067644 
L 99.602065 732.369532 
L 101.593463 732.369532 
L 103.584862 732.369532 
L 105.576261 732.369532 
L 107.56766 739.067644 
L 109.559059 739.067644 
L 111.550458 739.067644 
L 113.541856 745.765755 
L 115.533255 745.765755 
L 117.524654 745.765755 
L 119.516053 745.765755 
L 121.507452 745.765755 
L 123.498851 745.765755 
L 125.490249 745.765755 
L 127.481648 745.765755 
L 129.473047 745.765755 
L 131.464446 745.765755 
L 133.455845 745.765755 
L 135.447244 745.765755 
L 137.438642 745.765755 
L 139.430041 745.765755 
L 141.42144 745.765755 
L 143.412839 745.765755 
L 145.404238 745.765755 
L 147.395637 745.765755 
L 149.387036 745.765755 
L 151.378434 745.765755 
L 153.369833 745.765755 
L 155.361232 745.765755 
L 157.352631 745.765755 
L 159.34403 745.765755 
L 161.335429 745.765755 
L 163.326827 739.067644 
L 165.318226 739.067644 
L 167.309625 739.067644 
L 169.301024 739.067644 
L 171.292423 739.067644 
L 173.283822 739.067644 
L 175.27522 739.067644 
L 177.266619 732.369532 
L 179.258018 732.369532 
L 181.249417 732.369532 
L 183.240816 732.369532 
L 185.232215 732.369532 
L 187.223613 732.369532 
L 189.215012 732.369532 
L 191.206411 732.369532 
L 193.19781 732.369532 
L 195.189209 732.369532 
L 197.180608 739.067644 
L 199.172006 739.067644 
L 201.163405 745.765755 
L 203.154804 745.765755 
L 205.146203 745.765755 
L 207.137602 745.765755 
L 209.129001 745.765755 
L 211.120399 745.765755 
L 213.111798 739.067644 
L 215.103197 739.067644 
L 217.094596 739.067644 
L 219.085995 732.369532 
L 221.077394 732.369532 
L 223.068792 732.369532 
L 225.060191 732.369532 
L 227.05159 732.369532 
L 229.042989 732.369532 
L 231.034388 739.067644 
L 233.025787 739.067644 
L 235.017185 739.067644 
L 237.008584 739.067644 
L 238.999983 739.067644 
L 240.991382 739.067644 
L 242.982781 739.067644 
L 244.97418 739.067644 
L 246.965579 739.067644 
L 248.956977 745.765755 
L 250.948376 745.765755 
L 252.939775 745.765755 
L 254.931174 745.765755 
L 256.922573 745.765755 
L 258.913972 745.765755 
L 260.90537 745.765755 
L 262.896769 745.765755 
L 264.888168 745.765755 
L 266.879567 745.765755 
L 268.870966 745.765755 
L 270.862365 745.765755 
L 272.853763 745.765755 
L 274.845162 745.765755 
L 276.836561 745.765755 
L 278.82796 745.765755 
L 280.819359 739.067644 
L 282.810758 739.067644 
L 284.802156 739.067644 
L 286.793555 739.067644 
L 288.784954 739.067644 
L 290.776353 739.067644 
L 292.767752 739.067644 
L 294.759151 739.067644 
L 296.750549 739.067644 
L 298.741948 739.067644 
L 300.733347 739.067644 
L 302.724746 739.067644 
L 304.716145 739.067644 
L 306.707544 739.067644 
L 308.698942 739.067644 
L 310.690341 739.067644 
L 312.68174 739.067644 
L 314.673139 739.067644 
L 316.664538 739.067644 
L 318.655937 739.067644 
L 320.647335 739.067644 
L 322.638734 732.369532 
L 324.630133 732.369532 
L 326.621532 732.369532 
L 328.612931 732.369532 
L 330.60433 732.369532 
L 332.595728 732.369532 
L 334.587127 732.369532 
L 336.578526 732.369532 
L 338.569925 739.067644 
L 340.561324 739.067644 
L 342.552723 745.765755 
L 344.544122 745.765755 
L 346.53552 752.463866 
L 348.526919 752.463866 
L 350.518318 759.161978 
L 352.509717 759.161978 
L 354.501116 759.161978 
L 356.492515 759.161978 
L 358.483913 759.161978 
L 360.475312 752.463866 
L 362.466711 752.463866 
L 364.45811 745.765755 
L 366.449509 745.765755 
L 368.440908 739.067644 
L 370.432306 732.369532 
L 372.423705 732.369532 
L 374.415104 732.369532 
L 376.406503 732.369532 
L 378.397902 732.369532 
L 380.389301 739.067644 
L 382.380699 739.067644 
L 384.372098 739.067644 
L 386.363497 739.067644 
L 388.354896 739.067644 
L 390.346295 745.765755 
L 392.337694 745.765755 
L 394.329092 745.765755 
L 396.320491 745.765755 
L 398.31189 745.765755 
L 400.303289 745.765755 
L 402.294688 745.765755 
L 404.286087 745.765755 
L 406.277485 745.765755 
L 408.268884 745.765755 
L 410.260283 745.765755 
L 412.251682 745.765755 
L 414.243081 745.765755 
L 416.23448 745.765755 
L 418.225878 745.765755 
L 420.217277 739.067644 
L 422.208676 739.067644 
L 424.200075 739.067644 
L 426.191474 739.067644 
L 428.182873 739.067644 
L 430.174272 739.067644 
L 432.16567 739.067644 
L 434.157069 739.067644 
L 436.148468 739.067644 
L 438.139867 739.067644 
L 440.131266 739.067644 
L 442.122665 739.067644 
L 444.114063 739.067644 
L 446.105462 739.067644 
L 448.096861 739.067644 
L 450.08826 739.067644 
L 452.079659 739.067644 
L 454.071058 739.067644 
L 456.062456 739.067644 
L 458.053855 739.067644 
L 460.045254 732.369532 
L 462.036653 732.369532 
L 464.028052 732.369532 
L 466.019451 732.369532 
L 468.010849 732.369532 
L 470.002248 732.369532 
L 471.993647 732.369532 
L 473.985046 732.369532 
L 475.976445 739.067644 
L 477.967844 739.067644 
L 479.959242 745.765755 
L 481.950641 752.463866 
L 483.94204 752.463866 
L 485.933439 752.463866 
L 487.924838 752.463866 
L 489.916237 752.463866 
L 491.907635 745.765755 
L 493.899034 745.765755 
L 495.890433 739.067644 
L 497.881832 732.369532 
L 499.873231 732.369532 
L 501.86463 732.369532 
L 503.856028 732.369532 
L 505.847427 739.067644 
L 507.838826 739.067644 
L 509.830225 739.067644 
L 511.821624 739.067644 
L 513.813023 739.067644 
L 515.804421 739.402549 
L 517.79582 745.765755 
L 519.787219 745.765755 
L 521.778618 745.765755 
L 523.770017 745.765755 
L 525.761416 745.765755 
L 527.752815 745.765755 
L 529.744213 745.765755 
L 531.735612 745.765755 
L 533.727011 745.765755 
L 535.71841 745.765755 
L 537.709809 745.765755 
L 539.701208 745.765755 
L 541.692606 745.765755 
L 543.684005 745.765755 
L 545.675404 745.765755 
L 547.666803 745.765755 
L 549.658202 745.765755 
L 551.649601 745.765755 
L 553.640999 745.765755 
L 555.632398 745.765755 
L 557.623797 745.765755 
L 559.615196 739.067644 
L 561.606595 739.067644 
L 563.597994 739.067644 
L 565.589392 739.067644 
L 567.580791 739.067644 
L 569.57219 739.067644 
L 571.563589 739.067644 
L 573.554988 739.067644 
L 575.546387 732.369532 
L 577.537785 732.369532 
L 579.529184 732.369532 
L 581.520583 732.369532 
L 583.511982 732.369532 
L 585.503381 739.067644 
L 587.49478 739.067644 
L 589.486178 739.067644 
L 591.477577 745.765755 
L 593.468976 745.765755 
L 595.460375 745.765755 
L 597.451774 745.765755 
L 599.443173 745.765755 
L 601.434571 745.765755 
L 603.42597 745.765755 
L 605.417369 745.765755 
L 607.408768 745.765755 
L 609.400167 745.765755 
L 611.391566 745.765755 
L 613.382964 752.463866 
L 615.374363 752.463866 
L 617.365762 752.463866 
L 619.357161 759.161978 
L 621.34856 759.161978 
L 623.339959 759.161978 
L 625.331358 759.161978 
L 627.322756 759.161978 
L 629.314155 759.161978 
L 631.305554 759.161978 
L 633.296953 752.463866 
L 635.288352 745.765755 
L 637.279751 745.765755 
L 639.271149 739.067644 
L 641.262548 732.369532 
L 643.253947 732.369532 
L 645.245346 732.369532 
L 647.236745 732.369532 
L 649.228144 732.369532 
L 651.219542 739.067644 
L 653.210941 739.067644 
L 655.20234 739.067644 
L 657.193739 739.067644 
L 659.185138 739.067644 
L 661.176537 739.067644 
L 663.167935 739.067644 
L 665.159334 739.067644 
L 667.150733 739.067644 
L 669.142132 739.067644 
L 671.133531 739.067644 
L 673.12493 739.067644 
L 675.116328 739.067644 
L 677.107727 739.067644 
L 677.107727 518.029966 
L 677.107727 518.029966 
L 675.116328 518.029966 
L 673.12493 524.728078 
L 671.133531 511.331855 
L 669.142132 511.331855 
L 667.150733 518.029966 
L 665.159334 511.331855 
L 663.167935 504.633743 
L 661.176537 504.633743 
L 659.185138 518.029966 
L 657.193739 524.728078 
L 655.20234 524.728078 
L 653.210941 524.728078 
L 651.219542 531.426189 
L 649.228144 531.426189 
L 647.236745 538.1243 
L 645.245346 538.1243 
L 643.253947 538.1243 
L 641.262548 538.1243 
L 639.271149 544.822412 
L 637.279751 544.822412 
L 635.288352 544.822412 
L 633.296953 551.520523 
L 631.305554 551.520523 
L 629.314155 551.520523 
L 627.322756 551.520523 
L 625.331358 551.520523 
L 623.339959 551.520523 
L 621.34856 551.520523 
L 619.357161 551.520523 
L 617.365762 551.520523 
L 615.374363 551.520523 
L 613.382964 551.520523 
L 611.391566 551.520523 
L 609.400167 551.520523 
L 607.408768 544.822412 
L 605.417369 551.520523 
L 603.42597 544.822412 
L 601.434571 551.520523 
L 599.443173 551.520523 
L 597.451774 551.520523 
L 595.460375 551.520523 
L 593.468976 551.520523 
L 591.477577 551.520523 
L 589.486178 551.520523 
L 587.49478 544.822412 
L 585.503381 544.822412 
L 583.511982 544.822412 
L 581.520583 544.822412 
L 579.529184 538.1243 
L 577.537785 538.1243 
L 575.546387 538.1243 
L 573.554988 531.426189 
L 571.563589 531.426189 
L 569.57219 524.728078 
L 567.580791 524.728078 
L 565.589392 524.728078 
L 563.597994 497.935632 
L 561.606595 464.445075 
L 559.615196 417.558295 
L 557.623797 377.369626 
L 555.632398 343.879069 
L 553.640999 317.086623 
L 551.649601 310.388511 
L 549.658202 310.388511 
L 547.666803 310.388511 
L 545.675404 317.086623 
L 543.684005 317.086623 
L 541.692606 310.388511 
L 539.701208 283.596066 
L 537.709809 276.897954 
L 535.71841 256.80362 
L 533.727011 236.709286 
L 531.735612 223.313063 
L 529.744213 209.91684 
L 527.752815 203.218728 
L 525.761416 203.218728 
L 523.770017 209.91684 
L 521.778618 236.709286 
L 519.787219 276.897954 
L 517.79582 290.294177 
L 515.804421 384.067737 
L 513.813023 437.652629 
L 511.821624 457.746963 
L 509.830225 464.445075 
L 507.838826 497.935632 
L 505.847427 524.728078 
L 503.856028 531.426189 
L 501.86463 531.426189 
L 499.873231 538.1243 
L 497.881832 538.1243 
L 495.890433 544.822412 
L 493.899034 544.822412 
L 491.907635 551.520523 
L 489.916237 551.520523 
L 487.924838 551.520523 
L 485.933439 551.520523 
L 483.94204 551.520523 
L 481.950641 551.520523 
L 479.959242 551.520523 
L 477.967844 544.822412 
L 475.976445 544.822412 
L 473.985046 544.822412 
L 471.993647 544.822412 
L 470.002248 544.822412 
L 468.010849 538.1243 
L 466.019451 538.1243 
L 464.028052 538.1243 
L 462.036653 538.1243 
L 460.045254 531.426189 
L 458.053855 531.426189 
L 456.062456 531.426189 
L 454.071058 531.426189 
L 452.079659 531.426189 
L 450.08826 531.426189 
L 448.096861 531.426189 
L 446.105462 531.426189 
L 444.114063 531.426189 
L 442.122665 531.426189 
L 440.131266 531.426189 
L 438.139867 531.426189 
L 436.148468 524.728078 
L 434.157069 518.029966 
L 432.16567 511.331855 
L 430.174272 504.633743 
L 428.182873 491.23752 
L 426.191474 471.143186 
L 424.200075 464.445075 
L 422.208676 451.048852 
L 420.217277 424.256406 
L 418.225878 404.162072 
L 416.23448 390.765849 
L 414.243081 370.671514 
L 412.251682 350.57718 
L 410.260283 337.180957 
L 408.268884 337.180957 
L 406.277485 330.482846 
L 404.286087 330.482846 
L 402.294688 323.784734 
L 400.303289 330.482846 
L 398.31189 337.180957 
L 396.320491 337.180957 
L 394.329092 343.879069 
L 392.337694 357.275292 
L 390.346295 377.369626 
L 388.354896 410.860183 
L 386.363497 451.048852 
L 384.372098 484.539409 
L 382.380699 518.029966 
L 380.389301 524.728078 
L 378.397902 531.426189 
L 376.406503 538.1243 
L 374.415104 538.1243 
L 372.423705 538.1243 
L 370.432306 538.1243 
L 368.440908 544.822412 
L 366.449509 544.822412 
L 364.45811 544.822412 
L 362.466711 551.520523 
L 360.475312 551.520523 
L 358.483913 551.520523 
L 356.492515 551.520523 
L 354.501116 551.520523 
L 352.509717 551.520523 
L 350.518318 551.520523 
L 348.526919 551.520523 
L 346.53552 551.520523 
L 344.544122 551.520523 
L 342.552723 551.520523 
L 340.561324 551.520523 
L 338.569925 544.822412 
L 336.578526 544.822412 
L 334.587127 544.822412 
L 332.595728 544.822412 
L 330.60433 544.822412 
L 328.612931 538.1243 
L 326.621532 538.1243 
L 324.630133 538.1243 
L 322.638734 538.1243 
L 320.647335 531.426189 
L 318.655937 531.426189 
L 316.664538 531.426189 
L 314.673139 531.426189 
L 312.68174 524.728078 
L 310.690341 524.728078 
L 308.698942 524.728078 
L 306.707544 518.029966 
L 304.716145 511.331855 
L 302.724746 504.633743 
L 300.733347 497.935632 
L 298.741948 484.539409 
L 296.750549 484.539409 
L 294.759151 477.841297 
L 292.767752 471.143186 
L 290.776353 471.143186 
L 288.784954 471.143186 
L 286.793555 457.746963 
L 284.802156 437.652629 
L 282.810758 424.256406 
L 280.819359 410.860183 
L 278.82796 390.765849 
L 276.836561 357.275292 
L 274.845162 323.784734 
L 272.853763 303.6904 
L 270.862365 283.596066 
L 268.870966 256.80362 
L 266.879567 243.407397 
L 264.888168 236.709286 
L 262.896769 243.407397 
L 260.90537 243.407397 
L 258.913972 223.313063 
L 256.922573 230.011174 
L 254.931174 250.105509 
L 252.939775 263.501731 
L 250.948376 296.992289 
L 248.956977 337.180957 
L 246.965579 430.954517 
L 244.97418 477.841297 
L 242.982781 491.23752 
L 240.991382 491.23752 
L 238.999983 497.935632 
L 237.008584 511.331855 
L 235.017185 524.728078 
L 233.025787 524.728078 
L 231.034388 531.426189 
L 229.042989 531.426189 
L 227.05159 531.426189 
L 225.060191 538.1243 
L 223.068792 538.1243 
L 221.077394 538.1243 
L 219.085995 538.1243 
L 217.094596 544.822412 
L 215.103197 544.822412 
L 213.111798 544.822412 
L 211.120399 544.822412 
L 209.129001 551.520523 
L 207.137602 544.822412 
L 205.146203 551.520523 
L 203.154804 551.520523 
L 201.163405 551.520523 
L 199.172006 544.822412 
L 197.180608 544.822412 
L 195.189209 544.822412 
L 193.19781 544.822412 
L 191.206411 544.822412 
L 189.215012 544.822412 
L 187.223613 544.822412 
L 185.232215 544.822412 
L 183.240816 538.1243 
L 181.249417 538.1243 
L 179.258018 538.1243 
L 177.266619 531.426189 
L 175.27522 531.426189 
L 173.283822 524.728078 
L 171.292423 531.426189 
L 169.301024 518.029966 
L 167.309625 484.539409 
L 165.318226 457.746963 
L 163.326827 417.558295 
L 161.335429 390.765849 
L 159.34403 384.067737 
L 157.352631 384.067737 
L 155.361232 370.671514 
L 153.369833 363.973403 
L 151.378434 384.067737 
L 149.387036 384.067737 
L 147.395637 343.879069 
L 145.404238 317.086623 
L 143.412839 303.6904 
L 141.42144 283.596066 
L 139.430041 263.501731 
L 137.438642 250.105509 
L 135.447244 236.709286 
L 133.455845 230.011174 
L 131.464446 216.614951 
L 129.473047 196.520617 
L 127.481648 189.822506 
L 125.490249 203.218728 
L 123.498851 209.91684 
L 121.507452 203.218728 
L 119.516053 230.011174 
L 117.524654 283.596066 
L 115.533255 290.294177 
L 113.541856 303.6904 
L 111.550458 357.275292 
L 109.559059 424.256406 
L 107.56766 504.633743 
L 105.576261 524.728078 
L 103.584862 531.426189 
L 101.593463 538.1243 
L 99.602065 538.1243 
L 97.610666 544.822412 
L 95.619267 544.822412 
L 93.627868 551.520523 
L 91.636469 551.520523 
L 89.64507 551.520523 
L 87.653672 551.520523 
L 85.662273 551.520523 
z
" style="fill:#008000;fill-opacity:0.4;"/>
   </g>
   <g id="matplotlib.axis_1">
    <g id="xtick_1">
     <g id="line2d_1">
      <defs>
       <path d="M 0 0 
L 0 3.5 
" id="mee89f7532e" style="stroke:#000000;stroke-width:0.8;"/>
      </defs>
      <g>
       <use style="stroke:#000000;stroke-width:0.8;" x="85.662273" xlink:href="#mee89f7532e" y="822.04"/>
      </g>
     </g>
     <g id="text_1">
      <!-- 0.0 -->
      <defs>
       <path d="M 31.78125 66.40625 
Q 24.171875 66.40625 20.328125 58.90625 
Q 16.5 51.421875 16.5 36.375 
Q 16.5 21.390625 20.328125 13.890625 
Q 24.171875 6.390625 31.78125 6.390625 
Q 39.453125 6.390625 43.28125 13.890625 
Q 47.125 21.390625 47.125 36.375 
Q 47.125 51.421875 43.28125 58.90625 
Q 39.453125 66.40625 31.78125 66.40625 
z
M 31.78125 74.21875 
Q 44.046875 74.21875 50.515625 64.515625 
Q 56.984375 54.828125 56.984375 36.375 
Q 56.984375 17.96875 50.515625 8.265625 
Q 44.046875 -1.421875 31.78125 -1.421875 
Q 19.53125 -1.421875 13.0625 8.265625 
Q 6.59375 17.96875 6.59375 36.375 
Q 6.59375 54.828125 13.0625 64.515625 
Q 19.53125 74.21875 31.78125 74.21875 
z
" id="DejaVuSans-30"/>
       <path d="M 10.6875 12.40625 
L 21 12.40625 
L 21 0 
L 10.6875 0 
z
" id="DejaVuSans-2e"/>
      </defs>
      <g transform="translate(77.71071 836.638438)scale(0.1 -0.1)">
       <use xlink:href="#DejaVuSans-30"/>
       <use x="63.623047" xlink:href="#DejaVuSans-2e"/>
       <use x="95.410156" xlink:href="#DejaVuSans-30"/>
      </g>
     </g>
    </g>
    <g id="xtick_2">
     <g id="line2d_2">
      <g>
       <use style="stroke:#000000;stroke-width:0.8;" x="203.951364" xlink:href="#mee89f7532e" y="822.04"/>
      </g>
     </g>
     <g id="text_2">
      <!-- 0.2 -->
      <defs>
       <path d="M 19.1875 8.296875 
L 53.609375 8.296875 
L 53.609375 0 
L 7.328125 0 
L 7.328125 8.296875 
Q 12.9375 14.109375 22.625 23.890625 
Q 32.328125 33.6875 34.8125 36.53125 
Q 39.546875 41.84375 41.421875 45.53125 
Q 43.3125 49.21875 43.3125 52.78125 
Q 43.3125 58.59375 39.234375 62.25 
Q 35.15625 65.921875 28.609375 65.921875 
Q 23.96875 65.921875 18.8125 64.3125 
Q 13.671875 62.703125 7.8125 59.421875 
L 7.8125 69.390625 
Q 13.765625 71.78125 18.9375 73 
Q 24.125 74.21875 28.421875 74.21875 
Q 39.75 74.21875 46.484375 68.546875 
Q 53.21875 62.890625 53.21875 53.421875 
Q 53.21875 48.921875 51.53125 44.890625 
Q 49.859375 40.875 45.40625 35.40625 
Q 44.1875 33.984375 37.640625 27.21875 
Q 31.109375 20.453125 19.1875 8.296875 
z
" id="DejaVuSans-32"/>
      </defs>
      <g transform="translate(195.999801 836.638438)scale(0.1 -0.1)">
       <use xlink:href="#DejaVuSans-30"/>
       <use x="63.623047" xlink:href="#DejaVuSans-2e"/>
       <use x="95.410156" xlink:href="#DejaVuSans-32"/>
      </g>
     </g>
    </g>
    <g id="xtick_3">
     <g id="line2d_3">
      <g>
       <use style="stroke:#000000;stroke-width:0.8;" x="322.240455" xlink:href="#mee89f7532e" y="822.04"/>
      </g>
     </g>
     <g id="text_3">
      <!-- 0.4 -->
      <defs>
       <path d="M 37.796875 64.3125 
L 12.890625 25.390625 
L 37.796875 25.390625 
z
M 35.203125 72.90625 
L 47.609375 72.90625 
L 47.609375 25.390625 
L 58.015625 25.390625 
L 58.015625 17.1875 
L 47.609375 17.1875 
L 47.609375 0 
L 37.796875 0 
L 37.796875 17.1875 
L 4.890625 17.1875 
L 4.890625 26.703125 
z
" id="DejaVuSans-34"/>
      </defs>
      <g transform="translate(314.288892 836.638438)scale(0.1 -0.1)">
       <use xlink:href="#DejaVuSans-30"/>
       <use x="63.623047" xlink:href="#DejaVuSans-2e"/>
       <use x="95.410156" xlink:href="#DejaVuSans-34"/>
      </g>
     </g>
    </g>
    <g id="xtick_4">
     <g id="line2d_4">
      <g>
       <use style="stroke:#000000;stroke-width:0.8;" x="440.529545" xlink:href="#mee89f7532e" y="822.04"/>
      </g>
     </g>
     <g id="text_4">
      <!-- 0.6 -->
      <defs>
       <path d="M 33.015625 40.375 
Q 26.375 40.375 22.484375 35.828125 
Q 18.609375 31.296875 18.609375 23.390625 
Q 18.609375 15.53125 22.484375 10.953125 
Q 26.375 6.390625 33.015625 6.390625 
Q 39.65625 6.390625 43.53125 10.953125 
Q 47.40625 15.53125 47.40625 23.390625 
Q 47.40625 31.296875 43.53125 35.828125 
Q 39.65625 40.375 33.015625 40.375 
z
M 52.59375 71.296875 
L 52.59375 62.3125 
Q 48.875 64.0625 45.09375 64.984375 
Q 41.3125 65.921875 37.59375 65.921875 
Q 27.828125 65.921875 22.671875 59.328125 
Q 17.53125 52.734375 16.796875 39.40625 
Q 19.671875 43.65625 24.015625 45.921875 
Q 28.375 48.1875 33.59375 48.1875 
Q 44.578125 48.1875 50.953125 41.515625 
Q 57.328125 34.859375 57.328125 23.390625 
Q 57.328125 12.15625 50.6875 5.359375 
Q 44.046875 -1.421875 33.015625 -1.421875 
Q 20.359375 -1.421875 13.671875 8.265625 
Q 6.984375 17.96875 6.984375 36.375 
Q 6.984375 53.65625 15.1875 63.9375 
Q 23.390625 74.21875 37.203125 74.21875 
Q 40.921875 74.21875 44.703125 73.484375 
Q 48.484375 72.75 52.59375 71.296875 
z
" id="DejaVuSans-36"/>
      </defs>
      <g transform="translate(432.577983 836.638438)scale(0.1 -0.1)">
       <use xlink:href="#DejaVuSans-30"/>
       <use x="63.623047" xlink:href="#DejaVuSans-2e"/>
       <use x="95.410156" xlink:href="#DejaVuSans-36"/>
      </g>
     </g>
    </g>
    <g id="xtick_5">
     <g id="line2d_5">
      <g>
       <use style="stroke:#000000;stroke-width:0.8;" x="558.818636" xlink:href="#mee89f7532e" y="822.04"/>
      </g>
     </g>
     <g id="text_5">
      <!-- 0.8 -->
      <defs>
       <path d="M 31.78125 34.625 
Q 24.75 34.625 20.71875 30.859375 
Q 16.703125 27.09375 16.703125 20.515625 
Q 16.703125 13.921875 20.71875 10.15625 
Q 24.75 6.390625 31.78125 6.390625 
Q 38.8125 6.390625 42.859375 10.171875 
Q 46.921875 13.96875 46.921875 20.515625 
Q 46.921875 27.09375 42.890625 30.859375 
Q 38.875 34.625 31.78125 34.625 
z
M 21.921875 38.8125 
Q 15.578125 40.375 12.03125 44.71875 
Q 8.5 49.078125 8.5 55.328125 
Q 8.5 64.0625 14.71875 69.140625 
Q 20.953125 74.21875 31.78125 74.21875 
Q 42.671875 74.21875 48.875 69.140625 
Q 55.078125 64.0625 55.078125 55.328125 
Q 55.078125 49.078125 51.53125 44.71875 
Q 48 40.375 41.703125 38.8125 
Q 48.828125 37.15625 52.796875 32.3125 
Q 56.78125 27.484375 56.78125 20.515625 
Q 56.78125 9.90625 50.3125 4.234375 
Q 43.84375 -1.421875 31.78125 -1.421875 
Q 19.734375 -1.421875 13.25 4.234375 
Q 6.78125 9.90625 6.78125 20.515625 
Q 6.78125 27.484375 10.78125 32.3125 
Q 14.796875 37.15625 21.921875 38.8125 
z
M 18.3125 54.390625 
Q 18.3125 48.734375 21.84375 45.5625 
Q 25.390625 42.390625 31.78125 42.390625 
Q 38.140625 42.390625 41.71875 45.5625 
Q 45.3125 48.734375 45.3125 54.390625 
Q 45.3125 60.0625 41.71875 63.234375 
Q 38.140625 66.40625 31.78125 66.40625 
Q 25.390625 66.40625 21.84375 63.234375 
Q 18.3125 60.0625 18.3125 54.390625 
z
" id="DejaVuSans-38"/>
      </defs>
      <g transform="translate(550.867074 836.638438)scale(0.1 -0.1)">
       <use xlink:href="#DejaVuSans-30"/>
       <use x="63.623047" xlink:href="#DejaVuSans-2e"/>
       <use x="95.410156" xlink:href="#DejaVuSans-38"/>
      </g>
     </g>
    </g>
    <g id="xtick_6">
     <g id="line2d_6">
      <g>
       <use style="stroke:#000000;stroke-width:0.8;" x="677.107727" xlink:href="#mee89f7532e" y="822.04"/>
      </g>
     </g>
     <g id="text_6">
      <!-- 1.0 -->
      <defs>
       <path d="M 12.40625 8.296875 
L 28.515625 8.296875 
L 28.515625 63.921875 
L 10.984375 60.40625 
L 10.984375 69.390625 
L 28.421875 72.90625 
L 38.28125 72.90625 
L 38.28125 8.296875 
L 54.390625 8.296875 
L 54.390625 0 
L 12.40625 0 
z
" id="DejaVuSans-31"/>
      </defs>
      <g transform="translate(669.156165 836.638438)scale(0.1 -0.1)">
       <use xlink:href="#DejaVuSans-31"/>
       <use x="63.623047" xlink:href="#DejaVuSans-2e"/>
       <use x="95.410156" xlink:href="#DejaVuSans-30"/>
      </g>
     </g>
    </g>
   </g>
   <g id="matplotlib.axis_2">
    <g id="ytick_1">
     <g id="line2d_7">
      <defs>
       <path d="M 0 0 
L -3.5 0 
" id="m53cc4cc507" style="stroke:#000000;stroke-width:0.8;"/>
      </defs>
      <g>
       <use style="stroke:#000000;stroke-width:0.8;" x="56.09" xlink:href="#m53cc4cc507" y="799.350647"/>
      </g>
     </g>
     <g id="text_7">
      <!-- 0.0 -->
      <g transform="translate(33.186875 803.149865)scale(0.1 -0.1)">
       <use xlink:href="#DejaVuSans-30"/>
       <use x="63.623047" xlink:href="#DejaVuSans-2e"/>
       <use x="95.410156" xlink:href="#DejaVuSans-30"/>
      </g>
     </g>
    </g>
    <g id="ytick_2">
     <g id="line2d_8">
      <g>
       <use style="stroke:#000000;stroke-width:0.8;" x="56.09" xlink:href="#m53cc4cc507" y="665.388418"/>
      </g>
     </g>
     <g id="text_8">
      <!-- 0.2 -->
      <g transform="translate(33.186875 669.187636)scale(0.1 -0.1)">
       <use xlink:href="#DejaVuSans-30"/>
       <use x="63.623047" xlink:href="#DejaVuSans-2e"/>
       <use x="95.410156" xlink:href="#DejaVuSans-32"/>
      </g>
     </g>
    </g>
    <g id="ytick_3">
     <g id="line2d_9">
      <g>
       <use style="stroke:#000000;stroke-width:0.8;" x="56.09" xlink:href="#m53cc4cc507" y="531.426189"/>
      </g>
     </g>
     <g id="text_9">
      <!-- 0.4 -->
      <g transform="translate(33.186875 535.225408)scale(0.1 -0.1)">
       <use xlink:href="#DejaVuSans-30"/>
       <use x="63.623047" xlink:href="#DejaVuSans-2e"/>
       <use x="95.410156" xlink:href="#DejaVuSans-34"/>
      </g>
     </g>
    </g>
    <g id="ytick_4">
     <g id="line2d_10">
      <g>
       <use style="stroke:#000000;stroke-width:0.8;" x="56.09" xlink:href="#m53cc4cc507" y="397.46396"/>
      </g>
     </g>
     <g id="text_10">
      <!-- 0.6 -->
      <g transform="translate(33.186875 401.263179)scale(0.1 -0.1)">
       <use xlink:href="#DejaVuSans-30"/>
       <use x="63.623047" xlink:href="#DejaVuSans-2e"/>
       <use x="95.410156" xlink:href="#DejaVuSans-36"/>
      </g>
     </g>
    </g>
    <g id="ytick_5">
     <g id="line2d_11">
      <g>
       <use style="stroke:#000000;stroke-width:0.8;" x="56.09" xlink:href="#m53cc4cc507" y="263.501731"/>
      </g>
     </g>
     <g id="text_11">
      <!-- 0.8 -->
      <g transform="translate(33.186875 267.30095)scale(0.1 -0.1)">
       <use xlink:href="#DejaVuSans-30"/>
       <use x="63.623047" xlink:href="#DejaVuSans-2e"/>
       <use x="95.410156" xlink:href="#DejaVuSans-38"/>
      </g>
     </g>
    </g>
    <g id="ytick_6">
     <g id="line2d_12">
      <g>
       <use style="stroke:#000000;stroke-width:0.8;" x="56.09" xlink:href="#m53cc4cc507" y="129.539503"/>
      </g>
     </g>
     <g id="text_12">
      <!-- 1.0 -->
      <g transform="translate(33.186875 133.338721)scale(0.1 -0.1)">
       <use xlink:href="#DejaVuSans-31"/>
       <use x="63.623047" xlink:href="#DejaVuSans-2e"/>
       <use x="95.410156" xlink:href="#DejaVuSans-30"/>
      </g>
     </g>
    </g>
   </g>
   <g id="line2d_13">
    <path clip-path="url(#p8c022af4b8)" d="M 85.662273 765.38459 
L 87.653672 765.83745 
L 89.64507 764.025945 
L 91.636469 761.308656 
L 93.627868 744.099131 
L 95.619267 737.305906 
L 97.610666 718.737536 
L 99.602065 689.300676 
L 101.593463 654.88176 
L 103.584862 597.818539 
L 105.576261 549.813175 
L 107.56766 495.467378 
L 111.550458 376.812343 
L 113.541856 328.806978 
L 115.533255 313.862152 
L 117.524654 273.555597 
L 119.516053 198.830126 
L 121.507452 173.469067 
L 123.498851 167.581427 
L 125.490249 139.050151 
L 127.481648 136.332727 
L 129.473047 158.52357 
L 131.464446 206.529605 
L 133.455845 223.285601 
L 135.447244 227.814863 
L 137.438642 270.838173 
L 139.430041 295.74711 
L 141.42144 322.920008 
L 143.412839 343.752474 
L 145.404238 376.359551 
L 147.395637 427.987924 
L 149.387036 434.328356 
L 151.378434 402.174072 
L 153.369833 408.514504 
L 155.361232 423.459331 
L 157.352631 428.894178 
L 159.34403 423.459331 
L 161.335429 447.914805 
L 163.326827 490.485992 
L 165.318226 504.525234 
L 167.309625 538.944149 
L 169.301024 569.287264 
L 171.292423 573.363065 
L 173.283822 586.496722 
L 175.27522 609.140357 
L 177.266619 629.972823 
L 179.258018 635.860463 
L 181.249417 642.653688 
L 183.240816 668.015417 
L 185.232215 683.865828 
L 187.223613 691.564637 
L 189.215012 685.677667 
L 191.206411 696.0939 
L 193.19781 707.86851 
L 195.189209 714.208943 
L 197.180608 720.096583 
L 199.172006 734.588616 
L 201.163405 749.986637 
L 203.154804 749.986637 
L 205.146203 743.646272 
L 207.137602 746.363561 
L 209.129001 741.381841 
L 211.120399 734.588616 
L 213.111798 733.230039 
L 215.103197 720.096583 
L 217.094596 696.546693 
L 219.085995 670.732171 
L 221.077394 660.315938 
L 223.068792 646.729489 
L 225.060191 624.991438 
L 227.05159 611.404989 
L 229.042989 600.083171 
L 231.034388 586.949514 
L 233.025787 570.192849 
L 235.017185 533.962094 
L 237.008584 521.734692 
L 238.999983 513.129628 
L 240.991382 510.412204 
L 242.982781 505.430818 
L 244.97418 483.239305 
L 250.948376 304.351504 
L 252.939775 271.290965 
L 254.931174 241.401313 
L 256.922573 202.000342 
L 258.913972 235.06088 
L 260.90537 244.118737 
L 262.896769 231.437872 
L 264.888168 233.249041 
L 266.879567 251.364753 
L 268.870966 295.74711 
L 270.862365 322.013754 
L 272.853763 351.451284 
L 274.845162 400.815025 
L 276.836561 424.817708 
L 278.82796 445.197382 
L 280.819359 463.313094 
L 282.810758 467.388895 
L 284.802156 490.938785 
L 286.793555 495.467378 
L 288.784954 496.825755 
L 290.776353 495.467378 
L 292.767752 498.637594 
L 294.759151 508.148242 
L 296.750549 509.053827 
L 298.741948 517.205429 
L 300.733347 523.998653 
L 302.724746 528.527916 
L 304.716145 532.603717 
L 306.707544 546.642959 
L 308.698942 549.360382 
L 310.690341 568.834472 
L 312.68174 585.590467 
L 314.673139 597.818539 
L 316.664538 595.553908 
L 318.655937 600.083171 
L 322.638734 636.766048 
L 324.630133 651.258752 
L 326.621532 663.033362 
L 328.612931 683.413036 
L 330.60433 699.716909 
L 332.595728 705.604549 
L 334.587127 708.774095 
L 336.578526 716.020782 
L 340.561324 740.928982 
L 342.552723 752.251 
L 344.544122 765.38459 
L 346.53552 774.895038 
L 348.526919 782.141189 
L 350.518318 784.858479 
L 352.509717 783.046907 
L 354.501116 781.688262 
L 356.492515 780.782544 
L 358.483913 774.442179 
L 360.475312 771.272029 
L 362.466711 757.68558 
L 364.45811 746.816421 
L 366.449509 723.719591 
L 368.440908 701.98154 
L 370.432306 681.601866 
L 372.423705 651.711544 
L 374.415104 636.313256 
L 376.406503 610.499404 
L 378.397902 579.703497 
L 380.389301 556.606399 
L 384.372098 493.202746 
L 386.363497 457.425454 
L 388.354896 425.27117 
L 392.337694 377.265135 
L 394.329092 374.548381 
L 396.320491 374.095589 
L 398.31189 366.848902 
L 400.303289 355.527084 
L 402.294688 366.848902 
L 404.286087 368.207949 
L 406.277485 375.001174 
L 408.268884 371.378165 
L 410.260283 389.040415 
L 412.251682 410.778466 
L 414.243081 423.006538 
L 416.23448 447.009221 
L 418.225878 451.990606 
L 420.217277 484.598352 
L 424.200075 497.279217 
L 428.182873 523.998653 
L 430.174272 538.944149 
L 432.16567 533.962094 
L 434.157069 548.90759 
L 436.148468 575.174234 
L 438.139867 595.101116 
L 440.131266 600.083171 
L 442.122665 598.271332 
L 446.105462 603.706179 
L 448.096861 591.025315 
L 450.08826 588.307891 
L 452.079659 584.23209 
L 454.071058 591.478107 
L 456.062456 604.611764 
L 458.053855 612.310573 
L 460.045254 630.879078 
L 462.036653 639.936264 
L 464.028052 658.504769 
L 466.019451 668.015417 
L 468.010849 676.167019 
L 470.002248 689.753468 
L 471.993647 704.245502 
L 473.985046 714.661735 
L 475.976445 723.266799 
L 477.967844 744.552057 
L 479.959242 759.950011 
L 481.950641 769.007599 
L 483.94204 774.895038 
L 485.933439 775.347964 
L 487.924838 770.81917 
L 489.916237 757.68558 
L 491.907635 742.287627 
L 495.890433 701.528078 
L 497.881832 672.996803 
L 499.873231 637.21951 
L 501.86463 603.706179 
L 503.856028 584.684882 
L 505.847427 539.849734 
L 507.838826 505.430818 
L 509.830225 485.051145 
L 511.821624 471.011903 
L 513.813023 447.914805 
L 515.804421 375.453966 
L 517.79582 320.655377 
L 519.787219 273.555597 
L 521.778618 222.380016 
L 523.770017 174.827444 
L 525.761416 163.958418 
L 527.752815 167.128634 
L 529.744213 186.149931 
L 531.735612 213.775622 
L 533.727011 254.081507 
L 535.71841 288.047631 
L 537.709809 299.822911 
L 539.701208 332.883449 
L 541.692606 355.074292 
L 543.684005 354.168707 
L 545.675404 341.940635 
L 547.666803 337.864834 
L 549.658202 339.223211 
L 551.649601 342.84622 
L 553.640999 382.247191 
L 555.632398 413.948682 
L 559.615196 492.749954 
L 561.606595 517.205429 
L 563.597994 553.436183 
L 565.589392 563.852416 
L 567.580791 566.117048 
L 569.57219 577.438865 
L 571.563589 593.289946 
L 573.554988 622.726806 
L 575.546387 635.860463 
L 577.537785 651.711544 
L 579.529184 684.31862 
L 581.520583 706.510133 
L 583.511982 718.737536 
L 585.503381 723.719591 
L 587.49478 730.965608 
L 589.486178 742.740486 
L 591.477577 747.269347 
L 593.468976 745.004917 
L 595.460375 748.175066 
L 597.451774 745.910702 
L 599.443173 751.345282 
L 601.434571 740.023196 
L 603.42597 741.834767 
L 605.417369 740.928982 
L 607.408768 741.834767 
L 609.400167 751.345282 
L 611.391566 756.326935 
L 613.382964 766.743235 
L 615.374363 771.724889 
L 617.365762 778.065254 
L 619.357161 783.499834 
L 621.34856 785.764197 
L 623.339959 788.934413 
L 625.331358 789.387273 
L 629.314155 780.329618 
L 631.305554 773.536393 
L 635.288352 743.646272 
L 637.279751 727.795392 
L 639.271149 709.680349 
L 641.262548 674.35518 
L 643.253947 657.599184 
L 645.245346 643.559273 
L 647.236745 620.462845 
L 649.228144 601.89434 
L 651.219542 574.268649 
L 653.210941 573.363065 
L 655.20234 556.606399 
L 657.193739 547.095751 
L 659.185138 529.886293 
L 661.176537 516.752636 
L 663.167935 534.868348 
L 665.159334 537.585102 
L 667.150733 528.527916 
L 669.142132 527.621662 
L 671.133531 543.472742 
L 673.12493 552.530598 
L 675.116328 532.603717 
L 677.107727 528.527916 
L 677.107727 528.527916 
" style="fill:none;stroke:#1f77b4;stroke-linecap:square;stroke-width:1.5;"/>
   </g>
   <g id="line2d_14">
    <path clip-path="url(#p8c022af4b8)" d="M 85.662273 669.624709 
L 87.653672 670.263585 
L 89.64507 669.999186 
L 91.636469 669.960584 
L 93.627868 668.279799 
L 95.619267 664.593634 
L 97.610666 663.077393 
L 101.593463 645.506308 
L 103.584862 626.178467 
L 107.56766 563.773661 
L 109.559059 522.776195 
L 111.550458 485.023083 
L 113.541856 454.210801 
L 115.533255 439.356064 
L 117.524654 432.586477 
L 119.516053 411.765045 
L 121.507452 398.230718 
L 123.498851 396.538916 
L 125.490249 393.43249 
L 127.481648 389.973621 
L 129.473047 391.162447 
L 131.464446 399.068334 
L 133.455845 408.576215 
L 135.447244 407.606047 
L 137.438642 414.226865 
L 139.430041 425.950059 
L 141.42144 433.060633 
L 143.412839 445.369911 
L 145.404238 451.27835 
L 147.395637 474.906467 
L 149.387036 497.171254 
L 151.378434 486.689326 
L 153.369833 478.299237 
L 155.361232 484.033085 
L 157.352631 491.41458 
L 159.34403 491.553918 
L 161.335429 492.225316 
L 163.326827 515.303482 
L 165.318226 536.092305 
L 167.309625 547.634825 
L 169.301024 572.966025 
L 171.292423 587.299808 
L 173.283822 589.967154 
L 175.27522 601.170803 
L 177.266619 613.805821 
L 179.258018 622.584489 
L 181.249417 626.070768 
L 183.240816 631.916457 
L 185.232215 642.509079 
L 187.223613 647.776263 
L 189.215012 648.35371 
L 191.206411 649.195645 
L 195.189209 655.912 
L 197.180608 657.805715 
L 199.172006 659.941531 
L 201.163405 665.179631 
L 203.154804 666.980453 
L 205.146203 666.522426 
L 207.137602 665.395733 
L 209.129001 666.075855 
L 211.120399 664.360434 
L 213.111798 662.815197 
L 215.103197 661.897027 
L 217.094596 656.542151 
L 221.077394 639.79467 
L 223.068792 635.342188 
L 225.060191 628.081876 
L 227.05159 616.157651 
L 229.042989 610.304031 
L 231.034388 603.542375 
L 233.025787 593.623001 
L 235.017185 578.85913 
L 237.008584 560.395521 
L 238.999983 552.053904 
L 240.991382 546.999298 
L 242.982781 547.22439 
L 244.97418 540.489879 
L 246.965579 515.456393 
L 248.956977 473.942644 
L 250.948376 448.218106 
L 252.939775 427.326785 
L 256.922573 407.225136 
L 258.913972 404.517688 
L 260.90537 414.924879 
L 262.896769 411.302963 
L 264.888168 409.85529 
L 266.879567 411.546651 
L 268.870966 420.488189 
L 270.862365 434.234036 
L 272.853763 443.637303 
L 274.845162 461.05583 
L 276.836561 480.803802 
L 278.82796 496.722833 
L 280.819359 506.758367 
L 282.810758 515.559597 
L 284.802156 520.989738 
L 286.793555 536.539933 
L 288.784954 535.78948 
L 290.776353 535.802788 
L 292.767752 536.969581 
L 294.759151 540.051946 
L 296.750549 545.26387 
L 298.741948 545.00282 
L 300.733347 554.890467 
L 302.724746 554.92616 
L 304.716145 559.749682 
L 306.707544 565.547338 
L 308.698942 570.064509 
L 310.690341 577.024111 
L 312.68174 589.015229 
L 314.673139 598.929844 
L 316.664538 604.042618 
L 318.655937 601.929276 
L 320.647335 608.843402 
L 324.630133 627.83951 
L 326.621532 634.440675 
L 328.612931 640.277991 
L 330.60433 648.256235 
L 332.595728 653.526327 
L 334.587127 654.591326 
L 336.578526 655.994052 
L 338.569925 659.089725 
L 342.552723 666.146009 
L 344.544122 668.680187 
L 346.53552 671.509963 
L 350.518318 673.973458 
L 352.509717 674.25848 
L 354.501116 673.16845 
L 356.492515 673.163251 
L 358.483913 672.521466 
L 360.475312 671.689049 
L 362.466711 670.358769 
L 364.45811 667.766159 
L 366.449509 664.607118 
L 370.432306 650.845143 
L 372.423705 642.279845 
L 374.415104 630.320279 
L 376.406503 621.304974 
L 378.397902 606.712168 
L 380.389301 587.361501 
L 382.380699 572.094125 
L 384.372098 548.767247 
L 388.354896 504.229918 
L 390.346295 484.875108 
L 392.337694 471.688289 
L 394.329092 462.892347 
L 396.320491 462.758649 
L 398.31189 462.823867 
L 400.303289 456.094292 
L 402.294688 454.901412 
L 404.286087 461.105978 
L 406.277485 459.47675 
L 408.268884 464.183319 
L 410.260283 462.539462 
L 412.251682 475.162053 
L 416.23448 494.411984 
L 418.225878 505.377498 
L 420.217277 513.217637 
L 422.208676 531.922819 
L 424.200075 533.291613 
L 426.191474 539.930235 
L 428.182873 549.067164 
L 430.174272 560.087848 
L 432.16567 564.106275 
L 434.157069 564.612687 
L 438.139867 593.479785 
L 440.131266 602.845507 
L 442.122665 604.706436 
L 444.114063 605.117577 
L 446.105462 607.263352 
L 448.096861 604.195089 
L 450.08826 598.947647 
L 452.079659 596.994266 
L 454.071058 597.067945 
L 458.053855 608.37753 
L 466.019451 637.43526 
L 468.010849 641.118957 
L 470.002248 645.198812 
L 473.985046 655.584322 
L 475.976445 657.823253 
L 477.967844 661.250219 
L 479.959242 667.656522 
L 481.950641 669.874213 
L 483.94204 671.912114 
L 485.933439 672.420818 
L 487.924838 671.957767 
L 489.916237 670.079475 
L 491.907635 667.880732 
L 493.899034 663.54441 
L 495.890433 657.41555 
L 497.881832 650.198159 
L 499.873231 636.97591 
L 501.86463 620.747885 
L 503.856028 603.224744 
L 505.847427 590.396538 
L 507.838826 557.826619 
L 509.830225 536.72651 
L 511.821624 527.928188 
L 513.813023 514.996779 
L 515.804421 491.980041 
L 517.79582 450.283857 
L 521.778618 415.431644 
L 523.770017 401.405623 
L 525.761416 395.672744 
L 527.752815 394.84491 
L 529.744213 396.772204 
L 531.735612 402.745069 
L 533.727011 409.660516 
L 535.71841 421.851079 
L 537.709809 429.96681 
L 539.701208 434.176397 
L 541.692606 450.412179 
L 543.684005 451.737523 
L 545.675404 452.059473 
L 547.666803 446.101151 
L 549.658202 446.020156 
L 551.649601 446.699133 
L 553.640999 453.47912 
L 555.632398 474.499381 
L 557.623797 490.458512 
L 559.615196 517.845768 
L 563.597994 558.29487 
L 565.589392 578.48474 
L 567.580791 582.399875 
L 569.57219 585.900872 
L 571.563589 594.234644 
L 573.554988 605.605217 
L 575.546387 621.328153 
L 577.537785 626.805533 
L 579.529184 636.44958 
L 581.520583 650.226537 
L 583.511982 655.695281 
L 585.503381 659.227918 
L 587.49478 660.345092 
L 589.486178 663.143317 
L 591.477577 665.71213 
L 593.468976 666.266575 
L 595.460375 665.991512 
L 599.443173 666.677452 
L 601.434571 666.49863 
L 603.42597 664.481264 
L 605.417369 664.96441 
L 607.408768 664.856094 
L 609.400167 665.816744 
L 611.391566 667.347968 
L 613.382964 669.713899 
L 615.374363 671.346212 
L 617.365762 672.327132 
L 619.357161 673.456557 
L 621.34856 674.163649 
L 623.339959 674.683722 
L 625.331358 674.150164 
L 627.322756 674.249843 
L 631.305554 672.408127 
L 633.296953 670.872056 
L 637.279751 664.353648 
L 639.271149 659.205532 
L 641.262548 651.677824 
L 643.253947 641.019278 
L 645.245346 634.034029 
L 647.236745 625.879607 
L 649.228144 613.868572 
L 651.219542 600.931874 
L 653.210941 590.277471 
L 655.20234 585.156941 
L 657.193739 575.710488 
L 659.185138 568.627764 
L 661.176537 554.418338 
L 663.167935 554.885884 
L 665.159334 564.064059 
L 667.150733 562.585098 
L 669.142132 557.624618 
L 671.133531 562.398961 
L 673.12493 572.351562 
L 675.116328 569.331154 
L 677.107727 561.846632 
L 677.107727 561.846632 
" style="fill:none;stroke:#ff7f0e;stroke-linecap:square;stroke-width:1.5;"/>
   </g>
   <g id="line2d_15">
    <path clip-path="url(#p8c022af4b8)" d="M 85.662273 752.463866 
L 93.627868 752.463866 
L 99.602065 732.369532 
L 105.576261 732.369532 
L 107.56766 739.067644 
L 111.550458 739.067644 
L 113.541856 745.765755 
L 161.335429 745.765755 
L 163.326827 739.067644 
L 175.27522 739.067644 
L 177.266619 732.369532 
L 195.189209 732.369532 
L 197.180608 739.067644 
L 199.172006 739.067644 
L 201.163405 745.765755 
L 211.120399 745.765755 
L 213.111798 739.067644 
L 217.094596 739.067644 
L 219.085995 732.369532 
L 229.042989 732.369532 
L 231.034388 739.067644 
L 246.965579 739.067644 
L 248.956977 745.765755 
L 278.82796 745.765755 
L 280.819359 739.067644 
L 320.647335 739.067644 
L 322.638734 732.369532 
L 336.578526 732.369532 
L 338.569925 739.067644 
L 340.561324 739.067644 
L 342.552723 745.765755 
L 344.544122 745.765755 
L 346.53552 752.463866 
L 348.526919 752.463866 
L 350.518318 759.161978 
L 358.483913 759.161978 
L 360.475312 752.463866 
L 362.466711 752.463866 
L 364.45811 745.765755 
L 366.449509 745.765755 
L 370.432306 732.369532 
L 378.397902 732.369532 
L 380.389301 739.067644 
L 388.354896 739.067644 
L 390.346295 745.765755 
L 418.225878 745.765755 
L 420.217277 739.067644 
L 458.053855 739.067644 
L 460.045254 732.369532 
L 473.985046 732.369532 
L 475.976445 739.067644 
L 477.967844 739.067644 
L 481.950641 752.463866 
L 489.916237 752.463866 
L 491.907635 745.765755 
L 493.899034 745.765755 
L 497.881832 732.369532 
L 503.856028 732.369532 
L 505.847427 739.067644 
L 513.813023 739.067644 
L 515.804421 739.402549 
L 517.79582 745.765755 
L 557.623797 745.765755 
L 559.615196 739.067644 
L 573.554988 739.067644 
L 575.546387 732.369532 
L 583.511982 732.369532 
L 585.503381 739.067644 
L 589.486178 739.067644 
L 591.477577 745.765755 
L 611.391566 745.765755 
L 613.382964 752.463866 
L 617.365762 752.463866 
L 619.357161 759.161978 
L 631.305554 759.161978 
L 635.288352 745.765755 
L 637.279751 745.765755 
L 641.262548 732.369532 
L 649.228144 732.369532 
L 651.219542 739.067644 
L 677.107727 739.067644 
L 677.107727 739.067644 
" style="fill:none;stroke:#2ca02c;stroke-linecap:square;stroke-width:1.5;"/>
   </g>
   <g id="line2d_16">
    <path clip-path="url(#p8c022af4b8)" d="M 85.662273 551.520523 
L 93.627868 551.520523 
L 95.619267 544.822412 
L 97.610666 544.822412 
L 99.602065 538.1243 
L 101.593463 538.1243 
L 105.576261 524.728078 
L 107.56766 504.633743 
L 109.559059 424.256406 
L 111.550458 357.275292 
L 113.541856 303.6904 
L 115.533255 290.294177 
L 117.524654 283.596066 
L 119.516053 230.011174 
L 121.507452 203.218728 
L 123.498851 209.91684 
L 125.490249 203.218728 
L 127.481648 189.822506 
L 129.473047 196.520617 
L 131.464446 216.614951 
L 133.455845 230.011174 
L 135.447244 236.709286 
L 139.430041 263.501731 
L 143.412839 303.6904 
L 145.404238 317.086623 
L 147.395637 343.879069 
L 149.387036 384.067737 
L 151.378434 384.067737 
L 153.369833 363.973403 
L 155.361232 370.671514 
L 157.352631 384.067737 
L 159.34403 384.067737 
L 161.335429 390.765849 
L 163.326827 417.558295 
L 165.318226 457.746963 
L 167.309625 484.539409 
L 169.301024 518.029966 
L 171.292423 531.426189 
L 173.283822 524.728078 
L 175.27522 531.426189 
L 177.266619 531.426189 
L 179.258018 538.1243 
L 183.240816 538.1243 
L 185.232215 544.822412 
L 199.172006 544.822412 
L 201.163405 551.520523 
L 205.146203 551.520523 
L 207.137602 544.822412 
L 209.129001 551.520523 
L 211.120399 544.822412 
L 217.094596 544.822412 
L 219.085995 538.1243 
L 225.060191 538.1243 
L 227.05159 531.426189 
L 231.034388 531.426189 
L 233.025787 524.728078 
L 235.017185 524.728078 
L 238.999983 497.935632 
L 240.991382 491.23752 
L 242.982781 491.23752 
L 244.97418 477.841297 
L 246.965579 430.954517 
L 248.956977 337.180957 
L 250.948376 296.992289 
L 252.939775 263.501731 
L 254.931174 250.105509 
L 256.922573 230.011174 
L 258.913972 223.313063 
L 260.90537 243.407397 
L 262.896769 243.407397 
L 264.888168 236.709286 
L 266.879567 243.407397 
L 268.870966 256.80362 
L 270.862365 283.596066 
L 274.845162 323.784734 
L 278.82796 390.765849 
L 280.819359 410.860183 
L 284.802156 437.652629 
L 286.793555 457.746963 
L 288.784954 471.143186 
L 292.767752 471.143186 
L 296.750549 484.539409 
L 298.741948 484.539409 
L 300.733347 497.935632 
L 308.698942 524.728078 
L 312.68174 524.728078 
L 314.673139 531.426189 
L 320.647335 531.426189 
L 322.638734 538.1243 
L 328.612931 538.1243 
L 330.60433 544.822412 
L 338.569925 544.822412 
L 340.561324 551.520523 
L 362.466711 551.520523 
L 364.45811 544.822412 
L 368.440908 544.822412 
L 370.432306 538.1243 
L 376.406503 538.1243 
L 382.380699 518.029966 
L 386.363497 451.048852 
L 388.354896 410.860183 
L 390.346295 377.369626 
L 392.337694 357.275292 
L 394.329092 343.879069 
L 396.320491 337.180957 
L 398.31189 337.180957 
L 402.294688 323.784734 
L 404.286087 330.482846 
L 406.277485 330.482846 
L 408.268884 337.180957 
L 410.260283 337.180957 
L 412.251682 350.57718 
L 416.23448 390.765849 
L 418.225878 404.162072 
L 420.217277 424.256406 
L 422.208676 451.048852 
L 424.200075 464.445075 
L 426.191474 471.143186 
L 428.182873 491.23752 
L 430.174272 504.633743 
L 438.139867 531.426189 
L 460.045254 531.426189 
L 462.036653 538.1243 
L 468.010849 538.1243 
L 470.002248 544.822412 
L 477.967844 544.822412 
L 479.959242 551.520523 
L 491.907635 551.520523 
L 493.899034 544.822412 
L 495.890433 544.822412 
L 497.881832 538.1243 
L 499.873231 538.1243 
L 501.86463 531.426189 
L 503.856028 531.426189 
L 505.847427 524.728078 
L 507.838826 497.935632 
L 509.830225 464.445075 
L 511.821624 457.746963 
L 513.813023 437.652629 
L 515.804421 384.067737 
L 517.79582 290.294177 
L 519.787219 276.897954 
L 521.778618 236.709286 
L 523.770017 209.91684 
L 525.761416 203.218728 
L 527.752815 203.218728 
L 529.744213 209.91684 
L 533.727011 236.709286 
L 537.709809 276.897954 
L 539.701208 283.596066 
L 541.692606 310.388511 
L 543.684005 317.086623 
L 545.675404 317.086623 
L 547.666803 310.388511 
L 551.649601 310.388511 
L 553.640999 317.086623 
L 555.632398 343.879069 
L 557.623797 377.369626 
L 559.615196 417.558295 
L 561.606595 464.445075 
L 563.597994 497.935632 
L 565.589392 524.728078 
L 569.57219 524.728078 
L 571.563589 531.426189 
L 573.554988 531.426189 
L 575.546387 538.1243 
L 579.529184 538.1243 
L 581.520583 544.822412 
L 587.49478 544.822412 
L 589.486178 551.520523 
L 601.434571 551.520523 
L 603.42597 544.822412 
L 605.417369 551.520523 
L 607.408768 544.822412 
L 609.400167 551.520523 
L 633.296953 551.520523 
L 635.288352 544.822412 
L 639.271149 544.822412 
L 641.262548 538.1243 
L 647.236745 538.1243 
L 649.228144 531.426189 
L 651.219542 531.426189 
L 653.210941 524.728078 
L 657.193739 524.728078 
L 659.185138 518.029966 
L 661.176537 504.633743 
L 663.167935 504.633743 
L 667.150733 518.029966 
L 669.142132 511.331855 
L 671.133531 511.331855 
L 673.12493 524.728078 
L 675.116328 518.029966 
L 677.107727 518.029966 
L 677.107727 518.029966 
" style="fill:none;stroke:#d62728;stroke-linecap:square;stroke-width:1.5;"/>
   </g>
   <g id="patch_3">
    <path d="M 56.09 822.04 
L 56.09 103.68 
" style="fill:none;stroke:#000000;stroke-linecap:square;stroke-linejoin:miter;stroke-width:0.8;"/>
   </g>
   <g id="patch_4">
    <path d="M 706.68 822.04 
L 706.68 103.68 
" style="fill:none;stroke:#000000;stroke-linecap:square;stroke-linejoin:miter;stroke-width:0.8;"/>
   </g>
   <g id="patch_5">
    <path d="M 56.09 822.04 
L 706.68 822.04 
" style="fill:none;stroke:#000000;stroke-linecap:square;stroke-linejoin:miter;stroke-width:0.8;"/>
   </g>
   <g id="patch_6">
    <path d="M 56.09 103.68 
L 706.68 103.68 
" style="fill:none;stroke:#000000;stroke-linecap:square;stroke-linejoin:miter;stroke-width:0.8;"/>
   </g>
   <g id="text_13">
    <!-- Plot of Train Data vs MCMC Uncertainty  -->
    <defs>
     <path d="M 19.671875 64.796875 
L 19.671875 37.40625 
L 32.078125 37.40625 
Q 38.96875 37.40625 42.71875 40.96875 
Q 46.484375 44.53125 46.484375 51.125 
Q 46.484375 57.671875 42.71875 61.234375 
Q 38.96875 64.796875 32.078125 64.796875 
z
M 9.8125 72.90625 
L 32.078125 72.90625 
Q 44.34375 72.90625 50.609375 67.359375 
Q 56.890625 61.8125 56.890625 51.125 
Q 56.890625 40.328125 50.609375 34.8125 
Q 44.34375 29.296875 32.078125 29.296875 
L 19.671875 29.296875 
L 19.671875 0 
L 9.8125 0 
z
" id="DejaVuSans-50"/>
     <path d="M 9.421875 75.984375 
L 18.40625 75.984375 
L 18.40625 0 
L 9.421875 0 
z
" id="DejaVuSans-6c"/>
     <path d="M 30.609375 48.390625 
Q 23.390625 48.390625 19.1875 42.75 
Q 14.984375 37.109375 14.984375 27.296875 
Q 14.984375 17.484375 19.15625 11.84375 
Q 23.34375 6.203125 30.609375 6.203125 
Q 37.796875 6.203125 41.984375 11.859375 
Q 46.1875 17.53125 46.1875 27.296875 
Q 46.1875 37.015625 41.984375 42.703125 
Q 37.796875 48.390625 30.609375 48.390625 
z
M 30.609375 56 
Q 42.328125 56 49.015625 48.375 
Q 55.71875 40.765625 55.71875 27.296875 
Q 55.71875 13.875 49.015625 6.21875 
Q 42.328125 -1.421875 30.609375 -1.421875 
Q 18.84375 -1.421875 12.171875 6.21875 
Q 5.515625 13.875 5.515625 27.296875 
Q 5.515625 40.765625 12.171875 48.375 
Q 18.84375 56 30.609375 56 
z
" id="DejaVuSans-6f"/>
     <path d="M 18.3125 70.21875 
L 18.3125 54.6875 
L 36.8125 54.6875 
L 36.8125 47.703125 
L 18.3125 47.703125 
L 18.3125 18.015625 
Q 18.3125 11.328125 20.140625 9.421875 
Q 21.96875 7.515625 27.59375 7.515625 
L 36.8125 7.515625 
L 36.8125 0 
L 27.59375 0 
Q 17.1875 0 13.234375 3.875 
Q 9.28125 7.765625 9.28125 18.015625 
L 9.28125 47.703125 
L 2.6875 47.703125 
L 2.6875 54.6875 
L 9.28125 54.6875 
L 9.28125 70.21875 
z
" id="DejaVuSans-74"/>
     <path id="DejaVuSans-20"/>
     <path d="M 37.109375 75.984375 
L 37.109375 68.5 
L 28.515625 68.5 
Q 23.6875 68.5 21.796875 66.546875 
Q 19.921875 64.59375 19.921875 59.515625 
L 19.921875 54.6875 
L 34.71875 54.6875 
L 34.71875 47.703125 
L 19.921875 47.703125 
L 19.921875 0 
L 10.890625 0 
L 10.890625 47.703125 
L 2.296875 47.703125 
L 2.296875 54.6875 
L 10.890625 54.6875 
L 10.890625 58.5 
Q 10.890625 67.625 15.140625 71.796875 
Q 19.390625 75.984375 28.609375 75.984375 
z
" id="DejaVuSans-66"/>
     <path d="M -0.296875 72.90625 
L 61.375 72.90625 
L 61.375 64.59375 
L 35.5 64.59375 
L 35.5 0 
L 25.59375 0 
L 25.59375 64.59375 
L -0.296875 64.59375 
z
" id="DejaVuSans-54"/>
     <path d="M 41.109375 46.296875 
Q 39.59375 47.171875 37.8125 47.578125 
Q 36.03125 48 33.890625 48 
Q 26.265625 48 22.1875 43.046875 
Q 18.109375 38.09375 18.109375 28.8125 
L 18.109375 0 
L 9.078125 0 
L 9.078125 54.6875 
L 18.109375 54.6875 
L 18.109375 46.1875 
Q 20.953125 51.171875 25.484375 53.578125 
Q 30.03125 56 36.53125 56 
Q 37.453125 56 38.578125 55.875 
Q 39.703125 55.765625 41.0625 55.515625 
z
" id="DejaVuSans-72"/>
     <path d="M 34.28125 27.484375 
Q 23.390625 27.484375 19.1875 25 
Q 14.984375 22.515625 14.984375 16.5 
Q 14.984375 11.71875 18.140625 8.90625 
Q 21.296875 6.109375 26.703125 6.109375 
Q 34.1875 6.109375 38.703125 11.40625 
Q 43.21875 16.703125 43.21875 25.484375 
L 43.21875 27.484375 
z
M 52.203125 31.203125 
L 52.203125 0 
L 43.21875 0 
L 43.21875 8.296875 
Q 40.140625 3.328125 35.546875 0.953125 
Q 30.953125 -1.421875 24.3125 -1.421875 
Q 15.921875 -1.421875 10.953125 3.296875 
Q 6 8.015625 6 15.921875 
Q 6 25.140625 12.171875 29.828125 
Q 18.359375 34.515625 30.609375 34.515625 
L 43.21875 34.515625 
L 43.21875 35.40625 
Q 43.21875 41.609375 39.140625 45 
Q 35.0625 48.390625 27.6875 48.390625 
Q 23 48.390625 18.546875 47.265625 
Q 14.109375 46.140625 10.015625 43.890625 
L 10.015625 52.203125 
Q 14.9375 54.109375 19.578125 55.046875 
Q 24.21875 56 28.609375 56 
Q 40.484375 56 46.34375 49.84375 
Q 52.203125 43.703125 52.203125 31.203125 
z
" id="DejaVuSans-61"/>
     <path d="M 9.421875 54.6875 
L 18.40625 54.6875 
L 18.40625 0 
L 9.421875 0 
z
M 9.421875 75.984375 
L 18.40625 75.984375 
L 18.40625 64.59375 
L 9.421875 64.59375 
z
" id="DejaVuSans-69"/>
     <path d="M 54.890625 33.015625 
L 54.890625 0 
L 45.90625 0 
L 45.90625 32.71875 
Q 45.90625 40.484375 42.875 44.328125 
Q 39.84375 48.1875 33.796875 48.1875 
Q 26.515625 48.1875 22.3125 43.546875 
Q 18.109375 38.921875 18.109375 30.90625 
L 18.109375 0 
L 9.078125 0 
L 9.078125 54.6875 
L 18.109375 54.6875 
L 18.109375 46.1875 
Q 21.34375 51.125 25.703125 53.5625 
Q 30.078125 56 35.796875 56 
Q 45.21875 56 50.046875 50.171875 
Q 54.890625 44.34375 54.890625 33.015625 
z
" id="DejaVuSans-6e"/>
     <path d="M 19.671875 64.796875 
L 19.671875 8.109375 
L 31.59375 8.109375 
Q 46.6875 8.109375 53.6875 14.9375 
Q 60.6875 21.78125 60.6875 36.53125 
Q 60.6875 51.171875 53.6875 57.984375 
Q 46.6875 64.796875 31.59375 64.796875 
z
M 9.8125 72.90625 
L 30.078125 72.90625 
Q 51.265625 72.90625 61.171875 64.09375 
Q 71.09375 55.28125 71.09375 36.53125 
Q 71.09375 17.671875 61.125 8.828125 
Q 51.171875 0 30.078125 0 
L 9.8125 0 
z
" id="DejaVuSans-44"/>
     <path d="M 2.984375 54.6875 
L 12.5 54.6875 
L 29.59375 8.796875 
L 46.6875 54.6875 
L 56.203125 54.6875 
L 35.6875 0 
L 23.484375 0 
z
" id="DejaVuSans-76"/>
     <path d="M 44.28125 53.078125 
L 44.28125 44.578125 
Q 40.484375 46.53125 36.375 47.5 
Q 32.28125 48.484375 27.875 48.484375 
Q 21.1875 48.484375 17.84375 46.4375 
Q 14.5 44.390625 14.5 40.28125 
Q 14.5 37.15625 16.890625 35.375 
Q 19.28125 33.59375 26.515625 31.984375 
L 29.59375 31.296875 
Q 39.15625 29.25 43.1875 25.515625 
Q 47.21875 21.78125 47.21875 15.09375 
Q 47.21875 7.46875 41.1875 3.015625 
Q 35.15625 -1.421875 24.609375 -1.421875 
Q 20.21875 -1.421875 15.453125 -0.5625 
Q 10.6875 0.296875 5.421875 2 
L 5.421875 11.28125 
Q 10.40625 8.6875 15.234375 7.390625 
Q 20.0625 6.109375 24.8125 6.109375 
Q 31.15625 6.109375 34.5625 8.28125 
Q 37.984375 10.453125 37.984375 14.40625 
Q 37.984375 18.0625 35.515625 20.015625 
Q 33.0625 21.96875 24.703125 23.78125 
L 21.578125 24.515625 
Q 13.234375 26.265625 9.515625 29.90625 
Q 5.8125 33.546875 5.8125 39.890625 
Q 5.8125 47.609375 11.28125 51.796875 
Q 16.75 56 26.8125 56 
Q 31.78125 56 36.171875 55.265625 
Q 40.578125 54.546875 44.28125 53.078125 
z
" id="DejaVuSans-73"/>
     <path d="M 9.8125 72.90625 
L 24.515625 72.90625 
L 43.109375 23.296875 
L 61.8125 72.90625 
L 76.515625 72.90625 
L 76.515625 0 
L 66.890625 0 
L 66.890625 64.015625 
L 48.09375 14.015625 
L 38.1875 14.015625 
L 19.390625 64.015625 
L 19.390625 0 
L 9.8125 0 
z
" id="DejaVuSans-4d"/>
     <path d="M 64.40625 67.28125 
L 64.40625 56.890625 
Q 59.421875 61.53125 53.78125 63.8125 
Q 48.140625 66.109375 41.796875 66.109375 
Q 29.296875 66.109375 22.65625 58.46875 
Q 16.015625 50.828125 16.015625 36.375 
Q 16.015625 21.96875 22.65625 14.328125 
Q 29.296875 6.6875 41.796875 6.6875 
Q 48.140625 6.6875 53.78125 8.984375 
Q 59.421875 11.28125 64.40625 15.921875 
L 64.40625 5.609375 
Q 59.234375 2.09375 53.4375 0.328125 
Q 47.65625 -1.421875 41.21875 -1.421875 
Q 24.65625 -1.421875 15.125 8.703125 
Q 5.609375 18.84375 5.609375 36.375 
Q 5.609375 53.953125 15.125 64.078125 
Q 24.65625 74.21875 41.21875 74.21875 
Q 47.75 74.21875 53.53125 72.484375 
Q 59.328125 70.75 64.40625 67.28125 
z
" id="DejaVuSans-43"/>
     <path d="M 8.6875 72.90625 
L 18.609375 72.90625 
L 18.609375 28.609375 
Q 18.609375 16.890625 22.84375 11.734375 
Q 27.09375 6.59375 36.625 6.59375 
Q 46.09375 6.59375 50.34375 11.734375 
Q 54.59375 16.890625 54.59375 28.609375 
L 54.59375 72.90625 
L 64.5 72.90625 
L 64.5 27.390625 
Q 64.5 13.140625 57.4375 5.859375 
Q 50.390625 -1.421875 36.625 -1.421875 
Q 22.796875 -1.421875 15.734375 5.859375 
Q 8.6875 13.140625 8.6875 27.390625 
z
" id="DejaVuSans-55"/>
     <path d="M 48.78125 52.59375 
L 48.78125 44.1875 
Q 44.96875 46.296875 41.140625 47.34375 
Q 37.3125 48.390625 33.40625 48.390625 
Q 24.65625 48.390625 19.8125 42.84375 
Q 14.984375 37.3125 14.984375 27.296875 
Q 14.984375 17.28125 19.8125 11.734375 
Q 24.65625 6.203125 33.40625 6.203125 
Q 37.3125 6.203125 41.140625 7.25 
Q 44.96875 8.296875 48.78125 10.40625 
L 48.78125 2.09375 
Q 45.015625 0.34375 40.984375 -0.53125 
Q 36.96875 -1.421875 32.421875 -1.421875 
Q 20.0625 -1.421875 12.78125 6.34375 
Q 5.515625 14.109375 5.515625 27.296875 
Q 5.515625 40.671875 12.859375 48.328125 
Q 20.21875 56 33.015625 56 
Q 37.15625 56 41.109375 55.140625 
Q 45.0625 54.296875 48.78125 52.59375 
z
" id="DejaVuSans-63"/>
     <path d="M 56.203125 29.59375 
L 56.203125 25.203125 
L 14.890625 25.203125 
Q 15.484375 15.921875 20.484375 11.0625 
Q 25.484375 6.203125 34.421875 6.203125 
Q 39.59375 6.203125 44.453125 7.46875 
Q 49.3125 8.734375 54.109375 11.28125 
L 54.109375 2.78125 
Q 49.265625 0.734375 44.1875 -0.34375 
Q 39.109375 -1.421875 33.890625 -1.421875 
Q 20.796875 -1.421875 13.15625 6.1875 
Q 5.515625 13.8125 5.515625 26.8125 
Q 5.515625 40.234375 12.765625 48.109375 
Q 20.015625 56 32.328125 56 
Q 43.359375 56 49.78125 48.890625 
Q 56.203125 41.796875 56.203125 29.59375 
z
M 47.21875 32.234375 
Q 47.125 39.59375 43.09375 43.984375 
Q 39.0625 48.390625 32.421875 48.390625 
Q 24.90625 48.390625 20.390625 44.140625 
Q 15.875 39.890625 15.1875 32.171875 
z
" id="DejaVuSans-65"/>
     <path d="M 32.171875 -5.078125 
Q 28.375 -14.84375 24.75 -17.8125 
Q 21.140625 -20.796875 15.09375 -20.796875 
L 7.90625 -20.796875 
L 7.90625 -13.28125 
L 13.1875 -13.28125 
Q 16.890625 -13.28125 18.9375 -11.515625 
Q 21 -9.765625 23.484375 -3.21875 
L 25.09375 0.875 
L 2.984375 54.6875 
L 12.5 54.6875 
L 29.59375 11.921875 
L 46.6875 54.6875 
L 56.203125 54.6875 
z
" id="DejaVuSans-79"/>
    </defs>
    <g transform="translate(260.891875 97.68)scale(0.12 -0.12)">
     <use xlink:href="#DejaVuSans-50"/>
     <use x="60.302734" xlink:href="#DejaVuSans-6c"/>
     <use x="88.085938" xlink:href="#DejaVuSans-6f"/>
     <use x="149.267578" xlink:href="#DejaVuSans-74"/>
     <use x="188.476562" xlink:href="#DejaVuSans-20"/>
     <use x="220.263672" xlink:href="#DejaVuSans-6f"/>
     <use x="281.445312" xlink:href="#DejaVuSans-66"/>
     <use x="316.650391" xlink:href="#DejaVuSans-20"/>
     <use x="348.4375" xlink:href="#DejaVuSans-54"/>
     <use x="409.302734" xlink:href="#DejaVuSans-72"/>
     <use x="450.416016" xlink:href="#DejaVuSans-61"/>
     <use x="511.695312" xlink:href="#DejaVuSans-69"/>
     <use x="539.478516" xlink:href="#DejaVuSans-6e"/>
     <use x="602.857422" xlink:href="#DejaVuSans-20"/>
     <use x="634.644531" xlink:href="#DejaVuSans-44"/>
     <use x="711.646484" xlink:href="#DejaVuSans-61"/>
     <use x="772.925781" xlink:href="#DejaVuSans-74"/>
     <use x="812.134766" xlink:href="#DejaVuSans-61"/>
     <use x="873.414062" xlink:href="#DejaVuSans-20"/>
     <use x="905.201172" xlink:href="#DejaVuSans-76"/>
     <use x="964.380859" xlink:href="#DejaVuSans-73"/>
     <use x="1016.480469" xlink:href="#DejaVuSans-20"/>
     <use x="1048.267578" xlink:href="#DejaVuSans-4d"/>
     <use x="1134.546875" xlink:href="#DejaVuSans-43"/>
     <use x="1204.371094" xlink:href="#DejaVuSans-4d"/>
     <use x="1290.650391" xlink:href="#DejaVuSans-43"/>
     <use x="1360.474609" xlink:href="#DejaVuSans-20"/>
     <use x="1392.261719" xlink:href="#DejaVuSans-55"/>
     <use x="1465.455078" xlink:href="#DejaVuSans-6e"/>
     <use x="1528.833984" xlink:href="#DejaVuSans-63"/>
     <use x="1583.814453" xlink:href="#DejaVuSans-65"/>
     <use x="1645.337891" xlink:href="#DejaVuSans-72"/>
     <use x="1686.451172" xlink:href="#DejaVuSans-74"/>
     <use x="1725.660156" xlink:href="#DejaVuSans-61"/>
     <use x="1786.939453" xlink:href="#DejaVuSans-69"/>
     <use x="1814.722656" xlink:href="#DejaVuSans-6e"/>
     <use x="1878.101562" xlink:href="#DejaVuSans-74"/>
     <use x="1917.310547" xlink:href="#DejaVuSans-79"/>
     <use x="1976.490234" xlink:href="#DejaVuSans-20"/>
    </g>
   </g>
   <g id="legend_1">
    <g id="patch_7">
     <path d="M 569.803438 170.3925 
L 699.68 170.3925 
Q 701.68 170.3925 701.68 168.3925 
L 701.68 110.68 
Q 701.68 108.68 699.68 108.68 
L 569.803438 108.68 
Q 567.803438 108.68 567.803438 110.68 
L 567.803438 168.3925 
Q 567.803438 170.3925 569.803438 170.3925 
z
" style="fill:#ffffff;opacity:0.8;stroke:#cccccc;stroke-linejoin:miter;"/>
    </g>
    <g id="line2d_17">
     <path d="M 571.803438 116.778437 
L 591.803438 116.778437 
" style="fill:none;stroke:#1f77b4;stroke-linecap:square;stroke-width:1.5;"/>
    </g>
    <g id="line2d_18"/>
    <g id="text_14">
     <!-- actual -->
     <defs>
      <path d="M 8.5 21.578125 
L 8.5 54.6875 
L 17.484375 54.6875 
L 17.484375 21.921875 
Q 17.484375 14.15625 20.5 10.265625 
Q 23.53125 6.390625 29.59375 6.390625 
Q 36.859375 6.390625 41.078125 11.03125 
Q 45.3125 15.671875 45.3125 23.6875 
L 45.3125 54.6875 
L 54.296875 54.6875 
L 54.296875 0 
L 45.3125 0 
L 45.3125 8.40625 
Q 42.046875 3.421875 37.71875 1 
Q 33.40625 -1.421875 27.6875 -1.421875 
Q 18.265625 -1.421875 13.375 4.4375 
Q 8.5 10.296875 8.5 21.578125 
z
M 31.109375 56 
z
" id="DejaVuSans-75"/>
     </defs>
     <g transform="translate(599.803438 120.278437)scale(0.1 -0.1)">
      <use xlink:href="#DejaVuSans-61"/>
      <use x="61.279297" xlink:href="#DejaVuSans-63"/>
      <use x="116.259766" xlink:href="#DejaVuSans-74"/>
      <use x="155.46875" xlink:href="#DejaVuSans-75"/>
      <use x="218.847656" xlink:href="#DejaVuSans-61"/>
      <use x="280.126953" xlink:href="#DejaVuSans-6c"/>
     </g>
    </g>
    <g id="line2d_19">
     <path d="M 571.803438 131.456562 
L 591.803438 131.456562 
" style="fill:none;stroke:#ff7f0e;stroke-linecap:square;stroke-width:1.5;"/>
    </g>
    <g id="line2d_20"/>
    <g id="text_15">
     <!-- pred. (mean) -->
     <defs>
      <path d="M 18.109375 8.203125 
L 18.109375 -20.796875 
L 9.078125 -20.796875 
L 9.078125 54.6875 
L 18.109375 54.6875 
L 18.109375 46.390625 
Q 20.953125 51.265625 25.265625 53.625 
Q 29.59375 56 35.59375 56 
Q 45.5625 56 51.78125 48.09375 
Q 58.015625 40.1875 58.015625 27.296875 
Q 58.015625 14.40625 51.78125 6.484375 
Q 45.5625 -1.421875 35.59375 -1.421875 
Q 29.59375 -1.421875 25.265625 0.953125 
Q 20.953125 3.328125 18.109375 8.203125 
z
M 48.6875 27.296875 
Q 48.6875 37.203125 44.609375 42.84375 
Q 40.53125 48.484375 33.40625 48.484375 
Q 26.265625 48.484375 22.1875 42.84375 
Q 18.109375 37.203125 18.109375 27.296875 
Q 18.109375 17.390625 22.1875 11.75 
Q 26.265625 6.109375 33.40625 6.109375 
Q 40.53125 6.109375 44.609375 11.75 
Q 48.6875 17.390625 48.6875 27.296875 
z
" id="DejaVuSans-70"/>
      <path d="M 45.40625 46.390625 
L 45.40625 75.984375 
L 54.390625 75.984375 
L 54.390625 0 
L 45.40625 0 
L 45.40625 8.203125 
Q 42.578125 3.328125 38.25 0.953125 
Q 33.9375 -1.421875 27.875 -1.421875 
Q 17.96875 -1.421875 11.734375 6.484375 
Q 5.515625 14.40625 5.515625 27.296875 
Q 5.515625 40.1875 11.734375 48.09375 
Q 17.96875 56 27.875 56 
Q 33.9375 56 38.25 53.625 
Q 42.578125 51.265625 45.40625 46.390625 
z
M 14.796875 27.296875 
Q 14.796875 17.390625 18.875 11.75 
Q 22.953125 6.109375 30.078125 6.109375 
Q 37.203125 6.109375 41.296875 11.75 
Q 45.40625 17.390625 45.40625 27.296875 
Q 45.40625 37.203125 41.296875 42.84375 
Q 37.203125 48.484375 30.078125 48.484375 
Q 22.953125 48.484375 18.875 42.84375 
Q 14.796875 37.203125 14.796875 27.296875 
z
" id="DejaVuSans-64"/>
      <path d="M 31 75.875 
Q 24.46875 64.65625 21.28125 53.65625 
Q 18.109375 42.671875 18.109375 31.390625 
Q 18.109375 20.125 21.3125 9.0625 
Q 24.515625 -2 31 -13.1875 
L 23.1875 -13.1875 
Q 15.875 -1.703125 12.234375 9.375 
Q 8.59375 20.453125 8.59375 31.390625 
Q 8.59375 42.28125 12.203125 53.3125 
Q 15.828125 64.359375 23.1875 75.875 
z
" id="DejaVuSans-28"/>
      <path d="M 52 44.1875 
Q 55.375 50.25 60.0625 53.125 
Q 64.75 56 71.09375 56 
Q 79.640625 56 84.28125 50.015625 
Q 88.921875 44.046875 88.921875 33.015625 
L 88.921875 0 
L 79.890625 0 
L 79.890625 32.71875 
Q 79.890625 40.578125 77.09375 44.375 
Q 74.3125 48.1875 68.609375 48.1875 
Q 61.625 48.1875 57.5625 43.546875 
Q 53.515625 38.921875 53.515625 30.90625 
L 53.515625 0 
L 44.484375 0 
L 44.484375 32.71875 
Q 44.484375 40.625 41.703125 44.40625 
Q 38.921875 48.1875 33.109375 48.1875 
Q 26.21875 48.1875 22.15625 43.53125 
Q 18.109375 38.875 18.109375 30.90625 
L 18.109375 0 
L 9.078125 0 
L 9.078125 54.6875 
L 18.109375 54.6875 
L 18.109375 46.1875 
Q 21.1875 51.21875 25.484375 53.609375 
Q 29.78125 56 35.6875 56 
Q 41.65625 56 45.828125 52.96875 
Q 50 49.953125 52 44.1875 
z
" id="DejaVuSans-6d"/>
      <path d="M 8.015625 75.875 
L 15.828125 75.875 
Q 23.140625 64.359375 26.78125 53.3125 
Q 30.421875 42.28125 30.421875 31.390625 
Q 30.421875 20.453125 26.78125 9.375 
Q 23.140625 -1.703125 15.828125 -13.1875 
L 8.015625 -13.1875 
Q 14.5 -2 17.703125 9.0625 
Q 20.90625 20.125 20.90625 31.390625 
Q 20.90625 42.671875 17.703125 53.65625 
Q 14.5 64.65625 8.015625 75.875 
z
" id="DejaVuSans-29"/>
     </defs>
     <g transform="translate(599.803438 134.956562)scale(0.1 -0.1)">
      <use xlink:href="#DejaVuSans-70"/>
      <use x="63.476562" xlink:href="#DejaVuSans-72"/>
      <use x="104.558594" xlink:href="#DejaVuSans-65"/>
      <use x="166.082031" xlink:href="#DejaVuSans-64"/>
      <use x="229.558594" xlink:href="#DejaVuSans-2e"/>
      <use x="261.345703" xlink:href="#DejaVuSans-20"/>
      <use x="293.132812" xlink:href="#DejaVuSans-28"/>
      <use x="332.146484" xlink:href="#DejaVuSans-6d"/>
      <use x="429.558594" xlink:href="#DejaVuSans-65"/>
      <use x="491.082031" xlink:href="#DejaVuSans-61"/>
      <use x="552.361328" xlink:href="#DejaVuSans-6e"/>
      <use x="615.740234" xlink:href="#DejaVuSans-29"/>
     </g>
    </g>
    <g id="line2d_21">
     <path d="M 571.803438 146.134687 
L 591.803438 146.134687 
" style="fill:none;stroke:#2ca02c;stroke-linecap:square;stroke-width:1.5;"/>
    </g>
    <g id="line2d_22"/>
    <g id="text_16">
     <!-- pred.(5th percen.) -->
     <defs>
      <path d="M 10.796875 72.90625 
L 49.515625 72.90625 
L 49.515625 64.59375 
L 19.828125 64.59375 
L 19.828125 46.734375 
Q 21.96875 47.46875 24.109375 47.828125 
Q 26.265625 48.1875 28.421875 48.1875 
Q 40.625 48.1875 47.75 41.5 
Q 54.890625 34.8125 54.890625 23.390625 
Q 54.890625 11.625 47.5625 5.09375 
Q 40.234375 -1.421875 26.90625 -1.421875 
Q 22.3125 -1.421875 17.546875 -0.640625 
Q 12.796875 0.140625 7.71875 1.703125 
L 7.71875 11.625 
Q 12.109375 9.234375 16.796875 8.0625 
Q 21.484375 6.890625 26.703125 6.890625 
Q 35.15625 6.890625 40.078125 11.328125 
Q 45.015625 15.765625 45.015625 23.390625 
Q 45.015625 31 40.078125 35.4375 
Q 35.15625 39.890625 26.703125 39.890625 
Q 22.75 39.890625 18.8125 39.015625 
Q 14.890625 38.140625 10.796875 36.28125 
z
" id="DejaVuSans-35"/>
      <path d="M 54.890625 33.015625 
L 54.890625 0 
L 45.90625 0 
L 45.90625 32.71875 
Q 45.90625 40.484375 42.875 44.328125 
Q 39.84375 48.1875 33.796875 48.1875 
Q 26.515625 48.1875 22.3125 43.546875 
Q 18.109375 38.921875 18.109375 30.90625 
L 18.109375 0 
L 9.078125 0 
L 9.078125 75.984375 
L 18.109375 75.984375 
L 18.109375 46.1875 
Q 21.34375 51.125 25.703125 53.5625 
Q 30.078125 56 35.796875 56 
Q 45.21875 56 50.046875 50.171875 
Q 54.890625 44.34375 54.890625 33.015625 
z
" id="DejaVuSans-68"/>
     </defs>
     <g transform="translate(599.803438 149.634687)scale(0.1 -0.1)">
      <use xlink:href="#DejaVuSans-70"/>
      <use x="63.476562" xlink:href="#DejaVuSans-72"/>
      <use x="104.558594" xlink:href="#DejaVuSans-65"/>
      <use x="166.082031" xlink:href="#DejaVuSans-64"/>
      <use x="229.558594" xlink:href="#DejaVuSans-2e"/>
      <use x="261.345703" xlink:href="#DejaVuSans-28"/>
      <use x="300.359375" xlink:href="#DejaVuSans-35"/>
      <use x="363.982422" xlink:href="#DejaVuSans-74"/>
      <use x="403.191406" xlink:href="#DejaVuSans-68"/>
      <use x="466.570312" xlink:href="#DejaVuSans-20"/>
      <use x="498.357422" xlink:href="#DejaVuSans-70"/>
      <use x="561.833984" xlink:href="#DejaVuSans-65"/>
      <use x="623.357422" xlink:href="#DejaVuSans-72"/>
      <use x="664.439453" xlink:href="#DejaVuSans-63"/>
      <use x="719.419922" xlink:href="#DejaVuSans-65"/>
      <use x="780.943359" xlink:href="#DejaVuSans-6e"/>
      <use x="844.322266" xlink:href="#DejaVuSans-2e"/>
      <use x="876.109375" xlink:href="#DejaVuSans-29"/>
     </g>
    </g>
    <g id="line2d_23">
     <path d="M 571.803438 160.812812 
L 591.803438 160.812812 
" style="fill:none;stroke:#d62728;stroke-linecap:square;stroke-width:1.5;"/>
    </g>
    <g id="line2d_24"/>
    <g id="text_17">
     <!-- pred.(95th percen.) -->
     <defs>
      <path d="M 10.984375 1.515625 
L 10.984375 10.5 
Q 14.703125 8.734375 18.5 7.8125 
Q 22.3125 6.890625 25.984375 6.890625 
Q 35.75 6.890625 40.890625 13.453125 
Q 46.046875 20.015625 46.78125 33.40625 
Q 43.953125 29.203125 39.59375 26.953125 
Q 35.25 24.703125 29.984375 24.703125 
Q 19.046875 24.703125 12.671875 31.3125 
Q 6.296875 37.9375 6.296875 49.421875 
Q 6.296875 60.640625 12.9375 67.421875 
Q 19.578125 74.21875 30.609375 74.21875 
Q 43.265625 74.21875 49.921875 64.515625 
Q 56.59375 54.828125 56.59375 36.375 
Q 56.59375 19.140625 48.40625 8.859375 
Q 40.234375 -1.421875 26.421875 -1.421875 
Q 22.703125 -1.421875 18.890625 -0.6875 
Q 15.09375 0.046875 10.984375 1.515625 
z
M 30.609375 32.421875 
Q 37.25 32.421875 41.125 36.953125 
Q 45.015625 41.5 45.015625 49.421875 
Q 45.015625 57.28125 41.125 61.84375 
Q 37.25 66.40625 30.609375 66.40625 
Q 23.96875 66.40625 20.09375 61.84375 
Q 16.21875 57.28125 16.21875 49.421875 
Q 16.21875 41.5 20.09375 36.953125 
Q 23.96875 32.421875 30.609375 32.421875 
z
" id="DejaVuSans-39"/>
     </defs>
     <g transform="translate(599.803438 164.312812)scale(0.1 -0.1)">
      <use xlink:href="#DejaVuSans-70"/>
      <use x="63.476562" xlink:href="#DejaVuSans-72"/>
      <use x="104.558594" xlink:href="#DejaVuSans-65"/>
      <use x="166.082031" xlink:href="#DejaVuSans-64"/>
      <use x="229.558594" xlink:href="#DejaVuSans-2e"/>
      <use x="261.345703" xlink:href="#DejaVuSans-28"/>
      <use x="300.359375" xlink:href="#DejaVuSans-39"/>
      <use x="363.982422" xlink:href="#DejaVuSans-35"/>
      <use x="427.605469" xlink:href="#DejaVuSans-74"/>
      <use x="466.814453" xlink:href="#DejaVuSans-68"/>
      <use x="530.193359" xlink:href="#DejaVuSans-20"/>
      <use x="561.980469" xlink:href="#DejaVuSans-70"/>
      <use x="625.457031" xlink:href="#DejaVuSans-65"/>
      <use x="686.980469" xlink:href="#DejaVuSans-72"/>
      <use x="728.0625" xlink:href="#DejaVuSans-63"/>
      <use x="783.042969" xlink:href="#DejaVuSans-65"/>
      <use x="844.566406" xlink:href="#DejaVuSans-6e"/>
      <use x="907.945312" xlink:href="#DejaVuSans-2e"/>
      <use x="939.732422" xlink:href="#DejaVuSans-29"/>
     </g>
    </g>
   </g>
  </g>
 </g>
 <defs>
  <clipPath id="p8c022af4b8">
   <rect height="718.36" width="650.59" x="56.09" y="103.68"/>
  </clipPath>
 </defs>
</svg>
