<?xml version="1.0" encoding="utf-8" standalone="no"?>
<!DOCTYPE svg PUBLIC "-//W3C//DTD SVG 1.1//EN"
  "http://www.w3.org/Graphics/SVG/1.1/DTD/svg11.dtd">
<!-- Created with matplotlib (http://matplotlib.org/) -->
<svg height="864pt" version="1.1" viewBox="0 0 720 864" width="720pt" xmlns="http://www.w3.org/2000/svg" xmlns:xlink="http://www.w3.org/1999/xlink">
 <defs>
  <style type="text/css">
*{stroke-linecap:butt;stroke-linejoin:round;}
  </style>
 </defs>
 <g id="figure_1">
  <g id="patch_1">
   <path d="M 0 864 
L 720 864 
L 720 0 
L 0 0 
z
" style="fill:#ffffff;"/>
  </g>
  <g id="axes_1">
   <g id="patch_2">
    <path d="M 56.09 822.04 
L 706.68 822.04 
L 706.68 103.68 
L 56.09 103.68 
z
" style="fill:#ffffff;"/>
   </g>
   <g id="PolyCollection_1">
    <path clip-path="url(#p8579115b64)" d="M 85.662273 551.520523 
L 85.662273 745.765755 
L 87.653672 745.765755 
L 89.64507 745.765755 
L 91.636469 745.765755 
L 93.627868 739.067644 
L 95.619267 732.369532 
L 97.610666 732.369532 
L 99.602065 718.973309 
L 101.593463 705.577086 
L 103.584862 678.784641 
L 105.576261 638.595972 
L 107.56766 578.312969 
L 109.559059 558.218635 
L 111.550458 551.520523 
L 113.541856 544.822412 
L 115.533255 538.1243 
L 117.524654 531.426189 
L 119.516053 531.426189 
L 121.507452 524.728078 
L 123.498851 518.029966 
L 125.490249 518.029966 
L 127.481648 518.029966 
L 129.473047 518.029966 
L 131.464446 518.029966 
L 133.455845 524.728078 
L 135.447244 524.728078 
L 137.438642 524.728078 
L 139.430041 531.426189 
L 141.42144 531.426189 
L 143.412839 538.1243 
L 145.404238 538.1243 
L 147.395637 538.1243 
L 149.387036 544.822412 
L 151.378434 551.520523 
L 153.369833 544.822412 
L 155.361232 544.822412 
L 157.352631 551.520523 
L 159.34403 551.520523 
L 161.335429 551.520523 
L 163.326827 544.822412 
L 165.318226 551.520523 
L 167.309625 551.520523 
L 169.301024 564.916746 
L 171.292423 591.709192 
L 173.283822 598.407303 
L 175.27522 611.803526 
L 177.266619 638.595972 
L 179.258018 651.992195 
L 181.249417 665.388418 
L 183.240816 672.086529 
L 185.232215 685.482752 
L 187.223613 698.878975 
L 189.215012 705.577086 
L 191.206411 705.577086 
L 193.19781 705.577086 
L 195.189209 712.275198 
L 197.180608 718.973309 
L 199.172006 725.671421 
L 201.163405 732.369532 
L 203.154804 739.067644 
L 205.146203 739.067644 
L 207.137602 732.369532 
L 209.129001 732.369532 
L 211.120399 732.369532 
L 213.111798 732.369532 
L 215.103197 725.671421 
L 217.094596 718.973309 
L 219.085995 712.275198 
L 221.077394 692.180863 
L 223.068792 685.482752 
L 225.060191 672.086529 
L 227.05159 658.690306 
L 229.042989 638.595972 
L 231.034388 631.897861 
L 233.025787 611.803526 
L 235.017185 591.709192 
L 237.008584 564.916746 
L 238.999983 551.520523 
L 240.991382 551.520523 
L 242.982781 551.520523 
L 244.97418 551.520523 
L 246.965579 551.520523 
L 248.956977 551.520523 
L 250.948376 538.1243 
L 252.939775 538.1243 
L 254.931174 531.426189 
L 256.922573 524.728078 
L 258.913972 524.728078 
L 260.90537 524.728078 
L 262.896769 524.728078 
L 264.888168 524.728078 
L 266.879567 524.728078 
L 268.870966 524.728078 
L 270.862365 531.426189 
L 272.853763 538.1243 
L 274.845162 538.1243 
L 276.836561 544.822412 
L 278.82796 544.822412 
L 280.819359 551.520523 
L 282.810758 551.520523 
L 284.802156 551.520523 
L 286.793555 551.520523 
L 288.784954 551.520523 
L 290.776353 551.520523 
L 292.767752 551.520523 
L 294.759151 551.520523 
L 296.750549 551.520523 
L 298.741948 551.520523 
L 300.733347 551.520523 
L 302.724746 551.520523 
L 304.716145 551.520523 
L 306.707544 558.218635 
L 308.698942 564.916746 
L 310.690341 578.312969 
L 312.68174 591.709192 
L 314.673139 611.803526 
L 316.664538 625.199749 
L 318.655937 625.199749 
L 320.647335 631.897861 
L 322.638734 645.294083 
L 324.630133 665.388418 
L 326.621532 672.086529 
L 328.612931 685.482752 
L 330.60433 698.878975 
L 332.595728 712.275198 
L 334.587127 712.275198 
L 336.578526 718.973309 
L 338.569925 718.973309 
L 340.561324 725.671421 
L 342.552723 732.369532 
L 344.544122 739.067644 
L 346.53552 745.765755 
L 348.526919 745.765755 
L 350.518318 752.463866 
L 352.509717 752.463866 
L 354.501116 752.463866 
L 356.492515 752.463866 
L 358.483913 752.463866 
L 360.475312 745.765755 
L 362.466711 745.765755 
L 364.45811 739.067644 
L 366.449509 732.369532 
L 368.440908 725.671421 
L 370.432306 712.275198 
L 372.423705 698.878975 
L 374.415104 678.784641 
L 376.406503 665.388418 
L 378.397902 645.294083 
L 380.389301 611.803526 
L 382.380699 578.312969 
L 384.372098 558.218635 
L 386.363497 551.520523 
L 388.354896 551.520523 
L 390.346295 551.520523 
L 392.337694 544.822412 
L 394.329092 544.822412 
L 396.320491 544.822412 
L 398.31189 544.822412 
L 400.303289 544.822412 
L 402.294688 538.1243 
L 404.286087 538.1243 
L 406.277485 544.822412 
L 408.268884 544.822412 
L 410.260283 544.822412 
L 412.251682 544.822412 
L 414.243081 544.822412 
L 416.23448 551.520523 
L 418.225878 551.520523 
L 420.217277 551.520523 
L 422.208676 551.520523 
L 424.200075 551.520523 
L 426.191474 551.520523 
L 428.182873 551.520523 
L 430.174272 551.520523 
L 432.16567 558.218635 
L 434.157069 558.218635 
L 436.148468 578.312969 
L 438.139867 598.407303 
L 440.131266 618.501638 
L 442.122665 625.199749 
L 444.114063 625.199749 
L 446.105462 631.897861 
L 448.096861 625.199749 
L 450.08826 618.501638 
L 452.079659 611.803526 
L 454.071058 611.803526 
L 456.062456 618.501638 
L 458.053855 631.897861 
L 460.045254 645.294083 
L 462.036653 658.690306 
L 464.028052 665.388418 
L 466.019451 678.784641 
L 468.010849 692.180863 
L 470.002248 698.878975 
L 471.993647 705.577086 
L 473.985046 712.275198 
L 475.976445 718.973309 
L 477.967844 725.671421 
L 479.959242 732.369532 
L 481.950641 739.067644 
L 483.94204 745.765755 
L 485.933439 745.765755 
L 487.924838 745.765755 
L 489.916237 745.765755 
L 491.907635 739.067644 
L 493.899034 732.369532 
L 495.890433 725.671421 
L 497.881832 712.275198 
L 499.873231 692.180863 
L 501.86463 665.388418 
L 503.856028 638.595972 
L 505.847427 611.803526 
L 507.838826 571.614858 
L 509.830225 551.520523 
L 511.821624 551.520523 
L 513.813023 551.520523 
L 515.804421 551.520523 
L 517.79582 544.822412 
L 519.787219 531.426189 
L 521.778618 531.426189 
L 523.770017 524.728078 
L 525.761416 518.029966 
L 527.752815 518.029966 
L 529.744213 518.029966 
L 531.735612 518.029966 
L 533.727011 524.728078 
L 535.71841 524.728078 
L 537.709809 531.426189 
L 539.701208 531.426189 
L 541.692606 538.1243 
L 543.684005 538.1243 
L 545.675404 538.1243 
L 547.666803 538.1243 
L 549.658202 538.1243 
L 551.649601 538.1243 
L 553.640999 538.1243 
L 555.632398 538.1243 
L 557.623797 544.822412 
L 559.615196 544.822412 
L 561.606595 551.520523 
L 563.597994 551.520523 
L 565.589392 571.614858 
L 567.580791 585.01108 
L 569.57219 591.709192 
L 571.563589 605.105415 
L 573.554988 625.199749 
L 575.546387 651.992195 
L 577.537785 665.388418 
L 579.529184 678.784641 
L 581.520583 698.878975 
L 583.511982 712.275198 
L 585.503381 718.973309 
L 587.49478 725.671421 
L 589.486178 725.671421 
L 591.477577 732.369532 
L 593.468976 739.067644 
L 595.460375 739.067644 
L 597.451774 739.067644 
L 599.443173 739.067644 
L 601.434571 739.067644 
L 603.42597 732.369532 
L 605.417369 732.369532 
L 607.408768 732.369532 
L 609.400167 732.369532 
L 611.391566 739.067644 
L 613.382964 739.067644 
L 615.374363 745.765755 
L 617.365762 745.765755 
L 619.357161 752.463866 
L 621.34856 752.463866 
L 623.339959 752.463866 
L 625.331358 752.463866 
L 627.322756 752.463866 
L 629.314155 752.463866 
L 631.305554 752.463866 
L 633.296953 745.765755 
L 635.288352 739.067644 
L 637.279751 732.369532 
L 639.271149 725.671421 
L 641.262548 712.275198 
L 643.253947 698.878975 
L 645.245346 685.482752 
L 647.236745 672.086529 
L 649.228144 651.992195 
L 651.219542 631.897861 
L 653.210941 611.803526 
L 655.20234 591.709192 
L 657.193739 585.01108 
L 659.185138 571.614858 
L 661.176537 558.218635 
L 663.167935 551.520523 
L 665.159334 551.520523 
L 667.150733 558.218635 
L 669.142132 551.520523 
L 671.133531 551.520523 
L 673.12493 564.916746 
L 675.116328 564.916746 
L 677.107727 558.218635 
L 677.107727 511.331855 
L 677.107727 511.331855 
L 675.116328 518.029966 
L 673.12493 511.331855 
L 671.133531 504.633743 
L 669.142132 504.633743 
L 667.150733 511.331855 
L 665.159334 497.935632 
L 663.167935 497.935632 
L 661.176537 505.973366 
L 659.185138 518.029966 
L 657.193739 524.728078 
L 655.20234 524.728078 
L 653.210941 531.426189 
L 651.219542 531.426189 
L 649.228144 538.1243 
L 647.236745 544.822412 
L 645.245346 544.822412 
L 643.253947 544.822412 
L 641.262548 551.520523 
L 639.271149 551.520523 
L 637.279751 551.520523 
L 635.288352 551.520523 
L 633.296953 551.520523 
L 631.305554 551.520523 
L 629.314155 551.520523 
L 627.322756 551.520523 
L 625.331358 551.520523 
L 623.339959 551.520523 
L 621.34856 551.520523 
L 619.357161 551.520523 
L 617.365762 551.520523 
L 615.374363 551.520523 
L 613.382964 551.520523 
L 611.391566 551.520523 
L 609.400167 551.520523 
L 607.408768 551.520523 
L 605.417369 551.520523 
L 603.42597 551.520523 
L 601.434571 551.520523 
L 599.443173 551.520523 
L 597.451774 551.520523 
L 595.460375 551.520523 
L 593.468976 551.520523 
L 591.477577 551.520523 
L 589.486178 551.520523 
L 587.49478 551.520523 
L 585.503381 551.520523 
L 583.511982 551.520523 
L 581.520583 544.822412 
L 579.529184 544.822412 
L 577.537785 538.1243 
L 575.546387 538.1243 
L 573.554988 531.426189 
L 571.563589 531.426189 
L 569.57219 524.728078 
L 567.580791 524.728078 
L 565.589392 511.331855 
L 563.597994 484.539409 
L 561.606595 451.048852 
L 559.615196 404.162072 
L 557.623797 370.671514 
L 555.632398 337.180957 
L 553.640999 317.086623 
L 551.649601 310.388511 
L 549.658202 310.388511 
L 547.666803 317.086623 
L 545.675404 323.784734 
L 543.684005 317.086623 
L 541.692606 303.6904 
L 539.701208 283.596066 
L 537.709809 276.897954 
L 535.71841 256.80362 
L 533.727011 243.407397 
L 531.735612 230.011174 
L 529.744213 223.313063 
L 527.752815 223.313063 
L 525.761416 230.011174 
L 523.770017 236.709286 
L 521.778618 263.501731 
L 519.787219 296.992289 
L 517.79582 330.482846 
L 515.804421 404.162072 
L 513.813023 437.652629 
L 511.821624 457.746963 
L 509.830225 477.841297 
L 507.838826 511.331855 
L 505.847427 531.426189 
L 503.856028 538.1243 
L 501.86463 544.822412 
L 499.873231 544.822412 
L 497.881832 551.520523 
L 495.890433 551.520523 
L 493.899034 551.520523 
L 491.907635 551.520523 
L 489.916237 551.520523 
L 487.924838 551.520523 
L 485.933439 551.520523 
L 483.94204 551.520523 
L 481.950641 551.520523 
L 479.959242 551.520523 
L 477.967844 551.520523 
L 475.976445 551.520523 
L 473.985046 544.822412 
L 471.993647 544.822412 
L 470.002248 544.822412 
L 468.010849 544.822412 
L 466.019451 544.822412 
L 464.028052 538.1243 
L 462.036653 538.1243 
L 460.045254 538.1243 
L 458.053855 531.426189 
L 456.062456 531.426189 
L 454.071058 531.426189 
L 452.079659 531.426189 
L 450.08826 531.426189 
L 448.096861 538.1243 
L 446.105462 538.1243 
L 444.114063 531.426189 
L 442.122665 531.426189 
L 440.131266 531.426189 
L 438.139867 524.728078 
L 436.148468 518.029966 
L 434.157069 511.331855 
L 432.16567 504.633743 
L 430.174272 491.23752 
L 428.182873 477.841297 
L 426.191474 471.143186 
L 424.200075 464.445075 
L 422.208676 444.35074 
L 420.217277 417.558295 
L 418.225878 404.162072 
L 416.23448 384.067737 
L 414.243081 363.973403 
L 412.251682 350.57718 
L 410.260283 337.180957 
L 408.268884 337.180957 
L 406.277485 337.180957 
L 404.286087 330.482846 
L 402.294688 323.784734 
L 400.303289 330.482846 
L 398.31189 337.180957 
L 396.320491 337.180957 
L 394.329092 343.879069 
L 392.337694 363.973403 
L 390.346295 390.765849 
L 388.354896 424.256406 
L 386.363497 464.445075 
L 384.372098 497.935632 
L 382.380699 524.728078 
L 380.389301 531.426189 
L 378.397902 538.1243 
L 376.406503 538.1243 
L 374.415104 544.822412 
L 372.423705 544.822412 
L 370.432306 551.520523 
L 368.440908 551.520523 
L 366.449509 551.520523 
L 364.45811 551.520523 
L 362.466711 551.520523 
L 360.475312 551.520523 
L 358.483913 551.520523 
L 356.492515 551.520523 
L 354.501116 551.520523 
L 352.509717 551.520523 
L 350.518318 551.520523 
L 348.526919 551.520523 
L 346.53552 551.520523 
L 344.544122 551.520523 
L 342.552723 551.520523 
L 340.561324 551.520523 
L 338.569925 551.520523 
L 336.578526 551.520523 
L 334.587127 551.520523 
L 332.595728 544.822412 
L 330.60433 544.822412 
L 328.612931 544.822412 
L 326.621532 544.822412 
L 324.630133 538.1243 
L 322.638734 538.1243 
L 320.647335 531.426189 
L 318.655937 531.426189 
L 316.664538 531.426189 
L 314.673139 531.426189 
L 312.68174 524.728078 
L 310.690341 518.029966 
L 308.698942 511.331855 
L 306.707544 504.633743 
L 304.716145 497.935632 
L 302.724746 497.935632 
L 300.733347 484.539409 
L 298.741948 484.539409 
L 296.750549 477.841297 
L 294.759151 471.143186 
L 292.767752 471.143186 
L 290.776353 471.143186 
L 288.784954 464.445075 
L 286.793555 451.048852 
L 284.802156 437.652629 
L 282.810758 424.256406 
L 280.819359 404.162072 
L 278.82796 384.067737 
L 276.836561 350.57718 
L 274.845162 317.086623 
L 272.853763 296.992289 
L 270.862365 276.897954 
L 268.870966 256.80362 
L 266.879567 250.105509 
L 264.888168 250.105509 
L 262.896769 250.105509 
L 260.90537 250.105509 
L 258.913972 243.407397 
L 256.922573 250.105509 
L 254.931174 263.501731 
L 252.939775 283.596066 
L 250.948376 323.784734 
L 248.956977 370.671514 
L 246.965579 444.35074 
L 244.97418 477.841297 
L 242.982781 484.539409 
L 240.991382 491.23752 
L 238.999983 497.935632 
L 237.008584 511.331855 
L 235.017185 524.728078 
L 233.025787 531.426189 
L 231.034388 538.1243 
L 229.042989 538.1243 
L 227.05159 538.1243 
L 225.060191 544.822412 
L 223.068792 544.822412 
L 221.077394 544.822412 
L 219.085995 544.822412 
L 217.094596 551.520523 
L 215.103197 551.520523 
L 213.111798 551.520523 
L 211.120399 551.520523 
L 209.129001 551.520523 
L 207.137602 551.520523 
L 205.146203 551.520523 
L 203.154804 551.520523 
L 201.163405 551.520523 
L 199.172006 551.520523 
L 197.180608 551.520523 
L 195.189209 551.520523 
L 193.19781 544.822412 
L 191.206411 544.822412 
L 189.215012 544.822412 
L 187.223613 544.822412 
L 185.232215 544.822412 
L 183.240816 544.822412 
L 181.249417 538.1243 
L 179.258018 538.1243 
L 177.266619 538.1243 
L 175.27522 531.426189 
L 173.283822 531.426189 
L 171.292423 524.728078 
L 169.301024 497.935632 
L 167.309625 477.841297 
L 165.318226 444.35074 
L 163.326827 410.860183 
L 161.335429 390.765849 
L 159.34403 390.765849 
L 157.352631 384.067737 
L 155.361232 370.671514 
L 153.369833 370.671514 
L 151.378434 390.765849 
L 149.387036 377.369626 
L 147.395637 337.180957 
L 145.404238 310.388511 
L 143.412839 296.992289 
L 141.42144 283.596066 
L 139.430041 263.501731 
L 137.438642 250.105509 
L 135.447244 243.407397 
L 133.455845 236.709286 
L 131.464446 223.313063 
L 129.473047 216.614951 
L 127.481648 216.614951 
L 125.490249 223.313063 
L 123.498851 230.011174 
L 121.507452 236.709286 
L 119.516053 256.80362 
L 117.524654 290.294177 
L 115.533255 303.6904 
L 113.541856 337.180957 
L 111.550458 390.765849 
L 109.559059 457.746963 
L 107.56766 518.029966 
L 105.576261 538.1243 
L 103.584862 544.822412 
L 101.593463 544.822412 
L 99.602065 551.520523 
L 97.610666 551.520523 
L 95.619267 551.520523 
L 93.627868 551.520523 
L 91.636469 551.520523 
L 89.64507 551.520523 
L 87.653672 551.520523 
L 85.662273 551.520523 
z
" style="fill:#008000;fill-opacity:0.4;"/>
   </g>
   <g id="matplotlib.axis_1">
    <g id="xtick_1">
     <g id="line2d_1">
      <defs>
       <path d="M 0 0 
L 0 3.5 
" id="m599f101d83" style="stroke:#000000;stroke-width:0.8;"/>
      </defs>
      <g>
       <use style="stroke:#000000;stroke-width:0.8;" x="85.662273" xlink:href="#m599f101d83" y="822.04"/>
      </g>
     </g>
     <g id="text_1">
      <!-- 0.0 -->
      <defs>
       <path d="M 31.78125 66.40625 
Q 24.171875 66.40625 20.328125 58.90625 
Q 16.5 51.421875 16.5 36.375 
Q 16.5 21.390625 20.328125 13.890625 
Q 24.171875 6.390625 31.78125 6.390625 
Q 39.453125 6.390625 43.28125 13.890625 
Q 47.125 21.390625 47.125 36.375 
Q 47.125 51.421875 43.28125 58.90625 
Q 39.453125 66.40625 31.78125 66.40625 
z
M 31.78125 74.21875 
Q 44.046875 74.21875 50.515625 64.515625 
Q 56.984375 54.828125 56.984375 36.375 
Q 56.984375 17.96875 50.515625 8.265625 
Q 44.046875 -1.421875 31.78125 -1.421875 
Q 19.53125 -1.421875 13.0625 8.265625 
Q 6.59375 17.96875 6.59375 36.375 
Q 6.59375 54.828125 13.0625 64.515625 
Q 19.53125 74.21875 31.78125 74.21875 
z
" id="DejaVuSans-30"/>
       <path d="M 10.6875 12.40625 
L 21 12.40625 
L 21 0 
L 10.6875 0 
z
" id="DejaVuSans-2e"/>
      </defs>
      <g transform="translate(77.71071 836.638438)scale(0.1 -0.1)">
       <use xlink:href="#DejaVuSans-30"/>
       <use x="63.623047" xlink:href="#DejaVuSans-2e"/>
       <use x="95.410156" xlink:href="#DejaVuSans-30"/>
      </g>
     </g>
    </g>
    <g id="xtick_2">
     <g id="line2d_2">
      <g>
       <use style="stroke:#000000;stroke-width:0.8;" x="203.951364" xlink:href="#m599f101d83" y="822.04"/>
      </g>
     </g>
     <g id="text_2">
      <!-- 0.2 -->
      <defs>
       <path d="M 19.1875 8.296875 
L 53.609375 8.296875 
L 53.609375 0 
L 7.328125 0 
L 7.328125 8.296875 
Q 12.9375 14.109375 22.625 23.890625 
Q 32.328125 33.6875 34.8125 36.53125 
Q 39.546875 41.84375 41.421875 45.53125 
Q 43.3125 49.21875 43.3125 52.78125 
Q 43.3125 58.59375 39.234375 62.25 
Q 35.15625 65.921875 28.609375 65.921875 
Q 23.96875 65.921875 18.8125 64.3125 
Q 13.671875 62.703125 7.8125 59.421875 
L 7.8125 69.390625 
Q 13.765625 71.78125 18.9375 73 
Q 24.125 74.21875 28.421875 74.21875 
Q 39.75 74.21875 46.484375 68.546875 
Q 53.21875 62.890625 53.21875 53.421875 
Q 53.21875 48.921875 51.53125 44.890625 
Q 49.859375 40.875 45.40625 35.40625 
Q 44.1875 33.984375 37.640625 27.21875 
Q 31.109375 20.453125 19.1875 8.296875 
z
" id="DejaVuSans-32"/>
      </defs>
      <g transform="translate(195.999801 836.638438)scale(0.1 -0.1)">
       <use xlink:href="#DejaVuSans-30"/>
       <use x="63.623047" xlink:href="#DejaVuSans-2e"/>
       <use x="95.410156" xlink:href="#DejaVuSans-32"/>
      </g>
     </g>
    </g>
    <g id="xtick_3">
     <g id="line2d_3">
      <g>
       <use style="stroke:#000000;stroke-width:0.8;" x="322.240455" xlink:href="#m599f101d83" y="822.04"/>
      </g>
     </g>
     <g id="text_3">
      <!-- 0.4 -->
      <defs>
       <path d="M 37.796875 64.3125 
L 12.890625 25.390625 
L 37.796875 25.390625 
z
M 35.203125 72.90625 
L 47.609375 72.90625 
L 47.609375 25.390625 
L 58.015625 25.390625 
L 58.015625 17.1875 
L 47.609375 17.1875 
L 47.609375 0 
L 37.796875 0 
L 37.796875 17.1875 
L 4.890625 17.1875 
L 4.890625 26.703125 
z
" id="DejaVuSans-34"/>
      </defs>
      <g transform="translate(314.288892 836.638438)scale(0.1 -0.1)">
       <use xlink:href="#DejaVuSans-30"/>
       <use x="63.623047" xlink:href="#DejaVuSans-2e"/>
       <use x="95.410156" xlink:href="#DejaVuSans-34"/>
      </g>
     </g>
    </g>
    <g id="xtick_4">
     <g id="line2d_4">
      <g>
       <use style="stroke:#000000;stroke-width:0.8;" x="440.529545" xlink:href="#m599f101d83" y="822.04"/>
      </g>
     </g>
     <g id="text_4">
      <!-- 0.6 -->
      <defs>
       <path d="M 33.015625 40.375 
Q 26.375 40.375 22.484375 35.828125 
Q 18.609375 31.296875 18.609375 23.390625 
Q 18.609375 15.53125 22.484375 10.953125 
Q 26.375 6.390625 33.015625 6.390625 
Q 39.65625 6.390625 43.53125 10.953125 
Q 47.40625 15.53125 47.40625 23.390625 
Q 47.40625 31.296875 43.53125 35.828125 
Q 39.65625 40.375 33.015625 40.375 
z
M 52.59375 71.296875 
L 52.59375 62.3125 
Q 48.875 64.0625 45.09375 64.984375 
Q 41.3125 65.921875 37.59375 65.921875 
Q 27.828125 65.921875 22.671875 59.328125 
Q 17.53125 52.734375 16.796875 39.40625 
Q 19.671875 43.65625 24.015625 45.921875 
Q 28.375 48.1875 33.59375 48.1875 
Q 44.578125 48.1875 50.953125 41.515625 
Q 57.328125 34.859375 57.328125 23.390625 
Q 57.328125 12.15625 50.6875 5.359375 
Q 44.046875 -1.421875 33.015625 -1.421875 
Q 20.359375 -1.421875 13.671875 8.265625 
Q 6.984375 17.96875 6.984375 36.375 
Q 6.984375 53.65625 15.1875 63.9375 
Q 23.390625 74.21875 37.203125 74.21875 
Q 40.921875 74.21875 44.703125 73.484375 
Q 48.484375 72.75 52.59375 71.296875 
z
" id="DejaVuSans-36"/>
      </defs>
      <g transform="translate(432.577983 836.638438)scale(0.1 -0.1)">
       <use xlink:href="#DejaVuSans-30"/>
       <use x="63.623047" xlink:href="#DejaVuSans-2e"/>
       <use x="95.410156" xlink:href="#DejaVuSans-36"/>
      </g>
     </g>
    </g>
    <g id="xtick_5">
     <g id="line2d_5">
      <g>
       <use style="stroke:#000000;stroke-width:0.8;" x="558.818636" xlink:href="#m599f101d83" y="822.04"/>
      </g>
     </g>
     <g id="text_5">
      <!-- 0.8 -->
      <defs>
       <path d="M 31.78125 34.625 
Q 24.75 34.625 20.71875 30.859375 
Q 16.703125 27.09375 16.703125 20.515625 
Q 16.703125 13.921875 20.71875 10.15625 
Q 24.75 6.390625 31.78125 6.390625 
Q 38.8125 6.390625 42.859375 10.171875 
Q 46.921875 13.96875 46.921875 20.515625 
Q 46.921875 27.09375 42.890625 30.859375 
Q 38.875 34.625 31.78125 34.625 
z
M 21.921875 38.8125 
Q 15.578125 40.375 12.03125 44.71875 
Q 8.5 49.078125 8.5 55.328125 
Q 8.5 64.0625 14.71875 69.140625 
Q 20.953125 74.21875 31.78125 74.21875 
Q 42.671875 74.21875 48.875 69.140625 
Q 55.078125 64.0625 55.078125 55.328125 
Q 55.078125 49.078125 51.53125 44.71875 
Q 48 40.375 41.703125 38.8125 
Q 48.828125 37.15625 52.796875 32.3125 
Q 56.78125 27.484375 56.78125 20.515625 
Q 56.78125 9.90625 50.3125 4.234375 
Q 43.84375 -1.421875 31.78125 -1.421875 
Q 19.734375 -1.421875 13.25 4.234375 
Q 6.78125 9.90625 6.78125 20.515625 
Q 6.78125 27.484375 10.78125 32.3125 
Q 14.796875 37.15625 21.921875 38.8125 
z
M 18.3125 54.390625 
Q 18.3125 48.734375 21.84375 45.5625 
Q 25.390625 42.390625 31.78125 42.390625 
Q 38.140625 42.390625 41.71875 45.5625 
Q 45.3125 48.734375 45.3125 54.390625 
Q 45.3125 60.0625 41.71875 63.234375 
Q 38.140625 66.40625 31.78125 66.40625 
Q 25.390625 66.40625 21.84375 63.234375 
Q 18.3125 60.0625 18.3125 54.390625 
z
" id="DejaVuSans-38"/>
      </defs>
      <g transform="translate(550.867074 836.638438)scale(0.1 -0.1)">
       <use xlink:href="#DejaVuSans-30"/>
       <use x="63.623047" xlink:href="#DejaVuSans-2e"/>
       <use x="95.410156" xlink:href="#DejaVuSans-38"/>
      </g>
     </g>
    </g>
    <g id="xtick_6">
     <g id="line2d_6">
      <g>
       <use style="stroke:#000000;stroke-width:0.8;" x="677.107727" xlink:href="#m599f101d83" y="822.04"/>
      </g>
     </g>
     <g id="text_6">
      <!-- 1.0 -->
      <defs>
       <path d="M 12.40625 8.296875 
L 28.515625 8.296875 
L 28.515625 63.921875 
L 10.984375 60.40625 
L 10.984375 69.390625 
L 28.421875 72.90625 
L 38.28125 72.90625 
L 38.28125 8.296875 
L 54.390625 8.296875 
L 54.390625 0 
L 12.40625 0 
z
" id="DejaVuSans-31"/>
      </defs>
      <g transform="translate(669.156165 836.638438)scale(0.1 -0.1)">
       <use xlink:href="#DejaVuSans-31"/>
       <use x="63.623047" xlink:href="#DejaVuSans-2e"/>
       <use x="95.410156" xlink:href="#DejaVuSans-30"/>
      </g>
     </g>
    </g>
   </g>
   <g id="matplotlib.axis_2">
    <g id="ytick_1">
     <g id="line2d_7">
      <defs>
       <path d="M 0 0 
L -3.5 0 
" id="mba782dc643" style="stroke:#000000;stroke-width:0.8;"/>
      </defs>
      <g>
       <use style="stroke:#000000;stroke-width:0.8;" x="56.09" xlink:href="#mba782dc643" y="799.350647"/>
      </g>
     </g>
     <g id="text_7">
      <!-- 0.0 -->
      <g transform="translate(33.186875 803.149865)scale(0.1 -0.1)">
       <use xlink:href="#DejaVuSans-30"/>
       <use x="63.623047" xlink:href="#DejaVuSans-2e"/>
       <use x="95.410156" xlink:href="#DejaVuSans-30"/>
      </g>
     </g>
    </g>
    <g id="ytick_2">
     <g id="line2d_8">
      <g>
       <use style="stroke:#000000;stroke-width:0.8;" x="56.09" xlink:href="#mba782dc643" y="665.388418"/>
      </g>
     </g>
     <g id="text_8">
      <!-- 0.2 -->
      <g transform="translate(33.186875 669.187636)scale(0.1 -0.1)">
       <use xlink:href="#DejaVuSans-30"/>
       <use x="63.623047" xlink:href="#DejaVuSans-2e"/>
       <use x="95.410156" xlink:href="#DejaVuSans-32"/>
      </g>
     </g>
    </g>
    <g id="ytick_3">
     <g id="line2d_9">
      <g>
       <use style="stroke:#000000;stroke-width:0.8;" x="56.09" xlink:href="#mba782dc643" y="531.426189"/>
      </g>
     </g>
     <g id="text_9">
      <!-- 0.4 -->
      <g transform="translate(33.186875 535.225408)scale(0.1 -0.1)">
       <use xlink:href="#DejaVuSans-30"/>
       <use x="63.623047" xlink:href="#DejaVuSans-2e"/>
       <use x="95.410156" xlink:href="#DejaVuSans-34"/>
      </g>
     </g>
    </g>
    <g id="ytick_4">
     <g id="line2d_10">
      <g>
       <use style="stroke:#000000;stroke-width:0.8;" x="56.09" xlink:href="#mba782dc643" y="397.46396"/>
      </g>
     </g>
     <g id="text_10">
      <!-- 0.6 -->
      <g transform="translate(33.186875 401.263179)scale(0.1 -0.1)">
       <use xlink:href="#DejaVuSans-30"/>
       <use x="63.623047" xlink:href="#DejaVuSans-2e"/>
       <use x="95.410156" xlink:href="#DejaVuSans-36"/>
      </g>
     </g>
    </g>
    <g id="ytick_5">
     <g id="line2d_11">
      <g>
       <use style="stroke:#000000;stroke-width:0.8;" x="56.09" xlink:href="#mba782dc643" y="263.501731"/>
      </g>
     </g>
     <g id="text_11">
      <!-- 0.8 -->
      <g transform="translate(33.186875 267.30095)scale(0.1 -0.1)">
       <use xlink:href="#DejaVuSans-30"/>
       <use x="63.623047" xlink:href="#DejaVuSans-2e"/>
       <use x="95.410156" xlink:href="#DejaVuSans-38"/>
      </g>
     </g>
    </g>
    <g id="ytick_6">
     <g id="line2d_12">
      <g>
       <use style="stroke:#000000;stroke-width:0.8;" x="56.09" xlink:href="#mba782dc643" y="129.539503"/>
      </g>
     </g>
     <g id="text_12">
      <!-- 1.0 -->
      <g transform="translate(33.186875 133.338721)scale(0.1 -0.1)">
       <use xlink:href="#DejaVuSans-31"/>
       <use x="63.623047" xlink:href="#DejaVuSans-2e"/>
       <use x="95.410156" xlink:href="#DejaVuSans-30"/>
      </g>
     </g>
    </g>
   </g>
   <g id="line2d_13">
    <path clip-path="url(#p8579115b64)" d="M 85.662273 765.38459 
L 87.653672 765.83745 
L 89.64507 764.025945 
L 91.636469 761.308656 
L 93.627868 744.099131 
L 95.619267 737.305906 
L 97.610666 718.737536 
L 99.602065 689.300676 
L 101.593463 654.88176 
L 103.584862 597.818539 
L 105.576261 549.813175 
L 107.56766 495.467378 
L 111.550458 376.812343 
L 113.541856 328.806978 
L 115.533255 313.862152 
L 117.524654 273.555597 
L 119.516053 198.830126 
L 121.507452 173.469067 
L 123.498851 167.581427 
L 125.490249 139.050151 
L 127.481648 136.332727 
L 129.473047 158.52357 
L 131.464446 206.529605 
L 133.455845 223.285601 
L 135.447244 227.814863 
L 137.438642 270.838173 
L 139.430041 295.74711 
L 141.42144 322.920008 
L 143.412839 343.752474 
L 145.404238 376.359551 
L 147.395637 427.987924 
L 149.387036 434.328356 
L 151.378434 402.174072 
L 153.369833 408.514504 
L 155.361232 423.459331 
L 157.352631 428.894178 
L 159.34403 423.459331 
L 161.335429 447.914805 
L 163.326827 490.485992 
L 165.318226 504.525234 
L 167.309625 538.944149 
L 169.301024 569.287264 
L 171.292423 573.363065 
L 173.283822 586.496722 
L 175.27522 609.140357 
L 177.266619 629.972823 
L 179.258018 635.860463 
L 181.249417 642.653688 
L 183.240816 668.015417 
L 185.232215 683.865828 
L 187.223613 691.564637 
L 189.215012 685.677667 
L 191.206411 696.0939 
L 193.19781 707.86851 
L 195.189209 714.208943 
L 197.180608 720.096583 
L 199.172006 734.588616 
L 201.163405 749.986637 
L 203.154804 749.986637 
L 205.146203 743.646272 
L 207.137602 746.363561 
L 209.129001 741.381841 
L 211.120399 734.588616 
L 213.111798 733.230039 
L 215.103197 720.096583 
L 217.094596 696.546693 
L 219.085995 670.732171 
L 221.077394 660.315938 
L 223.068792 646.729489 
L 225.060191 624.991438 
L 227.05159 611.404989 
L 229.042989 600.083171 
L 231.034388 586.949514 
L 233.025787 570.192849 
L 235.017185 533.962094 
L 237.008584 521.734692 
L 238.999983 513.129628 
L 240.991382 510.412204 
L 242.982781 505.430818 
L 244.97418 483.239305 
L 250.948376 304.351504 
L 252.939775 271.290965 
L 254.931174 241.401313 
L 256.922573 202.000342 
L 258.913972 235.06088 
L 260.90537 244.118737 
L 262.896769 231.437872 
L 264.888168 233.249041 
L 266.879567 251.364753 
L 268.870966 295.74711 
L 270.862365 322.013754 
L 272.853763 351.451284 
L 274.845162 400.815025 
L 276.836561 424.817708 
L 278.82796 445.197382 
L 280.819359 463.313094 
L 282.810758 467.388895 
L 284.802156 490.938785 
L 286.793555 495.467378 
L 288.784954 496.825755 
L 290.776353 495.467378 
L 292.767752 498.637594 
L 294.759151 508.148242 
L 296.750549 509.053827 
L 298.741948 517.205429 
L 300.733347 523.998653 
L 302.724746 528.527916 
L 304.716145 532.603717 
L 306.707544 546.642959 
L 308.698942 549.360382 
L 310.690341 568.834472 
L 312.68174 585.590467 
L 314.673139 597.818539 
L 316.664538 595.553908 
L 318.655937 600.083171 
L 322.638734 636.766048 
L 324.630133 651.258752 
L 326.621532 663.033362 
L 328.612931 683.413036 
L 330.60433 699.716909 
L 332.595728 705.604549 
L 334.587127 708.774095 
L 336.578526 716.020782 
L 340.561324 740.928982 
L 342.552723 752.251 
L 344.544122 765.38459 
L 346.53552 774.895038 
L 348.526919 782.141189 
L 350.518318 784.858479 
L 352.509717 783.046907 
L 354.501116 781.688262 
L 356.492515 780.782544 
L 358.483913 774.442179 
L 360.475312 771.272029 
L 362.466711 757.68558 
L 364.45811 746.816421 
L 366.449509 723.719591 
L 368.440908 701.98154 
L 370.432306 681.601866 
L 372.423705 651.711544 
L 374.415104 636.313256 
L 376.406503 610.499404 
L 378.397902 579.703497 
L 380.389301 556.606399 
L 384.372098 493.202746 
L 386.363497 457.425454 
L 388.354896 425.27117 
L 392.337694 377.265135 
L 394.329092 374.548381 
L 396.320491 374.095589 
L 398.31189 366.848902 
L 400.303289 355.527084 
L 402.294688 366.848902 
L 404.286087 368.207949 
L 406.277485 375.001174 
L 408.268884 371.378165 
L 410.260283 389.040415 
L 412.251682 410.778466 
L 414.243081 423.006538 
L 416.23448 447.009221 
L 418.225878 451.990606 
L 420.217277 484.598352 
L 424.200075 497.279217 
L 428.182873 523.998653 
L 430.174272 538.944149 
L 432.16567 533.962094 
L 434.157069 548.90759 
L 436.148468 575.174234 
L 438.139867 595.101116 
L 440.131266 600.083171 
L 442.122665 598.271332 
L 446.105462 603.706179 
L 448.096861 591.025315 
L 450.08826 588.307891 
L 452.079659 584.23209 
L 454.071058 591.478107 
L 456.062456 604.611764 
L 458.053855 612.310573 
L 460.045254 630.879078 
L 462.036653 639.936264 
L 464.028052 658.504769 
L 466.019451 668.015417 
L 468.010849 676.167019 
L 470.002248 689.753468 
L 471.993647 704.245502 
L 473.985046 714.661735 
L 475.976445 723.266799 
L 477.967844 744.552057 
L 479.959242 759.950011 
L 481.950641 769.007599 
L 483.94204 774.895038 
L 485.933439 775.347964 
L 487.924838 770.81917 
L 489.916237 757.68558 
L 491.907635 742.287627 
L 495.890433 701.528078 
L 497.881832 672.996803 
L 499.873231 637.21951 
L 501.86463 603.706179 
L 503.856028 584.684882 
L 505.847427 539.849734 
L 507.838826 505.430818 
L 509.830225 485.051145 
L 511.821624 471.011903 
L 513.813023 447.914805 
L 515.804421 375.453966 
L 517.79582 320.655377 
L 519.787219 273.555597 
L 521.778618 222.380016 
L 523.770017 174.827444 
L 525.761416 163.958418 
L 527.752815 167.128634 
L 529.744213 186.149931 
L 531.735612 213.775622 
L 533.727011 254.081507 
L 535.71841 288.047631 
L 537.709809 299.822911 
L 539.701208 332.883449 
L 541.692606 355.074292 
L 543.684005 354.168707 
L 545.675404 341.940635 
L 547.666803 337.864834 
L 549.658202 339.223211 
L 551.649601 342.84622 
L 553.640999 382.247191 
L 555.632398 413.948682 
L 559.615196 492.749954 
L 561.606595 517.205429 
L 563.597994 553.436183 
L 565.589392 563.852416 
L 567.580791 566.117048 
L 569.57219 577.438865 
L 571.563589 593.289946 
L 573.554988 622.726806 
L 575.546387 635.860463 
L 577.537785 651.711544 
L 579.529184 684.31862 
L 581.520583 706.510133 
L 583.511982 718.737536 
L 585.503381 723.719591 
L 587.49478 730.965608 
L 589.486178 742.740486 
L 591.477577 747.269347 
L 593.468976 745.004917 
L 595.460375 748.175066 
L 597.451774 745.910702 
L 599.443173 751.345282 
L 601.434571 740.023196 
L 603.42597 741.834767 
L 605.417369 740.928982 
L 607.408768 741.834767 
L 609.400167 751.345282 
L 611.391566 756.326935 
L 613.382964 766.743235 
L 615.374363 771.724889 
L 617.365762 778.065254 
L 619.357161 783.499834 
L 621.34856 785.764197 
L 623.339959 788.934413 
L 625.331358 789.387273 
L 629.314155 780.329618 
L 631.305554 773.536393 
L 635.288352 743.646272 
L 637.279751 727.795392 
L 639.271149 709.680349 
L 641.262548 674.35518 
L 643.253947 657.599184 
L 645.245346 643.559273 
L 647.236745 620.462845 
L 649.228144 601.89434 
L 651.219542 574.268649 
L 653.210941 573.363065 
L 655.20234 556.606399 
L 657.193739 547.095751 
L 659.185138 529.886293 
L 661.176537 516.752636 
L 663.167935 534.868348 
L 665.159334 537.585102 
L 667.150733 528.527916 
L 669.142132 527.621662 
L 671.133531 543.472742 
L 673.12493 552.530598 
L 675.116328 532.603717 
L 677.107727 528.527916 
L 677.107727 528.527916 
" style="fill:none;stroke:#1f77b4;stroke-linecap:square;stroke-width:1.5;"/>
   </g>
   <g id="line2d_14">
    <path clip-path="url(#p8579115b64)" d="M 85.662273 687.659143 
L 87.653672 688.660797 
L 89.64507 688.830354 
L 91.636469 688.573198 
L 93.627868 686.679344 
L 95.619267 682.294661 
L 97.610666 678.275089 
L 99.602065 670.393869 
L 101.593463 656.390626 
L 103.584862 634.322858 
L 105.576261 595.352196 
L 107.56766 549.07226 
L 109.559059 496.684577 
L 111.550458 439.924461 
L 113.541856 391.759924 
L 115.533255 363.024449 
L 117.524654 348.742106 
L 121.507452 307.625546 
L 123.498851 298.941223 
L 125.490249 295.199516 
L 127.481648 291.081682 
L 129.473047 289.374746 
L 131.464446 294.735967 
L 133.455845 304.810321 
L 135.447244 310.955963 
L 137.438642 315.984239 
L 139.430041 327.221433 
L 145.404238 367.37908 
L 147.395637 389.073453 
L 149.387036 422.013744 
L 151.378434 427.313716 
L 153.369833 414.415765 
L 155.361232 413.686071 
L 157.352631 423.37152 
L 159.34403 428.110034 
L 161.335429 428.925211 
L 163.326827 449.187164 
L 165.318226 481.036175 
L 167.309625 504.56192 
L 171.292423 559.843084 
L 173.283822 570.803029 
L 175.27522 581.091092 
L 177.266619 599.366568 
L 179.258018 614.15952 
L 181.249417 621.839545 
L 183.240816 628.449794 
L 185.232215 641.03225 
L 187.223613 652.276581 
L 189.215012 655.165833 
L 191.206411 655.607263 
L 193.19781 659.391711 
L 195.189209 664.829779 
L 197.180608 668.503099 
L 199.172006 671.43994 
L 201.163405 677.436734 
L 203.154804 682.468536 
L 205.146203 683.307948 
L 207.137602 681.97 
L 209.129001 681.50601 
L 211.120399 680.445399 
L 213.111798 678.138668 
L 215.103197 676.202689 
L 217.094596 670.836532 
L 219.085995 660.51736 
L 221.077394 647.90547 
L 223.068792 638.469333 
L 225.060191 629.654053 
L 227.05159 615.491563 
L 229.042989 603.313964 
L 231.034388 594.598003 
L 233.025787 581.820786 
L 235.017185 562.030403 
L 237.008584 538.180526 
L 238.999983 519.849441 
L 240.991382 510.914748 
L 242.982781 508.53875 
L 244.97418 503.367355 
L 246.965579 477.408593 
L 248.956977 426.374544 
L 250.948376 380.105536 
L 252.939775 349.912613 
L 254.931174 330.333558 
L 256.922573 316.716753 
L 258.913972 310.351674 
L 262.896769 317.94648 
L 264.888168 315.190301 
L 266.879567 315.456004 
L 268.870966 323.06024 
L 270.862365 337.131958 
L 272.853763 353.855778 
L 274.845162 374.307733 
L 278.82796 426.37049 
L 280.819359 444.705981 
L 282.810758 457.460726 
L 284.802156 467.783599 
L 286.793555 483.395165 
L 288.784954 493.458415 
L 290.776353 492.523121 
L 292.767752 493.48265 
L 294.759151 497.111642 
L 296.750549 503.431423 
L 298.741948 506.284719 
L 300.733347 514.300685 
L 302.724746 520.903267 
L 304.716145 524.363407 
L 306.707544 532.567172 
L 308.698942 539.450439 
L 310.690341 548.740726 
L 314.673139 578.993047 
L 316.664538 588.486555 
L 318.655937 589.683146 
L 320.647335 594.420074 
L 324.630133 620.445108 
L 326.621532 631.598316 
L 328.612931 640.517234 
L 330.60433 651.334766 
L 332.595728 660.163706 
L 334.587127 664.343581 
L 336.578526 665.80667 
L 338.569925 669.571554 
L 342.552723 679.763029 
L 344.544122 684.274616 
L 346.53552 688.238139 
L 348.526919 691.652364 
L 350.518318 693.718508 
L 352.509717 694.551486 
L 356.492515 694.073749 
L 358.483913 693.264564 
L 360.475312 691.965833 
L 362.466711 689.892463 
L 364.45811 686.790825 
L 366.449509 681.767748 
L 368.440908 673.925745 
L 370.432306 663.262436 
L 372.423705 651.012396 
L 376.406503 621.132148 
L 378.397902 602.960221 
L 382.380699 552.751573 
L 384.372098 524.42536 
L 388.354896 458.753553 
L 390.346295 429.182278 
L 392.337694 407.187128 
L 394.329092 392.689931 
L 396.320491 386.863222 
L 398.31189 386.555305 
L 400.303289 381.630755 
L 402.294688 377.248803 
L 404.286087 380.350442 
L 406.277485 383.776829 
L 408.268884 385.807193 
L 410.260283 388.141684 
L 412.251682 396.305704 
L 416.23448 427.193775 
L 420.217277 455.33915 
L 422.208676 474.980951 
L 424.200075 488.534658 
L 426.191474 495.262204 
L 428.182873 506.644278 
L 430.174272 521.846581 
L 432.16567 531.209132 
L 434.157069 534.341791 
L 436.148468 547.786131 
L 438.139867 569.175672 
L 440.131266 584.921103 
L 442.122665 591.212771 
L 444.114063 592.546313 
L 446.105462 594.600383 
L 448.096861 593.416481 
L 450.08826 586.989713 
L 452.079659 581.985408 
L 454.071058 581.554113 
L 456.062456 586.414331 
L 458.053855 594.352481 
L 462.036653 615.270717 
L 464.028052 625.64065 
L 466.019451 635.333501 
L 468.010849 642.957566 
L 470.002248 648.380564 
L 471.993647 655.123532 
L 473.985046 663.054632 
L 475.976445 668.644015 
L 477.967844 672.966568 
L 479.959242 680.214417 
L 481.950641 686.287883 
L 483.94204 689.375156 
L 485.933439 691.612619 
L 487.924838 692.000026 
L 489.916237 690.310451 
L 491.907635 686.39531 
L 493.899034 680.790417 
L 495.890433 672.894744 
L 497.881832 662.645281 
L 499.873231 646.741221 
L 501.86463 624.665345 
L 503.856028 599.599489 
L 505.847427 576.995995 
L 507.838826 543.363553 
L 509.830225 505.030845 
L 511.821624 485.102013 
L 513.813023 469.559628 
L 515.804421 440.914835 
L 517.79582 392.61608 
L 519.787219 355.359581 
L 521.778618 332.179295 
L 523.770017 312.329955 
L 525.761416 300.21237 
L 527.752815 296.000945 
L 529.744213 296.390468 
L 531.735612 300.853143 
L 533.727011 309.16275 
L 535.71841 321.574591 
L 537.709809 335.126887 
L 539.701208 344.295029 
L 541.692606 358.953939 
L 543.684005 370.804234 
L 545.675404 371.75451 
L 547.666803 367.66241 
L 549.658202 363.212072 
L 551.649601 363.720654 
L 553.640999 370.238193 
L 555.632398 389.839808 
L 557.623797 417.679205 
L 559.615196 450.163085 
L 561.606595 485.06218 
L 565.589392 543.592155 
L 567.580791 559.031785 
L 569.57219 564.003043 
L 571.563589 572.805457 
L 573.554988 587.684509 
L 575.546387 607.875078 
L 577.537785 622.372539 
L 579.529184 633.509003 
L 581.520583 650.538272 
L 583.511982 663.599346 
L 585.503381 669.703304 
L 587.49478 672.992654 
L 589.486178 675.882258 
L 591.477577 679.943778 
L 593.468976 682.194989 
L 595.460375 682.296335 
L 597.451774 681.998729 
L 599.443173 682.85233 
L 601.434571 682.929618 
L 603.42597 680.966936 
L 605.417369 679.566946 
L 607.408768 680.231426 
L 609.400167 681.503278 
L 611.391566 683.145089 
L 613.382964 686.026321 
L 615.374363 688.68133 
L 619.357161 692.516628 
L 621.34856 694.158086 
L 623.339959 695.12449 
L 625.331358 695.529523 
L 627.322756 695.522032 
L 629.314155 695.021293 
L 631.305554 693.265357 
L 633.296953 690.730201 
L 635.288352 686.938085 
L 637.279751 681.459214 
L 639.271149 675.359751 
L 641.262548 665.022073 
L 643.253947 650.926384 
L 645.245346 638.140618 
L 647.236745 626.407797 
L 649.228144 612.023051 
L 651.219542 593.584363 
L 653.210941 577.158061 
L 655.20234 565.930298 
L 657.193739 555.691498 
L 659.185138 544.028826 
L 661.176537 527.376301 
L 663.167935 519.913774 
L 665.159334 527.88647 
L 667.150733 532.56964 
L 669.142132 527.053051 
L 671.133531 528.389588 
L 673.12493 540.346958 
L 675.116328 542.789845 
L 677.107727 534.674824 
L 677.107727 534.674824 
" style="fill:none;stroke:#ff7f0e;stroke-linecap:square;stroke-width:1.5;"/>
   </g>
   <g id="line2d_15">
    <path clip-path="url(#p8579115b64)" d="M 85.662273 745.765755 
L 91.636469 745.765755 
L 95.619267 732.369532 
L 97.610666 732.369532 
L 101.593463 705.577086 
L 103.584862 678.784641 
L 105.576261 638.595972 
L 107.56766 578.312969 
L 109.559059 558.218635 
L 117.524654 531.426189 
L 119.516053 531.426189 
L 123.498851 518.029966 
L 131.464446 518.029966 
L 133.455845 524.728078 
L 137.438642 524.728078 
L 139.430041 531.426189 
L 141.42144 531.426189 
L 143.412839 538.1243 
L 147.395637 538.1243 
L 151.378434 551.520523 
L 153.369833 544.822412 
L 155.361232 544.822412 
L 157.352631 551.520523 
L 161.335429 551.520523 
L 163.326827 544.822412 
L 165.318226 551.520523 
L 167.309625 551.520523 
L 169.301024 564.916746 
L 171.292423 591.709192 
L 173.283822 598.407303 
L 175.27522 611.803526 
L 177.266619 638.595972 
L 181.249417 665.388418 
L 183.240816 672.086529 
L 187.223613 698.878975 
L 189.215012 705.577086 
L 193.19781 705.577086 
L 203.154804 739.067644 
L 205.146203 739.067644 
L 207.137602 732.369532 
L 213.111798 732.369532 
L 219.085995 712.275198 
L 221.077394 692.180863 
L 223.068792 685.482752 
L 227.05159 658.690306 
L 229.042989 638.595972 
L 231.034388 631.897861 
L 235.017185 591.709192 
L 237.008584 564.916746 
L 238.999983 551.520523 
L 248.956977 551.520523 
L 250.948376 538.1243 
L 252.939775 538.1243 
L 256.922573 524.728078 
L 268.870966 524.728078 
L 272.853763 538.1243 
L 274.845162 538.1243 
L 276.836561 544.822412 
L 278.82796 544.822412 
L 280.819359 551.520523 
L 304.716145 551.520523 
L 308.698942 564.916746 
L 312.68174 591.709192 
L 314.673139 611.803526 
L 316.664538 625.199749 
L 318.655937 625.199749 
L 320.647335 631.897861 
L 322.638734 645.294083 
L 324.630133 665.388418 
L 326.621532 672.086529 
L 332.595728 712.275198 
L 334.587127 712.275198 
L 336.578526 718.973309 
L 338.569925 718.973309 
L 346.53552 745.765755 
L 348.526919 745.765755 
L 350.518318 752.463866 
L 358.483913 752.463866 
L 360.475312 745.765755 
L 362.466711 745.765755 
L 368.440908 725.671421 
L 372.423705 698.878975 
L 374.415104 678.784641 
L 376.406503 665.388418 
L 378.397902 645.294083 
L 382.380699 578.312969 
L 384.372098 558.218635 
L 386.363497 551.520523 
L 390.346295 551.520523 
L 392.337694 544.822412 
L 400.303289 544.822412 
L 402.294688 538.1243 
L 404.286087 538.1243 
L 406.277485 544.822412 
L 414.243081 544.822412 
L 416.23448 551.520523 
L 430.174272 551.520523 
L 432.16567 558.218635 
L 434.157069 558.218635 
L 440.131266 618.501638 
L 442.122665 625.199749 
L 444.114063 625.199749 
L 446.105462 631.897861 
L 452.079659 611.803526 
L 454.071058 611.803526 
L 456.062456 618.501638 
L 462.036653 658.690306 
L 464.028052 665.388418 
L 468.010849 692.180863 
L 483.94204 745.765755 
L 489.916237 745.765755 
L 495.890433 725.671421 
L 497.881832 712.275198 
L 499.873231 692.180863 
L 505.847427 611.803526 
L 507.838826 571.614858 
L 509.830225 551.520523 
L 515.804421 551.520523 
L 517.79582 544.822412 
L 519.787219 531.426189 
L 521.778618 531.426189 
L 525.761416 518.029966 
L 531.735612 518.029966 
L 533.727011 524.728078 
L 535.71841 524.728078 
L 537.709809 531.426189 
L 539.701208 531.426189 
L 541.692606 538.1243 
L 555.632398 538.1243 
L 557.623797 544.822412 
L 559.615196 544.822412 
L 561.606595 551.520523 
L 563.597994 551.520523 
L 565.589392 571.614858 
L 567.580791 585.01108 
L 569.57219 591.709192 
L 571.563589 605.105415 
L 573.554988 625.199749 
L 575.546387 651.992195 
L 579.529184 678.784641 
L 581.520583 698.878975 
L 583.511982 712.275198 
L 587.49478 725.671421 
L 589.486178 725.671421 
L 593.468976 739.067644 
L 601.434571 739.067644 
L 603.42597 732.369532 
L 609.400167 732.369532 
L 611.391566 739.067644 
L 613.382964 739.067644 
L 615.374363 745.765755 
L 617.365762 745.765755 
L 619.357161 752.463866 
L 631.305554 752.463866 
L 639.271149 725.671421 
L 647.236745 672.086529 
L 655.20234 591.709192 
L 657.193739 585.01108 
L 661.176537 558.218635 
L 663.167935 551.520523 
L 665.159334 551.520523 
L 667.150733 558.218635 
L 669.142132 551.520523 
L 671.133531 551.520523 
L 673.12493 564.916746 
L 675.116328 564.916746 
L 677.107727 558.218635 
L 677.107727 558.218635 
" style="fill:none;stroke:#2ca02c;stroke-linecap:square;stroke-width:1.5;"/>
   </g>
   <g id="line2d_16">
    <path clip-path="url(#p8579115b64)" d="M 85.662273 551.520523 
L 99.602065 551.520523 
L 101.593463 544.822412 
L 103.584862 544.822412 
L 105.576261 538.1243 
L 107.56766 518.029966 
L 109.559059 457.746963 
L 111.550458 390.765849 
L 113.541856 337.180957 
L 115.533255 303.6904 
L 117.524654 290.294177 
L 119.516053 256.80362 
L 121.507452 236.709286 
L 127.481648 216.614951 
L 129.473047 216.614951 
L 131.464446 223.313063 
L 133.455845 236.709286 
L 137.438642 250.105509 
L 139.430041 263.501731 
L 141.42144 283.596066 
L 145.404238 310.388511 
L 147.395637 337.180957 
L 149.387036 377.369626 
L 151.378434 390.765849 
L 153.369833 370.671514 
L 155.361232 370.671514 
L 157.352631 384.067737 
L 159.34403 390.765849 
L 161.335429 390.765849 
L 163.326827 410.860183 
L 167.309625 477.841297 
L 169.301024 497.935632 
L 171.292423 524.728078 
L 173.283822 531.426189 
L 175.27522 531.426189 
L 177.266619 538.1243 
L 181.249417 538.1243 
L 183.240816 544.822412 
L 193.19781 544.822412 
L 195.189209 551.520523 
L 217.094596 551.520523 
L 219.085995 544.822412 
L 225.060191 544.822412 
L 227.05159 538.1243 
L 231.034388 538.1243 
L 235.017185 524.728078 
L 238.999983 497.935632 
L 244.97418 477.841297 
L 246.965579 444.35074 
L 248.956977 370.671514 
L 250.948376 323.784734 
L 252.939775 283.596066 
L 254.931174 263.501731 
L 256.922573 250.105509 
L 258.913972 243.407397 
L 260.90537 250.105509 
L 266.879567 250.105509 
L 268.870966 256.80362 
L 274.845162 317.086623 
L 278.82796 384.067737 
L 282.810758 424.256406 
L 288.784954 464.445075 
L 290.776353 471.143186 
L 294.759151 471.143186 
L 298.741948 484.539409 
L 300.733347 484.539409 
L 302.724746 497.935632 
L 304.716145 497.935632 
L 314.673139 531.426189 
L 320.647335 531.426189 
L 322.638734 538.1243 
L 324.630133 538.1243 
L 326.621532 544.822412 
L 332.595728 544.822412 
L 334.587127 551.520523 
L 370.432306 551.520523 
L 372.423705 544.822412 
L 374.415104 544.822412 
L 376.406503 538.1243 
L 378.397902 538.1243 
L 382.380699 524.728078 
L 384.372098 497.935632 
L 386.363497 464.445075 
L 388.354896 424.256406 
L 390.346295 390.765849 
L 392.337694 363.973403 
L 394.329092 343.879069 
L 396.320491 337.180957 
L 398.31189 337.180957 
L 402.294688 323.784734 
L 406.277485 337.180957 
L 410.260283 337.180957 
L 414.243081 363.973403 
L 418.225878 404.162072 
L 420.217277 417.558295 
L 422.208676 444.35074 
L 424.200075 464.445075 
L 428.182873 477.841297 
L 432.16567 504.633743 
L 440.131266 531.426189 
L 444.114063 531.426189 
L 446.105462 538.1243 
L 448.096861 538.1243 
L 450.08826 531.426189 
L 458.053855 531.426189 
L 460.045254 538.1243 
L 464.028052 538.1243 
L 466.019451 544.822412 
L 473.985046 544.822412 
L 475.976445 551.520523 
L 497.881832 551.520523 
L 499.873231 544.822412 
L 501.86463 544.822412 
L 505.847427 531.426189 
L 507.838826 511.331855 
L 509.830225 477.841297 
L 513.813023 437.652629 
L 515.804421 404.162072 
L 517.79582 330.482846 
L 521.778618 263.501731 
L 523.770017 236.709286 
L 527.752815 223.313063 
L 529.744213 223.313063 
L 531.735612 230.011174 
L 535.71841 256.80362 
L 537.709809 276.897954 
L 539.701208 283.596066 
L 541.692606 303.6904 
L 543.684005 317.086623 
L 545.675404 323.784734 
L 549.658202 310.388511 
L 551.649601 310.388511 
L 553.640999 317.086623 
L 555.632398 337.180957 
L 559.615196 404.162072 
L 561.606595 451.048852 
L 563.597994 484.539409 
L 565.589392 511.331855 
L 567.580791 524.728078 
L 569.57219 524.728078 
L 571.563589 531.426189 
L 573.554988 531.426189 
L 575.546387 538.1243 
L 577.537785 538.1243 
L 579.529184 544.822412 
L 581.520583 544.822412 
L 583.511982 551.520523 
L 641.262548 551.520523 
L 643.253947 544.822412 
L 647.236745 544.822412 
L 651.219542 531.426189 
L 653.210941 531.426189 
L 655.20234 524.728078 
L 657.193739 524.728078 
L 659.185138 518.029966 
L 661.176537 505.973366 
L 663.167935 497.935632 
L 665.159334 497.935632 
L 667.150733 511.331855 
L 669.142132 504.633743 
L 671.133531 504.633743 
L 675.116328 518.029966 
L 677.107727 511.331855 
L 677.107727 511.331855 
" style="fill:none;stroke:#d62728;stroke-linecap:square;stroke-width:1.5;"/>
   </g>
   <g id="patch_3">
    <path d="M 56.09 822.04 
L 56.09 103.68 
" style="fill:none;stroke:#000000;stroke-linecap:square;stroke-linejoin:miter;stroke-width:0.8;"/>
   </g>
   <g id="patch_4">
    <path d="M 706.68 822.04 
L 706.68 103.68 
" style="fill:none;stroke:#000000;stroke-linecap:square;stroke-linejoin:miter;stroke-width:0.8;"/>
   </g>
   <g id="patch_5">
    <path d="M 56.09 822.04 
L 706.68 822.04 
" style="fill:none;stroke:#000000;stroke-linecap:square;stroke-linejoin:miter;stroke-width:0.8;"/>
   </g>
   <g id="patch_6">
    <path d="M 56.09 103.68 
L 706.68 103.68 
" style="fill:none;stroke:#000000;stroke-linecap:square;stroke-linejoin:miter;stroke-width:0.8;"/>
   </g>
   <g id="text_13">
    <!-- Plot of Train Data vs MCMC Uncertainty  -->
    <defs>
     <path d="M 19.671875 64.796875 
L 19.671875 37.40625 
L 32.078125 37.40625 
Q 38.96875 37.40625 42.71875 40.96875 
Q 46.484375 44.53125 46.484375 51.125 
Q 46.484375 57.671875 42.71875 61.234375 
Q 38.96875 64.796875 32.078125 64.796875 
z
M 9.8125 72.90625 
L 32.078125 72.90625 
Q 44.34375 72.90625 50.609375 67.359375 
Q 56.890625 61.8125 56.890625 51.125 
Q 56.890625 40.328125 50.609375 34.8125 
Q 44.34375 29.296875 32.078125 29.296875 
L 19.671875 29.296875 
L 19.671875 0 
L 9.8125 0 
z
" id="DejaVuSans-50"/>
     <path d="M 9.421875 75.984375 
L 18.40625 75.984375 
L 18.40625 0 
L 9.421875 0 
z
" id="DejaVuSans-6c"/>
     <path d="M 30.609375 48.390625 
Q 23.390625 48.390625 19.1875 42.75 
Q 14.984375 37.109375 14.984375 27.296875 
Q 14.984375 17.484375 19.15625 11.84375 
Q 23.34375 6.203125 30.609375 6.203125 
Q 37.796875 6.203125 41.984375 11.859375 
Q 46.1875 17.53125 46.1875 27.296875 
Q 46.1875 37.015625 41.984375 42.703125 
Q 37.796875 48.390625 30.609375 48.390625 
z
M 30.609375 56 
Q 42.328125 56 49.015625 48.375 
Q 55.71875 40.765625 55.71875 27.296875 
Q 55.71875 13.875 49.015625 6.21875 
Q 42.328125 -1.421875 30.609375 -1.421875 
Q 18.84375 -1.421875 12.171875 6.21875 
Q 5.515625 13.875 5.515625 27.296875 
Q 5.515625 40.765625 12.171875 48.375 
Q 18.84375 56 30.609375 56 
z
" id="DejaVuSans-6f"/>
     <path d="M 18.3125 70.21875 
L 18.3125 54.6875 
L 36.8125 54.6875 
L 36.8125 47.703125 
L 18.3125 47.703125 
L 18.3125 18.015625 
Q 18.3125 11.328125 20.140625 9.421875 
Q 21.96875 7.515625 27.59375 7.515625 
L 36.8125 7.515625 
L 36.8125 0 
L 27.59375 0 
Q 17.1875 0 13.234375 3.875 
Q 9.28125 7.765625 9.28125 18.015625 
L 9.28125 47.703125 
L 2.6875 47.703125 
L 2.6875 54.6875 
L 9.28125 54.6875 
L 9.28125 70.21875 
z
" id="DejaVuSans-74"/>
     <path id="DejaVuSans-20"/>
     <path d="M 37.109375 75.984375 
L 37.109375 68.5 
L 28.515625 68.5 
Q 23.6875 68.5 21.796875 66.546875 
Q 19.921875 64.59375 19.921875 59.515625 
L 19.921875 54.6875 
L 34.71875 54.6875 
L 34.71875 47.703125 
L 19.921875 47.703125 
L 19.921875 0 
L 10.890625 0 
L 10.890625 47.703125 
L 2.296875 47.703125 
L 2.296875 54.6875 
L 10.890625 54.6875 
L 10.890625 58.5 
Q 10.890625 67.625 15.140625 71.796875 
Q 19.390625 75.984375 28.609375 75.984375 
z
" id="DejaVuSans-66"/>
     <path d="M -0.296875 72.90625 
L 61.375 72.90625 
L 61.375 64.59375 
L 35.5 64.59375 
L 35.5 0 
L 25.59375 0 
L 25.59375 64.59375 
L -0.296875 64.59375 
z
" id="DejaVuSans-54"/>
     <path d="M 41.109375 46.296875 
Q 39.59375 47.171875 37.8125 47.578125 
Q 36.03125 48 33.890625 48 
Q 26.265625 48 22.1875 43.046875 
Q 18.109375 38.09375 18.109375 28.8125 
L 18.109375 0 
L 9.078125 0 
L 9.078125 54.6875 
L 18.109375 54.6875 
L 18.109375 46.1875 
Q 20.953125 51.171875 25.484375 53.578125 
Q 30.03125 56 36.53125 56 
Q 37.453125 56 38.578125 55.875 
Q 39.703125 55.765625 41.0625 55.515625 
z
" id="DejaVuSans-72"/>
     <path d="M 34.28125 27.484375 
Q 23.390625 27.484375 19.1875 25 
Q 14.984375 22.515625 14.984375 16.5 
Q 14.984375 11.71875 18.140625 8.90625 
Q 21.296875 6.109375 26.703125 6.109375 
Q 34.1875 6.109375 38.703125 11.40625 
Q 43.21875 16.703125 43.21875 25.484375 
L 43.21875 27.484375 
z
M 52.203125 31.203125 
L 52.203125 0 
L 43.21875 0 
L 43.21875 8.296875 
Q 40.140625 3.328125 35.546875 0.953125 
Q 30.953125 -1.421875 24.3125 -1.421875 
Q 15.921875 -1.421875 10.953125 3.296875 
Q 6 8.015625 6 15.921875 
Q 6 25.140625 12.171875 29.828125 
Q 18.359375 34.515625 30.609375 34.515625 
L 43.21875 34.515625 
L 43.21875 35.40625 
Q 43.21875 41.609375 39.140625 45 
Q 35.0625 48.390625 27.6875 48.390625 
Q 23 48.390625 18.546875 47.265625 
Q 14.109375 46.140625 10.015625 43.890625 
L 10.015625 52.203125 
Q 14.9375 54.109375 19.578125 55.046875 
Q 24.21875 56 28.609375 56 
Q 40.484375 56 46.34375 49.84375 
Q 52.203125 43.703125 52.203125 31.203125 
z
" id="DejaVuSans-61"/>
     <path d="M 9.421875 54.6875 
L 18.40625 54.6875 
L 18.40625 0 
L 9.421875 0 
z
M 9.421875 75.984375 
L 18.40625 75.984375 
L 18.40625 64.59375 
L 9.421875 64.59375 
z
" id="DejaVuSans-69"/>
     <path d="M 54.890625 33.015625 
L 54.890625 0 
L 45.90625 0 
L 45.90625 32.71875 
Q 45.90625 40.484375 42.875 44.328125 
Q 39.84375 48.1875 33.796875 48.1875 
Q 26.515625 48.1875 22.3125 43.546875 
Q 18.109375 38.921875 18.109375 30.90625 
L 18.109375 0 
L 9.078125 0 
L 9.078125 54.6875 
L 18.109375 54.6875 
L 18.109375 46.1875 
Q 21.34375 51.125 25.703125 53.5625 
Q 30.078125 56 35.796875 56 
Q 45.21875 56 50.046875 50.171875 
Q 54.890625 44.34375 54.890625 33.015625 
z
" id="DejaVuSans-6e"/>
     <path d="M 19.671875 64.796875 
L 19.671875 8.109375 
L 31.59375 8.109375 
Q 46.6875 8.109375 53.6875 14.9375 
Q 60.6875 21.78125 60.6875 36.53125 
Q 60.6875 51.171875 53.6875 57.984375 
Q 46.6875 64.796875 31.59375 64.796875 
z
M 9.8125 72.90625 
L 30.078125 72.90625 
Q 51.265625 72.90625 61.171875 64.09375 
Q 71.09375 55.28125 71.09375 36.53125 
Q 71.09375 17.671875 61.125 8.828125 
Q 51.171875 0 30.078125 0 
L 9.8125 0 
z
" id="DejaVuSans-44"/>
     <path d="M 2.984375 54.6875 
L 12.5 54.6875 
L 29.59375 8.796875 
L 46.6875 54.6875 
L 56.203125 54.6875 
L 35.6875 0 
L 23.484375 0 
z
" id="DejaVuSans-76"/>
     <path d="M 44.28125 53.078125 
L 44.28125 44.578125 
Q 40.484375 46.53125 36.375 47.5 
Q 32.28125 48.484375 27.875 48.484375 
Q 21.1875 48.484375 17.84375 46.4375 
Q 14.5 44.390625 14.5 40.28125 
Q 14.5 37.15625 16.890625 35.375 
Q 19.28125 33.59375 26.515625 31.984375 
L 29.59375 31.296875 
Q 39.15625 29.25 43.1875 25.515625 
Q 47.21875 21.78125 47.21875 15.09375 
Q 47.21875 7.46875 41.1875 3.015625 
Q 35.15625 -1.421875 24.609375 -1.421875 
Q 20.21875 -1.421875 15.453125 -0.5625 
Q 10.6875 0.296875 5.421875 2 
L 5.421875 11.28125 
Q 10.40625 8.6875 15.234375 7.390625 
Q 20.0625 6.109375 24.8125 6.109375 
Q 31.15625 6.109375 34.5625 8.28125 
Q 37.984375 10.453125 37.984375 14.40625 
Q 37.984375 18.0625 35.515625 20.015625 
Q 33.0625 21.96875 24.703125 23.78125 
L 21.578125 24.515625 
Q 13.234375 26.265625 9.515625 29.90625 
Q 5.8125 33.546875 5.8125 39.890625 
Q 5.8125 47.609375 11.28125 51.796875 
Q 16.75 56 26.8125 56 
Q 31.78125 56 36.171875 55.265625 
Q 40.578125 54.546875 44.28125 53.078125 
z
" id="DejaVuSans-73"/>
     <path d="M 9.8125 72.90625 
L 24.515625 72.90625 
L 43.109375 23.296875 
L 61.8125 72.90625 
L 76.515625 72.90625 
L 76.515625 0 
L 66.890625 0 
L 66.890625 64.015625 
L 48.09375 14.015625 
L 38.1875 14.015625 
L 19.390625 64.015625 
L 19.390625 0 
L 9.8125 0 
z
" id="DejaVuSans-4d"/>
     <path d="M 64.40625 67.28125 
L 64.40625 56.890625 
Q 59.421875 61.53125 53.78125 63.8125 
Q 48.140625 66.109375 41.796875 66.109375 
Q 29.296875 66.109375 22.65625 58.46875 
Q 16.015625 50.828125 16.015625 36.375 
Q 16.015625 21.96875 22.65625 14.328125 
Q 29.296875 6.6875 41.796875 6.6875 
Q 48.140625 6.6875 53.78125 8.984375 
Q 59.421875 11.28125 64.40625 15.921875 
L 64.40625 5.609375 
Q 59.234375 2.09375 53.4375 0.328125 
Q 47.65625 -1.421875 41.21875 -1.421875 
Q 24.65625 -1.421875 15.125 8.703125 
Q 5.609375 18.84375 5.609375 36.375 
Q 5.609375 53.953125 15.125 64.078125 
Q 24.65625 74.21875 41.21875 74.21875 
Q 47.75 74.21875 53.53125 72.484375 
Q 59.328125 70.75 64.40625 67.28125 
z
" id="DejaVuSans-43"/>
     <path d="M 8.6875 72.90625 
L 18.609375 72.90625 
L 18.609375 28.609375 
Q 18.609375 16.890625 22.84375 11.734375 
Q 27.09375 6.59375 36.625 6.59375 
Q 46.09375 6.59375 50.34375 11.734375 
Q 54.59375 16.890625 54.59375 28.609375 
L 54.59375 72.90625 
L 64.5 72.90625 
L 64.5 27.390625 
Q 64.5 13.140625 57.4375 5.859375 
Q 50.390625 -1.421875 36.625 -1.421875 
Q 22.796875 -1.421875 15.734375 5.859375 
Q 8.6875 13.140625 8.6875 27.390625 
z
" id="DejaVuSans-55"/>
     <path d="M 48.78125 52.59375 
L 48.78125 44.1875 
Q 44.96875 46.296875 41.140625 47.34375 
Q 37.3125 48.390625 33.40625 48.390625 
Q 24.65625 48.390625 19.8125 42.84375 
Q 14.984375 37.3125 14.984375 27.296875 
Q 14.984375 17.28125 19.8125 11.734375 
Q 24.65625 6.203125 33.40625 6.203125 
Q 37.3125 6.203125 41.140625 7.25 
Q 44.96875 8.296875 48.78125 10.40625 
L 48.78125 2.09375 
Q 45.015625 0.34375 40.984375 -0.53125 
Q 36.96875 -1.421875 32.421875 -1.421875 
Q 20.0625 -1.421875 12.78125 6.34375 
Q 5.515625 14.109375 5.515625 27.296875 
Q 5.515625 40.671875 12.859375 48.328125 
Q 20.21875 56 33.015625 56 
Q 37.15625 56 41.109375 55.140625 
Q 45.0625 54.296875 48.78125 52.59375 
z
" id="DejaVuSans-63"/>
     <path d="M 56.203125 29.59375 
L 56.203125 25.203125 
L 14.890625 25.203125 
Q 15.484375 15.921875 20.484375 11.0625 
Q 25.484375 6.203125 34.421875 6.203125 
Q 39.59375 6.203125 44.453125 7.46875 
Q 49.3125 8.734375 54.109375 11.28125 
L 54.109375 2.78125 
Q 49.265625 0.734375 44.1875 -0.34375 
Q 39.109375 -1.421875 33.890625 -1.421875 
Q 20.796875 -1.421875 13.15625 6.1875 
Q 5.515625 13.8125 5.515625 26.8125 
Q 5.515625 40.234375 12.765625 48.109375 
Q 20.015625 56 32.328125 56 
Q 43.359375 56 49.78125 48.890625 
Q 56.203125 41.796875 56.203125 29.59375 
z
M 47.21875 32.234375 
Q 47.125 39.59375 43.09375 43.984375 
Q 39.0625 48.390625 32.421875 48.390625 
Q 24.90625 48.390625 20.390625 44.140625 
Q 15.875 39.890625 15.1875 32.171875 
z
" id="DejaVuSans-65"/>
     <path d="M 32.171875 -5.078125 
Q 28.375 -14.84375 24.75 -17.8125 
Q 21.140625 -20.796875 15.09375 -20.796875 
L 7.90625 -20.796875 
L 7.90625 -13.28125 
L 13.1875 -13.28125 
Q 16.890625 -13.28125 18.9375 -11.515625 
Q 21 -9.765625 23.484375 -3.21875 
L 25.09375 0.875 
L 2.984375 54.6875 
L 12.5 54.6875 
L 29.59375 11.921875 
L 46.6875 54.6875 
L 56.203125 54.6875 
z
" id="DejaVuSans-79"/>
    </defs>
    <g transform="translate(260.891875 97.68)scale(0.12 -0.12)">
     <use xlink:href="#DejaVuSans-50"/>
     <use x="60.302734" xlink:href="#DejaVuSans-6c"/>
     <use x="88.085938" xlink:href="#DejaVuSans-6f"/>
     <use x="149.267578" xlink:href="#DejaVuSans-74"/>
     <use x="188.476562" xlink:href="#DejaVuSans-20"/>
     <use x="220.263672" xlink:href="#DejaVuSans-6f"/>
     <use x="281.445312" xlink:href="#DejaVuSans-66"/>
     <use x="316.650391" xlink:href="#DejaVuSans-20"/>
     <use x="348.4375" xlink:href="#DejaVuSans-54"/>
     <use x="409.302734" xlink:href="#DejaVuSans-72"/>
     <use x="450.416016" xlink:href="#DejaVuSans-61"/>
     <use x="511.695312" xlink:href="#DejaVuSans-69"/>
     <use x="539.478516" xlink:href="#DejaVuSans-6e"/>
     <use x="602.857422" xlink:href="#DejaVuSans-20"/>
     <use x="634.644531" xlink:href="#DejaVuSans-44"/>
     <use x="711.646484" xlink:href="#DejaVuSans-61"/>
     <use x="772.925781" xlink:href="#DejaVuSans-74"/>
     <use x="812.134766" xlink:href="#DejaVuSans-61"/>
     <use x="873.414062" xlink:href="#DejaVuSans-20"/>
     <use x="905.201172" xlink:href="#DejaVuSans-76"/>
     <use x="964.380859" xlink:href="#DejaVuSans-73"/>
     <use x="1016.480469" xlink:href="#DejaVuSans-20"/>
     <use x="1048.267578" xlink:href="#DejaVuSans-4d"/>
     <use x="1134.546875" xlink:href="#DejaVuSans-43"/>
     <use x="1204.371094" xlink:href="#DejaVuSans-4d"/>
     <use x="1290.650391" xlink:href="#DejaVuSans-43"/>
     <use x="1360.474609" xlink:href="#DejaVuSans-20"/>
     <use x="1392.261719" xlink:href="#DejaVuSans-55"/>
     <use x="1465.455078" xlink:href="#DejaVuSans-6e"/>
     <use x="1528.833984" xlink:href="#DejaVuSans-63"/>
     <use x="1583.814453" xlink:href="#DejaVuSans-65"/>
     <use x="1645.337891" xlink:href="#DejaVuSans-72"/>
     <use x="1686.451172" xlink:href="#DejaVuSans-74"/>
     <use x="1725.660156" xlink:href="#DejaVuSans-61"/>
     <use x="1786.939453" xlink:href="#DejaVuSans-69"/>
     <use x="1814.722656" xlink:href="#DejaVuSans-6e"/>
     <use x="1878.101562" xlink:href="#DejaVuSans-74"/>
     <use x="1917.310547" xlink:href="#DejaVuSans-79"/>
     <use x="1976.490234" xlink:href="#DejaVuSans-20"/>
    </g>
   </g>
   <g id="legend_1">
    <g id="patch_7">
     <path d="M 569.803438 170.3925 
L 699.68 170.3925 
Q 701.68 170.3925 701.68 168.3925 
L 701.68 110.68 
Q 701.68 108.68 699.68 108.68 
L 569.803438 108.68 
Q 567.803438 108.68 567.803438 110.68 
L 567.803438 168.3925 
Q 567.803438 170.3925 569.803438 170.3925 
z
" style="fill:#ffffff;opacity:0.8;stroke:#cccccc;stroke-linejoin:miter;"/>
    </g>
    <g id="line2d_17">
     <path d="M 571.803438 116.778437 
L 591.803438 116.778437 
" style="fill:none;stroke:#1f77b4;stroke-linecap:square;stroke-width:1.5;"/>
    </g>
    <g id="line2d_18"/>
    <g id="text_14">
     <!-- actual -->
     <defs>
      <path d="M 8.5 21.578125 
L 8.5 54.6875 
L 17.484375 54.6875 
L 17.484375 21.921875 
Q 17.484375 14.15625 20.5 10.265625 
Q 23.53125 6.390625 29.59375 6.390625 
Q 36.859375 6.390625 41.078125 11.03125 
Q 45.3125 15.671875 45.3125 23.6875 
L 45.3125 54.6875 
L 54.296875 54.6875 
L 54.296875 0 
L 45.3125 0 
L 45.3125 8.40625 
Q 42.046875 3.421875 37.71875 1 
Q 33.40625 -1.421875 27.6875 -1.421875 
Q 18.265625 -1.421875 13.375 4.4375 
Q 8.5 10.296875 8.5 21.578125 
z
M 31.109375 56 
z
" id="DejaVuSans-75"/>
     </defs>
     <g transform="translate(599.803438 120.278437)scale(0.1 -0.1)">
      <use xlink:href="#DejaVuSans-61"/>
      <use x="61.279297" xlink:href="#DejaVuSans-63"/>
      <use x="116.259766" xlink:href="#DejaVuSans-74"/>
      <use x="155.46875" xlink:href="#DejaVuSans-75"/>
      <use x="218.847656" xlink:href="#DejaVuSans-61"/>
      <use x="280.126953" xlink:href="#DejaVuSans-6c"/>
     </g>
    </g>
    <g id="line2d_19">
     <path d="M 571.803438 131.456562 
L 591.803438 131.456562 
" style="fill:none;stroke:#ff7f0e;stroke-linecap:square;stroke-width:1.5;"/>
    </g>
    <g id="line2d_20"/>
    <g id="text_15">
     <!-- pred. (mean) -->
     <defs>
      <path d="M 18.109375 8.203125 
L 18.109375 -20.796875 
L 9.078125 -20.796875 
L 9.078125 54.6875 
L 18.109375 54.6875 
L 18.109375 46.390625 
Q 20.953125 51.265625 25.265625 53.625 
Q 29.59375 56 35.59375 56 
Q 45.5625 56 51.78125 48.09375 
Q 58.015625 40.1875 58.015625 27.296875 
Q 58.015625 14.40625 51.78125 6.484375 
Q 45.5625 -1.421875 35.59375 -1.421875 
Q 29.59375 -1.421875 25.265625 0.953125 
Q 20.953125 3.328125 18.109375 8.203125 
z
M 48.6875 27.296875 
Q 48.6875 37.203125 44.609375 42.84375 
Q 40.53125 48.484375 33.40625 48.484375 
Q 26.265625 48.484375 22.1875 42.84375 
Q 18.109375 37.203125 18.109375 27.296875 
Q 18.109375 17.390625 22.1875 11.75 
Q 26.265625 6.109375 33.40625 6.109375 
Q 40.53125 6.109375 44.609375 11.75 
Q 48.6875 17.390625 48.6875 27.296875 
z
" id="DejaVuSans-70"/>
      <path d="M 45.40625 46.390625 
L 45.40625 75.984375 
L 54.390625 75.984375 
L 54.390625 0 
L 45.40625 0 
L 45.40625 8.203125 
Q 42.578125 3.328125 38.25 0.953125 
Q 33.9375 -1.421875 27.875 -1.421875 
Q 17.96875 -1.421875 11.734375 6.484375 
Q 5.515625 14.40625 5.515625 27.296875 
Q 5.515625 40.1875 11.734375 48.09375 
Q 17.96875 56 27.875 56 
Q 33.9375 56 38.25 53.625 
Q 42.578125 51.265625 45.40625 46.390625 
z
M 14.796875 27.296875 
Q 14.796875 17.390625 18.875 11.75 
Q 22.953125 6.109375 30.078125 6.109375 
Q 37.203125 6.109375 41.296875 11.75 
Q 45.40625 17.390625 45.40625 27.296875 
Q 45.40625 37.203125 41.296875 42.84375 
Q 37.203125 48.484375 30.078125 48.484375 
Q 22.953125 48.484375 18.875 42.84375 
Q 14.796875 37.203125 14.796875 27.296875 
z
" id="DejaVuSans-64"/>
      <path d="M 31 75.875 
Q 24.46875 64.65625 21.28125 53.65625 
Q 18.109375 42.671875 18.109375 31.390625 
Q 18.109375 20.125 21.3125 9.0625 
Q 24.515625 -2 31 -13.1875 
L 23.1875 -13.1875 
Q 15.875 -1.703125 12.234375 9.375 
Q 8.59375 20.453125 8.59375 31.390625 
Q 8.59375 42.28125 12.203125 53.3125 
Q 15.828125 64.359375 23.1875 75.875 
z
" id="DejaVuSans-28"/>
      <path d="M 52 44.1875 
Q 55.375 50.25 60.0625 53.125 
Q 64.75 56 71.09375 56 
Q 79.640625 56 84.28125 50.015625 
Q 88.921875 44.046875 88.921875 33.015625 
L 88.921875 0 
L 79.890625 0 
L 79.890625 32.71875 
Q 79.890625 40.578125 77.09375 44.375 
Q 74.3125 48.1875 68.609375 48.1875 
Q 61.625 48.1875 57.5625 43.546875 
Q 53.515625 38.921875 53.515625 30.90625 
L 53.515625 0 
L 44.484375 0 
L 44.484375 32.71875 
Q 44.484375 40.625 41.703125 44.40625 
Q 38.921875 48.1875 33.109375 48.1875 
Q 26.21875 48.1875 22.15625 43.53125 
Q 18.109375 38.875 18.109375 30.90625 
L 18.109375 0 
L 9.078125 0 
L 9.078125 54.6875 
L 18.109375 54.6875 
L 18.109375 46.1875 
Q 21.1875 51.21875 25.484375 53.609375 
Q 29.78125 56 35.6875 56 
Q 41.65625 56 45.828125 52.96875 
Q 50 49.953125 52 44.1875 
z
" id="DejaVuSans-6d"/>
      <path d="M 8.015625 75.875 
L 15.828125 75.875 
Q 23.140625 64.359375 26.78125 53.3125 
Q 30.421875 42.28125 30.421875 31.390625 
Q 30.421875 20.453125 26.78125 9.375 
Q 23.140625 -1.703125 15.828125 -13.1875 
L 8.015625 -13.1875 
Q 14.5 -2 17.703125 9.0625 
Q 20.90625 20.125 20.90625 31.390625 
Q 20.90625 42.671875 17.703125 53.65625 
Q 14.5 64.65625 8.015625 75.875 
z
" id="DejaVuSans-29"/>
     </defs>
     <g transform="translate(599.803438 134.956562)scale(0.1 -0.1)">
      <use xlink:href="#DejaVuSans-70"/>
      <use x="63.476562" xlink:href="#DejaVuSans-72"/>
      <use x="104.558594" xlink:href="#DejaVuSans-65"/>
      <use x="166.082031" xlink:href="#DejaVuSans-64"/>
      <use x="229.558594" xlink:href="#DejaVuSans-2e"/>
      <use x="261.345703" xlink:href="#DejaVuSans-20"/>
      <use x="293.132812" xlink:href="#DejaVuSans-28"/>
      <use x="332.146484" xlink:href="#DejaVuSans-6d"/>
      <use x="429.558594" xlink:href="#DejaVuSans-65"/>
      <use x="491.082031" xlink:href="#DejaVuSans-61"/>
      <use x="552.361328" xlink:href="#DejaVuSans-6e"/>
      <use x="615.740234" xlink:href="#DejaVuSans-29"/>
     </g>
    </g>
    <g id="line2d_21">
     <path d="M 571.803438 146.134687 
L 591.803438 146.134687 
" style="fill:none;stroke:#2ca02c;stroke-linecap:square;stroke-width:1.5;"/>
    </g>
    <g id="line2d_22"/>
    <g id="text_16">
     <!-- pred.(5th percen.) -->
     <defs>
      <path d="M 10.796875 72.90625 
L 49.515625 72.90625 
L 49.515625 64.59375 
L 19.828125 64.59375 
L 19.828125 46.734375 
Q 21.96875 47.46875 24.109375 47.828125 
Q 26.265625 48.1875 28.421875 48.1875 
Q 40.625 48.1875 47.75 41.5 
Q 54.890625 34.8125 54.890625 23.390625 
Q 54.890625 11.625 47.5625 5.09375 
Q 40.234375 -1.421875 26.90625 -1.421875 
Q 22.3125 -1.421875 17.546875 -0.640625 
Q 12.796875 0.140625 7.71875 1.703125 
L 7.71875 11.625 
Q 12.109375 9.234375 16.796875 8.0625 
Q 21.484375 6.890625 26.703125 6.890625 
Q 35.15625 6.890625 40.078125 11.328125 
Q 45.015625 15.765625 45.015625 23.390625 
Q 45.015625 31 40.078125 35.4375 
Q 35.15625 39.890625 26.703125 39.890625 
Q 22.75 39.890625 18.8125 39.015625 
Q 14.890625 38.140625 10.796875 36.28125 
z
" id="DejaVuSans-35"/>
      <path d="M 54.890625 33.015625 
L 54.890625 0 
L 45.90625 0 
L 45.90625 32.71875 
Q 45.90625 40.484375 42.875 44.328125 
Q 39.84375 48.1875 33.796875 48.1875 
Q 26.515625 48.1875 22.3125 43.546875 
Q 18.109375 38.921875 18.109375 30.90625 
L 18.109375 0 
L 9.078125 0 
L 9.078125 75.984375 
L 18.109375 75.984375 
L 18.109375 46.1875 
Q 21.34375 51.125 25.703125 53.5625 
Q 30.078125 56 35.796875 56 
Q 45.21875 56 50.046875 50.171875 
Q 54.890625 44.34375 54.890625 33.015625 
z
" id="DejaVuSans-68"/>
     </defs>
     <g transform="translate(599.803438 149.634687)scale(0.1 -0.1)">
      <use xlink:href="#DejaVuSans-70"/>
      <use x="63.476562" xlink:href="#DejaVuSans-72"/>
      <use x="104.558594" xlink:href="#DejaVuSans-65"/>
      <use x="166.082031" xlink:href="#DejaVuSans-64"/>
      <use x="229.558594" xlink:href="#DejaVuSans-2e"/>
      <use x="261.345703" xlink:href="#DejaVuSans-28"/>
      <use x="300.359375" xlink:href="#DejaVuSans-35"/>
      <use x="363.982422" xlink:href="#DejaVuSans-74"/>
      <use x="403.191406" xlink:href="#DejaVuSans-68"/>
      <use x="466.570312" xlink:href="#DejaVuSans-20"/>
      <use x="498.357422" xlink:href="#DejaVuSans-70"/>
      <use x="561.833984" xlink:href="#DejaVuSans-65"/>
      <use x="623.357422" xlink:href="#DejaVuSans-72"/>
      <use x="664.439453" xlink:href="#DejaVuSans-63"/>
      <use x="719.419922" xlink:href="#DejaVuSans-65"/>
      <use x="780.943359" xlink:href="#DejaVuSans-6e"/>
      <use x="844.322266" xlink:href="#DejaVuSans-2e"/>
      <use x="876.109375" xlink:href="#DejaVuSans-29"/>
     </g>
    </g>
    <g id="line2d_23">
     <path d="M 571.803438 160.812812 
L 591.803438 160.812812 
" style="fill:none;stroke:#d62728;stroke-linecap:square;stroke-width:1.5;"/>
    </g>
    <g id="line2d_24"/>
    <g id="text_17">
     <!-- pred.(95th percen.) -->
     <defs>
      <path d="M 10.984375 1.515625 
L 10.984375 10.5 
Q 14.703125 8.734375 18.5 7.8125 
Q 22.3125 6.890625 25.984375 6.890625 
Q 35.75 6.890625 40.890625 13.453125 
Q 46.046875 20.015625 46.78125 33.40625 
Q 43.953125 29.203125 39.59375 26.953125 
Q 35.25 24.703125 29.984375 24.703125 
Q 19.046875 24.703125 12.671875 31.3125 
Q 6.296875 37.9375 6.296875 49.421875 
Q 6.296875 60.640625 12.9375 67.421875 
Q 19.578125 74.21875 30.609375 74.21875 
Q 43.265625 74.21875 49.921875 64.515625 
Q 56.59375 54.828125 56.59375 36.375 
Q 56.59375 19.140625 48.40625 8.859375 
Q 40.234375 -1.421875 26.421875 -1.421875 
Q 22.703125 -1.421875 18.890625 -0.6875 
Q 15.09375 0.046875 10.984375 1.515625 
z
M 30.609375 32.421875 
Q 37.25 32.421875 41.125 36.953125 
Q 45.015625 41.5 45.015625 49.421875 
Q 45.015625 57.28125 41.125 61.84375 
Q 37.25 66.40625 30.609375 66.40625 
Q 23.96875 66.40625 20.09375 61.84375 
Q 16.21875 57.28125 16.21875 49.421875 
Q 16.21875 41.5 20.09375 36.953125 
Q 23.96875 32.421875 30.609375 32.421875 
z
" id="DejaVuSans-39"/>
     </defs>
     <g transform="translate(599.803438 164.312812)scale(0.1 -0.1)">
      <use xlink:href="#DejaVuSans-70"/>
      <use x="63.476562" xlink:href="#DejaVuSans-72"/>
      <use x="104.558594" xlink:href="#DejaVuSans-65"/>
      <use x="166.082031" xlink:href="#DejaVuSans-64"/>
      <use x="229.558594" xlink:href="#DejaVuSans-2e"/>
      <use x="261.345703" xlink:href="#DejaVuSans-28"/>
      <use x="300.359375" xlink:href="#DejaVuSans-39"/>
      <use x="363.982422" xlink:href="#DejaVuSans-35"/>
      <use x="427.605469" xlink:href="#DejaVuSans-74"/>
      <use x="466.814453" xlink:href="#DejaVuSans-68"/>
      <use x="530.193359" xlink:href="#DejaVuSans-20"/>
      <use x="561.980469" xlink:href="#DejaVuSans-70"/>
      <use x="625.457031" xlink:href="#DejaVuSans-65"/>
      <use x="686.980469" xlink:href="#DejaVuSans-72"/>
      <use x="728.0625" xlink:href="#DejaVuSans-63"/>
      <use x="783.042969" xlink:href="#DejaVuSans-65"/>
      <use x="844.566406" xlink:href="#DejaVuSans-6e"/>
      <use x="907.945312" xlink:href="#DejaVuSans-2e"/>
      <use x="939.732422" xlink:href="#DejaVuSans-29"/>
     </g>
    </g>
   </g>
  </g>
 </g>
 <defs>
  <clipPath id="p8579115b64">
   <rect height="718.36" width="650.59" x="56.09" y="103.68"/>
  </clipPath>
 </defs>
</svg>
