<?xml version="1.0" encoding="utf-8" standalone="no"?>
<!DOCTYPE svg PUBLIC "-//W3C//DTD SVG 1.1//EN"
  "http://www.w3.org/Graphics/SVG/1.1/DTD/svg11.dtd">
<!-- Created with matplotlib (http://matplotlib.org/) -->
<svg height="345.6pt" version="1.1" viewBox="0 0 460.8 345.6" width="460.8pt" xmlns="http://www.w3.org/2000/svg" xmlns:xlink="http://www.w3.org/1999/xlink">
 <defs>
  <style type="text/css">
*{stroke-linecap:butt;stroke-linejoin:round;}
  </style>
 </defs>
 <g id="figure_1">
  <g id="patch_1">
   <path d="M 0 345.6 
L 460.8 345.6 
L 460.8 0 
L 0 0 
z
" style="fill:#ffffff;"/>
  </g>
  <g id="axes_1">
   <g id="patch_2">
    <path d="M 57.6 307.584 
L 414.72 307.584 
L 414.72 41.472 
L 57.6 41.472 
z
" style="fill:#ffffff;"/>
   </g>
   <g id="PolyCollection_1">
    <path clip-path="url(#pfc7e9dcb4d)" d="M 73.832727 85.339136 
L 73.832727 190.674842 
L 75.48072 190.740134 
L 77.128713 191.375477 
L 78.776705 191.330656 
L 80.424698 191.375531 
L 82.07269 192.665295 
L 83.720683 194.330858 
L 85.368676 195.112435 
L 87.016668 193.592624 
L 88.664661 193.069945 
L 90.312653 194.652444 
L 91.960646 195.692731 
L 93.608639 199.160614 
L 95.256631 202.103786 
L 96.904624 213.366503 
L 98.552617 226.249702 
L 100.200609 235.245421 
L 101.848602 241.78044 
L 103.496594 247.280938 
L 105.144587 254.714599 
L 106.79258 259.167935 
L 108.440572 260.824223 
L 110.088565 261.626524 
L 111.736557 261.397031 
L 113.38455 260.96917 
L 115.032543 261.231536 
L 116.680535 262.666671 
L 118.328528 265.089379 
L 119.976521 266.470173 
L 121.624513 267.431392 
L 123.272506 268.260258 
L 124.920498 268.910749 
L 126.568491 269.019421 
L 128.216484 268.337176 
L 129.864476 267.780149 
L 131.512469 267.948382 
L 133.160461 268.460204 
L 134.808454 268.664014 
L 136.456447 269.023339 
L 138.104439 269.319822 
L 139.752432 268.810658 
L 141.400425 267.832101 
L 143.048417 266.09512 
L 144.69641 263.468244 
L 146.344402 258.894123 
L 147.992395 250.83663 
L 149.640388 241.138965 
L 151.28838 230.345349 
L 152.936373 217.471786 
L 154.584365 200.434819 
L 156.232358 192.343861 
L 157.880351 191.401752 
L 159.528343 190.905726 
L 161.176336 190.80586 
L 162.824329 190.990778 
L 164.472321 191.277722 
L 166.120314 191.602358 
L 167.768306 192.211372 
L 169.416299 193.077553 
L 171.064292 193.66793 
L 172.712284 194.278751 
L 174.360277 194.297189 
L 176.008269 194.472696 
L 177.656262 194.556873 
L 179.304255 193.53019 
L 180.952247 192.819857 
L 182.60024 191.862763 
L 184.248233 191.552668 
L 185.896225 191.784104 
L 187.544218 192.098523 
L 189.19221 191.983134 
L 190.840203 192.127307 
L 192.488196 192.725501 
L 194.136188 194.269179 
L 195.784181 196.531999 
L 197.432174 198.418353 
L 199.080166 202.34684 
L 200.728159 207.941555 
L 202.376151 212.901865 
L 204.024144 218.46364 
L 205.672137 225.150482 
L 207.320129 230.973972 
L 208.968122 235.405426 
L 210.616114 240.170546 
L 212.264107 242.494712 
L 213.9121 242.809548 
L 215.560092 242.848428 
L 217.208085 242.93334 
L 218.856078 242.556129 
L 220.50407 241.48038 
L 222.152063 244.21942 
L 223.800055 248.154874 
L 225.448048 250.312632 
L 227.096041 253.241274 
L 228.744033 257.678915 
L 230.392026 261.026919 
L 232.040018 262.621725 
L 233.688011 262.952617 
L 235.336004 263.331904 
L 236.983996 263.517322 
L 238.631989 263.849787 
L 240.279982 264.528255 
L 241.927974 265.898415 
L 243.575967 267.617624 
L 245.223959 268.931674 
L 246.871952 269.97989 
L 248.519945 270.932389 
L 250.167937 271.367377 
L 251.81593 271.322755 
L 253.463922 271.151975 
L 255.111915 271.330804 
L 256.759908 271.496419 
L 258.4079 270.713147 
L 260.055893 269.816828 
L 261.703886 268.722681 
L 263.351878 266.744809 
L 264.999871 264.116197 
L 266.647863 260.778892 
L 268.295856 256.503954 
L 269.943849 251.366154 
L 271.591841 243.750781 
L 273.239834 238.186846 
L 274.887826 231.699218 
L 276.535819 223.587093 
L 278.183812 215.855978 
L 279.831804 211.689776 
L 281.479797 205.756193 
L 283.12779 197.481808 
L 284.775782 195.853148 
L 286.423775 194.510247 
L 288.071767 192.194454 
L 289.71976 191.407823 
L 291.367753 193.027655 
L 293.015745 192.580887 
L 294.663738 191.784134 
L 296.311731 191.537757 
L 297.959723 193.914216 
L 299.607716 195.416101 
L 301.255708 191.643088 
L 302.903701 191.769511 
L 304.551694 193.619516 
L 306.199686 194.521122 
L 307.847679 191.861471 
L 309.495671 191.896686 
L 311.143664 195.888239 
L 312.791657 198.007464 
L 314.439649 196.68001 
L 316.087642 195.504499 
L 317.735635 196.084789 
L 319.383627 198.25031 
L 321.03162 196.327748 
L 322.679612 195.239403 
L 324.327605 197.360598 
L 325.975598 204.823199 
L 327.62359 211.185607 
L 329.271583 211.142783 
L 330.919575 213.866172 
L 332.567568 223.30214 
L 334.215561 229.907125 
L 335.863553 234.481425 
L 337.511546 240.211133 
L 339.159539 250.014172 
L 340.807531 256.584417 
L 342.455524 259.219828 
L 344.103516 260.950153 
L 345.751509 262.946817 
L 347.399502 266.168497 
L 349.047494 268.355095 
L 350.695487 269.375169 
L 352.343479 270.353232 
L 353.991472 271.013375 
L 355.639465 271.283174 
L 357.287457 271.186422 
L 358.93545 270.895629 
L 360.583443 270.769202 
L 362.231435 270.899843 
L 363.879428 271.395026 
L 365.52742 271.852078 
L 367.175413 272.207245 
L 368.823406 272.601393 
L 370.471398 272.675115 
L 372.119391 271.956144 
L 373.767383 270.797251 
L 375.415376 269.586718 
L 377.063369 268.279044 
L 378.711361 265.964633 
L 380.359354 262.137257 
L 382.007347 256.522072 
L 383.655339 248.552941 
L 385.303332 235.897686 
L 386.951324 216.971649 
L 388.599317 203.910331 
L 390.24731 197.722776 
L 391.895302 193.409181 
L 393.543295 192.257037 
L 395.191287 194.621618 
L 396.83928 194.79792 
L 398.487273 192.608167 
L 398.487273 99.857974 
L 398.487273 99.857974 
L 396.83928 101.691554 
L 395.191287 100.556351 
L 393.543295 98.923716 
L 391.895302 101.396714 
L 390.24731 103.821835 
L 388.599317 104.973737 
L 386.951324 105.130246 
L 385.303332 104.709104 
L 383.655339 101.928342 
L 382.007347 99.588622 
L 380.359354 97.148959 
L 378.711361 95.79648 
L 377.063369 94.937042 
L 375.415376 94.390103 
L 373.767383 93.821762 
L 372.119391 93.308085 
L 370.471398 93.173803 
L 368.823406 93.165477 
L 367.175413 93.34876 
L 365.52742 93.720187 
L 363.879428 93.787291 
L 362.231435 94.162974 
L 360.583443 94.131085 
L 358.93545 93.95335 
L 357.287457 93.939332 
L 355.639465 93.742262 
L 353.991472 93.939472 
L 352.343479 94.495501 
L 350.695487 94.83188 
L 349.047494 95.292327 
L 347.399502 96.407448 
L 345.751509 97.794824 
L 344.103516 98.446064 
L 342.455524 99.121613 
L 340.807531 100.783968 
L 339.159539 103.183961 
L 337.511546 104.891033 
L 335.863553 105.055738 
L 334.215561 105.699196 
L 332.567568 105.727691 
L 330.919575 105.811791 
L 329.271583 105.701184 
L 327.62359 105.747999 
L 325.975598 105.23156 
L 324.327605 103.944626 
L 322.679612 102.741495 
L 321.03162 103.384969 
L 319.383627 104.064478 
L 317.735635 103.472516 
L 316.087642 102.886784 
L 314.439649 103.9481 
L 312.791657 103.694654 
L 311.143664 100.748552 
L 309.495671 94.720261 
L 307.847679 96.649719 
L 306.199686 99.71462 
L 304.551694 97.4967 
L 302.903701 94.042055 
L 301.255708 96.876764 
L 299.607716 100.765228 
L 297.959723 97.131333 
L 296.311731 92.065033 
L 294.663738 94.177699 
L 293.015745 97.000059 
L 291.367753 96.257524 
L 289.71976 93.24347 
L 288.071767 98.894978 
L 286.423775 102.033698 
L 284.775782 103.063813 
L 283.12779 103.736747 
L 281.479797 105.130618 
L 279.831804 105.347345 
L 278.183812 105.324792 
L 276.535819 105.649663 
L 274.887826 105.030746 
L 273.239834 104.319829 
L 271.591841 103.531041 
L 269.943849 101.316937 
L 268.295856 99.485 
L 266.647863 97.98422 
L 264.999871 96.536644 
L 263.351878 95.448257 
L 261.703886 94.807401 
L 260.055893 94.538033 
L 258.4079 93.922442 
L 256.759908 93.652297 
L 255.111915 93.824054 
L 253.463922 94.06958 
L 251.81593 93.759956 
L 250.167937 93.773217 
L 248.519945 94.154031 
L 246.871952 94.599577 
L 245.223959 95.070049 
L 243.575967 95.769801 
L 241.927974 96.357679 
L 240.279982 96.994073 
L 238.631989 97.084393 
L 236.983996 97.246616 
L 235.336004 97.37946 
L 233.688011 97.339019 
L 232.040018 97.686642 
L 230.392026 98.718739 
L 228.744033 100.352496 
L 227.096041 101.838425 
L 225.448048 102.17903 
L 223.800055 103.080716 
L 222.152063 104.17129 
L 220.50407 104.219808 
L 218.856078 103.826887 
L 217.208085 103.891634 
L 215.560092 104.066973 
L 213.9121 103.845346 
L 212.264107 103.939088 
L 210.616114 104.560521 
L 208.968122 104.986084 
L 207.320129 105.663223 
L 205.672137 105.835275 
L 204.024144 105.76294 
L 202.376151 105.843888 
L 200.728159 105.370785 
L 199.080166 105.018505 
L 197.432174 104.185557 
L 195.784181 102.623623 
L 194.136188 99.21047 
L 192.488196 95.916403 
L 190.840203 93.220828 
L 189.19221 91.887091 
L 187.544218 89.825229 
L 185.896225 83.297775 
L 184.248233 76.632862 
L 182.60024 74.111653 
L 180.952247 67.263813 
L 179.304255 60.425944 
L 177.656262 54.655309 
L 176.008269 53.568 
L 174.360277 54.722968 
L 172.712284 55.470521 
L 171.064292 58.437731 
L 169.416299 62.516298 
L 167.768306 67.213483 
L 166.120314 72.071539 
L 164.472321 75.332113 
L 162.824329 78.307564 
L 161.176336 81.483474 
L 159.528343 87.987763 
L 157.880351 93.269691 
L 156.232358 100.048465 
L 154.584365 103.488482 
L 152.936373 105.07136 
L 151.28838 104.999275 
L 149.640388 104.058729 
L 147.992395 101.442039 
L 146.344402 98.416061 
L 144.69641 96.696832 
L 143.048417 95.831595 
L 141.400425 95.355009 
L 139.752432 94.763926 
L 138.104439 94.728688 
L 136.456447 94.951092 
L 134.808454 95.000762 
L 133.160461 95.288533 
L 131.512469 95.332409 
L 129.864476 95.456499 
L 128.216484 95.021827 
L 126.568491 94.831772 
L 124.920498 95.033247 
L 123.272506 95.213482 
L 121.624513 95.797964 
L 119.976521 95.936918 
L 118.328528 96.680253 
L 116.680535 97.909838 
L 115.032543 98.335787 
L 113.38455 98.169298 
L 111.736557 97.890364 
L 110.088565 98.08691 
L 108.440572 98.561246 
L 106.79258 99.42279 
L 105.144587 101.502221 
L 103.496594 103.631863 
L 101.848602 104.612479 
L 100.200609 105.401214 
L 98.552617 105.853822 
L 96.904624 105.942928 
L 95.256631 105.084695 
L 93.608639 104.206033 
L 91.960646 102.849558 
L 90.312653 101.129233 
L 88.664661 99.83462 
L 87.016668 100.72325 
L 85.368676 101.354578 
L 83.720683 97.970006 
L 82.07269 91.879801 
L 80.424698 83.490162 
L 78.776705 80.685791 
L 77.128713 78.299855 
L 75.48072 78.5732 
L 73.832727 85.339136 
z
" style="fill:#008000;fill-opacity:0.4;"/>
   </g>
   <g id="matplotlib.axis_1">
    <g id="xtick_1">
     <g id="line2d_1">
      <defs>
       <path d="M 0 0 
L 0 3.5 
" id="me5adaebd7b" style="stroke:#000000;stroke-width:0.8;"/>
      </defs>
      <g>
       <use style="stroke:#000000;stroke-width:0.8;" x="73.832727" xlink:href="#me5adaebd7b" y="307.584"/>
      </g>
     </g>
     <g id="text_1">
      <!-- 0.0 -->
      <defs>
       <path d="M 31.78125 66.40625 
Q 24.171875 66.40625 20.328125 58.90625 
Q 16.5 51.421875 16.5 36.375 
Q 16.5 21.390625 20.328125 13.890625 
Q 24.171875 6.390625 31.78125 6.390625 
Q 39.453125 6.390625 43.28125 13.890625 
Q 47.125 21.390625 47.125 36.375 
Q 47.125 51.421875 43.28125 58.90625 
Q 39.453125 66.40625 31.78125 66.40625 
z
M 31.78125 74.21875 
Q 44.046875 74.21875 50.515625 64.515625 
Q 56.984375 54.828125 56.984375 36.375 
Q 56.984375 17.96875 50.515625 8.265625 
Q 44.046875 -1.421875 31.78125 -1.421875 
Q 19.53125 -1.421875 13.0625 8.265625 
Q 6.59375 17.96875 6.59375 36.375 
Q 6.59375 54.828125 13.0625 64.515625 
Q 19.53125 74.21875 31.78125 74.21875 
z
" id="DejaVuSans-30"/>
       <path d="M 10.6875 12.40625 
L 21 12.40625 
L 21 0 
L 10.6875 0 
z
" id="DejaVuSans-2e"/>
      </defs>
      <g transform="translate(65.881165 322.182437)scale(0.1 -0.1)">
       <use xlink:href="#DejaVuSans-30"/>
       <use x="63.623047" xlink:href="#DejaVuSans-2e"/>
       <use x="95.410156" xlink:href="#DejaVuSans-30"/>
      </g>
     </g>
    </g>
    <g id="xtick_2">
     <g id="line2d_2">
      <g>
       <use style="stroke:#000000;stroke-width:0.8;" x="138.763636" xlink:href="#me5adaebd7b" y="307.584"/>
      </g>
     </g>
     <g id="text_2">
      <!-- 0.2 -->
      <defs>
       <path d="M 19.1875 8.296875 
L 53.609375 8.296875 
L 53.609375 0 
L 7.328125 0 
L 7.328125 8.296875 
Q 12.9375 14.109375 22.625 23.890625 
Q 32.328125 33.6875 34.8125 36.53125 
Q 39.546875 41.84375 41.421875 45.53125 
Q 43.3125 49.21875 43.3125 52.78125 
Q 43.3125 58.59375 39.234375 62.25 
Q 35.15625 65.921875 28.609375 65.921875 
Q 23.96875 65.921875 18.8125 64.3125 
Q 13.671875 62.703125 7.8125 59.421875 
L 7.8125 69.390625 
Q 13.765625 71.78125 18.9375 73 
Q 24.125 74.21875 28.421875 74.21875 
Q 39.75 74.21875 46.484375 68.546875 
Q 53.21875 62.890625 53.21875 53.421875 
Q 53.21875 48.921875 51.53125 44.890625 
Q 49.859375 40.875 45.40625 35.40625 
Q 44.1875 33.984375 37.640625 27.21875 
Q 31.109375 20.453125 19.1875 8.296875 
z
" id="DejaVuSans-32"/>
      </defs>
      <g transform="translate(130.812074 322.182437)scale(0.1 -0.1)">
       <use xlink:href="#DejaVuSans-30"/>
       <use x="63.623047" xlink:href="#DejaVuSans-2e"/>
       <use x="95.410156" xlink:href="#DejaVuSans-32"/>
      </g>
     </g>
    </g>
    <g id="xtick_3">
     <g id="line2d_3">
      <g>
       <use style="stroke:#000000;stroke-width:0.8;" x="203.694545" xlink:href="#me5adaebd7b" y="307.584"/>
      </g>
     </g>
     <g id="text_3">
      <!-- 0.4 -->
      <defs>
       <path d="M 37.796875 64.3125 
L 12.890625 25.390625 
L 37.796875 25.390625 
z
M 35.203125 72.90625 
L 47.609375 72.90625 
L 47.609375 25.390625 
L 58.015625 25.390625 
L 58.015625 17.1875 
L 47.609375 17.1875 
L 47.609375 0 
L 37.796875 0 
L 37.796875 17.1875 
L 4.890625 17.1875 
L 4.890625 26.703125 
z
" id="DejaVuSans-34"/>
      </defs>
      <g transform="translate(195.742983 322.182437)scale(0.1 -0.1)">
       <use xlink:href="#DejaVuSans-30"/>
       <use x="63.623047" xlink:href="#DejaVuSans-2e"/>
       <use x="95.410156" xlink:href="#DejaVuSans-34"/>
      </g>
     </g>
    </g>
    <g id="xtick_4">
     <g id="line2d_4">
      <g>
       <use style="stroke:#000000;stroke-width:0.8;" x="268.625455" xlink:href="#me5adaebd7b" y="307.584"/>
      </g>
     </g>
     <g id="text_4">
      <!-- 0.6 -->
      <defs>
       <path d="M 33.015625 40.375 
Q 26.375 40.375 22.484375 35.828125 
Q 18.609375 31.296875 18.609375 23.390625 
Q 18.609375 15.53125 22.484375 10.953125 
Q 26.375 6.390625 33.015625 6.390625 
Q 39.65625 6.390625 43.53125 10.953125 
Q 47.40625 15.53125 47.40625 23.390625 
Q 47.40625 31.296875 43.53125 35.828125 
Q 39.65625 40.375 33.015625 40.375 
z
M 52.59375 71.296875 
L 52.59375 62.3125 
Q 48.875 64.0625 45.09375 64.984375 
Q 41.3125 65.921875 37.59375 65.921875 
Q 27.828125 65.921875 22.671875 59.328125 
Q 17.53125 52.734375 16.796875 39.40625 
Q 19.671875 43.65625 24.015625 45.921875 
Q 28.375 48.1875 33.59375 48.1875 
Q 44.578125 48.1875 50.953125 41.515625 
Q 57.328125 34.859375 57.328125 23.390625 
Q 57.328125 12.15625 50.6875 5.359375 
Q 44.046875 -1.421875 33.015625 -1.421875 
Q 20.359375 -1.421875 13.671875 8.265625 
Q 6.984375 17.96875 6.984375 36.375 
Q 6.984375 53.65625 15.1875 63.9375 
Q 23.390625 74.21875 37.203125 74.21875 
Q 40.921875 74.21875 44.703125 73.484375 
Q 48.484375 72.75 52.59375 71.296875 
z
" id="DejaVuSans-36"/>
      </defs>
      <g transform="translate(260.673892 322.182437)scale(0.1 -0.1)">
       <use xlink:href="#DejaVuSans-30"/>
       <use x="63.623047" xlink:href="#DejaVuSans-2e"/>
       <use x="95.410156" xlink:href="#DejaVuSans-36"/>
      </g>
     </g>
    </g>
    <g id="xtick_5">
     <g id="line2d_5">
      <g>
       <use style="stroke:#000000;stroke-width:0.8;" x="333.556364" xlink:href="#me5adaebd7b" y="307.584"/>
      </g>
     </g>
     <g id="text_5">
      <!-- 0.8 -->
      <defs>
       <path d="M 31.78125 34.625 
Q 24.75 34.625 20.71875 30.859375 
Q 16.703125 27.09375 16.703125 20.515625 
Q 16.703125 13.921875 20.71875 10.15625 
Q 24.75 6.390625 31.78125 6.390625 
Q 38.8125 6.390625 42.859375 10.171875 
Q 46.921875 13.96875 46.921875 20.515625 
Q 46.921875 27.09375 42.890625 30.859375 
Q 38.875 34.625 31.78125 34.625 
z
M 21.921875 38.8125 
Q 15.578125 40.375 12.03125 44.71875 
Q 8.5 49.078125 8.5 55.328125 
Q 8.5 64.0625 14.71875 69.140625 
Q 20.953125 74.21875 31.78125 74.21875 
Q 42.671875 74.21875 48.875 69.140625 
Q 55.078125 64.0625 55.078125 55.328125 
Q 55.078125 49.078125 51.53125 44.71875 
Q 48 40.375 41.703125 38.8125 
Q 48.828125 37.15625 52.796875 32.3125 
Q 56.78125 27.484375 56.78125 20.515625 
Q 56.78125 9.90625 50.3125 4.234375 
Q 43.84375 -1.421875 31.78125 -1.421875 
Q 19.734375 -1.421875 13.25 4.234375 
Q 6.78125 9.90625 6.78125 20.515625 
Q 6.78125 27.484375 10.78125 32.3125 
Q 14.796875 37.15625 21.921875 38.8125 
z
M 18.3125 54.390625 
Q 18.3125 48.734375 21.84375 45.5625 
Q 25.390625 42.390625 31.78125 42.390625 
Q 38.140625 42.390625 41.71875 45.5625 
Q 45.3125 48.734375 45.3125 54.390625 
Q 45.3125 60.0625 41.71875 63.234375 
Q 38.140625 66.40625 31.78125 66.40625 
Q 25.390625 66.40625 21.84375 63.234375 
Q 18.3125 60.0625 18.3125 54.390625 
z
" id="DejaVuSans-38"/>
      </defs>
      <g transform="translate(325.604801 322.182437)scale(0.1 -0.1)">
       <use xlink:href="#DejaVuSans-30"/>
       <use x="63.623047" xlink:href="#DejaVuSans-2e"/>
       <use x="95.410156" xlink:href="#DejaVuSans-38"/>
      </g>
     </g>
    </g>
    <g id="xtick_6">
     <g id="line2d_6">
      <g>
       <use style="stroke:#000000;stroke-width:0.8;" x="398.487273" xlink:href="#me5adaebd7b" y="307.584"/>
      </g>
     </g>
     <g id="text_6">
      <!-- 1.0 -->
      <defs>
       <path d="M 12.40625 8.296875 
L 28.515625 8.296875 
L 28.515625 63.921875 
L 10.984375 60.40625 
L 10.984375 69.390625 
L 28.421875 72.90625 
L 38.28125 72.90625 
L 38.28125 8.296875 
L 54.390625 8.296875 
L 54.390625 0 
L 12.40625 0 
z
" id="DejaVuSans-31"/>
      </defs>
      <g transform="translate(390.53571 322.182437)scale(0.1 -0.1)">
       <use xlink:href="#DejaVuSans-31"/>
       <use x="63.623047" xlink:href="#DejaVuSans-2e"/>
       <use x="95.410156" xlink:href="#DejaVuSans-30"/>
      </g>
     </g>
    </g>
   </g>
   <g id="matplotlib.axis_2">
    <g id="ytick_1">
     <g id="line2d_7">
      <defs>
       <path d="M 0 0 
L -3.5 0 
" id="m4654e2beec" style="stroke:#000000;stroke-width:0.8;"/>
      </defs>
      <g>
       <use style="stroke:#000000;stroke-width:0.8;" x="57.6" xlink:href="#m4654e2beec" y="299.289212"/>
      </g>
     </g>
     <g id="text_7">
      <!-- 0.0 -->
      <g transform="translate(34.696875 303.088431)scale(0.1 -0.1)">
       <use xlink:href="#DejaVuSans-30"/>
       <use x="63.623047" xlink:href="#DejaVuSans-2e"/>
       <use x="95.410156" xlink:href="#DejaVuSans-30"/>
      </g>
     </g>
    </g>
    <g id="ytick_2">
     <g id="line2d_8">
      <g>
       <use style="stroke:#000000;stroke-width:0.8;" x="57.6" xlink:href="#m4654e2beec" y="261.809306"/>
      </g>
     </g>
     <g id="text_8">
      <!-- 0.1 -->
      <g transform="translate(34.696875 265.608525)scale(0.1 -0.1)">
       <use xlink:href="#DejaVuSans-30"/>
       <use x="63.623047" xlink:href="#DejaVuSans-2e"/>
       <use x="95.410156" xlink:href="#DejaVuSans-31"/>
      </g>
     </g>
    </g>
    <g id="ytick_3">
     <g id="line2d_9">
      <g>
       <use style="stroke:#000000;stroke-width:0.8;" x="57.6" xlink:href="#m4654e2beec" y="224.3294"/>
      </g>
     </g>
     <g id="text_9">
      <!-- 0.2 -->
      <g transform="translate(34.696875 228.128618)scale(0.1 -0.1)">
       <use xlink:href="#DejaVuSans-30"/>
       <use x="63.623047" xlink:href="#DejaVuSans-2e"/>
       <use x="95.410156" xlink:href="#DejaVuSans-32"/>
      </g>
     </g>
    </g>
    <g id="ytick_4">
     <g id="line2d_10">
      <g>
       <use style="stroke:#000000;stroke-width:0.8;" x="57.6" xlink:href="#m4654e2beec" y="186.849493"/>
      </g>
     </g>
     <g id="text_10">
      <!-- 0.3 -->
      <defs>
       <path d="M 40.578125 39.3125 
Q 47.65625 37.796875 51.625 33 
Q 55.609375 28.21875 55.609375 21.1875 
Q 55.609375 10.40625 48.1875 4.484375 
Q 40.765625 -1.421875 27.09375 -1.421875 
Q 22.515625 -1.421875 17.65625 -0.515625 
Q 12.796875 0.390625 7.625 2.203125 
L 7.625 11.71875 
Q 11.71875 9.328125 16.59375 8.109375 
Q 21.484375 6.890625 26.8125 6.890625 
Q 36.078125 6.890625 40.9375 10.546875 
Q 45.796875 14.203125 45.796875 21.1875 
Q 45.796875 27.640625 41.28125 31.265625 
Q 36.765625 34.90625 28.71875 34.90625 
L 20.21875 34.90625 
L 20.21875 43.015625 
L 29.109375 43.015625 
Q 36.375 43.015625 40.234375 45.921875 
Q 44.09375 48.828125 44.09375 54.296875 
Q 44.09375 59.90625 40.109375 62.90625 
Q 36.140625 65.921875 28.71875 65.921875 
Q 24.65625 65.921875 20.015625 65.03125 
Q 15.375 64.15625 9.8125 62.3125 
L 9.8125 71.09375 
Q 15.4375 72.65625 20.34375 73.4375 
Q 25.25 74.21875 29.59375 74.21875 
Q 40.828125 74.21875 47.359375 69.109375 
Q 53.90625 64.015625 53.90625 55.328125 
Q 53.90625 49.265625 50.4375 45.09375 
Q 46.96875 40.921875 40.578125 39.3125 
z
" id="DejaVuSans-33"/>
      </defs>
      <g transform="translate(34.696875 190.648712)scale(0.1 -0.1)">
       <use xlink:href="#DejaVuSans-30"/>
       <use x="63.623047" xlink:href="#DejaVuSans-2e"/>
       <use x="95.410156" xlink:href="#DejaVuSans-33"/>
      </g>
     </g>
    </g>
    <g id="ytick_5">
     <g id="line2d_11">
      <g>
       <use style="stroke:#000000;stroke-width:0.8;" x="57.6" xlink:href="#m4654e2beec" y="149.369587"/>
      </g>
     </g>
     <g id="text_11">
      <!-- 0.4 -->
      <g transform="translate(34.696875 153.168806)scale(0.1 -0.1)">
       <use xlink:href="#DejaVuSans-30"/>
       <use x="63.623047" xlink:href="#DejaVuSans-2e"/>
       <use x="95.410156" xlink:href="#DejaVuSans-34"/>
      </g>
     </g>
    </g>
    <g id="ytick_6">
     <g id="line2d_12">
      <g>
       <use style="stroke:#000000;stroke-width:0.8;" x="57.6" xlink:href="#m4654e2beec" y="111.889681"/>
      </g>
     </g>
     <g id="text_12">
      <!-- 0.5 -->
      <defs>
       <path d="M 10.796875 72.90625 
L 49.515625 72.90625 
L 49.515625 64.59375 
L 19.828125 64.59375 
L 19.828125 46.734375 
Q 21.96875 47.46875 24.109375 47.828125 
Q 26.265625 48.1875 28.421875 48.1875 
Q 40.625 48.1875 47.75 41.5 
Q 54.890625 34.8125 54.890625 23.390625 
Q 54.890625 11.625 47.5625 5.09375 
Q 40.234375 -1.421875 26.90625 -1.421875 
Q 22.3125 -1.421875 17.546875 -0.640625 
Q 12.796875 0.140625 7.71875 1.703125 
L 7.71875 11.625 
Q 12.109375 9.234375 16.796875 8.0625 
Q 21.484375 6.890625 26.703125 6.890625 
Q 35.15625 6.890625 40.078125 11.328125 
Q 45.015625 15.765625 45.015625 23.390625 
Q 45.015625 31 40.078125 35.4375 
Q 35.15625 39.890625 26.703125 39.890625 
Q 22.75 39.890625 18.8125 39.015625 
Q 14.890625 38.140625 10.796875 36.28125 
z
" id="DejaVuSans-35"/>
      </defs>
      <g transform="translate(34.696875 115.688899)scale(0.1 -0.1)">
       <use xlink:href="#DejaVuSans-30"/>
       <use x="63.623047" xlink:href="#DejaVuSans-2e"/>
       <use x="95.410156" xlink:href="#DejaVuSans-35"/>
      </g>
     </g>
    </g>
    <g id="ytick_7">
     <g id="line2d_13">
      <g>
       <use style="stroke:#000000;stroke-width:0.8;" x="57.6" xlink:href="#m4654e2beec" y="74.409774"/>
      </g>
     </g>
     <g id="text_13">
      <!-- 0.6 -->
      <g transform="translate(34.696875 78.208993)scale(0.1 -0.1)">
       <use xlink:href="#DejaVuSans-30"/>
       <use x="63.623047" xlink:href="#DejaVuSans-2e"/>
       <use x="95.410156" xlink:href="#DejaVuSans-36"/>
      </g>
     </g>
    </g>
   </g>
   <g id="line2d_14">
    <path clip-path="url(#pfc7e9dcb4d)" d="M 73.832727 114.297015 
L 75.48072 110.242439 
L 77.128713 117.591499 
L 78.776705 118.351591 
L 80.424698 135.330364 
L 82.07269 150.281848 
L 83.720683 161.938848 
L 85.368676 159.404832 
L 87.016668 153.829696 
L 88.664661 160.164924 
L 90.312653 164.979968 
L 91.960646 175.116409 
L 93.608639 179.677713 
L 95.256631 195.643029 
L 96.904624 212.875165 
L 100.200609 233.908514 
L 101.848602 240.243743 
L 103.496594 256.715787 
L 105.144587 264.064697 
L 106.79258 266.345424 
L 108.440572 269.132954 
L 110.088565 267.105666 
L 111.736557 266.345424 
L 113.38455 266.345424 
L 115.032543 270.400038 
L 116.680535 277.495621 
L 118.328528 279.522947 
L 119.976521 280.789992 
L 121.624513 284.591204 
L 123.272506 284.591204 
L 124.920498 285.858288 
L 126.568491 282.817318 
L 128.216484 281.296833 
L 129.864476 283.57756 
L 131.512469 283.324159 
L 133.160461 284.844606 
L 134.808454 285.098045 
L 136.456447 286.61853 
L 138.104439 284.591204 
L 139.752432 281.550235 
L 141.400425 277.495621 
L 143.048417 271.920522 
L 144.69641 257.475879 
L 146.344402 239.990378 
L 147.992395 225.292258 
L 149.640388 211.60797 
L 152.936373 172.582392 
L 154.584365 156.110348 
L 156.232358 142.172695 
L 157.880351 131.275787 
L 159.528343 119.365423 
L 161.176336 113.536923 
L 162.824329 108.468515 
L 164.472321 103.90721 
L 167.768306 89.969557 
L 171.064292 80.593209 
L 172.712284 83.127226 
L 174.360277 79.326014 
L 176.008269 80.846573 
L 177.656262 89.969557 
L 179.304255 98.07871 
L 180.952247 107.708422 
L 182.60024 108.215151 
L 184.248233 118.60533 
L 185.896225 134.063543 
L 187.544218 136.597559 
L 189.19221 138.371483 
L 190.840203 145.467179 
L 192.488196 151.802408 
L 194.136188 166.246789 
L 197.432174 181.198273 
L 199.080166 190.321257 
L 200.728159 193.869105 
L 202.376151 202.992089 
L 204.024144 209.834046 
L 205.672137 218.196937 
L 207.320129 223.011606 
L 208.968122 231.881226 
L 210.616114 234.161878 
L 213.9121 232.641318 
L 215.560092 234.415242 
L 217.208085 234.161878 
L 218.856078 229.346835 
L 222.152063 243.79159 
L 223.800055 247.846167 
L 225.448048 250.126819 
L 227.096041 261.023727 
L 228.744033 268.372712 
L 230.392026 270.400038 
L 232.040018 271.667121 
L 233.688011 270.653439 
L 235.336004 272.680765 
L 236.983996 272.427363 
L 238.631989 274.20125 
L 240.279982 278.509265 
L 243.575967 285.604849 
L 245.223959 288.139015 
L 246.871952 291.179985 
L 248.519945 292.193629 
L 250.167937 291.433386 
L 251.81593 290.166303 
L 253.463922 292.193629 
L 255.111915 292.44703 
L 256.759908 289.406061 
L 258.4079 286.61853 
L 260.055893 284.084364 
L 261.703886 279.269508 
L 263.351878 272.427363 
L 264.999871 262.544212 
L 266.647863 256.462422 
L 268.295856 242.271031 
L 269.943849 231.881226 
L 271.591841 224.278802 
L 273.239834 214.395725 
L 274.887826 203.752181 
L 276.535819 195.136301 
L 278.183812 193.869105 
L 279.831804 181.705376 
L 281.479797 171.568561 
L 283.12779 169.287908 
L 284.775782 163.712772 
L 286.423775 155.856984 
L 288.071767 138.624847 
L 289.71976 146.227272 
L 291.367753 148.507924 
L 293.015745 143.439516 
L 294.663738 136.597559 
L 296.311731 143.946619 
L 297.959723 163.712772 
L 299.607716 148.25456 
L 301.255708 141.158864 
L 302.903701 146.987364 
L 304.551694 159.91156 
L 306.199686 148.25456 
L 307.847679 140.145407 
L 309.495671 157.884272 
L 311.143664 171.821925 
L 312.791657 171.061832 
L 314.439649 168.527816 
L 316.087642 167.767349 
L 317.735635 175.369773 
L 319.383627 171.315196 
L 321.03162 164.726604 
L 322.679612 171.061832 
L 324.327605 181.705376 
L 325.975598 196.149757 
L 327.62359 189.561164 
L 329.271583 196.149757 
L 330.919575 209.580682 
L 335.863553 229.09347 
L 337.511546 247.086074 
L 339.159539 259.503167 
L 340.807531 263.811258 
L 342.455524 266.852227 
L 344.103516 270.906878 
L 345.751509 280.283189 
L 347.399502 284.591204 
L 349.047494 286.365091 
L 350.695487 289.152659 
L 352.343479 291.433386 
L 353.991472 291.686788 
L 355.639465 290.673144 
L 357.287457 290.673144 
L 358.93545 289.406061 
L 360.583443 290.419742 
L 362.231435 292.193629 
L 363.879428 292.953871 
L 365.52742 294.727758 
L 367.175413 295.488 
L 368.823406 295.488 
L 370.471398 293.207273 
L 372.119391 289.406061 
L 373.767383 286.61853 
L 375.415376 282.817318 
L 377.063369 276.98878 
L 378.711361 266.598826 
L 382.007347 237.709726 
L 383.655339 211.101241 
L 385.303332 192.095181 
L 386.951324 180.43818 
L 388.599317 173.08912 
L 390.24731 162.699316 
L 391.895302 150.788576 
L 393.543295 158.391 
L 395.191287 163.206044 
L 396.83928 156.617076 
L 398.487273 146.734 
L 398.487273 146.734 
" style="fill:none;stroke:#1f77b4;stroke-linecap:square;stroke-width:1.5;"/>
   </g>
   <g id="line2d_15">
    <path clip-path="url(#pfc7e9dcb4d)" d="M 73.832727 134.817402 
L 75.48072 128.602622 
L 77.128713 127.303576 
L 78.776705 128.163786 
L 80.424698 131.399885 
L 82.07269 138.394642 
L 83.720683 146.431473 
L 85.368676 152.333314 
L 87.016668 152.095476 
L 88.664661 150.578579 
L 90.312653 152.192777 
L 91.960646 155.561801 
L 93.608639 160.244164 
L 95.256631 164.251363 
L 96.904624 171.053625 
L 98.552617 178.525421 
L 100.200609 183.83049 
L 101.848602 187.455302 
L 103.496594 190.659168 
L 105.144587 194.723117 
L 106.79258 197.428321 
L 108.440572 198.249794 
L 110.088565 198.663996 
L 113.38455 198.213421 
L 115.032543 198.422256 
L 116.680535 199.355354 
L 118.328528 200.801369 
L 119.976521 201.497202 
L 123.272506 202.568301 
L 124.920498 202.828386 
L 126.568491 202.907463 
L 128.216484 202.376993 
L 129.864476 202.115543 
L 138.104439 203.09388 
L 139.752432 202.695742 
L 141.400425 202.061909 
L 143.048417 201.026633 
L 144.69641 199.269011 
L 146.344402 195.38912 
L 147.992395 190.317033 
L 149.640388 184.747898 
L 151.28838 178.654688 
L 152.936373 170.136473 
L 154.584365 160.12427 
L 157.880351 143.409639 
L 159.528343 137.006509 
L 161.176336 131.105549 
L 162.824329 127.44652 
L 166.120314 122.47747 
L 167.768306 119.168679 
L 169.416299 116.134166 
L 171.064292 113.761406 
L 172.712284 112.161323 
L 174.360277 111.996111 
L 176.008269 111.002159 
L 177.656262 112.578894 
L 179.304255 115.501167 
L 182.60024 123.256848 
L 184.248233 125.477817 
L 185.896225 130.369181 
L 187.544218 136.408126 
L 189.19221 139.705981 
L 190.840203 141.163881 
L 192.488196 143.864949 
L 194.136188 148.885631 
L 195.784181 154.662007 
L 197.432174 159.824719 
L 199.080166 164.32036 
L 200.728159 168.086221 
L 204.024144 174.377923 
L 205.672137 178.249002 
L 207.320129 181.324431 
L 210.616114 186.577815 
L 212.264107 187.577838 
L 213.9121 187.795372 
L 215.560092 187.749867 
L 217.208085 187.950135 
L 218.856078 187.278209 
L 220.50407 186.95272 
L 222.152063 188.961361 
L 223.800055 191.183113 
L 225.448048 192.305834 
L 227.096041 193.961459 
L 228.744033 196.572896 
L 230.392026 198.494146 
L 232.040018 199.233045 
L 238.631989 199.877957 
L 240.279982 200.365417 
L 245.223959 202.976176 
L 248.519945 204.116493 
L 250.167937 204.326077 
L 253.463922 204.128762 
L 255.111915 204.303539 
L 256.759908 204.338959 
L 261.703886 202.619979 
L 263.351878 201.347221 
L 264.999871 199.643365 
L 266.647863 197.437936 
L 268.295856 194.936647 
L 269.943849 190.953355 
L 271.591841 187.28938 
L 273.239834 184.183724 
L 274.887826 180.240038 
L 276.535819 175.597195 
L 278.183812 172.009196 
L 279.831804 170.007811 
L 281.479797 164.606482 
L 283.12779 159.888664 
L 284.775782 157.562011 
L 286.423775 154.993745 
L 288.071767 149.521352 
L 289.71976 143.524652 
L 291.367753 144.557029 
L 293.015745 145.90226 
L 294.663738 143.124451 
L 296.311731 140.809706 
L 297.959723 145.49939 
L 299.607716 151.381565 
L 302.903701 143.105708 
L 304.551694 146.340316 
L 306.199686 150.108342 
L 307.847679 146.631123 
L 309.495671 143.824112 
L 312.791657 157.698609 
L 314.439649 158.984742 
L 316.087642 157.087717 
L 317.735635 157.730965 
L 319.383627 159.946206 
L 321.03162 158.44945 
L 322.679612 156.733406 
L 324.327605 158.531178 
L 325.975598 165.281752 
L 327.62359 169.671777 
L 329.271583 169.658706 
L 330.919575 171.965862 
L 332.567568 177.069277 
L 334.215561 180.796432 
L 335.863553 183.367444 
L 337.511546 186.681523 
L 339.159539 191.833033 
L 340.807531 195.957804 
L 342.455524 197.40125 
L 344.103516 198.308122 
L 345.751509 199.528256 
L 347.399502 201.487805 
L 349.047494 202.668943 
L 350.695487 203.156516 
L 352.343479 203.78616 
L 353.991472 204.134075 
L 355.639465 204.226891 
L 360.583443 203.893587 
L 362.231435 204.035888 
L 365.52742 204.608804 
L 368.823406 205.032554 
L 370.471398 205.052465 
L 372.119391 204.541699 
L 377.063369 202.277877 
L 378.711361 200.854619 
L 380.359354 197.97219 
L 382.007347 194.287368 
L 383.655339 188.555656 
L 386.951324 170.395305 
L 388.599317 164.347588 
L 390.24731 159.982689 
L 391.895302 154.145617 
L 393.543295 149.689202 
L 395.191287 151.352699 
L 396.83928 153.491195 
L 398.487273 150.833334 
L 398.487273 150.833334 
" style="fill:none;stroke:#ff7f0e;stroke-linecap:square;stroke-width:1.5;"/>
   </g>
   <g id="line2d_16">
    <path clip-path="url(#pfc7e9dcb4d)" d="M 73.832727 190.674842 
L 75.48072 190.740134 
L 77.128713 191.375477 
L 80.424698 191.375531 
L 82.07269 192.665295 
L 83.720683 194.330858 
L 85.368676 195.112435 
L 87.016668 193.592624 
L 88.664661 193.069945 
L 90.312653 194.652444 
L 91.960646 195.692731 
L 93.608639 199.160614 
L 95.256631 202.103786 
L 96.904624 213.366503 
L 98.552617 226.249702 
L 100.200609 235.245421 
L 101.848602 241.78044 
L 103.496594 247.280938 
L 105.144587 254.714599 
L 106.79258 259.167935 
L 108.440572 260.824223 
L 110.088565 261.626524 
L 111.736557 261.397031 
L 113.38455 260.96917 
L 115.032543 261.231536 
L 116.680535 262.666671 
L 118.328528 265.089379 
L 119.976521 266.470173 
L 121.624513 267.431392 
L 123.272506 268.260258 
L 124.920498 268.910749 
L 126.568491 269.019421 
L 128.216484 268.337176 
L 129.864476 267.780149 
L 131.512469 267.948382 
L 133.160461 268.460204 
L 134.808454 268.664014 
L 138.104439 269.319822 
L 139.752432 268.810658 
L 141.400425 267.832101 
L 143.048417 266.09512 
L 144.69641 263.468244 
L 146.344402 258.894123 
L 147.992395 250.83663 
L 149.640388 241.138965 
L 151.28838 230.345349 
L 152.936373 217.471786 
L 154.584365 200.434819 
L 156.232358 192.343861 
L 157.880351 191.401752 
L 159.528343 190.905726 
L 161.176336 190.80586 
L 164.472321 191.277722 
L 166.120314 191.602358 
L 167.768306 192.211372 
L 169.416299 193.077553 
L 172.712284 194.278751 
L 174.360277 194.297189 
L 177.656262 194.556873 
L 179.304255 193.53019 
L 180.952247 192.819857 
L 182.60024 191.862763 
L 184.248233 191.552668 
L 187.544218 192.098523 
L 189.19221 191.983134 
L 190.840203 192.127307 
L 192.488196 192.725501 
L 194.136188 194.269179 
L 195.784181 196.531999 
L 197.432174 198.418353 
L 199.080166 202.34684 
L 200.728159 207.941555 
L 202.376151 212.901865 
L 204.024144 218.46364 
L 205.672137 225.150482 
L 207.320129 230.973972 
L 208.968122 235.405426 
L 210.616114 240.170546 
L 212.264107 242.494712 
L 213.9121 242.809548 
L 217.208085 242.93334 
L 218.856078 242.556129 
L 220.50407 241.48038 
L 222.152063 244.21942 
L 223.800055 248.154874 
L 225.448048 250.312632 
L 227.096041 253.241274 
L 228.744033 257.678915 
L 230.392026 261.026919 
L 232.040018 262.621725 
L 238.631989 263.849787 
L 240.279982 264.528255 
L 241.927974 265.898415 
L 243.575967 267.617624 
L 245.223959 268.931674 
L 248.519945 270.932389 
L 250.167937 271.367377 
L 251.81593 271.322755 
L 253.463922 271.151975 
L 256.759908 271.496419 
L 260.055893 269.816828 
L 261.703886 268.722681 
L 263.351878 266.744809 
L 264.999871 264.116197 
L 266.647863 260.778892 
L 268.295856 256.503954 
L 269.943849 251.366154 
L 271.591841 243.750781 
L 273.239834 238.186846 
L 274.887826 231.699218 
L 278.183812 215.855978 
L 279.831804 211.689776 
L 281.479797 205.756193 
L 283.12779 197.481808 
L 284.775782 195.853148 
L 286.423775 194.510247 
L 288.071767 192.194454 
L 289.71976 191.407823 
L 291.367753 193.027655 
L 293.015745 192.580887 
L 294.663738 191.784134 
L 296.311731 191.537757 
L 297.959723 193.914216 
L 299.607716 195.416101 
L 301.255708 191.643088 
L 302.903701 191.769511 
L 304.551694 193.619516 
L 306.199686 194.521122 
L 307.847679 191.861471 
L 309.495671 191.896686 
L 311.143664 195.888239 
L 312.791657 198.007464 
L 314.439649 196.68001 
L 316.087642 195.504499 
L 317.735635 196.084789 
L 319.383627 198.25031 
L 321.03162 196.327748 
L 322.679612 195.239403 
L 324.327605 197.360598 
L 325.975598 204.823199 
L 327.62359 211.185607 
L 329.271583 211.142783 
L 330.919575 213.866172 
L 332.567568 223.30214 
L 334.215561 229.907125 
L 335.863553 234.481425 
L 337.511546 240.211133 
L 339.159539 250.014172 
L 340.807531 256.584417 
L 342.455524 259.219828 
L 344.103516 260.950153 
L 345.751509 262.946817 
L 347.399502 266.168497 
L 349.047494 268.355095 
L 352.343479 270.353232 
L 353.991472 271.013375 
L 355.639465 271.283174 
L 357.287457 271.186422 
L 358.93545 270.895629 
L 360.583443 270.769202 
L 362.231435 270.899843 
L 365.52742 271.852078 
L 368.823406 272.601393 
L 370.471398 272.675115 
L 372.119391 271.956144 
L 375.415376 269.586718 
L 377.063369 268.279044 
L 378.711361 265.964633 
L 380.359354 262.137257 
L 382.007347 256.522072 
L 383.655339 248.552941 
L 385.303332 235.897686 
L 386.951324 216.971649 
L 388.599317 203.910331 
L 390.24731 197.722776 
L 391.895302 193.409181 
L 393.543295 192.257037 
L 395.191287 194.621618 
L 396.83928 194.79792 
L 398.487273 192.608167 
L 398.487273 192.608167 
" style="fill:none;stroke:#2ca02c;stroke-linecap:square;stroke-width:1.5;"/>
   </g>
   <g id="line2d_17">
    <path clip-path="url(#pfc7e9dcb4d)" d="M 73.832727 85.339136 
L 75.48072 78.5732 
L 77.128713 78.299855 
L 78.776705 80.685791 
L 80.424698 83.490162 
L 82.07269 91.879801 
L 83.720683 97.970006 
L 85.368676 101.354578 
L 87.016668 100.72325 
L 88.664661 99.83462 
L 90.312653 101.129233 
L 91.960646 102.849558 
L 93.608639 104.206033 
L 96.904624 105.942928 
L 98.552617 105.853822 
L 100.200609 105.401214 
L 101.848602 104.612479 
L 103.496594 103.631863 
L 106.79258 99.42279 
L 108.440572 98.561246 
L 110.088565 98.08691 
L 111.736557 97.890364 
L 115.032543 98.335787 
L 116.680535 97.909838 
L 118.328528 96.680253 
L 119.976521 95.936918 
L 121.624513 95.797964 
L 123.272506 95.213482 
L 126.568491 94.831772 
L 128.216484 95.021827 
L 129.864476 95.456499 
L 139.752432 94.763926 
L 143.048417 95.831595 
L 144.69641 96.696832 
L 146.344402 98.416061 
L 147.992395 101.442039 
L 149.640388 104.058729 
L 151.28838 104.999275 
L 152.936373 105.07136 
L 154.584365 103.488482 
L 156.232358 100.048465 
L 157.880351 93.269691 
L 159.528343 87.987763 
L 161.176336 81.483474 
L 166.120314 72.071539 
L 169.416299 62.516298 
L 171.064292 58.437731 
L 172.712284 55.470521 
L 174.360277 54.722968 
L 176.008269 53.568 
L 177.656262 54.655309 
L 179.304255 60.425944 
L 182.60024 74.111653 
L 184.248233 76.632862 
L 187.544218 89.825229 
L 189.19221 91.887091 
L 190.840203 93.220828 
L 192.488196 95.916403 
L 195.784181 102.623623 
L 197.432174 104.185557 
L 199.080166 105.018505 
L 200.728159 105.370785 
L 202.376151 105.843888 
L 204.024144 105.76294 
L 205.672137 105.835275 
L 207.320129 105.663223 
L 208.968122 104.986084 
L 210.616114 104.560521 
L 212.264107 103.939088 
L 213.9121 103.845346 
L 215.560092 104.066973 
L 218.856078 103.826887 
L 220.50407 104.219808 
L 222.152063 104.17129 
L 223.800055 103.080716 
L 225.448048 102.17903 
L 227.096041 101.838425 
L 230.392026 98.718739 
L 232.040018 97.686642 
L 233.688011 97.339019 
L 235.336004 97.37946 
L 240.279982 96.994073 
L 245.223959 95.070049 
L 250.167937 93.773217 
L 251.81593 93.759956 
L 253.463922 94.06958 
L 256.759908 93.652297 
L 258.4079 93.922442 
L 260.055893 94.538033 
L 261.703886 94.807401 
L 263.351878 95.448257 
L 264.999871 96.536644 
L 268.295856 99.485 
L 269.943849 101.316937 
L 271.591841 103.531041 
L 274.887826 105.030746 
L 276.535819 105.649663 
L 278.183812 105.324792 
L 279.831804 105.347345 
L 281.479797 105.130618 
L 283.12779 103.736747 
L 284.775782 103.063813 
L 286.423775 102.033698 
L 288.071767 98.894978 
L 289.71976 93.24347 
L 291.367753 96.257524 
L 293.015745 97.000059 
L 294.663738 94.177699 
L 296.311731 92.065033 
L 297.959723 97.131333 
L 299.607716 100.765228 
L 301.255708 96.876764 
L 302.903701 94.042055 
L 304.551694 97.4967 
L 306.199686 99.71462 
L 307.847679 96.649719 
L 309.495671 94.720261 
L 311.143664 100.748552 
L 312.791657 103.694654 
L 314.439649 103.9481 
L 316.087642 102.886784 
L 319.383627 104.064478 
L 322.679612 102.741495 
L 325.975598 105.23156 
L 327.62359 105.747999 
L 329.271583 105.701184 
L 330.919575 105.811791 
L 334.215561 105.699196 
L 335.863553 105.055738 
L 337.511546 104.891033 
L 339.159539 103.183961 
L 340.807531 100.783968 
L 342.455524 99.121613 
L 345.751509 97.794824 
L 347.399502 96.407448 
L 349.047494 95.292327 
L 350.695487 94.83188 
L 352.343479 94.495501 
L 353.991472 93.939472 
L 355.639465 93.742262 
L 357.287457 93.939332 
L 358.93545 93.95335 
L 360.583443 94.131085 
L 362.231435 94.162974 
L 363.879428 93.787291 
L 365.52742 93.720187 
L 367.175413 93.34876 
L 368.823406 93.165477 
L 370.471398 93.173803 
L 372.119391 93.308085 
L 377.063369 94.937042 
L 378.711361 95.79648 
L 380.359354 97.148959 
L 383.655339 101.928342 
L 385.303332 104.709104 
L 386.951324 105.130246 
L 388.599317 104.973737 
L 390.24731 103.821835 
L 393.543295 98.923716 
L 395.191287 100.556351 
L 396.83928 101.691554 
L 398.487273 99.857974 
L 398.487273 99.857974 
" style="fill:none;stroke:#d62728;stroke-linecap:square;stroke-width:1.5;"/>
   </g>
   <g id="patch_3">
    <path d="M 57.6 307.584 
L 57.6 41.472 
" style="fill:none;stroke:#000000;stroke-linecap:square;stroke-linejoin:miter;stroke-width:0.8;"/>
   </g>
   <g id="patch_4">
    <path d="M 414.72 307.584 
L 414.72 41.472 
" style="fill:none;stroke:#000000;stroke-linecap:square;stroke-linejoin:miter;stroke-width:0.8;"/>
   </g>
   <g id="patch_5">
    <path d="M 57.6 307.584 
L 414.72 307.584 
" style="fill:none;stroke:#000000;stroke-linecap:square;stroke-linejoin:miter;stroke-width:0.8;"/>
   </g>
   <g id="patch_6">
    <path d="M 57.6 41.472 
L 414.72 41.472 
" style="fill:none;stroke:#000000;stroke-linecap:square;stroke-linejoin:miter;stroke-width:0.8;"/>
   </g>
   <g id="text_14">
    <!-- Plot of Test Data vs MCMC Uncertainty  -->
    <defs>
     <path d="M 19.671875 64.796875 
L 19.671875 37.40625 
L 32.078125 37.40625 
Q 38.96875 37.40625 42.71875 40.96875 
Q 46.484375 44.53125 46.484375 51.125 
Q 46.484375 57.671875 42.71875 61.234375 
Q 38.96875 64.796875 32.078125 64.796875 
z
M 9.8125 72.90625 
L 32.078125 72.90625 
Q 44.34375 72.90625 50.609375 67.359375 
Q 56.890625 61.8125 56.890625 51.125 
Q 56.890625 40.328125 50.609375 34.8125 
Q 44.34375 29.296875 32.078125 29.296875 
L 19.671875 29.296875 
L 19.671875 0 
L 9.8125 0 
z
" id="DejaVuSans-50"/>
     <path d="M 9.421875 75.984375 
L 18.40625 75.984375 
L 18.40625 0 
L 9.421875 0 
z
" id="DejaVuSans-6c"/>
     <path d="M 30.609375 48.390625 
Q 23.390625 48.390625 19.1875 42.75 
Q 14.984375 37.109375 14.984375 27.296875 
Q 14.984375 17.484375 19.15625 11.84375 
Q 23.34375 6.203125 30.609375 6.203125 
Q 37.796875 6.203125 41.984375 11.859375 
Q 46.1875 17.53125 46.1875 27.296875 
Q 46.1875 37.015625 41.984375 42.703125 
Q 37.796875 48.390625 30.609375 48.390625 
z
M 30.609375 56 
Q 42.328125 56 49.015625 48.375 
Q 55.71875 40.765625 55.71875 27.296875 
Q 55.71875 13.875 49.015625 6.21875 
Q 42.328125 -1.421875 30.609375 -1.421875 
Q 18.84375 -1.421875 12.171875 6.21875 
Q 5.515625 13.875 5.515625 27.296875 
Q 5.515625 40.765625 12.171875 48.375 
Q 18.84375 56 30.609375 56 
z
" id="DejaVuSans-6f"/>
     <path d="M 18.3125 70.21875 
L 18.3125 54.6875 
L 36.8125 54.6875 
L 36.8125 47.703125 
L 18.3125 47.703125 
L 18.3125 18.015625 
Q 18.3125 11.328125 20.140625 9.421875 
Q 21.96875 7.515625 27.59375 7.515625 
L 36.8125 7.515625 
L 36.8125 0 
L 27.59375 0 
Q 17.1875 0 13.234375 3.875 
Q 9.28125 7.765625 9.28125 18.015625 
L 9.28125 47.703125 
L 2.6875 47.703125 
L 2.6875 54.6875 
L 9.28125 54.6875 
L 9.28125 70.21875 
z
" id="DejaVuSans-74"/>
     <path id="DejaVuSans-20"/>
     <path d="M 37.109375 75.984375 
L 37.109375 68.5 
L 28.515625 68.5 
Q 23.6875 68.5 21.796875 66.546875 
Q 19.921875 64.59375 19.921875 59.515625 
L 19.921875 54.6875 
L 34.71875 54.6875 
L 34.71875 47.703125 
L 19.921875 47.703125 
L 19.921875 0 
L 10.890625 0 
L 10.890625 47.703125 
L 2.296875 47.703125 
L 2.296875 54.6875 
L 10.890625 54.6875 
L 10.890625 58.5 
Q 10.890625 67.625 15.140625 71.796875 
Q 19.390625 75.984375 28.609375 75.984375 
z
" id="DejaVuSans-66"/>
     <path d="M -0.296875 72.90625 
L 61.375 72.90625 
L 61.375 64.59375 
L 35.5 64.59375 
L 35.5 0 
L 25.59375 0 
L 25.59375 64.59375 
L -0.296875 64.59375 
z
" id="DejaVuSans-54"/>
     <path d="M 56.203125 29.59375 
L 56.203125 25.203125 
L 14.890625 25.203125 
Q 15.484375 15.921875 20.484375 11.0625 
Q 25.484375 6.203125 34.421875 6.203125 
Q 39.59375 6.203125 44.453125 7.46875 
Q 49.3125 8.734375 54.109375 11.28125 
L 54.109375 2.78125 
Q 49.265625 0.734375 44.1875 -0.34375 
Q 39.109375 -1.421875 33.890625 -1.421875 
Q 20.796875 -1.421875 13.15625 6.1875 
Q 5.515625 13.8125 5.515625 26.8125 
Q 5.515625 40.234375 12.765625 48.109375 
Q 20.015625 56 32.328125 56 
Q 43.359375 56 49.78125 48.890625 
Q 56.203125 41.796875 56.203125 29.59375 
z
M 47.21875 32.234375 
Q 47.125 39.59375 43.09375 43.984375 
Q 39.0625 48.390625 32.421875 48.390625 
Q 24.90625 48.390625 20.390625 44.140625 
Q 15.875 39.890625 15.1875 32.171875 
z
" id="DejaVuSans-65"/>
     <path d="M 44.28125 53.078125 
L 44.28125 44.578125 
Q 40.484375 46.53125 36.375 47.5 
Q 32.28125 48.484375 27.875 48.484375 
Q 21.1875 48.484375 17.84375 46.4375 
Q 14.5 44.390625 14.5 40.28125 
Q 14.5 37.15625 16.890625 35.375 
Q 19.28125 33.59375 26.515625 31.984375 
L 29.59375 31.296875 
Q 39.15625 29.25 43.1875 25.515625 
Q 47.21875 21.78125 47.21875 15.09375 
Q 47.21875 7.46875 41.1875 3.015625 
Q 35.15625 -1.421875 24.609375 -1.421875 
Q 20.21875 -1.421875 15.453125 -0.5625 
Q 10.6875 0.296875 5.421875 2 
L 5.421875 11.28125 
Q 10.40625 8.6875 15.234375 7.390625 
Q 20.0625 6.109375 24.8125 6.109375 
Q 31.15625 6.109375 34.5625 8.28125 
Q 37.984375 10.453125 37.984375 14.40625 
Q 37.984375 18.0625 35.515625 20.015625 
Q 33.0625 21.96875 24.703125 23.78125 
L 21.578125 24.515625 
Q 13.234375 26.265625 9.515625 29.90625 
Q 5.8125 33.546875 5.8125 39.890625 
Q 5.8125 47.609375 11.28125 51.796875 
Q 16.75 56 26.8125 56 
Q 31.78125 56 36.171875 55.265625 
Q 40.578125 54.546875 44.28125 53.078125 
z
" id="DejaVuSans-73"/>
     <path d="M 19.671875 64.796875 
L 19.671875 8.109375 
L 31.59375 8.109375 
Q 46.6875 8.109375 53.6875 14.9375 
Q 60.6875 21.78125 60.6875 36.53125 
Q 60.6875 51.171875 53.6875 57.984375 
Q 46.6875 64.796875 31.59375 64.796875 
z
M 9.8125 72.90625 
L 30.078125 72.90625 
Q 51.265625 72.90625 61.171875 64.09375 
Q 71.09375 55.28125 71.09375 36.53125 
Q 71.09375 17.671875 61.125 8.828125 
Q 51.171875 0 30.078125 0 
L 9.8125 0 
z
" id="DejaVuSans-44"/>
     <path d="M 34.28125 27.484375 
Q 23.390625 27.484375 19.1875 25 
Q 14.984375 22.515625 14.984375 16.5 
Q 14.984375 11.71875 18.140625 8.90625 
Q 21.296875 6.109375 26.703125 6.109375 
Q 34.1875 6.109375 38.703125 11.40625 
Q 43.21875 16.703125 43.21875 25.484375 
L 43.21875 27.484375 
z
M 52.203125 31.203125 
L 52.203125 0 
L 43.21875 0 
L 43.21875 8.296875 
Q 40.140625 3.328125 35.546875 0.953125 
Q 30.953125 -1.421875 24.3125 -1.421875 
Q 15.921875 -1.421875 10.953125 3.296875 
Q 6 8.015625 6 15.921875 
Q 6 25.140625 12.171875 29.828125 
Q 18.359375 34.515625 30.609375 34.515625 
L 43.21875 34.515625 
L 43.21875 35.40625 
Q 43.21875 41.609375 39.140625 45 
Q 35.0625 48.390625 27.6875 48.390625 
Q 23 48.390625 18.546875 47.265625 
Q 14.109375 46.140625 10.015625 43.890625 
L 10.015625 52.203125 
Q 14.9375 54.109375 19.578125 55.046875 
Q 24.21875 56 28.609375 56 
Q 40.484375 56 46.34375 49.84375 
Q 52.203125 43.703125 52.203125 31.203125 
z
" id="DejaVuSans-61"/>
     <path d="M 2.984375 54.6875 
L 12.5 54.6875 
L 29.59375 8.796875 
L 46.6875 54.6875 
L 56.203125 54.6875 
L 35.6875 0 
L 23.484375 0 
z
" id="DejaVuSans-76"/>
     <path d="M 9.8125 72.90625 
L 24.515625 72.90625 
L 43.109375 23.296875 
L 61.8125 72.90625 
L 76.515625 72.90625 
L 76.515625 0 
L 66.890625 0 
L 66.890625 64.015625 
L 48.09375 14.015625 
L 38.1875 14.015625 
L 19.390625 64.015625 
L 19.390625 0 
L 9.8125 0 
z
" id="DejaVuSans-4d"/>
     <path d="M 64.40625 67.28125 
L 64.40625 56.890625 
Q 59.421875 61.53125 53.78125 63.8125 
Q 48.140625 66.109375 41.796875 66.109375 
Q 29.296875 66.109375 22.65625 58.46875 
Q 16.015625 50.828125 16.015625 36.375 
Q 16.015625 21.96875 22.65625 14.328125 
Q 29.296875 6.6875 41.796875 6.6875 
Q 48.140625 6.6875 53.78125 8.984375 
Q 59.421875 11.28125 64.40625 15.921875 
L 64.40625 5.609375 
Q 59.234375 2.09375 53.4375 0.328125 
Q 47.65625 -1.421875 41.21875 -1.421875 
Q 24.65625 -1.421875 15.125 8.703125 
Q 5.609375 18.84375 5.609375 36.375 
Q 5.609375 53.953125 15.125 64.078125 
Q 24.65625 74.21875 41.21875 74.21875 
Q 47.75 74.21875 53.53125 72.484375 
Q 59.328125 70.75 64.40625 67.28125 
z
" id="DejaVuSans-43"/>
     <path d="M 8.6875 72.90625 
L 18.609375 72.90625 
L 18.609375 28.609375 
Q 18.609375 16.890625 22.84375 11.734375 
Q 27.09375 6.59375 36.625 6.59375 
Q 46.09375 6.59375 50.34375 11.734375 
Q 54.59375 16.890625 54.59375 28.609375 
L 54.59375 72.90625 
L 64.5 72.90625 
L 64.5 27.390625 
Q 64.5 13.140625 57.4375 5.859375 
Q 50.390625 -1.421875 36.625 -1.421875 
Q 22.796875 -1.421875 15.734375 5.859375 
Q 8.6875 13.140625 8.6875 27.390625 
z
" id="DejaVuSans-55"/>
     <path d="M 54.890625 33.015625 
L 54.890625 0 
L 45.90625 0 
L 45.90625 32.71875 
Q 45.90625 40.484375 42.875 44.328125 
Q 39.84375 48.1875 33.796875 48.1875 
Q 26.515625 48.1875 22.3125 43.546875 
Q 18.109375 38.921875 18.109375 30.90625 
L 18.109375 0 
L 9.078125 0 
L 9.078125 54.6875 
L 18.109375 54.6875 
L 18.109375 46.1875 
Q 21.34375 51.125 25.703125 53.5625 
Q 30.078125 56 35.796875 56 
Q 45.21875 56 50.046875 50.171875 
Q 54.890625 44.34375 54.890625 33.015625 
z
" id="DejaVuSans-6e"/>
     <path d="M 48.78125 52.59375 
L 48.78125 44.1875 
Q 44.96875 46.296875 41.140625 47.34375 
Q 37.3125 48.390625 33.40625 48.390625 
Q 24.65625 48.390625 19.8125 42.84375 
Q 14.984375 37.3125 14.984375 27.296875 
Q 14.984375 17.28125 19.8125 11.734375 
Q 24.65625 6.203125 33.40625 6.203125 
Q 37.3125 6.203125 41.140625 7.25 
Q 44.96875 8.296875 48.78125 10.40625 
L 48.78125 2.09375 
Q 45.015625 0.34375 40.984375 -0.53125 
Q 36.96875 -1.421875 32.421875 -1.421875 
Q 20.0625 -1.421875 12.78125 6.34375 
Q 5.515625 14.109375 5.515625 27.296875 
Q 5.515625 40.671875 12.859375 48.328125 
Q 20.21875 56 33.015625 56 
Q 37.15625 56 41.109375 55.140625 
Q 45.0625 54.296875 48.78125 52.59375 
z
" id="DejaVuSans-63"/>
     <path d="M 41.109375 46.296875 
Q 39.59375 47.171875 37.8125 47.578125 
Q 36.03125 48 33.890625 48 
Q 26.265625 48 22.1875 43.046875 
Q 18.109375 38.09375 18.109375 28.8125 
L 18.109375 0 
L 9.078125 0 
L 9.078125 54.6875 
L 18.109375 54.6875 
L 18.109375 46.1875 
Q 20.953125 51.171875 25.484375 53.578125 
Q 30.03125 56 36.53125 56 
Q 37.453125 56 38.578125 55.875 
Q 39.703125 55.765625 41.0625 55.515625 
z
" id="DejaVuSans-72"/>
     <path d="M 9.421875 54.6875 
L 18.40625 54.6875 
L 18.40625 0 
L 9.421875 0 
z
M 9.421875 75.984375 
L 18.40625 75.984375 
L 18.40625 64.59375 
L 9.421875 64.59375 
z
" id="DejaVuSans-69"/>
     <path d="M 32.171875 -5.078125 
Q 28.375 -14.84375 24.75 -17.8125 
Q 21.140625 -20.796875 15.09375 -20.796875 
L 7.90625 -20.796875 
L 7.90625 -13.28125 
L 13.1875 -13.28125 
Q 16.890625 -13.28125 18.9375 -11.515625 
Q 21 -9.765625 23.484375 -3.21875 
L 25.09375 0.875 
L 2.984375 54.6875 
L 12.5 54.6875 
L 29.59375 11.921875 
L 46.6875 54.6875 
L 56.203125 54.6875 
z
" id="DejaVuSans-79"/>
    </defs>
    <g transform="translate(118.112813 35.472)scale(0.12 -0.12)">
     <use xlink:href="#DejaVuSans-50"/>
     <use x="60.302734" xlink:href="#DejaVuSans-6c"/>
     <use x="88.085938" xlink:href="#DejaVuSans-6f"/>
     <use x="149.267578" xlink:href="#DejaVuSans-74"/>
     <use x="188.476562" xlink:href="#DejaVuSans-20"/>
     <use x="220.263672" xlink:href="#DejaVuSans-6f"/>
     <use x="281.445312" xlink:href="#DejaVuSans-66"/>
     <use x="316.650391" xlink:href="#DejaVuSans-20"/>
     <use x="348.4375" xlink:href="#DejaVuSans-54"/>
     <use x="409.255859" xlink:href="#DejaVuSans-65"/>
     <use x="470.779297" xlink:href="#DejaVuSans-73"/>
     <use x="522.878906" xlink:href="#DejaVuSans-74"/>
     <use x="562.087891" xlink:href="#DejaVuSans-20"/>
     <use x="593.875" xlink:href="#DejaVuSans-44"/>
     <use x="670.876953" xlink:href="#DejaVuSans-61"/>
     <use x="732.15625" xlink:href="#DejaVuSans-74"/>
     <use x="771.365234" xlink:href="#DejaVuSans-61"/>
     <use x="832.644531" xlink:href="#DejaVuSans-20"/>
     <use x="864.431641" xlink:href="#DejaVuSans-76"/>
     <use x="923.611328" xlink:href="#DejaVuSans-73"/>
     <use x="975.710938" xlink:href="#DejaVuSans-20"/>
     <use x="1007.498047" xlink:href="#DejaVuSans-4d"/>
     <use x="1093.777344" xlink:href="#DejaVuSans-43"/>
     <use x="1163.601562" xlink:href="#DejaVuSans-4d"/>
     <use x="1249.880859" xlink:href="#DejaVuSans-43"/>
     <use x="1319.705078" xlink:href="#DejaVuSans-20"/>
     <use x="1351.492188" xlink:href="#DejaVuSans-55"/>
     <use x="1424.685547" xlink:href="#DejaVuSans-6e"/>
     <use x="1488.064453" xlink:href="#DejaVuSans-63"/>
     <use x="1543.044922" xlink:href="#DejaVuSans-65"/>
     <use x="1604.568359" xlink:href="#DejaVuSans-72"/>
     <use x="1645.681641" xlink:href="#DejaVuSans-74"/>
     <use x="1684.890625" xlink:href="#DejaVuSans-61"/>
     <use x="1746.169922" xlink:href="#DejaVuSans-69"/>
     <use x="1773.953125" xlink:href="#DejaVuSans-6e"/>
     <use x="1837.332031" xlink:href="#DejaVuSans-74"/>
     <use x="1876.541016" xlink:href="#DejaVuSans-79"/>
     <use x="1935.720703" xlink:href="#DejaVuSans-20"/>
    </g>
   </g>
   <g id="legend_1">
    <g id="patch_7">
     <path d="M 277.843437 108.1845 
L 407.72 108.1845 
Q 409.72 108.1845 409.72 106.1845 
L 409.72 48.472 
Q 409.72 46.472 407.72 46.472 
L 277.843437 46.472 
Q 275.843437 46.472 275.843437 48.472 
L 275.843437 106.1845 
Q 275.843437 108.1845 277.843437 108.1845 
z
" style="fill:#ffffff;opacity:0.8;stroke:#cccccc;stroke-linejoin:miter;"/>
    </g>
    <g id="line2d_18">
     <path d="M 279.843437 54.570438 
L 299.843437 54.570438 
" style="fill:none;stroke:#1f77b4;stroke-linecap:square;stroke-width:1.5;"/>
    </g>
    <g id="line2d_19"/>
    <g id="text_15">
     <!-- actual -->
     <defs>
      <path d="M 8.5 21.578125 
L 8.5 54.6875 
L 17.484375 54.6875 
L 17.484375 21.921875 
Q 17.484375 14.15625 20.5 10.265625 
Q 23.53125 6.390625 29.59375 6.390625 
Q 36.859375 6.390625 41.078125 11.03125 
Q 45.3125 15.671875 45.3125 23.6875 
L 45.3125 54.6875 
L 54.296875 54.6875 
L 54.296875 0 
L 45.3125 0 
L 45.3125 8.40625 
Q 42.046875 3.421875 37.71875 1 
Q 33.40625 -1.421875 27.6875 -1.421875 
Q 18.265625 -1.421875 13.375 4.4375 
Q 8.5 10.296875 8.5 21.578125 
z
M 31.109375 56 
z
" id="DejaVuSans-75"/>
     </defs>
     <g transform="translate(307.843437 58.070438)scale(0.1 -0.1)">
      <use xlink:href="#DejaVuSans-61"/>
      <use x="61.279297" xlink:href="#DejaVuSans-63"/>
      <use x="116.259766" xlink:href="#DejaVuSans-74"/>
      <use x="155.46875" xlink:href="#DejaVuSans-75"/>
      <use x="218.847656" xlink:href="#DejaVuSans-61"/>
      <use x="280.126953" xlink:href="#DejaVuSans-6c"/>
     </g>
    </g>
    <g id="line2d_20">
     <path d="M 279.843437 69.248563 
L 299.843437 69.248563 
" style="fill:none;stroke:#ff7f0e;stroke-linecap:square;stroke-width:1.5;"/>
    </g>
    <g id="line2d_21"/>
    <g id="text_16">
     <!-- pred. (mean) -->
     <defs>
      <path d="M 18.109375 8.203125 
L 18.109375 -20.796875 
L 9.078125 -20.796875 
L 9.078125 54.6875 
L 18.109375 54.6875 
L 18.109375 46.390625 
Q 20.953125 51.265625 25.265625 53.625 
Q 29.59375 56 35.59375 56 
Q 45.5625 56 51.78125 48.09375 
Q 58.015625 40.1875 58.015625 27.296875 
Q 58.015625 14.40625 51.78125 6.484375 
Q 45.5625 -1.421875 35.59375 -1.421875 
Q 29.59375 -1.421875 25.265625 0.953125 
Q 20.953125 3.328125 18.109375 8.203125 
z
M 48.6875 27.296875 
Q 48.6875 37.203125 44.609375 42.84375 
Q 40.53125 48.484375 33.40625 48.484375 
Q 26.265625 48.484375 22.1875 42.84375 
Q 18.109375 37.203125 18.109375 27.296875 
Q 18.109375 17.390625 22.1875 11.75 
Q 26.265625 6.109375 33.40625 6.109375 
Q 40.53125 6.109375 44.609375 11.75 
Q 48.6875 17.390625 48.6875 27.296875 
z
" id="DejaVuSans-70"/>
      <path d="M 45.40625 46.390625 
L 45.40625 75.984375 
L 54.390625 75.984375 
L 54.390625 0 
L 45.40625 0 
L 45.40625 8.203125 
Q 42.578125 3.328125 38.25 0.953125 
Q 33.9375 -1.421875 27.875 -1.421875 
Q 17.96875 -1.421875 11.734375 6.484375 
Q 5.515625 14.40625 5.515625 27.296875 
Q 5.515625 40.1875 11.734375 48.09375 
Q 17.96875 56 27.875 56 
Q 33.9375 56 38.25 53.625 
Q 42.578125 51.265625 45.40625 46.390625 
z
M 14.796875 27.296875 
Q 14.796875 17.390625 18.875 11.75 
Q 22.953125 6.109375 30.078125 6.109375 
Q 37.203125 6.109375 41.296875 11.75 
Q 45.40625 17.390625 45.40625 27.296875 
Q 45.40625 37.203125 41.296875 42.84375 
Q 37.203125 48.484375 30.078125 48.484375 
Q 22.953125 48.484375 18.875 42.84375 
Q 14.796875 37.203125 14.796875 27.296875 
z
" id="DejaVuSans-64"/>
      <path d="M 31 75.875 
Q 24.46875 64.65625 21.28125 53.65625 
Q 18.109375 42.671875 18.109375 31.390625 
Q 18.109375 20.125 21.3125 9.0625 
Q 24.515625 -2 31 -13.1875 
L 23.1875 -13.1875 
Q 15.875 -1.703125 12.234375 9.375 
Q 8.59375 20.453125 8.59375 31.390625 
Q 8.59375 42.28125 12.203125 53.3125 
Q 15.828125 64.359375 23.1875 75.875 
z
" id="DejaVuSans-28"/>
      <path d="M 52 44.1875 
Q 55.375 50.25 60.0625 53.125 
Q 64.75 56 71.09375 56 
Q 79.640625 56 84.28125 50.015625 
Q 88.921875 44.046875 88.921875 33.015625 
L 88.921875 0 
L 79.890625 0 
L 79.890625 32.71875 
Q 79.890625 40.578125 77.09375 44.375 
Q 74.3125 48.1875 68.609375 48.1875 
Q 61.625 48.1875 57.5625 43.546875 
Q 53.515625 38.921875 53.515625 30.90625 
L 53.515625 0 
L 44.484375 0 
L 44.484375 32.71875 
Q 44.484375 40.625 41.703125 44.40625 
Q 38.921875 48.1875 33.109375 48.1875 
Q 26.21875 48.1875 22.15625 43.53125 
Q 18.109375 38.875 18.109375 30.90625 
L 18.109375 0 
L 9.078125 0 
L 9.078125 54.6875 
L 18.109375 54.6875 
L 18.109375 46.1875 
Q 21.1875 51.21875 25.484375 53.609375 
Q 29.78125 56 35.6875 56 
Q 41.65625 56 45.828125 52.96875 
Q 50 49.953125 52 44.1875 
z
" id="DejaVuSans-6d"/>
      <path d="M 8.015625 75.875 
L 15.828125 75.875 
Q 23.140625 64.359375 26.78125 53.3125 
Q 30.421875 42.28125 30.421875 31.390625 
Q 30.421875 20.453125 26.78125 9.375 
Q 23.140625 -1.703125 15.828125 -13.1875 
L 8.015625 -13.1875 
Q 14.5 -2 17.703125 9.0625 
Q 20.90625 20.125 20.90625 31.390625 
Q 20.90625 42.671875 17.703125 53.65625 
Q 14.5 64.65625 8.015625 75.875 
z
" id="DejaVuSans-29"/>
     </defs>
     <g transform="translate(307.843437 72.748563)scale(0.1 -0.1)">
      <use xlink:href="#DejaVuSans-70"/>
      <use x="63.476562" xlink:href="#DejaVuSans-72"/>
      <use x="104.558594" xlink:href="#DejaVuSans-65"/>
      <use x="166.082031" xlink:href="#DejaVuSans-64"/>
      <use x="229.558594" xlink:href="#DejaVuSans-2e"/>
      <use x="261.345703" xlink:href="#DejaVuSans-20"/>
      <use x="293.132812" xlink:href="#DejaVuSans-28"/>
      <use x="332.146484" xlink:href="#DejaVuSans-6d"/>
      <use x="429.558594" xlink:href="#DejaVuSans-65"/>
      <use x="491.082031" xlink:href="#DejaVuSans-61"/>
      <use x="552.361328" xlink:href="#DejaVuSans-6e"/>
      <use x="615.740234" xlink:href="#DejaVuSans-29"/>
     </g>
    </g>
    <g id="line2d_22">
     <path d="M 279.843437 83.926688 
L 299.843437 83.926688 
" style="fill:none;stroke:#2ca02c;stroke-linecap:square;stroke-width:1.5;"/>
    </g>
    <g id="line2d_23"/>
    <g id="text_17">
     <!-- pred.(5th percen.) -->
     <defs>
      <path d="M 54.890625 33.015625 
L 54.890625 0 
L 45.90625 0 
L 45.90625 32.71875 
Q 45.90625 40.484375 42.875 44.328125 
Q 39.84375 48.1875 33.796875 48.1875 
Q 26.515625 48.1875 22.3125 43.546875 
Q 18.109375 38.921875 18.109375 30.90625 
L 18.109375 0 
L 9.078125 0 
L 9.078125 75.984375 
L 18.109375 75.984375 
L 18.109375 46.1875 
Q 21.34375 51.125 25.703125 53.5625 
Q 30.078125 56 35.796875 56 
Q 45.21875 56 50.046875 50.171875 
Q 54.890625 44.34375 54.890625 33.015625 
z
" id="DejaVuSans-68"/>
     </defs>
     <g transform="translate(307.843437 87.426688)scale(0.1 -0.1)">
      <use xlink:href="#DejaVuSans-70"/>
      <use x="63.476562" xlink:href="#DejaVuSans-72"/>
      <use x="104.558594" xlink:href="#DejaVuSans-65"/>
      <use x="166.082031" xlink:href="#DejaVuSans-64"/>
      <use x="229.558594" xlink:href="#DejaVuSans-2e"/>
      <use x="261.345703" xlink:href="#DejaVuSans-28"/>
      <use x="300.359375" xlink:href="#DejaVuSans-35"/>
      <use x="363.982422" xlink:href="#DejaVuSans-74"/>
      <use x="403.191406" xlink:href="#DejaVuSans-68"/>
      <use x="466.570312" xlink:href="#DejaVuSans-20"/>
      <use x="498.357422" xlink:href="#DejaVuSans-70"/>
      <use x="561.833984" xlink:href="#DejaVuSans-65"/>
      <use x="623.357422" xlink:href="#DejaVuSans-72"/>
      <use x="664.439453" xlink:href="#DejaVuSans-63"/>
      <use x="719.419922" xlink:href="#DejaVuSans-65"/>
      <use x="780.943359" xlink:href="#DejaVuSans-6e"/>
      <use x="844.322266" xlink:href="#DejaVuSans-2e"/>
      <use x="876.109375" xlink:href="#DejaVuSans-29"/>
     </g>
    </g>
    <g id="line2d_24">
     <path d="M 279.843437 98.604813 
L 299.843437 98.604813 
" style="fill:none;stroke:#d62728;stroke-linecap:square;stroke-width:1.5;"/>
    </g>
    <g id="line2d_25"/>
    <g id="text_18">
     <!-- pred.(95th percen.) -->
     <defs>
      <path d="M 10.984375 1.515625 
L 10.984375 10.5 
Q 14.703125 8.734375 18.5 7.8125 
Q 22.3125 6.890625 25.984375 6.890625 
Q 35.75 6.890625 40.890625 13.453125 
Q 46.046875 20.015625 46.78125 33.40625 
Q 43.953125 29.203125 39.59375 26.953125 
Q 35.25 24.703125 29.984375 24.703125 
Q 19.046875 24.703125 12.671875 31.3125 
Q 6.296875 37.9375 6.296875 49.421875 
Q 6.296875 60.640625 12.9375 67.421875 
Q 19.578125 74.21875 30.609375 74.21875 
Q 43.265625 74.21875 49.921875 64.515625 
Q 56.59375 54.828125 56.59375 36.375 
Q 56.59375 19.140625 48.40625 8.859375 
Q 40.234375 -1.421875 26.421875 -1.421875 
Q 22.703125 -1.421875 18.890625 -0.6875 
Q 15.09375 0.046875 10.984375 1.515625 
z
M 30.609375 32.421875 
Q 37.25 32.421875 41.125 36.953125 
Q 45.015625 41.5 45.015625 49.421875 
Q 45.015625 57.28125 41.125 61.84375 
Q 37.25 66.40625 30.609375 66.40625 
Q 23.96875 66.40625 20.09375 61.84375 
Q 16.21875 57.28125 16.21875 49.421875 
Q 16.21875 41.5 20.09375 36.953125 
Q 23.96875 32.421875 30.609375 32.421875 
z
" id="DejaVuSans-39"/>
     </defs>
     <g transform="translate(307.843437 102.104813)scale(0.1 -0.1)">
      <use xlink:href="#DejaVuSans-70"/>
      <use x="63.476562" xlink:href="#DejaVuSans-72"/>
      <use x="104.558594" xlink:href="#DejaVuSans-65"/>
      <use x="166.082031" xlink:href="#DejaVuSans-64"/>
      <use x="229.558594" xlink:href="#DejaVuSans-2e"/>
      <use x="261.345703" xlink:href="#DejaVuSans-28"/>
      <use x="300.359375" xlink:href="#DejaVuSans-39"/>
      <use x="363.982422" xlink:href="#DejaVuSans-35"/>
      <use x="427.605469" xlink:href="#DejaVuSans-74"/>
      <use x="466.814453" xlink:href="#DejaVuSans-68"/>
      <use x="530.193359" xlink:href="#DejaVuSans-20"/>
      <use x="561.980469" xlink:href="#DejaVuSans-70"/>
      <use x="625.457031" xlink:href="#DejaVuSans-65"/>
      <use x="686.980469" xlink:href="#DejaVuSans-72"/>
      <use x="728.0625" xlink:href="#DejaVuSans-63"/>
      <use x="783.042969" xlink:href="#DejaVuSans-65"/>
      <use x="844.566406" xlink:href="#DejaVuSans-6e"/>
      <use x="907.945312" xlink:href="#DejaVuSans-2e"/>
      <use x="939.732422" xlink:href="#DejaVuSans-29"/>
     </g>
    </g>
   </g>
  </g>
 </g>
 <defs>
  <clipPath id="pfc7e9dcb4d">
   <rect height="266.112" width="357.12" x="57.6" y="41.472"/>
  </clipPath>
 </defs>
</svg>
