<?xml version="1.0" encoding="utf-8" standalone="no"?>
<!DOCTYPE svg PUBLIC "-//W3C//DTD SVG 1.1//EN"
  "http://www.w3.org/Graphics/SVG/1.1/DTD/svg11.dtd">
<!-- Created with matplotlib (http://matplotlib.org/) -->
<svg height="345.6pt" version="1.1" viewBox="0 0 460.8 345.6" width="460.8pt" xmlns="http://www.w3.org/2000/svg" xmlns:xlink="http://www.w3.org/1999/xlink">
 <defs>
  <style type="text/css">
*{stroke-linecap:butt;stroke-linejoin:round;}
  </style>
 </defs>
 <g id="figure_1">
  <g id="patch_1">
   <path d="M 0 345.6 
L 460.8 345.6 
L 460.8 0 
L 0 0 
z
" style="fill:#ffffff;"/>
  </g>
  <g id="axes_1">
   <g id="patch_2">
    <path d="M 57.6 307.584 
L 414.72 307.584 
L 414.72 41.472 
L 57.6 41.472 
z
" style="fill:#ffffff;"/>
   </g>
   <g id="PolyCollection_1">
    <path clip-path="url(#p4065da7e7e)" d="M 73.832727 164.716965 
L 73.832727 277.224931 
L 74.92584 277.735393 
L 76.018953 277.773294 
L 77.112066 277.728115 
L 78.205179 276.884889 
L 79.298292 275.345356 
L 80.391405 273.309969 
L 81.484518 270.853389 
L 82.577631 265.888427 
L 83.670744 258.405764 
L 84.763857 245.904162 
L 85.85697 229.811136 
L 86.950083 227.05096 
L 88.043196 227.997052 
L 89.136309 230.262697 
L 90.229421 232.983923 
L 91.322534 234.052655 
L 92.415647 235.441725 
L 93.50876 237.642327 
L 94.601873 239.010362 
L 95.694986 239.145948 
L 96.788099 239.762937 
L 97.881212 240.08104 
L 98.974325 239.768012 
L 100.067438 238.6418 
L 101.160551 237.756617 
L 102.253664 237.492512 
L 103.346777 236.448348 
L 104.43989 235.316303 
L 105.533003 234.38306 
L 106.626116 233.203149 
L 107.719229 232.148859 
L 108.812342 229.774785 
L 109.905455 228.681328 
L 110.998567 229.551091 
L 112.09168 229.862067 
L 113.184793 229.304532 
L 114.277906 228.858255 
L 115.371019 228.975001 
L 116.464132 228.714176 
L 117.557245 228.341372 
L 118.650358 228.352582 
L 119.743471 230.218586 
L 120.836584 232.236417 
L 121.929697 232.105278 
L 123.02281 234.564124 
L 124.115923 240.674035 
L 125.209036 246.095919 
L 126.302149 248.939566 
L 127.395262 251.696478 
L 128.488375 257.158265 
L 129.581488 261.638253 
L 130.674601 263.091643 
L 131.767713 263.368037 
L 132.860826 264.61692 
L 133.953939 266.902817 
L 135.047052 268.517727 
L 136.140165 269.979308 
L 137.233278 272.58354 
L 138.326391 274.687057 
L 139.419504 275.217668 
L 140.512617 274.712067 
L 141.60573 274.513678 
L 142.698843 274.072706 
L 143.791956 273.120394 
L 144.885069 272.19032 
L 145.978182 270.672879 
L 147.071295 266.954447 
L 148.164408 261.63958 
L 149.257521 256.86943 
L 150.350634 253.602587 
L 151.443747 248.513302 
L 152.53686 242.734018 
L 153.629972 239.362562 
L 154.723085 235.31406 
L 155.816198 230.830496 
L 156.909311 227.977289 
L 158.002424 228.037068 
L 159.095537 228.007941 
L 160.18865 228.032605 
L 161.281763 227.884205 
L 162.374876 227.245856 
L 163.467989 228.364952 
L 164.561102 231.098069 
L 165.654215 233.852102 
L 166.747328 235.708489 
L 167.840441 236.800909 
L 168.933554 237.952324 
L 170.026667 237.620251 
L 171.11978 236.952614 
L 172.212893 237.2999 
L 173.306006 237.327808 
L 174.399118 236.866589 
L 175.492231 235.651781 
L 176.585344 234.31535 
L 177.678457 233.069184 
L 178.77157 231.151471 
L 179.864683 229.410109 
L 180.957796 228.496227 
L 182.050909 227.977759 
L 183.144022 227.829923 
L 184.237135 227.940224 
L 185.330248 227.913262 
L 186.423361 227.739828 
L 187.516474 227.710006 
L 188.609587 227.924655 
L 189.7027 228.156794 
L 190.795813 228.046437 
L 191.888926 228.389916 
L 192.982039 228.478039 
L 194.075152 228.497249 
L 195.168264 229.12782 
L 196.261377 229.670995 
L 197.35449 229.926034 
L 198.447603 232.118552 
L 199.540716 234.225353 
L 200.633829 236.596445 
L 201.726942 237.180253 
L 202.820055 238.446674 
L 203.913168 243.263155 
L 205.006281 248.574868 
L 206.099394 253.002876 
L 207.192507 256.770384 
L 208.28562 261.189424 
L 209.378733 265.040885 
L 210.471846 266.744877 
L 211.564959 267.515741 
L 212.658072 269.131968 
L 213.751185 271.356409 
L 214.844298 273.631631 
L 215.93741 275.511953 
L 217.030523 277.442193 
L 218.123636 278.995838 
L 219.216749 279.924824 
L 220.309862 280.423629 
L 221.402975 280.384017 
L 222.496088 280.238224 
L 223.589201 279.894165 
L 224.682314 279.413344 
L 225.775427 278.516299 
L 226.86854 277.1661 
L 227.961653 275.013942 
L 229.054766 272.285829 
L 230.147879 267.929112 
L 231.240992 263.193813 
L 232.334105 257.419618 
L 233.427218 250.568716 
L 234.520331 244.300239 
L 235.613444 235.481593 
L 236.706556 229.182303 
L 237.799669 227.692893 
L 238.892782 227.217529 
L 239.985895 227.453894 
L 241.079008 228.608367 
L 242.172121 229.753326 
L 243.265234 230.865234 
L 244.358347 231.555656 
L 245.45146 231.648458 
L 246.544573 231.773182 
L 247.637686 232.328007 
L 248.730799 232.137189 
L 249.823912 231.867773 
L 250.917025 231.706353 
L 252.010138 231.564923 
L 253.103251 231.241622 
L 254.196364 230.066097 
L 255.289477 229.30759 
L 256.38259 228.55834 
L 257.475702 228.115179 
L 258.568815 227.983353 
L 259.661928 227.808361 
L 260.755041 227.910767 
L 261.848154 228.388751 
L 262.941267 228.884366 
L 264.03438 229.270538 
L 265.127493 228.680876 
L 266.220606 230.345251 
L 267.313719 233.357258 
L 268.406832 235.753704 
L 269.499945 237.502521 
L 270.593058 237.971369 
L 271.686171 238.67234 
L 272.779284 238.650032 
L 273.872397 236.648131 
L 274.96551 234.634334 
L 276.058623 234.397344 
L 277.151736 235.792939 
L 278.244848 238.660986 
L 279.337961 242.16811 
L 280.431074 246.579815 
L 281.524187 250.517807 
L 282.6173 254.743066 
L 283.710413 257.742477 
L 284.803526 259.98125 
L 285.896639 262.918852 
L 286.989752 266.248878 
L 288.082865 268.501173 
L 289.175978 270.661697 
L 290.269091 273.965085 
L 291.362204 276.494904 
L 292.455317 278.088074 
L 293.54843 278.998211 
L 294.641543 279.301684 
L 295.734656 278.530632 
L 296.827769 277.057165 
L 297.920882 274.694792 
L 299.013994 271.658405 
L 300.107107 267.646963 
L 301.20022 262.296548 
L 302.293333 253.845949 
L 303.386446 243.493293 
L 304.479559 234.544854 
L 305.572672 228.500921 
L 306.665785 227.376234 
L 307.758898 227.383005 
L 308.852011 227.364899 
L 309.945124 227.931946 
L 311.038237 230.011874 
L 312.13135 233.344197 
L 313.224463 235.336078 
L 314.317576 237.127195 
L 315.410689 238.719145 
L 316.503802 239.30781 
L 317.596915 239.335461 
L 318.690028 239.0215 
L 319.78314 238.152527 
L 320.876253 237.008977 
L 321.969366 235.737265 
L 323.062479 234.945089 
L 324.155592 234.036533 
L 325.248705 232.758694 
L 326.341818 232.611604 
L 327.434931 232.835702 
L 328.528044 233.21674 
L 329.621157 233.236951 
L 330.71427 233.011593 
L 331.807383 231.907677 
L 332.900496 230.051922 
L 333.993609 228.671204 
L 335.086722 228.30303 
L 336.179835 229.209781 
L 337.272948 230.900494 
L 338.366061 230.884318 
L 339.459174 231.025619 
L 340.552287 232.805479 
L 341.645399 236.510447 
L 342.738512 243.820757 
L 343.831625 249.171614 
L 344.924738 253.775635 
L 346.017851 261.39765 
L 347.110964 266.44822 
L 348.204077 269.146614 
L 349.29719 270.518732 
L 350.390303 272.007844 
L 351.483416 273.73321 
L 352.576529 274.688801 
L 353.669642 274.831363 
L 354.762755 274.775506 
L 355.855868 275.159829 
L 356.948981 274.9844 
L 358.042094 274.440347 
L 359.135207 273.754466 
L 360.22832 273.931456 
L 361.321433 274.401503 
L 362.414545 275.173178 
L 363.507658 276.482827 
L 364.600771 277.664936 
L 365.693884 278.702929 
L 366.786997 279.513434 
L 367.88011 280.199042 
L 368.973223 280.7277 
L 370.066336 280.933962 
L 371.159449 281.061521 
L 372.252562 280.712858 
L 373.345675 279.979135 
L 374.438788 279.049026 
L 375.531901 277.275628 
L 376.625014 274.945508 
L 377.718127 272.425747 
L 378.81124 268.804355 
L 379.904353 263.765308 
L 380.997466 257.057403 
L 382.090579 252.577389 
L 383.183691 247.194003 
L 384.276804 240.149505 
L 385.369917 234.017764 
L 386.46303 231.140028 
L 387.556143 229.655138 
L 388.649256 228.920182 
L 389.742369 228.08319 
L 390.835482 228.088891 
L 391.928595 229.309945 
L 393.021708 228.659482 
L 394.114821 228.292833 
L 395.207934 228.68612 
L 396.301047 229.914586 
L 397.39416 229.5061 
L 398.487273 228.223868 
L 398.487273 166.186755 
L 398.487273 166.186755 
L 397.39416 167.631863 
L 396.301047 167.402098 
L 395.207934 165.690842 
L 394.114821 165.221188 
L 393.021708 166.254371 
L 391.928595 165.775348 
L 390.835482 163.872946 
L 389.742369 165.000803 
L 388.649256 167.499345 
L 387.556143 168.611264 
L 386.46303 169.655835 
L 385.369917 170.279775 
L 384.276804 170.507142 
L 383.183691 170.909626 
L 382.090579 170.683055 
L 380.997466 170.145355 
L 379.904353 169.415808 
L 378.81124 167.485985 
L 377.718127 166.4341 
L 376.625014 165.394244 
L 375.531901 164.352672 
L 374.438788 163.605351 
L 373.345675 163.270808 
L 372.252562 163.080114 
L 371.159449 162.895257 
L 370.066336 162.983126 
L 368.973223 163.25906 
L 367.88011 163.468582 
L 366.786997 163.781873 
L 365.693884 164.124877 
L 364.600771 164.589212 
L 363.507658 165.216905 
L 362.414545 165.633369 
L 361.321433 166.109103 
L 360.22832 166.052851 
L 359.135207 166.00805 
L 358.042094 165.774666 
L 356.948981 165.440216 
L 355.855868 165.726093 
L 354.762755 165.637506 
L 353.669642 165.729985 
L 352.576529 165.762541 
L 351.483416 166.482009 
L 350.390303 167.112986 
L 349.29719 167.515468 
L 348.204077 168.088395 
L 347.110964 169.100391 
L 346.017851 170.338715 
L 344.924738 171.111512 
L 343.831625 171.230615 
L 342.738512 171.20988 
L 341.645399 170.844838 
L 340.552287 170.117817 
L 339.459174 169.634242 
L 338.366061 169.345372 
L 337.272948 167.902545 
L 336.179835 164.186319 
L 335.086722 158.758528 
L 333.993609 147.404197 
L 332.900496 135.602519 
L 331.807383 124.291592 
L 330.71427 119.314411 
L 329.621157 117.826151 
L 328.528044 117.983826 
L 327.434931 119.946042 
L 326.341818 121.209217 
L 325.248705 119.359357 
L 324.155592 112.677566 
L 323.062479 108.620837 
L 321.969366 103.462524 
L 320.876253 97.160784 
L 319.78314 92.186372 
L 318.690028 88.670632 
L 317.596915 86.127803 
L 316.503802 85.742128 
L 315.410689 87.903241 
L 314.317576 93.73404 
L 313.224463 103.40495 
L 312.13135 113.280586 
L 311.038237 122.879743 
L 309.945124 145.347672 
L 308.852011 153.525498 
L 307.758898 156.921445 
L 306.665785 160.19519 
L 305.572672 166.697727 
L 304.479559 170.164282 
L 303.386446 170.662968 
L 302.293333 170.605816 
L 301.20022 169.620261 
L 300.107107 168.057794 
L 299.013994 166.673885 
L 297.920882 165.424748 
L 296.827769 164.541858 
L 295.734656 163.85507 
L 294.641543 163.831865 
L 293.54843 163.975837 
L 292.455317 164.511109 
L 291.362204 165.169771 
L 290.269091 166.772234 
L 289.175978 167.71164 
L 288.082865 168.363792 
L 286.989752 169.075666 
L 285.896639 169.892196 
L 284.803526 170.220373 
L 283.710413 170.457533 
L 282.6173 170.899032 
L 281.524187 171.126251 
L 280.431074 170.982261 
L 279.337961 171.144033 
L 278.244848 170.775347 
L 277.151736 170.728431 
L 276.058623 170.481552 
L 274.96551 170.404908 
L 273.872397 170.63903 
L 272.779284 170.751671 
L 271.686171 170.831691 
L 270.593058 170.767434 
L 269.499945 170.663145 
L 268.406832 170.60661 
L 267.313719 170.088821 
L 266.220606 168.271943 
L 265.127493 166.367019 
L 264.03438 166.263278 
L 262.941267 164.934537 
L 261.848154 162.29824 
L 260.755041 159.913567 
L 259.661928 158.50904 
L 258.568815 156.724657 
L 257.475702 150.624191 
L 256.38259 146.427516 
L 255.289477 141.019222 
L 254.196364 135.063819 
L 253.103251 129.046622 
L 252.010138 127.151454 
L 250.917025 126.054621 
L 249.823912 125.452557 
L 248.730799 123.534394 
L 247.637686 123.160465 
L 246.544573 125.198557 
L 245.45146 126.680588 
L 244.358347 127.007402 
L 243.265234 129.811323 
L 242.172121 134.949575 
L 241.079008 141.523242 
L 239.985895 149.293748 
L 238.892782 157.430931 
L 237.799669 163.777295 
L 236.706556 168.298429 
L 235.613444 170.258457 
L 234.520331 170.682755 
L 233.427218 170.953523 
L 232.334105 170.298894 
L 231.240992 169.298553 
L 230.147879 168.014958 
L 229.054766 166.45731 
L 227.961653 165.232799 
L 226.86854 164.488194 
L 225.775427 163.881821 
L 224.682314 163.726771 
L 223.589201 163.369577 
L 222.496088 163.401211 
L 221.402975 163.234199 
L 220.309862 163.248329 
L 219.216749 163.546504 
L 218.123636 164.100023 
L 217.030523 164.765965 
L 215.93741 165.670091 
L 214.844298 166.627908 
L 213.751185 167.445255 
L 212.658072 168.157374 
L 211.564959 168.509022 
L 210.471846 168.789076 
L 209.378733 169.33565 
L 208.28562 170.230124 
L 207.192507 170.649581 
L 206.099394 170.940507 
L 205.006281 171.064117 
L 203.913168 171.142564 
L 202.820055 170.833215 
L 201.726942 170.676225 
L 200.633829 170.652145 
L 199.540716 170.464114 
L 198.447603 169.817112 
L 197.35449 168.358486 
L 196.261377 167.240115 
L 195.168264 166.286966 
L 194.075152 165.097058 
L 192.982039 164.620947 
L 191.888926 163.597235 
L 190.795813 161.893311 
L 189.7027 161.705375 
L 188.609587 160.180839 
L 187.516474 159.349067 
L 186.423361 159.274246 
L 185.330248 159.430489 
L 184.237135 158.318888 
L 183.144022 154.074003 
L 182.050909 151.809594 
L 180.957796 147.425641 
L 179.864683 139.781005 
L 178.77157 128.089305 
L 177.678457 118.262549 
L 176.585344 111.371373 
L 175.492231 103.703124 
L 174.399118 98.822953 
L 173.306006 96.241228 
L 172.212893 95.874162 
L 171.11978 96.844872 
L 170.026667 94.525229 
L 168.933554 93.086735 
L 167.840441 96.310787 
L 166.747328 103.000246 
L 165.654215 110.704484 
L 164.561102 121.230854 
L 163.467989 136.107056 
L 162.374876 154.795776 
L 161.281763 161.027372 
L 160.18865 162.163058 
L 159.095537 162.451274 
L 158.002424 163.875506 
L 156.909311 166.176092 
L 155.816198 169.074876 
L 154.723085 170.497602 
L 153.629972 170.871061 
L 152.53686 170.585151 
L 151.443747 170.93634 
L 150.350634 170.714775 
L 149.257521 170.151395 
L 148.164408 169.853964 
L 147.071295 168.288749 
L 145.978182 167.023758 
L 144.885069 166.50021 
L 143.791956 166.157658 
L 142.698843 165.835172 
L 141.60573 165.75506 
L 140.512617 165.713213 
L 139.419504 165.39982 
L 138.326391 165.934594 
L 137.233278 167.121262 
L 136.140165 167.831756 
L 135.047052 168.22591 
L 133.953939 168.86988 
L 132.860826 169.510336 
L 131.767713 169.677226 
L 130.674601 169.618426 
L 129.581488 170.21443 
L 128.488375 170.660252 
L 127.395262 171.185604 
L 126.302149 170.95549 
L 125.209036 171.067857 
L 124.115923 171.110708 
L 123.02281 170.472714 
L 121.929697 170.057505 
L 120.836584 169.553512 
L 119.743471 166.636829 
L 118.650358 161.803881 
L 117.557245 158.030425 
L 116.464132 147.78454 
L 115.371019 142.383961 
L 114.277906 142.30435 
L 113.184793 139.966409 
L 112.09168 136.527245 
L 110.998567 137.034167 
L 109.905455 142.568126 
L 108.812342 136.275126 
L 107.719229 123.775477 
L 106.626116 117.37467 
L 105.533003 111.454241 
L 104.43989 106.105122 
L 103.346777 99.60005 
L 102.253664 96.090949 
L 101.160551 93.414233 
L 100.067438 89.593068 
L 98.974325 85.558773 
L 97.881212 82.492859 
L 96.788099 82.972988 
L 95.694986 85.055948 
L 94.601873 87.383306 
L 93.50876 91.535255 
L 92.415647 101.481757 
L 91.322534 112.177717 
L 90.229421 116.876236 
L 89.136309 125.26361 
L 88.043196 140.897286 
L 86.950083 156.667921 
L 85.85697 167.42133 
L 84.763857 170.461554 
L 83.670744 169.911935 
L 82.577631 168.561021 
L 81.484518 166.893769 
L 80.391405 166.026319 
L 79.298292 165.297227 
L 78.205179 164.499438 
L 77.112066 164.443454 
L 76.018953 164.344687 
L 74.92584 164.432525 
L 73.832727 164.716965 
z
" style="fill:#008000;fill-opacity:0.4;"/>
   </g>
   <g id="matplotlib.axis_1">
    <g id="xtick_1">
     <g id="line2d_1">
      <defs>
       <path d="M 0 0 
L 0 3.5 
" id="m67e98b4009" style="stroke:#000000;stroke-width:0.8;"/>
      </defs>
      <g>
       <use style="stroke:#000000;stroke-width:0.8;" x="73.832727" xlink:href="#m67e98b4009" y="307.584"/>
      </g>
     </g>
     <g id="text_1">
      <!-- 0.0 -->
      <defs>
       <path d="M 31.78125 66.40625 
Q 24.171875 66.40625 20.328125 58.90625 
Q 16.5 51.421875 16.5 36.375 
Q 16.5 21.390625 20.328125 13.890625 
Q 24.171875 6.390625 31.78125 6.390625 
Q 39.453125 6.390625 43.28125 13.890625 
Q 47.125 21.390625 47.125 36.375 
Q 47.125 51.421875 43.28125 58.90625 
Q 39.453125 66.40625 31.78125 66.40625 
z
M 31.78125 74.21875 
Q 44.046875 74.21875 50.515625 64.515625 
Q 56.984375 54.828125 56.984375 36.375 
Q 56.984375 17.96875 50.515625 8.265625 
Q 44.046875 -1.421875 31.78125 -1.421875 
Q 19.53125 -1.421875 13.0625 8.265625 
Q 6.59375 17.96875 6.59375 36.375 
Q 6.59375 54.828125 13.0625 64.515625 
Q 19.53125 74.21875 31.78125 74.21875 
z
" id="DejaVuSans-30"/>
       <path d="M 10.6875 12.40625 
L 21 12.40625 
L 21 0 
L 10.6875 0 
z
" id="DejaVuSans-2e"/>
      </defs>
      <g transform="translate(65.881165 322.182437)scale(0.1 -0.1)">
       <use xlink:href="#DejaVuSans-30"/>
       <use x="63.623047" xlink:href="#DejaVuSans-2e"/>
       <use x="95.410156" xlink:href="#DejaVuSans-30"/>
      </g>
     </g>
    </g>
    <g id="xtick_2">
     <g id="line2d_2">
      <g>
       <use style="stroke:#000000;stroke-width:0.8;" x="138.763636" xlink:href="#m67e98b4009" y="307.584"/>
      </g>
     </g>
     <g id="text_2">
      <!-- 0.2 -->
      <defs>
       <path d="M 19.1875 8.296875 
L 53.609375 8.296875 
L 53.609375 0 
L 7.328125 0 
L 7.328125 8.296875 
Q 12.9375 14.109375 22.625 23.890625 
Q 32.328125 33.6875 34.8125 36.53125 
Q 39.546875 41.84375 41.421875 45.53125 
Q 43.3125 49.21875 43.3125 52.78125 
Q 43.3125 58.59375 39.234375 62.25 
Q 35.15625 65.921875 28.609375 65.921875 
Q 23.96875 65.921875 18.8125 64.3125 
Q 13.671875 62.703125 7.8125 59.421875 
L 7.8125 69.390625 
Q 13.765625 71.78125 18.9375 73 
Q 24.125 74.21875 28.421875 74.21875 
Q 39.75 74.21875 46.484375 68.546875 
Q 53.21875 62.890625 53.21875 53.421875 
Q 53.21875 48.921875 51.53125 44.890625 
Q 49.859375 40.875 45.40625 35.40625 
Q 44.1875 33.984375 37.640625 27.21875 
Q 31.109375 20.453125 19.1875 8.296875 
z
" id="DejaVuSans-32"/>
      </defs>
      <g transform="translate(130.812074 322.182437)scale(0.1 -0.1)">
       <use xlink:href="#DejaVuSans-30"/>
       <use x="63.623047" xlink:href="#DejaVuSans-2e"/>
       <use x="95.410156" xlink:href="#DejaVuSans-32"/>
      </g>
     </g>
    </g>
    <g id="xtick_3">
     <g id="line2d_3">
      <g>
       <use style="stroke:#000000;stroke-width:0.8;" x="203.694545" xlink:href="#m67e98b4009" y="307.584"/>
      </g>
     </g>
     <g id="text_3">
      <!-- 0.4 -->
      <defs>
       <path d="M 37.796875 64.3125 
L 12.890625 25.390625 
L 37.796875 25.390625 
z
M 35.203125 72.90625 
L 47.609375 72.90625 
L 47.609375 25.390625 
L 58.015625 25.390625 
L 58.015625 17.1875 
L 47.609375 17.1875 
L 47.609375 0 
L 37.796875 0 
L 37.796875 17.1875 
L 4.890625 17.1875 
L 4.890625 26.703125 
z
" id="DejaVuSans-34"/>
      </defs>
      <g transform="translate(195.742983 322.182437)scale(0.1 -0.1)">
       <use xlink:href="#DejaVuSans-30"/>
       <use x="63.623047" xlink:href="#DejaVuSans-2e"/>
       <use x="95.410156" xlink:href="#DejaVuSans-34"/>
      </g>
     </g>
    </g>
    <g id="xtick_4">
     <g id="line2d_4">
      <g>
       <use style="stroke:#000000;stroke-width:0.8;" x="268.625455" xlink:href="#m67e98b4009" y="307.584"/>
      </g>
     </g>
     <g id="text_4">
      <!-- 0.6 -->
      <defs>
       <path d="M 33.015625 40.375 
Q 26.375 40.375 22.484375 35.828125 
Q 18.609375 31.296875 18.609375 23.390625 
Q 18.609375 15.53125 22.484375 10.953125 
Q 26.375 6.390625 33.015625 6.390625 
Q 39.65625 6.390625 43.53125 10.953125 
Q 47.40625 15.53125 47.40625 23.390625 
Q 47.40625 31.296875 43.53125 35.828125 
Q 39.65625 40.375 33.015625 40.375 
z
M 52.59375 71.296875 
L 52.59375 62.3125 
Q 48.875 64.0625 45.09375 64.984375 
Q 41.3125 65.921875 37.59375 65.921875 
Q 27.828125 65.921875 22.671875 59.328125 
Q 17.53125 52.734375 16.796875 39.40625 
Q 19.671875 43.65625 24.015625 45.921875 
Q 28.375 48.1875 33.59375 48.1875 
Q 44.578125 48.1875 50.953125 41.515625 
Q 57.328125 34.859375 57.328125 23.390625 
Q 57.328125 12.15625 50.6875 5.359375 
Q 44.046875 -1.421875 33.015625 -1.421875 
Q 20.359375 -1.421875 13.671875 8.265625 
Q 6.984375 17.96875 6.984375 36.375 
Q 6.984375 53.65625 15.1875 63.9375 
Q 23.390625 74.21875 37.203125 74.21875 
Q 40.921875 74.21875 44.703125 73.484375 
Q 48.484375 72.75 52.59375 71.296875 
z
" id="DejaVuSans-36"/>
      </defs>
      <g transform="translate(260.673892 322.182437)scale(0.1 -0.1)">
       <use xlink:href="#DejaVuSans-30"/>
       <use x="63.623047" xlink:href="#DejaVuSans-2e"/>
       <use x="95.410156" xlink:href="#DejaVuSans-36"/>
      </g>
     </g>
    </g>
    <g id="xtick_5">
     <g id="line2d_5">
      <g>
       <use style="stroke:#000000;stroke-width:0.8;" x="333.556364" xlink:href="#m67e98b4009" y="307.584"/>
      </g>
     </g>
     <g id="text_5">
      <!-- 0.8 -->
      <defs>
       <path d="M 31.78125 34.625 
Q 24.75 34.625 20.71875 30.859375 
Q 16.703125 27.09375 16.703125 20.515625 
Q 16.703125 13.921875 20.71875 10.15625 
Q 24.75 6.390625 31.78125 6.390625 
Q 38.8125 6.390625 42.859375 10.171875 
Q 46.921875 13.96875 46.921875 20.515625 
Q 46.921875 27.09375 42.890625 30.859375 
Q 38.875 34.625 31.78125 34.625 
z
M 21.921875 38.8125 
Q 15.578125 40.375 12.03125 44.71875 
Q 8.5 49.078125 8.5 55.328125 
Q 8.5 64.0625 14.71875 69.140625 
Q 20.953125 74.21875 31.78125 74.21875 
Q 42.671875 74.21875 48.875 69.140625 
Q 55.078125 64.0625 55.078125 55.328125 
Q 55.078125 49.078125 51.53125 44.71875 
Q 48 40.375 41.703125 38.8125 
Q 48.828125 37.15625 52.796875 32.3125 
Q 56.78125 27.484375 56.78125 20.515625 
Q 56.78125 9.90625 50.3125 4.234375 
Q 43.84375 -1.421875 31.78125 -1.421875 
Q 19.734375 -1.421875 13.25 4.234375 
Q 6.78125 9.90625 6.78125 20.515625 
Q 6.78125 27.484375 10.78125 32.3125 
Q 14.796875 37.15625 21.921875 38.8125 
z
M 18.3125 54.390625 
Q 18.3125 48.734375 21.84375 45.5625 
Q 25.390625 42.390625 31.78125 42.390625 
Q 38.140625 42.390625 41.71875 45.5625 
Q 45.3125 48.734375 45.3125 54.390625 
Q 45.3125 60.0625 41.71875 63.234375 
Q 38.140625 66.40625 31.78125 66.40625 
Q 25.390625 66.40625 21.84375 63.234375 
Q 18.3125 60.0625 18.3125 54.390625 
z
" id="DejaVuSans-38"/>
      </defs>
      <g transform="translate(325.604801 322.182437)scale(0.1 -0.1)">
       <use xlink:href="#DejaVuSans-30"/>
       <use x="63.623047" xlink:href="#DejaVuSans-2e"/>
       <use x="95.410156" xlink:href="#DejaVuSans-38"/>
      </g>
     </g>
    </g>
    <g id="xtick_6">
     <g id="line2d_6">
      <g>
       <use style="stroke:#000000;stroke-width:0.8;" x="398.487273" xlink:href="#m67e98b4009" y="307.584"/>
      </g>
     </g>
     <g id="text_6">
      <!-- 1.0 -->
      <defs>
       <path d="M 12.40625 8.296875 
L 28.515625 8.296875 
L 28.515625 63.921875 
L 10.984375 60.40625 
L 10.984375 69.390625 
L 28.421875 72.90625 
L 38.28125 72.90625 
L 38.28125 8.296875 
L 54.390625 8.296875 
L 54.390625 0 
L 12.40625 0 
z
" id="DejaVuSans-31"/>
      </defs>
      <g transform="translate(390.53571 322.182437)scale(0.1 -0.1)">
       <use xlink:href="#DejaVuSans-31"/>
       <use x="63.623047" xlink:href="#DejaVuSans-2e"/>
       <use x="95.410156" xlink:href="#DejaVuSans-30"/>
      </g>
     </g>
    </g>
   </g>
   <g id="matplotlib.axis_2">
    <g id="ytick_1">
     <g id="line2d_7">
      <defs>
       <path d="M 0 0 
L -3.5 0 
" id="mbeab2c0664" style="stroke:#000000;stroke-width:0.8;"/>
      </defs>
      <g>
       <use style="stroke:#000000;stroke-width:0.8;" x="57.6" xlink:href="#mbeab2c0664" y="299.17887"/>
      </g>
     </g>
     <g id="text_7">
      <!-- 0.0 -->
      <g transform="translate(34.696875 302.978089)scale(0.1 -0.1)">
       <use xlink:href="#DejaVuSans-30"/>
       <use x="63.623047" xlink:href="#DejaVuSans-2e"/>
       <use x="95.410156" xlink:href="#DejaVuSans-30"/>
      </g>
     </g>
    </g>
    <g id="ytick_2">
     <g id="line2d_8">
      <g>
       <use style="stroke:#000000;stroke-width:0.8;" x="57.6" xlink:href="#mbeab2c0664" y="249.553394"/>
      </g>
     </g>
     <g id="text_8">
      <!-- 0.2 -->
      <g transform="translate(34.696875 253.352613)scale(0.1 -0.1)">
       <use xlink:href="#DejaVuSans-30"/>
       <use x="63.623047" xlink:href="#DejaVuSans-2e"/>
       <use x="95.410156" xlink:href="#DejaVuSans-32"/>
      </g>
     </g>
    </g>
    <g id="ytick_3">
     <g id="line2d_9">
      <g>
       <use style="stroke:#000000;stroke-width:0.8;" x="57.6" xlink:href="#mbeab2c0664" y="199.927919"/>
      </g>
     </g>
     <g id="text_9">
      <!-- 0.4 -->
      <g transform="translate(34.696875 203.727138)scale(0.1 -0.1)">
       <use xlink:href="#DejaVuSans-30"/>
       <use x="63.623047" xlink:href="#DejaVuSans-2e"/>
       <use x="95.410156" xlink:href="#DejaVuSans-34"/>
      </g>
     </g>
    </g>
    <g id="ytick_4">
     <g id="line2d_10">
      <g>
       <use style="stroke:#000000;stroke-width:0.8;" x="57.6" xlink:href="#mbeab2c0664" y="150.302443"/>
      </g>
     </g>
     <g id="text_10">
      <!-- 0.6 -->
      <g transform="translate(34.696875 154.101662)scale(0.1 -0.1)">
       <use xlink:href="#DejaVuSans-30"/>
       <use x="63.623047" xlink:href="#DejaVuSans-2e"/>
       <use x="95.410156" xlink:href="#DejaVuSans-36"/>
      </g>
     </g>
    </g>
    <g id="ytick_5">
     <g id="line2d_11">
      <g>
       <use style="stroke:#000000;stroke-width:0.8;" x="57.6" xlink:href="#mbeab2c0664" y="100.676968"/>
      </g>
     </g>
     <g id="text_11">
      <!-- 0.8 -->
      <g transform="translate(34.696875 104.476186)scale(0.1 -0.1)">
       <use xlink:href="#DejaVuSans-30"/>
       <use x="63.623047" xlink:href="#DejaVuSans-2e"/>
       <use x="95.410156" xlink:href="#DejaVuSans-38"/>
      </g>
     </g>
    </g>
    <g id="ytick_6">
     <g id="line2d_12">
      <g>
       <use style="stroke:#000000;stroke-width:0.8;" x="57.6" xlink:href="#mbeab2c0664" y="51.051492"/>
      </g>
     </g>
     <g id="text_12">
      <!-- 1.0 -->
      <g transform="translate(34.696875 54.850711)scale(0.1 -0.1)">
       <use xlink:href="#DejaVuSans-31"/>
       <use x="63.623047" xlink:href="#DejaVuSans-2e"/>
       <use x="95.410156" xlink:href="#DejaVuSans-30"/>
      </g>
     </g>
    </g>
   </g>
   <g id="line2d_13">
    <path clip-path="url(#p4065da7e7e)" d="M 73.832727 286.596355 
L 74.92584 286.764114 
L 76.018953 286.093054 
L 77.112066 285.086451 
L 78.205179 278.711289 
L 79.298292 276.194781 
L 80.391405 269.316244 
L 81.484518 258.411542 
L 82.577631 245.661268 
L 83.670744 224.522553 
L 84.763857 206.739263 
L 85.85697 186.607201 
L 88.043196 142.65218 
L 89.136309 124.868891 
L 90.229421 119.332673 
L 91.322534 104.40136 
L 92.415647 76.719773 
L 93.50876 67.324926 
L 94.601873 65.143887 
L 95.694986 54.574653 
L 96.788099 53.568 
L 97.881212 61.78846 
L 98.974325 79.571997 
L 100.067438 85.779152 
L 101.160551 87.456989 
L 102.253664 103.394707 
L 105.533003 130.405357 
L 106.626116 142.484446 
L 107.719229 161.609856 
L 108.812342 163.95863 
L 109.905455 152.047275 
L 110.998567 154.396049 
L 112.09168 159.932267 
L 113.184793 161.945572 
L 114.277906 159.932267 
L 115.371019 168.991645 
L 116.464132 184.761877 
L 117.557245 189.962627 
L 118.650358 202.712901 
L 119.743471 213.953319 
L 120.836584 215.463174 
L 121.929697 220.328456 
L 124.115923 236.433907 
L 125.209036 238.614947 
L 126.302149 241.131455 
L 127.395262 250.52655 
L 128.488375 256.398236 
L 129.581488 259.250212 
L 130.674601 257.069421 
L 131.767713 260.92805 
L 132.860826 265.289881 
L 135.047052 269.819694 
L 137.233278 280.892279 
L 138.326391 280.892279 
L 139.419504 278.54353 
L 140.512617 279.550133 
L 141.60573 277.704686 
L 142.698843 275.188178 
L 143.791956 274.684901 
L 144.885069 269.819694 
L 147.071295 251.532955 
L 148.164408 247.674326 
L 149.257521 242.64131 
L 150.350634 234.588584 
L 151.443747 229.555568 
L 152.53686 225.361471 
L 153.629972 220.49619 
L 154.723085 214.288787 
L 155.816198 200.867329 
L 156.909311 196.337764 
L 158.002424 193.150071 
L 159.095537 192.143419 
L 160.18865 190.298095 
L 161.281763 182.077387 
L 164.561102 115.809512 
L 167.840441 77.89416 
L 168.933554 90.141231 
L 170.026667 93.496658 
L 171.11978 88.79911 
L 172.212893 89.470047 
L 173.306006 96.1809 
L 174.399118 112.622068 
L 175.492231 122.352383 
L 176.585344 133.257333 
L 177.678457 151.543825 
L 178.77157 160.435469 
L 179.864683 167.984993 
L 180.957796 174.695846 
L 182.050909 176.205701 
L 183.144022 184.929611 
L 184.237135 186.607201 
L 185.330248 187.110403 
L 186.423361 186.607201 
L 187.516474 187.781587 
L 188.609587 191.304748 
L 189.7027 191.640216 
L 190.795813 194.659926 
L 191.888926 197.176434 
L 194.075152 200.364127 
L 195.168264 205.564877 
L 196.261377 206.571529 
L 197.35449 213.785585 
L 198.447603 219.992739 
L 199.540716 224.522553 
L 200.633829 223.683634 
L 201.726942 225.361471 
L 203.913168 238.950415 
L 205.006281 244.319147 
L 206.099394 248.680979 
L 207.192507 256.230502 
L 208.28562 262.270171 
L 209.378733 264.45121 
L 210.471846 265.625349 
L 211.564959 268.309839 
L 213.751185 277.536927 
L 214.844298 281.731099 
L 215.93741 286.596355 
L 217.030523 290.119442 
L 218.123636 292.803733 
L 219.216749 293.810336 
L 220.309862 293.139251 
L 221.402975 292.635949 
L 222.496088 292.300432 
L 223.589201 289.951683 
L 224.682314 288.777321 
L 225.775427 283.744305 
L 226.86854 279.717892 
L 229.054766 263.109089 
L 230.147879 255.559566 
L 231.240992 244.486881 
L 232.334105 238.782681 
L 233.427218 229.2201 
L 234.520331 217.811948 
L 235.613444 209.255771 
L 239.985895 160.603451 
L 242.172121 142.819914 
L 243.265234 141.813509 
L 244.358347 141.645775 
L 245.45146 138.961285 
L 246.544573 134.767188 
L 247.637686 138.961285 
L 248.730799 139.464736 
L 249.823912 141.981244 
L 250.917025 140.639123 
L 252.010138 147.181993 
L 253.103251 155.234719 
L 254.196364 159.764533 
L 255.289477 168.656177 
L 256.38259 170.501501 
L 257.475702 182.580838 
L 259.661928 187.278385 
L 262.941267 202.712901 
L 264.03438 200.867329 
L 265.127493 206.403795 
L 266.220606 216.13411 
L 267.313719 223.5159 
L 268.406832 225.361471 
L 269.499945 224.690287 
L 271.686171 226.703592 
L 272.779284 222.006045 
L 273.872397 220.999392 
L 274.96551 219.489537 
L 276.058623 222.173779 
L 277.151736 227.03906 
L 278.244848 229.891037 
L 279.337961 236.769624 
L 280.431074 240.124802 
L 281.524187 247.003389 
L 282.6173 250.52655 
L 283.710413 253.54626 
L 285.896639 263.94776 
L 286.989752 267.806389 
L 288.082865 270.994081 
L 289.175978 278.879073 
L 290.269091 284.583149 
L 291.362204 287.938476 
L 292.455317 290.119442 
L 293.54843 290.287225 
L 294.641543 288.609562 
L 295.734656 283.744305 
L 296.827769 278.040229 
L 299.013994 262.941107 
L 300.107107 252.371873 
L 302.293333 226.703592 
L 303.386446 219.657271 
L 304.479559 203.048369 
L 305.572672 190.298095 
L 306.665785 182.748572 
L 307.758898 177.547822 
L 308.852011 168.991645 
L 309.945124 142.148978 
L 311.038237 121.849181 
L 314.317576 67.828129 
L 315.410689 63.801766 
L 316.503802 64.976152 
L 317.596915 72.022474 
L 318.690028 82.256239 
L 319.78314 97.187304 
L 320.876253 109.769844 
L 321.969366 114.131923 
L 323.062479 126.378994 
L 324.155592 134.599454 
L 325.248705 134.263986 
L 326.341818 129.734172 
L 327.434931 128.224317 
L 328.528044 128.72752 
L 329.621157 130.069641 
L 330.71427 144.665485 
L 331.807383 156.409106 
L 333.993609 185.600548 
L 335.086722 194.659926 
L 336.179835 208.081384 
L 337.272948 211.940013 
L 338.366061 212.778932 
L 339.459174 216.973029 
L 340.552287 222.844963 
L 341.645399 233.749665 
L 342.738512 238.614947 
L 343.831625 244.486881 
L 344.924738 256.56597 
L 346.017851 264.786678 
L 347.110964 269.316244 
L 348.204077 271.161815 
L 349.29719 273.846057 
L 350.390303 278.207988 
L 351.483416 279.885676 
L 352.576529 279.046832 
L 353.669642 280.221194 
L 354.762755 279.382374 
L 355.855868 281.395581 
L 356.948981 277.201384 
L 358.042094 277.87247 
L 359.135207 277.536927 
L 360.22832 277.87247 
L 361.321433 281.395581 
L 362.414545 283.241003 
L 363.507658 287.099657 
L 364.600771 288.94508 
L 365.693884 291.293828 
L 366.786997 293.307035 
L 367.88011 294.145854 
L 368.973223 295.320241 
L 370.066336 295.488 
L 372.252562 292.132648 
L 373.345675 289.61614 
L 376.625014 272.67167 
L 377.718127 265.961065 
L 378.81124 252.875076 
L 379.904353 246.667921 
L 380.997466 241.466923 
L 382.090579 232.910995 
L 383.183691 226.032408 
L 384.276804 215.798642 
L 385.369917 215.463174 
L 386.46303 209.255771 
L 387.556143 205.732611 
L 388.649256 199.357474 
L 389.742369 194.492192 
L 390.835482 201.203045 
L 391.928595 202.20945 
L 393.021708 198.854272 
L 394.114821 198.518555 
L 395.207934 204.39049 
L 396.301047 207.745916 
L 397.39416 200.364127 
L 398.487273 198.854272 
L 398.487273 198.854272 
" style="fill:none;stroke:#1f77b4;stroke-linecap:square;stroke-width:1.5;"/>
   </g>
   <g id="line2d_14">
    <path clip-path="url(#p4065da7e7e)" d="M 73.832727 234.328128 
L 74.92584 234.56791 
L 77.112066 234.516349 
L 78.205179 233.984947 
L 79.298292 232.806459 
L 80.391405 231.833511 
L 81.484518 229.62592 
L 82.577631 226.253175 
L 83.670744 220.926006 
L 85.85697 202.53472 
L 89.136309 170.840058 
L 90.229421 165.006183 
L 91.322534 162.096899 
L 93.50876 153.53131 
L 94.601873 151.717629 
L 96.788099 149.927927 
L 97.881212 149.745317 
L 98.974325 151.057055 
L 100.067438 153.322996 
L 101.160551 154.248095 
L 102.253664 155.504719 
L 104.43989 160.54055 
L 105.533003 163.455974 
L 106.626116 165.798363 
L 107.719229 170.477782 
L 108.812342 176.863691 
L 109.905455 177.704365 
L 110.998567 175.227671 
L 112.09168 175.068646 
L 113.184793 177.00917 
L 114.277906 177.840359 
L 115.371019 178.024401 
L 116.464132 182.164352 
L 117.557245 188.54842 
L 118.650358 193.156415 
L 120.836584 204.882449 
L 123.02281 209.447725 
L 124.115923 213.419711 
L 125.209036 216.704703 
L 127.395262 219.924367 
L 128.488375 222.92731 
L 129.581488 225.466157 
L 130.674601 226.079178 
L 131.767713 226.259882 
L 132.860826 227.20657 
L 133.953939 228.515861 
L 136.140165 230.191256 
L 137.233278 231.714467 
L 138.326391 232.949189 
L 139.419504 233.081564 
L 140.512617 232.730103 
L 141.60573 232.688215 
L 142.698843 232.367164 
L 144.885069 231.272921 
L 145.978182 229.896558 
L 147.071295 227.21081 
L 148.164408 224.217212 
L 150.350634 220.067883 
L 151.443747 216.824785 
L 152.53686 214.183148 
L 153.629972 212.21238 
L 154.723085 209.472095 
L 155.816198 205.372504 
L 156.909311 200.195059 
L 158.002424 196.430268 
L 159.095537 194.621587 
L 160.18865 194.121546 
L 161.281763 192.987417 
L 162.374876 187.791039 
L 164.561102 168.654851 
L 165.654215 162.291643 
L 166.747328 158.260096 
L 167.840441 155.401684 
L 168.933554 154.103483 
L 170.026667 155.270222 
L 171.11978 155.637024 
L 172.212893 155.186729 
L 173.306006 155.311394 
L 174.399118 157.032289 
L 176.585344 163.302007 
L 177.678457 167.409819 
L 179.864683 177.570082 
L 180.957796 181.159695 
L 182.050909 183.805488 
L 183.144022 185.797237 
L 184.237135 189.071377 
L 185.330248 190.927797 
L 186.423361 190.85369 
L 187.516474 191.011138 
L 188.609587 191.73383 
L 189.7027 193.085733 
L 190.795813 193.643281 
L 191.888926 195.293413 
L 192.982039 196.591815 
L 194.075152 197.409833 
L 197.35449 202.473227 
L 199.540716 208.950242 
L 200.633829 211.015528 
L 201.726942 211.250076 
L 202.820055 212.34466 
L 206.099394 220.624922 
L 207.192507 222.734611 
L 208.28562 225.253347 
L 209.378733 227.447748 
L 210.471846 228.343293 
L 211.564959 228.773282 
L 212.658072 229.720562 
L 214.844298 232.316267 
L 217.030523 234.527899 
L 218.123636 235.411288 
L 219.216749 235.923409 
L 220.309862 236.146359 
L 222.496088 235.994973 
L 223.589201 235.786614 
L 224.682314 235.436383 
L 225.775427 234.909339 
L 226.86854 233.980606 
L 227.961653 232.689947 
L 229.054766 230.577116 
L 230.147879 227.987881 
L 231.240992 225.032743 
L 233.427218 218.202714 
L 234.520331 214.069399 
L 237.799669 197.347992 
L 239.985895 184.102905 
L 241.079008 178.176934 
L 242.172121 173.781745 
L 243.265234 170.915427 
L 244.358347 169.752274 
L 245.45146 169.66948 
L 246.544573 168.591402 
L 247.637686 167.786508 
L 248.730799 168.553101 
L 250.917025 169.624104 
L 252.010138 169.873343 
L 253.103251 171.754226 
L 256.38259 180.570283 
L 257.475702 183.243506 
L 258.568815 187.361394 
L 259.661928 189.979906 
L 260.755041 191.347062 
L 261.848154 193.674463 
L 262.941267 196.803465 
L 264.03438 198.826298 
L 265.127493 199.414519 
L 266.220606 202.208662 
L 267.313719 206.785782 
L 268.406832 210.260898 
L 269.499945 211.586224 
L 270.593058 211.826688 
L 271.686171 212.326384 
L 272.779284 212.050461 
L 273.872397 210.635575 
L 274.96551 209.572964 
L 276.058623 209.462092 
L 277.151736 210.549795 
L 278.244848 212.348554 
L 280.431074 217.00337 
L 282.6173 221.572398 
L 283.710413 223.22461 
L 284.803526 224.548195 
L 286.989752 228.12787 
L 289.175978 230.590712 
L 290.269091 232.501956 
L 291.362204 234.000005 
L 292.455317 234.859606 
L 293.54843 235.345016 
L 294.641543 235.459046 
L 295.734656 234.914617 
L 296.827769 233.917777 
L 297.920882 232.361324 
L 299.013994 230.30475 
L 300.107107 227.784037 
L 301.20022 223.945089 
L 304.479559 208.522471 
L 306.665785 193.431529 
L 307.758898 189.399497 
L 308.852011 186.170186 
L 309.945124 180.581624 
L 311.038237 171.040006 
L 312.13135 163.591938 
L 313.224463 158.625399 
L 314.317576 154.390005 
L 315.410689 151.935931 
L 316.503802 151.094545 
L 317.596915 151.22137 
L 318.690028 152.3219 
L 319.78314 154.16434 
L 321.969366 159.460039 
L 323.062479 161.224118 
L 324.155592 164.422906 
L 325.248705 166.460345 
L 326.341818 166.784853 
L 327.434931 165.778844 
L 328.528044 165.094821 
L 329.621157 165.152768 
L 330.71427 166.406468 
L 331.807383 170.632075 
L 332.900496 175.848119 
L 336.179835 195.44615 
L 337.272948 201.45216 
L 338.366061 204.622372 
L 339.459174 205.66564 
L 340.552287 207.566802 
L 341.645399 210.860724 
L 342.738512 215.347512 
L 343.831625 218.426332 
L 344.924738 221.085141 
L 346.017851 225.14335 
L 347.110964 228.22148 
L 348.204077 229.766025 
L 349.29719 230.477641 
L 350.390303 231.334096 
L 351.483416 232.365909 
L 352.576529 232.835115 
L 354.762755 232.84537 
L 355.855868 233.04584 
L 356.948981 232.986675 
L 358.042094 232.478899 
L 359.135207 232.260375 
L 360.22832 232.354915 
L 361.321433 232.645012 
L 362.414545 233.169607 
L 364.600771 234.623234 
L 366.786997 235.67397 
L 368.973223 236.347501 
L 371.159449 236.478821 
L 372.252562 236.236729 
L 373.345675 235.779831 
L 374.438788 235.171436 
L 375.531901 233.97894 
L 376.625014 232.595024 
L 377.718127 230.960616 
L 378.81124 228.375107 
L 379.904353 224.881503 
L 380.997466 221.968971 
L 382.090579 219.413493 
L 383.183691 216.045276 
L 384.276804 211.966377 
L 385.369917 208.403903 
L 388.649256 201.485526 
L 389.742369 197.999161 
L 390.835482 196.404442 
L 391.928595 198.121773 
L 393.021708 199.038162 
L 394.114821 197.967721 
L 395.207934 198.203536 
L 396.301047 200.681221 
L 397.39416 201.264078 
L 398.487273 199.502447 
L 398.487273 199.502447 
" style="fill:none;stroke:#ff7f0e;stroke-linecap:square;stroke-width:1.5;"/>
   </g>
   <g id="line2d_15">
    <path clip-path="url(#p4065da7e7e)" d="M 73.832727 277.224931 
L 74.92584 277.735393 
L 77.112066 277.728115 
L 78.205179 276.884889 
L 79.298292 275.345356 
L 80.391405 273.309969 
L 81.484518 270.853389 
L 82.577631 265.888427 
L 83.670744 258.405764 
L 84.763857 245.904162 
L 85.85697 229.811136 
L 86.950083 227.05096 
L 88.043196 227.997052 
L 89.136309 230.262697 
L 90.229421 232.983923 
L 91.322534 234.052655 
L 92.415647 235.441725 
L 93.50876 237.642327 
L 94.601873 239.010362 
L 95.694986 239.145948 
L 96.788099 239.762937 
L 97.881212 240.08104 
L 98.974325 239.768012 
L 100.067438 238.6418 
L 101.160551 237.756617 
L 102.253664 237.492512 
L 107.719229 232.148859 
L 108.812342 229.774785 
L 109.905455 228.681328 
L 110.998567 229.551091 
L 112.09168 229.862067 
L 114.277906 228.858255 
L 115.371019 228.975001 
L 117.557245 228.341372 
L 118.650358 228.352582 
L 120.836584 232.236417 
L 121.929697 232.105278 
L 123.02281 234.564124 
L 124.115923 240.674035 
L 125.209036 246.095919 
L 127.395262 251.696478 
L 128.488375 257.158265 
L 129.581488 261.638253 
L 130.674601 263.091643 
L 131.767713 263.368037 
L 132.860826 264.61692 
L 133.953939 266.902817 
L 136.140165 269.979308 
L 137.233278 272.58354 
L 138.326391 274.687057 
L 139.419504 275.217668 
L 140.512617 274.712067 
L 141.60573 274.513678 
L 142.698843 274.072706 
L 144.885069 272.19032 
L 145.978182 270.672879 
L 147.071295 266.954447 
L 149.257521 256.86943 
L 150.350634 253.602587 
L 151.443747 248.513302 
L 152.53686 242.734018 
L 153.629972 239.362562 
L 154.723085 235.31406 
L 155.816198 230.830496 
L 156.909311 227.977289 
L 159.095537 228.007941 
L 160.18865 228.032605 
L 161.281763 227.884205 
L 162.374876 227.245856 
L 163.467989 228.364952 
L 165.654215 233.852102 
L 166.747328 235.708489 
L 168.933554 237.952324 
L 170.026667 237.620251 
L 171.11978 236.952614 
L 172.212893 237.2999 
L 173.306006 237.327808 
L 174.399118 236.866589 
L 177.678457 233.069184 
L 179.864683 229.410109 
L 180.957796 228.496227 
L 182.050909 227.977759 
L 183.144022 227.829923 
L 184.237135 227.940224 
L 185.330248 227.913262 
L 186.423361 227.739828 
L 187.516474 227.710006 
L 189.7027 228.156794 
L 190.795813 228.046437 
L 191.888926 228.389916 
L 194.075152 228.497249 
L 196.261377 229.670995 
L 197.35449 229.926034 
L 200.633829 236.596445 
L 201.726942 237.180253 
L 202.820055 238.446674 
L 206.099394 253.002876 
L 207.192507 256.770384 
L 208.28562 261.189424 
L 209.378733 265.040885 
L 210.471846 266.744877 
L 211.564959 267.515741 
L 212.658072 269.131968 
L 214.844298 273.631631 
L 217.030523 277.442193 
L 218.123636 278.995838 
L 219.216749 279.924824 
L 220.309862 280.423629 
L 222.496088 280.238224 
L 223.589201 279.894165 
L 224.682314 279.413344 
L 225.775427 278.516299 
L 226.86854 277.1661 
L 227.961653 275.013942 
L 229.054766 272.285829 
L 231.240992 263.193813 
L 232.334105 257.419618 
L 234.520331 244.300239 
L 235.613444 235.481593 
L 236.706556 229.182303 
L 237.799669 227.692893 
L 238.892782 227.217529 
L 239.985895 227.453894 
L 243.265234 230.865234 
L 244.358347 231.555656 
L 246.544573 231.773182 
L 247.637686 232.328007 
L 252.010138 231.564923 
L 253.103251 231.241622 
L 254.196364 230.066097 
L 256.38259 228.55834 
L 257.475702 228.115179 
L 259.661928 227.808361 
L 260.755041 227.910767 
L 264.03438 229.270538 
L 265.127493 228.680876 
L 266.220606 230.345251 
L 267.313719 233.357258 
L 268.406832 235.753704 
L 269.499945 237.502521 
L 270.593058 237.971369 
L 271.686171 238.67234 
L 272.779284 238.650032 
L 274.96551 234.634334 
L 276.058623 234.397344 
L 277.151736 235.792939 
L 278.244848 238.660986 
L 279.337961 242.16811 
L 280.431074 246.579815 
L 282.6173 254.743066 
L 283.710413 257.742477 
L 284.803526 259.98125 
L 285.896639 262.918852 
L 286.989752 266.248878 
L 289.175978 270.661697 
L 290.269091 273.965085 
L 291.362204 276.494904 
L 292.455317 278.088074 
L 293.54843 278.998211 
L 294.641543 279.301684 
L 295.734656 278.530632 
L 296.827769 277.057165 
L 297.920882 274.694792 
L 299.013994 271.658405 
L 300.107107 267.646963 
L 301.20022 262.296548 
L 302.293333 253.845949 
L 303.386446 243.493293 
L 304.479559 234.544854 
L 305.572672 228.500921 
L 306.665785 227.376234 
L 308.852011 227.364899 
L 309.945124 227.931946 
L 311.038237 230.011874 
L 312.13135 233.344197 
L 314.317576 237.127195 
L 315.410689 238.719145 
L 316.503802 239.30781 
L 317.596915 239.335461 
L 318.690028 239.0215 
L 319.78314 238.152527 
L 321.969366 235.737265 
L 324.155592 234.036533 
L 325.248705 232.758694 
L 326.341818 232.611604 
L 327.434931 232.835702 
L 328.528044 233.21674 
L 329.621157 233.236951 
L 330.71427 233.011593 
L 331.807383 231.907677 
L 332.900496 230.051922 
L 333.993609 228.671204 
L 335.086722 228.30303 
L 336.179835 229.209781 
L 337.272948 230.900494 
L 338.366061 230.884318 
L 339.459174 231.025619 
L 340.552287 232.805479 
L 341.645399 236.510447 
L 342.738512 243.820757 
L 343.831625 249.171614 
L 344.924738 253.775635 
L 346.017851 261.39765 
L 347.110964 266.44822 
L 348.204077 269.146614 
L 350.390303 272.007844 
L 351.483416 273.73321 
L 352.576529 274.688801 
L 353.669642 274.831363 
L 354.762755 274.775506 
L 355.855868 275.159829 
L 356.948981 274.9844 
L 358.042094 274.440347 
L 359.135207 273.754466 
L 360.22832 273.931456 
L 361.321433 274.401503 
L 362.414545 275.173178 
L 364.600771 277.664936 
L 365.693884 278.702929 
L 367.88011 280.199042 
L 368.973223 280.7277 
L 371.159449 281.061521 
L 372.252562 280.712858 
L 373.345675 279.979135 
L 374.438788 279.049026 
L 375.531901 277.275628 
L 377.718127 272.425747 
L 378.81124 268.804355 
L 379.904353 263.765308 
L 380.997466 257.057403 
L 382.090579 252.577389 
L 383.183691 247.194003 
L 384.276804 240.149505 
L 385.369917 234.017764 
L 386.46303 231.140028 
L 387.556143 229.655138 
L 389.742369 228.08319 
L 390.835482 228.088891 
L 391.928595 229.309945 
L 393.021708 228.659482 
L 394.114821 228.292833 
L 395.207934 228.68612 
L 396.301047 229.914586 
L 397.39416 229.5061 
L 398.487273 228.223868 
L 398.487273 228.223868 
" style="fill:none;stroke:#2ca02c;stroke-linecap:square;stroke-width:1.5;"/>
   </g>
   <g id="line2d_16">
    <path clip-path="url(#p4065da7e7e)" d="M 73.832727 164.716965 
L 74.92584 164.432525 
L 76.018953 164.344687 
L 78.205179 164.499438 
L 81.484518 166.893769 
L 82.577631 168.561021 
L 83.670744 169.911935 
L 84.763857 170.461554 
L 85.85697 167.42133 
L 86.950083 156.667921 
L 89.136309 125.26361 
L 90.229421 116.876236 
L 91.322534 112.177717 
L 93.50876 91.535255 
L 94.601873 87.383306 
L 96.788099 82.972988 
L 97.881212 82.492859 
L 98.974325 85.558773 
L 101.160551 93.414233 
L 102.253664 96.090949 
L 103.346777 99.60005 
L 104.43989 106.105122 
L 105.533003 111.454241 
L 107.719229 123.775477 
L 108.812342 136.275126 
L 109.905455 142.568126 
L 110.998567 137.034167 
L 112.09168 136.527245 
L 113.184793 139.966409 
L 114.277906 142.30435 
L 115.371019 142.383961 
L 116.464132 147.78454 
L 117.557245 158.030425 
L 118.650358 161.803881 
L 119.743471 166.636829 
L 120.836584 169.553512 
L 124.115923 171.110708 
L 126.302149 170.95549 
L 127.395262 171.185604 
L 130.674601 169.618426 
L 131.767713 169.677226 
L 132.860826 169.510336 
L 135.047052 168.22591 
L 136.140165 167.831756 
L 137.233278 167.121262 
L 138.326391 165.934594 
L 139.419504 165.39982 
L 140.512617 165.713213 
L 142.698843 165.835172 
L 144.885069 166.50021 
L 145.978182 167.023758 
L 147.071295 168.288749 
L 148.164408 169.853964 
L 149.257521 170.151395 
L 150.350634 170.714775 
L 151.443747 170.93634 
L 152.53686 170.585151 
L 153.629972 170.871061 
L 154.723085 170.497602 
L 155.816198 169.074876 
L 156.909311 166.176092 
L 158.002424 163.875506 
L 159.095537 162.451274 
L 160.18865 162.163058 
L 161.281763 161.027372 
L 162.374876 154.795776 
L 163.467989 136.107056 
L 164.561102 121.230854 
L 165.654215 110.704484 
L 166.747328 103.000246 
L 167.840441 96.310787 
L 168.933554 93.086735 
L 170.026667 94.525229 
L 171.11978 96.844872 
L 172.212893 95.874162 
L 173.306006 96.241228 
L 174.399118 98.822953 
L 175.492231 103.703124 
L 177.678457 118.262549 
L 178.77157 128.089305 
L 179.864683 139.781005 
L 180.957796 147.425641 
L 182.050909 151.809594 
L 183.144022 154.074003 
L 184.237135 158.318888 
L 185.330248 159.430489 
L 186.423361 159.274246 
L 187.516474 159.349067 
L 188.609587 160.180839 
L 189.7027 161.705375 
L 190.795813 161.893311 
L 191.888926 163.597235 
L 192.982039 164.620947 
L 194.075152 165.097058 
L 195.168264 166.286966 
L 196.261377 167.240115 
L 197.35449 168.358486 
L 198.447603 169.817112 
L 199.540716 170.464114 
L 200.633829 170.652145 
L 201.726942 170.676225 
L 202.820055 170.833215 
L 203.913168 171.142564 
L 206.099394 170.940507 
L 207.192507 170.649581 
L 208.28562 170.230124 
L 209.378733 169.33565 
L 210.471846 168.789076 
L 212.658072 168.157374 
L 214.844298 166.627908 
L 217.030523 164.765965 
L 219.216749 163.546504 
L 220.309862 163.248329 
L 221.402975 163.234199 
L 222.496088 163.401211 
L 223.589201 163.369577 
L 224.682314 163.726771 
L 225.775427 163.881821 
L 226.86854 164.488194 
L 227.961653 165.232799 
L 229.054766 166.45731 
L 230.147879 168.014958 
L 231.240992 169.298553 
L 232.334105 170.298894 
L 233.427218 170.953523 
L 234.520331 170.682755 
L 235.613444 170.258457 
L 236.706556 168.298429 
L 237.799669 163.777295 
L 238.892782 157.430931 
L 241.079008 141.523242 
L 242.172121 134.949575 
L 243.265234 129.811323 
L 244.358347 127.007402 
L 245.45146 126.680588 
L 246.544573 125.198557 
L 247.637686 123.160465 
L 248.730799 123.534394 
L 249.823912 125.452557 
L 250.917025 126.054621 
L 252.010138 127.151454 
L 253.103251 129.046622 
L 255.289477 141.019222 
L 256.38259 146.427516 
L 257.475702 150.624191 
L 258.568815 156.724657 
L 259.661928 158.50904 
L 260.755041 159.913567 
L 262.941267 164.934537 
L 264.03438 166.263278 
L 265.127493 166.367019 
L 267.313719 170.088821 
L 268.406832 170.60661 
L 272.779284 170.751671 
L 273.872397 170.63903 
L 274.96551 170.404908 
L 276.058623 170.481552 
L 277.151736 170.728431 
L 278.244848 170.775347 
L 279.337961 171.144033 
L 280.431074 170.982261 
L 281.524187 171.126251 
L 282.6173 170.899032 
L 283.710413 170.457533 
L 285.896639 169.892196 
L 288.082865 168.363792 
L 289.175978 167.71164 
L 290.269091 166.772234 
L 291.362204 165.169771 
L 293.54843 163.975837 
L 294.641543 163.831865 
L 295.734656 163.85507 
L 296.827769 164.541858 
L 297.920882 165.424748 
L 300.107107 168.057794 
L 301.20022 169.620261 
L 302.293333 170.605816 
L 303.386446 170.662968 
L 304.479559 170.164282 
L 305.572672 166.697727 
L 306.665785 160.19519 
L 308.852011 153.525498 
L 309.945124 145.347672 
L 311.038237 122.879743 
L 314.317576 93.73404 
L 315.410689 87.903241 
L 316.503802 85.742128 
L 317.596915 86.127803 
L 318.690028 88.670632 
L 319.78314 92.186372 
L 320.876253 97.160784 
L 321.969366 103.462524 
L 323.062479 108.620837 
L 324.155592 112.677566 
L 325.248705 119.359357 
L 326.341818 121.209217 
L 327.434931 119.946042 
L 328.528044 117.983826 
L 329.621157 117.826151 
L 330.71427 119.314411 
L 331.807383 124.291592 
L 335.086722 158.758528 
L 336.179835 164.186319 
L 337.272948 167.902545 
L 338.366061 169.345372 
L 339.459174 169.634242 
L 340.552287 170.117817 
L 341.645399 170.844838 
L 342.738512 171.20988 
L 343.831625 171.230615 
L 344.924738 171.111512 
L 346.017851 170.338715 
L 347.110964 169.100391 
L 348.204077 168.088395 
L 349.29719 167.515468 
L 350.390303 167.112986 
L 352.576529 165.762541 
L 355.855868 165.726093 
L 356.948981 165.440216 
L 359.135207 166.00805 
L 361.321433 166.109103 
L 366.786997 163.781873 
L 368.973223 163.25906 
L 370.066336 162.983126 
L 371.159449 162.895257 
L 373.345675 163.270808 
L 374.438788 163.605351 
L 375.531901 164.352672 
L 378.81124 167.485985 
L 379.904353 169.415808 
L 380.997466 170.145355 
L 382.090579 170.683055 
L 383.183691 170.909626 
L 384.276804 170.507142 
L 385.369917 170.279775 
L 386.46303 169.655835 
L 388.649256 167.499345 
L 389.742369 165.000803 
L 390.835482 163.872946 
L 391.928595 165.775348 
L 393.021708 166.254371 
L 394.114821 165.221188 
L 395.207934 165.690842 
L 396.301047 167.402098 
L 397.39416 167.631863 
L 398.487273 166.186755 
L 398.487273 166.186755 
" style="fill:none;stroke:#d62728;stroke-linecap:square;stroke-width:1.5;"/>
   </g>
   <g id="patch_3">
    <path d="M 57.6 307.584 
L 57.6 41.472 
" style="fill:none;stroke:#000000;stroke-linecap:square;stroke-linejoin:miter;stroke-width:0.8;"/>
   </g>
   <g id="patch_4">
    <path d="M 414.72 307.584 
L 414.72 41.472 
" style="fill:none;stroke:#000000;stroke-linecap:square;stroke-linejoin:miter;stroke-width:0.8;"/>
   </g>
   <g id="patch_5">
    <path d="M 57.6 307.584 
L 414.72 307.584 
" style="fill:none;stroke:#000000;stroke-linecap:square;stroke-linejoin:miter;stroke-width:0.8;"/>
   </g>
   <g id="patch_6">
    <path d="M 57.6 41.472 
L 414.72 41.472 
" style="fill:none;stroke:#000000;stroke-linecap:square;stroke-linejoin:miter;stroke-width:0.8;"/>
   </g>
   <g id="text_13">
    <!-- Plot of Train Data vs MCMC Uncertainty  -->
    <defs>
     <path d="M 19.671875 64.796875 
L 19.671875 37.40625 
L 32.078125 37.40625 
Q 38.96875 37.40625 42.71875 40.96875 
Q 46.484375 44.53125 46.484375 51.125 
Q 46.484375 57.671875 42.71875 61.234375 
Q 38.96875 64.796875 32.078125 64.796875 
z
M 9.8125 72.90625 
L 32.078125 72.90625 
Q 44.34375 72.90625 50.609375 67.359375 
Q 56.890625 61.8125 56.890625 51.125 
Q 56.890625 40.328125 50.609375 34.8125 
Q 44.34375 29.296875 32.078125 29.296875 
L 19.671875 29.296875 
L 19.671875 0 
L 9.8125 0 
z
" id="DejaVuSans-50"/>
     <path d="M 9.421875 75.984375 
L 18.40625 75.984375 
L 18.40625 0 
L 9.421875 0 
z
" id="DejaVuSans-6c"/>
     <path d="M 30.609375 48.390625 
Q 23.390625 48.390625 19.1875 42.75 
Q 14.984375 37.109375 14.984375 27.296875 
Q 14.984375 17.484375 19.15625 11.84375 
Q 23.34375 6.203125 30.609375 6.203125 
Q 37.796875 6.203125 41.984375 11.859375 
Q 46.1875 17.53125 46.1875 27.296875 
Q 46.1875 37.015625 41.984375 42.703125 
Q 37.796875 48.390625 30.609375 48.390625 
z
M 30.609375 56 
Q 42.328125 56 49.015625 48.375 
Q 55.71875 40.765625 55.71875 27.296875 
Q 55.71875 13.875 49.015625 6.21875 
Q 42.328125 -1.421875 30.609375 -1.421875 
Q 18.84375 -1.421875 12.171875 6.21875 
Q 5.515625 13.875 5.515625 27.296875 
Q 5.515625 40.765625 12.171875 48.375 
Q 18.84375 56 30.609375 56 
z
" id="DejaVuSans-6f"/>
     <path d="M 18.3125 70.21875 
L 18.3125 54.6875 
L 36.8125 54.6875 
L 36.8125 47.703125 
L 18.3125 47.703125 
L 18.3125 18.015625 
Q 18.3125 11.328125 20.140625 9.421875 
Q 21.96875 7.515625 27.59375 7.515625 
L 36.8125 7.515625 
L 36.8125 0 
L 27.59375 0 
Q 17.1875 0 13.234375 3.875 
Q 9.28125 7.765625 9.28125 18.015625 
L 9.28125 47.703125 
L 2.6875 47.703125 
L 2.6875 54.6875 
L 9.28125 54.6875 
L 9.28125 70.21875 
z
" id="DejaVuSans-74"/>
     <path id="DejaVuSans-20"/>
     <path d="M 37.109375 75.984375 
L 37.109375 68.5 
L 28.515625 68.5 
Q 23.6875 68.5 21.796875 66.546875 
Q 19.921875 64.59375 19.921875 59.515625 
L 19.921875 54.6875 
L 34.71875 54.6875 
L 34.71875 47.703125 
L 19.921875 47.703125 
L 19.921875 0 
L 10.890625 0 
L 10.890625 47.703125 
L 2.296875 47.703125 
L 2.296875 54.6875 
L 10.890625 54.6875 
L 10.890625 58.5 
Q 10.890625 67.625 15.140625 71.796875 
Q 19.390625 75.984375 28.609375 75.984375 
z
" id="DejaVuSans-66"/>
     <path d="M -0.296875 72.90625 
L 61.375 72.90625 
L 61.375 64.59375 
L 35.5 64.59375 
L 35.5 0 
L 25.59375 0 
L 25.59375 64.59375 
L -0.296875 64.59375 
z
" id="DejaVuSans-54"/>
     <path d="M 41.109375 46.296875 
Q 39.59375 47.171875 37.8125 47.578125 
Q 36.03125 48 33.890625 48 
Q 26.265625 48 22.1875 43.046875 
Q 18.109375 38.09375 18.109375 28.8125 
L 18.109375 0 
L 9.078125 0 
L 9.078125 54.6875 
L 18.109375 54.6875 
L 18.109375 46.1875 
Q 20.953125 51.171875 25.484375 53.578125 
Q 30.03125 56 36.53125 56 
Q 37.453125 56 38.578125 55.875 
Q 39.703125 55.765625 41.0625 55.515625 
z
" id="DejaVuSans-72"/>
     <path d="M 34.28125 27.484375 
Q 23.390625 27.484375 19.1875 25 
Q 14.984375 22.515625 14.984375 16.5 
Q 14.984375 11.71875 18.140625 8.90625 
Q 21.296875 6.109375 26.703125 6.109375 
Q 34.1875 6.109375 38.703125 11.40625 
Q 43.21875 16.703125 43.21875 25.484375 
L 43.21875 27.484375 
z
M 52.203125 31.203125 
L 52.203125 0 
L 43.21875 0 
L 43.21875 8.296875 
Q 40.140625 3.328125 35.546875 0.953125 
Q 30.953125 -1.421875 24.3125 -1.421875 
Q 15.921875 -1.421875 10.953125 3.296875 
Q 6 8.015625 6 15.921875 
Q 6 25.140625 12.171875 29.828125 
Q 18.359375 34.515625 30.609375 34.515625 
L 43.21875 34.515625 
L 43.21875 35.40625 
Q 43.21875 41.609375 39.140625 45 
Q 35.0625 48.390625 27.6875 48.390625 
Q 23 48.390625 18.546875 47.265625 
Q 14.109375 46.140625 10.015625 43.890625 
L 10.015625 52.203125 
Q 14.9375 54.109375 19.578125 55.046875 
Q 24.21875 56 28.609375 56 
Q 40.484375 56 46.34375 49.84375 
Q 52.203125 43.703125 52.203125 31.203125 
z
" id="DejaVuSans-61"/>
     <path d="M 9.421875 54.6875 
L 18.40625 54.6875 
L 18.40625 0 
L 9.421875 0 
z
M 9.421875 75.984375 
L 18.40625 75.984375 
L 18.40625 64.59375 
L 9.421875 64.59375 
z
" id="DejaVuSans-69"/>
     <path d="M 54.890625 33.015625 
L 54.890625 0 
L 45.90625 0 
L 45.90625 32.71875 
Q 45.90625 40.484375 42.875 44.328125 
Q 39.84375 48.1875 33.796875 48.1875 
Q 26.515625 48.1875 22.3125 43.546875 
Q 18.109375 38.921875 18.109375 30.90625 
L 18.109375 0 
L 9.078125 0 
L 9.078125 54.6875 
L 18.109375 54.6875 
L 18.109375 46.1875 
Q 21.34375 51.125 25.703125 53.5625 
Q 30.078125 56 35.796875 56 
Q 45.21875 56 50.046875 50.171875 
Q 54.890625 44.34375 54.890625 33.015625 
z
" id="DejaVuSans-6e"/>
     <path d="M 19.671875 64.796875 
L 19.671875 8.109375 
L 31.59375 8.109375 
Q 46.6875 8.109375 53.6875 14.9375 
Q 60.6875 21.78125 60.6875 36.53125 
Q 60.6875 51.171875 53.6875 57.984375 
Q 46.6875 64.796875 31.59375 64.796875 
z
M 9.8125 72.90625 
L 30.078125 72.90625 
Q 51.265625 72.90625 61.171875 64.09375 
Q 71.09375 55.28125 71.09375 36.53125 
Q 71.09375 17.671875 61.125 8.828125 
Q 51.171875 0 30.078125 0 
L 9.8125 0 
z
" id="DejaVuSans-44"/>
     <path d="M 2.984375 54.6875 
L 12.5 54.6875 
L 29.59375 8.796875 
L 46.6875 54.6875 
L 56.203125 54.6875 
L 35.6875 0 
L 23.484375 0 
z
" id="DejaVuSans-76"/>
     <path d="M 44.28125 53.078125 
L 44.28125 44.578125 
Q 40.484375 46.53125 36.375 47.5 
Q 32.28125 48.484375 27.875 48.484375 
Q 21.1875 48.484375 17.84375 46.4375 
Q 14.5 44.390625 14.5 40.28125 
Q 14.5 37.15625 16.890625 35.375 
Q 19.28125 33.59375 26.515625 31.984375 
L 29.59375 31.296875 
Q 39.15625 29.25 43.1875 25.515625 
Q 47.21875 21.78125 47.21875 15.09375 
Q 47.21875 7.46875 41.1875 3.015625 
Q 35.15625 -1.421875 24.609375 -1.421875 
Q 20.21875 -1.421875 15.453125 -0.5625 
Q 10.6875 0.296875 5.421875 2 
L 5.421875 11.28125 
Q 10.40625 8.6875 15.234375 7.390625 
Q 20.0625 6.109375 24.8125 6.109375 
Q 31.15625 6.109375 34.5625 8.28125 
Q 37.984375 10.453125 37.984375 14.40625 
Q 37.984375 18.0625 35.515625 20.015625 
Q 33.0625 21.96875 24.703125 23.78125 
L 21.578125 24.515625 
Q 13.234375 26.265625 9.515625 29.90625 
Q 5.8125 33.546875 5.8125 39.890625 
Q 5.8125 47.609375 11.28125 51.796875 
Q 16.75 56 26.8125 56 
Q 31.78125 56 36.171875 55.265625 
Q 40.578125 54.546875 44.28125 53.078125 
z
" id="DejaVuSans-73"/>
     <path d="M 9.8125 72.90625 
L 24.515625 72.90625 
L 43.109375 23.296875 
L 61.8125 72.90625 
L 76.515625 72.90625 
L 76.515625 0 
L 66.890625 0 
L 66.890625 64.015625 
L 48.09375 14.015625 
L 38.1875 14.015625 
L 19.390625 64.015625 
L 19.390625 0 
L 9.8125 0 
z
" id="DejaVuSans-4d"/>
     <path d="M 64.40625 67.28125 
L 64.40625 56.890625 
Q 59.421875 61.53125 53.78125 63.8125 
Q 48.140625 66.109375 41.796875 66.109375 
Q 29.296875 66.109375 22.65625 58.46875 
Q 16.015625 50.828125 16.015625 36.375 
Q 16.015625 21.96875 22.65625 14.328125 
Q 29.296875 6.6875 41.796875 6.6875 
Q 48.140625 6.6875 53.78125 8.984375 
Q 59.421875 11.28125 64.40625 15.921875 
L 64.40625 5.609375 
Q 59.234375 2.09375 53.4375 0.328125 
Q 47.65625 -1.421875 41.21875 -1.421875 
Q 24.65625 -1.421875 15.125 8.703125 
Q 5.609375 18.84375 5.609375 36.375 
Q 5.609375 53.953125 15.125 64.078125 
Q 24.65625 74.21875 41.21875 74.21875 
Q 47.75 74.21875 53.53125 72.484375 
Q 59.328125 70.75 64.40625 67.28125 
z
" id="DejaVuSans-43"/>
     <path d="M 8.6875 72.90625 
L 18.609375 72.90625 
L 18.609375 28.609375 
Q 18.609375 16.890625 22.84375 11.734375 
Q 27.09375 6.59375 36.625 6.59375 
Q 46.09375 6.59375 50.34375 11.734375 
Q 54.59375 16.890625 54.59375 28.609375 
L 54.59375 72.90625 
L 64.5 72.90625 
L 64.5 27.390625 
Q 64.5 13.140625 57.4375 5.859375 
Q 50.390625 -1.421875 36.625 -1.421875 
Q 22.796875 -1.421875 15.734375 5.859375 
Q 8.6875 13.140625 8.6875 27.390625 
z
" id="DejaVuSans-55"/>
     <path d="M 48.78125 52.59375 
L 48.78125 44.1875 
Q 44.96875 46.296875 41.140625 47.34375 
Q 37.3125 48.390625 33.40625 48.390625 
Q 24.65625 48.390625 19.8125 42.84375 
Q 14.984375 37.3125 14.984375 27.296875 
Q 14.984375 17.28125 19.8125 11.734375 
Q 24.65625 6.203125 33.40625 6.203125 
Q 37.3125 6.203125 41.140625 7.25 
Q 44.96875 8.296875 48.78125 10.40625 
L 48.78125 2.09375 
Q 45.015625 0.34375 40.984375 -0.53125 
Q 36.96875 -1.421875 32.421875 -1.421875 
Q 20.0625 -1.421875 12.78125 6.34375 
Q 5.515625 14.109375 5.515625 27.296875 
Q 5.515625 40.671875 12.859375 48.328125 
Q 20.21875 56 33.015625 56 
Q 37.15625 56 41.109375 55.140625 
Q 45.0625 54.296875 48.78125 52.59375 
z
" id="DejaVuSans-63"/>
     <path d="M 56.203125 29.59375 
L 56.203125 25.203125 
L 14.890625 25.203125 
Q 15.484375 15.921875 20.484375 11.0625 
Q 25.484375 6.203125 34.421875 6.203125 
Q 39.59375 6.203125 44.453125 7.46875 
Q 49.3125 8.734375 54.109375 11.28125 
L 54.109375 2.78125 
Q 49.265625 0.734375 44.1875 -0.34375 
Q 39.109375 -1.421875 33.890625 -1.421875 
Q 20.796875 -1.421875 13.15625 6.1875 
Q 5.515625 13.8125 5.515625 26.8125 
Q 5.515625 40.234375 12.765625 48.109375 
Q 20.015625 56 32.328125 56 
Q 43.359375 56 49.78125 48.890625 
Q 56.203125 41.796875 56.203125 29.59375 
z
M 47.21875 32.234375 
Q 47.125 39.59375 43.09375 43.984375 
Q 39.0625 48.390625 32.421875 48.390625 
Q 24.90625 48.390625 20.390625 44.140625 
Q 15.875 39.890625 15.1875 32.171875 
z
" id="DejaVuSans-65"/>
     <path d="M 32.171875 -5.078125 
Q 28.375 -14.84375 24.75 -17.8125 
Q 21.140625 -20.796875 15.09375 -20.796875 
L 7.90625 -20.796875 
L 7.90625 -13.28125 
L 13.1875 -13.28125 
Q 16.890625 -13.28125 18.9375 -11.515625 
Q 21 -9.765625 23.484375 -3.21875 
L 25.09375 0.875 
L 2.984375 54.6875 
L 12.5 54.6875 
L 29.59375 11.921875 
L 46.6875 54.6875 
L 56.203125 54.6875 
z
" id="DejaVuSans-79"/>
    </defs>
    <g transform="translate(115.666875 35.472)scale(0.12 -0.12)">
     <use xlink:href="#DejaVuSans-50"/>
     <use x="60.302734" xlink:href="#DejaVuSans-6c"/>
     <use x="88.085938" xlink:href="#DejaVuSans-6f"/>
     <use x="149.267578" xlink:href="#DejaVuSans-74"/>
     <use x="188.476562" xlink:href="#DejaVuSans-20"/>
     <use x="220.263672" xlink:href="#DejaVuSans-6f"/>
     <use x="281.445312" xlink:href="#DejaVuSans-66"/>
     <use x="316.650391" xlink:href="#DejaVuSans-20"/>
     <use x="348.4375" xlink:href="#DejaVuSans-54"/>
     <use x="409.302734" xlink:href="#DejaVuSans-72"/>
     <use x="450.416016" xlink:href="#DejaVuSans-61"/>
     <use x="511.695312" xlink:href="#DejaVuSans-69"/>
     <use x="539.478516" xlink:href="#DejaVuSans-6e"/>
     <use x="602.857422" xlink:href="#DejaVuSans-20"/>
     <use x="634.644531" xlink:href="#DejaVuSans-44"/>
     <use x="711.646484" xlink:href="#DejaVuSans-61"/>
     <use x="772.925781" xlink:href="#DejaVuSans-74"/>
     <use x="812.134766" xlink:href="#DejaVuSans-61"/>
     <use x="873.414062" xlink:href="#DejaVuSans-20"/>
     <use x="905.201172" xlink:href="#DejaVuSans-76"/>
     <use x="964.380859" xlink:href="#DejaVuSans-73"/>
     <use x="1016.480469" xlink:href="#DejaVuSans-20"/>
     <use x="1048.267578" xlink:href="#DejaVuSans-4d"/>
     <use x="1134.546875" xlink:href="#DejaVuSans-43"/>
     <use x="1204.371094" xlink:href="#DejaVuSans-4d"/>
     <use x="1290.650391" xlink:href="#DejaVuSans-43"/>
     <use x="1360.474609" xlink:href="#DejaVuSans-20"/>
     <use x="1392.261719" xlink:href="#DejaVuSans-55"/>
     <use x="1465.455078" xlink:href="#DejaVuSans-6e"/>
     <use x="1528.833984" xlink:href="#DejaVuSans-63"/>
     <use x="1583.814453" xlink:href="#DejaVuSans-65"/>
     <use x="1645.337891" xlink:href="#DejaVuSans-72"/>
     <use x="1686.451172" xlink:href="#DejaVuSans-74"/>
     <use x="1725.660156" xlink:href="#DejaVuSans-61"/>
     <use x="1786.939453" xlink:href="#DejaVuSans-69"/>
     <use x="1814.722656" xlink:href="#DejaVuSans-6e"/>
     <use x="1878.101562" xlink:href="#DejaVuSans-74"/>
     <use x="1917.310547" xlink:href="#DejaVuSans-79"/>
     <use x="1976.490234" xlink:href="#DejaVuSans-20"/>
    </g>
   </g>
   <g id="legend_1">
    <g id="patch_7">
     <path d="M 277.843437 108.1845 
L 407.72 108.1845 
Q 409.72 108.1845 409.72 106.1845 
L 409.72 48.472 
Q 409.72 46.472 407.72 46.472 
L 277.843437 46.472 
Q 275.843437 46.472 275.843437 48.472 
L 275.843437 106.1845 
Q 275.843437 108.1845 277.843437 108.1845 
z
" style="fill:#ffffff;opacity:0.8;stroke:#cccccc;stroke-linejoin:miter;"/>
    </g>
    <g id="line2d_17">
     <path d="M 279.843437 54.570438 
L 299.843437 54.570438 
" style="fill:none;stroke:#1f77b4;stroke-linecap:square;stroke-width:1.5;"/>
    </g>
    <g id="line2d_18"/>
    <g id="text_14">
     <!-- actual -->
     <defs>
      <path d="M 8.5 21.578125 
L 8.5 54.6875 
L 17.484375 54.6875 
L 17.484375 21.921875 
Q 17.484375 14.15625 20.5 10.265625 
Q 23.53125 6.390625 29.59375 6.390625 
Q 36.859375 6.390625 41.078125 11.03125 
Q 45.3125 15.671875 45.3125 23.6875 
L 45.3125 54.6875 
L 54.296875 54.6875 
L 54.296875 0 
L 45.3125 0 
L 45.3125 8.40625 
Q 42.046875 3.421875 37.71875 1 
Q 33.40625 -1.421875 27.6875 -1.421875 
Q 18.265625 -1.421875 13.375 4.4375 
Q 8.5 10.296875 8.5 21.578125 
z
M 31.109375 56 
z
" id="DejaVuSans-75"/>
     </defs>
     <g transform="translate(307.843437 58.070438)scale(0.1 -0.1)">
      <use xlink:href="#DejaVuSans-61"/>
      <use x="61.279297" xlink:href="#DejaVuSans-63"/>
      <use x="116.259766" xlink:href="#DejaVuSans-74"/>
      <use x="155.46875" xlink:href="#DejaVuSans-75"/>
      <use x="218.847656" xlink:href="#DejaVuSans-61"/>
      <use x="280.126953" xlink:href="#DejaVuSans-6c"/>
     </g>
    </g>
    <g id="line2d_19">
     <path d="M 279.843437 69.248563 
L 299.843437 69.248563 
" style="fill:none;stroke:#ff7f0e;stroke-linecap:square;stroke-width:1.5;"/>
    </g>
    <g id="line2d_20"/>
    <g id="text_15">
     <!-- pred. (mean) -->
     <defs>
      <path d="M 18.109375 8.203125 
L 18.109375 -20.796875 
L 9.078125 -20.796875 
L 9.078125 54.6875 
L 18.109375 54.6875 
L 18.109375 46.390625 
Q 20.953125 51.265625 25.265625 53.625 
Q 29.59375 56 35.59375 56 
Q 45.5625 56 51.78125 48.09375 
Q 58.015625 40.1875 58.015625 27.296875 
Q 58.015625 14.40625 51.78125 6.484375 
Q 45.5625 -1.421875 35.59375 -1.421875 
Q 29.59375 -1.421875 25.265625 0.953125 
Q 20.953125 3.328125 18.109375 8.203125 
z
M 48.6875 27.296875 
Q 48.6875 37.203125 44.609375 42.84375 
Q 40.53125 48.484375 33.40625 48.484375 
Q 26.265625 48.484375 22.1875 42.84375 
Q 18.109375 37.203125 18.109375 27.296875 
Q 18.109375 17.390625 22.1875 11.75 
Q 26.265625 6.109375 33.40625 6.109375 
Q 40.53125 6.109375 44.609375 11.75 
Q 48.6875 17.390625 48.6875 27.296875 
z
" id="DejaVuSans-70"/>
      <path d="M 45.40625 46.390625 
L 45.40625 75.984375 
L 54.390625 75.984375 
L 54.390625 0 
L 45.40625 0 
L 45.40625 8.203125 
Q 42.578125 3.328125 38.25 0.953125 
Q 33.9375 -1.421875 27.875 -1.421875 
Q 17.96875 -1.421875 11.734375 6.484375 
Q 5.515625 14.40625 5.515625 27.296875 
Q 5.515625 40.1875 11.734375 48.09375 
Q 17.96875 56 27.875 56 
Q 33.9375 56 38.25 53.625 
Q 42.578125 51.265625 45.40625 46.390625 
z
M 14.796875 27.296875 
Q 14.796875 17.390625 18.875 11.75 
Q 22.953125 6.109375 30.078125 6.109375 
Q 37.203125 6.109375 41.296875 11.75 
Q 45.40625 17.390625 45.40625 27.296875 
Q 45.40625 37.203125 41.296875 42.84375 
Q 37.203125 48.484375 30.078125 48.484375 
Q 22.953125 48.484375 18.875 42.84375 
Q 14.796875 37.203125 14.796875 27.296875 
z
" id="DejaVuSans-64"/>
      <path d="M 31 75.875 
Q 24.46875 64.65625 21.28125 53.65625 
Q 18.109375 42.671875 18.109375 31.390625 
Q 18.109375 20.125 21.3125 9.0625 
Q 24.515625 -2 31 -13.1875 
L 23.1875 -13.1875 
Q 15.875 -1.703125 12.234375 9.375 
Q 8.59375 20.453125 8.59375 31.390625 
Q 8.59375 42.28125 12.203125 53.3125 
Q 15.828125 64.359375 23.1875 75.875 
z
" id="DejaVuSans-28"/>
      <path d="M 52 44.1875 
Q 55.375 50.25 60.0625 53.125 
Q 64.75 56 71.09375 56 
Q 79.640625 56 84.28125 50.015625 
Q 88.921875 44.046875 88.921875 33.015625 
L 88.921875 0 
L 79.890625 0 
L 79.890625 32.71875 
Q 79.890625 40.578125 77.09375 44.375 
Q 74.3125 48.1875 68.609375 48.1875 
Q 61.625 48.1875 57.5625 43.546875 
Q 53.515625 38.921875 53.515625 30.90625 
L 53.515625 0 
L 44.484375 0 
L 44.484375 32.71875 
Q 44.484375 40.625 41.703125 44.40625 
Q 38.921875 48.1875 33.109375 48.1875 
Q 26.21875 48.1875 22.15625 43.53125 
Q 18.109375 38.875 18.109375 30.90625 
L 18.109375 0 
L 9.078125 0 
L 9.078125 54.6875 
L 18.109375 54.6875 
L 18.109375 46.1875 
Q 21.1875 51.21875 25.484375 53.609375 
Q 29.78125 56 35.6875 56 
Q 41.65625 56 45.828125 52.96875 
Q 50 49.953125 52 44.1875 
z
" id="DejaVuSans-6d"/>
      <path d="M 8.015625 75.875 
L 15.828125 75.875 
Q 23.140625 64.359375 26.78125 53.3125 
Q 30.421875 42.28125 30.421875 31.390625 
Q 30.421875 20.453125 26.78125 9.375 
Q 23.140625 -1.703125 15.828125 -13.1875 
L 8.015625 -13.1875 
Q 14.5 -2 17.703125 9.0625 
Q 20.90625 20.125 20.90625 31.390625 
Q 20.90625 42.671875 17.703125 53.65625 
Q 14.5 64.65625 8.015625 75.875 
z
" id="DejaVuSans-29"/>
     </defs>
     <g transform="translate(307.843437 72.748563)scale(0.1 -0.1)">
      <use xlink:href="#DejaVuSans-70"/>
      <use x="63.476562" xlink:href="#DejaVuSans-72"/>
      <use x="104.558594" xlink:href="#DejaVuSans-65"/>
      <use x="166.082031" xlink:href="#DejaVuSans-64"/>
      <use x="229.558594" xlink:href="#DejaVuSans-2e"/>
      <use x="261.345703" xlink:href="#DejaVuSans-20"/>
      <use x="293.132812" xlink:href="#DejaVuSans-28"/>
      <use x="332.146484" xlink:href="#DejaVuSans-6d"/>
      <use x="429.558594" xlink:href="#DejaVuSans-65"/>
      <use x="491.082031" xlink:href="#DejaVuSans-61"/>
      <use x="552.361328" xlink:href="#DejaVuSans-6e"/>
      <use x="615.740234" xlink:href="#DejaVuSans-29"/>
     </g>
    </g>
    <g id="line2d_21">
     <path d="M 279.843437 83.926688 
L 299.843437 83.926688 
" style="fill:none;stroke:#2ca02c;stroke-linecap:square;stroke-width:1.5;"/>
    </g>
    <g id="line2d_22"/>
    <g id="text_16">
     <!-- pred.(5th percen.) -->
     <defs>
      <path d="M 10.796875 72.90625 
L 49.515625 72.90625 
L 49.515625 64.59375 
L 19.828125 64.59375 
L 19.828125 46.734375 
Q 21.96875 47.46875 24.109375 47.828125 
Q 26.265625 48.1875 28.421875 48.1875 
Q 40.625 48.1875 47.75 41.5 
Q 54.890625 34.8125 54.890625 23.390625 
Q 54.890625 11.625 47.5625 5.09375 
Q 40.234375 -1.421875 26.90625 -1.421875 
Q 22.3125 -1.421875 17.546875 -0.640625 
Q 12.796875 0.140625 7.71875 1.703125 
L 7.71875 11.625 
Q 12.109375 9.234375 16.796875 8.0625 
Q 21.484375 6.890625 26.703125 6.890625 
Q 35.15625 6.890625 40.078125 11.328125 
Q 45.015625 15.765625 45.015625 23.390625 
Q 45.015625 31 40.078125 35.4375 
Q 35.15625 39.890625 26.703125 39.890625 
Q 22.75 39.890625 18.8125 39.015625 
Q 14.890625 38.140625 10.796875 36.28125 
z
" id="DejaVuSans-35"/>
      <path d="M 54.890625 33.015625 
L 54.890625 0 
L 45.90625 0 
L 45.90625 32.71875 
Q 45.90625 40.484375 42.875 44.328125 
Q 39.84375 48.1875 33.796875 48.1875 
Q 26.515625 48.1875 22.3125 43.546875 
Q 18.109375 38.921875 18.109375 30.90625 
L 18.109375 0 
L 9.078125 0 
L 9.078125 75.984375 
L 18.109375 75.984375 
L 18.109375 46.1875 
Q 21.34375 51.125 25.703125 53.5625 
Q 30.078125 56 35.796875 56 
Q 45.21875 56 50.046875 50.171875 
Q 54.890625 44.34375 54.890625 33.015625 
z
" id="DejaVuSans-68"/>
     </defs>
     <g transform="translate(307.843437 87.426688)scale(0.1 -0.1)">
      <use xlink:href="#DejaVuSans-70"/>
      <use x="63.476562" xlink:href="#DejaVuSans-72"/>
      <use x="104.558594" xlink:href="#DejaVuSans-65"/>
      <use x="166.082031" xlink:href="#DejaVuSans-64"/>
      <use x="229.558594" xlink:href="#DejaVuSans-2e"/>
      <use x="261.345703" xlink:href="#DejaVuSans-28"/>
      <use x="300.359375" xlink:href="#DejaVuSans-35"/>
      <use x="363.982422" xlink:href="#DejaVuSans-74"/>
      <use x="403.191406" xlink:href="#DejaVuSans-68"/>
      <use x="466.570312" xlink:href="#DejaVuSans-20"/>
      <use x="498.357422" xlink:href="#DejaVuSans-70"/>
      <use x="561.833984" xlink:href="#DejaVuSans-65"/>
      <use x="623.357422" xlink:href="#DejaVuSans-72"/>
      <use x="664.439453" xlink:href="#DejaVuSans-63"/>
      <use x="719.419922" xlink:href="#DejaVuSans-65"/>
      <use x="780.943359" xlink:href="#DejaVuSans-6e"/>
      <use x="844.322266" xlink:href="#DejaVuSans-2e"/>
      <use x="876.109375" xlink:href="#DejaVuSans-29"/>
     </g>
    </g>
    <g id="line2d_23">
     <path d="M 279.843437 98.604813 
L 299.843437 98.604813 
" style="fill:none;stroke:#d62728;stroke-linecap:square;stroke-width:1.5;"/>
    </g>
    <g id="line2d_24"/>
    <g id="text_17">
     <!-- pred.(95th percen.) -->
     <defs>
      <path d="M 10.984375 1.515625 
L 10.984375 10.5 
Q 14.703125 8.734375 18.5 7.8125 
Q 22.3125 6.890625 25.984375 6.890625 
Q 35.75 6.890625 40.890625 13.453125 
Q 46.046875 20.015625 46.78125 33.40625 
Q 43.953125 29.203125 39.59375 26.953125 
Q 35.25 24.703125 29.984375 24.703125 
Q 19.046875 24.703125 12.671875 31.3125 
Q 6.296875 37.9375 6.296875 49.421875 
Q 6.296875 60.640625 12.9375 67.421875 
Q 19.578125 74.21875 30.609375 74.21875 
Q 43.265625 74.21875 49.921875 64.515625 
Q 56.59375 54.828125 56.59375 36.375 
Q 56.59375 19.140625 48.40625 8.859375 
Q 40.234375 -1.421875 26.421875 -1.421875 
Q 22.703125 -1.421875 18.890625 -0.6875 
Q 15.09375 0.046875 10.984375 1.515625 
z
M 30.609375 32.421875 
Q 37.25 32.421875 41.125 36.953125 
Q 45.015625 41.5 45.015625 49.421875 
Q 45.015625 57.28125 41.125 61.84375 
Q 37.25 66.40625 30.609375 66.40625 
Q 23.96875 66.40625 20.09375 61.84375 
Q 16.21875 57.28125 16.21875 49.421875 
Q 16.21875 41.5 20.09375 36.953125 
Q 23.96875 32.421875 30.609375 32.421875 
z
" id="DejaVuSans-39"/>
     </defs>
     <g transform="translate(307.843437 102.104813)scale(0.1 -0.1)">
      <use xlink:href="#DejaVuSans-70"/>
      <use x="63.476562" xlink:href="#DejaVuSans-72"/>
      <use x="104.558594" xlink:href="#DejaVuSans-65"/>
      <use x="166.082031" xlink:href="#DejaVuSans-64"/>
      <use x="229.558594" xlink:href="#DejaVuSans-2e"/>
      <use x="261.345703" xlink:href="#DejaVuSans-28"/>
      <use x="300.359375" xlink:href="#DejaVuSans-39"/>
      <use x="363.982422" xlink:href="#DejaVuSans-35"/>
      <use x="427.605469" xlink:href="#DejaVuSans-74"/>
      <use x="466.814453" xlink:href="#DejaVuSans-68"/>
      <use x="530.193359" xlink:href="#DejaVuSans-20"/>
      <use x="561.980469" xlink:href="#DejaVuSans-70"/>
      <use x="625.457031" xlink:href="#DejaVuSans-65"/>
      <use x="686.980469" xlink:href="#DejaVuSans-72"/>
      <use x="728.0625" xlink:href="#DejaVuSans-63"/>
      <use x="783.042969" xlink:href="#DejaVuSans-65"/>
      <use x="844.566406" xlink:href="#DejaVuSans-6e"/>
      <use x="907.945312" xlink:href="#DejaVuSans-2e"/>
      <use x="939.732422" xlink:href="#DejaVuSans-29"/>
     </g>
    </g>
   </g>
  </g>
 </g>
 <defs>
  <clipPath id="p4065da7e7e">
   <rect height="266.112" width="357.12" x="57.6" y="41.472"/>
  </clipPath>
 </defs>
</svg>
