<?xml version="1.0" encoding="utf-8" standalone="no"?>
<!DOCTYPE svg PUBLIC "-//W3C//DTD SVG 1.1//EN"
  "http://www.w3.org/Graphics/SVG/1.1/DTD/svg11.dtd">
<!-- Created with matplotlib (http://matplotlib.org/) -->
<svg height="345.6pt" version="1.1" viewBox="0 0 460.8 345.6" width="460.8pt" xmlns="http://www.w3.org/2000/svg" xmlns:xlink="http://www.w3.org/1999/xlink">
 <defs>
  <style type="text/css">
*{stroke-linecap:butt;stroke-linejoin:round;}
  </style>
 </defs>
 <g id="figure_1">
  <g id="patch_1">
   <path d="M 0 345.6 
L 460.8 345.6 
L 460.8 0 
L 0 0 
z
" style="fill:#ffffff;"/>
  </g>
  <g id="axes_1">
   <g id="patch_2">
    <path d="M 57.6 307.584 
L 414.72 307.584 
L 414.72 41.472 
L 57.6 41.472 
z
" style="fill:#ffffff;"/>
   </g>
   <g id="PolyCollection_1">
    <path clip-path="url(#p7795e67dab)" d="M 73.832727 101.329084 
L 73.832727 121.146962 
L 75.48072 105.29266 
L 77.128713 101.329084 
L 78.776705 105.29266 
L 80.424698 113.219811 
L 82.07269 133.037688 
L 83.720683 148.89199 
L 85.368676 156.819141 
L 87.016668 156.819141 
L 88.664661 152.855566 
L 90.312653 156.819141 
L 91.960646 164.746292 
L 93.608639 176.637019 
L 95.256631 184.564169 
L 96.904624 204.382047 
L 98.552617 220.236349 
L 100.200609 228.1635 
L 101.848602 236.090651 
L 103.496594 244.017802 
L 105.144587 255.908528 
L 106.79258 259.872103 
L 108.440572 263.835679 
L 110.088565 263.835679 
L 111.736557 263.835679 
L 113.38455 259.872103 
L 115.032543 263.835679 
L 116.680535 263.835679 
L 118.328528 267.799254 
L 119.976521 267.799254 
L 121.624513 271.76283 
L 123.272506 271.76283 
L 124.920498 271.76283 
L 126.568491 271.76283 
L 128.216484 271.76283 
L 129.864476 271.76283 
L 131.512469 271.76283 
L 133.160461 271.76283 
L 134.808454 271.76283 
L 136.456447 271.76283 
L 138.104439 271.76283 
L 139.752432 271.76283 
L 141.400425 271.76283 
L 143.048417 267.799254 
L 144.69641 263.835679 
L 146.344402 255.908528 
L 147.992395 244.017802 
L 149.640388 232.127075 
L 151.28838 220.236349 
L 152.936373 200.418471 
L 154.584365 176.637019 
L 156.232358 156.819141 
L 157.880351 140.964839 
L 159.528343 125.110537 
L 161.176336 113.219811 
L 162.824329 101.329084 
L 164.472321 97.365509 
L 166.120314 93.401934 
L 167.768306 85.474783 
L 169.416299 81.511207 
L 171.064292 73.584056 
L 172.712284 69.620481 
L 174.360277 69.620481 
L 176.008269 69.620481 
L 177.656262 69.620481 
L 179.304255 77.547632 
L 180.952247 85.474783 
L 182.60024 93.401934 
L 184.248233 97.365509 
L 185.896225 113.219811 
L 187.544218 125.110537 
L 189.19221 129.074113 
L 190.840203 133.037688 
L 192.488196 140.964839 
L 194.136188 152.855566 
L 195.784181 164.746292 
L 197.432174 176.637019 
L 199.080166 184.564169 
L 200.728159 192.49132 
L 202.376151 200.418471 
L 204.024144 208.345622 
L 205.672137 216.272773 
L 207.320129 224.199924 
L 208.968122 228.1635 
L 210.616114 236.090651 
L 212.264107 236.090651 
L 213.9121 240.054226 
L 215.560092 240.054226 
L 217.208085 240.054226 
L 218.856078 236.090651 
L 220.50407 236.090651 
L 222.152063 240.054226 
L 223.800055 244.017802 
L 225.448048 247.981377 
L 227.096041 251.944953 
L 228.744033 259.872103 
L 230.392026 263.835679 
L 232.040018 263.835679 
L 233.688011 263.835679 
L 235.336004 263.835679 
L 236.983996 263.835679 
L 238.631989 263.835679 
L 240.279982 267.799254 
L 241.927974 267.799254 
L 243.575967 271.76283 
L 245.223959 271.76283 
L 246.871952 275.726405 
L 248.519945 275.726405 
L 250.167937 275.726405 
L 251.81593 275.726405 
L 253.463922 275.726405 
L 255.111915 275.726405 
L 256.759908 275.726405 
L 258.4079 275.726405 
L 260.055893 271.76283 
L 261.703886 271.76283 
L 263.351878 267.799254 
L 264.999871 263.835679 
L 266.647863 259.872103 
L 268.295856 255.908528 
L 269.943849 247.981377 
L 271.591841 240.054226 
L 273.239834 232.127075 
L 274.887826 224.199924 
L 276.535819 212.309198 
L 278.183812 204.382047 
L 279.831804 200.418471 
L 281.479797 188.527745 
L 283.12779 176.637019 
L 284.775782 168.709868 
L 286.423775 164.746292 
L 288.071767 152.855566 
L 289.71976 137.001264 
L 291.367753 140.964839 
L 293.015745 144.928415 
L 294.663738 137.001264 
L 296.311731 133.037688 
L 297.959723 144.928415 
L 299.607716 156.819141 
L 301.255708 148.89199 
L 302.903701 137.001264 
L 304.551694 144.928415 
L 306.199686 152.855566 
L 307.847679 144.928415 
L 309.495671 137.001264 
L 311.143664 160.782717 
L 312.791657 172.673443 
L 314.439649 172.673443 
L 316.087642 168.709868 
L 317.735635 168.709868 
L 319.383627 176.637019 
L 321.03162 172.673443 
L 322.679612 168.709868 
L 324.327605 172.673443 
L 325.975598 188.527745 
L 327.62359 196.454896 
L 329.271583 196.454896 
L 330.919575 204.382047 
L 332.567568 216.272773 
L 334.215561 224.199924 
L 335.863553 228.1635 
L 337.511546 236.090651 
L 339.159539 247.981377 
L 340.807531 255.908528 
L 342.455524 259.872103 
L 344.103516 263.835679 
L 345.751509 263.835679 
L 347.399502 271.76283 
L 349.047494 271.76283 
L 350.695487 271.76283 
L 352.343479 275.726405 
L 353.991472 275.726405 
L 355.639465 275.726405 
L 357.287457 275.726405 
L 358.93545 275.726405 
L 360.583443 275.726405 
L 362.231435 275.726405 
L 363.879428 275.726405 
L 365.52742 275.726405 
L 367.175413 275.726405 
L 368.823406 275.726405 
L 370.471398 275.726405 
L 372.119391 275.726405 
L 373.767383 275.726405 
L 375.415376 271.76283 
L 377.063369 271.76283 
L 378.711361 267.799254 
L 380.359354 259.872103 
L 382.007347 251.944953 
L 383.655339 244.017802 
L 385.303332 224.199924 
L 386.951324 200.418471 
L 388.599317 184.564169 
L 390.24731 176.637019 
L 391.895302 160.782717 
L 393.543295 152.855566 
L 395.191287 156.819141 
L 396.83928 160.782717 
L 398.487273 152.855566 
L 398.487273 144.928415 
L 398.487273 144.928415 
L 396.83928 152.855566 
L 395.191287 148.89199 
L 393.543295 140.964839 
L 391.895302 148.89199 
L 390.24731 164.746292 
L 388.599317 172.673443 
L 386.951324 184.564169 
L 385.303332 204.382047 
L 383.655339 224.199924 
L 382.007347 236.090651 
L 380.359354 240.054226 
L 378.711361 244.017802 
L 377.063369 247.981377 
L 375.415376 247.981377 
L 373.767383 251.944953 
L 372.119391 251.944953 
L 370.471398 251.944953 
L 368.823406 251.944953 
L 367.175413 251.944953 
L 365.52742 251.944953 
L 363.879428 251.944953 
L 362.231435 251.944953 
L 360.583443 251.944953 
L 358.93545 251.944953 
L 357.287457 251.944953 
L 355.639465 251.944953 
L 353.991472 251.944953 
L 352.343479 247.981377 
L 350.695487 247.981377 
L 349.047494 247.981377 
L 347.399502 244.017802 
L 345.751509 240.054226 
L 344.103516 240.054226 
L 342.455524 236.090651 
L 340.807531 232.127075 
L 339.159539 224.199924 
L 337.511546 216.272773 
L 335.863553 208.345622 
L 334.215561 204.382047 
L 332.567568 196.454896 
L 330.919575 188.527745 
L 329.271583 184.564169 
L 327.62359 184.564169 
L 325.975598 172.673443 
L 324.327605 164.746292 
L 322.679612 160.782717 
L 321.03162 160.782717 
L 319.383627 164.746292 
L 317.735635 160.782717 
L 316.087642 160.782717 
L 314.439649 164.746292 
L 312.791657 160.782717 
L 311.143664 144.928415 
L 309.495671 129.074113 
L 307.847679 133.037688 
L 306.199686 144.928415 
L 304.551694 137.001264 
L 302.903701 129.074113 
L 301.255708 133.037688 
L 299.607716 148.89199 
L 297.959723 133.037688 
L 296.311731 125.110537 
L 294.663738 129.074113 
L 293.015745 137.001264 
L 291.367753 133.037688 
L 289.71976 125.110537 
L 288.071767 137.001264 
L 286.423775 152.855566 
L 284.775782 160.782717 
L 283.12779 164.746292 
L 281.479797 172.673443 
L 279.831804 184.564169 
L 278.183812 192.49132 
L 276.535819 200.418471 
L 274.887826 208.345622 
L 273.239834 216.272773 
L 271.591841 220.236349 
L 269.943849 228.1635 
L 268.295856 236.090651 
L 266.647863 240.054226 
L 264.999871 244.017802 
L 263.351878 247.981377 
L 261.703886 247.981377 
L 260.055893 247.981377 
L 258.4079 251.944953 
L 256.759908 251.944953 
L 255.111915 251.944953 
L 253.463922 251.944953 
L 251.81593 251.944953 
L 250.167937 251.944953 
L 248.519945 251.944953 
L 246.871952 247.981377 
L 245.223959 247.981377 
L 243.575967 247.981377 
L 241.927974 244.017802 
L 240.279982 244.017802 
L 238.631989 244.017802 
L 236.983996 244.017802 
L 235.336004 244.017802 
L 233.688011 240.054226 
L 232.040018 240.054226 
L 230.392026 240.054226 
L 228.744033 236.090651 
L 227.096041 232.127075 
L 225.448048 228.1635 
L 223.800055 224.199924 
L 222.152063 220.236349 
L 220.50407 220.236349 
L 218.856078 220.236349 
L 217.208085 220.236349 
L 215.560092 220.236349 
L 213.9121 220.236349 
L 212.264107 220.236349 
L 210.616114 216.272773 
L 208.968122 212.309198 
L 207.320129 204.382047 
L 205.672137 200.418471 
L 204.024144 192.49132 
L 202.376151 188.527745 
L 200.728159 180.600594 
L 199.080166 172.673443 
L 197.432174 164.746292 
L 195.784181 156.819141 
L 194.136188 140.964839 
L 192.488196 133.037688 
L 190.840203 125.110537 
L 189.19221 121.146962 
L 187.544218 113.219811 
L 185.896225 97.365509 
L 184.248233 85.474783 
L 182.60024 81.511207 
L 180.952247 69.620481 
L 179.304255 61.69333 
L 177.656262 53.766179 
L 176.008269 53.568 
L 174.360277 53.766179 
L 172.712284 53.766179 
L 171.064292 57.729754 
L 169.416299 65.656905 
L 167.768306 69.620481 
L 166.120314 81.511207 
L 164.472321 85.474783 
L 162.824329 89.438358 
L 161.176336 97.365509 
L 159.528343 109.256235 
L 157.880351 125.110537 
L 156.232358 140.964839 
L 154.584365 156.819141 
L 152.936373 180.600594 
L 151.28838 204.382047 
L 149.640388 216.272773 
L 147.992395 228.1635 
L 146.344402 236.090651 
L 144.69641 244.017802 
L 143.048417 244.017802 
L 141.400425 247.981377 
L 139.752432 247.981377 
L 138.104439 247.981377 
L 136.456447 247.981377 
L 134.808454 247.981377 
L 133.160461 247.981377 
L 131.512469 247.981377 
L 129.864476 247.981377 
L 128.216484 247.981377 
L 126.568491 247.981377 
L 124.920498 247.981377 
L 123.272506 247.981377 
L 121.624513 247.981377 
L 119.976521 244.017802 
L 118.328528 244.017802 
L 116.680535 240.054226 
L 115.032543 240.054226 
L 113.38455 240.054226 
L 111.736557 240.054226 
L 110.088565 240.054226 
L 108.440572 240.054226 
L 106.79258 236.090651 
L 105.144587 232.127075 
L 103.496594 224.199924 
L 101.848602 216.272773 
L 100.200609 208.345622 
L 98.552617 200.418471 
L 96.904624 184.564169 
L 95.256631 172.673443 
L 93.608639 164.746292 
L 91.960646 156.819141 
L 90.312653 148.89199 
L 88.664661 144.928415 
L 87.016668 148.89199 
L 85.368676 148.89199 
L 83.720683 137.001264 
L 82.07269 117.183386 
L 80.424698 101.329084 
L 78.776705 93.401934 
L 77.128713 93.401934 
L 75.48072 93.401934 
L 73.832727 101.329084 
z
" style="fill:#008000;fill-opacity:0.4;"/>
   </g>
   <g id="matplotlib.axis_1">
    <g id="xtick_1">
     <g id="line2d_1">
      <defs>
       <path d="M 0 0 
L 0 3.5 
" id="m3f608bdea8" style="stroke:#000000;stroke-width:0.8;"/>
      </defs>
      <g>
       <use style="stroke:#000000;stroke-width:0.8;" x="73.832727" xlink:href="#m3f608bdea8" y="307.584"/>
      </g>
     </g>
     <g id="text_1">
      <!-- 0.0 -->
      <defs>
       <path d="M 31.78125 66.40625 
Q 24.171875 66.40625 20.328125 58.90625 
Q 16.5 51.421875 16.5 36.375 
Q 16.5 21.390625 20.328125 13.890625 
Q 24.171875 6.390625 31.78125 6.390625 
Q 39.453125 6.390625 43.28125 13.890625 
Q 47.125 21.390625 47.125 36.375 
Q 47.125 51.421875 43.28125 58.90625 
Q 39.453125 66.40625 31.78125 66.40625 
z
M 31.78125 74.21875 
Q 44.046875 74.21875 50.515625 64.515625 
Q 56.984375 54.828125 56.984375 36.375 
Q 56.984375 17.96875 50.515625 8.265625 
Q 44.046875 -1.421875 31.78125 -1.421875 
Q 19.53125 -1.421875 13.0625 8.265625 
Q 6.59375 17.96875 6.59375 36.375 
Q 6.59375 54.828125 13.0625 64.515625 
Q 19.53125 74.21875 31.78125 74.21875 
z
" id="DejaVuSans-30"/>
       <path d="M 10.6875 12.40625 
L 21 12.40625 
L 21 0 
L 10.6875 0 
z
" id="DejaVuSans-2e"/>
      </defs>
      <g transform="translate(65.881165 322.182437)scale(0.1 -0.1)">
       <use xlink:href="#DejaVuSans-30"/>
       <use x="63.623047" xlink:href="#DejaVuSans-2e"/>
       <use x="95.410156" xlink:href="#DejaVuSans-30"/>
      </g>
     </g>
    </g>
    <g id="xtick_2">
     <g id="line2d_2">
      <g>
       <use style="stroke:#000000;stroke-width:0.8;" x="138.763636" xlink:href="#m3f608bdea8" y="307.584"/>
      </g>
     </g>
     <g id="text_2">
      <!-- 0.2 -->
      <defs>
       <path d="M 19.1875 8.296875 
L 53.609375 8.296875 
L 53.609375 0 
L 7.328125 0 
L 7.328125 8.296875 
Q 12.9375 14.109375 22.625 23.890625 
Q 32.328125 33.6875 34.8125 36.53125 
Q 39.546875 41.84375 41.421875 45.53125 
Q 43.3125 49.21875 43.3125 52.78125 
Q 43.3125 58.59375 39.234375 62.25 
Q 35.15625 65.921875 28.609375 65.921875 
Q 23.96875 65.921875 18.8125 64.3125 
Q 13.671875 62.703125 7.8125 59.421875 
L 7.8125 69.390625 
Q 13.765625 71.78125 18.9375 73 
Q 24.125 74.21875 28.421875 74.21875 
Q 39.75 74.21875 46.484375 68.546875 
Q 53.21875 62.890625 53.21875 53.421875 
Q 53.21875 48.921875 51.53125 44.890625 
Q 49.859375 40.875 45.40625 35.40625 
Q 44.1875 33.984375 37.640625 27.21875 
Q 31.109375 20.453125 19.1875 8.296875 
z
" id="DejaVuSans-32"/>
      </defs>
      <g transform="translate(130.812074 322.182437)scale(0.1 -0.1)">
       <use xlink:href="#DejaVuSans-30"/>
       <use x="63.623047" xlink:href="#DejaVuSans-2e"/>
       <use x="95.410156" xlink:href="#DejaVuSans-32"/>
      </g>
     </g>
    </g>
    <g id="xtick_3">
     <g id="line2d_3">
      <g>
       <use style="stroke:#000000;stroke-width:0.8;" x="203.694545" xlink:href="#m3f608bdea8" y="307.584"/>
      </g>
     </g>
     <g id="text_3">
      <!-- 0.4 -->
      <defs>
       <path d="M 37.796875 64.3125 
L 12.890625 25.390625 
L 37.796875 25.390625 
z
M 35.203125 72.90625 
L 47.609375 72.90625 
L 47.609375 25.390625 
L 58.015625 25.390625 
L 58.015625 17.1875 
L 47.609375 17.1875 
L 47.609375 0 
L 37.796875 0 
L 37.796875 17.1875 
L 4.890625 17.1875 
L 4.890625 26.703125 
z
" id="DejaVuSans-34"/>
      </defs>
      <g transform="translate(195.742983 322.182437)scale(0.1 -0.1)">
       <use xlink:href="#DejaVuSans-30"/>
       <use x="63.623047" xlink:href="#DejaVuSans-2e"/>
       <use x="95.410156" xlink:href="#DejaVuSans-34"/>
      </g>
     </g>
    </g>
    <g id="xtick_4">
     <g id="line2d_4">
      <g>
       <use style="stroke:#000000;stroke-width:0.8;" x="268.625455" xlink:href="#m3f608bdea8" y="307.584"/>
      </g>
     </g>
     <g id="text_4">
      <!-- 0.6 -->
      <defs>
       <path d="M 33.015625 40.375 
Q 26.375 40.375 22.484375 35.828125 
Q 18.609375 31.296875 18.609375 23.390625 
Q 18.609375 15.53125 22.484375 10.953125 
Q 26.375 6.390625 33.015625 6.390625 
Q 39.65625 6.390625 43.53125 10.953125 
Q 47.40625 15.53125 47.40625 23.390625 
Q 47.40625 31.296875 43.53125 35.828125 
Q 39.65625 40.375 33.015625 40.375 
z
M 52.59375 71.296875 
L 52.59375 62.3125 
Q 48.875 64.0625 45.09375 64.984375 
Q 41.3125 65.921875 37.59375 65.921875 
Q 27.828125 65.921875 22.671875 59.328125 
Q 17.53125 52.734375 16.796875 39.40625 
Q 19.671875 43.65625 24.015625 45.921875 
Q 28.375 48.1875 33.59375 48.1875 
Q 44.578125 48.1875 50.953125 41.515625 
Q 57.328125 34.859375 57.328125 23.390625 
Q 57.328125 12.15625 50.6875 5.359375 
Q 44.046875 -1.421875 33.015625 -1.421875 
Q 20.359375 -1.421875 13.671875 8.265625 
Q 6.984375 17.96875 6.984375 36.375 
Q 6.984375 53.65625 15.1875 63.9375 
Q 23.390625 74.21875 37.203125 74.21875 
Q 40.921875 74.21875 44.703125 73.484375 
Q 48.484375 72.75 52.59375 71.296875 
z
" id="DejaVuSans-36"/>
      </defs>
      <g transform="translate(260.673892 322.182437)scale(0.1 -0.1)">
       <use xlink:href="#DejaVuSans-30"/>
       <use x="63.623047" xlink:href="#DejaVuSans-2e"/>
       <use x="95.410156" xlink:href="#DejaVuSans-36"/>
      </g>
     </g>
    </g>
    <g id="xtick_5">
     <g id="line2d_5">
      <g>
       <use style="stroke:#000000;stroke-width:0.8;" x="333.556364" xlink:href="#m3f608bdea8" y="307.584"/>
      </g>
     </g>
     <g id="text_5">
      <!-- 0.8 -->
      <defs>
       <path d="M 31.78125 34.625 
Q 24.75 34.625 20.71875 30.859375 
Q 16.703125 27.09375 16.703125 20.515625 
Q 16.703125 13.921875 20.71875 10.15625 
Q 24.75 6.390625 31.78125 6.390625 
Q 38.8125 6.390625 42.859375 10.171875 
Q 46.921875 13.96875 46.921875 20.515625 
Q 46.921875 27.09375 42.890625 30.859375 
Q 38.875 34.625 31.78125 34.625 
z
M 21.921875 38.8125 
Q 15.578125 40.375 12.03125 44.71875 
Q 8.5 49.078125 8.5 55.328125 
Q 8.5 64.0625 14.71875 69.140625 
Q 20.953125 74.21875 31.78125 74.21875 
Q 42.671875 74.21875 48.875 69.140625 
Q 55.078125 64.0625 55.078125 55.328125 
Q 55.078125 49.078125 51.53125 44.71875 
Q 48 40.375 41.703125 38.8125 
Q 48.828125 37.15625 52.796875 32.3125 
Q 56.78125 27.484375 56.78125 20.515625 
Q 56.78125 9.90625 50.3125 4.234375 
Q 43.84375 -1.421875 31.78125 -1.421875 
Q 19.734375 -1.421875 13.25 4.234375 
Q 6.78125 9.90625 6.78125 20.515625 
Q 6.78125 27.484375 10.78125 32.3125 
Q 14.796875 37.15625 21.921875 38.8125 
z
M 18.3125 54.390625 
Q 18.3125 48.734375 21.84375 45.5625 
Q 25.390625 42.390625 31.78125 42.390625 
Q 38.140625 42.390625 41.71875 45.5625 
Q 45.3125 48.734375 45.3125 54.390625 
Q 45.3125 60.0625 41.71875 63.234375 
Q 38.140625 66.40625 31.78125 66.40625 
Q 25.390625 66.40625 21.84375 63.234375 
Q 18.3125 60.0625 18.3125 54.390625 
z
" id="DejaVuSans-38"/>
      </defs>
      <g transform="translate(325.604801 322.182437)scale(0.1 -0.1)">
       <use xlink:href="#DejaVuSans-30"/>
       <use x="63.623047" xlink:href="#DejaVuSans-2e"/>
       <use x="95.410156" xlink:href="#DejaVuSans-38"/>
      </g>
     </g>
    </g>
    <g id="xtick_6">
     <g id="line2d_6">
      <g>
       <use style="stroke:#000000;stroke-width:0.8;" x="398.487273" xlink:href="#m3f608bdea8" y="307.584"/>
      </g>
     </g>
     <g id="text_6">
      <!-- 1.0 -->
      <defs>
       <path d="M 12.40625 8.296875 
L 28.515625 8.296875 
L 28.515625 63.921875 
L 10.984375 60.40625 
L 10.984375 69.390625 
L 28.421875 72.90625 
L 38.28125 72.90625 
L 38.28125 8.296875 
L 54.390625 8.296875 
L 54.390625 0 
L 12.40625 0 
z
" id="DejaVuSans-31"/>
      </defs>
      <g transform="translate(390.53571 322.182437)scale(0.1 -0.1)">
       <use xlink:href="#DejaVuSans-31"/>
       <use x="63.623047" xlink:href="#DejaVuSans-2e"/>
       <use x="95.410156" xlink:href="#DejaVuSans-30"/>
      </g>
     </g>
    </g>
   </g>
   <g id="matplotlib.axis_2">
    <g id="ytick_1">
     <g id="line2d_7">
      <defs>
       <path d="M 0 0 
L -3.5 0 
" id="m4349eeea10" style="stroke:#000000;stroke-width:0.8;"/>
      </defs>
      <g>
       <use style="stroke:#000000;stroke-width:0.8;" x="57.6" xlink:href="#m4349eeea10" y="299.507858"/>
      </g>
     </g>
     <g id="text_7">
      <!-- 0.0 -->
      <g transform="translate(34.696875 303.307077)scale(0.1 -0.1)">
       <use xlink:href="#DejaVuSans-30"/>
       <use x="63.623047" xlink:href="#DejaVuSans-2e"/>
       <use x="95.410156" xlink:href="#DejaVuSans-30"/>
      </g>
     </g>
    </g>
    <g id="ytick_2">
     <g id="line2d_8">
      <g>
       <use style="stroke:#000000;stroke-width:0.8;" x="57.6" xlink:href="#m4349eeea10" y="259.872103"/>
      </g>
     </g>
     <g id="text_8">
      <!-- 0.1 -->
      <g transform="translate(34.696875 263.671322)scale(0.1 -0.1)">
       <use xlink:href="#DejaVuSans-30"/>
       <use x="63.623047" xlink:href="#DejaVuSans-2e"/>
       <use x="95.410156" xlink:href="#DejaVuSans-31"/>
      </g>
     </g>
    </g>
    <g id="ytick_3">
     <g id="line2d_9">
      <g>
       <use style="stroke:#000000;stroke-width:0.8;" x="57.6" xlink:href="#m4349eeea10" y="220.236349"/>
      </g>
     </g>
     <g id="text_9">
      <!-- 0.2 -->
      <g transform="translate(34.696875 224.035567)scale(0.1 -0.1)">
       <use xlink:href="#DejaVuSans-30"/>
       <use x="63.623047" xlink:href="#DejaVuSans-2e"/>
       <use x="95.410156" xlink:href="#DejaVuSans-32"/>
      </g>
     </g>
    </g>
    <g id="ytick_4">
     <g id="line2d_10">
      <g>
       <use style="stroke:#000000;stroke-width:0.8;" x="57.6" xlink:href="#m4349eeea10" y="180.600594"/>
      </g>
     </g>
     <g id="text_10">
      <!-- 0.3 -->
      <defs>
       <path d="M 40.578125 39.3125 
Q 47.65625 37.796875 51.625 33 
Q 55.609375 28.21875 55.609375 21.1875 
Q 55.609375 10.40625 48.1875 4.484375 
Q 40.765625 -1.421875 27.09375 -1.421875 
Q 22.515625 -1.421875 17.65625 -0.515625 
Q 12.796875 0.390625 7.625 2.203125 
L 7.625 11.71875 
Q 11.71875 9.328125 16.59375 8.109375 
Q 21.484375 6.890625 26.8125 6.890625 
Q 36.078125 6.890625 40.9375 10.546875 
Q 45.796875 14.203125 45.796875 21.1875 
Q 45.796875 27.640625 41.28125 31.265625 
Q 36.765625 34.90625 28.71875 34.90625 
L 20.21875 34.90625 
L 20.21875 43.015625 
L 29.109375 43.015625 
Q 36.375 43.015625 40.234375 45.921875 
Q 44.09375 48.828125 44.09375 54.296875 
Q 44.09375 59.90625 40.109375 62.90625 
Q 36.140625 65.921875 28.71875 65.921875 
Q 24.65625 65.921875 20.015625 65.03125 
Q 15.375 64.15625 9.8125 62.3125 
L 9.8125 71.09375 
Q 15.4375 72.65625 20.34375 73.4375 
Q 25.25 74.21875 29.59375 74.21875 
Q 40.828125 74.21875 47.359375 69.109375 
Q 53.90625 64.015625 53.90625 55.328125 
Q 53.90625 49.265625 50.4375 45.09375 
Q 46.96875 40.921875 40.578125 39.3125 
z
" id="DejaVuSans-33"/>
      </defs>
      <g transform="translate(34.696875 184.399813)scale(0.1 -0.1)">
       <use xlink:href="#DejaVuSans-30"/>
       <use x="63.623047" xlink:href="#DejaVuSans-2e"/>
       <use x="95.410156" xlink:href="#DejaVuSans-33"/>
      </g>
     </g>
    </g>
    <g id="ytick_5">
     <g id="line2d_11">
      <g>
       <use style="stroke:#000000;stroke-width:0.8;" x="57.6" xlink:href="#m4349eeea10" y="140.964839"/>
      </g>
     </g>
     <g id="text_11">
      <!-- 0.4 -->
      <g transform="translate(34.696875 144.764058)scale(0.1 -0.1)">
       <use xlink:href="#DejaVuSans-30"/>
       <use x="63.623047" xlink:href="#DejaVuSans-2e"/>
       <use x="95.410156" xlink:href="#DejaVuSans-34"/>
      </g>
     </g>
    </g>
    <g id="ytick_6">
     <g id="line2d_12">
      <g>
       <use style="stroke:#000000;stroke-width:0.8;" x="57.6" xlink:href="#m4349eeea10" y="101.329084"/>
      </g>
     </g>
     <g id="text_12">
      <!-- 0.5 -->
      <defs>
       <path d="M 10.796875 72.90625 
L 49.515625 72.90625 
L 49.515625 64.59375 
L 19.828125 64.59375 
L 19.828125 46.734375 
Q 21.96875 47.46875 24.109375 47.828125 
Q 26.265625 48.1875 28.421875 48.1875 
Q 40.625 48.1875 47.75 41.5 
Q 54.890625 34.8125 54.890625 23.390625 
Q 54.890625 11.625 47.5625 5.09375 
Q 40.234375 -1.421875 26.90625 -1.421875 
Q 22.3125 -1.421875 17.546875 -0.640625 
Q 12.796875 0.140625 7.71875 1.703125 
L 7.71875 11.625 
Q 12.109375 9.234375 16.796875 8.0625 
Q 21.484375 6.890625 26.703125 6.890625 
Q 35.15625 6.890625 40.078125 11.328125 
Q 45.015625 15.765625 45.015625 23.390625 
Q 45.015625 31 40.078125 35.4375 
Q 35.15625 39.890625 26.703125 39.890625 
Q 22.75 39.890625 18.8125 39.015625 
Q 14.890625 38.140625 10.796875 36.28125 
z
" id="DejaVuSans-35"/>
      </defs>
      <g transform="translate(34.696875 105.128303)scale(0.1 -0.1)">
       <use xlink:href="#DejaVuSans-30"/>
       <use x="63.623047" xlink:href="#DejaVuSans-2e"/>
       <use x="95.410156" xlink:href="#DejaVuSans-35"/>
      </g>
     </g>
    </g>
    <g id="ytick_7">
     <g id="line2d_13">
      <g>
       <use style="stroke:#000000;stroke-width:0.8;" x="57.6" xlink:href="#m4349eeea10" y="61.69333"/>
      </g>
     </g>
     <g id="text_13">
      <!-- 0.6 -->
      <g transform="translate(34.696875 65.492548)scale(0.1 -0.1)">
       <use xlink:href="#DejaVuSans-30"/>
       <use x="63.623047" xlink:href="#DejaVuSans-2e"/>
       <use x="95.410156" xlink:href="#DejaVuSans-36"/>
      </g>
     </g>
    </g>
   </g>
   <g id="line2d_14">
    <path clip-path="url(#p7795e67dab)" d="M 73.832727 103.874889 
L 75.48072 99.587093 
L 77.128713 107.358872 
L 78.776705 108.162685 
L 80.424698 126.118078 
L 82.07269 141.929574 
L 83.720683 154.257086 
L 85.368676 151.577313 
L 87.016668 145.681494 
L 88.664661 152.381126 
L 90.312653 157.473131 
L 91.960646 168.192621 
L 93.608639 173.016292 
L 95.256631 189.899935 
L 96.904624 208.123266 
L 100.200609 230.366455 
L 101.848602 237.066087 
L 103.496594 254.485604 
L 105.144587 262.257225 
L 106.79258 264.66914 
L 108.440572 267.617009 
L 110.088565 265.473111 
L 111.736557 264.66914 
L 113.38455 264.66914 
L 115.032543 268.956975 
L 116.680535 276.460697 
L 118.328528 278.604635 
L 119.976521 279.944561 
L 121.624513 283.96442 
L 123.272506 283.96442 
L 124.920498 285.304386 
L 126.568491 282.088499 
L 128.216484 280.480556 
L 129.864476 282.892471 
L 131.512469 282.624493 
L 133.160461 284.232397 
L 134.808454 284.500414 
L 136.456447 286.108357 
L 138.104439 283.96442 
L 139.752432 280.748533 
L 141.400425 276.460697 
L 143.048417 270.564919 
L 144.69641 255.289418 
L 146.344402 236.798149 
L 147.992395 221.254591 
L 149.640388 206.783181 
L 152.936373 165.512848 
L 154.584365 148.09333 
L 156.232358 133.353982 
L 157.880351 121.830282 
L 159.528343 109.234832 
L 161.176336 103.071076 
L 162.824329 97.711133 
L 164.472321 92.887461 
L 167.768306 78.148113 
L 171.064292 68.232437 
L 172.712284 70.91221 
L 174.360277 66.892352 
L 176.008269 68.500374 
L 177.656262 78.148113 
L 179.304255 86.723705 
L 180.952247 96.90732 
L 182.60024 97.443195 
L 184.248233 108.431019 
L 185.896225 124.77839 
L 187.544218 127.458163 
L 189.19221 129.334123 
L 190.840203 136.837964 
L 192.488196 143.537596 
L 194.136188 158.81282 
L 197.432174 174.624315 
L 199.080166 184.272054 
L 200.728159 188.023974 
L 202.376151 197.671714 
L 204.024144 204.907221 
L 205.672137 213.751147 
L 207.320129 218.842756 
L 208.968122 228.222557 
L 210.616114 230.634393 
L 213.9121 229.02637 
L 215.560092 230.90233 
L 217.208085 230.634393 
L 218.856078 225.542387 
L 222.152063 240.818007 
L 223.800055 245.105803 
L 225.448048 247.517639 
L 227.096041 259.041338 
L 228.744033 266.813038 
L 230.392026 268.956975 
L 232.040018 270.296941 
L 233.688011 269.224953 
L 235.336004 271.36889 
L 236.983996 271.100913 
L 238.631989 272.976833 
L 240.279982 277.532646 
L 243.575967 285.036369 
L 245.223959 287.7163 
L 246.871952 290.932187 
L 248.519945 292.004136 
L 250.167937 291.200164 
L 251.81593 289.860198 
L 253.463922 292.004136 
L 255.111915 292.272113 
L 256.759908 289.056227 
L 258.4079 286.108357 
L 260.055893 283.428425 
L 261.703886 278.336618 
L 263.351878 271.100913 
L 264.999871 260.649281 
L 266.647863 254.217667 
L 268.295856 239.209985 
L 269.943849 228.222557 
L 271.591841 220.18284 
L 273.239834 209.731288 
L 274.887826 198.475527 
L 276.535819 189.364059 
L 278.183812 188.023974 
L 279.831804 175.160587 
L 281.479797 164.4407 
L 283.12779 162.028865 
L 284.775782 156.133046 
L 286.423775 147.825392 
L 288.071767 129.602061 
L 289.71976 137.641778 
L 291.367753 140.053613 
L 293.015745 134.69367 
L 294.663738 127.458163 
L 296.311731 135.229942 
L 297.959723 156.133046 
L 299.607716 139.785676 
L 301.255708 132.281834 
L 302.903701 138.445591 
L 304.551694 152.113188 
L 306.199686 139.785676 
L 307.847679 131.210084 
L 309.495671 149.96929 
L 311.143664 164.708638 
L 312.791657 163.904825 
L 314.439649 161.225052 
L 316.087642 160.420842 
L 317.735635 168.460559 
L 319.383627 164.172763 
L 321.03162 157.205193 
L 322.679612 163.904825 
L 324.327605 175.160587 
L 325.975598 190.43581 
L 327.62359 183.468241 
L 329.271583 190.43581 
L 330.919575 204.639283 
L 335.863553 225.27445 
L 337.511546 244.30199 
L 339.159539 257.433316 
L 340.807531 261.989208 
L 342.455524 265.205094 
L 344.103516 269.49297 
L 345.751509 279.408607 
L 347.399502 283.96442 
L 349.047494 285.84034 
L 350.695487 288.788249 
L 352.343479 291.200164 
L 353.991472 291.468142 
L 355.639465 290.396193 
L 357.287457 290.396193 
L 358.93545 289.056227 
L 360.583443 290.128215 
L 362.231435 292.004136 
L 363.879428 292.808108 
L 365.52742 294.684028 
L 367.175413 295.488 
L 368.823406 295.488 
L 370.471398 293.076085 
L 372.119391 289.056227 
L 373.767383 286.108357 
L 375.415376 282.088499 
L 377.063369 275.924703 
L 378.711361 264.937117 
L 382.007347 234.386313 
L 383.655339 206.247305 
L 385.303332 186.148014 
L 386.951324 173.820502 
L 388.599317 166.048723 
L 390.24731 155.061295 
L 391.895302 142.465449 
L 393.543295 150.505165 
L 395.191287 155.597171 
L 396.83928 148.629205 
L 398.487273 138.177653 
L 398.487273 138.177653 
" style="fill:none;stroke:#1f77b4;stroke-linecap:square;stroke-width:1.5;"/>
   </g>
   <g id="line2d_15">
    <path clip-path="url(#p7795e67dab)" d="M 73.832727 110.814141 
L 75.48072 96.905294 
L 77.128713 96.999979 
L 78.776705 99.803108 
L 80.424698 107.408769 
L 83.720683 142.886072 
L 85.368676 155.08838 
L 87.016668 152.920524 
L 88.664661 149.280641 
L 90.312653 154.194373 
L 91.960646 161.779115 
L 93.608639 172.613989 
L 95.256631 181.743425 
L 98.552617 213.966193 
L 100.200609 225.445148 
L 101.848602 233.306239 
L 103.496594 240.315162 
L 105.144587 249.218893 
L 106.79258 254.753586 
L 108.440572 256.283967 
L 110.088565 257.294678 
L 113.38455 256.040647 
L 115.032543 256.571326 
L 116.680535 258.640092 
L 118.328528 261.561027 
L 119.976521 262.948278 
L 121.624513 264.093311 
L 123.272506 265.037964 
L 124.920498 265.609379 
L 126.568491 265.783336 
L 128.216484 264.696656 
L 129.864476 264.240844 
L 136.456447 265.739296 
L 138.104439 266.111432 
L 139.752432 265.386978 
L 141.400425 264.193502 
L 143.048417 262.249148 
L 144.69641 258.712758 
L 146.344402 250.470723 
L 147.992395 238.948829 
L 149.640388 226.208136 
L 151.28838 212.254148 
L 152.936373 192.236991 
L 154.584365 168.758311 
L 157.880351 131.302523 
L 159.528343 116.24534 
L 161.176336 103.40776 
L 162.824329 95.263713 
L 164.472321 90.651653 
L 166.120314 84.188823 
L 167.768306 76.122946 
L 169.416299 68.633991 
L 171.064292 63.569422 
L 172.712284 60.113405 
L 174.360277 59.935044 
L 176.008269 57.079067 
L 177.656262 62.054455 
L 179.304255 71.367757 
L 182.60024 88.776661 
L 184.248233 93.334773 
L 187.544218 119.99202 
L 189.19221 125.741406 
L 190.840203 129.415421 
L 192.488196 135.697688 
L 194.136188 147.548778 
L 195.784181 160.734273 
L 199.080166 181.922887 
L 200.728159 190.134094 
L 204.024144 204.084779 
L 205.672137 212.815655 
L 207.320129 219.582359 
L 210.616114 231.238574 
L 212.264107 233.257795 
L 213.9121 233.767555 
L 215.560092 233.703697 
L 217.208085 234.191437 
L 218.856078 232.240477 
L 220.50407 231.574377 
L 222.152063 236.612521 
L 223.800055 241.256511 
L 225.448048 243.751361 
L 227.096041 247.413265 
L 228.744033 252.961169 
L 230.392026 256.914836 
L 232.040018 258.521185 
L 235.336004 259.028743 
L 236.983996 259.432807 
L 238.631989 259.683834 
L 240.279982 260.649405 
L 241.927974 262.391176 
L 243.575967 264.375166 
L 246.871952 267.116639 
L 248.519945 268.072301 
L 250.167937 268.442234 
L 253.463922 268.128451 
L 255.111915 268.366266 
L 256.759908 268.454345 
L 258.4079 267.577955 
L 261.703886 265.197608 
L 263.351878 262.776524 
L 264.999871 259.300688 
L 266.647863 254.818545 
L 268.295856 249.373032 
L 271.591841 232.241578 
L 273.239834 225.310826 
L 274.887826 216.234239 
L 276.535819 205.457717 
L 278.183812 197.399548 
L 279.831804 193.004383 
L 281.479797 180.020371 
L 283.12779 169.456341 
L 284.775782 164.9764 
L 286.423775 158.711748 
L 289.71976 131.871736 
L 291.367753 137.034294 
L 293.015745 139.856139 
L 294.663738 131.691174 
L 296.311731 126.959105 
L 299.607716 153.719845 
L 301.255708 140.527745 
L 302.903701 131.516116 
L 304.551694 142.084549 
L 306.199686 149.718836 
L 307.847679 139.077737 
L 309.495671 134.001057 
L 311.143664 153.326791 
L 312.791657 167.602268 
L 314.439649 168.738493 
L 316.087642 164.009728 
L 317.735635 165.915547 
L 319.383627 171.518501 
L 321.03162 166.451731 
L 322.679612 163.273163 
L 324.327605 168.584354 
L 325.975598 184.837216 
L 327.62359 193.890683 
L 329.271583 192.492421 
L 330.919575 198.922222 
L 332.567568 210.414389 
L 334.215561 218.534213 
L 335.863553 223.904858 
L 337.511546 231.512721 
L 339.159539 243.237197 
L 340.807531 251.589332 
L 342.455524 254.706243 
L 344.103516 256.384157 
L 345.751509 258.995713 
L 347.399502 263.050671 
L 349.047494 265.15577 
L 350.695487 266.192905 
L 352.343479 267.518501 
L 353.991472 268.130653 
L 355.639465 268.281489 
L 358.93545 267.998534 
L 360.583443 267.742003 
L 362.231435 268.000736 
L 368.823406 269.707276 
L 370.471398 269.77884 
L 372.119391 268.838592 
L 373.767383 267.607682 
L 375.415376 266.227036 
L 377.063369 264.47976 
L 378.711361 261.860497 
L 380.359354 255.742278 
L 382.007347 247.642271 
L 383.655339 234.946719 
L 386.951324 192.691701 
L 388.599317 179.315735 
L 390.24731 169.902243 
L 391.895302 155.955962 
L 393.543295 146.717529 
L 395.191287 152.396451 
L 396.83928 156.837858 
L 398.487273 149.274035 
L 398.487273 149.274035 
" style="fill:none;stroke:#ff7f0e;stroke-linecap:square;stroke-width:1.5;"/>
   </g>
   <g id="line2d_16">
    <path clip-path="url(#p7795e67dab)" d="M 73.832727 121.146962 
L 75.48072 105.29266 
L 77.128713 101.329084 
L 78.776705 105.29266 
L 80.424698 113.219811 
L 82.07269 133.037688 
L 83.720683 148.89199 
L 85.368676 156.819141 
L 87.016668 156.819141 
L 88.664661 152.855566 
L 90.312653 156.819141 
L 91.960646 164.746292 
L 93.608639 176.637019 
L 95.256631 184.564169 
L 96.904624 204.382047 
L 98.552617 220.236349 
L 103.496594 244.017802 
L 105.144587 255.908528 
L 108.440572 263.835679 
L 111.736557 263.835679 
L 113.38455 259.872103 
L 115.032543 263.835679 
L 116.680535 263.835679 
L 118.328528 267.799254 
L 119.976521 267.799254 
L 121.624513 271.76283 
L 141.400425 271.76283 
L 144.69641 263.835679 
L 146.344402 255.908528 
L 151.28838 220.236349 
L 152.936373 200.418471 
L 154.584365 176.637019 
L 156.232358 156.819141 
L 159.528343 125.110537 
L 162.824329 101.329084 
L 166.120314 93.401934 
L 167.768306 85.474783 
L 169.416299 81.511207 
L 171.064292 73.584056 
L 172.712284 69.620481 
L 177.656262 69.620481 
L 182.60024 93.401934 
L 184.248233 97.365509 
L 185.896225 113.219811 
L 187.544218 125.110537 
L 190.840203 133.037688 
L 192.488196 140.964839 
L 197.432174 176.637019 
L 207.320129 224.199924 
L 208.968122 228.1635 
L 210.616114 236.090651 
L 212.264107 236.090651 
L 213.9121 240.054226 
L 217.208085 240.054226 
L 218.856078 236.090651 
L 220.50407 236.090651 
L 227.096041 251.944953 
L 228.744033 259.872103 
L 230.392026 263.835679 
L 238.631989 263.835679 
L 240.279982 267.799254 
L 241.927974 267.799254 
L 243.575967 271.76283 
L 245.223959 271.76283 
L 246.871952 275.726405 
L 258.4079 275.726405 
L 260.055893 271.76283 
L 261.703886 271.76283 
L 268.295856 255.908528 
L 274.887826 224.199924 
L 276.535819 212.309198 
L 278.183812 204.382047 
L 279.831804 200.418471 
L 283.12779 176.637019 
L 284.775782 168.709868 
L 286.423775 164.746292 
L 288.071767 152.855566 
L 289.71976 137.001264 
L 293.015745 144.928415 
L 294.663738 137.001264 
L 296.311731 133.037688 
L 299.607716 156.819141 
L 301.255708 148.89199 
L 302.903701 137.001264 
L 306.199686 152.855566 
L 309.495671 137.001264 
L 311.143664 160.782717 
L 312.791657 172.673443 
L 314.439649 172.673443 
L 316.087642 168.709868 
L 317.735635 168.709868 
L 319.383627 176.637019 
L 322.679612 168.709868 
L 324.327605 172.673443 
L 325.975598 188.527745 
L 327.62359 196.454896 
L 329.271583 196.454896 
L 330.919575 204.382047 
L 332.567568 216.272773 
L 334.215561 224.199924 
L 335.863553 228.1635 
L 337.511546 236.090651 
L 339.159539 247.981377 
L 340.807531 255.908528 
L 344.103516 263.835679 
L 345.751509 263.835679 
L 347.399502 271.76283 
L 350.695487 271.76283 
L 352.343479 275.726405 
L 373.767383 275.726405 
L 375.415376 271.76283 
L 377.063369 271.76283 
L 378.711361 267.799254 
L 383.655339 244.017802 
L 385.303332 224.199924 
L 386.951324 200.418471 
L 388.599317 184.564169 
L 390.24731 176.637019 
L 391.895302 160.782717 
L 393.543295 152.855566 
L 396.83928 160.782717 
L 398.487273 152.855566 
L 398.487273 152.855566 
" style="fill:none;stroke:#2ca02c;stroke-linecap:square;stroke-width:1.5;"/>
   </g>
   <g id="line2d_17">
    <path clip-path="url(#p7795e67dab)" d="M 73.832727 101.329084 
L 75.48072 93.401934 
L 78.776705 93.401934 
L 80.424698 101.329084 
L 82.07269 117.183386 
L 83.720683 137.001264 
L 85.368676 148.89199 
L 87.016668 148.89199 
L 88.664661 144.928415 
L 90.312653 148.89199 
L 95.256631 172.673443 
L 96.904624 184.564169 
L 98.552617 200.418471 
L 105.144587 232.127075 
L 108.440572 240.054226 
L 116.680535 240.054226 
L 118.328528 244.017802 
L 119.976521 244.017802 
L 121.624513 247.981377 
L 141.400425 247.981377 
L 143.048417 244.017802 
L 144.69641 244.017802 
L 147.992395 228.1635 
L 151.28838 204.382047 
L 154.584365 156.819141 
L 159.528343 109.256235 
L 161.176336 97.365509 
L 162.824329 89.438358 
L 166.120314 81.511207 
L 167.768306 69.620481 
L 169.416299 65.656905 
L 171.064292 57.729754 
L 172.712284 53.766179 
L 174.360277 53.766179 
L 176.008269 53.568 
L 177.656262 53.766179 
L 180.952247 69.620481 
L 182.60024 81.511207 
L 184.248233 85.474783 
L 185.896225 97.365509 
L 187.544218 113.219811 
L 189.19221 121.146962 
L 190.840203 125.110537 
L 194.136188 140.964839 
L 195.784181 156.819141 
L 202.376151 188.527745 
L 204.024144 192.49132 
L 205.672137 200.418471 
L 207.320129 204.382047 
L 208.968122 212.309198 
L 212.264107 220.236349 
L 222.152063 220.236349 
L 230.392026 240.054226 
L 233.688011 240.054226 
L 235.336004 244.017802 
L 241.927974 244.017802 
L 243.575967 247.981377 
L 246.871952 247.981377 
L 248.519945 251.944953 
L 258.4079 251.944953 
L 260.055893 247.981377 
L 263.351878 247.981377 
L 268.295856 236.090651 
L 271.591841 220.236349 
L 273.239834 216.272773 
L 279.831804 184.564169 
L 281.479797 172.673443 
L 283.12779 164.746292 
L 284.775782 160.782717 
L 286.423775 152.855566 
L 288.071767 137.001264 
L 289.71976 125.110537 
L 291.367753 133.037688 
L 293.015745 137.001264 
L 294.663738 129.074113 
L 296.311731 125.110537 
L 297.959723 133.037688 
L 299.607716 148.89199 
L 301.255708 133.037688 
L 302.903701 129.074113 
L 306.199686 144.928415 
L 307.847679 133.037688 
L 309.495671 129.074113 
L 312.791657 160.782717 
L 314.439649 164.746292 
L 316.087642 160.782717 
L 317.735635 160.782717 
L 319.383627 164.746292 
L 321.03162 160.782717 
L 322.679612 160.782717 
L 324.327605 164.746292 
L 325.975598 172.673443 
L 327.62359 184.564169 
L 329.271583 184.564169 
L 330.919575 188.527745 
L 334.215561 204.382047 
L 335.863553 208.345622 
L 340.807531 232.127075 
L 344.103516 240.054226 
L 345.751509 240.054226 
L 349.047494 247.981377 
L 352.343479 247.981377 
L 353.991472 251.944953 
L 373.767383 251.944953 
L 375.415376 247.981377 
L 377.063369 247.981377 
L 382.007347 236.090651 
L 383.655339 224.199924 
L 386.951324 184.564169 
L 388.599317 172.673443 
L 390.24731 164.746292 
L 391.895302 148.89199 
L 393.543295 140.964839 
L 395.191287 148.89199 
L 396.83928 152.855566 
L 398.487273 144.928415 
L 398.487273 144.928415 
" style="fill:none;stroke:#d62728;stroke-linecap:square;stroke-width:1.5;"/>
   </g>
   <g id="patch_3">
    <path d="M 57.6 307.584 
L 57.6 41.472 
" style="fill:none;stroke:#000000;stroke-linecap:square;stroke-linejoin:miter;stroke-width:0.8;"/>
   </g>
   <g id="patch_4">
    <path d="M 414.72 307.584 
L 414.72 41.472 
" style="fill:none;stroke:#000000;stroke-linecap:square;stroke-linejoin:miter;stroke-width:0.8;"/>
   </g>
   <g id="patch_5">
    <path d="M 57.6 307.584 
L 414.72 307.584 
" style="fill:none;stroke:#000000;stroke-linecap:square;stroke-linejoin:miter;stroke-width:0.8;"/>
   </g>
   <g id="patch_6">
    <path d="M 57.6 41.472 
L 414.72 41.472 
" style="fill:none;stroke:#000000;stroke-linecap:square;stroke-linejoin:miter;stroke-width:0.8;"/>
   </g>
   <g id="text_14">
    <!-- Plot of Test Data vs MCMC Uncertainty  -->
    <defs>
     <path d="M 19.671875 64.796875 
L 19.671875 37.40625 
L 32.078125 37.40625 
Q 38.96875 37.40625 42.71875 40.96875 
Q 46.484375 44.53125 46.484375 51.125 
Q 46.484375 57.671875 42.71875 61.234375 
Q 38.96875 64.796875 32.078125 64.796875 
z
M 9.8125 72.90625 
L 32.078125 72.90625 
Q 44.34375 72.90625 50.609375 67.359375 
Q 56.890625 61.8125 56.890625 51.125 
Q 56.890625 40.328125 50.609375 34.8125 
Q 44.34375 29.296875 32.078125 29.296875 
L 19.671875 29.296875 
L 19.671875 0 
L 9.8125 0 
z
" id="DejaVuSans-50"/>
     <path d="M 9.421875 75.984375 
L 18.40625 75.984375 
L 18.40625 0 
L 9.421875 0 
z
" id="DejaVuSans-6c"/>
     <path d="M 30.609375 48.390625 
Q 23.390625 48.390625 19.1875 42.75 
Q 14.984375 37.109375 14.984375 27.296875 
Q 14.984375 17.484375 19.15625 11.84375 
Q 23.34375 6.203125 30.609375 6.203125 
Q 37.796875 6.203125 41.984375 11.859375 
Q 46.1875 17.53125 46.1875 27.296875 
Q 46.1875 37.015625 41.984375 42.703125 
Q 37.796875 48.390625 30.609375 48.390625 
z
M 30.609375 56 
Q 42.328125 56 49.015625 48.375 
Q 55.71875 40.765625 55.71875 27.296875 
Q 55.71875 13.875 49.015625 6.21875 
Q 42.328125 -1.421875 30.609375 -1.421875 
Q 18.84375 -1.421875 12.171875 6.21875 
Q 5.515625 13.875 5.515625 27.296875 
Q 5.515625 40.765625 12.171875 48.375 
Q 18.84375 56 30.609375 56 
z
" id="DejaVuSans-6f"/>
     <path d="M 18.3125 70.21875 
L 18.3125 54.6875 
L 36.8125 54.6875 
L 36.8125 47.703125 
L 18.3125 47.703125 
L 18.3125 18.015625 
Q 18.3125 11.328125 20.140625 9.421875 
Q 21.96875 7.515625 27.59375 7.515625 
L 36.8125 7.515625 
L 36.8125 0 
L 27.59375 0 
Q 17.1875 0 13.234375 3.875 
Q 9.28125 7.765625 9.28125 18.015625 
L 9.28125 47.703125 
L 2.6875 47.703125 
L 2.6875 54.6875 
L 9.28125 54.6875 
L 9.28125 70.21875 
z
" id="DejaVuSans-74"/>
     <path id="DejaVuSans-20"/>
     <path d="M 37.109375 75.984375 
L 37.109375 68.5 
L 28.515625 68.5 
Q 23.6875 68.5 21.796875 66.546875 
Q 19.921875 64.59375 19.921875 59.515625 
L 19.921875 54.6875 
L 34.71875 54.6875 
L 34.71875 47.703125 
L 19.921875 47.703125 
L 19.921875 0 
L 10.890625 0 
L 10.890625 47.703125 
L 2.296875 47.703125 
L 2.296875 54.6875 
L 10.890625 54.6875 
L 10.890625 58.5 
Q 10.890625 67.625 15.140625 71.796875 
Q 19.390625 75.984375 28.609375 75.984375 
z
" id="DejaVuSans-66"/>
     <path d="M -0.296875 72.90625 
L 61.375 72.90625 
L 61.375 64.59375 
L 35.5 64.59375 
L 35.5 0 
L 25.59375 0 
L 25.59375 64.59375 
L -0.296875 64.59375 
z
" id="DejaVuSans-54"/>
     <path d="M 56.203125 29.59375 
L 56.203125 25.203125 
L 14.890625 25.203125 
Q 15.484375 15.921875 20.484375 11.0625 
Q 25.484375 6.203125 34.421875 6.203125 
Q 39.59375 6.203125 44.453125 7.46875 
Q 49.3125 8.734375 54.109375 11.28125 
L 54.109375 2.78125 
Q 49.265625 0.734375 44.1875 -0.34375 
Q 39.109375 -1.421875 33.890625 -1.421875 
Q 20.796875 -1.421875 13.15625 6.1875 
Q 5.515625 13.8125 5.515625 26.8125 
Q 5.515625 40.234375 12.765625 48.109375 
Q 20.015625 56 32.328125 56 
Q 43.359375 56 49.78125 48.890625 
Q 56.203125 41.796875 56.203125 29.59375 
z
M 47.21875 32.234375 
Q 47.125 39.59375 43.09375 43.984375 
Q 39.0625 48.390625 32.421875 48.390625 
Q 24.90625 48.390625 20.390625 44.140625 
Q 15.875 39.890625 15.1875 32.171875 
z
" id="DejaVuSans-65"/>
     <path d="M 44.28125 53.078125 
L 44.28125 44.578125 
Q 40.484375 46.53125 36.375 47.5 
Q 32.28125 48.484375 27.875 48.484375 
Q 21.1875 48.484375 17.84375 46.4375 
Q 14.5 44.390625 14.5 40.28125 
Q 14.5 37.15625 16.890625 35.375 
Q 19.28125 33.59375 26.515625 31.984375 
L 29.59375 31.296875 
Q 39.15625 29.25 43.1875 25.515625 
Q 47.21875 21.78125 47.21875 15.09375 
Q 47.21875 7.46875 41.1875 3.015625 
Q 35.15625 -1.421875 24.609375 -1.421875 
Q 20.21875 -1.421875 15.453125 -0.5625 
Q 10.6875 0.296875 5.421875 2 
L 5.421875 11.28125 
Q 10.40625 8.6875 15.234375 7.390625 
Q 20.0625 6.109375 24.8125 6.109375 
Q 31.15625 6.109375 34.5625 8.28125 
Q 37.984375 10.453125 37.984375 14.40625 
Q 37.984375 18.0625 35.515625 20.015625 
Q 33.0625 21.96875 24.703125 23.78125 
L 21.578125 24.515625 
Q 13.234375 26.265625 9.515625 29.90625 
Q 5.8125 33.546875 5.8125 39.890625 
Q 5.8125 47.609375 11.28125 51.796875 
Q 16.75 56 26.8125 56 
Q 31.78125 56 36.171875 55.265625 
Q 40.578125 54.546875 44.28125 53.078125 
z
" id="DejaVuSans-73"/>
     <path d="M 19.671875 64.796875 
L 19.671875 8.109375 
L 31.59375 8.109375 
Q 46.6875 8.109375 53.6875 14.9375 
Q 60.6875 21.78125 60.6875 36.53125 
Q 60.6875 51.171875 53.6875 57.984375 
Q 46.6875 64.796875 31.59375 64.796875 
z
M 9.8125 72.90625 
L 30.078125 72.90625 
Q 51.265625 72.90625 61.171875 64.09375 
Q 71.09375 55.28125 71.09375 36.53125 
Q 71.09375 17.671875 61.125 8.828125 
Q 51.171875 0 30.078125 0 
L 9.8125 0 
z
" id="DejaVuSans-44"/>
     <path d="M 34.28125 27.484375 
Q 23.390625 27.484375 19.1875 25 
Q 14.984375 22.515625 14.984375 16.5 
Q 14.984375 11.71875 18.140625 8.90625 
Q 21.296875 6.109375 26.703125 6.109375 
Q 34.1875 6.109375 38.703125 11.40625 
Q 43.21875 16.703125 43.21875 25.484375 
L 43.21875 27.484375 
z
M 52.203125 31.203125 
L 52.203125 0 
L 43.21875 0 
L 43.21875 8.296875 
Q 40.140625 3.328125 35.546875 0.953125 
Q 30.953125 -1.421875 24.3125 -1.421875 
Q 15.921875 -1.421875 10.953125 3.296875 
Q 6 8.015625 6 15.921875 
Q 6 25.140625 12.171875 29.828125 
Q 18.359375 34.515625 30.609375 34.515625 
L 43.21875 34.515625 
L 43.21875 35.40625 
Q 43.21875 41.609375 39.140625 45 
Q 35.0625 48.390625 27.6875 48.390625 
Q 23 48.390625 18.546875 47.265625 
Q 14.109375 46.140625 10.015625 43.890625 
L 10.015625 52.203125 
Q 14.9375 54.109375 19.578125 55.046875 
Q 24.21875 56 28.609375 56 
Q 40.484375 56 46.34375 49.84375 
Q 52.203125 43.703125 52.203125 31.203125 
z
" id="DejaVuSans-61"/>
     <path d="M 2.984375 54.6875 
L 12.5 54.6875 
L 29.59375 8.796875 
L 46.6875 54.6875 
L 56.203125 54.6875 
L 35.6875 0 
L 23.484375 0 
z
" id="DejaVuSans-76"/>
     <path d="M 9.8125 72.90625 
L 24.515625 72.90625 
L 43.109375 23.296875 
L 61.8125 72.90625 
L 76.515625 72.90625 
L 76.515625 0 
L 66.890625 0 
L 66.890625 64.015625 
L 48.09375 14.015625 
L 38.1875 14.015625 
L 19.390625 64.015625 
L 19.390625 0 
L 9.8125 0 
z
" id="DejaVuSans-4d"/>
     <path d="M 64.40625 67.28125 
L 64.40625 56.890625 
Q 59.421875 61.53125 53.78125 63.8125 
Q 48.140625 66.109375 41.796875 66.109375 
Q 29.296875 66.109375 22.65625 58.46875 
Q 16.015625 50.828125 16.015625 36.375 
Q 16.015625 21.96875 22.65625 14.328125 
Q 29.296875 6.6875 41.796875 6.6875 
Q 48.140625 6.6875 53.78125 8.984375 
Q 59.421875 11.28125 64.40625 15.921875 
L 64.40625 5.609375 
Q 59.234375 2.09375 53.4375 0.328125 
Q 47.65625 -1.421875 41.21875 -1.421875 
Q 24.65625 -1.421875 15.125 8.703125 
Q 5.609375 18.84375 5.609375 36.375 
Q 5.609375 53.953125 15.125 64.078125 
Q 24.65625 74.21875 41.21875 74.21875 
Q 47.75 74.21875 53.53125 72.484375 
Q 59.328125 70.75 64.40625 67.28125 
z
" id="DejaVuSans-43"/>
     <path d="M 8.6875 72.90625 
L 18.609375 72.90625 
L 18.609375 28.609375 
Q 18.609375 16.890625 22.84375 11.734375 
Q 27.09375 6.59375 36.625 6.59375 
Q 46.09375 6.59375 50.34375 11.734375 
Q 54.59375 16.890625 54.59375 28.609375 
L 54.59375 72.90625 
L 64.5 72.90625 
L 64.5 27.390625 
Q 64.5 13.140625 57.4375 5.859375 
Q 50.390625 -1.421875 36.625 -1.421875 
Q 22.796875 -1.421875 15.734375 5.859375 
Q 8.6875 13.140625 8.6875 27.390625 
z
" id="DejaVuSans-55"/>
     <path d="M 54.890625 33.015625 
L 54.890625 0 
L 45.90625 0 
L 45.90625 32.71875 
Q 45.90625 40.484375 42.875 44.328125 
Q 39.84375 48.1875 33.796875 48.1875 
Q 26.515625 48.1875 22.3125 43.546875 
Q 18.109375 38.921875 18.109375 30.90625 
L 18.109375 0 
L 9.078125 0 
L 9.078125 54.6875 
L 18.109375 54.6875 
L 18.109375 46.1875 
Q 21.34375 51.125 25.703125 53.5625 
Q 30.078125 56 35.796875 56 
Q 45.21875 56 50.046875 50.171875 
Q 54.890625 44.34375 54.890625 33.015625 
z
" id="DejaVuSans-6e"/>
     <path d="M 48.78125 52.59375 
L 48.78125 44.1875 
Q 44.96875 46.296875 41.140625 47.34375 
Q 37.3125 48.390625 33.40625 48.390625 
Q 24.65625 48.390625 19.8125 42.84375 
Q 14.984375 37.3125 14.984375 27.296875 
Q 14.984375 17.28125 19.8125 11.734375 
Q 24.65625 6.203125 33.40625 6.203125 
Q 37.3125 6.203125 41.140625 7.25 
Q 44.96875 8.296875 48.78125 10.40625 
L 48.78125 2.09375 
Q 45.015625 0.34375 40.984375 -0.53125 
Q 36.96875 -1.421875 32.421875 -1.421875 
Q 20.0625 -1.421875 12.78125 6.34375 
Q 5.515625 14.109375 5.515625 27.296875 
Q 5.515625 40.671875 12.859375 48.328125 
Q 20.21875 56 33.015625 56 
Q 37.15625 56 41.109375 55.140625 
Q 45.0625 54.296875 48.78125 52.59375 
z
" id="DejaVuSans-63"/>
     <path d="M 41.109375 46.296875 
Q 39.59375 47.171875 37.8125 47.578125 
Q 36.03125 48 33.890625 48 
Q 26.265625 48 22.1875 43.046875 
Q 18.109375 38.09375 18.109375 28.8125 
L 18.109375 0 
L 9.078125 0 
L 9.078125 54.6875 
L 18.109375 54.6875 
L 18.109375 46.1875 
Q 20.953125 51.171875 25.484375 53.578125 
Q 30.03125 56 36.53125 56 
Q 37.453125 56 38.578125 55.875 
Q 39.703125 55.765625 41.0625 55.515625 
z
" id="DejaVuSans-72"/>
     <path d="M 9.421875 54.6875 
L 18.40625 54.6875 
L 18.40625 0 
L 9.421875 0 
z
M 9.421875 75.984375 
L 18.40625 75.984375 
L 18.40625 64.59375 
L 9.421875 64.59375 
z
" id="DejaVuSans-69"/>
     <path d="M 32.171875 -5.078125 
Q 28.375 -14.84375 24.75 -17.8125 
Q 21.140625 -20.796875 15.09375 -20.796875 
L 7.90625 -20.796875 
L 7.90625 -13.28125 
L 13.1875 -13.28125 
Q 16.890625 -13.28125 18.9375 -11.515625 
Q 21 -9.765625 23.484375 -3.21875 
L 25.09375 0.875 
L 2.984375 54.6875 
L 12.5 54.6875 
L 29.59375 11.921875 
L 46.6875 54.6875 
L 56.203125 54.6875 
z
" id="DejaVuSans-79"/>
    </defs>
    <g transform="translate(118.112813 35.472)scale(0.12 -0.12)">
     <use xlink:href="#DejaVuSans-50"/>
     <use x="60.302734" xlink:href="#DejaVuSans-6c"/>
     <use x="88.085938" xlink:href="#DejaVuSans-6f"/>
     <use x="149.267578" xlink:href="#DejaVuSans-74"/>
     <use x="188.476562" xlink:href="#DejaVuSans-20"/>
     <use x="220.263672" xlink:href="#DejaVuSans-6f"/>
     <use x="281.445312" xlink:href="#DejaVuSans-66"/>
     <use x="316.650391" xlink:href="#DejaVuSans-20"/>
     <use x="348.4375" xlink:href="#DejaVuSans-54"/>
     <use x="409.255859" xlink:href="#DejaVuSans-65"/>
     <use x="470.779297" xlink:href="#DejaVuSans-73"/>
     <use x="522.878906" xlink:href="#DejaVuSans-74"/>
     <use x="562.087891" xlink:href="#DejaVuSans-20"/>
     <use x="593.875" xlink:href="#DejaVuSans-44"/>
     <use x="670.876953" xlink:href="#DejaVuSans-61"/>
     <use x="732.15625" xlink:href="#DejaVuSans-74"/>
     <use x="771.365234" xlink:href="#DejaVuSans-61"/>
     <use x="832.644531" xlink:href="#DejaVuSans-20"/>
     <use x="864.431641" xlink:href="#DejaVuSans-76"/>
     <use x="923.611328" xlink:href="#DejaVuSans-73"/>
     <use x="975.710938" xlink:href="#DejaVuSans-20"/>
     <use x="1007.498047" xlink:href="#DejaVuSans-4d"/>
     <use x="1093.777344" xlink:href="#DejaVuSans-43"/>
     <use x="1163.601562" xlink:href="#DejaVuSans-4d"/>
     <use x="1249.880859" xlink:href="#DejaVuSans-43"/>
     <use x="1319.705078" xlink:href="#DejaVuSans-20"/>
     <use x="1351.492188" xlink:href="#DejaVuSans-55"/>
     <use x="1424.685547" xlink:href="#DejaVuSans-6e"/>
     <use x="1488.064453" xlink:href="#DejaVuSans-63"/>
     <use x="1543.044922" xlink:href="#DejaVuSans-65"/>
     <use x="1604.568359" xlink:href="#DejaVuSans-72"/>
     <use x="1645.681641" xlink:href="#DejaVuSans-74"/>
     <use x="1684.890625" xlink:href="#DejaVuSans-61"/>
     <use x="1746.169922" xlink:href="#DejaVuSans-69"/>
     <use x="1773.953125" xlink:href="#DejaVuSans-6e"/>
     <use x="1837.332031" xlink:href="#DejaVuSans-74"/>
     <use x="1876.541016" xlink:href="#DejaVuSans-79"/>
     <use x="1935.720703" xlink:href="#DejaVuSans-20"/>
    </g>
   </g>
   <g id="legend_1">
    <g id="patch_7">
     <path d="M 277.843437 108.1845 
L 407.72 108.1845 
Q 409.72 108.1845 409.72 106.1845 
L 409.72 48.472 
Q 409.72 46.472 407.72 46.472 
L 277.843437 46.472 
Q 275.843437 46.472 275.843437 48.472 
L 275.843437 106.1845 
Q 275.843437 108.1845 277.843437 108.1845 
z
" style="fill:#ffffff;opacity:0.8;stroke:#cccccc;stroke-linejoin:miter;"/>
    </g>
    <g id="line2d_18">
     <path d="M 279.843437 54.570438 
L 299.843437 54.570438 
" style="fill:none;stroke:#1f77b4;stroke-linecap:square;stroke-width:1.5;"/>
    </g>
    <g id="line2d_19"/>
    <g id="text_15">
     <!-- actual -->
     <defs>
      <path d="M 8.5 21.578125 
L 8.5 54.6875 
L 17.484375 54.6875 
L 17.484375 21.921875 
Q 17.484375 14.15625 20.5 10.265625 
Q 23.53125 6.390625 29.59375 6.390625 
Q 36.859375 6.390625 41.078125 11.03125 
Q 45.3125 15.671875 45.3125 23.6875 
L 45.3125 54.6875 
L 54.296875 54.6875 
L 54.296875 0 
L 45.3125 0 
L 45.3125 8.40625 
Q 42.046875 3.421875 37.71875 1 
Q 33.40625 -1.421875 27.6875 -1.421875 
Q 18.265625 -1.421875 13.375 4.4375 
Q 8.5 10.296875 8.5 21.578125 
z
M 31.109375 56 
z
" id="DejaVuSans-75"/>
     </defs>
     <g transform="translate(307.843437 58.070438)scale(0.1 -0.1)">
      <use xlink:href="#DejaVuSans-61"/>
      <use x="61.279297" xlink:href="#DejaVuSans-63"/>
      <use x="116.259766" xlink:href="#DejaVuSans-74"/>
      <use x="155.46875" xlink:href="#DejaVuSans-75"/>
      <use x="218.847656" xlink:href="#DejaVuSans-61"/>
      <use x="280.126953" xlink:href="#DejaVuSans-6c"/>
     </g>
    </g>
    <g id="line2d_20">
     <path d="M 279.843437 69.248563 
L 299.843437 69.248563 
" style="fill:none;stroke:#ff7f0e;stroke-linecap:square;stroke-width:1.5;"/>
    </g>
    <g id="line2d_21"/>
    <g id="text_16">
     <!-- pred. (mean) -->
     <defs>
      <path d="M 18.109375 8.203125 
L 18.109375 -20.796875 
L 9.078125 -20.796875 
L 9.078125 54.6875 
L 18.109375 54.6875 
L 18.109375 46.390625 
Q 20.953125 51.265625 25.265625 53.625 
Q 29.59375 56 35.59375 56 
Q 45.5625 56 51.78125 48.09375 
Q 58.015625 40.1875 58.015625 27.296875 
Q 58.015625 14.40625 51.78125 6.484375 
Q 45.5625 -1.421875 35.59375 -1.421875 
Q 29.59375 -1.421875 25.265625 0.953125 
Q 20.953125 3.328125 18.109375 8.203125 
z
M 48.6875 27.296875 
Q 48.6875 37.203125 44.609375 42.84375 
Q 40.53125 48.484375 33.40625 48.484375 
Q 26.265625 48.484375 22.1875 42.84375 
Q 18.109375 37.203125 18.109375 27.296875 
Q 18.109375 17.390625 22.1875 11.75 
Q 26.265625 6.109375 33.40625 6.109375 
Q 40.53125 6.109375 44.609375 11.75 
Q 48.6875 17.390625 48.6875 27.296875 
z
" id="DejaVuSans-70"/>
      <path d="M 45.40625 46.390625 
L 45.40625 75.984375 
L 54.390625 75.984375 
L 54.390625 0 
L 45.40625 0 
L 45.40625 8.203125 
Q 42.578125 3.328125 38.25 0.953125 
Q 33.9375 -1.421875 27.875 -1.421875 
Q 17.96875 -1.421875 11.734375 6.484375 
Q 5.515625 14.40625 5.515625 27.296875 
Q 5.515625 40.1875 11.734375 48.09375 
Q 17.96875 56 27.875 56 
Q 33.9375 56 38.25 53.625 
Q 42.578125 51.265625 45.40625 46.390625 
z
M 14.796875 27.296875 
Q 14.796875 17.390625 18.875 11.75 
Q 22.953125 6.109375 30.078125 6.109375 
Q 37.203125 6.109375 41.296875 11.75 
Q 45.40625 17.390625 45.40625 27.296875 
Q 45.40625 37.203125 41.296875 42.84375 
Q 37.203125 48.484375 30.078125 48.484375 
Q 22.953125 48.484375 18.875 42.84375 
Q 14.796875 37.203125 14.796875 27.296875 
z
" id="DejaVuSans-64"/>
      <path d="M 31 75.875 
Q 24.46875 64.65625 21.28125 53.65625 
Q 18.109375 42.671875 18.109375 31.390625 
Q 18.109375 20.125 21.3125 9.0625 
Q 24.515625 -2 31 -13.1875 
L 23.1875 -13.1875 
Q 15.875 -1.703125 12.234375 9.375 
Q 8.59375 20.453125 8.59375 31.390625 
Q 8.59375 42.28125 12.203125 53.3125 
Q 15.828125 64.359375 23.1875 75.875 
z
" id="DejaVuSans-28"/>
      <path d="M 52 44.1875 
Q 55.375 50.25 60.0625 53.125 
Q 64.75 56 71.09375 56 
Q 79.640625 56 84.28125 50.015625 
Q 88.921875 44.046875 88.921875 33.015625 
L 88.921875 0 
L 79.890625 0 
L 79.890625 32.71875 
Q 79.890625 40.578125 77.09375 44.375 
Q 74.3125 48.1875 68.609375 48.1875 
Q 61.625 48.1875 57.5625 43.546875 
Q 53.515625 38.921875 53.515625 30.90625 
L 53.515625 0 
L 44.484375 0 
L 44.484375 32.71875 
Q 44.484375 40.625 41.703125 44.40625 
Q 38.921875 48.1875 33.109375 48.1875 
Q 26.21875 48.1875 22.15625 43.53125 
Q 18.109375 38.875 18.109375 30.90625 
L 18.109375 0 
L 9.078125 0 
L 9.078125 54.6875 
L 18.109375 54.6875 
L 18.109375 46.1875 
Q 21.1875 51.21875 25.484375 53.609375 
Q 29.78125 56 35.6875 56 
Q 41.65625 56 45.828125 52.96875 
Q 50 49.953125 52 44.1875 
z
" id="DejaVuSans-6d"/>
      <path d="M 8.015625 75.875 
L 15.828125 75.875 
Q 23.140625 64.359375 26.78125 53.3125 
Q 30.421875 42.28125 30.421875 31.390625 
Q 30.421875 20.453125 26.78125 9.375 
Q 23.140625 -1.703125 15.828125 -13.1875 
L 8.015625 -13.1875 
Q 14.5 -2 17.703125 9.0625 
Q 20.90625 20.125 20.90625 31.390625 
Q 20.90625 42.671875 17.703125 53.65625 
Q 14.5 64.65625 8.015625 75.875 
z
" id="DejaVuSans-29"/>
     </defs>
     <g transform="translate(307.843437 72.748563)scale(0.1 -0.1)">
      <use xlink:href="#DejaVuSans-70"/>
      <use x="63.476562" xlink:href="#DejaVuSans-72"/>
      <use x="104.558594" xlink:href="#DejaVuSans-65"/>
      <use x="166.082031" xlink:href="#DejaVuSans-64"/>
      <use x="229.558594" xlink:href="#DejaVuSans-2e"/>
      <use x="261.345703" xlink:href="#DejaVuSans-20"/>
      <use x="293.132812" xlink:href="#DejaVuSans-28"/>
      <use x="332.146484" xlink:href="#DejaVuSans-6d"/>
      <use x="429.558594" xlink:href="#DejaVuSans-65"/>
      <use x="491.082031" xlink:href="#DejaVuSans-61"/>
      <use x="552.361328" xlink:href="#DejaVuSans-6e"/>
      <use x="615.740234" xlink:href="#DejaVuSans-29"/>
     </g>
    </g>
    <g id="line2d_22">
     <path d="M 279.843437 83.926688 
L 299.843437 83.926688 
" style="fill:none;stroke:#2ca02c;stroke-linecap:square;stroke-width:1.5;"/>
    </g>
    <g id="line2d_23"/>
    <g id="text_17">
     <!-- pred.(5th percen.) -->
     <defs>
      <path d="M 54.890625 33.015625 
L 54.890625 0 
L 45.90625 0 
L 45.90625 32.71875 
Q 45.90625 40.484375 42.875 44.328125 
Q 39.84375 48.1875 33.796875 48.1875 
Q 26.515625 48.1875 22.3125 43.546875 
Q 18.109375 38.921875 18.109375 30.90625 
L 18.109375 0 
L 9.078125 0 
L 9.078125 75.984375 
L 18.109375 75.984375 
L 18.109375 46.1875 
Q 21.34375 51.125 25.703125 53.5625 
Q 30.078125 56 35.796875 56 
Q 45.21875 56 50.046875 50.171875 
Q 54.890625 44.34375 54.890625 33.015625 
z
" id="DejaVuSans-68"/>
     </defs>
     <g transform="translate(307.843437 87.426688)scale(0.1 -0.1)">
      <use xlink:href="#DejaVuSans-70"/>
      <use x="63.476562" xlink:href="#DejaVuSans-72"/>
      <use x="104.558594" xlink:href="#DejaVuSans-65"/>
      <use x="166.082031" xlink:href="#DejaVuSans-64"/>
      <use x="229.558594" xlink:href="#DejaVuSans-2e"/>
      <use x="261.345703" xlink:href="#DejaVuSans-28"/>
      <use x="300.359375" xlink:href="#DejaVuSans-35"/>
      <use x="363.982422" xlink:href="#DejaVuSans-74"/>
      <use x="403.191406" xlink:href="#DejaVuSans-68"/>
      <use x="466.570312" xlink:href="#DejaVuSans-20"/>
      <use x="498.357422" xlink:href="#DejaVuSans-70"/>
      <use x="561.833984" xlink:href="#DejaVuSans-65"/>
      <use x="623.357422" xlink:href="#DejaVuSans-72"/>
      <use x="664.439453" xlink:href="#DejaVuSans-63"/>
      <use x="719.419922" xlink:href="#DejaVuSans-65"/>
      <use x="780.943359" xlink:href="#DejaVuSans-6e"/>
      <use x="844.322266" xlink:href="#DejaVuSans-2e"/>
      <use x="876.109375" xlink:href="#DejaVuSans-29"/>
     </g>
    </g>
    <g id="line2d_24">
     <path d="M 279.843437 98.604813 
L 299.843437 98.604813 
" style="fill:none;stroke:#d62728;stroke-linecap:square;stroke-width:1.5;"/>
    </g>
    <g id="line2d_25"/>
    <g id="text_18">
     <!-- pred.(95th percen.) -->
     <defs>
      <path d="M 10.984375 1.515625 
L 10.984375 10.5 
Q 14.703125 8.734375 18.5 7.8125 
Q 22.3125 6.890625 25.984375 6.890625 
Q 35.75 6.890625 40.890625 13.453125 
Q 46.046875 20.015625 46.78125 33.40625 
Q 43.953125 29.203125 39.59375 26.953125 
Q 35.25 24.703125 29.984375 24.703125 
Q 19.046875 24.703125 12.671875 31.3125 
Q 6.296875 37.9375 6.296875 49.421875 
Q 6.296875 60.640625 12.9375 67.421875 
Q 19.578125 74.21875 30.609375 74.21875 
Q 43.265625 74.21875 49.921875 64.515625 
Q 56.59375 54.828125 56.59375 36.375 
Q 56.59375 19.140625 48.40625 8.859375 
Q 40.234375 -1.421875 26.421875 -1.421875 
Q 22.703125 -1.421875 18.890625 -0.6875 
Q 15.09375 0.046875 10.984375 1.515625 
z
M 30.609375 32.421875 
Q 37.25 32.421875 41.125 36.953125 
Q 45.015625 41.5 45.015625 49.421875 
Q 45.015625 57.28125 41.125 61.84375 
Q 37.25 66.40625 30.609375 66.40625 
Q 23.96875 66.40625 20.09375 61.84375 
Q 16.21875 57.28125 16.21875 49.421875 
Q 16.21875 41.5 20.09375 36.953125 
Q 23.96875 32.421875 30.609375 32.421875 
z
" id="DejaVuSans-39"/>
     </defs>
     <g transform="translate(307.843437 102.104813)scale(0.1 -0.1)">
      <use xlink:href="#DejaVuSans-70"/>
      <use x="63.476562" xlink:href="#DejaVuSans-72"/>
      <use x="104.558594" xlink:href="#DejaVuSans-65"/>
      <use x="166.082031" xlink:href="#DejaVuSans-64"/>
      <use x="229.558594" xlink:href="#DejaVuSans-2e"/>
      <use x="261.345703" xlink:href="#DejaVuSans-28"/>
      <use x="300.359375" xlink:href="#DejaVuSans-39"/>
      <use x="363.982422" xlink:href="#DejaVuSans-35"/>
      <use x="427.605469" xlink:href="#DejaVuSans-74"/>
      <use x="466.814453" xlink:href="#DejaVuSans-68"/>
      <use x="530.193359" xlink:href="#DejaVuSans-20"/>
      <use x="561.980469" xlink:href="#DejaVuSans-70"/>
      <use x="625.457031" xlink:href="#DejaVuSans-65"/>
      <use x="686.980469" xlink:href="#DejaVuSans-72"/>
      <use x="728.0625" xlink:href="#DejaVuSans-63"/>
      <use x="783.042969" xlink:href="#DejaVuSans-65"/>
      <use x="844.566406" xlink:href="#DejaVuSans-6e"/>
      <use x="907.945312" xlink:href="#DejaVuSans-2e"/>
      <use x="939.732422" xlink:href="#DejaVuSans-29"/>
     </g>
    </g>
   </g>
  </g>
 </g>
 <defs>
  <clipPath id="p7795e67dab">
   <rect height="266.112" width="357.12" x="57.6" y="41.472"/>
  </clipPath>
 </defs>
</svg>
