<?xml version="1.0" encoding="utf-8" standalone="no"?>
<!DOCTYPE svg PUBLIC "-//W3C//DTD SVG 1.1//EN"
  "http://www.w3.org/Graphics/SVG/1.1/DTD/svg11.dtd">
<!-- Created with matplotlib (http://matplotlib.org/) -->
<svg height="345.6pt" version="1.1" viewBox="0 0 460.8 345.6" width="460.8pt" xmlns="http://www.w3.org/2000/svg" xmlns:xlink="http://www.w3.org/1999/xlink">
 <defs>
  <style type="text/css">
*{stroke-linecap:butt;stroke-linejoin:round;}
  </style>
 </defs>
 <g id="figure_1">
  <g id="patch_1">
   <path d="M 0 345.6 
L 460.8 345.6 
L 460.8 0 
L 0 0 
z
" style="fill:#ffffff;"/>
  </g>
  <g id="axes_1">
   <g id="patch_2">
    <path d="M 57.6 307.584 
L 414.72 307.584 
L 414.72 41.472 
L 57.6 41.472 
z
" style="fill:#ffffff;"/>
   </g>
   <g id="PolyCollection_1">
    <path clip-path="url(#pb23d683f44)" d="M 73.832727 264.441037 
L 73.832727 279.32868 
L 74.92584 281.809953 
L 76.018953 281.809953 
L 77.112066 279.32868 
L 78.205179 279.32868 
L 79.298292 276.847406 
L 80.391405 274.366132 
L 81.484518 269.403585 
L 82.577631 264.441037 
L 83.670744 254.515942 
L 84.763857 237.147025 
L 85.85697 214.815561 
L 86.950083 192.484097 
L 88.043196 170.152633 
L 89.136309 150.302443 
L 90.229421 135.414801 
L 91.322534 127.970979 
L 92.415647 120.527158 
L 93.50876 110.602063 
L 94.601873 103.158241 
L 95.694986 103.158241 
L 96.788099 100.676968 
L 97.881212 98.195694 
L 98.974325 100.676968 
L 100.067438 105.639515 
L 101.160551 108.120789 
L 102.253664 110.602063 
L 103.346777 115.56461 
L 104.43989 123.008432 
L 105.533003 127.970979 
L 106.626116 132.933527 
L 107.719229 147.821169 
L 108.812342 165.190086 
L 109.905455 160.227538 
L 110.998567 155.264991 
L 112.09168 152.783717 
L 113.184793 157.746265 
L 114.277906 160.227538 
L 115.371019 160.227538 
L 116.464132 172.633907 
L 117.557245 187.52155 
L 118.650358 194.965371 
L 119.743471 207.37174 
L 120.836584 217.296835 
L 121.929697 222.259383 
L 123.02281 227.22193 
L 124.115923 237.147025 
L 125.209036 242.109573 
L 126.302149 247.072121 
L 127.395262 249.553394 
L 128.488375 256.997216 
L 129.581488 261.959763 
L 130.674601 261.959763 
L 131.767713 261.959763 
L 132.860826 264.441037 
L 133.953939 266.922311 
L 135.047052 269.403585 
L 136.140165 271.884858 
L 137.233278 274.366132 
L 138.326391 276.847406 
L 139.419504 276.847406 
L 140.512617 276.847406 
L 141.60573 276.847406 
L 142.698843 274.366132 
L 143.791956 274.366132 
L 144.885069 274.366132 
L 145.978182 269.403585 
L 147.071295 264.441037 
L 148.164408 259.478489 
L 149.257521 254.515942 
L 150.350634 249.553394 
L 151.443747 244.590847 
L 152.53686 237.147025 
L 153.629972 232.184478 
L 154.723085 227.22193 
L 155.816198 219.778109 
L 156.909311 207.37174 
L 158.002424 199.927919 
L 159.095537 194.965371 
L 160.18865 192.484097 
L 161.281763 192.484097 
L 162.374876 182.559002 
L 163.467989 165.190086 
L 164.561102 142.858622 
L 165.654215 130.452253 
L 166.747328 120.527158 
L 167.840441 113.083337 
L 168.933554 110.602063 
L 170.026667 110.602063 
L 171.11978 113.083337 
L 172.212893 110.602063 
L 173.306006 110.602063 
L 174.399118 113.083337 
L 175.492231 120.527158 
L 176.585344 127.970979 
L 177.678457 140.377348 
L 178.77157 152.783717 
L 179.864683 162.708812 
L 180.957796 170.152633 
L 182.050909 172.633907 
L 183.144022 177.596455 
L 184.237135 185.040276 
L 185.330248 187.52155 
L 186.423361 187.52155 
L 187.516474 187.52155 
L 188.609587 190.002824 
L 189.7027 192.484097 
L 190.795813 192.484097 
L 191.888926 197.446645 
L 192.982039 199.927919 
L 194.075152 199.927919 
L 195.168264 204.890466 
L 196.261377 207.37174 
L 197.35449 212.334288 
L 198.447603 219.778109 
L 199.540716 224.86472 
L 200.633829 229.703204 
L 201.726942 229.703204 
L 202.820055 232.184478 
L 203.913168 239.628299 
L 205.006281 244.590847 
L 206.099394 249.553394 
L 207.192507 254.515942 
L 208.28562 261.959763 
L 209.378733 264.441037 
L 210.471846 266.922311 
L 211.564959 266.922311 
L 212.658072 269.403585 
L 213.751185 274.366132 
L 214.844298 276.847406 
L 215.93741 279.32868 
L 217.030523 281.809953 
L 218.123636 281.809953 
L 219.216749 284.291227 
L 220.309862 284.291227 
L 221.402975 284.291227 
L 222.496088 284.291227 
L 223.589201 281.809953 
L 224.682314 281.809953 
L 225.775427 281.809953 
L 226.86854 279.32868 
L 227.961653 276.847406 
L 229.054766 271.884858 
L 230.147879 266.922311 
L 231.240992 261.959763 
L 232.334105 254.515942 
L 233.427218 247.072121 
L 234.520331 237.147025 
L 235.613444 227.22193 
L 236.706556 214.815561 
L 237.799669 202.409193 
L 238.892782 187.52155 
L 239.985895 175.115181 
L 241.079008 162.708812 
L 242.172121 152.783717 
L 243.265234 147.821169 
L 244.358347 142.858622 
L 245.45146 142.858622 
L 246.544573 142.858622 
L 247.637686 140.377348 
L 248.730799 140.377348 
L 249.823912 142.858622 
L 250.917025 142.858622 
L 252.010138 145.339896 
L 253.103251 147.821169 
L 254.196364 155.264991 
L 255.289477 160.227538 
L 256.38259 167.67136 
L 257.475702 172.633907 
L 258.568815 182.559002 
L 259.661928 185.040276 
L 260.755041 187.52155 
L 261.848154 194.965371 
L 262.941267 199.927919 
L 264.03438 204.890466 
L 265.127493 204.890466 
L 266.220606 212.334288 
L 267.313719 222.259383 
L 268.406832 229.703204 
L 269.499945 232.184478 
L 270.593058 232.184478 
L 271.686171 232.184478 
L 272.779284 232.184478 
L 273.872397 229.703204 
L 274.96551 227.22193 
L 276.058623 227.22193 
L 277.151736 229.703204 
L 278.244848 232.184478 
L 279.337961 237.147025 
L 280.431074 242.109573 
L 281.524187 247.072121 
L 282.6173 252.034668 
L 283.710413 256.997216 
L 284.803526 259.478489 
L 285.896639 261.959763 
L 286.989752 266.922311 
L 288.082865 269.403585 
L 289.175978 271.884858 
L 290.269091 276.847406 
L 291.362204 279.32868 
L 292.455317 281.809953 
L 293.54843 281.809953 
L 294.641543 281.809953 
L 295.734656 281.809953 
L 296.827769 279.32868 
L 297.920882 274.366132 
L 299.013994 271.884858 
L 300.107107 266.922311 
L 301.20022 259.478489 
L 302.293333 249.553394 
L 303.386446 237.147025 
L 304.479559 224.740657 
L 305.572672 212.334288 
L 306.665785 194.965371 
L 307.758898 185.040276 
L 308.852011 177.596455 
L 309.945124 167.67136 
L 311.038237 150.302443 
L 312.13135 132.933527 
L 313.224463 120.527158 
L 314.317576 113.083337 
L 315.410689 105.639515 
L 316.503802 103.158241 
L 317.596915 103.158241 
L 318.690028 103.158241 
L 319.78314 108.120789 
L 320.876253 113.083337 
L 321.969366 118.045884 
L 323.062479 123.008432 
L 324.155592 130.452253 
L 325.248705 135.414801 
L 326.341818 137.896074 
L 327.434931 135.414801 
L 328.528044 132.933527 
L 329.621157 132.933527 
L 330.71427 135.414801 
L 331.807383 147.821169 
L 332.900496 160.227538 
L 333.993609 175.115181 
L 335.086722 190.002824 
L 336.179835 199.927919 
L 337.272948 212.334288 
L 338.366061 217.296835 
L 339.459174 217.296835 
L 340.552287 222.259383 
L 341.645399 229.703204 
L 342.738512 239.628299 
L 343.831625 247.072121 
L 344.924738 252.034668 
L 346.017851 261.959763 
L 347.110964 266.922311 
L 348.204077 269.403585 
L 349.29719 271.884858 
L 350.390303 274.366132 
L 351.483416 276.847406 
L 352.576529 276.847406 
L 353.669642 276.847406 
L 354.762755 276.847406 
L 355.855868 276.847406 
L 356.948981 276.847406 
L 358.042094 276.847406 
L 359.135207 274.366132 
L 360.22832 276.847406 
L 361.321433 276.847406 
L 362.414545 276.847406 
L 363.507658 279.32868 
L 364.600771 281.809953 
L 365.693884 281.809953 
L 366.786997 281.809953 
L 367.88011 284.291227 
L 368.973223 284.291227 
L 370.066336 284.291227 
L 371.159449 284.291227 
L 372.252562 284.291227 
L 373.345675 281.809953 
L 374.438788 281.809953 
L 375.531901 279.32868 
L 376.625014 276.847406 
L 377.718127 271.884858 
L 378.81124 266.922311 
L 379.904353 261.959763 
L 380.997466 254.515942 
L 382.090579 249.553394 
L 383.183691 242.109573 
L 384.276804 232.184478 
L 385.369917 224.740657 
L 386.46303 219.778109 
L 387.556143 214.815561 
L 388.649256 209.853014 
L 389.742369 202.409193 
L 390.835482 197.446645 
L 391.928595 202.409193 
L 393.021708 204.890466 
L 394.114821 202.409193 
L 395.207934 202.409193 
L 396.301047 209.853014 
L 397.39416 209.853014 
L 398.487273 204.890466 
L 398.487273 197.446645 
L 398.487273 197.446645 
L 397.39416 204.890466 
L 396.301047 202.409193 
L 395.207934 197.446645 
L 394.114821 197.446645 
L 393.021708 199.927919 
L 391.928595 197.446645 
L 390.835482 194.965371 
L 389.742369 194.965371 
L 388.649256 202.409193 
L 387.556143 207.37174 
L 386.46303 214.815561 
L 385.369917 217.296835 
L 384.276804 222.259383 
L 383.183691 232.184478 
L 382.090579 239.628299 
L 380.997466 244.590847 
L 379.904353 249.553394 
L 378.81124 256.997216 
L 377.718127 259.478489 
L 376.625014 261.959763 
L 375.531901 264.441037 
L 374.438788 266.922311 
L 373.345675 266.922311 
L 372.252562 269.403585 
L 371.159449 269.403585 
L 370.066336 269.403585 
L 368.973223 269.403585 
L 367.88011 269.403585 
L 366.786997 266.922311 
L 365.693884 266.922311 
L 364.600771 264.441037 
L 363.507658 264.441037 
L 362.414545 261.959763 
L 361.321433 261.959763 
L 360.22832 261.959763 
L 359.135207 261.959763 
L 358.042094 261.959763 
L 356.948981 261.959763 
L 355.855868 261.959763 
L 354.762755 261.959763 
L 353.669642 261.959763 
L 352.576529 261.959763 
L 351.483416 261.959763 
L 350.390303 259.478489 
L 349.29719 259.478489 
L 348.204077 256.997216 
L 347.110964 254.515942 
L 346.017851 247.072121 
L 344.924738 239.628299 
L 343.831625 237.147025 
L 342.738512 229.703204 
L 341.645399 222.259383 
L 340.552287 217.296835 
L 339.459174 214.815561 
L 338.366061 212.334288 
L 337.272948 204.890466 
L 336.179835 190.002824 
L 335.086722 177.596455 
L 333.993609 160.227538 
L 332.900496 145.339896 
L 331.807383 132.933527 
L 330.71427 125.489705 
L 329.621157 120.527158 
L 328.528044 120.527158 
L 327.434931 123.008432 
L 326.341818 125.489705 
L 325.248705 125.489705 
L 324.155592 118.045884 
L 323.062479 113.083337 
L 321.969366 108.120789 
L 320.876253 100.676968 
L 319.78314 95.71442 
L 318.690028 88.270599 
L 317.596915 85.789325 
L 316.503802 83.308051 
L 315.410689 83.308051 
L 314.317576 88.270599 
L 313.224463 100.676968 
L 312.13135 110.602063 
L 311.038237 125.489705 
L 309.945124 152.783717 
L 308.852011 170.152633 
L 307.758898 177.596455 
L 306.665785 180.077729 
L 305.572672 197.446645 
L 304.479559 214.815561 
L 303.386446 224.740657 
L 302.293333 237.147025 
L 301.20022 249.553394 
L 300.107107 254.515942 
L 299.013994 259.478489 
L 297.920882 261.959763 
L 296.827769 264.441037 
L 295.734656 266.922311 
L 294.641543 266.922311 
L 293.54843 266.922311 
L 292.455317 266.922311 
L 291.362204 264.441037 
L 290.269091 261.959763 
L 289.175978 256.997216 
L 288.082865 256.997216 
L 286.989752 254.515942 
L 285.896639 249.553394 
L 284.803526 247.072121 
L 283.710413 244.590847 
L 282.6173 242.109573 
L 281.524187 237.147025 
L 280.431074 232.184478 
L 279.337961 229.703204 
L 278.244848 224.740657 
L 277.151736 222.259383 
L 276.058623 219.778109 
L 274.96551 219.778109 
L 273.872397 222.259383 
L 272.779284 224.740657 
L 271.686171 224.740657 
L 270.593058 224.740657 
L 269.499945 224.740657 
L 268.406832 219.778109 
L 267.313719 214.815561 
L 266.220606 204.890466 
L 265.127493 199.927919 
L 264.03438 199.927919 
L 262.941267 194.965371 
L 261.848154 187.52155 
L 260.755041 182.559002 
L 259.661928 180.077729 
L 258.568815 172.633907 
L 257.475702 165.066022 
L 256.38259 157.746265 
L 255.289477 150.302443 
L 254.196364 142.858622 
L 253.103251 135.414801 
L 252.010138 132.933527 
L 250.917025 132.933527 
L 249.823912 130.452253 
L 248.730799 130.452253 
L 247.637686 127.970979 
L 246.544573 130.452253 
L 245.45146 132.933527 
L 244.358347 132.933527 
L 243.265234 135.414801 
L 242.172121 140.377348 
L 241.079008 150.302443 
L 239.985895 160.227538 
L 238.892782 175.115181 
L 237.799669 190.002824 
L 236.706556 204.890466 
L 235.613444 214.815561 
L 234.520331 227.22193 
L 233.427218 237.147025 
L 232.334105 244.590847 
L 231.240992 249.553394 
L 230.147879 254.515942 
L 229.054766 259.478489 
L 227.961653 261.959763 
L 226.86854 264.441037 
L 225.775427 266.922311 
L 224.682314 266.922311 
L 223.589201 266.922311 
L 222.496088 269.403585 
L 221.402975 269.403585 
L 220.309862 269.403585 
L 219.216749 266.922311 
L 218.123636 266.922311 
L 217.030523 264.441037 
L 215.93741 264.441037 
L 214.844298 261.959763 
L 213.751185 259.478489 
L 212.658072 256.997216 
L 211.564959 254.515942 
L 210.471846 254.515942 
L 209.378733 252.034668 
L 208.28562 247.072121 
L 207.192507 244.590847 
L 206.099394 239.628299 
L 205.006281 234.665752 
L 203.913168 229.703204 
L 202.820055 224.740657 
L 201.726942 224.740657 
L 200.633829 222.259383 
L 199.540716 219.654045 
L 198.447603 212.334288 
L 197.35449 207.37174 
L 196.261377 202.409193 
L 195.168264 199.927919 
L 194.075152 197.446645 
L 192.982039 194.965371 
L 191.888926 192.484097 
L 190.795813 187.52155 
L 189.7027 187.52155 
L 188.609587 185.040276 
L 187.516474 182.559002 
L 186.423361 182.559002 
L 185.330248 182.559002 
L 184.237135 177.596455 
L 183.144022 170.152633 
L 182.050909 165.190086 
L 180.957796 157.746265 
L 179.864683 150.302443 
L 178.77157 137.896074 
L 177.678457 125.489705 
L 176.585344 115.56461 
L 175.492231 108.120789 
L 174.399118 100.676968 
L 173.306006 95.71442 
L 172.212893 95.71442 
L 171.11978 98.195694 
L 170.026667 95.71442 
L 168.933554 90.751873 
L 167.840441 93.233146 
L 166.747328 100.676968 
L 165.654215 108.120789 
L 164.561102 120.527158 
L 163.467989 140.377348 
L 162.374876 170.152633 
L 161.281763 187.52155 
L 160.18865 190.002824 
L 159.095537 190.002824 
L 158.002424 192.484097 
L 156.909311 197.446645 
L 155.816198 209.853014 
L 154.723085 219.778109 
L 153.629972 224.740657 
L 152.53686 229.703204 
L 151.443747 234.665752 
L 150.350634 239.628299 
L 149.257521 244.590847 
L 148.164408 249.553394 
L 147.071295 254.515942 
L 145.978182 259.478489 
L 144.885069 259.478489 
L 143.791956 261.959763 
L 142.698843 261.959763 
L 141.60573 261.959763 
L 140.512617 261.959763 
L 139.419504 264.441037 
L 138.326391 261.959763 
L 137.233278 259.478489 
L 136.140165 256.997216 
L 135.047052 256.997216 
L 133.953939 254.515942 
L 132.860826 252.034668 
L 131.767713 252.034668 
L 130.674601 249.553394 
L 129.581488 249.553394 
L 128.488375 242.109573 
L 127.395262 239.628299 
L 126.302149 237.147025 
L 125.209036 232.184478 
L 124.115923 227.22193 
L 123.02281 219.778109 
L 121.929697 217.296835 
L 120.836584 209.853014 
L 119.743471 197.446645 
L 118.650358 187.52155 
L 117.557245 175.115181 
L 116.464132 160.227538 
L 115.371019 152.783717 
L 114.277906 152.783717 
L 113.184793 150.302443 
L 112.09168 145.339896 
L 110.998567 145.339896 
L 109.905455 152.783717 
L 108.812342 147.821169 
L 107.719229 132.933527 
L 106.626116 123.008432 
L 105.533003 115.56461 
L 104.43989 110.602063 
L 103.346777 103.158241 
L 102.253664 98.195694 
L 101.160551 95.71442 
L 100.067438 93.233146 
L 98.974325 85.789325 
L 97.881212 80.826777 
L 96.788099 80.826777 
L 95.694986 83.308051 
L 94.601873 85.789325 
L 93.50876 85.789325 
L 92.415647 98.195694 
L 91.322534 113.083337 
L 90.229421 118.045884 
L 89.136309 127.970979 
L 88.043196 147.821169 
L 86.950083 172.633907 
L 85.85697 197.446645 
L 84.763857 219.778109 
L 83.670744 242.109573 
L 82.577631 252.034668 
L 81.484518 259.478489 
L 80.391405 261.959763 
L 79.298292 264.441037 
L 78.205179 264.441037 
L 77.112066 266.922311 
L 76.018953 266.922311 
L 74.92584 264.441037 
L 73.832727 264.441037 
z
" style="fill:#008000;fill-opacity:0.4;"/>
   </g>
   <g id="matplotlib.axis_1">
    <g id="xtick_1">
     <g id="line2d_1">
      <defs>
       <path d="M 0 0 
L 0 3.5 
" id="m1c2af1748a" style="stroke:#000000;stroke-width:0.8;"/>
      </defs>
      <g>
       <use style="stroke:#000000;stroke-width:0.8;" x="73.832727" xlink:href="#m1c2af1748a" y="307.584"/>
      </g>
     </g>
     <g id="text_1">
      <!-- 0.0 -->
      <defs>
       <path d="M 31.78125 66.40625 
Q 24.171875 66.40625 20.328125 58.90625 
Q 16.5 51.421875 16.5 36.375 
Q 16.5 21.390625 20.328125 13.890625 
Q 24.171875 6.390625 31.78125 6.390625 
Q 39.453125 6.390625 43.28125 13.890625 
Q 47.125 21.390625 47.125 36.375 
Q 47.125 51.421875 43.28125 58.90625 
Q 39.453125 66.40625 31.78125 66.40625 
z
M 31.78125 74.21875 
Q 44.046875 74.21875 50.515625 64.515625 
Q 56.984375 54.828125 56.984375 36.375 
Q 56.984375 17.96875 50.515625 8.265625 
Q 44.046875 -1.421875 31.78125 -1.421875 
Q 19.53125 -1.421875 13.0625 8.265625 
Q 6.59375 17.96875 6.59375 36.375 
Q 6.59375 54.828125 13.0625 64.515625 
Q 19.53125 74.21875 31.78125 74.21875 
z
" id="DejaVuSans-30"/>
       <path d="M 10.6875 12.40625 
L 21 12.40625 
L 21 0 
L 10.6875 0 
z
" id="DejaVuSans-2e"/>
      </defs>
      <g transform="translate(65.881165 322.182437)scale(0.1 -0.1)">
       <use xlink:href="#DejaVuSans-30"/>
       <use x="63.623047" xlink:href="#DejaVuSans-2e"/>
       <use x="95.410156" xlink:href="#DejaVuSans-30"/>
      </g>
     </g>
    </g>
    <g id="xtick_2">
     <g id="line2d_2">
      <g>
       <use style="stroke:#000000;stroke-width:0.8;" x="138.763636" xlink:href="#m1c2af1748a" y="307.584"/>
      </g>
     </g>
     <g id="text_2">
      <!-- 0.2 -->
      <defs>
       <path d="M 19.1875 8.296875 
L 53.609375 8.296875 
L 53.609375 0 
L 7.328125 0 
L 7.328125 8.296875 
Q 12.9375 14.109375 22.625 23.890625 
Q 32.328125 33.6875 34.8125 36.53125 
Q 39.546875 41.84375 41.421875 45.53125 
Q 43.3125 49.21875 43.3125 52.78125 
Q 43.3125 58.59375 39.234375 62.25 
Q 35.15625 65.921875 28.609375 65.921875 
Q 23.96875 65.921875 18.8125 64.3125 
Q 13.671875 62.703125 7.8125 59.421875 
L 7.8125 69.390625 
Q 13.765625 71.78125 18.9375 73 
Q 24.125 74.21875 28.421875 74.21875 
Q 39.75 74.21875 46.484375 68.546875 
Q 53.21875 62.890625 53.21875 53.421875 
Q 53.21875 48.921875 51.53125 44.890625 
Q 49.859375 40.875 45.40625 35.40625 
Q 44.1875 33.984375 37.640625 27.21875 
Q 31.109375 20.453125 19.1875 8.296875 
z
" id="DejaVuSans-32"/>
      </defs>
      <g transform="translate(130.812074 322.182437)scale(0.1 -0.1)">
       <use xlink:href="#DejaVuSans-30"/>
       <use x="63.623047" xlink:href="#DejaVuSans-2e"/>
       <use x="95.410156" xlink:href="#DejaVuSans-32"/>
      </g>
     </g>
    </g>
    <g id="xtick_3">
     <g id="line2d_3">
      <g>
       <use style="stroke:#000000;stroke-width:0.8;" x="203.694545" xlink:href="#m1c2af1748a" y="307.584"/>
      </g>
     </g>
     <g id="text_3">
      <!-- 0.4 -->
      <defs>
       <path d="M 37.796875 64.3125 
L 12.890625 25.390625 
L 37.796875 25.390625 
z
M 35.203125 72.90625 
L 47.609375 72.90625 
L 47.609375 25.390625 
L 58.015625 25.390625 
L 58.015625 17.1875 
L 47.609375 17.1875 
L 47.609375 0 
L 37.796875 0 
L 37.796875 17.1875 
L 4.890625 17.1875 
L 4.890625 26.703125 
z
" id="DejaVuSans-34"/>
      </defs>
      <g transform="translate(195.742983 322.182437)scale(0.1 -0.1)">
       <use xlink:href="#DejaVuSans-30"/>
       <use x="63.623047" xlink:href="#DejaVuSans-2e"/>
       <use x="95.410156" xlink:href="#DejaVuSans-34"/>
      </g>
     </g>
    </g>
    <g id="xtick_4">
     <g id="line2d_4">
      <g>
       <use style="stroke:#000000;stroke-width:0.8;" x="268.625455" xlink:href="#m1c2af1748a" y="307.584"/>
      </g>
     </g>
     <g id="text_4">
      <!-- 0.6 -->
      <defs>
       <path d="M 33.015625 40.375 
Q 26.375 40.375 22.484375 35.828125 
Q 18.609375 31.296875 18.609375 23.390625 
Q 18.609375 15.53125 22.484375 10.953125 
Q 26.375 6.390625 33.015625 6.390625 
Q 39.65625 6.390625 43.53125 10.953125 
Q 47.40625 15.53125 47.40625 23.390625 
Q 47.40625 31.296875 43.53125 35.828125 
Q 39.65625 40.375 33.015625 40.375 
z
M 52.59375 71.296875 
L 52.59375 62.3125 
Q 48.875 64.0625 45.09375 64.984375 
Q 41.3125 65.921875 37.59375 65.921875 
Q 27.828125 65.921875 22.671875 59.328125 
Q 17.53125 52.734375 16.796875 39.40625 
Q 19.671875 43.65625 24.015625 45.921875 
Q 28.375 48.1875 33.59375 48.1875 
Q 44.578125 48.1875 50.953125 41.515625 
Q 57.328125 34.859375 57.328125 23.390625 
Q 57.328125 12.15625 50.6875 5.359375 
Q 44.046875 -1.421875 33.015625 -1.421875 
Q 20.359375 -1.421875 13.671875 8.265625 
Q 6.984375 17.96875 6.984375 36.375 
Q 6.984375 53.65625 15.1875 63.9375 
Q 23.390625 74.21875 37.203125 74.21875 
Q 40.921875 74.21875 44.703125 73.484375 
Q 48.484375 72.75 52.59375 71.296875 
z
" id="DejaVuSans-36"/>
      </defs>
      <g transform="translate(260.673892 322.182437)scale(0.1 -0.1)">
       <use xlink:href="#DejaVuSans-30"/>
       <use x="63.623047" xlink:href="#DejaVuSans-2e"/>
       <use x="95.410156" xlink:href="#DejaVuSans-36"/>
      </g>
     </g>
    </g>
    <g id="xtick_5">
     <g id="line2d_5">
      <g>
       <use style="stroke:#000000;stroke-width:0.8;" x="333.556364" xlink:href="#m1c2af1748a" y="307.584"/>
      </g>
     </g>
     <g id="text_5">
      <!-- 0.8 -->
      <defs>
       <path d="M 31.78125 34.625 
Q 24.75 34.625 20.71875 30.859375 
Q 16.703125 27.09375 16.703125 20.515625 
Q 16.703125 13.921875 20.71875 10.15625 
Q 24.75 6.390625 31.78125 6.390625 
Q 38.8125 6.390625 42.859375 10.171875 
Q 46.921875 13.96875 46.921875 20.515625 
Q 46.921875 27.09375 42.890625 30.859375 
Q 38.875 34.625 31.78125 34.625 
z
M 21.921875 38.8125 
Q 15.578125 40.375 12.03125 44.71875 
Q 8.5 49.078125 8.5 55.328125 
Q 8.5 64.0625 14.71875 69.140625 
Q 20.953125 74.21875 31.78125 74.21875 
Q 42.671875 74.21875 48.875 69.140625 
Q 55.078125 64.0625 55.078125 55.328125 
Q 55.078125 49.078125 51.53125 44.71875 
Q 48 40.375 41.703125 38.8125 
Q 48.828125 37.15625 52.796875 32.3125 
Q 56.78125 27.484375 56.78125 20.515625 
Q 56.78125 9.90625 50.3125 4.234375 
Q 43.84375 -1.421875 31.78125 -1.421875 
Q 19.734375 -1.421875 13.25 4.234375 
Q 6.78125 9.90625 6.78125 20.515625 
Q 6.78125 27.484375 10.78125 32.3125 
Q 14.796875 37.15625 21.921875 38.8125 
z
M 18.3125 54.390625 
Q 18.3125 48.734375 21.84375 45.5625 
Q 25.390625 42.390625 31.78125 42.390625 
Q 38.140625 42.390625 41.71875 45.5625 
Q 45.3125 48.734375 45.3125 54.390625 
Q 45.3125 60.0625 41.71875 63.234375 
Q 38.140625 66.40625 31.78125 66.40625 
Q 25.390625 66.40625 21.84375 63.234375 
Q 18.3125 60.0625 18.3125 54.390625 
z
" id="DejaVuSans-38"/>
      </defs>
      <g transform="translate(325.604801 322.182437)scale(0.1 -0.1)">
       <use xlink:href="#DejaVuSans-30"/>
       <use x="63.623047" xlink:href="#DejaVuSans-2e"/>
       <use x="95.410156" xlink:href="#DejaVuSans-38"/>
      </g>
     </g>
    </g>
    <g id="xtick_6">
     <g id="line2d_6">
      <g>
       <use style="stroke:#000000;stroke-width:0.8;" x="398.487273" xlink:href="#m1c2af1748a" y="307.584"/>
      </g>
     </g>
     <g id="text_6">
      <!-- 1.0 -->
      <defs>
       <path d="M 12.40625 8.296875 
L 28.515625 8.296875 
L 28.515625 63.921875 
L 10.984375 60.40625 
L 10.984375 69.390625 
L 28.421875 72.90625 
L 38.28125 72.90625 
L 38.28125 8.296875 
L 54.390625 8.296875 
L 54.390625 0 
L 12.40625 0 
z
" id="DejaVuSans-31"/>
      </defs>
      <g transform="translate(390.53571 322.182437)scale(0.1 -0.1)">
       <use xlink:href="#DejaVuSans-31"/>
       <use x="63.623047" xlink:href="#DejaVuSans-2e"/>
       <use x="95.410156" xlink:href="#DejaVuSans-30"/>
      </g>
     </g>
    </g>
   </g>
   <g id="matplotlib.axis_2">
    <g id="ytick_1">
     <g id="line2d_7">
      <defs>
       <path d="M 0 0 
L -3.5 0 
" id="m690a9935b8" style="stroke:#000000;stroke-width:0.8;"/>
      </defs>
      <g>
       <use style="stroke:#000000;stroke-width:0.8;" x="57.6" xlink:href="#m690a9935b8" y="299.17887"/>
      </g>
     </g>
     <g id="text_7">
      <!-- 0.0 -->
      <g transform="translate(34.696875 302.978089)scale(0.1 -0.1)">
       <use xlink:href="#DejaVuSans-30"/>
       <use x="63.623047" xlink:href="#DejaVuSans-2e"/>
       <use x="95.410156" xlink:href="#DejaVuSans-30"/>
      </g>
     </g>
    </g>
    <g id="ytick_2">
     <g id="line2d_8">
      <g>
       <use style="stroke:#000000;stroke-width:0.8;" x="57.6" xlink:href="#m690a9935b8" y="249.553394"/>
      </g>
     </g>
     <g id="text_8">
      <!-- 0.2 -->
      <g transform="translate(34.696875 253.352613)scale(0.1 -0.1)">
       <use xlink:href="#DejaVuSans-30"/>
       <use x="63.623047" xlink:href="#DejaVuSans-2e"/>
       <use x="95.410156" xlink:href="#DejaVuSans-32"/>
      </g>
     </g>
    </g>
    <g id="ytick_3">
     <g id="line2d_9">
      <g>
       <use style="stroke:#000000;stroke-width:0.8;" x="57.6" xlink:href="#m690a9935b8" y="199.927919"/>
      </g>
     </g>
     <g id="text_9">
      <!-- 0.4 -->
      <g transform="translate(34.696875 203.727138)scale(0.1 -0.1)">
       <use xlink:href="#DejaVuSans-30"/>
       <use x="63.623047" xlink:href="#DejaVuSans-2e"/>
       <use x="95.410156" xlink:href="#DejaVuSans-34"/>
      </g>
     </g>
    </g>
    <g id="ytick_4">
     <g id="line2d_10">
      <g>
       <use style="stroke:#000000;stroke-width:0.8;" x="57.6" xlink:href="#m690a9935b8" y="150.302443"/>
      </g>
     </g>
     <g id="text_10">
      <!-- 0.6 -->
      <g transform="translate(34.696875 154.101662)scale(0.1 -0.1)">
       <use xlink:href="#DejaVuSans-30"/>
       <use x="63.623047" xlink:href="#DejaVuSans-2e"/>
       <use x="95.410156" xlink:href="#DejaVuSans-36"/>
      </g>
     </g>
    </g>
    <g id="ytick_5">
     <g id="line2d_11">
      <g>
       <use style="stroke:#000000;stroke-width:0.8;" x="57.6" xlink:href="#m690a9935b8" y="100.676968"/>
      </g>
     </g>
     <g id="text_11">
      <!-- 0.8 -->
      <g transform="translate(34.696875 104.476186)scale(0.1 -0.1)">
       <use xlink:href="#DejaVuSans-30"/>
       <use x="63.623047" xlink:href="#DejaVuSans-2e"/>
       <use x="95.410156" xlink:href="#DejaVuSans-38"/>
      </g>
     </g>
    </g>
    <g id="ytick_6">
     <g id="line2d_12">
      <g>
       <use style="stroke:#000000;stroke-width:0.8;" x="57.6" xlink:href="#m690a9935b8" y="51.051492"/>
      </g>
     </g>
     <g id="text_12">
      <!-- 1.0 -->
      <g transform="translate(34.696875 54.850711)scale(0.1 -0.1)">
       <use xlink:href="#DejaVuSans-31"/>
       <use x="63.623047" xlink:href="#DejaVuSans-2e"/>
       <use x="95.410156" xlink:href="#DejaVuSans-30"/>
      </g>
     </g>
    </g>
   </g>
   <g id="line2d_13">
    <path clip-path="url(#pb23d683f44)" d="M 73.832727 286.596355 
L 74.92584 286.764114 
L 76.018953 286.093054 
L 77.112066 285.086451 
L 78.205179 278.711289 
L 79.298292 276.194781 
L 80.391405 269.316244 
L 81.484518 258.411542 
L 82.577631 245.661268 
L 83.670744 224.522553 
L 84.763857 206.739263 
L 85.85697 186.607201 
L 88.043196 142.65218 
L 89.136309 124.868891 
L 90.229421 119.332673 
L 91.322534 104.40136 
L 92.415647 76.719773 
L 93.50876 67.324926 
L 94.601873 65.143887 
L 95.694986 54.574653 
L 96.788099 53.568 
L 97.881212 61.78846 
L 98.974325 79.571997 
L 100.067438 85.779152 
L 101.160551 87.456989 
L 102.253664 103.394707 
L 105.533003 130.405357 
L 106.626116 142.484446 
L 107.719229 161.609856 
L 108.812342 163.95863 
L 109.905455 152.047275 
L 110.998567 154.396049 
L 112.09168 159.932267 
L 113.184793 161.945572 
L 114.277906 159.932267 
L 115.371019 168.991645 
L 116.464132 184.761877 
L 117.557245 189.962627 
L 118.650358 202.712901 
L 119.743471 213.953319 
L 120.836584 215.463174 
L 121.929697 220.328456 
L 124.115923 236.433907 
L 125.209036 238.614947 
L 126.302149 241.131455 
L 127.395262 250.52655 
L 128.488375 256.398236 
L 129.581488 259.250212 
L 130.674601 257.069421 
L 131.767713 260.92805 
L 132.860826 265.289881 
L 135.047052 269.819694 
L 137.233278 280.892279 
L 138.326391 280.892279 
L 139.419504 278.54353 
L 140.512617 279.550133 
L 141.60573 277.704686 
L 142.698843 275.188178 
L 143.791956 274.684901 
L 144.885069 269.819694 
L 147.071295 251.532955 
L 148.164408 247.674326 
L 149.257521 242.64131 
L 150.350634 234.588584 
L 151.443747 229.555568 
L 152.53686 225.361471 
L 153.629972 220.49619 
L 154.723085 214.288787 
L 155.816198 200.867329 
L 156.909311 196.337764 
L 158.002424 193.150071 
L 159.095537 192.143419 
L 160.18865 190.298095 
L 161.281763 182.077387 
L 164.561102 115.809512 
L 167.840441 77.89416 
L 168.933554 90.141231 
L 170.026667 93.496658 
L 171.11978 88.79911 
L 172.212893 89.470047 
L 173.306006 96.1809 
L 174.399118 112.622068 
L 175.492231 122.352383 
L 176.585344 133.257333 
L 177.678457 151.543825 
L 178.77157 160.435469 
L 179.864683 167.984993 
L 180.957796 174.695846 
L 182.050909 176.205701 
L 183.144022 184.929611 
L 184.237135 186.607201 
L 185.330248 187.110403 
L 186.423361 186.607201 
L 187.516474 187.781587 
L 188.609587 191.304748 
L 189.7027 191.640216 
L 190.795813 194.659926 
L 191.888926 197.176434 
L 194.075152 200.364127 
L 195.168264 205.564877 
L 196.261377 206.571529 
L 197.35449 213.785585 
L 198.447603 219.992739 
L 199.540716 224.522553 
L 200.633829 223.683634 
L 201.726942 225.361471 
L 203.913168 238.950415 
L 205.006281 244.319147 
L 206.099394 248.680979 
L 207.192507 256.230502 
L 208.28562 262.270171 
L 209.378733 264.45121 
L 210.471846 265.625349 
L 211.564959 268.309839 
L 213.751185 277.536927 
L 214.844298 281.731099 
L 215.93741 286.596355 
L 217.030523 290.119442 
L 218.123636 292.803733 
L 219.216749 293.810336 
L 220.309862 293.139251 
L 221.402975 292.635949 
L 222.496088 292.300432 
L 223.589201 289.951683 
L 224.682314 288.777321 
L 225.775427 283.744305 
L 226.86854 279.717892 
L 229.054766 263.109089 
L 230.147879 255.559566 
L 231.240992 244.486881 
L 232.334105 238.782681 
L 233.427218 229.2201 
L 234.520331 217.811948 
L 235.613444 209.255771 
L 239.985895 160.603451 
L 242.172121 142.819914 
L 243.265234 141.813509 
L 244.358347 141.645775 
L 245.45146 138.961285 
L 246.544573 134.767188 
L 247.637686 138.961285 
L 248.730799 139.464736 
L 249.823912 141.981244 
L 250.917025 140.639123 
L 252.010138 147.181993 
L 253.103251 155.234719 
L 254.196364 159.764533 
L 255.289477 168.656177 
L 256.38259 170.501501 
L 257.475702 182.580838 
L 259.661928 187.278385 
L 262.941267 202.712901 
L 264.03438 200.867329 
L 265.127493 206.403795 
L 266.220606 216.13411 
L 267.313719 223.5159 
L 268.406832 225.361471 
L 269.499945 224.690287 
L 271.686171 226.703592 
L 272.779284 222.006045 
L 273.872397 220.999392 
L 274.96551 219.489537 
L 276.058623 222.173779 
L 277.151736 227.03906 
L 278.244848 229.891037 
L 279.337961 236.769624 
L 280.431074 240.124802 
L 281.524187 247.003389 
L 282.6173 250.52655 
L 283.710413 253.54626 
L 285.896639 263.94776 
L 286.989752 267.806389 
L 288.082865 270.994081 
L 289.175978 278.879073 
L 290.269091 284.583149 
L 291.362204 287.938476 
L 292.455317 290.119442 
L 293.54843 290.287225 
L 294.641543 288.609562 
L 295.734656 283.744305 
L 296.827769 278.040229 
L 299.013994 262.941107 
L 300.107107 252.371873 
L 302.293333 226.703592 
L 303.386446 219.657271 
L 304.479559 203.048369 
L 305.572672 190.298095 
L 306.665785 182.748572 
L 307.758898 177.547822 
L 308.852011 168.991645 
L 309.945124 142.148978 
L 311.038237 121.849181 
L 314.317576 67.828129 
L 315.410689 63.801766 
L 316.503802 64.976152 
L 317.596915 72.022474 
L 318.690028 82.256239 
L 319.78314 97.187304 
L 320.876253 109.769844 
L 321.969366 114.131923 
L 323.062479 126.378994 
L 324.155592 134.599454 
L 325.248705 134.263986 
L 326.341818 129.734172 
L 327.434931 128.224317 
L 328.528044 128.72752 
L 329.621157 130.069641 
L 330.71427 144.665485 
L 331.807383 156.409106 
L 333.993609 185.600548 
L 335.086722 194.659926 
L 336.179835 208.081384 
L 337.272948 211.940013 
L 338.366061 212.778932 
L 339.459174 216.973029 
L 340.552287 222.844963 
L 341.645399 233.749665 
L 342.738512 238.614947 
L 343.831625 244.486881 
L 344.924738 256.56597 
L 346.017851 264.786678 
L 347.110964 269.316244 
L 348.204077 271.161815 
L 349.29719 273.846057 
L 350.390303 278.207988 
L 351.483416 279.885676 
L 352.576529 279.046832 
L 353.669642 280.221194 
L 354.762755 279.382374 
L 355.855868 281.395581 
L 356.948981 277.201384 
L 358.042094 277.87247 
L 359.135207 277.536927 
L 360.22832 277.87247 
L 361.321433 281.395581 
L 362.414545 283.241003 
L 363.507658 287.099657 
L 364.600771 288.94508 
L 365.693884 291.293828 
L 366.786997 293.307035 
L 367.88011 294.145854 
L 368.973223 295.320241 
L 370.066336 295.488 
L 372.252562 292.132648 
L 373.345675 289.61614 
L 376.625014 272.67167 
L 377.718127 265.961065 
L 378.81124 252.875076 
L 379.904353 246.667921 
L 380.997466 241.466923 
L 382.090579 232.910995 
L 383.183691 226.032408 
L 384.276804 215.798642 
L 385.369917 215.463174 
L 386.46303 209.255771 
L 387.556143 205.732611 
L 388.649256 199.357474 
L 389.742369 194.492192 
L 390.835482 201.203045 
L 391.928595 202.20945 
L 393.021708 198.854272 
L 394.114821 198.518555 
L 395.207934 204.39049 
L 396.301047 207.745916 
L 397.39416 200.364127 
L 398.487273 198.854272 
L 398.487273 198.854272 
" style="fill:none;stroke:#1f77b4;stroke-linecap:square;stroke-width:1.5;"/>
   </g>
   <g id="line2d_14">
    <path clip-path="url(#pb23d683f44)" d="M 73.832727 276.080279 
L 74.92584 276.580669 
L 76.018953 276.641322 
L 77.112066 276.451091 
L 78.205179 275.56955 
L 79.298292 273.314348 
L 80.391405 271.361723 
L 81.484518 266.660399 
L 82.577631 259.673545 
L 83.670744 247.828909 
L 85.85697 206.479171 
L 89.136309 134.872367 
L 90.229421 122.373639 
L 91.322534 116.806626 
L 93.50876 93.399943 
L 94.601873 90.584387 
L 95.694986 88.973626 
L 96.788099 86.246982 
L 97.881212 86.261456 
L 98.974325 90.027478 
L 100.067438 96.420205 
L 101.160551 98.836 
L 102.253664 101.546792 
L 103.346777 109.065052 
L 104.43989 115.390232 
L 105.533003 122.771332 
L 106.626116 128.939365 
L 107.719229 140.151966 
L 108.812342 156.158249 
L 109.905455 155.02927 
L 110.998567 147.632317 
L 112.09168 149.587699 
L 113.184793 154.478565 
L 114.277906 155.699214 
L 115.371019 155.947341 
L 116.464132 167.027607 
L 117.557245 181.818066 
L 118.650358 190.83474 
L 119.743471 203.984801 
L 120.836584 215.633003 
L 121.929697 219.428663 
L 123.02281 224.586266 
L 124.115923 233.363772 
L 125.209036 240.016343 
L 126.302149 243.180656 
L 127.395262 246.716471 
L 128.488375 253.159512 
L 129.581488 258.382594 
L 130.674601 259.370968 
L 131.767713 259.843788 
L 132.860826 261.965966 
L 133.953939 264.641607 
L 135.047052 266.478439 
L 136.140165 268.001665 
L 137.233278 271.121867 
L 138.326391 273.490105 
L 139.419504 273.750638 
L 140.512617 273.11171 
L 141.60573 273.000742 
L 142.698843 272.204667 
L 143.791956 271.243173 
L 144.885069 270.127289 
L 145.978182 267.344817 
L 147.071295 261.677863 
L 148.164408 255.305125 
L 150.350634 246.360133 
L 151.443747 239.244391 
L 152.53686 233.621549 
L 153.629972 229.610156 
L 154.723085 223.451773 
L 155.816198 213.920235 
L 156.909311 202.724177 
L 158.002424 195.501602 
L 159.095537 191.784516 
L 160.18865 191.169712 
L 161.281763 188.807677 
L 162.374876 175.540444 
L 163.467989 150.049491 
L 164.561102 128.76223 
L 165.654215 115.585288 
L 166.747328 106.60032 
L 167.840441 99.276426 
L 168.933554 96.660061 
L 170.026667 101.18425 
L 171.11978 102.216047 
L 172.212893 99.792669 
L 173.306006 100.658358 
L 174.399118 105.846977 
L 176.585344 122.348137 
L 177.678457 133.249889 
L 178.77157 145.83615 
L 179.864683 156.496668 
L 180.957796 164.939202 
L 182.050909 169.835582 
L 183.144022 174.048923 
L 184.237135 181.482405 
L 185.330248 185.080252 
L 186.423361 184.203535 
L 187.516474 184.59089 
L 188.609587 186.735813 
L 189.7027 189.582386 
L 190.795813 190.469441 
L 191.888926 194.29267 
L 192.982039 197.313621 
L 194.075152 198.429505 
L 195.168264 202.425734 
L 196.261377 205.492175 
L 197.35449 209.642795 
L 199.540716 223.806043 
L 200.633829 227.696129 
L 201.726942 227.729902 
L 202.820055 230.548905 
L 205.006281 243.175832 
L 206.099394 248.253483 
L 207.192507 252.713572 
L 208.28562 257.918733 
L 209.378733 262.429138 
L 210.471846 264.266659 
L 211.564959 265.059288 
L 212.658072 267.024319 
L 214.844298 272.217073 
L 217.030523 276.539314 
L 218.123636 278.041174 
L 219.216749 279.120528 
L 220.309862 279.494098 
L 222.496088 279.212887 
L 223.589201 278.889632 
L 224.682314 278.203146 
L 225.775427 277.202366 
L 226.86854 275.561279 
L 227.961653 273.040029 
L 229.054766 268.748804 
L 230.147879 263.462312 
L 231.240992 257.06614 
L 233.427218 242.323928 
L 234.520331 233.051545 
L 237.799669 196.171546 
L 239.985895 166.782237 
L 241.079008 153.827231 
L 242.172121 143.850442 
L 243.265234 138.116632 
L 244.358347 136.283246 
L 245.45146 136.300477 
L 246.544573 133.431849 
L 247.637686 131.457858 
L 248.730799 134.26859 
L 249.823912 135.49751 
L 252.010138 137.45427 
L 253.103251 142.1873 
L 255.289477 156.427743 
L 257.475702 168.798272 
L 258.568815 178.181622 
L 259.661928 183.137277 
L 260.755041 185.967308 
L 261.848154 191.257935 
L 262.941267 198.179999 
L 264.03438 201.995647 
L 265.127493 202.72073 
L 266.220606 209.711719 
L 267.313719 219.749161 
L 268.406832 226.438261 
L 269.499945 228.695531 
L 270.593058 229.081507 
L 271.686171 230.351092 
L 272.779284 229.508838 
L 273.872397 226.043325 
L 274.96551 224.156868 
L 276.058623 224.101729 
L 277.151736 226.839401 
L 278.244848 230.586124 
L 279.337961 235.334317 
L 280.431074 240.649757 
L 282.6173 250.306047 
L 283.710413 253.632333 
L 284.803526 256.394818 
L 286.989752 263.948228 
L 289.175978 268.877003 
L 290.269091 272.597535 
L 291.362204 275.464096 
L 292.455317 277.130685 
L 293.54843 277.976385 
L 294.641543 278.21762 
L 295.734656 277.201677 
L 296.827769 275.449622 
L 297.920882 272.281173 
L 299.013994 268.29735 
L 300.107107 262.959854 
L 301.20022 254.650344 
L 304.479559 220.791296 
L 306.665785 187.389905 
L 307.758898 179.669697 
L 308.852011 173.15911 
L 309.945124 158.689149 
L 311.038237 134.438833 
L 312.13135 117.646813 
L 314.317576 96.216189 
L 315.410689 90.513395 
L 316.503802 89.582228 
L 317.596915 90.179112 
L 318.690028 93.26623 
L 319.78314 98.647148 
L 321.969366 112.673926 
L 323.062479 116.953434 
L 324.155592 125.071335 
L 325.248705 130.044221 
L 326.341818 128.942811 
L 327.434931 126.734478 
L 328.528044 125.03067 
L 329.621157 125.504869 
L 330.71427 129.392887 
L 331.807383 140.693021 
L 332.900496 153.601848 
L 335.086722 183.30752 
L 337.272948 208.639947 
L 338.366061 214.437856 
L 339.459174 216.328449 
L 340.552287 220.598997 
L 341.645399 227.933229 
L 342.738512 237.532312 
L 343.831625 243.753417 
L 344.924738 249.278387 
L 346.017851 257.935275 
L 347.110964 264.168786 
L 348.204077 267.091175 
L 350.390303 270.297532 
L 351.483416 272.317014 
L 352.576529 273.321929 
L 354.762755 273.335714 
L 355.855868 273.647941 
L 356.948981 273.634846 
L 358.042094 272.515515 
L 359.135207 272.000651 
L 360.22832 272.22879 
L 361.321433 272.922858 
L 362.414545 273.894001 
L 364.600771 276.695773 
L 366.786997 278.703537 
L 367.88011 279.321787 
L 368.973223 279.771863 
L 370.066336 279.980014 
L 371.159449 280.000691 
L 372.252562 279.618162 
L 373.345675 278.895835 
L 374.438788 277.739975 
L 375.531901 275.555765 
L 376.625014 272.828432 
L 377.718127 269.433222 
L 378.81124 264.044033 
L 379.904353 256.713937 
L 380.997466 250.504549 
L 382.090579 244.941671 
L 383.183691 237.572288 
L 384.276804 228.443268 
L 385.369917 221.100766 
L 386.46303 216.7096 
L 388.649256 206.385434 
L 389.742369 198.592166 
L 390.835482 195.851048 
L 391.928595 200.768106 
L 393.021708 201.830229 
L 394.114821 199.156656 
L 395.207934 200.373859 
L 396.301047 206.492266 
L 397.39416 206.602545 
L 398.487273 202.003918 
L 398.487273 202.003918 
" style="fill:none;stroke:#ff7f0e;stroke-linecap:square;stroke-width:1.5;"/>
   </g>
   <g id="line2d_15">
    <path clip-path="url(#pb23d683f44)" d="M 73.832727 279.32868 
L 74.92584 281.809953 
L 76.018953 281.809953 
L 77.112066 279.32868 
L 78.205179 279.32868 
L 80.391405 274.366132 
L 82.577631 264.441037 
L 83.670744 254.515942 
L 84.763857 237.147025 
L 88.043196 170.152633 
L 89.136309 150.302443 
L 90.229421 135.414801 
L 92.415647 120.527158 
L 93.50876 110.602063 
L 94.601873 103.158241 
L 95.694986 103.158241 
L 97.881212 98.195694 
L 98.974325 100.676968 
L 100.067438 105.639515 
L 102.253664 110.602063 
L 103.346777 115.56461 
L 104.43989 123.008432 
L 106.626116 132.933527 
L 107.719229 147.821169 
L 108.812342 165.190086 
L 110.998567 155.264991 
L 112.09168 152.783717 
L 113.184793 157.746265 
L 114.277906 160.227538 
L 115.371019 160.227538 
L 116.464132 172.633907 
L 117.557245 187.52155 
L 118.650358 194.965371 
L 119.743471 207.37174 
L 120.836584 217.296835 
L 123.02281 227.22193 
L 124.115923 237.147025 
L 126.302149 247.072121 
L 127.395262 249.553394 
L 128.488375 256.997216 
L 129.581488 261.959763 
L 131.767713 261.959763 
L 138.326391 276.847406 
L 141.60573 276.847406 
L 142.698843 274.366132 
L 144.885069 274.366132 
L 151.443747 244.590847 
L 152.53686 237.147025 
L 154.723085 227.22193 
L 155.816198 219.778109 
L 156.909311 207.37174 
L 158.002424 199.927919 
L 159.095537 194.965371 
L 160.18865 192.484097 
L 161.281763 192.484097 
L 162.374876 182.559002 
L 163.467989 165.190086 
L 164.561102 142.858622 
L 165.654215 130.452253 
L 166.747328 120.527158 
L 167.840441 113.083337 
L 168.933554 110.602063 
L 170.026667 110.602063 
L 171.11978 113.083337 
L 172.212893 110.602063 
L 173.306006 110.602063 
L 174.399118 113.083337 
L 176.585344 127.970979 
L 178.77157 152.783717 
L 179.864683 162.708812 
L 180.957796 170.152633 
L 182.050909 172.633907 
L 183.144022 177.596455 
L 184.237135 185.040276 
L 185.330248 187.52155 
L 187.516474 187.52155 
L 189.7027 192.484097 
L 190.795813 192.484097 
L 191.888926 197.446645 
L 192.982039 199.927919 
L 194.075152 199.927919 
L 195.168264 204.890466 
L 196.261377 207.37174 
L 197.35449 212.334288 
L 198.447603 219.778109 
L 200.633829 229.703204 
L 201.726942 229.703204 
L 202.820055 232.184478 
L 203.913168 239.628299 
L 207.192507 254.515942 
L 208.28562 261.959763 
L 210.471846 266.922311 
L 211.564959 266.922311 
L 212.658072 269.403585 
L 213.751185 274.366132 
L 217.030523 281.809953 
L 218.123636 281.809953 
L 219.216749 284.291227 
L 222.496088 284.291227 
L 223.589201 281.809953 
L 225.775427 281.809953 
L 227.961653 276.847406 
L 231.240992 261.959763 
L 233.427218 247.072121 
L 235.613444 227.22193 
L 237.799669 202.409193 
L 238.892782 187.52155 
L 241.079008 162.708812 
L 242.172121 152.783717 
L 244.358347 142.858622 
L 246.544573 142.858622 
L 247.637686 140.377348 
L 248.730799 140.377348 
L 249.823912 142.858622 
L 250.917025 142.858622 
L 253.103251 147.821169 
L 254.196364 155.264991 
L 255.289477 160.227538 
L 256.38259 167.67136 
L 257.475702 172.633907 
L 258.568815 182.559002 
L 260.755041 187.52155 
L 261.848154 194.965371 
L 264.03438 204.890466 
L 265.127493 204.890466 
L 266.220606 212.334288 
L 267.313719 222.259383 
L 268.406832 229.703204 
L 269.499945 232.184478 
L 272.779284 232.184478 
L 274.96551 227.22193 
L 276.058623 227.22193 
L 278.244848 232.184478 
L 283.710413 256.997216 
L 285.896639 261.959763 
L 286.989752 266.922311 
L 289.175978 271.884858 
L 290.269091 276.847406 
L 292.455317 281.809953 
L 295.734656 281.809953 
L 296.827769 279.32868 
L 297.920882 274.366132 
L 299.013994 271.884858 
L 300.107107 266.922311 
L 301.20022 259.478489 
L 302.293333 249.553394 
L 305.572672 212.334288 
L 306.665785 194.965371 
L 307.758898 185.040276 
L 308.852011 177.596455 
L 309.945124 167.67136 
L 312.13135 132.933527 
L 313.224463 120.527158 
L 315.410689 105.639515 
L 316.503802 103.158241 
L 318.690028 103.158241 
L 323.062479 123.008432 
L 324.155592 130.452253 
L 325.248705 135.414801 
L 326.341818 137.896074 
L 328.528044 132.933527 
L 329.621157 132.933527 
L 330.71427 135.414801 
L 332.900496 160.227538 
L 335.086722 190.002824 
L 336.179835 199.927919 
L 337.272948 212.334288 
L 338.366061 217.296835 
L 339.459174 217.296835 
L 340.552287 222.259383 
L 341.645399 229.703204 
L 342.738512 239.628299 
L 343.831625 247.072121 
L 344.924738 252.034668 
L 346.017851 261.959763 
L 347.110964 266.922311 
L 351.483416 276.847406 
L 358.042094 276.847406 
L 359.135207 274.366132 
L 360.22832 276.847406 
L 362.414545 276.847406 
L 364.600771 281.809953 
L 366.786997 281.809953 
L 367.88011 284.291227 
L 372.252562 284.291227 
L 373.345675 281.809953 
L 374.438788 281.809953 
L 376.625014 276.847406 
L 379.904353 261.959763 
L 380.997466 254.515942 
L 382.090579 249.553394 
L 383.183691 242.109573 
L 384.276804 232.184478 
L 385.369917 224.740657 
L 388.649256 209.853014 
L 389.742369 202.409193 
L 390.835482 197.446645 
L 391.928595 202.409193 
L 393.021708 204.890466 
L 394.114821 202.409193 
L 395.207934 202.409193 
L 396.301047 209.853014 
L 397.39416 209.853014 
L 398.487273 204.890466 
L 398.487273 204.890466 
" style="fill:none;stroke:#2ca02c;stroke-linecap:square;stroke-width:1.5;"/>
   </g>
   <g id="line2d_16">
    <path clip-path="url(#pb23d683f44)" d="M 73.832727 264.441037 
L 74.92584 264.441037 
L 76.018953 266.922311 
L 77.112066 266.922311 
L 78.205179 264.441037 
L 79.298292 264.441037 
L 81.484518 259.478489 
L 82.577631 252.034668 
L 83.670744 242.109573 
L 85.85697 197.446645 
L 88.043196 147.821169 
L 89.136309 127.970979 
L 90.229421 118.045884 
L 91.322534 113.083337 
L 92.415647 98.195694 
L 93.50876 85.789325 
L 94.601873 85.789325 
L 96.788099 80.826777 
L 97.881212 80.826777 
L 98.974325 85.789325 
L 100.067438 93.233146 
L 102.253664 98.195694 
L 103.346777 103.158241 
L 104.43989 110.602063 
L 105.533003 115.56461 
L 106.626116 123.008432 
L 107.719229 132.933527 
L 108.812342 147.821169 
L 109.905455 152.783717 
L 110.998567 145.339896 
L 112.09168 145.339896 
L 113.184793 150.302443 
L 114.277906 152.783717 
L 115.371019 152.783717 
L 116.464132 160.227538 
L 117.557245 175.115181 
L 118.650358 187.52155 
L 119.743471 197.446645 
L 120.836584 209.853014 
L 121.929697 217.296835 
L 123.02281 219.778109 
L 124.115923 227.22193 
L 126.302149 237.147025 
L 128.488375 242.109573 
L 129.581488 249.553394 
L 130.674601 249.553394 
L 131.767713 252.034668 
L 132.860826 252.034668 
L 135.047052 256.997216 
L 136.140165 256.997216 
L 139.419504 264.441037 
L 140.512617 261.959763 
L 143.791956 261.959763 
L 144.885069 259.478489 
L 145.978182 259.478489 
L 154.723085 219.778109 
L 155.816198 209.853014 
L 156.909311 197.446645 
L 158.002424 192.484097 
L 159.095537 190.002824 
L 160.18865 190.002824 
L 161.281763 187.52155 
L 162.374876 170.152633 
L 163.467989 140.377348 
L 164.561102 120.527158 
L 165.654215 108.120789 
L 167.840441 93.233146 
L 168.933554 90.751873 
L 170.026667 95.71442 
L 171.11978 98.195694 
L 172.212893 95.71442 
L 173.306006 95.71442 
L 174.399118 100.676968 
L 176.585344 115.56461 
L 177.678457 125.489705 
L 179.864683 150.302443 
L 182.050909 165.190086 
L 183.144022 170.152633 
L 184.237135 177.596455 
L 185.330248 182.559002 
L 187.516474 182.559002 
L 189.7027 187.52155 
L 190.795813 187.52155 
L 191.888926 192.484097 
L 196.261377 202.409193 
L 198.447603 212.334288 
L 199.540716 219.654045 
L 201.726942 224.740657 
L 202.820055 224.740657 
L 207.192507 244.590847 
L 208.28562 247.072121 
L 209.378733 252.034668 
L 210.471846 254.515942 
L 211.564959 254.515942 
L 215.93741 264.441037 
L 217.030523 264.441037 
L 218.123636 266.922311 
L 219.216749 266.922311 
L 220.309862 269.403585 
L 222.496088 269.403585 
L 223.589201 266.922311 
L 225.775427 266.922311 
L 229.054766 259.478489 
L 232.334105 244.590847 
L 233.427218 237.147025 
L 234.520331 227.22193 
L 235.613444 214.815561 
L 236.706556 204.890466 
L 239.985895 160.227538 
L 242.172121 140.377348 
L 243.265234 135.414801 
L 244.358347 132.933527 
L 245.45146 132.933527 
L 247.637686 127.970979 
L 248.730799 130.452253 
L 249.823912 130.452253 
L 250.917025 132.933527 
L 252.010138 132.933527 
L 253.103251 135.414801 
L 259.661928 180.077729 
L 260.755041 182.559002 
L 261.848154 187.52155 
L 262.941267 194.965371 
L 264.03438 199.927919 
L 265.127493 199.927919 
L 266.220606 204.890466 
L 267.313719 214.815561 
L 269.499945 224.740657 
L 272.779284 224.740657 
L 274.96551 219.778109 
L 276.058623 219.778109 
L 278.244848 224.740657 
L 279.337961 229.703204 
L 280.431074 232.184478 
L 282.6173 242.109573 
L 285.896639 249.553394 
L 286.989752 254.515942 
L 288.082865 256.997216 
L 289.175978 256.997216 
L 290.269091 261.959763 
L 292.455317 266.922311 
L 295.734656 266.922311 
L 299.013994 259.478489 
L 301.20022 249.553394 
L 303.386446 224.740657 
L 304.479559 214.815561 
L 306.665785 180.077729 
L 307.758898 177.596455 
L 308.852011 170.152633 
L 309.945124 152.783717 
L 311.038237 125.489705 
L 312.13135 110.602063 
L 313.224463 100.676968 
L 314.317576 88.270599 
L 315.410689 83.308051 
L 316.503802 83.308051 
L 318.690028 88.270599 
L 319.78314 95.71442 
L 320.876253 100.676968 
L 321.969366 108.120789 
L 324.155592 118.045884 
L 325.248705 125.489705 
L 326.341818 125.489705 
L 328.528044 120.527158 
L 329.621157 120.527158 
L 330.71427 125.489705 
L 331.807383 132.933527 
L 332.900496 145.339896 
L 333.993609 160.227538 
L 335.086722 177.596455 
L 336.179835 190.002824 
L 337.272948 204.890466 
L 338.366061 212.334288 
L 340.552287 217.296835 
L 341.645399 222.259383 
L 343.831625 237.147025 
L 344.924738 239.628299 
L 347.110964 254.515942 
L 349.29719 259.478489 
L 350.390303 259.478489 
L 351.483416 261.959763 
L 362.414545 261.959763 
L 363.507658 264.441037 
L 364.600771 264.441037 
L 365.693884 266.922311 
L 366.786997 266.922311 
L 367.88011 269.403585 
L 372.252562 269.403585 
L 373.345675 266.922311 
L 374.438788 266.922311 
L 378.81124 256.997216 
L 379.904353 249.553394 
L 382.090579 239.628299 
L 383.183691 232.184478 
L 384.276804 222.259383 
L 385.369917 217.296835 
L 386.46303 214.815561 
L 387.556143 207.37174 
L 388.649256 202.409193 
L 389.742369 194.965371 
L 390.835482 194.965371 
L 393.021708 199.927919 
L 394.114821 197.446645 
L 395.207934 197.446645 
L 396.301047 202.409193 
L 397.39416 204.890466 
L 398.487273 197.446645 
L 398.487273 197.446645 
" style="fill:none;stroke:#d62728;stroke-linecap:square;stroke-width:1.5;"/>
   </g>
   <g id="patch_3">
    <path d="M 57.6 307.584 
L 57.6 41.472 
" style="fill:none;stroke:#000000;stroke-linecap:square;stroke-linejoin:miter;stroke-width:0.8;"/>
   </g>
   <g id="patch_4">
    <path d="M 414.72 307.584 
L 414.72 41.472 
" style="fill:none;stroke:#000000;stroke-linecap:square;stroke-linejoin:miter;stroke-width:0.8;"/>
   </g>
   <g id="patch_5">
    <path d="M 57.6 307.584 
L 414.72 307.584 
" style="fill:none;stroke:#000000;stroke-linecap:square;stroke-linejoin:miter;stroke-width:0.8;"/>
   </g>
   <g id="patch_6">
    <path d="M 57.6 41.472 
L 414.72 41.472 
" style="fill:none;stroke:#000000;stroke-linecap:square;stroke-linejoin:miter;stroke-width:0.8;"/>
   </g>
   <g id="text_13">
    <!-- Plot of Train Data vs MCMC Uncertainty  -->
    <defs>
     <path d="M 19.671875 64.796875 
L 19.671875 37.40625 
L 32.078125 37.40625 
Q 38.96875 37.40625 42.71875 40.96875 
Q 46.484375 44.53125 46.484375 51.125 
Q 46.484375 57.671875 42.71875 61.234375 
Q 38.96875 64.796875 32.078125 64.796875 
z
M 9.8125 72.90625 
L 32.078125 72.90625 
Q 44.34375 72.90625 50.609375 67.359375 
Q 56.890625 61.8125 56.890625 51.125 
Q 56.890625 40.328125 50.609375 34.8125 
Q 44.34375 29.296875 32.078125 29.296875 
L 19.671875 29.296875 
L 19.671875 0 
L 9.8125 0 
z
" id="DejaVuSans-50"/>
     <path d="M 9.421875 75.984375 
L 18.40625 75.984375 
L 18.40625 0 
L 9.421875 0 
z
" id="DejaVuSans-6c"/>
     <path d="M 30.609375 48.390625 
Q 23.390625 48.390625 19.1875 42.75 
Q 14.984375 37.109375 14.984375 27.296875 
Q 14.984375 17.484375 19.15625 11.84375 
Q 23.34375 6.203125 30.609375 6.203125 
Q 37.796875 6.203125 41.984375 11.859375 
Q 46.1875 17.53125 46.1875 27.296875 
Q 46.1875 37.015625 41.984375 42.703125 
Q 37.796875 48.390625 30.609375 48.390625 
z
M 30.609375 56 
Q 42.328125 56 49.015625 48.375 
Q 55.71875 40.765625 55.71875 27.296875 
Q 55.71875 13.875 49.015625 6.21875 
Q 42.328125 -1.421875 30.609375 -1.421875 
Q 18.84375 -1.421875 12.171875 6.21875 
Q 5.515625 13.875 5.515625 27.296875 
Q 5.515625 40.765625 12.171875 48.375 
Q 18.84375 56 30.609375 56 
z
" id="DejaVuSans-6f"/>
     <path d="M 18.3125 70.21875 
L 18.3125 54.6875 
L 36.8125 54.6875 
L 36.8125 47.703125 
L 18.3125 47.703125 
L 18.3125 18.015625 
Q 18.3125 11.328125 20.140625 9.421875 
Q 21.96875 7.515625 27.59375 7.515625 
L 36.8125 7.515625 
L 36.8125 0 
L 27.59375 0 
Q 17.1875 0 13.234375 3.875 
Q 9.28125 7.765625 9.28125 18.015625 
L 9.28125 47.703125 
L 2.6875 47.703125 
L 2.6875 54.6875 
L 9.28125 54.6875 
L 9.28125 70.21875 
z
" id="DejaVuSans-74"/>
     <path id="DejaVuSans-20"/>
     <path d="M 37.109375 75.984375 
L 37.109375 68.5 
L 28.515625 68.5 
Q 23.6875 68.5 21.796875 66.546875 
Q 19.921875 64.59375 19.921875 59.515625 
L 19.921875 54.6875 
L 34.71875 54.6875 
L 34.71875 47.703125 
L 19.921875 47.703125 
L 19.921875 0 
L 10.890625 0 
L 10.890625 47.703125 
L 2.296875 47.703125 
L 2.296875 54.6875 
L 10.890625 54.6875 
L 10.890625 58.5 
Q 10.890625 67.625 15.140625 71.796875 
Q 19.390625 75.984375 28.609375 75.984375 
z
" id="DejaVuSans-66"/>
     <path d="M -0.296875 72.90625 
L 61.375 72.90625 
L 61.375 64.59375 
L 35.5 64.59375 
L 35.5 0 
L 25.59375 0 
L 25.59375 64.59375 
L -0.296875 64.59375 
z
" id="DejaVuSans-54"/>
     <path d="M 41.109375 46.296875 
Q 39.59375 47.171875 37.8125 47.578125 
Q 36.03125 48 33.890625 48 
Q 26.265625 48 22.1875 43.046875 
Q 18.109375 38.09375 18.109375 28.8125 
L 18.109375 0 
L 9.078125 0 
L 9.078125 54.6875 
L 18.109375 54.6875 
L 18.109375 46.1875 
Q 20.953125 51.171875 25.484375 53.578125 
Q 30.03125 56 36.53125 56 
Q 37.453125 56 38.578125 55.875 
Q 39.703125 55.765625 41.0625 55.515625 
z
" id="DejaVuSans-72"/>
     <path d="M 34.28125 27.484375 
Q 23.390625 27.484375 19.1875 25 
Q 14.984375 22.515625 14.984375 16.5 
Q 14.984375 11.71875 18.140625 8.90625 
Q 21.296875 6.109375 26.703125 6.109375 
Q 34.1875 6.109375 38.703125 11.40625 
Q 43.21875 16.703125 43.21875 25.484375 
L 43.21875 27.484375 
z
M 52.203125 31.203125 
L 52.203125 0 
L 43.21875 0 
L 43.21875 8.296875 
Q 40.140625 3.328125 35.546875 0.953125 
Q 30.953125 -1.421875 24.3125 -1.421875 
Q 15.921875 -1.421875 10.953125 3.296875 
Q 6 8.015625 6 15.921875 
Q 6 25.140625 12.171875 29.828125 
Q 18.359375 34.515625 30.609375 34.515625 
L 43.21875 34.515625 
L 43.21875 35.40625 
Q 43.21875 41.609375 39.140625 45 
Q 35.0625 48.390625 27.6875 48.390625 
Q 23 48.390625 18.546875 47.265625 
Q 14.109375 46.140625 10.015625 43.890625 
L 10.015625 52.203125 
Q 14.9375 54.109375 19.578125 55.046875 
Q 24.21875 56 28.609375 56 
Q 40.484375 56 46.34375 49.84375 
Q 52.203125 43.703125 52.203125 31.203125 
z
" id="DejaVuSans-61"/>
     <path d="M 9.421875 54.6875 
L 18.40625 54.6875 
L 18.40625 0 
L 9.421875 0 
z
M 9.421875 75.984375 
L 18.40625 75.984375 
L 18.40625 64.59375 
L 9.421875 64.59375 
z
" id="DejaVuSans-69"/>
     <path d="M 54.890625 33.015625 
L 54.890625 0 
L 45.90625 0 
L 45.90625 32.71875 
Q 45.90625 40.484375 42.875 44.328125 
Q 39.84375 48.1875 33.796875 48.1875 
Q 26.515625 48.1875 22.3125 43.546875 
Q 18.109375 38.921875 18.109375 30.90625 
L 18.109375 0 
L 9.078125 0 
L 9.078125 54.6875 
L 18.109375 54.6875 
L 18.109375 46.1875 
Q 21.34375 51.125 25.703125 53.5625 
Q 30.078125 56 35.796875 56 
Q 45.21875 56 50.046875 50.171875 
Q 54.890625 44.34375 54.890625 33.015625 
z
" id="DejaVuSans-6e"/>
     <path d="M 19.671875 64.796875 
L 19.671875 8.109375 
L 31.59375 8.109375 
Q 46.6875 8.109375 53.6875 14.9375 
Q 60.6875 21.78125 60.6875 36.53125 
Q 60.6875 51.171875 53.6875 57.984375 
Q 46.6875 64.796875 31.59375 64.796875 
z
M 9.8125 72.90625 
L 30.078125 72.90625 
Q 51.265625 72.90625 61.171875 64.09375 
Q 71.09375 55.28125 71.09375 36.53125 
Q 71.09375 17.671875 61.125 8.828125 
Q 51.171875 0 30.078125 0 
L 9.8125 0 
z
" id="DejaVuSans-44"/>
     <path d="M 2.984375 54.6875 
L 12.5 54.6875 
L 29.59375 8.796875 
L 46.6875 54.6875 
L 56.203125 54.6875 
L 35.6875 0 
L 23.484375 0 
z
" id="DejaVuSans-76"/>
     <path d="M 44.28125 53.078125 
L 44.28125 44.578125 
Q 40.484375 46.53125 36.375 47.5 
Q 32.28125 48.484375 27.875 48.484375 
Q 21.1875 48.484375 17.84375 46.4375 
Q 14.5 44.390625 14.5 40.28125 
Q 14.5 37.15625 16.890625 35.375 
Q 19.28125 33.59375 26.515625 31.984375 
L 29.59375 31.296875 
Q 39.15625 29.25 43.1875 25.515625 
Q 47.21875 21.78125 47.21875 15.09375 
Q 47.21875 7.46875 41.1875 3.015625 
Q 35.15625 -1.421875 24.609375 -1.421875 
Q 20.21875 -1.421875 15.453125 -0.5625 
Q 10.6875 0.296875 5.421875 2 
L 5.421875 11.28125 
Q 10.40625 8.6875 15.234375 7.390625 
Q 20.0625 6.109375 24.8125 6.109375 
Q 31.15625 6.109375 34.5625 8.28125 
Q 37.984375 10.453125 37.984375 14.40625 
Q 37.984375 18.0625 35.515625 20.015625 
Q 33.0625 21.96875 24.703125 23.78125 
L 21.578125 24.515625 
Q 13.234375 26.265625 9.515625 29.90625 
Q 5.8125 33.546875 5.8125 39.890625 
Q 5.8125 47.609375 11.28125 51.796875 
Q 16.75 56 26.8125 56 
Q 31.78125 56 36.171875 55.265625 
Q 40.578125 54.546875 44.28125 53.078125 
z
" id="DejaVuSans-73"/>
     <path d="M 9.8125 72.90625 
L 24.515625 72.90625 
L 43.109375 23.296875 
L 61.8125 72.90625 
L 76.515625 72.90625 
L 76.515625 0 
L 66.890625 0 
L 66.890625 64.015625 
L 48.09375 14.015625 
L 38.1875 14.015625 
L 19.390625 64.015625 
L 19.390625 0 
L 9.8125 0 
z
" id="DejaVuSans-4d"/>
     <path d="M 64.40625 67.28125 
L 64.40625 56.890625 
Q 59.421875 61.53125 53.78125 63.8125 
Q 48.140625 66.109375 41.796875 66.109375 
Q 29.296875 66.109375 22.65625 58.46875 
Q 16.015625 50.828125 16.015625 36.375 
Q 16.015625 21.96875 22.65625 14.328125 
Q 29.296875 6.6875 41.796875 6.6875 
Q 48.140625 6.6875 53.78125 8.984375 
Q 59.421875 11.28125 64.40625 15.921875 
L 64.40625 5.609375 
Q 59.234375 2.09375 53.4375 0.328125 
Q 47.65625 -1.421875 41.21875 -1.421875 
Q 24.65625 -1.421875 15.125 8.703125 
Q 5.609375 18.84375 5.609375 36.375 
Q 5.609375 53.953125 15.125 64.078125 
Q 24.65625 74.21875 41.21875 74.21875 
Q 47.75 74.21875 53.53125 72.484375 
Q 59.328125 70.75 64.40625 67.28125 
z
" id="DejaVuSans-43"/>
     <path d="M 8.6875 72.90625 
L 18.609375 72.90625 
L 18.609375 28.609375 
Q 18.609375 16.890625 22.84375 11.734375 
Q 27.09375 6.59375 36.625 6.59375 
Q 46.09375 6.59375 50.34375 11.734375 
Q 54.59375 16.890625 54.59375 28.609375 
L 54.59375 72.90625 
L 64.5 72.90625 
L 64.5 27.390625 
Q 64.5 13.140625 57.4375 5.859375 
Q 50.390625 -1.421875 36.625 -1.421875 
Q 22.796875 -1.421875 15.734375 5.859375 
Q 8.6875 13.140625 8.6875 27.390625 
z
" id="DejaVuSans-55"/>
     <path d="M 48.78125 52.59375 
L 48.78125 44.1875 
Q 44.96875 46.296875 41.140625 47.34375 
Q 37.3125 48.390625 33.40625 48.390625 
Q 24.65625 48.390625 19.8125 42.84375 
Q 14.984375 37.3125 14.984375 27.296875 
Q 14.984375 17.28125 19.8125 11.734375 
Q 24.65625 6.203125 33.40625 6.203125 
Q 37.3125 6.203125 41.140625 7.25 
Q 44.96875 8.296875 48.78125 10.40625 
L 48.78125 2.09375 
Q 45.015625 0.34375 40.984375 -0.53125 
Q 36.96875 -1.421875 32.421875 -1.421875 
Q 20.0625 -1.421875 12.78125 6.34375 
Q 5.515625 14.109375 5.515625 27.296875 
Q 5.515625 40.671875 12.859375 48.328125 
Q 20.21875 56 33.015625 56 
Q 37.15625 56 41.109375 55.140625 
Q 45.0625 54.296875 48.78125 52.59375 
z
" id="DejaVuSans-63"/>
     <path d="M 56.203125 29.59375 
L 56.203125 25.203125 
L 14.890625 25.203125 
Q 15.484375 15.921875 20.484375 11.0625 
Q 25.484375 6.203125 34.421875 6.203125 
Q 39.59375 6.203125 44.453125 7.46875 
Q 49.3125 8.734375 54.109375 11.28125 
L 54.109375 2.78125 
Q 49.265625 0.734375 44.1875 -0.34375 
Q 39.109375 -1.421875 33.890625 -1.421875 
Q 20.796875 -1.421875 13.15625 6.1875 
Q 5.515625 13.8125 5.515625 26.8125 
Q 5.515625 40.234375 12.765625 48.109375 
Q 20.015625 56 32.328125 56 
Q 43.359375 56 49.78125 48.890625 
Q 56.203125 41.796875 56.203125 29.59375 
z
M 47.21875 32.234375 
Q 47.125 39.59375 43.09375 43.984375 
Q 39.0625 48.390625 32.421875 48.390625 
Q 24.90625 48.390625 20.390625 44.140625 
Q 15.875 39.890625 15.1875 32.171875 
z
" id="DejaVuSans-65"/>
     <path d="M 32.171875 -5.078125 
Q 28.375 -14.84375 24.75 -17.8125 
Q 21.140625 -20.796875 15.09375 -20.796875 
L 7.90625 -20.796875 
L 7.90625 -13.28125 
L 13.1875 -13.28125 
Q 16.890625 -13.28125 18.9375 -11.515625 
Q 21 -9.765625 23.484375 -3.21875 
L 25.09375 0.875 
L 2.984375 54.6875 
L 12.5 54.6875 
L 29.59375 11.921875 
L 46.6875 54.6875 
L 56.203125 54.6875 
z
" id="DejaVuSans-79"/>
    </defs>
    <g transform="translate(115.666875 35.472)scale(0.12 -0.12)">
     <use xlink:href="#DejaVuSans-50"/>
     <use x="60.302734" xlink:href="#DejaVuSans-6c"/>
     <use x="88.085938" xlink:href="#DejaVuSans-6f"/>
     <use x="149.267578" xlink:href="#DejaVuSans-74"/>
     <use x="188.476562" xlink:href="#DejaVuSans-20"/>
     <use x="220.263672" xlink:href="#DejaVuSans-6f"/>
     <use x="281.445312" xlink:href="#DejaVuSans-66"/>
     <use x="316.650391" xlink:href="#DejaVuSans-20"/>
     <use x="348.4375" xlink:href="#DejaVuSans-54"/>
     <use x="409.302734" xlink:href="#DejaVuSans-72"/>
     <use x="450.416016" xlink:href="#DejaVuSans-61"/>
     <use x="511.695312" xlink:href="#DejaVuSans-69"/>
     <use x="539.478516" xlink:href="#DejaVuSans-6e"/>
     <use x="602.857422" xlink:href="#DejaVuSans-20"/>
     <use x="634.644531" xlink:href="#DejaVuSans-44"/>
     <use x="711.646484" xlink:href="#DejaVuSans-61"/>
     <use x="772.925781" xlink:href="#DejaVuSans-74"/>
     <use x="812.134766" xlink:href="#DejaVuSans-61"/>
     <use x="873.414062" xlink:href="#DejaVuSans-20"/>
     <use x="905.201172" xlink:href="#DejaVuSans-76"/>
     <use x="964.380859" xlink:href="#DejaVuSans-73"/>
     <use x="1016.480469" xlink:href="#DejaVuSans-20"/>
     <use x="1048.267578" xlink:href="#DejaVuSans-4d"/>
     <use x="1134.546875" xlink:href="#DejaVuSans-43"/>
     <use x="1204.371094" xlink:href="#DejaVuSans-4d"/>
     <use x="1290.650391" xlink:href="#DejaVuSans-43"/>
     <use x="1360.474609" xlink:href="#DejaVuSans-20"/>
     <use x="1392.261719" xlink:href="#DejaVuSans-55"/>
     <use x="1465.455078" xlink:href="#DejaVuSans-6e"/>
     <use x="1528.833984" xlink:href="#DejaVuSans-63"/>
     <use x="1583.814453" xlink:href="#DejaVuSans-65"/>
     <use x="1645.337891" xlink:href="#DejaVuSans-72"/>
     <use x="1686.451172" xlink:href="#DejaVuSans-74"/>
     <use x="1725.660156" xlink:href="#DejaVuSans-61"/>
     <use x="1786.939453" xlink:href="#DejaVuSans-69"/>
     <use x="1814.722656" xlink:href="#DejaVuSans-6e"/>
     <use x="1878.101562" xlink:href="#DejaVuSans-74"/>
     <use x="1917.310547" xlink:href="#DejaVuSans-79"/>
     <use x="1976.490234" xlink:href="#DejaVuSans-20"/>
    </g>
   </g>
   <g id="legend_1">
    <g id="patch_7">
     <path d="M 277.843437 108.1845 
L 407.72 108.1845 
Q 409.72 108.1845 409.72 106.1845 
L 409.72 48.472 
Q 409.72 46.472 407.72 46.472 
L 277.843437 46.472 
Q 275.843437 46.472 275.843437 48.472 
L 275.843437 106.1845 
Q 275.843437 108.1845 277.843437 108.1845 
z
" style="fill:#ffffff;opacity:0.8;stroke:#cccccc;stroke-linejoin:miter;"/>
    </g>
    <g id="line2d_17">
     <path d="M 279.843437 54.570438 
L 299.843437 54.570438 
" style="fill:none;stroke:#1f77b4;stroke-linecap:square;stroke-width:1.5;"/>
    </g>
    <g id="line2d_18"/>
    <g id="text_14">
     <!-- actual -->
     <defs>
      <path d="M 8.5 21.578125 
L 8.5 54.6875 
L 17.484375 54.6875 
L 17.484375 21.921875 
Q 17.484375 14.15625 20.5 10.265625 
Q 23.53125 6.390625 29.59375 6.390625 
Q 36.859375 6.390625 41.078125 11.03125 
Q 45.3125 15.671875 45.3125 23.6875 
L 45.3125 54.6875 
L 54.296875 54.6875 
L 54.296875 0 
L 45.3125 0 
L 45.3125 8.40625 
Q 42.046875 3.421875 37.71875 1 
Q 33.40625 -1.421875 27.6875 -1.421875 
Q 18.265625 -1.421875 13.375 4.4375 
Q 8.5 10.296875 8.5 21.578125 
z
M 31.109375 56 
z
" id="DejaVuSans-75"/>
     </defs>
     <g transform="translate(307.843437 58.070438)scale(0.1 -0.1)">
      <use xlink:href="#DejaVuSans-61"/>
      <use x="61.279297" xlink:href="#DejaVuSans-63"/>
      <use x="116.259766" xlink:href="#DejaVuSans-74"/>
      <use x="155.46875" xlink:href="#DejaVuSans-75"/>
      <use x="218.847656" xlink:href="#DejaVuSans-61"/>
      <use x="280.126953" xlink:href="#DejaVuSans-6c"/>
     </g>
    </g>
    <g id="line2d_19">
     <path d="M 279.843437 69.248563 
L 299.843437 69.248563 
" style="fill:none;stroke:#ff7f0e;stroke-linecap:square;stroke-width:1.5;"/>
    </g>
    <g id="line2d_20"/>
    <g id="text_15">
     <!-- pred. (mean) -->
     <defs>
      <path d="M 18.109375 8.203125 
L 18.109375 -20.796875 
L 9.078125 -20.796875 
L 9.078125 54.6875 
L 18.109375 54.6875 
L 18.109375 46.390625 
Q 20.953125 51.265625 25.265625 53.625 
Q 29.59375 56 35.59375 56 
Q 45.5625 56 51.78125 48.09375 
Q 58.015625 40.1875 58.015625 27.296875 
Q 58.015625 14.40625 51.78125 6.484375 
Q 45.5625 -1.421875 35.59375 -1.421875 
Q 29.59375 -1.421875 25.265625 0.953125 
Q 20.953125 3.328125 18.109375 8.203125 
z
M 48.6875 27.296875 
Q 48.6875 37.203125 44.609375 42.84375 
Q 40.53125 48.484375 33.40625 48.484375 
Q 26.265625 48.484375 22.1875 42.84375 
Q 18.109375 37.203125 18.109375 27.296875 
Q 18.109375 17.390625 22.1875 11.75 
Q 26.265625 6.109375 33.40625 6.109375 
Q 40.53125 6.109375 44.609375 11.75 
Q 48.6875 17.390625 48.6875 27.296875 
z
" id="DejaVuSans-70"/>
      <path d="M 45.40625 46.390625 
L 45.40625 75.984375 
L 54.390625 75.984375 
L 54.390625 0 
L 45.40625 0 
L 45.40625 8.203125 
Q 42.578125 3.328125 38.25 0.953125 
Q 33.9375 -1.421875 27.875 -1.421875 
Q 17.96875 -1.421875 11.734375 6.484375 
Q 5.515625 14.40625 5.515625 27.296875 
Q 5.515625 40.1875 11.734375 48.09375 
Q 17.96875 56 27.875 56 
Q 33.9375 56 38.25 53.625 
Q 42.578125 51.265625 45.40625 46.390625 
z
M 14.796875 27.296875 
Q 14.796875 17.390625 18.875 11.75 
Q 22.953125 6.109375 30.078125 6.109375 
Q 37.203125 6.109375 41.296875 11.75 
Q 45.40625 17.390625 45.40625 27.296875 
Q 45.40625 37.203125 41.296875 42.84375 
Q 37.203125 48.484375 30.078125 48.484375 
Q 22.953125 48.484375 18.875 42.84375 
Q 14.796875 37.203125 14.796875 27.296875 
z
" id="DejaVuSans-64"/>
      <path d="M 31 75.875 
Q 24.46875 64.65625 21.28125 53.65625 
Q 18.109375 42.671875 18.109375 31.390625 
Q 18.109375 20.125 21.3125 9.0625 
Q 24.515625 -2 31 -13.1875 
L 23.1875 -13.1875 
Q 15.875 -1.703125 12.234375 9.375 
Q 8.59375 20.453125 8.59375 31.390625 
Q 8.59375 42.28125 12.203125 53.3125 
Q 15.828125 64.359375 23.1875 75.875 
z
" id="DejaVuSans-28"/>
      <path d="M 52 44.1875 
Q 55.375 50.25 60.0625 53.125 
Q 64.75 56 71.09375 56 
Q 79.640625 56 84.28125 50.015625 
Q 88.921875 44.046875 88.921875 33.015625 
L 88.921875 0 
L 79.890625 0 
L 79.890625 32.71875 
Q 79.890625 40.578125 77.09375 44.375 
Q 74.3125 48.1875 68.609375 48.1875 
Q 61.625 48.1875 57.5625 43.546875 
Q 53.515625 38.921875 53.515625 30.90625 
L 53.515625 0 
L 44.484375 0 
L 44.484375 32.71875 
Q 44.484375 40.625 41.703125 44.40625 
Q 38.921875 48.1875 33.109375 48.1875 
Q 26.21875 48.1875 22.15625 43.53125 
Q 18.109375 38.875 18.109375 30.90625 
L 18.109375 0 
L 9.078125 0 
L 9.078125 54.6875 
L 18.109375 54.6875 
L 18.109375 46.1875 
Q 21.1875 51.21875 25.484375 53.609375 
Q 29.78125 56 35.6875 56 
Q 41.65625 56 45.828125 52.96875 
Q 50 49.953125 52 44.1875 
z
" id="DejaVuSans-6d"/>
      <path d="M 8.015625 75.875 
L 15.828125 75.875 
Q 23.140625 64.359375 26.78125 53.3125 
Q 30.421875 42.28125 30.421875 31.390625 
Q 30.421875 20.453125 26.78125 9.375 
Q 23.140625 -1.703125 15.828125 -13.1875 
L 8.015625 -13.1875 
Q 14.5 -2 17.703125 9.0625 
Q 20.90625 20.125 20.90625 31.390625 
Q 20.90625 42.671875 17.703125 53.65625 
Q 14.5 64.65625 8.015625 75.875 
z
" id="DejaVuSans-29"/>
     </defs>
     <g transform="translate(307.843437 72.748563)scale(0.1 -0.1)">
      <use xlink:href="#DejaVuSans-70"/>
      <use x="63.476562" xlink:href="#DejaVuSans-72"/>
      <use x="104.558594" xlink:href="#DejaVuSans-65"/>
      <use x="166.082031" xlink:href="#DejaVuSans-64"/>
      <use x="229.558594" xlink:href="#DejaVuSans-2e"/>
      <use x="261.345703" xlink:href="#DejaVuSans-20"/>
      <use x="293.132812" xlink:href="#DejaVuSans-28"/>
      <use x="332.146484" xlink:href="#DejaVuSans-6d"/>
      <use x="429.558594" xlink:href="#DejaVuSans-65"/>
      <use x="491.082031" xlink:href="#DejaVuSans-61"/>
      <use x="552.361328" xlink:href="#DejaVuSans-6e"/>
      <use x="615.740234" xlink:href="#DejaVuSans-29"/>
     </g>
    </g>
    <g id="line2d_21">
     <path d="M 279.843437 83.926688 
L 299.843437 83.926688 
" style="fill:none;stroke:#2ca02c;stroke-linecap:square;stroke-width:1.5;"/>
    </g>
    <g id="line2d_22"/>
    <g id="text_16">
     <!-- pred.(5th percen.) -->
     <defs>
      <path d="M 10.796875 72.90625 
L 49.515625 72.90625 
L 49.515625 64.59375 
L 19.828125 64.59375 
L 19.828125 46.734375 
Q 21.96875 47.46875 24.109375 47.828125 
Q 26.265625 48.1875 28.421875 48.1875 
Q 40.625 48.1875 47.75 41.5 
Q 54.890625 34.8125 54.890625 23.390625 
Q 54.890625 11.625 47.5625 5.09375 
Q 40.234375 -1.421875 26.90625 -1.421875 
Q 22.3125 -1.421875 17.546875 -0.640625 
Q 12.796875 0.140625 7.71875 1.703125 
L 7.71875 11.625 
Q 12.109375 9.234375 16.796875 8.0625 
Q 21.484375 6.890625 26.703125 6.890625 
Q 35.15625 6.890625 40.078125 11.328125 
Q 45.015625 15.765625 45.015625 23.390625 
Q 45.015625 31 40.078125 35.4375 
Q 35.15625 39.890625 26.703125 39.890625 
Q 22.75 39.890625 18.8125 39.015625 
Q 14.890625 38.140625 10.796875 36.28125 
z
" id="DejaVuSans-35"/>
      <path d="M 54.890625 33.015625 
L 54.890625 0 
L 45.90625 0 
L 45.90625 32.71875 
Q 45.90625 40.484375 42.875 44.328125 
Q 39.84375 48.1875 33.796875 48.1875 
Q 26.515625 48.1875 22.3125 43.546875 
Q 18.109375 38.921875 18.109375 30.90625 
L 18.109375 0 
L 9.078125 0 
L 9.078125 75.984375 
L 18.109375 75.984375 
L 18.109375 46.1875 
Q 21.34375 51.125 25.703125 53.5625 
Q 30.078125 56 35.796875 56 
Q 45.21875 56 50.046875 50.171875 
Q 54.890625 44.34375 54.890625 33.015625 
z
" id="DejaVuSans-68"/>
     </defs>
     <g transform="translate(307.843437 87.426688)scale(0.1 -0.1)">
      <use xlink:href="#DejaVuSans-70"/>
      <use x="63.476562" xlink:href="#DejaVuSans-72"/>
      <use x="104.558594" xlink:href="#DejaVuSans-65"/>
      <use x="166.082031" xlink:href="#DejaVuSans-64"/>
      <use x="229.558594" xlink:href="#DejaVuSans-2e"/>
      <use x="261.345703" xlink:href="#DejaVuSans-28"/>
      <use x="300.359375" xlink:href="#DejaVuSans-35"/>
      <use x="363.982422" xlink:href="#DejaVuSans-74"/>
      <use x="403.191406" xlink:href="#DejaVuSans-68"/>
      <use x="466.570312" xlink:href="#DejaVuSans-20"/>
      <use x="498.357422" xlink:href="#DejaVuSans-70"/>
      <use x="561.833984" xlink:href="#DejaVuSans-65"/>
      <use x="623.357422" xlink:href="#DejaVuSans-72"/>
      <use x="664.439453" xlink:href="#DejaVuSans-63"/>
      <use x="719.419922" xlink:href="#DejaVuSans-65"/>
      <use x="780.943359" xlink:href="#DejaVuSans-6e"/>
      <use x="844.322266" xlink:href="#DejaVuSans-2e"/>
      <use x="876.109375" xlink:href="#DejaVuSans-29"/>
     </g>
    </g>
    <g id="line2d_23">
     <path d="M 279.843437 98.604813 
L 299.843437 98.604813 
" style="fill:none;stroke:#d62728;stroke-linecap:square;stroke-width:1.5;"/>
    </g>
    <g id="line2d_24"/>
    <g id="text_17">
     <!-- pred.(95th percen.) -->
     <defs>
      <path d="M 10.984375 1.515625 
L 10.984375 10.5 
Q 14.703125 8.734375 18.5 7.8125 
Q 22.3125 6.890625 25.984375 6.890625 
Q 35.75 6.890625 40.890625 13.453125 
Q 46.046875 20.015625 46.78125 33.40625 
Q 43.953125 29.203125 39.59375 26.953125 
Q 35.25 24.703125 29.984375 24.703125 
Q 19.046875 24.703125 12.671875 31.3125 
Q 6.296875 37.9375 6.296875 49.421875 
Q 6.296875 60.640625 12.9375 67.421875 
Q 19.578125 74.21875 30.609375 74.21875 
Q 43.265625 74.21875 49.921875 64.515625 
Q 56.59375 54.828125 56.59375 36.375 
Q 56.59375 19.140625 48.40625 8.859375 
Q 40.234375 -1.421875 26.421875 -1.421875 
Q 22.703125 -1.421875 18.890625 -0.6875 
Q 15.09375 0.046875 10.984375 1.515625 
z
M 30.609375 32.421875 
Q 37.25 32.421875 41.125 36.953125 
Q 45.015625 41.5 45.015625 49.421875 
Q 45.015625 57.28125 41.125 61.84375 
Q 37.25 66.40625 30.609375 66.40625 
Q 23.96875 66.40625 20.09375 61.84375 
Q 16.21875 57.28125 16.21875 49.421875 
Q 16.21875 41.5 20.09375 36.953125 
Q 23.96875 32.421875 30.609375 32.421875 
z
" id="DejaVuSans-39"/>
     </defs>
     <g transform="translate(307.843437 102.104813)scale(0.1 -0.1)">
      <use xlink:href="#DejaVuSans-70"/>
      <use x="63.476562" xlink:href="#DejaVuSans-72"/>
      <use x="104.558594" xlink:href="#DejaVuSans-65"/>
      <use x="166.082031" xlink:href="#DejaVuSans-64"/>
      <use x="229.558594" xlink:href="#DejaVuSans-2e"/>
      <use x="261.345703" xlink:href="#DejaVuSans-28"/>
      <use x="300.359375" xlink:href="#DejaVuSans-39"/>
      <use x="363.982422" xlink:href="#DejaVuSans-35"/>
      <use x="427.605469" xlink:href="#DejaVuSans-74"/>
      <use x="466.814453" xlink:href="#DejaVuSans-68"/>
      <use x="530.193359" xlink:href="#DejaVuSans-20"/>
      <use x="561.980469" xlink:href="#DejaVuSans-70"/>
      <use x="625.457031" xlink:href="#DejaVuSans-65"/>
      <use x="686.980469" xlink:href="#DejaVuSans-72"/>
      <use x="728.0625" xlink:href="#DejaVuSans-63"/>
      <use x="783.042969" xlink:href="#DejaVuSans-65"/>
      <use x="844.566406" xlink:href="#DejaVuSans-6e"/>
      <use x="907.945312" xlink:href="#DejaVuSans-2e"/>
      <use x="939.732422" xlink:href="#DejaVuSans-29"/>
     </g>
    </g>
   </g>
  </g>
 </g>
 <defs>
  <clipPath id="pb23d683f44">
   <rect height="266.112" width="357.12" x="57.6" y="41.472"/>
  </clipPath>
 </defs>
</svg>
