<?xml version="1.0" encoding="utf-8" standalone="no"?>
<!DOCTYPE svg PUBLIC "-//W3C//DTD SVG 1.1//EN"
  "http://www.w3.org/Graphics/SVG/1.1/DTD/svg11.dtd">
<!-- Created with matplotlib (http://matplotlib.org/) -->
<svg height="864pt" version="1.1" viewBox="0 0 720 864" width="720pt" xmlns="http://www.w3.org/2000/svg" xmlns:xlink="http://www.w3.org/1999/xlink">
 <defs>
  <style type="text/css">
*{stroke-linecap:butt;stroke-linejoin:round;}
  </style>
 </defs>
 <g id="figure_1">
  <g id="patch_1">
   <path d="M 0 864 
L 720 864 
L 720 0 
L 0 0 
z
" style="fill:#ffffff;"/>
  </g>
  <g id="axes_1">
   <g id="patch_2">
    <path d="M 56.09 822.04 
L 706.68 822.04 
L 706.68 103.68 
L 56.09 103.68 
z
" style="fill:#ffffff;"/>
   </g>
   <g id="PolyCollection_1">
    <path clip-path="url(#p1765938ffe)" d="M 85.662273 564.916746 
L 85.662273 739.067644 
L 87.653672 745.765755 
L 89.64507 745.765755 
L 91.636469 745.765755 
L 93.627868 739.067644 
L 95.619267 732.369532 
L 97.610666 732.369532 
L 99.602065 718.973309 
L 101.593463 705.577086 
L 103.584862 685.482752 
L 105.576261 645.294083 
L 107.56766 591.709192 
L 109.559059 544.822412 
L 111.550458 531.426189 
L 113.541856 524.728078 
L 115.533255 518.029966 
L 117.524654 518.029966 
L 119.516053 511.331855 
L 121.507452 511.331855 
L 123.498851 511.331855 
L 125.490249 504.633743 
L 127.481648 511.331855 
L 129.473047 504.633743 
L 131.464446 511.331855 
L 133.455845 511.331855 
L 135.447244 511.331855 
L 137.438642 511.331855 
L 139.430041 511.331855 
L 141.42144 518.029966 
L 143.412839 518.029966 
L 145.404238 518.029966 
L 147.395637 524.728078 
L 149.387036 524.728078 
L 151.378434 531.426189 
L 153.369833 531.426189 
L 155.361232 524.728078 
L 157.352631 531.426189 
L 159.34403 531.426189 
L 161.335429 531.426189 
L 163.326827 531.426189 
L 165.318226 538.1243 
L 167.309625 544.822412 
L 169.301024 564.916746 
L 171.292423 591.709192 
L 173.283822 598.407303 
L 175.27522 611.803526 
L 177.266619 638.595972 
L 179.258018 651.992195 
L 181.249417 658.690306 
L 183.240816 665.388418 
L 185.232215 685.482752 
L 187.223613 698.878975 
L 189.215012 698.878975 
L 191.206411 698.878975 
L 193.19781 705.577086 
L 195.189209 712.275198 
L 197.180608 718.973309 
L 199.172006 718.973309 
L 201.163405 732.369532 
L 203.154804 739.067644 
L 205.146203 739.067644 
L 207.137602 732.369532 
L 209.129001 732.369532 
L 211.120399 732.369532 
L 213.111798 732.369532 
L 215.103197 725.671421 
L 217.094596 718.973309 
L 219.085995 712.275198 
L 221.077394 692.180863 
L 223.068792 685.482752 
L 225.060191 672.086529 
L 227.05159 658.690306 
L 229.042989 638.595972 
L 231.034388 625.199749 
L 233.025787 611.803526 
L 235.017185 598.407303 
L 237.008584 564.916746 
L 238.999983 551.520523 
L 240.991382 544.822412 
L 242.982781 544.822412 
L 244.97418 544.822412 
L 246.965579 538.1243 
L 248.956977 531.426189 
L 250.948376 524.728078 
L 252.939775 518.029966 
L 254.931174 511.331855 
L 256.922573 511.331855 
L 258.913972 511.331855 
L 260.90537 511.331855 
L 262.896769 511.331855 
L 264.888168 511.331855 
L 266.879567 511.331855 
L 268.870966 511.331855 
L 270.862365 511.331855 
L 272.853763 518.029966 
L 274.845162 518.029966 
L 276.836561 524.728078 
L 278.82796 531.426189 
L 280.819359 531.426189 
L 282.810758 531.426189 
L 284.802156 538.1243 
L 286.793555 538.1243 
L 288.784954 538.1243 
L 290.776353 538.1243 
L 292.767752 544.822412 
L 294.759151 544.822412 
L 296.750549 544.822412 
L 298.741948 544.822412 
L 300.733347 544.822412 
L 302.724746 551.520523 
L 304.716145 551.520523 
L 306.707544 558.218635 
L 308.698942 564.916746 
L 310.690341 571.614858 
L 312.68174 591.709192 
L 314.673139 611.803526 
L 316.664538 618.501638 
L 318.655937 625.199749 
L 320.647335 625.199749 
L 322.638734 645.294083 
L 324.630133 658.690306 
L 326.621532 672.086529 
L 328.612931 685.482752 
L 330.60433 698.878975 
L 332.595728 712.275198 
L 334.587127 712.275198 
L 336.578526 712.275198 
L 338.569925 718.973309 
L 340.561324 725.671421 
L 342.552723 732.369532 
L 344.544122 739.067644 
L 346.53552 745.765755 
L 348.526919 745.765755 
L 350.518318 752.463866 
L 352.509717 752.463866 
L 354.501116 752.463866 
L 356.492515 752.463866 
L 358.483913 745.765755 
L 360.475312 745.765755 
L 362.466711 745.765755 
L 364.45811 739.067644 
L 366.449509 732.369532 
L 368.440908 725.671421 
L 370.432306 712.275198 
L 372.423705 698.878975 
L 374.415104 678.784641 
L 376.406503 665.388418 
L 378.397902 645.294083 
L 380.389301 618.501638 
L 382.380699 585.01108 
L 384.372098 558.218635 
L 386.363497 544.822412 
L 388.354896 538.1243 
L 390.346295 531.426189 
L 392.337694 524.728078 
L 394.329092 524.728078 
L 396.320491 524.728078 
L 398.31189 524.728078 
L 400.303289 524.728078 
L 402.294688 524.728078 
L 404.286087 524.728078 
L 406.277485 524.728078 
L 408.268884 524.728078 
L 410.260283 524.728078 
L 412.251682 524.728078 
L 414.243081 524.728078 
L 416.23448 531.426189 
L 418.225878 531.426189 
L 420.217277 531.426189 
L 422.208676 538.1243 
L 424.200075 538.1243 
L 426.191474 544.822412 
L 428.182873 544.822412 
L 430.174272 551.520523 
L 432.16567 558.218635 
L 434.157069 558.218635 
L 436.148468 571.614858 
L 438.139867 598.407303 
L 440.131266 618.501638 
L 442.122665 625.199749 
L 444.114063 625.199749 
L 446.105462 625.199749 
L 448.096861 625.199749 
L 450.08826 618.501638 
L 452.079659 611.803526 
L 454.071058 611.803526 
L 456.062456 618.501638 
L 458.053855 631.897861 
L 460.045254 638.595972 
L 462.036653 651.992195 
L 464.028052 665.388418 
L 466.019451 678.784641 
L 468.010849 685.482752 
L 470.002248 692.180863 
L 471.993647 705.577086 
L 473.985046 712.275198 
L 475.976445 718.973309 
L 477.967844 725.671421 
L 479.959242 732.369532 
L 481.950641 739.067644 
L 483.94204 745.765755 
L 485.933439 745.765755 
L 487.924838 745.765755 
L 489.916237 745.765755 
L 491.907635 739.067644 
L 493.899034 732.369532 
L 495.890433 725.671421 
L 497.881832 712.275198 
L 499.873231 692.180863 
L 501.86463 672.086529 
L 503.856028 638.595972 
L 505.847427 611.803526 
L 507.838826 578.312969 
L 509.830225 544.822412 
L 511.821624 538.1243 
L 513.813023 538.1243 
L 515.804421 531.426189 
L 517.79582 524.728078 
L 519.787219 518.029966 
L 521.778618 511.331855 
L 523.770017 511.331855 
L 525.761416 511.331855 
L 527.752815 511.331855 
L 529.744213 511.331855 
L 531.735612 511.331855 
L 533.727011 511.331855 
L 535.71841 511.331855 
L 537.709809 511.331855 
L 539.701208 518.029966 
L 541.692606 518.029966 
L 543.684005 518.029966 
L 545.675404 518.029966 
L 547.666803 518.029966 
L 549.658202 518.029966 
L 551.649601 518.029966 
L 553.640999 518.029966 
L 555.632398 524.728078 
L 557.623797 524.728078 
L 559.615196 531.426189 
L 561.606595 538.1243 
L 563.597994 544.822412 
L 565.589392 578.312969 
L 567.580791 585.01108 
L 569.57219 591.709192 
L 571.563589 598.407303 
L 573.554988 618.501638 
L 575.546387 645.294083 
L 577.537785 658.690306 
L 579.529184 678.784641 
L 581.520583 698.878975 
L 583.511982 712.275198 
L 585.503381 718.973309 
L 587.49478 725.671421 
L 589.486178 725.671421 
L 591.477577 732.369532 
L 593.468976 732.369532 
L 595.460375 732.369532 
L 597.451774 732.369532 
L 599.443173 739.067644 
L 601.434571 739.067644 
L 603.42597 732.369532 
L 605.417369 732.369532 
L 607.408768 732.369532 
L 609.400167 732.369532 
L 611.391566 739.067644 
L 613.382964 739.067644 
L 615.374363 745.765755 
L 617.365762 745.765755 
L 619.357161 745.765755 
L 621.34856 752.463866 
L 623.339959 752.463866 
L 625.331358 752.463866 
L 627.322756 752.463866 
L 629.314155 752.463866 
L 631.305554 745.765755 
L 633.296953 745.765755 
L 635.288352 739.067644 
L 637.279751 732.369532 
L 639.271149 725.671421 
L 641.262548 712.275198 
L 643.253947 698.878975 
L 645.245346 678.784641 
L 647.236745 672.086529 
L 649.228144 651.992195 
L 651.219542 631.897861 
L 653.210941 605.105415 
L 655.20234 598.407303 
L 657.193739 585.01108 
L 659.185138 571.614858 
L 661.176537 558.218635 
L 663.167935 551.520523 
L 665.159334 558.218635 
L 667.150733 558.218635 
L 669.142132 551.520523 
L 671.133531 551.520523 
L 673.12493 564.916746 
L 675.116328 571.614858 
L 677.107727 558.218635 
L 677.107727 518.029966 
L 677.107727 518.029966 
L 675.116328 518.029966 
L 673.12493 511.331855 
L 671.133531 511.331855 
L 669.142132 511.331855 
L 667.150733 511.331855 
L 665.159334 504.633743 
L 663.167935 504.633743 
L 661.176537 511.331855 
L 659.185138 518.029966 
L 657.193739 524.728078 
L 655.20234 524.728078 
L 653.210941 531.426189 
L 651.219542 531.426189 
L 649.228144 538.1243 
L 647.236745 544.822412 
L 645.245346 544.822412 
L 643.253947 551.520523 
L 641.262548 558.218635 
L 639.271149 558.218635 
L 637.279751 558.218635 
L 635.288352 564.916746 
L 633.296953 564.916746 
L 631.305554 564.916746 
L 629.314155 564.916746 
L 627.322756 564.916746 
L 625.331358 564.916746 
L 623.339959 564.916746 
L 621.34856 564.916746 
L 619.357161 564.916746 
L 617.365762 564.916746 
L 615.374363 564.916746 
L 613.382964 564.916746 
L 611.391566 558.218635 
L 609.400167 558.218635 
L 607.408768 558.218635 
L 605.417369 558.218635 
L 603.42597 558.218635 
L 601.434571 558.218635 
L 599.443173 558.218635 
L 597.451774 558.218635 
L 595.460375 558.218635 
L 593.468976 558.218635 
L 591.477577 558.218635 
L 589.486178 558.218635 
L 587.49478 558.218635 
L 585.503381 558.218635 
L 583.511982 551.520523 
L 581.520583 551.520523 
L 579.529184 544.822412 
L 577.537785 538.1243 
L 575.546387 538.1243 
L 573.554988 531.426189 
L 571.563589 524.728078 
L 569.57219 524.728078 
L 567.580791 524.728078 
L 565.589392 511.331855 
L 563.597994 491.23752 
L 561.606595 457.746963 
L 559.615196 410.860183 
L 557.623797 377.369626 
L 555.632398 337.180957 
L 553.640999 317.086623 
L 551.649601 310.388511 
L 549.658202 310.388511 
L 547.666803 317.086623 
L 545.675404 323.784734 
L 543.684005 323.784734 
L 541.692606 303.6904 
L 539.701208 283.596066 
L 537.709809 276.897954 
L 535.71841 256.80362 
L 533.727011 243.407397 
L 531.735612 230.011174 
L 529.744213 223.313063 
L 527.752815 216.614951 
L 525.761416 216.614951 
L 523.770017 236.709286 
L 521.778618 263.501731 
L 519.787219 290.294177 
L 517.79582 323.784734 
L 515.804421 410.860183 
L 513.813023 451.048852 
L 511.821624 464.445075 
L 509.830225 484.539409 
L 507.838826 511.331855 
L 505.847427 531.426189 
L 503.856028 538.1243 
L 501.86463 544.822412 
L 499.873231 551.520523 
L 497.881832 551.520523 
L 495.890433 558.218635 
L 493.899034 558.218635 
L 491.907635 564.916746 
L 489.916237 564.916746 
L 487.924838 564.916746 
L 485.933439 564.916746 
L 483.94204 564.916746 
L 481.950641 558.218635 
L 479.959242 558.218635 
L 477.967844 558.218635 
L 475.976445 558.218635 
L 473.985046 551.520523 
L 471.993647 551.520523 
L 470.002248 551.520523 
L 468.010849 544.822412 
L 466.019451 544.822412 
L 464.028052 544.822412 
L 462.036653 538.1243 
L 460.045254 538.1243 
L 458.053855 531.426189 
L 456.062456 531.426189 
L 454.071058 531.426189 
L 452.079659 531.426189 
L 450.08826 531.426189 
L 448.096861 531.426189 
L 446.105462 531.426189 
L 444.114063 531.426189 
L 442.122665 531.426189 
L 440.131266 531.426189 
L 438.139867 524.728078 
L 436.148468 518.029966 
L 434.157069 511.331855 
L 432.16567 511.331855 
L 430.174272 504.633743 
L 428.182873 491.23752 
L 426.191474 477.841297 
L 424.200075 471.143186 
L 422.208676 451.048852 
L 420.217277 424.256406 
L 418.225878 410.860183 
L 416.23448 390.765849 
L 414.243081 370.671514 
L 412.251682 350.57718 
L 410.260283 343.879069 
L 408.268884 343.879069 
L 406.277485 337.180957 
L 404.286087 330.482846 
L 402.294688 330.482846 
L 400.303289 337.180957 
L 398.31189 343.879069 
L 396.320491 343.879069 
L 394.329092 343.879069 
L 392.337694 363.973403 
L 390.346295 390.765849 
L 388.354896 424.256406 
L 386.363497 471.143186 
L 384.372098 504.633743 
L 382.380699 524.728078 
L 380.389301 531.426189 
L 378.397902 538.1243 
L 376.406503 538.1243 
L 374.415104 544.822412 
L 372.423705 551.520523 
L 370.432306 551.520523 
L 368.440908 558.218635 
L 366.449509 558.218635 
L 364.45811 564.916746 
L 362.466711 564.916746 
L 360.475312 564.916746 
L 358.483913 564.916746 
L 356.492515 564.916746 
L 354.501116 564.916746 
L 352.509717 564.916746 
L 350.518318 564.916746 
L 348.526919 564.916746 
L 346.53552 564.916746 
L 344.544122 558.218635 
L 342.552723 558.218635 
L 340.561324 558.218635 
L 338.569925 558.218635 
L 336.578526 558.218635 
L 334.587127 551.520523 
L 332.595728 551.520523 
L 330.60433 551.520523 
L 328.612931 544.822412 
L 326.621532 544.822412 
L 324.630133 538.1243 
L 322.638734 538.1243 
L 320.647335 531.426189 
L 318.655937 531.426189 
L 316.664538 531.426189 
L 314.673139 531.426189 
L 312.68174 524.728078 
L 310.690341 518.029966 
L 308.698942 518.029966 
L 306.707544 511.331855 
L 304.716145 504.633743 
L 302.724746 504.633743 
L 300.733347 497.935632 
L 298.741948 491.23752 
L 296.750549 491.23752 
L 294.759151 477.841297 
L 292.767752 477.841297 
L 290.776353 477.841297 
L 288.784954 477.841297 
L 286.793555 464.445075 
L 284.802156 444.35074 
L 282.810758 430.954517 
L 280.819359 410.860183 
L 278.82796 384.067737 
L 276.836561 350.57718 
L 274.845162 317.086623 
L 272.853763 296.992289 
L 270.862365 276.897954 
L 268.870966 256.80362 
L 266.879567 250.105509 
L 264.888168 243.407397 
L 262.896769 250.105509 
L 260.90537 250.105509 
L 258.913972 236.709286 
L 256.922573 243.407397 
L 254.931174 263.501731 
L 252.939775 283.596066 
L 250.948376 317.086623 
L 248.956977 370.671514 
L 246.965579 451.048852 
L 244.97418 491.23752 
L 242.982781 497.935632 
L 240.991382 497.935632 
L 238.999983 504.633743 
L 237.008584 511.331855 
L 235.017185 524.728078 
L 233.025787 531.426189 
L 231.034388 531.426189 
L 229.042989 538.1243 
L 227.05159 538.1243 
L 225.060191 544.822412 
L 223.068792 544.822412 
L 221.077394 551.520523 
L 219.085995 551.520523 
L 217.094596 558.218635 
L 215.103197 558.218635 
L 213.111798 558.218635 
L 211.120399 558.218635 
L 209.129001 558.218635 
L 207.137602 558.218635 
L 205.146203 558.218635 
L 203.154804 558.218635 
L 201.163405 558.218635 
L 199.172006 558.218635 
L 197.180608 558.218635 
L 195.189209 551.520523 
L 193.19781 551.520523 
L 191.206411 551.520523 
L 189.215012 551.520523 
L 187.223613 551.520523 
L 185.232215 544.822412 
L 183.240816 544.822412 
L 181.249417 538.1243 
L 179.258018 538.1243 
L 177.266619 531.426189 
L 175.27522 531.426189 
L 173.283822 524.728078 
L 171.292423 518.029966 
L 169.301024 504.633743 
L 167.309625 484.539409 
L 165.318226 457.746963 
L 163.326827 410.860183 
L 161.335429 397.46396 
L 159.34403 397.46396 
L 157.352631 390.765849 
L 155.361232 377.369626 
L 153.369833 370.671514 
L 151.378434 397.46396 
L 149.387036 377.369626 
L 147.395637 337.180957 
L 145.404238 317.086623 
L 143.412839 296.992289 
L 141.42144 283.596066 
L 139.430041 263.501731 
L 137.438642 250.105509 
L 135.447244 243.407397 
L 133.455845 236.709286 
L 131.464446 223.313063 
L 129.473047 209.91684 
L 127.481648 209.91684 
L 125.490249 216.614951 
L 123.498851 223.313063 
L 121.507452 223.313063 
L 119.516053 256.80362 
L 117.524654 290.294177 
L 115.533255 303.6904 
L 113.541856 330.482846 
L 111.550458 390.765849 
L 109.559059 464.445075 
L 107.56766 518.029966 
L 105.576261 538.1243 
L 103.584862 544.822412 
L 101.593463 551.520523 
L 99.602065 558.218635 
L 97.610666 558.218635 
L 95.619267 558.218635 
L 93.627868 558.218635 
L 91.636469 564.916746 
L 89.64507 564.916746 
L 87.653672 564.916746 
L 85.662273 564.916746 
z
" style="fill:#008000;fill-opacity:0.4;"/>
   </g>
   <g id="matplotlib.axis_1">
    <g id="xtick_1">
     <g id="line2d_1">
      <defs>
       <path d="M 0 0 
L 0 3.5 
" id="m6626fc2228" style="stroke:#000000;stroke-width:0.8;"/>
      </defs>
      <g>
       <use style="stroke:#000000;stroke-width:0.8;" x="85.662273" xlink:href="#m6626fc2228" y="822.04"/>
      </g>
     </g>
     <g id="text_1">
      <!-- 0.0 -->
      <defs>
       <path d="M 31.78125 66.40625 
Q 24.171875 66.40625 20.328125 58.90625 
Q 16.5 51.421875 16.5 36.375 
Q 16.5 21.390625 20.328125 13.890625 
Q 24.171875 6.390625 31.78125 6.390625 
Q 39.453125 6.390625 43.28125 13.890625 
Q 47.125 21.390625 47.125 36.375 
Q 47.125 51.421875 43.28125 58.90625 
Q 39.453125 66.40625 31.78125 66.40625 
z
M 31.78125 74.21875 
Q 44.046875 74.21875 50.515625 64.515625 
Q 56.984375 54.828125 56.984375 36.375 
Q 56.984375 17.96875 50.515625 8.265625 
Q 44.046875 -1.421875 31.78125 -1.421875 
Q 19.53125 -1.421875 13.0625 8.265625 
Q 6.59375 17.96875 6.59375 36.375 
Q 6.59375 54.828125 13.0625 64.515625 
Q 19.53125 74.21875 31.78125 74.21875 
z
" id="DejaVuSans-30"/>
       <path d="M 10.6875 12.40625 
L 21 12.40625 
L 21 0 
L 10.6875 0 
z
" id="DejaVuSans-2e"/>
      </defs>
      <g transform="translate(77.71071 836.638438)scale(0.1 -0.1)">
       <use xlink:href="#DejaVuSans-30"/>
       <use x="63.623047" xlink:href="#DejaVuSans-2e"/>
       <use x="95.410156" xlink:href="#DejaVuSans-30"/>
      </g>
     </g>
    </g>
    <g id="xtick_2">
     <g id="line2d_2">
      <g>
       <use style="stroke:#000000;stroke-width:0.8;" x="203.951364" xlink:href="#m6626fc2228" y="822.04"/>
      </g>
     </g>
     <g id="text_2">
      <!-- 0.2 -->
      <defs>
       <path d="M 19.1875 8.296875 
L 53.609375 8.296875 
L 53.609375 0 
L 7.328125 0 
L 7.328125 8.296875 
Q 12.9375 14.109375 22.625 23.890625 
Q 32.328125 33.6875 34.8125 36.53125 
Q 39.546875 41.84375 41.421875 45.53125 
Q 43.3125 49.21875 43.3125 52.78125 
Q 43.3125 58.59375 39.234375 62.25 
Q 35.15625 65.921875 28.609375 65.921875 
Q 23.96875 65.921875 18.8125 64.3125 
Q 13.671875 62.703125 7.8125 59.421875 
L 7.8125 69.390625 
Q 13.765625 71.78125 18.9375 73 
Q 24.125 74.21875 28.421875 74.21875 
Q 39.75 74.21875 46.484375 68.546875 
Q 53.21875 62.890625 53.21875 53.421875 
Q 53.21875 48.921875 51.53125 44.890625 
Q 49.859375 40.875 45.40625 35.40625 
Q 44.1875 33.984375 37.640625 27.21875 
Q 31.109375 20.453125 19.1875 8.296875 
z
" id="DejaVuSans-32"/>
      </defs>
      <g transform="translate(195.999801 836.638438)scale(0.1 -0.1)">
       <use xlink:href="#DejaVuSans-30"/>
       <use x="63.623047" xlink:href="#DejaVuSans-2e"/>
       <use x="95.410156" xlink:href="#DejaVuSans-32"/>
      </g>
     </g>
    </g>
    <g id="xtick_3">
     <g id="line2d_3">
      <g>
       <use style="stroke:#000000;stroke-width:0.8;" x="322.240455" xlink:href="#m6626fc2228" y="822.04"/>
      </g>
     </g>
     <g id="text_3">
      <!-- 0.4 -->
      <defs>
       <path d="M 37.796875 64.3125 
L 12.890625 25.390625 
L 37.796875 25.390625 
z
M 35.203125 72.90625 
L 47.609375 72.90625 
L 47.609375 25.390625 
L 58.015625 25.390625 
L 58.015625 17.1875 
L 47.609375 17.1875 
L 47.609375 0 
L 37.796875 0 
L 37.796875 17.1875 
L 4.890625 17.1875 
L 4.890625 26.703125 
z
" id="DejaVuSans-34"/>
      </defs>
      <g transform="translate(314.288892 836.638438)scale(0.1 -0.1)">
       <use xlink:href="#DejaVuSans-30"/>
       <use x="63.623047" xlink:href="#DejaVuSans-2e"/>
       <use x="95.410156" xlink:href="#DejaVuSans-34"/>
      </g>
     </g>
    </g>
    <g id="xtick_4">
     <g id="line2d_4">
      <g>
       <use style="stroke:#000000;stroke-width:0.8;" x="440.529545" xlink:href="#m6626fc2228" y="822.04"/>
      </g>
     </g>
     <g id="text_4">
      <!-- 0.6 -->
      <defs>
       <path d="M 33.015625 40.375 
Q 26.375 40.375 22.484375 35.828125 
Q 18.609375 31.296875 18.609375 23.390625 
Q 18.609375 15.53125 22.484375 10.953125 
Q 26.375 6.390625 33.015625 6.390625 
Q 39.65625 6.390625 43.53125 10.953125 
Q 47.40625 15.53125 47.40625 23.390625 
Q 47.40625 31.296875 43.53125 35.828125 
Q 39.65625 40.375 33.015625 40.375 
z
M 52.59375 71.296875 
L 52.59375 62.3125 
Q 48.875 64.0625 45.09375 64.984375 
Q 41.3125 65.921875 37.59375 65.921875 
Q 27.828125 65.921875 22.671875 59.328125 
Q 17.53125 52.734375 16.796875 39.40625 
Q 19.671875 43.65625 24.015625 45.921875 
Q 28.375 48.1875 33.59375 48.1875 
Q 44.578125 48.1875 50.953125 41.515625 
Q 57.328125 34.859375 57.328125 23.390625 
Q 57.328125 12.15625 50.6875 5.359375 
Q 44.046875 -1.421875 33.015625 -1.421875 
Q 20.359375 -1.421875 13.671875 8.265625 
Q 6.984375 17.96875 6.984375 36.375 
Q 6.984375 53.65625 15.1875 63.9375 
Q 23.390625 74.21875 37.203125 74.21875 
Q 40.921875 74.21875 44.703125 73.484375 
Q 48.484375 72.75 52.59375 71.296875 
z
" id="DejaVuSans-36"/>
      </defs>
      <g transform="translate(432.577983 836.638438)scale(0.1 -0.1)">
       <use xlink:href="#DejaVuSans-30"/>
       <use x="63.623047" xlink:href="#DejaVuSans-2e"/>
       <use x="95.410156" xlink:href="#DejaVuSans-36"/>
      </g>
     </g>
    </g>
    <g id="xtick_5">
     <g id="line2d_5">
      <g>
       <use style="stroke:#000000;stroke-width:0.8;" x="558.818636" xlink:href="#m6626fc2228" y="822.04"/>
      </g>
     </g>
     <g id="text_5">
      <!-- 0.8 -->
      <defs>
       <path d="M 31.78125 34.625 
Q 24.75 34.625 20.71875 30.859375 
Q 16.703125 27.09375 16.703125 20.515625 
Q 16.703125 13.921875 20.71875 10.15625 
Q 24.75 6.390625 31.78125 6.390625 
Q 38.8125 6.390625 42.859375 10.171875 
Q 46.921875 13.96875 46.921875 20.515625 
Q 46.921875 27.09375 42.890625 30.859375 
Q 38.875 34.625 31.78125 34.625 
z
M 21.921875 38.8125 
Q 15.578125 40.375 12.03125 44.71875 
Q 8.5 49.078125 8.5 55.328125 
Q 8.5 64.0625 14.71875 69.140625 
Q 20.953125 74.21875 31.78125 74.21875 
Q 42.671875 74.21875 48.875 69.140625 
Q 55.078125 64.0625 55.078125 55.328125 
Q 55.078125 49.078125 51.53125 44.71875 
Q 48 40.375 41.703125 38.8125 
Q 48.828125 37.15625 52.796875 32.3125 
Q 56.78125 27.484375 56.78125 20.515625 
Q 56.78125 9.90625 50.3125 4.234375 
Q 43.84375 -1.421875 31.78125 -1.421875 
Q 19.734375 -1.421875 13.25 4.234375 
Q 6.78125 9.90625 6.78125 20.515625 
Q 6.78125 27.484375 10.78125 32.3125 
Q 14.796875 37.15625 21.921875 38.8125 
z
M 18.3125 54.390625 
Q 18.3125 48.734375 21.84375 45.5625 
Q 25.390625 42.390625 31.78125 42.390625 
Q 38.140625 42.390625 41.71875 45.5625 
Q 45.3125 48.734375 45.3125 54.390625 
Q 45.3125 60.0625 41.71875 63.234375 
Q 38.140625 66.40625 31.78125 66.40625 
Q 25.390625 66.40625 21.84375 63.234375 
Q 18.3125 60.0625 18.3125 54.390625 
z
" id="DejaVuSans-38"/>
      </defs>
      <g transform="translate(550.867074 836.638438)scale(0.1 -0.1)">
       <use xlink:href="#DejaVuSans-30"/>
       <use x="63.623047" xlink:href="#DejaVuSans-2e"/>
       <use x="95.410156" xlink:href="#DejaVuSans-38"/>
      </g>
     </g>
    </g>
    <g id="xtick_6">
     <g id="line2d_6">
      <g>
       <use style="stroke:#000000;stroke-width:0.8;" x="677.107727" xlink:href="#m6626fc2228" y="822.04"/>
      </g>
     </g>
     <g id="text_6">
      <!-- 1.0 -->
      <defs>
       <path d="M 12.40625 8.296875 
L 28.515625 8.296875 
L 28.515625 63.921875 
L 10.984375 60.40625 
L 10.984375 69.390625 
L 28.421875 72.90625 
L 38.28125 72.90625 
L 38.28125 8.296875 
L 54.390625 8.296875 
L 54.390625 0 
L 12.40625 0 
z
" id="DejaVuSans-31"/>
      </defs>
      <g transform="translate(669.156165 836.638438)scale(0.1 -0.1)">
       <use xlink:href="#DejaVuSans-31"/>
       <use x="63.623047" xlink:href="#DejaVuSans-2e"/>
       <use x="95.410156" xlink:href="#DejaVuSans-30"/>
      </g>
     </g>
    </g>
   </g>
   <g id="matplotlib.axis_2">
    <g id="ytick_1">
     <g id="line2d_7">
      <defs>
       <path d="M 0 0 
L -3.5 0 
" id="mb56607e5d4" style="stroke:#000000;stroke-width:0.8;"/>
      </defs>
      <g>
       <use style="stroke:#000000;stroke-width:0.8;" x="56.09" xlink:href="#mb56607e5d4" y="799.350647"/>
      </g>
     </g>
     <g id="text_7">
      <!-- 0.0 -->
      <g transform="translate(33.186875 803.149865)scale(0.1 -0.1)">
       <use xlink:href="#DejaVuSans-30"/>
       <use x="63.623047" xlink:href="#DejaVuSans-2e"/>
       <use x="95.410156" xlink:href="#DejaVuSans-30"/>
      </g>
     </g>
    </g>
    <g id="ytick_2">
     <g id="line2d_8">
      <g>
       <use style="stroke:#000000;stroke-width:0.8;" x="56.09" xlink:href="#mb56607e5d4" y="665.388418"/>
      </g>
     </g>
     <g id="text_8">
      <!-- 0.2 -->
      <g transform="translate(33.186875 669.187636)scale(0.1 -0.1)">
       <use xlink:href="#DejaVuSans-30"/>
       <use x="63.623047" xlink:href="#DejaVuSans-2e"/>
       <use x="95.410156" xlink:href="#DejaVuSans-32"/>
      </g>
     </g>
    </g>
    <g id="ytick_3">
     <g id="line2d_9">
      <g>
       <use style="stroke:#000000;stroke-width:0.8;" x="56.09" xlink:href="#mb56607e5d4" y="531.426189"/>
      </g>
     </g>
     <g id="text_9">
      <!-- 0.4 -->
      <g transform="translate(33.186875 535.225408)scale(0.1 -0.1)">
       <use xlink:href="#DejaVuSans-30"/>
       <use x="63.623047" xlink:href="#DejaVuSans-2e"/>
       <use x="95.410156" xlink:href="#DejaVuSans-34"/>
      </g>
     </g>
    </g>
    <g id="ytick_4">
     <g id="line2d_10">
      <g>
       <use style="stroke:#000000;stroke-width:0.8;" x="56.09" xlink:href="#mb56607e5d4" y="397.46396"/>
      </g>
     </g>
     <g id="text_10">
      <!-- 0.6 -->
      <g transform="translate(33.186875 401.263179)scale(0.1 -0.1)">
       <use xlink:href="#DejaVuSans-30"/>
       <use x="63.623047" xlink:href="#DejaVuSans-2e"/>
       <use x="95.410156" xlink:href="#DejaVuSans-36"/>
      </g>
     </g>
    </g>
    <g id="ytick_5">
     <g id="line2d_11">
      <g>
       <use style="stroke:#000000;stroke-width:0.8;" x="56.09" xlink:href="#mb56607e5d4" y="263.501731"/>
      </g>
     </g>
     <g id="text_11">
      <!-- 0.8 -->
      <g transform="translate(33.186875 267.30095)scale(0.1 -0.1)">
       <use xlink:href="#DejaVuSans-30"/>
       <use x="63.623047" xlink:href="#DejaVuSans-2e"/>
       <use x="95.410156" xlink:href="#DejaVuSans-38"/>
      </g>
     </g>
    </g>
    <g id="ytick_6">
     <g id="line2d_12">
      <g>
       <use style="stroke:#000000;stroke-width:0.8;" x="56.09" xlink:href="#mb56607e5d4" y="129.539503"/>
      </g>
     </g>
     <g id="text_12">
      <!-- 1.0 -->
      <g transform="translate(33.186875 133.338721)scale(0.1 -0.1)">
       <use xlink:href="#DejaVuSans-31"/>
       <use x="63.623047" xlink:href="#DejaVuSans-2e"/>
       <use x="95.410156" xlink:href="#DejaVuSans-30"/>
      </g>
     </g>
    </g>
   </g>
   <g id="line2d_13">
    <path clip-path="url(#p1765938ffe)" d="M 85.662273 765.38459 
L 87.653672 765.83745 
L 89.64507 764.025945 
L 91.636469 761.308656 
L 93.627868 744.099131 
L 95.619267 737.305906 
L 97.610666 718.737536 
L 99.602065 689.300676 
L 101.593463 654.88176 
L 103.584862 597.818539 
L 105.576261 549.813175 
L 107.56766 495.467378 
L 111.550458 376.812343 
L 113.541856 328.806978 
L 115.533255 313.862152 
L 117.524654 273.555597 
L 119.516053 198.830126 
L 121.507452 173.469067 
L 123.498851 167.581427 
L 125.490249 139.050151 
L 127.481648 136.332727 
L 129.473047 158.52357 
L 131.464446 206.529605 
L 133.455845 223.285601 
L 135.447244 227.814863 
L 137.438642 270.838173 
L 139.430041 295.74711 
L 141.42144 322.920008 
L 143.412839 343.752474 
L 145.404238 376.359551 
L 147.395637 427.987924 
L 149.387036 434.328356 
L 151.378434 402.174072 
L 153.369833 408.514504 
L 155.361232 423.459331 
L 157.352631 428.894178 
L 159.34403 423.459331 
L 161.335429 447.914805 
L 163.326827 490.485992 
L 165.318226 504.525234 
L 167.309625 538.944149 
L 169.301024 569.287264 
L 171.292423 573.363065 
L 173.283822 586.496722 
L 175.27522 609.140357 
L 177.266619 629.972823 
L 179.258018 635.860463 
L 181.249417 642.653688 
L 183.240816 668.015417 
L 185.232215 683.865828 
L 187.223613 691.564637 
L 189.215012 685.677667 
L 191.206411 696.0939 
L 193.19781 707.86851 
L 195.189209 714.208943 
L 197.180608 720.096583 
L 199.172006 734.588616 
L 201.163405 749.986637 
L 203.154804 749.986637 
L 205.146203 743.646272 
L 207.137602 746.363561 
L 209.129001 741.381841 
L 211.120399 734.588616 
L 213.111798 733.230039 
L 215.103197 720.096583 
L 217.094596 696.546693 
L 219.085995 670.732171 
L 221.077394 660.315938 
L 223.068792 646.729489 
L 225.060191 624.991438 
L 227.05159 611.404989 
L 229.042989 600.083171 
L 231.034388 586.949514 
L 233.025787 570.192849 
L 235.017185 533.962094 
L 237.008584 521.734692 
L 238.999983 513.129628 
L 240.991382 510.412204 
L 242.982781 505.430818 
L 244.97418 483.239305 
L 250.948376 304.351504 
L 252.939775 271.290965 
L 254.931174 241.401313 
L 256.922573 202.000342 
L 258.913972 235.06088 
L 260.90537 244.118737 
L 262.896769 231.437872 
L 264.888168 233.249041 
L 266.879567 251.364753 
L 268.870966 295.74711 
L 270.862365 322.013754 
L 272.853763 351.451284 
L 274.845162 400.815025 
L 276.836561 424.817708 
L 278.82796 445.197382 
L 280.819359 463.313094 
L 282.810758 467.388895 
L 284.802156 490.938785 
L 286.793555 495.467378 
L 288.784954 496.825755 
L 290.776353 495.467378 
L 292.767752 498.637594 
L 294.759151 508.148242 
L 296.750549 509.053827 
L 298.741948 517.205429 
L 300.733347 523.998653 
L 302.724746 528.527916 
L 304.716145 532.603717 
L 306.707544 546.642959 
L 308.698942 549.360382 
L 310.690341 568.834472 
L 312.68174 585.590467 
L 314.673139 597.818539 
L 316.664538 595.553908 
L 318.655937 600.083171 
L 322.638734 636.766048 
L 324.630133 651.258752 
L 326.621532 663.033362 
L 328.612931 683.413036 
L 330.60433 699.716909 
L 332.595728 705.604549 
L 334.587127 708.774095 
L 336.578526 716.020782 
L 340.561324 740.928982 
L 342.552723 752.251 
L 344.544122 765.38459 
L 346.53552 774.895038 
L 348.526919 782.141189 
L 350.518318 784.858479 
L 352.509717 783.046907 
L 354.501116 781.688262 
L 356.492515 780.782544 
L 358.483913 774.442179 
L 360.475312 771.272029 
L 362.466711 757.68558 
L 364.45811 746.816421 
L 366.449509 723.719591 
L 368.440908 701.98154 
L 370.432306 681.601866 
L 372.423705 651.711544 
L 374.415104 636.313256 
L 376.406503 610.499404 
L 378.397902 579.703497 
L 380.389301 556.606399 
L 384.372098 493.202746 
L 386.363497 457.425454 
L 388.354896 425.27117 
L 392.337694 377.265135 
L 394.329092 374.548381 
L 396.320491 374.095589 
L 398.31189 366.848902 
L 400.303289 355.527084 
L 402.294688 366.848902 
L 404.286087 368.207949 
L 406.277485 375.001174 
L 408.268884 371.378165 
L 410.260283 389.040415 
L 412.251682 410.778466 
L 414.243081 423.006538 
L 416.23448 447.009221 
L 418.225878 451.990606 
L 420.217277 484.598352 
L 424.200075 497.279217 
L 428.182873 523.998653 
L 430.174272 538.944149 
L 432.16567 533.962094 
L 434.157069 548.90759 
L 436.148468 575.174234 
L 438.139867 595.101116 
L 440.131266 600.083171 
L 442.122665 598.271332 
L 446.105462 603.706179 
L 448.096861 591.025315 
L 450.08826 588.307891 
L 452.079659 584.23209 
L 454.071058 591.478107 
L 456.062456 604.611764 
L 458.053855 612.310573 
L 460.045254 630.879078 
L 462.036653 639.936264 
L 464.028052 658.504769 
L 466.019451 668.015417 
L 468.010849 676.167019 
L 470.002248 689.753468 
L 471.993647 704.245502 
L 473.985046 714.661735 
L 475.976445 723.266799 
L 477.967844 744.552057 
L 479.959242 759.950011 
L 481.950641 769.007599 
L 483.94204 774.895038 
L 485.933439 775.347964 
L 487.924838 770.81917 
L 489.916237 757.68558 
L 491.907635 742.287627 
L 495.890433 701.528078 
L 497.881832 672.996803 
L 499.873231 637.21951 
L 501.86463 603.706179 
L 503.856028 584.684882 
L 505.847427 539.849734 
L 507.838826 505.430818 
L 509.830225 485.051145 
L 511.821624 471.011903 
L 513.813023 447.914805 
L 515.804421 375.453966 
L 517.79582 320.655377 
L 519.787219 273.555597 
L 521.778618 222.380016 
L 523.770017 174.827444 
L 525.761416 163.958418 
L 527.752815 167.128634 
L 529.744213 186.149931 
L 531.735612 213.775622 
L 533.727011 254.081507 
L 535.71841 288.047631 
L 537.709809 299.822911 
L 539.701208 332.883449 
L 541.692606 355.074292 
L 543.684005 354.168707 
L 545.675404 341.940635 
L 547.666803 337.864834 
L 549.658202 339.223211 
L 551.649601 342.84622 
L 553.640999 382.247191 
L 555.632398 413.948682 
L 559.615196 492.749954 
L 561.606595 517.205429 
L 563.597994 553.436183 
L 565.589392 563.852416 
L 567.580791 566.117048 
L 569.57219 577.438865 
L 571.563589 593.289946 
L 573.554988 622.726806 
L 575.546387 635.860463 
L 577.537785 651.711544 
L 579.529184 684.31862 
L 581.520583 706.510133 
L 583.511982 718.737536 
L 585.503381 723.719591 
L 587.49478 730.965608 
L 589.486178 742.740486 
L 591.477577 747.269347 
L 593.468976 745.004917 
L 595.460375 748.175066 
L 597.451774 745.910702 
L 599.443173 751.345282 
L 601.434571 740.023196 
L 603.42597 741.834767 
L 605.417369 740.928982 
L 607.408768 741.834767 
L 609.400167 751.345282 
L 611.391566 756.326935 
L 613.382964 766.743235 
L 615.374363 771.724889 
L 617.365762 778.065254 
L 619.357161 783.499834 
L 621.34856 785.764197 
L 623.339959 788.934413 
L 625.331358 789.387273 
L 629.314155 780.329618 
L 631.305554 773.536393 
L 635.288352 743.646272 
L 637.279751 727.795392 
L 639.271149 709.680349 
L 641.262548 674.35518 
L 643.253947 657.599184 
L 645.245346 643.559273 
L 647.236745 620.462845 
L 649.228144 601.89434 
L 651.219542 574.268649 
L 653.210941 573.363065 
L 655.20234 556.606399 
L 657.193739 547.095751 
L 659.185138 529.886293 
L 661.176537 516.752636 
L 663.167935 534.868348 
L 665.159334 537.585102 
L 667.150733 528.527916 
L 669.142132 527.621662 
L 671.133531 543.472742 
L 673.12493 552.530598 
L 675.116328 532.603717 
L 677.107727 528.527916 
L 677.107727 528.527916 
" style="fill:none;stroke:#1f77b4;stroke-linecap:square;stroke-width:1.5;"/>
   </g>
   <g id="line2d_14">
    <path clip-path="url(#p1765938ffe)" d="M 85.662273 698.644453 
L 87.653672 699.79362 
L 89.64507 699.908457 
L 91.636469 699.681074 
L 93.627868 698.027786 
L 95.619267 693.108288 
L 97.610666 689.101759 
L 99.602065 680.949276 
L 101.593463 667.253754 
L 103.584862 645.02563 
L 105.576261 605.693086 
L 107.56766 559.181576 
L 109.559059 505.297209 
L 111.550458 446.285789 
L 113.541856 395.441395 
L 115.533255 362.783959 
L 117.524654 349.029652 
L 119.516053 327.370692 
L 121.507452 302.570317 
L 123.498851 293.436913 
L 125.490249 289.79367 
L 127.481648 284.328451 
L 129.473047 283.532786 
L 131.464446 289.352564 
L 133.455845 301.274938 
L 135.447244 306.89007 
L 137.438642 311.450867 
L 145.404238 367.016725 
L 147.395637 389.79947 
L 149.387036 425.643091 
L 151.378434 433.814611 
L 153.369833 416.631664 
L 155.361232 415.85953 
L 157.352631 426.551038 
L 159.34403 431.874098 
L 161.335429 431.29383 
L 163.326827 450.671554 
L 165.318226 485.209749 
L 167.309625 507.157521 
L 171.292423 565.683944 
L 175.27522 586.512603 
L 177.266619 605.062141 
L 179.258018 621.169513 
L 181.249417 628.744725 
L 183.240816 635.250001 
L 185.232215 648.915911 
L 187.223613 660.279433 
L 189.215012 664.339723 
L 191.206411 664.183639 
L 193.19781 668.208763 
L 195.189209 674.11826 
L 199.172006 681.216319 
L 201.163405 687.296001 
L 203.154804 692.812249 
L 205.146203 693.837677 
L 207.137602 692.544236 
L 209.129001 692.219642 
L 211.120399 691.203468 
L 213.111798 688.215582 
L 215.103197 686.782362 
L 217.094596 681.56753 
L 219.085995 670.680455 
L 221.077394 656.899002 
L 225.060191 638.689481 
L 227.05159 623.88454 
L 229.042989 611.333865 
L 231.034388 601.653243 
L 233.025787 589.692708 
L 235.017185 572.112986 
L 237.008584 544.737099 
L 238.999983 526.363386 
L 240.991382 517.242497 
L 242.982781 513.908512 
L 244.97418 509.010871 
L 246.965579 485.588104 
L 250.948376 383.852957 
L 252.939775 348.492569 
L 254.931174 328.317946 
L 256.922573 314.079435 
L 258.913972 304.333948 
L 260.90537 311.523313 
L 262.896769 314.602681 
L 264.888168 311.626252 
L 266.879567 311.904135 
L 268.870966 319.709991 
L 272.853763 353.14855 
L 274.845162 373.582196 
L 276.836561 403.252186 
L 278.82796 428.27448 
L 280.819359 447.335101 
L 282.810758 462.417486 
L 284.802156 470.899586 
L 286.793555 488.41788 
L 288.784954 497.958723 
L 290.776353 498.318129 
L 292.767752 498.39833 
L 294.759151 501.381546 
L 296.750549 509.078205 
L 298.741948 511.711708 
L 300.733347 519.183892 
L 302.724746 526.017905 
L 304.716145 530.49004 
L 306.707544 536.57263 
L 308.698942 546.214121 
L 310.690341 553.585921 
L 312.68174 568.604321 
L 314.673139 584.527054 
L 316.664538 595.471592 
L 318.655937 596.585329 
L 320.647335 600.472701 
L 322.638734 613.34039 
L 324.630133 627.42978 
L 326.621532 638.520706 
L 328.612931 647.974738 
L 330.60433 659.335 
L 332.595728 669.323646 
L 334.587127 673.58012 
L 336.578526 675.469428 
L 338.569925 678.900359 
L 344.544122 694.527141 
L 346.53552 699.160648 
L 348.526919 702.866114 
L 350.518318 705.087243 
L 352.509717 706.233413 
L 356.492515 705.746831 
L 358.483913 704.934332 
L 360.475312 703.577171 
L 362.466711 701.460039 
L 364.45811 698.186602 
L 366.449509 692.976793 
L 368.440908 684.84273 
L 370.432306 673.85818 
L 372.423705 661.65942 
L 374.415104 645.108035 
L 376.406503 630.499277 
L 378.397902 612.070922 
L 380.389301 586.141387 
L 382.380699 562.021664 
L 384.372098 531.882101 
L 390.346295 434.021812 
L 392.337694 411.224349 
L 394.329092 394.394198 
L 396.320491 388.67454 
L 398.31189 388.252471 
L 400.303289 383.167899 
L 402.294688 377.383992 
L 404.286087 382.419121 
L 406.277485 384.372325 
L 408.268884 388.223475 
L 410.260283 388.317601 
L 412.251682 398.754669 
L 414.243081 415.015656 
L 416.23448 428.90657 
L 418.225878 445.55076 
L 420.217277 457.041634 
L 422.208676 480.241777 
L 424.200075 493.211789 
L 426.191474 499.499024 
L 428.182873 511.246454 
L 430.174272 525.950218 
L 432.16567 537.761721 
L 434.157069 539.146996 
L 436.148468 551.454423 
L 438.139867 573.956553 
L 440.131266 591.537597 
L 442.122665 598.793855 
L 444.114063 599.147797 
L 446.105462 600.925617 
L 448.096861 601.158729 
L 450.08826 594.12721 
L 452.079659 589.369436 
L 454.071058 587.614354 
L 456.062456 592.067188 
L 460.045254 610.557061 
L 462.036653 622.190006 
L 464.028052 632.071042 
L 466.019451 643.117021 
L 468.010849 650.869115 
L 470.002248 656.543385 
L 473.985046 671.944547 
L 475.976445 677.579245 
L 477.967844 682.610672 
L 479.959242 690.359065 
L 481.950641 696.914666 
L 483.94204 700.69619 
L 485.933439 702.851308 
L 487.924838 703.501818 
L 489.916237 701.692622 
L 491.907635 698.048674 
L 493.899034 691.918668 
L 495.890433 683.468119 
L 497.881832 673.081728 
L 499.873231 657.066191 
L 501.86463 634.304774 
L 503.856028 607.758219 
L 505.847427 586.466862 
L 507.838826 550.915314 
L 509.830225 512.738899 
L 511.821624 491.049621 
L 513.813023 475.057615 
L 515.804421 449.411869 
L 517.79582 396.360887 
L 519.787219 356.407622 
L 521.778618 330.352409 
L 523.770017 308.405606 
L 525.761416 294.248707 
L 527.752815 290.377375 
L 529.744213 290.935609 
L 531.735612 296.079054 
L 533.727011 305.19536 
L 537.709809 333.996005 
L 539.701208 341.970019 
L 541.692606 358.995472 
L 543.684005 372.273068 
L 545.675404 373.543506 
L 547.666803 367.505335 
L 549.658202 363.990677 
L 551.649601 364.377757 
L 553.640999 368.95671 
L 555.632398 391.752939 
L 557.623797 418.771358 
L 559.615196 452.640711 
L 561.606595 488.617061 
L 563.597994 517.959548 
L 565.589392 549.09757 
L 567.580791 564.536716 
L 569.57219 568.992811 
L 571.563589 578.114493 
L 573.554988 592.72801 
L 575.546387 614.165933 
L 577.537785 628.620193 
L 579.529184 639.963268 
L 581.520583 657.946728 
L 583.511982 672.297784 
L 585.503381 679.232621 
L 589.486178 686.014018 
L 591.477577 690.133004 
L 593.468976 692.603197 
L 597.451774 693.034608 
L 601.434571 693.630916 
L 603.42597 691.484524 
L 605.417369 690.651491 
L 607.408768 690.793826 
L 609.400167 691.540224 
L 611.391566 693.879364 
L 613.382964 696.704556 
L 615.374363 699.820941 
L 621.34856 705.835404 
L 623.339959 706.736388 
L 625.331358 707.336046 
L 627.322756 707.475208 
L 629.314155 706.610799 
L 631.305554 705.248615 
L 633.296953 702.776306 
L 635.288352 698.320476 
L 637.279751 692.568825 
L 639.271149 685.941132 
L 641.262548 675.916086 
L 643.253947 660.576001 
L 645.245346 646.786617 
L 647.236745 635.728123 
L 649.228144 620.615068 
L 651.219542 602.483016 
L 653.210941 583.285876 
L 655.20234 573.756226 
L 659.185138 550.951448 
L 661.176537 534.739551 
L 663.167935 524.195754 
L 665.159334 533.674727 
L 667.150733 539.380989 
L 669.142132 533.32572 
L 671.133531 532.736727 
L 673.12493 544.45807 
L 675.116328 551.268992 
L 677.107727 540.25809 
L 677.107727 540.25809 
" style="fill:none;stroke:#ff7f0e;stroke-linecap:square;stroke-width:1.5;"/>
   </g>
   <g id="line2d_15">
    <path clip-path="url(#p1765938ffe)" d="M 85.662273 739.067644 
L 87.653672 745.765755 
L 91.636469 745.765755 
L 95.619267 732.369532 
L 97.610666 732.369532 
L 101.593463 705.577086 
L 103.584862 685.482752 
L 105.576261 645.294083 
L 107.56766 591.709192 
L 109.559059 544.822412 
L 111.550458 531.426189 
L 115.533255 518.029966 
L 117.524654 518.029966 
L 119.516053 511.331855 
L 123.498851 511.331855 
L 125.490249 504.633743 
L 127.481648 511.331855 
L 129.473047 504.633743 
L 131.464446 511.331855 
L 139.430041 511.331855 
L 141.42144 518.029966 
L 145.404238 518.029966 
L 147.395637 524.728078 
L 149.387036 524.728078 
L 151.378434 531.426189 
L 153.369833 531.426189 
L 155.361232 524.728078 
L 157.352631 531.426189 
L 163.326827 531.426189 
L 167.309625 544.822412 
L 169.301024 564.916746 
L 171.292423 591.709192 
L 173.283822 598.407303 
L 175.27522 611.803526 
L 177.266619 638.595972 
L 179.258018 651.992195 
L 183.240816 665.388418 
L 185.232215 685.482752 
L 187.223613 698.878975 
L 191.206411 698.878975 
L 197.180608 718.973309 
L 199.172006 718.973309 
L 201.163405 732.369532 
L 203.154804 739.067644 
L 205.146203 739.067644 
L 207.137602 732.369532 
L 213.111798 732.369532 
L 219.085995 712.275198 
L 221.077394 692.180863 
L 223.068792 685.482752 
L 227.05159 658.690306 
L 229.042989 638.595972 
L 235.017185 598.407303 
L 237.008584 564.916746 
L 238.999983 551.520523 
L 240.991382 544.822412 
L 244.97418 544.822412 
L 254.931174 511.331855 
L 270.862365 511.331855 
L 272.853763 518.029966 
L 274.845162 518.029966 
L 278.82796 531.426189 
L 282.810758 531.426189 
L 284.802156 538.1243 
L 290.776353 538.1243 
L 292.767752 544.822412 
L 300.733347 544.822412 
L 302.724746 551.520523 
L 304.716145 551.520523 
L 310.690341 571.614858 
L 314.673139 611.803526 
L 318.655937 625.199749 
L 320.647335 625.199749 
L 322.638734 645.294083 
L 332.595728 712.275198 
L 336.578526 712.275198 
L 346.53552 745.765755 
L 348.526919 745.765755 
L 350.518318 752.463866 
L 356.492515 752.463866 
L 358.483913 745.765755 
L 362.466711 745.765755 
L 368.440908 725.671421 
L 372.423705 698.878975 
L 374.415104 678.784641 
L 376.406503 665.388418 
L 378.397902 645.294083 
L 380.389301 618.501638 
L 382.380699 585.01108 
L 384.372098 558.218635 
L 386.363497 544.822412 
L 392.337694 524.728078 
L 414.243081 524.728078 
L 416.23448 531.426189 
L 420.217277 531.426189 
L 422.208676 538.1243 
L 424.200075 538.1243 
L 426.191474 544.822412 
L 428.182873 544.822412 
L 432.16567 558.218635 
L 434.157069 558.218635 
L 436.148468 571.614858 
L 438.139867 598.407303 
L 440.131266 618.501638 
L 442.122665 625.199749 
L 448.096861 625.199749 
L 452.079659 611.803526 
L 454.071058 611.803526 
L 456.062456 618.501638 
L 458.053855 631.897861 
L 460.045254 638.595972 
L 466.019451 678.784641 
L 470.002248 692.180863 
L 471.993647 705.577086 
L 483.94204 745.765755 
L 489.916237 745.765755 
L 495.890433 725.671421 
L 497.881832 712.275198 
L 501.86463 672.086529 
L 503.856028 638.595972 
L 505.847427 611.803526 
L 509.830225 544.822412 
L 511.821624 538.1243 
L 513.813023 538.1243 
L 521.778618 511.331855 
L 537.709809 511.331855 
L 539.701208 518.029966 
L 553.640999 518.029966 
L 555.632398 524.728078 
L 557.623797 524.728078 
L 563.597994 544.822412 
L 565.589392 578.312969 
L 571.563589 598.407303 
L 573.554988 618.501638 
L 575.546387 645.294083 
L 577.537785 658.690306 
L 581.520583 698.878975 
L 583.511982 712.275198 
L 587.49478 725.671421 
L 589.486178 725.671421 
L 591.477577 732.369532 
L 597.451774 732.369532 
L 599.443173 739.067644 
L 601.434571 739.067644 
L 603.42597 732.369532 
L 609.400167 732.369532 
L 611.391566 739.067644 
L 613.382964 739.067644 
L 615.374363 745.765755 
L 619.357161 745.765755 
L 621.34856 752.463866 
L 629.314155 752.463866 
L 631.305554 745.765755 
L 633.296953 745.765755 
L 639.271149 725.671421 
L 643.253947 698.878975 
L 645.245346 678.784641 
L 647.236745 672.086529 
L 651.219542 631.897861 
L 653.210941 605.105415 
L 655.20234 598.407303 
L 661.176537 558.218635 
L 663.167935 551.520523 
L 665.159334 558.218635 
L 667.150733 558.218635 
L 669.142132 551.520523 
L 671.133531 551.520523 
L 673.12493 564.916746 
L 675.116328 571.614858 
L 677.107727 558.218635 
L 677.107727 558.218635 
" style="fill:none;stroke:#2ca02c;stroke-linecap:square;stroke-width:1.5;"/>
   </g>
   <g id="line2d_16">
    <path clip-path="url(#p1765938ffe)" d="M 85.662273 564.916746 
L 91.636469 564.916746 
L 93.627868 558.218635 
L 99.602065 558.218635 
L 105.576261 538.1243 
L 107.56766 518.029966 
L 109.559059 464.445075 
L 111.550458 390.765849 
L 113.541856 330.482846 
L 115.533255 303.6904 
L 117.524654 290.294177 
L 121.507452 223.313063 
L 123.498851 223.313063 
L 127.481648 209.91684 
L 129.473047 209.91684 
L 133.455845 236.709286 
L 137.438642 250.105509 
L 139.430041 263.501731 
L 141.42144 283.596066 
L 143.412839 296.992289 
L 147.395637 337.180957 
L 149.387036 377.369626 
L 151.378434 397.46396 
L 153.369833 370.671514 
L 155.361232 377.369626 
L 157.352631 390.765849 
L 159.34403 397.46396 
L 161.335429 397.46396 
L 163.326827 410.860183 
L 165.318226 457.746963 
L 167.309625 484.539409 
L 169.301024 504.633743 
L 171.292423 518.029966 
L 175.27522 531.426189 
L 177.266619 531.426189 
L 179.258018 538.1243 
L 181.249417 538.1243 
L 183.240816 544.822412 
L 185.232215 544.822412 
L 187.223613 551.520523 
L 195.189209 551.520523 
L 197.180608 558.218635 
L 217.094596 558.218635 
L 219.085995 551.520523 
L 221.077394 551.520523 
L 223.068792 544.822412 
L 225.060191 544.822412 
L 227.05159 538.1243 
L 229.042989 538.1243 
L 231.034388 531.426189 
L 233.025787 531.426189 
L 235.017185 524.728078 
L 237.008584 511.331855 
L 240.991382 497.935632 
L 242.982781 497.935632 
L 244.97418 491.23752 
L 246.965579 451.048852 
L 248.956977 370.671514 
L 250.948376 317.086623 
L 252.939775 283.596066 
L 256.922573 243.407397 
L 258.913972 236.709286 
L 260.90537 250.105509 
L 262.896769 250.105509 
L 264.888168 243.407397 
L 268.870966 256.80362 
L 274.845162 317.086623 
L 278.82796 384.067737 
L 280.819359 410.860183 
L 282.810758 430.954517 
L 284.802156 444.35074 
L 286.793555 464.445075 
L 288.784954 477.841297 
L 294.759151 477.841297 
L 296.750549 491.23752 
L 298.741948 491.23752 
L 302.724746 504.633743 
L 304.716145 504.633743 
L 308.698942 518.029966 
L 310.690341 518.029966 
L 314.673139 531.426189 
L 320.647335 531.426189 
L 322.638734 538.1243 
L 324.630133 538.1243 
L 326.621532 544.822412 
L 328.612931 544.822412 
L 330.60433 551.520523 
L 334.587127 551.520523 
L 336.578526 558.218635 
L 344.544122 558.218635 
L 346.53552 564.916746 
L 364.45811 564.916746 
L 366.449509 558.218635 
L 368.440908 558.218635 
L 370.432306 551.520523 
L 372.423705 551.520523 
L 376.406503 538.1243 
L 378.397902 538.1243 
L 382.380699 524.728078 
L 384.372098 504.633743 
L 386.363497 471.143186 
L 388.354896 424.256406 
L 390.346295 390.765849 
L 392.337694 363.973403 
L 394.329092 343.879069 
L 398.31189 343.879069 
L 402.294688 330.482846 
L 404.286087 330.482846 
L 408.268884 343.879069 
L 410.260283 343.879069 
L 412.251682 350.57718 
L 418.225878 410.860183 
L 420.217277 424.256406 
L 422.208676 451.048852 
L 424.200075 471.143186 
L 426.191474 477.841297 
L 430.174272 504.633743 
L 432.16567 511.331855 
L 434.157069 511.331855 
L 440.131266 531.426189 
L 458.053855 531.426189 
L 460.045254 538.1243 
L 462.036653 538.1243 
L 464.028052 544.822412 
L 468.010849 544.822412 
L 470.002248 551.520523 
L 473.985046 551.520523 
L 475.976445 558.218635 
L 481.950641 558.218635 
L 483.94204 564.916746 
L 491.907635 564.916746 
L 493.899034 558.218635 
L 495.890433 558.218635 
L 497.881832 551.520523 
L 499.873231 551.520523 
L 505.847427 531.426189 
L 507.838826 511.331855 
L 509.830225 484.539409 
L 511.821624 464.445075 
L 513.813023 451.048852 
L 515.804421 410.860183 
L 517.79582 323.784734 
L 519.787219 290.294177 
L 523.770017 236.709286 
L 525.761416 216.614951 
L 527.752815 216.614951 
L 531.735612 230.011174 
L 535.71841 256.80362 
L 537.709809 276.897954 
L 539.701208 283.596066 
L 543.684005 323.784734 
L 545.675404 323.784734 
L 549.658202 310.388511 
L 551.649601 310.388511 
L 553.640999 317.086623 
L 555.632398 337.180957 
L 557.623797 377.369626 
L 559.615196 410.860183 
L 561.606595 457.746963 
L 563.597994 491.23752 
L 565.589392 511.331855 
L 567.580791 524.728078 
L 571.563589 524.728078 
L 575.546387 538.1243 
L 577.537785 538.1243 
L 581.520583 551.520523 
L 583.511982 551.520523 
L 585.503381 558.218635 
L 611.391566 558.218635 
L 613.382964 564.916746 
L 635.288352 564.916746 
L 637.279751 558.218635 
L 641.262548 558.218635 
L 645.245346 544.822412 
L 647.236745 544.822412 
L 651.219542 531.426189 
L 653.210941 531.426189 
L 655.20234 524.728078 
L 657.193739 524.728078 
L 663.167935 504.633743 
L 665.159334 504.633743 
L 667.150733 511.331855 
L 673.12493 511.331855 
L 675.116328 518.029966 
L 677.107727 518.029966 
L 677.107727 518.029966 
" style="fill:none;stroke:#d62728;stroke-linecap:square;stroke-width:1.5;"/>
   </g>
   <g id="patch_3">
    <path d="M 56.09 822.04 
L 56.09 103.68 
" style="fill:none;stroke:#000000;stroke-linecap:square;stroke-linejoin:miter;stroke-width:0.8;"/>
   </g>
   <g id="patch_4">
    <path d="M 706.68 822.04 
L 706.68 103.68 
" style="fill:none;stroke:#000000;stroke-linecap:square;stroke-linejoin:miter;stroke-width:0.8;"/>
   </g>
   <g id="patch_5">
    <path d="M 56.09 822.04 
L 706.68 822.04 
" style="fill:none;stroke:#000000;stroke-linecap:square;stroke-linejoin:miter;stroke-width:0.8;"/>
   </g>
   <g id="patch_6">
    <path d="M 56.09 103.68 
L 706.68 103.68 
" style="fill:none;stroke:#000000;stroke-linecap:square;stroke-linejoin:miter;stroke-width:0.8;"/>
   </g>
   <g id="text_13">
    <!-- Plot of Train Data vs MCMC Uncertainty  -->
    <defs>
     <path d="M 19.671875 64.796875 
L 19.671875 37.40625 
L 32.078125 37.40625 
Q 38.96875 37.40625 42.71875 40.96875 
Q 46.484375 44.53125 46.484375 51.125 
Q 46.484375 57.671875 42.71875 61.234375 
Q 38.96875 64.796875 32.078125 64.796875 
z
M 9.8125 72.90625 
L 32.078125 72.90625 
Q 44.34375 72.90625 50.609375 67.359375 
Q 56.890625 61.8125 56.890625 51.125 
Q 56.890625 40.328125 50.609375 34.8125 
Q 44.34375 29.296875 32.078125 29.296875 
L 19.671875 29.296875 
L 19.671875 0 
L 9.8125 0 
z
" id="DejaVuSans-50"/>
     <path d="M 9.421875 75.984375 
L 18.40625 75.984375 
L 18.40625 0 
L 9.421875 0 
z
" id="DejaVuSans-6c"/>
     <path d="M 30.609375 48.390625 
Q 23.390625 48.390625 19.1875 42.75 
Q 14.984375 37.109375 14.984375 27.296875 
Q 14.984375 17.484375 19.15625 11.84375 
Q 23.34375 6.203125 30.609375 6.203125 
Q 37.796875 6.203125 41.984375 11.859375 
Q 46.1875 17.53125 46.1875 27.296875 
Q 46.1875 37.015625 41.984375 42.703125 
Q 37.796875 48.390625 30.609375 48.390625 
z
M 30.609375 56 
Q 42.328125 56 49.015625 48.375 
Q 55.71875 40.765625 55.71875 27.296875 
Q 55.71875 13.875 49.015625 6.21875 
Q 42.328125 -1.421875 30.609375 -1.421875 
Q 18.84375 -1.421875 12.171875 6.21875 
Q 5.515625 13.875 5.515625 27.296875 
Q 5.515625 40.765625 12.171875 48.375 
Q 18.84375 56 30.609375 56 
z
" id="DejaVuSans-6f"/>
     <path d="M 18.3125 70.21875 
L 18.3125 54.6875 
L 36.8125 54.6875 
L 36.8125 47.703125 
L 18.3125 47.703125 
L 18.3125 18.015625 
Q 18.3125 11.328125 20.140625 9.421875 
Q 21.96875 7.515625 27.59375 7.515625 
L 36.8125 7.515625 
L 36.8125 0 
L 27.59375 0 
Q 17.1875 0 13.234375 3.875 
Q 9.28125 7.765625 9.28125 18.015625 
L 9.28125 47.703125 
L 2.6875 47.703125 
L 2.6875 54.6875 
L 9.28125 54.6875 
L 9.28125 70.21875 
z
" id="DejaVuSans-74"/>
     <path id="DejaVuSans-20"/>
     <path d="M 37.109375 75.984375 
L 37.109375 68.5 
L 28.515625 68.5 
Q 23.6875 68.5 21.796875 66.546875 
Q 19.921875 64.59375 19.921875 59.515625 
L 19.921875 54.6875 
L 34.71875 54.6875 
L 34.71875 47.703125 
L 19.921875 47.703125 
L 19.921875 0 
L 10.890625 0 
L 10.890625 47.703125 
L 2.296875 47.703125 
L 2.296875 54.6875 
L 10.890625 54.6875 
L 10.890625 58.5 
Q 10.890625 67.625 15.140625 71.796875 
Q 19.390625 75.984375 28.609375 75.984375 
z
" id="DejaVuSans-66"/>
     <path d="M -0.296875 72.90625 
L 61.375 72.90625 
L 61.375 64.59375 
L 35.5 64.59375 
L 35.5 0 
L 25.59375 0 
L 25.59375 64.59375 
L -0.296875 64.59375 
z
" id="DejaVuSans-54"/>
     <path d="M 41.109375 46.296875 
Q 39.59375 47.171875 37.8125 47.578125 
Q 36.03125 48 33.890625 48 
Q 26.265625 48 22.1875 43.046875 
Q 18.109375 38.09375 18.109375 28.8125 
L 18.109375 0 
L 9.078125 0 
L 9.078125 54.6875 
L 18.109375 54.6875 
L 18.109375 46.1875 
Q 20.953125 51.171875 25.484375 53.578125 
Q 30.03125 56 36.53125 56 
Q 37.453125 56 38.578125 55.875 
Q 39.703125 55.765625 41.0625 55.515625 
z
" id="DejaVuSans-72"/>
     <path d="M 34.28125 27.484375 
Q 23.390625 27.484375 19.1875 25 
Q 14.984375 22.515625 14.984375 16.5 
Q 14.984375 11.71875 18.140625 8.90625 
Q 21.296875 6.109375 26.703125 6.109375 
Q 34.1875 6.109375 38.703125 11.40625 
Q 43.21875 16.703125 43.21875 25.484375 
L 43.21875 27.484375 
z
M 52.203125 31.203125 
L 52.203125 0 
L 43.21875 0 
L 43.21875 8.296875 
Q 40.140625 3.328125 35.546875 0.953125 
Q 30.953125 -1.421875 24.3125 -1.421875 
Q 15.921875 -1.421875 10.953125 3.296875 
Q 6 8.015625 6 15.921875 
Q 6 25.140625 12.171875 29.828125 
Q 18.359375 34.515625 30.609375 34.515625 
L 43.21875 34.515625 
L 43.21875 35.40625 
Q 43.21875 41.609375 39.140625 45 
Q 35.0625 48.390625 27.6875 48.390625 
Q 23 48.390625 18.546875 47.265625 
Q 14.109375 46.140625 10.015625 43.890625 
L 10.015625 52.203125 
Q 14.9375 54.109375 19.578125 55.046875 
Q 24.21875 56 28.609375 56 
Q 40.484375 56 46.34375 49.84375 
Q 52.203125 43.703125 52.203125 31.203125 
z
" id="DejaVuSans-61"/>
     <path d="M 9.421875 54.6875 
L 18.40625 54.6875 
L 18.40625 0 
L 9.421875 0 
z
M 9.421875 75.984375 
L 18.40625 75.984375 
L 18.40625 64.59375 
L 9.421875 64.59375 
z
" id="DejaVuSans-69"/>
     <path d="M 54.890625 33.015625 
L 54.890625 0 
L 45.90625 0 
L 45.90625 32.71875 
Q 45.90625 40.484375 42.875 44.328125 
Q 39.84375 48.1875 33.796875 48.1875 
Q 26.515625 48.1875 22.3125 43.546875 
Q 18.109375 38.921875 18.109375 30.90625 
L 18.109375 0 
L 9.078125 0 
L 9.078125 54.6875 
L 18.109375 54.6875 
L 18.109375 46.1875 
Q 21.34375 51.125 25.703125 53.5625 
Q 30.078125 56 35.796875 56 
Q 45.21875 56 50.046875 50.171875 
Q 54.890625 44.34375 54.890625 33.015625 
z
" id="DejaVuSans-6e"/>
     <path d="M 19.671875 64.796875 
L 19.671875 8.109375 
L 31.59375 8.109375 
Q 46.6875 8.109375 53.6875 14.9375 
Q 60.6875 21.78125 60.6875 36.53125 
Q 60.6875 51.171875 53.6875 57.984375 
Q 46.6875 64.796875 31.59375 64.796875 
z
M 9.8125 72.90625 
L 30.078125 72.90625 
Q 51.265625 72.90625 61.171875 64.09375 
Q 71.09375 55.28125 71.09375 36.53125 
Q 71.09375 17.671875 61.125 8.828125 
Q 51.171875 0 30.078125 0 
L 9.8125 0 
z
" id="DejaVuSans-44"/>
     <path d="M 2.984375 54.6875 
L 12.5 54.6875 
L 29.59375 8.796875 
L 46.6875 54.6875 
L 56.203125 54.6875 
L 35.6875 0 
L 23.484375 0 
z
" id="DejaVuSans-76"/>
     <path d="M 44.28125 53.078125 
L 44.28125 44.578125 
Q 40.484375 46.53125 36.375 47.5 
Q 32.28125 48.484375 27.875 48.484375 
Q 21.1875 48.484375 17.84375 46.4375 
Q 14.5 44.390625 14.5 40.28125 
Q 14.5 37.15625 16.890625 35.375 
Q 19.28125 33.59375 26.515625 31.984375 
L 29.59375 31.296875 
Q 39.15625 29.25 43.1875 25.515625 
Q 47.21875 21.78125 47.21875 15.09375 
Q 47.21875 7.46875 41.1875 3.015625 
Q 35.15625 -1.421875 24.609375 -1.421875 
Q 20.21875 -1.421875 15.453125 -0.5625 
Q 10.6875 0.296875 5.421875 2 
L 5.421875 11.28125 
Q 10.40625 8.6875 15.234375 7.390625 
Q 20.0625 6.109375 24.8125 6.109375 
Q 31.15625 6.109375 34.5625 8.28125 
Q 37.984375 10.453125 37.984375 14.40625 
Q 37.984375 18.0625 35.515625 20.015625 
Q 33.0625 21.96875 24.703125 23.78125 
L 21.578125 24.515625 
Q 13.234375 26.265625 9.515625 29.90625 
Q 5.8125 33.546875 5.8125 39.890625 
Q 5.8125 47.609375 11.28125 51.796875 
Q 16.75 56 26.8125 56 
Q 31.78125 56 36.171875 55.265625 
Q 40.578125 54.546875 44.28125 53.078125 
z
" id="DejaVuSans-73"/>
     <path d="M 9.8125 72.90625 
L 24.515625 72.90625 
L 43.109375 23.296875 
L 61.8125 72.90625 
L 76.515625 72.90625 
L 76.515625 0 
L 66.890625 0 
L 66.890625 64.015625 
L 48.09375 14.015625 
L 38.1875 14.015625 
L 19.390625 64.015625 
L 19.390625 0 
L 9.8125 0 
z
" id="DejaVuSans-4d"/>
     <path d="M 64.40625 67.28125 
L 64.40625 56.890625 
Q 59.421875 61.53125 53.78125 63.8125 
Q 48.140625 66.109375 41.796875 66.109375 
Q 29.296875 66.109375 22.65625 58.46875 
Q 16.015625 50.828125 16.015625 36.375 
Q 16.015625 21.96875 22.65625 14.328125 
Q 29.296875 6.6875 41.796875 6.6875 
Q 48.140625 6.6875 53.78125 8.984375 
Q 59.421875 11.28125 64.40625 15.921875 
L 64.40625 5.609375 
Q 59.234375 2.09375 53.4375 0.328125 
Q 47.65625 -1.421875 41.21875 -1.421875 
Q 24.65625 -1.421875 15.125 8.703125 
Q 5.609375 18.84375 5.609375 36.375 
Q 5.609375 53.953125 15.125 64.078125 
Q 24.65625 74.21875 41.21875 74.21875 
Q 47.75 74.21875 53.53125 72.484375 
Q 59.328125 70.75 64.40625 67.28125 
z
" id="DejaVuSans-43"/>
     <path d="M 8.6875 72.90625 
L 18.609375 72.90625 
L 18.609375 28.609375 
Q 18.609375 16.890625 22.84375 11.734375 
Q 27.09375 6.59375 36.625 6.59375 
Q 46.09375 6.59375 50.34375 11.734375 
Q 54.59375 16.890625 54.59375 28.609375 
L 54.59375 72.90625 
L 64.5 72.90625 
L 64.5 27.390625 
Q 64.5 13.140625 57.4375 5.859375 
Q 50.390625 -1.421875 36.625 -1.421875 
Q 22.796875 -1.421875 15.734375 5.859375 
Q 8.6875 13.140625 8.6875 27.390625 
z
" id="DejaVuSans-55"/>
     <path d="M 48.78125 52.59375 
L 48.78125 44.1875 
Q 44.96875 46.296875 41.140625 47.34375 
Q 37.3125 48.390625 33.40625 48.390625 
Q 24.65625 48.390625 19.8125 42.84375 
Q 14.984375 37.3125 14.984375 27.296875 
Q 14.984375 17.28125 19.8125 11.734375 
Q 24.65625 6.203125 33.40625 6.203125 
Q 37.3125 6.203125 41.140625 7.25 
Q 44.96875 8.296875 48.78125 10.40625 
L 48.78125 2.09375 
Q 45.015625 0.34375 40.984375 -0.53125 
Q 36.96875 -1.421875 32.421875 -1.421875 
Q 20.0625 -1.421875 12.78125 6.34375 
Q 5.515625 14.109375 5.515625 27.296875 
Q 5.515625 40.671875 12.859375 48.328125 
Q 20.21875 56 33.015625 56 
Q 37.15625 56 41.109375 55.140625 
Q 45.0625 54.296875 48.78125 52.59375 
z
" id="DejaVuSans-63"/>
     <path d="M 56.203125 29.59375 
L 56.203125 25.203125 
L 14.890625 25.203125 
Q 15.484375 15.921875 20.484375 11.0625 
Q 25.484375 6.203125 34.421875 6.203125 
Q 39.59375 6.203125 44.453125 7.46875 
Q 49.3125 8.734375 54.109375 11.28125 
L 54.109375 2.78125 
Q 49.265625 0.734375 44.1875 -0.34375 
Q 39.109375 -1.421875 33.890625 -1.421875 
Q 20.796875 -1.421875 13.15625 6.1875 
Q 5.515625 13.8125 5.515625 26.8125 
Q 5.515625 40.234375 12.765625 48.109375 
Q 20.015625 56 32.328125 56 
Q 43.359375 56 49.78125 48.890625 
Q 56.203125 41.796875 56.203125 29.59375 
z
M 47.21875 32.234375 
Q 47.125 39.59375 43.09375 43.984375 
Q 39.0625 48.390625 32.421875 48.390625 
Q 24.90625 48.390625 20.390625 44.140625 
Q 15.875 39.890625 15.1875 32.171875 
z
" id="DejaVuSans-65"/>
     <path d="M 32.171875 -5.078125 
Q 28.375 -14.84375 24.75 -17.8125 
Q 21.140625 -20.796875 15.09375 -20.796875 
L 7.90625 -20.796875 
L 7.90625 -13.28125 
L 13.1875 -13.28125 
Q 16.890625 -13.28125 18.9375 -11.515625 
Q 21 -9.765625 23.484375 -3.21875 
L 25.09375 0.875 
L 2.984375 54.6875 
L 12.5 54.6875 
L 29.59375 11.921875 
L 46.6875 54.6875 
L 56.203125 54.6875 
z
" id="DejaVuSans-79"/>
    </defs>
    <g transform="translate(260.891875 97.68)scale(0.12 -0.12)">
     <use xlink:href="#DejaVuSans-50"/>
     <use x="60.302734" xlink:href="#DejaVuSans-6c"/>
     <use x="88.085938" xlink:href="#DejaVuSans-6f"/>
     <use x="149.267578" xlink:href="#DejaVuSans-74"/>
     <use x="188.476562" xlink:href="#DejaVuSans-20"/>
     <use x="220.263672" xlink:href="#DejaVuSans-6f"/>
     <use x="281.445312" xlink:href="#DejaVuSans-66"/>
     <use x="316.650391" xlink:href="#DejaVuSans-20"/>
     <use x="348.4375" xlink:href="#DejaVuSans-54"/>
     <use x="409.302734" xlink:href="#DejaVuSans-72"/>
     <use x="450.416016" xlink:href="#DejaVuSans-61"/>
     <use x="511.695312" xlink:href="#DejaVuSans-69"/>
     <use x="539.478516" xlink:href="#DejaVuSans-6e"/>
     <use x="602.857422" xlink:href="#DejaVuSans-20"/>
     <use x="634.644531" xlink:href="#DejaVuSans-44"/>
     <use x="711.646484" xlink:href="#DejaVuSans-61"/>
     <use x="772.925781" xlink:href="#DejaVuSans-74"/>
     <use x="812.134766" xlink:href="#DejaVuSans-61"/>
     <use x="873.414062" xlink:href="#DejaVuSans-20"/>
     <use x="905.201172" xlink:href="#DejaVuSans-76"/>
     <use x="964.380859" xlink:href="#DejaVuSans-73"/>
     <use x="1016.480469" xlink:href="#DejaVuSans-20"/>
     <use x="1048.267578" xlink:href="#DejaVuSans-4d"/>
     <use x="1134.546875" xlink:href="#DejaVuSans-43"/>
     <use x="1204.371094" xlink:href="#DejaVuSans-4d"/>
     <use x="1290.650391" xlink:href="#DejaVuSans-43"/>
     <use x="1360.474609" xlink:href="#DejaVuSans-20"/>
     <use x="1392.261719" xlink:href="#DejaVuSans-55"/>
     <use x="1465.455078" xlink:href="#DejaVuSans-6e"/>
     <use x="1528.833984" xlink:href="#DejaVuSans-63"/>
     <use x="1583.814453" xlink:href="#DejaVuSans-65"/>
     <use x="1645.337891" xlink:href="#DejaVuSans-72"/>
     <use x="1686.451172" xlink:href="#DejaVuSans-74"/>
     <use x="1725.660156" xlink:href="#DejaVuSans-61"/>
     <use x="1786.939453" xlink:href="#DejaVuSans-69"/>
     <use x="1814.722656" xlink:href="#DejaVuSans-6e"/>
     <use x="1878.101562" xlink:href="#DejaVuSans-74"/>
     <use x="1917.310547" xlink:href="#DejaVuSans-79"/>
     <use x="1976.490234" xlink:href="#DejaVuSans-20"/>
    </g>
   </g>
   <g id="legend_1">
    <g id="patch_7">
     <path d="M 569.803438 170.3925 
L 699.68 170.3925 
Q 701.68 170.3925 701.68 168.3925 
L 701.68 110.68 
Q 701.68 108.68 699.68 108.68 
L 569.803438 108.68 
Q 567.803438 108.68 567.803438 110.68 
L 567.803438 168.3925 
Q 567.803438 170.3925 569.803438 170.3925 
z
" style="fill:#ffffff;opacity:0.8;stroke:#cccccc;stroke-linejoin:miter;"/>
    </g>
    <g id="line2d_17">
     <path d="M 571.803438 116.778437 
L 591.803438 116.778437 
" style="fill:none;stroke:#1f77b4;stroke-linecap:square;stroke-width:1.5;"/>
    </g>
    <g id="line2d_18"/>
    <g id="text_14">
     <!-- actual -->
     <defs>
      <path d="M 8.5 21.578125 
L 8.5 54.6875 
L 17.484375 54.6875 
L 17.484375 21.921875 
Q 17.484375 14.15625 20.5 10.265625 
Q 23.53125 6.390625 29.59375 6.390625 
Q 36.859375 6.390625 41.078125 11.03125 
Q 45.3125 15.671875 45.3125 23.6875 
L 45.3125 54.6875 
L 54.296875 54.6875 
L 54.296875 0 
L 45.3125 0 
L 45.3125 8.40625 
Q 42.046875 3.421875 37.71875 1 
Q 33.40625 -1.421875 27.6875 -1.421875 
Q 18.265625 -1.421875 13.375 4.4375 
Q 8.5 10.296875 8.5 21.578125 
z
M 31.109375 56 
z
" id="DejaVuSans-75"/>
     </defs>
     <g transform="translate(599.803438 120.278437)scale(0.1 -0.1)">
      <use xlink:href="#DejaVuSans-61"/>
      <use x="61.279297" xlink:href="#DejaVuSans-63"/>
      <use x="116.259766" xlink:href="#DejaVuSans-74"/>
      <use x="155.46875" xlink:href="#DejaVuSans-75"/>
      <use x="218.847656" xlink:href="#DejaVuSans-61"/>
      <use x="280.126953" xlink:href="#DejaVuSans-6c"/>
     </g>
    </g>
    <g id="line2d_19">
     <path d="M 571.803438 131.456562 
L 591.803438 131.456562 
" style="fill:none;stroke:#ff7f0e;stroke-linecap:square;stroke-width:1.5;"/>
    </g>
    <g id="line2d_20"/>
    <g id="text_15">
     <!-- pred. (mean) -->
     <defs>
      <path d="M 18.109375 8.203125 
L 18.109375 -20.796875 
L 9.078125 -20.796875 
L 9.078125 54.6875 
L 18.109375 54.6875 
L 18.109375 46.390625 
Q 20.953125 51.265625 25.265625 53.625 
Q 29.59375 56 35.59375 56 
Q 45.5625 56 51.78125 48.09375 
Q 58.015625 40.1875 58.015625 27.296875 
Q 58.015625 14.40625 51.78125 6.484375 
Q 45.5625 -1.421875 35.59375 -1.421875 
Q 29.59375 -1.421875 25.265625 0.953125 
Q 20.953125 3.328125 18.109375 8.203125 
z
M 48.6875 27.296875 
Q 48.6875 37.203125 44.609375 42.84375 
Q 40.53125 48.484375 33.40625 48.484375 
Q 26.265625 48.484375 22.1875 42.84375 
Q 18.109375 37.203125 18.109375 27.296875 
Q 18.109375 17.390625 22.1875 11.75 
Q 26.265625 6.109375 33.40625 6.109375 
Q 40.53125 6.109375 44.609375 11.75 
Q 48.6875 17.390625 48.6875 27.296875 
z
" id="DejaVuSans-70"/>
      <path d="M 45.40625 46.390625 
L 45.40625 75.984375 
L 54.390625 75.984375 
L 54.390625 0 
L 45.40625 0 
L 45.40625 8.203125 
Q 42.578125 3.328125 38.25 0.953125 
Q 33.9375 -1.421875 27.875 -1.421875 
Q 17.96875 -1.421875 11.734375 6.484375 
Q 5.515625 14.40625 5.515625 27.296875 
Q 5.515625 40.1875 11.734375 48.09375 
Q 17.96875 56 27.875 56 
Q 33.9375 56 38.25 53.625 
Q 42.578125 51.265625 45.40625 46.390625 
z
M 14.796875 27.296875 
Q 14.796875 17.390625 18.875 11.75 
Q 22.953125 6.109375 30.078125 6.109375 
Q 37.203125 6.109375 41.296875 11.75 
Q 45.40625 17.390625 45.40625 27.296875 
Q 45.40625 37.203125 41.296875 42.84375 
Q 37.203125 48.484375 30.078125 48.484375 
Q 22.953125 48.484375 18.875 42.84375 
Q 14.796875 37.203125 14.796875 27.296875 
z
" id="DejaVuSans-64"/>
      <path d="M 31 75.875 
Q 24.46875 64.65625 21.28125 53.65625 
Q 18.109375 42.671875 18.109375 31.390625 
Q 18.109375 20.125 21.3125 9.0625 
Q 24.515625 -2 31 -13.1875 
L 23.1875 -13.1875 
Q 15.875 -1.703125 12.234375 9.375 
Q 8.59375 20.453125 8.59375 31.390625 
Q 8.59375 42.28125 12.203125 53.3125 
Q 15.828125 64.359375 23.1875 75.875 
z
" id="DejaVuSans-28"/>
      <path d="M 52 44.1875 
Q 55.375 50.25 60.0625 53.125 
Q 64.75 56 71.09375 56 
Q 79.640625 56 84.28125 50.015625 
Q 88.921875 44.046875 88.921875 33.015625 
L 88.921875 0 
L 79.890625 0 
L 79.890625 32.71875 
Q 79.890625 40.578125 77.09375 44.375 
Q 74.3125 48.1875 68.609375 48.1875 
Q 61.625 48.1875 57.5625 43.546875 
Q 53.515625 38.921875 53.515625 30.90625 
L 53.515625 0 
L 44.484375 0 
L 44.484375 32.71875 
Q 44.484375 40.625 41.703125 44.40625 
Q 38.921875 48.1875 33.109375 48.1875 
Q 26.21875 48.1875 22.15625 43.53125 
Q 18.109375 38.875 18.109375 30.90625 
L 18.109375 0 
L 9.078125 0 
L 9.078125 54.6875 
L 18.109375 54.6875 
L 18.109375 46.1875 
Q 21.1875 51.21875 25.484375 53.609375 
Q 29.78125 56 35.6875 56 
Q 41.65625 56 45.828125 52.96875 
Q 50 49.953125 52 44.1875 
z
" id="DejaVuSans-6d"/>
      <path d="M 8.015625 75.875 
L 15.828125 75.875 
Q 23.140625 64.359375 26.78125 53.3125 
Q 30.421875 42.28125 30.421875 31.390625 
Q 30.421875 20.453125 26.78125 9.375 
Q 23.140625 -1.703125 15.828125 -13.1875 
L 8.015625 -13.1875 
Q 14.5 -2 17.703125 9.0625 
Q 20.90625 20.125 20.90625 31.390625 
Q 20.90625 42.671875 17.703125 53.65625 
Q 14.5 64.65625 8.015625 75.875 
z
" id="DejaVuSans-29"/>
     </defs>
     <g transform="translate(599.803438 134.956562)scale(0.1 -0.1)">
      <use xlink:href="#DejaVuSans-70"/>
      <use x="63.476562" xlink:href="#DejaVuSans-72"/>
      <use x="104.558594" xlink:href="#DejaVuSans-65"/>
      <use x="166.082031" xlink:href="#DejaVuSans-64"/>
      <use x="229.558594" xlink:href="#DejaVuSans-2e"/>
      <use x="261.345703" xlink:href="#DejaVuSans-20"/>
      <use x="293.132812" xlink:href="#DejaVuSans-28"/>
      <use x="332.146484" xlink:href="#DejaVuSans-6d"/>
      <use x="429.558594" xlink:href="#DejaVuSans-65"/>
      <use x="491.082031" xlink:href="#DejaVuSans-61"/>
      <use x="552.361328" xlink:href="#DejaVuSans-6e"/>
      <use x="615.740234" xlink:href="#DejaVuSans-29"/>
     </g>
    </g>
    <g id="line2d_21">
     <path d="M 571.803438 146.134687 
L 591.803438 146.134687 
" style="fill:none;stroke:#2ca02c;stroke-linecap:square;stroke-width:1.5;"/>
    </g>
    <g id="line2d_22"/>
    <g id="text_16">
     <!-- pred.(5th percen.) -->
     <defs>
      <path d="M 10.796875 72.90625 
L 49.515625 72.90625 
L 49.515625 64.59375 
L 19.828125 64.59375 
L 19.828125 46.734375 
Q 21.96875 47.46875 24.109375 47.828125 
Q 26.265625 48.1875 28.421875 48.1875 
Q 40.625 48.1875 47.75 41.5 
Q 54.890625 34.8125 54.890625 23.390625 
Q 54.890625 11.625 47.5625 5.09375 
Q 40.234375 -1.421875 26.90625 -1.421875 
Q 22.3125 -1.421875 17.546875 -0.640625 
Q 12.796875 0.140625 7.71875 1.703125 
L 7.71875 11.625 
Q 12.109375 9.234375 16.796875 8.0625 
Q 21.484375 6.890625 26.703125 6.890625 
Q 35.15625 6.890625 40.078125 11.328125 
Q 45.015625 15.765625 45.015625 23.390625 
Q 45.015625 31 40.078125 35.4375 
Q 35.15625 39.890625 26.703125 39.890625 
Q 22.75 39.890625 18.8125 39.015625 
Q 14.890625 38.140625 10.796875 36.28125 
z
" id="DejaVuSans-35"/>
      <path d="M 54.890625 33.015625 
L 54.890625 0 
L 45.90625 0 
L 45.90625 32.71875 
Q 45.90625 40.484375 42.875 44.328125 
Q 39.84375 48.1875 33.796875 48.1875 
Q 26.515625 48.1875 22.3125 43.546875 
Q 18.109375 38.921875 18.109375 30.90625 
L 18.109375 0 
L 9.078125 0 
L 9.078125 75.984375 
L 18.109375 75.984375 
L 18.109375 46.1875 
Q 21.34375 51.125 25.703125 53.5625 
Q 30.078125 56 35.796875 56 
Q 45.21875 56 50.046875 50.171875 
Q 54.890625 44.34375 54.890625 33.015625 
z
" id="DejaVuSans-68"/>
     </defs>
     <g transform="translate(599.803438 149.634687)scale(0.1 -0.1)">
      <use xlink:href="#DejaVuSans-70"/>
      <use x="63.476562" xlink:href="#DejaVuSans-72"/>
      <use x="104.558594" xlink:href="#DejaVuSans-65"/>
      <use x="166.082031" xlink:href="#DejaVuSans-64"/>
      <use x="229.558594" xlink:href="#DejaVuSans-2e"/>
      <use x="261.345703" xlink:href="#DejaVuSans-28"/>
      <use x="300.359375" xlink:href="#DejaVuSans-35"/>
      <use x="363.982422" xlink:href="#DejaVuSans-74"/>
      <use x="403.191406" xlink:href="#DejaVuSans-68"/>
      <use x="466.570312" xlink:href="#DejaVuSans-20"/>
      <use x="498.357422" xlink:href="#DejaVuSans-70"/>
      <use x="561.833984" xlink:href="#DejaVuSans-65"/>
      <use x="623.357422" xlink:href="#DejaVuSans-72"/>
      <use x="664.439453" xlink:href="#DejaVuSans-63"/>
      <use x="719.419922" xlink:href="#DejaVuSans-65"/>
      <use x="780.943359" xlink:href="#DejaVuSans-6e"/>
      <use x="844.322266" xlink:href="#DejaVuSans-2e"/>
      <use x="876.109375" xlink:href="#DejaVuSans-29"/>
     </g>
    </g>
    <g id="line2d_23">
     <path d="M 571.803438 160.812812 
L 591.803438 160.812812 
" style="fill:none;stroke:#d62728;stroke-linecap:square;stroke-width:1.5;"/>
    </g>
    <g id="line2d_24"/>
    <g id="text_17">
     <!-- pred.(95th percen.) -->
     <defs>
      <path d="M 10.984375 1.515625 
L 10.984375 10.5 
Q 14.703125 8.734375 18.5 7.8125 
Q 22.3125 6.890625 25.984375 6.890625 
Q 35.75 6.890625 40.890625 13.453125 
Q 46.046875 20.015625 46.78125 33.40625 
Q 43.953125 29.203125 39.59375 26.953125 
Q 35.25 24.703125 29.984375 24.703125 
Q 19.046875 24.703125 12.671875 31.3125 
Q 6.296875 37.9375 6.296875 49.421875 
Q 6.296875 60.640625 12.9375 67.421875 
Q 19.578125 74.21875 30.609375 74.21875 
Q 43.265625 74.21875 49.921875 64.515625 
Q 56.59375 54.828125 56.59375 36.375 
Q 56.59375 19.140625 48.40625 8.859375 
Q 40.234375 -1.421875 26.421875 -1.421875 
Q 22.703125 -1.421875 18.890625 -0.6875 
Q 15.09375 0.046875 10.984375 1.515625 
z
M 30.609375 32.421875 
Q 37.25 32.421875 41.125 36.953125 
Q 45.015625 41.5 45.015625 49.421875 
Q 45.015625 57.28125 41.125 61.84375 
Q 37.25 66.40625 30.609375 66.40625 
Q 23.96875 66.40625 20.09375 61.84375 
Q 16.21875 57.28125 16.21875 49.421875 
Q 16.21875 41.5 20.09375 36.953125 
Q 23.96875 32.421875 30.609375 32.421875 
z
" id="DejaVuSans-39"/>
     </defs>
     <g transform="translate(599.803438 164.312812)scale(0.1 -0.1)">
      <use xlink:href="#DejaVuSans-70"/>
      <use x="63.476562" xlink:href="#DejaVuSans-72"/>
      <use x="104.558594" xlink:href="#DejaVuSans-65"/>
      <use x="166.082031" xlink:href="#DejaVuSans-64"/>
      <use x="229.558594" xlink:href="#DejaVuSans-2e"/>
      <use x="261.345703" xlink:href="#DejaVuSans-28"/>
      <use x="300.359375" xlink:href="#DejaVuSans-39"/>
      <use x="363.982422" xlink:href="#DejaVuSans-35"/>
      <use x="427.605469" xlink:href="#DejaVuSans-74"/>
      <use x="466.814453" xlink:href="#DejaVuSans-68"/>
      <use x="530.193359" xlink:href="#DejaVuSans-20"/>
      <use x="561.980469" xlink:href="#DejaVuSans-70"/>
      <use x="625.457031" xlink:href="#DejaVuSans-65"/>
      <use x="686.980469" xlink:href="#DejaVuSans-72"/>
      <use x="728.0625" xlink:href="#DejaVuSans-63"/>
      <use x="783.042969" xlink:href="#DejaVuSans-65"/>
      <use x="844.566406" xlink:href="#DejaVuSans-6e"/>
      <use x="907.945312" xlink:href="#DejaVuSans-2e"/>
      <use x="939.732422" xlink:href="#DejaVuSans-29"/>
     </g>
    </g>
   </g>
  </g>
 </g>
 <defs>
  <clipPath id="p1765938ffe">
   <rect height="718.36" width="650.59" x="56.09" y="103.68"/>
  </clipPath>
 </defs>
</svg>
