<?xml version="1.0" encoding="utf-8" standalone="no"?>
<!DOCTYPE svg PUBLIC "-//W3C//DTD SVG 1.1//EN"
  "http://www.w3.org/Graphics/SVG/1.1/DTD/svg11.dtd">
<!-- Created with matplotlib (http://matplotlib.org/) -->
<svg height="864pt" version="1.1" viewBox="0 0 720 864" width="720pt" xmlns="http://www.w3.org/2000/svg" xmlns:xlink="http://www.w3.org/1999/xlink">
 <defs>
  <style type="text/css">
*{stroke-linecap:butt;stroke-linejoin:round;}
  </style>
 </defs>
 <g id="figure_1">
  <g id="patch_1">
   <path d="M 0 864 
L 720 864 
L 720 0 
L 0 0 
z
" style="fill:#ffffff;"/>
  </g>
  <g id="axes_1">
   <g id="patch_2">
    <path d="M 56.09 822.04 
L 706.68 822.04 
L 706.68 103.68 
L 56.09 103.68 
z
" style="fill:#ffffff;"/>
   </g>
   <g id="PolyCollection_1">
    <path clip-path="url(#p7f61cfa737)" d="M 85.662273 291.856959 
L 85.662273 405.908063 
L 88.664534 395.539781 
L 91.666795 395.539781 
L 94.669056 395.539781 
L 97.671317 395.539781 
L 100.673579 405.908063 
L 103.67584 426.644627 
L 106.678101 457.749474 
L 109.680362 447.381192 
L 112.682623 437.012909 
L 115.684885 447.381192 
L 118.687146 468.117756 
L 121.689407 488.85432 
L 124.691668 509.590884 
L 127.693929 561.432295 
L 130.696191 602.905424 
L 133.698452 623.641988 
L 136.700713 644.378552 
L 139.702974 654.746834 
L 142.705235 685.851681 
L 145.707497 696.219963 
L 148.709758 696.219963 
L 151.712019 696.219963 
L 154.71428 696.219963 
L 157.716541 696.219963 
L 160.718802 696.219963 
L 163.721064 706.588245 
L 166.723325 706.588245 
L 169.725586 716.956527 
L 172.727847 716.956527 
L 175.730108 716.956527 
L 178.73237 716.956527 
L 181.734631 716.956527 
L 184.736892 716.956527 
L 187.739153 716.956527 
L 190.741414 716.956527 
L 193.743676 716.956527 
L 196.745937 716.956527 
L 199.748198 716.956527 
L 202.750459 716.956527 
L 205.75272 716.956527 
L 208.754982 716.956527 
L 211.757243 706.588245 
L 214.759504 706.588245 
L 217.761765 685.851681 
L 220.764026 665.115117 
L 223.766287 634.01027 
L 226.768549 602.905424 
L 229.77081 561.432295 
L 232.773071 509.590884 
L 235.775332 447.381192 
L 238.777593 416.276345 
L 241.779855 405.908063 
L 244.782116 395.539781 
L 247.784377 395.539781 
L 250.786638 395.539781 
L 253.788899 385.171499 
L 256.791161 385.171499 
L 259.793422 385.171499 
L 262.795683 385.171499 
L 265.797944 385.171499 
L 268.800205 374.803217 
L 271.802467 374.803217 
L 274.804728 385.171499 
L 277.806989 385.171499 
L 280.80925 385.171499 
L 283.811511 385.171499 
L 286.813772 395.539781 
L 289.816034 395.539781 
L 292.818295 395.539781 
L 295.820556 405.908063 
L 298.822817 405.908063 
L 301.825078 405.908063 
L 304.82734 426.644627 
L 307.829601 468.117756 
L 310.831862 488.85432 
L 313.834123 509.590884 
L 316.836384 540.695731 
L 319.838646 551.064013 
L 322.840907 571.800577 
L 325.843168 592.537142 
L 328.845429 613.273706 
L 331.84769 623.641988 
L 334.849952 634.01027 
L 337.852213 644.378552 
L 340.854474 644.378552 
L 343.856735 644.378552 
L 346.858996 644.378552 
L 349.861257 644.378552 
L 352.863519 634.01027 
L 355.86578 644.378552 
L 358.868041 665.115117 
L 361.870302 665.115117 
L 364.872563 675.483399 
L 367.874825 685.851681 
L 370.877086 696.219963 
L 373.879347 706.588245 
L 376.881608 706.588245 
L 379.883869 706.588245 
L 382.886131 706.588245 
L 385.888392 706.588245 
L 388.890653 706.588245 
L 391.892914 706.588245 
L 394.895175 716.956527 
L 397.897437 716.956527 
L 400.899698 716.956527 
L 403.901959 727.324809 
L 406.90422 727.324809 
L 409.906481 727.324809 
L 412.908743 727.324809 
L 415.911004 727.324809 
L 418.913265 727.324809 
L 421.915526 727.324809 
L 424.917787 716.956527 
L 427.920048 716.956527 
L 430.92231 706.588245 
L 433.924571 706.588245 
L 436.926832 696.219963 
L 439.929093 685.851681 
L 442.931354 665.115117 
L 445.933616 644.378552 
L 448.935877 623.641988 
L 451.938138 602.905424 
L 454.940399 582.168859 
L 457.94266 561.432295 
L 460.944922 551.064013 
L 463.947183 530.327449 
L 466.949444 488.85432 
L 469.951705 478.486038 
L 472.953966 468.117756 
L 475.956228 437.012909 
L 478.958489 416.276345 
L 481.96075 416.276345 
L 484.963011 416.276345 
L 487.965272 416.276345 
L 490.967533 405.908063 
L 493.969795 416.276345 
L 496.972056 457.749474 
L 499.974317 426.644627 
L 502.976578 416.276345 
L 505.978839 416.276345 
L 508.981101 447.381192 
L 511.983362 426.644627 
L 514.985623 416.276345 
L 517.987884 447.381192 
L 520.990145 478.486038 
L 523.992407 478.486038 
L 526.994668 478.486038 
L 529.996929 478.486038 
L 532.99919 488.85432 
L 536.001451 478.486038 
L 539.003713 468.117756 
L 542.005974 478.486038 
L 545.008235 519.959167 
L 548.010496 551.064013 
L 551.012757 540.695731 
L 554.015018 551.064013 
L 557.01728 592.537142 
L 560.019541 602.905424 
L 563.021802 623.641988 
L 566.024063 634.01027 
L 569.026324 665.115117 
L 572.028586 685.851681 
L 575.030847 696.219963 
L 578.033108 696.219963 
L 581.035369 706.588245 
L 584.03763 716.956527 
L 587.039892 716.956527 
L 590.042153 716.956527 
L 593.044414 727.324809 
L 596.046675 727.324809 
L 599.048936 727.324809 
L 602.051198 727.324809 
L 605.053459 727.324809 
L 608.05572 727.324809 
L 611.057981 727.324809 
L 614.060242 727.324809 
L 617.062503 727.324809 
L 620.064765 727.324809 
L 623.067026 727.324809 
L 626.069287 727.324809 
L 629.071548 727.324809 
L 632.073809 727.324809 
L 635.076071 716.956527 
L 638.078332 716.956527 
L 641.080593 706.588245 
L 644.082854 696.219963 
L 647.085115 675.483399 
L 650.087377 654.746834 
L 653.089638 613.273706 
L 656.091899 561.432295 
L 659.09416 519.959167 
L 662.096421 488.85432 
L 665.098683 468.117756 
L 668.100944 437.012909 
L 671.103205 447.381192 
L 674.105466 457.749474 
L 677.107727 447.381192 
L 677.107727 364.434934 
L 677.107727 364.434934 
L 674.105466 364.434934 
L 671.103205 364.434934 
L 668.100944 364.434934 
L 665.098683 374.803217 
L 662.096421 374.803217 
L 659.09416 385.171499 
L 656.091899 395.539781 
L 653.089638 405.908063 
L 650.087377 416.276345 
L 647.085115 426.644627 
L 644.082854 426.644627 
L 641.080593 437.012909 
L 638.078332 437.012909 
L 635.076071 437.012909 
L 632.073809 437.012909 
L 629.071548 437.012909 
L 626.069287 437.012909 
L 623.067026 437.012909 
L 620.064765 437.012909 
L 617.062503 437.012909 
L 614.060242 437.012909 
L 611.057981 437.012909 
L 608.05572 437.012909 
L 605.053459 437.012909 
L 602.051198 437.012909 
L 599.048936 437.012909 
L 596.046675 437.012909 
L 593.044414 437.012909 
L 590.042153 437.012909 
L 587.039892 437.012909 
L 584.03763 437.012909 
L 581.035369 426.644627 
L 578.033108 426.644627 
L 575.030847 426.644627 
L 572.028586 426.644627 
L 569.026324 416.276345 
L 566.024063 416.276345 
L 563.021802 405.908063 
L 560.019541 405.908063 
L 557.01728 395.539781 
L 554.015018 395.539781 
L 551.012757 395.539781 
L 548.010496 385.171499 
L 545.008235 385.171499 
L 542.005974 374.803217 
L 539.003713 374.803217 
L 536.001451 374.803217 
L 532.99919 374.803217 
L 529.996929 374.803217 
L 526.994668 374.803217 
L 523.992407 374.803217 
L 520.990145 374.803217 
L 517.987884 354.066652 
L 514.985623 343.69837 
L 511.983362 354.066652 
L 508.981101 364.434934 
L 505.978839 343.69837 
L 502.976578 343.69837 
L 499.974317 354.066652 
L 496.972056 364.434934 
L 493.969795 333.330088 
L 490.967533 333.330088 
L 487.965272 343.69837 
L 484.963011 354.066652 
L 481.96075 343.69837 
L 478.958489 333.330088 
L 475.956228 364.434934 
L 472.953966 374.803217 
L 469.951705 374.803217 
L 466.949444 385.171499 
L 463.947183 385.171499 
L 460.944922 395.539781 
L 457.94266 395.539781 
L 454.940399 395.539781 
L 451.938138 405.908063 
L 448.935877 405.908063 
L 445.933616 416.276345 
L 442.931354 416.276345 
L 439.929093 426.644627 
L 436.926832 426.644627 
L 433.924571 426.644627 
L 430.92231 437.012909 
L 427.920048 437.012909 
L 424.917787 437.012909 
L 421.915526 437.012909 
L 418.913265 437.012909 
L 415.911004 437.012909 
L 412.908743 437.012909 
L 409.906481 437.012909 
L 406.90422 437.012909 
L 403.901959 437.012909 
L 400.899698 437.012909 
L 397.897437 437.012909 
L 394.895175 437.012909 
L 391.892914 437.012909 
L 388.890653 426.644627 
L 385.888392 426.644627 
L 382.886131 426.644627 
L 379.883869 426.644627 
L 376.881608 426.644627 
L 373.879347 426.644627 
L 370.877086 426.644627 
L 367.874825 426.644627 
L 364.872563 426.644627 
L 361.870302 416.276345 
L 358.868041 416.276345 
L 355.86578 416.276345 
L 352.863519 416.276345 
L 349.861257 416.276345 
L 346.858996 416.276345 
L 343.856735 416.276345 
L 340.854474 416.276345 
L 337.852213 416.276345 
L 334.849952 416.276345 
L 331.84769 405.908063 
L 328.845429 405.908063 
L 325.843168 405.908063 
L 322.840907 395.539781 
L 319.838646 395.539781 
L 316.836384 385.171499 
L 313.834123 385.171499 
L 310.831862 374.803217 
L 307.829601 364.434934 
L 304.82734 354.066652 
L 301.825078 343.69837 
L 298.822817 333.330088 
L 295.820556 322.961806 
L 292.818295 302.225242 
L 289.816034 260.752113 
L 286.813772 229.647267 
L 283.811511 219.278984 
L 280.80925 188.174138 
L 277.806989 167.437574 
L 274.804728 146.701009 
L 271.802467 136.332727 
L 268.800205 146.701009 
L 265.797944 146.701009 
L 262.795683 157.069292 
L 259.793422 177.805856 
L 256.791161 198.54242 
L 253.788899 219.278984 
L 250.786638 229.647267 
L 247.784377 250.383831 
L 244.782116 271.120395 
L 241.779855 302.225242 
L 238.777593 333.330088 
L 235.775332 364.434934 
L 232.773071 385.171499 
L 229.77081 395.539781 
L 226.768549 405.908063 
L 223.766287 416.276345 
L 220.764026 416.276345 
L 217.761765 426.644627 
L 214.759504 426.644627 
L 211.757243 437.012909 
L 208.754982 437.012909 
L 205.75272 437.012909 
L 202.750459 437.012909 
L 199.748198 437.012909 
L 196.745937 437.012909 
L 193.743676 437.012909 
L 190.741414 437.012909 
L 187.739153 437.012909 
L 184.736892 437.012909 
L 181.734631 437.012909 
L 178.73237 437.012909 
L 175.730108 437.012909 
L 172.727847 437.012909 
L 169.725586 437.012909 
L 166.723325 426.644627 
L 163.721064 426.644627 
L 160.718802 426.644627 
L 157.716541 426.644627 
L 154.71428 426.644627 
L 151.712019 426.644627 
L 148.709758 426.644627 
L 145.707497 426.644627 
L 142.705235 426.644627 
L 139.702974 416.276345 
L 136.700713 416.276345 
L 133.698452 405.908063 
L 130.696191 395.539781 
L 127.693929 395.539781 
L 124.691668 385.171499 
L 121.689407 374.803217 
L 118.687146 374.803217 
L 115.684885 364.434934 
L 112.682623 364.434934 
L 109.680362 364.434934 
L 106.678101 364.434934 
L 103.67584 343.69837 
L 100.673579 302.225242 
L 97.671317 271.120395 
L 94.669056 250.383831 
L 91.666795 250.383831 
L 88.664534 250.383831 
L 85.662273 291.856959 
z
" style="fill:#008000;fill-opacity:0.4;"/>
   </g>
   <g id="matplotlib.axis_1">
    <g id="xtick_1">
     <g id="line2d_1">
      <defs>
       <path d="M 0 0 
L 0 3.5 
" id="ma2ff053023" style="stroke:#000000;stroke-width:0.8;"/>
      </defs>
      <g>
       <use style="stroke:#000000;stroke-width:0.8;" x="85.662273" xlink:href="#ma2ff053023" y="822.04"/>
      </g>
     </g>
     <g id="text_1">
      <!-- 0.0 -->
      <defs>
       <path d="M 31.78125 66.40625 
Q 24.171875 66.40625 20.328125 58.90625 
Q 16.5 51.421875 16.5 36.375 
Q 16.5 21.390625 20.328125 13.890625 
Q 24.171875 6.390625 31.78125 6.390625 
Q 39.453125 6.390625 43.28125 13.890625 
Q 47.125 21.390625 47.125 36.375 
Q 47.125 51.421875 43.28125 58.90625 
Q 39.453125 66.40625 31.78125 66.40625 
z
M 31.78125 74.21875 
Q 44.046875 74.21875 50.515625 64.515625 
Q 56.984375 54.828125 56.984375 36.375 
Q 56.984375 17.96875 50.515625 8.265625 
Q 44.046875 -1.421875 31.78125 -1.421875 
Q 19.53125 -1.421875 13.0625 8.265625 
Q 6.59375 17.96875 6.59375 36.375 
Q 6.59375 54.828125 13.0625 64.515625 
Q 19.53125 74.21875 31.78125 74.21875 
z
" id="DejaVuSans-30"/>
       <path d="M 10.6875 12.40625 
L 21 12.40625 
L 21 0 
L 10.6875 0 
z
" id="DejaVuSans-2e"/>
      </defs>
      <g transform="translate(77.71071 836.638438)scale(0.1 -0.1)">
       <use xlink:href="#DejaVuSans-30"/>
       <use x="63.623047" xlink:href="#DejaVuSans-2e"/>
       <use x="95.410156" xlink:href="#DejaVuSans-30"/>
      </g>
     </g>
    </g>
    <g id="xtick_2">
     <g id="line2d_2">
      <g>
       <use style="stroke:#000000;stroke-width:0.8;" x="203.951364" xlink:href="#ma2ff053023" y="822.04"/>
      </g>
     </g>
     <g id="text_2">
      <!-- 0.2 -->
      <defs>
       <path d="M 19.1875 8.296875 
L 53.609375 8.296875 
L 53.609375 0 
L 7.328125 0 
L 7.328125 8.296875 
Q 12.9375 14.109375 22.625 23.890625 
Q 32.328125 33.6875 34.8125 36.53125 
Q 39.546875 41.84375 41.421875 45.53125 
Q 43.3125 49.21875 43.3125 52.78125 
Q 43.3125 58.59375 39.234375 62.25 
Q 35.15625 65.921875 28.609375 65.921875 
Q 23.96875 65.921875 18.8125 64.3125 
Q 13.671875 62.703125 7.8125 59.421875 
L 7.8125 69.390625 
Q 13.765625 71.78125 18.9375 73 
Q 24.125 74.21875 28.421875 74.21875 
Q 39.75 74.21875 46.484375 68.546875 
Q 53.21875 62.890625 53.21875 53.421875 
Q 53.21875 48.921875 51.53125 44.890625 
Q 49.859375 40.875 45.40625 35.40625 
Q 44.1875 33.984375 37.640625 27.21875 
Q 31.109375 20.453125 19.1875 8.296875 
z
" id="DejaVuSans-32"/>
      </defs>
      <g transform="translate(195.999801 836.638438)scale(0.1 -0.1)">
       <use xlink:href="#DejaVuSans-30"/>
       <use x="63.623047" xlink:href="#DejaVuSans-2e"/>
       <use x="95.410156" xlink:href="#DejaVuSans-32"/>
      </g>
     </g>
    </g>
    <g id="xtick_3">
     <g id="line2d_3">
      <g>
       <use style="stroke:#000000;stroke-width:0.8;" x="322.240455" xlink:href="#ma2ff053023" y="822.04"/>
      </g>
     </g>
     <g id="text_3">
      <!-- 0.4 -->
      <defs>
       <path d="M 37.796875 64.3125 
L 12.890625 25.390625 
L 37.796875 25.390625 
z
M 35.203125 72.90625 
L 47.609375 72.90625 
L 47.609375 25.390625 
L 58.015625 25.390625 
L 58.015625 17.1875 
L 47.609375 17.1875 
L 47.609375 0 
L 37.796875 0 
L 37.796875 17.1875 
L 4.890625 17.1875 
L 4.890625 26.703125 
z
" id="DejaVuSans-34"/>
      </defs>
      <g transform="translate(314.288892 836.638438)scale(0.1 -0.1)">
       <use xlink:href="#DejaVuSans-30"/>
       <use x="63.623047" xlink:href="#DejaVuSans-2e"/>
       <use x="95.410156" xlink:href="#DejaVuSans-34"/>
      </g>
     </g>
    </g>
    <g id="xtick_4">
     <g id="line2d_4">
      <g>
       <use style="stroke:#000000;stroke-width:0.8;" x="440.529545" xlink:href="#ma2ff053023" y="822.04"/>
      </g>
     </g>
     <g id="text_4">
      <!-- 0.6 -->
      <defs>
       <path d="M 33.015625 40.375 
Q 26.375 40.375 22.484375 35.828125 
Q 18.609375 31.296875 18.609375 23.390625 
Q 18.609375 15.53125 22.484375 10.953125 
Q 26.375 6.390625 33.015625 6.390625 
Q 39.65625 6.390625 43.53125 10.953125 
Q 47.40625 15.53125 47.40625 23.390625 
Q 47.40625 31.296875 43.53125 35.828125 
Q 39.65625 40.375 33.015625 40.375 
z
M 52.59375 71.296875 
L 52.59375 62.3125 
Q 48.875 64.0625 45.09375 64.984375 
Q 41.3125 65.921875 37.59375 65.921875 
Q 27.828125 65.921875 22.671875 59.328125 
Q 17.53125 52.734375 16.796875 39.40625 
Q 19.671875 43.65625 24.015625 45.921875 
Q 28.375 48.1875 33.59375 48.1875 
Q 44.578125 48.1875 50.953125 41.515625 
Q 57.328125 34.859375 57.328125 23.390625 
Q 57.328125 12.15625 50.6875 5.359375 
Q 44.046875 -1.421875 33.015625 -1.421875 
Q 20.359375 -1.421875 13.671875 8.265625 
Q 6.984375 17.96875 6.984375 36.375 
Q 6.984375 53.65625 15.1875 63.9375 
Q 23.390625 74.21875 37.203125 74.21875 
Q 40.921875 74.21875 44.703125 73.484375 
Q 48.484375 72.75 52.59375 71.296875 
z
" id="DejaVuSans-36"/>
      </defs>
      <g transform="translate(432.577983 836.638438)scale(0.1 -0.1)">
       <use xlink:href="#DejaVuSans-30"/>
       <use x="63.623047" xlink:href="#DejaVuSans-2e"/>
       <use x="95.410156" xlink:href="#DejaVuSans-36"/>
      </g>
     </g>
    </g>
    <g id="xtick_5">
     <g id="line2d_5">
      <g>
       <use style="stroke:#000000;stroke-width:0.8;" x="558.818636" xlink:href="#ma2ff053023" y="822.04"/>
      </g>
     </g>
     <g id="text_5">
      <!-- 0.8 -->
      <defs>
       <path d="M 31.78125 34.625 
Q 24.75 34.625 20.71875 30.859375 
Q 16.703125 27.09375 16.703125 20.515625 
Q 16.703125 13.921875 20.71875 10.15625 
Q 24.75 6.390625 31.78125 6.390625 
Q 38.8125 6.390625 42.859375 10.171875 
Q 46.921875 13.96875 46.921875 20.515625 
Q 46.921875 27.09375 42.890625 30.859375 
Q 38.875 34.625 31.78125 34.625 
z
M 21.921875 38.8125 
Q 15.578125 40.375 12.03125 44.71875 
Q 8.5 49.078125 8.5 55.328125 
Q 8.5 64.0625 14.71875 69.140625 
Q 20.953125 74.21875 31.78125 74.21875 
Q 42.671875 74.21875 48.875 69.140625 
Q 55.078125 64.0625 55.078125 55.328125 
Q 55.078125 49.078125 51.53125 44.71875 
Q 48 40.375 41.703125 38.8125 
Q 48.828125 37.15625 52.796875 32.3125 
Q 56.78125 27.484375 56.78125 20.515625 
Q 56.78125 9.90625 50.3125 4.234375 
Q 43.84375 -1.421875 31.78125 -1.421875 
Q 19.734375 -1.421875 13.25 4.234375 
Q 6.78125 9.90625 6.78125 20.515625 
Q 6.78125 27.484375 10.78125 32.3125 
Q 14.796875 37.15625 21.921875 38.8125 
z
M 18.3125 54.390625 
Q 18.3125 48.734375 21.84375 45.5625 
Q 25.390625 42.390625 31.78125 42.390625 
Q 38.140625 42.390625 41.71875 45.5625 
Q 45.3125 48.734375 45.3125 54.390625 
Q 45.3125 60.0625 41.71875 63.234375 
Q 38.140625 66.40625 31.78125 66.40625 
Q 25.390625 66.40625 21.84375 63.234375 
Q 18.3125 60.0625 18.3125 54.390625 
z
" id="DejaVuSans-38"/>
      </defs>
      <g transform="translate(550.867074 836.638438)scale(0.1 -0.1)">
       <use xlink:href="#DejaVuSans-30"/>
       <use x="63.623047" xlink:href="#DejaVuSans-2e"/>
       <use x="95.410156" xlink:href="#DejaVuSans-38"/>
      </g>
     </g>
    </g>
    <g id="xtick_6">
     <g id="line2d_6">
      <g>
       <use style="stroke:#000000;stroke-width:0.8;" x="677.107727" xlink:href="#ma2ff053023" y="822.04"/>
      </g>
     </g>
     <g id="text_6">
      <!-- 1.0 -->
      <defs>
       <path d="M 12.40625 8.296875 
L 28.515625 8.296875 
L 28.515625 63.921875 
L 10.984375 60.40625 
L 10.984375 69.390625 
L 28.421875 72.90625 
L 38.28125 72.90625 
L 38.28125 8.296875 
L 54.390625 8.296875 
L 54.390625 0 
L 12.40625 0 
z
" id="DejaVuSans-31"/>
      </defs>
      <g transform="translate(669.156165 836.638438)scale(0.1 -0.1)">
       <use xlink:href="#DejaVuSans-31"/>
       <use x="63.623047" xlink:href="#DejaVuSans-2e"/>
       <use x="95.410156" xlink:href="#DejaVuSans-30"/>
      </g>
     </g>
    </g>
   </g>
   <g id="matplotlib.axis_2">
    <g id="ytick_1">
     <g id="line2d_7">
      <defs>
       <path d="M 0 0 
L -3.5 0 
" id="m148d0370be" style="stroke:#000000;stroke-width:0.8;"/>
      </defs>
      <g>
       <use style="stroke:#000000;stroke-width:0.8;" x="56.09" xlink:href="#m148d0370be" y="799.902784"/>
      </g>
     </g>
     <g id="text_7">
      <!-- 0.0 -->
      <g transform="translate(33.186875 803.702003)scale(0.1 -0.1)">
       <use xlink:href="#DejaVuSans-30"/>
       <use x="63.623047" xlink:href="#DejaVuSans-2e"/>
       <use x="95.410156" xlink:href="#DejaVuSans-30"/>
      </g>
     </g>
    </g>
    <g id="ytick_2">
     <g id="line2d_8">
      <g>
       <use style="stroke:#000000;stroke-width:0.8;" x="56.09" xlink:href="#m148d0370be" y="696.219963"/>
      </g>
     </g>
     <g id="text_8">
      <!-- 0.1 -->
      <g transform="translate(33.186875 700.019182)scale(0.1 -0.1)">
       <use xlink:href="#DejaVuSans-30"/>
       <use x="63.623047" xlink:href="#DejaVuSans-2e"/>
       <use x="95.410156" xlink:href="#DejaVuSans-31"/>
      </g>
     </g>
    </g>
    <g id="ytick_3">
     <g id="line2d_9">
      <g>
       <use style="stroke:#000000;stroke-width:0.8;" x="56.09" xlink:href="#m148d0370be" y="592.537142"/>
      </g>
     </g>
     <g id="text_9">
      <!-- 0.2 -->
      <g transform="translate(33.186875 596.33636)scale(0.1 -0.1)">
       <use xlink:href="#DejaVuSans-30"/>
       <use x="63.623047" xlink:href="#DejaVuSans-2e"/>
       <use x="95.410156" xlink:href="#DejaVuSans-32"/>
      </g>
     </g>
    </g>
    <g id="ytick_4">
     <g id="line2d_10">
      <g>
       <use style="stroke:#000000;stroke-width:0.8;" x="56.09" xlink:href="#m148d0370be" y="488.85432"/>
      </g>
     </g>
     <g id="text_10">
      <!-- 0.3 -->
      <defs>
       <path d="M 40.578125 39.3125 
Q 47.65625 37.796875 51.625 33 
Q 55.609375 28.21875 55.609375 21.1875 
Q 55.609375 10.40625 48.1875 4.484375 
Q 40.765625 -1.421875 27.09375 -1.421875 
Q 22.515625 -1.421875 17.65625 -0.515625 
Q 12.796875 0.390625 7.625 2.203125 
L 7.625 11.71875 
Q 11.71875 9.328125 16.59375 8.109375 
Q 21.484375 6.890625 26.8125 6.890625 
Q 36.078125 6.890625 40.9375 10.546875 
Q 45.796875 14.203125 45.796875 21.1875 
Q 45.796875 27.640625 41.28125 31.265625 
Q 36.765625 34.90625 28.71875 34.90625 
L 20.21875 34.90625 
L 20.21875 43.015625 
L 29.109375 43.015625 
Q 36.375 43.015625 40.234375 45.921875 
Q 44.09375 48.828125 44.09375 54.296875 
Q 44.09375 59.90625 40.109375 62.90625 
Q 36.140625 65.921875 28.71875 65.921875 
Q 24.65625 65.921875 20.015625 65.03125 
Q 15.375 64.15625 9.8125 62.3125 
L 9.8125 71.09375 
Q 15.4375 72.65625 20.34375 73.4375 
Q 25.25 74.21875 29.59375 74.21875 
Q 40.828125 74.21875 47.359375 69.109375 
Q 53.90625 64.015625 53.90625 55.328125 
Q 53.90625 49.265625 50.4375 45.09375 
Q 46.96875 40.921875 40.578125 39.3125 
z
" id="DejaVuSans-33"/>
      </defs>
      <g transform="translate(33.186875 492.653539)scale(0.1 -0.1)">
       <use xlink:href="#DejaVuSans-30"/>
       <use x="63.623047" xlink:href="#DejaVuSans-2e"/>
       <use x="95.410156" xlink:href="#DejaVuSans-33"/>
      </g>
     </g>
    </g>
    <g id="ytick_5">
     <g id="line2d_11">
      <g>
       <use style="stroke:#000000;stroke-width:0.8;" x="56.09" xlink:href="#m148d0370be" y="385.171499"/>
      </g>
     </g>
     <g id="text_11">
      <!-- 0.4 -->
      <g transform="translate(33.186875 388.970717)scale(0.1 -0.1)">
       <use xlink:href="#DejaVuSans-30"/>
       <use x="63.623047" xlink:href="#DejaVuSans-2e"/>
       <use x="95.410156" xlink:href="#DejaVuSans-34"/>
      </g>
     </g>
    </g>
    <g id="ytick_6">
     <g id="line2d_12">
      <g>
       <use style="stroke:#000000;stroke-width:0.8;" x="56.09" xlink:href="#m148d0370be" y="281.488677"/>
      </g>
     </g>
     <g id="text_12">
      <!-- 0.5 -->
      <defs>
       <path d="M 10.796875 72.90625 
L 49.515625 72.90625 
L 49.515625 64.59375 
L 19.828125 64.59375 
L 19.828125 46.734375 
Q 21.96875 47.46875 24.109375 47.828125 
Q 26.265625 48.1875 28.421875 48.1875 
Q 40.625 48.1875 47.75 41.5 
Q 54.890625 34.8125 54.890625 23.390625 
Q 54.890625 11.625 47.5625 5.09375 
Q 40.234375 -1.421875 26.90625 -1.421875 
Q 22.3125 -1.421875 17.546875 -0.640625 
Q 12.796875 0.140625 7.71875 1.703125 
L 7.71875 11.625 
Q 12.109375 9.234375 16.796875 8.0625 
Q 21.484375 6.890625 26.703125 6.890625 
Q 35.15625 6.890625 40.078125 11.328125 
Q 45.015625 15.765625 45.015625 23.390625 
Q 45.015625 31 40.078125 35.4375 
Q 35.15625 39.890625 26.703125 39.890625 
Q 22.75 39.890625 18.8125 39.015625 
Q 14.890625 38.140625 10.796875 36.28125 
z
" id="DejaVuSans-35"/>
      </defs>
      <g transform="translate(33.186875 285.287896)scale(0.1 -0.1)">
       <use xlink:href="#DejaVuSans-30"/>
       <use x="63.623047" xlink:href="#DejaVuSans-2e"/>
       <use x="95.410156" xlink:href="#DejaVuSans-35"/>
      </g>
     </g>
    </g>
    <g id="ytick_7">
     <g id="line2d_13">
      <g>
       <use style="stroke:#000000;stroke-width:0.8;" x="56.09" xlink:href="#m148d0370be" y="177.805856"/>
      </g>
     </g>
     <g id="text_13">
      <!-- 0.6 -->
      <g transform="translate(33.186875 181.605075)scale(0.1 -0.1)">
       <use xlink:href="#DejaVuSans-30"/>
       <use x="63.623047" xlink:href="#DejaVuSans-2e"/>
       <use x="95.410156" xlink:href="#DejaVuSans-36"/>
      </g>
     </g>
    </g>
   </g>
   <g id="line2d_14">
    <path clip-path="url(#p7f61cfa737)" d="M 85.662273 288.148225 
L 88.664534 276.931817 
L 91.666795 297.261945 
L 94.669056 299.364633 
L 97.671317 346.333987 
L 100.673579 387.695139 
L 103.67584 419.94257 
L 106.678101 412.932574 
L 109.680362 397.509754 
L 112.682623 415.035262 
L 115.684885 428.355394 
L 118.687146 456.396413 
L 121.689407 469.014612 
L 124.691668 513.180384 
L 127.693929 560.850635 
L 133.698452 619.036397 
L 136.700713 636.561904 
L 139.702974 682.129468 
L 142.705235 702.459181 
L 145.707497 708.768488 
L 148.709758 716.479794 
L 151.712019 710.87159 
L 154.71428 708.768488 
L 157.716541 708.768488 
L 160.718802 719.984999 
L 163.721064 739.61392 
L 166.723325 745.222227 
L 169.725586 748.727329 
L 172.727847 759.24284 
L 175.730108 759.24284 
L 178.73237 762.748045 
L 181.734631 754.335636 
L 184.736892 750.129431 
L 187.739153 756.438738 
L 190.741414 755.737739 
L 193.743676 759.94384 
L 196.745937 760.644943 
L 199.748198 764.851148 
L 202.750459 759.24284 
L 205.75272 750.830431 
L 208.754982 739.61392 
L 211.757243 724.191204 
L 214.759504 684.232155 
L 217.761765 635.861009 
L 220.764026 595.200753 
L 223.766287 557.345118 
L 226.768549 501.963976 
L 229.77081 449.386417 
L 232.773071 403.818854 
L 235.775332 365.262323 
L 238.777593 335.11758 
L 241.779855 302.169253 
L 244.782116 286.045537 
L 247.784377 272.024509 
L 250.786638 259.40631 
L 256.791161 220.849779 
L 259.793422 207.529647 
L 262.795683 194.911448 
L 265.797944 201.921443 
L 268.800205 191.405932 
L 271.802467 195.612344 
L 274.804728 220.849779 
L 277.806989 243.282594 
L 280.80925 269.921822 
L 283.811511 271.323613 
L 286.813772 300.066565 
L 289.816034 342.829508 
L 292.818295 349.839504 
L 295.820556 354.746812 
L 298.822817 374.376043 
L 301.825078 391.901551 
L 304.82734 431.859873 
L 310.831862 473.221024 
L 313.834123 498.45846 
L 316.836384 508.273076 
L 319.838646 533.510511 
L 322.840907 552.43781 
L 325.843168 575.572558 
L 328.845429 588.891654 
L 331.84769 613.428193 
L 334.849952 619.737293 
L 340.854474 615.530881 
L 343.856735 620.438189 
L 346.858996 619.737293 
L 349.861257 606.417161 
L 355.86578 646.37652 
L 358.868041 657.592928 
L 361.870302 663.902028 
L 364.872563 694.046771 
L 367.874825 714.376691 
L 370.877086 719.984999 
L 373.879347 723.490204 
L 376.881608 720.685998 
L 379.883869 726.294306 
L 382.886131 725.593306 
L 385.888392 730.500511 
L 388.890653 742.418021 
L 394.895175 762.046942 
L 397.897437 769.057352 
L 400.899698 777.469762 
L 403.901959 780.273864 
L 406.90422 778.170761 
L 409.906481 774.665556 
L 412.908743 780.273864 
L 415.911004 780.974863 
L 418.913265 772.562454 
L 421.915526 764.851148 
L 424.917787 757.840737 
L 427.920048 744.521124 
L 430.92231 725.593306 
L 433.924571 698.252976 
L 436.926832 681.428572 
L 439.929093 642.170108 
L 442.931354 613.428193 
L 445.933616 592.39717 
L 448.935877 565.057047 
L 451.938138 535.613199 
L 454.940399 511.778592 
L 457.94266 508.273076 
L 460.944922 474.623853 
L 463.947183 446.581797 
L 466.949444 440.272697 
L 469.951705 424.849878 
L 472.953966 403.117958 
L 475.956228 355.447707 
L 478.958489 376.478731 
L 481.96075 382.787831 
L 484.963011 368.766803 
L 487.965272 349.839504 
L 490.967533 370.169631 
L 493.969795 424.849878 
L 496.972056 382.086935 
L 499.974317 362.457703 
L 502.976578 378.581419 
L 505.978839 414.334366 
L 508.981101 382.086935 
L 511.983362 359.65412 
L 514.985623 408.726162 
L 517.987884 447.282693 
L 520.990145 445.180005 
L 523.992407 438.17001 
L 526.994668 436.066285 
L 529.996929 457.097309 
L 532.99919 445.880901 
L 536.001451 427.654498 
L 539.003713 445.180005 
L 542.005974 474.623853 
L 545.008235 514.582175 
L 548.010496 496.355772 
L 551.012757 514.582175 
L 554.015018 551.736915 
L 557.01728 569.964355 
L 560.019541 588.891654 
L 563.021802 605.716265 
L 566.024063 655.49024 
L 569.026324 689.840359 
L 572.028586 701.758077 
L 575.030847 710.170487 
L 578.033108 721.387102 
L 581.035369 747.325329 
L 584.03763 759.24284 
L 587.039892 764.150045 
L 590.042153 771.861454 
L 593.044414 778.170761 
L 596.046675 778.871761 
L 599.048936 776.067659 
L 602.051198 776.067659 
L 605.053459 772.562454 
L 608.05572 775.36666 
L 611.057981 780.273864 
L 614.060242 782.376966 
L 617.062503 787.28417 
L 620.064765 789.387273 
L 623.067026 789.387273 
L 626.069287 783.077966 
L 629.071548 772.562454 
L 632.073809 764.851148 
L 635.076071 754.335636 
L 638.078332 738.211817 
L 641.080593 709.469487 
L 647.085115 629.551909 
L 650.087377 555.943327 
L 653.089638 503.365768 
L 656.091899 471.118337 
L 659.09416 450.788209 
L 662.096421 422.046294 
L 665.098683 389.09693 
L 668.100944 410.127954 
L 671.103205 423.448086 
L 674.105466 405.220646 
L 677.107727 377.880523 
L 677.107727 377.880523 
" style="fill:none;stroke:#1f77b4;stroke-linecap:square;stroke-width:1.5;"/>
   </g>
   <g id="line2d_15">
    <path clip-path="url(#p7f61cfa737)" d="M 85.662273 332.072797 
L 88.664534 297.573976 
L 91.666795 287.277316 
L 94.669056 295.979307 
L 97.671317 306.980736 
L 100.673579 344.229335 
L 103.67584 385.762082 
L 106.678101 417.43159 
L 109.680362 417.025726 
L 112.682623 407.227427 
L 115.684885 415.992582 
L 118.687146 431.834498 
L 121.689407 454.355362 
L 124.691668 472.700264 
L 127.693929 504.069501 
L 130.696191 540.682361 
L 133.698452 565.284521 
L 136.700713 582.611149 
L 139.702974 595.636985 
L 142.705235 614.402348 
L 145.707497 627.067887 
L 148.709758 630.534713 
L 151.712019 633.381898 
L 154.71428 632.664303 
L 157.716541 631.512469 
L 160.718802 631.869356 
L 163.721064 635.624994 
L 166.723325 641.597124 
L 169.725586 645.105151 
L 172.727847 646.698592 
L 175.730108 648.945508 
L 178.73237 650.332265 
L 181.734631 650.85027 
L 184.736892 648.968018 
L 187.739153 647.354249 
L 190.741414 648.245922 
L 193.743676 648.913448 
L 196.745937 649.907439 
L 199.748198 650.588471 
L 202.750459 651.794739 
L 205.75272 650.368009 
L 208.754982 647.422325 
L 211.757243 643.967914 
L 214.759504 636.920756 
L 217.761765 622.427944 
L 220.764026 599.509129 
L 223.766287 575.087186 
L 226.768549 547.367857 
L 229.77081 508.165109 
L 232.773071 459.783567 
L 235.775332 416.691622 
L 238.777593 375.524631 
L 241.779855 342.132077 
L 244.782116 311.235824 
L 247.784377 291.275926 
L 250.786638 278.773142 
L 253.788899 265.408154 
L 259.793422 231.170176 
L 262.795683 218.699179 
L 265.797944 209.178095 
L 268.800205 209.744667 
L 271.802467 204.043612 
L 274.804728 209.016704 
L 277.806989 226.514681 
L 280.80925 247.161069 
L 283.811511 268.872115 
L 286.813772 278.272327 
L 289.816034 302.281312 
L 292.818295 337.451617 
L 295.820556 352.958338 
L 298.822817 360.043285 
L 301.825078 374.860924 
L 304.82734 396.573608 
L 307.829601 427.946392 
L 310.831862 452.529453 
L 313.834123 473.507353 
L 316.836384 493.102178 
L 319.838646 506.640835 
L 322.840907 522.313585 
L 325.843168 539.533392 
L 328.845429 554.984724 
L 331.84769 566.020533 
L 334.849952 578.896302 
L 337.852213 584.831734 
L 340.854474 585.318907 
L 343.856735 584.679894 
L 346.858996 585.835002 
L 349.861257 584.284398 
L 352.863519 581.00843 
L 355.86578 589.374406 
L 358.868041 599.718951 
L 361.870302 605.690126 
L 364.872563 611.14125 
L 367.874825 622.397521 
L 370.877086 631.685729 
L 373.879347 635.524585 
L 376.881608 636.351183 
L 379.883869 636.614892 
L 382.886131 637.51434 
L 385.888392 637.928799 
L 388.890653 639.455665 
L 394.895175 647.355477 
L 397.897437 650.722713 
L 400.899698 653.082179 
L 403.901959 655.716678 
L 406.90422 656.728541 
L 412.908743 655.833594 
L 415.911004 656.451053 
L 418.913265 656.888976 
L 421.915526 655.053517 
L 427.920048 649.786976 
L 430.92231 645.320156 
L 433.924571 638.326477 
L 439.929093 618.788813 
L 445.933616 585.481116 
L 448.935877 570.870433 
L 451.938138 552.954315 
L 454.940399 531.635762 
L 457.94266 513.099457 
L 460.944922 504.308381 
L 463.947183 480.468972 
L 466.949444 455.213747 
L 469.951705 444.234691 
L 472.953966 431.447188 
L 475.956228 407.211329 
L 478.958489 371.971448 
L 481.96075 377.192969 
L 484.963011 385.46413 
L 487.965272 373.420006 
L 490.967533 358.756117 
L 493.969795 377.211932 
L 496.972056 414.261079 
L 499.974317 394.146338 
L 502.976578 370.940077 
L 505.978839 384.152269 
L 508.981101 408.295087 
L 511.983362 391.578279 
L 514.985623 372.128882 
L 517.987884 406.421839 
L 520.990145 443.100728 
L 523.992407 449.414876 
L 526.994668 441.838799 
L 529.996929 441.842346 
L 532.99919 454.925754 
L 536.001451 449.125655 
L 539.003713 437.355745 
L 542.005974 445.839592 
L 545.008235 475.946218 
L 548.010496 501.815491 
L 551.012757 500.874979 
L 554.015018 509.765372 
L 557.01728 534.420192 
L 560.019541 551.944089 
L 563.021802 564.458196 
L 566.024063 577.450609 
L 569.026324 601.291928 
L 572.028586 620.095626 
L 575.030847 627.215771 
L 578.033108 630.861996 
L 581.035369 636.163735 
L 584.03763 643.86655 
L 587.039892 649.086844 
L 590.042153 651.48942 
L 593.044414 654.05216 
L 596.046675 655.883253 
L 599.048936 656.30235 
L 605.053459 655.578616 
L 608.05572 655.132644 
L 611.057981 655.518453 
L 614.060242 656.73468 
L 620.064765 658.411067 
L 623.067026 659.414471 
L 626.069287 659.511879 
L 629.071548 657.661004 
L 632.073809 655.074527 
L 635.076071 652.125296 
L 638.078332 648.841825 
L 641.080593 643.59943 
L 644.082854 632.309053 
L 647.085115 616.428938 
L 650.087377 593.574516 
L 653.089638 552.797699 
L 656.091899 508.806988 
L 659.09416 478.130242 
L 662.096421 456.486863 
L 668.100944 402.78912 
L 671.103205 410.943774 
L 674.105466 423.845737 
L 677.107727 411.94213 
L 677.107727 411.94213 
" style="fill:none;stroke:#ff7f0e;stroke-linecap:square;stroke-width:1.5;"/>
   </g>
   <g id="line2d_16">
    <path clip-path="url(#p7f61cfa737)" d="M 85.662273 405.908063 
L 88.664534 395.539781 
L 97.671317 395.539781 
L 100.673579 405.908063 
L 103.67584 426.644627 
L 106.678101 457.749474 
L 112.682623 437.012909 
L 115.684885 447.381192 
L 124.691668 509.590884 
L 127.693929 561.432295 
L 130.696191 602.905424 
L 136.700713 644.378552 
L 139.702974 654.746834 
L 142.705235 685.851681 
L 145.707497 696.219963 
L 160.718802 696.219963 
L 163.721064 706.588245 
L 166.723325 706.588245 
L 169.725586 716.956527 
L 208.754982 716.956527 
L 211.757243 706.588245 
L 214.759504 706.588245 
L 220.764026 665.115117 
L 226.768549 602.905424 
L 229.77081 561.432295 
L 232.773071 509.590884 
L 235.775332 447.381192 
L 238.777593 416.276345 
L 244.782116 395.539781 
L 250.786638 395.539781 
L 253.788899 385.171499 
L 265.797944 385.171499 
L 268.800205 374.803217 
L 271.802467 374.803217 
L 274.804728 385.171499 
L 283.811511 385.171499 
L 286.813772 395.539781 
L 292.818295 395.539781 
L 295.820556 405.908063 
L 301.825078 405.908063 
L 304.82734 426.644627 
L 307.829601 468.117756 
L 313.834123 509.590884 
L 316.836384 540.695731 
L 319.838646 551.064013 
L 328.845429 613.273706 
L 337.852213 644.378552 
L 349.861257 644.378552 
L 352.863519 634.01027 
L 355.86578 644.378552 
L 358.868041 665.115117 
L 361.870302 665.115117 
L 373.879347 706.588245 
L 391.892914 706.588245 
L 394.895175 716.956527 
L 400.899698 716.956527 
L 403.901959 727.324809 
L 421.915526 727.324809 
L 424.917787 716.956527 
L 427.920048 716.956527 
L 430.92231 706.588245 
L 433.924571 706.588245 
L 439.929093 685.851681 
L 457.94266 561.432295 
L 460.944922 551.064013 
L 463.947183 530.327449 
L 466.949444 488.85432 
L 472.953966 468.117756 
L 475.956228 437.012909 
L 478.958489 416.276345 
L 487.965272 416.276345 
L 490.967533 405.908063 
L 493.969795 416.276345 
L 496.972056 457.749474 
L 499.974317 426.644627 
L 502.976578 416.276345 
L 505.978839 416.276345 
L 508.981101 447.381192 
L 511.983362 426.644627 
L 514.985623 416.276345 
L 520.990145 478.486038 
L 529.996929 478.486038 
L 532.99919 488.85432 
L 539.003713 468.117756 
L 542.005974 478.486038 
L 545.008235 519.959167 
L 548.010496 551.064013 
L 551.012757 540.695731 
L 554.015018 551.064013 
L 557.01728 592.537142 
L 560.019541 602.905424 
L 563.021802 623.641988 
L 566.024063 634.01027 
L 569.026324 665.115117 
L 572.028586 685.851681 
L 575.030847 696.219963 
L 578.033108 696.219963 
L 584.03763 716.956527 
L 590.042153 716.956527 
L 593.044414 727.324809 
L 632.073809 727.324809 
L 635.076071 716.956527 
L 638.078332 716.956527 
L 644.082854 696.219963 
L 650.087377 654.746834 
L 653.089638 613.273706 
L 656.091899 561.432295 
L 659.09416 519.959167 
L 662.096421 488.85432 
L 665.098683 468.117756 
L 668.100944 437.012909 
L 674.105466 457.749474 
L 677.107727 447.381192 
L 677.107727 447.381192 
" style="fill:none;stroke:#2ca02c;stroke-linecap:square;stroke-width:1.5;"/>
   </g>
   <g id="line2d_17">
    <path clip-path="url(#p7f61cfa737)" d="M 85.662273 291.856959 
L 88.664534 250.383831 
L 94.669056 250.383831 
L 97.671317 271.120395 
L 100.673579 302.225242 
L 103.67584 343.69837 
L 106.678101 364.434934 
L 115.684885 364.434934 
L 118.687146 374.803217 
L 121.689407 374.803217 
L 127.693929 395.539781 
L 130.696191 395.539781 
L 136.700713 416.276345 
L 139.702974 416.276345 
L 142.705235 426.644627 
L 166.723325 426.644627 
L 169.725586 437.012909 
L 211.757243 437.012909 
L 214.759504 426.644627 
L 217.761765 426.644627 
L 220.764026 416.276345 
L 223.766287 416.276345 
L 232.773071 385.171499 
L 235.775332 364.434934 
L 244.782116 271.120395 
L 250.786638 229.647267 
L 253.788899 219.278984 
L 262.795683 157.069292 
L 265.797944 146.701009 
L 268.800205 146.701009 
L 271.802467 136.332727 
L 274.804728 146.701009 
L 280.80925 188.174138 
L 283.811511 219.278984 
L 286.813772 229.647267 
L 289.816034 260.752113 
L 292.818295 302.225242 
L 295.820556 322.961806 
L 313.834123 385.171499 
L 316.836384 385.171499 
L 319.838646 395.539781 
L 322.840907 395.539781 
L 325.843168 405.908063 
L 331.84769 405.908063 
L 334.849952 416.276345 
L 361.870302 416.276345 
L 364.872563 426.644627 
L 388.890653 426.644627 
L 391.892914 437.012909 
L 430.92231 437.012909 
L 433.924571 426.644627 
L 439.929093 426.644627 
L 442.931354 416.276345 
L 445.933616 416.276345 
L 448.935877 405.908063 
L 451.938138 405.908063 
L 454.940399 395.539781 
L 460.944922 395.539781 
L 463.947183 385.171499 
L 466.949444 385.171499 
L 469.951705 374.803217 
L 472.953966 374.803217 
L 475.956228 364.434934 
L 478.958489 333.330088 
L 484.963011 354.066652 
L 490.967533 333.330088 
L 493.969795 333.330088 
L 496.972056 364.434934 
L 502.976578 343.69837 
L 505.978839 343.69837 
L 508.981101 364.434934 
L 514.985623 343.69837 
L 517.987884 354.066652 
L 520.990145 374.803217 
L 542.005974 374.803217 
L 545.008235 385.171499 
L 548.010496 385.171499 
L 551.012757 395.539781 
L 557.01728 395.539781 
L 560.019541 405.908063 
L 563.021802 405.908063 
L 566.024063 416.276345 
L 569.026324 416.276345 
L 572.028586 426.644627 
L 581.035369 426.644627 
L 584.03763 437.012909 
L 641.080593 437.012909 
L 644.082854 426.644627 
L 647.085115 426.644627 
L 662.096421 374.803217 
L 665.098683 374.803217 
L 668.100944 364.434934 
L 677.107727 364.434934 
L 677.107727 364.434934 
" style="fill:none;stroke:#d62728;stroke-linecap:square;stroke-width:1.5;"/>
   </g>
   <g id="patch_3">
    <path d="M 56.09 822.04 
L 56.09 103.68 
" style="fill:none;stroke:#000000;stroke-linecap:square;stroke-linejoin:miter;stroke-width:0.8;"/>
   </g>
   <g id="patch_4">
    <path d="M 706.68 822.04 
L 706.68 103.68 
" style="fill:none;stroke:#000000;stroke-linecap:square;stroke-linejoin:miter;stroke-width:0.8;"/>
   </g>
   <g id="patch_5">
    <path d="M 56.09 822.04 
L 706.68 822.04 
" style="fill:none;stroke:#000000;stroke-linecap:square;stroke-linejoin:miter;stroke-width:0.8;"/>
   </g>
   <g id="patch_6">
    <path d="M 56.09 103.68 
L 706.68 103.68 
" style="fill:none;stroke:#000000;stroke-linecap:square;stroke-linejoin:miter;stroke-width:0.8;"/>
   </g>
   <g id="text_14">
    <!-- Plot of Test Data vs MCMC Uncertainty  -->
    <defs>
     <path d="M 19.671875 64.796875 
L 19.671875 37.40625 
L 32.078125 37.40625 
Q 38.96875 37.40625 42.71875 40.96875 
Q 46.484375 44.53125 46.484375 51.125 
Q 46.484375 57.671875 42.71875 61.234375 
Q 38.96875 64.796875 32.078125 64.796875 
z
M 9.8125 72.90625 
L 32.078125 72.90625 
Q 44.34375 72.90625 50.609375 67.359375 
Q 56.890625 61.8125 56.890625 51.125 
Q 56.890625 40.328125 50.609375 34.8125 
Q 44.34375 29.296875 32.078125 29.296875 
L 19.671875 29.296875 
L 19.671875 0 
L 9.8125 0 
z
" id="DejaVuSans-50"/>
     <path d="M 9.421875 75.984375 
L 18.40625 75.984375 
L 18.40625 0 
L 9.421875 0 
z
" id="DejaVuSans-6c"/>
     <path d="M 30.609375 48.390625 
Q 23.390625 48.390625 19.1875 42.75 
Q 14.984375 37.109375 14.984375 27.296875 
Q 14.984375 17.484375 19.15625 11.84375 
Q 23.34375 6.203125 30.609375 6.203125 
Q 37.796875 6.203125 41.984375 11.859375 
Q 46.1875 17.53125 46.1875 27.296875 
Q 46.1875 37.015625 41.984375 42.703125 
Q 37.796875 48.390625 30.609375 48.390625 
z
M 30.609375 56 
Q 42.328125 56 49.015625 48.375 
Q 55.71875 40.765625 55.71875 27.296875 
Q 55.71875 13.875 49.015625 6.21875 
Q 42.328125 -1.421875 30.609375 -1.421875 
Q 18.84375 -1.421875 12.171875 6.21875 
Q 5.515625 13.875 5.515625 27.296875 
Q 5.515625 40.765625 12.171875 48.375 
Q 18.84375 56 30.609375 56 
z
" id="DejaVuSans-6f"/>
     <path d="M 18.3125 70.21875 
L 18.3125 54.6875 
L 36.8125 54.6875 
L 36.8125 47.703125 
L 18.3125 47.703125 
L 18.3125 18.015625 
Q 18.3125 11.328125 20.140625 9.421875 
Q 21.96875 7.515625 27.59375 7.515625 
L 36.8125 7.515625 
L 36.8125 0 
L 27.59375 0 
Q 17.1875 0 13.234375 3.875 
Q 9.28125 7.765625 9.28125 18.015625 
L 9.28125 47.703125 
L 2.6875 47.703125 
L 2.6875 54.6875 
L 9.28125 54.6875 
L 9.28125 70.21875 
z
" id="DejaVuSans-74"/>
     <path id="DejaVuSans-20"/>
     <path d="M 37.109375 75.984375 
L 37.109375 68.5 
L 28.515625 68.5 
Q 23.6875 68.5 21.796875 66.546875 
Q 19.921875 64.59375 19.921875 59.515625 
L 19.921875 54.6875 
L 34.71875 54.6875 
L 34.71875 47.703125 
L 19.921875 47.703125 
L 19.921875 0 
L 10.890625 0 
L 10.890625 47.703125 
L 2.296875 47.703125 
L 2.296875 54.6875 
L 10.890625 54.6875 
L 10.890625 58.5 
Q 10.890625 67.625 15.140625 71.796875 
Q 19.390625 75.984375 28.609375 75.984375 
z
" id="DejaVuSans-66"/>
     <path d="M -0.296875 72.90625 
L 61.375 72.90625 
L 61.375 64.59375 
L 35.5 64.59375 
L 35.5 0 
L 25.59375 0 
L 25.59375 64.59375 
L -0.296875 64.59375 
z
" id="DejaVuSans-54"/>
     <path d="M 56.203125 29.59375 
L 56.203125 25.203125 
L 14.890625 25.203125 
Q 15.484375 15.921875 20.484375 11.0625 
Q 25.484375 6.203125 34.421875 6.203125 
Q 39.59375 6.203125 44.453125 7.46875 
Q 49.3125 8.734375 54.109375 11.28125 
L 54.109375 2.78125 
Q 49.265625 0.734375 44.1875 -0.34375 
Q 39.109375 -1.421875 33.890625 -1.421875 
Q 20.796875 -1.421875 13.15625 6.1875 
Q 5.515625 13.8125 5.515625 26.8125 
Q 5.515625 40.234375 12.765625 48.109375 
Q 20.015625 56 32.328125 56 
Q 43.359375 56 49.78125 48.890625 
Q 56.203125 41.796875 56.203125 29.59375 
z
M 47.21875 32.234375 
Q 47.125 39.59375 43.09375 43.984375 
Q 39.0625 48.390625 32.421875 48.390625 
Q 24.90625 48.390625 20.390625 44.140625 
Q 15.875 39.890625 15.1875 32.171875 
z
" id="DejaVuSans-65"/>
     <path d="M 44.28125 53.078125 
L 44.28125 44.578125 
Q 40.484375 46.53125 36.375 47.5 
Q 32.28125 48.484375 27.875 48.484375 
Q 21.1875 48.484375 17.84375 46.4375 
Q 14.5 44.390625 14.5 40.28125 
Q 14.5 37.15625 16.890625 35.375 
Q 19.28125 33.59375 26.515625 31.984375 
L 29.59375 31.296875 
Q 39.15625 29.25 43.1875 25.515625 
Q 47.21875 21.78125 47.21875 15.09375 
Q 47.21875 7.46875 41.1875 3.015625 
Q 35.15625 -1.421875 24.609375 -1.421875 
Q 20.21875 -1.421875 15.453125 -0.5625 
Q 10.6875 0.296875 5.421875 2 
L 5.421875 11.28125 
Q 10.40625 8.6875 15.234375 7.390625 
Q 20.0625 6.109375 24.8125 6.109375 
Q 31.15625 6.109375 34.5625 8.28125 
Q 37.984375 10.453125 37.984375 14.40625 
Q 37.984375 18.0625 35.515625 20.015625 
Q 33.0625 21.96875 24.703125 23.78125 
L 21.578125 24.515625 
Q 13.234375 26.265625 9.515625 29.90625 
Q 5.8125 33.546875 5.8125 39.890625 
Q 5.8125 47.609375 11.28125 51.796875 
Q 16.75 56 26.8125 56 
Q 31.78125 56 36.171875 55.265625 
Q 40.578125 54.546875 44.28125 53.078125 
z
" id="DejaVuSans-73"/>
     <path d="M 19.671875 64.796875 
L 19.671875 8.109375 
L 31.59375 8.109375 
Q 46.6875 8.109375 53.6875 14.9375 
Q 60.6875 21.78125 60.6875 36.53125 
Q 60.6875 51.171875 53.6875 57.984375 
Q 46.6875 64.796875 31.59375 64.796875 
z
M 9.8125 72.90625 
L 30.078125 72.90625 
Q 51.265625 72.90625 61.171875 64.09375 
Q 71.09375 55.28125 71.09375 36.53125 
Q 71.09375 17.671875 61.125 8.828125 
Q 51.171875 0 30.078125 0 
L 9.8125 0 
z
" id="DejaVuSans-44"/>
     <path d="M 34.28125 27.484375 
Q 23.390625 27.484375 19.1875 25 
Q 14.984375 22.515625 14.984375 16.5 
Q 14.984375 11.71875 18.140625 8.90625 
Q 21.296875 6.109375 26.703125 6.109375 
Q 34.1875 6.109375 38.703125 11.40625 
Q 43.21875 16.703125 43.21875 25.484375 
L 43.21875 27.484375 
z
M 52.203125 31.203125 
L 52.203125 0 
L 43.21875 0 
L 43.21875 8.296875 
Q 40.140625 3.328125 35.546875 0.953125 
Q 30.953125 -1.421875 24.3125 -1.421875 
Q 15.921875 -1.421875 10.953125 3.296875 
Q 6 8.015625 6 15.921875 
Q 6 25.140625 12.171875 29.828125 
Q 18.359375 34.515625 30.609375 34.515625 
L 43.21875 34.515625 
L 43.21875 35.40625 
Q 43.21875 41.609375 39.140625 45 
Q 35.0625 48.390625 27.6875 48.390625 
Q 23 48.390625 18.546875 47.265625 
Q 14.109375 46.140625 10.015625 43.890625 
L 10.015625 52.203125 
Q 14.9375 54.109375 19.578125 55.046875 
Q 24.21875 56 28.609375 56 
Q 40.484375 56 46.34375 49.84375 
Q 52.203125 43.703125 52.203125 31.203125 
z
" id="DejaVuSans-61"/>
     <path d="M 2.984375 54.6875 
L 12.5 54.6875 
L 29.59375 8.796875 
L 46.6875 54.6875 
L 56.203125 54.6875 
L 35.6875 0 
L 23.484375 0 
z
" id="DejaVuSans-76"/>
     <path d="M 9.8125 72.90625 
L 24.515625 72.90625 
L 43.109375 23.296875 
L 61.8125 72.90625 
L 76.515625 72.90625 
L 76.515625 0 
L 66.890625 0 
L 66.890625 64.015625 
L 48.09375 14.015625 
L 38.1875 14.015625 
L 19.390625 64.015625 
L 19.390625 0 
L 9.8125 0 
z
" id="DejaVuSans-4d"/>
     <path d="M 64.40625 67.28125 
L 64.40625 56.890625 
Q 59.421875 61.53125 53.78125 63.8125 
Q 48.140625 66.109375 41.796875 66.109375 
Q 29.296875 66.109375 22.65625 58.46875 
Q 16.015625 50.828125 16.015625 36.375 
Q 16.015625 21.96875 22.65625 14.328125 
Q 29.296875 6.6875 41.796875 6.6875 
Q 48.140625 6.6875 53.78125 8.984375 
Q 59.421875 11.28125 64.40625 15.921875 
L 64.40625 5.609375 
Q 59.234375 2.09375 53.4375 0.328125 
Q 47.65625 -1.421875 41.21875 -1.421875 
Q 24.65625 -1.421875 15.125 8.703125 
Q 5.609375 18.84375 5.609375 36.375 
Q 5.609375 53.953125 15.125 64.078125 
Q 24.65625 74.21875 41.21875 74.21875 
Q 47.75 74.21875 53.53125 72.484375 
Q 59.328125 70.75 64.40625 67.28125 
z
" id="DejaVuSans-43"/>
     <path d="M 8.6875 72.90625 
L 18.609375 72.90625 
L 18.609375 28.609375 
Q 18.609375 16.890625 22.84375 11.734375 
Q 27.09375 6.59375 36.625 6.59375 
Q 46.09375 6.59375 50.34375 11.734375 
Q 54.59375 16.890625 54.59375 28.609375 
L 54.59375 72.90625 
L 64.5 72.90625 
L 64.5 27.390625 
Q 64.5 13.140625 57.4375 5.859375 
Q 50.390625 -1.421875 36.625 -1.421875 
Q 22.796875 -1.421875 15.734375 5.859375 
Q 8.6875 13.140625 8.6875 27.390625 
z
" id="DejaVuSans-55"/>
     <path d="M 54.890625 33.015625 
L 54.890625 0 
L 45.90625 0 
L 45.90625 32.71875 
Q 45.90625 40.484375 42.875 44.328125 
Q 39.84375 48.1875 33.796875 48.1875 
Q 26.515625 48.1875 22.3125 43.546875 
Q 18.109375 38.921875 18.109375 30.90625 
L 18.109375 0 
L 9.078125 0 
L 9.078125 54.6875 
L 18.109375 54.6875 
L 18.109375 46.1875 
Q 21.34375 51.125 25.703125 53.5625 
Q 30.078125 56 35.796875 56 
Q 45.21875 56 50.046875 50.171875 
Q 54.890625 44.34375 54.890625 33.015625 
z
" id="DejaVuSans-6e"/>
     <path d="M 48.78125 52.59375 
L 48.78125 44.1875 
Q 44.96875 46.296875 41.140625 47.34375 
Q 37.3125 48.390625 33.40625 48.390625 
Q 24.65625 48.390625 19.8125 42.84375 
Q 14.984375 37.3125 14.984375 27.296875 
Q 14.984375 17.28125 19.8125 11.734375 
Q 24.65625 6.203125 33.40625 6.203125 
Q 37.3125 6.203125 41.140625 7.25 
Q 44.96875 8.296875 48.78125 10.40625 
L 48.78125 2.09375 
Q 45.015625 0.34375 40.984375 -0.53125 
Q 36.96875 -1.421875 32.421875 -1.421875 
Q 20.0625 -1.421875 12.78125 6.34375 
Q 5.515625 14.109375 5.515625 27.296875 
Q 5.515625 40.671875 12.859375 48.328125 
Q 20.21875 56 33.015625 56 
Q 37.15625 56 41.109375 55.140625 
Q 45.0625 54.296875 48.78125 52.59375 
z
" id="DejaVuSans-63"/>
     <path d="M 41.109375 46.296875 
Q 39.59375 47.171875 37.8125 47.578125 
Q 36.03125 48 33.890625 48 
Q 26.265625 48 22.1875 43.046875 
Q 18.109375 38.09375 18.109375 28.8125 
L 18.109375 0 
L 9.078125 0 
L 9.078125 54.6875 
L 18.109375 54.6875 
L 18.109375 46.1875 
Q 20.953125 51.171875 25.484375 53.578125 
Q 30.03125 56 36.53125 56 
Q 37.453125 56 38.578125 55.875 
Q 39.703125 55.765625 41.0625 55.515625 
z
" id="DejaVuSans-72"/>
     <path d="M 9.421875 54.6875 
L 18.40625 54.6875 
L 18.40625 0 
L 9.421875 0 
z
M 9.421875 75.984375 
L 18.40625 75.984375 
L 18.40625 64.59375 
L 9.421875 64.59375 
z
" id="DejaVuSans-69"/>
     <path d="M 32.171875 -5.078125 
Q 28.375 -14.84375 24.75 -17.8125 
Q 21.140625 -20.796875 15.09375 -20.796875 
L 7.90625 -20.796875 
L 7.90625 -13.28125 
L 13.1875 -13.28125 
Q 16.890625 -13.28125 18.9375 -11.515625 
Q 21 -9.765625 23.484375 -3.21875 
L 25.09375 0.875 
L 2.984375 54.6875 
L 12.5 54.6875 
L 29.59375 11.921875 
L 46.6875 54.6875 
L 56.203125 54.6875 
z
" id="DejaVuSans-79"/>
    </defs>
    <g transform="translate(263.337812 97.68)scale(0.12 -0.12)">
     <use xlink:href="#DejaVuSans-50"/>
     <use x="60.302734" xlink:href="#DejaVuSans-6c"/>
     <use x="88.085938" xlink:href="#DejaVuSans-6f"/>
     <use x="149.267578" xlink:href="#DejaVuSans-74"/>
     <use x="188.476562" xlink:href="#DejaVuSans-20"/>
     <use x="220.263672" xlink:href="#DejaVuSans-6f"/>
     <use x="281.445312" xlink:href="#DejaVuSans-66"/>
     <use x="316.650391" xlink:href="#DejaVuSans-20"/>
     <use x="348.4375" xlink:href="#DejaVuSans-54"/>
     <use x="409.255859" xlink:href="#DejaVuSans-65"/>
     <use x="470.779297" xlink:href="#DejaVuSans-73"/>
     <use x="522.878906" xlink:href="#DejaVuSans-74"/>
     <use x="562.087891" xlink:href="#DejaVuSans-20"/>
     <use x="593.875" xlink:href="#DejaVuSans-44"/>
     <use x="670.876953" xlink:href="#DejaVuSans-61"/>
     <use x="732.15625" xlink:href="#DejaVuSans-74"/>
     <use x="771.365234" xlink:href="#DejaVuSans-61"/>
     <use x="832.644531" xlink:href="#DejaVuSans-20"/>
     <use x="864.431641" xlink:href="#DejaVuSans-76"/>
     <use x="923.611328" xlink:href="#DejaVuSans-73"/>
     <use x="975.710938" xlink:href="#DejaVuSans-20"/>
     <use x="1007.498047" xlink:href="#DejaVuSans-4d"/>
     <use x="1093.777344" xlink:href="#DejaVuSans-43"/>
     <use x="1163.601562" xlink:href="#DejaVuSans-4d"/>
     <use x="1249.880859" xlink:href="#DejaVuSans-43"/>
     <use x="1319.705078" xlink:href="#DejaVuSans-20"/>
     <use x="1351.492188" xlink:href="#DejaVuSans-55"/>
     <use x="1424.685547" xlink:href="#DejaVuSans-6e"/>
     <use x="1488.064453" xlink:href="#DejaVuSans-63"/>
     <use x="1543.044922" xlink:href="#DejaVuSans-65"/>
     <use x="1604.568359" xlink:href="#DejaVuSans-72"/>
     <use x="1645.681641" xlink:href="#DejaVuSans-74"/>
     <use x="1684.890625" xlink:href="#DejaVuSans-61"/>
     <use x="1746.169922" xlink:href="#DejaVuSans-69"/>
     <use x="1773.953125" xlink:href="#DejaVuSans-6e"/>
     <use x="1837.332031" xlink:href="#DejaVuSans-74"/>
     <use x="1876.541016" xlink:href="#DejaVuSans-79"/>
     <use x="1935.720703" xlink:href="#DejaVuSans-20"/>
    </g>
   </g>
   <g id="legend_1">
    <g id="patch_7">
     <path d="M 569.803438 170.3925 
L 699.68 170.3925 
Q 701.68 170.3925 701.68 168.3925 
L 701.68 110.68 
Q 701.68 108.68 699.68 108.68 
L 569.803438 108.68 
Q 567.803438 108.68 567.803438 110.68 
L 567.803438 168.3925 
Q 567.803438 170.3925 569.803438 170.3925 
z
" style="fill:#ffffff;opacity:0.8;stroke:#cccccc;stroke-linejoin:miter;"/>
    </g>
    <g id="line2d_18">
     <path d="M 571.803438 116.778437 
L 591.803438 116.778437 
" style="fill:none;stroke:#1f77b4;stroke-linecap:square;stroke-width:1.5;"/>
    </g>
    <g id="line2d_19"/>
    <g id="text_15">
     <!-- actual -->
     <defs>
      <path d="M 8.5 21.578125 
L 8.5 54.6875 
L 17.484375 54.6875 
L 17.484375 21.921875 
Q 17.484375 14.15625 20.5 10.265625 
Q 23.53125 6.390625 29.59375 6.390625 
Q 36.859375 6.390625 41.078125 11.03125 
Q 45.3125 15.671875 45.3125 23.6875 
L 45.3125 54.6875 
L 54.296875 54.6875 
L 54.296875 0 
L 45.3125 0 
L 45.3125 8.40625 
Q 42.046875 3.421875 37.71875 1 
Q 33.40625 -1.421875 27.6875 -1.421875 
Q 18.265625 -1.421875 13.375 4.4375 
Q 8.5 10.296875 8.5 21.578125 
z
M 31.109375 56 
z
" id="DejaVuSans-75"/>
     </defs>
     <g transform="translate(599.803438 120.278437)scale(0.1 -0.1)">
      <use xlink:href="#DejaVuSans-61"/>
      <use x="61.279297" xlink:href="#DejaVuSans-63"/>
      <use x="116.259766" xlink:href="#DejaVuSans-74"/>
      <use x="155.46875" xlink:href="#DejaVuSans-75"/>
      <use x="218.847656" xlink:href="#DejaVuSans-61"/>
      <use x="280.126953" xlink:href="#DejaVuSans-6c"/>
     </g>
    </g>
    <g id="line2d_20">
     <path d="M 571.803438 131.456562 
L 591.803438 131.456562 
" style="fill:none;stroke:#ff7f0e;stroke-linecap:square;stroke-width:1.5;"/>
    </g>
    <g id="line2d_21"/>
    <g id="text_16">
     <!-- pred. (mean) -->
     <defs>
      <path d="M 18.109375 8.203125 
L 18.109375 -20.796875 
L 9.078125 -20.796875 
L 9.078125 54.6875 
L 18.109375 54.6875 
L 18.109375 46.390625 
Q 20.953125 51.265625 25.265625 53.625 
Q 29.59375 56 35.59375 56 
Q 45.5625 56 51.78125 48.09375 
Q 58.015625 40.1875 58.015625 27.296875 
Q 58.015625 14.40625 51.78125 6.484375 
Q 45.5625 -1.421875 35.59375 -1.421875 
Q 29.59375 -1.421875 25.265625 0.953125 
Q 20.953125 3.328125 18.109375 8.203125 
z
M 48.6875 27.296875 
Q 48.6875 37.203125 44.609375 42.84375 
Q 40.53125 48.484375 33.40625 48.484375 
Q 26.265625 48.484375 22.1875 42.84375 
Q 18.109375 37.203125 18.109375 27.296875 
Q 18.109375 17.390625 22.1875 11.75 
Q 26.265625 6.109375 33.40625 6.109375 
Q 40.53125 6.109375 44.609375 11.75 
Q 48.6875 17.390625 48.6875 27.296875 
z
" id="DejaVuSans-70"/>
      <path d="M 45.40625 46.390625 
L 45.40625 75.984375 
L 54.390625 75.984375 
L 54.390625 0 
L 45.40625 0 
L 45.40625 8.203125 
Q 42.578125 3.328125 38.25 0.953125 
Q 33.9375 -1.421875 27.875 -1.421875 
Q 17.96875 -1.421875 11.734375 6.484375 
Q 5.515625 14.40625 5.515625 27.296875 
Q 5.515625 40.1875 11.734375 48.09375 
Q 17.96875 56 27.875 56 
Q 33.9375 56 38.25 53.625 
Q 42.578125 51.265625 45.40625 46.390625 
z
M 14.796875 27.296875 
Q 14.796875 17.390625 18.875 11.75 
Q 22.953125 6.109375 30.078125 6.109375 
Q 37.203125 6.109375 41.296875 11.75 
Q 45.40625 17.390625 45.40625 27.296875 
Q 45.40625 37.203125 41.296875 42.84375 
Q 37.203125 48.484375 30.078125 48.484375 
Q 22.953125 48.484375 18.875 42.84375 
Q 14.796875 37.203125 14.796875 27.296875 
z
" id="DejaVuSans-64"/>
      <path d="M 31 75.875 
Q 24.46875 64.65625 21.28125 53.65625 
Q 18.109375 42.671875 18.109375 31.390625 
Q 18.109375 20.125 21.3125 9.0625 
Q 24.515625 -2 31 -13.1875 
L 23.1875 -13.1875 
Q 15.875 -1.703125 12.234375 9.375 
Q 8.59375 20.453125 8.59375 31.390625 
Q 8.59375 42.28125 12.203125 53.3125 
Q 15.828125 64.359375 23.1875 75.875 
z
" id="DejaVuSans-28"/>
      <path d="M 52 44.1875 
Q 55.375 50.25 60.0625 53.125 
Q 64.75 56 71.09375 56 
Q 79.640625 56 84.28125 50.015625 
Q 88.921875 44.046875 88.921875 33.015625 
L 88.921875 0 
L 79.890625 0 
L 79.890625 32.71875 
Q 79.890625 40.578125 77.09375 44.375 
Q 74.3125 48.1875 68.609375 48.1875 
Q 61.625 48.1875 57.5625 43.546875 
Q 53.515625 38.921875 53.515625 30.90625 
L 53.515625 0 
L 44.484375 0 
L 44.484375 32.71875 
Q 44.484375 40.625 41.703125 44.40625 
Q 38.921875 48.1875 33.109375 48.1875 
Q 26.21875 48.1875 22.15625 43.53125 
Q 18.109375 38.875 18.109375 30.90625 
L 18.109375 0 
L 9.078125 0 
L 9.078125 54.6875 
L 18.109375 54.6875 
L 18.109375 46.1875 
Q 21.1875 51.21875 25.484375 53.609375 
Q 29.78125 56 35.6875 56 
Q 41.65625 56 45.828125 52.96875 
Q 50 49.953125 52 44.1875 
z
" id="DejaVuSans-6d"/>
      <path d="M 8.015625 75.875 
L 15.828125 75.875 
Q 23.140625 64.359375 26.78125 53.3125 
Q 30.421875 42.28125 30.421875 31.390625 
Q 30.421875 20.453125 26.78125 9.375 
Q 23.140625 -1.703125 15.828125 -13.1875 
L 8.015625 -13.1875 
Q 14.5 -2 17.703125 9.0625 
Q 20.90625 20.125 20.90625 31.390625 
Q 20.90625 42.671875 17.703125 53.65625 
Q 14.5 64.65625 8.015625 75.875 
z
" id="DejaVuSans-29"/>
     </defs>
     <g transform="translate(599.803438 134.956562)scale(0.1 -0.1)">
      <use xlink:href="#DejaVuSans-70"/>
      <use x="63.476562" xlink:href="#DejaVuSans-72"/>
      <use x="104.558594" xlink:href="#DejaVuSans-65"/>
      <use x="166.082031" xlink:href="#DejaVuSans-64"/>
      <use x="229.558594" xlink:href="#DejaVuSans-2e"/>
      <use x="261.345703" xlink:href="#DejaVuSans-20"/>
      <use x="293.132812" xlink:href="#DejaVuSans-28"/>
      <use x="332.146484" xlink:href="#DejaVuSans-6d"/>
      <use x="429.558594" xlink:href="#DejaVuSans-65"/>
      <use x="491.082031" xlink:href="#DejaVuSans-61"/>
      <use x="552.361328" xlink:href="#DejaVuSans-6e"/>
      <use x="615.740234" xlink:href="#DejaVuSans-29"/>
     </g>
    </g>
    <g id="line2d_22">
     <path d="M 571.803438 146.134687 
L 591.803438 146.134687 
" style="fill:none;stroke:#2ca02c;stroke-linecap:square;stroke-width:1.5;"/>
    </g>
    <g id="line2d_23"/>
    <g id="text_17">
     <!-- pred.(5th percen.) -->
     <defs>
      <path d="M 54.890625 33.015625 
L 54.890625 0 
L 45.90625 0 
L 45.90625 32.71875 
Q 45.90625 40.484375 42.875 44.328125 
Q 39.84375 48.1875 33.796875 48.1875 
Q 26.515625 48.1875 22.3125 43.546875 
Q 18.109375 38.921875 18.109375 30.90625 
L 18.109375 0 
L 9.078125 0 
L 9.078125 75.984375 
L 18.109375 75.984375 
L 18.109375 46.1875 
Q 21.34375 51.125 25.703125 53.5625 
Q 30.078125 56 35.796875 56 
Q 45.21875 56 50.046875 50.171875 
Q 54.890625 44.34375 54.890625 33.015625 
z
" id="DejaVuSans-68"/>
     </defs>
     <g transform="translate(599.803438 149.634687)scale(0.1 -0.1)">
      <use xlink:href="#DejaVuSans-70"/>
      <use x="63.476562" xlink:href="#DejaVuSans-72"/>
      <use x="104.558594" xlink:href="#DejaVuSans-65"/>
      <use x="166.082031" xlink:href="#DejaVuSans-64"/>
      <use x="229.558594" xlink:href="#DejaVuSans-2e"/>
      <use x="261.345703" xlink:href="#DejaVuSans-28"/>
      <use x="300.359375" xlink:href="#DejaVuSans-35"/>
      <use x="363.982422" xlink:href="#DejaVuSans-74"/>
      <use x="403.191406" xlink:href="#DejaVuSans-68"/>
      <use x="466.570312" xlink:href="#DejaVuSans-20"/>
      <use x="498.357422" xlink:href="#DejaVuSans-70"/>
      <use x="561.833984" xlink:href="#DejaVuSans-65"/>
      <use x="623.357422" xlink:href="#DejaVuSans-72"/>
      <use x="664.439453" xlink:href="#DejaVuSans-63"/>
      <use x="719.419922" xlink:href="#DejaVuSans-65"/>
      <use x="780.943359" xlink:href="#DejaVuSans-6e"/>
      <use x="844.322266" xlink:href="#DejaVuSans-2e"/>
      <use x="876.109375" xlink:href="#DejaVuSans-29"/>
     </g>
    </g>
    <g id="line2d_24">
     <path d="M 571.803438 160.812812 
L 591.803438 160.812812 
" style="fill:none;stroke:#d62728;stroke-linecap:square;stroke-width:1.5;"/>
    </g>
    <g id="line2d_25"/>
    <g id="text_18">
     <!-- pred.(95th percen.) -->
     <defs>
      <path d="M 10.984375 1.515625 
L 10.984375 10.5 
Q 14.703125 8.734375 18.5 7.8125 
Q 22.3125 6.890625 25.984375 6.890625 
Q 35.75 6.890625 40.890625 13.453125 
Q 46.046875 20.015625 46.78125 33.40625 
Q 43.953125 29.203125 39.59375 26.953125 
Q 35.25 24.703125 29.984375 24.703125 
Q 19.046875 24.703125 12.671875 31.3125 
Q 6.296875 37.9375 6.296875 49.421875 
Q 6.296875 60.640625 12.9375 67.421875 
Q 19.578125 74.21875 30.609375 74.21875 
Q 43.265625 74.21875 49.921875 64.515625 
Q 56.59375 54.828125 56.59375 36.375 
Q 56.59375 19.140625 48.40625 8.859375 
Q 40.234375 -1.421875 26.421875 -1.421875 
Q 22.703125 -1.421875 18.890625 -0.6875 
Q 15.09375 0.046875 10.984375 1.515625 
z
M 30.609375 32.421875 
Q 37.25 32.421875 41.125 36.953125 
Q 45.015625 41.5 45.015625 49.421875 
Q 45.015625 57.28125 41.125 61.84375 
Q 37.25 66.40625 30.609375 66.40625 
Q 23.96875 66.40625 20.09375 61.84375 
Q 16.21875 57.28125 16.21875 49.421875 
Q 16.21875 41.5 20.09375 36.953125 
Q 23.96875 32.421875 30.609375 32.421875 
z
" id="DejaVuSans-39"/>
     </defs>
     <g transform="translate(599.803438 164.312812)scale(0.1 -0.1)">
      <use xlink:href="#DejaVuSans-70"/>
      <use x="63.476562" xlink:href="#DejaVuSans-72"/>
      <use x="104.558594" xlink:href="#DejaVuSans-65"/>
      <use x="166.082031" xlink:href="#DejaVuSans-64"/>
      <use x="229.558594" xlink:href="#DejaVuSans-2e"/>
      <use x="261.345703" xlink:href="#DejaVuSans-28"/>
      <use x="300.359375" xlink:href="#DejaVuSans-39"/>
      <use x="363.982422" xlink:href="#DejaVuSans-35"/>
      <use x="427.605469" xlink:href="#DejaVuSans-74"/>
      <use x="466.814453" xlink:href="#DejaVuSans-68"/>
      <use x="530.193359" xlink:href="#DejaVuSans-20"/>
      <use x="561.980469" xlink:href="#DejaVuSans-70"/>
      <use x="625.457031" xlink:href="#DejaVuSans-65"/>
      <use x="686.980469" xlink:href="#DejaVuSans-72"/>
      <use x="728.0625" xlink:href="#DejaVuSans-63"/>
      <use x="783.042969" xlink:href="#DejaVuSans-65"/>
      <use x="844.566406" xlink:href="#DejaVuSans-6e"/>
      <use x="907.945312" xlink:href="#DejaVuSans-2e"/>
      <use x="939.732422" xlink:href="#DejaVuSans-29"/>
     </g>
    </g>
   </g>
  </g>
 </g>
 <defs>
  <clipPath id="p7f61cfa737">
   <rect height="718.36" width="650.59" x="56.09" y="103.68"/>
  </clipPath>
 </defs>
</svg>
