<?xml version="1.0" encoding="utf-8" standalone="no"?>
<!DOCTYPE svg PUBLIC "-//W3C//DTD SVG 1.1//EN"
  "http://www.w3.org/Graphics/SVG/1.1/DTD/svg11.dtd">
<!-- Created with matplotlib (http://matplotlib.org/) -->
<svg height="864pt" version="1.1" viewBox="0 0 720 864" width="720pt" xmlns="http://www.w3.org/2000/svg" xmlns:xlink="http://www.w3.org/1999/xlink">
 <defs>
  <style type="text/css">
*{stroke-linecap:butt;stroke-linejoin:round;}
  </style>
 </defs>
 <g id="figure_1">
  <g id="patch_1">
   <path d="M 0 864 
L 720 864 
L 720 0 
L 0 0 
z
" style="fill:#ffffff;"/>
  </g>
  <g id="axes_1">
   <g id="patch_2">
    <path d="M 56.09 822.04 
L 706.68 822.04 
L 706.68 103.68 
L 56.09 103.68 
z
" style="fill:#ffffff;"/>
   </g>
   <g id="PolyCollection_1">
    <path clip-path="url(#p382ba232f1)" d="M 85.662273 262.759337 
L 85.662273 336.508193 
L 88.664534 304.90154 
L 91.666795 294.365989 
L 94.669056 304.90154 
L 97.671317 325.972642 
L 100.673579 378.650396 
L 103.67584 410.257048 
L 106.678101 441.863701 
L 109.680362 431.32815 
L 112.682623 431.32815 
L 115.684885 441.863701 
L 118.687146 462.934802 
L 121.689407 484.005904 
L 124.691668 515.612556 
L 127.693929 557.75476 
L 130.696191 599.896963 
L 133.698452 631.503615 
L 136.700713 642.039166 
L 139.702974 663.110268 
L 142.705235 684.181369 
L 145.707497 705.252471 
L 148.709758 705.252471 
L 151.712019 705.252471 
L 154.71428 705.252471 
L 157.716541 705.252471 
L 160.718802 705.252471 
L 163.721064 705.252471 
L 166.723325 715.788022 
L 169.725586 726.323573 
L 172.727847 726.323573 
L 175.730108 726.323573 
L 178.73237 726.323573 
L 181.734631 726.323573 
L 184.736892 726.323573 
L 187.739153 726.323573 
L 190.741414 726.323573 
L 193.743676 726.323573 
L 196.745937 726.323573 
L 199.748198 726.323573 
L 202.750459 726.323573 
L 205.75272 726.323573 
L 208.754982 726.323573 
L 211.757243 715.788022 
L 214.759504 705.252471 
L 217.761765 694.71692 
L 220.764026 663.110268 
L 223.766287 631.503615 
L 226.768549 599.896963 
L 229.77081 547.219209 
L 232.773071 484.005904 
L 235.775332 431.32815 
L 238.777593 378.650396 
L 241.779855 347.043743 
L 244.782116 315.437091 
L 247.784377 294.365989 
L 250.786638 294.365989 
L 253.788899 283.830439 
L 256.791161 262.759337 
L 259.793422 252.223786 
L 262.795683 241.688235 
L 265.797944 231.152685 
L 268.800205 231.152685 
L 271.802467 231.152685 
L 274.804728 231.152685 
L 277.806989 241.688235 
L 280.80925 262.759337 
L 283.811511 283.830439 
L 286.813772 294.365989 
L 289.816034 325.972642 
L 292.818295 357.579294 
L 295.820556 357.579294 
L 298.822817 368.114845 
L 301.825078 389.185947 
L 304.82734 420.792599 
L 307.829601 452.399252 
L 310.831862 484.005904 
L 313.834123 515.612556 
L 316.836384 536.683658 
L 319.838646 547.219209 
L 322.840907 568.290311 
L 325.843168 589.361412 
L 328.845429 610.432514 
L 331.84769 620.968065 
L 334.849952 642.039166 
L 337.852213 642.039166 
L 340.854474 642.039166 
L 343.856735 642.039166 
L 346.858996 642.039166 
L 349.861257 642.039166 
L 352.863519 642.039166 
L 355.86578 652.574717 
L 358.868041 663.110268 
L 361.870302 673.645819 
L 364.872563 684.181369 
L 367.874825 694.71692 
L 370.877086 705.252471 
L 373.879347 705.252471 
L 376.881608 705.252471 
L 379.883869 715.788022 
L 382.886131 715.788022 
L 385.888392 715.788022 
L 388.890653 715.788022 
L 391.892914 715.788022 
L 394.895175 726.323573 
L 397.897437 726.323573 
L 400.899698 736.859123 
L 403.901959 736.859123 
L 406.90422 736.859123 
L 409.906481 736.859123 
L 412.908743 736.859123 
L 415.911004 736.859123 
L 418.913265 736.859123 
L 421.915526 736.859123 
L 424.917787 736.859123 
L 427.920048 726.323573 
L 430.92231 715.788022 
L 433.924571 715.788022 
L 436.926832 705.252471 
L 439.929093 684.181369 
L 442.931354 663.110268 
L 445.933616 642.039166 
L 448.935877 631.503615 
L 451.938138 610.432514 
L 454.940399 578.825861 
L 457.94266 557.75476 
L 460.944922 547.219209 
L 463.947183 515.612556 
L 466.949444 484.005904 
L 469.951705 473.470353 
L 472.953966 452.399252 
L 475.956228 420.792599 
L 478.958489 378.650396 
L 481.96075 389.185947 
L 484.963011 399.721498 
L 487.965272 378.650396 
L 490.967533 368.114845 
L 493.969795 410.257048 
L 496.972056 431.32815 
L 499.974317 399.721498 
L 502.976578 378.650396 
L 505.978839 399.721498 
L 508.981101 420.792599 
L 511.983362 399.721498 
L 514.985623 378.650396 
L 517.987884 441.863701 
L 520.990145 473.470353 
L 523.992407 473.470353 
L 526.994668 462.934802 
L 529.996929 473.470353 
L 532.99919 484.005904 
L 536.001451 473.470353 
L 539.003713 462.934802 
L 542.005974 473.470353 
L 545.008235 526.148107 
L 548.010496 547.219209 
L 551.012757 536.683658 
L 554.015018 557.75476 
L 557.01728 589.361412 
L 560.019541 610.432514 
L 563.021802 620.968065 
L 566.024063 642.039166 
L 569.026324 673.645819 
L 572.028586 694.71692 
L 575.030847 705.252471 
L 578.033108 705.252471 
L 581.035369 715.788022 
L 584.03763 726.323573 
L 587.039892 726.323573 
L 590.042153 736.859123 
L 593.044414 736.859123 
L 596.046675 736.859123 
L 599.048936 736.859123 
L 602.051198 736.859123 
L 605.053459 736.859123 
L 608.05572 736.859123 
L 611.057981 736.859123 
L 614.060242 736.859123 
L 617.062503 736.859123 
L 620.064765 736.859123 
L 623.067026 747.394674 
L 626.069287 747.394674 
L 629.071548 736.859123 
L 632.073809 736.859123 
L 635.076071 726.323573 
L 638.078332 726.323573 
L 641.080593 715.788022 
L 644.082854 705.252471 
L 647.085115 684.181369 
L 650.087377 652.574717 
L 653.089638 610.432514 
L 656.091899 547.219209 
L 659.09416 515.612556 
L 662.096421 484.005904 
L 665.098683 452.399252 
L 668.100944 420.792599 
L 671.103205 431.32815 
L 674.105466 441.863701 
L 677.107727 431.32815 
L 677.107727 378.650396 
L 677.107727 378.650396 
L 674.105466 399.721498 
L 671.103205 389.185947 
L 668.100944 378.650396 
L 665.098683 389.185947 
L 662.096421 431.32815 
L 659.09416 441.863701 
L 656.091899 473.470353 
L 653.089638 505.077006 
L 650.087377 536.683658 
L 647.085115 557.75476 
L 644.082854 568.290311 
L 641.080593 578.825861 
L 638.078332 589.361412 
L 635.076071 589.361412 
L 632.073809 599.896963 
L 629.071548 599.896963 
L 626.069287 599.896963 
L 623.067026 599.896963 
L 620.064765 599.896963 
L 617.062503 599.896963 
L 614.060242 599.896963 
L 611.057981 599.896963 
L 608.05572 599.896963 
L 605.053459 599.896963 
L 602.051198 599.896963 
L 599.048936 599.896963 
L 596.046675 599.896963 
L 593.044414 589.361412 
L 590.042153 589.361412 
L 587.039892 589.361412 
L 584.03763 578.825861 
L 581.035369 578.825861 
L 578.033108 568.290311 
L 575.030847 568.290311 
L 572.028586 557.75476 
L 569.026324 536.683658 
L 566.024063 526.148107 
L 563.021802 505.077006 
L 560.019541 505.077006 
L 557.01728 484.005904 
L 554.015018 473.470353 
L 551.012757 462.934802 
L 548.010496 462.934802 
L 545.008235 441.863701 
L 542.005974 420.792599 
L 539.003713 420.792599 
L 536.001451 420.792599 
L 532.99919 431.32815 
L 529.996929 420.792599 
L 526.994668 420.792599 
L 523.992407 431.32815 
L 520.990145 420.792599 
L 517.987884 378.650396 
L 514.985623 347.043743 
L 511.983362 347.043743 
L 508.981101 378.650396 
L 505.978839 357.579294 
L 502.976578 336.508193 
L 499.974317 336.508193 
L 496.972056 389.185947 
L 493.969795 357.579294 
L 490.967533 325.972642 
L 487.965272 336.508193 
L 484.963011 357.579294 
L 481.96075 347.043743 
L 478.958489 336.508193 
L 475.956228 357.579294 
L 472.953966 410.257048 
L 469.951705 420.792599 
L 466.949444 431.32815 
L 463.947183 441.863701 
L 460.944922 462.934802 
L 457.94266 473.470353 
L 454.940399 484.005904 
L 451.938138 505.077006 
L 448.935877 515.612556 
L 445.933616 526.148107 
L 442.931354 547.219209 
L 439.929093 557.75476 
L 436.926832 568.290311 
L 433.924571 578.825861 
L 430.92231 589.361412 
L 427.920048 589.361412 
L 424.917787 589.361412 
L 421.915526 599.896963 
L 418.913265 599.896963 
L 415.911004 599.896963 
L 412.908743 599.896963 
L 409.906481 599.896963 
L 406.90422 599.896963 
L 403.901959 599.896963 
L 400.899698 589.361412 
L 397.897437 589.361412 
L 394.895175 589.361412 
L 391.892914 578.825861 
L 388.890653 578.825861 
L 385.888392 578.825861 
L 382.886131 578.825861 
L 379.883869 578.825861 
L 376.881608 578.825861 
L 373.879347 578.825861 
L 370.877086 568.290311 
L 367.874825 557.75476 
L 364.872563 547.219209 
L 361.870302 547.219209 
L 358.868041 536.683658 
L 355.86578 526.148107 
L 352.863519 526.148107 
L 349.861257 526.148107 
L 346.858996 526.148107 
L 343.856735 526.148107 
L 340.854474 526.148107 
L 337.852213 526.148107 
L 334.849952 526.148107 
L 331.84769 515.612556 
L 328.845429 505.077006 
L 325.843168 494.541455 
L 322.840907 484.005904 
L 319.838646 473.470353 
L 316.836384 462.934802 
L 313.834123 441.863701 
L 310.831862 431.32815 
L 307.829601 410.257048 
L 304.82734 378.650396 
L 301.825078 347.043743 
L 298.822817 325.972642 
L 295.820556 325.972642 
L 292.818295 294.365989 
L 289.816034 252.223786 
L 286.813772 231.152685 
L 283.811511 210.081583 
L 280.80925 189.010481 
L 277.806989 157.403829 
L 274.804728 136.332727 
L 271.802467 136.332727 
L 268.800205 136.332727 
L 265.797944 136.332727 
L 262.795683 146.868278 
L 259.793422 167.93938 
L 256.791161 189.010481 
L 253.788899 210.081583 
L 250.786638 220.617134 
L 247.784377 241.688235 
L 244.782116 252.223786 
L 241.779855 294.365989 
L 238.777593 315.437091 
L 235.775332 368.114845 
L 232.773071 410.257048 
L 229.77081 462.934802 
L 226.768549 494.541455 
L 223.766287 526.148107 
L 220.764026 547.219209 
L 217.761765 557.75476 
L 214.759504 578.825861 
L 211.757243 578.825861 
L 208.754982 589.361412 
L 205.75272 589.361412 
L 202.750459 589.361412 
L 199.748198 589.361412 
L 196.745937 589.361412 
L 193.743676 589.361412 
L 190.741414 589.361412 
L 187.739153 589.361412 
L 184.736892 589.361412 
L 181.734631 589.361412 
L 178.73237 589.361412 
L 175.730108 589.361412 
L 172.727847 589.361412 
L 169.725586 589.361412 
L 166.723325 578.825861 
L 163.721064 578.825861 
L 160.718802 568.290311 
L 157.716541 568.290311 
L 154.71428 568.290311 
L 151.712019 568.290311 
L 148.709758 568.290311 
L 145.707497 568.290311 
L 142.705235 547.219209 
L 139.702974 536.683658 
L 136.700713 526.148107 
L 133.698452 515.612556 
L 130.696191 494.541455 
L 127.693929 462.934802 
L 124.691668 441.863701 
L 121.689407 431.32815 
L 118.687146 410.257048 
L 115.684885 399.721498 
L 112.682623 389.185947 
L 109.680362 389.185947 
L 106.678101 399.721498 
L 103.67584 357.579294 
L 100.673579 304.90154 
L 97.671317 262.759337 
L 94.669056 241.688235 
L 91.666795 241.688235 
L 88.664534 241.688235 
L 85.662273 262.759337 
z
" style="fill:#008000;fill-opacity:0.4;"/>
   </g>
   <g id="matplotlib.axis_1">
    <g id="xtick_1">
     <g id="line2d_1">
      <defs>
       <path d="M 0 0 
L 0 3.5 
" id="m7bb2e7ca2c" style="stroke:#000000;stroke-width:0.8;"/>
      </defs>
      <g>
       <use style="stroke:#000000;stroke-width:0.8;" x="85.662273" xlink:href="#m7bb2e7ca2c" y="822.04"/>
      </g>
     </g>
     <g id="text_1">
      <!-- 0.0 -->
      <defs>
       <path d="M 31.78125 66.40625 
Q 24.171875 66.40625 20.328125 58.90625 
Q 16.5 51.421875 16.5 36.375 
Q 16.5 21.390625 20.328125 13.890625 
Q 24.171875 6.390625 31.78125 6.390625 
Q 39.453125 6.390625 43.28125 13.890625 
Q 47.125 21.390625 47.125 36.375 
Q 47.125 51.421875 43.28125 58.90625 
Q 39.453125 66.40625 31.78125 66.40625 
z
M 31.78125 74.21875 
Q 44.046875 74.21875 50.515625 64.515625 
Q 56.984375 54.828125 56.984375 36.375 
Q 56.984375 17.96875 50.515625 8.265625 
Q 44.046875 -1.421875 31.78125 -1.421875 
Q 19.53125 -1.421875 13.0625 8.265625 
Q 6.59375 17.96875 6.59375 36.375 
Q 6.59375 54.828125 13.0625 64.515625 
Q 19.53125 74.21875 31.78125 74.21875 
z
" id="DejaVuSans-30"/>
       <path d="M 10.6875 12.40625 
L 21 12.40625 
L 21 0 
L 10.6875 0 
z
" id="DejaVuSans-2e"/>
      </defs>
      <g transform="translate(77.71071 836.638438)scale(0.1 -0.1)">
       <use xlink:href="#DejaVuSans-30"/>
       <use x="63.623047" xlink:href="#DejaVuSans-2e"/>
       <use x="95.410156" xlink:href="#DejaVuSans-30"/>
      </g>
     </g>
    </g>
    <g id="xtick_2">
     <g id="line2d_2">
      <g>
       <use style="stroke:#000000;stroke-width:0.8;" x="203.951364" xlink:href="#m7bb2e7ca2c" y="822.04"/>
      </g>
     </g>
     <g id="text_2">
      <!-- 0.2 -->
      <defs>
       <path d="M 19.1875 8.296875 
L 53.609375 8.296875 
L 53.609375 0 
L 7.328125 0 
L 7.328125 8.296875 
Q 12.9375 14.109375 22.625 23.890625 
Q 32.328125 33.6875 34.8125 36.53125 
Q 39.546875 41.84375 41.421875 45.53125 
Q 43.3125 49.21875 43.3125 52.78125 
Q 43.3125 58.59375 39.234375 62.25 
Q 35.15625 65.921875 28.609375 65.921875 
Q 23.96875 65.921875 18.8125 64.3125 
Q 13.671875 62.703125 7.8125 59.421875 
L 7.8125 69.390625 
Q 13.765625 71.78125 18.9375 73 
Q 24.125 74.21875 28.421875 74.21875 
Q 39.75 74.21875 46.484375 68.546875 
Q 53.21875 62.890625 53.21875 53.421875 
Q 53.21875 48.921875 51.53125 44.890625 
Q 49.859375 40.875 45.40625 35.40625 
Q 44.1875 33.984375 37.640625 27.21875 
Q 31.109375 20.453125 19.1875 8.296875 
z
" id="DejaVuSans-32"/>
      </defs>
      <g transform="translate(195.999801 836.638438)scale(0.1 -0.1)">
       <use xlink:href="#DejaVuSans-30"/>
       <use x="63.623047" xlink:href="#DejaVuSans-2e"/>
       <use x="95.410156" xlink:href="#DejaVuSans-32"/>
      </g>
     </g>
    </g>
    <g id="xtick_3">
     <g id="line2d_3">
      <g>
       <use style="stroke:#000000;stroke-width:0.8;" x="322.240455" xlink:href="#m7bb2e7ca2c" y="822.04"/>
      </g>
     </g>
     <g id="text_3">
      <!-- 0.4 -->
      <defs>
       <path d="M 37.796875 64.3125 
L 12.890625 25.390625 
L 37.796875 25.390625 
z
M 35.203125 72.90625 
L 47.609375 72.90625 
L 47.609375 25.390625 
L 58.015625 25.390625 
L 58.015625 17.1875 
L 47.609375 17.1875 
L 47.609375 0 
L 37.796875 0 
L 37.796875 17.1875 
L 4.890625 17.1875 
L 4.890625 26.703125 
z
" id="DejaVuSans-34"/>
      </defs>
      <g transform="translate(314.288892 836.638438)scale(0.1 -0.1)">
       <use xlink:href="#DejaVuSans-30"/>
       <use x="63.623047" xlink:href="#DejaVuSans-2e"/>
       <use x="95.410156" xlink:href="#DejaVuSans-34"/>
      </g>
     </g>
    </g>
    <g id="xtick_4">
     <g id="line2d_4">
      <g>
       <use style="stroke:#000000;stroke-width:0.8;" x="440.529545" xlink:href="#m7bb2e7ca2c" y="822.04"/>
      </g>
     </g>
     <g id="text_4">
      <!-- 0.6 -->
      <defs>
       <path d="M 33.015625 40.375 
Q 26.375 40.375 22.484375 35.828125 
Q 18.609375 31.296875 18.609375 23.390625 
Q 18.609375 15.53125 22.484375 10.953125 
Q 26.375 6.390625 33.015625 6.390625 
Q 39.65625 6.390625 43.53125 10.953125 
Q 47.40625 15.53125 47.40625 23.390625 
Q 47.40625 31.296875 43.53125 35.828125 
Q 39.65625 40.375 33.015625 40.375 
z
M 52.59375 71.296875 
L 52.59375 62.3125 
Q 48.875 64.0625 45.09375 64.984375 
Q 41.3125 65.921875 37.59375 65.921875 
Q 27.828125 65.921875 22.671875 59.328125 
Q 17.53125 52.734375 16.796875 39.40625 
Q 19.671875 43.65625 24.015625 45.921875 
Q 28.375 48.1875 33.59375 48.1875 
Q 44.578125 48.1875 50.953125 41.515625 
Q 57.328125 34.859375 57.328125 23.390625 
Q 57.328125 12.15625 50.6875 5.359375 
Q 44.046875 -1.421875 33.015625 -1.421875 
Q 20.359375 -1.421875 13.671875 8.265625 
Q 6.984375 17.96875 6.984375 36.375 
Q 6.984375 53.65625 15.1875 63.9375 
Q 23.390625 74.21875 37.203125 74.21875 
Q 40.921875 74.21875 44.703125 73.484375 
Q 48.484375 72.75 52.59375 71.296875 
z
" id="DejaVuSans-36"/>
      </defs>
      <g transform="translate(432.577983 836.638438)scale(0.1 -0.1)">
       <use xlink:href="#DejaVuSans-30"/>
       <use x="63.623047" xlink:href="#DejaVuSans-2e"/>
       <use x="95.410156" xlink:href="#DejaVuSans-36"/>
      </g>
     </g>
    </g>
    <g id="xtick_5">
     <g id="line2d_5">
      <g>
       <use style="stroke:#000000;stroke-width:0.8;" x="558.818636" xlink:href="#m7bb2e7ca2c" y="822.04"/>
      </g>
     </g>
     <g id="text_5">
      <!-- 0.8 -->
      <defs>
       <path d="M 31.78125 34.625 
Q 24.75 34.625 20.71875 30.859375 
Q 16.703125 27.09375 16.703125 20.515625 
Q 16.703125 13.921875 20.71875 10.15625 
Q 24.75 6.390625 31.78125 6.390625 
Q 38.8125 6.390625 42.859375 10.171875 
Q 46.921875 13.96875 46.921875 20.515625 
Q 46.921875 27.09375 42.890625 30.859375 
Q 38.875 34.625 31.78125 34.625 
z
M 21.921875 38.8125 
Q 15.578125 40.375 12.03125 44.71875 
Q 8.5 49.078125 8.5 55.328125 
Q 8.5 64.0625 14.71875 69.140625 
Q 20.953125 74.21875 31.78125 74.21875 
Q 42.671875 74.21875 48.875 69.140625 
Q 55.078125 64.0625 55.078125 55.328125 
Q 55.078125 49.078125 51.53125 44.71875 
Q 48 40.375 41.703125 38.8125 
Q 48.828125 37.15625 52.796875 32.3125 
Q 56.78125 27.484375 56.78125 20.515625 
Q 56.78125 9.90625 50.3125 4.234375 
Q 43.84375 -1.421875 31.78125 -1.421875 
Q 19.734375 -1.421875 13.25 4.234375 
Q 6.78125 9.90625 6.78125 20.515625 
Q 6.78125 27.484375 10.78125 32.3125 
Q 14.796875 37.15625 21.921875 38.8125 
z
M 18.3125 54.390625 
Q 18.3125 48.734375 21.84375 45.5625 
Q 25.390625 42.390625 31.78125 42.390625 
Q 38.140625 42.390625 41.71875 45.5625 
Q 45.3125 48.734375 45.3125 54.390625 
Q 45.3125 60.0625 41.71875 63.234375 
Q 38.140625 66.40625 31.78125 66.40625 
Q 25.390625 66.40625 21.84375 63.234375 
Q 18.3125 60.0625 18.3125 54.390625 
z
" id="DejaVuSans-38"/>
      </defs>
      <g transform="translate(550.867074 836.638438)scale(0.1 -0.1)">
       <use xlink:href="#DejaVuSans-30"/>
       <use x="63.623047" xlink:href="#DejaVuSans-2e"/>
       <use x="95.410156" xlink:href="#DejaVuSans-38"/>
      </g>
     </g>
    </g>
    <g id="xtick_6">
     <g id="line2d_6">
      <g>
       <use style="stroke:#000000;stroke-width:0.8;" x="677.107727" xlink:href="#m7bb2e7ca2c" y="822.04"/>
      </g>
     </g>
     <g id="text_6">
      <!-- 1.0 -->
      <defs>
       <path d="M 12.40625 8.296875 
L 28.515625 8.296875 
L 28.515625 63.921875 
L 10.984375 60.40625 
L 10.984375 69.390625 
L 28.421875 72.90625 
L 38.28125 72.90625 
L 38.28125 8.296875 
L 54.390625 8.296875 
L 54.390625 0 
L 12.40625 0 
z
" id="DejaVuSans-31"/>
      </defs>
      <g transform="translate(669.156165 836.638438)scale(0.1 -0.1)">
       <use xlink:href="#DejaVuSans-31"/>
       <use x="63.623047" xlink:href="#DejaVuSans-2e"/>
       <use x="95.410156" xlink:href="#DejaVuSans-30"/>
      </g>
     </g>
    </g>
   </g>
   <g id="matplotlib.axis_2">
    <g id="ytick_1">
     <g id="line2d_7">
      <defs>
       <path d="M 0 0 
L -3.5 0 
" id="m5e9c91841c" style="stroke:#000000;stroke-width:0.8;"/>
      </defs>
      <g>
       <use style="stroke:#000000;stroke-width:0.8;" x="56.09" xlink:href="#m5e9c91841c" y="800.072428"/>
      </g>
     </g>
     <g id="text_7">
      <!-- 0.0 -->
      <g transform="translate(33.186875 803.871647)scale(0.1 -0.1)">
       <use xlink:href="#DejaVuSans-30"/>
       <use x="63.623047" xlink:href="#DejaVuSans-2e"/>
       <use x="95.410156" xlink:href="#DejaVuSans-30"/>
      </g>
     </g>
    </g>
    <g id="ytick_2">
     <g id="line2d_8">
      <g>
       <use style="stroke:#000000;stroke-width:0.8;" x="56.09" xlink:href="#m5e9c91841c" y="694.71692"/>
      </g>
     </g>
     <g id="text_8">
      <!-- 0.1 -->
      <g transform="translate(33.186875 698.516139)scale(0.1 -0.1)">
       <use xlink:href="#DejaVuSans-30"/>
       <use x="63.623047" xlink:href="#DejaVuSans-2e"/>
       <use x="95.410156" xlink:href="#DejaVuSans-31"/>
      </g>
     </g>
    </g>
    <g id="ytick_3">
     <g id="line2d_9">
      <g>
       <use style="stroke:#000000;stroke-width:0.8;" x="56.09" xlink:href="#m5e9c91841c" y="589.361412"/>
      </g>
     </g>
     <g id="text_9">
      <!-- 0.2 -->
      <g transform="translate(33.186875 593.160631)scale(0.1 -0.1)">
       <use xlink:href="#DejaVuSans-30"/>
       <use x="63.623047" xlink:href="#DejaVuSans-2e"/>
       <use x="95.410156" xlink:href="#DejaVuSans-32"/>
      </g>
     </g>
    </g>
    <g id="ytick_4">
     <g id="line2d_10">
      <g>
       <use style="stroke:#000000;stroke-width:0.8;" x="56.09" xlink:href="#m5e9c91841c" y="484.005904"/>
      </g>
     </g>
     <g id="text_10">
      <!-- 0.3 -->
      <defs>
       <path d="M 40.578125 39.3125 
Q 47.65625 37.796875 51.625 33 
Q 55.609375 28.21875 55.609375 21.1875 
Q 55.609375 10.40625 48.1875 4.484375 
Q 40.765625 -1.421875 27.09375 -1.421875 
Q 22.515625 -1.421875 17.65625 -0.515625 
Q 12.796875 0.390625 7.625 2.203125 
L 7.625 11.71875 
Q 11.71875 9.328125 16.59375 8.109375 
Q 21.484375 6.890625 26.8125 6.890625 
Q 36.078125 6.890625 40.9375 10.546875 
Q 45.796875 14.203125 45.796875 21.1875 
Q 45.796875 27.640625 41.28125 31.265625 
Q 36.765625 34.90625 28.71875 34.90625 
L 20.21875 34.90625 
L 20.21875 43.015625 
L 29.109375 43.015625 
Q 36.375 43.015625 40.234375 45.921875 
Q 44.09375 48.828125 44.09375 54.296875 
Q 44.09375 59.90625 40.109375 62.90625 
Q 36.140625 65.921875 28.71875 65.921875 
Q 24.65625 65.921875 20.015625 65.03125 
Q 15.375 64.15625 9.8125 62.3125 
L 9.8125 71.09375 
Q 15.4375 72.65625 20.34375 73.4375 
Q 25.25 74.21875 29.59375 74.21875 
Q 40.828125 74.21875 47.359375 69.109375 
Q 53.90625 64.015625 53.90625 55.328125 
Q 53.90625 49.265625 50.4375 45.09375 
Q 46.96875 40.921875 40.578125 39.3125 
z
" id="DejaVuSans-33"/>
      </defs>
      <g transform="translate(33.186875 487.805123)scale(0.1 -0.1)">
       <use xlink:href="#DejaVuSans-30"/>
       <use x="63.623047" xlink:href="#DejaVuSans-2e"/>
       <use x="95.410156" xlink:href="#DejaVuSans-33"/>
      </g>
     </g>
    </g>
    <g id="ytick_5">
     <g id="line2d_11">
      <g>
       <use style="stroke:#000000;stroke-width:0.8;" x="56.09" xlink:href="#m5e9c91841c" y="378.650396"/>
      </g>
     </g>
     <g id="text_11">
      <!-- 0.4 -->
      <g transform="translate(33.186875 382.449615)scale(0.1 -0.1)">
       <use xlink:href="#DejaVuSans-30"/>
       <use x="63.623047" xlink:href="#DejaVuSans-2e"/>
       <use x="95.410156" xlink:href="#DejaVuSans-34"/>
      </g>
     </g>
    </g>
    <g id="ytick_6">
     <g id="line2d_12">
      <g>
       <use style="stroke:#000000;stroke-width:0.8;" x="56.09" xlink:href="#m5e9c91841c" y="273.294888"/>
      </g>
     </g>
     <g id="text_12">
      <!-- 0.5 -->
      <defs>
       <path d="M 10.796875 72.90625 
L 49.515625 72.90625 
L 49.515625 64.59375 
L 19.828125 64.59375 
L 19.828125 46.734375 
Q 21.96875 47.46875 24.109375 47.828125 
Q 26.265625 48.1875 28.421875 48.1875 
Q 40.625 48.1875 47.75 41.5 
Q 54.890625 34.8125 54.890625 23.390625 
Q 54.890625 11.625 47.5625 5.09375 
Q 40.234375 -1.421875 26.90625 -1.421875 
Q 22.3125 -1.421875 17.546875 -0.640625 
Q 12.796875 0.140625 7.71875 1.703125 
L 7.71875 11.625 
Q 12.109375 9.234375 16.796875 8.0625 
Q 21.484375 6.890625 26.703125 6.890625 
Q 35.15625 6.890625 40.078125 11.328125 
Q 45.015625 15.765625 45.015625 23.390625 
Q 45.015625 31 40.078125 35.4375 
Q 35.15625 39.890625 26.703125 39.890625 
Q 22.75 39.890625 18.8125 39.015625 
Q 14.890625 38.140625 10.796875 36.28125 
z
" id="DejaVuSans-35"/>
      </defs>
      <g transform="translate(33.186875 277.094107)scale(0.1 -0.1)">
       <use xlink:href="#DejaVuSans-30"/>
       <use x="63.623047" xlink:href="#DejaVuSans-2e"/>
       <use x="95.410156" xlink:href="#DejaVuSans-35"/>
      </g>
     </g>
    </g>
    <g id="ytick_7">
     <g id="line2d_13">
      <g>
       <use style="stroke:#000000;stroke-width:0.8;" x="56.09" xlink:href="#m5e9c91841c" y="167.93938"/>
      </g>
     </g>
     <g id="text_13">
      <!-- 0.6 -->
      <g transform="translate(33.186875 171.738598)scale(0.1 -0.1)">
       <use xlink:href="#DejaVuSans-30"/>
       <use x="63.623047" xlink:href="#DejaVuSans-2e"/>
       <use x="95.410156" xlink:href="#DejaVuSans-36"/>
      </g>
     </g>
    </g>
   </g>
   <g id="line2d_14">
    <path clip-path="url(#p382ba232f1)" d="M 85.662273 280.061872 
L 88.664534 268.664513 
L 91.666795 289.322621 
L 94.669056 291.459231 
L 97.671317 339.18633 
L 100.673579 381.214749 
L 103.67584 413.982419 
L 106.678101 406.859333 
L 109.680362 391.187701 
L 112.682623 408.995943 
L 115.684885 422.530965 
L 118.687146 451.024362 
L 121.689407 463.846128 
L 124.691668 508.724413 
L 127.693929 557.163715 
L 133.698452 616.288173 
L 136.700713 634.096414 
L 139.702974 680.399107 
L 142.705235 701.056793 
L 145.707497 707.467887 
L 148.709758 715.303597 
L 151.712019 709.604918 
L 154.71428 707.467887 
L 157.716541 707.467887 
L 160.718802 718.865351 
L 163.721064 738.81094 
L 166.723325 744.509724 
L 169.725586 748.071373 
L 172.727847 758.756528 
L 175.730108 758.756528 
L 178.73237 762.318282 
L 181.734631 753.770158 
L 184.736892 749.496095 
L 187.739153 755.907189 
L 190.741414 755.19488 
L 193.743676 759.468837 
L 196.745937 760.181251 
L 199.748198 764.455313 
L 202.750459 758.756528 
L 205.75272 750.208404 
L 208.754982 738.81094 
L 211.757243 723.139413 
L 214.759504 682.535716 
L 217.761765 633.384211 
L 220.764026 592.067995 
L 223.766287 553.601646 
L 226.768549 497.327054 
L 229.77081 443.901276 
L 232.773071 397.598584 
L 235.775332 358.420031 
L 238.777593 327.788971 
L 241.779855 294.309097 
L 244.782116 277.925262 
L 247.784377 263.678037 
L 250.786638 250.856272 
L 256.791161 211.677719 
L 259.793422 198.142697 
L 262.795683 185.320931 
L 265.797944 192.444017 
L 268.800205 181.758862 
L 271.802467 186.033135 
L 274.804728 211.677719 
L 277.806989 234.472437 
L 280.80925 261.541427 
L 283.811511 262.965834 
L 286.813772 292.172488 
L 289.816034 335.625314 
L 292.818295 342.748399 
L 295.820556 347.734876 
L 298.822817 367.68078 
L 301.825078 385.489022 
L 304.82734 426.091981 
L 310.831862 468.120401 
L 313.834123 493.764985 
L 316.836384 503.737937 
L 319.838646 529.382521 
L 322.840907 548.615169 
L 325.843168 572.123144 
L 328.845429 585.657112 
L 331.84769 610.589493 
L 334.849952 617.000376 
L 340.854474 612.726103 
L 343.856735 617.712579 
L 346.858996 617.000376 
L 349.861257 603.465354 
L 355.86578 644.069367 
L 358.868041 655.466726 
L 361.870302 661.877608 
L 364.872563 692.508669 
L 367.874825 713.166566 
L 370.877086 718.865351 
L 373.879347 722.427105 
L 376.881608 719.577659 
L 379.883869 725.276444 
L 382.886131 724.564136 
L 385.888392 729.550507 
L 388.890653 741.660279 
L 394.895175 761.605868 
L 397.897437 768.729375 
L 400.899698 777.2775 
L 403.901959 780.12684 
L 406.90422 777.989809 
L 409.906481 774.428055 
L 412.908743 780.12684 
L 415.911004 780.839148 
L 418.913265 772.291024 
L 421.915526 764.455313 
L 424.917787 757.331806 
L 427.920048 743.79731 
L 430.92231 724.564136 
L 433.924571 696.782731 
L 436.926832 679.686903 
L 439.929093 639.795094 
L 442.931354 610.589493 
L 445.933616 589.219182 
L 448.935877 561.437988 
L 451.938138 531.519131 
L 454.940399 507.300007 
L 457.94266 503.737937 
L 460.944922 469.545861 
L 463.947183 441.05141 
L 466.949444 434.640527 
L 469.951705 418.968895 
L 472.953966 396.886381 
L 475.956228 348.447079 
L 478.958489 369.81739 
L 481.96075 376.228273 
L 484.963011 361.981047 
L 487.965272 342.748399 
L 490.967533 363.406507 
L 493.969795 418.968895 
L 496.972056 375.51607 
L 499.974317 355.570165 
L 502.976578 371.954 
L 505.978839 408.28374 
L 508.981101 375.51607 
L 511.983362 352.721352 
L 514.985623 402.58506 
L 517.987884 441.763613 
L 520.990145 439.627003 
L 523.992407 432.503917 
L 526.994668 430.366254 
L 529.996929 451.736565 
L 532.99919 440.339207 
L 536.001451 421.818762 
L 539.003713 439.627003 
L 542.005974 469.545861 
L 545.008235 510.14882 
L 548.010496 491.628375 
L 551.012757 510.14882 
L 554.015018 547.902966 
L 557.01728 566.424464 
L 560.019541 585.657112 
L 563.021802 602.753151 
L 566.024063 653.330116 
L 569.026324 688.234396 
L 572.028586 700.344379 
L 575.030847 708.892504 
L 578.033108 720.290073 
L 581.035369 746.646756 
L 584.03763 758.756528 
L 587.039892 763.742899 
L 590.042153 771.578715 
L 593.044414 777.989809 
L 596.046675 778.702117 
L 599.048936 775.852777 
L 602.051198 775.852777 
L 605.053459 772.291024 
L 608.05572 775.140469 
L 611.057981 780.12684 
L 614.060242 782.263871 
L 617.062503 787.250242 
L 620.064765 789.387273 
L 623.067026 789.387273 
L 626.069287 782.976179 
L 629.071548 772.291024 
L 632.073809 764.455313 
L 635.076071 753.770158 
L 638.078332 737.386217 
L 641.080593 708.180195 
L 647.085115 626.973329 
L 650.087377 552.177239 
L 653.089638 498.751461 
L 656.091899 465.983791 
L 659.09416 445.325683 
L 662.096421 416.120082 
L 665.098683 382.639155 
L 668.100944 404.009467 
L 671.103205 417.544489 
L 674.105466 399.022991 
L 677.107727 371.241797 
L 677.107727 371.241797 
" style="fill:none;stroke:#1f77b4;stroke-linecap:square;stroke-width:1.5;"/>
   </g>
   <g id="line2d_15">
    <path clip-path="url(#p382ba232f1)" d="M 85.662273 298.500223 
L 88.664534 263.07069 
L 91.666795 263.649452 
L 94.669056 269.679808 
L 97.671317 292.001174 
L 103.67584 385.577382 
L 106.678101 417.8048 
L 112.682623 401.609856 
L 115.684885 414.306166 
L 118.687146 434.404669 
L 121.689407 463.562777 
L 124.691668 486.004332 
L 130.696191 569.208012 
L 133.698452 597.422633 
L 136.700713 617.063118 
L 139.702974 634.219569 
L 142.705235 656.394825 
L 145.707497 669.675441 
L 148.709758 673.880373 
L 151.712019 675.762217 
L 154.71428 674.355443 
L 157.716541 673.540047 
L 160.718802 674.491297 
L 163.721064 678.522115 
L 166.723325 686.642391 
L 169.725586 689.515269 
L 172.727847 692.671499 
L 175.730108 694.725931 
L 178.73237 695.728333 
L 181.734631 696.064639 
L 184.736892 693.426593 
L 187.739153 692.883457 
L 190.741414 693.625243 
L 193.743676 694.605327 
L 196.745937 695.395077 
L 199.748198 695.977859 
L 202.750459 697.475848 
L 205.75272 695.067782 
L 208.754982 692.336995 
L 211.757243 687.563004 
L 214.759504 678.237239 
L 217.761765 657.253333 
L 220.764026 629.041208 
L 223.766287 598.119227 
L 226.768549 562.163056 
L 229.77081 510.456236 
L 232.773071 450.82585 
L 238.777593 352.865328 
L 241.779855 315.155542 
L 244.782116 279.32053 
L 247.784377 259.230343 
L 250.786638 245.34324 
L 253.788899 229.587878 
L 256.791161 206.604435 
L 259.793422 188.001148 
L 262.795683 174.506078 
L 265.797944 165.582189 
L 268.800205 165.252537 
L 271.802467 156.679233 
L 274.804728 172.296523 
L 277.806989 193.532312 
L 280.80925 218.325097 
L 283.811511 241.140664 
L 286.813772 253.441335 
L 292.818295 324.45885 
L 295.820556 340.180387 
L 298.822817 349.250526 
L 301.825078 365.336371 
L 307.829601 432.149368 
L 310.831862 460.769469 
L 313.834123 486.949204 
L 316.836384 507.438494 
L 322.840907 543.911739 
L 325.843168 566.13787 
L 328.845429 583.018595 
L 331.84769 596.514358 
L 334.849952 612.818262 
L 337.852213 616.004434 
L 340.854474 616.972041 
L 343.856735 616.787392 
L 346.858996 617.887941 
L 349.861257 613.749133 
L 352.863519 612.816321 
L 355.86578 625.389946 
L 358.868041 636.913898 
L 361.870302 642.352599 
L 364.872563 652.033384 
L 367.874825 665.466904 
L 370.877086 675.180266 
L 373.879347 678.357151 
L 376.881608 678.957538 
L 382.886131 680.917705 
L 385.888392 681.471653 
L 388.890653 683.961371 
L 391.892914 688.113487 
L 394.895175 693.278818 
L 397.897437 696.314442 
L 400.899698 699.718396 
L 403.901959 702.289902 
L 406.90422 703.129835 
L 412.908743 701.907295 
L 415.911004 703.088386 
L 418.913265 703.182235 
L 421.915526 700.46337 
L 424.917787 698.411433 
L 427.920048 694.782629 
L 430.92231 688.753937 
L 433.924571 680.22028 
L 436.926832 668.443752 
L 439.929093 655.136242 
L 442.931354 632.801845 
L 445.933616 613.172866 
L 448.935877 595.255637 
L 451.938138 572.058156 
L 454.940399 545.62945 
L 457.94266 525.425868 
L 460.944922 514.647999 
L 463.947183 479.49253 
L 466.949444 454.33405 
L 469.951705 442.130971 
L 472.953966 426.096694 
L 478.958489 355.087637 
L 481.96075 371.419542 
L 484.963011 376.268114 
L 487.965272 354.861261 
L 490.967533 342.259356 
L 493.969795 380.786479 
L 496.972056 412.521499 
L 499.974317 375.80649 
L 502.976578 356.237814 
L 505.978839 383.080179 
L 508.981101 402.313659 
L 511.983362 373.452488 
L 514.985623 361.319692 
L 517.987884 414.63554 
L 520.990145 449.515422 
L 523.992407 452.041597 
L 526.994668 439.37232 
L 529.996929 446.180365 
L 532.99919 460.002176 
L 536.001451 445.888558 
L 539.003713 438.230461 
L 542.005974 452.280172 
L 545.008235 495.188975 
L 548.010496 516.708808 
L 551.012757 513.28614 
L 554.015018 530.231742 
L 557.01728 560.209959 
L 560.019541 579.853493 
L 563.021802 594.019373 
L 566.024063 613.079155 
L 569.026324 641.967635 
L 572.028586 663.029588 
L 575.030847 669.133553 
L 578.033108 674.315935 
L 581.035369 679.989329 
L 584.03763 689.840069 
L 587.039892 695.207239 
L 590.042153 697.709294 
L 593.044414 700.584113 
L 596.046675 702.340639 
L 599.048936 702.77523 
L 602.051198 702.001976 
L 608.05572 700.889783 
L 611.057981 701.863905 
L 614.060242 703.241428 
L 620.064765 705.548437 
L 623.067026 706.152429 
L 626.069287 706.214672 
L 629.071548 704.195728 
L 632.073809 700.494977 
L 635.076071 697.44036 
L 638.078332 693.076285 
L 641.080593 686.437918 
L 644.082854 671.93601 
L 647.085115 651.553184 
L 650.087377 618.763639 
L 656.091899 512.711676 
L 659.09416 479.357647 
L 662.096421 454.737728 
L 665.098683 417.877856 
L 668.100944 394.673167 
L 671.103205 411.052067 
L 674.105466 420.907104 
L 677.107727 400.11464 
L 677.107727 400.11464 
" style="fill:none;stroke:#ff7f0e;stroke-linecap:square;stroke-width:1.5;"/>
   </g>
   <g id="line2d_16">
    <path clip-path="url(#p382ba232f1)" d="M 85.662273 336.508193 
L 88.664534 304.90154 
L 91.666795 294.365989 
L 94.669056 304.90154 
L 97.671317 325.972642 
L 100.673579 378.650396 
L 106.678101 441.863701 
L 109.680362 431.32815 
L 112.682623 431.32815 
L 115.684885 441.863701 
L 121.689407 484.005904 
L 124.691668 515.612556 
L 130.696191 599.896963 
L 133.698452 631.503615 
L 136.700713 642.039166 
L 145.707497 705.252471 
L 163.721064 705.252471 
L 169.725586 726.323573 
L 208.754982 726.323573 
L 217.761765 694.71692 
L 226.768549 599.896963 
L 229.77081 547.219209 
L 232.773071 484.005904 
L 238.777593 378.650396 
L 244.782116 315.437091 
L 247.784377 294.365989 
L 250.786638 294.365989 
L 253.788899 283.830439 
L 256.791161 262.759337 
L 265.797944 231.152685 
L 274.804728 231.152685 
L 277.806989 241.688235 
L 283.811511 283.830439 
L 286.813772 294.365989 
L 292.818295 357.579294 
L 295.820556 357.579294 
L 298.822817 368.114845 
L 301.825078 389.185947 
L 313.834123 515.612556 
L 316.836384 536.683658 
L 319.838646 547.219209 
L 328.845429 610.432514 
L 331.84769 620.968065 
L 334.849952 642.039166 
L 352.863519 642.039166 
L 370.877086 705.252471 
L 376.881608 705.252471 
L 379.883869 715.788022 
L 391.892914 715.788022 
L 394.895175 726.323573 
L 397.897437 726.323573 
L 400.899698 736.859123 
L 424.917787 736.859123 
L 430.92231 715.788022 
L 433.924571 715.788022 
L 436.926832 705.252471 
L 445.933616 642.039166 
L 448.935877 631.503615 
L 451.938138 610.432514 
L 454.940399 578.825861 
L 457.94266 557.75476 
L 460.944922 547.219209 
L 466.949444 484.005904 
L 469.951705 473.470353 
L 472.953966 452.399252 
L 475.956228 420.792599 
L 478.958489 378.650396 
L 484.963011 399.721498 
L 487.965272 378.650396 
L 490.967533 368.114845 
L 493.969795 410.257048 
L 496.972056 431.32815 
L 499.974317 399.721498 
L 502.976578 378.650396 
L 508.981101 420.792599 
L 514.985623 378.650396 
L 517.987884 441.863701 
L 520.990145 473.470353 
L 523.992407 473.470353 
L 526.994668 462.934802 
L 532.99919 484.005904 
L 539.003713 462.934802 
L 542.005974 473.470353 
L 545.008235 526.148107 
L 548.010496 547.219209 
L 551.012757 536.683658 
L 554.015018 557.75476 
L 557.01728 589.361412 
L 560.019541 610.432514 
L 563.021802 620.968065 
L 566.024063 642.039166 
L 569.026324 673.645819 
L 572.028586 694.71692 
L 575.030847 705.252471 
L 578.033108 705.252471 
L 584.03763 726.323573 
L 587.039892 726.323573 
L 590.042153 736.859123 
L 620.064765 736.859123 
L 623.067026 747.394674 
L 626.069287 747.394674 
L 629.071548 736.859123 
L 632.073809 736.859123 
L 635.076071 726.323573 
L 638.078332 726.323573 
L 644.082854 705.252471 
L 647.085115 684.181369 
L 650.087377 652.574717 
L 653.089638 610.432514 
L 656.091899 547.219209 
L 668.100944 420.792599 
L 674.105466 441.863701 
L 677.107727 431.32815 
L 677.107727 431.32815 
" style="fill:none;stroke:#2ca02c;stroke-linecap:square;stroke-width:1.5;"/>
   </g>
   <g id="line2d_17">
    <path clip-path="url(#p382ba232f1)" d="M 85.662273 262.759337 
L 88.664534 241.688235 
L 94.669056 241.688235 
L 97.671317 262.759337 
L 100.673579 304.90154 
L 103.67584 357.579294 
L 106.678101 399.721498 
L 109.680362 389.185947 
L 112.682623 389.185947 
L 118.687146 410.257048 
L 121.689407 431.32815 
L 124.691668 441.863701 
L 127.693929 462.934802 
L 130.696191 494.541455 
L 133.698452 515.612556 
L 142.705235 547.219209 
L 145.707497 568.290311 
L 160.718802 568.290311 
L 163.721064 578.825861 
L 166.723325 578.825861 
L 169.725586 589.361412 
L 208.754982 589.361412 
L 211.757243 578.825861 
L 214.759504 578.825861 
L 217.761765 557.75476 
L 220.764026 547.219209 
L 223.766287 526.148107 
L 229.77081 462.934802 
L 232.773071 410.257048 
L 235.775332 368.114845 
L 238.777593 315.437091 
L 241.779855 294.365989 
L 244.782116 252.223786 
L 247.784377 241.688235 
L 250.786638 220.617134 
L 253.788899 210.081583 
L 262.795683 146.868278 
L 265.797944 136.332727 
L 274.804728 136.332727 
L 277.806989 157.403829 
L 280.80925 189.010481 
L 289.816034 252.223786 
L 292.818295 294.365989 
L 295.820556 325.972642 
L 298.822817 325.972642 
L 301.825078 347.043743 
L 307.829601 410.257048 
L 310.831862 431.32815 
L 313.834123 441.863701 
L 316.836384 462.934802 
L 334.849952 526.148107 
L 355.86578 526.148107 
L 361.870302 547.219209 
L 364.872563 547.219209 
L 373.879347 578.825861 
L 391.892914 578.825861 
L 394.895175 589.361412 
L 400.899698 589.361412 
L 403.901959 599.896963 
L 421.915526 599.896963 
L 424.917787 589.361412 
L 430.92231 589.361412 
L 442.931354 547.219209 
L 445.933616 526.148107 
L 451.938138 505.077006 
L 454.940399 484.005904 
L 460.944922 462.934802 
L 463.947183 441.863701 
L 472.953966 410.257048 
L 475.956228 357.579294 
L 478.958489 336.508193 
L 484.963011 357.579294 
L 487.965272 336.508193 
L 490.967533 325.972642 
L 496.972056 389.185947 
L 499.974317 336.508193 
L 502.976578 336.508193 
L 508.981101 378.650396 
L 511.983362 347.043743 
L 514.985623 347.043743 
L 517.987884 378.650396 
L 520.990145 420.792599 
L 523.992407 431.32815 
L 526.994668 420.792599 
L 529.996929 420.792599 
L 532.99919 431.32815 
L 536.001451 420.792599 
L 542.005974 420.792599 
L 548.010496 462.934802 
L 551.012757 462.934802 
L 557.01728 484.005904 
L 560.019541 505.077006 
L 563.021802 505.077006 
L 566.024063 526.148107 
L 569.026324 536.683658 
L 572.028586 557.75476 
L 575.030847 568.290311 
L 578.033108 568.290311 
L 581.035369 578.825861 
L 584.03763 578.825861 
L 587.039892 589.361412 
L 593.044414 589.361412 
L 596.046675 599.896963 
L 632.073809 599.896963 
L 635.076071 589.361412 
L 638.078332 589.361412 
L 647.085115 557.75476 
L 650.087377 536.683658 
L 659.09416 441.863701 
L 662.096421 431.32815 
L 665.098683 389.185947 
L 668.100944 378.650396 
L 674.105466 399.721498 
L 677.107727 378.650396 
L 677.107727 378.650396 
" style="fill:none;stroke:#d62728;stroke-linecap:square;stroke-width:1.5;"/>
   </g>
   <g id="patch_3">
    <path d="M 56.09 822.04 
L 56.09 103.68 
" style="fill:none;stroke:#000000;stroke-linecap:square;stroke-linejoin:miter;stroke-width:0.8;"/>
   </g>
   <g id="patch_4">
    <path d="M 706.68 822.04 
L 706.68 103.68 
" style="fill:none;stroke:#000000;stroke-linecap:square;stroke-linejoin:miter;stroke-width:0.8;"/>
   </g>
   <g id="patch_5">
    <path d="M 56.09 822.04 
L 706.68 822.04 
" style="fill:none;stroke:#000000;stroke-linecap:square;stroke-linejoin:miter;stroke-width:0.8;"/>
   </g>
   <g id="patch_6">
    <path d="M 56.09 103.68 
L 706.68 103.68 
" style="fill:none;stroke:#000000;stroke-linecap:square;stroke-linejoin:miter;stroke-width:0.8;"/>
   </g>
   <g id="text_14">
    <!-- Plot of Test Data vs MCMC Uncertainty  -->
    <defs>
     <path d="M 19.671875 64.796875 
L 19.671875 37.40625 
L 32.078125 37.40625 
Q 38.96875 37.40625 42.71875 40.96875 
Q 46.484375 44.53125 46.484375 51.125 
Q 46.484375 57.671875 42.71875 61.234375 
Q 38.96875 64.796875 32.078125 64.796875 
z
M 9.8125 72.90625 
L 32.078125 72.90625 
Q 44.34375 72.90625 50.609375 67.359375 
Q 56.890625 61.8125 56.890625 51.125 
Q 56.890625 40.328125 50.609375 34.8125 
Q 44.34375 29.296875 32.078125 29.296875 
L 19.671875 29.296875 
L 19.671875 0 
L 9.8125 0 
z
" id="DejaVuSans-50"/>
     <path d="M 9.421875 75.984375 
L 18.40625 75.984375 
L 18.40625 0 
L 9.421875 0 
z
" id="DejaVuSans-6c"/>
     <path d="M 30.609375 48.390625 
Q 23.390625 48.390625 19.1875 42.75 
Q 14.984375 37.109375 14.984375 27.296875 
Q 14.984375 17.484375 19.15625 11.84375 
Q 23.34375 6.203125 30.609375 6.203125 
Q 37.796875 6.203125 41.984375 11.859375 
Q 46.1875 17.53125 46.1875 27.296875 
Q 46.1875 37.015625 41.984375 42.703125 
Q 37.796875 48.390625 30.609375 48.390625 
z
M 30.609375 56 
Q 42.328125 56 49.015625 48.375 
Q 55.71875 40.765625 55.71875 27.296875 
Q 55.71875 13.875 49.015625 6.21875 
Q 42.328125 -1.421875 30.609375 -1.421875 
Q 18.84375 -1.421875 12.171875 6.21875 
Q 5.515625 13.875 5.515625 27.296875 
Q 5.515625 40.765625 12.171875 48.375 
Q 18.84375 56 30.609375 56 
z
" id="DejaVuSans-6f"/>
     <path d="M 18.3125 70.21875 
L 18.3125 54.6875 
L 36.8125 54.6875 
L 36.8125 47.703125 
L 18.3125 47.703125 
L 18.3125 18.015625 
Q 18.3125 11.328125 20.140625 9.421875 
Q 21.96875 7.515625 27.59375 7.515625 
L 36.8125 7.515625 
L 36.8125 0 
L 27.59375 0 
Q 17.1875 0 13.234375 3.875 
Q 9.28125 7.765625 9.28125 18.015625 
L 9.28125 47.703125 
L 2.6875 47.703125 
L 2.6875 54.6875 
L 9.28125 54.6875 
L 9.28125 70.21875 
z
" id="DejaVuSans-74"/>
     <path id="DejaVuSans-20"/>
     <path d="M 37.109375 75.984375 
L 37.109375 68.5 
L 28.515625 68.5 
Q 23.6875 68.5 21.796875 66.546875 
Q 19.921875 64.59375 19.921875 59.515625 
L 19.921875 54.6875 
L 34.71875 54.6875 
L 34.71875 47.703125 
L 19.921875 47.703125 
L 19.921875 0 
L 10.890625 0 
L 10.890625 47.703125 
L 2.296875 47.703125 
L 2.296875 54.6875 
L 10.890625 54.6875 
L 10.890625 58.5 
Q 10.890625 67.625 15.140625 71.796875 
Q 19.390625 75.984375 28.609375 75.984375 
z
" id="DejaVuSans-66"/>
     <path d="M -0.296875 72.90625 
L 61.375 72.90625 
L 61.375 64.59375 
L 35.5 64.59375 
L 35.5 0 
L 25.59375 0 
L 25.59375 64.59375 
L -0.296875 64.59375 
z
" id="DejaVuSans-54"/>
     <path d="M 56.203125 29.59375 
L 56.203125 25.203125 
L 14.890625 25.203125 
Q 15.484375 15.921875 20.484375 11.0625 
Q 25.484375 6.203125 34.421875 6.203125 
Q 39.59375 6.203125 44.453125 7.46875 
Q 49.3125 8.734375 54.109375 11.28125 
L 54.109375 2.78125 
Q 49.265625 0.734375 44.1875 -0.34375 
Q 39.109375 -1.421875 33.890625 -1.421875 
Q 20.796875 -1.421875 13.15625 6.1875 
Q 5.515625 13.8125 5.515625 26.8125 
Q 5.515625 40.234375 12.765625 48.109375 
Q 20.015625 56 32.328125 56 
Q 43.359375 56 49.78125 48.890625 
Q 56.203125 41.796875 56.203125 29.59375 
z
M 47.21875 32.234375 
Q 47.125 39.59375 43.09375 43.984375 
Q 39.0625 48.390625 32.421875 48.390625 
Q 24.90625 48.390625 20.390625 44.140625 
Q 15.875 39.890625 15.1875 32.171875 
z
" id="DejaVuSans-65"/>
     <path d="M 44.28125 53.078125 
L 44.28125 44.578125 
Q 40.484375 46.53125 36.375 47.5 
Q 32.28125 48.484375 27.875 48.484375 
Q 21.1875 48.484375 17.84375 46.4375 
Q 14.5 44.390625 14.5 40.28125 
Q 14.5 37.15625 16.890625 35.375 
Q 19.28125 33.59375 26.515625 31.984375 
L 29.59375 31.296875 
Q 39.15625 29.25 43.1875 25.515625 
Q 47.21875 21.78125 47.21875 15.09375 
Q 47.21875 7.46875 41.1875 3.015625 
Q 35.15625 -1.421875 24.609375 -1.421875 
Q 20.21875 -1.421875 15.453125 -0.5625 
Q 10.6875 0.296875 5.421875 2 
L 5.421875 11.28125 
Q 10.40625 8.6875 15.234375 7.390625 
Q 20.0625 6.109375 24.8125 6.109375 
Q 31.15625 6.109375 34.5625 8.28125 
Q 37.984375 10.453125 37.984375 14.40625 
Q 37.984375 18.0625 35.515625 20.015625 
Q 33.0625 21.96875 24.703125 23.78125 
L 21.578125 24.515625 
Q 13.234375 26.265625 9.515625 29.90625 
Q 5.8125 33.546875 5.8125 39.890625 
Q 5.8125 47.609375 11.28125 51.796875 
Q 16.75 56 26.8125 56 
Q 31.78125 56 36.171875 55.265625 
Q 40.578125 54.546875 44.28125 53.078125 
z
" id="DejaVuSans-73"/>
     <path d="M 19.671875 64.796875 
L 19.671875 8.109375 
L 31.59375 8.109375 
Q 46.6875 8.109375 53.6875 14.9375 
Q 60.6875 21.78125 60.6875 36.53125 
Q 60.6875 51.171875 53.6875 57.984375 
Q 46.6875 64.796875 31.59375 64.796875 
z
M 9.8125 72.90625 
L 30.078125 72.90625 
Q 51.265625 72.90625 61.171875 64.09375 
Q 71.09375 55.28125 71.09375 36.53125 
Q 71.09375 17.671875 61.125 8.828125 
Q 51.171875 0 30.078125 0 
L 9.8125 0 
z
" id="DejaVuSans-44"/>
     <path d="M 34.28125 27.484375 
Q 23.390625 27.484375 19.1875 25 
Q 14.984375 22.515625 14.984375 16.5 
Q 14.984375 11.71875 18.140625 8.90625 
Q 21.296875 6.109375 26.703125 6.109375 
Q 34.1875 6.109375 38.703125 11.40625 
Q 43.21875 16.703125 43.21875 25.484375 
L 43.21875 27.484375 
z
M 52.203125 31.203125 
L 52.203125 0 
L 43.21875 0 
L 43.21875 8.296875 
Q 40.140625 3.328125 35.546875 0.953125 
Q 30.953125 -1.421875 24.3125 -1.421875 
Q 15.921875 -1.421875 10.953125 3.296875 
Q 6 8.015625 6 15.921875 
Q 6 25.140625 12.171875 29.828125 
Q 18.359375 34.515625 30.609375 34.515625 
L 43.21875 34.515625 
L 43.21875 35.40625 
Q 43.21875 41.609375 39.140625 45 
Q 35.0625 48.390625 27.6875 48.390625 
Q 23 48.390625 18.546875 47.265625 
Q 14.109375 46.140625 10.015625 43.890625 
L 10.015625 52.203125 
Q 14.9375 54.109375 19.578125 55.046875 
Q 24.21875 56 28.609375 56 
Q 40.484375 56 46.34375 49.84375 
Q 52.203125 43.703125 52.203125 31.203125 
z
" id="DejaVuSans-61"/>
     <path d="M 2.984375 54.6875 
L 12.5 54.6875 
L 29.59375 8.796875 
L 46.6875 54.6875 
L 56.203125 54.6875 
L 35.6875 0 
L 23.484375 0 
z
" id="DejaVuSans-76"/>
     <path d="M 9.8125 72.90625 
L 24.515625 72.90625 
L 43.109375 23.296875 
L 61.8125 72.90625 
L 76.515625 72.90625 
L 76.515625 0 
L 66.890625 0 
L 66.890625 64.015625 
L 48.09375 14.015625 
L 38.1875 14.015625 
L 19.390625 64.015625 
L 19.390625 0 
L 9.8125 0 
z
" id="DejaVuSans-4d"/>
     <path d="M 64.40625 67.28125 
L 64.40625 56.890625 
Q 59.421875 61.53125 53.78125 63.8125 
Q 48.140625 66.109375 41.796875 66.109375 
Q 29.296875 66.109375 22.65625 58.46875 
Q 16.015625 50.828125 16.015625 36.375 
Q 16.015625 21.96875 22.65625 14.328125 
Q 29.296875 6.6875 41.796875 6.6875 
Q 48.140625 6.6875 53.78125 8.984375 
Q 59.421875 11.28125 64.40625 15.921875 
L 64.40625 5.609375 
Q 59.234375 2.09375 53.4375 0.328125 
Q 47.65625 -1.421875 41.21875 -1.421875 
Q 24.65625 -1.421875 15.125 8.703125 
Q 5.609375 18.84375 5.609375 36.375 
Q 5.609375 53.953125 15.125 64.078125 
Q 24.65625 74.21875 41.21875 74.21875 
Q 47.75 74.21875 53.53125 72.484375 
Q 59.328125 70.75 64.40625 67.28125 
z
" id="DejaVuSans-43"/>
     <path d="M 8.6875 72.90625 
L 18.609375 72.90625 
L 18.609375 28.609375 
Q 18.609375 16.890625 22.84375 11.734375 
Q 27.09375 6.59375 36.625 6.59375 
Q 46.09375 6.59375 50.34375 11.734375 
Q 54.59375 16.890625 54.59375 28.609375 
L 54.59375 72.90625 
L 64.5 72.90625 
L 64.5 27.390625 
Q 64.5 13.140625 57.4375 5.859375 
Q 50.390625 -1.421875 36.625 -1.421875 
Q 22.796875 -1.421875 15.734375 5.859375 
Q 8.6875 13.140625 8.6875 27.390625 
z
" id="DejaVuSans-55"/>
     <path d="M 54.890625 33.015625 
L 54.890625 0 
L 45.90625 0 
L 45.90625 32.71875 
Q 45.90625 40.484375 42.875 44.328125 
Q 39.84375 48.1875 33.796875 48.1875 
Q 26.515625 48.1875 22.3125 43.546875 
Q 18.109375 38.921875 18.109375 30.90625 
L 18.109375 0 
L 9.078125 0 
L 9.078125 54.6875 
L 18.109375 54.6875 
L 18.109375 46.1875 
Q 21.34375 51.125 25.703125 53.5625 
Q 30.078125 56 35.796875 56 
Q 45.21875 56 50.046875 50.171875 
Q 54.890625 44.34375 54.890625 33.015625 
z
" id="DejaVuSans-6e"/>
     <path d="M 48.78125 52.59375 
L 48.78125 44.1875 
Q 44.96875 46.296875 41.140625 47.34375 
Q 37.3125 48.390625 33.40625 48.390625 
Q 24.65625 48.390625 19.8125 42.84375 
Q 14.984375 37.3125 14.984375 27.296875 
Q 14.984375 17.28125 19.8125 11.734375 
Q 24.65625 6.203125 33.40625 6.203125 
Q 37.3125 6.203125 41.140625 7.25 
Q 44.96875 8.296875 48.78125 10.40625 
L 48.78125 2.09375 
Q 45.015625 0.34375 40.984375 -0.53125 
Q 36.96875 -1.421875 32.421875 -1.421875 
Q 20.0625 -1.421875 12.78125 6.34375 
Q 5.515625 14.109375 5.515625 27.296875 
Q 5.515625 40.671875 12.859375 48.328125 
Q 20.21875 56 33.015625 56 
Q 37.15625 56 41.109375 55.140625 
Q 45.0625 54.296875 48.78125 52.59375 
z
" id="DejaVuSans-63"/>
     <path d="M 41.109375 46.296875 
Q 39.59375 47.171875 37.8125 47.578125 
Q 36.03125 48 33.890625 48 
Q 26.265625 48 22.1875 43.046875 
Q 18.109375 38.09375 18.109375 28.8125 
L 18.109375 0 
L 9.078125 0 
L 9.078125 54.6875 
L 18.109375 54.6875 
L 18.109375 46.1875 
Q 20.953125 51.171875 25.484375 53.578125 
Q 30.03125 56 36.53125 56 
Q 37.453125 56 38.578125 55.875 
Q 39.703125 55.765625 41.0625 55.515625 
z
" id="DejaVuSans-72"/>
     <path d="M 9.421875 54.6875 
L 18.40625 54.6875 
L 18.40625 0 
L 9.421875 0 
z
M 9.421875 75.984375 
L 18.40625 75.984375 
L 18.40625 64.59375 
L 9.421875 64.59375 
z
" id="DejaVuSans-69"/>
     <path d="M 32.171875 -5.078125 
Q 28.375 -14.84375 24.75 -17.8125 
Q 21.140625 -20.796875 15.09375 -20.796875 
L 7.90625 -20.796875 
L 7.90625 -13.28125 
L 13.1875 -13.28125 
Q 16.890625 -13.28125 18.9375 -11.515625 
Q 21 -9.765625 23.484375 -3.21875 
L 25.09375 0.875 
L 2.984375 54.6875 
L 12.5 54.6875 
L 29.59375 11.921875 
L 46.6875 54.6875 
L 56.203125 54.6875 
z
" id="DejaVuSans-79"/>
    </defs>
    <g transform="translate(263.337812 97.68)scale(0.12 -0.12)">
     <use xlink:href="#DejaVuSans-50"/>
     <use x="60.302734" xlink:href="#DejaVuSans-6c"/>
     <use x="88.085938" xlink:href="#DejaVuSans-6f"/>
     <use x="149.267578" xlink:href="#DejaVuSans-74"/>
     <use x="188.476562" xlink:href="#DejaVuSans-20"/>
     <use x="220.263672" xlink:href="#DejaVuSans-6f"/>
     <use x="281.445312" xlink:href="#DejaVuSans-66"/>
     <use x="316.650391" xlink:href="#DejaVuSans-20"/>
     <use x="348.4375" xlink:href="#DejaVuSans-54"/>
     <use x="409.255859" xlink:href="#DejaVuSans-65"/>
     <use x="470.779297" xlink:href="#DejaVuSans-73"/>
     <use x="522.878906" xlink:href="#DejaVuSans-74"/>
     <use x="562.087891" xlink:href="#DejaVuSans-20"/>
     <use x="593.875" xlink:href="#DejaVuSans-44"/>
     <use x="670.876953" xlink:href="#DejaVuSans-61"/>
     <use x="732.15625" xlink:href="#DejaVuSans-74"/>
     <use x="771.365234" xlink:href="#DejaVuSans-61"/>
     <use x="832.644531" xlink:href="#DejaVuSans-20"/>
     <use x="864.431641" xlink:href="#DejaVuSans-76"/>
     <use x="923.611328" xlink:href="#DejaVuSans-73"/>
     <use x="975.710938" xlink:href="#DejaVuSans-20"/>
     <use x="1007.498047" xlink:href="#DejaVuSans-4d"/>
     <use x="1093.777344" xlink:href="#DejaVuSans-43"/>
     <use x="1163.601562" xlink:href="#DejaVuSans-4d"/>
     <use x="1249.880859" xlink:href="#DejaVuSans-43"/>
     <use x="1319.705078" xlink:href="#DejaVuSans-20"/>
     <use x="1351.492188" xlink:href="#DejaVuSans-55"/>
     <use x="1424.685547" xlink:href="#DejaVuSans-6e"/>
     <use x="1488.064453" xlink:href="#DejaVuSans-63"/>
     <use x="1543.044922" xlink:href="#DejaVuSans-65"/>
     <use x="1604.568359" xlink:href="#DejaVuSans-72"/>
     <use x="1645.681641" xlink:href="#DejaVuSans-74"/>
     <use x="1684.890625" xlink:href="#DejaVuSans-61"/>
     <use x="1746.169922" xlink:href="#DejaVuSans-69"/>
     <use x="1773.953125" xlink:href="#DejaVuSans-6e"/>
     <use x="1837.332031" xlink:href="#DejaVuSans-74"/>
     <use x="1876.541016" xlink:href="#DejaVuSans-79"/>
     <use x="1935.720703" xlink:href="#DejaVuSans-20"/>
    </g>
   </g>
   <g id="legend_1">
    <g id="patch_7">
     <path d="M 569.803438 170.3925 
L 699.68 170.3925 
Q 701.68 170.3925 701.68 168.3925 
L 701.68 110.68 
Q 701.68 108.68 699.68 108.68 
L 569.803438 108.68 
Q 567.803438 108.68 567.803438 110.68 
L 567.803438 168.3925 
Q 567.803438 170.3925 569.803438 170.3925 
z
" style="fill:#ffffff;opacity:0.8;stroke:#cccccc;stroke-linejoin:miter;"/>
    </g>
    <g id="line2d_18">
     <path d="M 571.803438 116.778437 
L 591.803438 116.778437 
" style="fill:none;stroke:#1f77b4;stroke-linecap:square;stroke-width:1.5;"/>
    </g>
    <g id="line2d_19"/>
    <g id="text_15">
     <!-- actual -->
     <defs>
      <path d="M 8.5 21.578125 
L 8.5 54.6875 
L 17.484375 54.6875 
L 17.484375 21.921875 
Q 17.484375 14.15625 20.5 10.265625 
Q 23.53125 6.390625 29.59375 6.390625 
Q 36.859375 6.390625 41.078125 11.03125 
Q 45.3125 15.671875 45.3125 23.6875 
L 45.3125 54.6875 
L 54.296875 54.6875 
L 54.296875 0 
L 45.3125 0 
L 45.3125 8.40625 
Q 42.046875 3.421875 37.71875 1 
Q 33.40625 -1.421875 27.6875 -1.421875 
Q 18.265625 -1.421875 13.375 4.4375 
Q 8.5 10.296875 8.5 21.578125 
z
M 31.109375 56 
z
" id="DejaVuSans-75"/>
     </defs>
     <g transform="translate(599.803438 120.278437)scale(0.1 -0.1)">
      <use xlink:href="#DejaVuSans-61"/>
      <use x="61.279297" xlink:href="#DejaVuSans-63"/>
      <use x="116.259766" xlink:href="#DejaVuSans-74"/>
      <use x="155.46875" xlink:href="#DejaVuSans-75"/>
      <use x="218.847656" xlink:href="#DejaVuSans-61"/>
      <use x="280.126953" xlink:href="#DejaVuSans-6c"/>
     </g>
    </g>
    <g id="line2d_20">
     <path d="M 571.803438 131.456562 
L 591.803438 131.456562 
" style="fill:none;stroke:#ff7f0e;stroke-linecap:square;stroke-width:1.5;"/>
    </g>
    <g id="line2d_21"/>
    <g id="text_16">
     <!-- pred. (mean) -->
     <defs>
      <path d="M 18.109375 8.203125 
L 18.109375 -20.796875 
L 9.078125 -20.796875 
L 9.078125 54.6875 
L 18.109375 54.6875 
L 18.109375 46.390625 
Q 20.953125 51.265625 25.265625 53.625 
Q 29.59375 56 35.59375 56 
Q 45.5625 56 51.78125 48.09375 
Q 58.015625 40.1875 58.015625 27.296875 
Q 58.015625 14.40625 51.78125 6.484375 
Q 45.5625 -1.421875 35.59375 -1.421875 
Q 29.59375 -1.421875 25.265625 0.953125 
Q 20.953125 3.328125 18.109375 8.203125 
z
M 48.6875 27.296875 
Q 48.6875 37.203125 44.609375 42.84375 
Q 40.53125 48.484375 33.40625 48.484375 
Q 26.265625 48.484375 22.1875 42.84375 
Q 18.109375 37.203125 18.109375 27.296875 
Q 18.109375 17.390625 22.1875 11.75 
Q 26.265625 6.109375 33.40625 6.109375 
Q 40.53125 6.109375 44.609375 11.75 
Q 48.6875 17.390625 48.6875 27.296875 
z
" id="DejaVuSans-70"/>
      <path d="M 45.40625 46.390625 
L 45.40625 75.984375 
L 54.390625 75.984375 
L 54.390625 0 
L 45.40625 0 
L 45.40625 8.203125 
Q 42.578125 3.328125 38.25 0.953125 
Q 33.9375 -1.421875 27.875 -1.421875 
Q 17.96875 -1.421875 11.734375 6.484375 
Q 5.515625 14.40625 5.515625 27.296875 
Q 5.515625 40.1875 11.734375 48.09375 
Q 17.96875 56 27.875 56 
Q 33.9375 56 38.25 53.625 
Q 42.578125 51.265625 45.40625 46.390625 
z
M 14.796875 27.296875 
Q 14.796875 17.390625 18.875 11.75 
Q 22.953125 6.109375 30.078125 6.109375 
Q 37.203125 6.109375 41.296875 11.75 
Q 45.40625 17.390625 45.40625 27.296875 
Q 45.40625 37.203125 41.296875 42.84375 
Q 37.203125 48.484375 30.078125 48.484375 
Q 22.953125 48.484375 18.875 42.84375 
Q 14.796875 37.203125 14.796875 27.296875 
z
" id="DejaVuSans-64"/>
      <path d="M 31 75.875 
Q 24.46875 64.65625 21.28125 53.65625 
Q 18.109375 42.671875 18.109375 31.390625 
Q 18.109375 20.125 21.3125 9.0625 
Q 24.515625 -2 31 -13.1875 
L 23.1875 -13.1875 
Q 15.875 -1.703125 12.234375 9.375 
Q 8.59375 20.453125 8.59375 31.390625 
Q 8.59375 42.28125 12.203125 53.3125 
Q 15.828125 64.359375 23.1875 75.875 
z
" id="DejaVuSans-28"/>
      <path d="M 52 44.1875 
Q 55.375 50.25 60.0625 53.125 
Q 64.75 56 71.09375 56 
Q 79.640625 56 84.28125 50.015625 
Q 88.921875 44.046875 88.921875 33.015625 
L 88.921875 0 
L 79.890625 0 
L 79.890625 32.71875 
Q 79.890625 40.578125 77.09375 44.375 
Q 74.3125 48.1875 68.609375 48.1875 
Q 61.625 48.1875 57.5625 43.546875 
Q 53.515625 38.921875 53.515625 30.90625 
L 53.515625 0 
L 44.484375 0 
L 44.484375 32.71875 
Q 44.484375 40.625 41.703125 44.40625 
Q 38.921875 48.1875 33.109375 48.1875 
Q 26.21875 48.1875 22.15625 43.53125 
Q 18.109375 38.875 18.109375 30.90625 
L 18.109375 0 
L 9.078125 0 
L 9.078125 54.6875 
L 18.109375 54.6875 
L 18.109375 46.1875 
Q 21.1875 51.21875 25.484375 53.609375 
Q 29.78125 56 35.6875 56 
Q 41.65625 56 45.828125 52.96875 
Q 50 49.953125 52 44.1875 
z
" id="DejaVuSans-6d"/>
      <path d="M 8.015625 75.875 
L 15.828125 75.875 
Q 23.140625 64.359375 26.78125 53.3125 
Q 30.421875 42.28125 30.421875 31.390625 
Q 30.421875 20.453125 26.78125 9.375 
Q 23.140625 -1.703125 15.828125 -13.1875 
L 8.015625 -13.1875 
Q 14.5 -2 17.703125 9.0625 
Q 20.90625 20.125 20.90625 31.390625 
Q 20.90625 42.671875 17.703125 53.65625 
Q 14.5 64.65625 8.015625 75.875 
z
" id="DejaVuSans-29"/>
     </defs>
     <g transform="translate(599.803438 134.956562)scale(0.1 -0.1)">
      <use xlink:href="#DejaVuSans-70"/>
      <use x="63.476562" xlink:href="#DejaVuSans-72"/>
      <use x="104.558594" xlink:href="#DejaVuSans-65"/>
      <use x="166.082031" xlink:href="#DejaVuSans-64"/>
      <use x="229.558594" xlink:href="#DejaVuSans-2e"/>
      <use x="261.345703" xlink:href="#DejaVuSans-20"/>
      <use x="293.132812" xlink:href="#DejaVuSans-28"/>
      <use x="332.146484" xlink:href="#DejaVuSans-6d"/>
      <use x="429.558594" xlink:href="#DejaVuSans-65"/>
      <use x="491.082031" xlink:href="#DejaVuSans-61"/>
      <use x="552.361328" xlink:href="#DejaVuSans-6e"/>
      <use x="615.740234" xlink:href="#DejaVuSans-29"/>
     </g>
    </g>
    <g id="line2d_22">
     <path d="M 571.803438 146.134687 
L 591.803438 146.134687 
" style="fill:none;stroke:#2ca02c;stroke-linecap:square;stroke-width:1.5;"/>
    </g>
    <g id="line2d_23"/>
    <g id="text_17">
     <!-- pred.(5th percen.) -->
     <defs>
      <path d="M 54.890625 33.015625 
L 54.890625 0 
L 45.90625 0 
L 45.90625 32.71875 
Q 45.90625 40.484375 42.875 44.328125 
Q 39.84375 48.1875 33.796875 48.1875 
Q 26.515625 48.1875 22.3125 43.546875 
Q 18.109375 38.921875 18.109375 30.90625 
L 18.109375 0 
L 9.078125 0 
L 9.078125 75.984375 
L 18.109375 75.984375 
L 18.109375 46.1875 
Q 21.34375 51.125 25.703125 53.5625 
Q 30.078125 56 35.796875 56 
Q 45.21875 56 50.046875 50.171875 
Q 54.890625 44.34375 54.890625 33.015625 
z
" id="DejaVuSans-68"/>
     </defs>
     <g transform="translate(599.803438 149.634687)scale(0.1 -0.1)">
      <use xlink:href="#DejaVuSans-70"/>
      <use x="63.476562" xlink:href="#DejaVuSans-72"/>
      <use x="104.558594" xlink:href="#DejaVuSans-65"/>
      <use x="166.082031" xlink:href="#DejaVuSans-64"/>
      <use x="229.558594" xlink:href="#DejaVuSans-2e"/>
      <use x="261.345703" xlink:href="#DejaVuSans-28"/>
      <use x="300.359375" xlink:href="#DejaVuSans-35"/>
      <use x="363.982422" xlink:href="#DejaVuSans-74"/>
      <use x="403.191406" xlink:href="#DejaVuSans-68"/>
      <use x="466.570312" xlink:href="#DejaVuSans-20"/>
      <use x="498.357422" xlink:href="#DejaVuSans-70"/>
      <use x="561.833984" xlink:href="#DejaVuSans-65"/>
      <use x="623.357422" xlink:href="#DejaVuSans-72"/>
      <use x="664.439453" xlink:href="#DejaVuSans-63"/>
      <use x="719.419922" xlink:href="#DejaVuSans-65"/>
      <use x="780.943359" xlink:href="#DejaVuSans-6e"/>
      <use x="844.322266" xlink:href="#DejaVuSans-2e"/>
      <use x="876.109375" xlink:href="#DejaVuSans-29"/>
     </g>
    </g>
    <g id="line2d_24">
     <path d="M 571.803438 160.812812 
L 591.803438 160.812812 
" style="fill:none;stroke:#d62728;stroke-linecap:square;stroke-width:1.5;"/>
    </g>
    <g id="line2d_25"/>
    <g id="text_18">
     <!-- pred.(95th percen.) -->
     <defs>
      <path d="M 10.984375 1.515625 
L 10.984375 10.5 
Q 14.703125 8.734375 18.5 7.8125 
Q 22.3125 6.890625 25.984375 6.890625 
Q 35.75 6.890625 40.890625 13.453125 
Q 46.046875 20.015625 46.78125 33.40625 
Q 43.953125 29.203125 39.59375 26.953125 
Q 35.25 24.703125 29.984375 24.703125 
Q 19.046875 24.703125 12.671875 31.3125 
Q 6.296875 37.9375 6.296875 49.421875 
Q 6.296875 60.640625 12.9375 67.421875 
Q 19.578125 74.21875 30.609375 74.21875 
Q 43.265625 74.21875 49.921875 64.515625 
Q 56.59375 54.828125 56.59375 36.375 
Q 56.59375 19.140625 48.40625 8.859375 
Q 40.234375 -1.421875 26.421875 -1.421875 
Q 22.703125 -1.421875 18.890625 -0.6875 
Q 15.09375 0.046875 10.984375 1.515625 
z
M 30.609375 32.421875 
Q 37.25 32.421875 41.125 36.953125 
Q 45.015625 41.5 45.015625 49.421875 
Q 45.015625 57.28125 41.125 61.84375 
Q 37.25 66.40625 30.609375 66.40625 
Q 23.96875 66.40625 20.09375 61.84375 
Q 16.21875 57.28125 16.21875 49.421875 
Q 16.21875 41.5 20.09375 36.953125 
Q 23.96875 32.421875 30.609375 32.421875 
z
" id="DejaVuSans-39"/>
     </defs>
     <g transform="translate(599.803438 164.312812)scale(0.1 -0.1)">
      <use xlink:href="#DejaVuSans-70"/>
      <use x="63.476562" xlink:href="#DejaVuSans-72"/>
      <use x="104.558594" xlink:href="#DejaVuSans-65"/>
      <use x="166.082031" xlink:href="#DejaVuSans-64"/>
      <use x="229.558594" xlink:href="#DejaVuSans-2e"/>
      <use x="261.345703" xlink:href="#DejaVuSans-28"/>
      <use x="300.359375" xlink:href="#DejaVuSans-39"/>
      <use x="363.982422" xlink:href="#DejaVuSans-35"/>
      <use x="427.605469" xlink:href="#DejaVuSans-74"/>
      <use x="466.814453" xlink:href="#DejaVuSans-68"/>
      <use x="530.193359" xlink:href="#DejaVuSans-20"/>
      <use x="561.980469" xlink:href="#DejaVuSans-70"/>
      <use x="625.457031" xlink:href="#DejaVuSans-65"/>
      <use x="686.980469" xlink:href="#DejaVuSans-72"/>
      <use x="728.0625" xlink:href="#DejaVuSans-63"/>
      <use x="783.042969" xlink:href="#DejaVuSans-65"/>
      <use x="844.566406" xlink:href="#DejaVuSans-6e"/>
      <use x="907.945312" xlink:href="#DejaVuSans-2e"/>
      <use x="939.732422" xlink:href="#DejaVuSans-29"/>
     </g>
    </g>
   </g>
  </g>
 </g>
 <defs>
  <clipPath id="p382ba232f1">
   <rect height="718.36" width="650.59" x="56.09" y="103.68"/>
  </clipPath>
 </defs>
</svg>
