<?xml version="1.0" encoding="utf-8" standalone="no"?>
<!DOCTYPE svg PUBLIC "-//W3C//DTD SVG 1.1//EN"
  "http://www.w3.org/Graphics/SVG/1.1/DTD/svg11.dtd">
<!-- Created with matplotlib (http://matplotlib.org/) -->
<svg height="864pt" version="1.1" viewBox="0 0 720 864" width="720pt" xmlns="http://www.w3.org/2000/svg" xmlns:xlink="http://www.w3.org/1999/xlink">
 <defs>
  <style type="text/css">
*{stroke-linecap:butt;stroke-linejoin:round;}
  </style>
 </defs>
 <g id="figure_1">
  <g id="patch_1">
   <path d="M 0 864 
L 720 864 
L 720 0 
L 0 0 
z
" style="fill:#ffffff;"/>
  </g>
  <g id="axes_1">
   <g id="patch_2">
    <path d="M 56.09 619.8 
L 706.68 619.8 
L 706.68 103.68 
L 56.09 103.68 
z
" style="fill:#ffffff;"/>
   </g>
   <g id="PolyCollection_1">
    <path clip-path="url(#p29d1872771)" d="M 85.662273 134.250621 
L 85.662273 361.790485 
L 88.664534 361.790485 
L 91.666795 354.679865 
L 94.669056 361.790485 
L 97.671317 354.679865 
L 100.673579 361.790485 
L 103.67584 361.790485 
L 106.678101 368.901106 
L 109.680362 368.901106 
L 112.682623 361.790485 
L 115.684885 368.901106 
L 118.687146 376.011727 
L 121.689407 390.232968 
L 124.691668 404.45421 
L 127.693929 432.896693 
L 130.696191 461.339176 
L 133.698452 475.560418 
L 136.700713 489.781659 
L 139.702974 496.89228 
L 142.705235 511.113522 
L 145.707497 525.334763 
L 148.709758 525.334763 
L 151.712019 525.334763 
L 154.71428 525.334763 
L 157.716541 525.334763 
L 160.718802 525.334763 
L 163.721064 525.334763 
L 166.723325 532.445384 
L 169.725586 532.445384 
L 172.727847 532.445384 
L 175.730108 539.556005 
L 178.73237 539.556005 
L 181.734631 539.556005 
L 184.736892 539.556005 
L 187.739153 539.556005 
L 190.741414 539.556005 
L 193.743676 539.556005 
L 196.745937 539.556005 
L 199.748198 539.556005 
L 202.750459 539.556005 
L 205.75272 539.556005 
L 208.754982 539.556005 
L 211.757243 532.445384 
L 214.759504 532.445384 
L 217.761765 518.224142 
L 220.764026 504.002901 
L 223.766287 482.671038 
L 226.768549 461.339176 
L 229.77081 432.896693 
L 232.773071 390.232968 
L 235.775332 368.901106 
L 238.777593 361.790485 
L 241.779855 361.790485 
L 244.782116 361.790485 
L 247.784377 354.679865 
L 250.786638 361.790485 
L 253.788899 361.790485 
L 256.791161 354.679865 
L 259.793422 354.679865 
L 262.795683 354.679865 
L 265.797944 354.679865 
L 268.800205 354.679865 
L 271.802467 354.679865 
L 274.804728 354.679865 
L 277.806989 354.679865 
L 280.80925 354.679865 
L 283.811511 361.790485 
L 286.813772 360.368361 
L 289.816034 354.679865 
L 292.818295 361.790485 
L 295.820556 361.790485 
L 298.822817 361.790485 
L 301.825078 361.790485 
L 304.82734 361.790485 
L 307.829601 376.011727 
L 310.831862 390.232968 
L 313.834123 404.45421 
L 316.836384 418.675452 
L 319.838646 432.896693 
L 322.840907 447.117935 
L 325.843168 454.228555 
L 328.845429 468.449797 
L 331.84769 475.560418 
L 334.849952 489.781659 
L 337.852213 489.781659 
L 340.854474 489.781659 
L 343.856735 489.781659 
L 346.858996 489.781659 
L 349.861257 489.781659 
L 352.863519 489.781659 
L 355.86578 496.89228 
L 358.868041 504.002901 
L 361.870302 504.002901 
L 364.872563 511.113522 
L 367.874825 518.224142 
L 370.877086 525.334763 
L 373.879347 525.334763 
L 376.881608 525.334763 
L 379.883869 525.334763 
L 382.886131 532.445384 
L 385.888392 532.445384 
L 388.890653 532.445384 
L 391.892914 532.445384 
L 394.895175 539.556005 
L 397.897437 539.556005 
L 400.899698 539.556005 
L 403.901959 539.556005 
L 406.90422 546.666625 
L 409.906481 539.556005 
L 412.908743 539.556005 
L 415.911004 539.556005 
L 418.913265 546.666625 
L 421.915526 539.556005 
L 424.917787 539.556005 
L 427.920048 539.556005 
L 430.92231 532.445384 
L 433.924571 532.445384 
L 436.926832 525.334763 
L 439.929093 518.224142 
L 442.931354 504.002901 
L 445.933616 489.781659 
L 448.935877 482.671038 
L 451.938138 468.449797 
L 454.940399 454.228555 
L 457.94266 432.896693 
L 460.944922 425.786072 
L 463.947183 411.564831 
L 466.949444 390.232968 
L 469.951705 383.122348 
L 472.953966 376.011727 
L 475.956228 368.901106 
L 478.958489 361.790485 
L 481.96075 361.790485 
L 484.963011 361.790485 
L 487.965272 361.790485 
L 490.967533 361.790485 
L 493.969795 361.790485 
L 496.972056 368.901106 
L 499.974317 368.901106 
L 502.976578 361.790485 
L 505.978839 361.790485 
L 508.981101 368.901106 
L 511.983362 368.901106 
L 514.985623 361.790485 
L 517.987884 361.790485 
L 520.990145 390.232968 
L 523.992407 383.122348 
L 526.994668 383.122348 
L 529.996929 383.122348 
L 532.99919 390.232968 
L 536.001451 390.232968 
L 539.003713 376.011727 
L 542.005974 383.122348 
L 545.008235 404.45421 
L 548.010496 432.896693 
L 551.012757 425.786072 
L 554.015018 432.896693 
L 557.01728 454.228555 
L 560.019541 468.449797 
L 563.021802 475.560418 
L 566.024063 482.671038 
L 569.026324 504.002901 
L 572.028586 518.224142 
L 575.030847 525.334763 
L 578.033108 525.334763 
L 581.035369 525.334763 
L 584.03763 532.445384 
L 587.039892 539.556005 
L 590.042153 539.556005 
L 593.044414 539.556005 
L 596.046675 539.556005 
L 599.048936 539.556005 
L 602.051198 539.556005 
L 605.053459 539.556005 
L 608.05572 539.556005 
L 611.057981 539.556005 
L 614.060242 539.556005 
L 617.062503 546.666625 
L 620.064765 546.666625 
L 623.067026 546.666625 
L 626.069287 546.666625 
L 629.071548 546.666625 
L 632.073809 539.556005 
L 635.076071 539.556005 
L 638.078332 539.556005 
L 641.080593 532.445384 
L 644.082854 525.334763 
L 647.085115 511.113522 
L 650.087377 496.89228 
L 653.089638 468.449797 
L 656.091899 432.896693 
L 659.09416 404.45421 
L 662.096421 390.232968 
L 665.098683 376.011727 
L 668.100944 361.790485 
L 671.103205 368.901106 
L 674.105466 376.011727 
L 677.107727 368.901106 
L 677.107727 141.361242 
L 677.107727 141.361242 
L 674.105466 141.361242 
L 671.103205 141.361242 
L 668.100944 134.250621 
L 665.098683 141.361242 
L 662.096421 141.361242 
L 659.09416 141.361242 
L 656.091899 141.361242 
L 653.089638 148.471862 
L 650.087377 155.582483 
L 647.085115 155.582483 
L 644.082854 155.582483 
L 641.080593 155.582483 
L 638.078332 155.582483 
L 635.076071 155.582483 
L 632.073809 155.582483 
L 629.071548 162.693104 
L 626.069287 155.582483 
L 623.067026 155.582483 
L 620.064765 155.582483 
L 617.062503 157.004607 
L 614.060242 155.582483 
L 611.057981 155.582483 
L 608.05572 155.582483 
L 605.053459 155.582483 
L 602.051198 155.582483 
L 599.048936 155.582483 
L 596.046675 162.693104 
L 593.044414 155.582483 
L 590.042153 155.582483 
L 587.039892 155.582483 
L 584.03763 155.582483 
L 581.035369 155.582483 
L 578.033108 155.582483 
L 575.030847 155.582483 
L 572.028586 155.582483 
L 569.026324 155.582483 
L 566.024063 148.471862 
L 563.021802 148.471862 
L 560.019541 148.471862 
L 557.01728 148.471862 
L 554.015018 148.471862 
L 551.012757 141.361242 
L 548.010496 148.471862 
L 545.008235 141.361242 
L 542.005974 141.361242 
L 539.003713 141.361242 
L 536.001451 141.361242 
L 532.99919 141.361242 
L 529.996929 141.361242 
L 526.994668 141.361242 
L 523.992407 141.361242 
L 520.990145 141.361242 
L 517.987884 141.361242 
L 514.985623 134.250621 
L 511.983362 141.361242 
L 508.981101 141.361242 
L 505.978839 134.250621 
L 502.976578 134.250621 
L 499.974317 141.361242 
L 496.972056 141.361242 
L 493.969795 134.250621 
L 490.967533 134.250621 
L 487.965272 134.250621 
L 484.963011 141.361242 
L 481.96075 134.250621 
L 478.958489 134.250621 
L 475.956228 141.361242 
L 472.953966 141.361242 
L 469.951705 141.361242 
L 466.949444 141.361242 
L 463.947183 141.361242 
L 460.944922 148.471862 
L 457.94266 148.471862 
L 454.940399 148.471862 
L 451.938138 148.471862 
L 448.935877 148.471862 
L 445.933616 148.471862 
L 442.931354 155.582483 
L 439.929093 155.582483 
L 436.926832 155.582483 
L 433.924571 155.582483 
L 430.92231 155.582483 
L 427.920048 155.582483 
L 424.917787 155.582483 
L 421.915526 155.582483 
L 418.913265 155.582483 
L 415.911004 155.582483 
L 412.908743 155.582483 
L 409.906481 155.582483 
L 406.90422 162.693104 
L 403.901959 155.582483 
L 400.899698 155.582483 
L 397.897437 155.582483 
L 394.895175 155.582483 
L 391.892914 155.582483 
L 388.890653 155.582483 
L 385.888392 155.582483 
L 382.886131 155.582483 
L 379.883869 155.582483 
L 376.881608 155.582483 
L 373.879347 155.582483 
L 370.877086 155.582483 
L 367.874825 155.582483 
L 364.872563 155.582483 
L 361.870302 155.582483 
L 358.868041 155.582483 
L 355.86578 148.471862 
L 352.863519 148.471862 
L 349.861257 148.471862 
L 346.858996 148.471862 
L 343.856735 148.471862 
L 340.854474 148.471862 
L 337.852213 148.471862 
L 334.849952 148.471862 
L 331.84769 148.471862 
L 328.845429 148.471862 
L 325.843168 148.471862 
L 322.840907 148.471862 
L 319.838646 148.471862 
L 316.836384 148.471862 
L 313.834123 141.361242 
L 310.831862 141.361242 
L 307.829601 141.361242 
L 304.82734 141.361242 
L 301.825078 134.250621 
L 298.822817 134.250621 
L 295.820556 134.250621 
L 292.818295 134.250621 
L 289.816034 134.250621 
L 286.813772 134.250621 
L 283.811511 134.250621 
L 280.80925 127.14 
L 277.806989 127.14 
L 274.804728 127.14 
L 271.802467 127.14 
L 268.800205 127.14 
L 265.797944 127.14 
L 262.795683 127.14 
L 259.793422 127.14 
L 256.791161 127.14 
L 253.788899 127.14 
L 250.786638 134.250621 
L 247.784377 134.250621 
L 244.782116 134.250621 
L 241.779855 134.250621 
L 238.777593 134.250621 
L 235.775332 141.361242 
L 232.773071 141.361242 
L 229.77081 148.471862 
L 226.768549 148.471862 
L 223.766287 148.471862 
L 220.764026 148.471862 
L 217.761765 155.582483 
L 214.759504 155.582483 
L 211.757243 155.582483 
L 208.754982 155.582483 
L 205.75272 155.582483 
L 202.750459 155.582483 
L 199.748198 155.582483 
L 196.745937 155.582483 
L 193.743676 155.582483 
L 190.741414 155.582483 
L 187.739153 155.582483 
L 184.736892 155.582483 
L 181.734631 155.582483 
L 178.73237 155.582483 
L 175.730108 155.582483 
L 172.727847 155.582483 
L 169.725586 155.582483 
L 166.723325 155.582483 
L 163.721064 155.582483 
L 160.718802 155.582483 
L 157.716541 155.582483 
L 154.71428 155.582483 
L 151.712019 155.582483 
L 148.709758 155.582483 
L 145.707497 155.582483 
L 142.705235 155.582483 
L 139.702974 155.582483 
L 136.700713 155.582483 
L 133.698452 148.471862 
L 130.696191 148.471862 
L 127.693929 148.471862 
L 124.691668 141.361242 
L 121.689407 141.361242 
L 118.687146 141.361242 
L 115.684885 141.361242 
L 112.682623 141.361242 
L 109.680362 141.361242 
L 106.678101 141.361242 
L 103.67584 141.361242 
L 100.673579 134.250621 
L 97.671317 134.250621 
L 94.669056 134.250621 
L 91.666795 134.250621 
L 88.664534 134.250621 
L 85.662273 134.250621 
z
" style="fill:#008000;fill-opacity:0.4;"/>
   </g>
   <g id="matplotlib.axis_1">
    <g id="xtick_1">
     <g id="line2d_1">
      <defs>
       <path d="M 0 0 
L 0 3.5 
" id="ma90de868cb" style="stroke:#000000;stroke-width:0.8;"/>
      </defs>
      <g>
       <use style="stroke:#000000;stroke-width:0.8;" x="85.662273" xlink:href="#ma90de868cb" y="619.8"/>
      </g>
     </g>
     <g id="text_1">
      <!-- 0.0 -->
      <defs>
       <path d="M 31.78125 66.40625 
Q 24.171875 66.40625 20.328125 58.90625 
Q 16.5 51.421875 16.5 36.375 
Q 16.5 21.390625 20.328125 13.890625 
Q 24.171875 6.390625 31.78125 6.390625 
Q 39.453125 6.390625 43.28125 13.890625 
Q 47.125 21.390625 47.125 36.375 
Q 47.125 51.421875 43.28125 58.90625 
Q 39.453125 66.40625 31.78125 66.40625 
z
M 31.78125 74.21875 
Q 44.046875 74.21875 50.515625 64.515625 
Q 56.984375 54.828125 56.984375 36.375 
Q 56.984375 17.96875 50.515625 8.265625 
Q 44.046875 -1.421875 31.78125 -1.421875 
Q 19.53125 -1.421875 13.0625 8.265625 
Q 6.59375 17.96875 6.59375 36.375 
Q 6.59375 54.828125 13.0625 64.515625 
Q 19.53125 74.21875 31.78125 74.21875 
z
" id="DejaVuSans-30"/>
       <path d="M 10.6875 12.40625 
L 21 12.40625 
L 21 0 
L 10.6875 0 
z
" id="DejaVuSans-2e"/>
      </defs>
      <g transform="translate(77.71071 634.398437)scale(0.1 -0.1)">
       <use xlink:href="#DejaVuSans-30"/>
       <use x="63.623047" xlink:href="#DejaVuSans-2e"/>
       <use x="95.410156" xlink:href="#DejaVuSans-30"/>
      </g>
     </g>
    </g>
    <g id="xtick_2">
     <g id="line2d_2">
      <g>
       <use style="stroke:#000000;stroke-width:0.8;" x="203.951364" xlink:href="#ma90de868cb" y="619.8"/>
      </g>
     </g>
     <g id="text_2">
      <!-- 0.2 -->
      <defs>
       <path d="M 19.1875 8.296875 
L 53.609375 8.296875 
L 53.609375 0 
L 7.328125 0 
L 7.328125 8.296875 
Q 12.9375 14.109375 22.625 23.890625 
Q 32.328125 33.6875 34.8125 36.53125 
Q 39.546875 41.84375 41.421875 45.53125 
Q 43.3125 49.21875 43.3125 52.78125 
Q 43.3125 58.59375 39.234375 62.25 
Q 35.15625 65.921875 28.609375 65.921875 
Q 23.96875 65.921875 18.8125 64.3125 
Q 13.671875 62.703125 7.8125 59.421875 
L 7.8125 69.390625 
Q 13.765625 71.78125 18.9375 73 
Q 24.125 74.21875 28.421875 74.21875 
Q 39.75 74.21875 46.484375 68.546875 
Q 53.21875 62.890625 53.21875 53.421875 
Q 53.21875 48.921875 51.53125 44.890625 
Q 49.859375 40.875 45.40625 35.40625 
Q 44.1875 33.984375 37.640625 27.21875 
Q 31.109375 20.453125 19.1875 8.296875 
z
" id="DejaVuSans-32"/>
      </defs>
      <g transform="translate(195.999801 634.398437)scale(0.1 -0.1)">
       <use xlink:href="#DejaVuSans-30"/>
       <use x="63.623047" xlink:href="#DejaVuSans-2e"/>
       <use x="95.410156" xlink:href="#DejaVuSans-32"/>
      </g>
     </g>
    </g>
    <g id="xtick_3">
     <g id="line2d_3">
      <g>
       <use style="stroke:#000000;stroke-width:0.8;" x="322.240455" xlink:href="#ma90de868cb" y="619.8"/>
      </g>
     </g>
     <g id="text_3">
      <!-- 0.4 -->
      <defs>
       <path d="M 37.796875 64.3125 
L 12.890625 25.390625 
L 37.796875 25.390625 
z
M 35.203125 72.90625 
L 47.609375 72.90625 
L 47.609375 25.390625 
L 58.015625 25.390625 
L 58.015625 17.1875 
L 47.609375 17.1875 
L 47.609375 0 
L 37.796875 0 
L 37.796875 17.1875 
L 4.890625 17.1875 
L 4.890625 26.703125 
z
" id="DejaVuSans-34"/>
      </defs>
      <g transform="translate(314.288892 634.398437)scale(0.1 -0.1)">
       <use xlink:href="#DejaVuSans-30"/>
       <use x="63.623047" xlink:href="#DejaVuSans-2e"/>
       <use x="95.410156" xlink:href="#DejaVuSans-34"/>
      </g>
     </g>
    </g>
    <g id="xtick_4">
     <g id="line2d_4">
      <g>
       <use style="stroke:#000000;stroke-width:0.8;" x="440.529545" xlink:href="#ma90de868cb" y="619.8"/>
      </g>
     </g>
     <g id="text_4">
      <!-- 0.6 -->
      <defs>
       <path d="M 33.015625 40.375 
Q 26.375 40.375 22.484375 35.828125 
Q 18.609375 31.296875 18.609375 23.390625 
Q 18.609375 15.53125 22.484375 10.953125 
Q 26.375 6.390625 33.015625 6.390625 
Q 39.65625 6.390625 43.53125 10.953125 
Q 47.40625 15.53125 47.40625 23.390625 
Q 47.40625 31.296875 43.53125 35.828125 
Q 39.65625 40.375 33.015625 40.375 
z
M 52.59375 71.296875 
L 52.59375 62.3125 
Q 48.875 64.0625 45.09375 64.984375 
Q 41.3125 65.921875 37.59375 65.921875 
Q 27.828125 65.921875 22.671875 59.328125 
Q 17.53125 52.734375 16.796875 39.40625 
Q 19.671875 43.65625 24.015625 45.921875 
Q 28.375 48.1875 33.59375 48.1875 
Q 44.578125 48.1875 50.953125 41.515625 
Q 57.328125 34.859375 57.328125 23.390625 
Q 57.328125 12.15625 50.6875 5.359375 
Q 44.046875 -1.421875 33.015625 -1.421875 
Q 20.359375 -1.421875 13.671875 8.265625 
Q 6.984375 17.96875 6.984375 36.375 
Q 6.984375 53.65625 15.1875 63.9375 
Q 23.390625 74.21875 37.203125 74.21875 
Q 40.921875 74.21875 44.703125 73.484375 
Q 48.484375 72.75 52.59375 71.296875 
z
" id="DejaVuSans-36"/>
      </defs>
      <g transform="translate(432.577983 634.398437)scale(0.1 -0.1)">
       <use xlink:href="#DejaVuSans-30"/>
       <use x="63.623047" xlink:href="#DejaVuSans-2e"/>
       <use x="95.410156" xlink:href="#DejaVuSans-36"/>
      </g>
     </g>
    </g>
    <g id="xtick_5">
     <g id="line2d_5">
      <g>
       <use style="stroke:#000000;stroke-width:0.8;" x="558.818636" xlink:href="#ma90de868cb" y="619.8"/>
      </g>
     </g>
     <g id="text_5">
      <!-- 0.8 -->
      <defs>
       <path d="M 31.78125 34.625 
Q 24.75 34.625 20.71875 30.859375 
Q 16.703125 27.09375 16.703125 20.515625 
Q 16.703125 13.921875 20.71875 10.15625 
Q 24.75 6.390625 31.78125 6.390625 
Q 38.8125 6.390625 42.859375 10.171875 
Q 46.921875 13.96875 46.921875 20.515625 
Q 46.921875 27.09375 42.890625 30.859375 
Q 38.875 34.625 31.78125 34.625 
z
M 21.921875 38.8125 
Q 15.578125 40.375 12.03125 44.71875 
Q 8.5 49.078125 8.5 55.328125 
Q 8.5 64.0625 14.71875 69.140625 
Q 20.953125 74.21875 31.78125 74.21875 
Q 42.671875 74.21875 48.875 69.140625 
Q 55.078125 64.0625 55.078125 55.328125 
Q 55.078125 49.078125 51.53125 44.71875 
Q 48 40.375 41.703125 38.8125 
Q 48.828125 37.15625 52.796875 32.3125 
Q 56.78125 27.484375 56.78125 20.515625 
Q 56.78125 9.90625 50.3125 4.234375 
Q 43.84375 -1.421875 31.78125 -1.421875 
Q 19.734375 -1.421875 13.25 4.234375 
Q 6.78125 9.90625 6.78125 20.515625 
Q 6.78125 27.484375 10.78125 32.3125 
Q 14.796875 37.15625 21.921875 38.8125 
z
M 18.3125 54.390625 
Q 18.3125 48.734375 21.84375 45.5625 
Q 25.390625 42.390625 31.78125 42.390625 
Q 38.140625 42.390625 41.71875 45.5625 
Q 45.3125 48.734375 45.3125 54.390625 
Q 45.3125 60.0625 41.71875 63.234375 
Q 38.140625 66.40625 31.78125 66.40625 
Q 25.390625 66.40625 21.84375 63.234375 
Q 18.3125 60.0625 18.3125 54.390625 
z
" id="DejaVuSans-38"/>
      </defs>
      <g transform="translate(550.867074 634.398437)scale(0.1 -0.1)">
       <use xlink:href="#DejaVuSans-30"/>
       <use x="63.623047" xlink:href="#DejaVuSans-2e"/>
       <use x="95.410156" xlink:href="#DejaVuSans-38"/>
      </g>
     </g>
    </g>
    <g id="xtick_6">
     <g id="line2d_6">
      <g>
       <use style="stroke:#000000;stroke-width:0.8;" x="677.107727" xlink:href="#ma90de868cb" y="619.8"/>
      </g>
     </g>
     <g id="text_6">
      <!-- 1.0 -->
      <defs>
       <path d="M 12.40625 8.296875 
L 28.515625 8.296875 
L 28.515625 63.921875 
L 10.984375 60.40625 
L 10.984375 69.390625 
L 28.421875 72.90625 
L 38.28125 72.90625 
L 38.28125 8.296875 
L 54.390625 8.296875 
L 54.390625 0 
L 12.40625 0 
z
" id="DejaVuSans-31"/>
      </defs>
      <g transform="translate(669.156165 634.398437)scale(0.1 -0.1)">
       <use xlink:href="#DejaVuSans-31"/>
       <use x="63.623047" xlink:href="#DejaVuSans-2e"/>
       <use x="95.410156" xlink:href="#DejaVuSans-30"/>
      </g>
     </g>
    </g>
   </g>
   <g id="matplotlib.axis_2">
    <g id="ytick_1">
     <g id="line2d_7">
      <defs>
       <path d="M 0 0 
L -3.5 0 
" id="m91effe966b" style="stroke:#000000;stroke-width:0.8;"/>
      </defs>
      <g>
       <use style="stroke:#000000;stroke-width:0.8;" x="56.09" xlink:href="#m91effe966b" y="603.551592"/>
      </g>
     </g>
     <g id="text_7">
      <!-- 0.0 -->
      <g transform="translate(33.186875 607.35081)scale(0.1 -0.1)">
       <use xlink:href="#DejaVuSans-30"/>
       <use x="63.623047" xlink:href="#DejaVuSans-2e"/>
       <use x="95.410156" xlink:href="#DejaVuSans-30"/>
      </g>
     </g>
    </g>
    <g id="ytick_2">
     <g id="line2d_8">
      <g>
       <use style="stroke:#000000;stroke-width:0.8;" x="56.09" xlink:href="#m91effe966b" y="532.445384"/>
      </g>
     </g>
     <g id="text_8">
      <!-- 0.1 -->
      <g transform="translate(33.186875 536.244603)scale(0.1 -0.1)">
       <use xlink:href="#DejaVuSans-30"/>
       <use x="63.623047" xlink:href="#DejaVuSans-2e"/>
       <use x="95.410156" xlink:href="#DejaVuSans-31"/>
      </g>
     </g>
    </g>
    <g id="ytick_3">
     <g id="line2d_9">
      <g>
       <use style="stroke:#000000;stroke-width:0.8;" x="56.09" xlink:href="#m91effe966b" y="461.339176"/>
      </g>
     </g>
     <g id="text_9">
      <!-- 0.2 -->
      <g transform="translate(33.186875 465.138395)scale(0.1 -0.1)">
       <use xlink:href="#DejaVuSans-30"/>
       <use x="63.623047" xlink:href="#DejaVuSans-2e"/>
       <use x="95.410156" xlink:href="#DejaVuSans-32"/>
      </g>
     </g>
    </g>
    <g id="ytick_4">
     <g id="line2d_10">
      <g>
       <use style="stroke:#000000;stroke-width:0.8;" x="56.09" xlink:href="#m91effe966b" y="390.232968"/>
      </g>
     </g>
     <g id="text_10">
      <!-- 0.3 -->
      <defs>
       <path d="M 40.578125 39.3125 
Q 47.65625 37.796875 51.625 33 
Q 55.609375 28.21875 55.609375 21.1875 
Q 55.609375 10.40625 48.1875 4.484375 
Q 40.765625 -1.421875 27.09375 -1.421875 
Q 22.515625 -1.421875 17.65625 -0.515625 
Q 12.796875 0.390625 7.625 2.203125 
L 7.625 11.71875 
Q 11.71875 9.328125 16.59375 8.109375 
Q 21.484375 6.890625 26.8125 6.890625 
Q 36.078125 6.890625 40.9375 10.546875 
Q 45.796875 14.203125 45.796875 21.1875 
Q 45.796875 27.640625 41.28125 31.265625 
Q 36.765625 34.90625 28.71875 34.90625 
L 20.21875 34.90625 
L 20.21875 43.015625 
L 29.109375 43.015625 
Q 36.375 43.015625 40.234375 45.921875 
Q 44.09375 48.828125 44.09375 54.296875 
Q 44.09375 59.90625 40.109375 62.90625 
Q 36.140625 65.921875 28.71875 65.921875 
Q 24.65625 65.921875 20.015625 65.03125 
Q 15.375 64.15625 9.8125 62.3125 
L 9.8125 71.09375 
Q 15.4375 72.65625 20.34375 73.4375 
Q 25.25 74.21875 29.59375 74.21875 
Q 40.828125 74.21875 47.359375 69.109375 
Q 53.90625 64.015625 53.90625 55.328125 
Q 53.90625 49.265625 50.4375 45.09375 
Q 46.96875 40.921875 40.578125 39.3125 
z
" id="DejaVuSans-33"/>
      </defs>
      <g transform="translate(33.186875 394.032187)scale(0.1 -0.1)">
       <use xlink:href="#DejaVuSans-30"/>
       <use x="63.623047" xlink:href="#DejaVuSans-2e"/>
       <use x="95.410156" xlink:href="#DejaVuSans-33"/>
      </g>
     </g>
    </g>
    <g id="ytick_5">
     <g id="line2d_11">
      <g>
       <use style="stroke:#000000;stroke-width:0.8;" x="56.09" xlink:href="#m91effe966b" y="319.126761"/>
      </g>
     </g>
     <g id="text_11">
      <!-- 0.4 -->
      <g transform="translate(33.186875 322.92598)scale(0.1 -0.1)">
       <use xlink:href="#DejaVuSans-30"/>
       <use x="63.623047" xlink:href="#DejaVuSans-2e"/>
       <use x="95.410156" xlink:href="#DejaVuSans-34"/>
      </g>
     </g>
    </g>
    <g id="ytick_6">
     <g id="line2d_12">
      <g>
       <use style="stroke:#000000;stroke-width:0.8;" x="56.09" xlink:href="#m91effe966b" y="248.020553"/>
      </g>
     </g>
     <g id="text_12">
      <!-- 0.5 -->
      <defs>
       <path d="M 10.796875 72.90625 
L 49.515625 72.90625 
L 49.515625 64.59375 
L 19.828125 64.59375 
L 19.828125 46.734375 
Q 21.96875 47.46875 24.109375 47.828125 
Q 26.265625 48.1875 28.421875 48.1875 
Q 40.625 48.1875 47.75 41.5 
Q 54.890625 34.8125 54.890625 23.390625 
Q 54.890625 11.625 47.5625 5.09375 
Q 40.234375 -1.421875 26.90625 -1.421875 
Q 22.3125 -1.421875 17.546875 -0.640625 
Q 12.796875 0.140625 7.71875 1.703125 
L 7.71875 11.625 
Q 12.109375 9.234375 16.796875 8.0625 
Q 21.484375 6.890625 26.703125 6.890625 
Q 35.15625 6.890625 40.078125 11.328125 
Q 45.015625 15.765625 45.015625 23.390625 
Q 45.015625 31 40.078125 35.4375 
Q 35.15625 39.890625 26.703125 39.890625 
Q 22.75 39.890625 18.8125 39.015625 
Q 14.890625 38.140625 10.796875 36.28125 
z
" id="DejaVuSans-35"/>
      </defs>
      <g transform="translate(33.186875 251.819772)scale(0.1 -0.1)">
       <use xlink:href="#DejaVuSans-30"/>
       <use x="63.623047" xlink:href="#DejaVuSans-2e"/>
       <use x="95.410156" xlink:href="#DejaVuSans-35"/>
      </g>
     </g>
    </g>
    <g id="ytick_7">
     <g id="line2d_13">
      <g>
       <use style="stroke:#000000;stroke-width:0.8;" x="56.09" xlink:href="#m91effe966b" y="176.914345"/>
      </g>
     </g>
     <g id="text_13">
      <!-- 0.6 -->
      <g transform="translate(33.186875 180.713564)scale(0.1 -0.1)">
       <use xlink:href="#DejaVuSans-30"/>
       <use x="63.623047" xlink:href="#DejaVuSans-2e"/>
       <use x="95.410156" xlink:href="#DejaVuSans-36"/>
      </g>
     </g>
    </g>
    <g id="ytick_8">
     <g id="line2d_14">
      <g>
       <use style="stroke:#000000;stroke-width:0.8;" x="56.09" xlink:href="#m91effe966b" y="105.808138"/>
      </g>
     </g>
     <g id="text_14">
      <!-- 0.7 -->
      <defs>
       <path d="M 8.203125 72.90625 
L 55.078125 72.90625 
L 55.078125 68.703125 
L 28.609375 0 
L 18.3125 0 
L 43.21875 64.59375 
L 8.203125 64.59375 
z
" id="DejaVuSans-37"/>
      </defs>
      <g transform="translate(33.186875 109.607356)scale(0.1 -0.1)">
       <use xlink:href="#DejaVuSans-30"/>
       <use x="63.623047" xlink:href="#DejaVuSans-2e"/>
       <use x="95.410156" xlink:href="#DejaVuSans-37"/>
      </g>
     </g>
    </g>
   </g>
   <g id="line2d_15">
    <path clip-path="url(#p29d1872771)" d="M 85.662273 252.587705 
L 88.664534 244.895435 
L 91.666795 258.83794 
L 94.669056 260.279974 
L 97.671317 292.491798 
L 100.673579 320.857486 
L 103.67584 342.972939 
L 106.678101 338.165448 
L 109.680362 327.5884 
L 112.682623 339.607482 
L 115.684885 348.742496 
L 118.687146 367.97317 
L 121.689407 376.626796 
L 124.691668 406.915907 
L 127.693929 439.608408 
L 133.698452 479.512501 
L 136.700713 491.531583 
L 139.702974 522.78205 
L 142.705235 536.724271 
L 145.707497 541.051226 
L 148.709758 546.339679 
L 151.712019 542.493544 
L 154.71428 541.051226 
L 157.716541 541.051226 
L 160.718802 548.743567 
L 163.721064 562.205181 
L 166.723325 566.051386 
L 169.725586 568.455203 
L 172.727847 575.666794 
L 175.730108 575.666794 
L 178.73237 578.070682 
L 181.734631 572.301409 
L 184.736892 569.416772 
L 187.739153 573.743727 
L 190.741414 573.262978 
L 193.743676 576.147544 
L 196.745937 576.628364 
L 199.748198 579.513 
L 202.750459 575.666794 
L 205.75272 569.897521 
L 208.754982 562.205181 
L 211.757243 551.628203 
L 214.759504 524.224084 
L 217.761765 491.050905 
L 220.764026 463.165895 
L 223.766287 437.204307 
L 226.768549 399.223637 
L 229.77081 363.165679 
L 232.773071 331.915212 
L 235.775332 305.472947 
L 238.777593 284.799528 
L 241.779855 262.203397 
L 244.782116 251.145671 
L 247.784377 241.529978 
L 250.786638 232.876353 
L 256.791161 206.434088 
L 259.793422 197.299073 
L 262.795683 188.645448 
L 265.797944 193.452938 
L 268.800205 186.241347 
L 271.802467 189.126125 
L 274.804728 206.434088 
L 277.806989 221.818627 
L 280.80925 240.087945 
L 283.811511 241.0493 
L 286.813772 260.761363 
L 289.816034 290.088408 
L 292.818295 294.895898 
L 295.820556 298.261355 
L 298.822817 311.723182 
L 301.825078 323.742265 
L 304.82734 351.145886 
L 310.831862 379.511574 
L 313.834123 396.819537 
L 316.836384 403.55045 
L 319.838646 420.858412 
L 322.840907 433.83885 
L 325.843168 449.704778 
L 328.845429 458.839082 
L 331.84769 475.666366 
L 334.849952 479.993179 
L 340.854474 477.1084 
L 343.856735 480.473857 
L 346.858996 479.993179 
L 349.861257 470.858164 
L 355.86578 498.262497 
L 358.868041 505.954766 
L 361.870302 510.281579 
L 364.872563 530.954998 
L 367.874825 544.897361 
L 370.877086 548.743567 
L 373.879347 551.147454 
L 376.881608 549.224316 
L 379.883869 553.070522 
L 382.886131 552.589773 
L 385.888392 555.955158 
L 388.890653 564.128248 
L 394.895175 577.589862 
L 397.897437 582.397637 
L 400.899698 588.16691 
L 403.901959 590.089978 
L 406.90422 588.647659 
L 409.906481 586.243772 
L 412.908743 590.089978 
L 415.911004 590.570727 
L 418.913265 584.801453 
L 421.915526 579.513 
L 424.917787 574.705225 
L 427.920048 565.570566 
L 430.92231 552.589773 
L 433.924571 533.839634 
L 436.926832 522.301372 
L 439.929093 495.377718 
L 442.931354 475.666366 
L 445.933616 461.243183 
L 448.935877 442.493187 
L 451.938138 422.300446 
L 454.940399 405.954551 
L 457.94266 403.55045 
L 460.944922 380.473641 
L 463.947183 361.242257 
L 466.949444 356.915444 
L 469.951705 346.338395 
L 472.953966 331.434534 
L 475.956228 298.742033 
L 478.958489 313.165216 
L 481.96075 317.492029 
L 484.963011 307.876337 
L 487.965272 294.895898 
L 490.967533 308.838404 
L 493.969795 346.338395 
L 496.972056 317.011351 
L 499.974317 303.549524 
L 502.976578 314.60725 
L 505.978839 339.126804 
L 508.981101 317.011351 
L 511.983362 301.626812 
L 514.985623 335.280669 
L 517.987884 361.722935 
L 520.990145 360.280901 
L 523.992407 355.47341 
L 526.994668 354.030665 
L 529.996929 368.453848 
L 532.99919 360.761579 
L 536.001451 348.261818 
L 539.003713 360.280901 
L 542.005974 380.473641 
L 545.008235 407.877263 
L 548.010496 395.377503 
L 551.012757 407.877263 
L 554.015018 433.358172 
L 557.01728 445.858644 
L 560.019541 458.839082 
L 563.021802 470.377486 
L 566.024063 504.512732 
L 569.026324 528.070219 
L 572.028586 536.243451 
L 575.030847 542.012724 
L 578.033108 549.705136 
L 581.035369 567.493705 
L 584.03763 575.666794 
L 587.039892 579.03218 
L 590.042153 584.320704 
L 593.044414 588.647659 
L 596.046675 589.128408 
L 599.048936 587.205341 
L 602.051198 587.205341 
L 605.053459 584.801453 
L 608.05572 586.724592 
L 611.057981 590.089978 
L 614.060242 591.532296 
L 617.062503 594.897682 
L 620.064765 596.34 
L 623.067026 596.34 
L 626.069287 592.013045 
L 629.071548 584.801453 
L 632.073809 579.513 
L 635.076071 572.301409 
L 638.078332 561.243611 
L 641.080593 541.531975 
L 647.085115 486.724092 
L 650.087377 436.242951 
L 653.089638 400.184993 
L 656.091899 378.069541 
L 659.09416 364.127035 
L 662.096421 344.415684 
L 665.098683 321.818842 
L 668.100944 336.242025 
L 671.103205 345.377039 
L 674.105466 332.876568 
L 677.107727 314.126572 
L 677.107727 314.126572 
" style="fill:none;stroke:#1f77b4;stroke-linecap:square;stroke-width:1.5;"/>
   </g>
   <g id="line2d_16">
    <path clip-path="url(#p29d1872771)" d="M 85.662273 284.888071 
L 88.664534 270.713619 
L 91.666795 267.315756 
L 94.669056 272.777697 
L 97.671317 273.926383 
L 103.67584 304.274701 
L 106.678101 315.139348 
L 109.680362 316.834537 
L 112.682623 309.815717 
L 118.687146 319.333945 
L 121.689407 327.509592 
L 124.691668 334.719594 
L 127.693929 343.578837 
L 130.696191 357.946811 
L 133.698452 365.29428 
L 136.700713 371.897046 
L 139.702974 375.406831 
L 142.705235 381.833855 
L 145.707497 386.787005 
L 148.709758 387.96049 
L 151.712019 388.412384 
L 154.71428 388.416595 
L 157.716541 387.537324 
L 160.718802 387.907804 
L 163.721064 388.872794 
L 166.723325 391.21031 
L 169.725586 392.67782 
L 172.727847 392.678195 
L 175.730108 394.39369 
L 178.73237 394.391725 
L 181.734631 394.720562 
L 184.736892 394.421764 
L 187.739153 392.878922 
L 190.741414 393.910166 
L 193.743676 393.895848 
L 196.745937 394.469863 
L 199.748198 394.478847 
L 202.750459 394.779611 
L 205.75272 394.858405 
L 208.754982 393.413821 
L 211.757243 392.455383 
L 214.759504 390.350785 
L 217.761765 385.703264 
L 220.764026 376.887535 
L 223.766287 369.246694 
L 226.768549 359.488342 
L 229.77081 346.964347 
L 232.773071 329.48243 
L 235.775332 313.767663 
L 238.777593 301.334347 
L 241.779855 286.88393 
L 247.784377 268.54127 
L 250.786638 265.881467 
L 253.788899 260.482504 
L 256.791161 254.819181 
L 259.793422 247.50699 
L 262.795683 243.491129 
L 265.797944 239.76892 
L 268.800205 239.75245 
L 271.802467 238.368039 
L 274.804728 237.491107 
L 277.806989 247.502966 
L 280.80925 252.795716 
L 283.811511 262.452161 
L 286.813772 265.135172 
L 289.816034 272.968131 
L 292.818295 287.786596 
L 295.820556 292.159555 
L 298.822817 294.956546 
L 301.825078 299.549323 
L 304.82734 306.786275 
L 307.829601 319.296888 
L 310.831862 326.528226 
L 313.834123 334.481809 
L 316.836384 341.636599 
L 319.838646 345.301257 
L 322.840907 351.557779 
L 325.843168 356.113499 
L 328.845429 362.76006 
L 331.84769 365.60983 
L 334.849952 370.480911 
L 337.852213 372.642873 
L 340.854474 371.795139 
L 343.856735 372.529362 
L 346.858996 372.451784 
L 349.861257 372.659624 
L 352.863519 369.588539 
L 355.86578 373.068472 
L 358.868041 377.675379 
L 361.870302 379.280077 
L 364.872563 380.169828 
L 367.874825 384.958092 
L 370.877086 388.533569 
L 373.879347 389.314488 
L 376.881608 389.670183 
L 379.883869 389.345837 
L 382.886131 390.336654 
L 385.888392 390.173358 
L 388.890653 390.566204 
L 391.892914 391.835607 
L 397.897437 394.632504 
L 403.901959 396.057529 
L 406.90422 396.748425 
L 412.908743 396.140347 
L 415.911004 396.38384 
L 418.913265 396.744401 
L 421.915526 396.164958 
L 424.917787 394.890222 
L 427.920048 394.66011 
L 430.92231 393.045119 
L 433.924571 390.45812 
L 436.926832 387.401634 
L 439.929093 384.084249 
L 442.931354 378.616132 
L 445.933616 371.386852 
L 448.935877 367.722288 
L 451.938138 361.766342 
L 454.940399 354.164711 
L 457.94266 347.342782 
L 460.944922 344.99441 
L 463.947183 338.378356 
L 466.949444 326.051627 
L 469.951705 324.756677 
L 472.953966 319.684587 
L 475.956228 312.584447 
L 478.958489 297.43256 
L 481.96075 299.234896 
L 484.963011 305.973633 
L 490.967533 293.192389 
L 493.969795 298.799191 
L 496.972056 316.912956 
L 499.974317 308.71223 
L 502.976578 295.931735 
L 505.978839 302.279498 
L 508.981101 313.357225 
L 511.983362 306.955841 
L 514.985623 296.442678 
L 517.987884 309.556503 
L 520.990145 326.622928 
L 523.992407 326.105435 
L 526.994668 324.562968 
L 529.996929 321.330833 
L 532.99919 329.165103 
L 536.001451 326.859029 
L 539.003713 320.579673 
L 542.005974 324.988941 
L 545.008235 333.660744 
L 548.010496 347.328652 
L 551.012757 343.145939 
L 554.015018 345.778511 
L 557.01728 355.226087 
L 560.019541 361.266348 
L 566.024063 369.314539 
L 572.028586 384.447149 
L 575.030847 387.023012 
L 578.033108 387.387878 
L 581.035369 389.242619 
L 584.03763 391.599881 
L 587.039892 394.697261 
L 590.042153 394.629416 
L 593.044414 395.41361 
L 596.046675 396.474519 
L 599.048936 396.31665 
L 602.051198 396.309819 
L 605.053459 396.189476 
L 608.05572 395.831816 
L 611.057981 395.93466 
L 614.060242 396.444386 
L 617.062503 396.807286 
L 620.064765 397.288003 
L 623.067026 397.524197 
L 626.069287 397.606079 
L 629.071548 397.325341 
L 632.073809 395.911359 
L 638.078332 393.974642 
L 641.080593 392.290964 
L 644.082854 389.015128 
L 650.087377 376.476254 
L 656.091899 345.995241 
L 659.09416 334.782385 
L 662.096421 328.611207 
L 665.098683 319.784529 
L 668.100944 308.361776 
L 671.103205 311.96177 
L 674.105466 318.396468 
L 677.107727 313.505548 
L 677.107727 313.505548 
" style="fill:none;stroke:#ff7f0e;stroke-linecap:square;stroke-width:1.5;"/>
   </g>
   <g id="line2d_17">
    <path clip-path="url(#p29d1872771)" d="M 85.662273 361.790485 
L 88.664534 361.790485 
L 91.666795 354.679865 
L 94.669056 361.790485 
L 97.671317 354.679865 
L 100.673579 361.790485 
L 103.67584 361.790485 
L 106.678101 368.901106 
L 109.680362 368.901106 
L 112.682623 361.790485 
L 118.687146 376.011727 
L 124.691668 404.45421 
L 130.696191 461.339176 
L 136.700713 489.781659 
L 139.702974 496.89228 
L 145.707497 525.334763 
L 163.721064 525.334763 
L 166.723325 532.445384 
L 172.727847 532.445384 
L 175.730108 539.556005 
L 208.754982 539.556005 
L 211.757243 532.445384 
L 214.759504 532.445384 
L 220.764026 504.002901 
L 226.768549 461.339176 
L 229.77081 432.896693 
L 232.773071 390.232968 
L 235.775332 368.901106 
L 238.777593 361.790485 
L 244.782116 361.790485 
L 247.784377 354.679865 
L 250.786638 361.790485 
L 253.788899 361.790485 
L 256.791161 354.679865 
L 280.80925 354.679865 
L 283.811511 361.790485 
L 286.813772 360.368361 
L 289.816034 354.679865 
L 292.818295 361.790485 
L 304.82734 361.790485 
L 322.840907 447.117935 
L 325.843168 454.228555 
L 328.845429 468.449797 
L 331.84769 475.560418 
L 334.849952 489.781659 
L 352.863519 489.781659 
L 358.868041 504.002901 
L 361.870302 504.002901 
L 370.877086 525.334763 
L 379.883869 525.334763 
L 382.886131 532.445384 
L 391.892914 532.445384 
L 394.895175 539.556005 
L 403.901959 539.556005 
L 406.90422 546.666625 
L 409.906481 539.556005 
L 415.911004 539.556005 
L 418.913265 546.666625 
L 421.915526 539.556005 
L 427.920048 539.556005 
L 430.92231 532.445384 
L 433.924571 532.445384 
L 439.929093 518.224142 
L 445.933616 489.781659 
L 448.935877 482.671038 
L 454.940399 454.228555 
L 457.94266 432.896693 
L 460.944922 425.786072 
L 463.947183 411.564831 
L 466.949444 390.232968 
L 478.958489 361.790485 
L 493.969795 361.790485 
L 496.972056 368.901106 
L 499.974317 368.901106 
L 502.976578 361.790485 
L 505.978839 361.790485 
L 508.981101 368.901106 
L 511.983362 368.901106 
L 514.985623 361.790485 
L 517.987884 361.790485 
L 520.990145 390.232968 
L 523.992407 383.122348 
L 529.996929 383.122348 
L 532.99919 390.232968 
L 536.001451 390.232968 
L 539.003713 376.011727 
L 542.005974 383.122348 
L 545.008235 404.45421 
L 548.010496 432.896693 
L 551.012757 425.786072 
L 554.015018 432.896693 
L 557.01728 454.228555 
L 560.019541 468.449797 
L 566.024063 482.671038 
L 569.026324 504.002901 
L 572.028586 518.224142 
L 575.030847 525.334763 
L 581.035369 525.334763 
L 587.039892 539.556005 
L 614.060242 539.556005 
L 617.062503 546.666625 
L 629.071548 546.666625 
L 632.073809 539.556005 
L 638.078332 539.556005 
L 644.082854 525.334763 
L 650.087377 496.89228 
L 653.089638 468.449797 
L 656.091899 432.896693 
L 659.09416 404.45421 
L 668.100944 361.790485 
L 674.105466 376.011727 
L 677.107727 368.901106 
L 677.107727 368.901106 
" style="fill:none;stroke:#2ca02c;stroke-linecap:square;stroke-width:1.5;"/>
   </g>
   <g id="line2d_18">
    <path clip-path="url(#p29d1872771)" d="M 85.662273 134.250621 
L 100.673579 134.250621 
L 103.67584 141.361242 
L 124.691668 141.361242 
L 127.693929 148.471862 
L 133.698452 148.471862 
L 136.700713 155.582483 
L 217.761765 155.582483 
L 220.764026 148.471862 
L 229.77081 148.471862 
L 232.773071 141.361242 
L 235.775332 141.361242 
L 238.777593 134.250621 
L 250.786638 134.250621 
L 253.788899 127.14 
L 280.80925 127.14 
L 283.811511 134.250621 
L 301.825078 134.250621 
L 304.82734 141.361242 
L 313.834123 141.361242 
L 316.836384 148.471862 
L 355.86578 148.471862 
L 358.868041 155.582483 
L 403.901959 155.582483 
L 406.90422 162.693104 
L 409.906481 155.582483 
L 442.931354 155.582483 
L 445.933616 148.471862 
L 460.944922 148.471862 
L 463.947183 141.361242 
L 475.956228 141.361242 
L 478.958489 134.250621 
L 481.96075 134.250621 
L 484.963011 141.361242 
L 487.965272 134.250621 
L 493.969795 134.250621 
L 496.972056 141.361242 
L 499.974317 141.361242 
L 502.976578 134.250621 
L 505.978839 134.250621 
L 508.981101 141.361242 
L 511.983362 141.361242 
L 514.985623 134.250621 
L 517.987884 141.361242 
L 545.008235 141.361242 
L 548.010496 148.471862 
L 551.012757 141.361242 
L 554.015018 148.471862 
L 566.024063 148.471862 
L 569.026324 155.582483 
L 593.044414 155.582483 
L 596.046675 162.693104 
L 599.048936 155.582483 
L 614.060242 155.582483 
L 617.062503 157.004607 
L 620.064765 155.582483 
L 626.069287 155.582483 
L 629.071548 162.693104 
L 632.073809 155.582483 
L 650.087377 155.582483 
L 656.091899 141.361242 
L 665.098683 141.361242 
L 668.100944 134.250621 
L 671.103205 141.361242 
L 677.107727 141.361242 
L 677.107727 141.361242 
" style="fill:none;stroke:#d62728;stroke-linecap:square;stroke-width:1.5;"/>
   </g>
   <g id="patch_3">
    <path d="M 56.09 619.8 
L 56.09 103.68 
" style="fill:none;stroke:#000000;stroke-linecap:square;stroke-linejoin:miter;stroke-width:0.8;"/>
   </g>
   <g id="patch_4">
    <path d="M 706.68 619.8 
L 706.68 103.68 
" style="fill:none;stroke:#000000;stroke-linecap:square;stroke-linejoin:miter;stroke-width:0.8;"/>
   </g>
   <g id="patch_5">
    <path d="M 56.09 619.8 
L 706.68 619.8 
" style="fill:none;stroke:#000000;stroke-linecap:square;stroke-linejoin:miter;stroke-width:0.8;"/>
   </g>
   <g id="patch_6">
    <path d="M 56.09 103.68 
L 706.68 103.68 
" style="fill:none;stroke:#000000;stroke-linecap:square;stroke-linejoin:miter;stroke-width:0.8;"/>
   </g>
   <g id="text_15">
    <!-- Plot of Test Data vs MCMC Uncertainty  -->
    <defs>
     <path d="M 19.671875 64.796875 
L 19.671875 37.40625 
L 32.078125 37.40625 
Q 38.96875 37.40625 42.71875 40.96875 
Q 46.484375 44.53125 46.484375 51.125 
Q 46.484375 57.671875 42.71875 61.234375 
Q 38.96875 64.796875 32.078125 64.796875 
z
M 9.8125 72.90625 
L 32.078125 72.90625 
Q 44.34375 72.90625 50.609375 67.359375 
Q 56.890625 61.8125 56.890625 51.125 
Q 56.890625 40.328125 50.609375 34.8125 
Q 44.34375 29.296875 32.078125 29.296875 
L 19.671875 29.296875 
L 19.671875 0 
L 9.8125 0 
z
" id="DejaVuSans-50"/>
     <path d="M 9.421875 75.984375 
L 18.40625 75.984375 
L 18.40625 0 
L 9.421875 0 
z
" id="DejaVuSans-6c"/>
     <path d="M 30.609375 48.390625 
Q 23.390625 48.390625 19.1875 42.75 
Q 14.984375 37.109375 14.984375 27.296875 
Q 14.984375 17.484375 19.15625 11.84375 
Q 23.34375 6.203125 30.609375 6.203125 
Q 37.796875 6.203125 41.984375 11.859375 
Q 46.1875 17.53125 46.1875 27.296875 
Q 46.1875 37.015625 41.984375 42.703125 
Q 37.796875 48.390625 30.609375 48.390625 
z
M 30.609375 56 
Q 42.328125 56 49.015625 48.375 
Q 55.71875 40.765625 55.71875 27.296875 
Q 55.71875 13.875 49.015625 6.21875 
Q 42.328125 -1.421875 30.609375 -1.421875 
Q 18.84375 -1.421875 12.171875 6.21875 
Q 5.515625 13.875 5.515625 27.296875 
Q 5.515625 40.765625 12.171875 48.375 
Q 18.84375 56 30.609375 56 
z
" id="DejaVuSans-6f"/>
     <path d="M 18.3125 70.21875 
L 18.3125 54.6875 
L 36.8125 54.6875 
L 36.8125 47.703125 
L 18.3125 47.703125 
L 18.3125 18.015625 
Q 18.3125 11.328125 20.140625 9.421875 
Q 21.96875 7.515625 27.59375 7.515625 
L 36.8125 7.515625 
L 36.8125 0 
L 27.59375 0 
Q 17.1875 0 13.234375 3.875 
Q 9.28125 7.765625 9.28125 18.015625 
L 9.28125 47.703125 
L 2.6875 47.703125 
L 2.6875 54.6875 
L 9.28125 54.6875 
L 9.28125 70.21875 
z
" id="DejaVuSans-74"/>
     <path id="DejaVuSans-20"/>
     <path d="M 37.109375 75.984375 
L 37.109375 68.5 
L 28.515625 68.5 
Q 23.6875 68.5 21.796875 66.546875 
Q 19.921875 64.59375 19.921875 59.515625 
L 19.921875 54.6875 
L 34.71875 54.6875 
L 34.71875 47.703125 
L 19.921875 47.703125 
L 19.921875 0 
L 10.890625 0 
L 10.890625 47.703125 
L 2.296875 47.703125 
L 2.296875 54.6875 
L 10.890625 54.6875 
L 10.890625 58.5 
Q 10.890625 67.625 15.140625 71.796875 
Q 19.390625 75.984375 28.609375 75.984375 
z
" id="DejaVuSans-66"/>
     <path d="M -0.296875 72.90625 
L 61.375 72.90625 
L 61.375 64.59375 
L 35.5 64.59375 
L 35.5 0 
L 25.59375 0 
L 25.59375 64.59375 
L -0.296875 64.59375 
z
" id="DejaVuSans-54"/>
     <path d="M 56.203125 29.59375 
L 56.203125 25.203125 
L 14.890625 25.203125 
Q 15.484375 15.921875 20.484375 11.0625 
Q 25.484375 6.203125 34.421875 6.203125 
Q 39.59375 6.203125 44.453125 7.46875 
Q 49.3125 8.734375 54.109375 11.28125 
L 54.109375 2.78125 
Q 49.265625 0.734375 44.1875 -0.34375 
Q 39.109375 -1.421875 33.890625 -1.421875 
Q 20.796875 -1.421875 13.15625 6.1875 
Q 5.515625 13.8125 5.515625 26.8125 
Q 5.515625 40.234375 12.765625 48.109375 
Q 20.015625 56 32.328125 56 
Q 43.359375 56 49.78125 48.890625 
Q 56.203125 41.796875 56.203125 29.59375 
z
M 47.21875 32.234375 
Q 47.125 39.59375 43.09375 43.984375 
Q 39.0625 48.390625 32.421875 48.390625 
Q 24.90625 48.390625 20.390625 44.140625 
Q 15.875 39.890625 15.1875 32.171875 
z
" id="DejaVuSans-65"/>
     <path d="M 44.28125 53.078125 
L 44.28125 44.578125 
Q 40.484375 46.53125 36.375 47.5 
Q 32.28125 48.484375 27.875 48.484375 
Q 21.1875 48.484375 17.84375 46.4375 
Q 14.5 44.390625 14.5 40.28125 
Q 14.5 37.15625 16.890625 35.375 
Q 19.28125 33.59375 26.515625 31.984375 
L 29.59375 31.296875 
Q 39.15625 29.25 43.1875 25.515625 
Q 47.21875 21.78125 47.21875 15.09375 
Q 47.21875 7.46875 41.1875 3.015625 
Q 35.15625 -1.421875 24.609375 -1.421875 
Q 20.21875 -1.421875 15.453125 -0.5625 
Q 10.6875 0.296875 5.421875 2 
L 5.421875 11.28125 
Q 10.40625 8.6875 15.234375 7.390625 
Q 20.0625 6.109375 24.8125 6.109375 
Q 31.15625 6.109375 34.5625 8.28125 
Q 37.984375 10.453125 37.984375 14.40625 
Q 37.984375 18.0625 35.515625 20.015625 
Q 33.0625 21.96875 24.703125 23.78125 
L 21.578125 24.515625 
Q 13.234375 26.265625 9.515625 29.90625 
Q 5.8125 33.546875 5.8125 39.890625 
Q 5.8125 47.609375 11.28125 51.796875 
Q 16.75 56 26.8125 56 
Q 31.78125 56 36.171875 55.265625 
Q 40.578125 54.546875 44.28125 53.078125 
z
" id="DejaVuSans-73"/>
     <path d="M 19.671875 64.796875 
L 19.671875 8.109375 
L 31.59375 8.109375 
Q 46.6875 8.109375 53.6875 14.9375 
Q 60.6875 21.78125 60.6875 36.53125 
Q 60.6875 51.171875 53.6875 57.984375 
Q 46.6875 64.796875 31.59375 64.796875 
z
M 9.8125 72.90625 
L 30.078125 72.90625 
Q 51.265625 72.90625 61.171875 64.09375 
Q 71.09375 55.28125 71.09375 36.53125 
Q 71.09375 17.671875 61.125 8.828125 
Q 51.171875 0 30.078125 0 
L 9.8125 0 
z
" id="DejaVuSans-44"/>
     <path d="M 34.28125 27.484375 
Q 23.390625 27.484375 19.1875 25 
Q 14.984375 22.515625 14.984375 16.5 
Q 14.984375 11.71875 18.140625 8.90625 
Q 21.296875 6.109375 26.703125 6.109375 
Q 34.1875 6.109375 38.703125 11.40625 
Q 43.21875 16.703125 43.21875 25.484375 
L 43.21875 27.484375 
z
M 52.203125 31.203125 
L 52.203125 0 
L 43.21875 0 
L 43.21875 8.296875 
Q 40.140625 3.328125 35.546875 0.953125 
Q 30.953125 -1.421875 24.3125 -1.421875 
Q 15.921875 -1.421875 10.953125 3.296875 
Q 6 8.015625 6 15.921875 
Q 6 25.140625 12.171875 29.828125 
Q 18.359375 34.515625 30.609375 34.515625 
L 43.21875 34.515625 
L 43.21875 35.40625 
Q 43.21875 41.609375 39.140625 45 
Q 35.0625 48.390625 27.6875 48.390625 
Q 23 48.390625 18.546875 47.265625 
Q 14.109375 46.140625 10.015625 43.890625 
L 10.015625 52.203125 
Q 14.9375 54.109375 19.578125 55.046875 
Q 24.21875 56 28.609375 56 
Q 40.484375 56 46.34375 49.84375 
Q 52.203125 43.703125 52.203125 31.203125 
z
" id="DejaVuSans-61"/>
     <path d="M 2.984375 54.6875 
L 12.5 54.6875 
L 29.59375 8.796875 
L 46.6875 54.6875 
L 56.203125 54.6875 
L 35.6875 0 
L 23.484375 0 
z
" id="DejaVuSans-76"/>
     <path d="M 9.8125 72.90625 
L 24.515625 72.90625 
L 43.109375 23.296875 
L 61.8125 72.90625 
L 76.515625 72.90625 
L 76.515625 0 
L 66.890625 0 
L 66.890625 64.015625 
L 48.09375 14.015625 
L 38.1875 14.015625 
L 19.390625 64.015625 
L 19.390625 0 
L 9.8125 0 
z
" id="DejaVuSans-4d"/>
     <path d="M 64.40625 67.28125 
L 64.40625 56.890625 
Q 59.421875 61.53125 53.78125 63.8125 
Q 48.140625 66.109375 41.796875 66.109375 
Q 29.296875 66.109375 22.65625 58.46875 
Q 16.015625 50.828125 16.015625 36.375 
Q 16.015625 21.96875 22.65625 14.328125 
Q 29.296875 6.6875 41.796875 6.6875 
Q 48.140625 6.6875 53.78125 8.984375 
Q 59.421875 11.28125 64.40625 15.921875 
L 64.40625 5.609375 
Q 59.234375 2.09375 53.4375 0.328125 
Q 47.65625 -1.421875 41.21875 -1.421875 
Q 24.65625 -1.421875 15.125 8.703125 
Q 5.609375 18.84375 5.609375 36.375 
Q 5.609375 53.953125 15.125 64.078125 
Q 24.65625 74.21875 41.21875 74.21875 
Q 47.75 74.21875 53.53125 72.484375 
Q 59.328125 70.75 64.40625 67.28125 
z
" id="DejaVuSans-43"/>
     <path d="M 8.6875 72.90625 
L 18.609375 72.90625 
L 18.609375 28.609375 
Q 18.609375 16.890625 22.84375 11.734375 
Q 27.09375 6.59375 36.625 6.59375 
Q 46.09375 6.59375 50.34375 11.734375 
Q 54.59375 16.890625 54.59375 28.609375 
L 54.59375 72.90625 
L 64.5 72.90625 
L 64.5 27.390625 
Q 64.5 13.140625 57.4375 5.859375 
Q 50.390625 -1.421875 36.625 -1.421875 
Q 22.796875 -1.421875 15.734375 5.859375 
Q 8.6875 13.140625 8.6875 27.390625 
z
" id="DejaVuSans-55"/>
     <path d="M 54.890625 33.015625 
L 54.890625 0 
L 45.90625 0 
L 45.90625 32.71875 
Q 45.90625 40.484375 42.875 44.328125 
Q 39.84375 48.1875 33.796875 48.1875 
Q 26.515625 48.1875 22.3125 43.546875 
Q 18.109375 38.921875 18.109375 30.90625 
L 18.109375 0 
L 9.078125 0 
L 9.078125 54.6875 
L 18.109375 54.6875 
L 18.109375 46.1875 
Q 21.34375 51.125 25.703125 53.5625 
Q 30.078125 56 35.796875 56 
Q 45.21875 56 50.046875 50.171875 
Q 54.890625 44.34375 54.890625 33.015625 
z
" id="DejaVuSans-6e"/>
     <path d="M 48.78125 52.59375 
L 48.78125 44.1875 
Q 44.96875 46.296875 41.140625 47.34375 
Q 37.3125 48.390625 33.40625 48.390625 
Q 24.65625 48.390625 19.8125 42.84375 
Q 14.984375 37.3125 14.984375 27.296875 
Q 14.984375 17.28125 19.8125 11.734375 
Q 24.65625 6.203125 33.40625 6.203125 
Q 37.3125 6.203125 41.140625 7.25 
Q 44.96875 8.296875 48.78125 10.40625 
L 48.78125 2.09375 
Q 45.015625 0.34375 40.984375 -0.53125 
Q 36.96875 -1.421875 32.421875 -1.421875 
Q 20.0625 -1.421875 12.78125 6.34375 
Q 5.515625 14.109375 5.515625 27.296875 
Q 5.515625 40.671875 12.859375 48.328125 
Q 20.21875 56 33.015625 56 
Q 37.15625 56 41.109375 55.140625 
Q 45.0625 54.296875 48.78125 52.59375 
z
" id="DejaVuSans-63"/>
     <path d="M 41.109375 46.296875 
Q 39.59375 47.171875 37.8125 47.578125 
Q 36.03125 48 33.890625 48 
Q 26.265625 48 22.1875 43.046875 
Q 18.109375 38.09375 18.109375 28.8125 
L 18.109375 0 
L 9.078125 0 
L 9.078125 54.6875 
L 18.109375 54.6875 
L 18.109375 46.1875 
Q 20.953125 51.171875 25.484375 53.578125 
Q 30.03125 56 36.53125 56 
Q 37.453125 56 38.578125 55.875 
Q 39.703125 55.765625 41.0625 55.515625 
z
" id="DejaVuSans-72"/>
     <path d="M 9.421875 54.6875 
L 18.40625 54.6875 
L 18.40625 0 
L 9.421875 0 
z
M 9.421875 75.984375 
L 18.40625 75.984375 
L 18.40625 64.59375 
L 9.421875 64.59375 
z
" id="DejaVuSans-69"/>
     <path d="M 32.171875 -5.078125 
Q 28.375 -14.84375 24.75 -17.8125 
Q 21.140625 -20.796875 15.09375 -20.796875 
L 7.90625 -20.796875 
L 7.90625 -13.28125 
L 13.1875 -13.28125 
Q 16.890625 -13.28125 18.9375 -11.515625 
Q 21 -9.765625 23.484375 -3.21875 
L 25.09375 0.875 
L 2.984375 54.6875 
L 12.5 54.6875 
L 29.59375 11.921875 
L 46.6875 54.6875 
L 56.203125 54.6875 
z
" id="DejaVuSans-79"/>
    </defs>
    <g transform="translate(263.337812 97.68)scale(0.12 -0.12)">
     <use xlink:href="#DejaVuSans-50"/>
     <use x="60.302734" xlink:href="#DejaVuSans-6c"/>
     <use x="88.085938" xlink:href="#DejaVuSans-6f"/>
     <use x="149.267578" xlink:href="#DejaVuSans-74"/>
     <use x="188.476562" xlink:href="#DejaVuSans-20"/>
     <use x="220.263672" xlink:href="#DejaVuSans-6f"/>
     <use x="281.445312" xlink:href="#DejaVuSans-66"/>
     <use x="316.650391" xlink:href="#DejaVuSans-20"/>
     <use x="348.4375" xlink:href="#DejaVuSans-54"/>
     <use x="409.255859" xlink:href="#DejaVuSans-65"/>
     <use x="470.779297" xlink:href="#DejaVuSans-73"/>
     <use x="522.878906" xlink:href="#DejaVuSans-74"/>
     <use x="562.087891" xlink:href="#DejaVuSans-20"/>
     <use x="593.875" xlink:href="#DejaVuSans-44"/>
     <use x="670.876953" xlink:href="#DejaVuSans-61"/>
     <use x="732.15625" xlink:href="#DejaVuSans-74"/>
     <use x="771.365234" xlink:href="#DejaVuSans-61"/>
     <use x="832.644531" xlink:href="#DejaVuSans-20"/>
     <use x="864.431641" xlink:href="#DejaVuSans-76"/>
     <use x="923.611328" xlink:href="#DejaVuSans-73"/>
     <use x="975.710938" xlink:href="#DejaVuSans-20"/>
     <use x="1007.498047" xlink:href="#DejaVuSans-4d"/>
     <use x="1093.777344" xlink:href="#DejaVuSans-43"/>
     <use x="1163.601562" xlink:href="#DejaVuSans-4d"/>
     <use x="1249.880859" xlink:href="#DejaVuSans-43"/>
     <use x="1319.705078" xlink:href="#DejaVuSans-20"/>
     <use x="1351.492188" xlink:href="#DejaVuSans-55"/>
     <use x="1424.685547" xlink:href="#DejaVuSans-6e"/>
     <use x="1488.064453" xlink:href="#DejaVuSans-63"/>
     <use x="1543.044922" xlink:href="#DejaVuSans-65"/>
     <use x="1604.568359" xlink:href="#DejaVuSans-72"/>
     <use x="1645.681641" xlink:href="#DejaVuSans-74"/>
     <use x="1684.890625" xlink:href="#DejaVuSans-61"/>
     <use x="1746.169922" xlink:href="#DejaVuSans-69"/>
     <use x="1773.953125" xlink:href="#DejaVuSans-6e"/>
     <use x="1837.332031" xlink:href="#DejaVuSans-74"/>
     <use x="1876.541016" xlink:href="#DejaVuSans-79"/>
     <use x="1935.720703" xlink:href="#DejaVuSans-20"/>
    </g>
   </g>
   <g id="legend_1">
    <g id="patch_7">
     <path d="M 569.803438 170.3925 
L 699.68 170.3925 
Q 701.68 170.3925 701.68 168.3925 
L 701.68 110.68 
Q 701.68 108.68 699.68 108.68 
L 569.803438 108.68 
Q 567.803438 108.68 567.803438 110.68 
L 567.803438 168.3925 
Q 567.803438 170.3925 569.803438 170.3925 
z
" style="fill:#ffffff;opacity:0.8;stroke:#cccccc;stroke-linejoin:miter;"/>
    </g>
    <g id="line2d_19">
     <path d="M 571.803438 116.778437 
L 591.803438 116.778437 
" style="fill:none;stroke:#1f77b4;stroke-linecap:square;stroke-width:1.5;"/>
    </g>
    <g id="line2d_20"/>
    <g id="text_16">
     <!-- actual -->
     <defs>
      <path d="M 8.5 21.578125 
L 8.5 54.6875 
L 17.484375 54.6875 
L 17.484375 21.921875 
Q 17.484375 14.15625 20.5 10.265625 
Q 23.53125 6.390625 29.59375 6.390625 
Q 36.859375 6.390625 41.078125 11.03125 
Q 45.3125 15.671875 45.3125 23.6875 
L 45.3125 54.6875 
L 54.296875 54.6875 
L 54.296875 0 
L 45.3125 0 
L 45.3125 8.40625 
Q 42.046875 3.421875 37.71875 1 
Q 33.40625 -1.421875 27.6875 -1.421875 
Q 18.265625 -1.421875 13.375 4.4375 
Q 8.5 10.296875 8.5 21.578125 
z
M 31.109375 56 
z
" id="DejaVuSans-75"/>
     </defs>
     <g transform="translate(599.803438 120.278437)scale(0.1 -0.1)">
      <use xlink:href="#DejaVuSans-61"/>
      <use x="61.279297" xlink:href="#DejaVuSans-63"/>
      <use x="116.259766" xlink:href="#DejaVuSans-74"/>
      <use x="155.46875" xlink:href="#DejaVuSans-75"/>
      <use x="218.847656" xlink:href="#DejaVuSans-61"/>
      <use x="280.126953" xlink:href="#DejaVuSans-6c"/>
     </g>
    </g>
    <g id="line2d_21">
     <path d="M 571.803438 131.456562 
L 591.803438 131.456562 
" style="fill:none;stroke:#ff7f0e;stroke-linecap:square;stroke-width:1.5;"/>
    </g>
    <g id="line2d_22"/>
    <g id="text_17">
     <!-- pred. (mean) -->
     <defs>
      <path d="M 18.109375 8.203125 
L 18.109375 -20.796875 
L 9.078125 -20.796875 
L 9.078125 54.6875 
L 18.109375 54.6875 
L 18.109375 46.390625 
Q 20.953125 51.265625 25.265625 53.625 
Q 29.59375 56 35.59375 56 
Q 45.5625 56 51.78125 48.09375 
Q 58.015625 40.1875 58.015625 27.296875 
Q 58.015625 14.40625 51.78125 6.484375 
Q 45.5625 -1.421875 35.59375 -1.421875 
Q 29.59375 -1.421875 25.265625 0.953125 
Q 20.953125 3.328125 18.109375 8.203125 
z
M 48.6875 27.296875 
Q 48.6875 37.203125 44.609375 42.84375 
Q 40.53125 48.484375 33.40625 48.484375 
Q 26.265625 48.484375 22.1875 42.84375 
Q 18.109375 37.203125 18.109375 27.296875 
Q 18.109375 17.390625 22.1875 11.75 
Q 26.265625 6.109375 33.40625 6.109375 
Q 40.53125 6.109375 44.609375 11.75 
Q 48.6875 17.390625 48.6875 27.296875 
z
" id="DejaVuSans-70"/>
      <path d="M 45.40625 46.390625 
L 45.40625 75.984375 
L 54.390625 75.984375 
L 54.390625 0 
L 45.40625 0 
L 45.40625 8.203125 
Q 42.578125 3.328125 38.25 0.953125 
Q 33.9375 -1.421875 27.875 -1.421875 
Q 17.96875 -1.421875 11.734375 6.484375 
Q 5.515625 14.40625 5.515625 27.296875 
Q 5.515625 40.1875 11.734375 48.09375 
Q 17.96875 56 27.875 56 
Q 33.9375 56 38.25 53.625 
Q 42.578125 51.265625 45.40625 46.390625 
z
M 14.796875 27.296875 
Q 14.796875 17.390625 18.875 11.75 
Q 22.953125 6.109375 30.078125 6.109375 
Q 37.203125 6.109375 41.296875 11.75 
Q 45.40625 17.390625 45.40625 27.296875 
Q 45.40625 37.203125 41.296875 42.84375 
Q 37.203125 48.484375 30.078125 48.484375 
Q 22.953125 48.484375 18.875 42.84375 
Q 14.796875 37.203125 14.796875 27.296875 
z
" id="DejaVuSans-64"/>
      <path d="M 31 75.875 
Q 24.46875 64.65625 21.28125 53.65625 
Q 18.109375 42.671875 18.109375 31.390625 
Q 18.109375 20.125 21.3125 9.0625 
Q 24.515625 -2 31 -13.1875 
L 23.1875 -13.1875 
Q 15.875 -1.703125 12.234375 9.375 
Q 8.59375 20.453125 8.59375 31.390625 
Q 8.59375 42.28125 12.203125 53.3125 
Q 15.828125 64.359375 23.1875 75.875 
z
" id="DejaVuSans-28"/>
      <path d="M 52 44.1875 
Q 55.375 50.25 60.0625 53.125 
Q 64.75 56 71.09375 56 
Q 79.640625 56 84.28125 50.015625 
Q 88.921875 44.046875 88.921875 33.015625 
L 88.921875 0 
L 79.890625 0 
L 79.890625 32.71875 
Q 79.890625 40.578125 77.09375 44.375 
Q 74.3125 48.1875 68.609375 48.1875 
Q 61.625 48.1875 57.5625 43.546875 
Q 53.515625 38.921875 53.515625 30.90625 
L 53.515625 0 
L 44.484375 0 
L 44.484375 32.71875 
Q 44.484375 40.625 41.703125 44.40625 
Q 38.921875 48.1875 33.109375 48.1875 
Q 26.21875 48.1875 22.15625 43.53125 
Q 18.109375 38.875 18.109375 30.90625 
L 18.109375 0 
L 9.078125 0 
L 9.078125 54.6875 
L 18.109375 54.6875 
L 18.109375 46.1875 
Q 21.1875 51.21875 25.484375 53.609375 
Q 29.78125 56 35.6875 56 
Q 41.65625 56 45.828125 52.96875 
Q 50 49.953125 52 44.1875 
z
" id="DejaVuSans-6d"/>
      <path d="M 8.015625 75.875 
L 15.828125 75.875 
Q 23.140625 64.359375 26.78125 53.3125 
Q 30.421875 42.28125 30.421875 31.390625 
Q 30.421875 20.453125 26.78125 9.375 
Q 23.140625 -1.703125 15.828125 -13.1875 
L 8.015625 -13.1875 
Q 14.5 -2 17.703125 9.0625 
Q 20.90625 20.125 20.90625 31.390625 
Q 20.90625 42.671875 17.703125 53.65625 
Q 14.5 64.65625 8.015625 75.875 
z
" id="DejaVuSans-29"/>
     </defs>
     <g transform="translate(599.803438 134.956562)scale(0.1 -0.1)">
      <use xlink:href="#DejaVuSans-70"/>
      <use x="63.476562" xlink:href="#DejaVuSans-72"/>
      <use x="104.558594" xlink:href="#DejaVuSans-65"/>
      <use x="166.082031" xlink:href="#DejaVuSans-64"/>
      <use x="229.558594" xlink:href="#DejaVuSans-2e"/>
      <use x="261.345703" xlink:href="#DejaVuSans-20"/>
      <use x="293.132812" xlink:href="#DejaVuSans-28"/>
      <use x="332.146484" xlink:href="#DejaVuSans-6d"/>
      <use x="429.558594" xlink:href="#DejaVuSans-65"/>
      <use x="491.082031" xlink:href="#DejaVuSans-61"/>
      <use x="552.361328" xlink:href="#DejaVuSans-6e"/>
      <use x="615.740234" xlink:href="#DejaVuSans-29"/>
     </g>
    </g>
    <g id="line2d_23">
     <path d="M 571.803438 146.134687 
L 591.803438 146.134687 
" style="fill:none;stroke:#2ca02c;stroke-linecap:square;stroke-width:1.5;"/>
    </g>
    <g id="line2d_24"/>
    <g id="text_18">
     <!-- pred.(5th percen.) -->
     <defs>
      <path d="M 54.890625 33.015625 
L 54.890625 0 
L 45.90625 0 
L 45.90625 32.71875 
Q 45.90625 40.484375 42.875 44.328125 
Q 39.84375 48.1875 33.796875 48.1875 
Q 26.515625 48.1875 22.3125 43.546875 
Q 18.109375 38.921875 18.109375 30.90625 
L 18.109375 0 
L 9.078125 0 
L 9.078125 75.984375 
L 18.109375 75.984375 
L 18.109375 46.1875 
Q 21.34375 51.125 25.703125 53.5625 
Q 30.078125 56 35.796875 56 
Q 45.21875 56 50.046875 50.171875 
Q 54.890625 44.34375 54.890625 33.015625 
z
" id="DejaVuSans-68"/>
     </defs>
     <g transform="translate(599.803438 149.634687)scale(0.1 -0.1)">
      <use xlink:href="#DejaVuSans-70"/>
      <use x="63.476562" xlink:href="#DejaVuSans-72"/>
      <use x="104.558594" xlink:href="#DejaVuSans-65"/>
      <use x="166.082031" xlink:href="#DejaVuSans-64"/>
      <use x="229.558594" xlink:href="#DejaVuSans-2e"/>
      <use x="261.345703" xlink:href="#DejaVuSans-28"/>
      <use x="300.359375" xlink:href="#DejaVuSans-35"/>
      <use x="363.982422" xlink:href="#DejaVuSans-74"/>
      <use x="403.191406" xlink:href="#DejaVuSans-68"/>
      <use x="466.570312" xlink:href="#DejaVuSans-20"/>
      <use x="498.357422" xlink:href="#DejaVuSans-70"/>
      <use x="561.833984" xlink:href="#DejaVuSans-65"/>
      <use x="623.357422" xlink:href="#DejaVuSans-72"/>
      <use x="664.439453" xlink:href="#DejaVuSans-63"/>
      <use x="719.419922" xlink:href="#DejaVuSans-65"/>
      <use x="780.943359" xlink:href="#DejaVuSans-6e"/>
      <use x="844.322266" xlink:href="#DejaVuSans-2e"/>
      <use x="876.109375" xlink:href="#DejaVuSans-29"/>
     </g>
    </g>
    <g id="line2d_25">
     <path d="M 571.803438 160.812812 
L 591.803438 160.812812 
" style="fill:none;stroke:#d62728;stroke-linecap:square;stroke-width:1.5;"/>
    </g>
    <g id="line2d_26"/>
    <g id="text_19">
     <!-- pred.(95th percen.) -->
     <defs>
      <path d="M 10.984375 1.515625 
L 10.984375 10.5 
Q 14.703125 8.734375 18.5 7.8125 
Q 22.3125 6.890625 25.984375 6.890625 
Q 35.75 6.890625 40.890625 13.453125 
Q 46.046875 20.015625 46.78125 33.40625 
Q 43.953125 29.203125 39.59375 26.953125 
Q 35.25 24.703125 29.984375 24.703125 
Q 19.046875 24.703125 12.671875 31.3125 
Q 6.296875 37.9375 6.296875 49.421875 
Q 6.296875 60.640625 12.9375 67.421875 
Q 19.578125 74.21875 30.609375 74.21875 
Q 43.265625 74.21875 49.921875 64.515625 
Q 56.59375 54.828125 56.59375 36.375 
Q 56.59375 19.140625 48.40625 8.859375 
Q 40.234375 -1.421875 26.421875 -1.421875 
Q 22.703125 -1.421875 18.890625 -0.6875 
Q 15.09375 0.046875 10.984375 1.515625 
z
M 30.609375 32.421875 
Q 37.25 32.421875 41.125 36.953125 
Q 45.015625 41.5 45.015625 49.421875 
Q 45.015625 57.28125 41.125 61.84375 
Q 37.25 66.40625 30.609375 66.40625 
Q 23.96875 66.40625 20.09375 61.84375 
Q 16.21875 57.28125 16.21875 49.421875 
Q 16.21875 41.5 20.09375 36.953125 
Q 23.96875 32.421875 30.609375 32.421875 
z
" id="DejaVuSans-39"/>
     </defs>
     <g transform="translate(599.803438 164.312812)scale(0.1 -0.1)">
      <use xlink:href="#DejaVuSans-70"/>
      <use x="63.476562" xlink:href="#DejaVuSans-72"/>
      <use x="104.558594" xlink:href="#DejaVuSans-65"/>
      <use x="166.082031" xlink:href="#DejaVuSans-64"/>
      <use x="229.558594" xlink:href="#DejaVuSans-2e"/>
      <use x="261.345703" xlink:href="#DejaVuSans-28"/>
      <use x="300.359375" xlink:href="#DejaVuSans-39"/>
      <use x="363.982422" xlink:href="#DejaVuSans-35"/>
      <use x="427.605469" xlink:href="#DejaVuSans-74"/>
      <use x="466.814453" xlink:href="#DejaVuSans-68"/>
      <use x="530.193359" xlink:href="#DejaVuSans-20"/>
      <use x="561.980469" xlink:href="#DejaVuSans-70"/>
      <use x="625.457031" xlink:href="#DejaVuSans-65"/>
      <use x="686.980469" xlink:href="#DejaVuSans-72"/>
      <use x="728.0625" xlink:href="#DejaVuSans-63"/>
      <use x="783.042969" xlink:href="#DejaVuSans-65"/>
      <use x="844.566406" xlink:href="#DejaVuSans-6e"/>
      <use x="907.945312" xlink:href="#DejaVuSans-2e"/>
      <use x="939.732422" xlink:href="#DejaVuSans-29"/>
     </g>
    </g>
   </g>
  </g>
 </g>
 <defs>
  <clipPath id="p29d1872771">
   <rect height="516.12" width="650.59" x="56.09" y="103.68"/>
  </clipPath>
 </defs>
</svg>
