<?xml version="1.0" encoding="utf-8" standalone="no"?>
<!DOCTYPE svg PUBLIC "-//W3C//DTD SVG 1.1//EN"
  "http://www.w3.org/Graphics/SVG/1.1/DTD/svg11.dtd">
<!-- Created with matplotlib (http://matplotlib.org/) -->
<svg height="864pt" version="1.1" viewBox="0 0 720 864" width="720pt" xmlns="http://www.w3.org/2000/svg" xmlns:xlink="http://www.w3.org/1999/xlink">
 <defs>
  <style type="text/css">
*{stroke-linecap:butt;stroke-linejoin:round;}
  </style>
 </defs>
 <g id="figure_1">
  <g id="patch_1">
   <path d="M 0 864 
L 720 864 
L 720 0 
L 0 0 
z
" style="fill:#ffffff;"/>
  </g>
  <g id="axes_1">
   <g id="patch_2">
    <path d="M 56.09 619.8 
L 706.68 619.8 
L 706.68 103.68 
L 56.09 103.68 
z
" style="fill:#ffffff;"/>
   </g>
   <g id="PolyCollection_1">
    <path clip-path="url(#ped8fa64d1a)" d="M 85.662273 300.317744 
L 85.662273 555.374473 
L 87.653672 555.374473 
L 89.64507 555.374473 
L 91.636469 555.374473 
L 93.627868 555.374473 
L 95.619267 550.562081 
L 97.610666 550.562081 
L 99.602065 545.74969 
L 101.593463 531.312517 
L 103.584862 516.875344 
L 105.576261 483.188606 
L 107.56766 449.501868 
L 109.559059 439.877086 
L 111.550458 435.064695 
L 113.541856 435.064695 
L 115.533255 435.064695 
L 117.524654 435.064695 
L 119.516053 435.064695 
L 121.507452 435.064695 
L 123.498851 430.252304 
L 125.490249 435.064695 
L 127.481648 435.064695 
L 129.473047 430.252304 
L 131.464446 430.252304 
L 133.455845 430.252304 
L 135.447244 435.064695 
L 137.438642 430.252304 
L 139.430041 430.252304 
L 141.42144 430.252304 
L 143.412839 430.252304 
L 145.404238 430.252304 
L 147.395637 430.252304 
L 149.387036 435.064695 
L 151.378434 435.064695 
L 153.369833 430.252304 
L 155.361232 435.064695 
L 157.352631 435.064695 
L 159.34403 435.064695 
L 161.335429 435.064695 
L 163.326827 435.064695 
L 165.318226 439.877086 
L 167.309625 439.877086 
L 169.301024 439.877086 
L 171.292423 454.314259 
L 173.283822 459.12665 
L 175.27522 468.751433 
L 177.266619 483.188606 
L 179.258018 497.625779 
L 181.249417 502.43817 
L 183.240816 507.250562 
L 185.232215 516.875344 
L 187.223613 526.500126 
L 189.215012 531.312517 
L 191.206411 531.312517 
L 193.19781 531.312517 
L 195.189209 536.124908 
L 197.180608 540.937299 
L 199.172006 540.937299 
L 201.163405 545.74969 
L 203.154804 550.562081 
L 205.146203 555.374473 
L 207.137602 550.562081 
L 209.129001 550.562081 
L 211.120399 550.562081 
L 213.111798 550.562081 
L 215.103197 545.74969 
L 217.094596 545.74969 
L 219.085995 536.124908 
L 221.077394 526.500126 
L 223.068792 516.875344 
L 225.060191 512.062953 
L 227.05159 497.625779 
L 229.042989 488.000997 
L 231.034388 478.376215 
L 233.025787 468.751433 
L 235.017185 454.314259 
L 237.008584 444.689477 
L 238.999983 439.877086 
L 240.991382 439.877086 
L 242.982781 439.877086 
L 244.97418 439.877086 
L 246.965579 439.877086 
L 248.956977 435.064695 
L 250.948376 435.064695 
L 252.939775 435.064695 
L 254.931174 435.064695 
L 256.922573 435.064695 
L 258.913972 430.252304 
L 260.90537 430.252304 
L 262.896769 435.064695 
L 264.888168 430.252304 
L 266.879567 430.252304 
L 268.870966 430.252304 
L 270.862365 430.252304 
L 272.853763 430.252304 
L 274.845162 430.252304 
L 276.836561 435.064695 
L 278.82796 435.064695 
L 280.819359 439.877086 
L 282.810758 439.877086 
L 284.802156 439.877086 
L 286.793555 439.877086 
L 288.784954 439.877086 
L 290.776353 439.877086 
L 292.767752 439.877086 
L 294.759151 439.877086 
L 296.750549 439.877086 
L 298.741948 439.877086 
L 300.733347 439.877086 
L 302.724746 439.877086 
L 304.716145 439.877086 
L 306.707544 439.877086 
L 308.698942 444.689477 
L 310.690341 444.689477 
L 312.68174 454.314259 
L 314.673139 468.751433 
L 316.664538 478.376215 
L 318.655937 478.376215 
L 320.647335 478.376215 
L 322.638734 492.813388 
L 324.630133 502.43817 
L 326.621532 512.062953 
L 328.612931 516.875344 
L 330.60433 526.500126 
L 332.595728 536.124908 
L 334.587127 536.124908 
L 336.578526 540.937299 
L 338.569925 540.937299 
L 340.561324 545.74969 
L 342.552723 550.562081 
L 344.544122 555.374473 
L 346.53552 555.374473 
L 348.526919 560.186864 
L 350.518318 560.186864 
L 352.509717 560.186864 
L 354.501116 560.186864 
L 356.492515 560.186864 
L 358.483913 560.186864 
L 360.475312 560.186864 
L 362.466711 560.186864 
L 364.45811 555.374473 
L 366.449509 550.562081 
L 368.440908 545.74969 
L 370.432306 536.124908 
L 372.423705 526.500126 
L 374.415104 516.875344 
L 376.406503 502.43817 
L 378.397902 488.000997 
L 380.389301 468.751433 
L 382.380699 449.501868 
L 384.372098 439.877086 
L 386.363497 439.877086 
L 388.354896 439.877086 
L 390.346295 435.064695 
L 392.337694 435.064695 
L 394.329092 435.064695 
L 396.320491 435.064695 
L 398.31189 435.064695 
L 400.303289 435.064695 
L 402.294688 430.252304 
L 404.286087 430.252304 
L 406.277485 435.064695 
L 408.268884 430.252304 
L 410.260283 435.064695 
L 412.251682 430.252304 
L 414.243081 435.064695 
L 416.23448 435.064695 
L 418.225878 435.064695 
L 420.217277 435.064695 
L 422.208676 435.064695 
L 424.200075 439.877086 
L 426.191474 439.877086 
L 428.182873 439.877086 
L 430.174272 439.877086 
L 432.16567 439.877086 
L 434.157069 439.877086 
L 436.148468 444.689477 
L 438.139867 459.12665 
L 440.131266 473.563824 
L 442.122665 478.376215 
L 444.114063 478.376215 
L 446.105462 478.376215 
L 448.096861 483.188606 
L 450.08826 473.563824 
L 452.079659 468.751433 
L 454.071058 468.751433 
L 456.062456 473.563824 
L 458.053855 478.376215 
L 460.045254 488.000997 
L 462.036653 497.625779 
L 464.028052 507.250562 
L 466.019451 512.062953 
L 468.010849 521.687735 
L 470.002248 526.500126 
L 471.993647 531.312517 
L 473.985046 536.124908 
L 475.976445 540.937299 
L 477.967844 545.74969 
L 479.959242 550.562081 
L 481.950641 555.374473 
L 483.94204 555.374473 
L 485.933439 560.186864 
L 487.924838 560.186864 
L 489.916237 560.186864 
L 491.907635 555.374473 
L 493.899034 550.562081 
L 495.890433 545.74969 
L 497.881832 536.124908 
L 499.873231 526.500126 
L 501.86463 507.250562 
L 503.856028 483.188606 
L 505.847427 468.751433 
L 507.838826 444.689477 
L 509.830225 439.877086 
L 511.821624 439.877086 
L 513.813023 439.877086 
L 515.804421 435.064695 
L 517.79582 435.064695 
L 519.787219 435.064695 
L 521.778618 435.064695 
L 523.770017 435.064695 
L 525.761416 430.252304 
L 527.752815 430.252304 
L 529.744213 430.252304 
L 531.735612 430.252304 
L 533.727011 430.252304 
L 535.71841 430.252304 
L 537.709809 430.252304 
L 539.701208 430.252304 
L 541.692606 430.252304 
L 543.684005 435.064695 
L 545.675404 430.252304 
L 547.666803 435.064695 
L 549.658202 430.252304 
L 551.649601 430.252304 
L 553.640999 430.252304 
L 555.632398 430.252304 
L 557.623797 435.064695 
L 559.615196 435.064695 
L 561.606595 439.877086 
L 563.597994 439.877086 
L 565.589392 444.689477 
L 567.580791 454.314259 
L 569.57219 454.314259 
L 571.563589 459.12665 
L 573.554988 473.563824 
L 575.546387 492.813388 
L 577.537785 502.43817 
L 579.529184 512.062953 
L 581.520583 526.500126 
L 583.511982 536.124908 
L 585.503381 540.937299 
L 587.49478 545.74969 
L 589.486178 545.74969 
L 591.477577 550.562081 
L 593.468976 550.562081 
L 595.460375 550.562081 
L 597.451774 550.562081 
L 599.443173 550.562081 
L 601.434571 555.374473 
L 603.42597 550.562081 
L 605.417369 550.562081 
L 607.408768 550.562081 
L 609.400167 550.562081 
L 611.391566 555.374473 
L 613.382964 555.374473 
L 615.374363 555.374473 
L 617.365762 560.186864 
L 619.357161 560.186864 
L 621.34856 560.186864 
L 623.339959 560.186864 
L 625.331358 564.999255 
L 627.322756 564.999255 
L 629.314155 564.999255 
L 631.305554 560.186864 
L 633.296953 560.186864 
L 635.288352 555.374473 
L 637.279751 550.562081 
L 639.271149 545.74969 
L 641.262548 540.937299 
L 643.253947 526.500126 
L 645.245346 516.875344 
L 647.236745 507.250562 
L 649.228144 497.625779 
L 651.219542 483.188606 
L 653.210941 463.939042 
L 655.20234 459.12665 
L 657.193739 449.501868 
L 659.185138 444.689477 
L 661.176537 439.877086 
L 663.167935 439.877086 
L 665.159334 439.877086 
L 667.150733 439.877086 
L 669.142132 439.877086 
L 671.133531 439.877086 
L 673.12493 444.689477 
L 675.116328 444.689477 
L 677.107727 439.877086 
L 677.107727 285.880571 
L 677.107727 285.880571 
L 675.116328 290.692962 
L 673.12493 290.692962 
L 671.133531 285.880571 
L 669.142132 285.880571 
L 667.150733 290.692962 
L 665.159334 290.692962 
L 663.167935 285.880571 
L 661.176537 290.692962 
L 659.185138 290.692962 
L 657.193739 290.692962 
L 655.20234 290.692962 
L 653.210941 290.692962 
L 651.219542 290.692962 
L 649.228144 295.505353 
L 647.236745 295.505353 
L 645.245346 295.505353 
L 643.253947 295.505353 
L 641.262548 300.317744 
L 639.271149 300.317744 
L 637.279751 300.317744 
L 635.288352 300.317744 
L 633.296953 300.317744 
L 631.305554 300.317744 
L 629.314155 300.317744 
L 627.322756 300.317744 
L 625.331358 305.130135 
L 623.339959 300.317744 
L 621.34856 300.317744 
L 619.357161 300.317744 
L 617.365762 300.317744 
L 615.374363 300.317744 
L 613.382964 300.317744 
L 611.391566 300.317744 
L 609.400167 300.317744 
L 607.408768 300.317744 
L 605.417369 300.317744 
L 603.42597 300.317744 
L 601.434571 300.317744 
L 599.443173 300.317744 
L 597.451774 300.317744 
L 595.460375 300.317744 
L 593.468976 300.317744 
L 591.477577 300.317744 
L 589.486178 300.317744 
L 587.49478 300.317744 
L 585.503381 300.317744 
L 583.511982 300.317744 
L 581.520583 295.505353 
L 579.529184 295.505353 
L 577.537785 295.505353 
L 575.546387 295.505353 
L 573.554988 290.692962 
L 571.563589 290.692962 
L 569.57219 290.692962 
L 567.580791 290.692962 
L 565.589392 290.692962 
L 563.597994 285.880571 
L 561.606595 285.880571 
L 559.615196 285.880571 
L 557.623797 281.068179 
L 555.632398 266.631006 
L 553.640999 252.193833 
L 551.649601 247.381442 
L 549.658202 247.381442 
L 547.666803 252.193833 
L 545.675404 257.006224 
L 543.684005 257.006224 
L 541.692606 242.569051 
L 539.701208 232.944268 
L 537.709809 228.131877 
L 535.71841 213.694704 
L 533.727011 204.069922 
L 531.735612 194.44514 
L 529.744213 194.44514 
L 527.752815 194.44514 
L 525.761416 194.44514 
L 523.770017 204.069922 
L 521.778618 223.319486 
L 519.787219 237.75666 
L 517.79582 271.443397 
L 515.804421 281.068179 
L 513.813023 285.880571 
L 511.821624 285.880571 
L 509.830225 285.880571 
L 507.838826 290.692962 
L 505.847427 290.692962 
L 503.856028 290.692962 
L 501.86463 295.505353 
L 499.873231 295.505353 
L 497.881832 300.317744 
L 495.890433 300.317744 
L 493.899034 300.317744 
L 491.907635 300.317744 
L 489.916237 300.317744 
L 487.924838 300.317744 
L 485.933439 300.317744 
L 483.94204 300.317744 
L 481.950641 300.317744 
L 479.959242 300.317744 
L 477.967844 300.317744 
L 475.976445 300.317744 
L 473.985046 300.317744 
L 471.993647 295.505353 
L 470.002248 295.505353 
L 468.010849 295.505353 
L 466.019451 295.505353 
L 464.028052 295.505353 
L 462.036653 295.505353 
L 460.045254 295.505353 
L 458.053855 295.505353 
L 456.062456 290.692962 
L 454.071058 290.692962 
L 452.079659 290.692962 
L 450.08826 290.692962 
L 448.096861 295.505353 
L 446.105462 295.505353 
L 444.114063 290.692962 
L 442.122665 295.505353 
L 440.131266 290.692962 
L 438.139867 290.692962 
L 436.148468 290.692962 
L 434.157069 290.692962 
L 432.16567 290.692962 
L 430.174272 285.880571 
L 428.182873 285.880571 
L 426.191474 285.880571 
L 424.200075 285.880571 
L 422.208676 285.880571 
L 420.217277 285.880571 
L 418.225878 285.880571 
L 416.23448 281.068179 
L 414.243081 281.068179 
L 412.251682 271.443397 
L 410.260283 266.631006 
L 408.268884 266.631006 
L 406.277485 266.631006 
L 404.286087 261.818615 
L 402.294688 257.006224 
L 400.303289 266.631006 
L 398.31189 266.631006 
L 396.320491 266.631006 
L 394.329092 271.443397 
L 392.337694 281.068179 
L 390.346295 281.068179 
L 388.354896 285.880571 
L 386.363497 285.880571 
L 384.372098 285.880571 
L 382.380699 290.692962 
L 380.389301 290.692962 
L 378.397902 295.505353 
L 376.406503 295.505353 
L 374.415104 295.505353 
L 372.423705 295.505353 
L 370.432306 300.317744 
L 368.440908 300.317744 
L 366.449509 300.317744 
L 364.45811 300.317744 
L 362.466711 300.317744 
L 360.475312 300.317744 
L 358.483913 300.317744 
L 356.492515 300.317744 
L 354.501116 300.317744 
L 352.509717 300.317744 
L 350.518318 300.317744 
L 348.526919 300.317744 
L 346.53552 300.317744 
L 344.544122 300.317744 
L 342.552723 300.317744 
L 340.561324 300.317744 
L 338.569925 300.317744 
L 336.578526 300.317744 
L 334.587127 300.317744 
L 332.595728 300.317744 
L 330.60433 295.505353 
L 328.612931 295.505353 
L 326.621532 295.505353 
L 324.630133 295.505353 
L 322.638734 295.505353 
L 320.647335 290.692962 
L 318.655937 290.692962 
L 316.664538 295.505353 
L 314.673139 290.692962 
L 312.68174 290.692962 
L 310.690341 290.692962 
L 308.698942 290.692962 
L 306.707544 290.692962 
L 304.716145 285.880571 
L 302.724746 290.692962 
L 300.733347 285.880571 
L 298.741948 285.880571 
L 296.750549 285.880571 
L 294.759151 285.880571 
L 292.767752 285.880571 
L 290.776353 285.880571 
L 288.784954 285.880571 
L 286.793555 285.880571 
L 284.802156 285.880571 
L 282.810758 285.880571 
L 280.819359 285.880571 
L 278.82796 281.068179 
L 276.836561 276.255788 
L 274.845162 257.006224 
L 272.853763 242.569051 
L 270.862365 228.131877 
L 268.870966 213.694704 
L 266.879567 208.882313 
L 264.888168 208.882313 
L 262.896769 213.694704 
L 260.90537 208.882313 
L 258.913972 204.069922 
L 256.922573 208.882313 
L 254.931174 218.507095 
L 252.939775 237.75666 
L 250.948376 261.818615 
L 248.956977 281.068179 
L 246.965579 285.880571 
L 244.97418 285.880571 
L 242.982781 285.880571 
L 240.991382 285.880571 
L 238.999983 285.880571 
L 237.008584 285.880571 
L 235.017185 290.692962 
L 233.025787 290.692962 
L 231.034388 295.505353 
L 229.042989 290.692962 
L 227.05159 295.505353 
L 225.060191 295.505353 
L 223.068792 295.505353 
L 221.077394 295.505353 
L 219.085995 300.317744 
L 217.094596 300.317744 
L 215.103197 300.317744 
L 213.111798 300.317744 
L 211.120399 300.317744 
L 209.129001 300.317744 
L 207.137602 300.317744 
L 205.146203 300.317744 
L 203.154804 300.317744 
L 201.163405 300.317744 
L 199.172006 300.317744 
L 197.180608 300.317744 
L 195.189209 300.317744 
L 193.19781 300.317744 
L 191.206411 295.505353 
L 189.215012 300.317744 
L 187.223613 300.317744 
L 185.232215 295.505353 
L 183.240816 295.505353 
L 181.249417 295.505353 
L 179.258018 295.505353 
L 177.266619 295.505353 
L 175.27522 290.692962 
L 173.283822 290.692962 
L 171.292423 290.692962 
L 169.301024 290.692962 
L 167.309625 285.880571 
L 165.318226 285.880571 
L 163.326827 281.068179 
L 161.335429 281.068179 
L 159.34403 281.068179 
L 157.352631 281.068179 
L 155.361232 281.068179 
L 153.369833 281.068179 
L 151.378434 285.880571 
L 149.387036 281.068179 
L 147.395637 266.631006 
L 145.404238 252.193833 
L 143.412839 242.569051 
L 141.42144 228.131877 
L 139.430041 218.507095 
L 137.438642 208.882313 
L 135.447244 204.069922 
L 133.455845 199.257531 
L 131.464446 189.632748 
L 129.473047 189.632748 
L 127.481648 189.632748 
L 125.490249 194.44514 
L 123.498851 194.44514 
L 121.507452 199.257531 
L 119.516053 223.319486 
L 117.524654 237.75666 
L 115.533255 247.381442 
L 113.541856 271.443397 
L 111.550458 281.068179 
L 109.559059 285.880571 
L 107.56766 290.692962 
L 105.576261 290.692962 
L 103.584862 295.505353 
L 101.593463 295.505353 
L 99.602065 300.317744 
L 97.610666 300.317744 
L 95.619267 300.317744 
L 93.627868 300.317744 
L 91.636469 300.317744 
L 89.64507 300.317744 
L 87.653672 300.317744 
L 85.662273 300.317744 
z
" style="fill:#008000;fill-opacity:0.4;"/>
   </g>
   <g id="matplotlib.axis_1">
    <g id="xtick_1">
     <g id="line2d_1">
      <defs>
       <path d="M 0 0 
L 0 3.5 
" id="m4dff3c240f" style="stroke:#000000;stroke-width:0.8;"/>
      </defs>
      <g>
       <use style="stroke:#000000;stroke-width:0.8;" x="85.662273" xlink:href="#m4dff3c240f" y="619.8"/>
      </g>
     </g>
     <g id="text_1">
      <!-- 0.0 -->
      <defs>
       <path d="M 31.78125 66.40625 
Q 24.171875 66.40625 20.328125 58.90625 
Q 16.5 51.421875 16.5 36.375 
Q 16.5 21.390625 20.328125 13.890625 
Q 24.171875 6.390625 31.78125 6.390625 
Q 39.453125 6.390625 43.28125 13.890625 
Q 47.125 21.390625 47.125 36.375 
Q 47.125 51.421875 43.28125 58.90625 
Q 39.453125 66.40625 31.78125 66.40625 
z
M 31.78125 74.21875 
Q 44.046875 74.21875 50.515625 64.515625 
Q 56.984375 54.828125 56.984375 36.375 
Q 56.984375 17.96875 50.515625 8.265625 
Q 44.046875 -1.421875 31.78125 -1.421875 
Q 19.53125 -1.421875 13.0625 8.265625 
Q 6.59375 17.96875 6.59375 36.375 
Q 6.59375 54.828125 13.0625 64.515625 
Q 19.53125 74.21875 31.78125 74.21875 
z
" id="DejaVuSans-30"/>
       <path d="M 10.6875 12.40625 
L 21 12.40625 
L 21 0 
L 10.6875 0 
z
" id="DejaVuSans-2e"/>
      </defs>
      <g transform="translate(77.71071 634.398437)scale(0.1 -0.1)">
       <use xlink:href="#DejaVuSans-30"/>
       <use x="63.623047" xlink:href="#DejaVuSans-2e"/>
       <use x="95.410156" xlink:href="#DejaVuSans-30"/>
      </g>
     </g>
    </g>
    <g id="xtick_2">
     <g id="line2d_2">
      <g>
       <use style="stroke:#000000;stroke-width:0.8;" x="203.951364" xlink:href="#m4dff3c240f" y="619.8"/>
      </g>
     </g>
     <g id="text_2">
      <!-- 0.2 -->
      <defs>
       <path d="M 19.1875 8.296875 
L 53.609375 8.296875 
L 53.609375 0 
L 7.328125 0 
L 7.328125 8.296875 
Q 12.9375 14.109375 22.625 23.890625 
Q 32.328125 33.6875 34.8125 36.53125 
Q 39.546875 41.84375 41.421875 45.53125 
Q 43.3125 49.21875 43.3125 52.78125 
Q 43.3125 58.59375 39.234375 62.25 
Q 35.15625 65.921875 28.609375 65.921875 
Q 23.96875 65.921875 18.8125 64.3125 
Q 13.671875 62.703125 7.8125 59.421875 
L 7.8125 69.390625 
Q 13.765625 71.78125 18.9375 73 
Q 24.125 74.21875 28.421875 74.21875 
Q 39.75 74.21875 46.484375 68.546875 
Q 53.21875 62.890625 53.21875 53.421875 
Q 53.21875 48.921875 51.53125 44.890625 
Q 49.859375 40.875 45.40625 35.40625 
Q 44.1875 33.984375 37.640625 27.21875 
Q 31.109375 20.453125 19.1875 8.296875 
z
" id="DejaVuSans-32"/>
      </defs>
      <g transform="translate(195.999801 634.398437)scale(0.1 -0.1)">
       <use xlink:href="#DejaVuSans-30"/>
       <use x="63.623047" xlink:href="#DejaVuSans-2e"/>
       <use x="95.410156" xlink:href="#DejaVuSans-32"/>
      </g>
     </g>
    </g>
    <g id="xtick_3">
     <g id="line2d_3">
      <g>
       <use style="stroke:#000000;stroke-width:0.8;" x="322.240455" xlink:href="#m4dff3c240f" y="619.8"/>
      </g>
     </g>
     <g id="text_3">
      <!-- 0.4 -->
      <defs>
       <path d="M 37.796875 64.3125 
L 12.890625 25.390625 
L 37.796875 25.390625 
z
M 35.203125 72.90625 
L 47.609375 72.90625 
L 47.609375 25.390625 
L 58.015625 25.390625 
L 58.015625 17.1875 
L 47.609375 17.1875 
L 47.609375 0 
L 37.796875 0 
L 37.796875 17.1875 
L 4.890625 17.1875 
L 4.890625 26.703125 
z
" id="DejaVuSans-34"/>
      </defs>
      <g transform="translate(314.288892 634.398437)scale(0.1 -0.1)">
       <use xlink:href="#DejaVuSans-30"/>
       <use x="63.623047" xlink:href="#DejaVuSans-2e"/>
       <use x="95.410156" xlink:href="#DejaVuSans-34"/>
      </g>
     </g>
    </g>
    <g id="xtick_4">
     <g id="line2d_4">
      <g>
       <use style="stroke:#000000;stroke-width:0.8;" x="440.529545" xlink:href="#m4dff3c240f" y="619.8"/>
      </g>
     </g>
     <g id="text_4">
      <!-- 0.6 -->
      <defs>
       <path d="M 33.015625 40.375 
Q 26.375 40.375 22.484375 35.828125 
Q 18.609375 31.296875 18.609375 23.390625 
Q 18.609375 15.53125 22.484375 10.953125 
Q 26.375 6.390625 33.015625 6.390625 
Q 39.65625 6.390625 43.53125 10.953125 
Q 47.40625 15.53125 47.40625 23.390625 
Q 47.40625 31.296875 43.53125 35.828125 
Q 39.65625 40.375 33.015625 40.375 
z
M 52.59375 71.296875 
L 52.59375 62.3125 
Q 48.875 64.0625 45.09375 64.984375 
Q 41.3125 65.921875 37.59375 65.921875 
Q 27.828125 65.921875 22.671875 59.328125 
Q 17.53125 52.734375 16.796875 39.40625 
Q 19.671875 43.65625 24.015625 45.921875 
Q 28.375 48.1875 33.59375 48.1875 
Q 44.578125 48.1875 50.953125 41.515625 
Q 57.328125 34.859375 57.328125 23.390625 
Q 57.328125 12.15625 50.6875 5.359375 
Q 44.046875 -1.421875 33.015625 -1.421875 
Q 20.359375 -1.421875 13.671875 8.265625 
Q 6.984375 17.96875 6.984375 36.375 
Q 6.984375 53.65625 15.1875 63.9375 
Q 23.390625 74.21875 37.203125 74.21875 
Q 40.921875 74.21875 44.703125 73.484375 
Q 48.484375 72.75 52.59375 71.296875 
z
" id="DejaVuSans-36"/>
      </defs>
      <g transform="translate(432.577983 634.398437)scale(0.1 -0.1)">
       <use xlink:href="#DejaVuSans-30"/>
       <use x="63.623047" xlink:href="#DejaVuSans-2e"/>
       <use x="95.410156" xlink:href="#DejaVuSans-36"/>
      </g>
     </g>
    </g>
    <g id="xtick_5">
     <g id="line2d_5">
      <g>
       <use style="stroke:#000000;stroke-width:0.8;" x="558.818636" xlink:href="#m4dff3c240f" y="619.8"/>
      </g>
     </g>
     <g id="text_5">
      <!-- 0.8 -->
      <defs>
       <path d="M 31.78125 34.625 
Q 24.75 34.625 20.71875 30.859375 
Q 16.703125 27.09375 16.703125 20.515625 
Q 16.703125 13.921875 20.71875 10.15625 
Q 24.75 6.390625 31.78125 6.390625 
Q 38.8125 6.390625 42.859375 10.171875 
Q 46.921875 13.96875 46.921875 20.515625 
Q 46.921875 27.09375 42.890625 30.859375 
Q 38.875 34.625 31.78125 34.625 
z
M 21.921875 38.8125 
Q 15.578125 40.375 12.03125 44.71875 
Q 8.5 49.078125 8.5 55.328125 
Q 8.5 64.0625 14.71875 69.140625 
Q 20.953125 74.21875 31.78125 74.21875 
Q 42.671875 74.21875 48.875 69.140625 
Q 55.078125 64.0625 55.078125 55.328125 
Q 55.078125 49.078125 51.53125 44.71875 
Q 48 40.375 41.703125 38.8125 
Q 48.828125 37.15625 52.796875 32.3125 
Q 56.78125 27.484375 56.78125 20.515625 
Q 56.78125 9.90625 50.3125 4.234375 
Q 43.84375 -1.421875 31.78125 -1.421875 
Q 19.734375 -1.421875 13.25 4.234375 
Q 6.78125 9.90625 6.78125 20.515625 
Q 6.78125 27.484375 10.78125 32.3125 
Q 14.796875 37.15625 21.921875 38.8125 
z
M 18.3125 54.390625 
Q 18.3125 48.734375 21.84375 45.5625 
Q 25.390625 42.390625 31.78125 42.390625 
Q 38.140625 42.390625 41.71875 45.5625 
Q 45.3125 48.734375 45.3125 54.390625 
Q 45.3125 60.0625 41.71875 63.234375 
Q 38.140625 66.40625 31.78125 66.40625 
Q 25.390625 66.40625 21.84375 63.234375 
Q 18.3125 60.0625 18.3125 54.390625 
z
" id="DejaVuSans-38"/>
      </defs>
      <g transform="translate(550.867074 634.398437)scale(0.1 -0.1)">
       <use xlink:href="#DejaVuSans-30"/>
       <use x="63.623047" xlink:href="#DejaVuSans-2e"/>
       <use x="95.410156" xlink:href="#DejaVuSans-38"/>
      </g>
     </g>
    </g>
    <g id="xtick_6">
     <g id="line2d_6">
      <g>
       <use style="stroke:#000000;stroke-width:0.8;" x="677.107727" xlink:href="#m4dff3c240f" y="619.8"/>
      </g>
     </g>
     <g id="text_6">
      <!-- 1.0 -->
      <defs>
       <path d="M 12.40625 8.296875 
L 28.515625 8.296875 
L 28.515625 63.921875 
L 10.984375 60.40625 
L 10.984375 69.390625 
L 28.421875 72.90625 
L 38.28125 72.90625 
L 38.28125 8.296875 
L 54.390625 8.296875 
L 54.390625 0 
L 12.40625 0 
z
" id="DejaVuSans-31"/>
      </defs>
      <g transform="translate(669.156165 634.398437)scale(0.1 -0.1)">
       <use xlink:href="#DejaVuSans-31"/>
       <use x="63.623047" xlink:href="#DejaVuSans-2e"/>
       <use x="95.410156" xlink:href="#DejaVuSans-30"/>
      </g>
     </g>
    </g>
   </g>
   <g id="matplotlib.axis_2">
    <g id="ytick_1">
     <g id="line2d_7">
      <defs>
       <path d="M 0 0 
L -3.5 0 
" id="mace66f9769" style="stroke:#000000;stroke-width:0.8;"/>
      </defs>
      <g>
       <use style="stroke:#000000;stroke-width:0.8;" x="56.09" xlink:href="#mace66f9769" y="603.498384"/>
      </g>
     </g>
     <g id="text_7">
      <!-- 0.0 -->
      <g transform="translate(33.186875 607.297602)scale(0.1 -0.1)">
       <use xlink:href="#DejaVuSans-30"/>
       <use x="63.623047" xlink:href="#DejaVuSans-2e"/>
       <use x="95.410156" xlink:href="#DejaVuSans-30"/>
      </g>
     </g>
    </g>
    <g id="ytick_2">
     <g id="line2d_8">
      <g>
       <use style="stroke:#000000;stroke-width:0.8;" x="56.09" xlink:href="#mace66f9769" y="507.250562"/>
      </g>
     </g>
     <g id="text_8">
      <!-- 0.2 -->
      <g transform="translate(33.186875 511.04978)scale(0.1 -0.1)">
       <use xlink:href="#DejaVuSans-30"/>
       <use x="63.623047" xlink:href="#DejaVuSans-2e"/>
       <use x="95.410156" xlink:href="#DejaVuSans-32"/>
      </g>
     </g>
    </g>
    <g id="ytick_3">
     <g id="line2d_9">
      <g>
       <use style="stroke:#000000;stroke-width:0.8;" x="56.09" xlink:href="#mace66f9769" y="411.002739"/>
      </g>
     </g>
     <g id="text_9">
      <!-- 0.4 -->
      <g transform="translate(33.186875 414.801958)scale(0.1 -0.1)">
       <use xlink:href="#DejaVuSans-30"/>
       <use x="63.623047" xlink:href="#DejaVuSans-2e"/>
       <use x="95.410156" xlink:href="#DejaVuSans-34"/>
      </g>
     </g>
    </g>
    <g id="ytick_4">
     <g id="line2d_10">
      <g>
       <use style="stroke:#000000;stroke-width:0.8;" x="56.09" xlink:href="#mace66f9769" y="314.754917"/>
      </g>
     </g>
     <g id="text_10">
      <!-- 0.6 -->
      <g transform="translate(33.186875 318.554136)scale(0.1 -0.1)">
       <use xlink:href="#DejaVuSans-30"/>
       <use x="63.623047" xlink:href="#DejaVuSans-2e"/>
       <use x="95.410156" xlink:href="#DejaVuSans-36"/>
      </g>
     </g>
    </g>
    <g id="ytick_5">
     <g id="line2d_11">
      <g>
       <use style="stroke:#000000;stroke-width:0.8;" x="56.09" xlink:href="#mace66f9769" y="218.507095"/>
      </g>
     </g>
     <g id="text_11">
      <!-- 0.8 -->
      <g transform="translate(33.186875 222.306314)scale(0.1 -0.1)">
       <use xlink:href="#DejaVuSans-30"/>
       <use x="63.623047" xlink:href="#DejaVuSans-2e"/>
       <use x="95.410156" xlink:href="#DejaVuSans-38"/>
      </g>
     </g>
    </g>
    <g id="ytick_6">
     <g id="line2d_12">
      <g>
       <use style="stroke:#000000;stroke-width:0.8;" x="56.09" xlink:href="#mace66f9769" y="122.259273"/>
      </g>
     </g>
     <g id="text_12">
      <!-- 1.0 -->
      <g transform="translate(33.186875 126.058492)scale(0.1 -0.1)">
       <use xlink:href="#DejaVuSans-31"/>
       <use x="63.623047" xlink:href="#DejaVuSans-2e"/>
       <use x="95.410156" xlink:href="#DejaVuSans-30"/>
      </g>
     </g>
    </g>
   </g>
   <g id="line2d_13">
    <path clip-path="url(#ped8fa64d1a)" d="M 85.662273 579.094796 
L 87.653672 579.420162 
L 89.64507 578.118651 
L 91.636469 576.16636 
L 93.627868 563.801836 
L 95.619267 558.921109 
L 97.610666 545.580294 
L 99.602065 524.430798 
L 101.593463 499.701845 
L 103.584862 458.703641 
L 105.576261 424.213234 
L 107.56766 385.167418 
L 111.550458 299.917353 
L 113.541856 265.426946 
L 115.533255 254.689539 
L 117.524654 225.730494 
L 119.516053 172.042496 
L 121.507452 153.82134 
L 123.498851 149.591248 
L 125.490249 129.092387 
L 127.481648 127.14 
L 129.473047 143.083452 
L 131.464446 177.57434 
L 133.455845 189.613018 
L 135.447244 192.867157 
L 137.438642 223.778107 
L 139.430041 241.674427 
L 141.42144 261.197335 
L 143.412839 276.164834 
L 145.404238 299.592035 
L 147.395637 336.685465 
L 149.387036 341.240874 
L 151.378434 318.138991 
L 153.369833 322.6944 
L 155.361232 333.431807 
L 157.352631 337.336581 
L 159.34403 333.431807 
L 161.335429 351.002328 
L 163.326827 381.588442 
L 165.318226 391.675214 
L 167.309625 416.404167 
L 169.301024 438.20478 
L 171.292423 441.13312 
L 173.283822 450.569257 
L 175.27522 466.838026 
L 177.266619 481.805525 
L 179.258018 486.035617 
L 181.249417 490.916344 
L 183.240816 509.137981 
L 185.232215 520.526024 
L 187.223613 526.057386 
L 189.215012 521.827775 
L 191.206411 529.311525 
L 193.19781 537.771227 
L 195.189209 542.326637 
L 197.180608 546.556728 
L 199.172006 556.968818 
L 201.163405 568.031831 
L 203.154804 568.031831 
L 205.146203 563.47647 
L 207.137602 565.428761 
L 209.129001 561.849545 
L 211.120399 556.968818 
L 213.111798 555.99272 
L 215.103197 546.556728 
L 217.094596 529.636842 
L 219.085995 511.089887 
L 221.077394 503.606138 
L 223.068792 493.844684 
L 225.060191 478.22655 
L 227.05159 468.465095 
L 229.042989 460.330711 
L 231.034388 450.894574 
L 233.025787 438.855415 
L 235.017185 412.824711 
L 237.008584 404.039691 
L 238.999983 397.857212 
L 240.991382 395.904825 
L 242.982781 392.325849 
L 244.97418 376.381917 
L 250.948376 247.856425 
L 252.939775 224.103425 
L 254.931174 202.628611 
L 256.922573 174.320201 
L 258.913972 198.073201 
L 260.90537 204.580998 
L 262.896769 195.470179 
L 264.888168 196.771449 
L 266.879567 209.787042 
L 268.870966 241.674427 
L 270.862365 260.546219 
L 272.853763 281.696197 
L 274.845162 317.162556 
L 276.836561 334.40776 
L 278.82796 349.049941 
L 280.819359 362.065534 
L 282.810758 364.993874 
L 284.802156 381.91376 
L 286.793555 385.167418 
L 288.784954 386.143371 
L 290.776353 385.167418 
L 292.767752 387.445122 
L 294.759151 394.278237 
L 296.750549 394.928872 
L 298.741948 400.785552 
L 300.733347 405.666279 
L 302.724746 408.920418 
L 304.716145 411.848758 
L 306.707544 421.935529 
L 308.698942 423.887917 
L 310.690341 437.879462 
L 312.68174 449.91814 
L 314.673139 458.703641 
L 316.664538 457.076572 
L 318.655937 460.330711 
L 322.638734 486.686252 
L 324.630133 497.098822 
L 326.621532 505.558525 
L 328.612931 520.200706 
L 330.60433 531.914547 
L 332.595728 536.144639 
L 334.587127 538.421862 
L 336.578526 543.628388 
L 340.561324 561.524179 
L 342.552723 569.658708 
L 344.544122 579.094796 
L 346.53552 585.927766 
L 348.526919 591.133907 
L 350.518318 593.086198 
L 352.509717 591.784639 
L 354.501116 590.808493 
L 356.492515 590.157762 
L 358.483913 585.6024 
L 360.475312 583.324744 
L 362.466711 573.56329 
L 364.45811 565.754126 
L 366.449509 549.159751 
L 368.440908 533.541617 
L 370.432306 518.899435 
L 372.423705 497.42414 
L 374.415104 486.360934 
L 376.406503 467.81446 
L 378.397902 445.68853 
L 380.389301 429.093961 
L 384.372098 383.540348 
L 386.363497 357.835442 
L 388.354896 334.733559 
L 392.337694 300.242671 
L 394.329092 298.290765 
L 396.320491 297.965447 
L 398.31189 292.758921 
L 400.303289 284.624537 
L 402.294688 292.758921 
L 404.286087 293.735355 
L 406.277485 298.616082 
L 408.268884 296.01306 
L 410.260283 308.702854 
L 412.251682 324.320988 
L 414.243081 333.106489 
L 416.23448 350.351693 
L 418.225878 353.930668 
L 420.217277 377.358351 
L 424.200075 386.46917 
L 428.182873 405.666279 
L 430.174272 416.404167 
L 432.16567 412.824711 
L 434.157069 423.562599 
L 436.148468 442.434391 
L 438.139867 456.751254 
L 440.131266 460.330711 
L 442.122665 459.028959 
L 446.105462 462.933733 
L 448.096861 453.822914 
L 450.08826 451.870527 
L 452.079659 448.942187 
L 454.071058 454.148232 
L 456.062456 463.584368 
L 458.053855 469.115731 
L 460.045254 482.456641 
L 462.036653 488.963957 
L 464.028052 502.304867 
L 466.019451 509.137981 
L 468.010849 514.994661 
L 470.002248 524.756115 
L 471.993647 535.168205 
L 473.985046 542.651954 
L 475.976445 548.834433 
L 477.967844 564.12725 
L 479.959242 575.190215 
L 481.950641 581.697819 
L 483.94204 585.927766 
L 485.933439 586.25318 
L 487.924838 582.999378 
L 489.916237 573.56329 
L 491.907635 562.500324 
L 495.890433 533.215818 
L 497.881832 512.716957 
L 499.873231 487.012051 
L 501.86463 462.933733 
L 503.856028 449.267505 
L 505.847427 417.054802 
L 507.838826 392.325849 
L 509.830225 377.683668 
L 511.821624 367.596897 
L 513.813023 351.002328 
L 515.804421 298.9414 
L 517.79582 259.570266 
L 519.787219 225.730494 
L 521.778618 188.962382 
L 523.770017 154.797293 
L 525.761416 146.988226 
L 527.752815 149.265931 
L 529.744213 162.932159 
L 531.735612 182.780385 
L 533.727011 211.738948 
L 535.71841 236.142584 
L 537.709809 244.602767 
L 539.701208 268.355767 
L 541.692606 284.299219 
L 543.684005 283.648584 
L 545.675404 274.863082 
L 547.666803 271.934742 
L 549.658202 272.910695 
L 551.649601 275.513718 
L 553.640999 303.822127 
L 555.632398 326.598693 
L 559.615196 383.215031 
L 561.606595 400.785552 
L 563.597994 426.816257 
L 565.589392 434.300006 
L 567.580791 435.927075 
L 569.57219 444.06146 
L 571.563589 455.449984 
L 573.554988 476.59948 
L 575.546387 486.035617 
L 577.537785 497.42414 
L 579.529184 520.851341 
L 581.520583 536.795274 
L 583.511982 545.580294 
L 585.503381 549.159751 
L 587.49478 554.365795 
L 589.486178 562.82569 
L 591.477577 566.07954 
L 593.468976 564.452615 
L 595.460375 566.730272 
L 597.451774 565.103395 
L 599.443173 569.007977 
L 601.434571 560.873399 
L 603.42597 562.174959 
L 605.417369 561.524179 
L 607.408768 562.174959 
L 609.400167 569.007977 
L 611.391566 572.587144 
L 613.382964 580.070942 
L 615.374363 583.65011 
L 617.365762 588.205471 
L 619.357161 592.110053 
L 621.34856 593.73693 
L 623.339959 596.014634 
L 625.331358 596.34 
L 629.314155 589.832348 
L 631.305554 584.951621 
L 635.288352 563.47647 
L 637.279751 552.088091 
L 639.271149 539.072979 
L 641.262548 513.692909 
L 643.253947 501.654232 
L 645.245346 491.566979 
L 647.236745 474.972892 
L 649.228144 461.631981 
L 651.219542 441.783755 
L 653.210941 441.13312 
L 655.20234 429.093961 
L 657.193739 422.260847 
L 659.185138 409.896371 
L 661.176537 400.460234 
L 663.167935 413.475827 
L 665.159334 415.427733 
L 667.150733 408.920418 
L 669.142132 408.269301 
L 671.133531 419.657825 
L 673.12493 426.165621 
L 675.116328 411.848758 
L 677.107727 408.920418 
L 677.107727 408.920418 
" style="fill:none;stroke:#1f77b4;stroke-linecap:square;stroke-width:1.5;"/>
   </g>
   <g id="line2d_14">
    <path clip-path="url(#ped8fa64d1a)" d="M 85.662273 460.641903 
L 87.653672 460.665526 
L 89.64507 461.021903 
L 91.636469 460.549689 
L 93.627868 460.639116 
L 95.619267 458.566276 
L 97.610666 457.014227 
L 99.602065 455.306441 
L 103.584862 442.347533 
L 105.576261 427.64246 
L 109.559059 391.633538 
L 111.550458 368.674978 
L 113.541856 349.5213 
L 115.533255 335.543864 
L 117.524654 330.506766 
L 119.516053 324.140299 
L 121.507452 311.054535 
L 123.498851 305.431602 
L 125.490249 305.310762 
L 127.481648 302.084303 
L 129.473047 300.487351 
L 131.464446 302.118313 
L 133.455845 308.219793 
L 135.447244 312.988484 
L 137.438642 312.701901 
L 139.430041 319.432788 
L 141.42144 325.572268 
L 143.412839 331.070054 
L 145.404238 337.933815 
L 147.395637 344.161708 
L 149.387036 360.556201 
L 151.378434 365.79033 
L 153.369833 355.67579 
L 155.361232 356.156111 
L 157.352631 360.729418 
L 159.34403 363.285682 
L 161.335429 362.168607 
L 163.326827 368.333484 
L 165.318226 384.212506 
L 167.309625 391.792822 
L 169.301024 401.560041 
L 171.292423 413.932544 
L 173.283822 417.400683 
L 175.27522 420.071581 
L 177.266619 427.091459 
L 179.258018 433.478509 
L 181.249417 435.788279 
L 183.240816 437.671942 
L 187.223613 447.114261 
L 189.215012 448.909574 
L 191.206411 447.598445 
L 193.19781 449.514282 
L 195.189209 451.675408 
L 197.180608 453.193131 
L 199.172006 453.986509 
L 201.163405 455.876632 
L 203.154804 458.779013 
L 205.146203 459.12494 
L 207.137602 458.068349 
L 211.120399 457.964419 
L 213.111798 456.891803 
L 215.103197 456.292479 
L 217.094596 454.92359 
L 219.085995 450.827437 
L 221.077394 445.411352 
L 223.068792 442.23461 
L 225.060191 439.470232 
L 229.042989 428.988992 
L 231.034388 426.223031 
L 233.025787 422.111614 
L 235.017185 415.601 
L 237.008584 404.772629 
L 238.999983 398.425036 
L 240.991382 394.83916 
L 242.982781 393.544878 
L 244.97418 393.015917 
L 246.965579 385.098161 
L 250.948376 343.730091 
L 252.939775 331.034967 
L 254.931174 322.42219 
L 258.913972 310.315877 
L 260.90537 312.788097 
L 262.896769 316.955881 
L 264.888168 314.141723 
L 266.879567 313.993079 
L 268.870966 316.23331 
L 270.862365 324.047262 
L 272.853763 331.166827 
L 274.845162 338.821559 
L 276.836561 351.674004 
L 280.819359 369.476526 
L 282.810758 374.628637 
L 284.802156 377.636595 
L 286.793555 383.809389 
L 288.784954 388.97803 
L 290.776353 388.191113 
L 292.767752 387.835369 
L 294.759151 389.263664 
L 296.750549 392.084155 
L 300.733347 394.97178 
L 302.724746 399.565418 
L 304.716145 399.712034 
L 306.707544 402.236569 
L 308.698942 406.557239 
L 310.690341 407.766781 
L 312.68174 414.230465 
L 314.673139 420.099637 
L 316.664538 424.128277 
L 318.655937 424.538995 
L 320.647335 424.832925 
L 322.638734 430.297461 
L 324.630133 435.220052 
L 326.621532 439.238622 
L 328.612931 442.353107 
L 332.595728 449.964709 
L 334.587127 451.860975 
L 336.578526 452.022159 
L 338.569925 453.157031 
L 340.561324 455.393018 
L 344.544122 458.980477 
L 346.53552 460.360449 
L 348.526919 462.057342 
L 350.518318 462.775416 
L 352.509717 463.191264 
L 354.501116 463.145854 
L 356.492515 462.84065 
L 358.483913 462.958513 
L 360.475312 462.155762 
L 362.466711 461.866012 
L 366.449509 458.699593 
L 368.440908 455.815135 
L 372.423705 447.562978 
L 374.415104 441.393795 
L 376.406503 436.578617 
L 378.397902 430.029687 
L 382.380699 411.290843 
L 384.372098 401.068447 
L 388.354896 375.530125 
L 390.346295 364.010407 
L 392.337694 354.671575 
L 394.329092 348.081858 
L 396.320491 345.907558 
L 398.31189 345.719837 
L 400.303289 344.579962 
L 402.294688 340.955326 
L 404.286087 342.903653 
L 406.277485 345.085236 
L 408.268884 345.34883 
L 410.260283 346.345762 
L 412.251682 348.671112 
L 414.243081 356.150981 
L 416.23448 361.187319 
L 418.225878 368.422151 
L 420.217277 372.173137 
L 422.208676 380.856784 
L 424.200075 386.903607 
L 426.191474 388.206376 
L 428.182873 392.933584 
L 430.174272 398.120782 
L 432.16567 403.775128 
L 434.157069 403.026083 
L 436.148468 407.09171 
L 438.139867 416.666775 
L 440.131266 422.845712 
L 442.122665 425.060545 
L 444.114063 424.852052 
L 446.105462 425.882297 
L 448.096861 426.621461 
L 450.08826 423.238886 
L 452.079659 421.403483 
L 454.071058 420.704915 
L 456.062456 422.674965 
L 458.053855 426.155391 
L 460.045254 428.697531 
L 462.036653 433.759773 
L 464.028052 436.777484 
L 466.019451 440.854891 
L 468.010849 443.720286 
L 470.002248 445.322305 
L 471.993647 447.933606 
L 473.985046 450.73554 
L 475.976445 453.327904 
L 477.967844 454.357706 
L 479.959242 457.04811 
L 481.950641 460.136882 
L 483.94204 461.18543 
L 485.933439 462.092429 
L 487.924838 462.250635 
L 489.916237 462.107375 
L 491.907635 460.101795 
L 493.899034 458.372729 
L 495.890433 455.099657 
L 497.881832 451.536328 
L 499.873231 446.175723 
L 501.86463 437.542996 
L 503.856028 428.341787 
L 505.847427 420.210724 
L 507.838826 408.886009 
L 509.830225 392.926427 
L 511.821624 384.188883 
L 513.813023 380.226046 
L 515.804421 370.612411 
L 517.79582 350.916599 
L 519.787219 332.640976 
L 521.778618 324.197932 
L 523.770017 314.612924 
L 525.761416 306.608781 
L 527.752815 304.379444 
L 529.744213 304.399647 
L 531.735612 305.910656 
L 533.727011 310.278193 
L 535.71841 316.205823 
L 537.709809 323.364464 
L 539.701208 327.265677 
L 541.692606 332.411836 
L 543.684005 340.568169 
L 545.675404 339.578204 
L 547.666803 338.250355 
L 549.658202 335.835768 
L 551.649601 336.189802 
L 553.640999 337.445324 
L 555.632398 345.771517 
L 559.615196 369.93772 
L 561.606595 385.078274 
L 563.597994 395.239491 
L 565.589392 407.347767 
L 567.580791 413.594724 
L 569.57219 414.370305 
L 571.563589 417.507337 
L 573.554988 422.658752 
L 575.546387 430.343757 
L 577.537785 436.12553 
L 579.529184 439.230578 
L 581.520583 445.667662 
L 583.511982 451.521508 
L 585.503381 453.622025 
L 587.49478 454.879384 
L 589.486178 455.563575 
L 591.477577 457.512028 
L 593.468976 458.54905 
L 595.460375 458.326242 
L 597.451774 458.478243 
L 599.443173 458.267722 
L 601.434571 459.13045 
L 603.42597 457.767768 
L 605.417369 457.417724 
L 607.408768 457.506391 
L 609.400167 457.707918 
L 611.391566 458.830947 
L 613.382964 459.457504 
L 615.374363 460.955213 
L 619.357161 462.309282 
L 621.34856 463.02685 
L 623.339959 463.240917 
L 625.331358 463.758921 
L 629.314155 463.478227 
L 631.305554 462.876876 
L 633.296953 462.063485 
L 635.288352 460.577113 
L 637.279751 458.126995 
L 639.271149 456.269932 
L 641.262548 453.021497 
L 643.253947 446.705444 
L 645.245346 441.981973 
L 647.236745 438.340047 
L 649.228144 432.871585 
L 651.219542 426.534188 
L 653.210941 418.658548 
L 655.20234 416.509075 
L 657.193739 411.839881 
L 659.185138 407.734037 
L 661.176537 402.353482 
L 663.167935 396.329839 
L 665.159334 401.446167 
L 667.150733 403.664611 
L 669.142132 401.175733 
L 671.133531 400.440179 
L 673.12493 405.649227 
L 675.116328 409.08475 
L 677.107727 403.079347 
L 677.107727 403.079347 
" style="fill:none;stroke:#ff7f0e;stroke-linecap:square;stroke-width:1.5;"/>
   </g>
   <g id="line2d_15">
    <path clip-path="url(#ped8fa64d1a)" d="M 85.662273 555.374473 
L 93.627868 555.374473 
L 95.619267 550.562081 
L 97.610666 550.562081 
L 99.602065 545.74969 
L 103.584862 516.875344 
L 107.56766 449.501868 
L 109.559059 439.877086 
L 111.550458 435.064695 
L 121.507452 435.064695 
L 123.498851 430.252304 
L 125.490249 435.064695 
L 127.481648 435.064695 
L 129.473047 430.252304 
L 133.455845 430.252304 
L 135.447244 435.064695 
L 137.438642 430.252304 
L 147.395637 430.252304 
L 149.387036 435.064695 
L 151.378434 435.064695 
L 153.369833 430.252304 
L 155.361232 435.064695 
L 163.326827 435.064695 
L 165.318226 439.877086 
L 169.301024 439.877086 
L 171.292423 454.314259 
L 173.283822 459.12665 
L 175.27522 468.751433 
L 179.258018 497.625779 
L 183.240816 507.250562 
L 187.223613 526.500126 
L 189.215012 531.312517 
L 193.19781 531.312517 
L 197.180608 540.937299 
L 199.172006 540.937299 
L 205.146203 555.374473 
L 207.137602 550.562081 
L 213.111798 550.562081 
L 215.103197 545.74969 
L 217.094596 545.74969 
L 223.068792 516.875344 
L 225.060191 512.062953 
L 227.05159 497.625779 
L 233.025787 468.751433 
L 235.017185 454.314259 
L 237.008584 444.689477 
L 238.999983 439.877086 
L 246.965579 439.877086 
L 248.956977 435.064695 
L 256.922573 435.064695 
L 258.913972 430.252304 
L 260.90537 430.252304 
L 262.896769 435.064695 
L 264.888168 430.252304 
L 274.845162 430.252304 
L 276.836561 435.064695 
L 278.82796 435.064695 
L 280.819359 439.877086 
L 306.707544 439.877086 
L 308.698942 444.689477 
L 310.690341 444.689477 
L 312.68174 454.314259 
L 314.673139 468.751433 
L 316.664538 478.376215 
L 320.647335 478.376215 
L 322.638734 492.813388 
L 326.621532 512.062953 
L 328.612931 516.875344 
L 332.595728 536.124908 
L 334.587127 536.124908 
L 336.578526 540.937299 
L 338.569925 540.937299 
L 344.544122 555.374473 
L 346.53552 555.374473 
L 348.526919 560.186864 
L 362.466711 560.186864 
L 368.440908 545.74969 
L 374.415104 516.875344 
L 378.397902 488.000997 
L 382.380699 449.501868 
L 384.372098 439.877086 
L 388.354896 439.877086 
L 390.346295 435.064695 
L 400.303289 435.064695 
L 402.294688 430.252304 
L 404.286087 430.252304 
L 406.277485 435.064695 
L 408.268884 430.252304 
L 410.260283 435.064695 
L 412.251682 430.252304 
L 414.243081 435.064695 
L 422.208676 435.064695 
L 424.200075 439.877086 
L 434.157069 439.877086 
L 436.148468 444.689477 
L 440.131266 473.563824 
L 442.122665 478.376215 
L 446.105462 478.376215 
L 448.096861 483.188606 
L 450.08826 473.563824 
L 452.079659 468.751433 
L 454.071058 468.751433 
L 458.053855 478.376215 
L 464.028052 507.250562 
L 466.019451 512.062953 
L 468.010849 521.687735 
L 481.950641 555.374473 
L 483.94204 555.374473 
L 485.933439 560.186864 
L 489.916237 560.186864 
L 495.890433 545.74969 
L 499.873231 526.500126 
L 501.86463 507.250562 
L 503.856028 483.188606 
L 505.847427 468.751433 
L 507.838826 444.689477 
L 509.830225 439.877086 
L 513.813023 439.877086 
L 515.804421 435.064695 
L 523.770017 435.064695 
L 525.761416 430.252304 
L 541.692606 430.252304 
L 543.684005 435.064695 
L 545.675404 430.252304 
L 547.666803 435.064695 
L 549.658202 430.252304 
L 555.632398 430.252304 
L 557.623797 435.064695 
L 559.615196 435.064695 
L 561.606595 439.877086 
L 563.597994 439.877086 
L 565.589392 444.689477 
L 567.580791 454.314259 
L 569.57219 454.314259 
L 571.563589 459.12665 
L 573.554988 473.563824 
L 575.546387 492.813388 
L 579.529184 512.062953 
L 581.520583 526.500126 
L 583.511982 536.124908 
L 587.49478 545.74969 
L 589.486178 545.74969 
L 591.477577 550.562081 
L 599.443173 550.562081 
L 601.434571 555.374473 
L 603.42597 550.562081 
L 609.400167 550.562081 
L 611.391566 555.374473 
L 615.374363 555.374473 
L 617.365762 560.186864 
L 623.339959 560.186864 
L 625.331358 564.999255 
L 629.314155 564.999255 
L 631.305554 560.186864 
L 633.296953 560.186864 
L 641.262548 540.937299 
L 643.253947 526.500126 
L 649.228144 497.625779 
L 651.219542 483.188606 
L 653.210941 463.939042 
L 655.20234 459.12665 
L 657.193739 449.501868 
L 661.176537 439.877086 
L 671.133531 439.877086 
L 673.12493 444.689477 
L 675.116328 444.689477 
L 677.107727 439.877086 
L 677.107727 439.877086 
" style="fill:none;stroke:#2ca02c;stroke-linecap:square;stroke-width:1.5;"/>
   </g>
   <g id="line2d_16">
    <path clip-path="url(#ped8fa64d1a)" d="M 85.662273 300.317744 
L 99.602065 300.317744 
L 101.593463 295.505353 
L 103.584862 295.505353 
L 105.576261 290.692962 
L 107.56766 290.692962 
L 111.550458 281.068179 
L 113.541856 271.443397 
L 115.533255 247.381442 
L 117.524654 237.75666 
L 119.516053 223.319486 
L 121.507452 199.257531 
L 123.498851 194.44514 
L 125.490249 194.44514 
L 127.481648 189.632748 
L 131.464446 189.632748 
L 133.455845 199.257531 
L 137.438642 208.882313 
L 141.42144 228.131877 
L 143.412839 242.569051 
L 145.404238 252.193833 
L 149.387036 281.068179 
L 151.378434 285.880571 
L 153.369833 281.068179 
L 163.326827 281.068179 
L 165.318226 285.880571 
L 167.309625 285.880571 
L 169.301024 290.692962 
L 175.27522 290.692962 
L 177.266619 295.505353 
L 185.232215 295.505353 
L 187.223613 300.317744 
L 189.215012 300.317744 
L 191.206411 295.505353 
L 193.19781 300.317744 
L 219.085995 300.317744 
L 221.077394 295.505353 
L 227.05159 295.505353 
L 229.042989 290.692962 
L 231.034388 295.505353 
L 233.025787 290.692962 
L 235.017185 290.692962 
L 237.008584 285.880571 
L 246.965579 285.880571 
L 248.956977 281.068179 
L 250.948376 261.818615 
L 252.939775 237.75666 
L 254.931174 218.507095 
L 256.922573 208.882313 
L 258.913972 204.069922 
L 262.896769 213.694704 
L 264.888168 208.882313 
L 266.879567 208.882313 
L 268.870966 213.694704 
L 274.845162 257.006224 
L 276.836561 276.255788 
L 280.819359 285.880571 
L 300.733347 285.880571 
L 302.724746 290.692962 
L 304.716145 285.880571 
L 306.707544 290.692962 
L 314.673139 290.692962 
L 316.664538 295.505353 
L 318.655937 290.692962 
L 320.647335 290.692962 
L 322.638734 295.505353 
L 330.60433 295.505353 
L 332.595728 300.317744 
L 370.432306 300.317744 
L 372.423705 295.505353 
L 378.397902 295.505353 
L 380.389301 290.692962 
L 382.380699 290.692962 
L 384.372098 285.880571 
L 388.354896 285.880571 
L 390.346295 281.068179 
L 392.337694 281.068179 
L 394.329092 271.443397 
L 396.320491 266.631006 
L 400.303289 266.631006 
L 402.294688 257.006224 
L 406.277485 266.631006 
L 410.260283 266.631006 
L 412.251682 271.443397 
L 414.243081 281.068179 
L 416.23448 281.068179 
L 418.225878 285.880571 
L 430.174272 285.880571 
L 432.16567 290.692962 
L 440.131266 290.692962 
L 442.122665 295.505353 
L 444.114063 290.692962 
L 446.105462 295.505353 
L 448.096861 295.505353 
L 450.08826 290.692962 
L 456.062456 290.692962 
L 458.053855 295.505353 
L 471.993647 295.505353 
L 473.985046 300.317744 
L 497.881832 300.317744 
L 499.873231 295.505353 
L 501.86463 295.505353 
L 503.856028 290.692962 
L 507.838826 290.692962 
L 509.830225 285.880571 
L 513.813023 285.880571 
L 515.804421 281.068179 
L 517.79582 271.443397 
L 519.787219 237.75666 
L 521.778618 223.319486 
L 523.770017 204.069922 
L 525.761416 194.44514 
L 531.735612 194.44514 
L 535.71841 213.694704 
L 537.709809 228.131877 
L 539.701208 232.944268 
L 541.692606 242.569051 
L 543.684005 257.006224 
L 545.675404 257.006224 
L 549.658202 247.381442 
L 551.649601 247.381442 
L 553.640999 252.193833 
L 557.623797 281.068179 
L 559.615196 285.880571 
L 563.597994 285.880571 
L 565.589392 290.692962 
L 573.554988 290.692962 
L 575.546387 295.505353 
L 581.520583 295.505353 
L 583.511982 300.317744 
L 623.339959 300.317744 
L 625.331358 305.130135 
L 627.322756 300.317744 
L 641.262548 300.317744 
L 643.253947 295.505353 
L 649.228144 295.505353 
L 651.219542 290.692962 
L 661.176537 290.692962 
L 663.167935 285.880571 
L 665.159334 290.692962 
L 667.150733 290.692962 
L 669.142132 285.880571 
L 671.133531 285.880571 
L 673.12493 290.692962 
L 675.116328 290.692962 
L 677.107727 285.880571 
L 677.107727 285.880571 
" style="fill:none;stroke:#d62728;stroke-linecap:square;stroke-width:1.5;"/>
   </g>
   <g id="patch_3">
    <path d="M 56.09 619.8 
L 56.09 103.68 
" style="fill:none;stroke:#000000;stroke-linecap:square;stroke-linejoin:miter;stroke-width:0.8;"/>
   </g>
   <g id="patch_4">
    <path d="M 706.68 619.8 
L 706.68 103.68 
" style="fill:none;stroke:#000000;stroke-linecap:square;stroke-linejoin:miter;stroke-width:0.8;"/>
   </g>
   <g id="patch_5">
    <path d="M 56.09 619.8 
L 706.68 619.8 
" style="fill:none;stroke:#000000;stroke-linecap:square;stroke-linejoin:miter;stroke-width:0.8;"/>
   </g>
   <g id="patch_6">
    <path d="M 56.09 103.68 
L 706.68 103.68 
" style="fill:none;stroke:#000000;stroke-linecap:square;stroke-linejoin:miter;stroke-width:0.8;"/>
   </g>
   <g id="text_13">
    <!-- Plot of Train Data vs MCMC Uncertainty  -->
    <defs>
     <path d="M 19.671875 64.796875 
L 19.671875 37.40625 
L 32.078125 37.40625 
Q 38.96875 37.40625 42.71875 40.96875 
Q 46.484375 44.53125 46.484375 51.125 
Q 46.484375 57.671875 42.71875 61.234375 
Q 38.96875 64.796875 32.078125 64.796875 
z
M 9.8125 72.90625 
L 32.078125 72.90625 
Q 44.34375 72.90625 50.609375 67.359375 
Q 56.890625 61.8125 56.890625 51.125 
Q 56.890625 40.328125 50.609375 34.8125 
Q 44.34375 29.296875 32.078125 29.296875 
L 19.671875 29.296875 
L 19.671875 0 
L 9.8125 0 
z
" id="DejaVuSans-50"/>
     <path d="M 9.421875 75.984375 
L 18.40625 75.984375 
L 18.40625 0 
L 9.421875 0 
z
" id="DejaVuSans-6c"/>
     <path d="M 30.609375 48.390625 
Q 23.390625 48.390625 19.1875 42.75 
Q 14.984375 37.109375 14.984375 27.296875 
Q 14.984375 17.484375 19.15625 11.84375 
Q 23.34375 6.203125 30.609375 6.203125 
Q 37.796875 6.203125 41.984375 11.859375 
Q 46.1875 17.53125 46.1875 27.296875 
Q 46.1875 37.015625 41.984375 42.703125 
Q 37.796875 48.390625 30.609375 48.390625 
z
M 30.609375 56 
Q 42.328125 56 49.015625 48.375 
Q 55.71875 40.765625 55.71875 27.296875 
Q 55.71875 13.875 49.015625 6.21875 
Q 42.328125 -1.421875 30.609375 -1.421875 
Q 18.84375 -1.421875 12.171875 6.21875 
Q 5.515625 13.875 5.515625 27.296875 
Q 5.515625 40.765625 12.171875 48.375 
Q 18.84375 56 30.609375 56 
z
" id="DejaVuSans-6f"/>
     <path d="M 18.3125 70.21875 
L 18.3125 54.6875 
L 36.8125 54.6875 
L 36.8125 47.703125 
L 18.3125 47.703125 
L 18.3125 18.015625 
Q 18.3125 11.328125 20.140625 9.421875 
Q 21.96875 7.515625 27.59375 7.515625 
L 36.8125 7.515625 
L 36.8125 0 
L 27.59375 0 
Q 17.1875 0 13.234375 3.875 
Q 9.28125 7.765625 9.28125 18.015625 
L 9.28125 47.703125 
L 2.6875 47.703125 
L 2.6875 54.6875 
L 9.28125 54.6875 
L 9.28125 70.21875 
z
" id="DejaVuSans-74"/>
     <path id="DejaVuSans-20"/>
     <path d="M 37.109375 75.984375 
L 37.109375 68.5 
L 28.515625 68.5 
Q 23.6875 68.5 21.796875 66.546875 
Q 19.921875 64.59375 19.921875 59.515625 
L 19.921875 54.6875 
L 34.71875 54.6875 
L 34.71875 47.703125 
L 19.921875 47.703125 
L 19.921875 0 
L 10.890625 0 
L 10.890625 47.703125 
L 2.296875 47.703125 
L 2.296875 54.6875 
L 10.890625 54.6875 
L 10.890625 58.5 
Q 10.890625 67.625 15.140625 71.796875 
Q 19.390625 75.984375 28.609375 75.984375 
z
" id="DejaVuSans-66"/>
     <path d="M -0.296875 72.90625 
L 61.375 72.90625 
L 61.375 64.59375 
L 35.5 64.59375 
L 35.5 0 
L 25.59375 0 
L 25.59375 64.59375 
L -0.296875 64.59375 
z
" id="DejaVuSans-54"/>
     <path d="M 41.109375 46.296875 
Q 39.59375 47.171875 37.8125 47.578125 
Q 36.03125 48 33.890625 48 
Q 26.265625 48 22.1875 43.046875 
Q 18.109375 38.09375 18.109375 28.8125 
L 18.109375 0 
L 9.078125 0 
L 9.078125 54.6875 
L 18.109375 54.6875 
L 18.109375 46.1875 
Q 20.953125 51.171875 25.484375 53.578125 
Q 30.03125 56 36.53125 56 
Q 37.453125 56 38.578125 55.875 
Q 39.703125 55.765625 41.0625 55.515625 
z
" id="DejaVuSans-72"/>
     <path d="M 34.28125 27.484375 
Q 23.390625 27.484375 19.1875 25 
Q 14.984375 22.515625 14.984375 16.5 
Q 14.984375 11.71875 18.140625 8.90625 
Q 21.296875 6.109375 26.703125 6.109375 
Q 34.1875 6.109375 38.703125 11.40625 
Q 43.21875 16.703125 43.21875 25.484375 
L 43.21875 27.484375 
z
M 52.203125 31.203125 
L 52.203125 0 
L 43.21875 0 
L 43.21875 8.296875 
Q 40.140625 3.328125 35.546875 0.953125 
Q 30.953125 -1.421875 24.3125 -1.421875 
Q 15.921875 -1.421875 10.953125 3.296875 
Q 6 8.015625 6 15.921875 
Q 6 25.140625 12.171875 29.828125 
Q 18.359375 34.515625 30.609375 34.515625 
L 43.21875 34.515625 
L 43.21875 35.40625 
Q 43.21875 41.609375 39.140625 45 
Q 35.0625 48.390625 27.6875 48.390625 
Q 23 48.390625 18.546875 47.265625 
Q 14.109375 46.140625 10.015625 43.890625 
L 10.015625 52.203125 
Q 14.9375 54.109375 19.578125 55.046875 
Q 24.21875 56 28.609375 56 
Q 40.484375 56 46.34375 49.84375 
Q 52.203125 43.703125 52.203125 31.203125 
z
" id="DejaVuSans-61"/>
     <path d="M 9.421875 54.6875 
L 18.40625 54.6875 
L 18.40625 0 
L 9.421875 0 
z
M 9.421875 75.984375 
L 18.40625 75.984375 
L 18.40625 64.59375 
L 9.421875 64.59375 
z
" id="DejaVuSans-69"/>
     <path d="M 54.890625 33.015625 
L 54.890625 0 
L 45.90625 0 
L 45.90625 32.71875 
Q 45.90625 40.484375 42.875 44.328125 
Q 39.84375 48.1875 33.796875 48.1875 
Q 26.515625 48.1875 22.3125 43.546875 
Q 18.109375 38.921875 18.109375 30.90625 
L 18.109375 0 
L 9.078125 0 
L 9.078125 54.6875 
L 18.109375 54.6875 
L 18.109375 46.1875 
Q 21.34375 51.125 25.703125 53.5625 
Q 30.078125 56 35.796875 56 
Q 45.21875 56 50.046875 50.171875 
Q 54.890625 44.34375 54.890625 33.015625 
z
" id="DejaVuSans-6e"/>
     <path d="M 19.671875 64.796875 
L 19.671875 8.109375 
L 31.59375 8.109375 
Q 46.6875 8.109375 53.6875 14.9375 
Q 60.6875 21.78125 60.6875 36.53125 
Q 60.6875 51.171875 53.6875 57.984375 
Q 46.6875 64.796875 31.59375 64.796875 
z
M 9.8125 72.90625 
L 30.078125 72.90625 
Q 51.265625 72.90625 61.171875 64.09375 
Q 71.09375 55.28125 71.09375 36.53125 
Q 71.09375 17.671875 61.125 8.828125 
Q 51.171875 0 30.078125 0 
L 9.8125 0 
z
" id="DejaVuSans-44"/>
     <path d="M 2.984375 54.6875 
L 12.5 54.6875 
L 29.59375 8.796875 
L 46.6875 54.6875 
L 56.203125 54.6875 
L 35.6875 0 
L 23.484375 0 
z
" id="DejaVuSans-76"/>
     <path d="M 44.28125 53.078125 
L 44.28125 44.578125 
Q 40.484375 46.53125 36.375 47.5 
Q 32.28125 48.484375 27.875 48.484375 
Q 21.1875 48.484375 17.84375 46.4375 
Q 14.5 44.390625 14.5 40.28125 
Q 14.5 37.15625 16.890625 35.375 
Q 19.28125 33.59375 26.515625 31.984375 
L 29.59375 31.296875 
Q 39.15625 29.25 43.1875 25.515625 
Q 47.21875 21.78125 47.21875 15.09375 
Q 47.21875 7.46875 41.1875 3.015625 
Q 35.15625 -1.421875 24.609375 -1.421875 
Q 20.21875 -1.421875 15.453125 -0.5625 
Q 10.6875 0.296875 5.421875 2 
L 5.421875 11.28125 
Q 10.40625 8.6875 15.234375 7.390625 
Q 20.0625 6.109375 24.8125 6.109375 
Q 31.15625 6.109375 34.5625 8.28125 
Q 37.984375 10.453125 37.984375 14.40625 
Q 37.984375 18.0625 35.515625 20.015625 
Q 33.0625 21.96875 24.703125 23.78125 
L 21.578125 24.515625 
Q 13.234375 26.265625 9.515625 29.90625 
Q 5.8125 33.546875 5.8125 39.890625 
Q 5.8125 47.609375 11.28125 51.796875 
Q 16.75 56 26.8125 56 
Q 31.78125 56 36.171875 55.265625 
Q 40.578125 54.546875 44.28125 53.078125 
z
" id="DejaVuSans-73"/>
     <path d="M 9.8125 72.90625 
L 24.515625 72.90625 
L 43.109375 23.296875 
L 61.8125 72.90625 
L 76.515625 72.90625 
L 76.515625 0 
L 66.890625 0 
L 66.890625 64.015625 
L 48.09375 14.015625 
L 38.1875 14.015625 
L 19.390625 64.015625 
L 19.390625 0 
L 9.8125 0 
z
" id="DejaVuSans-4d"/>
     <path d="M 64.40625 67.28125 
L 64.40625 56.890625 
Q 59.421875 61.53125 53.78125 63.8125 
Q 48.140625 66.109375 41.796875 66.109375 
Q 29.296875 66.109375 22.65625 58.46875 
Q 16.015625 50.828125 16.015625 36.375 
Q 16.015625 21.96875 22.65625 14.328125 
Q 29.296875 6.6875 41.796875 6.6875 
Q 48.140625 6.6875 53.78125 8.984375 
Q 59.421875 11.28125 64.40625 15.921875 
L 64.40625 5.609375 
Q 59.234375 2.09375 53.4375 0.328125 
Q 47.65625 -1.421875 41.21875 -1.421875 
Q 24.65625 -1.421875 15.125 8.703125 
Q 5.609375 18.84375 5.609375 36.375 
Q 5.609375 53.953125 15.125 64.078125 
Q 24.65625 74.21875 41.21875 74.21875 
Q 47.75 74.21875 53.53125 72.484375 
Q 59.328125 70.75 64.40625 67.28125 
z
" id="DejaVuSans-43"/>
     <path d="M 8.6875 72.90625 
L 18.609375 72.90625 
L 18.609375 28.609375 
Q 18.609375 16.890625 22.84375 11.734375 
Q 27.09375 6.59375 36.625 6.59375 
Q 46.09375 6.59375 50.34375 11.734375 
Q 54.59375 16.890625 54.59375 28.609375 
L 54.59375 72.90625 
L 64.5 72.90625 
L 64.5 27.390625 
Q 64.5 13.140625 57.4375 5.859375 
Q 50.390625 -1.421875 36.625 -1.421875 
Q 22.796875 -1.421875 15.734375 5.859375 
Q 8.6875 13.140625 8.6875 27.390625 
z
" id="DejaVuSans-55"/>
     <path d="M 48.78125 52.59375 
L 48.78125 44.1875 
Q 44.96875 46.296875 41.140625 47.34375 
Q 37.3125 48.390625 33.40625 48.390625 
Q 24.65625 48.390625 19.8125 42.84375 
Q 14.984375 37.3125 14.984375 27.296875 
Q 14.984375 17.28125 19.8125 11.734375 
Q 24.65625 6.203125 33.40625 6.203125 
Q 37.3125 6.203125 41.140625 7.25 
Q 44.96875 8.296875 48.78125 10.40625 
L 48.78125 2.09375 
Q 45.015625 0.34375 40.984375 -0.53125 
Q 36.96875 -1.421875 32.421875 -1.421875 
Q 20.0625 -1.421875 12.78125 6.34375 
Q 5.515625 14.109375 5.515625 27.296875 
Q 5.515625 40.671875 12.859375 48.328125 
Q 20.21875 56 33.015625 56 
Q 37.15625 56 41.109375 55.140625 
Q 45.0625 54.296875 48.78125 52.59375 
z
" id="DejaVuSans-63"/>
     <path d="M 56.203125 29.59375 
L 56.203125 25.203125 
L 14.890625 25.203125 
Q 15.484375 15.921875 20.484375 11.0625 
Q 25.484375 6.203125 34.421875 6.203125 
Q 39.59375 6.203125 44.453125 7.46875 
Q 49.3125 8.734375 54.109375 11.28125 
L 54.109375 2.78125 
Q 49.265625 0.734375 44.1875 -0.34375 
Q 39.109375 -1.421875 33.890625 -1.421875 
Q 20.796875 -1.421875 13.15625 6.1875 
Q 5.515625 13.8125 5.515625 26.8125 
Q 5.515625 40.234375 12.765625 48.109375 
Q 20.015625 56 32.328125 56 
Q 43.359375 56 49.78125 48.890625 
Q 56.203125 41.796875 56.203125 29.59375 
z
M 47.21875 32.234375 
Q 47.125 39.59375 43.09375 43.984375 
Q 39.0625 48.390625 32.421875 48.390625 
Q 24.90625 48.390625 20.390625 44.140625 
Q 15.875 39.890625 15.1875 32.171875 
z
" id="DejaVuSans-65"/>
     <path d="M 32.171875 -5.078125 
Q 28.375 -14.84375 24.75 -17.8125 
Q 21.140625 -20.796875 15.09375 -20.796875 
L 7.90625 -20.796875 
L 7.90625 -13.28125 
L 13.1875 -13.28125 
Q 16.890625 -13.28125 18.9375 -11.515625 
Q 21 -9.765625 23.484375 -3.21875 
L 25.09375 0.875 
L 2.984375 54.6875 
L 12.5 54.6875 
L 29.59375 11.921875 
L 46.6875 54.6875 
L 56.203125 54.6875 
z
" id="DejaVuSans-79"/>
    </defs>
    <g transform="translate(260.891875 97.68)scale(0.12 -0.12)">
     <use xlink:href="#DejaVuSans-50"/>
     <use x="60.302734" xlink:href="#DejaVuSans-6c"/>
     <use x="88.085938" xlink:href="#DejaVuSans-6f"/>
     <use x="149.267578" xlink:href="#DejaVuSans-74"/>
     <use x="188.476562" xlink:href="#DejaVuSans-20"/>
     <use x="220.263672" xlink:href="#DejaVuSans-6f"/>
     <use x="281.445312" xlink:href="#DejaVuSans-66"/>
     <use x="316.650391" xlink:href="#DejaVuSans-20"/>
     <use x="348.4375" xlink:href="#DejaVuSans-54"/>
     <use x="409.302734" xlink:href="#DejaVuSans-72"/>
     <use x="450.416016" xlink:href="#DejaVuSans-61"/>
     <use x="511.695312" xlink:href="#DejaVuSans-69"/>
     <use x="539.478516" xlink:href="#DejaVuSans-6e"/>
     <use x="602.857422" xlink:href="#DejaVuSans-20"/>
     <use x="634.644531" xlink:href="#DejaVuSans-44"/>
     <use x="711.646484" xlink:href="#DejaVuSans-61"/>
     <use x="772.925781" xlink:href="#DejaVuSans-74"/>
     <use x="812.134766" xlink:href="#DejaVuSans-61"/>
     <use x="873.414062" xlink:href="#DejaVuSans-20"/>
     <use x="905.201172" xlink:href="#DejaVuSans-76"/>
     <use x="964.380859" xlink:href="#DejaVuSans-73"/>
     <use x="1016.480469" xlink:href="#DejaVuSans-20"/>
     <use x="1048.267578" xlink:href="#DejaVuSans-4d"/>
     <use x="1134.546875" xlink:href="#DejaVuSans-43"/>
     <use x="1204.371094" xlink:href="#DejaVuSans-4d"/>
     <use x="1290.650391" xlink:href="#DejaVuSans-43"/>
     <use x="1360.474609" xlink:href="#DejaVuSans-20"/>
     <use x="1392.261719" xlink:href="#DejaVuSans-55"/>
     <use x="1465.455078" xlink:href="#DejaVuSans-6e"/>
     <use x="1528.833984" xlink:href="#DejaVuSans-63"/>
     <use x="1583.814453" xlink:href="#DejaVuSans-65"/>
     <use x="1645.337891" xlink:href="#DejaVuSans-72"/>
     <use x="1686.451172" xlink:href="#DejaVuSans-74"/>
     <use x="1725.660156" xlink:href="#DejaVuSans-61"/>
     <use x="1786.939453" xlink:href="#DejaVuSans-69"/>
     <use x="1814.722656" xlink:href="#DejaVuSans-6e"/>
     <use x="1878.101562" xlink:href="#DejaVuSans-74"/>
     <use x="1917.310547" xlink:href="#DejaVuSans-79"/>
     <use x="1976.490234" xlink:href="#DejaVuSans-20"/>
    </g>
   </g>
   <g id="legend_1">
    <g id="patch_7">
     <path d="M 569.803438 170.3925 
L 699.68 170.3925 
Q 701.68 170.3925 701.68 168.3925 
L 701.68 110.68 
Q 701.68 108.68 699.68 108.68 
L 569.803438 108.68 
Q 567.803438 108.68 567.803438 110.68 
L 567.803438 168.3925 
Q 567.803438 170.3925 569.803438 170.3925 
z
" style="fill:#ffffff;opacity:0.8;stroke:#cccccc;stroke-linejoin:miter;"/>
    </g>
    <g id="line2d_17">
     <path d="M 571.803438 116.778437 
L 591.803438 116.778437 
" style="fill:none;stroke:#1f77b4;stroke-linecap:square;stroke-width:1.5;"/>
    </g>
    <g id="line2d_18"/>
    <g id="text_14">
     <!-- actual -->
     <defs>
      <path d="M 8.5 21.578125 
L 8.5 54.6875 
L 17.484375 54.6875 
L 17.484375 21.921875 
Q 17.484375 14.15625 20.5 10.265625 
Q 23.53125 6.390625 29.59375 6.390625 
Q 36.859375 6.390625 41.078125 11.03125 
Q 45.3125 15.671875 45.3125 23.6875 
L 45.3125 54.6875 
L 54.296875 54.6875 
L 54.296875 0 
L 45.3125 0 
L 45.3125 8.40625 
Q 42.046875 3.421875 37.71875 1 
Q 33.40625 -1.421875 27.6875 -1.421875 
Q 18.265625 -1.421875 13.375 4.4375 
Q 8.5 10.296875 8.5 21.578125 
z
M 31.109375 56 
z
" id="DejaVuSans-75"/>
     </defs>
     <g transform="translate(599.803438 120.278437)scale(0.1 -0.1)">
      <use xlink:href="#DejaVuSans-61"/>
      <use x="61.279297" xlink:href="#DejaVuSans-63"/>
      <use x="116.259766" xlink:href="#DejaVuSans-74"/>
      <use x="155.46875" xlink:href="#DejaVuSans-75"/>
      <use x="218.847656" xlink:href="#DejaVuSans-61"/>
      <use x="280.126953" xlink:href="#DejaVuSans-6c"/>
     </g>
    </g>
    <g id="line2d_19">
     <path d="M 571.803438 131.456562 
L 591.803438 131.456562 
" style="fill:none;stroke:#ff7f0e;stroke-linecap:square;stroke-width:1.5;"/>
    </g>
    <g id="line2d_20"/>
    <g id="text_15">
     <!-- pred. (mean) -->
     <defs>
      <path d="M 18.109375 8.203125 
L 18.109375 -20.796875 
L 9.078125 -20.796875 
L 9.078125 54.6875 
L 18.109375 54.6875 
L 18.109375 46.390625 
Q 20.953125 51.265625 25.265625 53.625 
Q 29.59375 56 35.59375 56 
Q 45.5625 56 51.78125 48.09375 
Q 58.015625 40.1875 58.015625 27.296875 
Q 58.015625 14.40625 51.78125 6.484375 
Q 45.5625 -1.421875 35.59375 -1.421875 
Q 29.59375 -1.421875 25.265625 0.953125 
Q 20.953125 3.328125 18.109375 8.203125 
z
M 48.6875 27.296875 
Q 48.6875 37.203125 44.609375 42.84375 
Q 40.53125 48.484375 33.40625 48.484375 
Q 26.265625 48.484375 22.1875 42.84375 
Q 18.109375 37.203125 18.109375 27.296875 
Q 18.109375 17.390625 22.1875 11.75 
Q 26.265625 6.109375 33.40625 6.109375 
Q 40.53125 6.109375 44.609375 11.75 
Q 48.6875 17.390625 48.6875 27.296875 
z
" id="DejaVuSans-70"/>
      <path d="M 45.40625 46.390625 
L 45.40625 75.984375 
L 54.390625 75.984375 
L 54.390625 0 
L 45.40625 0 
L 45.40625 8.203125 
Q 42.578125 3.328125 38.25 0.953125 
Q 33.9375 -1.421875 27.875 -1.421875 
Q 17.96875 -1.421875 11.734375 6.484375 
Q 5.515625 14.40625 5.515625 27.296875 
Q 5.515625 40.1875 11.734375 48.09375 
Q 17.96875 56 27.875 56 
Q 33.9375 56 38.25 53.625 
Q 42.578125 51.265625 45.40625 46.390625 
z
M 14.796875 27.296875 
Q 14.796875 17.390625 18.875 11.75 
Q 22.953125 6.109375 30.078125 6.109375 
Q 37.203125 6.109375 41.296875 11.75 
Q 45.40625 17.390625 45.40625 27.296875 
Q 45.40625 37.203125 41.296875 42.84375 
Q 37.203125 48.484375 30.078125 48.484375 
Q 22.953125 48.484375 18.875 42.84375 
Q 14.796875 37.203125 14.796875 27.296875 
z
" id="DejaVuSans-64"/>
      <path d="M 31 75.875 
Q 24.46875 64.65625 21.28125 53.65625 
Q 18.109375 42.671875 18.109375 31.390625 
Q 18.109375 20.125 21.3125 9.0625 
Q 24.515625 -2 31 -13.1875 
L 23.1875 -13.1875 
Q 15.875 -1.703125 12.234375 9.375 
Q 8.59375 20.453125 8.59375 31.390625 
Q 8.59375 42.28125 12.203125 53.3125 
Q 15.828125 64.359375 23.1875 75.875 
z
" id="DejaVuSans-28"/>
      <path d="M 52 44.1875 
Q 55.375 50.25 60.0625 53.125 
Q 64.75 56 71.09375 56 
Q 79.640625 56 84.28125 50.015625 
Q 88.921875 44.046875 88.921875 33.015625 
L 88.921875 0 
L 79.890625 0 
L 79.890625 32.71875 
Q 79.890625 40.578125 77.09375 44.375 
Q 74.3125 48.1875 68.609375 48.1875 
Q 61.625 48.1875 57.5625 43.546875 
Q 53.515625 38.921875 53.515625 30.90625 
L 53.515625 0 
L 44.484375 0 
L 44.484375 32.71875 
Q 44.484375 40.625 41.703125 44.40625 
Q 38.921875 48.1875 33.109375 48.1875 
Q 26.21875 48.1875 22.15625 43.53125 
Q 18.109375 38.875 18.109375 30.90625 
L 18.109375 0 
L 9.078125 0 
L 9.078125 54.6875 
L 18.109375 54.6875 
L 18.109375 46.1875 
Q 21.1875 51.21875 25.484375 53.609375 
Q 29.78125 56 35.6875 56 
Q 41.65625 56 45.828125 52.96875 
Q 50 49.953125 52 44.1875 
z
" id="DejaVuSans-6d"/>
      <path d="M 8.015625 75.875 
L 15.828125 75.875 
Q 23.140625 64.359375 26.78125 53.3125 
Q 30.421875 42.28125 30.421875 31.390625 
Q 30.421875 20.453125 26.78125 9.375 
Q 23.140625 -1.703125 15.828125 -13.1875 
L 8.015625 -13.1875 
Q 14.5 -2 17.703125 9.0625 
Q 20.90625 20.125 20.90625 31.390625 
Q 20.90625 42.671875 17.703125 53.65625 
Q 14.5 64.65625 8.015625 75.875 
z
" id="DejaVuSans-29"/>
     </defs>
     <g transform="translate(599.803438 134.956562)scale(0.1 -0.1)">
      <use xlink:href="#DejaVuSans-70"/>
      <use x="63.476562" xlink:href="#DejaVuSans-72"/>
      <use x="104.558594" xlink:href="#DejaVuSans-65"/>
      <use x="166.082031" xlink:href="#DejaVuSans-64"/>
      <use x="229.558594" xlink:href="#DejaVuSans-2e"/>
      <use x="261.345703" xlink:href="#DejaVuSans-20"/>
      <use x="293.132812" xlink:href="#DejaVuSans-28"/>
      <use x="332.146484" xlink:href="#DejaVuSans-6d"/>
      <use x="429.558594" xlink:href="#DejaVuSans-65"/>
      <use x="491.082031" xlink:href="#DejaVuSans-61"/>
      <use x="552.361328" xlink:href="#DejaVuSans-6e"/>
      <use x="615.740234" xlink:href="#DejaVuSans-29"/>
     </g>
    </g>
    <g id="line2d_21">
     <path d="M 571.803438 146.134687 
L 591.803438 146.134687 
" style="fill:none;stroke:#2ca02c;stroke-linecap:square;stroke-width:1.5;"/>
    </g>
    <g id="line2d_22"/>
    <g id="text_16">
     <!-- pred.(5th percen.) -->
     <defs>
      <path d="M 10.796875 72.90625 
L 49.515625 72.90625 
L 49.515625 64.59375 
L 19.828125 64.59375 
L 19.828125 46.734375 
Q 21.96875 47.46875 24.109375 47.828125 
Q 26.265625 48.1875 28.421875 48.1875 
Q 40.625 48.1875 47.75 41.5 
Q 54.890625 34.8125 54.890625 23.390625 
Q 54.890625 11.625 47.5625 5.09375 
Q 40.234375 -1.421875 26.90625 -1.421875 
Q 22.3125 -1.421875 17.546875 -0.640625 
Q 12.796875 0.140625 7.71875 1.703125 
L 7.71875 11.625 
Q 12.109375 9.234375 16.796875 8.0625 
Q 21.484375 6.890625 26.703125 6.890625 
Q 35.15625 6.890625 40.078125 11.328125 
Q 45.015625 15.765625 45.015625 23.390625 
Q 45.015625 31 40.078125 35.4375 
Q 35.15625 39.890625 26.703125 39.890625 
Q 22.75 39.890625 18.8125 39.015625 
Q 14.890625 38.140625 10.796875 36.28125 
z
" id="DejaVuSans-35"/>
      <path d="M 54.890625 33.015625 
L 54.890625 0 
L 45.90625 0 
L 45.90625 32.71875 
Q 45.90625 40.484375 42.875 44.328125 
Q 39.84375 48.1875 33.796875 48.1875 
Q 26.515625 48.1875 22.3125 43.546875 
Q 18.109375 38.921875 18.109375 30.90625 
L 18.109375 0 
L 9.078125 0 
L 9.078125 75.984375 
L 18.109375 75.984375 
L 18.109375 46.1875 
Q 21.34375 51.125 25.703125 53.5625 
Q 30.078125 56 35.796875 56 
Q 45.21875 56 50.046875 50.171875 
Q 54.890625 44.34375 54.890625 33.015625 
z
" id="DejaVuSans-68"/>
     </defs>
     <g transform="translate(599.803438 149.634687)scale(0.1 -0.1)">
      <use xlink:href="#DejaVuSans-70"/>
      <use x="63.476562" xlink:href="#DejaVuSans-72"/>
      <use x="104.558594" xlink:href="#DejaVuSans-65"/>
      <use x="166.082031" xlink:href="#DejaVuSans-64"/>
      <use x="229.558594" xlink:href="#DejaVuSans-2e"/>
      <use x="261.345703" xlink:href="#DejaVuSans-28"/>
      <use x="300.359375" xlink:href="#DejaVuSans-35"/>
      <use x="363.982422" xlink:href="#DejaVuSans-74"/>
      <use x="403.191406" xlink:href="#DejaVuSans-68"/>
      <use x="466.570312" xlink:href="#DejaVuSans-20"/>
      <use x="498.357422" xlink:href="#DejaVuSans-70"/>
      <use x="561.833984" xlink:href="#DejaVuSans-65"/>
      <use x="623.357422" xlink:href="#DejaVuSans-72"/>
      <use x="664.439453" xlink:href="#DejaVuSans-63"/>
      <use x="719.419922" xlink:href="#DejaVuSans-65"/>
      <use x="780.943359" xlink:href="#DejaVuSans-6e"/>
      <use x="844.322266" xlink:href="#DejaVuSans-2e"/>
      <use x="876.109375" xlink:href="#DejaVuSans-29"/>
     </g>
    </g>
    <g id="line2d_23">
     <path d="M 571.803438 160.812812 
L 591.803438 160.812812 
" style="fill:none;stroke:#d62728;stroke-linecap:square;stroke-width:1.5;"/>
    </g>
    <g id="line2d_24"/>
    <g id="text_17">
     <!-- pred.(95th percen.) -->
     <defs>
      <path d="M 10.984375 1.515625 
L 10.984375 10.5 
Q 14.703125 8.734375 18.5 7.8125 
Q 22.3125 6.890625 25.984375 6.890625 
Q 35.75 6.890625 40.890625 13.453125 
Q 46.046875 20.015625 46.78125 33.40625 
Q 43.953125 29.203125 39.59375 26.953125 
Q 35.25 24.703125 29.984375 24.703125 
Q 19.046875 24.703125 12.671875 31.3125 
Q 6.296875 37.9375 6.296875 49.421875 
Q 6.296875 60.640625 12.9375 67.421875 
Q 19.578125 74.21875 30.609375 74.21875 
Q 43.265625 74.21875 49.921875 64.515625 
Q 56.59375 54.828125 56.59375 36.375 
Q 56.59375 19.140625 48.40625 8.859375 
Q 40.234375 -1.421875 26.421875 -1.421875 
Q 22.703125 -1.421875 18.890625 -0.6875 
Q 15.09375 0.046875 10.984375 1.515625 
z
M 30.609375 32.421875 
Q 37.25 32.421875 41.125 36.953125 
Q 45.015625 41.5 45.015625 49.421875 
Q 45.015625 57.28125 41.125 61.84375 
Q 37.25 66.40625 30.609375 66.40625 
Q 23.96875 66.40625 20.09375 61.84375 
Q 16.21875 57.28125 16.21875 49.421875 
Q 16.21875 41.5 20.09375 36.953125 
Q 23.96875 32.421875 30.609375 32.421875 
z
" id="DejaVuSans-39"/>
     </defs>
     <g transform="translate(599.803438 164.312812)scale(0.1 -0.1)">
      <use xlink:href="#DejaVuSans-70"/>
      <use x="63.476562" xlink:href="#DejaVuSans-72"/>
      <use x="104.558594" xlink:href="#DejaVuSans-65"/>
      <use x="166.082031" xlink:href="#DejaVuSans-64"/>
      <use x="229.558594" xlink:href="#DejaVuSans-2e"/>
      <use x="261.345703" xlink:href="#DejaVuSans-28"/>
      <use x="300.359375" xlink:href="#DejaVuSans-39"/>
      <use x="363.982422" xlink:href="#DejaVuSans-35"/>
      <use x="427.605469" xlink:href="#DejaVuSans-74"/>
      <use x="466.814453" xlink:href="#DejaVuSans-68"/>
      <use x="530.193359" xlink:href="#DejaVuSans-20"/>
      <use x="561.980469" xlink:href="#DejaVuSans-70"/>
      <use x="625.457031" xlink:href="#DejaVuSans-65"/>
      <use x="686.980469" xlink:href="#DejaVuSans-72"/>
      <use x="728.0625" xlink:href="#DejaVuSans-63"/>
      <use x="783.042969" xlink:href="#DejaVuSans-65"/>
      <use x="844.566406" xlink:href="#DejaVuSans-6e"/>
      <use x="907.945312" xlink:href="#DejaVuSans-2e"/>
      <use x="939.732422" xlink:href="#DejaVuSans-29"/>
     </g>
    </g>
   </g>
  </g>
 </g>
 <defs>
  <clipPath id="ped8fa64d1a">
   <rect height="516.12" width="650.59" x="56.09" y="103.68"/>
  </clipPath>
 </defs>
</svg>
