<?xml version="1.0" encoding="utf-8" standalone="no"?>
<!DOCTYPE svg PUBLIC "-//W3C//DTD SVG 1.1//EN"
  "http://www.w3.org/Graphics/SVG/1.1/DTD/svg11.dtd">
<!-- Created with matplotlib (http://matplotlib.org/) -->
<svg height="864pt" version="1.1" viewBox="0 0 720 864" width="720pt" xmlns="http://www.w3.org/2000/svg" xmlns:xlink="http://www.w3.org/1999/xlink">
 <defs>
  <style type="text/css">
*{stroke-linecap:butt;stroke-linejoin:round;}
  </style>
 </defs>
 <g id="figure_1">
  <g id="patch_1">
   <path d="M 0 864 
L 720 864 
L 720 0 
L 0 0 
z
" style="fill:#ffffff;"/>
  </g>
  <g id="axes_1">
   <g id="patch_2">
    <path d="M 86.31 804.96 
L 698.76 804.96 
L 698.76 103.68 
L 86.31 103.68 
z
" style="fill:#ffffff;"/>
   </g>
   <g id="PolyCollection_1">
    <path clip-path="url(#p32055e39d1)" d="M 114.148636 258.977006 
L 114.148636 310.402274 
L 116.974894 269.26206 
L 119.801151 279.547113 
L 122.627409 300.117221 
L 125.453666 320.687328 
L 128.279924 382.397649 
L 131.106181 413.25281 
L 133.932439 433.822917 
L 136.758696 423.537863 
L 139.584954 413.25281 
L 142.411211 423.537863 
L 145.237469 444.10797 
L 148.063726 485.248185 
L 150.889984 495.533238 
L 153.716241 557.243559 
L 156.542499 588.09872 
L 159.368756 608.668827 
L 162.195014 629.238934 
L 165.021271 649.809041 
L 167.847529 680.664202 
L 170.673786 690.949256 
L 173.500044 690.949256 
L 176.326301 701.234309 
L 179.152559 690.949256 
L 181.978816 690.949256 
L 184.805074 690.949256 
L 187.631331 701.234309 
L 190.457589 711.519363 
L 193.283846 721.804416 
L 196.110104 721.804416 
L 198.936361 721.804416 
L 201.762619 721.804416 
L 204.588876 732.08947 
L 207.415134 721.804416 
L 210.241391 721.804416 
L 213.067649 721.804416 
L 215.893906 721.804416 
L 218.720164 721.804416 
L 221.546421 732.08947 
L 224.372679 732.08947 
L 227.198936 721.804416 
L 230.025194 721.804416 
L 232.851451 711.519363 
L 235.677709 701.234309 
L 238.503966 670.379149 
L 241.330224 629.238934 
L 244.156481 598.383774 
L 246.982739 567.528613 
L 249.808996 526.388399 
L 252.635254 464.678077 
L 255.461511 413.25281 
L 258.287769 361.827542 
L 261.114026 320.687328 
L 263.940284 289.832167 
L 266.766541 269.26206 
L 269.592799 248.691953 
L 272.419056 238.406899 
L 275.245314 217.836792 
L 278.071571 197.266685 
L 280.897829 186.981631 
L 283.724086 176.696578 
L 286.550344 186.981631 
L 289.376601 166.411524 
L 292.202859 207.551739 
L 295.029116 238.406899 
L 297.855374 258.977006 
L 300.681631 279.547113 
L 303.507889 269.26206 
L 306.334146 330.972381 
L 309.160404 361.827542 
L 311.986661 351.542488 
L 314.812919 361.827542 
L 317.639176 382.397649 
L 320.465434 413.25281 
L 323.291691 454.393024 
L 326.117949 474.963131 
L 328.944206 505.818292 
L 331.770464 516.103345 
L 334.596721 536.673452 
L 337.422979 557.243559 
L 340.249236 577.813667 
L 343.075494 588.09872 
L 345.901751 608.668827 
L 348.728009 618.953881 
L 351.554266 618.953881 
L 354.380524 618.953881 
L 357.206781 618.953881 
L 360.033039 618.953881 
L 362.859296 618.953881 
L 365.685554 618.953881 
L 368.511811 639.523988 
L 371.338069 649.809041 
L 374.164326 649.809041 
L 376.990584 660.094095 
L 379.816841 680.664202 
L 382.643099 701.234309 
L 385.469356 701.234309 
L 388.295614 701.234309 
L 391.121871 701.234309 
L 393.948129 701.234309 
L 396.774386 701.234309 
L 399.600644 711.519363 
L 402.426901 711.519363 
L 405.253159 721.804416 
L 408.079416 732.08947 
L 410.905674 732.08947 
L 413.731931 732.08947 
L 416.558189 732.08947 
L 419.384446 732.08947 
L 422.210704 732.08947 
L 425.036961 732.08947 
L 427.863219 732.08947 
L 430.689476 732.08947 
L 433.515734 732.08947 
L 436.341991 721.804416 
L 439.168249 711.519363 
L 441.994506 701.234309 
L 444.820764 680.664202 
L 447.647021 670.379149 
L 450.473279 639.523988 
L 453.299536 608.668827 
L 456.125794 598.383774 
L 458.952051 577.813667 
L 461.778309 546.958506 
L 464.604566 526.388399 
L 467.430824 526.388399 
L 470.257081 495.533238 
L 473.083339 464.678077 
L 475.909596 454.393024 
L 478.735854 433.822917 
L 481.562111 402.967756 
L 484.388369 361.827542 
L 487.214626 392.682703 
L 490.040884 382.397649 
L 492.867141 361.827542 
L 495.693399 351.542488 
L 498.519656 413.25281 
L 501.345914 433.822917 
L 504.172171 392.682703 
L 506.998429 361.827542 
L 509.824686 402.967756 
L 512.650944 423.537863 
L 515.477201 382.397649 
L 518.303459 372.112595 
L 521.129716 454.393024 
L 523.955974 464.678077 
L 526.782231 464.678077 
L 529.608489 444.10797 
L 532.434746 454.393024 
L 535.261004 474.963131 
L 538.087261 454.393024 
L 540.913519 444.10797 
L 543.739776 464.678077 
L 546.566034 516.103345 
L 549.392291 526.388399 
L 552.218549 516.103345 
L 555.044806 546.958506 
L 557.871064 577.813667 
L 560.697321 588.09872 
L 563.523579 598.383774 
L 566.349836 629.238934 
L 569.176094 660.094095 
L 572.002351 680.664202 
L 574.828609 690.949256 
L 577.654866 690.949256 
L 580.481124 701.234309 
L 583.307381 721.804416 
L 586.133639 721.804416 
L 588.959896 732.08947 
L 591.786154 732.08947 
L 594.612411 732.08947 
L 597.438669 732.08947 
L 600.264926 732.08947 
L 603.091184 732.08947 
L 605.917441 732.08947 
L 608.743699 732.08947 
L 611.569956 732.08947 
L 614.396214 742.374523 
L 617.222471 742.374523 
L 620.048729 742.374523 
L 622.874986 742.374523 
L 625.701244 742.374523 
L 628.527501 732.08947 
L 631.353759 732.08947 
L 634.180016 721.804416 
L 637.006274 711.519363 
L 639.832531 690.949256 
L 642.658789 660.094095 
L 645.485046 618.953881 
L 648.311304 567.528613 
L 651.137561 526.388399 
L 653.963819 485.248185 
L 656.790076 464.678077 
L 659.616334 433.822917 
L 662.442591 402.967756 
L 665.268849 423.537863 
L 668.095106 433.822917 
L 670.921364 413.25281 
L 670.921364 372.112595 
L 670.921364 372.112595 
L 668.095106 413.25281 
L 665.268849 392.682703 
L 662.442591 361.827542 
L 659.616334 382.397649 
L 656.790076 423.537863 
L 653.963819 433.822917 
L 651.137561 454.393024 
L 648.311304 505.818292 
L 645.485046 588.09872 
L 642.658789 629.238934 
L 639.832531 649.809041 
L 637.006274 660.094095 
L 634.180016 660.094095 
L 631.353759 670.379149 
L 628.527501 670.379149 
L 625.701244 670.379149 
L 622.874986 680.664202 
L 620.048729 680.664202 
L 617.222471 670.379149 
L 614.396214 670.379149 
L 611.569956 670.379149 
L 608.743699 670.379149 
L 605.917441 670.379149 
L 603.091184 670.379149 
L 600.264926 670.379149 
L 597.438669 670.379149 
L 594.612411 670.379149 
L 591.786154 670.379149 
L 588.959896 670.379149 
L 586.133639 660.094095 
L 583.307381 660.094095 
L 580.481124 649.809041 
L 577.654866 639.523988 
L 574.828609 639.523988 
L 572.002351 629.238934 
L 569.176094 608.668827 
L 566.349836 588.09872 
L 563.523579 567.528613 
L 560.697321 557.243559 
L 557.871064 536.673452 
L 555.044806 505.818292 
L 552.218549 474.963131 
L 549.392291 495.533238 
L 546.566034 474.963131 
L 543.739776 433.822917 
L 540.913519 413.25281 
L 538.087261 413.25281 
L 535.261004 444.10797 
L 532.434746 423.537863 
L 529.608489 413.25281 
L 526.782231 433.822917 
L 523.955974 433.822917 
L 521.129716 392.682703 
L 518.303459 341.257435 
L 515.477201 330.972381 
L 512.650944 392.682703 
L 509.824686 361.827542 
L 506.998429 341.257435 
L 504.172171 330.972381 
L 501.345914 392.682703 
L 498.519656 361.827542 
L 495.693399 320.687328 
L 492.867141 330.972381 
L 490.040884 361.827542 
L 487.214626 351.542488 
L 484.388369 310.402274 
L 481.562111 351.542488 
L 478.735854 402.967756 
L 475.909596 413.25281 
L 473.083339 413.25281 
L 470.257081 433.822917 
L 467.430824 485.248185 
L 464.604566 485.248185 
L 461.778309 505.818292 
L 458.952051 536.673452 
L 456.125794 567.528613 
L 453.299536 588.09872 
L 450.473279 608.668827 
L 447.647021 629.238934 
L 444.820764 639.523988 
L 441.994506 649.809041 
L 439.168249 660.094095 
L 436.341991 670.379149 
L 433.515734 670.379149 
L 430.689476 670.379149 
L 427.863219 670.379149 
L 425.036961 670.379149 
L 422.210704 670.379149 
L 419.384446 670.379149 
L 416.558189 670.379149 
L 413.731931 670.379149 
L 410.905674 670.379149 
L 408.079416 670.379149 
L 405.253159 660.094095 
L 402.426901 660.094095 
L 399.600644 649.809041 
L 396.774386 649.809041 
L 393.948129 649.809041 
L 391.121871 649.809041 
L 388.295614 649.809041 
L 385.469356 649.809041 
L 382.643099 639.523988 
L 379.816841 629.238934 
L 376.990584 618.953881 
L 374.164326 608.668827 
L 371.338069 608.668827 
L 368.511811 598.383774 
L 365.685554 588.09872 
L 362.859296 588.09872 
L 360.033039 588.09872 
L 357.206781 588.09872 
L 354.380524 588.09872 
L 351.554266 588.09872 
L 348.728009 588.09872 
L 345.901751 567.528613 
L 343.075494 557.243559 
L 340.249236 536.673452 
L 337.422979 516.103345 
L 334.596721 495.533238 
L 331.770464 485.248185 
L 328.944206 464.678077 
L 326.117949 444.10797 
L 323.291691 413.25281 
L 320.465434 382.397649 
L 317.639176 351.542488 
L 314.812919 341.257435 
L 311.986661 330.972381 
L 309.160404 310.402274 
L 306.334146 269.26206 
L 303.507889 238.406899 
L 300.681631 228.121846 
L 297.855374 197.266685 
L 295.029116 176.696578 
L 292.202859 156.126471 
L 289.376601 135.556364 
L 286.550344 145.841417 
L 283.724086 145.841417 
L 280.897829 156.126471 
L 278.071571 166.411524 
L 275.245314 186.981631 
L 272.419056 207.551739 
L 269.592799 228.121846 
L 266.766541 238.406899 
L 263.940284 248.691953 
L 261.114026 279.547113 
L 258.287769 310.402274 
L 255.461511 351.542488 
L 252.635254 392.682703 
L 249.808996 444.10797 
L 246.982739 516.103345 
L 244.156481 557.243559 
L 241.330224 608.668827 
L 238.503966 639.523988 
L 235.677709 649.809041 
L 232.851451 660.094095 
L 230.025194 660.094095 
L 227.198936 670.379149 
L 224.372679 670.379149 
L 221.546421 670.379149 
L 218.720164 660.094095 
L 215.893906 660.094095 
L 213.067649 660.094095 
L 210.241391 660.094095 
L 207.415134 660.094095 
L 204.588876 670.379149 
L 201.762619 660.094095 
L 198.936361 660.094095 
L 196.110104 660.094095 
L 193.283846 660.094095 
L 190.457589 649.809041 
L 187.631331 649.809041 
L 184.805074 639.523988 
L 181.978816 639.523988 
L 179.152559 649.809041 
L 176.326301 649.809041 
L 173.500044 639.523988 
L 170.673786 639.523988 
L 167.847529 618.953881 
L 165.021271 598.383774 
L 162.195014 588.09872 
L 159.368756 567.528613 
L 156.542499 536.673452 
L 153.716241 495.533238 
L 150.889984 464.678077 
L 148.063726 444.10797 
L 145.237469 423.537863 
L 142.411211 402.967756 
L 139.584954 382.397649 
L 136.758696 382.397649 
L 133.932439 402.967756 
L 131.106181 361.827542 
L 128.279924 320.687328 
L 125.453666 279.547113 
L 122.627409 258.977006 
L 119.801151 248.691953 
L 116.974894 228.121846 
L 114.148636 258.977006 
z
" style="fill:#008000;fill-opacity:0.4;"/>
   </g>
   <g id="matplotlib.axis_1">
    <g id="xtick_1">
     <g id="line2d_1">
      <defs>
       <path d="M 0 0 
L 0 3.5 
" id="mfed69341d9" style="stroke:#000000;stroke-width:0.8;"/>
      </defs>
      <g>
       <use style="stroke:#000000;stroke-width:0.8;" x="114.148636" xlink:href="#mfed69341d9" y="804.96"/>
      </g>
     </g>
     <g id="text_1">
      <!-- 0.0 -->
      <defs>
       <path d="M 31.78125 66.40625 
Q 24.171875 66.40625 20.328125 58.90625 
Q 16.5 51.421875 16.5 36.375 
Q 16.5 21.390625 20.328125 13.890625 
Q 24.171875 6.390625 31.78125 6.390625 
Q 39.453125 6.390625 43.28125 13.890625 
Q 47.125 21.390625 47.125 36.375 
Q 47.125 51.421875 43.28125 58.90625 
Q 39.453125 66.40625 31.78125 66.40625 
z
M 31.78125 74.21875 
Q 44.046875 74.21875 50.515625 64.515625 
Q 56.984375 54.828125 56.984375 36.375 
Q 56.984375 17.96875 50.515625 8.265625 
Q 44.046875 -1.421875 31.78125 -1.421875 
Q 19.53125 -1.421875 13.0625 8.265625 
Q 6.59375 17.96875 6.59375 36.375 
Q 6.59375 54.828125 13.0625 64.515625 
Q 19.53125 74.21875 31.78125 74.21875 
z
" id="DejaVuSans-30"/>
       <path d="M 10.6875 12.40625 
L 21 12.40625 
L 21 0 
L 10.6875 0 
z
" id="DejaVuSans-2e"/>
      </defs>
      <g transform="translate(106.197074 819.558437)scale(0.1 -0.1)">
       <use xlink:href="#DejaVuSans-30"/>
       <use x="63.623047" xlink:href="#DejaVuSans-2e"/>
       <use x="95.410156" xlink:href="#DejaVuSans-30"/>
      </g>
     </g>
    </g>
    <g id="xtick_2">
     <g id="line2d_2">
      <g>
       <use style="stroke:#000000;stroke-width:0.8;" x="225.503182" xlink:href="#mfed69341d9" y="804.96"/>
      </g>
     </g>
     <g id="text_2">
      <!-- 0.2 -->
      <defs>
       <path d="M 19.1875 8.296875 
L 53.609375 8.296875 
L 53.609375 0 
L 7.328125 0 
L 7.328125 8.296875 
Q 12.9375 14.109375 22.625 23.890625 
Q 32.328125 33.6875 34.8125 36.53125 
Q 39.546875 41.84375 41.421875 45.53125 
Q 43.3125 49.21875 43.3125 52.78125 
Q 43.3125 58.59375 39.234375 62.25 
Q 35.15625 65.921875 28.609375 65.921875 
Q 23.96875 65.921875 18.8125 64.3125 
Q 13.671875 62.703125 7.8125 59.421875 
L 7.8125 69.390625 
Q 13.765625 71.78125 18.9375 73 
Q 24.125 74.21875 28.421875 74.21875 
Q 39.75 74.21875 46.484375 68.546875 
Q 53.21875 62.890625 53.21875 53.421875 
Q 53.21875 48.921875 51.53125 44.890625 
Q 49.859375 40.875 45.40625 35.40625 
Q 44.1875 33.984375 37.640625 27.21875 
Q 31.109375 20.453125 19.1875 8.296875 
z
" id="DejaVuSans-32"/>
      </defs>
      <g transform="translate(217.551619 819.558437)scale(0.1 -0.1)">
       <use xlink:href="#DejaVuSans-30"/>
       <use x="63.623047" xlink:href="#DejaVuSans-2e"/>
       <use x="95.410156" xlink:href="#DejaVuSans-32"/>
      </g>
     </g>
    </g>
    <g id="xtick_3">
     <g id="line2d_3">
      <g>
       <use style="stroke:#000000;stroke-width:0.8;" x="336.857727" xlink:href="#mfed69341d9" y="804.96"/>
      </g>
     </g>
     <g id="text_3">
      <!-- 0.4 -->
      <defs>
       <path d="M 37.796875 64.3125 
L 12.890625 25.390625 
L 37.796875 25.390625 
z
M 35.203125 72.90625 
L 47.609375 72.90625 
L 47.609375 25.390625 
L 58.015625 25.390625 
L 58.015625 17.1875 
L 47.609375 17.1875 
L 47.609375 0 
L 37.796875 0 
L 37.796875 17.1875 
L 4.890625 17.1875 
L 4.890625 26.703125 
z
" id="DejaVuSans-34"/>
      </defs>
      <g transform="translate(328.906165 819.558437)scale(0.1 -0.1)">
       <use xlink:href="#DejaVuSans-30"/>
       <use x="63.623047" xlink:href="#DejaVuSans-2e"/>
       <use x="95.410156" xlink:href="#DejaVuSans-34"/>
      </g>
     </g>
    </g>
    <g id="xtick_4">
     <g id="line2d_4">
      <g>
       <use style="stroke:#000000;stroke-width:0.8;" x="448.212273" xlink:href="#mfed69341d9" y="804.96"/>
      </g>
     </g>
     <g id="text_4">
      <!-- 0.6 -->
      <defs>
       <path d="M 33.015625 40.375 
Q 26.375 40.375 22.484375 35.828125 
Q 18.609375 31.296875 18.609375 23.390625 
Q 18.609375 15.53125 22.484375 10.953125 
Q 26.375 6.390625 33.015625 6.390625 
Q 39.65625 6.390625 43.53125 10.953125 
Q 47.40625 15.53125 47.40625 23.390625 
Q 47.40625 31.296875 43.53125 35.828125 
Q 39.65625 40.375 33.015625 40.375 
z
M 52.59375 71.296875 
L 52.59375 62.3125 
Q 48.875 64.0625 45.09375 64.984375 
Q 41.3125 65.921875 37.59375 65.921875 
Q 27.828125 65.921875 22.671875 59.328125 
Q 17.53125 52.734375 16.796875 39.40625 
Q 19.671875 43.65625 24.015625 45.921875 
Q 28.375 48.1875 33.59375 48.1875 
Q 44.578125 48.1875 50.953125 41.515625 
Q 57.328125 34.859375 57.328125 23.390625 
Q 57.328125 12.15625 50.6875 5.359375 
Q 44.046875 -1.421875 33.015625 -1.421875 
Q 20.359375 -1.421875 13.671875 8.265625 
Q 6.984375 17.96875 6.984375 36.375 
Q 6.984375 53.65625 15.1875 63.9375 
Q 23.390625 74.21875 37.203125 74.21875 
Q 40.921875 74.21875 44.703125 73.484375 
Q 48.484375 72.75 52.59375 71.296875 
z
" id="DejaVuSans-36"/>
      </defs>
      <g transform="translate(440.26071 819.558437)scale(0.1 -0.1)">
       <use xlink:href="#DejaVuSans-30"/>
       <use x="63.623047" xlink:href="#DejaVuSans-2e"/>
       <use x="95.410156" xlink:href="#DejaVuSans-36"/>
      </g>
     </g>
    </g>
    <g id="xtick_5">
     <g id="line2d_5">
      <g>
       <use style="stroke:#000000;stroke-width:0.8;" x="559.566818" xlink:href="#mfed69341d9" y="804.96"/>
      </g>
     </g>
     <g id="text_5">
      <!-- 0.8 -->
      <defs>
       <path d="M 31.78125 34.625 
Q 24.75 34.625 20.71875 30.859375 
Q 16.703125 27.09375 16.703125 20.515625 
Q 16.703125 13.921875 20.71875 10.15625 
Q 24.75 6.390625 31.78125 6.390625 
Q 38.8125 6.390625 42.859375 10.171875 
Q 46.921875 13.96875 46.921875 20.515625 
Q 46.921875 27.09375 42.890625 30.859375 
Q 38.875 34.625 31.78125 34.625 
z
M 21.921875 38.8125 
Q 15.578125 40.375 12.03125 44.71875 
Q 8.5 49.078125 8.5 55.328125 
Q 8.5 64.0625 14.71875 69.140625 
Q 20.953125 74.21875 31.78125 74.21875 
Q 42.671875 74.21875 48.875 69.140625 
Q 55.078125 64.0625 55.078125 55.328125 
Q 55.078125 49.078125 51.53125 44.71875 
Q 48 40.375 41.703125 38.8125 
Q 48.828125 37.15625 52.796875 32.3125 
Q 56.78125 27.484375 56.78125 20.515625 
Q 56.78125 9.90625 50.3125 4.234375 
Q 43.84375 -1.421875 31.78125 -1.421875 
Q 19.734375 -1.421875 13.25 4.234375 
Q 6.78125 9.90625 6.78125 20.515625 
Q 6.78125 27.484375 10.78125 32.3125 
Q 14.796875 37.15625 21.921875 38.8125 
z
M 18.3125 54.390625 
Q 18.3125 48.734375 21.84375 45.5625 
Q 25.390625 42.390625 31.78125 42.390625 
Q 38.140625 42.390625 41.71875 45.5625 
Q 45.3125 48.734375 45.3125 54.390625 
Q 45.3125 60.0625 41.71875 63.234375 
Q 38.140625 66.40625 31.78125 66.40625 
Q 25.390625 66.40625 21.84375 63.234375 
Q 18.3125 60.0625 18.3125 54.390625 
z
" id="DejaVuSans-38"/>
      </defs>
      <g transform="translate(551.615256 819.558437)scale(0.1 -0.1)">
       <use xlink:href="#DejaVuSans-30"/>
       <use x="63.623047" xlink:href="#DejaVuSans-2e"/>
       <use x="95.410156" xlink:href="#DejaVuSans-38"/>
      </g>
     </g>
    </g>
    <g id="xtick_6">
     <g id="line2d_6">
      <g>
       <use style="stroke:#000000;stroke-width:0.8;" x="670.921364" xlink:href="#mfed69341d9" y="804.96"/>
      </g>
     </g>
     <g id="text_6">
      <!-- 1.0 -->
      <defs>
       <path d="M 12.40625 8.296875 
L 28.515625 8.296875 
L 28.515625 63.921875 
L 10.984375 60.40625 
L 10.984375 69.390625 
L 28.421875 72.90625 
L 38.28125 72.90625 
L 38.28125 8.296875 
L 54.390625 8.296875 
L 54.390625 0 
L 12.40625 0 
z
" id="DejaVuSans-31"/>
      </defs>
      <g transform="translate(662.969801 819.558437)scale(0.1 -0.1)">
       <use xlink:href="#DejaVuSans-31"/>
       <use x="63.623047" xlink:href="#DejaVuSans-2e"/>
       <use x="95.410156" xlink:href="#DejaVuSans-30"/>
      </g>
     </g>
    </g>
   </g>
   <g id="matplotlib.axis_2">
    <g id="ytick_1">
     <g id="line2d_7">
      <defs>
       <path d="M 0 0 
L -3.5 0 
" id="mdf031bab1e" style="stroke:#000000;stroke-width:0.8;"/>
      </defs>
      <g>
       <use style="stroke:#000000;stroke-width:0.8;" x="86.31" xlink:href="#mdf031bab1e" y="783.514738"/>
      </g>
     </g>
     <g id="text_7">
      <!-- 0.0 -->
      <g transform="translate(63.406875 787.313956)scale(0.1 -0.1)">
       <use xlink:href="#DejaVuSans-30"/>
       <use x="63.623047" xlink:href="#DejaVuSans-2e"/>
       <use x="95.410156" xlink:href="#DejaVuSans-30"/>
      </g>
     </g>
    </g>
    <g id="ytick_2">
     <g id="line2d_8">
      <g>
       <use style="stroke:#000000;stroke-width:0.8;" x="86.31" xlink:href="#mdf031bab1e" y="680.664202"/>
      </g>
     </g>
     <g id="text_8">
      <!-- 0.1 -->
      <g transform="translate(63.406875 684.463421)scale(0.1 -0.1)">
       <use xlink:href="#DejaVuSans-30"/>
       <use x="63.623047" xlink:href="#DejaVuSans-2e"/>
       <use x="95.410156" xlink:href="#DejaVuSans-31"/>
      </g>
     </g>
    </g>
    <g id="ytick_3">
     <g id="line2d_9">
      <g>
       <use style="stroke:#000000;stroke-width:0.8;" x="86.31" xlink:href="#mdf031bab1e" y="577.813667"/>
      </g>
     </g>
     <g id="text_9">
      <!-- 0.2 -->
      <g transform="translate(63.406875 581.612885)scale(0.1 -0.1)">
       <use xlink:href="#DejaVuSans-30"/>
       <use x="63.623047" xlink:href="#DejaVuSans-2e"/>
       <use x="95.410156" xlink:href="#DejaVuSans-32"/>
      </g>
     </g>
    </g>
    <g id="ytick_4">
     <g id="line2d_10">
      <g>
       <use style="stroke:#000000;stroke-width:0.8;" x="86.31" xlink:href="#mdf031bab1e" y="474.963131"/>
      </g>
     </g>
     <g id="text_10">
      <!-- 0.3 -->
      <defs>
       <path d="M 40.578125 39.3125 
Q 47.65625 37.796875 51.625 33 
Q 55.609375 28.21875 55.609375 21.1875 
Q 55.609375 10.40625 48.1875 4.484375 
Q 40.765625 -1.421875 27.09375 -1.421875 
Q 22.515625 -1.421875 17.65625 -0.515625 
Q 12.796875 0.390625 7.625 2.203125 
L 7.625 11.71875 
Q 11.71875 9.328125 16.59375 8.109375 
Q 21.484375 6.890625 26.8125 6.890625 
Q 36.078125 6.890625 40.9375 10.546875 
Q 45.796875 14.203125 45.796875 21.1875 
Q 45.796875 27.640625 41.28125 31.265625 
Q 36.765625 34.90625 28.71875 34.90625 
L 20.21875 34.90625 
L 20.21875 43.015625 
L 29.109375 43.015625 
Q 36.375 43.015625 40.234375 45.921875 
Q 44.09375 48.828125 44.09375 54.296875 
Q 44.09375 59.90625 40.109375 62.90625 
Q 36.140625 65.921875 28.71875 65.921875 
Q 24.65625 65.921875 20.015625 65.03125 
Q 15.375 64.15625 9.8125 62.3125 
L 9.8125 71.09375 
Q 15.4375 72.65625 20.34375 73.4375 
Q 25.25 74.21875 29.59375 74.21875 
Q 40.828125 74.21875 47.359375 69.109375 
Q 53.90625 64.015625 53.90625 55.328125 
Q 53.90625 49.265625 50.4375 45.09375 
Q 46.96875 40.921875 40.578125 39.3125 
z
" id="DejaVuSans-33"/>
      </defs>
      <g transform="translate(63.406875 478.76235)scale(0.1 -0.1)">
       <use xlink:href="#DejaVuSans-30"/>
       <use x="63.623047" xlink:href="#DejaVuSans-2e"/>
       <use x="95.410156" xlink:href="#DejaVuSans-33"/>
      </g>
     </g>
    </g>
    <g id="ytick_5">
     <g id="line2d_11">
      <g>
       <use style="stroke:#000000;stroke-width:0.8;" x="86.31" xlink:href="#mdf031bab1e" y="372.112595"/>
      </g>
     </g>
     <g id="text_11">
      <!-- 0.4 -->
      <g transform="translate(63.406875 375.911814)scale(0.1 -0.1)">
       <use xlink:href="#DejaVuSans-30"/>
       <use x="63.623047" xlink:href="#DejaVuSans-2e"/>
       <use x="95.410156" xlink:href="#DejaVuSans-34"/>
      </g>
     </g>
    </g>
    <g id="ytick_6">
     <g id="line2d_12">
      <g>
       <use style="stroke:#000000;stroke-width:0.8;" x="86.31" xlink:href="#mdf031bab1e" y="269.26206"/>
      </g>
     </g>
     <g id="text_12">
      <!-- 0.5 -->
      <defs>
       <path d="M 10.796875 72.90625 
L 49.515625 72.90625 
L 49.515625 64.59375 
L 19.828125 64.59375 
L 19.828125 46.734375 
Q 21.96875 47.46875 24.109375 47.828125 
Q 26.265625 48.1875 28.421875 48.1875 
Q 40.625 48.1875 47.75 41.5 
Q 54.890625 34.8125 54.890625 23.390625 
Q 54.890625 11.625 47.5625 5.09375 
Q 40.234375 -1.421875 26.90625 -1.421875 
Q 22.3125 -1.421875 17.546875 -0.640625 
Q 12.796875 0.140625 7.71875 1.703125 
L 7.71875 11.625 
Q 12.109375 9.234375 16.796875 8.0625 
Q 21.484375 6.890625 26.703125 6.890625 
Q 35.15625 6.890625 40.078125 11.328125 
Q 45.015625 15.765625 45.015625 23.390625 
Q 45.015625 31 40.078125 35.4375 
Q 35.15625 39.890625 26.703125 39.890625 
Q 22.75 39.890625 18.8125 39.015625 
Q 14.890625 38.140625 10.796875 36.28125 
z
" id="DejaVuSans-35"/>
      </defs>
      <g transform="translate(63.406875 273.061279)scale(0.1 -0.1)">
       <use xlink:href="#DejaVuSans-30"/>
       <use x="63.623047" xlink:href="#DejaVuSans-2e"/>
       <use x="95.410156" xlink:href="#DejaVuSans-35"/>
      </g>
     </g>
    </g>
    <g id="ytick_7">
     <g id="line2d_13">
      <g>
       <use style="stroke:#000000;stroke-width:0.8;" x="86.31" xlink:href="#mdf031bab1e" y="166.411524"/>
      </g>
     </g>
     <g id="text_13">
      <!-- 0.6 -->
      <g transform="translate(63.406875 170.210743)scale(0.1 -0.1)">
       <use xlink:href="#DejaVuSans-30"/>
       <use x="63.623047" xlink:href="#DejaVuSans-2e"/>
       <use x="95.410156" xlink:href="#DejaVuSans-36"/>
      </g>
     </g>
    </g>
   </g>
   <g id="line2d_14">
    <path clip-path="url(#p32055e39d1)" d="M 114.148636 275.86815 
L 116.974894 264.741779 
L 119.801151 284.908712 
L 122.627409 286.994521 
L 125.453666 333.586842 
L 128.279924 374.615977 
L 131.106181 406.604551 
L 133.932439 399.650826 
L 136.758696 384.351809 
L 139.584954 401.736635 
L 142.411211 414.949843 
L 145.237469 442.765771 
L 148.063726 455.282681 
L 150.889984 499.093924 
L 153.716241 546.381514 
L 159.368756 604.100206 
L 162.195014 621.485032 
L 165.021271 666.686814 
L 167.847529 686.853336 
L 170.673786 693.111997 
L 173.500044 700.761402 
L 176.326301 695.198217 
L 179.152559 693.111997 
L 181.978816 693.111997 
L 184.805074 704.238471 
L 187.631331 723.709825 
L 190.457589 729.273114 
L 193.283846 732.750079 
L 196.110104 743.18118 
L 198.936361 743.18118 
L 201.762619 746.658248 
L 204.588876 738.313367 
L 207.415134 734.140927 
L 210.241391 740.399587 
L 213.067649 739.704215 
L 215.893906 743.876553 
L 218.720164 744.572028 
L 221.546421 748.744469 
L 224.372679 743.18118 
L 227.198936 734.836299 
L 230.025194 723.709825 
L 232.851451 708.410911 
L 235.677709 668.772623 
L 238.503966 620.789763 
L 241.330224 580.455897 
L 244.156481 542.904138 
L 246.982739 487.967553 
L 249.808996 435.812046 
L 252.635254 390.610264 
L 255.461511 352.363236 
L 258.287769 322.460471 
L 261.114026 289.776628 
L 263.940284 273.782341 
L 266.766541 259.873863 
L 269.592799 247.356953 
L 275.245314 209.109924 
L 278.071571 195.896716 
L 280.897829 183.379806 
L 283.724086 190.33353 
L 286.550344 179.902429 
L 289.376601 184.075075 
L 292.202859 209.109924 
L 295.029116 231.362666 
L 297.855374 257.788054 
L 300.681631 259.178593 
L 303.507889 287.690819 
L 306.334146 330.110494 
L 309.160404 337.064218 
L 311.986661 341.932134 
L 314.812919 361.403798 
L 317.639176 378.788624 
L 320.465434 418.426192 
L 326.117949 459.455327 
L 328.944206 484.490176 
L 331.770464 494.226008 
L 334.596721 519.260857 
L 337.422979 538.036222 
L 340.249236 560.985262 
L 343.075494 574.197442 
L 345.901751 598.537021 
L 348.728009 604.795476 
L 354.380524 600.62283 
L 357.206781 605.490746 
L 360.033039 604.795476 
L 362.859296 591.582268 
L 368.511811 631.220864 
L 371.338069 642.347235 
L 374.164326 648.60569 
L 376.990584 678.508455 
L 379.816841 698.675182 
L 382.643099 704.238471 
L 385.469356 707.715539 
L 388.295614 704.933843 
L 391.121871 710.497131 
L 393.948129 709.801759 
L 396.774386 714.669572 
L 399.600644 726.491418 
L 405.253159 745.962773 
L 408.079416 752.916909 
L 410.905674 761.26179 
L 413.731931 764.043383 
L 416.558189 761.957163 
L 419.384446 758.480095 
L 422.210704 764.043383 
L 425.036961 764.738755 
L 427.863219 756.393874 
L 430.689476 748.744469 
L 433.515734 741.790332 
L 436.341991 728.577638 
L 439.168249 709.801759 
L 441.994506 682.680895 
L 444.820764 665.991545 
L 447.647021 627.048218 
L 450.473279 598.537021 
L 453.299536 577.674818 
L 456.125794 550.554161 
L 458.952051 521.346666 
L 461.778309 497.703384 
L 464.604566 494.226008 
L 467.430824 460.846895 
L 470.257081 433.029939 
L 473.083339 426.771484 
L 475.909596 411.472467 
L 478.735854 389.914995 
L 481.562111 342.627404 
L 484.388369 363.489607 
L 487.214626 369.748062 
L 490.040884 355.839584 
L 492.867141 337.064218 
L 495.693399 357.231151 
L 498.519656 411.472467 
L 501.345914 369.052792 
L 504.172171 349.581129 
L 506.998429 365.575415 
L 509.824686 401.041366 
L 512.650944 369.052792 
L 515.477201 346.80005 
L 518.303459 395.47818 
L 521.129716 433.725209 
L 523.955974 431.6394 
L 526.782231 424.685675 
L 529.608489 422.598838 
L 532.434746 443.46104 
L 535.261004 432.33467 
L 538.087261 414.254574 
L 540.913519 431.6394 
L 543.739776 460.846895 
L 546.566034 500.484463 
L 549.392291 482.404367 
L 552.218549 500.484463 
L 555.044806 537.340952 
L 563.523579 590.886998 
L 566.349836 640.261426 
L 569.176094 674.335809 
L 572.002351 686.157861 
L 574.828609 694.502742 
L 577.654866 705.629318 
L 580.481124 731.359334 
L 583.307381 743.18118 
L 586.133639 748.048993 
L 588.959896 755.698502 
L 591.786154 761.957163 
L 594.612411 762.652535 
L 597.438669 759.870942 
L 600.264926 759.870942 
L 603.091184 756.393874 
L 605.917441 759.17557 
L 608.743699 764.043383 
L 611.569956 766.129603 
L 614.396214 770.997416 
L 617.222471 773.083636 
L 620.048729 773.083636 
L 622.874986 766.824976 
L 625.701244 756.393874 
L 628.527501 748.744469 
L 631.353759 738.313367 
L 634.180016 722.318978 
L 637.006274 693.807369 
L 642.658789 614.531308 
L 645.485046 541.513599 
L 648.311304 489.358092 
L 651.137561 457.369518 
L 653.963819 437.202585 
L 656.790076 408.691388 
L 659.616334 376.006517 
L 662.442591 396.868719 
L 665.268849 410.081928 
L 668.095106 392.000803 
L 670.921364 364.880146 
L 670.921364 364.880146 
" style="fill:none;stroke:#1f77b4;stroke-linecap:square;stroke-width:1.5;"/>
   </g>
   <g id="line2d_15">
    <path clip-path="url(#p32055e39d1)" d="M 114.148636 281.533575 
L 116.974894 250.936987 
L 119.801151 262.027971 
L 122.627409 276.889713 
L 125.453666 297.127002 
L 128.279924 356.050877 
L 131.106181 394.647951 
L 133.932439 421.052576 
L 136.758696 398.973459 
L 139.584954 392.98563 
L 142.411211 414.028688 
L 145.237469 432.849051 
L 148.063726 462.221075 
L 150.889984 478.953571 
L 153.716241 526.156824 
L 156.542499 564.251216 
L 159.368756 590.112662 
L 162.195014 608.800926 
L 165.021271 625.344113 
L 167.847529 651.981598 
L 170.673786 664.764152 
L 173.500044 666.524343 
L 176.326301 670.791997 
L 179.152559 667.918771 
L 181.978816 665.787515 
L 184.805074 666.725062 
L 187.631331 674.83563 
L 190.457589 681.345587 
L 193.283846 685.717377 
L 198.936361 690.383096 
L 201.762619 690.763964 
L 204.588876 692.979911 
L 207.415134 688.228055 
L 210.241391 687.473872 
L 213.067649 689.006184 
L 218.720164 690.595386 
L 221.546421 692.798155 
L 224.372679 693.715774 
L 227.198936 691.342016 
L 230.025194 686.986296 
L 232.851451 681.322767 
L 235.677709 670.981788 
L 238.503966 646.057086 
L 244.156481 577.109462 
L 246.982739 539.602282 
L 252.635254 423.931267 
L 255.461511 381.423301 
L 258.287769 332.519478 
L 261.114026 302.203801 
L 263.940284 265.785551 
L 266.766541 256.838519 
L 269.592799 240.34515 
L 272.419056 227.275096 
L 275.245314 201.151543 
L 278.071571 183.047277 
L 280.897829 170.253795 
L 283.724086 162.351178 
L 286.550344 169.642477 
L 289.376601 153.011224 
L 292.202859 178.997216 
L 295.029116 203.788855 
L 297.855374 230.06315 
L 300.681631 252.882791 
L 303.507889 255.956897 
L 306.334146 302.95477 
L 309.160404 337.275673 
L 311.986661 341.426013 
L 314.812919 348.930245 
L 317.639176 369.888292 
L 320.465434 400.755184 
L 323.291691 436.554241 
L 326.117949 458.130034 
L 328.944206 482.433776 
L 331.770464 501.362774 
L 334.596721 516.516194 
L 337.422979 535.027844 
L 340.249236 556.048083 
L 343.075494 573.942308 
L 345.901751 586.262517 
L 348.728009 604.437171 
L 351.554266 604.901605 
L 354.380524 605.140572 
L 357.206781 604.693172 
L 360.033039 606.882442 
L 362.859296 600.715106 
L 365.685554 599.029643 
L 368.511811 617.153675 
L 371.338069 628.666185 
L 374.164326 633.019656 
L 376.990584 643.366259 
L 379.816841 660.006672 
L 382.643099 669.152977 
L 385.469356 673.00473 
L 388.295614 674.072929 
L 391.121871 674.45219 
L 393.948129 675.655702 
L 396.774386 675.7465 
L 399.600644 678.57939 
L 402.426901 685.152824 
L 405.253159 689.13764 
L 408.079416 693.663867 
L 410.905674 696.180973 
L 413.731931 699.105785 
L 416.558189 699.434103 
L 419.384446 698.592175 
L 422.210704 698.222556 
L 425.036961 699.570863 
L 427.863219 699.362912 
L 433.515734 693.560856 
L 436.341991 690.98686 
L 439.168249 682.623666 
L 441.994506 672.265652 
L 447.647021 645.403182 
L 450.473279 616.608085 
L 453.299536 596.681115 
L 456.125794 579.201024 
L 458.952051 553.449017 
L 461.778309 526.492214 
L 464.604566 508.52776 
L 467.430824 502.100566 
L 470.257081 457.343709 
L 473.083339 437.303443 
L 475.909596 431.35579 
L 478.735854 414.522853 
L 481.562111 374.698161 
L 484.388369 336.856075 
L 487.214626 375.729399 
L 490.040884 372.049921 
L 492.867141 345.970721 
L 495.693399 334.138892 
L 498.519656 387.924419 
L 501.345914 419.785908 
L 504.172171 354.999552 
L 506.998429 348.718116 
L 509.824686 385.945992 
L 512.650944 406.635824 
L 515.477201 355.056923 
L 518.303459 353.914479 
L 521.129716 426.677537 
L 523.955974 450.326732 
L 526.782231 443.33868 
L 529.608489 427.958508 
L 532.434746 439.691343 
L 535.261004 455.022662 
L 538.087261 433.798008 
L 540.913519 425.249521 
L 543.739776 448.738816 
L 546.566034 494.946669 
L 549.392291 511.561048 
L 552.218549 497.110065 
L 555.044806 522.963797 
L 557.871064 554.901781 
L 563.523579 584.593927 
L 566.349836 604.789594 
L 569.176094 637.704337 
L 572.002351 657.499208 
L 574.828609 663.737415 
L 577.654866 667.465264 
L 580.481124 675.422682 
L 583.307381 687.223656 
L 586.133639 690.821496 
L 588.959896 693.974829 
L 591.786154 697.365522 
L 594.612411 698.932868 
L 597.438669 699.0407 
L 600.264926 698.330067 
L 603.091184 697.876721 
L 605.917441 697.110967 
L 608.743699 698.266268 
L 611.569956 699.688016 
L 614.396214 700.395917 
L 617.222471 701.335231 
L 620.048729 703.520805 
L 622.874986 703.480951 
L 625.701244 699.64109 
L 628.527501 696.377675 
L 631.353759 692.914504 
L 634.180016 687.557599 
L 637.006274 680.332348 
L 639.832531 662.682232 
L 642.658789 639.110657 
L 645.485046 600.126447 
L 648.311304 535.936946 
L 651.137561 485.695102 
L 653.963819 460.585269 
L 656.790076 437.619869 
L 659.616334 399.356256 
L 662.442591 380.475308 
L 665.268849 412.059743 
L 668.095106 417.149399 
L 670.921364 386.592505 
L 670.921364 386.592505 
" style="fill:none;stroke:#ff7f0e;stroke-linecap:square;stroke-width:1.5;"/>
   </g>
   <g id="line2d_16">
    <path clip-path="url(#p32055e39d1)" d="M 114.148636 310.402274 
L 116.974894 269.26206 
L 119.801151 279.547113 
L 125.453666 320.687328 
L 128.279924 382.397649 
L 131.106181 413.25281 
L 133.932439 433.822917 
L 139.584954 413.25281 
L 142.411211 423.537863 
L 145.237469 444.10797 
L 148.063726 485.248185 
L 150.889984 495.533238 
L 153.716241 557.243559 
L 156.542499 588.09872 
L 165.021271 649.809041 
L 167.847529 680.664202 
L 170.673786 690.949256 
L 173.500044 690.949256 
L 176.326301 701.234309 
L 179.152559 690.949256 
L 184.805074 690.949256 
L 193.283846 721.804416 
L 201.762619 721.804416 
L 204.588876 732.08947 
L 207.415134 721.804416 
L 218.720164 721.804416 
L 221.546421 732.08947 
L 224.372679 732.08947 
L 227.198936 721.804416 
L 230.025194 721.804416 
L 235.677709 701.234309 
L 238.503966 670.379149 
L 241.330224 629.238934 
L 246.982739 567.528613 
L 249.808996 526.388399 
L 252.635254 464.678077 
L 258.287769 361.827542 
L 261.114026 320.687328 
L 263.940284 289.832167 
L 269.592799 248.691953 
L 272.419056 238.406899 
L 278.071571 197.266685 
L 283.724086 176.696578 
L 286.550344 186.981631 
L 289.376601 166.411524 
L 292.202859 207.551739 
L 295.029116 238.406899 
L 300.681631 279.547113 
L 303.507889 269.26206 
L 306.334146 330.972381 
L 309.160404 361.827542 
L 311.986661 351.542488 
L 314.812919 361.827542 
L 317.639176 382.397649 
L 320.465434 413.25281 
L 323.291691 454.393024 
L 326.117949 474.963131 
L 328.944206 505.818292 
L 331.770464 516.103345 
L 340.249236 577.813667 
L 343.075494 588.09872 
L 345.901751 608.668827 
L 348.728009 618.953881 
L 365.685554 618.953881 
L 368.511811 639.523988 
L 371.338069 649.809041 
L 374.164326 649.809041 
L 376.990584 660.094095 
L 382.643099 701.234309 
L 396.774386 701.234309 
L 399.600644 711.519363 
L 402.426901 711.519363 
L 408.079416 732.08947 
L 433.515734 732.08947 
L 441.994506 701.234309 
L 444.820764 680.664202 
L 447.647021 670.379149 
L 453.299536 608.668827 
L 456.125794 598.383774 
L 458.952051 577.813667 
L 461.778309 546.958506 
L 464.604566 526.388399 
L 467.430824 526.388399 
L 473.083339 464.678077 
L 475.909596 454.393024 
L 478.735854 433.822917 
L 481.562111 402.967756 
L 484.388369 361.827542 
L 487.214626 392.682703 
L 490.040884 382.397649 
L 492.867141 361.827542 
L 495.693399 351.542488 
L 498.519656 413.25281 
L 501.345914 433.822917 
L 504.172171 392.682703 
L 506.998429 361.827542 
L 509.824686 402.967756 
L 512.650944 423.537863 
L 515.477201 382.397649 
L 518.303459 372.112595 
L 521.129716 454.393024 
L 523.955974 464.678077 
L 526.782231 464.678077 
L 529.608489 444.10797 
L 532.434746 454.393024 
L 535.261004 474.963131 
L 538.087261 454.393024 
L 540.913519 444.10797 
L 543.739776 464.678077 
L 546.566034 516.103345 
L 549.392291 526.388399 
L 552.218549 516.103345 
L 557.871064 577.813667 
L 563.523579 598.383774 
L 569.176094 660.094095 
L 572.002351 680.664202 
L 574.828609 690.949256 
L 577.654866 690.949256 
L 580.481124 701.234309 
L 583.307381 721.804416 
L 586.133639 721.804416 
L 588.959896 732.08947 
L 611.569956 732.08947 
L 614.396214 742.374523 
L 625.701244 742.374523 
L 628.527501 732.08947 
L 631.353759 732.08947 
L 637.006274 711.519363 
L 639.832531 690.949256 
L 642.658789 660.094095 
L 645.485046 618.953881 
L 648.311304 567.528613 
L 653.963819 485.248185 
L 656.790076 464.678077 
L 662.442591 402.967756 
L 665.268849 423.537863 
L 668.095106 433.822917 
L 670.921364 413.25281 
L 670.921364 413.25281 
" style="fill:none;stroke:#2ca02c;stroke-linecap:square;stroke-width:1.5;"/>
   </g>
   <g id="line2d_17">
    <path clip-path="url(#p32055e39d1)" d="M 114.148636 258.977006 
L 116.974894 228.121846 
L 119.801151 248.691953 
L 122.627409 258.977006 
L 125.453666 279.547113 
L 133.932439 402.967756 
L 136.758696 382.397649 
L 139.584954 382.397649 
L 150.889984 464.678077 
L 153.716241 495.533238 
L 156.542499 536.673452 
L 159.368756 567.528613 
L 162.195014 588.09872 
L 165.021271 598.383774 
L 170.673786 639.523988 
L 173.500044 639.523988 
L 176.326301 649.809041 
L 179.152559 649.809041 
L 181.978816 639.523988 
L 184.805074 639.523988 
L 187.631331 649.809041 
L 190.457589 649.809041 
L 193.283846 660.094095 
L 201.762619 660.094095 
L 204.588876 670.379149 
L 207.415134 660.094095 
L 218.720164 660.094095 
L 221.546421 670.379149 
L 227.198936 670.379149 
L 230.025194 660.094095 
L 232.851451 660.094095 
L 238.503966 639.523988 
L 241.330224 608.668827 
L 244.156481 557.243559 
L 246.982739 516.103345 
L 249.808996 444.10797 
L 252.635254 392.682703 
L 258.287769 310.402274 
L 263.940284 248.691953 
L 269.592799 228.121846 
L 278.071571 166.411524 
L 283.724086 145.841417 
L 286.550344 145.841417 
L 289.376601 135.556364 
L 297.855374 197.266685 
L 300.681631 228.121846 
L 303.507889 238.406899 
L 306.334146 269.26206 
L 309.160404 310.402274 
L 311.986661 330.972381 
L 317.639176 351.542488 
L 326.117949 444.10797 
L 331.770464 485.248185 
L 334.596721 495.533238 
L 343.075494 557.243559 
L 345.901751 567.528613 
L 348.728009 588.09872 
L 365.685554 588.09872 
L 371.338069 608.668827 
L 374.164326 608.668827 
L 385.469356 649.809041 
L 399.600644 649.809041 
L 402.426901 660.094095 
L 405.253159 660.094095 
L 408.079416 670.379149 
L 436.341991 670.379149 
L 447.647021 629.238934 
L 456.125794 567.528613 
L 461.778309 505.818292 
L 464.604566 485.248185 
L 467.430824 485.248185 
L 470.257081 433.822917 
L 473.083339 413.25281 
L 475.909596 413.25281 
L 478.735854 402.967756 
L 481.562111 351.542488 
L 484.388369 310.402274 
L 487.214626 351.542488 
L 490.040884 361.827542 
L 492.867141 330.972381 
L 495.693399 320.687328 
L 498.519656 361.827542 
L 501.345914 392.682703 
L 504.172171 330.972381 
L 506.998429 341.257435 
L 509.824686 361.827542 
L 512.650944 392.682703 
L 515.477201 330.972381 
L 518.303459 341.257435 
L 521.129716 392.682703 
L 523.955974 433.822917 
L 526.782231 433.822917 
L 529.608489 413.25281 
L 532.434746 423.537863 
L 535.261004 444.10797 
L 538.087261 413.25281 
L 540.913519 413.25281 
L 543.739776 433.822917 
L 546.566034 474.963131 
L 549.392291 495.533238 
L 552.218549 474.963131 
L 557.871064 536.673452 
L 560.697321 557.243559 
L 563.523579 567.528613 
L 572.002351 629.238934 
L 574.828609 639.523988 
L 577.654866 639.523988 
L 583.307381 660.094095 
L 586.133639 660.094095 
L 588.959896 670.379149 
L 617.222471 670.379149 
L 620.048729 680.664202 
L 622.874986 680.664202 
L 625.701244 670.379149 
L 631.353759 670.379149 
L 634.180016 660.094095 
L 637.006274 660.094095 
L 639.832531 649.809041 
L 642.658789 629.238934 
L 645.485046 588.09872 
L 648.311304 505.818292 
L 651.137561 454.393024 
L 653.963819 433.822917 
L 656.790076 423.537863 
L 659.616334 382.397649 
L 662.442591 361.827542 
L 665.268849 392.682703 
L 668.095106 413.25281 
L 670.921364 372.112595 
L 670.921364 372.112595 
" style="fill:none;stroke:#d62728;stroke-linecap:square;stroke-width:1.5;"/>
   </g>
   <g id="patch_3">
    <path d="M 86.31 804.96 
L 86.31 103.68 
" style="fill:none;stroke:#000000;stroke-linecap:square;stroke-linejoin:miter;stroke-width:0.8;"/>
   </g>
   <g id="patch_4">
    <path d="M 698.76 804.96 
L 698.76 103.68 
" style="fill:none;stroke:#000000;stroke-linecap:square;stroke-linejoin:miter;stroke-width:0.8;"/>
   </g>
   <g id="patch_5">
    <path d="M 86.31 804.96 
L 698.76 804.96 
" style="fill:none;stroke:#000000;stroke-linecap:square;stroke-linejoin:miter;stroke-width:0.8;"/>
   </g>
   <g id="patch_6">
    <path d="M 86.31 103.68 
L 698.76 103.68 
" style="fill:none;stroke:#000000;stroke-linecap:square;stroke-linejoin:miter;stroke-width:0.8;"/>
   </g>
   <g id="text_14">
    <!-- Plot of Test Data vs MCMC Uncertainty  -->
    <defs>
     <path d="M 19.671875 64.796875 
L 19.671875 37.40625 
L 32.078125 37.40625 
Q 38.96875 37.40625 42.71875 40.96875 
Q 46.484375 44.53125 46.484375 51.125 
Q 46.484375 57.671875 42.71875 61.234375 
Q 38.96875 64.796875 32.078125 64.796875 
z
M 9.8125 72.90625 
L 32.078125 72.90625 
Q 44.34375 72.90625 50.609375 67.359375 
Q 56.890625 61.8125 56.890625 51.125 
Q 56.890625 40.328125 50.609375 34.8125 
Q 44.34375 29.296875 32.078125 29.296875 
L 19.671875 29.296875 
L 19.671875 0 
L 9.8125 0 
z
" id="DejaVuSans-50"/>
     <path d="M 9.421875 75.984375 
L 18.40625 75.984375 
L 18.40625 0 
L 9.421875 0 
z
" id="DejaVuSans-6c"/>
     <path d="M 30.609375 48.390625 
Q 23.390625 48.390625 19.1875 42.75 
Q 14.984375 37.109375 14.984375 27.296875 
Q 14.984375 17.484375 19.15625 11.84375 
Q 23.34375 6.203125 30.609375 6.203125 
Q 37.796875 6.203125 41.984375 11.859375 
Q 46.1875 17.53125 46.1875 27.296875 
Q 46.1875 37.015625 41.984375 42.703125 
Q 37.796875 48.390625 30.609375 48.390625 
z
M 30.609375 56 
Q 42.328125 56 49.015625 48.375 
Q 55.71875 40.765625 55.71875 27.296875 
Q 55.71875 13.875 49.015625 6.21875 
Q 42.328125 -1.421875 30.609375 -1.421875 
Q 18.84375 -1.421875 12.171875 6.21875 
Q 5.515625 13.875 5.515625 27.296875 
Q 5.515625 40.765625 12.171875 48.375 
Q 18.84375 56 30.609375 56 
z
" id="DejaVuSans-6f"/>
     <path d="M 18.3125 70.21875 
L 18.3125 54.6875 
L 36.8125 54.6875 
L 36.8125 47.703125 
L 18.3125 47.703125 
L 18.3125 18.015625 
Q 18.3125 11.328125 20.140625 9.421875 
Q 21.96875 7.515625 27.59375 7.515625 
L 36.8125 7.515625 
L 36.8125 0 
L 27.59375 0 
Q 17.1875 0 13.234375 3.875 
Q 9.28125 7.765625 9.28125 18.015625 
L 9.28125 47.703125 
L 2.6875 47.703125 
L 2.6875 54.6875 
L 9.28125 54.6875 
L 9.28125 70.21875 
z
" id="DejaVuSans-74"/>
     <path id="DejaVuSans-20"/>
     <path d="M 37.109375 75.984375 
L 37.109375 68.5 
L 28.515625 68.5 
Q 23.6875 68.5 21.796875 66.546875 
Q 19.921875 64.59375 19.921875 59.515625 
L 19.921875 54.6875 
L 34.71875 54.6875 
L 34.71875 47.703125 
L 19.921875 47.703125 
L 19.921875 0 
L 10.890625 0 
L 10.890625 47.703125 
L 2.296875 47.703125 
L 2.296875 54.6875 
L 10.890625 54.6875 
L 10.890625 58.5 
Q 10.890625 67.625 15.140625 71.796875 
Q 19.390625 75.984375 28.609375 75.984375 
z
" id="DejaVuSans-66"/>
     <path d="M -0.296875 72.90625 
L 61.375 72.90625 
L 61.375 64.59375 
L 35.5 64.59375 
L 35.5 0 
L 25.59375 0 
L 25.59375 64.59375 
L -0.296875 64.59375 
z
" id="DejaVuSans-54"/>
     <path d="M 56.203125 29.59375 
L 56.203125 25.203125 
L 14.890625 25.203125 
Q 15.484375 15.921875 20.484375 11.0625 
Q 25.484375 6.203125 34.421875 6.203125 
Q 39.59375 6.203125 44.453125 7.46875 
Q 49.3125 8.734375 54.109375 11.28125 
L 54.109375 2.78125 
Q 49.265625 0.734375 44.1875 -0.34375 
Q 39.109375 -1.421875 33.890625 -1.421875 
Q 20.796875 -1.421875 13.15625 6.1875 
Q 5.515625 13.8125 5.515625 26.8125 
Q 5.515625 40.234375 12.765625 48.109375 
Q 20.015625 56 32.328125 56 
Q 43.359375 56 49.78125 48.890625 
Q 56.203125 41.796875 56.203125 29.59375 
z
M 47.21875 32.234375 
Q 47.125 39.59375 43.09375 43.984375 
Q 39.0625 48.390625 32.421875 48.390625 
Q 24.90625 48.390625 20.390625 44.140625 
Q 15.875 39.890625 15.1875 32.171875 
z
" id="DejaVuSans-65"/>
     <path d="M 44.28125 53.078125 
L 44.28125 44.578125 
Q 40.484375 46.53125 36.375 47.5 
Q 32.28125 48.484375 27.875 48.484375 
Q 21.1875 48.484375 17.84375 46.4375 
Q 14.5 44.390625 14.5 40.28125 
Q 14.5 37.15625 16.890625 35.375 
Q 19.28125 33.59375 26.515625 31.984375 
L 29.59375 31.296875 
Q 39.15625 29.25 43.1875 25.515625 
Q 47.21875 21.78125 47.21875 15.09375 
Q 47.21875 7.46875 41.1875 3.015625 
Q 35.15625 -1.421875 24.609375 -1.421875 
Q 20.21875 -1.421875 15.453125 -0.5625 
Q 10.6875 0.296875 5.421875 2 
L 5.421875 11.28125 
Q 10.40625 8.6875 15.234375 7.390625 
Q 20.0625 6.109375 24.8125 6.109375 
Q 31.15625 6.109375 34.5625 8.28125 
Q 37.984375 10.453125 37.984375 14.40625 
Q 37.984375 18.0625 35.515625 20.015625 
Q 33.0625 21.96875 24.703125 23.78125 
L 21.578125 24.515625 
Q 13.234375 26.265625 9.515625 29.90625 
Q 5.8125 33.546875 5.8125 39.890625 
Q 5.8125 47.609375 11.28125 51.796875 
Q 16.75 56 26.8125 56 
Q 31.78125 56 36.171875 55.265625 
Q 40.578125 54.546875 44.28125 53.078125 
z
" id="DejaVuSans-73"/>
     <path d="M 19.671875 64.796875 
L 19.671875 8.109375 
L 31.59375 8.109375 
Q 46.6875 8.109375 53.6875 14.9375 
Q 60.6875 21.78125 60.6875 36.53125 
Q 60.6875 51.171875 53.6875 57.984375 
Q 46.6875 64.796875 31.59375 64.796875 
z
M 9.8125 72.90625 
L 30.078125 72.90625 
Q 51.265625 72.90625 61.171875 64.09375 
Q 71.09375 55.28125 71.09375 36.53125 
Q 71.09375 17.671875 61.125 8.828125 
Q 51.171875 0 30.078125 0 
L 9.8125 0 
z
" id="DejaVuSans-44"/>
     <path d="M 34.28125 27.484375 
Q 23.390625 27.484375 19.1875 25 
Q 14.984375 22.515625 14.984375 16.5 
Q 14.984375 11.71875 18.140625 8.90625 
Q 21.296875 6.109375 26.703125 6.109375 
Q 34.1875 6.109375 38.703125 11.40625 
Q 43.21875 16.703125 43.21875 25.484375 
L 43.21875 27.484375 
z
M 52.203125 31.203125 
L 52.203125 0 
L 43.21875 0 
L 43.21875 8.296875 
Q 40.140625 3.328125 35.546875 0.953125 
Q 30.953125 -1.421875 24.3125 -1.421875 
Q 15.921875 -1.421875 10.953125 3.296875 
Q 6 8.015625 6 15.921875 
Q 6 25.140625 12.171875 29.828125 
Q 18.359375 34.515625 30.609375 34.515625 
L 43.21875 34.515625 
L 43.21875 35.40625 
Q 43.21875 41.609375 39.140625 45 
Q 35.0625 48.390625 27.6875 48.390625 
Q 23 48.390625 18.546875 47.265625 
Q 14.109375 46.140625 10.015625 43.890625 
L 10.015625 52.203125 
Q 14.9375 54.109375 19.578125 55.046875 
Q 24.21875 56 28.609375 56 
Q 40.484375 56 46.34375 49.84375 
Q 52.203125 43.703125 52.203125 31.203125 
z
" id="DejaVuSans-61"/>
     <path d="M 2.984375 54.6875 
L 12.5 54.6875 
L 29.59375 8.796875 
L 46.6875 54.6875 
L 56.203125 54.6875 
L 35.6875 0 
L 23.484375 0 
z
" id="DejaVuSans-76"/>
     <path d="M 9.8125 72.90625 
L 24.515625 72.90625 
L 43.109375 23.296875 
L 61.8125 72.90625 
L 76.515625 72.90625 
L 76.515625 0 
L 66.890625 0 
L 66.890625 64.015625 
L 48.09375 14.015625 
L 38.1875 14.015625 
L 19.390625 64.015625 
L 19.390625 0 
L 9.8125 0 
z
" id="DejaVuSans-4d"/>
     <path d="M 64.40625 67.28125 
L 64.40625 56.890625 
Q 59.421875 61.53125 53.78125 63.8125 
Q 48.140625 66.109375 41.796875 66.109375 
Q 29.296875 66.109375 22.65625 58.46875 
Q 16.015625 50.828125 16.015625 36.375 
Q 16.015625 21.96875 22.65625 14.328125 
Q 29.296875 6.6875 41.796875 6.6875 
Q 48.140625 6.6875 53.78125 8.984375 
Q 59.421875 11.28125 64.40625 15.921875 
L 64.40625 5.609375 
Q 59.234375 2.09375 53.4375 0.328125 
Q 47.65625 -1.421875 41.21875 -1.421875 
Q 24.65625 -1.421875 15.125 8.703125 
Q 5.609375 18.84375 5.609375 36.375 
Q 5.609375 53.953125 15.125 64.078125 
Q 24.65625 74.21875 41.21875 74.21875 
Q 47.75 74.21875 53.53125 72.484375 
Q 59.328125 70.75 64.40625 67.28125 
z
" id="DejaVuSans-43"/>
     <path d="M 8.6875 72.90625 
L 18.609375 72.90625 
L 18.609375 28.609375 
Q 18.609375 16.890625 22.84375 11.734375 
Q 27.09375 6.59375 36.625 6.59375 
Q 46.09375 6.59375 50.34375 11.734375 
Q 54.59375 16.890625 54.59375 28.609375 
L 54.59375 72.90625 
L 64.5 72.90625 
L 64.5 27.390625 
Q 64.5 13.140625 57.4375 5.859375 
Q 50.390625 -1.421875 36.625 -1.421875 
Q 22.796875 -1.421875 15.734375 5.859375 
Q 8.6875 13.140625 8.6875 27.390625 
z
" id="DejaVuSans-55"/>
     <path d="M 54.890625 33.015625 
L 54.890625 0 
L 45.90625 0 
L 45.90625 32.71875 
Q 45.90625 40.484375 42.875 44.328125 
Q 39.84375 48.1875 33.796875 48.1875 
Q 26.515625 48.1875 22.3125 43.546875 
Q 18.109375 38.921875 18.109375 30.90625 
L 18.109375 0 
L 9.078125 0 
L 9.078125 54.6875 
L 18.109375 54.6875 
L 18.109375 46.1875 
Q 21.34375 51.125 25.703125 53.5625 
Q 30.078125 56 35.796875 56 
Q 45.21875 56 50.046875 50.171875 
Q 54.890625 44.34375 54.890625 33.015625 
z
" id="DejaVuSans-6e"/>
     <path d="M 48.78125 52.59375 
L 48.78125 44.1875 
Q 44.96875 46.296875 41.140625 47.34375 
Q 37.3125 48.390625 33.40625 48.390625 
Q 24.65625 48.390625 19.8125 42.84375 
Q 14.984375 37.3125 14.984375 27.296875 
Q 14.984375 17.28125 19.8125 11.734375 
Q 24.65625 6.203125 33.40625 6.203125 
Q 37.3125 6.203125 41.140625 7.25 
Q 44.96875 8.296875 48.78125 10.40625 
L 48.78125 2.09375 
Q 45.015625 0.34375 40.984375 -0.53125 
Q 36.96875 -1.421875 32.421875 -1.421875 
Q 20.0625 -1.421875 12.78125 6.34375 
Q 5.515625 14.109375 5.515625 27.296875 
Q 5.515625 40.671875 12.859375 48.328125 
Q 20.21875 56 33.015625 56 
Q 37.15625 56 41.109375 55.140625 
Q 45.0625 54.296875 48.78125 52.59375 
z
" id="DejaVuSans-63"/>
     <path d="M 41.109375 46.296875 
Q 39.59375 47.171875 37.8125 47.578125 
Q 36.03125 48 33.890625 48 
Q 26.265625 48 22.1875 43.046875 
Q 18.109375 38.09375 18.109375 28.8125 
L 18.109375 0 
L 9.078125 0 
L 9.078125 54.6875 
L 18.109375 54.6875 
L 18.109375 46.1875 
Q 20.953125 51.171875 25.484375 53.578125 
Q 30.03125 56 36.53125 56 
Q 37.453125 56 38.578125 55.875 
Q 39.703125 55.765625 41.0625 55.515625 
z
" id="DejaVuSans-72"/>
     <path d="M 9.421875 54.6875 
L 18.40625 54.6875 
L 18.40625 0 
L 9.421875 0 
z
M 9.421875 75.984375 
L 18.40625 75.984375 
L 18.40625 64.59375 
L 9.421875 64.59375 
z
" id="DejaVuSans-69"/>
     <path d="M 32.171875 -5.078125 
Q 28.375 -14.84375 24.75 -17.8125 
Q 21.140625 -20.796875 15.09375 -20.796875 
L 7.90625 -20.796875 
L 7.90625 -13.28125 
L 13.1875 -13.28125 
Q 16.890625 -13.28125 18.9375 -11.515625 
Q 21 -9.765625 23.484375 -3.21875 
L 25.09375 0.875 
L 2.984375 54.6875 
L 12.5 54.6875 
L 29.59375 11.921875 
L 46.6875 54.6875 
L 56.203125 54.6875 
z
" id="DejaVuSans-79"/>
    </defs>
    <g transform="translate(274.487813 97.68)scale(0.12 -0.12)">
     <use xlink:href="#DejaVuSans-50"/>
     <use x="60.302734" xlink:href="#DejaVuSans-6c"/>
     <use x="88.085938" xlink:href="#DejaVuSans-6f"/>
     <use x="149.267578" xlink:href="#DejaVuSans-74"/>
     <use x="188.476562" xlink:href="#DejaVuSans-20"/>
     <use x="220.263672" xlink:href="#DejaVuSans-6f"/>
     <use x="281.445312" xlink:href="#DejaVuSans-66"/>
     <use x="316.650391" xlink:href="#DejaVuSans-20"/>
     <use x="348.4375" xlink:href="#DejaVuSans-54"/>
     <use x="409.255859" xlink:href="#DejaVuSans-65"/>
     <use x="470.779297" xlink:href="#DejaVuSans-73"/>
     <use x="522.878906" xlink:href="#DejaVuSans-74"/>
     <use x="562.087891" xlink:href="#DejaVuSans-20"/>
     <use x="593.875" xlink:href="#DejaVuSans-44"/>
     <use x="670.876953" xlink:href="#DejaVuSans-61"/>
     <use x="732.15625" xlink:href="#DejaVuSans-74"/>
     <use x="771.365234" xlink:href="#DejaVuSans-61"/>
     <use x="832.644531" xlink:href="#DejaVuSans-20"/>
     <use x="864.431641" xlink:href="#DejaVuSans-76"/>
     <use x="923.611328" xlink:href="#DejaVuSans-73"/>
     <use x="975.710938" xlink:href="#DejaVuSans-20"/>
     <use x="1007.498047" xlink:href="#DejaVuSans-4d"/>
     <use x="1093.777344" xlink:href="#DejaVuSans-43"/>
     <use x="1163.601562" xlink:href="#DejaVuSans-4d"/>
     <use x="1249.880859" xlink:href="#DejaVuSans-43"/>
     <use x="1319.705078" xlink:href="#DejaVuSans-20"/>
     <use x="1351.492188" xlink:href="#DejaVuSans-55"/>
     <use x="1424.685547" xlink:href="#DejaVuSans-6e"/>
     <use x="1488.064453" xlink:href="#DejaVuSans-63"/>
     <use x="1543.044922" xlink:href="#DejaVuSans-65"/>
     <use x="1604.568359" xlink:href="#DejaVuSans-72"/>
     <use x="1645.681641" xlink:href="#DejaVuSans-74"/>
     <use x="1684.890625" xlink:href="#DejaVuSans-61"/>
     <use x="1746.169922" xlink:href="#DejaVuSans-69"/>
     <use x="1773.953125" xlink:href="#DejaVuSans-6e"/>
     <use x="1837.332031" xlink:href="#DejaVuSans-74"/>
     <use x="1876.541016" xlink:href="#DejaVuSans-79"/>
     <use x="1935.720703" xlink:href="#DejaVuSans-20"/>
    </g>
   </g>
   <g id="legend_1">
    <g id="patch_7">
     <path d="M 561.883438 170.3925 
L 691.76 170.3925 
Q 693.76 170.3925 693.76 168.3925 
L 693.76 110.68 
Q 693.76 108.68 691.76 108.68 
L 561.883438 108.68 
Q 559.883438 108.68 559.883438 110.68 
L 559.883438 168.3925 
Q 559.883438 170.3925 561.883438 170.3925 
z
" style="fill:#ffffff;opacity:0.8;stroke:#cccccc;stroke-linejoin:miter;"/>
    </g>
    <g id="line2d_18">
     <path d="M 563.883438 116.778437 
L 583.883438 116.778437 
" style="fill:none;stroke:#1f77b4;stroke-linecap:square;stroke-width:1.5;"/>
    </g>
    <g id="line2d_19"/>
    <g id="text_15">
     <!-- actual -->
     <defs>
      <path d="M 8.5 21.578125 
L 8.5 54.6875 
L 17.484375 54.6875 
L 17.484375 21.921875 
Q 17.484375 14.15625 20.5 10.265625 
Q 23.53125 6.390625 29.59375 6.390625 
Q 36.859375 6.390625 41.078125 11.03125 
Q 45.3125 15.671875 45.3125 23.6875 
L 45.3125 54.6875 
L 54.296875 54.6875 
L 54.296875 0 
L 45.3125 0 
L 45.3125 8.40625 
Q 42.046875 3.421875 37.71875 1 
Q 33.40625 -1.421875 27.6875 -1.421875 
Q 18.265625 -1.421875 13.375 4.4375 
Q 8.5 10.296875 8.5 21.578125 
z
M 31.109375 56 
z
" id="DejaVuSans-75"/>
     </defs>
     <g transform="translate(591.883438 120.278437)scale(0.1 -0.1)">
      <use xlink:href="#DejaVuSans-61"/>
      <use x="61.279297" xlink:href="#DejaVuSans-63"/>
      <use x="116.259766" xlink:href="#DejaVuSans-74"/>
      <use x="155.46875" xlink:href="#DejaVuSans-75"/>
      <use x="218.847656" xlink:href="#DejaVuSans-61"/>
      <use x="280.126953" xlink:href="#DejaVuSans-6c"/>
     </g>
    </g>
    <g id="line2d_20">
     <path d="M 563.883438 131.456562 
L 583.883438 131.456562 
" style="fill:none;stroke:#ff7f0e;stroke-linecap:square;stroke-width:1.5;"/>
    </g>
    <g id="line2d_21"/>
    <g id="text_16">
     <!-- pred. (mean) -->
     <defs>
      <path d="M 18.109375 8.203125 
L 18.109375 -20.796875 
L 9.078125 -20.796875 
L 9.078125 54.6875 
L 18.109375 54.6875 
L 18.109375 46.390625 
Q 20.953125 51.265625 25.265625 53.625 
Q 29.59375 56 35.59375 56 
Q 45.5625 56 51.78125 48.09375 
Q 58.015625 40.1875 58.015625 27.296875 
Q 58.015625 14.40625 51.78125 6.484375 
Q 45.5625 -1.421875 35.59375 -1.421875 
Q 29.59375 -1.421875 25.265625 0.953125 
Q 20.953125 3.328125 18.109375 8.203125 
z
M 48.6875 27.296875 
Q 48.6875 37.203125 44.609375 42.84375 
Q 40.53125 48.484375 33.40625 48.484375 
Q 26.265625 48.484375 22.1875 42.84375 
Q 18.109375 37.203125 18.109375 27.296875 
Q 18.109375 17.390625 22.1875 11.75 
Q 26.265625 6.109375 33.40625 6.109375 
Q 40.53125 6.109375 44.609375 11.75 
Q 48.6875 17.390625 48.6875 27.296875 
z
" id="DejaVuSans-70"/>
      <path d="M 45.40625 46.390625 
L 45.40625 75.984375 
L 54.390625 75.984375 
L 54.390625 0 
L 45.40625 0 
L 45.40625 8.203125 
Q 42.578125 3.328125 38.25 0.953125 
Q 33.9375 -1.421875 27.875 -1.421875 
Q 17.96875 -1.421875 11.734375 6.484375 
Q 5.515625 14.40625 5.515625 27.296875 
Q 5.515625 40.1875 11.734375 48.09375 
Q 17.96875 56 27.875 56 
Q 33.9375 56 38.25 53.625 
Q 42.578125 51.265625 45.40625 46.390625 
z
M 14.796875 27.296875 
Q 14.796875 17.390625 18.875 11.75 
Q 22.953125 6.109375 30.078125 6.109375 
Q 37.203125 6.109375 41.296875 11.75 
Q 45.40625 17.390625 45.40625 27.296875 
Q 45.40625 37.203125 41.296875 42.84375 
Q 37.203125 48.484375 30.078125 48.484375 
Q 22.953125 48.484375 18.875 42.84375 
Q 14.796875 37.203125 14.796875 27.296875 
z
" id="DejaVuSans-64"/>
      <path d="M 31 75.875 
Q 24.46875 64.65625 21.28125 53.65625 
Q 18.109375 42.671875 18.109375 31.390625 
Q 18.109375 20.125 21.3125 9.0625 
Q 24.515625 -2 31 -13.1875 
L 23.1875 -13.1875 
Q 15.875 -1.703125 12.234375 9.375 
Q 8.59375 20.453125 8.59375 31.390625 
Q 8.59375 42.28125 12.203125 53.3125 
Q 15.828125 64.359375 23.1875 75.875 
z
" id="DejaVuSans-28"/>
      <path d="M 52 44.1875 
Q 55.375 50.25 60.0625 53.125 
Q 64.75 56 71.09375 56 
Q 79.640625 56 84.28125 50.015625 
Q 88.921875 44.046875 88.921875 33.015625 
L 88.921875 0 
L 79.890625 0 
L 79.890625 32.71875 
Q 79.890625 40.578125 77.09375 44.375 
Q 74.3125 48.1875 68.609375 48.1875 
Q 61.625 48.1875 57.5625 43.546875 
Q 53.515625 38.921875 53.515625 30.90625 
L 53.515625 0 
L 44.484375 0 
L 44.484375 32.71875 
Q 44.484375 40.625 41.703125 44.40625 
Q 38.921875 48.1875 33.109375 48.1875 
Q 26.21875 48.1875 22.15625 43.53125 
Q 18.109375 38.875 18.109375 30.90625 
L 18.109375 0 
L 9.078125 0 
L 9.078125 54.6875 
L 18.109375 54.6875 
L 18.109375 46.1875 
Q 21.1875 51.21875 25.484375 53.609375 
Q 29.78125 56 35.6875 56 
Q 41.65625 56 45.828125 52.96875 
Q 50 49.953125 52 44.1875 
z
" id="DejaVuSans-6d"/>
      <path d="M 8.015625 75.875 
L 15.828125 75.875 
Q 23.140625 64.359375 26.78125 53.3125 
Q 30.421875 42.28125 30.421875 31.390625 
Q 30.421875 20.453125 26.78125 9.375 
Q 23.140625 -1.703125 15.828125 -13.1875 
L 8.015625 -13.1875 
Q 14.5 -2 17.703125 9.0625 
Q 20.90625 20.125 20.90625 31.390625 
Q 20.90625 42.671875 17.703125 53.65625 
Q 14.5 64.65625 8.015625 75.875 
z
" id="DejaVuSans-29"/>
     </defs>
     <g transform="translate(591.883438 134.956562)scale(0.1 -0.1)">
      <use xlink:href="#DejaVuSans-70"/>
      <use x="63.476562" xlink:href="#DejaVuSans-72"/>
      <use x="104.558594" xlink:href="#DejaVuSans-65"/>
      <use x="166.082031" xlink:href="#DejaVuSans-64"/>
      <use x="229.558594" xlink:href="#DejaVuSans-2e"/>
      <use x="261.345703" xlink:href="#DejaVuSans-20"/>
      <use x="293.132812" xlink:href="#DejaVuSans-28"/>
      <use x="332.146484" xlink:href="#DejaVuSans-6d"/>
      <use x="429.558594" xlink:href="#DejaVuSans-65"/>
      <use x="491.082031" xlink:href="#DejaVuSans-61"/>
      <use x="552.361328" xlink:href="#DejaVuSans-6e"/>
      <use x="615.740234" xlink:href="#DejaVuSans-29"/>
     </g>
    </g>
    <g id="line2d_22">
     <path d="M 563.883438 146.134687 
L 583.883438 146.134687 
" style="fill:none;stroke:#2ca02c;stroke-linecap:square;stroke-width:1.5;"/>
    </g>
    <g id="line2d_23"/>
    <g id="text_17">
     <!-- pred.(5th percen.) -->
     <defs>
      <path d="M 54.890625 33.015625 
L 54.890625 0 
L 45.90625 0 
L 45.90625 32.71875 
Q 45.90625 40.484375 42.875 44.328125 
Q 39.84375 48.1875 33.796875 48.1875 
Q 26.515625 48.1875 22.3125 43.546875 
Q 18.109375 38.921875 18.109375 30.90625 
L 18.109375 0 
L 9.078125 0 
L 9.078125 75.984375 
L 18.109375 75.984375 
L 18.109375 46.1875 
Q 21.34375 51.125 25.703125 53.5625 
Q 30.078125 56 35.796875 56 
Q 45.21875 56 50.046875 50.171875 
Q 54.890625 44.34375 54.890625 33.015625 
z
" id="DejaVuSans-68"/>
     </defs>
     <g transform="translate(591.883438 149.634687)scale(0.1 -0.1)">
      <use xlink:href="#DejaVuSans-70"/>
      <use x="63.476562" xlink:href="#DejaVuSans-72"/>
      <use x="104.558594" xlink:href="#DejaVuSans-65"/>
      <use x="166.082031" xlink:href="#DejaVuSans-64"/>
      <use x="229.558594" xlink:href="#DejaVuSans-2e"/>
      <use x="261.345703" xlink:href="#DejaVuSans-28"/>
      <use x="300.359375" xlink:href="#DejaVuSans-35"/>
      <use x="363.982422" xlink:href="#DejaVuSans-74"/>
      <use x="403.191406" xlink:href="#DejaVuSans-68"/>
      <use x="466.570312" xlink:href="#DejaVuSans-20"/>
      <use x="498.357422" xlink:href="#DejaVuSans-70"/>
      <use x="561.833984" xlink:href="#DejaVuSans-65"/>
      <use x="623.357422" xlink:href="#DejaVuSans-72"/>
      <use x="664.439453" xlink:href="#DejaVuSans-63"/>
      <use x="719.419922" xlink:href="#DejaVuSans-65"/>
      <use x="780.943359" xlink:href="#DejaVuSans-6e"/>
      <use x="844.322266" xlink:href="#DejaVuSans-2e"/>
      <use x="876.109375" xlink:href="#DejaVuSans-29"/>
     </g>
    </g>
    <g id="line2d_24">
     <path d="M 563.883438 160.812812 
L 583.883438 160.812812 
" style="fill:none;stroke:#d62728;stroke-linecap:square;stroke-width:1.5;"/>
    </g>
    <g id="line2d_25"/>
    <g id="text_18">
     <!-- pred.(95th percen.) -->
     <defs>
      <path d="M 10.984375 1.515625 
L 10.984375 10.5 
Q 14.703125 8.734375 18.5 7.8125 
Q 22.3125 6.890625 25.984375 6.890625 
Q 35.75 6.890625 40.890625 13.453125 
Q 46.046875 20.015625 46.78125 33.40625 
Q 43.953125 29.203125 39.59375 26.953125 
Q 35.25 24.703125 29.984375 24.703125 
Q 19.046875 24.703125 12.671875 31.3125 
Q 6.296875 37.9375 6.296875 49.421875 
Q 6.296875 60.640625 12.9375 67.421875 
Q 19.578125 74.21875 30.609375 74.21875 
Q 43.265625 74.21875 49.921875 64.515625 
Q 56.59375 54.828125 56.59375 36.375 
Q 56.59375 19.140625 48.40625 8.859375 
Q 40.234375 -1.421875 26.421875 -1.421875 
Q 22.703125 -1.421875 18.890625 -0.6875 
Q 15.09375 0.046875 10.984375 1.515625 
z
M 30.609375 32.421875 
Q 37.25 32.421875 41.125 36.953125 
Q 45.015625 41.5 45.015625 49.421875 
Q 45.015625 57.28125 41.125 61.84375 
Q 37.25 66.40625 30.609375 66.40625 
Q 23.96875 66.40625 20.09375 61.84375 
Q 16.21875 57.28125 16.21875 49.421875 
Q 16.21875 41.5 20.09375 36.953125 
Q 23.96875 32.421875 30.609375 32.421875 
z
" id="DejaVuSans-39"/>
     </defs>
     <g transform="translate(591.883438 164.312812)scale(0.1 -0.1)">
      <use xlink:href="#DejaVuSans-70"/>
      <use x="63.476562" xlink:href="#DejaVuSans-72"/>
      <use x="104.558594" xlink:href="#DejaVuSans-65"/>
      <use x="166.082031" xlink:href="#DejaVuSans-64"/>
      <use x="229.558594" xlink:href="#DejaVuSans-2e"/>
      <use x="261.345703" xlink:href="#DejaVuSans-28"/>
      <use x="300.359375" xlink:href="#DejaVuSans-39"/>
      <use x="363.982422" xlink:href="#DejaVuSans-35"/>
      <use x="427.605469" xlink:href="#DejaVuSans-74"/>
      <use x="466.814453" xlink:href="#DejaVuSans-68"/>
      <use x="530.193359" xlink:href="#DejaVuSans-20"/>
      <use x="561.980469" xlink:href="#DejaVuSans-70"/>
      <use x="625.457031" xlink:href="#DejaVuSans-65"/>
      <use x="686.980469" xlink:href="#DejaVuSans-72"/>
      <use x="728.0625" xlink:href="#DejaVuSans-63"/>
      <use x="783.042969" xlink:href="#DejaVuSans-65"/>
      <use x="844.566406" xlink:href="#DejaVuSans-6e"/>
      <use x="907.945312" xlink:href="#DejaVuSans-2e"/>
      <use x="939.732422" xlink:href="#DejaVuSans-29"/>
     </g>
    </g>
   </g>
  </g>
 </g>
 <defs>
  <clipPath id="p32055e39d1">
   <rect height="701.28" width="612.45" x="86.31" y="103.68"/>
  </clipPath>
 </defs>
</svg>
