<?xml version="1.0" encoding="utf-8" standalone="no"?>
<!DOCTYPE svg PUBLIC "-//W3C//DTD SVG 1.1//EN"
  "http://www.w3.org/Graphics/SVG/1.1/DTD/svg11.dtd">
<!-- Created with matplotlib (http://matplotlib.org/) -->
<svg height="864pt" version="1.1" viewBox="0 0 720 864" width="720pt" xmlns="http://www.w3.org/2000/svg" xmlns:xlink="http://www.w3.org/1999/xlink">
 <defs>
  <style type="text/css">
*{stroke-linecap:butt;stroke-linejoin:round;}
  </style>
 </defs>
 <g id="figure_1">
  <g id="patch_1">
   <path d="M 0 864 
L 720 864 
L 720 0 
L 0 0 
z
" style="fill:#ffffff;"/>
  </g>
  <g id="axes_1">
   <g id="patch_2">
    <path d="M 86.31 804.96 
L 698.76 804.96 
L 698.76 103.68 
L 86.31 103.68 
z
" style="fill:#ffffff;"/>
   </g>
   <g id="PolyCollection_1">
    <path clip-path="url(#p166150ddf6)" d="M 114.148636 704.343862 
L 114.148636 743.57699 
L 116.023292 743.57699 
L 117.897948 743.57699 
L 119.772603 743.57699 
L 121.647259 737.038135 
L 123.521915 730.49928 
L 125.39657 723.960426 
L 127.271226 704.343862 
L 129.145882 678.188444 
L 131.020537 652.033025 
L 132.895193 606.261043 
L 134.769848 553.950206 
L 136.644504 488.56166 
L 138.51916 416.63426 
L 140.393815 357.784568 
L 142.268471 318.551441 
L 144.143127 305.473731 
L 146.017782 279.318313 
L 147.892438 259.701749 
L 149.767094 253.162895 
L 151.641749 246.62404 
L 153.516405 240.085185 
L 155.391061 240.085185 
L 157.265716 246.62404 
L 159.140372 259.701749 
L 161.015028 266.240604 
L 162.889683 266.240604 
L 164.764339 305.473731 
L 166.638994 312.012586 
L 168.51365 344.706859 
L 170.388306 357.784568 
L 172.262961 416.63426 
L 174.137617 462.406242 
L 176.012273 416.63426 
L 177.886928 383.939987 
L 179.761584 410.095405 
L 181.63624 429.711969 
L 183.510895 423.173114 
L 185.385551 416.63426 
L 187.260207 482.022806 
L 189.134862 514.717079 
L 191.009518 521.255933 
L 192.884174 567.027915 
L 194.758829 586.644479 
L 196.633485 580.105625 
L 198.50814 599.722188 
L 200.382796 625.877607 
L 202.257452 638.955316 
L 204.132107 645.494171 
L 206.006763 652.033025 
L 207.881419 678.188444 
L 209.756074 684.727298 
L 211.63073 684.727298 
L 213.505386 684.727298 
L 215.380041 691.266153 
L 217.254697 704.343862 
L 219.129353 704.343862 
L 221.004008 710.882717 
L 222.878664 723.960426 
L 224.75332 730.49928 
L 226.627975 730.49928 
L 228.502631 730.49928 
L 230.377287 730.49928 
L 232.251942 723.960426 
L 234.126598 723.960426 
L 236.001253 717.421571 
L 237.875909 704.343862 
L 239.750565 684.727298 
L 241.62522 671.649589 
L 243.499876 658.57188 
L 245.374532 652.033025 
L 247.249187 632.416461 
L 249.123843 619.338752 
L 250.998499 606.261043 
L 252.873154 593.183334 
L 254.74781 573.56677 
L 256.622466 540.872497 
L 258.497121 521.255933 
L 260.371777 508.178224 
L 262.246433 508.178224 
L 264.121088 501.639369 
L 265.995744 468.945096 
L 267.870399 403.55655 
L 269.745055 344.706859 
L 271.619711 305.473731 
L 273.494366 285.857168 
L 275.369022 266.240604 
L 277.243678 259.701749 
L 279.118333 272.779458 
L 280.992989 272.779458 
L 282.867645 266.240604 
L 284.7423 266.240604 
L 286.616956 279.318313 
L 288.491612 325.090295 
L 290.366267 338.168004 
L 292.240923 383.939987 
L 294.115579 429.711969 
L 295.990234 442.789678 
L 297.86489 462.406242 
L 299.739545 468.945096 
L 301.614201 468.945096 
L 303.488857 501.639369 
L 305.363512 495.100515 
L 307.238168 488.56166 
L 309.112824 488.56166 
L 310.987479 501.639369 
L 312.862135 508.178224 
L 314.736791 508.178224 
L 316.611446 521.255933 
L 318.486102 527.794788 
L 320.360758 527.794788 
L 322.235413 540.872497 
L 324.110069 547.411352 
L 325.984725 560.489061 
L 327.85938 586.644479 
L 329.734036 599.722188 
L 331.608691 606.261043 
L 333.483347 606.261043 
L 335.358003 612.799898 
L 337.232658 632.416461 
L 339.107314 645.494171 
L 340.98197 658.57188 
L 342.856625 671.649589 
L 344.731281 684.727298 
L 346.605937 697.805007 
L 348.480592 697.805007 
L 350.355248 697.805007 
L 352.229904 710.882717 
L 354.104559 717.421571 
L 355.979215 723.960426 
L 357.853871 737.038135 
L 359.728526 743.57699 
L 361.603182 750.115844 
L 363.477837 750.115844 
L 365.352493 750.115844 
L 367.227149 750.115844 
L 369.101804 750.115844 
L 370.97646 750.115844 
L 372.851116 750.115844 
L 374.725771 743.57699 
L 376.600427 737.038135 
L 378.475083 730.49928 
L 380.349738 710.882717 
L 382.224394 691.266153 
L 384.09905 678.188444 
L 385.973705 658.57188 
L 387.848361 638.955316 
L 389.723017 619.338752 
L 391.597672 586.644479 
L 393.472328 560.489061 
L 395.346983 527.794788 
L 397.221639 482.022806 
L 399.096295 442.789678 
L 400.97095 403.55655 
L 402.845606 377.401132 
L 404.720262 357.784568 
L 406.594917 364.323423 
L 408.469573 364.323423 
L 410.344229 351.245714 
L 412.218884 344.706859 
L 414.09354 364.323423 
L 415.968196 364.323423 
L 417.842851 370.862277 
L 419.717507 364.323423 
L 421.592163 397.017696 
L 423.466818 423.173114 
L 425.341474 436.250823 
L 427.216129 455.867387 
L 429.090785 462.406242 
L 430.965441 501.639369 
L 432.840096 488.56166 
L 434.714752 501.639369 
L 436.589408 514.717079 
L 438.464063 534.333642 
L 440.338719 540.872497 
L 442.213375 540.872497 
L 444.08803 567.027915 
L 445.962686 593.183334 
L 447.837342 606.261043 
L 449.711997 606.261043 
L 451.586653 606.261043 
L 453.461309 612.799898 
L 455.335964 606.261043 
L 457.21062 599.722188 
L 459.085275 593.183334 
L 460.959931 593.183334 
L 462.834587 606.261043 
L 464.709242 612.799898 
L 466.583898 625.877607 
L 468.458554 638.955316 
L 470.333209 652.033025 
L 472.207865 665.110734 
L 474.082521 671.649589 
L 475.957176 678.188444 
L 477.831832 691.266153 
L 479.706488 697.805007 
L 481.581143 704.343862 
L 483.455799 710.882717 
L 485.330455 730.49928 
L 487.20511 737.038135 
L 489.079766 743.57699 
L 490.954421 750.115844 
L 492.829077 750.115844 
L 494.703733 743.57699 
L 496.578388 737.038135 
L 498.453044 723.960426 
L 500.3277 710.882717 
L 502.202355 691.266153 
L 504.077011 671.649589 
L 505.951667 645.494171 
L 507.826322 612.799898 
L 509.700978 586.644479 
L 511.575634 547.411352 
L 513.450289 501.639369 
L 515.324945 475.483951 
L 517.199601 455.867387 
L 519.074256 423.173114 
L 520.948912 357.784568 
L 522.823567 312.012586 
L 524.698223 285.857168 
L 526.572879 266.240604 
L 528.447534 253.162895 
L 530.32219 246.62404 
L 532.196846 246.62404 
L 534.071501 253.162895 
L 535.946157 259.701749 
L 537.820813 292.396022 
L 539.695468 305.473731 
L 541.570124 312.012586 
L 543.44478 357.784568 
L 545.319435 357.784568 
L 547.194091 338.168004 
L 549.068747 325.090295 
L 550.943402 325.090295 
L 552.818058 331.62915 
L 554.692713 351.245714 
L 556.567369 416.63426 
L 558.442025 442.789678 
L 560.31668 488.56166 
L 562.191336 514.717079 
L 564.065992 540.872497 
L 565.940647 573.56677 
L 567.815303 573.56677 
L 569.689959 573.56677 
L 571.564614 586.644479 
L 573.43927 612.799898 
L 575.313926 638.955316 
L 577.188581 645.494171 
L 579.063237 665.110734 
L 580.937893 691.266153 
L 582.812548 704.343862 
L 584.687204 710.882717 
L 586.56186 710.882717 
L 588.436515 717.421571 
L 590.311171 730.49928 
L 592.185826 730.49928 
L 594.060482 730.49928 
L 595.935138 730.49928 
L 597.809793 730.49928 
L 599.684449 730.49928 
L 601.559105 723.960426 
L 603.43376 723.960426 
L 605.308416 723.960426 
L 607.183072 730.49928 
L 609.057727 730.49928 
L 610.932383 737.038135 
L 612.807039 743.57699 
L 614.681694 743.57699 
L 616.55635 750.115844 
L 618.431006 750.115844 
L 620.305661 750.115844 
L 622.180317 756.654699 
L 624.054972 756.654699 
L 625.929628 750.115844 
L 627.804284 750.115844 
L 629.678939 743.57699 
L 631.553595 737.038135 
L 633.428251 723.960426 
L 635.302906 717.421571 
L 637.177562 697.805007 
L 639.052218 671.649589 
L 640.926873 658.57188 
L 642.801529 645.494171 
L 644.676185 625.877607 
L 646.55084 606.261043 
L 648.425496 586.644479 
L 650.300152 573.56677 
L 652.174807 560.489061 
L 654.049463 547.411352 
L 655.924118 527.794788 
L 657.798774 521.255933 
L 659.67343 540.872497 
L 661.548085 534.333642 
L 663.422741 527.794788 
L 665.297397 534.333642 
L 667.172052 553.950206 
L 669.046708 553.950206 
L 670.921364 534.333642 
L 670.921364 514.717079 
L 670.921364 514.717079 
L 669.046708 534.333642 
L 667.172052 534.333642 
L 665.297397 521.255933 
L 663.422741 508.178224 
L 661.548085 521.255933 
L 659.67343 521.255933 
L 657.798774 501.639369 
L 655.924118 501.639369 
L 654.049463 527.794788 
L 652.174807 534.333642 
L 650.300152 553.950206 
L 648.425496 553.950206 
L 646.55084 573.56677 
L 644.676185 593.183334 
L 642.801529 619.338752 
L 640.926873 638.955316 
L 639.052218 652.033025 
L 637.177562 678.188444 
L 635.302906 691.266153 
L 633.428251 697.805007 
L 631.553595 704.343862 
L 629.678939 710.882717 
L 627.804284 710.882717 
L 625.929628 710.882717 
L 624.054972 710.882717 
L 622.180317 710.882717 
L 620.305661 710.882717 
L 618.431006 710.882717 
L 616.55635 710.882717 
L 614.681694 704.343862 
L 612.807039 704.343862 
L 610.932383 697.805007 
L 609.057727 697.805007 
L 607.183072 697.805007 
L 605.308416 691.266153 
L 603.43376 691.266153 
L 601.559105 697.805007 
L 599.684449 697.805007 
L 597.809793 697.805007 
L 595.935138 697.805007 
L 594.060482 697.805007 
L 592.185826 697.805007 
L 590.311171 691.266153 
L 588.436515 691.266153 
L 586.56186 684.727298 
L 584.687204 678.188444 
L 582.812548 671.649589 
L 580.937893 658.57188 
L 579.063237 638.955316 
L 577.188581 625.877607 
L 575.313926 606.261043 
L 573.43927 586.644479 
L 571.564614 567.027915 
L 569.689959 553.950206 
L 567.815303 553.950206 
L 565.940647 534.333642 
L 564.065992 501.639369 
L 562.191336 468.945096 
L 560.31668 423.173114 
L 558.442025 383.939987 
L 556.567369 351.245714 
L 554.692713 318.551441 
L 552.818058 312.012586 
L 550.943402 312.012586 
L 549.068747 312.012586 
L 547.194091 325.090295 
L 545.319435 318.551441 
L 543.44478 312.012586 
L 541.570124 285.857168 
L 539.695468 272.779458 
L 537.820813 259.701749 
L 535.946157 240.085185 
L 534.071501 220.468622 
L 532.196846 200.852058 
L 530.32219 194.313203 
L 528.447534 187.774349 
L 526.572879 194.313203 
L 524.698223 227.007476 
L 522.823567 259.701749 
L 520.948912 285.857168 
L 519.074256 383.939987 
L 517.199601 436.250823 
L 515.324945 455.867387 
L 513.450289 455.867387 
L 511.575634 488.56166 
L 509.700978 553.950206 
L 507.826322 573.56677 
L 505.951667 606.261043 
L 504.077011 645.494171 
L 502.202355 678.188444 
L 500.3277 684.727298 
L 498.453044 697.805007 
L 496.578388 704.343862 
L 494.703733 704.343862 
L 492.829077 710.882717 
L 490.954421 704.343862 
L 489.079766 704.343862 
L 487.20511 697.805007 
L 485.330455 691.266153 
L 483.455799 684.727298 
L 481.581143 678.188444 
L 479.706488 671.649589 
L 477.831832 665.110734 
L 475.957176 658.57188 
L 474.082521 652.033025 
L 472.207865 638.955316 
L 470.333209 632.416461 
L 468.458554 619.338752 
L 466.583898 606.261043 
L 464.709242 593.183334 
L 462.834587 580.105625 
L 460.959931 573.56677 
L 459.085275 573.56677 
L 457.21062 573.56677 
L 455.335964 586.644479 
L 453.461309 586.644479 
L 451.586653 586.644479 
L 449.711997 586.644479 
L 447.837342 586.644479 
L 445.962686 567.027915 
L 444.08803 540.872497 
L 442.213375 521.255933 
L 440.338719 521.255933 
L 438.464063 514.717079 
L 436.589408 495.100515 
L 434.714752 482.022806 
L 432.840096 475.483951 
L 430.965441 455.867387 
L 429.090785 429.711969 
L 427.216129 416.63426 
L 425.341474 397.017696 
L 423.466818 377.401132 
L 421.592163 357.784568 
L 419.717507 344.706859 
L 417.842851 344.706859 
L 415.968196 338.168004 
L 414.09354 338.168004 
L 412.218884 325.090295 
L 410.344229 331.62915 
L 408.469573 344.706859 
L 406.594917 344.706859 
L 404.720262 338.168004 
L 402.845606 351.245714 
L 400.97095 370.862277 
L 399.096295 403.55655 
L 397.221639 442.789678 
L 395.346983 482.022806 
L 393.472328 521.255933 
L 391.597672 547.411352 
L 389.723017 580.105625 
L 387.848361 612.799898 
L 385.973705 625.877607 
L 384.09905 658.57188 
L 382.224394 678.188444 
L 380.349738 691.266153 
L 378.475083 697.805007 
L 376.600427 704.343862 
L 374.725771 704.343862 
L 372.851116 710.882717 
L 370.97646 710.882717 
L 369.101804 710.882717 
L 367.227149 710.882717 
L 365.352493 710.882717 
L 363.477837 710.882717 
L 361.603182 704.343862 
L 359.728526 704.343862 
L 357.853871 697.805007 
L 355.979215 691.266153 
L 354.104559 684.727298 
L 352.229904 678.188444 
L 350.355248 678.188444 
L 348.480592 671.649589 
L 346.605937 671.649589 
L 344.731281 658.57188 
L 342.856625 645.494171 
L 340.98197 638.955316 
L 339.107314 625.877607 
L 337.232658 606.261043 
L 335.358003 593.183334 
L 333.483347 580.105625 
L 331.608691 586.644479 
L 329.734036 580.105625 
L 327.85938 560.489061 
L 325.984725 540.872497 
L 324.110069 534.333642 
L 322.235413 521.255933 
L 320.360758 514.717079 
L 318.486102 514.717079 
L 316.611446 501.639369 
L 314.736791 495.100515 
L 312.862135 488.56166 
L 310.987479 482.022806 
L 309.112824 475.483951 
L 307.238168 475.483951 
L 305.363512 482.022806 
L 303.488857 468.945096 
L 301.614201 449.328533 
L 299.739545 436.250823 
L 297.86489 423.173114 
L 295.990234 397.017696 
L 294.115579 364.323423 
L 292.240923 325.090295 
L 290.366267 298.934877 
L 288.491612 279.318313 
L 286.616956 259.701749 
L 284.7423 240.085185 
L 282.867645 227.007476 
L 280.992989 240.085185 
L 279.118333 246.62404 
L 277.243678 207.390912 
L 275.369022 213.929767 
L 273.494366 233.546331 
L 271.619711 253.162895 
L 269.745055 285.857168 
L 267.870399 331.62915 
L 265.995744 429.711969 
L 264.121088 482.022806 
L 262.246433 495.100515 
L 260.371777 495.100515 
L 258.497121 501.639369 
L 256.622466 501.639369 
L 254.74781 534.333642 
L 252.873154 560.489061 
L 250.998499 580.105625 
L 249.123843 593.183334 
L 247.249187 599.722188 
L 245.374532 625.877607 
L 243.499876 638.955316 
L 241.62522 652.033025 
L 239.750565 671.649589 
L 237.875909 684.727298 
L 236.001253 691.266153 
L 234.126598 691.266153 
L 232.251942 697.805007 
L 230.377287 697.805007 
L 228.502631 697.805007 
L 226.627975 697.805007 
L 224.75332 697.805007 
L 222.878664 691.266153 
L 221.004008 684.727298 
L 219.129353 678.188444 
L 217.254697 678.188444 
L 215.380041 671.649589 
L 213.505386 665.110734 
L 211.63073 665.110734 
L 209.756074 658.57188 
L 207.881419 645.494171 
L 206.006763 632.416461 
L 204.132107 625.877607 
L 202.257452 619.338752 
L 200.382796 599.722188 
L 198.50814 580.105625 
L 196.633485 567.027915 
L 194.758829 553.950206 
L 192.884174 521.255933 
L 191.009518 488.56166 
L 189.134862 462.406242 
L 187.260207 423.173114 
L 185.385551 397.017696 
L 183.510895 397.017696 
L 181.63624 397.017696 
L 179.761584 377.401132 
L 177.886928 364.323423 
L 176.012273 390.478841 
L 174.137617 390.478841 
L 172.262961 351.245714 
L 170.388306 318.551441 
L 168.51365 298.934877 
L 166.638994 279.318313 
L 164.764339 266.240604 
L 162.889683 240.085185 
L 161.015028 233.546331 
L 159.140372 233.546331 
L 157.265716 207.390912 
L 155.391061 181.235494 
L 153.516405 174.696639 
L 151.641749 187.774349 
L 149.767094 194.313203 
L 147.892438 181.235494 
L 146.017782 220.468622 
L 144.143127 279.318313 
L 142.268471 279.318313 
L 140.393815 298.934877 
L 138.51916 351.245714 
L 136.644504 423.173114 
L 134.769848 495.100515 
L 132.895193 540.872497 
L 131.020537 619.338752 
L 129.145882 665.110734 
L 127.271226 684.727298 
L 125.39657 691.266153 
L 123.521915 697.805007 
L 121.647259 704.343862 
L 119.772603 704.343862 
L 117.897948 704.343862 
L 116.023292 704.343862 
L 114.148636 704.343862 
z
" style="fill:#008000;fill-opacity:0.4;"/>
   </g>
   <g id="matplotlib.axis_1">
    <g id="xtick_1">
     <g id="line2d_1">
      <defs>
       <path d="M 0 0 
L 0 3.5 
" id="mddd0d5584c" style="stroke:#000000;stroke-width:0.8;"/>
      </defs>
      <g>
       <use style="stroke:#000000;stroke-width:0.8;" x="114.148636" xlink:href="#mddd0d5584c" y="804.96"/>
      </g>
     </g>
     <g id="text_1">
      <!-- 0.0 -->
      <defs>
       <path d="M 31.78125 66.40625 
Q 24.171875 66.40625 20.328125 58.90625 
Q 16.5 51.421875 16.5 36.375 
Q 16.5 21.390625 20.328125 13.890625 
Q 24.171875 6.390625 31.78125 6.390625 
Q 39.453125 6.390625 43.28125 13.890625 
Q 47.125 21.390625 47.125 36.375 
Q 47.125 51.421875 43.28125 58.90625 
Q 39.453125 66.40625 31.78125 66.40625 
z
M 31.78125 74.21875 
Q 44.046875 74.21875 50.515625 64.515625 
Q 56.984375 54.828125 56.984375 36.375 
Q 56.984375 17.96875 50.515625 8.265625 
Q 44.046875 -1.421875 31.78125 -1.421875 
Q 19.53125 -1.421875 13.0625 8.265625 
Q 6.59375 17.96875 6.59375 36.375 
Q 6.59375 54.828125 13.0625 64.515625 
Q 19.53125 74.21875 31.78125 74.21875 
z
" id="DejaVuSans-30"/>
       <path d="M 10.6875 12.40625 
L 21 12.40625 
L 21 0 
L 10.6875 0 
z
" id="DejaVuSans-2e"/>
      </defs>
      <g transform="translate(106.197074 819.558437)scale(0.1 -0.1)">
       <use xlink:href="#DejaVuSans-30"/>
       <use x="63.623047" xlink:href="#DejaVuSans-2e"/>
       <use x="95.410156" xlink:href="#DejaVuSans-30"/>
      </g>
     </g>
    </g>
    <g id="xtick_2">
     <g id="line2d_2">
      <g>
       <use style="stroke:#000000;stroke-width:0.8;" x="225.503182" xlink:href="#mddd0d5584c" y="804.96"/>
      </g>
     </g>
     <g id="text_2">
      <!-- 0.2 -->
      <defs>
       <path d="M 19.1875 8.296875 
L 53.609375 8.296875 
L 53.609375 0 
L 7.328125 0 
L 7.328125 8.296875 
Q 12.9375 14.109375 22.625 23.890625 
Q 32.328125 33.6875 34.8125 36.53125 
Q 39.546875 41.84375 41.421875 45.53125 
Q 43.3125 49.21875 43.3125 52.78125 
Q 43.3125 58.59375 39.234375 62.25 
Q 35.15625 65.921875 28.609375 65.921875 
Q 23.96875 65.921875 18.8125 64.3125 
Q 13.671875 62.703125 7.8125 59.421875 
L 7.8125 69.390625 
Q 13.765625 71.78125 18.9375 73 
Q 24.125 74.21875 28.421875 74.21875 
Q 39.75 74.21875 46.484375 68.546875 
Q 53.21875 62.890625 53.21875 53.421875 
Q 53.21875 48.921875 51.53125 44.890625 
Q 49.859375 40.875 45.40625 35.40625 
Q 44.1875 33.984375 37.640625 27.21875 
Q 31.109375 20.453125 19.1875 8.296875 
z
" id="DejaVuSans-32"/>
      </defs>
      <g transform="translate(217.551619 819.558437)scale(0.1 -0.1)">
       <use xlink:href="#DejaVuSans-30"/>
       <use x="63.623047" xlink:href="#DejaVuSans-2e"/>
       <use x="95.410156" xlink:href="#DejaVuSans-32"/>
      </g>
     </g>
    </g>
    <g id="xtick_3">
     <g id="line2d_3">
      <g>
       <use style="stroke:#000000;stroke-width:0.8;" x="336.857727" xlink:href="#mddd0d5584c" y="804.96"/>
      </g>
     </g>
     <g id="text_3">
      <!-- 0.4 -->
      <defs>
       <path d="M 37.796875 64.3125 
L 12.890625 25.390625 
L 37.796875 25.390625 
z
M 35.203125 72.90625 
L 47.609375 72.90625 
L 47.609375 25.390625 
L 58.015625 25.390625 
L 58.015625 17.1875 
L 47.609375 17.1875 
L 47.609375 0 
L 37.796875 0 
L 37.796875 17.1875 
L 4.890625 17.1875 
L 4.890625 26.703125 
z
" id="DejaVuSans-34"/>
      </defs>
      <g transform="translate(328.906165 819.558437)scale(0.1 -0.1)">
       <use xlink:href="#DejaVuSans-30"/>
       <use x="63.623047" xlink:href="#DejaVuSans-2e"/>
       <use x="95.410156" xlink:href="#DejaVuSans-34"/>
      </g>
     </g>
    </g>
    <g id="xtick_4">
     <g id="line2d_4">
      <g>
       <use style="stroke:#000000;stroke-width:0.8;" x="448.212273" xlink:href="#mddd0d5584c" y="804.96"/>
      </g>
     </g>
     <g id="text_4">
      <!-- 0.6 -->
      <defs>
       <path d="M 33.015625 40.375 
Q 26.375 40.375 22.484375 35.828125 
Q 18.609375 31.296875 18.609375 23.390625 
Q 18.609375 15.53125 22.484375 10.953125 
Q 26.375 6.390625 33.015625 6.390625 
Q 39.65625 6.390625 43.53125 10.953125 
Q 47.40625 15.53125 47.40625 23.390625 
Q 47.40625 31.296875 43.53125 35.828125 
Q 39.65625 40.375 33.015625 40.375 
z
M 52.59375 71.296875 
L 52.59375 62.3125 
Q 48.875 64.0625 45.09375 64.984375 
Q 41.3125 65.921875 37.59375 65.921875 
Q 27.828125 65.921875 22.671875 59.328125 
Q 17.53125 52.734375 16.796875 39.40625 
Q 19.671875 43.65625 24.015625 45.921875 
Q 28.375 48.1875 33.59375 48.1875 
Q 44.578125 48.1875 50.953125 41.515625 
Q 57.328125 34.859375 57.328125 23.390625 
Q 57.328125 12.15625 50.6875 5.359375 
Q 44.046875 -1.421875 33.015625 -1.421875 
Q 20.359375 -1.421875 13.671875 8.265625 
Q 6.984375 17.96875 6.984375 36.375 
Q 6.984375 53.65625 15.1875 63.9375 
Q 23.390625 74.21875 37.203125 74.21875 
Q 40.921875 74.21875 44.703125 73.484375 
Q 48.484375 72.75 52.59375 71.296875 
z
" id="DejaVuSans-36"/>
      </defs>
      <g transform="translate(440.26071 819.558437)scale(0.1 -0.1)">
       <use xlink:href="#DejaVuSans-30"/>
       <use x="63.623047" xlink:href="#DejaVuSans-2e"/>
       <use x="95.410156" xlink:href="#DejaVuSans-36"/>
      </g>
     </g>
    </g>
    <g id="xtick_5">
     <g id="line2d_5">
      <g>
       <use style="stroke:#000000;stroke-width:0.8;" x="559.566818" xlink:href="#mddd0d5584c" y="804.96"/>
      </g>
     </g>
     <g id="text_5">
      <!-- 0.8 -->
      <defs>
       <path d="M 31.78125 34.625 
Q 24.75 34.625 20.71875 30.859375 
Q 16.703125 27.09375 16.703125 20.515625 
Q 16.703125 13.921875 20.71875 10.15625 
Q 24.75 6.390625 31.78125 6.390625 
Q 38.8125 6.390625 42.859375 10.171875 
Q 46.921875 13.96875 46.921875 20.515625 
Q 46.921875 27.09375 42.890625 30.859375 
Q 38.875 34.625 31.78125 34.625 
z
M 21.921875 38.8125 
Q 15.578125 40.375 12.03125 44.71875 
Q 8.5 49.078125 8.5 55.328125 
Q 8.5 64.0625 14.71875 69.140625 
Q 20.953125 74.21875 31.78125 74.21875 
Q 42.671875 74.21875 48.875 69.140625 
Q 55.078125 64.0625 55.078125 55.328125 
Q 55.078125 49.078125 51.53125 44.71875 
Q 48 40.375 41.703125 38.8125 
Q 48.828125 37.15625 52.796875 32.3125 
Q 56.78125 27.484375 56.78125 20.515625 
Q 56.78125 9.90625 50.3125 4.234375 
Q 43.84375 -1.421875 31.78125 -1.421875 
Q 19.734375 -1.421875 13.25 4.234375 
Q 6.78125 9.90625 6.78125 20.515625 
Q 6.78125 27.484375 10.78125 32.3125 
Q 14.796875 37.15625 21.921875 38.8125 
z
M 18.3125 54.390625 
Q 18.3125 48.734375 21.84375 45.5625 
Q 25.390625 42.390625 31.78125 42.390625 
Q 38.140625 42.390625 41.71875 45.5625 
Q 45.3125 48.734375 45.3125 54.390625 
Q 45.3125 60.0625 41.71875 63.234375 
Q 38.140625 66.40625 31.78125 66.40625 
Q 25.390625 66.40625 21.84375 63.234375 
Q 18.3125 60.0625 18.3125 54.390625 
z
" id="DejaVuSans-38"/>
      </defs>
      <g transform="translate(551.615256 819.558437)scale(0.1 -0.1)">
       <use xlink:href="#DejaVuSans-30"/>
       <use x="63.623047" xlink:href="#DejaVuSans-2e"/>
       <use x="95.410156" xlink:href="#DejaVuSans-38"/>
      </g>
     </g>
    </g>
    <g id="xtick_6">
     <g id="line2d_6">
      <g>
       <use style="stroke:#000000;stroke-width:0.8;" x="670.921364" xlink:href="#mddd0d5584c" y="804.96"/>
      </g>
     </g>
     <g id="text_6">
      <!-- 1.0 -->
      <defs>
       <path d="M 12.40625 8.296875 
L 28.515625 8.296875 
L 28.515625 63.921875 
L 10.984375 60.40625 
L 10.984375 69.390625 
L 28.421875 72.90625 
L 38.28125 72.90625 
L 38.28125 8.296875 
L 54.390625 8.296875 
L 54.390625 0 
L 12.40625 0 
z
" id="DejaVuSans-31"/>
      </defs>
      <g transform="translate(662.969801 819.558437)scale(0.1 -0.1)">
       <use xlink:href="#DejaVuSans-31"/>
       <use x="63.623047" xlink:href="#DejaVuSans-2e"/>
       <use x="95.410156" xlink:href="#DejaVuSans-30"/>
      </g>
     </g>
    </g>
   </g>
   <g id="matplotlib.axis_2">
    <g id="ytick_1">
     <g id="line2d_7">
      <defs>
       <path d="M 0 0 
L -3.5 0 
" id="m4ee297e648" style="stroke:#000000;stroke-width:0.8;"/>
      </defs>
      <g>
       <use style="stroke:#000000;stroke-width:0.8;" x="86.31" xlink:href="#m4ee297e648" y="782.810117"/>
      </g>
     </g>
     <g id="text_7">
      <!-- 0.0 -->
      <g transform="translate(63.406875 786.609336)scale(0.1 -0.1)">
       <use xlink:href="#DejaVuSans-30"/>
       <use x="63.623047" xlink:href="#DejaVuSans-2e"/>
       <use x="95.410156" xlink:href="#DejaVuSans-30"/>
      </g>
     </g>
    </g>
    <g id="ytick_2">
     <g id="line2d_8">
      <g>
       <use style="stroke:#000000;stroke-width:0.8;" x="86.31" xlink:href="#m4ee297e648" y="652.033025"/>
      </g>
     </g>
     <g id="text_8">
      <!-- 0.2 -->
      <g transform="translate(63.406875 655.832244)scale(0.1 -0.1)">
       <use xlink:href="#DejaVuSans-30"/>
       <use x="63.623047" xlink:href="#DejaVuSans-2e"/>
       <use x="95.410156" xlink:href="#DejaVuSans-32"/>
      </g>
     </g>
    </g>
    <g id="ytick_3">
     <g id="line2d_9">
      <g>
       <use style="stroke:#000000;stroke-width:0.8;" x="86.31" xlink:href="#m4ee297e648" y="521.255933"/>
      </g>
     </g>
     <g id="text_9">
      <!-- 0.4 -->
      <g transform="translate(63.406875 525.055152)scale(0.1 -0.1)">
       <use xlink:href="#DejaVuSans-30"/>
       <use x="63.623047" xlink:href="#DejaVuSans-2e"/>
       <use x="95.410156" xlink:href="#DejaVuSans-34"/>
      </g>
     </g>
    </g>
    <g id="ytick_4">
     <g id="line2d_10">
      <g>
       <use style="stroke:#000000;stroke-width:0.8;" x="86.31" xlink:href="#m4ee297e648" y="390.478841"/>
      </g>
     </g>
     <g id="text_10">
      <!-- 0.6 -->
      <g transform="translate(63.406875 394.27806)scale(0.1 -0.1)">
       <use xlink:href="#DejaVuSans-30"/>
       <use x="63.623047" xlink:href="#DejaVuSans-2e"/>
       <use x="95.410156" xlink:href="#DejaVuSans-36"/>
      </g>
     </g>
    </g>
    <g id="ytick_5">
     <g id="line2d_11">
      <g>
       <use style="stroke:#000000;stroke-width:0.8;" x="86.31" xlink:href="#m4ee297e648" y="259.701749"/>
      </g>
     </g>
     <g id="text_11">
      <!-- 0.8 -->
      <g transform="translate(63.406875 263.500968)scale(0.1 -0.1)">
       <use xlink:href="#DejaVuSans-30"/>
       <use x="63.623047" xlink:href="#DejaVuSans-2e"/>
       <use x="95.410156" xlink:href="#DejaVuSans-38"/>
      </g>
     </g>
    </g>
    <g id="ytick_6">
     <g id="line2d_12">
      <g>
       <use style="stroke:#000000;stroke-width:0.8;" x="86.31" xlink:href="#m4ee297e648" y="128.924657"/>
      </g>
     </g>
     <g id="text_12">
      <!-- 1.0 -->
      <g transform="translate(63.406875 132.723876)scale(0.1 -0.1)">
       <use xlink:href="#DejaVuSans-31"/>
       <use x="63.623047" xlink:href="#DejaVuSans-2e"/>
       <use x="95.410156" xlink:href="#DejaVuSans-30"/>
      </g>
     </g>
    </g>
   </g>
   <g id="line2d_13">
    <path clip-path="url(#p166150ddf6)" d="M 114.148636 749.651651 
L 116.023292 750.093743 
L 117.897948 748.32531 
L 119.772603 745.672627 
L 121.647259 728.872283 
L 123.521915 722.240576 
L 125.39657 704.113694 
L 127.271226 675.376736 
L 129.145882 641.776178 
L 131.020537 586.069714 
L 132.895193 539.205743 
L 134.769848 486.152092 
L 138.51916 370.318245 
L 140.393815 323.454274 
L 142.268471 308.864781 
L 144.143127 269.51657 
L 146.017782 196.5678 
L 147.892438 171.809735 
L 149.767094 166.062082 
L 151.641749 138.209177 
L 153.516405 135.556364 
L 155.391061 157.219589 
L 157.265716 204.084214 
L 159.140372 220.441812 
L 161.015028 224.863386 
L 162.889683 266.863757 
L 164.764339 291.180449 
L 166.638994 317.707275 
L 168.51365 338.04442 
L 170.388306 369.876218 
L 172.262961 420.277056 
L 174.137617 426.466735 
L 176.012273 395.076964 
L 177.886928 401.266644 
L 179.761584 415.856136 
L 181.63624 421.161763 
L 183.510895 415.856136 
L 185.385551 439.730148 
L 187.260207 481.289146 
L 189.134862 494.994585 
L 191.009518 528.595144 
L 192.884174 558.216809 
L 194.758829 562.195702 
L 196.633485 575.017088 
L 198.50814 597.12234 
L 200.382796 617.459485 
L 202.257452 623.207139 
L 204.132107 629.838845 
L 206.006763 654.597564 
L 207.881419 670.07111 
L 209.756074 677.586869 
L 211.63073 671.83987 
L 213.505386 682.008442 
L 215.380041 693.503095 
L 217.254697 699.692775 
L 219.129353 705.440428 
L 221.004008 719.587894 
L 222.878664 734.619805 
L 224.75332 734.619805 
L 226.627975 728.430191 
L 228.502631 731.082873 
L 230.377287 726.2196 
L 232.251942 719.587894 
L 234.126598 718.261618 
L 236.001253 705.440428 
L 237.875909 682.450469 
L 239.750565 657.249723 
L 241.62522 647.081151 
L 243.499876 633.817738 
L 245.374532 612.596539 
L 247.249187 599.333127 
L 249.123843 588.280501 
L 250.998499 575.459115 
L 252.873154 559.100862 
L 254.74781 523.731544 
L 256.622466 511.794865 
L 258.497121 503.394398 
L 260.371777 500.741585 
L 262.246433 495.878639 
L 264.121088 474.214759 
L 269.745055 299.580262 
L 271.619711 267.305783 
L 273.494366 238.126799 
L 275.369022 199.66264 
L 277.243678 231.937119 
L 279.118333 240.779612 
L 280.992989 228.400252 
L 282.867645 230.168359 
L 284.7423 247.853345 
L 286.616956 291.180449 
L 288.491612 316.822568 
L 290.366267 345.56018 
L 292.240923 393.75023 
L 294.115579 417.182216 
L 295.990234 437.077335 
L 297.86489 454.762321 
L 299.739545 458.741214 
L 301.614201 481.731173 
L 303.488857 486.152092 
L 305.363512 487.478172 
L 307.238168 486.152092 
L 309.112824 489.246932 
L 310.987479 498.531452 
L 312.862135 499.415505 
L 314.736791 507.373291 
L 316.611446 514.004997 
L 318.486102 518.426571 
L 320.360758 522.405464 
L 322.235413 536.110903 
L 324.110069 538.763716 
L 325.984725 557.774782 
L 327.85938 574.132381 
L 329.734036 586.069714 
L 331.608691 583.858927 
L 333.483347 588.280501 
L 337.232658 624.091192 
L 339.107314 638.239311 
L 340.98197 649.733964 
L 342.856625 669.629083 
L 344.731281 685.545309 
L 346.605937 691.292962 
L 348.480592 694.387148 
L 350.355248 701.461535 
L 354.104559 725.777508 
L 355.979215 736.83033 
L 357.853871 749.651651 
L 359.728526 758.935974 
L 361.603182 766.009838 
L 363.477837 768.662521 
L 365.352493 766.894022 
L 367.227149 765.567681 
L 369.101804 764.683497 
L 370.97646 758.493882 
L 372.851116 755.399108 
L 374.725771 742.135695 
L 376.600427 731.524965 
L 380.349738 687.756096 
L 382.224394 667.860977 
L 384.09905 638.681338 
L 385.973705 623.649165 
L 387.848361 598.449073 
L 389.723017 568.385382 
L 391.597672 545.837449 
L 395.346983 483.941306 
L 397.221639 449.014668 
L 399.096295 417.624896 
L 402.845606 370.760271 
L 404.720262 368.108112 
L 406.594917 367.666085 
L 408.469573 360.591699 
L 410.344229 349.539073 
L 412.218884 360.591699 
L 414.09354 361.918432 
L 415.968196 368.550138 
L 417.842851 365.013272 
L 419.717507 382.255578 
L 421.592163 403.476776 
L 423.466818 415.414109 
L 425.341474 438.846095 
L 427.216129 443.709041 
L 429.090785 475.541493 
L 432.840096 487.920852 
L 436.589408 514.004997 
L 438.464063 528.595144 
L 440.338719 523.731544 
L 442.213375 538.32169 
L 444.08803 563.963808 
L 445.962686 583.416901 
L 447.837342 588.280501 
L 449.711997 586.51174 
L 453.461309 591.817367 
L 455.335964 579.438008 
L 457.21062 576.785194 
L 459.085275 572.806301 
L 460.959931 579.880034 
L 462.834587 592.70142 
L 464.709242 600.21718 
L 466.583898 618.344192 
L 468.458554 627.186032 
L 470.333209 645.313044 
L 472.207865 654.597564 
L 474.082521 662.55535 
L 475.957176 675.818763 
L 477.831832 689.966229 
L 479.706488 700.134801 
L 481.581143 708.535268 
L 483.455799 729.31444 
L 485.330455 744.346286 
L 487.20511 753.188517 
L 489.079766 758.935974 
L 490.954421 759.378132 
L 492.829077 754.957016 
L 494.703733 742.135695 
L 496.578388 727.103849 
L 500.3277 687.313415 
L 502.202355 659.46051 
L 504.077011 624.533872 
L 505.951667 591.817367 
L 507.826322 573.248328 
L 509.700978 529.479197 
L 511.575634 495.878639 
L 513.450289 475.98352 
L 515.324945 462.27808 
L 517.199601 439.730148 
L 519.074256 368.992165 
L 520.948912 315.496488 
L 522.823567 269.51657 
L 524.698223 219.557759 
L 526.572879 173.135815 
L 528.447534 162.525216 
L 530.32219 165.620055 
L 532.196846 184.189095 
L 534.071501 211.157947 
L 535.946157 250.505504 
L 537.820813 283.664036 
L 539.695468 295.159342 
L 541.570124 327.433821 
L 543.44478 349.097046 
L 545.319435 348.212993 
L 547.194091 336.27566 
L 549.068747 332.296767 
L 550.943402 333.622847 
L 552.818058 337.159713 
L 554.692713 375.623871 
L 556.567369 406.571616 
L 560.31668 483.499279 
L 562.191336 507.373291 
L 564.065992 542.742609 
L 565.940647 552.911182 
L 567.815303 555.121969 
L 569.689959 566.174595 
L 571.564614 581.648794 
L 573.43927 610.385753 
L 575.313926 623.207139 
L 577.188581 638.681338 
L 579.063237 670.513136 
L 580.937893 692.177015 
L 582.812548 704.113694 
L 584.687204 708.977294 
L 586.56186 716.051027 
L 588.436515 727.545941 
L 590.311171 731.967122 
L 592.185826 729.756532 
L 594.060482 732.851306 
L 595.935138 730.640781 
L 597.809793 735.946146 
L 599.684449 724.893259 
L 601.559105 726.661757 
L 603.43376 725.777508 
L 605.308416 726.661757 
L 607.183072 735.946146 
L 609.057727 740.809354 
L 610.932383 750.977992 
L 612.807039 755.8412 
L 614.681694 762.030814 
L 616.55635 767.336179 
L 618.431006 769.546705 
L 620.305661 772.641544 
L 622.180317 773.083636 
L 625.929628 764.241339 
L 627.804284 757.609633 
L 631.553595 728.430191 
L 633.428251 712.956187 
L 635.302906 695.271855 
L 637.177562 660.78659 
L 639.052218 644.428991 
L 640.926873 630.722898 
L 642.801529 608.17562 
L 644.676185 590.048607 
L 646.55084 563.079755 
L 648.425496 562.195702 
L 650.300152 545.837449 
L 652.174807 536.55293 
L 654.049463 519.752651 
L 655.924118 506.931264 
L 657.798774 524.616251 
L 659.67343 527.26841 
L 661.548085 518.426571 
L 663.422741 517.541864 
L 665.297397 533.016063 
L 667.172052 541.858556 
L 669.046708 522.405464 
L 670.921364 518.426571 
L 670.921364 518.426571 
" style="fill:none;stroke:#1f77b4;stroke-linecap:square;stroke-width:1.5;"/>
   </g>
   <g id="line2d_14">
    <path clip-path="url(#p166150ddf6)" d="M 114.148636 720.296419 
L 116.023292 721.097021 
L 119.772603 720.60865 
L 121.647259 717.617941 
L 123.521915 709.975961 
L 125.39657 705.109828 
L 127.271226 690.955149 
L 129.145882 669.87337 
L 131.020537 634.171633 
L 132.895193 573.5823 
L 134.769848 521.223648 
L 138.51916 384.613489 
L 140.393815 328.793228 
L 142.268471 300.765961 
L 144.143127 294.554457 
L 146.017782 251.157408 
L 147.892438 220.578148 
L 149.767094 222.272426 
L 151.641749 218.37721 
L 153.516405 208.882589 
L 155.391061 212.950165 
L 157.265716 228.784206 
L 159.140372 253.547257 
L 161.015028 250.141535 
L 162.889683 258.807561 
L 164.764339 290.113042 
L 166.638994 302.310561 
L 168.51365 326.801534 
L 170.388306 339.455546 
L 172.262961 382.616584 
L 174.137617 428.488999 
L 176.012273 404.103873 
L 177.886928 376.382705 
L 179.761584 395.478919 
L 181.63624 411.689762 
L 183.510895 409.729127 
L 185.385551 408.073162 
L 187.260207 452.160776 
L 189.134862 492.36145 
L 191.009518 505.551954 
L 192.884174 546.85279 
L 194.758829 570.725433 
L 196.633485 572.661752 
L 198.50814 589.76055 
L 200.382796 612.866717 
L 202.257452 628.101226 
L 204.132107 632.587187 
L 206.006763 642.413553 
L 207.881419 661.80422 
L 209.756074 673.323944 
L 211.63073 674.68893 
L 213.505386 674.362805 
L 215.380041 682.658364 
L 217.254697 689.988931 
L 219.129353 693.227911 
L 221.004008 698.007099 
L 222.878664 707.553111 
L 224.75332 713.91511 
L 226.627975 712.669765 
L 228.502631 710.868311 
L 230.377287 711.487561 
L 232.251942 709.045094 
L 234.126598 704.877187 
L 236.001253 703.168196 
L 237.875909 693.435929 
L 241.62522 658.131427 
L 243.499876 649.016161 
L 245.374532 636.21104 
L 247.249187 614.657341 
L 249.123843 603.369643 
L 250.998499 593.62818 
L 252.873154 576.455718 
L 254.74781 550.721136 
L 256.622466 517.650368 
L 258.497121 506.713725 
L 260.371777 499.916177 
L 262.246433 500.363986 
L 264.121088 492.492125 
L 265.995744 448.168805 
L 267.870399 367.053599 
L 269.745055 314.233855 
L 271.619711 278.375594 
L 273.494366 261.818703 
L 275.369022 242.04112 
L 277.243678 234.80506 
L 279.118333 264.08646 
L 280.992989 257.413457 
L 282.867645 248.248639 
L 284.7423 253.926715 
L 286.616956 274.237317 
L 288.491612 307.359782 
L 290.366267 325.231391 
L 292.240923 358.631656 
L 294.115579 399.658065 
L 295.990234 421.399246 
L 297.86489 440.468385 
L 299.739545 452.687461 
L 301.614201 459.320924 
L 303.488857 487.052309 
L 305.363512 486.629735 
L 307.238168 483.279185 
L 309.112824 485.030781 
L 310.987479 490.92801 
L 312.862135 500.72771 
L 314.736791 499.420143 
L 316.611446 513.791422 
L 318.486102 518.342874 
L 320.360758 521.71539 
L 324.110069 541.402144 
L 325.984725 549.767281 
L 327.85938 571.965261 
L 329.734036 587.985966 
L 331.608691 595.061518 
L 333.483347 591.978959 
L 335.358003 601.26638 
L 337.232658 619.357449 
L 339.107314 635.932424 
L 342.856625 657.729389 
L 344.731281 673.43909 
L 346.605937 684.427941 
L 348.480592 686.92139 
L 350.355248 689.951537 
L 352.229904 695.187116 
L 354.104559 702.651525 
L 355.979215 709.636145 
L 359.728526 721.643832 
L 361.603182 724.699419 
L 363.477837 728.032906 
L 365.352493 728.720916 
L 367.227149 728.02698 
L 369.101804 727.833471 
L 370.97646 726.929066 
L 372.851116 724.972109 
L 374.725771 721.816499 
L 376.600427 716.943724 
L 378.475083 709.96697 
L 380.349738 696.822136 
L 382.224394 681.789922 
L 384.09905 663.695583 
L 385.973705 640.886219 
L 387.848361 623.799988 
L 389.723017 597.205445 
L 391.597672 564.920974 
L 393.472328 539.22256 
L 399.096295 423.559418 
L 400.97095 389.679058 
L 402.845606 367.409762 
L 404.720262 351.760648 
L 406.594917 354.547427 
L 408.469573 355.292856 
L 410.344229 342.416114 
L 412.218884 338.293469 
L 414.09354 354.27729 
L 415.968196 351.468239 
L 417.842851 358.489436 
L 419.717507 355.904545 
L 421.592163 380.446297 
L 423.466818 399.665217 
L 425.341474 415.804029 
L 427.216129 436.677075 
L 429.090785 445.583812 
L 430.965441 481.116153 
L 432.840096 482.698351 
L 434.714752 491.199577 
L 436.589408 507.119645 
L 438.464063 525.305119 
L 440.338719 531.630235 
L 442.213375 529.40069 
L 445.962686 580.886813 
L 447.837342 594.863206 
L 449.711997 595.867534 
L 451.586653 595.687204 
L 453.461309 599.650465 
L 455.335964 596.076981 
L 457.21062 584.51363 
L 459.085275 582.260075 
L 460.959931 582.727501 
L 462.834587 592.986555 
L 464.709242 602.456451 
L 466.583898 614.070581 
L 468.458554 629.436889 
L 470.333209 639.243026 
L 472.207865 652.361807 
L 475.957176 667.573839 
L 479.706488 687.718518 
L 483.455799 700.502489 
L 485.330455 711.284039 
L 487.20511 718.05819 
L 489.079766 722.828693 
L 490.954421 724.263665 
L 492.829077 725.454248 
L 494.703733 721.687356 
L 496.578388 716.589298 
L 498.453044 707.899364 
L 500.3277 694.93302 
L 502.202355 680.269536 
L 504.077011 654.74287 
L 507.826322 590.97882 
L 509.700978 568.651084 
L 511.575634 515.57561 
L 513.450289 477.858066 
L 515.324945 464.645595 
L 517.199601 446.781036 
L 519.074256 403.984743 
L 520.948912 320.730923 
L 522.823567 286.90175 
L 526.572879 230.229395 
L 528.447534 218.12434 
L 530.32219 220.439708 
L 532.196846 224.496658 
L 534.071501 237.257335 
L 535.946157 254.431024 
L 537.820813 280.065377 
L 539.695468 297.091737 
L 541.570124 302.950857 
L 543.44478 337.299052 
L 545.319435 342.304545 
L 547.194091 334.151615 
L 549.068747 321.832924 
L 550.943402 322.805579 
L 552.818058 325.199821 
L 554.692713 338.5916 
L 556.567369 384.205628 
L 558.442025 414.225713 
L 560.31668 459.580128 
L 562.191336 495.344496 
L 564.065992 523.888231 
L 565.940647 556.822194 
L 567.815303 561.407055 
L 569.689959 565.11622 
L 571.564614 577.966602 
L 573.43927 598.124256 
L 575.313926 623.878352 
L 577.188581 635.633169 
L 579.063237 650.747119 
L 580.937893 675.363761 
L 582.812548 689.076454 
L 584.687204 695.759674 
L 586.56186 698.919576 
L 588.436515 704.754686 
L 590.311171 709.698162 
L 592.185826 712.094448 
L 594.060482 711.704978 
L 595.935138 712.014551 
L 597.809793 712.617761 
L 599.684449 712.675793 
L 601.559105 709.042336 
L 603.43376 708.188198 
L 605.308416 708.317749 
L 607.183072 711.040058 
L 609.057727 714.300596 
L 610.932383 717.152048 
L 612.807039 721.755504 
L 614.681694 723.692128 
L 616.55635 726.988937 
L 618.431006 728.561021 
L 620.305661 729.548388 
L 622.180317 729.899034 
L 624.054972 729.847234 
L 625.929628 728.607712 
L 627.804284 726.880944 
L 629.678939 723.821884 
L 633.428251 709.283558 
L 635.302906 699.59553 
L 637.177562 683.6584 
L 639.052218 660.479897 
L 642.801529 631.642833 
L 644.676185 610.62767 
L 646.55084 588.209002 
L 648.425496 568.613894 
L 650.300152 563.80048 
L 652.174807 546.723444 
L 654.049463 536.03681 
L 655.924118 512.235685 
L 657.798774 510.327157 
L 659.67343 532.067827 
L 661.548085 528.747928 
L 663.422741 518.418377 
L 665.297397 526.077521 
L 667.172052 545.487702 
L 669.046708 540.758782 
L 670.921364 522.29224 
L 670.921364 522.29224 
" style="fill:none;stroke:#ff7f0e;stroke-linecap:square;stroke-width:1.5;"/>
   </g>
   <g id="line2d_15">
    <path clip-path="url(#p166150ddf6)" d="M 114.148636 743.57699 
L 119.772603 743.57699 
L 125.39657 723.960426 
L 127.271226 704.343862 
L 131.020537 652.033025 
L 132.895193 606.261043 
L 134.769848 553.950206 
L 136.644504 488.56166 
L 138.51916 416.63426 
L 140.393815 357.784568 
L 142.268471 318.551441 
L 144.143127 305.473731 
L 146.017782 279.318313 
L 147.892438 259.701749 
L 153.516405 240.085185 
L 155.391061 240.085185 
L 157.265716 246.62404 
L 159.140372 259.701749 
L 161.015028 266.240604 
L 162.889683 266.240604 
L 164.764339 305.473731 
L 166.638994 312.012586 
L 168.51365 344.706859 
L 170.388306 357.784568 
L 172.262961 416.63426 
L 174.137617 462.406242 
L 176.012273 416.63426 
L 177.886928 383.939987 
L 179.761584 410.095405 
L 181.63624 429.711969 
L 185.385551 416.63426 
L 187.260207 482.022806 
L 189.134862 514.717079 
L 191.009518 521.255933 
L 192.884174 567.027915 
L 194.758829 586.644479 
L 196.633485 580.105625 
L 198.50814 599.722188 
L 200.382796 625.877607 
L 202.257452 638.955316 
L 206.006763 652.033025 
L 207.881419 678.188444 
L 209.756074 684.727298 
L 213.505386 684.727298 
L 215.380041 691.266153 
L 217.254697 704.343862 
L 219.129353 704.343862 
L 221.004008 710.882717 
L 222.878664 723.960426 
L 224.75332 730.49928 
L 230.377287 730.49928 
L 232.251942 723.960426 
L 234.126598 723.960426 
L 236.001253 717.421571 
L 237.875909 704.343862 
L 239.750565 684.727298 
L 243.499876 658.57188 
L 245.374532 652.033025 
L 247.249187 632.416461 
L 252.873154 593.183334 
L 254.74781 573.56677 
L 256.622466 540.872497 
L 258.497121 521.255933 
L 260.371777 508.178224 
L 262.246433 508.178224 
L 264.121088 501.639369 
L 265.995744 468.945096 
L 267.870399 403.55655 
L 269.745055 344.706859 
L 271.619711 305.473731 
L 275.369022 266.240604 
L 277.243678 259.701749 
L 279.118333 272.779458 
L 280.992989 272.779458 
L 282.867645 266.240604 
L 284.7423 266.240604 
L 286.616956 279.318313 
L 288.491612 325.090295 
L 290.366267 338.168004 
L 294.115579 429.711969 
L 295.990234 442.789678 
L 297.86489 462.406242 
L 299.739545 468.945096 
L 301.614201 468.945096 
L 303.488857 501.639369 
L 307.238168 488.56166 
L 309.112824 488.56166 
L 310.987479 501.639369 
L 312.862135 508.178224 
L 314.736791 508.178224 
L 316.611446 521.255933 
L 318.486102 527.794788 
L 320.360758 527.794788 
L 322.235413 540.872497 
L 324.110069 547.411352 
L 325.984725 560.489061 
L 327.85938 586.644479 
L 329.734036 599.722188 
L 331.608691 606.261043 
L 333.483347 606.261043 
L 335.358003 612.799898 
L 337.232658 632.416461 
L 346.605937 697.805007 
L 350.355248 697.805007 
L 352.229904 710.882717 
L 355.979215 723.960426 
L 357.853871 737.038135 
L 361.603182 750.115844 
L 372.851116 750.115844 
L 378.475083 730.49928 
L 382.224394 691.266153 
L 384.09905 678.188444 
L 389.723017 619.338752 
L 391.597672 586.644479 
L 393.472328 560.489061 
L 395.346983 527.794788 
L 397.221639 482.022806 
L 400.97095 403.55655 
L 402.845606 377.401132 
L 404.720262 357.784568 
L 406.594917 364.323423 
L 408.469573 364.323423 
L 410.344229 351.245714 
L 412.218884 344.706859 
L 414.09354 364.323423 
L 415.968196 364.323423 
L 417.842851 370.862277 
L 419.717507 364.323423 
L 421.592163 397.017696 
L 423.466818 423.173114 
L 425.341474 436.250823 
L 427.216129 455.867387 
L 429.090785 462.406242 
L 430.965441 501.639369 
L 432.840096 488.56166 
L 436.589408 514.717079 
L 438.464063 534.333642 
L 440.338719 540.872497 
L 442.213375 540.872497 
L 445.962686 593.183334 
L 447.837342 606.261043 
L 451.586653 606.261043 
L 453.461309 612.799898 
L 459.085275 593.183334 
L 460.959931 593.183334 
L 462.834587 606.261043 
L 464.709242 612.799898 
L 472.207865 665.110734 
L 475.957176 678.188444 
L 477.831832 691.266153 
L 483.455799 710.882717 
L 485.330455 730.49928 
L 490.954421 750.115844 
L 492.829077 750.115844 
L 496.578388 737.038135 
L 500.3277 710.882717 
L 504.077011 671.649589 
L 505.951667 645.494171 
L 507.826322 612.799898 
L 509.700978 586.644479 
L 511.575634 547.411352 
L 513.450289 501.639369 
L 515.324945 475.483951 
L 517.199601 455.867387 
L 519.074256 423.173114 
L 520.948912 357.784568 
L 522.823567 312.012586 
L 524.698223 285.857168 
L 526.572879 266.240604 
L 528.447534 253.162895 
L 530.32219 246.62404 
L 532.196846 246.62404 
L 535.946157 259.701749 
L 537.820813 292.396022 
L 539.695468 305.473731 
L 541.570124 312.012586 
L 543.44478 357.784568 
L 545.319435 357.784568 
L 547.194091 338.168004 
L 549.068747 325.090295 
L 550.943402 325.090295 
L 552.818058 331.62915 
L 554.692713 351.245714 
L 556.567369 416.63426 
L 558.442025 442.789678 
L 560.31668 488.56166 
L 564.065992 540.872497 
L 565.940647 573.56677 
L 569.689959 573.56677 
L 571.564614 586.644479 
L 575.313926 638.955316 
L 577.188581 645.494171 
L 579.063237 665.110734 
L 580.937893 691.266153 
L 582.812548 704.343862 
L 584.687204 710.882717 
L 586.56186 710.882717 
L 588.436515 717.421571 
L 590.311171 730.49928 
L 599.684449 730.49928 
L 601.559105 723.960426 
L 605.308416 723.960426 
L 607.183072 730.49928 
L 609.057727 730.49928 
L 612.807039 743.57699 
L 614.681694 743.57699 
L 616.55635 750.115844 
L 620.305661 750.115844 
L 622.180317 756.654699 
L 624.054972 756.654699 
L 625.929628 750.115844 
L 627.804284 750.115844 
L 631.553595 737.038135 
L 633.428251 723.960426 
L 635.302906 717.421571 
L 637.177562 697.805007 
L 639.052218 671.649589 
L 642.801529 645.494171 
L 648.425496 586.644479 
L 654.049463 547.411352 
L 655.924118 527.794788 
L 657.798774 521.255933 
L 659.67343 540.872497 
L 663.422741 527.794788 
L 665.297397 534.333642 
L 667.172052 553.950206 
L 669.046708 553.950206 
L 670.921364 534.333642 
L 670.921364 534.333642 
" style="fill:none;stroke:#2ca02c;stroke-linecap:square;stroke-width:1.5;"/>
   </g>
   <g id="line2d_16">
    <path clip-path="url(#p166150ddf6)" d="M 114.148636 704.343862 
L 121.647259 704.343862 
L 127.271226 684.727298 
L 129.145882 665.110734 
L 131.020537 619.338752 
L 132.895193 540.872497 
L 134.769848 495.100515 
L 138.51916 351.245714 
L 140.393815 298.934877 
L 142.268471 279.318313 
L 144.143127 279.318313 
L 146.017782 220.468622 
L 147.892438 181.235494 
L 149.767094 194.313203 
L 151.641749 187.774349 
L 153.516405 174.696639 
L 155.391061 181.235494 
L 159.140372 233.546331 
L 161.015028 233.546331 
L 162.889683 240.085185 
L 164.764339 266.240604 
L 166.638994 279.318313 
L 170.388306 318.551441 
L 172.262961 351.245714 
L 174.137617 390.478841 
L 176.012273 390.478841 
L 177.886928 364.323423 
L 179.761584 377.401132 
L 181.63624 397.017696 
L 185.385551 397.017696 
L 187.260207 423.173114 
L 189.134862 462.406242 
L 191.009518 488.56166 
L 194.758829 553.950206 
L 198.50814 580.105625 
L 202.257452 619.338752 
L 206.006763 632.416461 
L 209.756074 658.57188 
L 211.63073 665.110734 
L 213.505386 665.110734 
L 217.254697 678.188444 
L 219.129353 678.188444 
L 224.75332 697.805007 
L 232.251942 697.805007 
L 234.126598 691.266153 
L 236.001253 691.266153 
L 237.875909 684.727298 
L 239.750565 671.649589 
L 241.62522 652.033025 
L 245.374532 625.877607 
L 247.249187 599.722188 
L 249.123843 593.183334 
L 250.998499 580.105625 
L 252.873154 560.489061 
L 254.74781 534.333642 
L 256.622466 501.639369 
L 258.497121 501.639369 
L 260.371777 495.100515 
L 262.246433 495.100515 
L 264.121088 482.022806 
L 265.995744 429.711969 
L 267.870399 331.62915 
L 269.745055 285.857168 
L 271.619711 253.162895 
L 275.369022 213.929767 
L 277.243678 207.390912 
L 279.118333 246.62404 
L 280.992989 240.085185 
L 282.867645 227.007476 
L 284.7423 240.085185 
L 290.366267 298.934877 
L 292.240923 325.090295 
L 294.115579 364.323423 
L 295.990234 397.017696 
L 297.86489 423.173114 
L 301.614201 449.328533 
L 303.488857 468.945096 
L 305.363512 482.022806 
L 307.238168 475.483951 
L 309.112824 475.483951 
L 316.611446 501.639369 
L 318.486102 514.717079 
L 320.360758 514.717079 
L 322.235413 521.255933 
L 324.110069 534.333642 
L 325.984725 540.872497 
L 329.734036 580.105625 
L 331.608691 586.644479 
L 333.483347 580.105625 
L 337.232658 606.261043 
L 339.107314 625.877607 
L 340.98197 638.955316 
L 342.856625 645.494171 
L 346.605937 671.649589 
L 348.480592 671.649589 
L 350.355248 678.188444 
L 352.229904 678.188444 
L 359.728526 704.343862 
L 361.603182 704.343862 
L 363.477837 710.882717 
L 372.851116 710.882717 
L 374.725771 704.343862 
L 376.600427 704.343862 
L 380.349738 691.266153 
L 382.224394 678.188444 
L 384.09905 658.57188 
L 385.973705 625.877607 
L 387.848361 612.799898 
L 391.597672 547.411352 
L 393.472328 521.255933 
L 399.096295 403.55655 
L 400.97095 370.862277 
L 402.845606 351.245714 
L 404.720262 338.168004 
L 406.594917 344.706859 
L 408.469573 344.706859 
L 410.344229 331.62915 
L 412.218884 325.090295 
L 414.09354 338.168004 
L 415.968196 338.168004 
L 417.842851 344.706859 
L 419.717507 344.706859 
L 421.592163 357.784568 
L 427.216129 416.63426 
L 429.090785 429.711969 
L 430.965441 455.867387 
L 432.840096 475.483951 
L 434.714752 482.022806 
L 436.589408 495.100515 
L 438.464063 514.717079 
L 440.338719 521.255933 
L 442.213375 521.255933 
L 444.08803 540.872497 
L 445.962686 567.027915 
L 447.837342 586.644479 
L 455.335964 586.644479 
L 457.21062 573.56677 
L 460.959931 573.56677 
L 462.834587 580.105625 
L 470.333209 632.416461 
L 472.207865 638.955316 
L 474.082521 652.033025 
L 489.079766 704.343862 
L 490.954421 704.343862 
L 492.829077 710.882717 
L 494.703733 704.343862 
L 496.578388 704.343862 
L 498.453044 697.805007 
L 500.3277 684.727298 
L 502.202355 678.188444 
L 504.077011 645.494171 
L 505.951667 606.261043 
L 507.826322 573.56677 
L 509.700978 553.950206 
L 511.575634 488.56166 
L 513.450289 455.867387 
L 515.324945 455.867387 
L 517.199601 436.250823 
L 519.074256 383.939987 
L 520.948912 285.857168 
L 522.823567 259.701749 
L 526.572879 194.313203 
L 528.447534 187.774349 
L 532.196846 200.852058 
L 537.820813 259.701749 
L 541.570124 285.857168 
L 543.44478 312.012586 
L 547.194091 325.090295 
L 549.068747 312.012586 
L 552.818058 312.012586 
L 554.692713 318.551441 
L 558.442025 383.939987 
L 560.31668 423.173114 
L 562.191336 468.945096 
L 565.940647 534.333642 
L 567.815303 553.950206 
L 569.689959 553.950206 
L 571.564614 567.027915 
L 577.188581 625.877607 
L 579.063237 638.955316 
L 580.937893 658.57188 
L 582.812548 671.649589 
L 588.436515 691.266153 
L 590.311171 691.266153 
L 592.185826 697.805007 
L 601.559105 697.805007 
L 603.43376 691.266153 
L 605.308416 691.266153 
L 607.183072 697.805007 
L 610.932383 697.805007 
L 612.807039 704.343862 
L 614.681694 704.343862 
L 616.55635 710.882717 
L 629.678939 710.882717 
L 635.302906 691.266153 
L 637.177562 678.188444 
L 639.052218 652.033025 
L 640.926873 638.955316 
L 642.801529 619.338752 
L 644.676185 593.183334 
L 648.425496 553.950206 
L 650.300152 553.950206 
L 652.174807 534.333642 
L 654.049463 527.794788 
L 655.924118 501.639369 
L 657.798774 501.639369 
L 659.67343 521.255933 
L 661.548085 521.255933 
L 663.422741 508.178224 
L 667.172052 534.333642 
L 669.046708 534.333642 
L 670.921364 514.717079 
L 670.921364 514.717079 
" style="fill:none;stroke:#d62728;stroke-linecap:square;stroke-width:1.5;"/>
   </g>
   <g id="patch_3">
    <path d="M 86.31 804.96 
L 86.31 103.68 
" style="fill:none;stroke:#000000;stroke-linecap:square;stroke-linejoin:miter;stroke-width:0.8;"/>
   </g>
   <g id="patch_4">
    <path d="M 698.76 804.96 
L 698.76 103.68 
" style="fill:none;stroke:#000000;stroke-linecap:square;stroke-linejoin:miter;stroke-width:0.8;"/>
   </g>
   <g id="patch_5">
    <path d="M 86.31 804.96 
L 698.76 804.96 
" style="fill:none;stroke:#000000;stroke-linecap:square;stroke-linejoin:miter;stroke-width:0.8;"/>
   </g>
   <g id="patch_6">
    <path d="M 86.31 103.68 
L 698.76 103.68 
" style="fill:none;stroke:#000000;stroke-linecap:square;stroke-linejoin:miter;stroke-width:0.8;"/>
   </g>
   <g id="text_13">
    <!-- Plot of Train Data vs MCMC Uncertainty  -->
    <defs>
     <path d="M 19.671875 64.796875 
L 19.671875 37.40625 
L 32.078125 37.40625 
Q 38.96875 37.40625 42.71875 40.96875 
Q 46.484375 44.53125 46.484375 51.125 
Q 46.484375 57.671875 42.71875 61.234375 
Q 38.96875 64.796875 32.078125 64.796875 
z
M 9.8125 72.90625 
L 32.078125 72.90625 
Q 44.34375 72.90625 50.609375 67.359375 
Q 56.890625 61.8125 56.890625 51.125 
Q 56.890625 40.328125 50.609375 34.8125 
Q 44.34375 29.296875 32.078125 29.296875 
L 19.671875 29.296875 
L 19.671875 0 
L 9.8125 0 
z
" id="DejaVuSans-50"/>
     <path d="M 9.421875 75.984375 
L 18.40625 75.984375 
L 18.40625 0 
L 9.421875 0 
z
" id="DejaVuSans-6c"/>
     <path d="M 30.609375 48.390625 
Q 23.390625 48.390625 19.1875 42.75 
Q 14.984375 37.109375 14.984375 27.296875 
Q 14.984375 17.484375 19.15625 11.84375 
Q 23.34375 6.203125 30.609375 6.203125 
Q 37.796875 6.203125 41.984375 11.859375 
Q 46.1875 17.53125 46.1875 27.296875 
Q 46.1875 37.015625 41.984375 42.703125 
Q 37.796875 48.390625 30.609375 48.390625 
z
M 30.609375 56 
Q 42.328125 56 49.015625 48.375 
Q 55.71875 40.765625 55.71875 27.296875 
Q 55.71875 13.875 49.015625 6.21875 
Q 42.328125 -1.421875 30.609375 -1.421875 
Q 18.84375 -1.421875 12.171875 6.21875 
Q 5.515625 13.875 5.515625 27.296875 
Q 5.515625 40.765625 12.171875 48.375 
Q 18.84375 56 30.609375 56 
z
" id="DejaVuSans-6f"/>
     <path d="M 18.3125 70.21875 
L 18.3125 54.6875 
L 36.8125 54.6875 
L 36.8125 47.703125 
L 18.3125 47.703125 
L 18.3125 18.015625 
Q 18.3125 11.328125 20.140625 9.421875 
Q 21.96875 7.515625 27.59375 7.515625 
L 36.8125 7.515625 
L 36.8125 0 
L 27.59375 0 
Q 17.1875 0 13.234375 3.875 
Q 9.28125 7.765625 9.28125 18.015625 
L 9.28125 47.703125 
L 2.6875 47.703125 
L 2.6875 54.6875 
L 9.28125 54.6875 
L 9.28125 70.21875 
z
" id="DejaVuSans-74"/>
     <path id="DejaVuSans-20"/>
     <path d="M 37.109375 75.984375 
L 37.109375 68.5 
L 28.515625 68.5 
Q 23.6875 68.5 21.796875 66.546875 
Q 19.921875 64.59375 19.921875 59.515625 
L 19.921875 54.6875 
L 34.71875 54.6875 
L 34.71875 47.703125 
L 19.921875 47.703125 
L 19.921875 0 
L 10.890625 0 
L 10.890625 47.703125 
L 2.296875 47.703125 
L 2.296875 54.6875 
L 10.890625 54.6875 
L 10.890625 58.5 
Q 10.890625 67.625 15.140625 71.796875 
Q 19.390625 75.984375 28.609375 75.984375 
z
" id="DejaVuSans-66"/>
     <path d="M -0.296875 72.90625 
L 61.375 72.90625 
L 61.375 64.59375 
L 35.5 64.59375 
L 35.5 0 
L 25.59375 0 
L 25.59375 64.59375 
L -0.296875 64.59375 
z
" id="DejaVuSans-54"/>
     <path d="M 41.109375 46.296875 
Q 39.59375 47.171875 37.8125 47.578125 
Q 36.03125 48 33.890625 48 
Q 26.265625 48 22.1875 43.046875 
Q 18.109375 38.09375 18.109375 28.8125 
L 18.109375 0 
L 9.078125 0 
L 9.078125 54.6875 
L 18.109375 54.6875 
L 18.109375 46.1875 
Q 20.953125 51.171875 25.484375 53.578125 
Q 30.03125 56 36.53125 56 
Q 37.453125 56 38.578125 55.875 
Q 39.703125 55.765625 41.0625 55.515625 
z
" id="DejaVuSans-72"/>
     <path d="M 34.28125 27.484375 
Q 23.390625 27.484375 19.1875 25 
Q 14.984375 22.515625 14.984375 16.5 
Q 14.984375 11.71875 18.140625 8.90625 
Q 21.296875 6.109375 26.703125 6.109375 
Q 34.1875 6.109375 38.703125 11.40625 
Q 43.21875 16.703125 43.21875 25.484375 
L 43.21875 27.484375 
z
M 52.203125 31.203125 
L 52.203125 0 
L 43.21875 0 
L 43.21875 8.296875 
Q 40.140625 3.328125 35.546875 0.953125 
Q 30.953125 -1.421875 24.3125 -1.421875 
Q 15.921875 -1.421875 10.953125 3.296875 
Q 6 8.015625 6 15.921875 
Q 6 25.140625 12.171875 29.828125 
Q 18.359375 34.515625 30.609375 34.515625 
L 43.21875 34.515625 
L 43.21875 35.40625 
Q 43.21875 41.609375 39.140625 45 
Q 35.0625 48.390625 27.6875 48.390625 
Q 23 48.390625 18.546875 47.265625 
Q 14.109375 46.140625 10.015625 43.890625 
L 10.015625 52.203125 
Q 14.9375 54.109375 19.578125 55.046875 
Q 24.21875 56 28.609375 56 
Q 40.484375 56 46.34375 49.84375 
Q 52.203125 43.703125 52.203125 31.203125 
z
" id="DejaVuSans-61"/>
     <path d="M 9.421875 54.6875 
L 18.40625 54.6875 
L 18.40625 0 
L 9.421875 0 
z
M 9.421875 75.984375 
L 18.40625 75.984375 
L 18.40625 64.59375 
L 9.421875 64.59375 
z
" id="DejaVuSans-69"/>
     <path d="M 54.890625 33.015625 
L 54.890625 0 
L 45.90625 0 
L 45.90625 32.71875 
Q 45.90625 40.484375 42.875 44.328125 
Q 39.84375 48.1875 33.796875 48.1875 
Q 26.515625 48.1875 22.3125 43.546875 
Q 18.109375 38.921875 18.109375 30.90625 
L 18.109375 0 
L 9.078125 0 
L 9.078125 54.6875 
L 18.109375 54.6875 
L 18.109375 46.1875 
Q 21.34375 51.125 25.703125 53.5625 
Q 30.078125 56 35.796875 56 
Q 45.21875 56 50.046875 50.171875 
Q 54.890625 44.34375 54.890625 33.015625 
z
" id="DejaVuSans-6e"/>
     <path d="M 19.671875 64.796875 
L 19.671875 8.109375 
L 31.59375 8.109375 
Q 46.6875 8.109375 53.6875 14.9375 
Q 60.6875 21.78125 60.6875 36.53125 
Q 60.6875 51.171875 53.6875 57.984375 
Q 46.6875 64.796875 31.59375 64.796875 
z
M 9.8125 72.90625 
L 30.078125 72.90625 
Q 51.265625 72.90625 61.171875 64.09375 
Q 71.09375 55.28125 71.09375 36.53125 
Q 71.09375 17.671875 61.125 8.828125 
Q 51.171875 0 30.078125 0 
L 9.8125 0 
z
" id="DejaVuSans-44"/>
     <path d="M 2.984375 54.6875 
L 12.5 54.6875 
L 29.59375 8.796875 
L 46.6875 54.6875 
L 56.203125 54.6875 
L 35.6875 0 
L 23.484375 0 
z
" id="DejaVuSans-76"/>
     <path d="M 44.28125 53.078125 
L 44.28125 44.578125 
Q 40.484375 46.53125 36.375 47.5 
Q 32.28125 48.484375 27.875 48.484375 
Q 21.1875 48.484375 17.84375 46.4375 
Q 14.5 44.390625 14.5 40.28125 
Q 14.5 37.15625 16.890625 35.375 
Q 19.28125 33.59375 26.515625 31.984375 
L 29.59375 31.296875 
Q 39.15625 29.25 43.1875 25.515625 
Q 47.21875 21.78125 47.21875 15.09375 
Q 47.21875 7.46875 41.1875 3.015625 
Q 35.15625 -1.421875 24.609375 -1.421875 
Q 20.21875 -1.421875 15.453125 -0.5625 
Q 10.6875 0.296875 5.421875 2 
L 5.421875 11.28125 
Q 10.40625 8.6875 15.234375 7.390625 
Q 20.0625 6.109375 24.8125 6.109375 
Q 31.15625 6.109375 34.5625 8.28125 
Q 37.984375 10.453125 37.984375 14.40625 
Q 37.984375 18.0625 35.515625 20.015625 
Q 33.0625 21.96875 24.703125 23.78125 
L 21.578125 24.515625 
Q 13.234375 26.265625 9.515625 29.90625 
Q 5.8125 33.546875 5.8125 39.890625 
Q 5.8125 47.609375 11.28125 51.796875 
Q 16.75 56 26.8125 56 
Q 31.78125 56 36.171875 55.265625 
Q 40.578125 54.546875 44.28125 53.078125 
z
" id="DejaVuSans-73"/>
     <path d="M 9.8125 72.90625 
L 24.515625 72.90625 
L 43.109375 23.296875 
L 61.8125 72.90625 
L 76.515625 72.90625 
L 76.515625 0 
L 66.890625 0 
L 66.890625 64.015625 
L 48.09375 14.015625 
L 38.1875 14.015625 
L 19.390625 64.015625 
L 19.390625 0 
L 9.8125 0 
z
" id="DejaVuSans-4d"/>
     <path d="M 64.40625 67.28125 
L 64.40625 56.890625 
Q 59.421875 61.53125 53.78125 63.8125 
Q 48.140625 66.109375 41.796875 66.109375 
Q 29.296875 66.109375 22.65625 58.46875 
Q 16.015625 50.828125 16.015625 36.375 
Q 16.015625 21.96875 22.65625 14.328125 
Q 29.296875 6.6875 41.796875 6.6875 
Q 48.140625 6.6875 53.78125 8.984375 
Q 59.421875 11.28125 64.40625 15.921875 
L 64.40625 5.609375 
Q 59.234375 2.09375 53.4375 0.328125 
Q 47.65625 -1.421875 41.21875 -1.421875 
Q 24.65625 -1.421875 15.125 8.703125 
Q 5.609375 18.84375 5.609375 36.375 
Q 5.609375 53.953125 15.125 64.078125 
Q 24.65625 74.21875 41.21875 74.21875 
Q 47.75 74.21875 53.53125 72.484375 
Q 59.328125 70.75 64.40625 67.28125 
z
" id="DejaVuSans-43"/>
     <path d="M 8.6875 72.90625 
L 18.609375 72.90625 
L 18.609375 28.609375 
Q 18.609375 16.890625 22.84375 11.734375 
Q 27.09375 6.59375 36.625 6.59375 
Q 46.09375 6.59375 50.34375 11.734375 
Q 54.59375 16.890625 54.59375 28.609375 
L 54.59375 72.90625 
L 64.5 72.90625 
L 64.5 27.390625 
Q 64.5 13.140625 57.4375 5.859375 
Q 50.390625 -1.421875 36.625 -1.421875 
Q 22.796875 -1.421875 15.734375 5.859375 
Q 8.6875 13.140625 8.6875 27.390625 
z
" id="DejaVuSans-55"/>
     <path d="M 48.78125 52.59375 
L 48.78125 44.1875 
Q 44.96875 46.296875 41.140625 47.34375 
Q 37.3125 48.390625 33.40625 48.390625 
Q 24.65625 48.390625 19.8125 42.84375 
Q 14.984375 37.3125 14.984375 27.296875 
Q 14.984375 17.28125 19.8125 11.734375 
Q 24.65625 6.203125 33.40625 6.203125 
Q 37.3125 6.203125 41.140625 7.25 
Q 44.96875 8.296875 48.78125 10.40625 
L 48.78125 2.09375 
Q 45.015625 0.34375 40.984375 -0.53125 
Q 36.96875 -1.421875 32.421875 -1.421875 
Q 20.0625 -1.421875 12.78125 6.34375 
Q 5.515625 14.109375 5.515625 27.296875 
Q 5.515625 40.671875 12.859375 48.328125 
Q 20.21875 56 33.015625 56 
Q 37.15625 56 41.109375 55.140625 
Q 45.0625 54.296875 48.78125 52.59375 
z
" id="DejaVuSans-63"/>
     <path d="M 56.203125 29.59375 
L 56.203125 25.203125 
L 14.890625 25.203125 
Q 15.484375 15.921875 20.484375 11.0625 
Q 25.484375 6.203125 34.421875 6.203125 
Q 39.59375 6.203125 44.453125 7.46875 
Q 49.3125 8.734375 54.109375 11.28125 
L 54.109375 2.78125 
Q 49.265625 0.734375 44.1875 -0.34375 
Q 39.109375 -1.421875 33.890625 -1.421875 
Q 20.796875 -1.421875 13.15625 6.1875 
Q 5.515625 13.8125 5.515625 26.8125 
Q 5.515625 40.234375 12.765625 48.109375 
Q 20.015625 56 32.328125 56 
Q 43.359375 56 49.78125 48.890625 
Q 56.203125 41.796875 56.203125 29.59375 
z
M 47.21875 32.234375 
Q 47.125 39.59375 43.09375 43.984375 
Q 39.0625 48.390625 32.421875 48.390625 
Q 24.90625 48.390625 20.390625 44.140625 
Q 15.875 39.890625 15.1875 32.171875 
z
" id="DejaVuSans-65"/>
     <path d="M 32.171875 -5.078125 
Q 28.375 -14.84375 24.75 -17.8125 
Q 21.140625 -20.796875 15.09375 -20.796875 
L 7.90625 -20.796875 
L 7.90625 -13.28125 
L 13.1875 -13.28125 
Q 16.890625 -13.28125 18.9375 -11.515625 
Q 21 -9.765625 23.484375 -3.21875 
L 25.09375 0.875 
L 2.984375 54.6875 
L 12.5 54.6875 
L 29.59375 11.921875 
L 46.6875 54.6875 
L 56.203125 54.6875 
z
" id="DejaVuSans-79"/>
    </defs>
    <g transform="translate(272.041875 97.68)scale(0.12 -0.12)">
     <use xlink:href="#DejaVuSans-50"/>
     <use x="60.302734" xlink:href="#DejaVuSans-6c"/>
     <use x="88.085938" xlink:href="#DejaVuSans-6f"/>
     <use x="149.267578" xlink:href="#DejaVuSans-74"/>
     <use x="188.476562" xlink:href="#DejaVuSans-20"/>
     <use x="220.263672" xlink:href="#DejaVuSans-6f"/>
     <use x="281.445312" xlink:href="#DejaVuSans-66"/>
     <use x="316.650391" xlink:href="#DejaVuSans-20"/>
     <use x="348.4375" xlink:href="#DejaVuSans-54"/>
     <use x="409.302734" xlink:href="#DejaVuSans-72"/>
     <use x="450.416016" xlink:href="#DejaVuSans-61"/>
     <use x="511.695312" xlink:href="#DejaVuSans-69"/>
     <use x="539.478516" xlink:href="#DejaVuSans-6e"/>
     <use x="602.857422" xlink:href="#DejaVuSans-20"/>
     <use x="634.644531" xlink:href="#DejaVuSans-44"/>
     <use x="711.646484" xlink:href="#DejaVuSans-61"/>
     <use x="772.925781" xlink:href="#DejaVuSans-74"/>
     <use x="812.134766" xlink:href="#DejaVuSans-61"/>
     <use x="873.414062" xlink:href="#DejaVuSans-20"/>
     <use x="905.201172" xlink:href="#DejaVuSans-76"/>
     <use x="964.380859" xlink:href="#DejaVuSans-73"/>
     <use x="1016.480469" xlink:href="#DejaVuSans-20"/>
     <use x="1048.267578" xlink:href="#DejaVuSans-4d"/>
     <use x="1134.546875" xlink:href="#DejaVuSans-43"/>
     <use x="1204.371094" xlink:href="#DejaVuSans-4d"/>
     <use x="1290.650391" xlink:href="#DejaVuSans-43"/>
     <use x="1360.474609" xlink:href="#DejaVuSans-20"/>
     <use x="1392.261719" xlink:href="#DejaVuSans-55"/>
     <use x="1465.455078" xlink:href="#DejaVuSans-6e"/>
     <use x="1528.833984" xlink:href="#DejaVuSans-63"/>
     <use x="1583.814453" xlink:href="#DejaVuSans-65"/>
     <use x="1645.337891" xlink:href="#DejaVuSans-72"/>
     <use x="1686.451172" xlink:href="#DejaVuSans-74"/>
     <use x="1725.660156" xlink:href="#DejaVuSans-61"/>
     <use x="1786.939453" xlink:href="#DejaVuSans-69"/>
     <use x="1814.722656" xlink:href="#DejaVuSans-6e"/>
     <use x="1878.101562" xlink:href="#DejaVuSans-74"/>
     <use x="1917.310547" xlink:href="#DejaVuSans-79"/>
     <use x="1976.490234" xlink:href="#DejaVuSans-20"/>
    </g>
   </g>
   <g id="legend_1">
    <g id="patch_7">
     <path d="M 561.883438 170.3925 
L 691.76 170.3925 
Q 693.76 170.3925 693.76 168.3925 
L 693.76 110.68 
Q 693.76 108.68 691.76 108.68 
L 561.883438 108.68 
Q 559.883438 108.68 559.883438 110.68 
L 559.883438 168.3925 
Q 559.883438 170.3925 561.883438 170.3925 
z
" style="fill:#ffffff;opacity:0.8;stroke:#cccccc;stroke-linejoin:miter;"/>
    </g>
    <g id="line2d_17">
     <path d="M 563.883438 116.778437 
L 583.883438 116.778437 
" style="fill:none;stroke:#1f77b4;stroke-linecap:square;stroke-width:1.5;"/>
    </g>
    <g id="line2d_18"/>
    <g id="text_14">
     <!-- actual -->
     <defs>
      <path d="M 8.5 21.578125 
L 8.5 54.6875 
L 17.484375 54.6875 
L 17.484375 21.921875 
Q 17.484375 14.15625 20.5 10.265625 
Q 23.53125 6.390625 29.59375 6.390625 
Q 36.859375 6.390625 41.078125 11.03125 
Q 45.3125 15.671875 45.3125 23.6875 
L 45.3125 54.6875 
L 54.296875 54.6875 
L 54.296875 0 
L 45.3125 0 
L 45.3125 8.40625 
Q 42.046875 3.421875 37.71875 1 
Q 33.40625 -1.421875 27.6875 -1.421875 
Q 18.265625 -1.421875 13.375 4.4375 
Q 8.5 10.296875 8.5 21.578125 
z
M 31.109375 56 
z
" id="DejaVuSans-75"/>
     </defs>
     <g transform="translate(591.883438 120.278437)scale(0.1 -0.1)">
      <use xlink:href="#DejaVuSans-61"/>
      <use x="61.279297" xlink:href="#DejaVuSans-63"/>
      <use x="116.259766" xlink:href="#DejaVuSans-74"/>
      <use x="155.46875" xlink:href="#DejaVuSans-75"/>
      <use x="218.847656" xlink:href="#DejaVuSans-61"/>
      <use x="280.126953" xlink:href="#DejaVuSans-6c"/>
     </g>
    </g>
    <g id="line2d_19">
     <path d="M 563.883438 131.456562 
L 583.883438 131.456562 
" style="fill:none;stroke:#ff7f0e;stroke-linecap:square;stroke-width:1.5;"/>
    </g>
    <g id="line2d_20"/>
    <g id="text_15">
     <!-- pred. (mean) -->
     <defs>
      <path d="M 18.109375 8.203125 
L 18.109375 -20.796875 
L 9.078125 -20.796875 
L 9.078125 54.6875 
L 18.109375 54.6875 
L 18.109375 46.390625 
Q 20.953125 51.265625 25.265625 53.625 
Q 29.59375 56 35.59375 56 
Q 45.5625 56 51.78125 48.09375 
Q 58.015625 40.1875 58.015625 27.296875 
Q 58.015625 14.40625 51.78125 6.484375 
Q 45.5625 -1.421875 35.59375 -1.421875 
Q 29.59375 -1.421875 25.265625 0.953125 
Q 20.953125 3.328125 18.109375 8.203125 
z
M 48.6875 27.296875 
Q 48.6875 37.203125 44.609375 42.84375 
Q 40.53125 48.484375 33.40625 48.484375 
Q 26.265625 48.484375 22.1875 42.84375 
Q 18.109375 37.203125 18.109375 27.296875 
Q 18.109375 17.390625 22.1875 11.75 
Q 26.265625 6.109375 33.40625 6.109375 
Q 40.53125 6.109375 44.609375 11.75 
Q 48.6875 17.390625 48.6875 27.296875 
z
" id="DejaVuSans-70"/>
      <path d="M 45.40625 46.390625 
L 45.40625 75.984375 
L 54.390625 75.984375 
L 54.390625 0 
L 45.40625 0 
L 45.40625 8.203125 
Q 42.578125 3.328125 38.25 0.953125 
Q 33.9375 -1.421875 27.875 -1.421875 
Q 17.96875 -1.421875 11.734375 6.484375 
Q 5.515625 14.40625 5.515625 27.296875 
Q 5.515625 40.1875 11.734375 48.09375 
Q 17.96875 56 27.875 56 
Q 33.9375 56 38.25 53.625 
Q 42.578125 51.265625 45.40625 46.390625 
z
M 14.796875 27.296875 
Q 14.796875 17.390625 18.875 11.75 
Q 22.953125 6.109375 30.078125 6.109375 
Q 37.203125 6.109375 41.296875 11.75 
Q 45.40625 17.390625 45.40625 27.296875 
Q 45.40625 37.203125 41.296875 42.84375 
Q 37.203125 48.484375 30.078125 48.484375 
Q 22.953125 48.484375 18.875 42.84375 
Q 14.796875 37.203125 14.796875 27.296875 
z
" id="DejaVuSans-64"/>
      <path d="M 31 75.875 
Q 24.46875 64.65625 21.28125 53.65625 
Q 18.109375 42.671875 18.109375 31.390625 
Q 18.109375 20.125 21.3125 9.0625 
Q 24.515625 -2 31 -13.1875 
L 23.1875 -13.1875 
Q 15.875 -1.703125 12.234375 9.375 
Q 8.59375 20.453125 8.59375 31.390625 
Q 8.59375 42.28125 12.203125 53.3125 
Q 15.828125 64.359375 23.1875 75.875 
z
" id="DejaVuSans-28"/>
      <path d="M 52 44.1875 
Q 55.375 50.25 60.0625 53.125 
Q 64.75 56 71.09375 56 
Q 79.640625 56 84.28125 50.015625 
Q 88.921875 44.046875 88.921875 33.015625 
L 88.921875 0 
L 79.890625 0 
L 79.890625 32.71875 
Q 79.890625 40.578125 77.09375 44.375 
Q 74.3125 48.1875 68.609375 48.1875 
Q 61.625 48.1875 57.5625 43.546875 
Q 53.515625 38.921875 53.515625 30.90625 
L 53.515625 0 
L 44.484375 0 
L 44.484375 32.71875 
Q 44.484375 40.625 41.703125 44.40625 
Q 38.921875 48.1875 33.109375 48.1875 
Q 26.21875 48.1875 22.15625 43.53125 
Q 18.109375 38.875 18.109375 30.90625 
L 18.109375 0 
L 9.078125 0 
L 9.078125 54.6875 
L 18.109375 54.6875 
L 18.109375 46.1875 
Q 21.1875 51.21875 25.484375 53.609375 
Q 29.78125 56 35.6875 56 
Q 41.65625 56 45.828125 52.96875 
Q 50 49.953125 52 44.1875 
z
" id="DejaVuSans-6d"/>
      <path d="M 8.015625 75.875 
L 15.828125 75.875 
Q 23.140625 64.359375 26.78125 53.3125 
Q 30.421875 42.28125 30.421875 31.390625 
Q 30.421875 20.453125 26.78125 9.375 
Q 23.140625 -1.703125 15.828125 -13.1875 
L 8.015625 -13.1875 
Q 14.5 -2 17.703125 9.0625 
Q 20.90625 20.125 20.90625 31.390625 
Q 20.90625 42.671875 17.703125 53.65625 
Q 14.5 64.65625 8.015625 75.875 
z
" id="DejaVuSans-29"/>
     </defs>
     <g transform="translate(591.883438 134.956562)scale(0.1 -0.1)">
      <use xlink:href="#DejaVuSans-70"/>
      <use x="63.476562" xlink:href="#DejaVuSans-72"/>
      <use x="104.558594" xlink:href="#DejaVuSans-65"/>
      <use x="166.082031" xlink:href="#DejaVuSans-64"/>
      <use x="229.558594" xlink:href="#DejaVuSans-2e"/>
      <use x="261.345703" xlink:href="#DejaVuSans-20"/>
      <use x="293.132812" xlink:href="#DejaVuSans-28"/>
      <use x="332.146484" xlink:href="#DejaVuSans-6d"/>
      <use x="429.558594" xlink:href="#DejaVuSans-65"/>
      <use x="491.082031" xlink:href="#DejaVuSans-61"/>
      <use x="552.361328" xlink:href="#DejaVuSans-6e"/>
      <use x="615.740234" xlink:href="#DejaVuSans-29"/>
     </g>
    </g>
    <g id="line2d_21">
     <path d="M 563.883438 146.134687 
L 583.883438 146.134687 
" style="fill:none;stroke:#2ca02c;stroke-linecap:square;stroke-width:1.5;"/>
    </g>
    <g id="line2d_22"/>
    <g id="text_16">
     <!-- pred.(5th percen.) -->
     <defs>
      <path d="M 10.796875 72.90625 
L 49.515625 72.90625 
L 49.515625 64.59375 
L 19.828125 64.59375 
L 19.828125 46.734375 
Q 21.96875 47.46875 24.109375 47.828125 
Q 26.265625 48.1875 28.421875 48.1875 
Q 40.625 48.1875 47.75 41.5 
Q 54.890625 34.8125 54.890625 23.390625 
Q 54.890625 11.625 47.5625 5.09375 
Q 40.234375 -1.421875 26.90625 -1.421875 
Q 22.3125 -1.421875 17.546875 -0.640625 
Q 12.796875 0.140625 7.71875 1.703125 
L 7.71875 11.625 
Q 12.109375 9.234375 16.796875 8.0625 
Q 21.484375 6.890625 26.703125 6.890625 
Q 35.15625 6.890625 40.078125 11.328125 
Q 45.015625 15.765625 45.015625 23.390625 
Q 45.015625 31 40.078125 35.4375 
Q 35.15625 39.890625 26.703125 39.890625 
Q 22.75 39.890625 18.8125 39.015625 
Q 14.890625 38.140625 10.796875 36.28125 
z
" id="DejaVuSans-35"/>
      <path d="M 54.890625 33.015625 
L 54.890625 0 
L 45.90625 0 
L 45.90625 32.71875 
Q 45.90625 40.484375 42.875 44.328125 
Q 39.84375 48.1875 33.796875 48.1875 
Q 26.515625 48.1875 22.3125 43.546875 
Q 18.109375 38.921875 18.109375 30.90625 
L 18.109375 0 
L 9.078125 0 
L 9.078125 75.984375 
L 18.109375 75.984375 
L 18.109375 46.1875 
Q 21.34375 51.125 25.703125 53.5625 
Q 30.078125 56 35.796875 56 
Q 45.21875 56 50.046875 50.171875 
Q 54.890625 44.34375 54.890625 33.015625 
z
" id="DejaVuSans-68"/>
     </defs>
     <g transform="translate(591.883438 149.634687)scale(0.1 -0.1)">
      <use xlink:href="#DejaVuSans-70"/>
      <use x="63.476562" xlink:href="#DejaVuSans-72"/>
      <use x="104.558594" xlink:href="#DejaVuSans-65"/>
      <use x="166.082031" xlink:href="#DejaVuSans-64"/>
      <use x="229.558594" xlink:href="#DejaVuSans-2e"/>
      <use x="261.345703" xlink:href="#DejaVuSans-28"/>
      <use x="300.359375" xlink:href="#DejaVuSans-35"/>
      <use x="363.982422" xlink:href="#DejaVuSans-74"/>
      <use x="403.191406" xlink:href="#DejaVuSans-68"/>
      <use x="466.570312" xlink:href="#DejaVuSans-20"/>
      <use x="498.357422" xlink:href="#DejaVuSans-70"/>
      <use x="561.833984" xlink:href="#DejaVuSans-65"/>
      <use x="623.357422" xlink:href="#DejaVuSans-72"/>
      <use x="664.439453" xlink:href="#DejaVuSans-63"/>
      <use x="719.419922" xlink:href="#DejaVuSans-65"/>
      <use x="780.943359" xlink:href="#DejaVuSans-6e"/>
      <use x="844.322266" xlink:href="#DejaVuSans-2e"/>
      <use x="876.109375" xlink:href="#DejaVuSans-29"/>
     </g>
    </g>
    <g id="line2d_23">
     <path d="M 563.883438 160.812812 
L 583.883438 160.812812 
" style="fill:none;stroke:#d62728;stroke-linecap:square;stroke-width:1.5;"/>
    </g>
    <g id="line2d_24"/>
    <g id="text_17">
     <!-- pred.(95th percen.) -->
     <defs>
      <path d="M 10.984375 1.515625 
L 10.984375 10.5 
Q 14.703125 8.734375 18.5 7.8125 
Q 22.3125 6.890625 25.984375 6.890625 
Q 35.75 6.890625 40.890625 13.453125 
Q 46.046875 20.015625 46.78125 33.40625 
Q 43.953125 29.203125 39.59375 26.953125 
Q 35.25 24.703125 29.984375 24.703125 
Q 19.046875 24.703125 12.671875 31.3125 
Q 6.296875 37.9375 6.296875 49.421875 
Q 6.296875 60.640625 12.9375 67.421875 
Q 19.578125 74.21875 30.609375 74.21875 
Q 43.265625 74.21875 49.921875 64.515625 
Q 56.59375 54.828125 56.59375 36.375 
Q 56.59375 19.140625 48.40625 8.859375 
Q 40.234375 -1.421875 26.421875 -1.421875 
Q 22.703125 -1.421875 18.890625 -0.6875 
Q 15.09375 0.046875 10.984375 1.515625 
z
M 30.609375 32.421875 
Q 37.25 32.421875 41.125 36.953125 
Q 45.015625 41.5 45.015625 49.421875 
Q 45.015625 57.28125 41.125 61.84375 
Q 37.25 66.40625 30.609375 66.40625 
Q 23.96875 66.40625 20.09375 61.84375 
Q 16.21875 57.28125 16.21875 49.421875 
Q 16.21875 41.5 20.09375 36.953125 
Q 23.96875 32.421875 30.609375 32.421875 
z
" id="DejaVuSans-39"/>
     </defs>
     <g transform="translate(591.883438 164.312812)scale(0.1 -0.1)">
      <use xlink:href="#DejaVuSans-70"/>
      <use x="63.476562" xlink:href="#DejaVuSans-72"/>
      <use x="104.558594" xlink:href="#DejaVuSans-65"/>
      <use x="166.082031" xlink:href="#DejaVuSans-64"/>
      <use x="229.558594" xlink:href="#DejaVuSans-2e"/>
      <use x="261.345703" xlink:href="#DejaVuSans-28"/>
      <use x="300.359375" xlink:href="#DejaVuSans-39"/>
      <use x="363.982422" xlink:href="#DejaVuSans-35"/>
      <use x="427.605469" xlink:href="#DejaVuSans-74"/>
      <use x="466.814453" xlink:href="#DejaVuSans-68"/>
      <use x="530.193359" xlink:href="#DejaVuSans-20"/>
      <use x="561.980469" xlink:href="#DejaVuSans-70"/>
      <use x="625.457031" xlink:href="#DejaVuSans-65"/>
      <use x="686.980469" xlink:href="#DejaVuSans-72"/>
      <use x="728.0625" xlink:href="#DejaVuSans-63"/>
      <use x="783.042969" xlink:href="#DejaVuSans-65"/>
      <use x="844.566406" xlink:href="#DejaVuSans-6e"/>
      <use x="907.945312" xlink:href="#DejaVuSans-2e"/>
      <use x="939.732422" xlink:href="#DejaVuSans-29"/>
     </g>
    </g>
   </g>
  </g>
 </g>
 <defs>
  <clipPath id="p166150ddf6">
   <rect height="701.28" width="612.45" x="86.31" y="103.68"/>
  </clipPath>
 </defs>
</svg>
