<?xml version="1.0" encoding="utf-8" standalone="no"?>
<!DOCTYPE svg PUBLIC "-//W3C//DTD SVG 1.1//EN"
  "http://www.w3.org/Graphics/SVG/1.1/DTD/svg11.dtd">
<!-- Created with matplotlib (http://matplotlib.org/) -->
<svg height="864pt" version="1.1" viewBox="0 0 720 864" width="720pt" xmlns="http://www.w3.org/2000/svg" xmlns:xlink="http://www.w3.org/1999/xlink">
 <defs>
  <style type="text/css">
*{stroke-linecap:butt;stroke-linejoin:round;}
  </style>
 </defs>
 <g id="figure_1">
  <g id="patch_1">
   <path d="M 0 864 
L 720 864 
L 720 0 
L 0 0 
z
" style="fill:#ffffff;"/>
  </g>
  <g id="axes_1">
   <g id="patch_2">
    <path d="M 46.64 822.04 
L 706.68 822.04 
L 706.68 103.68 
L 46.64 103.68 
z
" style="fill:#ffffff;"/>
   </g>
   <g id="PolyCollection_1">
    <path clip-path="url(#pc7050cba63)" d="M 76.641818 250.383831 
L 76.641818 322.961806 
L 79.687688 281.488677 
L 82.733558 302.225242 
L 85.779428 302.225242 
L 88.825298 343.69837 
L 91.871168 405.908063 
L 94.917037 447.381192 
L 97.962907 457.749474 
L 101.008777 426.644627 
L 104.054647 426.644627 
L 107.100517 447.381192 
L 110.146387 468.117756 
L 113.192257 509.590884 
L 116.238126 519.959167 
L 119.283996 592.537142 
L 122.329866 623.641988 
L 125.375736 644.378552 
L 128.421606 654.746834 
L 131.467476 675.483399 
L 134.513346 706.588245 
L 137.559216 716.956527 
L 140.605085 716.956527 
L 143.650955 716.956527 
L 146.696825 716.956527 
L 149.742695 716.956527 
L 152.788565 716.956527 
L 155.834435 727.324809 
L 158.880305 737.693092 
L 161.926174 737.693092 
L 164.972044 748.061374 
L 168.017914 748.061374 
L 171.063784 748.061374 
L 174.109654 748.061374 
L 177.155524 748.061374 
L 180.201394 748.061374 
L 183.247263 748.061374 
L 186.293133 748.061374 
L 189.339003 748.061374 
L 192.384873 748.061374 
L 195.430743 748.061374 
L 198.476613 748.061374 
L 201.522483 737.693092 
L 204.568353 727.324809 
L 207.614222 716.956527 
L 210.660092 685.851681 
L 213.705962 654.746834 
L 216.751832 623.641988 
L 219.797702 592.537142 
L 222.843572 540.695731 
L 225.889442 478.486038 
L 228.935311 426.644627 
L 231.981181 374.803217 
L 235.027051 333.330088 
L 238.072921 291.856959 
L 241.118791 281.488677 
L 244.164661 260.752113 
L 247.210531 250.383831 
L 250.256401 229.647267 
L 253.30227 208.910702 
L 256.34814 198.54242 
L 259.39401 198.54242 
L 262.43988 208.910702 
L 265.48575 188.174138 
L 268.53162 229.647267 
L 271.57749 250.383831 
L 274.623359 281.488677 
L 277.669229 291.856959 
L 280.715099 291.856959 
L 283.760969 354.066652 
L 286.806839 374.803217 
L 289.852709 364.434934 
L 292.898579 374.803217 
L 295.944449 405.908063 
L 298.990318 447.381192 
L 302.036188 478.486038 
L 305.082058 499.222602 
L 308.127928 530.327449 
L 311.173798 540.695731 
L 314.219668 561.432295 
L 317.265538 582.168859 
L 320.311407 613.273706 
L 323.357277 623.641988 
L 326.403147 634.01027 
L 329.449017 654.746834 
L 332.494887 644.378552 
L 335.540757 644.378552 
L 338.586627 644.378552 
L 341.632497 644.378552 
L 344.678366 644.378552 
L 347.724236 644.378552 
L 350.770106 665.115117 
L 353.815976 675.483399 
L 356.861846 675.483399 
L 359.907716 685.851681 
L 362.953586 716.956527 
L 365.999455 716.956527 
L 369.045325 727.324809 
L 372.091195 727.324809 
L 375.137065 727.324809 
L 378.182935 727.324809 
L 381.228805 727.324809 
L 384.274675 737.693092 
L 387.320545 737.693092 
L 390.366414 748.061374 
L 393.412284 748.061374 
L 396.458154 758.429656 
L 399.504024 758.429656 
L 402.549894 758.429656 
L 405.595764 758.429656 
L 408.641634 758.429656 
L 411.687503 758.429656 
L 414.733373 758.429656 
L 417.779243 758.429656 
L 420.825113 748.061374 
L 423.870983 748.061374 
L 426.916853 737.693092 
L 429.962723 716.956527 
L 433.008593 696.219963 
L 436.054462 685.851681 
L 439.100332 654.746834 
L 442.146202 644.378552 
L 445.192072 623.641988 
L 448.237942 602.905424 
L 451.283812 571.800577 
L 454.329682 551.064013 
L 457.375551 540.695731 
L 460.421421 509.590884 
L 463.467291 478.486038 
L 466.513161 468.117756 
L 469.559031 447.381192 
L 472.604901 405.908063 
L 475.650771 374.803217 
L 478.696641 416.276345 
L 481.74251 395.539781 
L 484.78838 374.803217 
L 487.83425 364.434934 
L 490.88012 447.381192 
L 493.92599 447.381192 
L 496.97186 395.539781 
L 500.01773 374.803217 
L 503.063599 437.012909 
L 506.109469 437.012909 
L 509.155339 395.539781 
L 512.201209 385.171499 
L 515.247079 499.222602 
L 518.292949 488.85432 
L 521.338819 478.486038 
L 524.384689 457.749474 
L 527.430558 478.486038 
L 530.476428 488.85432 
L 533.522298 468.117756 
L 536.568168 457.749474 
L 539.614038 488.85432 
L 542.659908 561.432295 
L 545.705778 551.064013 
L 548.751647 540.695731 
L 551.797517 571.800577 
L 554.843387 602.905424 
L 557.889257 613.273706 
L 560.935127 634.01027 
L 563.980997 654.746834 
L 567.026867 696.219963 
L 570.072737 706.588245 
L 573.118606 706.588245 
L 576.164476 716.956527 
L 579.210346 727.324809 
L 582.256216 748.061374 
L 585.302086 748.061374 
L 588.347956 748.061374 
L 591.393826 758.429656 
L 594.439695 758.429656 
L 597.485565 758.429656 
L 600.531435 758.429656 
L 603.577305 758.429656 
L 606.623175 758.429656 
L 609.669045 758.429656 
L 612.714915 758.429656 
L 615.760784 758.429656 
L 618.806654 768.797938 
L 621.852524 768.797938 
L 624.898394 768.797938 
L 627.944264 758.429656 
L 630.990134 758.429656 
L 634.036004 748.061374 
L 637.081874 748.061374 
L 640.127743 727.324809 
L 643.173613 696.219963 
L 646.219483 675.483399 
L 649.265353 644.378552 
L 652.311223 592.537142 
L 655.357093 540.695731 
L 658.402963 499.222602 
L 661.448832 478.486038 
L 664.494702 437.012909 
L 667.540572 416.276345 
L 670.586442 457.749474 
L 673.632312 447.381192 
L 676.678182 416.276345 
L 676.678182 374.803217 
L 676.678182 374.803217 
L 673.632312 405.908063 
L 670.586442 405.908063 
L 667.540572 374.803217 
L 664.494702 374.803217 
L 661.448832 426.644627 
L 658.402963 437.012909 
L 655.357093 457.749474 
L 652.311223 488.85432 
L 649.265353 571.800577 
L 646.219483 634.01027 
L 643.173613 665.115117 
L 640.127743 685.851681 
L 637.081874 696.219963 
L 634.036004 696.219963 
L 630.990134 696.219963 
L 627.944264 706.588245 
L 624.898394 706.588245 
L 621.852524 706.588245 
L 618.806654 706.588245 
L 615.760784 706.588245 
L 612.714915 706.588245 
L 609.669045 706.588245 
L 606.623175 696.219963 
L 603.577305 706.588245 
L 600.531435 706.588245 
L 597.485565 706.588245 
L 594.439695 706.588245 
L 591.393826 706.588245 
L 588.347956 696.219963 
L 585.302086 696.219963 
L 582.256216 696.219963 
L 579.210346 685.851681 
L 576.164476 675.483399 
L 573.118606 675.483399 
L 570.072737 665.115117 
L 567.026867 644.378552 
L 563.980997 613.273706 
L 560.935127 592.537142 
L 557.889257 582.168859 
L 554.843387 561.432295 
L 551.797517 530.327449 
L 548.751647 488.85432 
L 545.705778 509.590884 
L 542.659908 499.222602 
L 539.614038 447.381192 
L 536.568168 416.276345 
L 533.522298 416.276345 
L 530.476428 447.381192 
L 527.430558 437.012909 
L 524.384689 416.276345 
L 521.338819 437.012909 
L 518.292949 447.381192 
L 515.247079 405.908063 
L 512.201209 354.066652 
L 509.155339 322.961806 
L 506.109469 395.539781 
L 503.063599 374.803217 
L 500.01773 343.69837 
L 496.97186 322.961806 
L 493.92599 405.908063 
L 490.88012 374.803217 
L 487.83425 333.330088 
L 484.78838 333.330088 
L 481.74251 354.066652 
L 478.696641 364.434934 
L 475.650771 322.961806 
L 472.604901 343.69837 
L 469.559031 405.908063 
L 466.513161 416.276345 
L 463.467291 426.644627 
L 460.421421 426.644627 
L 457.375551 488.85432 
L 454.329682 499.222602 
L 451.283812 509.590884 
L 448.237942 540.695731 
L 445.192072 571.800577 
L 442.146202 592.537142 
L 439.100332 602.905424 
L 436.054462 644.378552 
L 433.008593 665.115117 
L 429.962723 675.483399 
L 426.916853 685.851681 
L 423.870983 696.219963 
L 420.825113 696.219963 
L 417.779243 696.219963 
L 414.733373 706.588245 
L 411.687503 706.588245 
L 408.641634 706.588245 
L 405.595764 706.588245 
L 402.549894 706.588245 
L 399.504024 706.588245 
L 396.458154 696.219963 
L 393.412284 696.219963 
L 390.366414 696.219963 
L 387.320545 685.851681 
L 384.274675 685.851681 
L 381.228805 685.851681 
L 378.182935 685.851681 
L 375.137065 685.851681 
L 372.091195 675.483399 
L 369.045325 675.483399 
L 365.999455 675.483399 
L 362.953586 665.115117 
L 359.907716 654.746834 
L 356.861846 644.378552 
L 353.815976 644.378552 
L 350.770106 634.01027 
L 347.724236 613.273706 
L 344.678366 602.905424 
L 341.632497 623.641988 
L 338.586627 613.273706 
L 335.540757 613.273706 
L 332.494887 613.273706 
L 329.449017 613.273706 
L 326.403147 602.905424 
L 323.357277 582.168859 
L 320.311407 561.432295 
L 317.265538 540.695731 
L 314.219668 519.959167 
L 311.173798 499.222602 
L 308.127928 488.85432 
L 305.082058 457.749474 
L 302.036188 426.644627 
L 298.990318 395.539781 
L 295.944449 364.434934 
L 292.898579 343.69837 
L 289.852709 333.330088 
L 286.806839 312.593524 
L 283.760969 271.120395 
L 280.715099 240.015549 
L 277.669229 229.647267 
L 274.623359 198.54242 
L 271.57749 177.805856 
L 268.53162 157.069292 
L 265.48575 136.332727 
L 262.43988 146.701009 
L 259.39401 146.701009 
L 256.34814 157.069292 
L 253.30227 167.437574 
L 250.256401 177.805856 
L 247.210531 208.910702 
L 244.164661 219.278984 
L 241.118791 240.015549 
L 238.072921 240.015549 
L 235.027051 281.488677 
L 231.981181 302.225242 
L 228.935311 354.066652 
L 225.889442 385.171499 
L 222.843572 437.012909 
L 219.797702 519.959167 
L 216.751832 561.432295 
L 213.705962 602.905424 
L 210.660092 634.01027 
L 207.614222 675.483399 
L 204.568353 685.851681 
L 201.522483 696.219963 
L 198.476613 696.219963 
L 195.430743 696.219963 
L 192.384873 696.219963 
L 189.339003 696.219963 
L 186.293133 696.219963 
L 183.247263 696.219963 
L 180.201394 696.219963 
L 177.155524 696.219963 
L 174.109654 696.219963 
L 171.063784 696.219963 
L 168.017914 696.219963 
L 164.972044 696.219963 
L 161.926174 685.851681 
L 158.880305 685.851681 
L 155.834435 685.851681 
L 152.788565 675.483399 
L 149.742695 675.483399 
L 146.696825 675.483399 
L 143.650955 675.483399 
L 140.605085 675.483399 
L 137.559216 675.483399 
L 134.513346 665.115117 
L 131.467476 634.01027 
L 128.421606 623.641988 
L 125.375736 602.905424 
L 122.329866 571.800577 
L 119.283996 530.327449 
L 116.238126 478.486038 
L 113.192257 457.749474 
L 110.146387 437.012909 
L 107.100517 405.908063 
L 104.054647 395.539781 
L 101.008777 385.171499 
L 97.962907 416.276345 
L 94.917037 374.803217 
L 91.871168 322.961806 
L 88.825298 281.488677 
L 85.779428 250.383831 
L 82.733558 250.383831 
L 79.687688 229.647267 
L 76.641818 250.383831 
z
" style="fill:#008000;fill-opacity:0.4;"/>
   </g>
   <g id="matplotlib.axis_1">
    <g id="xtick_1">
     <g id="line2d_1">
      <defs>
       <path d="M 0 0 
L 0 3.5 
" id="mbe29ec39dd" style="stroke:#000000;stroke-width:0.8;"/>
      </defs>
      <g>
       <use style="stroke:#000000;stroke-width:0.8;" x="76.641818" xlink:href="#mbe29ec39dd" y="822.04"/>
      </g>
     </g>
     <g id="text_1">
      <!-- 0.0 -->
      <defs>
       <path d="M 31.78125 66.40625 
Q 24.171875 66.40625 20.328125 58.90625 
Q 16.5 51.421875 16.5 36.375 
Q 16.5 21.390625 20.328125 13.890625 
Q 24.171875 6.390625 31.78125 6.390625 
Q 39.453125 6.390625 43.28125 13.890625 
Q 47.125 21.390625 47.125 36.375 
Q 47.125 51.421875 43.28125 58.90625 
Q 39.453125 66.40625 31.78125 66.40625 
z
M 31.78125 74.21875 
Q 44.046875 74.21875 50.515625 64.515625 
Q 56.984375 54.828125 56.984375 36.375 
Q 56.984375 17.96875 50.515625 8.265625 
Q 44.046875 -1.421875 31.78125 -1.421875 
Q 19.53125 -1.421875 13.0625 8.265625 
Q 6.59375 17.96875 6.59375 36.375 
Q 6.59375 54.828125 13.0625 64.515625 
Q 19.53125 74.21875 31.78125 74.21875 
z
" id="DejaVuSans-30"/>
       <path d="M 10.6875 12.40625 
L 21 12.40625 
L 21 0 
L 10.6875 0 
z
" id="DejaVuSans-2e"/>
      </defs>
      <g transform="translate(68.690256 836.638438)scale(0.1 -0.1)">
       <use xlink:href="#DejaVuSans-30"/>
       <use x="63.623047" xlink:href="#DejaVuSans-2e"/>
       <use x="95.410156" xlink:href="#DejaVuSans-30"/>
      </g>
     </g>
    </g>
    <g id="xtick_2">
     <g id="line2d_2">
      <g>
       <use style="stroke:#000000;stroke-width:0.8;" x="196.649091" xlink:href="#mbe29ec39dd" y="822.04"/>
      </g>
     </g>
     <g id="text_2">
      <!-- 0.2 -->
      <defs>
       <path d="M 19.1875 8.296875 
L 53.609375 8.296875 
L 53.609375 0 
L 7.328125 0 
L 7.328125 8.296875 
Q 12.9375 14.109375 22.625 23.890625 
Q 32.328125 33.6875 34.8125 36.53125 
Q 39.546875 41.84375 41.421875 45.53125 
Q 43.3125 49.21875 43.3125 52.78125 
Q 43.3125 58.59375 39.234375 62.25 
Q 35.15625 65.921875 28.609375 65.921875 
Q 23.96875 65.921875 18.8125 64.3125 
Q 13.671875 62.703125 7.8125 59.421875 
L 7.8125 69.390625 
Q 13.765625 71.78125 18.9375 73 
Q 24.125 74.21875 28.421875 74.21875 
Q 39.75 74.21875 46.484375 68.546875 
Q 53.21875 62.890625 53.21875 53.421875 
Q 53.21875 48.921875 51.53125 44.890625 
Q 49.859375 40.875 45.40625 35.40625 
Q 44.1875 33.984375 37.640625 27.21875 
Q 31.109375 20.453125 19.1875 8.296875 
z
" id="DejaVuSans-32"/>
      </defs>
      <g transform="translate(188.697528 836.638438)scale(0.1 -0.1)">
       <use xlink:href="#DejaVuSans-30"/>
       <use x="63.623047" xlink:href="#DejaVuSans-2e"/>
       <use x="95.410156" xlink:href="#DejaVuSans-32"/>
      </g>
     </g>
    </g>
    <g id="xtick_3">
     <g id="line2d_3">
      <g>
       <use style="stroke:#000000;stroke-width:0.8;" x="316.656364" xlink:href="#mbe29ec39dd" y="822.04"/>
      </g>
     </g>
     <g id="text_3">
      <!-- 0.4 -->
      <defs>
       <path d="M 37.796875 64.3125 
L 12.890625 25.390625 
L 37.796875 25.390625 
z
M 35.203125 72.90625 
L 47.609375 72.90625 
L 47.609375 25.390625 
L 58.015625 25.390625 
L 58.015625 17.1875 
L 47.609375 17.1875 
L 47.609375 0 
L 37.796875 0 
L 37.796875 17.1875 
L 4.890625 17.1875 
L 4.890625 26.703125 
z
" id="DejaVuSans-34"/>
      </defs>
      <g transform="translate(308.704801 836.638438)scale(0.1 -0.1)">
       <use xlink:href="#DejaVuSans-30"/>
       <use x="63.623047" xlink:href="#DejaVuSans-2e"/>
       <use x="95.410156" xlink:href="#DejaVuSans-34"/>
      </g>
     </g>
    </g>
    <g id="xtick_4">
     <g id="line2d_4">
      <g>
       <use style="stroke:#000000;stroke-width:0.8;" x="436.663636" xlink:href="#mbe29ec39dd" y="822.04"/>
      </g>
     </g>
     <g id="text_4">
      <!-- 0.6 -->
      <defs>
       <path d="M 33.015625 40.375 
Q 26.375 40.375 22.484375 35.828125 
Q 18.609375 31.296875 18.609375 23.390625 
Q 18.609375 15.53125 22.484375 10.953125 
Q 26.375 6.390625 33.015625 6.390625 
Q 39.65625 6.390625 43.53125 10.953125 
Q 47.40625 15.53125 47.40625 23.390625 
Q 47.40625 31.296875 43.53125 35.828125 
Q 39.65625 40.375 33.015625 40.375 
z
M 52.59375 71.296875 
L 52.59375 62.3125 
Q 48.875 64.0625 45.09375 64.984375 
Q 41.3125 65.921875 37.59375 65.921875 
Q 27.828125 65.921875 22.671875 59.328125 
Q 17.53125 52.734375 16.796875 39.40625 
Q 19.671875 43.65625 24.015625 45.921875 
Q 28.375 48.1875 33.59375 48.1875 
Q 44.578125 48.1875 50.953125 41.515625 
Q 57.328125 34.859375 57.328125 23.390625 
Q 57.328125 12.15625 50.6875 5.359375 
Q 44.046875 -1.421875 33.015625 -1.421875 
Q 20.359375 -1.421875 13.671875 8.265625 
Q 6.984375 17.96875 6.984375 36.375 
Q 6.984375 53.65625 15.1875 63.9375 
Q 23.390625 74.21875 37.203125 74.21875 
Q 40.921875 74.21875 44.703125 73.484375 
Q 48.484375 72.75 52.59375 71.296875 
z
" id="DejaVuSans-36"/>
      </defs>
      <g transform="translate(428.712074 836.638438)scale(0.1 -0.1)">
       <use xlink:href="#DejaVuSans-30"/>
       <use x="63.623047" xlink:href="#DejaVuSans-2e"/>
       <use x="95.410156" xlink:href="#DejaVuSans-36"/>
      </g>
     </g>
    </g>
    <g id="xtick_5">
     <g id="line2d_5">
      <g>
       <use style="stroke:#000000;stroke-width:0.8;" x="556.670909" xlink:href="#mbe29ec39dd" y="822.04"/>
      </g>
     </g>
     <g id="text_5">
      <!-- 0.8 -->
      <defs>
       <path d="M 31.78125 34.625 
Q 24.75 34.625 20.71875 30.859375 
Q 16.703125 27.09375 16.703125 20.515625 
Q 16.703125 13.921875 20.71875 10.15625 
Q 24.75 6.390625 31.78125 6.390625 
Q 38.8125 6.390625 42.859375 10.171875 
Q 46.921875 13.96875 46.921875 20.515625 
Q 46.921875 27.09375 42.890625 30.859375 
Q 38.875 34.625 31.78125 34.625 
z
M 21.921875 38.8125 
Q 15.578125 40.375 12.03125 44.71875 
Q 8.5 49.078125 8.5 55.328125 
Q 8.5 64.0625 14.71875 69.140625 
Q 20.953125 74.21875 31.78125 74.21875 
Q 42.671875 74.21875 48.875 69.140625 
Q 55.078125 64.0625 55.078125 55.328125 
Q 55.078125 49.078125 51.53125 44.71875 
Q 48 40.375 41.703125 38.8125 
Q 48.828125 37.15625 52.796875 32.3125 
Q 56.78125 27.484375 56.78125 20.515625 
Q 56.78125 9.90625 50.3125 4.234375 
Q 43.84375 -1.421875 31.78125 -1.421875 
Q 19.734375 -1.421875 13.25 4.234375 
Q 6.78125 9.90625 6.78125 20.515625 
Q 6.78125 27.484375 10.78125 32.3125 
Q 14.796875 37.15625 21.921875 38.8125 
z
M 18.3125 54.390625 
Q 18.3125 48.734375 21.84375 45.5625 
Q 25.390625 42.390625 31.78125 42.390625 
Q 38.140625 42.390625 41.71875 45.5625 
Q 45.3125 48.734375 45.3125 54.390625 
Q 45.3125 60.0625 41.71875 63.234375 
Q 38.140625 66.40625 31.78125 66.40625 
Q 25.390625 66.40625 21.84375 63.234375 
Q 18.3125 60.0625 18.3125 54.390625 
z
" id="DejaVuSans-38"/>
      </defs>
      <g transform="translate(548.719347 836.638438)scale(0.1 -0.1)">
       <use xlink:href="#DejaVuSans-30"/>
       <use x="63.623047" xlink:href="#DejaVuSans-2e"/>
       <use x="95.410156" xlink:href="#DejaVuSans-38"/>
      </g>
     </g>
    </g>
    <g id="xtick_6">
     <g id="line2d_6">
      <g>
       <use style="stroke:#000000;stroke-width:0.8;" x="676.678182" xlink:href="#mbe29ec39dd" y="822.04"/>
      </g>
     </g>
     <g id="text_6">
      <!-- 1.0 -->
      <defs>
       <path d="M 12.40625 8.296875 
L 28.515625 8.296875 
L 28.515625 63.921875 
L 10.984375 60.40625 
L 10.984375 69.390625 
L 28.421875 72.90625 
L 38.28125 72.90625 
L 38.28125 8.296875 
L 54.390625 8.296875 
L 54.390625 0 
L 12.40625 0 
z
" id="DejaVuSans-31"/>
      </defs>
      <g transform="translate(668.726619 836.638438)scale(0.1 -0.1)">
       <use xlink:href="#DejaVuSans-31"/>
       <use x="63.623047" xlink:href="#DejaVuSans-2e"/>
       <use x="95.410156" xlink:href="#DejaVuSans-30"/>
      </g>
     </g>
    </g>
   </g>
   <g id="matplotlib.axis_2">
    <g id="ytick_1">
     <g id="line2d_7">
      <defs>
       <path d="M 0 0 
L -3.5 0 
" id="m6ae6f65da1" style="stroke:#000000;stroke-width:0.8;"/>
      </defs>
      <g>
       <use style="stroke:#000000;stroke-width:0.8;" x="46.64" xlink:href="#m6ae6f65da1" y="799.902784"/>
      </g>
     </g>
     <g id="text_7">
      <!-- 0.0 -->
      <g transform="translate(23.736875 803.702003)scale(0.1 -0.1)">
       <use xlink:href="#DejaVuSans-30"/>
       <use x="63.623047" xlink:href="#DejaVuSans-2e"/>
       <use x="95.410156" xlink:href="#DejaVuSans-30"/>
      </g>
     </g>
    </g>
    <g id="ytick_2">
     <g id="line2d_8">
      <g>
       <use style="stroke:#000000;stroke-width:0.8;" x="46.64" xlink:href="#m6ae6f65da1" y="696.219963"/>
      </g>
     </g>
     <g id="text_8">
      <!-- 0.1 -->
      <g transform="translate(23.736875 700.019182)scale(0.1 -0.1)">
       <use xlink:href="#DejaVuSans-30"/>
       <use x="63.623047" xlink:href="#DejaVuSans-2e"/>
       <use x="95.410156" xlink:href="#DejaVuSans-31"/>
      </g>
     </g>
    </g>
    <g id="ytick_3">
     <g id="line2d_9">
      <g>
       <use style="stroke:#000000;stroke-width:0.8;" x="46.64" xlink:href="#m6ae6f65da1" y="592.537142"/>
      </g>
     </g>
     <g id="text_9">
      <!-- 0.2 -->
      <g transform="translate(23.736875 596.33636)scale(0.1 -0.1)">
       <use xlink:href="#DejaVuSans-30"/>
       <use x="63.623047" xlink:href="#DejaVuSans-2e"/>
       <use x="95.410156" xlink:href="#DejaVuSans-32"/>
      </g>
     </g>
    </g>
    <g id="ytick_4">
     <g id="line2d_10">
      <g>
       <use style="stroke:#000000;stroke-width:0.8;" x="46.64" xlink:href="#m6ae6f65da1" y="488.85432"/>
      </g>
     </g>
     <g id="text_10">
      <!-- 0.3 -->
      <defs>
       <path d="M 40.578125 39.3125 
Q 47.65625 37.796875 51.625 33 
Q 55.609375 28.21875 55.609375 21.1875 
Q 55.609375 10.40625 48.1875 4.484375 
Q 40.765625 -1.421875 27.09375 -1.421875 
Q 22.515625 -1.421875 17.65625 -0.515625 
Q 12.796875 0.390625 7.625 2.203125 
L 7.625 11.71875 
Q 11.71875 9.328125 16.59375 8.109375 
Q 21.484375 6.890625 26.8125 6.890625 
Q 36.078125 6.890625 40.9375 10.546875 
Q 45.796875 14.203125 45.796875 21.1875 
Q 45.796875 27.640625 41.28125 31.265625 
Q 36.765625 34.90625 28.71875 34.90625 
L 20.21875 34.90625 
L 20.21875 43.015625 
L 29.109375 43.015625 
Q 36.375 43.015625 40.234375 45.921875 
Q 44.09375 48.828125 44.09375 54.296875 
Q 44.09375 59.90625 40.109375 62.90625 
Q 36.140625 65.921875 28.71875 65.921875 
Q 24.65625 65.921875 20.015625 65.03125 
Q 15.375 64.15625 9.8125 62.3125 
L 9.8125 71.09375 
Q 15.4375 72.65625 20.34375 73.4375 
Q 25.25 74.21875 29.59375 74.21875 
Q 40.828125 74.21875 47.359375 69.109375 
Q 53.90625 64.015625 53.90625 55.328125 
Q 53.90625 49.265625 50.4375 45.09375 
Q 46.96875 40.921875 40.578125 39.3125 
z
" id="DejaVuSans-33"/>
      </defs>
      <g transform="translate(23.736875 492.653539)scale(0.1 -0.1)">
       <use xlink:href="#DejaVuSans-30"/>
       <use x="63.623047" xlink:href="#DejaVuSans-2e"/>
       <use x="95.410156" xlink:href="#DejaVuSans-33"/>
      </g>
     </g>
    </g>
    <g id="ytick_5">
     <g id="line2d_11">
      <g>
       <use style="stroke:#000000;stroke-width:0.8;" x="46.64" xlink:href="#m6ae6f65da1" y="385.171499"/>
      </g>
     </g>
     <g id="text_11">
      <!-- 0.4 -->
      <g transform="translate(23.736875 388.970717)scale(0.1 -0.1)">
       <use xlink:href="#DejaVuSans-30"/>
       <use x="63.623047" xlink:href="#DejaVuSans-2e"/>
       <use x="95.410156" xlink:href="#DejaVuSans-34"/>
      </g>
     </g>
    </g>
    <g id="ytick_6">
     <g id="line2d_12">
      <g>
       <use style="stroke:#000000;stroke-width:0.8;" x="46.64" xlink:href="#m6ae6f65da1" y="281.488677"/>
      </g>
     </g>
     <g id="text_12">
      <!-- 0.5 -->
      <defs>
       <path d="M 10.796875 72.90625 
L 49.515625 72.90625 
L 49.515625 64.59375 
L 19.828125 64.59375 
L 19.828125 46.734375 
Q 21.96875 47.46875 24.109375 47.828125 
Q 26.265625 48.1875 28.421875 48.1875 
Q 40.625 48.1875 47.75 41.5 
Q 54.890625 34.8125 54.890625 23.390625 
Q 54.890625 11.625 47.5625 5.09375 
Q 40.234375 -1.421875 26.90625 -1.421875 
Q 22.3125 -1.421875 17.546875 -0.640625 
Q 12.796875 0.140625 7.71875 1.703125 
L 7.71875 11.625 
Q 12.109375 9.234375 16.796875 8.0625 
Q 21.484375 6.890625 26.703125 6.890625 
Q 35.15625 6.890625 40.078125 11.328125 
Q 45.015625 15.765625 45.015625 23.390625 
Q 45.015625 31 40.078125 35.4375 
Q 35.15625 39.890625 26.703125 39.890625 
Q 22.75 39.890625 18.8125 39.015625 
Q 14.890625 38.140625 10.796875 36.28125 
z
" id="DejaVuSans-35"/>
      </defs>
      <g transform="translate(23.736875 285.287896)scale(0.1 -0.1)">
       <use xlink:href="#DejaVuSans-30"/>
       <use x="63.623047" xlink:href="#DejaVuSans-2e"/>
       <use x="95.410156" xlink:href="#DejaVuSans-35"/>
      </g>
     </g>
    </g>
    <g id="ytick_7">
     <g id="line2d_13">
      <g>
       <use style="stroke:#000000;stroke-width:0.8;" x="46.64" xlink:href="#m6ae6f65da1" y="177.805856"/>
      </g>
     </g>
     <g id="text_13">
      <!-- 0.6 -->
      <g transform="translate(23.736875 181.605075)scale(0.1 -0.1)">
       <use xlink:href="#DejaVuSans-30"/>
       <use x="63.623047" xlink:href="#DejaVuSans-2e"/>
       <use x="95.410156" xlink:href="#DejaVuSans-36"/>
      </g>
     </g>
    </g>
   </g>
   <g id="line2d_14">
    <path clip-path="url(#pc7050cba63)" d="M 76.641818 288.148225 
L 79.687688 276.931817 
L 82.733558 297.261945 
L 85.779428 299.364633 
L 88.825298 346.333987 
L 91.871168 387.695139 
L 94.917037 419.94257 
L 97.962907 412.932574 
L 101.008777 397.509754 
L 104.054647 415.035262 
L 107.100517 428.355394 
L 110.146387 456.396413 
L 113.192257 469.014612 
L 116.238126 513.180384 
L 119.283996 560.850635 
L 125.375736 619.036397 
L 128.421606 636.561904 
L 131.467476 682.129468 
L 134.513346 702.459181 
L 137.559216 708.768488 
L 140.605085 716.479794 
L 143.650955 710.87159 
L 146.696825 708.768488 
L 149.742695 708.768488 
L 152.788565 719.984999 
L 155.834435 739.61392 
L 158.880305 745.222227 
L 161.926174 748.727329 
L 164.972044 759.24284 
L 168.017914 759.24284 
L 171.063784 762.748045 
L 174.109654 754.335636 
L 177.155524 750.129431 
L 180.201394 756.438738 
L 183.247263 755.737739 
L 186.293133 759.94384 
L 189.339003 760.644943 
L 192.384873 764.851148 
L 195.430743 759.24284 
L 198.476613 750.830431 
L 201.522483 739.61392 
L 204.568353 724.191204 
L 207.614222 684.232155 
L 210.660092 635.861009 
L 213.705962 595.200753 
L 216.751832 557.345118 
L 219.797702 501.963976 
L 222.843572 449.386417 
L 225.889442 403.818854 
L 228.935311 365.262323 
L 231.981181 335.11758 
L 235.027051 302.169253 
L 238.072921 286.045537 
L 241.118791 272.024509 
L 244.164661 259.40631 
L 247.210531 240.477974 
L 250.256401 220.849779 
L 253.30227 207.529647 
L 256.34814 194.911448 
L 259.39401 201.921443 
L 262.43988 191.405932 
L 265.48575 195.612344 
L 268.53162 220.849779 
L 271.57749 243.282594 
L 274.623359 269.921822 
L 277.669229 271.323613 
L 280.715099 300.066565 
L 283.760969 342.829508 
L 286.806839 349.839504 
L 289.852709 354.746812 
L 292.898579 374.376043 
L 295.944449 391.901551 
L 298.990318 431.859873 
L 305.082058 473.221024 
L 308.127928 498.45846 
L 311.173798 508.273076 
L 314.219668 533.510511 
L 317.265538 552.43781 
L 320.311407 575.572558 
L 323.357277 588.891654 
L 326.403147 613.428193 
L 329.449017 619.737293 
L 335.540757 615.530881 
L 338.586627 620.438189 
L 341.632497 619.737293 
L 344.678366 606.417161 
L 350.770106 646.37652 
L 353.815976 657.592928 
L 356.861846 663.902028 
L 359.907716 694.046771 
L 362.953586 714.376691 
L 365.999455 719.984999 
L 369.045325 723.490204 
L 372.091195 720.685998 
L 375.137065 726.294306 
L 378.182935 725.593306 
L 381.228805 730.500511 
L 384.274675 742.418021 
L 390.366414 762.046942 
L 393.412284 769.057352 
L 396.458154 777.469762 
L 399.504024 780.273864 
L 402.549894 778.170761 
L 405.595764 774.665556 
L 408.641634 780.273864 
L 411.687503 780.974863 
L 414.733373 772.562454 
L 417.779243 764.851148 
L 420.825113 757.840737 
L 423.870983 744.521124 
L 426.916853 725.593306 
L 429.962723 698.252976 
L 433.008593 681.428572 
L 436.054462 642.170108 
L 439.100332 613.428193 
L 442.146202 592.39717 
L 445.192072 565.057047 
L 448.237942 535.613199 
L 451.283812 511.778592 
L 454.329682 508.273076 
L 457.375551 474.623853 
L 460.421421 446.581797 
L 463.467291 440.272697 
L 466.513161 424.849878 
L 469.559031 403.117958 
L 472.604901 355.447707 
L 475.650771 376.478731 
L 478.696641 382.787831 
L 481.74251 368.766803 
L 484.78838 349.839504 
L 487.83425 370.169631 
L 490.88012 424.849878 
L 493.92599 382.086935 
L 496.97186 362.457703 
L 500.01773 378.581419 
L 503.063599 414.334366 
L 506.109469 382.086935 
L 509.155339 359.65412 
L 512.201209 408.726162 
L 515.247079 447.282693 
L 518.292949 445.180005 
L 521.338819 438.17001 
L 524.384689 436.066285 
L 527.430558 457.097309 
L 530.476428 445.880901 
L 533.522298 427.654498 
L 536.568168 445.180005 
L 539.614038 474.623853 
L 542.659908 514.582175 
L 545.705778 496.355772 
L 548.751647 514.582175 
L 551.797517 551.736915 
L 554.843387 569.964355 
L 557.889257 588.891654 
L 560.935127 605.716265 
L 563.980997 655.49024 
L 567.026867 689.840359 
L 570.072737 701.758077 
L 573.118606 710.170487 
L 576.164476 721.387102 
L 579.210346 747.325329 
L 582.256216 759.24284 
L 585.302086 764.150045 
L 588.347956 771.861454 
L 591.393826 778.170761 
L 594.439695 778.871761 
L 597.485565 776.067659 
L 600.531435 776.067659 
L 603.577305 772.562454 
L 606.623175 775.36666 
L 609.669045 780.273864 
L 612.714915 782.376966 
L 615.760784 787.28417 
L 618.806654 789.387273 
L 621.852524 789.387273 
L 624.898394 783.077966 
L 627.944264 772.562454 
L 630.990134 764.851148 
L 634.036004 754.335636 
L 637.081874 738.211817 
L 640.127743 709.469487 
L 646.219483 629.551909 
L 649.265353 555.943327 
L 652.311223 503.365768 
L 655.357093 471.118337 
L 658.402963 450.788209 
L 661.448832 422.046294 
L 664.494702 389.09693 
L 667.540572 410.127954 
L 670.586442 423.448086 
L 673.632312 405.220646 
L 676.678182 377.880523 
L 676.678182 377.880523 
" style="fill:none;stroke:#1f77b4;stroke-linecap:square;stroke-width:1.5;"/>
   </g>
   <g id="line2d_15">
    <path clip-path="url(#pc7050cba63)" d="M 76.641818 280.055672 
L 79.687688 259.173133 
L 82.733558 280.132342 
L 85.779428 285.376783 
L 88.825298 318.431822 
L 91.871168 378.844118 
L 94.917037 415.646745 
L 97.962907 436.41687 
L 101.008777 402.11218 
L 104.054647 406.404649 
L 110.146387 449.716784 
L 113.192257 482.571823 
L 116.238126 498.626835 
L 119.283996 557.803942 
L 122.329866 592.882978 
L 125.375736 618.563713 
L 128.421606 636.231811 
L 131.467476 656.203851 
L 134.513346 685.344454 
L 137.559216 693.374825 
L 140.605085 695.123381 
L 143.650955 697.124323 
L 146.696825 692.143455 
L 149.742695 692.748498 
L 152.788565 695.35121 
L 158.880305 713.013033 
L 161.926174 713.561324 
L 164.972044 717.831829 
L 168.017914 720.430448 
L 174.109654 721.048997 
L 177.155524 715.598419 
L 180.201394 716.37031 
L 183.247263 718.309588 
L 189.339003 720.412985 
L 192.384873 721.039857 
L 195.430743 722.454582 
L 198.476613 717.825417 
L 201.522483 714.299655 
L 204.568353 706.357687 
L 207.614222 692.810708 
L 213.705962 621.666285 
L 216.751832 583.143478 
L 219.797702 542.880301 
L 222.843572 476.997644 
L 225.889442 418.967596 
L 228.935311 382.585431 
L 231.981181 330.243205 
L 235.027051 307.981685 
L 238.072921 267.89013 
L 241.118791 265.828615 
L 244.164661 248.171567 
L 247.210531 234.613537 
L 250.256401 206.519722 
L 256.34814 180.004887 
L 259.39401 174.693871 
L 262.43988 181.333937 
L 265.48575 162.416051 
L 268.53162 201.665865 
L 271.57749 217.708599 
L 274.623359 250.606612 
L 277.669229 265.548671 
L 280.715099 272.07264 
L 283.760969 326.382657 
L 286.806839 351.386997 
L 289.852709 353.723544 
L 292.898579 361.55378 
L 295.944449 384.713521 
L 298.990318 422.017236 
L 302.036188 454.393697 
L 305.082058 476.50747 
L 308.127928 503.060777 
L 314.219668 537.130133 
L 317.265538 556.679256 
L 320.311407 582.113607 
L 323.357277 596.000011 
L 326.403147 611.796089 
L 329.449017 628.588477 
L 332.494887 625.167353 
L 335.540757 627.177163 
L 338.586627 625.926694 
L 341.632497 629.421214 
L 344.678366 617.673677 
L 347.724236 620.868336 
L 350.770106 645.043896 
L 353.815976 655.078347 
L 356.861846 658.368503 
L 359.907716 672.588192 
L 362.953586 692.319443 
L 365.999455 699.218989 
L 369.045325 700.552677 
L 372.091195 700.273279 
L 375.137065 701.698918 
L 378.182935 703.296998 
L 381.228805 703.391404 
L 384.274675 708.127526 
L 390.366414 719.556238 
L 393.412284 723.162217 
L 396.458154 725.911995 
L 399.504024 728.98428 
L 402.549894 728.680326 
L 405.595764 727.569555 
L 408.641634 727.404482 
L 411.687503 729.255629 
L 414.733373 728.28715 
L 417.779243 723.472856 
L 420.825113 721.407249 
L 423.870983 717.355979 
L 426.916853 707.463001 
L 429.962723 695.690635 
L 433.008593 679.842034 
L 436.054462 663.163015 
L 439.100332 627.671566 
L 442.146202 610.768402 
L 445.192072 590.291181 
L 448.237942 561.521926 
L 451.283812 531.033174 
L 454.329682 517.941717 
L 457.375551 511.12348 
L 460.421421 454.59547 
L 463.467291 447.082967 
L 466.513161 437.781117 
L 469.559031 419.975093 
L 472.604901 371.203376 
L 475.650771 345.045292 
L 478.696641 395.623819 
L 481.74251 377.017663 
L 484.78838 349.256861 
L 487.83425 345.523734 
L 490.88012 416.353971 
L 493.92599 430.347332 
L 496.97186 349.897375 
L 500.01773 361.214082 
L 503.063599 407.911734 
L 506.109469 415.553157 
L 509.155339 353.296534 
L 512.201209 370.863951 
L 515.247079 455.830387 
L 518.292949 463.535521 
L 521.338819 454.085923 
L 524.384689 432.4068 
L 527.430558 457.063394 
L 530.476428 467.695521 
L 533.522298 436.255343 
L 536.568168 439.25737 
L 539.614038 465.764429 
L 542.659908 523.89352 
L 545.705778 525.225435 
L 548.751647 510.387196 
L 551.797517 546.722568 
L 554.843387 579.664374 
L 557.889257 592.982568 
L 560.935127 607.912758 
L 563.980997 632.80714 
L 567.026867 672.122165 
L 570.072737 689.090132 
L 573.118606 690.525866 
L 576.164476 696.853383 
L 579.210346 705.035186 
L 582.256216 718.994986 
L 588.347956 723.443388 
L 591.393826 727.523853 
L 594.439695 728.21348 
L 597.485565 728.066278 
L 603.577305 726.593982 
L 606.623175 725.996578 
L 612.714915 729.503377 
L 615.760784 730.571582 
L 618.806654 731.936512 
L 621.852524 732.438419 
L 624.898394 732.160112 
L 627.944264 727.900658 
L 630.990134 723.447618 
L 634.036004 719.867968 
L 637.081874 714.581781 
L 640.127743 703.868617 
L 643.173613 679.563727 
L 646.219483 653.415192 
L 649.265353 603.673904 
L 652.311223 530.789792 
L 655.357093 484.89159 
L 658.402963 464.859114 
L 661.448832 442.713555 
L 664.494702 398.55163 
L 667.540572 390.275695 
L 670.586442 430.880616 
L 673.632312 425.49061 
L 676.678182 389.717035 
L 676.678182 389.717035 
" style="fill:none;stroke:#ff7f0e;stroke-linecap:square;stroke-width:1.5;"/>
   </g>
   <g id="line2d_16">
    <path clip-path="url(#pc7050cba63)" d="M 76.641818 322.961806 
L 79.687688 281.488677 
L 82.733558 302.225242 
L 85.779428 302.225242 
L 88.825298 343.69837 
L 91.871168 405.908063 
L 94.917037 447.381192 
L 97.962907 457.749474 
L 101.008777 426.644627 
L 104.054647 426.644627 
L 110.146387 468.117756 
L 113.192257 509.590884 
L 116.238126 519.959167 
L 119.283996 592.537142 
L 122.329866 623.641988 
L 125.375736 644.378552 
L 128.421606 654.746834 
L 131.467476 675.483399 
L 134.513346 706.588245 
L 137.559216 716.956527 
L 152.788565 716.956527 
L 158.880305 737.693092 
L 161.926174 737.693092 
L 164.972044 748.061374 
L 198.476613 748.061374 
L 207.614222 716.956527 
L 219.797702 592.537142 
L 222.843572 540.695731 
L 225.889442 478.486038 
L 231.981181 374.803217 
L 238.072921 291.856959 
L 241.118791 281.488677 
L 244.164661 260.752113 
L 247.210531 250.383831 
L 253.30227 208.910702 
L 256.34814 198.54242 
L 259.39401 198.54242 
L 262.43988 208.910702 
L 265.48575 188.174138 
L 268.53162 229.647267 
L 271.57749 250.383831 
L 274.623359 281.488677 
L 277.669229 291.856959 
L 280.715099 291.856959 
L 283.760969 354.066652 
L 286.806839 374.803217 
L 289.852709 364.434934 
L 292.898579 374.803217 
L 295.944449 405.908063 
L 298.990318 447.381192 
L 302.036188 478.486038 
L 305.082058 499.222602 
L 308.127928 530.327449 
L 311.173798 540.695731 
L 317.265538 582.168859 
L 320.311407 613.273706 
L 326.403147 634.01027 
L 329.449017 654.746834 
L 332.494887 644.378552 
L 347.724236 644.378552 
L 350.770106 665.115117 
L 353.815976 675.483399 
L 356.861846 675.483399 
L 359.907716 685.851681 
L 362.953586 716.956527 
L 365.999455 716.956527 
L 369.045325 727.324809 
L 381.228805 727.324809 
L 384.274675 737.693092 
L 387.320545 737.693092 
L 390.366414 748.061374 
L 393.412284 748.061374 
L 396.458154 758.429656 
L 417.779243 758.429656 
L 420.825113 748.061374 
L 423.870983 748.061374 
L 426.916853 737.693092 
L 433.008593 696.219963 
L 436.054462 685.851681 
L 439.100332 654.746834 
L 442.146202 644.378552 
L 448.237942 602.905424 
L 451.283812 571.800577 
L 454.329682 551.064013 
L 457.375551 540.695731 
L 463.467291 478.486038 
L 466.513161 468.117756 
L 469.559031 447.381192 
L 472.604901 405.908063 
L 475.650771 374.803217 
L 478.696641 416.276345 
L 484.78838 374.803217 
L 487.83425 364.434934 
L 490.88012 447.381192 
L 493.92599 447.381192 
L 496.97186 395.539781 
L 500.01773 374.803217 
L 503.063599 437.012909 
L 506.109469 437.012909 
L 509.155339 395.539781 
L 512.201209 385.171499 
L 515.247079 499.222602 
L 521.338819 478.486038 
L 524.384689 457.749474 
L 527.430558 478.486038 
L 530.476428 488.85432 
L 533.522298 468.117756 
L 536.568168 457.749474 
L 539.614038 488.85432 
L 542.659908 561.432295 
L 548.751647 540.695731 
L 554.843387 602.905424 
L 557.889257 613.273706 
L 563.980997 654.746834 
L 567.026867 696.219963 
L 570.072737 706.588245 
L 573.118606 706.588245 
L 579.210346 727.324809 
L 582.256216 748.061374 
L 588.347956 748.061374 
L 591.393826 758.429656 
L 615.760784 758.429656 
L 618.806654 768.797938 
L 624.898394 768.797938 
L 627.944264 758.429656 
L 630.990134 758.429656 
L 634.036004 748.061374 
L 637.081874 748.061374 
L 640.127743 727.324809 
L 643.173613 696.219963 
L 646.219483 675.483399 
L 649.265353 644.378552 
L 655.357093 540.695731 
L 658.402963 499.222602 
L 661.448832 478.486038 
L 664.494702 437.012909 
L 667.540572 416.276345 
L 670.586442 457.749474 
L 673.632312 447.381192 
L 676.678182 416.276345 
L 676.678182 416.276345 
" style="fill:none;stroke:#2ca02c;stroke-linecap:square;stroke-width:1.5;"/>
   </g>
   <g id="line2d_17">
    <path clip-path="url(#pc7050cba63)" d="M 76.641818 250.383831 
L 79.687688 229.647267 
L 82.733558 250.383831 
L 85.779428 250.383831 
L 88.825298 281.488677 
L 91.871168 322.961806 
L 94.917037 374.803217 
L 97.962907 416.276345 
L 101.008777 385.171499 
L 107.100517 405.908063 
L 110.146387 437.012909 
L 116.238126 478.486038 
L 119.283996 530.327449 
L 122.329866 571.800577 
L 125.375736 602.905424 
L 128.421606 623.641988 
L 131.467476 634.01027 
L 134.513346 665.115117 
L 137.559216 675.483399 
L 152.788565 675.483399 
L 155.834435 685.851681 
L 161.926174 685.851681 
L 164.972044 696.219963 
L 201.522483 696.219963 
L 207.614222 675.483399 
L 210.660092 634.01027 
L 213.705962 602.905424 
L 219.797702 519.959167 
L 222.843572 437.012909 
L 225.889442 385.171499 
L 228.935311 354.066652 
L 231.981181 302.225242 
L 235.027051 281.488677 
L 238.072921 240.015549 
L 241.118791 240.015549 
L 244.164661 219.278984 
L 247.210531 208.910702 
L 250.256401 177.805856 
L 259.39401 146.701009 
L 262.43988 146.701009 
L 265.48575 136.332727 
L 274.623359 198.54242 
L 277.669229 229.647267 
L 280.715099 240.015549 
L 283.760969 271.120395 
L 286.806839 312.593524 
L 289.852709 333.330088 
L 292.898579 343.69837 
L 295.944449 364.434934 
L 308.127928 488.85432 
L 311.173798 499.222602 
L 326.403147 602.905424 
L 329.449017 613.273706 
L 338.586627 613.273706 
L 341.632497 623.641988 
L 344.678366 602.905424 
L 347.724236 613.273706 
L 350.770106 634.01027 
L 353.815976 644.378552 
L 356.861846 644.378552 
L 365.999455 675.483399 
L 372.091195 675.483399 
L 375.137065 685.851681 
L 387.320545 685.851681 
L 390.366414 696.219963 
L 396.458154 696.219963 
L 399.504024 706.588245 
L 414.733373 706.588245 
L 417.779243 696.219963 
L 423.870983 696.219963 
L 433.008593 665.115117 
L 436.054462 644.378552 
L 439.100332 602.905424 
L 442.146202 592.537142 
L 445.192072 571.800577 
L 451.283812 509.590884 
L 457.375551 488.85432 
L 460.421421 426.644627 
L 463.467291 426.644627 
L 469.559031 405.908063 
L 472.604901 343.69837 
L 475.650771 322.961806 
L 478.696641 364.434934 
L 481.74251 354.066652 
L 484.78838 333.330088 
L 487.83425 333.330088 
L 490.88012 374.803217 
L 493.92599 405.908063 
L 496.97186 322.961806 
L 500.01773 343.69837 
L 503.063599 374.803217 
L 506.109469 395.539781 
L 509.155339 322.961806 
L 512.201209 354.066652 
L 515.247079 405.908063 
L 518.292949 447.381192 
L 521.338819 437.012909 
L 524.384689 416.276345 
L 527.430558 437.012909 
L 530.476428 447.381192 
L 533.522298 416.276345 
L 536.568168 416.276345 
L 539.614038 447.381192 
L 542.659908 499.222602 
L 545.705778 509.590884 
L 548.751647 488.85432 
L 551.797517 530.327449 
L 554.843387 561.432295 
L 557.889257 582.168859 
L 560.935127 592.537142 
L 563.980997 613.273706 
L 567.026867 644.378552 
L 570.072737 665.115117 
L 573.118606 675.483399 
L 576.164476 675.483399 
L 582.256216 696.219963 
L 588.347956 696.219963 
L 591.393826 706.588245 
L 603.577305 706.588245 
L 606.623175 696.219963 
L 609.669045 706.588245 
L 627.944264 706.588245 
L 630.990134 696.219963 
L 637.081874 696.219963 
L 640.127743 685.851681 
L 643.173613 665.115117 
L 646.219483 634.01027 
L 649.265353 571.800577 
L 652.311223 488.85432 
L 655.357093 457.749474 
L 658.402963 437.012909 
L 661.448832 426.644627 
L 664.494702 374.803217 
L 667.540572 374.803217 
L 670.586442 405.908063 
L 673.632312 405.908063 
L 676.678182 374.803217 
L 676.678182 374.803217 
" style="fill:none;stroke:#d62728;stroke-linecap:square;stroke-width:1.5;"/>
   </g>
   <g id="patch_3">
    <path d="M 46.64 822.04 
L 46.64 103.68 
" style="fill:none;stroke:#000000;stroke-linecap:square;stroke-linejoin:miter;stroke-width:0.8;"/>
   </g>
   <g id="patch_4">
    <path d="M 706.68 822.04 
L 706.68 103.68 
" style="fill:none;stroke:#000000;stroke-linecap:square;stroke-linejoin:miter;stroke-width:0.8;"/>
   </g>
   <g id="patch_5">
    <path d="M 46.64 822.04 
L 706.68 822.04 
" style="fill:none;stroke:#000000;stroke-linecap:square;stroke-linejoin:miter;stroke-width:0.8;"/>
   </g>
   <g id="patch_6">
    <path d="M 46.64 103.68 
L 706.68 103.68 
" style="fill:none;stroke:#000000;stroke-linecap:square;stroke-linejoin:miter;stroke-width:0.8;"/>
   </g>
   <g id="text_14">
    <!-- Plot of Test Data vs MCMC Uncertainty  -->
    <defs>
     <path d="M 19.671875 64.796875 
L 19.671875 37.40625 
L 32.078125 37.40625 
Q 38.96875 37.40625 42.71875 40.96875 
Q 46.484375 44.53125 46.484375 51.125 
Q 46.484375 57.671875 42.71875 61.234375 
Q 38.96875 64.796875 32.078125 64.796875 
z
M 9.8125 72.90625 
L 32.078125 72.90625 
Q 44.34375 72.90625 50.609375 67.359375 
Q 56.890625 61.8125 56.890625 51.125 
Q 56.890625 40.328125 50.609375 34.8125 
Q 44.34375 29.296875 32.078125 29.296875 
L 19.671875 29.296875 
L 19.671875 0 
L 9.8125 0 
z
" id="DejaVuSans-50"/>
     <path d="M 9.421875 75.984375 
L 18.40625 75.984375 
L 18.40625 0 
L 9.421875 0 
z
" id="DejaVuSans-6c"/>
     <path d="M 30.609375 48.390625 
Q 23.390625 48.390625 19.1875 42.75 
Q 14.984375 37.109375 14.984375 27.296875 
Q 14.984375 17.484375 19.15625 11.84375 
Q 23.34375 6.203125 30.609375 6.203125 
Q 37.796875 6.203125 41.984375 11.859375 
Q 46.1875 17.53125 46.1875 27.296875 
Q 46.1875 37.015625 41.984375 42.703125 
Q 37.796875 48.390625 30.609375 48.390625 
z
M 30.609375 56 
Q 42.328125 56 49.015625 48.375 
Q 55.71875 40.765625 55.71875 27.296875 
Q 55.71875 13.875 49.015625 6.21875 
Q 42.328125 -1.421875 30.609375 -1.421875 
Q 18.84375 -1.421875 12.171875 6.21875 
Q 5.515625 13.875 5.515625 27.296875 
Q 5.515625 40.765625 12.171875 48.375 
Q 18.84375 56 30.609375 56 
z
" id="DejaVuSans-6f"/>
     <path d="M 18.3125 70.21875 
L 18.3125 54.6875 
L 36.8125 54.6875 
L 36.8125 47.703125 
L 18.3125 47.703125 
L 18.3125 18.015625 
Q 18.3125 11.328125 20.140625 9.421875 
Q 21.96875 7.515625 27.59375 7.515625 
L 36.8125 7.515625 
L 36.8125 0 
L 27.59375 0 
Q 17.1875 0 13.234375 3.875 
Q 9.28125 7.765625 9.28125 18.015625 
L 9.28125 47.703125 
L 2.6875 47.703125 
L 2.6875 54.6875 
L 9.28125 54.6875 
L 9.28125 70.21875 
z
" id="DejaVuSans-74"/>
     <path id="DejaVuSans-20"/>
     <path d="M 37.109375 75.984375 
L 37.109375 68.5 
L 28.515625 68.5 
Q 23.6875 68.5 21.796875 66.546875 
Q 19.921875 64.59375 19.921875 59.515625 
L 19.921875 54.6875 
L 34.71875 54.6875 
L 34.71875 47.703125 
L 19.921875 47.703125 
L 19.921875 0 
L 10.890625 0 
L 10.890625 47.703125 
L 2.296875 47.703125 
L 2.296875 54.6875 
L 10.890625 54.6875 
L 10.890625 58.5 
Q 10.890625 67.625 15.140625 71.796875 
Q 19.390625 75.984375 28.609375 75.984375 
z
" id="DejaVuSans-66"/>
     <path d="M -0.296875 72.90625 
L 61.375 72.90625 
L 61.375 64.59375 
L 35.5 64.59375 
L 35.5 0 
L 25.59375 0 
L 25.59375 64.59375 
L -0.296875 64.59375 
z
" id="DejaVuSans-54"/>
     <path d="M 56.203125 29.59375 
L 56.203125 25.203125 
L 14.890625 25.203125 
Q 15.484375 15.921875 20.484375 11.0625 
Q 25.484375 6.203125 34.421875 6.203125 
Q 39.59375 6.203125 44.453125 7.46875 
Q 49.3125 8.734375 54.109375 11.28125 
L 54.109375 2.78125 
Q 49.265625 0.734375 44.1875 -0.34375 
Q 39.109375 -1.421875 33.890625 -1.421875 
Q 20.796875 -1.421875 13.15625 6.1875 
Q 5.515625 13.8125 5.515625 26.8125 
Q 5.515625 40.234375 12.765625 48.109375 
Q 20.015625 56 32.328125 56 
Q 43.359375 56 49.78125 48.890625 
Q 56.203125 41.796875 56.203125 29.59375 
z
M 47.21875 32.234375 
Q 47.125 39.59375 43.09375 43.984375 
Q 39.0625 48.390625 32.421875 48.390625 
Q 24.90625 48.390625 20.390625 44.140625 
Q 15.875 39.890625 15.1875 32.171875 
z
" id="DejaVuSans-65"/>
     <path d="M 44.28125 53.078125 
L 44.28125 44.578125 
Q 40.484375 46.53125 36.375 47.5 
Q 32.28125 48.484375 27.875 48.484375 
Q 21.1875 48.484375 17.84375 46.4375 
Q 14.5 44.390625 14.5 40.28125 
Q 14.5 37.15625 16.890625 35.375 
Q 19.28125 33.59375 26.515625 31.984375 
L 29.59375 31.296875 
Q 39.15625 29.25 43.1875 25.515625 
Q 47.21875 21.78125 47.21875 15.09375 
Q 47.21875 7.46875 41.1875 3.015625 
Q 35.15625 -1.421875 24.609375 -1.421875 
Q 20.21875 -1.421875 15.453125 -0.5625 
Q 10.6875 0.296875 5.421875 2 
L 5.421875 11.28125 
Q 10.40625 8.6875 15.234375 7.390625 
Q 20.0625 6.109375 24.8125 6.109375 
Q 31.15625 6.109375 34.5625 8.28125 
Q 37.984375 10.453125 37.984375 14.40625 
Q 37.984375 18.0625 35.515625 20.015625 
Q 33.0625 21.96875 24.703125 23.78125 
L 21.578125 24.515625 
Q 13.234375 26.265625 9.515625 29.90625 
Q 5.8125 33.546875 5.8125 39.890625 
Q 5.8125 47.609375 11.28125 51.796875 
Q 16.75 56 26.8125 56 
Q 31.78125 56 36.171875 55.265625 
Q 40.578125 54.546875 44.28125 53.078125 
z
" id="DejaVuSans-73"/>
     <path d="M 19.671875 64.796875 
L 19.671875 8.109375 
L 31.59375 8.109375 
Q 46.6875 8.109375 53.6875 14.9375 
Q 60.6875 21.78125 60.6875 36.53125 
Q 60.6875 51.171875 53.6875 57.984375 
Q 46.6875 64.796875 31.59375 64.796875 
z
M 9.8125 72.90625 
L 30.078125 72.90625 
Q 51.265625 72.90625 61.171875 64.09375 
Q 71.09375 55.28125 71.09375 36.53125 
Q 71.09375 17.671875 61.125 8.828125 
Q 51.171875 0 30.078125 0 
L 9.8125 0 
z
" id="DejaVuSans-44"/>
     <path d="M 34.28125 27.484375 
Q 23.390625 27.484375 19.1875 25 
Q 14.984375 22.515625 14.984375 16.5 
Q 14.984375 11.71875 18.140625 8.90625 
Q 21.296875 6.109375 26.703125 6.109375 
Q 34.1875 6.109375 38.703125 11.40625 
Q 43.21875 16.703125 43.21875 25.484375 
L 43.21875 27.484375 
z
M 52.203125 31.203125 
L 52.203125 0 
L 43.21875 0 
L 43.21875 8.296875 
Q 40.140625 3.328125 35.546875 0.953125 
Q 30.953125 -1.421875 24.3125 -1.421875 
Q 15.921875 -1.421875 10.953125 3.296875 
Q 6 8.015625 6 15.921875 
Q 6 25.140625 12.171875 29.828125 
Q 18.359375 34.515625 30.609375 34.515625 
L 43.21875 34.515625 
L 43.21875 35.40625 
Q 43.21875 41.609375 39.140625 45 
Q 35.0625 48.390625 27.6875 48.390625 
Q 23 48.390625 18.546875 47.265625 
Q 14.109375 46.140625 10.015625 43.890625 
L 10.015625 52.203125 
Q 14.9375 54.109375 19.578125 55.046875 
Q 24.21875 56 28.609375 56 
Q 40.484375 56 46.34375 49.84375 
Q 52.203125 43.703125 52.203125 31.203125 
z
" id="DejaVuSans-61"/>
     <path d="M 2.984375 54.6875 
L 12.5 54.6875 
L 29.59375 8.796875 
L 46.6875 54.6875 
L 56.203125 54.6875 
L 35.6875 0 
L 23.484375 0 
z
" id="DejaVuSans-76"/>
     <path d="M 9.8125 72.90625 
L 24.515625 72.90625 
L 43.109375 23.296875 
L 61.8125 72.90625 
L 76.515625 72.90625 
L 76.515625 0 
L 66.890625 0 
L 66.890625 64.015625 
L 48.09375 14.015625 
L 38.1875 14.015625 
L 19.390625 64.015625 
L 19.390625 0 
L 9.8125 0 
z
" id="DejaVuSans-4d"/>
     <path d="M 64.40625 67.28125 
L 64.40625 56.890625 
Q 59.421875 61.53125 53.78125 63.8125 
Q 48.140625 66.109375 41.796875 66.109375 
Q 29.296875 66.109375 22.65625 58.46875 
Q 16.015625 50.828125 16.015625 36.375 
Q 16.015625 21.96875 22.65625 14.328125 
Q 29.296875 6.6875 41.796875 6.6875 
Q 48.140625 6.6875 53.78125 8.984375 
Q 59.421875 11.28125 64.40625 15.921875 
L 64.40625 5.609375 
Q 59.234375 2.09375 53.4375 0.328125 
Q 47.65625 -1.421875 41.21875 -1.421875 
Q 24.65625 -1.421875 15.125 8.703125 
Q 5.609375 18.84375 5.609375 36.375 
Q 5.609375 53.953125 15.125 64.078125 
Q 24.65625 74.21875 41.21875 74.21875 
Q 47.75 74.21875 53.53125 72.484375 
Q 59.328125 70.75 64.40625 67.28125 
z
" id="DejaVuSans-43"/>
     <path d="M 8.6875 72.90625 
L 18.609375 72.90625 
L 18.609375 28.609375 
Q 18.609375 16.890625 22.84375 11.734375 
Q 27.09375 6.59375 36.625 6.59375 
Q 46.09375 6.59375 50.34375 11.734375 
Q 54.59375 16.890625 54.59375 28.609375 
L 54.59375 72.90625 
L 64.5 72.90625 
L 64.5 27.390625 
Q 64.5 13.140625 57.4375 5.859375 
Q 50.390625 -1.421875 36.625 -1.421875 
Q 22.796875 -1.421875 15.734375 5.859375 
Q 8.6875 13.140625 8.6875 27.390625 
z
" id="DejaVuSans-55"/>
     <path d="M 54.890625 33.015625 
L 54.890625 0 
L 45.90625 0 
L 45.90625 32.71875 
Q 45.90625 40.484375 42.875 44.328125 
Q 39.84375 48.1875 33.796875 48.1875 
Q 26.515625 48.1875 22.3125 43.546875 
Q 18.109375 38.921875 18.109375 30.90625 
L 18.109375 0 
L 9.078125 0 
L 9.078125 54.6875 
L 18.109375 54.6875 
L 18.109375 46.1875 
Q 21.34375 51.125 25.703125 53.5625 
Q 30.078125 56 35.796875 56 
Q 45.21875 56 50.046875 50.171875 
Q 54.890625 44.34375 54.890625 33.015625 
z
" id="DejaVuSans-6e"/>
     <path d="M 48.78125 52.59375 
L 48.78125 44.1875 
Q 44.96875 46.296875 41.140625 47.34375 
Q 37.3125 48.390625 33.40625 48.390625 
Q 24.65625 48.390625 19.8125 42.84375 
Q 14.984375 37.3125 14.984375 27.296875 
Q 14.984375 17.28125 19.8125 11.734375 
Q 24.65625 6.203125 33.40625 6.203125 
Q 37.3125 6.203125 41.140625 7.25 
Q 44.96875 8.296875 48.78125 10.40625 
L 48.78125 2.09375 
Q 45.015625 0.34375 40.984375 -0.53125 
Q 36.96875 -1.421875 32.421875 -1.421875 
Q 20.0625 -1.421875 12.78125 6.34375 
Q 5.515625 14.109375 5.515625 27.296875 
Q 5.515625 40.671875 12.859375 48.328125 
Q 20.21875 56 33.015625 56 
Q 37.15625 56 41.109375 55.140625 
Q 45.0625 54.296875 48.78125 52.59375 
z
" id="DejaVuSans-63"/>
     <path d="M 41.109375 46.296875 
Q 39.59375 47.171875 37.8125 47.578125 
Q 36.03125 48 33.890625 48 
Q 26.265625 48 22.1875 43.046875 
Q 18.109375 38.09375 18.109375 28.8125 
L 18.109375 0 
L 9.078125 0 
L 9.078125 54.6875 
L 18.109375 54.6875 
L 18.109375 46.1875 
Q 20.953125 51.171875 25.484375 53.578125 
Q 30.03125 56 36.53125 56 
Q 37.453125 56 38.578125 55.875 
Q 39.703125 55.765625 41.0625 55.515625 
z
" id="DejaVuSans-72"/>
     <path d="M 9.421875 54.6875 
L 18.40625 54.6875 
L 18.40625 0 
L 9.421875 0 
z
M 9.421875 75.984375 
L 18.40625 75.984375 
L 18.40625 64.59375 
L 9.421875 64.59375 
z
" id="DejaVuSans-69"/>
     <path d="M 32.171875 -5.078125 
Q 28.375 -14.84375 24.75 -17.8125 
Q 21.140625 -20.796875 15.09375 -20.796875 
L 7.90625 -20.796875 
L 7.90625 -13.28125 
L 13.1875 -13.28125 
Q 16.890625 -13.28125 18.9375 -11.515625 
Q 21 -9.765625 23.484375 -3.21875 
L 25.09375 0.875 
L 2.984375 54.6875 
L 12.5 54.6875 
L 29.59375 11.921875 
L 46.6875 54.6875 
L 56.203125 54.6875 
z
" id="DejaVuSans-79"/>
    </defs>
    <g transform="translate(258.612813 97.68)scale(0.12 -0.12)">
     <use xlink:href="#DejaVuSans-50"/>
     <use x="60.302734" xlink:href="#DejaVuSans-6c"/>
     <use x="88.085938" xlink:href="#DejaVuSans-6f"/>
     <use x="149.267578" xlink:href="#DejaVuSans-74"/>
     <use x="188.476562" xlink:href="#DejaVuSans-20"/>
     <use x="220.263672" xlink:href="#DejaVuSans-6f"/>
     <use x="281.445312" xlink:href="#DejaVuSans-66"/>
     <use x="316.650391" xlink:href="#DejaVuSans-20"/>
     <use x="348.4375" xlink:href="#DejaVuSans-54"/>
     <use x="409.255859" xlink:href="#DejaVuSans-65"/>
     <use x="470.779297" xlink:href="#DejaVuSans-73"/>
     <use x="522.878906" xlink:href="#DejaVuSans-74"/>
     <use x="562.087891" xlink:href="#DejaVuSans-20"/>
     <use x="593.875" xlink:href="#DejaVuSans-44"/>
     <use x="670.876953" xlink:href="#DejaVuSans-61"/>
     <use x="732.15625" xlink:href="#DejaVuSans-74"/>
     <use x="771.365234" xlink:href="#DejaVuSans-61"/>
     <use x="832.644531" xlink:href="#DejaVuSans-20"/>
     <use x="864.431641" xlink:href="#DejaVuSans-76"/>
     <use x="923.611328" xlink:href="#DejaVuSans-73"/>
     <use x="975.710938" xlink:href="#DejaVuSans-20"/>
     <use x="1007.498047" xlink:href="#DejaVuSans-4d"/>
     <use x="1093.777344" xlink:href="#DejaVuSans-43"/>
     <use x="1163.601562" xlink:href="#DejaVuSans-4d"/>
     <use x="1249.880859" xlink:href="#DejaVuSans-43"/>
     <use x="1319.705078" xlink:href="#DejaVuSans-20"/>
     <use x="1351.492188" xlink:href="#DejaVuSans-55"/>
     <use x="1424.685547" xlink:href="#DejaVuSans-6e"/>
     <use x="1488.064453" xlink:href="#DejaVuSans-63"/>
     <use x="1543.044922" xlink:href="#DejaVuSans-65"/>
     <use x="1604.568359" xlink:href="#DejaVuSans-72"/>
     <use x="1645.681641" xlink:href="#DejaVuSans-74"/>
     <use x="1684.890625" xlink:href="#DejaVuSans-61"/>
     <use x="1746.169922" xlink:href="#DejaVuSans-69"/>
     <use x="1773.953125" xlink:href="#DejaVuSans-6e"/>
     <use x="1837.332031" xlink:href="#DejaVuSans-74"/>
     <use x="1876.541016" xlink:href="#DejaVuSans-79"/>
     <use x="1935.720703" xlink:href="#DejaVuSans-20"/>
    </g>
   </g>
   <g id="legend_1">
    <g id="patch_7">
     <path d="M 569.803438 170.3925 
L 699.68 170.3925 
Q 701.68 170.3925 701.68 168.3925 
L 701.68 110.68 
Q 701.68 108.68 699.68 108.68 
L 569.803438 108.68 
Q 567.803438 108.68 567.803438 110.68 
L 567.803438 168.3925 
Q 567.803438 170.3925 569.803438 170.3925 
z
" style="fill:#ffffff;opacity:0.8;stroke:#cccccc;stroke-linejoin:miter;"/>
    </g>
    <g id="line2d_18">
     <path d="M 571.803438 116.778437 
L 591.803438 116.778437 
" style="fill:none;stroke:#1f77b4;stroke-linecap:square;stroke-width:1.5;"/>
    </g>
    <g id="line2d_19"/>
    <g id="text_15">
     <!-- actual -->
     <defs>
      <path d="M 8.5 21.578125 
L 8.5 54.6875 
L 17.484375 54.6875 
L 17.484375 21.921875 
Q 17.484375 14.15625 20.5 10.265625 
Q 23.53125 6.390625 29.59375 6.390625 
Q 36.859375 6.390625 41.078125 11.03125 
Q 45.3125 15.671875 45.3125 23.6875 
L 45.3125 54.6875 
L 54.296875 54.6875 
L 54.296875 0 
L 45.3125 0 
L 45.3125 8.40625 
Q 42.046875 3.421875 37.71875 1 
Q 33.40625 -1.421875 27.6875 -1.421875 
Q 18.265625 -1.421875 13.375 4.4375 
Q 8.5 10.296875 8.5 21.578125 
z
M 31.109375 56 
z
" id="DejaVuSans-75"/>
     </defs>
     <g transform="translate(599.803438 120.278437)scale(0.1 -0.1)">
      <use xlink:href="#DejaVuSans-61"/>
      <use x="61.279297" xlink:href="#DejaVuSans-63"/>
      <use x="116.259766" xlink:href="#DejaVuSans-74"/>
      <use x="155.46875" xlink:href="#DejaVuSans-75"/>
      <use x="218.847656" xlink:href="#DejaVuSans-61"/>
      <use x="280.126953" xlink:href="#DejaVuSans-6c"/>
     </g>
    </g>
    <g id="line2d_20">
     <path d="M 571.803438 131.456562 
L 591.803438 131.456562 
" style="fill:none;stroke:#ff7f0e;stroke-linecap:square;stroke-width:1.5;"/>
    </g>
    <g id="line2d_21"/>
    <g id="text_16">
     <!-- pred. (mean) -->
     <defs>
      <path d="M 18.109375 8.203125 
L 18.109375 -20.796875 
L 9.078125 -20.796875 
L 9.078125 54.6875 
L 18.109375 54.6875 
L 18.109375 46.390625 
Q 20.953125 51.265625 25.265625 53.625 
Q 29.59375 56 35.59375 56 
Q 45.5625 56 51.78125 48.09375 
Q 58.015625 40.1875 58.015625 27.296875 
Q 58.015625 14.40625 51.78125 6.484375 
Q 45.5625 -1.421875 35.59375 -1.421875 
Q 29.59375 -1.421875 25.265625 0.953125 
Q 20.953125 3.328125 18.109375 8.203125 
z
M 48.6875 27.296875 
Q 48.6875 37.203125 44.609375 42.84375 
Q 40.53125 48.484375 33.40625 48.484375 
Q 26.265625 48.484375 22.1875 42.84375 
Q 18.109375 37.203125 18.109375 27.296875 
Q 18.109375 17.390625 22.1875 11.75 
Q 26.265625 6.109375 33.40625 6.109375 
Q 40.53125 6.109375 44.609375 11.75 
Q 48.6875 17.390625 48.6875 27.296875 
z
" id="DejaVuSans-70"/>
      <path d="M 45.40625 46.390625 
L 45.40625 75.984375 
L 54.390625 75.984375 
L 54.390625 0 
L 45.40625 0 
L 45.40625 8.203125 
Q 42.578125 3.328125 38.25 0.953125 
Q 33.9375 -1.421875 27.875 -1.421875 
Q 17.96875 -1.421875 11.734375 6.484375 
Q 5.515625 14.40625 5.515625 27.296875 
Q 5.515625 40.1875 11.734375 48.09375 
Q 17.96875 56 27.875 56 
Q 33.9375 56 38.25 53.625 
Q 42.578125 51.265625 45.40625 46.390625 
z
M 14.796875 27.296875 
Q 14.796875 17.390625 18.875 11.75 
Q 22.953125 6.109375 30.078125 6.109375 
Q 37.203125 6.109375 41.296875 11.75 
Q 45.40625 17.390625 45.40625 27.296875 
Q 45.40625 37.203125 41.296875 42.84375 
Q 37.203125 48.484375 30.078125 48.484375 
Q 22.953125 48.484375 18.875 42.84375 
Q 14.796875 37.203125 14.796875 27.296875 
z
" id="DejaVuSans-64"/>
      <path d="M 31 75.875 
Q 24.46875 64.65625 21.28125 53.65625 
Q 18.109375 42.671875 18.109375 31.390625 
Q 18.109375 20.125 21.3125 9.0625 
Q 24.515625 -2 31 -13.1875 
L 23.1875 -13.1875 
Q 15.875 -1.703125 12.234375 9.375 
Q 8.59375 20.453125 8.59375 31.390625 
Q 8.59375 42.28125 12.203125 53.3125 
Q 15.828125 64.359375 23.1875 75.875 
z
" id="DejaVuSans-28"/>
      <path d="M 52 44.1875 
Q 55.375 50.25 60.0625 53.125 
Q 64.75 56 71.09375 56 
Q 79.640625 56 84.28125 50.015625 
Q 88.921875 44.046875 88.921875 33.015625 
L 88.921875 0 
L 79.890625 0 
L 79.890625 32.71875 
Q 79.890625 40.578125 77.09375 44.375 
Q 74.3125 48.1875 68.609375 48.1875 
Q 61.625 48.1875 57.5625 43.546875 
Q 53.515625 38.921875 53.515625 30.90625 
L 53.515625 0 
L 44.484375 0 
L 44.484375 32.71875 
Q 44.484375 40.625 41.703125 44.40625 
Q 38.921875 48.1875 33.109375 48.1875 
Q 26.21875 48.1875 22.15625 43.53125 
Q 18.109375 38.875 18.109375 30.90625 
L 18.109375 0 
L 9.078125 0 
L 9.078125 54.6875 
L 18.109375 54.6875 
L 18.109375 46.1875 
Q 21.1875 51.21875 25.484375 53.609375 
Q 29.78125 56 35.6875 56 
Q 41.65625 56 45.828125 52.96875 
Q 50 49.953125 52 44.1875 
z
" id="DejaVuSans-6d"/>
      <path d="M 8.015625 75.875 
L 15.828125 75.875 
Q 23.140625 64.359375 26.78125 53.3125 
Q 30.421875 42.28125 30.421875 31.390625 
Q 30.421875 20.453125 26.78125 9.375 
Q 23.140625 -1.703125 15.828125 -13.1875 
L 8.015625 -13.1875 
Q 14.5 -2 17.703125 9.0625 
Q 20.90625 20.125 20.90625 31.390625 
Q 20.90625 42.671875 17.703125 53.65625 
Q 14.5 64.65625 8.015625 75.875 
z
" id="DejaVuSans-29"/>
     </defs>
     <g transform="translate(599.803438 134.956562)scale(0.1 -0.1)">
      <use xlink:href="#DejaVuSans-70"/>
      <use x="63.476562" xlink:href="#DejaVuSans-72"/>
      <use x="104.558594" xlink:href="#DejaVuSans-65"/>
      <use x="166.082031" xlink:href="#DejaVuSans-64"/>
      <use x="229.558594" xlink:href="#DejaVuSans-2e"/>
      <use x="261.345703" xlink:href="#DejaVuSans-20"/>
      <use x="293.132812" xlink:href="#DejaVuSans-28"/>
      <use x="332.146484" xlink:href="#DejaVuSans-6d"/>
      <use x="429.558594" xlink:href="#DejaVuSans-65"/>
      <use x="491.082031" xlink:href="#DejaVuSans-61"/>
      <use x="552.361328" xlink:href="#DejaVuSans-6e"/>
      <use x="615.740234" xlink:href="#DejaVuSans-29"/>
     </g>
    </g>
    <g id="line2d_22">
     <path d="M 571.803438 146.134687 
L 591.803438 146.134687 
" style="fill:none;stroke:#2ca02c;stroke-linecap:square;stroke-width:1.5;"/>
    </g>
    <g id="line2d_23"/>
    <g id="text_17">
     <!-- pred.(5th percen.) -->
     <defs>
      <path d="M 54.890625 33.015625 
L 54.890625 0 
L 45.90625 0 
L 45.90625 32.71875 
Q 45.90625 40.484375 42.875 44.328125 
Q 39.84375 48.1875 33.796875 48.1875 
Q 26.515625 48.1875 22.3125 43.546875 
Q 18.109375 38.921875 18.109375 30.90625 
L 18.109375 0 
L 9.078125 0 
L 9.078125 75.984375 
L 18.109375 75.984375 
L 18.109375 46.1875 
Q 21.34375 51.125 25.703125 53.5625 
Q 30.078125 56 35.796875 56 
Q 45.21875 56 50.046875 50.171875 
Q 54.890625 44.34375 54.890625 33.015625 
z
" id="DejaVuSans-68"/>
     </defs>
     <g transform="translate(599.803438 149.634687)scale(0.1 -0.1)">
      <use xlink:href="#DejaVuSans-70"/>
      <use x="63.476562" xlink:href="#DejaVuSans-72"/>
      <use x="104.558594" xlink:href="#DejaVuSans-65"/>
      <use x="166.082031" xlink:href="#DejaVuSans-64"/>
      <use x="229.558594" xlink:href="#DejaVuSans-2e"/>
      <use x="261.345703" xlink:href="#DejaVuSans-28"/>
      <use x="300.359375" xlink:href="#DejaVuSans-35"/>
      <use x="363.982422" xlink:href="#DejaVuSans-74"/>
      <use x="403.191406" xlink:href="#DejaVuSans-68"/>
      <use x="466.570312" xlink:href="#DejaVuSans-20"/>
      <use x="498.357422" xlink:href="#DejaVuSans-70"/>
      <use x="561.833984" xlink:href="#DejaVuSans-65"/>
      <use x="623.357422" xlink:href="#DejaVuSans-72"/>
      <use x="664.439453" xlink:href="#DejaVuSans-63"/>
      <use x="719.419922" xlink:href="#DejaVuSans-65"/>
      <use x="780.943359" xlink:href="#DejaVuSans-6e"/>
      <use x="844.322266" xlink:href="#DejaVuSans-2e"/>
      <use x="876.109375" xlink:href="#DejaVuSans-29"/>
     </g>
    </g>
    <g id="line2d_24">
     <path d="M 571.803438 160.812812 
L 591.803438 160.812812 
" style="fill:none;stroke:#d62728;stroke-linecap:square;stroke-width:1.5;"/>
    </g>
    <g id="line2d_25"/>
    <g id="text_18">
     <!-- pred.(95th percen.) -->
     <defs>
      <path d="M 10.984375 1.515625 
L 10.984375 10.5 
Q 14.703125 8.734375 18.5 7.8125 
Q 22.3125 6.890625 25.984375 6.890625 
Q 35.75 6.890625 40.890625 13.453125 
Q 46.046875 20.015625 46.78125 33.40625 
Q 43.953125 29.203125 39.59375 26.953125 
Q 35.25 24.703125 29.984375 24.703125 
Q 19.046875 24.703125 12.671875 31.3125 
Q 6.296875 37.9375 6.296875 49.421875 
Q 6.296875 60.640625 12.9375 67.421875 
Q 19.578125 74.21875 30.609375 74.21875 
Q 43.265625 74.21875 49.921875 64.515625 
Q 56.59375 54.828125 56.59375 36.375 
Q 56.59375 19.140625 48.40625 8.859375 
Q 40.234375 -1.421875 26.421875 -1.421875 
Q 22.703125 -1.421875 18.890625 -0.6875 
Q 15.09375 0.046875 10.984375 1.515625 
z
M 30.609375 32.421875 
Q 37.25 32.421875 41.125 36.953125 
Q 45.015625 41.5 45.015625 49.421875 
Q 45.015625 57.28125 41.125 61.84375 
Q 37.25 66.40625 30.609375 66.40625 
Q 23.96875 66.40625 20.09375 61.84375 
Q 16.21875 57.28125 16.21875 49.421875 
Q 16.21875 41.5 20.09375 36.953125 
Q 23.96875 32.421875 30.609375 32.421875 
z
" id="DejaVuSans-39"/>
     </defs>
     <g transform="translate(599.803438 164.312812)scale(0.1 -0.1)">
      <use xlink:href="#DejaVuSans-70"/>
      <use x="63.476562" xlink:href="#DejaVuSans-72"/>
      <use x="104.558594" xlink:href="#DejaVuSans-65"/>
      <use x="166.082031" xlink:href="#DejaVuSans-64"/>
      <use x="229.558594" xlink:href="#DejaVuSans-2e"/>
      <use x="261.345703" xlink:href="#DejaVuSans-28"/>
      <use x="300.359375" xlink:href="#DejaVuSans-39"/>
      <use x="363.982422" xlink:href="#DejaVuSans-35"/>
      <use x="427.605469" xlink:href="#DejaVuSans-74"/>
      <use x="466.814453" xlink:href="#DejaVuSans-68"/>
      <use x="530.193359" xlink:href="#DejaVuSans-20"/>
      <use x="561.980469" xlink:href="#DejaVuSans-70"/>
      <use x="625.457031" xlink:href="#DejaVuSans-65"/>
      <use x="686.980469" xlink:href="#DejaVuSans-72"/>
      <use x="728.0625" xlink:href="#DejaVuSans-63"/>
      <use x="783.042969" xlink:href="#DejaVuSans-65"/>
      <use x="844.566406" xlink:href="#DejaVuSans-6e"/>
      <use x="907.945312" xlink:href="#DejaVuSans-2e"/>
      <use x="939.732422" xlink:href="#DejaVuSans-29"/>
     </g>
    </g>
   </g>
  </g>
 </g>
 <defs>
  <clipPath id="pc7050cba63">
   <rect height="718.36" width="660.04" x="46.64" y="103.68"/>
  </clipPath>
 </defs>
</svg>
