<?xml version="1.0" encoding="utf-8" standalone="no"?>
<!DOCTYPE svg PUBLIC "-//W3C//DTD SVG 1.1//EN"
  "http://www.w3.org/Graphics/SVG/1.1/DTD/svg11.dtd">
<!-- Created with matplotlib (http://matplotlib.org/) -->
<svg height="864pt" version="1.1" viewBox="0 0 720 864" width="720pt" xmlns="http://www.w3.org/2000/svg" xmlns:xlink="http://www.w3.org/1999/xlink">
 <defs>
  <style type="text/css">
*{stroke-linecap:butt;stroke-linejoin:round;}
  </style>
 </defs>
 <g id="figure_1">
  <g id="patch_1">
   <path d="M 0 864 
L 720 864 
L 720 0 
L 0 0 
z
" style="fill:#ffffff;"/>
  </g>
  <g id="axes_1">
   <g id="patch_2">
    <path d="M 46.64 822.04 
L 706.68 822.04 
L 706.68 103.68 
L 46.64 103.68 
z
" style="fill:#ffffff;"/>
   </g>
   <g id="PolyCollection_1">
    <path clip-path="url(#pfee51a1f29)" d="M 76.641818 725.671421 
L 76.641818 759.161978 
L 78.662143 759.161978 
L 80.682467 759.161978 
L 82.702792 759.161978 
L 84.723116 752.463866 
L 86.74344 745.765755 
L 88.763765 739.067644 
L 90.784089 718.973309 
L 92.804414 698.878975 
L 94.824738 672.086529 
L 96.845063 625.199749 
L 98.865387 564.916746 
L 100.885712 497.935632 
L 102.906036 424.256406 
L 104.926361 363.973403 
L 106.946685 330.482846 
L 108.967009 310.388511 
L 110.987334 290.294177 
L 113.007658 263.501731 
L 115.027983 263.501731 
L 117.048307 256.80362 
L 119.068632 250.105509 
L 121.088956 250.105509 
L 123.109281 263.501731 
L 125.129605 276.897954 
L 127.14993 276.897954 
L 129.170254 283.596066 
L 131.190579 310.388511 
L 133.210903 323.784734 
L 135.231227 357.275292 
L 137.251552 363.973403 
L 139.271876 430.954517 
L 141.292201 471.143186 
L 143.312525 417.558295 
L 145.33285 397.46396 
L 147.353174 424.256406 
L 149.373499 437.652629 
L 151.393823 430.954517 
L 153.414148 430.954517 
L 155.434472 497.935632 
L 157.454796 524.728078 
L 159.475121 538.1243 
L 161.495445 591.709192 
L 163.51577 605.105415 
L 165.536094 598.407303 
L 167.556419 625.199749 
L 169.576743 651.992195 
L 171.597068 658.690306 
L 173.617392 665.388418 
L 175.637717 678.784641 
L 177.658041 705.577086 
L 179.678365 705.577086 
L 181.69869 705.577086 
L 183.719014 705.577086 
L 185.739339 718.973309 
L 187.759663 725.671421 
L 189.779988 725.671421 
L 191.800312 732.369532 
L 193.820637 745.765755 
L 195.840961 752.463866 
L 197.861286 752.463866 
L 199.88161 745.765755 
L 201.901934 745.765755 
L 203.922259 739.067644 
L 205.942583 739.067644 
L 207.962908 732.369532 
L 209.983232 718.973309 
L 212.003557 705.577086 
L 214.023881 692.180863 
L 216.044206 678.784641 
L 218.06453 665.388418 
L 220.084855 651.992195 
L 222.105179 631.897861 
L 224.125504 625.199749 
L 226.145828 605.105415 
L 228.166152 578.312969 
L 230.186477 551.520523 
L 232.206801 524.728078 
L 234.227126 518.029966 
L 236.24745 518.029966 
L 238.267775 511.331855 
L 240.288099 471.143186 
L 242.308424 410.860183 
L 244.328748 350.57718 
L 246.349073 310.388511 
L 248.369397 290.294177 
L 250.389721 276.897954 
L 252.410046 270.199843 
L 254.43037 290.294177 
L 256.450695 276.897954 
L 258.471019 276.897954 
L 260.491344 276.897954 
L 262.511668 296.992289 
L 264.531993 330.482846 
L 266.552317 350.57718 
L 268.572642 404.162072 
L 270.592966 444.35074 
L 272.61329 457.746963 
L 274.633615 471.143186 
L 276.653939 477.841297 
L 278.674264 484.539409 
L 280.694588 518.029966 
L 282.714913 504.633743 
L 284.735237 497.935632 
L 286.755562 504.633743 
L 288.775886 511.331855 
L 290.796211 518.029966 
L 292.816535 518.029966 
L 294.83686 538.1243 
L 296.857184 538.1243 
L 298.877508 538.1243 
L 300.897833 558.218635 
L 302.918157 558.218635 
L 304.938482 578.312969 
L 306.958806 605.105415 
L 308.979131 618.501638 
L 310.999455 625.199749 
L 313.01978 618.501638 
L 315.040104 631.897861 
L 317.060429 658.690306 
L 319.080753 672.086529 
L 321.101077 678.784641 
L 323.121402 692.180863 
L 325.141726 712.275198 
L 327.162051 718.973309 
L 329.182375 718.973309 
L 331.2027 718.973309 
L 333.223024 732.369532 
L 335.243349 739.067644 
L 337.263673 745.765755 
L 339.283998 759.161978 
L 341.304322 765.860089 
L 343.324646 772.558201 
L 345.344971 772.558201 
L 347.365295 772.558201 
L 349.38562 772.558201 
L 351.405944 772.558201 
L 353.426269 772.558201 
L 355.446593 765.860089 
L 357.466918 759.161978 
L 359.487242 752.463866 
L 361.507567 739.067644 
L 363.527891 725.671421 
L 365.548215 712.275198 
L 367.56854 692.180863 
L 369.588864 678.784641 
L 371.609189 658.690306 
L 373.629513 631.897861 
L 375.649838 598.407303 
L 377.670162 564.916746 
L 379.690487 531.426189 
L 381.710811 491.23752 
L 383.731136 451.048852 
L 385.75146 410.860183 
L 387.771785 384.067737 
L 389.792109 370.671514 
L 391.812433 377.369626 
L 393.832758 377.369626 
L 395.853082 357.275292 
L 397.873407 357.275292 
L 399.893731 377.369626 
L 401.914056 370.671514 
L 403.93438 384.067737 
L 405.954705 377.369626 
L 407.975029 417.558295 
L 409.995354 430.954517 
L 412.015678 451.048852 
L 414.036002 464.445075 
L 416.056327 477.841297 
L 418.076651 511.331855 
L 420.096976 497.935632 
L 422.1173 511.331855 
L 424.137625 531.426189 
L 426.157949 551.520523 
L 428.178274 551.520523 
L 430.198598 551.520523 
L 432.218923 591.709192 
L 434.239247 618.501638 
L 436.259571 625.199749 
L 438.279896 625.199749 
L 440.30022 625.199749 
L 442.320545 625.199749 
L 444.340869 625.199749 
L 446.361194 611.803526 
L 448.381518 611.803526 
L 450.401843 611.803526 
L 452.422167 625.199749 
L 454.442492 631.897861 
L 456.462816 645.294083 
L 458.48314 665.388418 
L 460.503465 672.086529 
L 462.523789 692.180863 
L 464.544114 692.180863 
L 466.564438 698.878975 
L 468.584763 712.275198 
L 470.605087 725.671421 
L 472.625412 725.671421 
L 474.645736 739.067644 
L 476.666061 752.463866 
L 478.686385 759.161978 
L 480.70671 765.860089 
L 482.727034 765.860089 
L 484.747358 765.860089 
L 486.767683 759.161978 
L 488.788007 752.463866 
L 490.808332 739.067644 
L 492.828656 725.671421 
L 494.848981 712.275198 
L 496.869305 685.482752 
L 498.88963 658.690306 
L 500.909954 625.199749 
L 502.930279 598.407303 
L 504.950603 558.218635 
L 506.970927 504.633743 
L 508.991252 484.539409 
L 511.011576 464.445075 
L 513.031901 424.256406 
L 515.052225 363.973403 
L 517.07255 317.086623 
L 519.092874 290.294177 
L 521.113199 270.199843 
L 523.133523 263.501731 
L 525.153848 256.80362 
L 527.174172 256.80362 
L 529.194496 270.199843 
L 531.214821 276.897954 
L 533.235145 303.6904 
L 535.25547 317.086623 
L 537.275794 317.086623 
L 539.296119 370.671514 
L 541.316443 363.973403 
L 543.336768 350.57718 
L 545.357092 337.180957 
L 547.377417 337.180957 
L 549.397741 343.879069 
L 551.418066 363.973403 
L 553.43839 430.954517 
L 555.458714 451.048852 
L 557.479039 504.633743 
L 559.499363 531.426189 
L 561.519688 564.916746 
L 563.540012 598.407303 
L 565.560337 585.01108 
L 567.580661 591.709192 
L 569.600986 611.803526 
L 571.62131 638.595972 
L 573.641635 665.388418 
L 575.661959 672.086529 
L 577.682283 692.180863 
L 579.702608 718.973309 
L 581.722932 725.671421 
L 583.743257 732.369532 
L 585.763581 732.369532 
L 587.783906 739.067644 
L 589.80423 745.765755 
L 591.824555 745.765755 
L 593.844879 745.765755 
L 595.865204 745.765755 
L 597.885528 752.463866 
L 599.905852 745.765755 
L 601.926177 739.067644 
L 603.946501 745.765755 
L 605.966826 745.765755 
L 607.98715 745.765755 
L 610.007475 752.463866 
L 612.027799 759.161978 
L 614.048124 765.860089 
L 616.068448 765.860089 
L 618.088773 772.558201 
L 620.109097 772.558201 
L 622.129421 772.558201 
L 624.149746 772.558201 
L 626.17007 772.558201 
L 628.190395 772.558201 
L 630.210719 765.860089 
L 632.231044 765.860089 
L 634.251368 752.463866 
L 636.271693 739.067644 
L 638.292017 725.671421 
L 640.312342 712.275198 
L 642.332666 692.180863 
L 644.352991 678.784641 
L 646.373315 665.388418 
L 648.393639 645.294083 
L 650.413964 618.501638 
L 652.434288 598.407303 
L 654.454613 585.01108 
L 656.474937 571.614858 
L 658.495262 558.218635 
L 660.515586 538.1243 
L 662.535911 531.426189 
L 664.556235 558.218635 
L 666.57656 544.822412 
L 668.596884 538.1243 
L 670.617208 551.520523 
L 672.637533 578.312969 
L 674.657857 558.218635 
L 676.678182 544.822412 
L 676.678182 518.029966 
L 676.678182 518.029966 
L 674.657857 531.426189 
L 672.637533 544.822412 
L 670.617208 524.728078 
L 668.596884 518.029966 
L 666.57656 524.728078 
L 664.556235 524.728078 
L 662.535911 511.331855 
L 660.515586 497.935632 
L 658.495262 531.426189 
L 656.474937 538.1243 
L 654.454613 558.218635 
L 652.434288 558.218635 
L 650.413964 571.614858 
L 648.393639 598.407303 
L 646.373315 625.199749 
L 644.352991 645.294083 
L 642.332666 651.992195 
L 640.312342 678.784641 
L 638.292017 705.577086 
L 636.271693 718.973309 
L 634.251368 725.671421 
L 632.231044 732.369532 
L 630.210719 732.369532 
L 628.190395 739.067644 
L 626.17007 739.067644 
L 624.149746 739.067644 
L 622.129421 739.067644 
L 620.109097 739.067644 
L 618.088773 732.369532 
L 616.068448 732.369532 
L 614.048124 732.369532 
L 612.027799 725.671421 
L 610.007475 725.671421 
L 607.98715 718.973309 
L 605.966826 718.973309 
L 603.946501 718.973309 
L 601.926177 718.973309 
L 599.905852 718.973309 
L 597.885528 725.671421 
L 595.865204 718.973309 
L 593.844879 718.973309 
L 591.824555 718.973309 
L 589.80423 718.973309 
L 587.783906 712.275198 
L 585.763581 712.275198 
L 583.743257 705.577086 
L 581.722932 698.878975 
L 579.702608 685.482752 
L 577.682283 665.388418 
L 575.661959 645.294083 
L 573.641635 631.897861 
L 571.62131 605.105415 
L 569.600986 585.01108 
L 567.580661 564.916746 
L 565.560337 564.916746 
L 563.540012 544.822412 
L 561.519688 511.331855 
L 559.499363 471.143186 
L 557.479039 430.954517 
L 555.458714 384.067737 
L 553.43839 350.57718 
L 551.418066 323.784734 
L 549.397741 317.086623 
L 547.377417 310.388511 
L 545.357092 310.388511 
L 543.336768 323.784734 
L 541.316443 323.784734 
L 539.296119 310.388511 
L 537.275794 290.294177 
L 535.25547 283.596066 
L 533.235145 263.501731 
L 531.214821 236.709286 
L 529.194496 203.218728 
L 527.174172 183.124394 
L 525.153848 176.426283 
L 523.133523 176.426283 
L 521.113199 189.822506 
L 519.092874 230.011174 
L 517.07255 270.199843 
L 515.052225 283.596066 
L 513.031901 370.671514 
L 511.011576 430.954517 
L 508.991252 457.746963 
L 506.970927 457.746963 
L 504.950603 484.539409 
L 502.930279 551.520523 
L 500.909954 571.614858 
L 498.88963 605.105415 
L 496.869305 645.294083 
L 494.848981 678.784641 
L 492.828656 698.878975 
L 490.808332 712.275198 
L 488.788007 725.671421 
L 486.767683 732.369532 
L 484.747358 732.369532 
L 482.727034 732.369532 
L 480.70671 732.369532 
L 478.686385 725.671421 
L 476.666061 718.973309 
L 474.645736 712.275198 
L 472.625412 705.577086 
L 470.605087 698.878975 
L 468.584763 692.180863 
L 466.564438 678.784641 
L 464.544114 672.086529 
L 462.523789 665.388418 
L 460.503465 645.294083 
L 458.48314 638.595972 
L 456.462816 618.501638 
L 454.442492 605.105415 
L 452.422167 598.407303 
L 450.401843 585.01108 
L 448.381518 578.312969 
L 446.361194 578.312969 
L 444.340869 591.709192 
L 442.320545 598.407303 
L 440.30022 591.709192 
L 438.279896 598.407303 
L 436.259571 598.407303 
L 434.239247 578.312969 
L 432.218923 551.520523 
L 430.198598 531.426189 
L 428.178274 531.426189 
L 426.157949 518.029966 
L 424.137625 497.935632 
L 422.1173 484.539409 
L 420.096976 471.143186 
L 418.076651 457.746963 
L 416.056327 430.954517 
L 414.036002 417.558295 
L 412.015678 397.46396 
L 409.995354 377.369626 
L 407.975029 357.275292 
L 405.954705 343.879069 
L 403.93438 343.879069 
L 401.914056 337.180957 
L 399.893731 337.180957 
L 397.873407 330.482846 
L 395.853082 330.482846 
L 393.832758 343.879069 
L 391.812433 343.879069 
L 389.792109 343.879069 
L 387.771785 350.57718 
L 385.75146 370.671514 
L 383.731136 404.162072 
L 381.710811 437.652629 
L 379.690487 477.841297 
L 377.670162 524.728078 
L 375.649838 544.822412 
L 373.629513 578.312969 
L 371.609189 618.501638 
L 369.588864 631.897861 
L 367.56854 658.690306 
L 365.548215 685.482752 
L 363.527891 698.878975 
L 361.507567 718.973309 
L 359.487242 725.671421 
L 357.466918 732.369532 
L 355.446593 732.369532 
L 353.426269 732.369532 
L 351.405944 732.369532 
L 349.38562 732.369532 
L 347.365295 739.067644 
L 345.344971 739.067644 
L 343.324646 732.369532 
L 341.304322 732.369532 
L 339.283998 725.671421 
L 337.263673 718.973309 
L 335.243349 712.275198 
L 333.223024 705.577086 
L 331.2027 698.878975 
L 329.182375 698.878975 
L 327.162051 698.878975 
L 325.141726 685.482752 
L 323.121402 672.086529 
L 321.101077 658.690306 
L 319.080753 645.294083 
L 317.060429 625.199749 
L 315.040104 605.105415 
L 313.01978 591.709192 
L 310.999455 598.407303 
L 308.979131 591.709192 
L 306.958806 571.614858 
L 304.938482 551.520523 
L 302.918157 538.1243 
L 300.897833 531.426189 
L 298.877508 518.029966 
L 296.857184 511.331855 
L 294.83686 511.331855 
L 292.816535 497.935632 
L 290.796211 491.23752 
L 288.775886 484.539409 
L 286.755562 477.841297 
L 284.735237 477.841297 
L 282.714913 477.841297 
L 280.694588 471.143186 
L 278.674264 451.048852 
L 276.653939 437.652629 
L 274.633615 417.558295 
L 272.61329 397.46396 
L 270.592966 363.973403 
L 268.572642 330.482846 
L 266.552317 303.6904 
L 264.531993 283.596066 
L 262.511668 263.501731 
L 260.491344 236.709286 
L 258.471019 223.313063 
L 256.450695 230.011174 
L 254.43037 250.105509 
L 252.410046 209.91684 
L 250.389721 209.91684 
L 248.369397 236.709286 
L 246.349073 256.80362 
L 244.328748 290.294177 
L 242.308424 323.784734 
L 240.288099 417.558295 
L 238.267775 484.539409 
L 236.24745 497.935632 
L 234.227126 497.935632 
L 232.206801 504.633743 
L 230.186477 504.633743 
L 228.166152 531.426189 
L 226.145828 564.916746 
L 224.125504 585.01108 
L 222.105179 598.407303 
L 220.084855 605.105415 
L 218.06453 631.897861 
L 216.044206 651.992195 
L 214.023881 658.690306 
L 212.003557 672.086529 
L 209.983232 698.878975 
L 207.962908 712.275198 
L 205.942583 712.275198 
L 203.922259 718.973309 
L 201.901934 718.973309 
L 199.88161 718.973309 
L 197.861286 718.973309 
L 195.840961 725.671421 
L 193.820637 718.973309 
L 191.800312 712.275198 
L 189.779988 705.577086 
L 187.759663 698.878975 
L 185.739339 692.180863 
L 183.719014 685.482752 
L 181.69869 685.482752 
L 179.678365 685.482752 
L 177.658041 672.086529 
L 175.637717 651.992195 
L 173.617392 638.595972 
L 171.597068 631.897861 
L 169.576743 618.501638 
L 167.556419 591.709192 
L 165.536094 571.614858 
L 163.51577 564.916746 
L 161.495445 531.426189 
L 159.475121 497.935632 
L 157.454796 464.445075 
L 155.434472 424.256406 
L 153.414148 397.46396 
L 151.393823 397.46396 
L 149.373499 390.765849 
L 147.353174 377.369626 
L 145.33285 370.671514 
L 143.312525 377.369626 
L 141.292201 390.765849 
L 139.271876 350.57718 
L 137.251552 323.784734 
L 135.231227 310.388511 
L 133.210903 290.294177 
L 131.190579 270.199843 
L 129.170254 250.105509 
L 127.14993 223.313063 
L 125.129605 230.011174 
L 123.109281 196.520617 
L 121.088956 169.728171 
L 119.068632 163.03006 
L 117.048307 169.728171 
L 115.027983 183.124394 
L 113.007658 176.426283 
L 110.987334 209.91684 
L 108.967009 283.596066 
L 106.946685 290.294177 
L 104.926361 296.992289 
L 102.906036 350.57718 
L 100.885712 410.860183 
L 98.865387 491.23752 
L 96.845063 531.426189 
L 94.824738 605.105415 
L 92.804414 665.388418 
L 90.784089 692.180863 
L 88.763765 712.275198 
L 86.74344 718.973309 
L 84.723116 725.671421 
L 82.702792 725.671421 
L 80.682467 732.369532 
L 78.662143 732.369532 
L 76.641818 725.671421 
z
" style="fill:#008000;fill-opacity:0.4;"/>
   </g>
   <g id="matplotlib.axis_1">
    <g id="xtick_1">
     <g id="line2d_1">
      <defs>
       <path d="M 0 0 
L 0 3.5 
" id="mf7fcc93de5" style="stroke:#000000;stroke-width:0.8;"/>
      </defs>
      <g>
       <use style="stroke:#000000;stroke-width:0.8;" x="76.641818" xlink:href="#mf7fcc93de5" y="822.04"/>
      </g>
     </g>
     <g id="text_1">
      <!-- 0.0 -->
      <defs>
       <path d="M 31.78125 66.40625 
Q 24.171875 66.40625 20.328125 58.90625 
Q 16.5 51.421875 16.5 36.375 
Q 16.5 21.390625 20.328125 13.890625 
Q 24.171875 6.390625 31.78125 6.390625 
Q 39.453125 6.390625 43.28125 13.890625 
Q 47.125 21.390625 47.125 36.375 
Q 47.125 51.421875 43.28125 58.90625 
Q 39.453125 66.40625 31.78125 66.40625 
z
M 31.78125 74.21875 
Q 44.046875 74.21875 50.515625 64.515625 
Q 56.984375 54.828125 56.984375 36.375 
Q 56.984375 17.96875 50.515625 8.265625 
Q 44.046875 -1.421875 31.78125 -1.421875 
Q 19.53125 -1.421875 13.0625 8.265625 
Q 6.59375 17.96875 6.59375 36.375 
Q 6.59375 54.828125 13.0625 64.515625 
Q 19.53125 74.21875 31.78125 74.21875 
z
" id="DejaVuSans-30"/>
       <path d="M 10.6875 12.40625 
L 21 12.40625 
L 21 0 
L 10.6875 0 
z
" id="DejaVuSans-2e"/>
      </defs>
      <g transform="translate(68.690256 836.638438)scale(0.1 -0.1)">
       <use xlink:href="#DejaVuSans-30"/>
       <use x="63.623047" xlink:href="#DejaVuSans-2e"/>
       <use x="95.410156" xlink:href="#DejaVuSans-30"/>
      </g>
     </g>
    </g>
    <g id="xtick_2">
     <g id="line2d_2">
      <g>
       <use style="stroke:#000000;stroke-width:0.8;" x="196.649091" xlink:href="#mf7fcc93de5" y="822.04"/>
      </g>
     </g>
     <g id="text_2">
      <!-- 0.2 -->
      <defs>
       <path d="M 19.1875 8.296875 
L 53.609375 8.296875 
L 53.609375 0 
L 7.328125 0 
L 7.328125 8.296875 
Q 12.9375 14.109375 22.625 23.890625 
Q 32.328125 33.6875 34.8125 36.53125 
Q 39.546875 41.84375 41.421875 45.53125 
Q 43.3125 49.21875 43.3125 52.78125 
Q 43.3125 58.59375 39.234375 62.25 
Q 35.15625 65.921875 28.609375 65.921875 
Q 23.96875 65.921875 18.8125 64.3125 
Q 13.671875 62.703125 7.8125 59.421875 
L 7.8125 69.390625 
Q 13.765625 71.78125 18.9375 73 
Q 24.125 74.21875 28.421875 74.21875 
Q 39.75 74.21875 46.484375 68.546875 
Q 53.21875 62.890625 53.21875 53.421875 
Q 53.21875 48.921875 51.53125 44.890625 
Q 49.859375 40.875 45.40625 35.40625 
Q 44.1875 33.984375 37.640625 27.21875 
Q 31.109375 20.453125 19.1875 8.296875 
z
" id="DejaVuSans-32"/>
      </defs>
      <g transform="translate(188.697528 836.638438)scale(0.1 -0.1)">
       <use xlink:href="#DejaVuSans-30"/>
       <use x="63.623047" xlink:href="#DejaVuSans-2e"/>
       <use x="95.410156" xlink:href="#DejaVuSans-32"/>
      </g>
     </g>
    </g>
    <g id="xtick_3">
     <g id="line2d_3">
      <g>
       <use style="stroke:#000000;stroke-width:0.8;" x="316.656364" xlink:href="#mf7fcc93de5" y="822.04"/>
      </g>
     </g>
     <g id="text_3">
      <!-- 0.4 -->
      <defs>
       <path d="M 37.796875 64.3125 
L 12.890625 25.390625 
L 37.796875 25.390625 
z
M 35.203125 72.90625 
L 47.609375 72.90625 
L 47.609375 25.390625 
L 58.015625 25.390625 
L 58.015625 17.1875 
L 47.609375 17.1875 
L 47.609375 0 
L 37.796875 0 
L 37.796875 17.1875 
L 4.890625 17.1875 
L 4.890625 26.703125 
z
" id="DejaVuSans-34"/>
      </defs>
      <g transform="translate(308.704801 836.638438)scale(0.1 -0.1)">
       <use xlink:href="#DejaVuSans-30"/>
       <use x="63.623047" xlink:href="#DejaVuSans-2e"/>
       <use x="95.410156" xlink:href="#DejaVuSans-34"/>
      </g>
     </g>
    </g>
    <g id="xtick_4">
     <g id="line2d_4">
      <g>
       <use style="stroke:#000000;stroke-width:0.8;" x="436.663636" xlink:href="#mf7fcc93de5" y="822.04"/>
      </g>
     </g>
     <g id="text_4">
      <!-- 0.6 -->
      <defs>
       <path d="M 33.015625 40.375 
Q 26.375 40.375 22.484375 35.828125 
Q 18.609375 31.296875 18.609375 23.390625 
Q 18.609375 15.53125 22.484375 10.953125 
Q 26.375 6.390625 33.015625 6.390625 
Q 39.65625 6.390625 43.53125 10.953125 
Q 47.40625 15.53125 47.40625 23.390625 
Q 47.40625 31.296875 43.53125 35.828125 
Q 39.65625 40.375 33.015625 40.375 
z
M 52.59375 71.296875 
L 52.59375 62.3125 
Q 48.875 64.0625 45.09375 64.984375 
Q 41.3125 65.921875 37.59375 65.921875 
Q 27.828125 65.921875 22.671875 59.328125 
Q 17.53125 52.734375 16.796875 39.40625 
Q 19.671875 43.65625 24.015625 45.921875 
Q 28.375 48.1875 33.59375 48.1875 
Q 44.578125 48.1875 50.953125 41.515625 
Q 57.328125 34.859375 57.328125 23.390625 
Q 57.328125 12.15625 50.6875 5.359375 
Q 44.046875 -1.421875 33.015625 -1.421875 
Q 20.359375 -1.421875 13.671875 8.265625 
Q 6.984375 17.96875 6.984375 36.375 
Q 6.984375 53.65625 15.1875 63.9375 
Q 23.390625 74.21875 37.203125 74.21875 
Q 40.921875 74.21875 44.703125 73.484375 
Q 48.484375 72.75 52.59375 71.296875 
z
" id="DejaVuSans-36"/>
      </defs>
      <g transform="translate(428.712074 836.638438)scale(0.1 -0.1)">
       <use xlink:href="#DejaVuSans-30"/>
       <use x="63.623047" xlink:href="#DejaVuSans-2e"/>
       <use x="95.410156" xlink:href="#DejaVuSans-36"/>
      </g>
     </g>
    </g>
    <g id="xtick_5">
     <g id="line2d_5">
      <g>
       <use style="stroke:#000000;stroke-width:0.8;" x="556.670909" xlink:href="#mf7fcc93de5" y="822.04"/>
      </g>
     </g>
     <g id="text_5">
      <!-- 0.8 -->
      <defs>
       <path d="M 31.78125 34.625 
Q 24.75 34.625 20.71875 30.859375 
Q 16.703125 27.09375 16.703125 20.515625 
Q 16.703125 13.921875 20.71875 10.15625 
Q 24.75 6.390625 31.78125 6.390625 
Q 38.8125 6.390625 42.859375 10.171875 
Q 46.921875 13.96875 46.921875 20.515625 
Q 46.921875 27.09375 42.890625 30.859375 
Q 38.875 34.625 31.78125 34.625 
z
M 21.921875 38.8125 
Q 15.578125 40.375 12.03125 44.71875 
Q 8.5 49.078125 8.5 55.328125 
Q 8.5 64.0625 14.71875 69.140625 
Q 20.953125 74.21875 31.78125 74.21875 
Q 42.671875 74.21875 48.875 69.140625 
Q 55.078125 64.0625 55.078125 55.328125 
Q 55.078125 49.078125 51.53125 44.71875 
Q 48 40.375 41.703125 38.8125 
Q 48.828125 37.15625 52.796875 32.3125 
Q 56.78125 27.484375 56.78125 20.515625 
Q 56.78125 9.90625 50.3125 4.234375 
Q 43.84375 -1.421875 31.78125 -1.421875 
Q 19.734375 -1.421875 13.25 4.234375 
Q 6.78125 9.90625 6.78125 20.515625 
Q 6.78125 27.484375 10.78125 32.3125 
Q 14.796875 37.15625 21.921875 38.8125 
z
M 18.3125 54.390625 
Q 18.3125 48.734375 21.84375 45.5625 
Q 25.390625 42.390625 31.78125 42.390625 
Q 38.140625 42.390625 41.71875 45.5625 
Q 45.3125 48.734375 45.3125 54.390625 
Q 45.3125 60.0625 41.71875 63.234375 
Q 38.140625 66.40625 31.78125 66.40625 
Q 25.390625 66.40625 21.84375 63.234375 
Q 18.3125 60.0625 18.3125 54.390625 
z
" id="DejaVuSans-38"/>
      </defs>
      <g transform="translate(548.719347 836.638438)scale(0.1 -0.1)">
       <use xlink:href="#DejaVuSans-30"/>
       <use x="63.623047" xlink:href="#DejaVuSans-2e"/>
       <use x="95.410156" xlink:href="#DejaVuSans-38"/>
      </g>
     </g>
    </g>
    <g id="xtick_6">
     <g id="line2d_6">
      <g>
       <use style="stroke:#000000;stroke-width:0.8;" x="676.678182" xlink:href="#mf7fcc93de5" y="822.04"/>
      </g>
     </g>
     <g id="text_6">
      <!-- 1.0 -->
      <defs>
       <path d="M 12.40625 8.296875 
L 28.515625 8.296875 
L 28.515625 63.921875 
L 10.984375 60.40625 
L 10.984375 69.390625 
L 28.421875 72.90625 
L 38.28125 72.90625 
L 38.28125 8.296875 
L 54.390625 8.296875 
L 54.390625 0 
L 12.40625 0 
z
" id="DejaVuSans-31"/>
      </defs>
      <g transform="translate(668.726619 836.638438)scale(0.1 -0.1)">
       <use xlink:href="#DejaVuSans-31"/>
       <use x="63.623047" xlink:href="#DejaVuSans-2e"/>
       <use x="95.410156" xlink:href="#DejaVuSans-30"/>
      </g>
     </g>
    </g>
   </g>
   <g id="matplotlib.axis_2">
    <g id="ytick_1">
     <g id="line2d_7">
      <defs>
       <path d="M 0 0 
L -3.5 0 
" id="m2963ac5903" style="stroke:#000000;stroke-width:0.8;"/>
      </defs>
      <g>
       <use style="stroke:#000000;stroke-width:0.8;" x="46.64" xlink:href="#m2963ac5903" y="799.350647"/>
      </g>
     </g>
     <g id="text_7">
      <!-- 0.0 -->
      <g transform="translate(23.736875 803.149865)scale(0.1 -0.1)">
       <use xlink:href="#DejaVuSans-30"/>
       <use x="63.623047" xlink:href="#DejaVuSans-2e"/>
       <use x="95.410156" xlink:href="#DejaVuSans-30"/>
      </g>
     </g>
    </g>
    <g id="ytick_2">
     <g id="line2d_8">
      <g>
       <use style="stroke:#000000;stroke-width:0.8;" x="46.64" xlink:href="#m2963ac5903" y="665.388418"/>
      </g>
     </g>
     <g id="text_8">
      <!-- 0.2 -->
      <g transform="translate(23.736875 669.187636)scale(0.1 -0.1)">
       <use xlink:href="#DejaVuSans-30"/>
       <use x="63.623047" xlink:href="#DejaVuSans-2e"/>
       <use x="95.410156" xlink:href="#DejaVuSans-32"/>
      </g>
     </g>
    </g>
    <g id="ytick_3">
     <g id="line2d_9">
      <g>
       <use style="stroke:#000000;stroke-width:0.8;" x="46.64" xlink:href="#m2963ac5903" y="531.426189"/>
      </g>
     </g>
     <g id="text_9">
      <!-- 0.4 -->
      <g transform="translate(23.736875 535.225408)scale(0.1 -0.1)">
       <use xlink:href="#DejaVuSans-30"/>
       <use x="63.623047" xlink:href="#DejaVuSans-2e"/>
       <use x="95.410156" xlink:href="#DejaVuSans-34"/>
      </g>
     </g>
    </g>
    <g id="ytick_4">
     <g id="line2d_10">
      <g>
       <use style="stroke:#000000;stroke-width:0.8;" x="46.64" xlink:href="#m2963ac5903" y="397.46396"/>
      </g>
     </g>
     <g id="text_10">
      <!-- 0.6 -->
      <g transform="translate(23.736875 401.263179)scale(0.1 -0.1)">
       <use xlink:href="#DejaVuSans-30"/>
       <use x="63.623047" xlink:href="#DejaVuSans-2e"/>
       <use x="95.410156" xlink:href="#DejaVuSans-36"/>
      </g>
     </g>
    </g>
    <g id="ytick_5">
     <g id="line2d_11">
      <g>
       <use style="stroke:#000000;stroke-width:0.8;" x="46.64" xlink:href="#m2963ac5903" y="263.501731"/>
      </g>
     </g>
     <g id="text_11">
      <!-- 0.8 -->
      <g transform="translate(23.736875 267.30095)scale(0.1 -0.1)">
       <use xlink:href="#DejaVuSans-30"/>
       <use x="63.623047" xlink:href="#DejaVuSans-2e"/>
       <use x="95.410156" xlink:href="#DejaVuSans-38"/>
      </g>
     </g>
    </g>
    <g id="ytick_6">
     <g id="line2d_12">
      <g>
       <use style="stroke:#000000;stroke-width:0.8;" x="46.64" xlink:href="#m2963ac5903" y="129.539503"/>
      </g>
     </g>
     <g id="text_12">
      <!-- 1.0 -->
      <g transform="translate(23.736875 133.338721)scale(0.1 -0.1)">
       <use xlink:href="#DejaVuSans-31"/>
       <use x="63.623047" xlink:href="#DejaVuSans-2e"/>
       <use x="95.410156" xlink:href="#DejaVuSans-30"/>
      </g>
     </g>
    </g>
   </g>
   <g id="line2d_13">
    <path clip-path="url(#pfee51a1f29)" d="M 76.641818 765.38459 
L 78.662143 765.83745 
L 80.682467 764.025945 
L 82.702792 761.308656 
L 84.723116 744.099131 
L 86.74344 737.305906 
L 88.763765 718.737536 
L 90.784089 689.300676 
L 92.804414 654.88176 
L 94.824738 597.818539 
L 96.845063 549.813175 
L 98.865387 495.467378 
L 102.906036 376.812343 
L 104.926361 328.806978 
L 106.946685 313.862152 
L 108.967009 273.555597 
L 110.987334 198.830126 
L 113.007658 173.469067 
L 115.027983 167.581427 
L 117.048307 139.050151 
L 119.068632 136.332727 
L 121.088956 158.52357 
L 123.109281 206.529605 
L 125.129605 223.285601 
L 127.14993 227.814863 
L 129.170254 270.838173 
L 131.190579 295.74711 
L 133.210903 322.920008 
L 135.231227 343.752474 
L 137.251552 376.359551 
L 139.271876 427.987924 
L 141.292201 434.328356 
L 143.312525 402.174072 
L 145.33285 408.514504 
L 147.353174 423.459331 
L 149.373499 428.894178 
L 151.393823 423.459331 
L 153.414148 447.914805 
L 155.434472 490.485992 
L 157.454796 504.525234 
L 159.475121 538.944149 
L 161.495445 569.287264 
L 163.51577 573.363065 
L 165.536094 586.496722 
L 167.556419 609.140357 
L 169.576743 629.972823 
L 171.597068 635.860463 
L 173.617392 642.653688 
L 175.637717 668.015417 
L 177.658041 683.865828 
L 179.678365 691.564637 
L 181.69869 685.677667 
L 183.719014 696.0939 
L 185.739339 707.86851 
L 187.759663 714.208943 
L 189.779988 720.096583 
L 191.800312 734.588616 
L 193.820637 749.986637 
L 195.840961 749.986637 
L 197.861286 743.646272 
L 199.88161 746.363561 
L 201.901934 741.381841 
L 203.922259 734.588616 
L 205.942583 733.230039 
L 207.962908 720.096583 
L 209.983232 696.546693 
L 212.003557 670.732171 
L 214.023881 660.315938 
L 216.044206 646.729489 
L 218.06453 624.991438 
L 220.084855 611.404989 
L 222.105179 600.083171 
L 224.125504 586.949514 
L 226.145828 570.192849 
L 228.166152 533.962094 
L 230.186477 521.734692 
L 232.206801 513.129628 
L 234.227126 510.412204 
L 236.24745 505.430818 
L 238.267775 483.239305 
L 244.328748 304.351504 
L 246.349073 271.290965 
L 248.369397 241.401313 
L 250.389721 202.000342 
L 252.410046 235.06088 
L 254.43037 244.118737 
L 256.450695 231.437872 
L 258.471019 233.249041 
L 260.491344 251.364753 
L 262.511668 295.74711 
L 264.531993 322.013754 
L 266.552317 351.451284 
L 268.572642 400.815025 
L 270.592966 424.817708 
L 272.61329 445.197382 
L 274.633615 463.313094 
L 276.653939 467.388895 
L 278.674264 490.938785 
L 280.694588 495.467378 
L 282.714913 496.825755 
L 284.735237 495.467378 
L 286.755562 498.637594 
L 288.775886 508.148242 
L 290.796211 509.053827 
L 292.816535 517.205429 
L 294.83686 523.998653 
L 296.857184 528.527916 
L 298.877508 532.603717 
L 300.897833 546.642959 
L 302.918157 549.360382 
L 304.938482 568.834472 
L 306.958806 585.590467 
L 308.979131 597.818539 
L 310.999455 595.553908 
L 313.01978 600.083171 
L 317.060429 636.766048 
L 319.080753 651.258752 
L 321.101077 663.033362 
L 323.121402 683.413036 
L 325.141726 699.716909 
L 327.162051 705.604549 
L 329.182375 708.774095 
L 331.2027 716.020782 
L 335.243349 740.928982 
L 337.263673 752.251 
L 339.283998 765.38459 
L 341.304322 774.895038 
L 343.324646 782.141189 
L 345.344971 784.858479 
L 347.365295 783.046907 
L 349.38562 781.688262 
L 351.405944 780.782544 
L 353.426269 774.442179 
L 355.446593 771.272029 
L 357.466918 757.68558 
L 359.487242 746.816421 
L 361.507567 723.719591 
L 363.527891 701.98154 
L 365.548215 681.601866 
L 367.56854 651.711544 
L 369.588864 636.313256 
L 371.609189 610.499404 
L 373.629513 579.703497 
L 375.649838 556.606399 
L 379.690487 493.202746 
L 381.710811 457.425454 
L 383.731136 425.27117 
L 387.771785 377.265135 
L 389.792109 374.548381 
L 391.812433 374.095589 
L 393.832758 366.848902 
L 395.853082 355.527084 
L 397.873407 366.848902 
L 399.893731 368.207949 
L 401.914056 375.001174 
L 403.93438 371.378165 
L 405.954705 389.040415 
L 407.975029 410.778466 
L 409.995354 423.006538 
L 412.015678 447.009221 
L 414.036002 451.990606 
L 416.056327 484.598352 
L 420.096976 497.279217 
L 424.137625 523.998653 
L 426.157949 538.944149 
L 428.178274 533.962094 
L 430.198598 548.90759 
L 432.218923 575.174234 
L 434.239247 595.101116 
L 436.259571 600.083171 
L 438.279896 598.271332 
L 442.320545 603.706179 
L 444.340869 591.025315 
L 446.361194 588.307891 
L 448.381518 584.23209 
L 450.401843 591.478107 
L 452.422167 604.611764 
L 454.442492 612.310573 
L 456.462816 630.879078 
L 458.48314 639.936264 
L 460.503465 658.504769 
L 462.523789 668.015417 
L 464.544114 676.167019 
L 466.564438 689.753468 
L 468.584763 704.245502 
L 470.605087 714.661735 
L 472.625412 723.266799 
L 474.645736 744.552057 
L 476.666061 759.950011 
L 478.686385 769.007599 
L 480.70671 774.895038 
L 482.727034 775.347964 
L 484.747358 770.81917 
L 486.767683 757.68558 
L 488.788007 742.287627 
L 492.828656 701.528078 
L 494.848981 672.996803 
L 496.869305 637.21951 
L 498.88963 603.706179 
L 500.909954 584.684882 
L 502.930279 539.849734 
L 504.950603 505.430818 
L 506.970927 485.051145 
L 508.991252 471.011903 
L 511.011576 447.914805 
L 513.031901 375.453966 
L 515.052225 320.655377 
L 517.07255 273.555597 
L 519.092874 222.380016 
L 521.113199 174.827444 
L 523.133523 163.958418 
L 525.153848 167.128634 
L 527.174172 186.149931 
L 529.194496 213.775622 
L 531.214821 254.081507 
L 533.235145 288.047631 
L 535.25547 299.822911 
L 537.275794 332.883449 
L 539.296119 355.074292 
L 541.316443 354.168707 
L 543.336768 341.940635 
L 545.357092 337.864834 
L 547.377417 339.223211 
L 549.397741 342.84622 
L 551.418066 382.247191 
L 553.43839 413.948682 
L 557.479039 492.749954 
L 559.499363 517.205429 
L 561.519688 553.436183 
L 563.540012 563.852416 
L 565.560337 566.117048 
L 567.580661 577.438865 
L 569.600986 593.289946 
L 571.62131 622.726806 
L 573.641635 635.860463 
L 575.661959 651.711544 
L 577.682283 684.31862 
L 579.702608 706.510133 
L 581.722932 718.737536 
L 583.743257 723.719591 
L 585.763581 730.965608 
L 587.783906 742.740486 
L 589.80423 747.269347 
L 591.824555 745.004917 
L 593.844879 748.175066 
L 595.865204 745.910702 
L 597.885528 751.345282 
L 599.905852 740.023196 
L 601.926177 741.834767 
L 603.946501 740.928982 
L 605.966826 741.834767 
L 607.98715 751.345282 
L 610.007475 756.326935 
L 612.027799 766.743235 
L 614.048124 771.724889 
L 616.068448 778.065254 
L 618.088773 783.499834 
L 620.109097 785.764197 
L 622.129421 788.934413 
L 624.149746 789.387273 
L 628.190395 780.329618 
L 630.210719 773.536393 
L 634.251368 743.646272 
L 636.271693 727.795392 
L 638.292017 709.680349 
L 640.312342 674.35518 
L 642.332666 657.599184 
L 644.352991 643.559273 
L 646.373315 620.462845 
L 648.393639 601.89434 
L 650.413964 574.268649 
L 652.434288 573.363065 
L 654.454613 556.606399 
L 656.474937 547.095751 
L 658.495262 529.886293 
L 660.515586 516.752636 
L 662.535911 534.868348 
L 664.556235 537.585102 
L 666.57656 528.527916 
L 668.596884 527.621662 
L 670.617208 543.472742 
L 672.637533 552.530598 
L 674.657857 532.603717 
L 676.678182 528.527916 
L 676.678182 528.527916 
" style="fill:none;stroke:#1f77b4;stroke-linecap:square;stroke-width:1.5;"/>
   </g>
   <g id="line2d_14">
    <path clip-path="url(#pfee51a1f29)" d="M 76.641818 743.409254 
L 78.662143 744.430804 
L 80.682467 743.49157 
L 82.702792 743.307372 
L 84.723116 738.294276 
L 86.74344 728.964071 
L 88.763765 725.126847 
L 90.784089 703.233012 
L 92.804414 678.368565 
L 94.824738 633.076904 
L 96.845063 566.386982 
L 98.865387 516.448419 
L 100.885712 445.508015 
L 102.906036 381.693169 
L 104.926361 327.211612 
L 106.946685 305.774482 
L 108.967009 295.236502 
L 110.987334 243.89583 
L 113.007658 218.092678 
L 115.027983 219.604336 
L 119.068632 205.110592 
L 121.088956 209.352348 
L 123.109281 228.02536 
L 125.129605 252.025223 
L 127.14993 245.667922 
L 129.170254 263.764985 
L 131.190579 294.288631 
L 133.210903 308.887782 
L 135.231227 337.250582 
L 137.251552 346.795039 
L 139.271876 402.488249 
L 141.292201 442.848953 
L 143.312525 401.54073 
L 145.33285 385.012788 
L 147.353174 406.25717 
L 149.373499 420.843894 
L 151.393823 415.310285 
L 153.414148 417.882007 
L 155.434472 473.06052 
L 157.454796 506.898851 
L 159.475121 519.973388 
L 161.495445 567.426511 
L 163.51577 585.92643 
L 165.536094 584.630875 
L 167.556419 606.589575 
L 169.576743 632.255593 
L 171.597068 645.099486 
L 173.617392 648.34666 
L 175.637717 661.55983 
L 177.658041 684.91403 
L 179.678365 694.695652 
L 181.69869 691.661055 
L 183.719014 693.318485 
L 185.739339 703.713689 
L 187.759663 711.339401 
L 189.779988 714.831497 
L 191.800312 720.329589 
L 193.820637 732.619301 
L 195.840961 737.566209 
L 197.861286 734.414483 
L 199.88161 731.89943 
L 201.901934 733.276774 
L 203.922259 729.030171 
L 205.942583 725.443156 
L 207.962908 722.758976 
L 209.983232 708.923674 
L 212.003557 686.814002 
L 214.023881 668.622019 
L 216.044206 661.231182 
L 218.06453 645.021929 
L 220.084855 621.102708 
L 222.105179 612.033025 
L 224.125504 601.31305 
L 226.145828 581.533351 
L 230.186477 519.829467 
L 232.206801 512.369533 
L 234.227126 505.959352 
L 236.24745 509.865761 
L 238.267775 496.320594 
L 240.288099 442.901128 
L 242.308424 360.149751 
L 244.328748 314.888056 
L 246.349073 279.030862 
L 248.369397 259.612156 
L 250.389721 237.825579 
L 252.410046 237.734978 
L 254.43037 266.242052 
L 256.450695 252.752232 
L 258.471019 247.922629 
L 260.491344 254.721477 
L 262.511668 280.896022 
L 264.531993 313.863333 
L 266.552317 333.978907 
L 268.572642 375.30555 
L 270.592966 411.790515 
L 272.61329 436.479931 
L 274.633615 451.692135 
L 276.653939 462.368924 
L 278.674264 470.630604 
L 280.694588 499.913954 
L 282.714913 493.504831 
L 284.735237 490.78055 
L 286.755562 493.32266 
L 288.775886 501.229428 
L 290.796211 510.624763 
L 292.816535 506.802345 
L 294.83686 526.883195 
L 296.857184 525.7528 
L 298.877508 531.782687 
L 300.897833 544.712246 
L 302.918157 550.41842 
L 304.938482 563.889556 
L 306.958806 587.49749 
L 308.979131 603.029882 
L 310.999455 608.08863 
L 313.01978 601.937296 
L 315.040104 617.868842 
L 317.060429 638.250579 
L 319.080753 654.240293 
L 323.121402 678.603968 
L 325.141726 696.125346 
L 327.162051 706.592291 
L 329.182375 707.748949 
L 331.2027 710.088441 
L 335.243349 727.043652 
L 337.263673 734.458638 
L 339.283998 740.166222 
L 341.304322 746.781488 
L 343.324646 750.398469 
L 345.344971 752.45708 
L 347.365295 752.737431 
L 349.38562 751.60122 
L 351.405944 751.585973 
L 353.426269 749.74505 
L 355.446593 747.496335 
L 357.466918 744.116521 
L 359.487242 736.979155 
L 361.507567 728.484187 
L 365.548215 693.994289 
L 367.56854 672.400723 
L 369.588864 648.896169 
L 371.609189 631.393651 
L 373.629513 600.171639 
L 375.649838 565.565494 
L 377.670162 539.841749 
L 379.690487 498.921047 
L 383.731136 423.794941 
L 385.75146 391.061006 
L 387.771785 370.262577 
L 389.792109 357.866664 
L 391.812433 360.800966 
L 393.832758 361.719841 
L 395.853082 345.696813 
L 397.873407 346.598414 
L 399.893731 362.33122 
L 401.914056 357.855295 
L 403.93438 366.411516 
L 405.954705 363.264549 
L 407.975029 392.656303 
L 414.036002 446.29522 
L 416.056327 459.592998 
L 418.076651 494.886581 
L 420.096976 490.336272 
L 422.1173 502.345721 
L 424.137625 518.199887 
L 426.157949 538.554566 
L 428.178274 540.536678 
L 430.198598 539.2658 
L 432.218923 572.087868 
L 434.239247 597.66681 
L 436.259571 608.895665 
L 438.279896 606.872394 
L 440.30022 607.453455 
L 442.320545 613.13222 
L 444.340869 604.947216 
L 446.361194 592.93195 
L 448.381518 591.786485 
L 450.401843 594.390199 
L 452.422167 607.024247 
L 454.442492 617.117596 
L 458.48314 646.460877 
L 460.503465 657.786238 
L 462.523789 673.065687 
L 464.544114 678.202257 
L 466.564438 687.258985 
L 470.605087 710.720972 
L 472.625412 716.081047 
L 474.645736 724.181091 
L 476.666061 738.186489 
L 478.686385 743.792368 
L 480.70671 747.553181 
L 482.727034 749.056202 
L 484.747358 748.749587 
L 486.767683 743.645715 
L 488.788007 736.633497 
L 490.808332 725.039507 
L 492.828656 710.258449 
L 494.848981 692.124458 
L 496.869305 660.251583 
L 498.88963 624.128492 
L 500.909954 592.040308 
L 502.930279 570.578854 
L 504.950603 510.464361 
L 506.970927 477.840592 
L 508.991252 471.347214 
L 511.011576 449.719012 
L 513.031901 399.556062 
L 515.052225 316.989853 
L 517.07255 289.414786 
L 519.092874 254.538865 
L 521.113199 224.93145 
L 523.133523 215.563965 
L 525.153848 217.120394 
L 527.174172 221.324429 
L 529.194496 236.248967 
L 531.214821 255.810801 
L 533.235145 284.637534 
L 535.25547 301.411808 
L 537.275794 309.101769 
L 539.296119 349.506187 
L 541.316443 345.024622 
L 543.336768 340.021309 
L 545.357092 326.210685 
L 547.377417 327.975196 
L 549.397741 330.632584 
L 551.418066 349.81007 
L 553.43839 400.467799 
L 555.458714 429.445944 
L 557.479039 479.681251 
L 563.540012 573.564889 
L 565.560337 572.517252 
L 567.580661 577.010098 
L 569.600986 593.236009 
L 571.62131 616.267994 
L 573.641635 644.968167 
L 575.661959 653.074733 
L 577.682283 672.5524 
L 579.702608 700.945078 
L 581.722932 712.950738 
L 583.743257 718.900247 
L 585.763581 720.8219 
L 587.783906 727.963144 
L 589.80423 733.984746 
L 591.824555 734.373678 
L 593.844879 733.636797 
L 595.865204 733.989329 
L 597.885528 735.529542 
L 599.905852 734.304493 
L 601.926177 729.151618 
L 603.946501 730.434483 
L 605.966826 730.873297 
L 607.98715 733.935744 
L 610.007475 737.796941 
L 614.048124 746.223518 
L 616.068448 748.454606 
L 618.088773 751.255915 
L 620.109097 752.78661 
L 622.129421 754.133194 
L 624.149746 754.263455 
L 626.17007 754.012188 
L 628.190395 751.96706 
L 630.210719 749.176063 
L 632.231044 745.177731 
L 634.251368 736.007488 
L 636.271693 727.892285 
L 638.292017 716.185749 
L 640.312342 694.686662 
L 642.332666 668.877869 
L 644.352991 657.164547 
L 646.373315 639.956922 
L 648.393639 615.920133 
L 650.413964 590.255085 
L 652.434288 575.274318 
L 654.454613 569.529718 
L 656.474937 551.667617 
L 658.495262 541.340187 
L 660.515586 513.039873 
L 662.535911 522.402423 
L 664.556235 542.861804 
L 666.57656 534.612815 
L 668.596884 524.553927 
L 670.617208 537.972447 
L 672.637533 559.357314 
L 676.678182 529.276271 
L 676.678182 529.276271 
" style="fill:none;stroke:#ff7f0e;stroke-linecap:square;stroke-width:1.5;"/>
   </g>
   <g id="line2d_15">
    <path clip-path="url(#pfee51a1f29)" d="M 76.641818 759.161978 
L 82.702792 759.161978 
L 88.763765 739.067644 
L 92.804414 698.878975 
L 94.824738 672.086529 
L 96.845063 625.199749 
L 98.865387 564.916746 
L 100.885712 497.935632 
L 102.906036 424.256406 
L 104.926361 363.973403 
L 106.946685 330.482846 
L 110.987334 290.294177 
L 113.007658 263.501731 
L 115.027983 263.501731 
L 119.068632 250.105509 
L 121.088956 250.105509 
L 125.129605 276.897954 
L 127.14993 276.897954 
L 129.170254 283.596066 
L 131.190579 310.388511 
L 133.210903 323.784734 
L 135.231227 357.275292 
L 137.251552 363.973403 
L 139.271876 430.954517 
L 141.292201 471.143186 
L 143.312525 417.558295 
L 145.33285 397.46396 
L 147.353174 424.256406 
L 149.373499 437.652629 
L 151.393823 430.954517 
L 153.414148 430.954517 
L 155.434472 497.935632 
L 157.454796 524.728078 
L 159.475121 538.1243 
L 161.495445 591.709192 
L 163.51577 605.105415 
L 165.536094 598.407303 
L 169.576743 651.992195 
L 173.617392 665.388418 
L 175.637717 678.784641 
L 177.658041 705.577086 
L 183.719014 705.577086 
L 185.739339 718.973309 
L 187.759663 725.671421 
L 189.779988 725.671421 
L 191.800312 732.369532 
L 193.820637 745.765755 
L 195.840961 752.463866 
L 197.861286 752.463866 
L 199.88161 745.765755 
L 201.901934 745.765755 
L 203.922259 739.067644 
L 205.942583 739.067644 
L 207.962908 732.369532 
L 220.084855 651.992195 
L 222.105179 631.897861 
L 224.125504 625.199749 
L 226.145828 605.105415 
L 232.206801 524.728078 
L 234.227126 518.029966 
L 236.24745 518.029966 
L 238.267775 511.331855 
L 240.288099 471.143186 
L 244.328748 350.57718 
L 246.349073 310.388511 
L 248.369397 290.294177 
L 250.389721 276.897954 
L 252.410046 270.199843 
L 254.43037 290.294177 
L 256.450695 276.897954 
L 260.491344 276.897954 
L 262.511668 296.992289 
L 264.531993 330.482846 
L 266.552317 350.57718 
L 268.572642 404.162072 
L 270.592966 444.35074 
L 274.633615 471.143186 
L 278.674264 484.539409 
L 280.694588 518.029966 
L 282.714913 504.633743 
L 284.735237 497.935632 
L 290.796211 518.029966 
L 292.816535 518.029966 
L 294.83686 538.1243 
L 298.877508 538.1243 
L 300.897833 558.218635 
L 302.918157 558.218635 
L 304.938482 578.312969 
L 306.958806 605.105415 
L 308.979131 618.501638 
L 310.999455 625.199749 
L 313.01978 618.501638 
L 315.040104 631.897861 
L 317.060429 658.690306 
L 319.080753 672.086529 
L 321.101077 678.784641 
L 323.121402 692.180863 
L 325.141726 712.275198 
L 327.162051 718.973309 
L 331.2027 718.973309 
L 333.223024 732.369532 
L 337.263673 745.765755 
L 339.283998 759.161978 
L 343.324646 772.558201 
L 353.426269 772.558201 
L 359.487242 752.463866 
L 365.548215 712.275198 
L 367.56854 692.180863 
L 369.588864 678.784641 
L 371.609189 658.690306 
L 373.629513 631.897861 
L 379.690487 531.426189 
L 385.75146 410.860183 
L 387.771785 384.067737 
L 389.792109 370.671514 
L 391.812433 377.369626 
L 393.832758 377.369626 
L 395.853082 357.275292 
L 397.873407 357.275292 
L 399.893731 377.369626 
L 401.914056 370.671514 
L 403.93438 384.067737 
L 405.954705 377.369626 
L 407.975029 417.558295 
L 409.995354 430.954517 
L 412.015678 451.048852 
L 416.056327 477.841297 
L 418.076651 511.331855 
L 420.096976 497.935632 
L 422.1173 511.331855 
L 426.157949 551.520523 
L 430.198598 551.520523 
L 432.218923 591.709192 
L 434.239247 618.501638 
L 436.259571 625.199749 
L 444.340869 625.199749 
L 446.361194 611.803526 
L 450.401843 611.803526 
L 452.422167 625.199749 
L 454.442492 631.897861 
L 456.462816 645.294083 
L 458.48314 665.388418 
L 460.503465 672.086529 
L 462.523789 692.180863 
L 464.544114 692.180863 
L 466.564438 698.878975 
L 470.605087 725.671421 
L 472.625412 725.671421 
L 476.666061 752.463866 
L 480.70671 765.860089 
L 484.747358 765.860089 
L 488.788007 752.463866 
L 494.848981 712.275198 
L 498.88963 658.690306 
L 500.909954 625.199749 
L 502.930279 598.407303 
L 504.950603 558.218635 
L 506.970927 504.633743 
L 511.011576 464.445075 
L 513.031901 424.256406 
L 515.052225 363.973403 
L 517.07255 317.086623 
L 519.092874 290.294177 
L 521.113199 270.199843 
L 525.153848 256.80362 
L 527.174172 256.80362 
L 529.194496 270.199843 
L 531.214821 276.897954 
L 533.235145 303.6904 
L 535.25547 317.086623 
L 537.275794 317.086623 
L 539.296119 370.671514 
L 541.316443 363.973403 
L 545.357092 337.180957 
L 547.377417 337.180957 
L 549.397741 343.879069 
L 551.418066 363.973403 
L 553.43839 430.954517 
L 555.458714 451.048852 
L 557.479039 504.633743 
L 559.499363 531.426189 
L 563.540012 598.407303 
L 565.560337 585.01108 
L 567.580661 591.709192 
L 569.600986 611.803526 
L 573.641635 665.388418 
L 575.661959 672.086529 
L 577.682283 692.180863 
L 579.702608 718.973309 
L 583.743257 732.369532 
L 585.763581 732.369532 
L 589.80423 745.765755 
L 595.865204 745.765755 
L 597.885528 752.463866 
L 601.926177 739.067644 
L 603.946501 745.765755 
L 607.98715 745.765755 
L 614.048124 765.860089 
L 616.068448 765.860089 
L 618.088773 772.558201 
L 628.190395 772.558201 
L 630.210719 765.860089 
L 632.231044 765.860089 
L 640.312342 712.275198 
L 642.332666 692.180863 
L 646.373315 665.388418 
L 648.393639 645.294083 
L 650.413964 618.501638 
L 652.434288 598.407303 
L 658.495262 558.218635 
L 660.515586 538.1243 
L 662.535911 531.426189 
L 664.556235 558.218635 
L 666.57656 544.822412 
L 668.596884 538.1243 
L 670.617208 551.520523 
L 672.637533 578.312969 
L 674.657857 558.218635 
L 676.678182 544.822412 
L 676.678182 544.822412 
" style="fill:none;stroke:#2ca02c;stroke-linecap:square;stroke-width:1.5;"/>
   </g>
   <g id="line2d_16">
    <path clip-path="url(#pfee51a1f29)" d="M 76.641818 725.671421 
L 78.662143 732.369532 
L 80.682467 732.369532 
L 82.702792 725.671421 
L 84.723116 725.671421 
L 88.763765 712.275198 
L 90.784089 692.180863 
L 92.804414 665.388418 
L 94.824738 605.105415 
L 96.845063 531.426189 
L 98.865387 491.23752 
L 100.885712 410.860183 
L 102.906036 350.57718 
L 104.926361 296.992289 
L 108.967009 283.596066 
L 110.987334 209.91684 
L 113.007658 176.426283 
L 115.027983 183.124394 
L 117.048307 169.728171 
L 119.068632 163.03006 
L 121.088956 169.728171 
L 123.109281 196.520617 
L 125.129605 230.011174 
L 127.14993 223.313063 
L 129.170254 250.105509 
L 135.231227 310.388511 
L 137.251552 323.784734 
L 139.271876 350.57718 
L 141.292201 390.765849 
L 143.312525 377.369626 
L 145.33285 370.671514 
L 147.353174 377.369626 
L 149.373499 390.765849 
L 151.393823 397.46396 
L 153.414148 397.46396 
L 155.434472 424.256406 
L 157.454796 464.445075 
L 163.51577 564.916746 
L 165.536094 571.614858 
L 167.556419 591.709192 
L 169.576743 618.501638 
L 171.597068 631.897861 
L 173.617392 638.595972 
L 175.637717 651.992195 
L 177.658041 672.086529 
L 179.678365 685.482752 
L 183.719014 685.482752 
L 195.840961 725.671421 
L 197.861286 718.973309 
L 203.922259 718.973309 
L 205.942583 712.275198 
L 207.962908 712.275198 
L 209.983232 698.878975 
L 212.003557 672.086529 
L 214.023881 658.690306 
L 216.044206 651.992195 
L 218.06453 631.897861 
L 220.084855 605.105415 
L 222.105179 598.407303 
L 224.125504 585.01108 
L 226.145828 564.916746 
L 228.166152 531.426189 
L 230.186477 504.633743 
L 232.206801 504.633743 
L 234.227126 497.935632 
L 236.24745 497.935632 
L 238.267775 484.539409 
L 240.288099 417.558295 
L 242.308424 323.784734 
L 246.349073 256.80362 
L 248.369397 236.709286 
L 250.389721 209.91684 
L 252.410046 209.91684 
L 254.43037 250.105509 
L 256.450695 230.011174 
L 258.471019 223.313063 
L 260.491344 236.709286 
L 262.511668 263.501731 
L 266.552317 303.6904 
L 268.572642 330.482846 
L 272.61329 397.46396 
L 276.653939 437.652629 
L 278.674264 451.048852 
L 280.694588 471.143186 
L 282.714913 477.841297 
L 286.755562 477.841297 
L 292.816535 497.935632 
L 294.83686 511.331855 
L 296.857184 511.331855 
L 298.877508 518.029966 
L 300.897833 531.426189 
L 302.918157 538.1243 
L 304.938482 551.520523 
L 308.979131 591.709192 
L 310.999455 598.407303 
L 313.01978 591.709192 
L 315.040104 605.105415 
L 319.080753 645.294083 
L 327.162051 698.878975 
L 331.2027 698.878975 
L 341.304322 732.369532 
L 343.324646 732.369532 
L 345.344971 739.067644 
L 347.365295 739.067644 
L 349.38562 732.369532 
L 357.466918 732.369532 
L 361.507567 718.973309 
L 363.527891 698.878975 
L 365.548215 685.482752 
L 369.588864 631.897861 
L 371.609189 618.501638 
L 373.629513 578.312969 
L 375.649838 544.822412 
L 377.670162 524.728078 
L 379.690487 477.841297 
L 381.710811 437.652629 
L 385.75146 370.671514 
L 387.771785 350.57718 
L 389.792109 343.879069 
L 393.832758 343.879069 
L 395.853082 330.482846 
L 397.873407 330.482846 
L 399.893731 337.180957 
L 401.914056 337.180957 
L 403.93438 343.879069 
L 405.954705 343.879069 
L 407.975029 357.275292 
L 414.036002 417.558295 
L 416.056327 430.954517 
L 418.076651 457.746963 
L 424.137625 497.935632 
L 426.157949 518.029966 
L 428.178274 531.426189 
L 430.198598 531.426189 
L 432.218923 551.520523 
L 434.239247 578.312969 
L 436.259571 598.407303 
L 438.279896 598.407303 
L 440.30022 591.709192 
L 442.320545 598.407303 
L 444.340869 591.709192 
L 446.361194 578.312969 
L 448.381518 578.312969 
L 450.401843 585.01108 
L 452.422167 598.407303 
L 454.442492 605.105415 
L 456.462816 618.501638 
L 458.48314 638.595972 
L 460.503465 645.294083 
L 462.523789 665.388418 
L 466.564438 678.784641 
L 468.584763 692.180863 
L 480.70671 732.369532 
L 486.767683 732.369532 
L 488.788007 725.671421 
L 492.828656 698.878975 
L 494.848981 678.784641 
L 496.869305 645.294083 
L 498.88963 605.105415 
L 500.909954 571.614858 
L 502.930279 551.520523 
L 504.950603 484.539409 
L 506.970927 457.746963 
L 508.991252 457.746963 
L 511.011576 430.954517 
L 513.031901 370.671514 
L 515.052225 283.596066 
L 517.07255 270.199843 
L 521.113199 189.822506 
L 523.133523 176.426283 
L 525.153848 176.426283 
L 527.174172 183.124394 
L 529.194496 203.218728 
L 531.214821 236.709286 
L 533.235145 263.501731 
L 535.25547 283.596066 
L 537.275794 290.294177 
L 539.296119 310.388511 
L 541.316443 323.784734 
L 543.336768 323.784734 
L 545.357092 310.388511 
L 547.377417 310.388511 
L 551.418066 323.784734 
L 553.43839 350.57718 
L 555.458714 384.067737 
L 557.479039 430.954517 
L 561.519688 511.331855 
L 563.540012 544.822412 
L 565.560337 564.916746 
L 567.580661 564.916746 
L 571.62131 605.105415 
L 573.641635 631.897861 
L 575.661959 645.294083 
L 579.702608 685.482752 
L 581.722932 698.878975 
L 585.763581 712.275198 
L 587.783906 712.275198 
L 589.80423 718.973309 
L 595.865204 718.973309 
L 597.885528 725.671421 
L 599.905852 718.973309 
L 607.98715 718.973309 
L 610.007475 725.671421 
L 612.027799 725.671421 
L 614.048124 732.369532 
L 618.088773 732.369532 
L 620.109097 739.067644 
L 628.190395 739.067644 
L 630.210719 732.369532 
L 632.231044 732.369532 
L 636.271693 718.973309 
L 638.292017 705.577086 
L 642.332666 651.992195 
L 644.352991 645.294083 
L 646.373315 625.199749 
L 650.413964 571.614858 
L 652.434288 558.218635 
L 654.454613 558.218635 
L 656.474937 538.1243 
L 658.495262 531.426189 
L 660.515586 497.935632 
L 664.556235 524.728078 
L 666.57656 524.728078 
L 668.596884 518.029966 
L 670.617208 524.728078 
L 672.637533 544.822412 
L 676.678182 518.029966 
L 676.678182 518.029966 
" style="fill:none;stroke:#d62728;stroke-linecap:square;stroke-width:1.5;"/>
   </g>
   <g id="patch_3">
    <path d="M 46.64 822.04 
L 46.64 103.68 
" style="fill:none;stroke:#000000;stroke-linecap:square;stroke-linejoin:miter;stroke-width:0.8;"/>
   </g>
   <g id="patch_4">
    <path d="M 706.68 822.04 
L 706.68 103.68 
" style="fill:none;stroke:#000000;stroke-linecap:square;stroke-linejoin:miter;stroke-width:0.8;"/>
   </g>
   <g id="patch_5">
    <path d="M 46.64 822.04 
L 706.68 822.04 
" style="fill:none;stroke:#000000;stroke-linecap:square;stroke-linejoin:miter;stroke-width:0.8;"/>
   </g>
   <g id="patch_6">
    <path d="M 46.64 103.68 
L 706.68 103.68 
" style="fill:none;stroke:#000000;stroke-linecap:square;stroke-linejoin:miter;stroke-width:0.8;"/>
   </g>
   <g id="text_13">
    <!-- Plot of Train Data vs MCMC Uncertainty  -->
    <defs>
     <path d="M 19.671875 64.796875 
L 19.671875 37.40625 
L 32.078125 37.40625 
Q 38.96875 37.40625 42.71875 40.96875 
Q 46.484375 44.53125 46.484375 51.125 
Q 46.484375 57.671875 42.71875 61.234375 
Q 38.96875 64.796875 32.078125 64.796875 
z
M 9.8125 72.90625 
L 32.078125 72.90625 
Q 44.34375 72.90625 50.609375 67.359375 
Q 56.890625 61.8125 56.890625 51.125 
Q 56.890625 40.328125 50.609375 34.8125 
Q 44.34375 29.296875 32.078125 29.296875 
L 19.671875 29.296875 
L 19.671875 0 
L 9.8125 0 
z
" id="DejaVuSans-50"/>
     <path d="M 9.421875 75.984375 
L 18.40625 75.984375 
L 18.40625 0 
L 9.421875 0 
z
" id="DejaVuSans-6c"/>
     <path d="M 30.609375 48.390625 
Q 23.390625 48.390625 19.1875 42.75 
Q 14.984375 37.109375 14.984375 27.296875 
Q 14.984375 17.484375 19.15625 11.84375 
Q 23.34375 6.203125 30.609375 6.203125 
Q 37.796875 6.203125 41.984375 11.859375 
Q 46.1875 17.53125 46.1875 27.296875 
Q 46.1875 37.015625 41.984375 42.703125 
Q 37.796875 48.390625 30.609375 48.390625 
z
M 30.609375 56 
Q 42.328125 56 49.015625 48.375 
Q 55.71875 40.765625 55.71875 27.296875 
Q 55.71875 13.875 49.015625 6.21875 
Q 42.328125 -1.421875 30.609375 -1.421875 
Q 18.84375 -1.421875 12.171875 6.21875 
Q 5.515625 13.875 5.515625 27.296875 
Q 5.515625 40.765625 12.171875 48.375 
Q 18.84375 56 30.609375 56 
z
" id="DejaVuSans-6f"/>
     <path d="M 18.3125 70.21875 
L 18.3125 54.6875 
L 36.8125 54.6875 
L 36.8125 47.703125 
L 18.3125 47.703125 
L 18.3125 18.015625 
Q 18.3125 11.328125 20.140625 9.421875 
Q 21.96875 7.515625 27.59375 7.515625 
L 36.8125 7.515625 
L 36.8125 0 
L 27.59375 0 
Q 17.1875 0 13.234375 3.875 
Q 9.28125 7.765625 9.28125 18.015625 
L 9.28125 47.703125 
L 2.6875 47.703125 
L 2.6875 54.6875 
L 9.28125 54.6875 
L 9.28125 70.21875 
z
" id="DejaVuSans-74"/>
     <path id="DejaVuSans-20"/>
     <path d="M 37.109375 75.984375 
L 37.109375 68.5 
L 28.515625 68.5 
Q 23.6875 68.5 21.796875 66.546875 
Q 19.921875 64.59375 19.921875 59.515625 
L 19.921875 54.6875 
L 34.71875 54.6875 
L 34.71875 47.703125 
L 19.921875 47.703125 
L 19.921875 0 
L 10.890625 0 
L 10.890625 47.703125 
L 2.296875 47.703125 
L 2.296875 54.6875 
L 10.890625 54.6875 
L 10.890625 58.5 
Q 10.890625 67.625 15.140625 71.796875 
Q 19.390625 75.984375 28.609375 75.984375 
z
" id="DejaVuSans-66"/>
     <path d="M -0.296875 72.90625 
L 61.375 72.90625 
L 61.375 64.59375 
L 35.5 64.59375 
L 35.5 0 
L 25.59375 0 
L 25.59375 64.59375 
L -0.296875 64.59375 
z
" id="DejaVuSans-54"/>
     <path d="M 41.109375 46.296875 
Q 39.59375 47.171875 37.8125 47.578125 
Q 36.03125 48 33.890625 48 
Q 26.265625 48 22.1875 43.046875 
Q 18.109375 38.09375 18.109375 28.8125 
L 18.109375 0 
L 9.078125 0 
L 9.078125 54.6875 
L 18.109375 54.6875 
L 18.109375 46.1875 
Q 20.953125 51.171875 25.484375 53.578125 
Q 30.03125 56 36.53125 56 
Q 37.453125 56 38.578125 55.875 
Q 39.703125 55.765625 41.0625 55.515625 
z
" id="DejaVuSans-72"/>
     <path d="M 34.28125 27.484375 
Q 23.390625 27.484375 19.1875 25 
Q 14.984375 22.515625 14.984375 16.5 
Q 14.984375 11.71875 18.140625 8.90625 
Q 21.296875 6.109375 26.703125 6.109375 
Q 34.1875 6.109375 38.703125 11.40625 
Q 43.21875 16.703125 43.21875 25.484375 
L 43.21875 27.484375 
z
M 52.203125 31.203125 
L 52.203125 0 
L 43.21875 0 
L 43.21875 8.296875 
Q 40.140625 3.328125 35.546875 0.953125 
Q 30.953125 -1.421875 24.3125 -1.421875 
Q 15.921875 -1.421875 10.953125 3.296875 
Q 6 8.015625 6 15.921875 
Q 6 25.140625 12.171875 29.828125 
Q 18.359375 34.515625 30.609375 34.515625 
L 43.21875 34.515625 
L 43.21875 35.40625 
Q 43.21875 41.609375 39.140625 45 
Q 35.0625 48.390625 27.6875 48.390625 
Q 23 48.390625 18.546875 47.265625 
Q 14.109375 46.140625 10.015625 43.890625 
L 10.015625 52.203125 
Q 14.9375 54.109375 19.578125 55.046875 
Q 24.21875 56 28.609375 56 
Q 40.484375 56 46.34375 49.84375 
Q 52.203125 43.703125 52.203125 31.203125 
z
" id="DejaVuSans-61"/>
     <path d="M 9.421875 54.6875 
L 18.40625 54.6875 
L 18.40625 0 
L 9.421875 0 
z
M 9.421875 75.984375 
L 18.40625 75.984375 
L 18.40625 64.59375 
L 9.421875 64.59375 
z
" id="DejaVuSans-69"/>
     <path d="M 54.890625 33.015625 
L 54.890625 0 
L 45.90625 0 
L 45.90625 32.71875 
Q 45.90625 40.484375 42.875 44.328125 
Q 39.84375 48.1875 33.796875 48.1875 
Q 26.515625 48.1875 22.3125 43.546875 
Q 18.109375 38.921875 18.109375 30.90625 
L 18.109375 0 
L 9.078125 0 
L 9.078125 54.6875 
L 18.109375 54.6875 
L 18.109375 46.1875 
Q 21.34375 51.125 25.703125 53.5625 
Q 30.078125 56 35.796875 56 
Q 45.21875 56 50.046875 50.171875 
Q 54.890625 44.34375 54.890625 33.015625 
z
" id="DejaVuSans-6e"/>
     <path d="M 19.671875 64.796875 
L 19.671875 8.109375 
L 31.59375 8.109375 
Q 46.6875 8.109375 53.6875 14.9375 
Q 60.6875 21.78125 60.6875 36.53125 
Q 60.6875 51.171875 53.6875 57.984375 
Q 46.6875 64.796875 31.59375 64.796875 
z
M 9.8125 72.90625 
L 30.078125 72.90625 
Q 51.265625 72.90625 61.171875 64.09375 
Q 71.09375 55.28125 71.09375 36.53125 
Q 71.09375 17.671875 61.125 8.828125 
Q 51.171875 0 30.078125 0 
L 9.8125 0 
z
" id="DejaVuSans-44"/>
     <path d="M 2.984375 54.6875 
L 12.5 54.6875 
L 29.59375 8.796875 
L 46.6875 54.6875 
L 56.203125 54.6875 
L 35.6875 0 
L 23.484375 0 
z
" id="DejaVuSans-76"/>
     <path d="M 44.28125 53.078125 
L 44.28125 44.578125 
Q 40.484375 46.53125 36.375 47.5 
Q 32.28125 48.484375 27.875 48.484375 
Q 21.1875 48.484375 17.84375 46.4375 
Q 14.5 44.390625 14.5 40.28125 
Q 14.5 37.15625 16.890625 35.375 
Q 19.28125 33.59375 26.515625 31.984375 
L 29.59375 31.296875 
Q 39.15625 29.25 43.1875 25.515625 
Q 47.21875 21.78125 47.21875 15.09375 
Q 47.21875 7.46875 41.1875 3.015625 
Q 35.15625 -1.421875 24.609375 -1.421875 
Q 20.21875 -1.421875 15.453125 -0.5625 
Q 10.6875 0.296875 5.421875 2 
L 5.421875 11.28125 
Q 10.40625 8.6875 15.234375 7.390625 
Q 20.0625 6.109375 24.8125 6.109375 
Q 31.15625 6.109375 34.5625 8.28125 
Q 37.984375 10.453125 37.984375 14.40625 
Q 37.984375 18.0625 35.515625 20.015625 
Q 33.0625 21.96875 24.703125 23.78125 
L 21.578125 24.515625 
Q 13.234375 26.265625 9.515625 29.90625 
Q 5.8125 33.546875 5.8125 39.890625 
Q 5.8125 47.609375 11.28125 51.796875 
Q 16.75 56 26.8125 56 
Q 31.78125 56 36.171875 55.265625 
Q 40.578125 54.546875 44.28125 53.078125 
z
" id="DejaVuSans-73"/>
     <path d="M 9.8125 72.90625 
L 24.515625 72.90625 
L 43.109375 23.296875 
L 61.8125 72.90625 
L 76.515625 72.90625 
L 76.515625 0 
L 66.890625 0 
L 66.890625 64.015625 
L 48.09375 14.015625 
L 38.1875 14.015625 
L 19.390625 64.015625 
L 19.390625 0 
L 9.8125 0 
z
" id="DejaVuSans-4d"/>
     <path d="M 64.40625 67.28125 
L 64.40625 56.890625 
Q 59.421875 61.53125 53.78125 63.8125 
Q 48.140625 66.109375 41.796875 66.109375 
Q 29.296875 66.109375 22.65625 58.46875 
Q 16.015625 50.828125 16.015625 36.375 
Q 16.015625 21.96875 22.65625 14.328125 
Q 29.296875 6.6875 41.796875 6.6875 
Q 48.140625 6.6875 53.78125 8.984375 
Q 59.421875 11.28125 64.40625 15.921875 
L 64.40625 5.609375 
Q 59.234375 2.09375 53.4375 0.328125 
Q 47.65625 -1.421875 41.21875 -1.421875 
Q 24.65625 -1.421875 15.125 8.703125 
Q 5.609375 18.84375 5.609375 36.375 
Q 5.609375 53.953125 15.125 64.078125 
Q 24.65625 74.21875 41.21875 74.21875 
Q 47.75 74.21875 53.53125 72.484375 
Q 59.328125 70.75 64.40625 67.28125 
z
" id="DejaVuSans-43"/>
     <path d="M 8.6875 72.90625 
L 18.609375 72.90625 
L 18.609375 28.609375 
Q 18.609375 16.890625 22.84375 11.734375 
Q 27.09375 6.59375 36.625 6.59375 
Q 46.09375 6.59375 50.34375 11.734375 
Q 54.59375 16.890625 54.59375 28.609375 
L 54.59375 72.90625 
L 64.5 72.90625 
L 64.5 27.390625 
Q 64.5 13.140625 57.4375 5.859375 
Q 50.390625 -1.421875 36.625 -1.421875 
Q 22.796875 -1.421875 15.734375 5.859375 
Q 8.6875 13.140625 8.6875 27.390625 
z
" id="DejaVuSans-55"/>
     <path d="M 48.78125 52.59375 
L 48.78125 44.1875 
Q 44.96875 46.296875 41.140625 47.34375 
Q 37.3125 48.390625 33.40625 48.390625 
Q 24.65625 48.390625 19.8125 42.84375 
Q 14.984375 37.3125 14.984375 27.296875 
Q 14.984375 17.28125 19.8125 11.734375 
Q 24.65625 6.203125 33.40625 6.203125 
Q 37.3125 6.203125 41.140625 7.25 
Q 44.96875 8.296875 48.78125 10.40625 
L 48.78125 2.09375 
Q 45.015625 0.34375 40.984375 -0.53125 
Q 36.96875 -1.421875 32.421875 -1.421875 
Q 20.0625 -1.421875 12.78125 6.34375 
Q 5.515625 14.109375 5.515625 27.296875 
Q 5.515625 40.671875 12.859375 48.328125 
Q 20.21875 56 33.015625 56 
Q 37.15625 56 41.109375 55.140625 
Q 45.0625 54.296875 48.78125 52.59375 
z
" id="DejaVuSans-63"/>
     <path d="M 56.203125 29.59375 
L 56.203125 25.203125 
L 14.890625 25.203125 
Q 15.484375 15.921875 20.484375 11.0625 
Q 25.484375 6.203125 34.421875 6.203125 
Q 39.59375 6.203125 44.453125 7.46875 
Q 49.3125 8.734375 54.109375 11.28125 
L 54.109375 2.78125 
Q 49.265625 0.734375 44.1875 -0.34375 
Q 39.109375 -1.421875 33.890625 -1.421875 
Q 20.796875 -1.421875 13.15625 6.1875 
Q 5.515625 13.8125 5.515625 26.8125 
Q 5.515625 40.234375 12.765625 48.109375 
Q 20.015625 56 32.328125 56 
Q 43.359375 56 49.78125 48.890625 
Q 56.203125 41.796875 56.203125 29.59375 
z
M 47.21875 32.234375 
Q 47.125 39.59375 43.09375 43.984375 
Q 39.0625 48.390625 32.421875 48.390625 
Q 24.90625 48.390625 20.390625 44.140625 
Q 15.875 39.890625 15.1875 32.171875 
z
" id="DejaVuSans-65"/>
     <path d="M 32.171875 -5.078125 
Q 28.375 -14.84375 24.75 -17.8125 
Q 21.140625 -20.796875 15.09375 -20.796875 
L 7.90625 -20.796875 
L 7.90625 -13.28125 
L 13.1875 -13.28125 
Q 16.890625 -13.28125 18.9375 -11.515625 
Q 21 -9.765625 23.484375 -3.21875 
L 25.09375 0.875 
L 2.984375 54.6875 
L 12.5 54.6875 
L 29.59375 11.921875 
L 46.6875 54.6875 
L 56.203125 54.6875 
z
" id="DejaVuSans-79"/>
    </defs>
    <g transform="translate(256.166875 97.68)scale(0.12 -0.12)">
     <use xlink:href="#DejaVuSans-50"/>
     <use x="60.302734" xlink:href="#DejaVuSans-6c"/>
     <use x="88.085938" xlink:href="#DejaVuSans-6f"/>
     <use x="149.267578" xlink:href="#DejaVuSans-74"/>
     <use x="188.476562" xlink:href="#DejaVuSans-20"/>
     <use x="220.263672" xlink:href="#DejaVuSans-6f"/>
     <use x="281.445312" xlink:href="#DejaVuSans-66"/>
     <use x="316.650391" xlink:href="#DejaVuSans-20"/>
     <use x="348.4375" xlink:href="#DejaVuSans-54"/>
     <use x="409.302734" xlink:href="#DejaVuSans-72"/>
     <use x="450.416016" xlink:href="#DejaVuSans-61"/>
     <use x="511.695312" xlink:href="#DejaVuSans-69"/>
     <use x="539.478516" xlink:href="#DejaVuSans-6e"/>
     <use x="602.857422" xlink:href="#DejaVuSans-20"/>
     <use x="634.644531" xlink:href="#DejaVuSans-44"/>
     <use x="711.646484" xlink:href="#DejaVuSans-61"/>
     <use x="772.925781" xlink:href="#DejaVuSans-74"/>
     <use x="812.134766" xlink:href="#DejaVuSans-61"/>
     <use x="873.414062" xlink:href="#DejaVuSans-20"/>
     <use x="905.201172" xlink:href="#DejaVuSans-76"/>
     <use x="964.380859" xlink:href="#DejaVuSans-73"/>
     <use x="1016.480469" xlink:href="#DejaVuSans-20"/>
     <use x="1048.267578" xlink:href="#DejaVuSans-4d"/>
     <use x="1134.546875" xlink:href="#DejaVuSans-43"/>
     <use x="1204.371094" xlink:href="#DejaVuSans-4d"/>
     <use x="1290.650391" xlink:href="#DejaVuSans-43"/>
     <use x="1360.474609" xlink:href="#DejaVuSans-20"/>
     <use x="1392.261719" xlink:href="#DejaVuSans-55"/>
     <use x="1465.455078" xlink:href="#DejaVuSans-6e"/>
     <use x="1528.833984" xlink:href="#DejaVuSans-63"/>
     <use x="1583.814453" xlink:href="#DejaVuSans-65"/>
     <use x="1645.337891" xlink:href="#DejaVuSans-72"/>
     <use x="1686.451172" xlink:href="#DejaVuSans-74"/>
     <use x="1725.660156" xlink:href="#DejaVuSans-61"/>
     <use x="1786.939453" xlink:href="#DejaVuSans-69"/>
     <use x="1814.722656" xlink:href="#DejaVuSans-6e"/>
     <use x="1878.101562" xlink:href="#DejaVuSans-74"/>
     <use x="1917.310547" xlink:href="#DejaVuSans-79"/>
     <use x="1976.490234" xlink:href="#DejaVuSans-20"/>
    </g>
   </g>
   <g id="legend_1">
    <g id="patch_7">
     <path d="M 569.803438 170.3925 
L 699.68 170.3925 
Q 701.68 170.3925 701.68 168.3925 
L 701.68 110.68 
Q 701.68 108.68 699.68 108.68 
L 569.803438 108.68 
Q 567.803438 108.68 567.803438 110.68 
L 567.803438 168.3925 
Q 567.803438 170.3925 569.803438 170.3925 
z
" style="fill:#ffffff;opacity:0.8;stroke:#cccccc;stroke-linejoin:miter;"/>
    </g>
    <g id="line2d_17">
     <path d="M 571.803438 116.778437 
L 591.803438 116.778437 
" style="fill:none;stroke:#1f77b4;stroke-linecap:square;stroke-width:1.5;"/>
    </g>
    <g id="line2d_18"/>
    <g id="text_14">
     <!-- actual -->
     <defs>
      <path d="M 8.5 21.578125 
L 8.5 54.6875 
L 17.484375 54.6875 
L 17.484375 21.921875 
Q 17.484375 14.15625 20.5 10.265625 
Q 23.53125 6.390625 29.59375 6.390625 
Q 36.859375 6.390625 41.078125 11.03125 
Q 45.3125 15.671875 45.3125 23.6875 
L 45.3125 54.6875 
L 54.296875 54.6875 
L 54.296875 0 
L 45.3125 0 
L 45.3125 8.40625 
Q 42.046875 3.421875 37.71875 1 
Q 33.40625 -1.421875 27.6875 -1.421875 
Q 18.265625 -1.421875 13.375 4.4375 
Q 8.5 10.296875 8.5 21.578125 
z
M 31.109375 56 
z
" id="DejaVuSans-75"/>
     </defs>
     <g transform="translate(599.803438 120.278437)scale(0.1 -0.1)">
      <use xlink:href="#DejaVuSans-61"/>
      <use x="61.279297" xlink:href="#DejaVuSans-63"/>
      <use x="116.259766" xlink:href="#DejaVuSans-74"/>
      <use x="155.46875" xlink:href="#DejaVuSans-75"/>
      <use x="218.847656" xlink:href="#DejaVuSans-61"/>
      <use x="280.126953" xlink:href="#DejaVuSans-6c"/>
     </g>
    </g>
    <g id="line2d_19">
     <path d="M 571.803438 131.456562 
L 591.803438 131.456562 
" style="fill:none;stroke:#ff7f0e;stroke-linecap:square;stroke-width:1.5;"/>
    </g>
    <g id="line2d_20"/>
    <g id="text_15">
     <!-- pred. (mean) -->
     <defs>
      <path d="M 18.109375 8.203125 
L 18.109375 -20.796875 
L 9.078125 -20.796875 
L 9.078125 54.6875 
L 18.109375 54.6875 
L 18.109375 46.390625 
Q 20.953125 51.265625 25.265625 53.625 
Q 29.59375 56 35.59375 56 
Q 45.5625 56 51.78125 48.09375 
Q 58.015625 40.1875 58.015625 27.296875 
Q 58.015625 14.40625 51.78125 6.484375 
Q 45.5625 -1.421875 35.59375 -1.421875 
Q 29.59375 -1.421875 25.265625 0.953125 
Q 20.953125 3.328125 18.109375 8.203125 
z
M 48.6875 27.296875 
Q 48.6875 37.203125 44.609375 42.84375 
Q 40.53125 48.484375 33.40625 48.484375 
Q 26.265625 48.484375 22.1875 42.84375 
Q 18.109375 37.203125 18.109375 27.296875 
Q 18.109375 17.390625 22.1875 11.75 
Q 26.265625 6.109375 33.40625 6.109375 
Q 40.53125 6.109375 44.609375 11.75 
Q 48.6875 17.390625 48.6875 27.296875 
z
" id="DejaVuSans-70"/>
      <path d="M 45.40625 46.390625 
L 45.40625 75.984375 
L 54.390625 75.984375 
L 54.390625 0 
L 45.40625 0 
L 45.40625 8.203125 
Q 42.578125 3.328125 38.25 0.953125 
Q 33.9375 -1.421875 27.875 -1.421875 
Q 17.96875 -1.421875 11.734375 6.484375 
Q 5.515625 14.40625 5.515625 27.296875 
Q 5.515625 40.1875 11.734375 48.09375 
Q 17.96875 56 27.875 56 
Q 33.9375 56 38.25 53.625 
Q 42.578125 51.265625 45.40625 46.390625 
z
M 14.796875 27.296875 
Q 14.796875 17.390625 18.875 11.75 
Q 22.953125 6.109375 30.078125 6.109375 
Q 37.203125 6.109375 41.296875 11.75 
Q 45.40625 17.390625 45.40625 27.296875 
Q 45.40625 37.203125 41.296875 42.84375 
Q 37.203125 48.484375 30.078125 48.484375 
Q 22.953125 48.484375 18.875 42.84375 
Q 14.796875 37.203125 14.796875 27.296875 
z
" id="DejaVuSans-64"/>
      <path d="M 31 75.875 
Q 24.46875 64.65625 21.28125 53.65625 
Q 18.109375 42.671875 18.109375 31.390625 
Q 18.109375 20.125 21.3125 9.0625 
Q 24.515625 -2 31 -13.1875 
L 23.1875 -13.1875 
Q 15.875 -1.703125 12.234375 9.375 
Q 8.59375 20.453125 8.59375 31.390625 
Q 8.59375 42.28125 12.203125 53.3125 
Q 15.828125 64.359375 23.1875 75.875 
z
" id="DejaVuSans-28"/>
      <path d="M 52 44.1875 
Q 55.375 50.25 60.0625 53.125 
Q 64.75 56 71.09375 56 
Q 79.640625 56 84.28125 50.015625 
Q 88.921875 44.046875 88.921875 33.015625 
L 88.921875 0 
L 79.890625 0 
L 79.890625 32.71875 
Q 79.890625 40.578125 77.09375 44.375 
Q 74.3125 48.1875 68.609375 48.1875 
Q 61.625 48.1875 57.5625 43.546875 
Q 53.515625 38.921875 53.515625 30.90625 
L 53.515625 0 
L 44.484375 0 
L 44.484375 32.71875 
Q 44.484375 40.625 41.703125 44.40625 
Q 38.921875 48.1875 33.109375 48.1875 
Q 26.21875 48.1875 22.15625 43.53125 
Q 18.109375 38.875 18.109375 30.90625 
L 18.109375 0 
L 9.078125 0 
L 9.078125 54.6875 
L 18.109375 54.6875 
L 18.109375 46.1875 
Q 21.1875 51.21875 25.484375 53.609375 
Q 29.78125 56 35.6875 56 
Q 41.65625 56 45.828125 52.96875 
Q 50 49.953125 52 44.1875 
z
" id="DejaVuSans-6d"/>
      <path d="M 8.015625 75.875 
L 15.828125 75.875 
Q 23.140625 64.359375 26.78125 53.3125 
Q 30.421875 42.28125 30.421875 31.390625 
Q 30.421875 20.453125 26.78125 9.375 
Q 23.140625 -1.703125 15.828125 -13.1875 
L 8.015625 -13.1875 
Q 14.5 -2 17.703125 9.0625 
Q 20.90625 20.125 20.90625 31.390625 
Q 20.90625 42.671875 17.703125 53.65625 
Q 14.5 64.65625 8.015625 75.875 
z
" id="DejaVuSans-29"/>
     </defs>
     <g transform="translate(599.803438 134.956562)scale(0.1 -0.1)">
      <use xlink:href="#DejaVuSans-70"/>
      <use x="63.476562" xlink:href="#DejaVuSans-72"/>
      <use x="104.558594" xlink:href="#DejaVuSans-65"/>
      <use x="166.082031" xlink:href="#DejaVuSans-64"/>
      <use x="229.558594" xlink:href="#DejaVuSans-2e"/>
      <use x="261.345703" xlink:href="#DejaVuSans-20"/>
      <use x="293.132812" xlink:href="#DejaVuSans-28"/>
      <use x="332.146484" xlink:href="#DejaVuSans-6d"/>
      <use x="429.558594" xlink:href="#DejaVuSans-65"/>
      <use x="491.082031" xlink:href="#DejaVuSans-61"/>
      <use x="552.361328" xlink:href="#DejaVuSans-6e"/>
      <use x="615.740234" xlink:href="#DejaVuSans-29"/>
     </g>
    </g>
    <g id="line2d_21">
     <path d="M 571.803438 146.134687 
L 591.803438 146.134687 
" style="fill:none;stroke:#2ca02c;stroke-linecap:square;stroke-width:1.5;"/>
    </g>
    <g id="line2d_22"/>
    <g id="text_16">
     <!-- pred.(5th percen.) -->
     <defs>
      <path d="M 10.796875 72.90625 
L 49.515625 72.90625 
L 49.515625 64.59375 
L 19.828125 64.59375 
L 19.828125 46.734375 
Q 21.96875 47.46875 24.109375 47.828125 
Q 26.265625 48.1875 28.421875 48.1875 
Q 40.625 48.1875 47.75 41.5 
Q 54.890625 34.8125 54.890625 23.390625 
Q 54.890625 11.625 47.5625 5.09375 
Q 40.234375 -1.421875 26.90625 -1.421875 
Q 22.3125 -1.421875 17.546875 -0.640625 
Q 12.796875 0.140625 7.71875 1.703125 
L 7.71875 11.625 
Q 12.109375 9.234375 16.796875 8.0625 
Q 21.484375 6.890625 26.703125 6.890625 
Q 35.15625 6.890625 40.078125 11.328125 
Q 45.015625 15.765625 45.015625 23.390625 
Q 45.015625 31 40.078125 35.4375 
Q 35.15625 39.890625 26.703125 39.890625 
Q 22.75 39.890625 18.8125 39.015625 
Q 14.890625 38.140625 10.796875 36.28125 
z
" id="DejaVuSans-35"/>
      <path d="M 54.890625 33.015625 
L 54.890625 0 
L 45.90625 0 
L 45.90625 32.71875 
Q 45.90625 40.484375 42.875 44.328125 
Q 39.84375 48.1875 33.796875 48.1875 
Q 26.515625 48.1875 22.3125 43.546875 
Q 18.109375 38.921875 18.109375 30.90625 
L 18.109375 0 
L 9.078125 0 
L 9.078125 75.984375 
L 18.109375 75.984375 
L 18.109375 46.1875 
Q 21.34375 51.125 25.703125 53.5625 
Q 30.078125 56 35.796875 56 
Q 45.21875 56 50.046875 50.171875 
Q 54.890625 44.34375 54.890625 33.015625 
z
" id="DejaVuSans-68"/>
     </defs>
     <g transform="translate(599.803438 149.634687)scale(0.1 -0.1)">
      <use xlink:href="#DejaVuSans-70"/>
      <use x="63.476562" xlink:href="#DejaVuSans-72"/>
      <use x="104.558594" xlink:href="#DejaVuSans-65"/>
      <use x="166.082031" xlink:href="#DejaVuSans-64"/>
      <use x="229.558594" xlink:href="#DejaVuSans-2e"/>
      <use x="261.345703" xlink:href="#DejaVuSans-28"/>
      <use x="300.359375" xlink:href="#DejaVuSans-35"/>
      <use x="363.982422" xlink:href="#DejaVuSans-74"/>
      <use x="403.191406" xlink:href="#DejaVuSans-68"/>
      <use x="466.570312" xlink:href="#DejaVuSans-20"/>
      <use x="498.357422" xlink:href="#DejaVuSans-70"/>
      <use x="561.833984" xlink:href="#DejaVuSans-65"/>
      <use x="623.357422" xlink:href="#DejaVuSans-72"/>
      <use x="664.439453" xlink:href="#DejaVuSans-63"/>
      <use x="719.419922" xlink:href="#DejaVuSans-65"/>
      <use x="780.943359" xlink:href="#DejaVuSans-6e"/>
      <use x="844.322266" xlink:href="#DejaVuSans-2e"/>
      <use x="876.109375" xlink:href="#DejaVuSans-29"/>
     </g>
    </g>
    <g id="line2d_23">
     <path d="M 571.803438 160.812812 
L 591.803438 160.812812 
" style="fill:none;stroke:#d62728;stroke-linecap:square;stroke-width:1.5;"/>
    </g>
    <g id="line2d_24"/>
    <g id="text_17">
     <!-- pred.(95th percen.) -->
     <defs>
      <path d="M 10.984375 1.515625 
L 10.984375 10.5 
Q 14.703125 8.734375 18.5 7.8125 
Q 22.3125 6.890625 25.984375 6.890625 
Q 35.75 6.890625 40.890625 13.453125 
Q 46.046875 20.015625 46.78125 33.40625 
Q 43.953125 29.203125 39.59375 26.953125 
Q 35.25 24.703125 29.984375 24.703125 
Q 19.046875 24.703125 12.671875 31.3125 
Q 6.296875 37.9375 6.296875 49.421875 
Q 6.296875 60.640625 12.9375 67.421875 
Q 19.578125 74.21875 30.609375 74.21875 
Q 43.265625 74.21875 49.921875 64.515625 
Q 56.59375 54.828125 56.59375 36.375 
Q 56.59375 19.140625 48.40625 8.859375 
Q 40.234375 -1.421875 26.421875 -1.421875 
Q 22.703125 -1.421875 18.890625 -0.6875 
Q 15.09375 0.046875 10.984375 1.515625 
z
M 30.609375 32.421875 
Q 37.25 32.421875 41.125 36.953125 
Q 45.015625 41.5 45.015625 49.421875 
Q 45.015625 57.28125 41.125 61.84375 
Q 37.25 66.40625 30.609375 66.40625 
Q 23.96875 66.40625 20.09375 61.84375 
Q 16.21875 57.28125 16.21875 49.421875 
Q 16.21875 41.5 20.09375 36.953125 
Q 23.96875 32.421875 30.609375 32.421875 
z
" id="DejaVuSans-39"/>
     </defs>
     <g transform="translate(599.803438 164.312812)scale(0.1 -0.1)">
      <use xlink:href="#DejaVuSans-70"/>
      <use x="63.476562" xlink:href="#DejaVuSans-72"/>
      <use x="104.558594" xlink:href="#DejaVuSans-65"/>
      <use x="166.082031" xlink:href="#DejaVuSans-64"/>
      <use x="229.558594" xlink:href="#DejaVuSans-2e"/>
      <use x="261.345703" xlink:href="#DejaVuSans-28"/>
      <use x="300.359375" xlink:href="#DejaVuSans-39"/>
      <use x="363.982422" xlink:href="#DejaVuSans-35"/>
      <use x="427.605469" xlink:href="#DejaVuSans-74"/>
      <use x="466.814453" xlink:href="#DejaVuSans-68"/>
      <use x="530.193359" xlink:href="#DejaVuSans-20"/>
      <use x="561.980469" xlink:href="#DejaVuSans-70"/>
      <use x="625.457031" xlink:href="#DejaVuSans-65"/>
      <use x="686.980469" xlink:href="#DejaVuSans-72"/>
      <use x="728.0625" xlink:href="#DejaVuSans-63"/>
      <use x="783.042969" xlink:href="#DejaVuSans-65"/>
      <use x="844.566406" xlink:href="#DejaVuSans-6e"/>
      <use x="907.945312" xlink:href="#DejaVuSans-2e"/>
      <use x="939.732422" xlink:href="#DejaVuSans-29"/>
     </g>
    </g>
   </g>
  </g>
 </g>
 <defs>
  <clipPath id="pfee51a1f29">
   <rect height="718.36" width="660.04" x="46.64" y="103.68"/>
  </clipPath>
 </defs>
</svg>
