<?xml version="1.0" encoding="utf-8" standalone="no"?>
<!DOCTYPE svg PUBLIC "-//W3C//DTD SVG 1.1//EN"
  "http://www.w3.org/Graphics/SVG/1.1/DTD/svg11.dtd">
<!-- Created with matplotlib (http://matplotlib.org/) -->
<svg height="864pt" version="1.1" viewBox="0 0 720 864" width="720pt" xmlns="http://www.w3.org/2000/svg" xmlns:xlink="http://www.w3.org/1999/xlink">
 <defs>
  <style type="text/css">
*{stroke-linecap:butt;stroke-linejoin:round;}
  </style>
 </defs>
 <g id="figure_1">
  <g id="patch_1">
   <path d="M 0 864 
L 720 864 
L 720 0 
L 0 0 
z
" style="fill:#ffffff;"/>
  </g>
  <g id="axes_1">
   <g id="patch_2">
    <path d="M 56 393.6 
L 706.68 393.6 
L 706.68 103.68 
L 56 103.68 
z
" style="fill:#ffffff;"/>
   </g>
   <g id="PolyCollection_1">
    <path clip-path="url(#pe189621116)" d="M 85.576364 119.575731 
L 85.576364 274.476007 
L 88.57904 271.758459 
L 91.581717 271.758459 
L 94.584393 271.758459 
L 97.58707 271.758459 
L 100.589746 274.476007 
L 103.592423 277.193556 
L 106.595099 282.628654 
L 109.597776 285.346202 
L 112.600452 282.628654 
L 115.603129 285.346202 
L 118.605805 288.063751 
L 121.608482 290.7813 
L 124.611158 293.498848 
L 127.613835 298.933946 
L 130.616511 307.086592 
L 133.619188 312.521689 
L 136.621864 317.956787 
L 139.624541 320.674336 
L 142.627217 323.391884 
L 145.629894 328.826982 
L 148.63257 328.826982 
L 151.635247 328.826982 
L 154.637923 331.54453 
L 157.6406 328.826982 
L 160.643276 328.826982 
L 163.645953 331.54453 
L 166.648629 331.54453 
L 169.651306 334.262079 
L 172.653982 334.262079 
L 175.656659 334.262079 
L 178.659335 334.262079 
L 181.662012 334.262079 
L 184.664689 334.262079 
L 187.667365 334.262079 
L 190.670042 334.262079 
L 193.672718 334.262079 
L 196.675395 334.262079 
L 199.678071 334.262079 
L 202.680748 334.262079 
L 205.683424 334.262079 
L 208.686101 334.262079 
L 211.688777 334.262079 
L 214.691454 331.54453 
L 217.69413 328.826982 
L 220.696807 323.391884 
L 223.699483 317.956787 
L 226.70216 312.521689 
L 229.704836 304.369043 
L 232.707513 296.216397 
L 235.710189 288.063751 
L 238.712866 279.911105 
L 241.715542 277.193556 
L 244.718219 274.476007 
L 247.720895 271.758459 
L 250.723572 271.758459 
L 253.726248 269.04091 
L 256.728925 269.04091 
L 259.731601 269.04091 
L 262.734278 266.323361 
L 265.736954 266.323361 
L 268.739631 266.323361 
L 271.742307 266.323361 
L 274.744984 266.323361 
L 277.74766 266.323361 
L 280.750337 269.04091 
L 283.753013 269.04091 
L 286.75569 269.04091 
L 289.758366 271.758459 
L 292.761043 274.476007 
L 295.763719 274.476007 
L 298.766396 277.193556 
L 301.769072 277.193556 
L 304.771749 279.911105 
L 307.774425 285.346202 
L 310.777102 290.7813 
L 313.779778 293.498848 
L 316.782455 296.216397 
L 319.785132 301.651495 
L 322.787808 304.369043 
L 325.790485 307.086592 
L 328.793161 309.804141 
L 331.795838 315.239238 
L 334.798514 317.956787 
L 337.801191 317.956787 
L 340.803867 317.956787 
L 343.806544 317.956787 
L 346.80922 317.956787 
L 349.811897 317.956787 
L 352.814573 317.956787 
L 355.81725 317.956787 
L 358.819926 320.674336 
L 361.822603 323.391884 
L 364.825279 323.391884 
L 367.827956 326.109433 
L 370.830632 328.826982 
L 373.833309 331.54453 
L 376.835985 331.54453 
L 379.838662 331.54453 
L 382.841338 331.54453 
L 385.844015 331.54453 
L 388.846691 331.54453 
L 391.849368 331.54453 
L 394.852044 334.262079 
L 397.854721 334.262079 
L 400.857397 334.262079 
L 403.860074 336.979628 
L 406.86275 336.979628 
L 409.865427 336.979628 
L 412.868103 336.979628 
L 415.87078 336.979628 
L 418.873456 336.979628 
L 421.876133 336.979628 
L 424.878809 334.262079 
L 427.881486 334.262079 
L 430.884162 334.262079 
L 433.886839 331.54453 
L 436.889515 328.826982 
L 439.892192 326.24531 
L 442.894868 323.391884 
L 445.897545 320.674336 
L 448.900222 317.956787 
L 451.902898 312.521689 
L 454.905575 309.804141 
L 457.908251 304.369043 
L 460.910928 301.651495 
L 463.913604 298.933946 
L 466.916281 293.498848 
L 469.918957 290.7813 
L 472.921634 288.063751 
L 475.92431 285.346202 
L 478.926987 279.911105 
L 481.929663 277.193556 
L 484.93234 279.911105 
L 487.935016 277.193556 
L 490.937693 277.193556 
L 493.940369 277.193556 
L 496.943046 282.628654 
L 499.945722 282.628654 
L 502.948399 277.193556 
L 505.951075 277.193556 
L 508.953752 282.628654 
L 511.956428 282.628654 
L 514.959105 277.193556 
L 517.961781 279.911105 
L 520.964458 288.063751 
L 523.967134 290.7813 
L 526.969811 290.7813 
L 529.972487 290.7813 
L 532.975164 290.7813 
L 535.97784 293.498848 
L 538.980517 290.7813 
L 541.983193 290.7813 
L 544.98587 293.498848 
L 547.988546 298.933946 
L 550.991223 301.651495 
L 553.993899 301.651495 
L 556.996576 304.369043 
L 559.999252 309.804141 
L 563.001929 312.521689 
L 566.004605 315.239238 
L 569.007282 320.674336 
L 572.009958 326.109433 
L 575.012635 328.826982 
L 578.015311 328.826982 
L 581.017988 331.54453 
L 584.020665 331.54453 
L 587.023341 334.262079 
L 590.026018 334.262079 
L 593.028694 334.262079 
L 596.031371 336.979628 
L 599.034047 336.979628 
L 602.036724 336.979628 
L 605.0394 336.979628 
L 608.042077 336.979628 
L 611.044753 336.979628 
L 614.04743 336.979628 
L 617.050106 336.979628 
L 620.052783 336.979628 
L 623.055459 336.979628 
L 626.058136 336.979628 
L 629.060812 336.979628 
L 632.063489 336.979628 
L 635.066165 334.262079 
L 638.068842 334.262079 
L 641.071518 334.262079 
L 644.074195 331.54453 
L 647.076871 328.826982 
L 650.079548 323.391884 
L 653.082224 315.239238 
L 656.084901 304.369043 
L 659.087577 296.216397 
L 662.090254 293.498848 
L 665.09293 290.7813 
L 668.095607 282.628654 
L 671.098283 282.628654 
L 674.10096 285.346202 
L 677.103636 285.346202 
L 677.103636 119.575731 
L 677.103636 119.575731 
L 674.10096 119.575731 
L 671.098283 119.575731 
L 668.095607 119.575731 
L 665.09293 119.575731 
L 662.090254 119.575731 
L 659.087577 119.575731 
L 656.084901 119.575731 
L 653.082224 122.293279 
L 650.079548 122.293279 
L 647.076871 122.293279 
L 644.074195 122.293279 
L 641.071518 122.293279 
L 638.068842 122.293279 
L 635.066165 122.293279 
L 632.063489 122.293279 
L 629.060812 122.293279 
L 626.058136 122.293279 
L 623.055459 122.293279 
L 620.052783 122.293279 
L 617.050106 122.293279 
L 614.04743 122.293279 
L 611.044753 122.293279 
L 608.042077 122.293279 
L 605.0394 122.293279 
L 602.036724 122.293279 
L 599.034047 122.293279 
L 596.031371 122.293279 
L 593.028694 122.293279 
L 590.026018 122.293279 
L 587.023341 122.293279 
L 584.020665 122.293279 
L 581.017988 122.293279 
L 578.015311 122.293279 
L 575.012635 122.293279 
L 572.009958 122.293279 
L 569.007282 119.575731 
L 566.004605 119.575731 
L 563.001929 119.575731 
L 559.999252 119.575731 
L 556.996576 119.575731 
L 553.993899 119.575731 
L 550.991223 119.575731 
L 547.988546 119.575731 
L 544.98587 119.575731 
L 541.983193 119.575731 
L 538.980517 119.575731 
L 535.97784 119.575731 
L 532.975164 119.575731 
L 529.972487 119.575731 
L 526.969811 119.575731 
L 523.967134 119.575731 
L 520.964458 119.575731 
L 517.961781 119.575731 
L 514.959105 119.575731 
L 511.956428 119.575731 
L 508.953752 119.575731 
L 505.951075 119.575731 
L 502.948399 119.575731 
L 499.945722 119.575731 
L 496.943046 119.575731 
L 493.940369 119.575731 
L 490.937693 119.575731 
L 487.935016 119.575731 
L 484.93234 119.575731 
L 481.929663 119.575731 
L 478.926987 119.575731 
L 475.92431 119.575731 
L 472.921634 119.575731 
L 469.918957 119.575731 
L 466.916281 119.575731 
L 463.913604 119.575731 
L 460.910928 119.575731 
L 457.908251 119.575731 
L 454.905575 119.575731 
L 451.902898 119.575731 
L 448.900222 119.575731 
L 445.897545 122.293279 
L 442.894868 122.293279 
L 439.892192 122.293279 
L 436.889515 122.293279 
L 433.886839 122.293279 
L 430.884162 122.293279 
L 427.881486 122.293279 
L 424.878809 122.293279 
L 421.876133 122.293279 
L 418.873456 122.293279 
L 415.87078 122.293279 
L 412.868103 122.293279 
L 409.865427 122.293279 
L 406.86275 122.293279 
L 403.860074 122.293279 
L 400.857397 122.293279 
L 397.854721 122.293279 
L 394.852044 122.293279 
L 391.849368 122.293279 
L 388.846691 122.293279 
L 385.844015 122.293279 
L 382.841338 122.293279 
L 379.838662 122.293279 
L 376.835985 122.293279 
L 373.833309 122.293279 
L 370.830632 122.293279 
L 367.827956 122.293279 
L 364.825279 122.293279 
L 361.822603 122.293279 
L 358.819926 122.293279 
L 355.81725 119.575731 
L 352.814573 119.575731 
L 349.811897 119.575731 
L 346.80922 119.575731 
L 343.806544 119.575731 
L 340.803867 119.575731 
L 337.801191 119.575731 
L 334.798514 119.575731 
L 331.795838 119.575731 
L 328.793161 119.575731 
L 325.790485 119.575731 
L 322.787808 119.575731 
L 319.785132 119.575731 
L 316.782455 119.575731 
L 313.779778 119.575731 
L 310.777102 119.575731 
L 307.774425 119.575731 
L 304.771749 119.575731 
L 301.769072 119.575731 
L 298.766396 119.575731 
L 295.763719 119.575731 
L 292.761043 119.575731 
L 289.758366 119.575731 
L 286.75569 119.575731 
L 283.753013 119.575731 
L 280.750337 116.858182 
L 277.74766 116.858182 
L 274.744984 116.858182 
L 271.742307 116.858182 
L 268.739631 116.858182 
L 265.736954 116.858182 
L 262.734278 119.575731 
L 259.731601 119.575731 
L 256.728925 119.575731 
L 253.726248 119.575731 
L 250.723572 119.575731 
L 247.720895 119.575731 
L 244.718219 119.575731 
L 241.715542 119.575731 
L 238.712866 119.575731 
L 235.710189 119.575731 
L 232.707513 119.575731 
L 229.704836 119.575731 
L 226.70216 119.575731 
L 223.699483 122.293279 
L 220.696807 122.293279 
L 217.69413 122.293279 
L 214.691454 122.293279 
L 211.688777 122.293279 
L 208.686101 122.293279 
L 205.683424 122.293279 
L 202.680748 122.293279 
L 199.678071 122.293279 
L 196.675395 122.293279 
L 193.672718 122.293279 
L 190.670042 122.293279 
L 187.667365 122.293279 
L 184.664689 122.293279 
L 181.662012 122.293279 
L 178.659335 122.293279 
L 175.656659 122.293279 
L 172.653982 122.293279 
L 169.651306 122.293279 
L 166.648629 122.293279 
L 163.645953 122.293279 
L 160.643276 122.293279 
L 157.6406 122.293279 
L 154.637923 122.293279 
L 151.635247 122.293279 
L 148.63257 122.293279 
L 145.629894 122.293279 
L 142.627217 122.293279 
L 139.624541 122.293279 
L 136.621864 119.575731 
L 133.619188 119.575731 
L 130.616511 119.575731 
L 127.613835 119.575731 
L 124.611158 119.575731 
L 121.608482 119.575731 
L 118.605805 119.575731 
L 115.603129 119.575731 
L 112.600452 119.575731 
L 109.597776 119.575731 
L 106.595099 119.575731 
L 103.592423 119.575731 
L 100.589746 119.575731 
L 97.58707 119.575731 
L 94.584393 119.575731 
L 91.581717 119.575731 
L 88.57904 119.575731 
L 85.576364 119.575731 
z
" style="fill:#008000;fill-opacity:0.4;"/>
   </g>
   <g id="matplotlib.axis_1">
    <g id="xtick_1">
     <g id="line2d_1">
      <defs>
       <path d="M 0 0 
L 0 3.5 
" id="meef4d5e6be" style="stroke:#000000;stroke-width:0.8;"/>
      </defs>
      <g>
       <use style="stroke:#000000;stroke-width:0.8;" x="85.576364" xlink:href="#meef4d5e6be" y="393.6"/>
      </g>
     </g>
     <g id="text_1">
      <!-- 0.0 -->
      <defs>
       <path d="M 31.78125 66.40625 
Q 24.171875 66.40625 20.328125 58.90625 
Q 16.5 51.421875 16.5 36.375 
Q 16.5 21.390625 20.328125 13.890625 
Q 24.171875 6.390625 31.78125 6.390625 
Q 39.453125 6.390625 43.28125 13.890625 
Q 47.125 21.390625 47.125 36.375 
Q 47.125 51.421875 43.28125 58.90625 
Q 39.453125 66.40625 31.78125 66.40625 
z
M 31.78125 74.21875 
Q 44.046875 74.21875 50.515625 64.515625 
Q 56.984375 54.828125 56.984375 36.375 
Q 56.984375 17.96875 50.515625 8.265625 
Q 44.046875 -1.421875 31.78125 -1.421875 
Q 19.53125 -1.421875 13.0625 8.265625 
Q 6.59375 17.96875 6.59375 36.375 
Q 6.59375 54.828125 13.0625 64.515625 
Q 19.53125 74.21875 31.78125 74.21875 
z
" id="DejaVuSans-30"/>
       <path d="M 10.6875 12.40625 
L 21 12.40625 
L 21 0 
L 10.6875 0 
z
" id="DejaVuSans-2e"/>
      </defs>
      <g transform="translate(77.624801 408.198437)scale(0.1 -0.1)">
       <use xlink:href="#DejaVuSans-30"/>
       <use x="63.623047" xlink:href="#DejaVuSans-2e"/>
       <use x="95.410156" xlink:href="#DejaVuSans-30"/>
      </g>
     </g>
    </g>
    <g id="xtick_2">
     <g id="line2d_2">
      <g>
       <use style="stroke:#000000;stroke-width:0.8;" x="203.881818" xlink:href="#meef4d5e6be" y="393.6"/>
      </g>
     </g>
     <g id="text_2">
      <!-- 0.2 -->
      <defs>
       <path d="M 19.1875 8.296875 
L 53.609375 8.296875 
L 53.609375 0 
L 7.328125 0 
L 7.328125 8.296875 
Q 12.9375 14.109375 22.625 23.890625 
Q 32.328125 33.6875 34.8125 36.53125 
Q 39.546875 41.84375 41.421875 45.53125 
Q 43.3125 49.21875 43.3125 52.78125 
Q 43.3125 58.59375 39.234375 62.25 
Q 35.15625 65.921875 28.609375 65.921875 
Q 23.96875 65.921875 18.8125 64.3125 
Q 13.671875 62.703125 7.8125 59.421875 
L 7.8125 69.390625 
Q 13.765625 71.78125 18.9375 73 
Q 24.125 74.21875 28.421875 74.21875 
Q 39.75 74.21875 46.484375 68.546875 
Q 53.21875 62.890625 53.21875 53.421875 
Q 53.21875 48.921875 51.53125 44.890625 
Q 49.859375 40.875 45.40625 35.40625 
Q 44.1875 33.984375 37.640625 27.21875 
Q 31.109375 20.453125 19.1875 8.296875 
z
" id="DejaVuSans-32"/>
      </defs>
      <g transform="translate(195.930256 408.198437)scale(0.1 -0.1)">
       <use xlink:href="#DejaVuSans-30"/>
       <use x="63.623047" xlink:href="#DejaVuSans-2e"/>
       <use x="95.410156" xlink:href="#DejaVuSans-32"/>
      </g>
     </g>
    </g>
    <g id="xtick_3">
     <g id="line2d_3">
      <g>
       <use style="stroke:#000000;stroke-width:0.8;" x="322.187273" xlink:href="#meef4d5e6be" y="393.6"/>
      </g>
     </g>
     <g id="text_3">
      <!-- 0.4 -->
      <defs>
       <path d="M 37.796875 64.3125 
L 12.890625 25.390625 
L 37.796875 25.390625 
z
M 35.203125 72.90625 
L 47.609375 72.90625 
L 47.609375 25.390625 
L 58.015625 25.390625 
L 58.015625 17.1875 
L 47.609375 17.1875 
L 47.609375 0 
L 37.796875 0 
L 37.796875 17.1875 
L 4.890625 17.1875 
L 4.890625 26.703125 
z
" id="DejaVuSans-34"/>
      </defs>
      <g transform="translate(314.23571 408.198437)scale(0.1 -0.1)">
       <use xlink:href="#DejaVuSans-30"/>
       <use x="63.623047" xlink:href="#DejaVuSans-2e"/>
       <use x="95.410156" xlink:href="#DejaVuSans-34"/>
      </g>
     </g>
    </g>
    <g id="xtick_4">
     <g id="line2d_4">
      <g>
       <use style="stroke:#000000;stroke-width:0.8;" x="440.492727" xlink:href="#meef4d5e6be" y="393.6"/>
      </g>
     </g>
     <g id="text_4">
      <!-- 0.6 -->
      <defs>
       <path d="M 33.015625 40.375 
Q 26.375 40.375 22.484375 35.828125 
Q 18.609375 31.296875 18.609375 23.390625 
Q 18.609375 15.53125 22.484375 10.953125 
Q 26.375 6.390625 33.015625 6.390625 
Q 39.65625 6.390625 43.53125 10.953125 
Q 47.40625 15.53125 47.40625 23.390625 
Q 47.40625 31.296875 43.53125 35.828125 
Q 39.65625 40.375 33.015625 40.375 
z
M 52.59375 71.296875 
L 52.59375 62.3125 
Q 48.875 64.0625 45.09375 64.984375 
Q 41.3125 65.921875 37.59375 65.921875 
Q 27.828125 65.921875 22.671875 59.328125 
Q 17.53125 52.734375 16.796875 39.40625 
Q 19.671875 43.65625 24.015625 45.921875 
Q 28.375 48.1875 33.59375 48.1875 
Q 44.578125 48.1875 50.953125 41.515625 
Q 57.328125 34.859375 57.328125 23.390625 
Q 57.328125 12.15625 50.6875 5.359375 
Q 44.046875 -1.421875 33.015625 -1.421875 
Q 20.359375 -1.421875 13.671875 8.265625 
Q 6.984375 17.96875 6.984375 36.375 
Q 6.984375 53.65625 15.1875 63.9375 
Q 23.390625 74.21875 37.203125 74.21875 
Q 40.921875 74.21875 44.703125 73.484375 
Q 48.484375 72.75 52.59375 71.296875 
z
" id="DejaVuSans-36"/>
      </defs>
      <g transform="translate(432.541165 408.198437)scale(0.1 -0.1)">
       <use xlink:href="#DejaVuSans-30"/>
       <use x="63.623047" xlink:href="#DejaVuSans-2e"/>
       <use x="95.410156" xlink:href="#DejaVuSans-36"/>
      </g>
     </g>
    </g>
    <g id="xtick_5">
     <g id="line2d_5">
      <g>
       <use style="stroke:#000000;stroke-width:0.8;" x="558.798182" xlink:href="#meef4d5e6be" y="393.6"/>
      </g>
     </g>
     <g id="text_5">
      <!-- 0.8 -->
      <defs>
       <path d="M 31.78125 34.625 
Q 24.75 34.625 20.71875 30.859375 
Q 16.703125 27.09375 16.703125 20.515625 
Q 16.703125 13.921875 20.71875 10.15625 
Q 24.75 6.390625 31.78125 6.390625 
Q 38.8125 6.390625 42.859375 10.171875 
Q 46.921875 13.96875 46.921875 20.515625 
Q 46.921875 27.09375 42.890625 30.859375 
Q 38.875 34.625 31.78125 34.625 
z
M 21.921875 38.8125 
Q 15.578125 40.375 12.03125 44.71875 
Q 8.5 49.078125 8.5 55.328125 
Q 8.5 64.0625 14.71875 69.140625 
Q 20.953125 74.21875 31.78125 74.21875 
Q 42.671875 74.21875 48.875 69.140625 
Q 55.078125 64.0625 55.078125 55.328125 
Q 55.078125 49.078125 51.53125 44.71875 
Q 48 40.375 41.703125 38.8125 
Q 48.828125 37.15625 52.796875 32.3125 
Q 56.78125 27.484375 56.78125 20.515625 
Q 56.78125 9.90625 50.3125 4.234375 
Q 43.84375 -1.421875 31.78125 -1.421875 
Q 19.734375 -1.421875 13.25 4.234375 
Q 6.78125 9.90625 6.78125 20.515625 
Q 6.78125 27.484375 10.78125 32.3125 
Q 14.796875 37.15625 21.921875 38.8125 
z
M 18.3125 54.390625 
Q 18.3125 48.734375 21.84375 45.5625 
Q 25.390625 42.390625 31.78125 42.390625 
Q 38.140625 42.390625 41.71875 45.5625 
Q 45.3125 48.734375 45.3125 54.390625 
Q 45.3125 60.0625 41.71875 63.234375 
Q 38.140625 66.40625 31.78125 66.40625 
Q 25.390625 66.40625 21.84375 63.234375 
Q 18.3125 60.0625 18.3125 54.390625 
z
" id="DejaVuSans-38"/>
      </defs>
      <g transform="translate(550.846619 408.198437)scale(0.1 -0.1)">
       <use xlink:href="#DejaVuSans-30"/>
       <use x="63.623047" xlink:href="#DejaVuSans-2e"/>
       <use x="95.410156" xlink:href="#DejaVuSans-38"/>
      </g>
     </g>
    </g>
    <g id="xtick_6">
     <g id="line2d_6">
      <g>
       <use style="stroke:#000000;stroke-width:0.8;" x="677.103636" xlink:href="#meef4d5e6be" y="393.6"/>
      </g>
     </g>
     <g id="text_6">
      <!-- 1.0 -->
      <defs>
       <path d="M 12.40625 8.296875 
L 28.515625 8.296875 
L 28.515625 63.921875 
L 10.984375 60.40625 
L 10.984375 69.390625 
L 28.421875 72.90625 
L 38.28125 72.90625 
L 38.28125 8.296875 
L 54.390625 8.296875 
L 54.390625 0 
L 12.40625 0 
z
" id="DejaVuSans-31"/>
      </defs>
      <g transform="translate(669.152074 408.198437)scale(0.1 -0.1)">
       <use xlink:href="#DejaVuSans-31"/>
       <use x="63.623047" xlink:href="#DejaVuSans-2e"/>
       <use x="95.410156" xlink:href="#DejaVuSans-30"/>
      </g>
     </g>
    </g>
   </g>
   <g id="matplotlib.axis_2">
    <g id="ytick_1">
     <g id="line2d_7">
      <defs>
       <path d="M 0 0 
L -3.5 0 
" id="m2c90741ea2" style="stroke:#000000;stroke-width:0.8;"/>
      </defs>
      <g>
       <use style="stroke:#000000;stroke-width:0.8;" x="56" xlink:href="#m2c90741ea2" y="383.177956"/>
      </g>
     </g>
     <g id="text_7">
      <!-- 0.0 -->
      <g transform="translate(33.096875 386.977175)scale(0.1 -0.1)">
       <use xlink:href="#DejaVuSans-30"/>
       <use x="63.623047" xlink:href="#DejaVuSans-2e"/>
       <use x="95.410156" xlink:href="#DejaVuSans-30"/>
      </g>
     </g>
    </g>
    <g id="ytick_2">
     <g id="line2d_8">
      <g>
       <use style="stroke:#000000;stroke-width:0.8;" x="56" xlink:href="#m2c90741ea2" y="328.826982"/>
      </g>
     </g>
     <g id="text_8">
      <!-- 0.2 -->
      <g transform="translate(33.096875 332.6262)scale(0.1 -0.1)">
       <use xlink:href="#DejaVuSans-30"/>
       <use x="63.623047" xlink:href="#DejaVuSans-2e"/>
       <use x="95.410156" xlink:href="#DejaVuSans-32"/>
      </g>
     </g>
    </g>
    <g id="ytick_3">
     <g id="line2d_9">
      <g>
       <use style="stroke:#000000;stroke-width:0.8;" x="56" xlink:href="#m2c90741ea2" y="274.476007"/>
      </g>
     </g>
     <g id="text_9">
      <!-- 0.4 -->
      <g transform="translate(33.096875 278.275226)scale(0.1 -0.1)">
       <use xlink:href="#DejaVuSans-30"/>
       <use x="63.623047" xlink:href="#DejaVuSans-2e"/>
       <use x="95.410156" xlink:href="#DejaVuSans-34"/>
      </g>
     </g>
    </g>
    <g id="ytick_4">
     <g id="line2d_10">
      <g>
       <use style="stroke:#000000;stroke-width:0.8;" x="56" xlink:href="#m2c90741ea2" y="220.125033"/>
      </g>
     </g>
     <g id="text_10">
      <!-- 0.6 -->
      <g transform="translate(33.096875 223.924252)scale(0.1 -0.1)">
       <use xlink:href="#DejaVuSans-30"/>
       <use x="63.623047" xlink:href="#DejaVuSans-2e"/>
       <use x="95.410156" xlink:href="#DejaVuSans-36"/>
      </g>
     </g>
    </g>
    <g id="ytick_5">
     <g id="line2d_11">
      <g>
       <use style="stroke:#000000;stroke-width:0.8;" x="56" xlink:href="#m2c90741ea2" y="165.774059"/>
      </g>
     </g>
     <g id="text_11">
      <!-- 0.8 -->
      <g transform="translate(33.096875 169.573277)scale(0.1 -0.1)">
       <use xlink:href="#DejaVuSans-30"/>
       <use x="63.623047" xlink:href="#DejaVuSans-2e"/>
       <use x="95.410156" xlink:href="#DejaVuSans-38"/>
      </g>
     </g>
    </g>
    <g id="ytick_6">
     <g id="line2d_12">
      <g>
       <use style="stroke:#000000;stroke-width:0.8;" x="56" xlink:href="#m2c90741ea2" y="111.423084"/>
      </g>
     </g>
     <g id="text_12">
      <!-- 1.0 -->
      <g transform="translate(33.096875 115.222303)scale(0.1 -0.1)">
       <use xlink:href="#DejaVuSans-31"/>
       <use x="63.623047" xlink:href="#DejaVuSans-2e"/>
       <use x="95.410156" xlink:href="#DejaVuSans-30"/>
      </g>
     </g>
    </g>
   </g>
   <g id="line2d_13">
    <path clip-path="url(#pe189621116)" d="M 85.576364 249.046002 
L 88.57904 246.106158 
L 91.581717 251.434727 
L 94.584393 251.985846 
L 97.58707 264.296613 
L 100.589746 275.137459 
L 103.592423 283.589579 
L 106.595099 281.752244 
L 109.597776 277.70989 
L 112.600452 282.303363 
L 115.603129 285.794598 
L 118.605805 293.144208 
L 121.608482 296.451465 
L 124.611158 308.027407 
L 127.613835 320.521881 
L 133.619188 335.772493 
L 136.621864 340.365965 
L 139.624541 352.30932 
L 142.627217 357.637781 
L 145.629894 359.291464 
L 148.63257 361.312613 
L 151.635247 359.842691 
L 154.637923 359.291464 
L 157.6406 359.291464 
L 160.643276 362.231335 
L 163.645953 367.376117 
L 166.648629 368.846066 
L 169.651306 369.764761 
L 172.653982 372.520899 
L 175.656659 372.520899 
L 178.659335 373.43962 
L 181.662012 371.23471 
L 184.664689 370.132255 
L 187.667365 371.785938 
L 190.670042 371.602204 
L 193.672718 372.704632 
L 196.675395 372.888393 
L 199.678071 373.990848 
L 202.680748 372.520899 
L 205.683424 370.315988 
L 208.686101 367.376117 
L 211.688777 363.33379 
L 214.691454 352.860439 
L 217.69413 340.182259 
L 220.696807 329.52512 
L 223.699483 319.603078 
L 226.70216 305.087563 
L 229.704836 291.306874 
L 232.707513 279.363519 
L 235.710189 269.25777 
L 238.712866 261.356769 
L 241.715542 252.720943 
L 244.718219 248.494883 
L 247.720895 244.819942 
L 250.723572 241.512685 
L 256.728925 231.406937 
L 259.731601 227.915702 
L 262.734278 224.608445 
L 265.736954 226.44578 
L 268.739631 223.689642 
L 271.742307 224.792151 
L 274.744984 231.406937 
L 277.74766 237.286625 
L 280.750337 244.268823 
L 283.753013 244.636235 
L 286.75569 252.169824 
L 289.758366 263.378082 
L 292.761043 265.215417 
L 295.763719 266.501632 
L 298.766396 271.646496 
L 301.769072 276.239968 
L 304.771749 286.713129 
L 310.777102 297.553975 
L 313.779778 304.16876 
L 316.782455 306.741192 
L 319.785132 313.355977 
L 322.787808 318.316862 
L 325.790485 324.380529 
L 328.793161 327.871492 
L 331.795838 334.302571 
L 334.798514 335.956199 
L 340.803867 334.85369 
L 343.806544 336.139905 
L 346.80922 335.956199 
L 349.811897 332.464964 
L 355.81725 342.938397 
L 358.819926 345.878241 
L 361.822603 347.53187 
L 364.825279 355.432871 
L 367.827956 360.761386 
L 370.830632 362.231335 
L 373.833309 363.150057 
L 376.835985 362.415069 
L 379.838662 363.885018 
L 382.841338 363.701284 
L 385.844015 364.987473 
L 388.846691 368.111078 
L 394.852044 373.25586 
L 397.854721 375.093303 
L 400.857397 377.298213 
L 403.860074 378.033174 
L 406.86275 377.481947 
L 409.865427 376.563225 
L 412.868103 378.033174 
L 415.87078 378.216908 
L 418.873456 376.011998 
L 421.876133 373.990848 
L 424.878809 372.153404 
L 427.881486 368.662305 
L 430.884162 363.701284 
L 433.886839 356.535326 
L 436.889515 352.125614 
L 439.892192 341.835887 
L 442.894868 334.302571 
L 445.897545 328.790295 
L 448.900222 321.624391 
L 451.902898 313.907096 
L 454.905575 307.659995 
L 457.908251 306.741192 
L 460.910928 297.921659 
L 463.913604 290.571777 
L 466.916281 288.918148 
L 469.918957 284.875795 
L 472.921634 279.179812 
L 475.92431 266.685339 
L 478.926987 272.197615 
L 481.929663 273.851243 
L 484.93234 270.176302 
L 487.935016 265.215417 
L 490.937693 270.543986 
L 493.940369 284.875795 
L 496.943046 273.667537 
L 499.945722 268.522673 
L 502.948399 272.748733 
L 505.951075 282.119657 
L 508.953752 273.667537 
L 511.956428 267.787848 
L 514.959105 280.649735 
L 517.961781 290.755483 
L 520.964458 290.204364 
L 523.967134 288.367029 
L 526.969811 287.815639 
L 529.972487 293.327915 
L 532.975164 290.38807 
L 535.97784 285.610892 
L 538.980517 290.204364 
L 541.983193 297.921659 
L 544.98587 308.39482 
L 547.988546 303.617641 
L 550.991223 308.39482 
L 553.993899 318.133156 
L 563.001929 332.281258 
L 566.004605 345.327122 
L 569.007282 354.330361 
L 572.009958 357.45402 
L 575.012635 359.658931 
L 578.015311 362.598829 
L 581.017988 369.397294 
L 584.020665 372.520899 
L 587.023341 373.807087 
L 590.026018 375.828264 
L 593.028694 377.481947 
L 596.031371 377.66568 
L 599.034047 376.930719 
L 602.036724 376.930719 
L 605.0394 376.011998 
L 608.042077 376.746986 
L 611.044753 378.033174 
L 614.04743 378.584402 
L 617.050106 379.870591 
L 620.052783 380.421818 
L 623.055459 380.421818 
L 626.058136 378.768135 
L 629.060812 376.011998 
L 632.063489 373.990848 
L 635.066165 371.23471 
L 638.068842 367.008623 
L 641.071518 359.475197 
L 647.076871 338.528631 
L 650.079548 319.235665 
L 653.082224 305.454976 
L 656.084901 297.002856 
L 659.087577 291.674286 
L 662.090254 284.140969 
L 665.09293 275.504871 
L 668.095607 281.017147 
L 671.098283 284.508382 
L 674.10096 279.730931 
L 677.103636 272.565027 
L 677.103636 272.565027 
" style="fill:none;stroke:#1f77b4;stroke-linecap:square;stroke-width:1.5;"/>
   </g>
   <g id="line2d_14">
    <path clip-path="url(#pe189621116)" d="M 85.576364 175.547508 
L 88.57904 173.885513 
L 91.581717 172.904334 
L 94.584393 172.67792 
L 100.589746 174.183263 
L 103.592423 176.151448 
L 106.595099 177.670986 
L 109.597776 178.684847 
L 115.603129 177.954005 
L 121.608482 179.512269 
L 124.611158 180.785977 
L 127.613835 181.576247 
L 133.619188 185.294712 
L 139.624541 187.472827 
L 142.627217 188.13834 
L 145.629894 189.699322 
L 148.63257 190.330008 
L 154.637923 190.729058 
L 157.6406 190.532 
L 163.645953 190.573264 
L 166.648629 191.033388 
L 169.651306 191.688425 
L 178.659335 192.322221 
L 184.664689 192.397884 
L 187.667365 192.113685 
L 190.670042 192.015138 
L 193.672718 192.211124 
L 196.675395 192.209228 
L 202.680748 192.364915 
L 205.683424 192.472652 
L 211.688777 191.945912 
L 214.691454 191.452177 
L 217.69413 190.744934 
L 220.696807 189.139793 
L 226.70216 185.695157 
L 229.704836 184.014353 
L 232.707513 181.537665 
L 235.710189 179.406713 
L 238.712866 177.451866 
L 241.715542 175.688249 
L 244.718219 174.490739 
L 247.720895 173.140618 
L 250.723572 172.632329 
L 262.734278 170.042791 
L 268.739631 169.239398 
L 271.742307 169.403095 
L 274.744984 169.272652 
L 277.74766 169.718152 
L 283.753013 171.429456 
L 286.75569 172.323673 
L 289.758366 172.758981 
L 292.761043 173.987778 
L 295.763719 175.413991 
L 301.769072 176.055225 
L 307.774425 178.011431 
L 310.777102 179.569981 
L 313.779778 180.589455 
L 316.782455 181.460179 
L 319.785132 182.479474 
L 322.787808 182.956547 
L 325.790485 183.985747 
L 331.795838 185.683321 
L 334.798514 186.215567 
L 337.801191 187.024646 
L 340.803867 187.184803 
L 343.806544 187.201573 
L 346.80922 187.102919 
L 352.814573 187.11926 
L 355.81725 186.946016 
L 358.819926 187.705571 
L 364.825279 188.720289 
L 367.827956 189.121986 
L 370.830632 190.101662 
L 373.833309 190.724982 
L 379.838662 191.099146 
L 382.841338 191.011755 
L 385.844015 191.185106 
L 388.846691 191.207919 
L 391.849368 191.40512 
L 397.854721 192.149228 
L 403.860074 192.67325 
L 406.86275 192.921333 
L 412.868103 192.950797 
L 415.87078 192.828472 
L 418.873456 192.981513 
L 421.876133 192.98187 
L 430.884162 192.151588 
L 436.889515 191.00135 
L 439.892192 189.85744 
L 442.894868 189.13754 
L 445.897545 187.696202 
L 454.905575 184.6361 
L 457.908251 183.512393 
L 460.910928 182.639917 
L 463.913604 182.209722 
L 466.916281 180.735344 
L 469.918957 179.841664 
L 472.921634 179.438788 
L 478.926987 177.436884 
L 481.929663 176.08308 
L 484.93234 176.93639 
L 487.935016 176.760107 
L 490.937693 176.213236 
L 493.940369 176.135107 
L 496.943046 177.176214 
L 499.945722 178.435583 
L 502.948399 176.647686 
L 505.951075 176.535766 
L 511.956428 178.038606 
L 514.959105 176.815137 
L 517.961781 176.808022 
L 520.964458 178.859735 
L 523.967134 180.003358 
L 529.972487 179.559754 
L 532.975164 179.737754 
L 535.97784 180.22466 
L 538.980517 179.738683 
L 541.983193 179.399669 
L 544.98587 180.470634 
L 547.988546 181.709478 
L 550.991223 182.773291 
L 553.993899 182.430237 
L 556.996576 183.343405 
L 559.999252 184.717841 
L 566.004605 186.285795 
L 569.007282 187.112645 
L 572.009958 188.873795 
L 575.012635 189.908466 
L 584.020665 191.140695 
L 587.023341 192.007915 
L 590.026018 192.329265 
L 599.034047 192.916506 
L 602.036724 192.971715 
L 608.042077 192.864301 
L 611.044753 192.774693 
L 629.060812 193.262851 
L 635.066165 192.666384 
L 638.068842 192.414654 
L 641.071518 192.014745 
L 644.074195 191.358135 
L 647.076871 190.20425 
L 650.079548 188.596462 
L 653.082224 186.851474 
L 656.084901 183.924209 
L 659.087577 181.941936 
L 662.090254 180.723115 
L 671.098283 177.60387 
L 674.10096 178.466692 
L 677.103636 178.612617 
L 677.103636 178.612617 
" style="fill:none;stroke:#ff7f0e;stroke-linecap:square;stroke-width:1.5;"/>
   </g>
   <g id="line2d_15">
    <path clip-path="url(#pe189621116)" d="M 85.576364 274.476007 
L 88.57904 271.758459 
L 97.58707 271.758459 
L 103.592423 277.193556 
L 106.595099 282.628654 
L 109.597776 285.346202 
L 112.600452 282.628654 
L 124.611158 293.498848 
L 127.613835 298.933946 
L 130.616511 307.086592 
L 136.621864 317.956787 
L 142.627217 323.391884 
L 145.629894 328.826982 
L 151.635247 328.826982 
L 154.637923 331.54453 
L 157.6406 328.826982 
L 160.643276 328.826982 
L 163.645953 331.54453 
L 166.648629 331.54453 
L 169.651306 334.262079 
L 211.688777 334.262079 
L 217.69413 328.826982 
L 226.70216 312.521689 
L 238.712866 279.911105 
L 247.720895 271.758459 
L 250.723572 271.758459 
L 253.726248 269.04091 
L 259.731601 269.04091 
L 262.734278 266.323361 
L 277.74766 266.323361 
L 280.750337 269.04091 
L 286.75569 269.04091 
L 292.761043 274.476007 
L 295.763719 274.476007 
L 298.766396 277.193556 
L 301.769072 277.193556 
L 304.771749 279.911105 
L 310.777102 290.7813 
L 316.782455 296.216397 
L 319.785132 301.651495 
L 328.793161 309.804141 
L 331.795838 315.239238 
L 334.798514 317.956787 
L 355.81725 317.956787 
L 361.822603 323.391884 
L 364.825279 323.391884 
L 373.833309 331.54453 
L 391.849368 331.54453 
L 394.852044 334.262079 
L 400.857397 334.262079 
L 403.860074 336.979628 
L 421.876133 336.979628 
L 424.878809 334.262079 
L 430.884162 334.262079 
L 448.900222 317.956787 
L 451.902898 312.521689 
L 454.905575 309.804141 
L 457.908251 304.369043 
L 463.913604 298.933946 
L 466.916281 293.498848 
L 475.92431 285.346202 
L 478.926987 279.911105 
L 481.929663 277.193556 
L 484.93234 279.911105 
L 487.935016 277.193556 
L 493.940369 277.193556 
L 496.943046 282.628654 
L 499.945722 282.628654 
L 502.948399 277.193556 
L 505.951075 277.193556 
L 508.953752 282.628654 
L 511.956428 282.628654 
L 514.959105 277.193556 
L 517.961781 279.911105 
L 520.964458 288.063751 
L 523.967134 290.7813 
L 532.975164 290.7813 
L 535.97784 293.498848 
L 538.980517 290.7813 
L 541.983193 290.7813 
L 544.98587 293.498848 
L 547.988546 298.933946 
L 550.991223 301.651495 
L 553.993899 301.651495 
L 556.996576 304.369043 
L 559.999252 309.804141 
L 566.004605 315.239238 
L 572.009958 326.109433 
L 575.012635 328.826982 
L 578.015311 328.826982 
L 581.017988 331.54453 
L 584.020665 331.54453 
L 587.023341 334.262079 
L 593.028694 334.262079 
L 596.031371 336.979628 
L 632.063489 336.979628 
L 635.066165 334.262079 
L 641.071518 334.262079 
L 647.076871 328.826982 
L 650.079548 323.391884 
L 653.082224 315.239238 
L 656.084901 304.369043 
L 659.087577 296.216397 
L 665.09293 290.7813 
L 668.095607 282.628654 
L 671.098283 282.628654 
L 674.10096 285.346202 
L 677.103636 285.346202 
L 677.103636 285.346202 
" style="fill:none;stroke:#2ca02c;stroke-linecap:square;stroke-width:1.5;"/>
   </g>
   <g id="line2d_16">
    <path clip-path="url(#pe189621116)" d="M 85.576364 119.575731 
L 136.621864 119.575731 
L 139.624541 122.293279 
L 223.699483 122.293279 
L 226.70216 119.575731 
L 262.734278 119.575731 
L 265.736954 116.858182 
L 280.750337 116.858182 
L 283.753013 119.575731 
L 355.81725 119.575731 
L 358.819926 122.293279 
L 445.897545 122.293279 
L 448.900222 119.575731 
L 569.007282 119.575731 
L 572.009958 122.293279 
L 653.082224 122.293279 
L 656.084901 119.575731 
L 677.103636 119.575731 
L 677.103636 119.575731 
" style="fill:none;stroke:#d62728;stroke-linecap:square;stroke-width:1.5;"/>
   </g>
   <g id="patch_3">
    <path d="M 56 393.6 
L 56 103.68 
" style="fill:none;stroke:#000000;stroke-linecap:square;stroke-linejoin:miter;stroke-width:0.8;"/>
   </g>
   <g id="patch_4">
    <path d="M 706.68 393.6 
L 706.68 103.68 
" style="fill:none;stroke:#000000;stroke-linecap:square;stroke-linejoin:miter;stroke-width:0.8;"/>
   </g>
   <g id="patch_5">
    <path d="M 56 393.6 
L 706.68 393.6 
" style="fill:none;stroke:#000000;stroke-linecap:square;stroke-linejoin:miter;stroke-width:0.8;"/>
   </g>
   <g id="patch_6">
    <path d="M 56 103.68 
L 706.68 103.68 
" style="fill:none;stroke:#000000;stroke-linecap:square;stroke-linejoin:miter;stroke-width:0.8;"/>
   </g>
   <g id="text_13">
    <!-- Plot of Test Data vs MCMC Uncertainty  -->
    <defs>
     <path d="M 19.671875 64.796875 
L 19.671875 37.40625 
L 32.078125 37.40625 
Q 38.96875 37.40625 42.71875 40.96875 
Q 46.484375 44.53125 46.484375 51.125 
Q 46.484375 57.671875 42.71875 61.234375 
Q 38.96875 64.796875 32.078125 64.796875 
z
M 9.8125 72.90625 
L 32.078125 72.90625 
Q 44.34375 72.90625 50.609375 67.359375 
Q 56.890625 61.8125 56.890625 51.125 
Q 56.890625 40.328125 50.609375 34.8125 
Q 44.34375 29.296875 32.078125 29.296875 
L 19.671875 29.296875 
L 19.671875 0 
L 9.8125 0 
z
" id="DejaVuSans-50"/>
     <path d="M 9.421875 75.984375 
L 18.40625 75.984375 
L 18.40625 0 
L 9.421875 0 
z
" id="DejaVuSans-6c"/>
     <path d="M 30.609375 48.390625 
Q 23.390625 48.390625 19.1875 42.75 
Q 14.984375 37.109375 14.984375 27.296875 
Q 14.984375 17.484375 19.15625 11.84375 
Q 23.34375 6.203125 30.609375 6.203125 
Q 37.796875 6.203125 41.984375 11.859375 
Q 46.1875 17.53125 46.1875 27.296875 
Q 46.1875 37.015625 41.984375 42.703125 
Q 37.796875 48.390625 30.609375 48.390625 
z
M 30.609375 56 
Q 42.328125 56 49.015625 48.375 
Q 55.71875 40.765625 55.71875 27.296875 
Q 55.71875 13.875 49.015625 6.21875 
Q 42.328125 -1.421875 30.609375 -1.421875 
Q 18.84375 -1.421875 12.171875 6.21875 
Q 5.515625 13.875 5.515625 27.296875 
Q 5.515625 40.765625 12.171875 48.375 
Q 18.84375 56 30.609375 56 
z
" id="DejaVuSans-6f"/>
     <path d="M 18.3125 70.21875 
L 18.3125 54.6875 
L 36.8125 54.6875 
L 36.8125 47.703125 
L 18.3125 47.703125 
L 18.3125 18.015625 
Q 18.3125 11.328125 20.140625 9.421875 
Q 21.96875 7.515625 27.59375 7.515625 
L 36.8125 7.515625 
L 36.8125 0 
L 27.59375 0 
Q 17.1875 0 13.234375 3.875 
Q 9.28125 7.765625 9.28125 18.015625 
L 9.28125 47.703125 
L 2.6875 47.703125 
L 2.6875 54.6875 
L 9.28125 54.6875 
L 9.28125 70.21875 
z
" id="DejaVuSans-74"/>
     <path id="DejaVuSans-20"/>
     <path d="M 37.109375 75.984375 
L 37.109375 68.5 
L 28.515625 68.5 
Q 23.6875 68.5 21.796875 66.546875 
Q 19.921875 64.59375 19.921875 59.515625 
L 19.921875 54.6875 
L 34.71875 54.6875 
L 34.71875 47.703125 
L 19.921875 47.703125 
L 19.921875 0 
L 10.890625 0 
L 10.890625 47.703125 
L 2.296875 47.703125 
L 2.296875 54.6875 
L 10.890625 54.6875 
L 10.890625 58.5 
Q 10.890625 67.625 15.140625 71.796875 
Q 19.390625 75.984375 28.609375 75.984375 
z
" id="DejaVuSans-66"/>
     <path d="M -0.296875 72.90625 
L 61.375 72.90625 
L 61.375 64.59375 
L 35.5 64.59375 
L 35.5 0 
L 25.59375 0 
L 25.59375 64.59375 
L -0.296875 64.59375 
z
" id="DejaVuSans-54"/>
     <path d="M 56.203125 29.59375 
L 56.203125 25.203125 
L 14.890625 25.203125 
Q 15.484375 15.921875 20.484375 11.0625 
Q 25.484375 6.203125 34.421875 6.203125 
Q 39.59375 6.203125 44.453125 7.46875 
Q 49.3125 8.734375 54.109375 11.28125 
L 54.109375 2.78125 
Q 49.265625 0.734375 44.1875 -0.34375 
Q 39.109375 -1.421875 33.890625 -1.421875 
Q 20.796875 -1.421875 13.15625 6.1875 
Q 5.515625 13.8125 5.515625 26.8125 
Q 5.515625 40.234375 12.765625 48.109375 
Q 20.015625 56 32.328125 56 
Q 43.359375 56 49.78125 48.890625 
Q 56.203125 41.796875 56.203125 29.59375 
z
M 47.21875 32.234375 
Q 47.125 39.59375 43.09375 43.984375 
Q 39.0625 48.390625 32.421875 48.390625 
Q 24.90625 48.390625 20.390625 44.140625 
Q 15.875 39.890625 15.1875 32.171875 
z
" id="DejaVuSans-65"/>
     <path d="M 44.28125 53.078125 
L 44.28125 44.578125 
Q 40.484375 46.53125 36.375 47.5 
Q 32.28125 48.484375 27.875 48.484375 
Q 21.1875 48.484375 17.84375 46.4375 
Q 14.5 44.390625 14.5 40.28125 
Q 14.5 37.15625 16.890625 35.375 
Q 19.28125 33.59375 26.515625 31.984375 
L 29.59375 31.296875 
Q 39.15625 29.25 43.1875 25.515625 
Q 47.21875 21.78125 47.21875 15.09375 
Q 47.21875 7.46875 41.1875 3.015625 
Q 35.15625 -1.421875 24.609375 -1.421875 
Q 20.21875 -1.421875 15.453125 -0.5625 
Q 10.6875 0.296875 5.421875 2 
L 5.421875 11.28125 
Q 10.40625 8.6875 15.234375 7.390625 
Q 20.0625 6.109375 24.8125 6.109375 
Q 31.15625 6.109375 34.5625 8.28125 
Q 37.984375 10.453125 37.984375 14.40625 
Q 37.984375 18.0625 35.515625 20.015625 
Q 33.0625 21.96875 24.703125 23.78125 
L 21.578125 24.515625 
Q 13.234375 26.265625 9.515625 29.90625 
Q 5.8125 33.546875 5.8125 39.890625 
Q 5.8125 47.609375 11.28125 51.796875 
Q 16.75 56 26.8125 56 
Q 31.78125 56 36.171875 55.265625 
Q 40.578125 54.546875 44.28125 53.078125 
z
" id="DejaVuSans-73"/>
     <path d="M 19.671875 64.796875 
L 19.671875 8.109375 
L 31.59375 8.109375 
Q 46.6875 8.109375 53.6875 14.9375 
Q 60.6875 21.78125 60.6875 36.53125 
Q 60.6875 51.171875 53.6875 57.984375 
Q 46.6875 64.796875 31.59375 64.796875 
z
M 9.8125 72.90625 
L 30.078125 72.90625 
Q 51.265625 72.90625 61.171875 64.09375 
Q 71.09375 55.28125 71.09375 36.53125 
Q 71.09375 17.671875 61.125 8.828125 
Q 51.171875 0 30.078125 0 
L 9.8125 0 
z
" id="DejaVuSans-44"/>
     <path d="M 34.28125 27.484375 
Q 23.390625 27.484375 19.1875 25 
Q 14.984375 22.515625 14.984375 16.5 
Q 14.984375 11.71875 18.140625 8.90625 
Q 21.296875 6.109375 26.703125 6.109375 
Q 34.1875 6.109375 38.703125 11.40625 
Q 43.21875 16.703125 43.21875 25.484375 
L 43.21875 27.484375 
z
M 52.203125 31.203125 
L 52.203125 0 
L 43.21875 0 
L 43.21875 8.296875 
Q 40.140625 3.328125 35.546875 0.953125 
Q 30.953125 -1.421875 24.3125 -1.421875 
Q 15.921875 -1.421875 10.953125 3.296875 
Q 6 8.015625 6 15.921875 
Q 6 25.140625 12.171875 29.828125 
Q 18.359375 34.515625 30.609375 34.515625 
L 43.21875 34.515625 
L 43.21875 35.40625 
Q 43.21875 41.609375 39.140625 45 
Q 35.0625 48.390625 27.6875 48.390625 
Q 23 48.390625 18.546875 47.265625 
Q 14.109375 46.140625 10.015625 43.890625 
L 10.015625 52.203125 
Q 14.9375 54.109375 19.578125 55.046875 
Q 24.21875 56 28.609375 56 
Q 40.484375 56 46.34375 49.84375 
Q 52.203125 43.703125 52.203125 31.203125 
z
" id="DejaVuSans-61"/>
     <path d="M 2.984375 54.6875 
L 12.5 54.6875 
L 29.59375 8.796875 
L 46.6875 54.6875 
L 56.203125 54.6875 
L 35.6875 0 
L 23.484375 0 
z
" id="DejaVuSans-76"/>
     <path d="M 9.8125 72.90625 
L 24.515625 72.90625 
L 43.109375 23.296875 
L 61.8125 72.90625 
L 76.515625 72.90625 
L 76.515625 0 
L 66.890625 0 
L 66.890625 64.015625 
L 48.09375 14.015625 
L 38.1875 14.015625 
L 19.390625 64.015625 
L 19.390625 0 
L 9.8125 0 
z
" id="DejaVuSans-4d"/>
     <path d="M 64.40625 67.28125 
L 64.40625 56.890625 
Q 59.421875 61.53125 53.78125 63.8125 
Q 48.140625 66.109375 41.796875 66.109375 
Q 29.296875 66.109375 22.65625 58.46875 
Q 16.015625 50.828125 16.015625 36.375 
Q 16.015625 21.96875 22.65625 14.328125 
Q 29.296875 6.6875 41.796875 6.6875 
Q 48.140625 6.6875 53.78125 8.984375 
Q 59.421875 11.28125 64.40625 15.921875 
L 64.40625 5.609375 
Q 59.234375 2.09375 53.4375 0.328125 
Q 47.65625 -1.421875 41.21875 -1.421875 
Q 24.65625 -1.421875 15.125 8.703125 
Q 5.609375 18.84375 5.609375 36.375 
Q 5.609375 53.953125 15.125 64.078125 
Q 24.65625 74.21875 41.21875 74.21875 
Q 47.75 74.21875 53.53125 72.484375 
Q 59.328125 70.75 64.40625 67.28125 
z
" id="DejaVuSans-43"/>
     <path d="M 8.6875 72.90625 
L 18.609375 72.90625 
L 18.609375 28.609375 
Q 18.609375 16.890625 22.84375 11.734375 
Q 27.09375 6.59375 36.625 6.59375 
Q 46.09375 6.59375 50.34375 11.734375 
Q 54.59375 16.890625 54.59375 28.609375 
L 54.59375 72.90625 
L 64.5 72.90625 
L 64.5 27.390625 
Q 64.5 13.140625 57.4375 5.859375 
Q 50.390625 -1.421875 36.625 -1.421875 
Q 22.796875 -1.421875 15.734375 5.859375 
Q 8.6875 13.140625 8.6875 27.390625 
z
" id="DejaVuSans-55"/>
     <path d="M 54.890625 33.015625 
L 54.890625 0 
L 45.90625 0 
L 45.90625 32.71875 
Q 45.90625 40.484375 42.875 44.328125 
Q 39.84375 48.1875 33.796875 48.1875 
Q 26.515625 48.1875 22.3125 43.546875 
Q 18.109375 38.921875 18.109375 30.90625 
L 18.109375 0 
L 9.078125 0 
L 9.078125 54.6875 
L 18.109375 54.6875 
L 18.109375 46.1875 
Q 21.34375 51.125 25.703125 53.5625 
Q 30.078125 56 35.796875 56 
Q 45.21875 56 50.046875 50.171875 
Q 54.890625 44.34375 54.890625 33.015625 
z
" id="DejaVuSans-6e"/>
     <path d="M 48.78125 52.59375 
L 48.78125 44.1875 
Q 44.96875 46.296875 41.140625 47.34375 
Q 37.3125 48.390625 33.40625 48.390625 
Q 24.65625 48.390625 19.8125 42.84375 
Q 14.984375 37.3125 14.984375 27.296875 
Q 14.984375 17.28125 19.8125 11.734375 
Q 24.65625 6.203125 33.40625 6.203125 
Q 37.3125 6.203125 41.140625 7.25 
Q 44.96875 8.296875 48.78125 10.40625 
L 48.78125 2.09375 
Q 45.015625 0.34375 40.984375 -0.53125 
Q 36.96875 -1.421875 32.421875 -1.421875 
Q 20.0625 -1.421875 12.78125 6.34375 
Q 5.515625 14.109375 5.515625 27.296875 
Q 5.515625 40.671875 12.859375 48.328125 
Q 20.21875 56 33.015625 56 
Q 37.15625 56 41.109375 55.140625 
Q 45.0625 54.296875 48.78125 52.59375 
z
" id="DejaVuSans-63"/>
     <path d="M 41.109375 46.296875 
Q 39.59375 47.171875 37.8125 47.578125 
Q 36.03125 48 33.890625 48 
Q 26.265625 48 22.1875 43.046875 
Q 18.109375 38.09375 18.109375 28.8125 
L 18.109375 0 
L 9.078125 0 
L 9.078125 54.6875 
L 18.109375 54.6875 
L 18.109375 46.1875 
Q 20.953125 51.171875 25.484375 53.578125 
Q 30.03125 56 36.53125 56 
Q 37.453125 56 38.578125 55.875 
Q 39.703125 55.765625 41.0625 55.515625 
z
" id="DejaVuSans-72"/>
     <path d="M 9.421875 54.6875 
L 18.40625 54.6875 
L 18.40625 0 
L 9.421875 0 
z
M 9.421875 75.984375 
L 18.40625 75.984375 
L 18.40625 64.59375 
L 9.421875 64.59375 
z
" id="DejaVuSans-69"/>
     <path d="M 32.171875 -5.078125 
Q 28.375 -14.84375 24.75 -17.8125 
Q 21.140625 -20.796875 15.09375 -20.796875 
L 7.90625 -20.796875 
L 7.90625 -13.28125 
L 13.1875 -13.28125 
Q 16.890625 -13.28125 18.9375 -11.515625 
Q 21 -9.765625 23.484375 -3.21875 
L 25.09375 0.875 
L 2.984375 54.6875 
L 12.5 54.6875 
L 29.59375 11.921875 
L 46.6875 54.6875 
L 56.203125 54.6875 
z
" id="DejaVuSans-79"/>
    </defs>
    <g transform="translate(263.292813 97.68)scale(0.12 -0.12)">
     <use xlink:href="#DejaVuSans-50"/>
     <use x="60.302734" xlink:href="#DejaVuSans-6c"/>
     <use x="88.085938" xlink:href="#DejaVuSans-6f"/>
     <use x="149.267578" xlink:href="#DejaVuSans-74"/>
     <use x="188.476562" xlink:href="#DejaVuSans-20"/>
     <use x="220.263672" xlink:href="#DejaVuSans-6f"/>
     <use x="281.445312" xlink:href="#DejaVuSans-66"/>
     <use x="316.650391" xlink:href="#DejaVuSans-20"/>
     <use x="348.4375" xlink:href="#DejaVuSans-54"/>
     <use x="409.255859" xlink:href="#DejaVuSans-65"/>
     <use x="470.779297" xlink:href="#DejaVuSans-73"/>
     <use x="522.878906" xlink:href="#DejaVuSans-74"/>
     <use x="562.087891" xlink:href="#DejaVuSans-20"/>
     <use x="593.875" xlink:href="#DejaVuSans-44"/>
     <use x="670.876953" xlink:href="#DejaVuSans-61"/>
     <use x="732.15625" xlink:href="#DejaVuSans-74"/>
     <use x="771.365234" xlink:href="#DejaVuSans-61"/>
     <use x="832.644531" xlink:href="#DejaVuSans-20"/>
     <use x="864.431641" xlink:href="#DejaVuSans-76"/>
     <use x="923.611328" xlink:href="#DejaVuSans-73"/>
     <use x="975.710938" xlink:href="#DejaVuSans-20"/>
     <use x="1007.498047" xlink:href="#DejaVuSans-4d"/>
     <use x="1093.777344" xlink:href="#DejaVuSans-43"/>
     <use x="1163.601562" xlink:href="#DejaVuSans-4d"/>
     <use x="1249.880859" xlink:href="#DejaVuSans-43"/>
     <use x="1319.705078" xlink:href="#DejaVuSans-20"/>
     <use x="1351.492188" xlink:href="#DejaVuSans-55"/>
     <use x="1424.685547" xlink:href="#DejaVuSans-6e"/>
     <use x="1488.064453" xlink:href="#DejaVuSans-63"/>
     <use x="1543.044922" xlink:href="#DejaVuSans-65"/>
     <use x="1604.568359" xlink:href="#DejaVuSans-72"/>
     <use x="1645.681641" xlink:href="#DejaVuSans-74"/>
     <use x="1684.890625" xlink:href="#DejaVuSans-61"/>
     <use x="1746.169922" xlink:href="#DejaVuSans-69"/>
     <use x="1773.953125" xlink:href="#DejaVuSans-6e"/>
     <use x="1837.332031" xlink:href="#DejaVuSans-74"/>
     <use x="1876.541016" xlink:href="#DejaVuSans-79"/>
     <use x="1935.720703" xlink:href="#DejaVuSans-20"/>
    </g>
   </g>
   <g id="legend_1">
    <g id="patch_7">
     <path d="M 569.803438 170.3925 
L 699.68 170.3925 
Q 701.68 170.3925 701.68 168.3925 
L 701.68 110.68 
Q 701.68 108.68 699.68 108.68 
L 569.803438 108.68 
Q 567.803438 108.68 567.803438 110.68 
L 567.803438 168.3925 
Q 567.803438 170.3925 569.803438 170.3925 
z
" style="fill:#ffffff;opacity:0.8;stroke:#cccccc;stroke-linejoin:miter;"/>
    </g>
    <g id="line2d_17">
     <path d="M 571.803438 116.778437 
L 591.803438 116.778437 
" style="fill:none;stroke:#1f77b4;stroke-linecap:square;stroke-width:1.5;"/>
    </g>
    <g id="line2d_18"/>
    <g id="text_14">
     <!-- actual -->
     <defs>
      <path d="M 8.5 21.578125 
L 8.5 54.6875 
L 17.484375 54.6875 
L 17.484375 21.921875 
Q 17.484375 14.15625 20.5 10.265625 
Q 23.53125 6.390625 29.59375 6.390625 
Q 36.859375 6.390625 41.078125 11.03125 
Q 45.3125 15.671875 45.3125 23.6875 
L 45.3125 54.6875 
L 54.296875 54.6875 
L 54.296875 0 
L 45.3125 0 
L 45.3125 8.40625 
Q 42.046875 3.421875 37.71875 1 
Q 33.40625 -1.421875 27.6875 -1.421875 
Q 18.265625 -1.421875 13.375 4.4375 
Q 8.5 10.296875 8.5 21.578125 
z
M 31.109375 56 
z
" id="DejaVuSans-75"/>
     </defs>
     <g transform="translate(599.803438 120.278437)scale(0.1 -0.1)">
      <use xlink:href="#DejaVuSans-61"/>
      <use x="61.279297" xlink:href="#DejaVuSans-63"/>
      <use x="116.259766" xlink:href="#DejaVuSans-74"/>
      <use x="155.46875" xlink:href="#DejaVuSans-75"/>
      <use x="218.847656" xlink:href="#DejaVuSans-61"/>
      <use x="280.126953" xlink:href="#DejaVuSans-6c"/>
     </g>
    </g>
    <g id="line2d_19">
     <path d="M 571.803438 131.456562 
L 591.803438 131.456562 
" style="fill:none;stroke:#ff7f0e;stroke-linecap:square;stroke-width:1.5;"/>
    </g>
    <g id="line2d_20"/>
    <g id="text_15">
     <!-- pred. (mean) -->
     <defs>
      <path d="M 18.109375 8.203125 
L 18.109375 -20.796875 
L 9.078125 -20.796875 
L 9.078125 54.6875 
L 18.109375 54.6875 
L 18.109375 46.390625 
Q 20.953125 51.265625 25.265625 53.625 
Q 29.59375 56 35.59375 56 
Q 45.5625 56 51.78125 48.09375 
Q 58.015625 40.1875 58.015625 27.296875 
Q 58.015625 14.40625 51.78125 6.484375 
Q 45.5625 -1.421875 35.59375 -1.421875 
Q 29.59375 -1.421875 25.265625 0.953125 
Q 20.953125 3.328125 18.109375 8.203125 
z
M 48.6875 27.296875 
Q 48.6875 37.203125 44.609375 42.84375 
Q 40.53125 48.484375 33.40625 48.484375 
Q 26.265625 48.484375 22.1875 42.84375 
Q 18.109375 37.203125 18.109375 27.296875 
Q 18.109375 17.390625 22.1875 11.75 
Q 26.265625 6.109375 33.40625 6.109375 
Q 40.53125 6.109375 44.609375 11.75 
Q 48.6875 17.390625 48.6875 27.296875 
z
" id="DejaVuSans-70"/>
      <path d="M 45.40625 46.390625 
L 45.40625 75.984375 
L 54.390625 75.984375 
L 54.390625 0 
L 45.40625 0 
L 45.40625 8.203125 
Q 42.578125 3.328125 38.25 0.953125 
Q 33.9375 -1.421875 27.875 -1.421875 
Q 17.96875 -1.421875 11.734375 6.484375 
Q 5.515625 14.40625 5.515625 27.296875 
Q 5.515625 40.1875 11.734375 48.09375 
Q 17.96875 56 27.875 56 
Q 33.9375 56 38.25 53.625 
Q 42.578125 51.265625 45.40625 46.390625 
z
M 14.796875 27.296875 
Q 14.796875 17.390625 18.875 11.75 
Q 22.953125 6.109375 30.078125 6.109375 
Q 37.203125 6.109375 41.296875 11.75 
Q 45.40625 17.390625 45.40625 27.296875 
Q 45.40625 37.203125 41.296875 42.84375 
Q 37.203125 48.484375 30.078125 48.484375 
Q 22.953125 48.484375 18.875 42.84375 
Q 14.796875 37.203125 14.796875 27.296875 
z
" id="DejaVuSans-64"/>
      <path d="M 31 75.875 
Q 24.46875 64.65625 21.28125 53.65625 
Q 18.109375 42.671875 18.109375 31.390625 
Q 18.109375 20.125 21.3125 9.0625 
Q 24.515625 -2 31 -13.1875 
L 23.1875 -13.1875 
Q 15.875 -1.703125 12.234375 9.375 
Q 8.59375 20.453125 8.59375 31.390625 
Q 8.59375 42.28125 12.203125 53.3125 
Q 15.828125 64.359375 23.1875 75.875 
z
" id="DejaVuSans-28"/>
      <path d="M 52 44.1875 
Q 55.375 50.25 60.0625 53.125 
Q 64.75 56 71.09375 56 
Q 79.640625 56 84.28125 50.015625 
Q 88.921875 44.046875 88.921875 33.015625 
L 88.921875 0 
L 79.890625 0 
L 79.890625 32.71875 
Q 79.890625 40.578125 77.09375 44.375 
Q 74.3125 48.1875 68.609375 48.1875 
Q 61.625 48.1875 57.5625 43.546875 
Q 53.515625 38.921875 53.515625 30.90625 
L 53.515625 0 
L 44.484375 0 
L 44.484375 32.71875 
Q 44.484375 40.625 41.703125 44.40625 
Q 38.921875 48.1875 33.109375 48.1875 
Q 26.21875 48.1875 22.15625 43.53125 
Q 18.109375 38.875 18.109375 30.90625 
L 18.109375 0 
L 9.078125 0 
L 9.078125 54.6875 
L 18.109375 54.6875 
L 18.109375 46.1875 
Q 21.1875 51.21875 25.484375 53.609375 
Q 29.78125 56 35.6875 56 
Q 41.65625 56 45.828125 52.96875 
Q 50 49.953125 52 44.1875 
z
" id="DejaVuSans-6d"/>
      <path d="M 8.015625 75.875 
L 15.828125 75.875 
Q 23.140625 64.359375 26.78125 53.3125 
Q 30.421875 42.28125 30.421875 31.390625 
Q 30.421875 20.453125 26.78125 9.375 
Q 23.140625 -1.703125 15.828125 -13.1875 
L 8.015625 -13.1875 
Q 14.5 -2 17.703125 9.0625 
Q 20.90625 20.125 20.90625 31.390625 
Q 20.90625 42.671875 17.703125 53.65625 
Q 14.5 64.65625 8.015625 75.875 
z
" id="DejaVuSans-29"/>
     </defs>
     <g transform="translate(599.803438 134.956562)scale(0.1 -0.1)">
      <use xlink:href="#DejaVuSans-70"/>
      <use x="63.476562" xlink:href="#DejaVuSans-72"/>
      <use x="104.558594" xlink:href="#DejaVuSans-65"/>
      <use x="166.082031" xlink:href="#DejaVuSans-64"/>
      <use x="229.558594" xlink:href="#DejaVuSans-2e"/>
      <use x="261.345703" xlink:href="#DejaVuSans-20"/>
      <use x="293.132812" xlink:href="#DejaVuSans-28"/>
      <use x="332.146484" xlink:href="#DejaVuSans-6d"/>
      <use x="429.558594" xlink:href="#DejaVuSans-65"/>
      <use x="491.082031" xlink:href="#DejaVuSans-61"/>
      <use x="552.361328" xlink:href="#DejaVuSans-6e"/>
      <use x="615.740234" xlink:href="#DejaVuSans-29"/>
     </g>
    </g>
    <g id="line2d_21">
     <path d="M 571.803438 146.134687 
L 591.803438 146.134687 
" style="fill:none;stroke:#2ca02c;stroke-linecap:square;stroke-width:1.5;"/>
    </g>
    <g id="line2d_22"/>
    <g id="text_16">
     <!-- pred.(5th percen.) -->
     <defs>
      <path d="M 10.796875 72.90625 
L 49.515625 72.90625 
L 49.515625 64.59375 
L 19.828125 64.59375 
L 19.828125 46.734375 
Q 21.96875 47.46875 24.109375 47.828125 
Q 26.265625 48.1875 28.421875 48.1875 
Q 40.625 48.1875 47.75 41.5 
Q 54.890625 34.8125 54.890625 23.390625 
Q 54.890625 11.625 47.5625 5.09375 
Q 40.234375 -1.421875 26.90625 -1.421875 
Q 22.3125 -1.421875 17.546875 -0.640625 
Q 12.796875 0.140625 7.71875 1.703125 
L 7.71875 11.625 
Q 12.109375 9.234375 16.796875 8.0625 
Q 21.484375 6.890625 26.703125 6.890625 
Q 35.15625 6.890625 40.078125 11.328125 
Q 45.015625 15.765625 45.015625 23.390625 
Q 45.015625 31 40.078125 35.4375 
Q 35.15625 39.890625 26.703125 39.890625 
Q 22.75 39.890625 18.8125 39.015625 
Q 14.890625 38.140625 10.796875 36.28125 
z
" id="DejaVuSans-35"/>
      <path d="M 54.890625 33.015625 
L 54.890625 0 
L 45.90625 0 
L 45.90625 32.71875 
Q 45.90625 40.484375 42.875 44.328125 
Q 39.84375 48.1875 33.796875 48.1875 
Q 26.515625 48.1875 22.3125 43.546875 
Q 18.109375 38.921875 18.109375 30.90625 
L 18.109375 0 
L 9.078125 0 
L 9.078125 75.984375 
L 18.109375 75.984375 
L 18.109375 46.1875 
Q 21.34375 51.125 25.703125 53.5625 
Q 30.078125 56 35.796875 56 
Q 45.21875 56 50.046875 50.171875 
Q 54.890625 44.34375 54.890625 33.015625 
z
" id="DejaVuSans-68"/>
     </defs>
     <g transform="translate(599.803438 149.634687)scale(0.1 -0.1)">
      <use xlink:href="#DejaVuSans-70"/>
      <use x="63.476562" xlink:href="#DejaVuSans-72"/>
      <use x="104.558594" xlink:href="#DejaVuSans-65"/>
      <use x="166.082031" xlink:href="#DejaVuSans-64"/>
      <use x="229.558594" xlink:href="#DejaVuSans-2e"/>
      <use x="261.345703" xlink:href="#DejaVuSans-28"/>
      <use x="300.359375" xlink:href="#DejaVuSans-35"/>
      <use x="363.982422" xlink:href="#DejaVuSans-74"/>
      <use x="403.191406" xlink:href="#DejaVuSans-68"/>
      <use x="466.570312" xlink:href="#DejaVuSans-20"/>
      <use x="498.357422" xlink:href="#DejaVuSans-70"/>
      <use x="561.833984" xlink:href="#DejaVuSans-65"/>
      <use x="623.357422" xlink:href="#DejaVuSans-72"/>
      <use x="664.439453" xlink:href="#DejaVuSans-63"/>
      <use x="719.419922" xlink:href="#DejaVuSans-65"/>
      <use x="780.943359" xlink:href="#DejaVuSans-6e"/>
      <use x="844.322266" xlink:href="#DejaVuSans-2e"/>
      <use x="876.109375" xlink:href="#DejaVuSans-29"/>
     </g>
    </g>
    <g id="line2d_23">
     <path d="M 571.803438 160.812812 
L 591.803438 160.812812 
" style="fill:none;stroke:#d62728;stroke-linecap:square;stroke-width:1.5;"/>
    </g>
    <g id="line2d_24"/>
    <g id="text_17">
     <!-- pred.(95th percen.) -->
     <defs>
      <path d="M 10.984375 1.515625 
L 10.984375 10.5 
Q 14.703125 8.734375 18.5 7.8125 
Q 22.3125 6.890625 25.984375 6.890625 
Q 35.75 6.890625 40.890625 13.453125 
Q 46.046875 20.015625 46.78125 33.40625 
Q 43.953125 29.203125 39.59375 26.953125 
Q 35.25 24.703125 29.984375 24.703125 
Q 19.046875 24.703125 12.671875 31.3125 
Q 6.296875 37.9375 6.296875 49.421875 
Q 6.296875 60.640625 12.9375 67.421875 
Q 19.578125 74.21875 30.609375 74.21875 
Q 43.265625 74.21875 49.921875 64.515625 
Q 56.59375 54.828125 56.59375 36.375 
Q 56.59375 19.140625 48.40625 8.859375 
Q 40.234375 -1.421875 26.421875 -1.421875 
Q 22.703125 -1.421875 18.890625 -0.6875 
Q 15.09375 0.046875 10.984375 1.515625 
z
M 30.609375 32.421875 
Q 37.25 32.421875 41.125 36.953125 
Q 45.015625 41.5 45.015625 49.421875 
Q 45.015625 57.28125 41.125 61.84375 
Q 37.25 66.40625 30.609375 66.40625 
Q 23.96875 66.40625 20.09375 61.84375 
Q 16.21875 57.28125 16.21875 49.421875 
Q 16.21875 41.5 20.09375 36.953125 
Q 23.96875 32.421875 30.609375 32.421875 
z
" id="DejaVuSans-39"/>
     </defs>
     <g transform="translate(599.803438 164.312812)scale(0.1 -0.1)">
      <use xlink:href="#DejaVuSans-70"/>
      <use x="63.476562" xlink:href="#DejaVuSans-72"/>
      <use x="104.558594" xlink:href="#DejaVuSans-65"/>
      <use x="166.082031" xlink:href="#DejaVuSans-64"/>
      <use x="229.558594" xlink:href="#DejaVuSans-2e"/>
      <use x="261.345703" xlink:href="#DejaVuSans-28"/>
      <use x="300.359375" xlink:href="#DejaVuSans-39"/>
      <use x="363.982422" xlink:href="#DejaVuSans-35"/>
      <use x="427.605469" xlink:href="#DejaVuSans-74"/>
      <use x="466.814453" xlink:href="#DejaVuSans-68"/>
      <use x="530.193359" xlink:href="#DejaVuSans-20"/>
      <use x="561.980469" xlink:href="#DejaVuSans-70"/>
      <use x="625.457031" xlink:href="#DejaVuSans-65"/>
      <use x="686.980469" xlink:href="#DejaVuSans-72"/>
      <use x="728.0625" xlink:href="#DejaVuSans-63"/>
      <use x="783.042969" xlink:href="#DejaVuSans-65"/>
      <use x="844.566406" xlink:href="#DejaVuSans-6e"/>
      <use x="907.945312" xlink:href="#DejaVuSans-2e"/>
      <use x="939.732422" xlink:href="#DejaVuSans-29"/>
     </g>
    </g>
   </g>
  </g>
 </g>
 <defs>
  <clipPath id="pe189621116">
   <rect height="289.92" width="650.68" x="56" y="103.68"/>
  </clipPath>
 </defs>
</svg>
