<?xml version="1.0" encoding="utf-8" standalone="no"?>
<!DOCTYPE svg PUBLIC "-//W3C//DTD SVG 1.1//EN"
  "http://www.w3.org/Graphics/SVG/1.1/DTD/svg11.dtd">
<!-- Created with matplotlib (http://matplotlib.org/) -->
<svg height="864pt" version="1.1" viewBox="0 0 720 864" width="720pt" xmlns="http://www.w3.org/2000/svg" xmlns:xlink="http://www.w3.org/1999/xlink">
 <defs>
  <style type="text/css">
*{stroke-linecap:butt;stroke-linejoin:round;}
  </style>
 </defs>
 <g id="figure_1">
  <g id="patch_1">
   <path d="M 0 864 
L 720 864 
L 720 0 
L 0 0 
z
" style="fill:#ffffff;"/>
  </g>
  <g id="axes_1">
   <g id="patch_2">
    <path d="M 56 393.6 
L 706.68 393.6 
L 706.68 103.68 
L 56 103.68 
z
" style="fill:#ffffff;"/>
   </g>
   <g id="PolyCollection_1">
    <path clip-path="url(#pae62766e6d)" d="M 85.576364 124.929586 
L 85.576364 333.080887 
L 87.568038 335.78415 
L 89.559712 335.78415 
L 91.551387 335.78415 
L 93.543061 335.78415 
L 95.534735 333.080887 
L 97.52641 330.377623 
L 99.518084 330.377623 
L 101.509758 324.971096 
L 103.501433 316.861305 
L 105.493107 306.04825 
L 107.484781 292.531932 
L 109.476455 279.015614 
L 111.46813 273.609087 
L 113.459804 268.202559 
L 115.451478 265.499296 
L 117.443153 262.796032 
L 119.434827 260.092768 
L 121.426501 260.092768 
L 123.418176 257.389505 
L 125.40985 254.686241 
L 127.401524 254.686241 
L 129.393199 254.686241 
L 131.384873 254.686241 
L 133.376547 254.686241 
L 135.368222 257.389505 
L 137.359896 257.389505 
L 139.35157 257.389505 
L 141.343245 260.092768 
L 143.334919 262.796032 
L 145.326593 262.796032 
L 147.318268 265.499296 
L 149.309942 265.499296 
L 151.301616 268.202559 
L 153.29329 268.202559 
L 155.284965 268.202559 
L 157.276639 268.202559 
L 159.268313 268.202559 
L 161.259988 268.202559 
L 163.251662 270.905823 
L 165.243336 273.609087 
L 167.235011 276.31235 
L 169.226685 279.015614 
L 171.218359 289.828668 
L 173.210034 295.235196 
L 175.201708 295.235196 
L 177.193382 300.641723 
L 179.185057 306.04825 
L 181.176731 308.751514 
L 183.168405 311.454778 
L 185.16008 314.158041 
L 187.151754 319.564568 
L 189.143428 322.267832 
L 191.135103 322.267832 
L 193.126777 322.267832 
L 195.118451 324.971096 
L 197.110125 327.674359 
L 199.1018 327.674359 
L 201.093474 330.377623 
L 203.085148 330.377623 
L 205.076823 333.080887 
L 207.068497 333.080887 
L 209.060171 333.080887 
L 211.051846 333.080887 
L 213.04352 330.377623 
L 215.035194 330.377623 
L 217.026869 327.674359 
L 219.018543 324.971096 
L 221.010217 319.564568 
L 223.001892 316.861305 
L 224.993566 314.158041 
L 226.98524 308.751514 
L 228.976915 306.04825 
L 230.968589 300.641723 
L 232.960263 297.938459 
L 234.951938 295.235196 
L 236.943612 287.125405 
L 238.935286 281.718878 
L 240.926961 279.015614 
L 242.918635 279.015614 
L 244.910309 279.015614 
L 246.901983 276.31235 
L 248.893658 270.905823 
L 250.885332 268.202559 
L 252.877006 265.499296 
L 254.868681 260.092768 
L 256.860355 260.092768 
L 258.852029 257.389505 
L 260.843704 257.389505 
L 262.835378 257.389505 
L 264.827052 257.389505 
L 266.818727 257.389505 
L 268.810401 257.389505 
L 270.802075 260.092768 
L 272.79375 262.796032 
L 274.785424 262.796032 
L 276.777098 265.499296 
L 278.768773 268.202559 
L 280.760447 270.905823 
L 282.752121 270.905823 
L 284.743796 273.609087 
L 286.73547 273.609087 
L 288.727144 276.31235 
L 290.718818 276.31235 
L 292.710493 276.31235 
L 294.702167 276.31235 
L 296.693841 276.31235 
L 298.685516 279.015614 
L 300.67719 279.015614 
L 302.668864 279.015614 
L 304.660539 279.015614 
L 306.652213 281.718878 
L 308.643887 284.422141 
L 310.635562 287.125405 
L 312.627236 289.828668 
L 314.61891 295.235196 
L 316.610585 297.938459 
L 318.602259 300.641723 
L 320.593933 300.641723 
L 322.585608 303.344987 
L 324.577282 308.751514 
L 326.568956 311.454778 
L 328.560631 314.158041 
L 330.552305 319.564568 
L 332.543979 322.267832 
L 334.535654 324.971096 
L 336.527328 324.971096 
L 338.519002 327.674359 
L 340.510676 327.674359 
L 342.502351 330.377623 
L 344.494025 333.080887 
L 346.485699 333.080887 
L 348.477374 335.78415 
L 350.469048 335.78415 
L 352.460722 338.487414 
L 354.452397 338.487414 
L 356.444071 338.487414 
L 358.435745 335.78415 
L 360.42742 335.78415 
L 362.419094 335.78415 
L 364.410768 335.78415 
L 366.402443 333.080887 
L 368.394117 330.377623 
L 370.385791 327.674359 
L 372.377466 322.267832 
L 374.36914 316.861305 
L 376.360814 311.454778 
L 378.352489 306.04825 
L 380.344163 297.938459 
L 382.335837 292.531932 
L 384.327511 284.422141 
L 386.319186 279.015614 
L 388.31086 273.609087 
L 390.302534 270.905823 
L 392.294209 268.202559 
L 394.285883 268.202559 
L 396.277557 265.499296 
L 398.269232 265.499296 
L 400.260906 265.499296 
L 402.25258 265.499296 
L 404.244255 265.499296 
L 406.235929 265.499296 
L 408.227603 265.499296 
L 410.219278 265.499296 
L 412.210952 265.499296 
L 414.202626 265.499296 
L 416.194301 268.202559 
L 418.185975 268.202559 
L 420.177649 270.905823 
L 422.169324 273.609087 
L 424.160998 276.31235 
L 426.152672 276.31235 
L 428.144346 276.31235 
L 430.136021 279.015614 
L 432.127695 281.718878 
L 434.119369 284.422141 
L 436.111044 284.422141 
L 438.102718 292.531932 
L 440.094392 295.235196 
L 442.086067 300.641723 
L 444.077741 300.641723 
L 446.069415 300.641723 
L 448.06109 300.641723 
L 450.052764 300.641723 
L 452.044438 297.938459 
L 454.036113 297.938459 
L 456.027787 297.938459 
L 458.019461 300.641723 
L 460.011136 303.344987 
L 462.00281 306.04825 
L 463.994484 308.751514 
L 465.986159 314.158041 
L 467.977833 316.861305 
L 469.969507 319.564568 
L 471.961182 319.564568 
L 473.952856 324.971096 
L 475.94453 324.971096 
L 477.936204 327.674359 
L 479.927879 330.377623 
L 481.919553 333.080887 
L 483.911227 335.78415 
L 485.902902 335.78415 
L 487.894576 335.78415 
L 489.88625 335.78415 
L 491.877925 335.78415 
L 493.869599 333.080887 
L 495.861273 330.377623 
L 497.852948 324.971096 
L 499.844622 322.267832 
L 501.836296 314.158041 
L 503.827971 306.04825 
L 505.819645 297.938459 
L 507.811319 289.828668 
L 509.802994 279.015614 
L 511.794668 276.31235 
L 513.786342 273.609087 
L 515.778017 270.905823 
L 517.769691 270.905823 
L 519.761365 265.499296 
L 521.753039 262.796032 
L 523.744714 260.092768 
L 525.736388 257.389505 
L 527.728062 254.686241 
L 529.719737 254.686241 
L 531.711411 254.686241 
L 533.703085 257.389505 
L 535.69476 257.389505 
L 537.686434 260.092768 
L 539.678108 260.092768 
L 541.669783 262.796032 
L 543.661457 262.796032 
L 545.653131 265.499296 
L 547.644806 265.499296 
L 549.63648 262.796032 
L 551.628154 262.796032 
L 553.619829 262.796032 
L 555.611503 265.499296 
L 557.603177 265.499296 
L 559.594852 268.202559 
L 561.586526 273.609087 
L 563.5782 276.31235 
L 565.569875 284.422141 
L 567.561549 289.828668 
L 569.553223 292.531932 
L 571.544897 295.235196 
L 573.536572 297.938459 
L 575.528246 303.344987 
L 577.51992 308.751514 
L 579.511595 311.454778 
L 581.503269 316.861305 
L 583.494943 322.267832 
L 585.486618 327.674359 
L 587.478292 327.674359 
L 589.469966 330.377623 
L 591.461641 330.377623 
L 593.453315 333.080887 
L 595.444989 333.080887 
L 597.436664 333.080887 
L 599.428338 333.080887 
L 601.420012 333.080887 
L 603.411687 333.080887 
L 605.403361 330.377623 
L 607.395035 330.377623 
L 609.38671 330.377623 
L 611.378384 333.080887 
L 613.370058 333.080887 
L 615.361732 333.080887 
L 617.353407 335.78415 
L 619.345081 335.78415 
L 621.336755 335.78415 
L 623.32843 338.487414 
L 625.320104 338.487414 
L 627.311778 338.487414 
L 629.303453 338.487414 
L 631.295127 338.487414 
L 633.286801 335.78415 
L 635.278476 335.78415 
L 637.27015 333.080887 
L 639.261824 330.377623 
L 641.253499 327.674359 
L 643.245173 322.267832 
L 645.236847 316.861305 
L 647.228522 314.158041 
L 649.220196 308.751514 
L 651.21187 303.344987 
L 653.203545 297.938459 
L 655.195219 295.235196 
L 657.186893 292.531932 
L 659.178567 287.125405 
L 661.170242 284.422141 
L 663.161916 279.015614 
L 665.15359 279.015614 
L 667.145265 281.718878 
L 669.136939 281.718878 
L 671.128613 281.718878 
L 673.120288 284.422141 
L 675.111962 287.125405 
L 677.103636 284.422141 
L 677.103636 122.226323 
L 677.103636 122.226323 
L 675.111962 122.226323 
L 673.120288 122.226323 
L 671.128613 122.226323 
L 669.136939 122.226323 
L 667.145265 122.226323 
L 665.15359 122.226323 
L 663.161916 122.226323 
L 661.170242 122.226323 
L 659.178567 122.226323 
L 657.186893 122.226323 
L 655.195219 122.226323 
L 653.203545 122.226323 
L 651.21187 122.226323 
L 649.220196 122.226323 
L 647.228522 122.226323 
L 645.236847 122.226323 
L 643.245173 124.929586 
L 641.253499 124.929586 
L 639.261824 124.929586 
L 637.27015 124.929586 
L 635.278476 124.929586 
L 633.286801 124.929586 
L 631.295127 124.929586 
L 629.303453 124.929586 
L 627.311778 124.929586 
L 625.320104 124.929586 
L 623.32843 124.929586 
L 621.336755 124.929586 
L 619.345081 124.929586 
L 617.353407 124.929586 
L 615.361732 124.929586 
L 613.370058 124.929586 
L 611.378384 124.929586 
L 609.38671 124.929586 
L 607.395035 124.929586 
L 605.403361 124.929586 
L 603.411687 124.929586 
L 601.420012 124.929586 
L 599.428338 124.929586 
L 597.436664 124.929586 
L 595.444989 124.929586 
L 593.453315 124.929586 
L 591.461641 124.929586 
L 589.469966 124.929586 
L 587.478292 124.929586 
L 585.486618 124.929586 
L 583.494943 124.929586 
L 581.503269 122.226323 
L 579.511595 122.226323 
L 577.51992 122.226323 
L 575.528246 122.226323 
L 573.536572 122.226323 
L 571.544897 122.226323 
L 569.553223 122.226323 
L 567.561549 122.226323 
L 565.569875 122.226323 
L 563.5782 122.226323 
L 561.586526 122.226323 
L 559.594852 119.523059 
L 557.603177 119.523059 
L 555.611503 119.523059 
L 553.619829 119.523059 
L 551.628154 119.523059 
L 549.63648 119.523059 
L 547.644806 119.523059 
L 545.653131 119.523059 
L 543.661457 119.523059 
L 541.669783 119.523059 
L 539.678108 119.523059 
L 537.686434 119.523059 
L 535.69476 119.523059 
L 533.703085 119.523059 
L 531.711411 119.523059 
L 529.719737 119.523059 
L 527.728062 119.523059 
L 525.736388 119.523059 
L 523.744714 119.523059 
L 521.753039 119.523059 
L 519.761365 119.523059 
L 517.769691 122.226323 
L 515.778017 122.226323 
L 513.786342 122.226323 
L 511.794668 122.226323 
L 509.802994 122.226323 
L 507.811319 122.226323 
L 505.819645 122.226323 
L 503.827971 122.226323 
L 501.836296 122.226323 
L 499.844622 124.929586 
L 497.852948 124.929586 
L 495.861273 124.929586 
L 493.869599 124.929586 
L 491.877925 124.929586 
L 489.88625 124.929586 
L 487.894576 124.929586 
L 485.902902 124.929586 
L 483.911227 124.929586 
L 481.919553 124.929586 
L 479.927879 124.929586 
L 477.936204 124.929586 
L 475.94453 124.929586 
L 473.952856 124.929586 
L 471.961182 122.226323 
L 469.969507 122.226323 
L 467.977833 122.226323 
L 465.986159 122.226323 
L 463.994484 122.226323 
L 462.00281 122.226323 
L 460.011136 122.226323 
L 458.019461 122.226323 
L 456.027787 122.226323 
L 454.036113 122.226323 
L 452.044438 122.226323 
L 450.052764 122.226323 
L 448.06109 122.226323 
L 446.069415 122.226323 
L 444.077741 122.226323 
L 442.086067 122.226323 
L 440.094392 122.226323 
L 438.102718 122.226323 
L 436.111044 122.226323 
L 434.119369 122.226323 
L 432.127695 122.226323 
L 430.136021 122.226323 
L 428.144346 122.226323 
L 426.152672 122.226323 
L 424.160998 122.226323 
L 422.169324 122.226323 
L 420.177649 122.226323 
L 418.185975 119.523059 
L 416.194301 119.523059 
L 414.202626 119.523059 
L 412.210952 119.523059 
L 410.219278 119.523059 
L 408.227603 119.523059 
L 406.235929 119.523059 
L 404.244255 119.523059 
L 402.25258 119.523059 
L 400.260906 119.523059 
L 398.269232 119.523059 
L 396.277557 119.523059 
L 394.285883 119.523059 
L 392.294209 122.226323 
L 390.302534 122.226323 
L 388.31086 122.226323 
L 386.319186 122.226323 
L 384.327511 122.226323 
L 382.335837 122.226323 
L 380.344163 122.226323 
L 378.352489 122.226323 
L 376.360814 122.226323 
L 374.36914 122.226323 
L 372.377466 124.929586 
L 370.385791 124.929586 
L 368.394117 124.929586 
L 366.402443 124.929586 
L 364.410768 124.929586 
L 362.419094 124.929586 
L 360.42742 124.929586 
L 358.435745 124.929586 
L 356.444071 124.929586 
L 354.452397 124.929586 
L 352.460722 124.929586 
L 350.469048 124.929586 
L 348.477374 124.929586 
L 346.485699 124.929586 
L 344.494025 124.929586 
L 342.502351 124.929586 
L 340.510676 124.929586 
L 338.519002 124.929586 
L 336.527328 124.929586 
L 334.535654 124.929586 
L 332.543979 122.226323 
L 330.552305 122.226323 
L 328.560631 122.226323 
L 326.568956 122.226323 
L 324.577282 122.226323 
L 322.585608 122.226323 
L 320.593933 122.226323 
L 318.602259 122.226323 
L 316.610585 122.226323 
L 314.61891 122.226323 
L 312.627236 122.226323 
L 310.635562 122.226323 
L 308.643887 122.226323 
L 306.652213 122.226323 
L 304.660539 122.226323 
L 302.668864 122.226323 
L 300.67719 122.226323 
L 298.685516 122.226323 
L 296.693841 122.226323 
L 294.702167 122.226323 
L 292.710493 122.226323 
L 290.718818 122.226323 
L 288.727144 122.226323 
L 286.73547 122.226323 
L 284.743796 122.226323 
L 282.752121 122.226323 
L 280.760447 119.523059 
L 278.768773 119.523059 
L 276.777098 119.523059 
L 274.785424 119.523059 
L 272.79375 119.523059 
L 270.802075 119.523059 
L 268.810401 119.523059 
L 266.818727 119.523059 
L 264.827052 119.523059 
L 262.835378 119.523059 
L 260.843704 119.523059 
L 258.852029 119.523059 
L 256.860355 119.523059 
L 254.868681 119.523059 
L 252.877006 119.523059 
L 250.885332 122.226323 
L 248.893658 122.226323 
L 246.901983 122.226323 
L 244.910309 122.226323 
L 242.918635 122.226323 
L 240.926961 122.226323 
L 238.935286 122.226323 
L 236.943612 122.226323 
L 234.951938 122.226323 
L 232.960263 122.226323 
L 230.968589 122.226323 
L 228.976915 122.226323 
L 226.98524 122.226323 
L 224.993566 122.226323 
L 223.001892 122.226323 
L 221.010217 124.929586 
L 219.018543 124.929586 
L 217.026869 124.929586 
L 215.035194 124.929586 
L 213.04352 124.929586 
L 211.051846 124.929586 
L 209.060171 124.929586 
L 207.068497 124.929586 
L 205.076823 124.929586 
L 203.085148 124.929586 
L 201.093474 124.929586 
L 199.1018 124.929586 
L 197.110125 124.929586 
L 195.118451 124.929586 
L 193.126777 124.929586 
L 191.135103 124.929586 
L 189.143428 122.226323 
L 187.151754 122.226323 
L 185.16008 122.226323 
L 183.168405 122.226323 
L 181.176731 122.226323 
L 179.185057 122.226323 
L 177.193382 122.226323 
L 175.201708 122.226323 
L 173.210034 122.226323 
L 171.218359 122.226323 
L 169.226685 122.226323 
L 167.235011 122.226323 
L 165.243336 122.226323 
L 163.251662 119.523059 
L 161.259988 122.226323 
L 159.268313 119.523059 
L 157.276639 119.523059 
L 155.284965 119.523059 
L 153.29329 122.226323 
L 151.301616 119.523059 
L 149.309942 119.523059 
L 147.318268 119.523059 
L 145.326593 119.523059 
L 143.334919 119.523059 
L 141.343245 119.523059 
L 139.35157 119.523059 
L 137.359896 119.523059 
L 135.368222 119.523059 
L 133.376547 119.523059 
L 131.384873 119.523059 
L 129.393199 119.523059 
L 127.401524 119.523059 
L 125.40985 119.523059 
L 123.418176 119.523059 
L 121.426501 119.523059 
L 119.434827 119.523059 
L 117.443153 119.523059 
L 115.451478 119.523059 
L 113.459804 122.226323 
L 111.46813 122.226323 
L 109.476455 122.226323 
L 107.484781 122.226323 
L 105.493107 122.226323 
L 103.501433 124.929586 
L 101.509758 124.929586 
L 99.518084 124.929586 
L 97.52641 124.929586 
L 95.534735 124.929586 
L 93.543061 124.929586 
L 91.551387 124.929586 
L 89.559712 124.929586 
L 87.568038 124.929586 
L 85.576364 124.929586 
z
" style="fill:#008000;fill-opacity:0.4;"/>
   </g>
   <g id="matplotlib.axis_1">
    <g id="xtick_1">
     <g id="line2d_1">
      <defs>
       <path d="M 0 0 
L 0 3.5 
" id="mf3823f068e" style="stroke:#000000;stroke-width:0.8;"/>
      </defs>
      <g>
       <use style="stroke:#000000;stroke-width:0.8;" x="85.576364" xlink:href="#mf3823f068e" y="393.6"/>
      </g>
     </g>
     <g id="text_1">
      <!-- 0.0 -->
      <defs>
       <path d="M 31.78125 66.40625 
Q 24.171875 66.40625 20.328125 58.90625 
Q 16.5 51.421875 16.5 36.375 
Q 16.5 21.390625 20.328125 13.890625 
Q 24.171875 6.390625 31.78125 6.390625 
Q 39.453125 6.390625 43.28125 13.890625 
Q 47.125 21.390625 47.125 36.375 
Q 47.125 51.421875 43.28125 58.90625 
Q 39.453125 66.40625 31.78125 66.40625 
z
M 31.78125 74.21875 
Q 44.046875 74.21875 50.515625 64.515625 
Q 56.984375 54.828125 56.984375 36.375 
Q 56.984375 17.96875 50.515625 8.265625 
Q 44.046875 -1.421875 31.78125 -1.421875 
Q 19.53125 -1.421875 13.0625 8.265625 
Q 6.59375 17.96875 6.59375 36.375 
Q 6.59375 54.828125 13.0625 64.515625 
Q 19.53125 74.21875 31.78125 74.21875 
z
" id="DejaVuSans-30"/>
       <path d="M 10.6875 12.40625 
L 21 12.40625 
L 21 0 
L 10.6875 0 
z
" id="DejaVuSans-2e"/>
      </defs>
      <g transform="translate(77.624801 408.198437)scale(0.1 -0.1)">
       <use xlink:href="#DejaVuSans-30"/>
       <use x="63.623047" xlink:href="#DejaVuSans-2e"/>
       <use x="95.410156" xlink:href="#DejaVuSans-30"/>
      </g>
     </g>
    </g>
    <g id="xtick_2">
     <g id="line2d_2">
      <g>
       <use style="stroke:#000000;stroke-width:0.8;" x="203.881818" xlink:href="#mf3823f068e" y="393.6"/>
      </g>
     </g>
     <g id="text_2">
      <!-- 0.2 -->
      <defs>
       <path d="M 19.1875 8.296875 
L 53.609375 8.296875 
L 53.609375 0 
L 7.328125 0 
L 7.328125 8.296875 
Q 12.9375 14.109375 22.625 23.890625 
Q 32.328125 33.6875 34.8125 36.53125 
Q 39.546875 41.84375 41.421875 45.53125 
Q 43.3125 49.21875 43.3125 52.78125 
Q 43.3125 58.59375 39.234375 62.25 
Q 35.15625 65.921875 28.609375 65.921875 
Q 23.96875 65.921875 18.8125 64.3125 
Q 13.671875 62.703125 7.8125 59.421875 
L 7.8125 69.390625 
Q 13.765625 71.78125 18.9375 73 
Q 24.125 74.21875 28.421875 74.21875 
Q 39.75 74.21875 46.484375 68.546875 
Q 53.21875 62.890625 53.21875 53.421875 
Q 53.21875 48.921875 51.53125 44.890625 
Q 49.859375 40.875 45.40625 35.40625 
Q 44.1875 33.984375 37.640625 27.21875 
Q 31.109375 20.453125 19.1875 8.296875 
z
" id="DejaVuSans-32"/>
      </defs>
      <g transform="translate(195.930256 408.198437)scale(0.1 -0.1)">
       <use xlink:href="#DejaVuSans-30"/>
       <use x="63.623047" xlink:href="#DejaVuSans-2e"/>
       <use x="95.410156" xlink:href="#DejaVuSans-32"/>
      </g>
     </g>
    </g>
    <g id="xtick_3">
     <g id="line2d_3">
      <g>
       <use style="stroke:#000000;stroke-width:0.8;" x="322.187273" xlink:href="#mf3823f068e" y="393.6"/>
      </g>
     </g>
     <g id="text_3">
      <!-- 0.4 -->
      <defs>
       <path d="M 37.796875 64.3125 
L 12.890625 25.390625 
L 37.796875 25.390625 
z
M 35.203125 72.90625 
L 47.609375 72.90625 
L 47.609375 25.390625 
L 58.015625 25.390625 
L 58.015625 17.1875 
L 47.609375 17.1875 
L 47.609375 0 
L 37.796875 0 
L 37.796875 17.1875 
L 4.890625 17.1875 
L 4.890625 26.703125 
z
" id="DejaVuSans-34"/>
      </defs>
      <g transform="translate(314.23571 408.198437)scale(0.1 -0.1)">
       <use xlink:href="#DejaVuSans-30"/>
       <use x="63.623047" xlink:href="#DejaVuSans-2e"/>
       <use x="95.410156" xlink:href="#DejaVuSans-34"/>
      </g>
     </g>
    </g>
    <g id="xtick_4">
     <g id="line2d_4">
      <g>
       <use style="stroke:#000000;stroke-width:0.8;" x="440.492727" xlink:href="#mf3823f068e" y="393.6"/>
      </g>
     </g>
     <g id="text_4">
      <!-- 0.6 -->
      <defs>
       <path d="M 33.015625 40.375 
Q 26.375 40.375 22.484375 35.828125 
Q 18.609375 31.296875 18.609375 23.390625 
Q 18.609375 15.53125 22.484375 10.953125 
Q 26.375 6.390625 33.015625 6.390625 
Q 39.65625 6.390625 43.53125 10.953125 
Q 47.40625 15.53125 47.40625 23.390625 
Q 47.40625 31.296875 43.53125 35.828125 
Q 39.65625 40.375 33.015625 40.375 
z
M 52.59375 71.296875 
L 52.59375 62.3125 
Q 48.875 64.0625 45.09375 64.984375 
Q 41.3125 65.921875 37.59375 65.921875 
Q 27.828125 65.921875 22.671875 59.328125 
Q 17.53125 52.734375 16.796875 39.40625 
Q 19.671875 43.65625 24.015625 45.921875 
Q 28.375 48.1875 33.59375 48.1875 
Q 44.578125 48.1875 50.953125 41.515625 
Q 57.328125 34.859375 57.328125 23.390625 
Q 57.328125 12.15625 50.6875 5.359375 
Q 44.046875 -1.421875 33.015625 -1.421875 
Q 20.359375 -1.421875 13.671875 8.265625 
Q 6.984375 17.96875 6.984375 36.375 
Q 6.984375 53.65625 15.1875 63.9375 
Q 23.390625 74.21875 37.203125 74.21875 
Q 40.921875 74.21875 44.703125 73.484375 
Q 48.484375 72.75 52.59375 71.296875 
z
" id="DejaVuSans-36"/>
      </defs>
      <g transform="translate(432.541165 408.198437)scale(0.1 -0.1)">
       <use xlink:href="#DejaVuSans-30"/>
       <use x="63.623047" xlink:href="#DejaVuSans-2e"/>
       <use x="95.410156" xlink:href="#DejaVuSans-36"/>
      </g>
     </g>
    </g>
    <g id="xtick_5">
     <g id="line2d_5">
      <g>
       <use style="stroke:#000000;stroke-width:0.8;" x="558.798182" xlink:href="#mf3823f068e" y="393.6"/>
      </g>
     </g>
     <g id="text_5">
      <!-- 0.8 -->
      <defs>
       <path d="M 31.78125 34.625 
Q 24.75 34.625 20.71875 30.859375 
Q 16.703125 27.09375 16.703125 20.515625 
Q 16.703125 13.921875 20.71875 10.15625 
Q 24.75 6.390625 31.78125 6.390625 
Q 38.8125 6.390625 42.859375 10.171875 
Q 46.921875 13.96875 46.921875 20.515625 
Q 46.921875 27.09375 42.890625 30.859375 
Q 38.875 34.625 31.78125 34.625 
z
M 21.921875 38.8125 
Q 15.578125 40.375 12.03125 44.71875 
Q 8.5 49.078125 8.5 55.328125 
Q 8.5 64.0625 14.71875 69.140625 
Q 20.953125 74.21875 31.78125 74.21875 
Q 42.671875 74.21875 48.875 69.140625 
Q 55.078125 64.0625 55.078125 55.328125 
Q 55.078125 49.078125 51.53125 44.71875 
Q 48 40.375 41.703125 38.8125 
Q 48.828125 37.15625 52.796875 32.3125 
Q 56.78125 27.484375 56.78125 20.515625 
Q 56.78125 9.90625 50.3125 4.234375 
Q 43.84375 -1.421875 31.78125 -1.421875 
Q 19.734375 -1.421875 13.25 4.234375 
Q 6.78125 9.90625 6.78125 20.515625 
Q 6.78125 27.484375 10.78125 32.3125 
Q 14.796875 37.15625 21.921875 38.8125 
z
M 18.3125 54.390625 
Q 18.3125 48.734375 21.84375 45.5625 
Q 25.390625 42.390625 31.78125 42.390625 
Q 38.140625 42.390625 41.71875 45.5625 
Q 45.3125 48.734375 45.3125 54.390625 
Q 45.3125 60.0625 41.71875 63.234375 
Q 38.140625 66.40625 31.78125 66.40625 
Q 25.390625 66.40625 21.84375 63.234375 
Q 18.3125 60.0625 18.3125 54.390625 
z
" id="DejaVuSans-38"/>
      </defs>
      <g transform="translate(550.846619 408.198437)scale(0.1 -0.1)">
       <use xlink:href="#DejaVuSans-30"/>
       <use x="63.623047" xlink:href="#DejaVuSans-2e"/>
       <use x="95.410156" xlink:href="#DejaVuSans-38"/>
      </g>
     </g>
    </g>
    <g id="xtick_6">
     <g id="line2d_6">
      <g>
       <use style="stroke:#000000;stroke-width:0.8;" x="677.103636" xlink:href="#mf3823f068e" y="393.6"/>
      </g>
     </g>
     <g id="text_6">
      <!-- 1.0 -->
      <defs>
       <path d="M 12.40625 8.296875 
L 28.515625 8.296875 
L 28.515625 63.921875 
L 10.984375 60.40625 
L 10.984375 69.390625 
L 28.421875 72.90625 
L 38.28125 72.90625 
L 38.28125 8.296875 
L 54.390625 8.296875 
L 54.390625 0 
L 12.40625 0 
z
" id="DejaVuSans-31"/>
      </defs>
      <g transform="translate(669.152074 408.198437)scale(0.1 -0.1)">
       <use xlink:href="#DejaVuSans-31"/>
       <use x="63.623047" xlink:href="#DejaVuSans-2e"/>
       <use x="95.410156" xlink:href="#DejaVuSans-30"/>
      </g>
     </g>
    </g>
   </g>
   <g id="matplotlib.axis_2">
    <g id="ytick_1">
     <g id="line2d_7">
      <defs>
       <path d="M 0 0 
L -3.5 0 
" id="m004e1ef06c" style="stroke:#000000;stroke-width:0.8;"/>
      </defs>
      <g>
       <use style="stroke:#000000;stroke-width:0.8;" x="56" xlink:href="#m004e1ef06c" y="384.442896"/>
      </g>
     </g>
     <g id="text_7">
      <!-- 0.0 -->
      <g transform="translate(33.096875 388.242115)scale(0.1 -0.1)">
       <use xlink:href="#DejaVuSans-30"/>
       <use x="63.623047" xlink:href="#DejaVuSans-2e"/>
       <use x="95.410156" xlink:href="#DejaVuSans-30"/>
      </g>
     </g>
    </g>
    <g id="ytick_2">
     <g id="line2d_8">
      <g>
       <use style="stroke:#000000;stroke-width:0.8;" x="56" xlink:href="#m004e1ef06c" y="330.377623"/>
      </g>
     </g>
     <g id="text_8">
      <!-- 0.2 -->
      <g transform="translate(33.096875 334.176842)scale(0.1 -0.1)">
       <use xlink:href="#DejaVuSans-30"/>
       <use x="63.623047" xlink:href="#DejaVuSans-2e"/>
       <use x="95.410156" xlink:href="#DejaVuSans-32"/>
      </g>
     </g>
    </g>
    <g id="ytick_3">
     <g id="line2d_9">
      <g>
       <use style="stroke:#000000;stroke-width:0.8;" x="56" xlink:href="#m004e1ef06c" y="276.31235"/>
      </g>
     </g>
     <g id="text_9">
      <!-- 0.4 -->
      <g transform="translate(33.096875 280.111569)scale(0.1 -0.1)">
       <use xlink:href="#DejaVuSans-30"/>
       <use x="63.623047" xlink:href="#DejaVuSans-2e"/>
       <use x="95.410156" xlink:href="#DejaVuSans-34"/>
      </g>
     </g>
    </g>
    <g id="ytick_4">
     <g id="line2d_10">
      <g>
       <use style="stroke:#000000;stroke-width:0.8;" x="56" xlink:href="#m004e1ef06c" y="222.247077"/>
      </g>
     </g>
     <g id="text_10">
      <!-- 0.6 -->
      <g transform="translate(33.096875 226.046296)scale(0.1 -0.1)">
       <use xlink:href="#DejaVuSans-30"/>
       <use x="63.623047" xlink:href="#DejaVuSans-2e"/>
       <use x="95.410156" xlink:href="#DejaVuSans-36"/>
      </g>
     </g>
    </g>
    <g id="ytick_5">
     <g id="line2d_11">
      <g>
       <use style="stroke:#000000;stroke-width:0.8;" x="56" xlink:href="#m004e1ef06c" y="168.181805"/>
      </g>
     </g>
     <g id="text_11">
      <!-- 0.8 -->
      <g transform="translate(33.096875 171.981023)scale(0.1 -0.1)">
       <use xlink:href="#DejaVuSans-30"/>
       <use x="63.623047" xlink:href="#DejaVuSans-2e"/>
       <use x="95.410156" xlink:href="#DejaVuSans-38"/>
      </g>
     </g>
    </g>
    <g id="ytick_6">
     <g id="line2d_12">
      <g>
       <use style="stroke:#000000;stroke-width:0.8;" x="56" xlink:href="#m004e1ef06c" y="114.116532"/>
      </g>
     </g>
     <g id="text_12">
      <!-- 1.0 -->
      <g transform="translate(33.096875 117.915751)scale(0.1 -0.1)">
       <use xlink:href="#DejaVuSans-31"/>
       <use x="63.623047" xlink:href="#DejaVuSans-2e"/>
       <use x="95.410156" xlink:href="#DejaVuSans-30"/>
      </g>
     </g>
    </g>
   </g>
   <g id="line2d_13">
    <path clip-path="url(#pae62766e6d)" d="M 85.576364 370.734673 
L 87.568038 370.917441 
L 89.559712 370.186343 
L 91.551387 369.089683 
L 93.543061 362.144161 
L 95.534735 359.402511 
L 97.52641 351.908577 
L 99.518084 340.028274 
L 101.509758 326.137284 
L 103.501433 303.10737 
L 105.493107 283.733079 
L 107.484781 261.799879 
L 111.46813 213.912375 
L 113.459804 194.538084 
L 115.451478 188.506563 
L 117.443153 172.239403 
L 119.434827 142.081254 
L 121.426501 131.845886 
L 123.418176 129.469718 
L 125.40985 117.954896 
L 127.401524 116.858182 
L 129.393199 125.814094 
L 131.384873 145.188655 
L 133.376547 151.951139 
L 135.368222 153.779086 
L 137.359896 171.142689 
L 139.35157 181.195586 
L 141.343245 192.162186 
L 143.334919 200.569877 
L 145.326593 213.729634 
L 147.318268 234.56612 
L 149.309942 237.12503 
L 151.301616 224.148012 
L 153.29329 226.706922 
L 155.284965 232.738444 
L 157.276639 234.931872 
L 159.268313 232.738444 
L 161.259988 242.608329 
L 163.251662 259.789462 
L 165.243336 265.455503 
L 167.235011 279.346493 
L 169.226685 291.592548 
L 171.218359 293.237484 
L 173.210034 298.538043 
L 175.201708 307.676696 
L 177.193382 316.084387 
L 179.185057 318.460556 
L 181.176731 321.202206 
L 183.168405 331.437843 
L 185.16008 337.834846 
L 187.151754 340.941977 
L 189.143428 338.566079 
L 191.135103 342.769924 
L 193.126777 347.521991 
L 195.118451 350.080901 
L 197.110125 352.457069 
L 199.1018 358.305851 
L 201.093474 364.520275 
L 203.085148 364.520275 
L 205.076823 361.961393 
L 207.068497 363.058053 
L 209.060171 361.047501 
L 211.051846 358.305851 
L 213.04352 357.757548 
L 215.035194 352.457069 
L 217.026869 342.952665 
L 219.018543 332.534287 
L 221.010217 328.330441 
L 223.001892 322.847141 
L 224.993566 314.07397 
L 226.98524 308.59067 
L 228.976915 304.021343 
L 230.968589 298.720784 
L 232.960263 291.958029 
L 234.951938 277.335806 
L 236.943612 272.400998 
L 238.935286 268.928115 
L 240.926961 267.831401 
L 242.918635 265.820984 
L 244.910309 256.864801 
L 250.885332 184.668199 
L 252.877006 171.32543 
L 254.868681 159.262386 
L 256.860355 143.360708 
L 258.852029 156.703477 
L 260.843704 160.3591 
L 262.835378 155.241282 
L 264.827052 155.972244 
L 266.818727 163.283491 
L 268.810401 181.195586 
L 270.802075 191.796434 
L 272.79375 203.677008 
L 274.785424 223.59952 
L 276.777098 233.286665 
L 278.768773 241.511615 
L 280.760447 248.822862 
L 282.752121 250.467798 
L 284.743796 259.972203 
L 286.73547 261.799879 
L 288.727144 262.348101 
L 290.718818 261.799879 
L 292.710493 263.079334 
L 294.702167 266.917698 
L 296.693841 267.283179 
L 298.685516 270.573051 
L 300.67719 273.314701 
L 302.668864 275.142648 
L 304.660539 276.787584 
L 306.652213 282.453625 
L 308.643887 283.550339 
L 310.635562 291.409807 
L 312.627236 298.172292 
L 314.61891 303.10737 
L 316.610585 302.193396 
L 318.602259 304.021343 
L 322.585608 318.826037 
L 324.577282 324.675088 
L 326.568956 329.427156 
L 328.560631 337.652105 
L 330.552305 344.232119 
L 332.543979 346.608288 
L 334.535654 347.887473 
L 336.527328 350.812134 
L 340.510676 360.864733 
L 342.502351 365.434141 
L 344.494025 370.734673 
L 346.485699 374.572956 
L 348.477374 377.497401 
L 350.469048 378.594061 
L 352.460722 377.862936 
L 354.452397 377.314606 
L 356.444071 376.949071 
L 358.435745 374.390188 
L 360.42742 373.110761 
L 362.419094 367.627461 
L 364.410768 363.240821 
L 366.402443 353.919265 
L 368.394117 345.146093 
L 370.385791 336.921143 
L 372.377466 324.857829 
L 374.36914 318.643296 
L 376.360814 308.225188 
L 378.352489 295.796393 
L 380.344163 286.474729 
L 384.327511 260.885906 
L 386.319186 246.446694 
L 388.31086 233.469676 
L 392.294209 214.095116 
L 394.285883 212.998672 
L 396.277557 212.815931 
L 398.269232 209.89127 
L 400.260906 205.321944 
L 402.25258 209.89127 
L 404.244255 210.439763 
L 406.235929 213.181412 
L 408.227603 211.719217 
L 410.219278 218.847453 
L 412.210952 227.620625 
L 414.202626 232.555703 
L 416.194301 242.242848 
L 418.185975 244.253265 
L 420.177649 257.413293 
L 424.160998 262.531112 
L 428.144346 273.314701 
L 430.136021 279.346493 
L 432.127695 277.335806 
L 434.119369 283.367598 
L 436.111044 293.968446 
L 438.102718 302.010656 
L 440.094392 304.021343 
L 442.086067 303.29011 
L 446.069415 305.483538 
L 448.06109 300.36572 
L 450.052764 299.269006 
L 452.044438 297.62407 
L 454.036113 300.54846 
L 456.027787 305.84902 
L 458.019461 308.956151 
L 460.011136 316.450138 
L 462.00281 320.105492 
L 463.994484 327.599479 
L 465.986159 331.437843 
L 467.977833 334.727715 
L 469.969507 340.211015 
L 471.961182 346.059796 
L 473.952856 350.263641 
L 475.94453 353.736524 
L 477.936204 362.326955 
L 479.927879 368.541353 
L 481.919553 372.196868 
L 483.911227 374.572956 
L 485.902902 374.755751 
L 487.894576 372.927993 
L 489.88625 367.627461 
L 491.877925 361.413063 
L 495.861273 344.963082 
L 497.852948 333.44826 
L 499.844622 319.009048 
L 501.836296 305.483538 
L 503.827971 297.80681 
L 505.819645 279.711975 
L 507.811319 265.820984 
L 509.802994 257.596034 
L 511.794668 251.929993 
L 513.786342 242.608329 
L 515.778017 213.364153 
L 517.769691 191.248213 
L 519.761365 172.239403 
L 521.753039 151.585658 
L 523.744714 132.394108 
L 525.736388 128.007522 
L 527.728062 129.286977 
L 529.719737 136.963705 
L 531.711411 148.113046 
L 533.703085 164.379935 
L 535.69476 178.088185 
L 537.686434 182.840522 
L 539.678108 196.183291 
L 541.669783 205.139203 
L 543.661457 204.773722 
L 545.653131 199.838644 
L 547.644806 198.193708 
L 549.63648 198.74193 
L 551.628154 200.204125 
L 553.619829 216.105803 
L 555.611503 228.90008 
L 559.594852 260.703165 
L 561.586526 270.573051 
L 563.5782 285.195275 
L 565.569875 289.39912 
L 567.561549 290.313093 
L 569.553223 294.88242 
L 571.544897 301.279693 
L 573.536572 313.159996 
L 575.528246 318.460556 
L 577.51992 324.857829 
L 579.511595 338.017587 
L 581.503269 346.973769 
L 583.494943 351.908577 
L 585.486618 353.919265 
L 587.478292 356.843655 
L 589.469966 361.595831 
L 591.461641 363.423615 
L 593.453315 362.509723 
L 595.444989 363.789151 
L 597.436664 362.875285 
L 599.428338 365.068605 
L 601.420012 360.499171 
L 603.411687 361.230295 
L 605.403361 360.864733 
L 607.395035 361.230295 
L 609.38671 365.068605 
L 611.378384 367.079131 
L 613.370058 371.283003 
L 615.361732 373.293528 
L 617.353407 375.852411 
L 619.345081 378.045731 
L 621.336755 378.959596 
L 623.32843 380.239051 
L 625.320104 380.421818 
L 629.303453 376.766276 
L 631.295127 374.024626 
L 635.278476 361.961393 
L 637.27015 355.564201 
L 639.261824 348.253224 
L 641.253499 333.996482 
L 643.245173 327.233998 
L 645.236847 321.567687 
L 647.228522 312.246293 
L 649.220196 304.752306 
L 651.21187 293.602965 
L 653.203545 293.237484 
L 655.195219 286.474729 
L 657.186893 282.636365 
L 659.178567 275.69087 
L 661.170242 270.390311 
L 663.161916 277.701557 
L 665.15359 278.798001 
L 667.145265 275.142648 
L 669.136939 274.776896 
L 671.128613 281.17417 
L 673.120288 284.829793 
L 675.111962 276.787584 
L 677.103636 275.142648 
L 677.103636 275.142648 
" style="fill:none;stroke:#1f77b4;stroke-linecap:square;stroke-width:1.5;"/>
   </g>
   <g id="line2d_14">
    <path clip-path="url(#pae62766e6d)" d="M 85.576364 193.816356 
L 87.568038 194.057337 
L 89.559712 194.174396 
L 91.551387 194.178024 
L 95.534735 193.816676 
L 97.52641 192.828597 
L 99.518084 192.287589 
L 101.509758 191.032279 
L 103.501433 189.150131 
L 105.493107 186.62443 
L 107.484781 182.839291 
L 109.476455 179.442961 
L 111.46813 175.573701 
L 113.459804 171.950083 
L 115.451478 169.324325 
L 117.443153 167.619561 
L 119.434827 166.6938 
L 121.426501 165.453643 
L 123.418176 163.96169 
L 125.40985 163.510352 
L 127.401524 163.443944 
L 129.393199 162.987626 
L 131.384873 163.005233 
L 133.376547 163.324822 
L 135.368222 164.259298 
L 137.359896 164.696835 
L 139.35157 164.895525 
L 141.343245 166.085851 
L 143.334919 166.969533 
L 147.318268 169.053038 
L 151.301616 172.726453 
L 153.29329 172.576671 
L 155.284965 171.488714 
L 157.276639 171.909427 
L 159.268313 172.570838 
L 163.251662 173.084458 
L 165.243336 174.919298 
L 167.235011 177.287606 
L 169.226685 178.501442 
L 171.218359 180.719186 
L 173.210034 182.406698 
L 175.201708 182.768615 
L 177.193382 183.886521 
L 179.185057 185.218946 
L 181.176731 186.335785 
L 185.16008 187.366938 
L 187.151754 188.909256 
L 189.143428 189.604173 
L 191.135103 189.972599 
L 193.126777 189.854403 
L 197.110125 191.026196 
L 201.093474 191.801606 
L 205.076823 193.344707 
L 207.068497 193.321587 
L 209.060171 192.912825 
L 211.051846 193.042084 
L 213.04352 192.747215 
L 215.035194 192.320775 
L 217.026869 192.130729 
L 219.018543 191.258606 
L 223.001892 188.535815 
L 224.993566 187.837128 
L 226.98524 186.867652 
L 228.976915 185.525624 
L 232.960263 183.95862 
L 236.943612 181.48581 
L 238.935286 179.384627 
L 240.926961 178.633511 
L 242.918635 178.181995 
L 244.910309 178.042741 
L 246.901983 177.085217 
L 248.893658 174.672981 
L 250.885332 171.130069 
L 252.877006 168.577477 
L 254.868681 166.573434 
L 256.860355 165.496966 
L 258.852029 164.973813 
L 260.843704 164.179481 
L 262.835378 164.90769 
L 264.827052 164.994123 
L 266.818727 164.779569 
L 268.810401 164.974738 
L 270.802075 165.541427 
L 272.79375 166.964945 
L 274.785424 168.150788 
L 276.777098 169.497476 
L 278.768773 171.770209 
L 280.760447 173.143787 
L 284.743796 175.142424 
L 286.73547 175.622822 
L 288.727144 176.940165 
L 294.702167 177.185487 
L 296.693841 177.480142 
L 298.685516 177.975089 
L 300.67719 178.147955 
L 302.668864 178.794996 
L 304.660539 179.030464 
L 306.652213 179.523987 
L 308.643887 179.861255 
L 310.635562 180.742163 
L 312.627236 181.259483 
L 314.61891 182.560962 
L 316.610585 183.490813 
L 318.602259 184.096202 
L 320.593933 184.099297 
L 322.585608 184.656133 
L 326.568956 186.889172 
L 328.560631 187.856015 
L 330.552305 188.607878 
L 332.543979 189.777573 
L 334.535654 190.593817 
L 338.519002 191.087731 
L 340.510676 191.561407 
L 348.477374 194.291952 
L 352.460722 195.040827 
L 354.452397 195.171651 
L 360.42742 194.910039 
L 362.419094 194.567365 
L 364.410768 194.354056 
L 368.394117 192.856697 
L 372.377466 190.185481 
L 374.36914 188.953184 
L 376.360814 187.158466 
L 378.352489 186.056033 
L 380.344163 184.281305 
L 382.335837 182.212063 
L 384.327511 180.491044 
L 386.319186 178.15763 
L 392.294209 171.991592 
L 394.285883 170.901999 
L 396.277557 169.970405 
L 400.260906 169.767802 
L 404.244255 169.179593 
L 406.235929 169.665221 
L 408.227603 169.68048 
L 410.219278 170.022941 
L 412.210952 170.044496 
L 414.202626 171.003052 
L 416.194301 172.135257 
L 418.185975 172.865031 
L 420.177649 174.228721 
L 422.169324 174.775563 
L 424.160998 176.542999 
L 426.152672 176.943758 
L 428.144346 177.51468 
L 430.136021 178.493048 
L 434.119369 180.080291 
L 436.111044 180.132755 
L 440.094392 182.94262 
L 442.086067 183.978006 
L 444.077741 184.229409 
L 450.052764 184.246376 
L 452.044438 183.517704 
L 456.027787 183.44251 
L 458.019461 183.901674 
L 460.011136 184.779772 
L 462.00281 185.383098 
L 463.994484 186.501289 
L 465.986159 187.090565 
L 467.977833 188.202175 
L 471.961182 189.306992 
L 475.94453 190.88929 
L 479.927879 192.007019 
L 481.919553 193.222776 
L 483.911227 193.980757 
L 485.902902 194.419646 
L 487.894576 194.684886 
L 489.88625 194.638646 
L 491.877925 194.300489 
L 493.869599 193.589068 
L 495.861273 192.600136 
L 499.844622 190.073403 
L 501.836296 188.221952 
L 505.819645 183.833061 
L 507.811319 182.331113 
L 509.802994 179.187609 
L 511.794668 177.228383 
L 513.786342 176.036671 
L 515.778017 174.549627 
L 517.769691 172.478713 
L 519.761365 168.962408 
L 521.753039 167.040352 
L 523.744714 165.507494 
L 525.736388 164.394141 
L 527.728062 163.591592 
L 529.719737 163.430712 
L 531.711411 163.501851 
L 533.703085 163.910292 
L 535.69476 164.545417 
L 539.678108 166.590472 
L 541.669783 167.114478 
L 543.661457 168.330947 
L 545.653131 168.899379 
L 547.644806 168.851965 
L 549.63648 168.357303 
L 551.628154 168.270194 
L 553.619829 168.537142 
L 555.611503 169.021275 
L 557.603177 171.033214 
L 559.594852 172.805097 
L 563.5782 177.616301 
L 565.569875 179.336822 
L 567.561549 181.355306 
L 569.553223 181.94227 
L 571.544897 182.231093 
L 573.536572 183.172184 
L 575.528246 184.345649 
L 577.51992 186.123081 
L 579.511595 186.932424 
L 581.503269 188.04254 
L 583.494943 189.927782 
L 585.486618 191.002756 
L 587.478292 191.617855 
L 589.469966 191.904152 
L 591.461641 192.3514 
L 593.453315 192.940392 
L 595.444989 193.195886 
L 597.436664 193.001179 
L 599.428338 193.294626 
L 601.420012 193.058588 
L 603.411687 193.360038 
L 605.403361 192.73032 
L 609.38671 192.876758 
L 611.378384 192.929756 
L 613.370058 193.504662 
L 615.361732 193.802448 
L 617.353407 194.313934 
L 625.320104 195.241438 
L 629.303453 195.391256 
L 633.286801 194.833637 
L 635.278476 194.451125 
L 639.261824 192.763577 
L 643.245173 190.591398 
L 645.236847 188.684139 
L 649.220196 186.607214 
L 651.21187 185.059631 
L 653.203545 183.907401 
L 655.195219 182.38372 
L 657.186893 182.079568 
L 659.178567 181.006621 
L 661.170242 180.203431 
L 663.161916 179.189672 
L 665.15359 178.857953 
L 667.145265 179.733206 
L 669.136939 179.807617 
L 671.128613 179.425283 
L 673.120288 179.728119 
L 675.111962 180.433529 
L 677.103636 180.602127 
L 677.103636 180.602127 
" style="fill:none;stroke:#ff7f0e;stroke-linecap:square;stroke-width:1.5;"/>
   </g>
   <g id="line2d_15">
    <path clip-path="url(#pae62766e6d)" d="M 85.576364 333.080887 
L 87.568038 335.78415 
L 93.543061 335.78415 
L 97.52641 330.377623 
L 99.518084 330.377623 
L 101.509758 324.971096 
L 103.501433 316.861305 
L 105.493107 306.04825 
L 109.476455 279.015614 
L 113.459804 268.202559 
L 119.434827 260.092768 
L 121.426501 260.092768 
L 125.40985 254.686241 
L 133.376547 254.686241 
L 135.368222 257.389505 
L 139.35157 257.389505 
L 143.334919 262.796032 
L 145.326593 262.796032 
L 147.318268 265.499296 
L 149.309942 265.499296 
L 151.301616 268.202559 
L 161.259988 268.202559 
L 169.226685 279.015614 
L 171.218359 289.828668 
L 173.210034 295.235196 
L 175.201708 295.235196 
L 179.185057 306.04825 
L 185.16008 314.158041 
L 187.151754 319.564568 
L 189.143428 322.267832 
L 193.126777 322.267832 
L 197.110125 327.674359 
L 199.1018 327.674359 
L 201.093474 330.377623 
L 203.085148 330.377623 
L 205.076823 333.080887 
L 211.051846 333.080887 
L 213.04352 330.377623 
L 215.035194 330.377623 
L 219.018543 324.971096 
L 221.010217 319.564568 
L 224.993566 314.158041 
L 226.98524 308.751514 
L 228.976915 306.04825 
L 230.968589 300.641723 
L 234.951938 295.235196 
L 236.943612 287.125405 
L 238.935286 281.718878 
L 240.926961 279.015614 
L 244.910309 279.015614 
L 246.901983 276.31235 
L 248.893658 270.905823 
L 252.877006 265.499296 
L 254.868681 260.092768 
L 256.860355 260.092768 
L 258.852029 257.389505 
L 268.810401 257.389505 
L 272.79375 262.796032 
L 274.785424 262.796032 
L 280.760447 270.905823 
L 282.752121 270.905823 
L 284.743796 273.609087 
L 286.73547 273.609087 
L 288.727144 276.31235 
L 296.693841 276.31235 
L 298.685516 279.015614 
L 304.660539 279.015614 
L 312.627236 289.828668 
L 314.61891 295.235196 
L 318.602259 300.641723 
L 320.593933 300.641723 
L 322.585608 303.344987 
L 324.577282 308.751514 
L 328.560631 314.158041 
L 330.552305 319.564568 
L 334.535654 324.971096 
L 336.527328 324.971096 
L 338.519002 327.674359 
L 340.510676 327.674359 
L 344.494025 333.080887 
L 346.485699 333.080887 
L 348.477374 335.78415 
L 350.469048 335.78415 
L 352.460722 338.487414 
L 356.444071 338.487414 
L 358.435745 335.78415 
L 364.410768 335.78415 
L 370.385791 327.674359 
L 378.352489 306.04825 
L 380.344163 297.938459 
L 382.335837 292.531932 
L 384.327511 284.422141 
L 388.31086 273.609087 
L 392.294209 268.202559 
L 394.285883 268.202559 
L 396.277557 265.499296 
L 414.202626 265.499296 
L 416.194301 268.202559 
L 418.185975 268.202559 
L 424.160998 276.31235 
L 428.144346 276.31235 
L 434.119369 284.422141 
L 436.111044 284.422141 
L 438.102718 292.531932 
L 440.094392 295.235196 
L 442.086067 300.641723 
L 450.052764 300.641723 
L 452.044438 297.938459 
L 456.027787 297.938459 
L 463.994484 308.751514 
L 465.986159 314.158041 
L 469.969507 319.564568 
L 471.961182 319.564568 
L 473.952856 324.971096 
L 475.94453 324.971096 
L 483.911227 335.78415 
L 491.877925 335.78415 
L 495.861273 330.377623 
L 497.852948 324.971096 
L 499.844622 322.267832 
L 507.811319 289.828668 
L 509.802994 279.015614 
L 515.778017 270.905823 
L 517.769691 270.905823 
L 519.761365 265.499296 
L 527.728062 254.686241 
L 531.711411 254.686241 
L 533.703085 257.389505 
L 535.69476 257.389505 
L 537.686434 260.092768 
L 539.678108 260.092768 
L 541.669783 262.796032 
L 543.661457 262.796032 
L 545.653131 265.499296 
L 547.644806 265.499296 
L 549.63648 262.796032 
L 553.619829 262.796032 
L 555.611503 265.499296 
L 557.603177 265.499296 
L 559.594852 268.202559 
L 561.586526 273.609087 
L 563.5782 276.31235 
L 565.569875 284.422141 
L 567.561549 289.828668 
L 573.536572 297.938459 
L 577.51992 308.751514 
L 579.511595 311.454778 
L 585.486618 327.674359 
L 587.478292 327.674359 
L 589.469966 330.377623 
L 591.461641 330.377623 
L 593.453315 333.080887 
L 603.411687 333.080887 
L 605.403361 330.377623 
L 609.38671 330.377623 
L 611.378384 333.080887 
L 615.361732 333.080887 
L 617.353407 335.78415 
L 621.336755 335.78415 
L 623.32843 338.487414 
L 631.295127 338.487414 
L 633.286801 335.78415 
L 635.278476 335.78415 
L 641.253499 327.674359 
L 645.236847 316.861305 
L 647.228522 314.158041 
L 653.203545 297.938459 
L 657.186893 292.531932 
L 659.178567 287.125405 
L 661.170242 284.422141 
L 663.161916 279.015614 
L 665.15359 279.015614 
L 667.145265 281.718878 
L 671.128613 281.718878 
L 675.111962 287.125405 
L 677.103636 284.422141 
L 677.103636 284.422141 
" style="fill:none;stroke:#2ca02c;stroke-linecap:square;stroke-width:1.5;"/>
   </g>
   <g id="line2d_16">
    <path clip-path="url(#pae62766e6d)" d="M 85.576364 124.929586 
L 103.501433 124.929586 
L 105.493107 122.226323 
L 113.459804 122.226323 
L 115.451478 119.523059 
L 151.301616 119.523059 
L 153.29329 122.226323 
L 155.284965 119.523059 
L 159.268313 119.523059 
L 161.259988 122.226323 
L 163.251662 119.523059 
L 165.243336 122.226323 
L 189.143428 122.226323 
L 191.135103 124.929586 
L 221.010217 124.929586 
L 223.001892 122.226323 
L 250.885332 122.226323 
L 252.877006 119.523059 
L 280.760447 119.523059 
L 282.752121 122.226323 
L 332.543979 122.226323 
L 334.535654 124.929586 
L 372.377466 124.929586 
L 374.36914 122.226323 
L 392.294209 122.226323 
L 394.285883 119.523059 
L 418.185975 119.523059 
L 420.177649 122.226323 
L 471.961182 122.226323 
L 473.952856 124.929586 
L 499.844622 124.929586 
L 501.836296 122.226323 
L 517.769691 122.226323 
L 519.761365 119.523059 
L 559.594852 119.523059 
L 561.586526 122.226323 
L 581.503269 122.226323 
L 583.494943 124.929586 
L 643.245173 124.929586 
L 645.236847 122.226323 
L 677.103636 122.226323 
L 677.103636 122.226323 
" style="fill:none;stroke:#d62728;stroke-linecap:square;stroke-width:1.5;"/>
   </g>
   <g id="patch_3">
    <path d="M 56 393.6 
L 56 103.68 
" style="fill:none;stroke:#000000;stroke-linecap:square;stroke-linejoin:miter;stroke-width:0.8;"/>
   </g>
   <g id="patch_4">
    <path d="M 706.68 393.6 
L 706.68 103.68 
" style="fill:none;stroke:#000000;stroke-linecap:square;stroke-linejoin:miter;stroke-width:0.8;"/>
   </g>
   <g id="patch_5">
    <path d="M 56 393.6 
L 706.68 393.6 
" style="fill:none;stroke:#000000;stroke-linecap:square;stroke-linejoin:miter;stroke-width:0.8;"/>
   </g>
   <g id="patch_6">
    <path d="M 56 103.68 
L 706.68 103.68 
" style="fill:none;stroke:#000000;stroke-linecap:square;stroke-linejoin:miter;stroke-width:0.8;"/>
   </g>
   <g id="text_13">
    <!-- Plot of Train Data vs MCMC Uncertainty  -->
    <defs>
     <path d="M 19.671875 64.796875 
L 19.671875 37.40625 
L 32.078125 37.40625 
Q 38.96875 37.40625 42.71875 40.96875 
Q 46.484375 44.53125 46.484375 51.125 
Q 46.484375 57.671875 42.71875 61.234375 
Q 38.96875 64.796875 32.078125 64.796875 
z
M 9.8125 72.90625 
L 32.078125 72.90625 
Q 44.34375 72.90625 50.609375 67.359375 
Q 56.890625 61.8125 56.890625 51.125 
Q 56.890625 40.328125 50.609375 34.8125 
Q 44.34375 29.296875 32.078125 29.296875 
L 19.671875 29.296875 
L 19.671875 0 
L 9.8125 0 
z
" id="DejaVuSans-50"/>
     <path d="M 9.421875 75.984375 
L 18.40625 75.984375 
L 18.40625 0 
L 9.421875 0 
z
" id="DejaVuSans-6c"/>
     <path d="M 30.609375 48.390625 
Q 23.390625 48.390625 19.1875 42.75 
Q 14.984375 37.109375 14.984375 27.296875 
Q 14.984375 17.484375 19.15625 11.84375 
Q 23.34375 6.203125 30.609375 6.203125 
Q 37.796875 6.203125 41.984375 11.859375 
Q 46.1875 17.53125 46.1875 27.296875 
Q 46.1875 37.015625 41.984375 42.703125 
Q 37.796875 48.390625 30.609375 48.390625 
z
M 30.609375 56 
Q 42.328125 56 49.015625 48.375 
Q 55.71875 40.765625 55.71875 27.296875 
Q 55.71875 13.875 49.015625 6.21875 
Q 42.328125 -1.421875 30.609375 -1.421875 
Q 18.84375 -1.421875 12.171875 6.21875 
Q 5.515625 13.875 5.515625 27.296875 
Q 5.515625 40.765625 12.171875 48.375 
Q 18.84375 56 30.609375 56 
z
" id="DejaVuSans-6f"/>
     <path d="M 18.3125 70.21875 
L 18.3125 54.6875 
L 36.8125 54.6875 
L 36.8125 47.703125 
L 18.3125 47.703125 
L 18.3125 18.015625 
Q 18.3125 11.328125 20.140625 9.421875 
Q 21.96875 7.515625 27.59375 7.515625 
L 36.8125 7.515625 
L 36.8125 0 
L 27.59375 0 
Q 17.1875 0 13.234375 3.875 
Q 9.28125 7.765625 9.28125 18.015625 
L 9.28125 47.703125 
L 2.6875 47.703125 
L 2.6875 54.6875 
L 9.28125 54.6875 
L 9.28125 70.21875 
z
" id="DejaVuSans-74"/>
     <path id="DejaVuSans-20"/>
     <path d="M 37.109375 75.984375 
L 37.109375 68.5 
L 28.515625 68.5 
Q 23.6875 68.5 21.796875 66.546875 
Q 19.921875 64.59375 19.921875 59.515625 
L 19.921875 54.6875 
L 34.71875 54.6875 
L 34.71875 47.703125 
L 19.921875 47.703125 
L 19.921875 0 
L 10.890625 0 
L 10.890625 47.703125 
L 2.296875 47.703125 
L 2.296875 54.6875 
L 10.890625 54.6875 
L 10.890625 58.5 
Q 10.890625 67.625 15.140625 71.796875 
Q 19.390625 75.984375 28.609375 75.984375 
z
" id="DejaVuSans-66"/>
     <path d="M -0.296875 72.90625 
L 61.375 72.90625 
L 61.375 64.59375 
L 35.5 64.59375 
L 35.5 0 
L 25.59375 0 
L 25.59375 64.59375 
L -0.296875 64.59375 
z
" id="DejaVuSans-54"/>
     <path d="M 41.109375 46.296875 
Q 39.59375 47.171875 37.8125 47.578125 
Q 36.03125 48 33.890625 48 
Q 26.265625 48 22.1875 43.046875 
Q 18.109375 38.09375 18.109375 28.8125 
L 18.109375 0 
L 9.078125 0 
L 9.078125 54.6875 
L 18.109375 54.6875 
L 18.109375 46.1875 
Q 20.953125 51.171875 25.484375 53.578125 
Q 30.03125 56 36.53125 56 
Q 37.453125 56 38.578125 55.875 
Q 39.703125 55.765625 41.0625 55.515625 
z
" id="DejaVuSans-72"/>
     <path d="M 34.28125 27.484375 
Q 23.390625 27.484375 19.1875 25 
Q 14.984375 22.515625 14.984375 16.5 
Q 14.984375 11.71875 18.140625 8.90625 
Q 21.296875 6.109375 26.703125 6.109375 
Q 34.1875 6.109375 38.703125 11.40625 
Q 43.21875 16.703125 43.21875 25.484375 
L 43.21875 27.484375 
z
M 52.203125 31.203125 
L 52.203125 0 
L 43.21875 0 
L 43.21875 8.296875 
Q 40.140625 3.328125 35.546875 0.953125 
Q 30.953125 -1.421875 24.3125 -1.421875 
Q 15.921875 -1.421875 10.953125 3.296875 
Q 6 8.015625 6 15.921875 
Q 6 25.140625 12.171875 29.828125 
Q 18.359375 34.515625 30.609375 34.515625 
L 43.21875 34.515625 
L 43.21875 35.40625 
Q 43.21875 41.609375 39.140625 45 
Q 35.0625 48.390625 27.6875 48.390625 
Q 23 48.390625 18.546875 47.265625 
Q 14.109375 46.140625 10.015625 43.890625 
L 10.015625 52.203125 
Q 14.9375 54.109375 19.578125 55.046875 
Q 24.21875 56 28.609375 56 
Q 40.484375 56 46.34375 49.84375 
Q 52.203125 43.703125 52.203125 31.203125 
z
" id="DejaVuSans-61"/>
     <path d="M 9.421875 54.6875 
L 18.40625 54.6875 
L 18.40625 0 
L 9.421875 0 
z
M 9.421875 75.984375 
L 18.40625 75.984375 
L 18.40625 64.59375 
L 9.421875 64.59375 
z
" id="DejaVuSans-69"/>
     <path d="M 54.890625 33.015625 
L 54.890625 0 
L 45.90625 0 
L 45.90625 32.71875 
Q 45.90625 40.484375 42.875 44.328125 
Q 39.84375 48.1875 33.796875 48.1875 
Q 26.515625 48.1875 22.3125 43.546875 
Q 18.109375 38.921875 18.109375 30.90625 
L 18.109375 0 
L 9.078125 0 
L 9.078125 54.6875 
L 18.109375 54.6875 
L 18.109375 46.1875 
Q 21.34375 51.125 25.703125 53.5625 
Q 30.078125 56 35.796875 56 
Q 45.21875 56 50.046875 50.171875 
Q 54.890625 44.34375 54.890625 33.015625 
z
" id="DejaVuSans-6e"/>
     <path d="M 19.671875 64.796875 
L 19.671875 8.109375 
L 31.59375 8.109375 
Q 46.6875 8.109375 53.6875 14.9375 
Q 60.6875 21.78125 60.6875 36.53125 
Q 60.6875 51.171875 53.6875 57.984375 
Q 46.6875 64.796875 31.59375 64.796875 
z
M 9.8125 72.90625 
L 30.078125 72.90625 
Q 51.265625 72.90625 61.171875 64.09375 
Q 71.09375 55.28125 71.09375 36.53125 
Q 71.09375 17.671875 61.125 8.828125 
Q 51.171875 0 30.078125 0 
L 9.8125 0 
z
" id="DejaVuSans-44"/>
     <path d="M 2.984375 54.6875 
L 12.5 54.6875 
L 29.59375 8.796875 
L 46.6875 54.6875 
L 56.203125 54.6875 
L 35.6875 0 
L 23.484375 0 
z
" id="DejaVuSans-76"/>
     <path d="M 44.28125 53.078125 
L 44.28125 44.578125 
Q 40.484375 46.53125 36.375 47.5 
Q 32.28125 48.484375 27.875 48.484375 
Q 21.1875 48.484375 17.84375 46.4375 
Q 14.5 44.390625 14.5 40.28125 
Q 14.5 37.15625 16.890625 35.375 
Q 19.28125 33.59375 26.515625 31.984375 
L 29.59375 31.296875 
Q 39.15625 29.25 43.1875 25.515625 
Q 47.21875 21.78125 47.21875 15.09375 
Q 47.21875 7.46875 41.1875 3.015625 
Q 35.15625 -1.421875 24.609375 -1.421875 
Q 20.21875 -1.421875 15.453125 -0.5625 
Q 10.6875 0.296875 5.421875 2 
L 5.421875 11.28125 
Q 10.40625 8.6875 15.234375 7.390625 
Q 20.0625 6.109375 24.8125 6.109375 
Q 31.15625 6.109375 34.5625 8.28125 
Q 37.984375 10.453125 37.984375 14.40625 
Q 37.984375 18.0625 35.515625 20.015625 
Q 33.0625 21.96875 24.703125 23.78125 
L 21.578125 24.515625 
Q 13.234375 26.265625 9.515625 29.90625 
Q 5.8125 33.546875 5.8125 39.890625 
Q 5.8125 47.609375 11.28125 51.796875 
Q 16.75 56 26.8125 56 
Q 31.78125 56 36.171875 55.265625 
Q 40.578125 54.546875 44.28125 53.078125 
z
" id="DejaVuSans-73"/>
     <path d="M 9.8125 72.90625 
L 24.515625 72.90625 
L 43.109375 23.296875 
L 61.8125 72.90625 
L 76.515625 72.90625 
L 76.515625 0 
L 66.890625 0 
L 66.890625 64.015625 
L 48.09375 14.015625 
L 38.1875 14.015625 
L 19.390625 64.015625 
L 19.390625 0 
L 9.8125 0 
z
" id="DejaVuSans-4d"/>
     <path d="M 64.40625 67.28125 
L 64.40625 56.890625 
Q 59.421875 61.53125 53.78125 63.8125 
Q 48.140625 66.109375 41.796875 66.109375 
Q 29.296875 66.109375 22.65625 58.46875 
Q 16.015625 50.828125 16.015625 36.375 
Q 16.015625 21.96875 22.65625 14.328125 
Q 29.296875 6.6875 41.796875 6.6875 
Q 48.140625 6.6875 53.78125 8.984375 
Q 59.421875 11.28125 64.40625 15.921875 
L 64.40625 5.609375 
Q 59.234375 2.09375 53.4375 0.328125 
Q 47.65625 -1.421875 41.21875 -1.421875 
Q 24.65625 -1.421875 15.125 8.703125 
Q 5.609375 18.84375 5.609375 36.375 
Q 5.609375 53.953125 15.125 64.078125 
Q 24.65625 74.21875 41.21875 74.21875 
Q 47.75 74.21875 53.53125 72.484375 
Q 59.328125 70.75 64.40625 67.28125 
z
" id="DejaVuSans-43"/>
     <path d="M 8.6875 72.90625 
L 18.609375 72.90625 
L 18.609375 28.609375 
Q 18.609375 16.890625 22.84375 11.734375 
Q 27.09375 6.59375 36.625 6.59375 
Q 46.09375 6.59375 50.34375 11.734375 
Q 54.59375 16.890625 54.59375 28.609375 
L 54.59375 72.90625 
L 64.5 72.90625 
L 64.5 27.390625 
Q 64.5 13.140625 57.4375 5.859375 
Q 50.390625 -1.421875 36.625 -1.421875 
Q 22.796875 -1.421875 15.734375 5.859375 
Q 8.6875 13.140625 8.6875 27.390625 
z
" id="DejaVuSans-55"/>
     <path d="M 48.78125 52.59375 
L 48.78125 44.1875 
Q 44.96875 46.296875 41.140625 47.34375 
Q 37.3125 48.390625 33.40625 48.390625 
Q 24.65625 48.390625 19.8125 42.84375 
Q 14.984375 37.3125 14.984375 27.296875 
Q 14.984375 17.28125 19.8125 11.734375 
Q 24.65625 6.203125 33.40625 6.203125 
Q 37.3125 6.203125 41.140625 7.25 
Q 44.96875 8.296875 48.78125 10.40625 
L 48.78125 2.09375 
Q 45.015625 0.34375 40.984375 -0.53125 
Q 36.96875 -1.421875 32.421875 -1.421875 
Q 20.0625 -1.421875 12.78125 6.34375 
Q 5.515625 14.109375 5.515625 27.296875 
Q 5.515625 40.671875 12.859375 48.328125 
Q 20.21875 56 33.015625 56 
Q 37.15625 56 41.109375 55.140625 
Q 45.0625 54.296875 48.78125 52.59375 
z
" id="DejaVuSans-63"/>
     <path d="M 56.203125 29.59375 
L 56.203125 25.203125 
L 14.890625 25.203125 
Q 15.484375 15.921875 20.484375 11.0625 
Q 25.484375 6.203125 34.421875 6.203125 
Q 39.59375 6.203125 44.453125 7.46875 
Q 49.3125 8.734375 54.109375 11.28125 
L 54.109375 2.78125 
Q 49.265625 0.734375 44.1875 -0.34375 
Q 39.109375 -1.421875 33.890625 -1.421875 
Q 20.796875 -1.421875 13.15625 6.1875 
Q 5.515625 13.8125 5.515625 26.8125 
Q 5.515625 40.234375 12.765625 48.109375 
Q 20.015625 56 32.328125 56 
Q 43.359375 56 49.78125 48.890625 
Q 56.203125 41.796875 56.203125 29.59375 
z
M 47.21875 32.234375 
Q 47.125 39.59375 43.09375 43.984375 
Q 39.0625 48.390625 32.421875 48.390625 
Q 24.90625 48.390625 20.390625 44.140625 
Q 15.875 39.890625 15.1875 32.171875 
z
" id="DejaVuSans-65"/>
     <path d="M 32.171875 -5.078125 
Q 28.375 -14.84375 24.75 -17.8125 
Q 21.140625 -20.796875 15.09375 -20.796875 
L 7.90625 -20.796875 
L 7.90625 -13.28125 
L 13.1875 -13.28125 
Q 16.890625 -13.28125 18.9375 -11.515625 
Q 21 -9.765625 23.484375 -3.21875 
L 25.09375 0.875 
L 2.984375 54.6875 
L 12.5 54.6875 
L 29.59375 11.921875 
L 46.6875 54.6875 
L 56.203125 54.6875 
z
" id="DejaVuSans-79"/>
    </defs>
    <g transform="translate(260.846875 97.68)scale(0.12 -0.12)">
     <use xlink:href="#DejaVuSans-50"/>
     <use x="60.302734" xlink:href="#DejaVuSans-6c"/>
     <use x="88.085938" xlink:href="#DejaVuSans-6f"/>
     <use x="149.267578" xlink:href="#DejaVuSans-74"/>
     <use x="188.476562" xlink:href="#DejaVuSans-20"/>
     <use x="220.263672" xlink:href="#DejaVuSans-6f"/>
     <use x="281.445312" xlink:href="#DejaVuSans-66"/>
     <use x="316.650391" xlink:href="#DejaVuSans-20"/>
     <use x="348.4375" xlink:href="#DejaVuSans-54"/>
     <use x="409.302734" xlink:href="#DejaVuSans-72"/>
     <use x="450.416016" xlink:href="#DejaVuSans-61"/>
     <use x="511.695312" xlink:href="#DejaVuSans-69"/>
     <use x="539.478516" xlink:href="#DejaVuSans-6e"/>
     <use x="602.857422" xlink:href="#DejaVuSans-20"/>
     <use x="634.644531" xlink:href="#DejaVuSans-44"/>
     <use x="711.646484" xlink:href="#DejaVuSans-61"/>
     <use x="772.925781" xlink:href="#DejaVuSans-74"/>
     <use x="812.134766" xlink:href="#DejaVuSans-61"/>
     <use x="873.414062" xlink:href="#DejaVuSans-20"/>
     <use x="905.201172" xlink:href="#DejaVuSans-76"/>
     <use x="964.380859" xlink:href="#DejaVuSans-73"/>
     <use x="1016.480469" xlink:href="#DejaVuSans-20"/>
     <use x="1048.267578" xlink:href="#DejaVuSans-4d"/>
     <use x="1134.546875" xlink:href="#DejaVuSans-43"/>
     <use x="1204.371094" xlink:href="#DejaVuSans-4d"/>
     <use x="1290.650391" xlink:href="#DejaVuSans-43"/>
     <use x="1360.474609" xlink:href="#DejaVuSans-20"/>
     <use x="1392.261719" xlink:href="#DejaVuSans-55"/>
     <use x="1465.455078" xlink:href="#DejaVuSans-6e"/>
     <use x="1528.833984" xlink:href="#DejaVuSans-63"/>
     <use x="1583.814453" xlink:href="#DejaVuSans-65"/>
     <use x="1645.337891" xlink:href="#DejaVuSans-72"/>
     <use x="1686.451172" xlink:href="#DejaVuSans-74"/>
     <use x="1725.660156" xlink:href="#DejaVuSans-61"/>
     <use x="1786.939453" xlink:href="#DejaVuSans-69"/>
     <use x="1814.722656" xlink:href="#DejaVuSans-6e"/>
     <use x="1878.101562" xlink:href="#DejaVuSans-74"/>
     <use x="1917.310547" xlink:href="#DejaVuSans-79"/>
     <use x="1976.490234" xlink:href="#DejaVuSans-20"/>
    </g>
   </g>
   <g id="legend_1">
    <g id="patch_7">
     <path d="M 569.803438 170.3925 
L 699.68 170.3925 
Q 701.68 170.3925 701.68 168.3925 
L 701.68 110.68 
Q 701.68 108.68 699.68 108.68 
L 569.803438 108.68 
Q 567.803438 108.68 567.803438 110.68 
L 567.803438 168.3925 
Q 567.803438 170.3925 569.803438 170.3925 
z
" style="fill:#ffffff;opacity:0.8;stroke:#cccccc;stroke-linejoin:miter;"/>
    </g>
    <g id="line2d_17">
     <path d="M 571.803438 116.778437 
L 591.803438 116.778437 
" style="fill:none;stroke:#1f77b4;stroke-linecap:square;stroke-width:1.5;"/>
    </g>
    <g id="line2d_18"/>
    <g id="text_14">
     <!-- actual -->
     <defs>
      <path d="M 8.5 21.578125 
L 8.5 54.6875 
L 17.484375 54.6875 
L 17.484375 21.921875 
Q 17.484375 14.15625 20.5 10.265625 
Q 23.53125 6.390625 29.59375 6.390625 
Q 36.859375 6.390625 41.078125 11.03125 
Q 45.3125 15.671875 45.3125 23.6875 
L 45.3125 54.6875 
L 54.296875 54.6875 
L 54.296875 0 
L 45.3125 0 
L 45.3125 8.40625 
Q 42.046875 3.421875 37.71875 1 
Q 33.40625 -1.421875 27.6875 -1.421875 
Q 18.265625 -1.421875 13.375 4.4375 
Q 8.5 10.296875 8.5 21.578125 
z
M 31.109375 56 
z
" id="DejaVuSans-75"/>
     </defs>
     <g transform="translate(599.803438 120.278437)scale(0.1 -0.1)">
      <use xlink:href="#DejaVuSans-61"/>
      <use x="61.279297" xlink:href="#DejaVuSans-63"/>
      <use x="116.259766" xlink:href="#DejaVuSans-74"/>
      <use x="155.46875" xlink:href="#DejaVuSans-75"/>
      <use x="218.847656" xlink:href="#DejaVuSans-61"/>
      <use x="280.126953" xlink:href="#DejaVuSans-6c"/>
     </g>
    </g>
    <g id="line2d_19">
     <path d="M 571.803438 131.456562 
L 591.803438 131.456562 
" style="fill:none;stroke:#ff7f0e;stroke-linecap:square;stroke-width:1.5;"/>
    </g>
    <g id="line2d_20"/>
    <g id="text_15">
     <!-- pred. (mean) -->
     <defs>
      <path d="M 18.109375 8.203125 
L 18.109375 -20.796875 
L 9.078125 -20.796875 
L 9.078125 54.6875 
L 18.109375 54.6875 
L 18.109375 46.390625 
Q 20.953125 51.265625 25.265625 53.625 
Q 29.59375 56 35.59375 56 
Q 45.5625 56 51.78125 48.09375 
Q 58.015625 40.1875 58.015625 27.296875 
Q 58.015625 14.40625 51.78125 6.484375 
Q 45.5625 -1.421875 35.59375 -1.421875 
Q 29.59375 -1.421875 25.265625 0.953125 
Q 20.953125 3.328125 18.109375 8.203125 
z
M 48.6875 27.296875 
Q 48.6875 37.203125 44.609375 42.84375 
Q 40.53125 48.484375 33.40625 48.484375 
Q 26.265625 48.484375 22.1875 42.84375 
Q 18.109375 37.203125 18.109375 27.296875 
Q 18.109375 17.390625 22.1875 11.75 
Q 26.265625 6.109375 33.40625 6.109375 
Q 40.53125 6.109375 44.609375 11.75 
Q 48.6875 17.390625 48.6875 27.296875 
z
" id="DejaVuSans-70"/>
      <path d="M 45.40625 46.390625 
L 45.40625 75.984375 
L 54.390625 75.984375 
L 54.390625 0 
L 45.40625 0 
L 45.40625 8.203125 
Q 42.578125 3.328125 38.25 0.953125 
Q 33.9375 -1.421875 27.875 -1.421875 
Q 17.96875 -1.421875 11.734375 6.484375 
Q 5.515625 14.40625 5.515625 27.296875 
Q 5.515625 40.1875 11.734375 48.09375 
Q 17.96875 56 27.875 56 
Q 33.9375 56 38.25 53.625 
Q 42.578125 51.265625 45.40625 46.390625 
z
M 14.796875 27.296875 
Q 14.796875 17.390625 18.875 11.75 
Q 22.953125 6.109375 30.078125 6.109375 
Q 37.203125 6.109375 41.296875 11.75 
Q 45.40625 17.390625 45.40625 27.296875 
Q 45.40625 37.203125 41.296875 42.84375 
Q 37.203125 48.484375 30.078125 48.484375 
Q 22.953125 48.484375 18.875 42.84375 
Q 14.796875 37.203125 14.796875 27.296875 
z
" id="DejaVuSans-64"/>
      <path d="M 31 75.875 
Q 24.46875 64.65625 21.28125 53.65625 
Q 18.109375 42.671875 18.109375 31.390625 
Q 18.109375 20.125 21.3125 9.0625 
Q 24.515625 -2 31 -13.1875 
L 23.1875 -13.1875 
Q 15.875 -1.703125 12.234375 9.375 
Q 8.59375 20.453125 8.59375 31.390625 
Q 8.59375 42.28125 12.203125 53.3125 
Q 15.828125 64.359375 23.1875 75.875 
z
" id="DejaVuSans-28"/>
      <path d="M 52 44.1875 
Q 55.375 50.25 60.0625 53.125 
Q 64.75 56 71.09375 56 
Q 79.640625 56 84.28125 50.015625 
Q 88.921875 44.046875 88.921875 33.015625 
L 88.921875 0 
L 79.890625 0 
L 79.890625 32.71875 
Q 79.890625 40.578125 77.09375 44.375 
Q 74.3125 48.1875 68.609375 48.1875 
Q 61.625 48.1875 57.5625 43.546875 
Q 53.515625 38.921875 53.515625 30.90625 
L 53.515625 0 
L 44.484375 0 
L 44.484375 32.71875 
Q 44.484375 40.625 41.703125 44.40625 
Q 38.921875 48.1875 33.109375 48.1875 
Q 26.21875 48.1875 22.15625 43.53125 
Q 18.109375 38.875 18.109375 30.90625 
L 18.109375 0 
L 9.078125 0 
L 9.078125 54.6875 
L 18.109375 54.6875 
L 18.109375 46.1875 
Q 21.1875 51.21875 25.484375 53.609375 
Q 29.78125 56 35.6875 56 
Q 41.65625 56 45.828125 52.96875 
Q 50 49.953125 52 44.1875 
z
" id="DejaVuSans-6d"/>
      <path d="M 8.015625 75.875 
L 15.828125 75.875 
Q 23.140625 64.359375 26.78125 53.3125 
Q 30.421875 42.28125 30.421875 31.390625 
Q 30.421875 20.453125 26.78125 9.375 
Q 23.140625 -1.703125 15.828125 -13.1875 
L 8.015625 -13.1875 
Q 14.5 -2 17.703125 9.0625 
Q 20.90625 20.125 20.90625 31.390625 
Q 20.90625 42.671875 17.703125 53.65625 
Q 14.5 64.65625 8.015625 75.875 
z
" id="DejaVuSans-29"/>
     </defs>
     <g transform="translate(599.803438 134.956562)scale(0.1 -0.1)">
      <use xlink:href="#DejaVuSans-70"/>
      <use x="63.476562" xlink:href="#DejaVuSans-72"/>
      <use x="104.558594" xlink:href="#DejaVuSans-65"/>
      <use x="166.082031" xlink:href="#DejaVuSans-64"/>
      <use x="229.558594" xlink:href="#DejaVuSans-2e"/>
      <use x="261.345703" xlink:href="#DejaVuSans-20"/>
      <use x="293.132812" xlink:href="#DejaVuSans-28"/>
      <use x="332.146484" xlink:href="#DejaVuSans-6d"/>
      <use x="429.558594" xlink:href="#DejaVuSans-65"/>
      <use x="491.082031" xlink:href="#DejaVuSans-61"/>
      <use x="552.361328" xlink:href="#DejaVuSans-6e"/>
      <use x="615.740234" xlink:href="#DejaVuSans-29"/>
     </g>
    </g>
    <g id="line2d_21">
     <path d="M 571.803438 146.134687 
L 591.803438 146.134687 
" style="fill:none;stroke:#2ca02c;stroke-linecap:square;stroke-width:1.5;"/>
    </g>
    <g id="line2d_22"/>
    <g id="text_16">
     <!-- pred.(5th percen.) -->
     <defs>
      <path d="M 10.796875 72.90625 
L 49.515625 72.90625 
L 49.515625 64.59375 
L 19.828125 64.59375 
L 19.828125 46.734375 
Q 21.96875 47.46875 24.109375 47.828125 
Q 26.265625 48.1875 28.421875 48.1875 
Q 40.625 48.1875 47.75 41.5 
Q 54.890625 34.8125 54.890625 23.390625 
Q 54.890625 11.625 47.5625 5.09375 
Q 40.234375 -1.421875 26.90625 -1.421875 
Q 22.3125 -1.421875 17.546875 -0.640625 
Q 12.796875 0.140625 7.71875 1.703125 
L 7.71875 11.625 
Q 12.109375 9.234375 16.796875 8.0625 
Q 21.484375 6.890625 26.703125 6.890625 
Q 35.15625 6.890625 40.078125 11.328125 
Q 45.015625 15.765625 45.015625 23.390625 
Q 45.015625 31 40.078125 35.4375 
Q 35.15625 39.890625 26.703125 39.890625 
Q 22.75 39.890625 18.8125 39.015625 
Q 14.890625 38.140625 10.796875 36.28125 
z
" id="DejaVuSans-35"/>
      <path d="M 54.890625 33.015625 
L 54.890625 0 
L 45.90625 0 
L 45.90625 32.71875 
Q 45.90625 40.484375 42.875 44.328125 
Q 39.84375 48.1875 33.796875 48.1875 
Q 26.515625 48.1875 22.3125 43.546875 
Q 18.109375 38.921875 18.109375 30.90625 
L 18.109375 0 
L 9.078125 0 
L 9.078125 75.984375 
L 18.109375 75.984375 
L 18.109375 46.1875 
Q 21.34375 51.125 25.703125 53.5625 
Q 30.078125 56 35.796875 56 
Q 45.21875 56 50.046875 50.171875 
Q 54.890625 44.34375 54.890625 33.015625 
z
" id="DejaVuSans-68"/>
     </defs>
     <g transform="translate(599.803438 149.634687)scale(0.1 -0.1)">
      <use xlink:href="#DejaVuSans-70"/>
      <use x="63.476562" xlink:href="#DejaVuSans-72"/>
      <use x="104.558594" xlink:href="#DejaVuSans-65"/>
      <use x="166.082031" xlink:href="#DejaVuSans-64"/>
      <use x="229.558594" xlink:href="#DejaVuSans-2e"/>
      <use x="261.345703" xlink:href="#DejaVuSans-28"/>
      <use x="300.359375" xlink:href="#DejaVuSans-35"/>
      <use x="363.982422" xlink:href="#DejaVuSans-74"/>
      <use x="403.191406" xlink:href="#DejaVuSans-68"/>
      <use x="466.570312" xlink:href="#DejaVuSans-20"/>
      <use x="498.357422" xlink:href="#DejaVuSans-70"/>
      <use x="561.833984" xlink:href="#DejaVuSans-65"/>
      <use x="623.357422" xlink:href="#DejaVuSans-72"/>
      <use x="664.439453" xlink:href="#DejaVuSans-63"/>
      <use x="719.419922" xlink:href="#DejaVuSans-65"/>
      <use x="780.943359" xlink:href="#DejaVuSans-6e"/>
      <use x="844.322266" xlink:href="#DejaVuSans-2e"/>
      <use x="876.109375" xlink:href="#DejaVuSans-29"/>
     </g>
    </g>
    <g id="line2d_23">
     <path d="M 571.803438 160.812812 
L 591.803438 160.812812 
" style="fill:none;stroke:#d62728;stroke-linecap:square;stroke-width:1.5;"/>
    </g>
    <g id="line2d_24"/>
    <g id="text_17">
     <!-- pred.(95th percen.) -->
     <defs>
      <path d="M 10.984375 1.515625 
L 10.984375 10.5 
Q 14.703125 8.734375 18.5 7.8125 
Q 22.3125 6.890625 25.984375 6.890625 
Q 35.75 6.890625 40.890625 13.453125 
Q 46.046875 20.015625 46.78125 33.40625 
Q 43.953125 29.203125 39.59375 26.953125 
Q 35.25 24.703125 29.984375 24.703125 
Q 19.046875 24.703125 12.671875 31.3125 
Q 6.296875 37.9375 6.296875 49.421875 
Q 6.296875 60.640625 12.9375 67.421875 
Q 19.578125 74.21875 30.609375 74.21875 
Q 43.265625 74.21875 49.921875 64.515625 
Q 56.59375 54.828125 56.59375 36.375 
Q 56.59375 19.140625 48.40625 8.859375 
Q 40.234375 -1.421875 26.421875 -1.421875 
Q 22.703125 -1.421875 18.890625 -0.6875 
Q 15.09375 0.046875 10.984375 1.515625 
z
M 30.609375 32.421875 
Q 37.25 32.421875 41.125 36.953125 
Q 45.015625 41.5 45.015625 49.421875 
Q 45.015625 57.28125 41.125 61.84375 
Q 37.25 66.40625 30.609375 66.40625 
Q 23.96875 66.40625 20.09375 61.84375 
Q 16.21875 57.28125 16.21875 49.421875 
Q 16.21875 41.5 20.09375 36.953125 
Q 23.96875 32.421875 30.609375 32.421875 
z
" id="DejaVuSans-39"/>
     </defs>
     <g transform="translate(599.803438 164.312812)scale(0.1 -0.1)">
      <use xlink:href="#DejaVuSans-70"/>
      <use x="63.476562" xlink:href="#DejaVuSans-72"/>
      <use x="104.558594" xlink:href="#DejaVuSans-65"/>
      <use x="166.082031" xlink:href="#DejaVuSans-64"/>
      <use x="229.558594" xlink:href="#DejaVuSans-2e"/>
      <use x="261.345703" xlink:href="#DejaVuSans-28"/>
      <use x="300.359375" xlink:href="#DejaVuSans-39"/>
      <use x="363.982422" xlink:href="#DejaVuSans-35"/>
      <use x="427.605469" xlink:href="#DejaVuSans-74"/>
      <use x="466.814453" xlink:href="#DejaVuSans-68"/>
      <use x="530.193359" xlink:href="#DejaVuSans-20"/>
      <use x="561.980469" xlink:href="#DejaVuSans-70"/>
      <use x="625.457031" xlink:href="#DejaVuSans-65"/>
      <use x="686.980469" xlink:href="#DejaVuSans-72"/>
      <use x="728.0625" xlink:href="#DejaVuSans-63"/>
      <use x="783.042969" xlink:href="#DejaVuSans-65"/>
      <use x="844.566406" xlink:href="#DejaVuSans-6e"/>
      <use x="907.945312" xlink:href="#DejaVuSans-2e"/>
      <use x="939.732422" xlink:href="#DejaVuSans-29"/>
     </g>
    </g>
   </g>
  </g>
 </g>
 <defs>
  <clipPath id="pae62766e6d">
   <rect height="289.92" width="650.68" x="56" y="103.68"/>
  </clipPath>
 </defs>
</svg>
