<?xml version="1.0" encoding="utf-8" standalone="no"?>
<!DOCTYPE svg PUBLIC "-//W3C//DTD SVG 1.1//EN"
  "http://www.w3.org/Graphics/SVG/1.1/DTD/svg11.dtd">
<!-- Created with matplotlib (http://matplotlib.org/) -->
<svg height="345.6pt" version="1.1" viewBox="0 0 460.8 345.6" width="460.8pt" xmlns="http://www.w3.org/2000/svg" xmlns:xlink="http://www.w3.org/1999/xlink">
 <defs>
  <style type="text/css">
*{stroke-linecap:butt;stroke-linejoin:round;}
  </style>
 </defs>
 <g id="figure_1">
  <g id="patch_1">
   <path d="M 0 345.6 
L 460.8 345.6 
L 460.8 0 
L 0 0 
z
" style="fill:#ffffff;"/>
  </g>
  <g id="axes_1">
   <g id="patch_2">
    <path d="M 57.6 307.584 
L 414.72 307.584 
L 414.72 41.472 
L 57.6 41.472 
z
" style="fill:#ffffff;"/>
   </g>
   <g id="PolyCollection_1">
    <path clip-path="url(#p57312ad01b)" d="M 73.832727 65.090597 
L 73.832727 191.839166 
L 75.48072 191.839166 
L 77.128713 191.839166 
L 78.776705 191.839166 
L 80.424698 195.680032 
L 82.07269 195.680032 
L 83.720683 195.680032 
L 85.368676 199.520897 
L 87.016668 195.680032 
L 88.664661 195.680032 
L 90.312653 199.520897 
L 91.960646 199.520897 
L 93.608639 199.520897 
L 95.256631 199.520897 
L 96.904624 207.202629 
L 98.552617 211.043494 
L 100.200609 218.725226 
L 101.848602 218.725226 
L 103.496594 222.566092 
L 105.144587 230.247823 
L 106.79258 230.247823 
L 108.440572 230.247823 
L 110.088565 234.088689 
L 111.736557 230.247823 
L 113.38455 230.247823 
L 115.032543 230.247823 
L 116.680535 234.088689 
L 118.328528 234.088689 
L 119.976521 234.088689 
L 121.624513 234.088689 
L 123.272506 237.929555 
L 124.920498 237.353425 
L 126.568491 237.929555 
L 128.216484 234.088689 
L 129.864476 234.088689 
L 131.512469 234.088689 
L 133.160461 234.088689 
L 134.808454 237.353425 
L 136.456447 237.929555 
L 138.104439 237.929555 
L 139.752432 234.088689 
L 141.400425 234.088689 
L 143.048417 234.088689 
L 144.69641 230.247823 
L 146.344402 226.406957 
L 147.992395 222.566092 
L 149.640388 214.88436 
L 151.28838 211.043494 
L 152.936373 203.361763 
L 154.584365 199.520897 
L 156.232358 195.680032 
L 157.880351 195.680032 
L 159.528343 195.680032 
L 161.176336 191.839166 
L 162.824329 191.839166 
L 164.472321 191.839166 
L 166.120314 191.839166 
L 167.768306 191.839166 
L 169.416299 191.839166 
L 171.064292 191.839166 
L 172.712284 191.839166 
L 174.360277 191.839166 
L 176.008269 191.839166 
L 177.656262 191.839166 
L 179.304255 191.839166 
L 180.952247 191.839166 
L 182.60024 191.839166 
L 184.248233 191.839166 
L 185.896225 195.680032 
L 187.544218 195.680032 
L 189.19221 195.680032 
L 190.840203 195.680032 
L 192.488196 195.680032 
L 194.136188 199.520897 
L 195.784181 199.520897 
L 197.432174 199.520897 
L 199.080166 199.520897 
L 200.728159 203.361763 
L 202.376151 207.202629 
L 204.024144 211.043494 
L 205.672137 211.043494 
L 207.320129 214.88436 
L 208.968122 214.88436 
L 210.616114 218.725226 
L 212.264107 218.725226 
L 213.9121 218.725226 
L 215.560092 218.725226 
L 217.208085 218.725226 
L 218.856078 218.725226 
L 220.50407 218.725226 
L 222.152063 222.566092 
L 223.800055 222.566092 
L 225.448048 226.406957 
L 227.096041 226.406957 
L 228.744033 230.247823 
L 230.392026 234.088689 
L 232.040018 234.088689 
L 233.688011 234.088689 
L 235.336004 234.088689 
L 236.983996 234.088689 
L 238.631989 234.088689 
L 240.279982 234.088689 
L 241.927974 234.088689 
L 243.575967 234.088689 
L 245.223959 237.929555 
L 246.871952 237.929555 
L 248.519945 237.929555 
L 250.167937 237.929555 
L 251.81593 237.929555 
L 253.463922 237.929555 
L 255.111915 237.929555 
L 256.759908 237.929555 
L 258.4079 237.929555 
L 260.055893 237.929555 
L 261.703886 234.088689 
L 263.351878 234.088689 
L 264.999871 234.088689 
L 266.647863 230.247823 
L 268.295856 226.406957 
L 269.943849 222.566092 
L 271.591841 218.725226 
L 273.239834 214.88436 
L 274.887826 211.043494 
L 276.535819 207.202629 
L 278.183812 207.202629 
L 279.831804 203.361763 
L 281.479797 199.520897 
L 283.12779 199.520897 
L 284.775782 199.520897 
L 286.423775 199.520897 
L 288.071767 195.680032 
L 289.71976 195.680032 
L 291.367753 195.680032 
L 293.015745 195.680032 
L 294.663738 195.680032 
L 296.311731 195.680032 
L 297.959723 195.680032 
L 299.607716 199.520897 
L 301.255708 195.680032 
L 302.903701 195.680032 
L 304.551694 195.680032 
L 306.199686 199.520897 
L 307.847679 195.680032 
L 309.495671 195.680032 
L 311.143664 199.520897 
L 312.791657 199.520897 
L 314.439649 199.520897 
L 316.087642 199.520897 
L 317.735635 199.520897 
L 319.383627 199.520897 
L 321.03162 199.520897 
L 322.679612 199.520897 
L 324.327605 199.520897 
L 325.975598 199.520897 
L 327.62359 203.361763 
L 329.271583 203.361763 
L 330.919575 207.202629 
L 332.567568 211.043494 
L 334.215561 214.88436 
L 335.863553 214.88436 
L 337.511546 218.725226 
L 339.159539 226.406957 
L 340.807531 230.247823 
L 342.455524 230.247823 
L 344.103516 230.247823 
L 345.751509 234.088689 
L 347.399502 234.088689 
L 349.047494 237.929555 
L 350.695487 237.929555 
L 352.343479 237.929555 
L 353.991472 237.929555 
L 355.639465 237.929555 
L 357.287457 237.929555 
L 358.93545 237.929555 
L 360.583443 237.929555 
L 362.231435 237.929555 
L 363.879428 237.929555 
L 365.52742 237.929555 
L 367.175413 237.929555 
L 368.823406 237.929555 
L 370.471398 237.929555 
L 372.119391 237.929555 
L 373.767383 237.929555 
L 375.415376 234.088689 
L 377.063369 234.088689 
L 378.711361 234.088689 
L 380.359354 230.247823 
L 382.007347 226.406957 
L 383.655339 218.725226 
L 385.303332 211.043494 
L 386.951324 203.361763 
L 388.599317 199.520897 
L 390.24731 199.520897 
L 391.895302 195.680032 
L 393.543295 195.680032 
L 395.191287 199.520897 
L 396.83928 199.520897 
L 398.487273 195.680032 
L 398.487273 68.931463 
L 398.487273 68.931463 
L 396.83928 68.931463 
L 395.191287 68.931463 
L 393.543295 68.931463 
L 391.895302 68.931463 
L 390.24731 72.772329 
L 388.599317 72.772329 
L 386.951324 72.772329 
L 385.303332 76.613194 
L 383.655339 80.45406 
L 382.007347 80.45406 
L 380.359354 84.294926 
L 378.711361 84.294926 
L 377.063369 84.294926 
L 375.415376 84.294926 
L 373.767383 84.294926 
L 372.119391 84.294926 
L 370.471398 88.135791 
L 368.823406 88.135791 
L 367.175413 88.135791 
L 365.52742 88.135791 
L 363.879428 84.294926 
L 362.231435 84.294926 
L 360.583443 84.294926 
L 358.93545 84.294926 
L 357.287457 84.294926 
L 355.639465 84.294926 
L 353.991472 84.294926 
L 352.343479 84.294926 
L 350.695487 84.294926 
L 349.047494 84.294926 
L 347.399502 84.294926 
L 345.751509 84.294926 
L 344.103516 84.294926 
L 342.455524 84.294926 
L 340.807531 84.294926 
L 339.159539 84.294926 
L 337.511546 80.45406 
L 335.863553 80.45406 
L 334.215561 80.45406 
L 332.567568 76.613194 
L 330.919575 76.613194 
L 329.271583 72.772329 
L 327.62359 76.613194 
L 325.975598 72.772329 
L 324.327605 72.772329 
L 322.679612 68.931463 
L 321.03162 68.931463 
L 319.383627 72.772329 
L 317.735635 72.772329 
L 316.087642 68.931463 
L 314.439649 72.772329 
L 312.791657 72.772329 
L 311.143664 72.772329 
L 309.495671 68.931463 
L 307.847679 65.090597 
L 306.199686 68.931463 
L 304.551694 68.931463 
L 302.903701 65.090597 
L 301.255708 65.090597 
L 299.607716 68.931463 
L 297.959723 68.931463 
L 296.311731 65.090597 
L 294.663738 65.090597 
L 293.015745 68.931463 
L 291.367753 68.931463 
L 289.71976 65.090597 
L 288.071767 68.931463 
L 286.423775 68.931463 
L 284.775782 68.931463 
L 283.12779 72.772329 
L 281.479797 72.772329 
L 279.831804 72.772329 
L 278.183812 76.613194 
L 276.535819 76.613194 
L 274.887826 76.613194 
L 273.239834 80.45406 
L 271.591841 80.45406 
L 269.943849 80.45406 
L 268.295856 80.45406 
L 266.647863 84.294926 
L 264.999871 84.294926 
L 263.351878 84.294926 
L 261.703886 84.294926 
L 260.055893 84.294926 
L 258.4079 84.294926 
L 256.759908 84.294926 
L 255.111915 84.294926 
L 253.463922 84.294926 
L 251.81593 84.294926 
L 250.167937 84.294926 
L 248.519945 84.294926 
L 246.871952 84.294926 
L 245.223959 84.294926 
L 243.575967 84.294926 
L 241.927974 84.294926 
L 240.279982 84.294926 
L 238.631989 84.294926 
L 236.983996 84.294926 
L 235.336004 84.294926 
L 233.688011 84.294926 
L 232.040018 84.294926 
L 230.392026 84.294926 
L 228.744033 84.294926 
L 227.096041 84.294926 
L 225.448048 80.45406 
L 223.800055 80.45406 
L 222.152063 80.45406 
L 220.50407 80.45406 
L 218.856078 80.45406 
L 217.208085 80.45406 
L 215.560092 80.45406 
L 213.9121 80.45406 
L 212.264107 80.45406 
L 210.616114 80.45406 
L 208.968122 80.45406 
L 207.320129 80.45406 
L 205.672137 76.613194 
L 204.024144 76.613194 
L 202.376151 76.613194 
L 200.728159 72.772329 
L 199.080166 72.772329 
L 197.432174 72.772329 
L 195.784181 72.772329 
L 194.136188 68.931463 
L 192.488196 68.931463 
L 190.840203 65.090597 
L 189.19221 65.090597 
L 187.544218 65.090597 
L 185.896225 65.090597 
L 184.248233 61.249731 
L 182.60024 61.249731 
L 180.952247 61.249731 
L 179.304255 57.408866 
L 177.656262 57.408866 
L 176.008269 53.568 
L 174.360277 57.408866 
L 172.712284 53.568 
L 171.064292 57.408866 
L 169.416299 57.408866 
L 167.768306 57.408866 
L 166.120314 61.249731 
L 164.472321 61.249731 
L 162.824329 61.249731 
L 161.176336 61.249731 
L 159.528343 65.090597 
L 157.880351 65.090597 
L 156.232358 68.931463 
L 154.584365 68.931463 
L 152.936373 72.772329 
L 151.28838 76.613194 
L 149.640388 76.613194 
L 147.992395 80.45406 
L 146.344402 80.45406 
L 144.69641 84.294926 
L 143.048417 84.294926 
L 141.400425 84.294926 
L 139.752432 84.294926 
L 138.104439 84.294926 
L 136.456447 84.294926 
L 134.808454 84.294926 
L 133.160461 84.294926 
L 131.512469 84.294926 
L 129.864476 84.294926 
L 128.216484 84.294926 
L 126.568491 84.294926 
L 124.920498 84.294926 
L 123.272506 84.294926 
L 121.624513 84.294926 
L 119.976521 84.294926 
L 118.328528 84.294926 
L 116.680535 84.294926 
L 115.032543 84.294926 
L 113.38455 84.294926 
L 111.736557 84.294926 
L 110.088565 84.294926 
L 108.440572 84.294926 
L 106.79258 84.294926 
L 105.144587 84.294926 
L 103.496594 80.45406 
L 101.848602 80.45406 
L 100.200609 80.45406 
L 98.552617 76.613194 
L 96.904624 76.613194 
L 95.256631 72.772329 
L 93.608639 72.772329 
L 91.960646 72.772329 
L 90.312653 68.931463 
L 88.664661 68.931463 
L 87.016668 68.931463 
L 85.368676 68.931463 
L 83.720683 68.931463 
L 82.07269 65.090597 
L 80.424698 65.090597 
L 78.776705 61.249731 
L 77.128713 61.249731 
L 75.48072 61.249731 
L 73.832727 65.090597 
z
" style="fill:#008000;fill-opacity:0.4;"/>
   </g>
   <g id="matplotlib.axis_1">
    <g id="xtick_1">
     <g id="line2d_1">
      <defs>
       <path d="M 0 0 
L 0 3.5 
" id="mab33cee1a3" style="stroke:#000000;stroke-width:0.8;"/>
      </defs>
      <g>
       <use style="stroke:#000000;stroke-width:0.8;" x="73.832727" xlink:href="#mab33cee1a3" y="307.584"/>
      </g>
     </g>
     <g id="text_1">
      <!-- 0.0 -->
      <defs>
       <path d="M 31.78125 66.40625 
Q 24.171875 66.40625 20.328125 58.90625 
Q 16.5 51.421875 16.5 36.375 
Q 16.5 21.390625 20.328125 13.890625 
Q 24.171875 6.390625 31.78125 6.390625 
Q 39.453125 6.390625 43.28125 13.890625 
Q 47.125 21.390625 47.125 36.375 
Q 47.125 51.421875 43.28125 58.90625 
Q 39.453125 66.40625 31.78125 66.40625 
z
M 31.78125 74.21875 
Q 44.046875 74.21875 50.515625 64.515625 
Q 56.984375 54.828125 56.984375 36.375 
Q 56.984375 17.96875 50.515625 8.265625 
Q 44.046875 -1.421875 31.78125 -1.421875 
Q 19.53125 -1.421875 13.0625 8.265625 
Q 6.59375 17.96875 6.59375 36.375 
Q 6.59375 54.828125 13.0625 64.515625 
Q 19.53125 74.21875 31.78125 74.21875 
z
" id="DejaVuSans-30"/>
       <path d="M 10.6875 12.40625 
L 21 12.40625 
L 21 0 
L 10.6875 0 
z
" id="DejaVuSans-2e"/>
      </defs>
      <g transform="translate(65.881165 322.182437)scale(0.1 -0.1)">
       <use xlink:href="#DejaVuSans-30"/>
       <use x="63.623047" xlink:href="#DejaVuSans-2e"/>
       <use x="95.410156" xlink:href="#DejaVuSans-30"/>
      </g>
     </g>
    </g>
    <g id="xtick_2">
     <g id="line2d_2">
      <g>
       <use style="stroke:#000000;stroke-width:0.8;" x="138.763636" xlink:href="#mab33cee1a3" y="307.584"/>
      </g>
     </g>
     <g id="text_2">
      <!-- 0.2 -->
      <defs>
       <path d="M 19.1875 8.296875 
L 53.609375 8.296875 
L 53.609375 0 
L 7.328125 0 
L 7.328125 8.296875 
Q 12.9375 14.109375 22.625 23.890625 
Q 32.328125 33.6875 34.8125 36.53125 
Q 39.546875 41.84375 41.421875 45.53125 
Q 43.3125 49.21875 43.3125 52.78125 
Q 43.3125 58.59375 39.234375 62.25 
Q 35.15625 65.921875 28.609375 65.921875 
Q 23.96875 65.921875 18.8125 64.3125 
Q 13.671875 62.703125 7.8125 59.421875 
L 7.8125 69.390625 
Q 13.765625 71.78125 18.9375 73 
Q 24.125 74.21875 28.421875 74.21875 
Q 39.75 74.21875 46.484375 68.546875 
Q 53.21875 62.890625 53.21875 53.421875 
Q 53.21875 48.921875 51.53125 44.890625 
Q 49.859375 40.875 45.40625 35.40625 
Q 44.1875 33.984375 37.640625 27.21875 
Q 31.109375 20.453125 19.1875 8.296875 
z
" id="DejaVuSans-32"/>
      </defs>
      <g transform="translate(130.812074 322.182437)scale(0.1 -0.1)">
       <use xlink:href="#DejaVuSans-30"/>
       <use x="63.623047" xlink:href="#DejaVuSans-2e"/>
       <use x="95.410156" xlink:href="#DejaVuSans-32"/>
      </g>
     </g>
    </g>
    <g id="xtick_3">
     <g id="line2d_3">
      <g>
       <use style="stroke:#000000;stroke-width:0.8;" x="203.694545" xlink:href="#mab33cee1a3" y="307.584"/>
      </g>
     </g>
     <g id="text_3">
      <!-- 0.4 -->
      <defs>
       <path d="M 37.796875 64.3125 
L 12.890625 25.390625 
L 37.796875 25.390625 
z
M 35.203125 72.90625 
L 47.609375 72.90625 
L 47.609375 25.390625 
L 58.015625 25.390625 
L 58.015625 17.1875 
L 47.609375 17.1875 
L 47.609375 0 
L 37.796875 0 
L 37.796875 17.1875 
L 4.890625 17.1875 
L 4.890625 26.703125 
z
" id="DejaVuSans-34"/>
      </defs>
      <g transform="translate(195.742983 322.182437)scale(0.1 -0.1)">
       <use xlink:href="#DejaVuSans-30"/>
       <use x="63.623047" xlink:href="#DejaVuSans-2e"/>
       <use x="95.410156" xlink:href="#DejaVuSans-34"/>
      </g>
     </g>
    </g>
    <g id="xtick_4">
     <g id="line2d_4">
      <g>
       <use style="stroke:#000000;stroke-width:0.8;" x="268.625455" xlink:href="#mab33cee1a3" y="307.584"/>
      </g>
     </g>
     <g id="text_4">
      <!-- 0.6 -->
      <defs>
       <path d="M 33.015625 40.375 
Q 26.375 40.375 22.484375 35.828125 
Q 18.609375 31.296875 18.609375 23.390625 
Q 18.609375 15.53125 22.484375 10.953125 
Q 26.375 6.390625 33.015625 6.390625 
Q 39.65625 6.390625 43.53125 10.953125 
Q 47.40625 15.53125 47.40625 23.390625 
Q 47.40625 31.296875 43.53125 35.828125 
Q 39.65625 40.375 33.015625 40.375 
z
M 52.59375 71.296875 
L 52.59375 62.3125 
Q 48.875 64.0625 45.09375 64.984375 
Q 41.3125 65.921875 37.59375 65.921875 
Q 27.828125 65.921875 22.671875 59.328125 
Q 17.53125 52.734375 16.796875 39.40625 
Q 19.671875 43.65625 24.015625 45.921875 
Q 28.375 48.1875 33.59375 48.1875 
Q 44.578125 48.1875 50.953125 41.515625 
Q 57.328125 34.859375 57.328125 23.390625 
Q 57.328125 12.15625 50.6875 5.359375 
Q 44.046875 -1.421875 33.015625 -1.421875 
Q 20.359375 -1.421875 13.671875 8.265625 
Q 6.984375 17.96875 6.984375 36.375 
Q 6.984375 53.65625 15.1875 63.9375 
Q 23.390625 74.21875 37.203125 74.21875 
Q 40.921875 74.21875 44.703125 73.484375 
Q 48.484375 72.75 52.59375 71.296875 
z
" id="DejaVuSans-36"/>
      </defs>
      <g transform="translate(260.673892 322.182437)scale(0.1 -0.1)">
       <use xlink:href="#DejaVuSans-30"/>
       <use x="63.623047" xlink:href="#DejaVuSans-2e"/>
       <use x="95.410156" xlink:href="#DejaVuSans-36"/>
      </g>
     </g>
    </g>
    <g id="xtick_5">
     <g id="line2d_5">
      <g>
       <use style="stroke:#000000;stroke-width:0.8;" x="333.556364" xlink:href="#mab33cee1a3" y="307.584"/>
      </g>
     </g>
     <g id="text_5">
      <!-- 0.8 -->
      <defs>
       <path d="M 31.78125 34.625 
Q 24.75 34.625 20.71875 30.859375 
Q 16.703125 27.09375 16.703125 20.515625 
Q 16.703125 13.921875 20.71875 10.15625 
Q 24.75 6.390625 31.78125 6.390625 
Q 38.8125 6.390625 42.859375 10.171875 
Q 46.921875 13.96875 46.921875 20.515625 
Q 46.921875 27.09375 42.890625 30.859375 
Q 38.875 34.625 31.78125 34.625 
z
M 21.921875 38.8125 
Q 15.578125 40.375 12.03125 44.71875 
Q 8.5 49.078125 8.5 55.328125 
Q 8.5 64.0625 14.71875 69.140625 
Q 20.953125 74.21875 31.78125 74.21875 
Q 42.671875 74.21875 48.875 69.140625 
Q 55.078125 64.0625 55.078125 55.328125 
Q 55.078125 49.078125 51.53125 44.71875 
Q 48 40.375 41.703125 38.8125 
Q 48.828125 37.15625 52.796875 32.3125 
Q 56.78125 27.484375 56.78125 20.515625 
Q 56.78125 9.90625 50.3125 4.234375 
Q 43.84375 -1.421875 31.78125 -1.421875 
Q 19.734375 -1.421875 13.25 4.234375 
Q 6.78125 9.90625 6.78125 20.515625 
Q 6.78125 27.484375 10.78125 32.3125 
Q 14.796875 37.15625 21.921875 38.8125 
z
M 18.3125 54.390625 
Q 18.3125 48.734375 21.84375 45.5625 
Q 25.390625 42.390625 31.78125 42.390625 
Q 38.140625 42.390625 41.71875 45.5625 
Q 45.3125 48.734375 45.3125 54.390625 
Q 45.3125 60.0625 41.71875 63.234375 
Q 38.140625 66.40625 31.78125 66.40625 
Q 25.390625 66.40625 21.84375 63.234375 
Q 18.3125 60.0625 18.3125 54.390625 
z
" id="DejaVuSans-38"/>
      </defs>
      <g transform="translate(325.604801 322.182437)scale(0.1 -0.1)">
       <use xlink:href="#DejaVuSans-30"/>
       <use x="63.623047" xlink:href="#DejaVuSans-2e"/>
       <use x="95.410156" xlink:href="#DejaVuSans-38"/>
      </g>
     </g>
    </g>
    <g id="xtick_6">
     <g id="line2d_6">
      <g>
       <use style="stroke:#000000;stroke-width:0.8;" x="398.487273" xlink:href="#mab33cee1a3" y="307.584"/>
      </g>
     </g>
     <g id="text_6">
      <!-- 1.0 -->
      <defs>
       <path d="M 12.40625 8.296875 
L 28.515625 8.296875 
L 28.515625 63.921875 
L 10.984375 60.40625 
L 10.984375 69.390625 
L 28.421875 72.90625 
L 38.28125 72.90625 
L 38.28125 8.296875 
L 54.390625 8.296875 
L 54.390625 0 
L 12.40625 0 
z
" id="DejaVuSans-31"/>
      </defs>
      <g transform="translate(390.53571 322.182437)scale(0.1 -0.1)">
       <use xlink:href="#DejaVuSans-31"/>
       <use x="63.623047" xlink:href="#DejaVuSans-2e"/>
       <use x="95.410156" xlink:href="#DejaVuSans-30"/>
      </g>
     </g>
    </g>
   </g>
   <g id="matplotlib.axis_2">
    <g id="ytick_1">
     <g id="line2d_7">
      <defs>
       <path d="M 0 0 
L -3.5 0 
" id="m2eec5a2248" style="stroke:#000000;stroke-width:0.8;"/>
      </defs>
      <g>
       <use style="stroke:#000000;stroke-width:0.8;" x="57.6" xlink:href="#m2eec5a2248" y="299.383406"/>
      </g>
     </g>
     <g id="text_7">
      <!-- 0.0 -->
      <g transform="translate(34.696875 303.182625)scale(0.1 -0.1)">
       <use xlink:href="#DejaVuSans-30"/>
       <use x="63.623047" xlink:href="#DejaVuSans-2e"/>
       <use x="95.410156" xlink:href="#DejaVuSans-30"/>
      </g>
     </g>
    </g>
    <g id="ytick_2">
     <g id="line2d_8">
      <g>
       <use style="stroke:#000000;stroke-width:0.8;" x="57.6" xlink:href="#m2eec5a2248" y="260.974749"/>
      </g>
     </g>
     <g id="text_8">
      <!-- 0.1 -->
      <g transform="translate(34.696875 264.773968)scale(0.1 -0.1)">
       <use xlink:href="#DejaVuSans-30"/>
       <use x="63.623047" xlink:href="#DejaVuSans-2e"/>
       <use x="95.410156" xlink:href="#DejaVuSans-31"/>
      </g>
     </g>
    </g>
    <g id="ytick_3">
     <g id="line2d_9">
      <g>
       <use style="stroke:#000000;stroke-width:0.8;" x="57.6" xlink:href="#m2eec5a2248" y="222.566092"/>
      </g>
     </g>
     <g id="text_9">
      <!-- 0.2 -->
      <g transform="translate(34.696875 226.36531)scale(0.1 -0.1)">
       <use xlink:href="#DejaVuSans-30"/>
       <use x="63.623047" xlink:href="#DejaVuSans-2e"/>
       <use x="95.410156" xlink:href="#DejaVuSans-32"/>
      </g>
     </g>
    </g>
    <g id="ytick_4">
     <g id="line2d_10">
      <g>
       <use style="stroke:#000000;stroke-width:0.8;" x="57.6" xlink:href="#m2eec5a2248" y="184.157434"/>
      </g>
     </g>
     <g id="text_10">
      <!-- 0.3 -->
      <defs>
       <path d="M 40.578125 39.3125 
Q 47.65625 37.796875 51.625 33 
Q 55.609375 28.21875 55.609375 21.1875 
Q 55.609375 10.40625 48.1875 4.484375 
Q 40.765625 -1.421875 27.09375 -1.421875 
Q 22.515625 -1.421875 17.65625 -0.515625 
Q 12.796875 0.390625 7.625 2.203125 
L 7.625 11.71875 
Q 11.71875 9.328125 16.59375 8.109375 
Q 21.484375 6.890625 26.8125 6.890625 
Q 36.078125 6.890625 40.9375 10.546875 
Q 45.796875 14.203125 45.796875 21.1875 
Q 45.796875 27.640625 41.28125 31.265625 
Q 36.765625 34.90625 28.71875 34.90625 
L 20.21875 34.90625 
L 20.21875 43.015625 
L 29.109375 43.015625 
Q 36.375 43.015625 40.234375 45.921875 
Q 44.09375 48.828125 44.09375 54.296875 
Q 44.09375 59.90625 40.109375 62.90625 
Q 36.140625 65.921875 28.71875 65.921875 
Q 24.65625 65.921875 20.015625 65.03125 
Q 15.375 64.15625 9.8125 62.3125 
L 9.8125 71.09375 
Q 15.4375 72.65625 20.34375 73.4375 
Q 25.25 74.21875 29.59375 74.21875 
Q 40.828125 74.21875 47.359375 69.109375 
Q 53.90625 64.015625 53.90625 55.328125 
Q 53.90625 49.265625 50.4375 45.09375 
Q 46.96875 40.921875 40.578125 39.3125 
z
" id="DejaVuSans-33"/>
      </defs>
      <g transform="translate(34.696875 187.956653)scale(0.1 -0.1)">
       <use xlink:href="#DejaVuSans-30"/>
       <use x="63.623047" xlink:href="#DejaVuSans-2e"/>
       <use x="95.410156" xlink:href="#DejaVuSans-33"/>
      </g>
     </g>
    </g>
    <g id="ytick_5">
     <g id="line2d_11">
      <g>
       <use style="stroke:#000000;stroke-width:0.8;" x="57.6" xlink:href="#m2eec5a2248" y="145.748777"/>
      </g>
     </g>
     <g id="text_11">
      <!-- 0.4 -->
      <g transform="translate(34.696875 149.547996)scale(0.1 -0.1)">
       <use xlink:href="#DejaVuSans-30"/>
       <use x="63.623047" xlink:href="#DejaVuSans-2e"/>
       <use x="95.410156" xlink:href="#DejaVuSans-34"/>
      </g>
     </g>
    </g>
    <g id="ytick_6">
     <g id="line2d_12">
      <g>
       <use style="stroke:#000000;stroke-width:0.8;" x="57.6" xlink:href="#m2eec5a2248" y="107.34012"/>
      </g>
     </g>
     <g id="text_12">
      <!-- 0.5 -->
      <defs>
       <path d="M 10.796875 72.90625 
L 49.515625 72.90625 
L 49.515625 64.59375 
L 19.828125 64.59375 
L 19.828125 46.734375 
Q 21.96875 47.46875 24.109375 47.828125 
Q 26.265625 48.1875 28.421875 48.1875 
Q 40.625 48.1875 47.75 41.5 
Q 54.890625 34.8125 54.890625 23.390625 
Q 54.890625 11.625 47.5625 5.09375 
Q 40.234375 -1.421875 26.90625 -1.421875 
Q 22.3125 -1.421875 17.546875 -0.640625 
Q 12.796875 0.140625 7.71875 1.703125 
L 7.71875 11.625 
Q 12.109375 9.234375 16.796875 8.0625 
Q 21.484375 6.890625 26.703125 6.890625 
Q 35.15625 6.890625 40.078125 11.328125 
Q 45.015625 15.765625 45.015625 23.390625 
Q 45.015625 31 40.078125 35.4375 
Q 35.15625 39.890625 26.703125 39.890625 
Q 22.75 39.890625 18.8125 39.015625 
Q 14.890625 38.140625 10.796875 36.28125 
z
" id="DejaVuSans-35"/>
      </defs>
      <g transform="translate(34.696875 111.139339)scale(0.1 -0.1)">
       <use xlink:href="#DejaVuSans-30"/>
       <use x="63.623047" xlink:href="#DejaVuSans-2e"/>
       <use x="95.410156" xlink:href="#DejaVuSans-35"/>
      </g>
     </g>
    </g>
    <g id="ytick_7">
     <g id="line2d_13">
      <g>
       <use style="stroke:#000000;stroke-width:0.8;" x="57.6" xlink:href="#m2eec5a2248" y="68.931463"/>
      </g>
     </g>
     <g id="text_13">
      <!-- 0.6 -->
      <g transform="translate(34.696875 72.730682)scale(0.1 -0.1)">
       <use xlink:href="#DejaVuSans-30"/>
       <use x="63.623047" xlink:href="#DejaVuSans-2e"/>
       <use x="95.410156" xlink:href="#DejaVuSans-36"/>
      </g>
     </g>
    </g>
   </g>
   <g id="line2d_14">
    <path clip-path="url(#p57312ad01b)" d="M 73.832727 109.807108 
L 75.48072 105.65206 
L 77.128713 113.183229 
L 78.776705 113.962157 
L 80.424698 131.361662 
L 82.07269 146.683644 
L 83.720683 158.629505 
L 85.368676 156.032695 
L 87.016668 150.319407 
L 88.664661 156.811623 
L 90.312653 161.745983 
L 91.960646 172.133604 
L 93.608639 176.807938 
L 95.256631 193.168874 
L 96.904624 210.828022 
L 100.200609 232.382576 
L 101.848602 238.874792 
L 103.496594 255.755012 
L 105.144587 263.286028 
L 106.79258 265.623272 
L 108.440572 268.479877 
L 110.088565 266.402353 
L 111.736557 265.623272 
L 113.38455 265.623272 
L 115.032543 269.778359 
L 116.680535 277.04977 
L 118.328528 279.127333 
L 119.976521 280.425776 
L 121.624513 284.321182 
L 123.272506 284.321182 
L 124.920498 285.619664 
L 126.568491 282.503339 
L 128.216484 280.945176 
L 129.864476 283.28242 
L 131.512469 283.022739 
L 133.160461 284.580863 
L 134.808454 284.840583 
L 136.456447 286.398745 
L 138.104439 284.321182 
L 139.752432 281.204857 
L 141.400425 277.04977 
L 143.048417 271.336521 
L 144.69641 256.53394 
L 146.344402 238.615149 
L 147.992395 223.55281 
L 149.640388 209.529425 
L 152.936373 169.536795 
L 154.584365 152.656574 
L 156.232358 138.373547 
L 157.880351 127.206614 
L 159.528343 115.001111 
L 161.176336 109.028181 
L 162.824329 103.834178 
L 164.472321 99.159844 
L 167.768306 84.876817 
L 171.064292 75.268123 
L 172.712284 77.864932 
L 174.360277 73.969526 
L 176.008269 75.527766 
L 177.656262 84.876817 
L 179.304255 93.186914 
L 180.952247 103.05525 
L 182.60024 103.574535 
L 184.248233 114.222183 
L 185.896225 130.06345 
L 187.544218 132.660259 
L 189.19221 134.478141 
L 190.840203 141.749668 
L 192.488196 148.241883 
L 194.136188 163.044196 
L 197.432174 178.366177 
L 199.080166 187.715228 
L 200.728159 191.350992 
L 202.376151 200.700043 
L 204.024144 207.711543 
L 205.672137 216.281667 
L 207.320129 221.215643 
L 208.968122 230.305052 
L 210.616114 232.642219 
L 213.9121 231.08398 
L 215.560092 232.901861 
L 217.208085 232.642219 
L 218.856078 227.707859 
L 222.152063 242.510555 
L 223.800055 246.665604 
L 225.448048 249.00277 
L 227.096041 260.169703 
L 228.744033 267.700796 
L 230.392026 269.778359 
L 232.040018 271.07684 
L 233.688011 270.03804 
L 235.336004 272.115602 
L 236.983996 271.855921 
L 238.631989 273.673765 
L 240.279982 278.088533 
L 243.575967 285.359944 
L 245.223959 287.956907 
L 246.871952 291.073232 
L 248.519945 292.111994 
L 250.167937 291.332913 
L 251.81593 290.034432 
L 253.463922 292.111994 
L 255.111915 292.371675 
L 256.759908 289.25535 
L 258.4079 286.398745 
L 260.055893 283.801782 
L 261.703886 278.867614 
L 263.351878 271.855921 
L 264.999871 261.727866 
L 266.647863 255.49537 
L 268.295856 240.952316 
L 269.943849 230.305052 
L 271.591841 222.51424 
L 273.239834 212.386261 
L 274.887826 201.478971 
L 276.535819 192.649589 
L 278.183812 191.350992 
L 279.831804 178.885846 
L 281.479797 168.497841 
L 283.12779 166.160674 
L 284.775782 160.447386 
L 286.423775 152.396932 
L 288.071767 134.737783 
L 289.71976 142.528595 
L 291.367753 144.865762 
L 293.015745 139.67176 
L 294.663738 132.660259 
L 296.311731 140.191429 
L 297.959723 160.447386 
L 299.607716 144.60612 
L 301.255708 137.334593 
L 302.903701 143.307523 
L 304.551694 156.55198 
L 306.199686 144.60612 
L 307.847679 136.296023 
L 309.495671 154.474456 
L 311.143664 168.757483 
L 312.791657 167.978556 
L 314.439649 165.381746 
L 316.087642 164.602435 
L 317.735635 172.393247 
L 319.383627 168.238198 
L 321.03162 161.48634 
L 322.679612 167.978556 
L 324.327605 178.885846 
L 325.975598 193.688159 
L 327.62359 186.936301 
L 329.271583 193.688159 
L 330.919575 207.451901 
L 335.863553 227.448216 
L 337.511546 245.886676 
L 339.159539 258.611464 
L 340.807531 263.026309 
L 342.455524 266.142634 
L 344.103516 270.297759 
L 345.751509 279.906414 
L 347.399502 284.321182 
L 349.047494 286.139026 
L 350.695487 288.995669 
L 352.343479 291.332913 
L 353.991472 291.592594 
L 355.639465 290.553832 
L 357.287457 290.553832 
L 358.93545 289.25535 
L 360.583443 290.294151 
L 362.231435 292.111994 
L 363.879428 292.891075 
L 365.52742 294.708919 
L 367.175413 295.488 
L 368.823406 295.488 
L 370.471398 293.150756 
L 372.119391 289.25535 
L 373.767383 286.398745 
L 375.415376 282.503339 
L 377.063369 276.53037 
L 378.711361 265.882953 
L 382.007347 236.277982 
L 383.655339 209.01014 
L 385.303332 189.53311 
L 386.951324 177.58725 
L 388.599317 170.05608 
L 390.24731 159.408816 
L 391.895302 147.202929 
L 393.543295 154.993741 
L 395.191287 159.928101 
L 396.83928 153.175859 
L 398.487273 143.04788 
L 398.487273 143.04788 
" style="fill:none;stroke:#66c2a5;stroke-linecap:square;stroke-width:1.5;"/>
   </g>
   <g id="line2d_15">
    <path clip-path="url(#p57312ad01b)" d="M 73.832727 136.665049 
L 75.48072 134.064895 
L 77.128713 134.004666 
L 78.776705 134.837026 
L 80.424698 136.391278 
L 82.07269 140.477289 
L 83.720683 144.015277 
L 85.368676 146.463272 
L 87.016668 145.219486 
L 88.664661 144.787696 
L 90.312653 146.079896 
L 91.960646 147.581988 
L 93.608639 149.998379 
L 95.256631 151.303835 
L 96.904624 155.311749 
L 98.552617 158.444748 
L 100.200609 160.601873 
L 103.496594 163.626708 
L 105.144587 166.1211 
L 106.79258 166.835499 
L 110.088565 167.274493 
L 111.736557 166.876324 
L 115.032543 167.033479 
L 118.328528 168.5958 
L 119.976521 168.625098 
L 123.272506 169.273696 
L 126.568491 169.347758 
L 128.216484 168.819043 
L 129.864476 168.886381 
L 131.512469 169.096369 
L 136.456447 169.32576 
L 138.104439 169.478111 
L 139.752432 169.019328 
L 141.400425 168.731533 
L 143.048417 168.05575 
L 144.69641 167.093708 
L 149.640388 159.48479 
L 151.28838 156.754859 
L 154.584365 148.007245 
L 156.232358 144.491543 
L 157.880351 140.559805 
L 159.528343 138.171751 
L 161.176336 135.045092 
L 162.824329 133.982188 
L 164.472321 132.594216 
L 166.120314 131.442071 
L 167.768306 129.559774 
L 169.416299 128.134435 
L 171.064292 126.953857 
L 172.712284 126.167221 
L 174.360277 126.519377 
L 176.008269 125.534185 
L 179.304255 128.5449 
L 180.952247 130.846307 
L 182.60024 132.653773 
L 184.248233 133.272976 
L 187.544218 139.310447 
L 189.19221 140.180752 
L 190.840203 140.741166 
L 192.488196 142.432303 
L 194.136188 144.756573 
L 195.784181 147.626367 
L 199.080166 151.597971 
L 200.728159 153.271241 
L 202.376151 154.484096 
L 204.024144 156.099538 
L 205.672137 157.895861 
L 210.616114 161.726448 
L 213.9121 161.859299 
L 215.560092 161.706948 
L 217.208085 161.995032 
L 218.856078 161.450372 
L 220.50407 161.344994 
L 222.152063 162.84622 
L 223.800055 163.738234 
L 225.448048 164.174635 
L 227.096041 165.069819 
L 228.744033 166.677864 
L 230.392026 167.368728 
L 233.688011 167.551531 
L 238.631989 167.76536 
L 240.279982 168.142204 
L 243.575967 169.147953 
L 246.871952 169.76437 
L 248.519945 170.102694 
L 253.463922 169.896357 
L 255.111915 170.136315 
L 256.759908 170.035644 
L 258.4079 169.554575 
L 260.055893 169.366105 
L 261.703886 168.973316 
L 264.999871 167.27238 
L 266.647863 165.984119 
L 268.295856 164.882214 
L 269.943849 162.471106 
L 273.239834 159.628208 
L 274.887826 157.663299 
L 276.535819 155.495992 
L 278.183812 154.092555 
L 279.831804 153.541842 
L 281.479797 150.222967 
L 283.12779 148.735861 
L 284.775782 147.848554 
L 286.423775 146.563271 
L 289.71976 140.762972 
L 291.367753 142.943823 
L 293.015745 142.699543 
L 294.663738 141.190631 
L 296.311731 140.179215 
L 297.959723 143.444488 
L 299.607716 146.180279 
L 301.255708 142.173326 
L 302.903701 141.420599 
L 304.551694 143.572536 
L 306.199686 145.348207 
L 307.847679 142.194074 
L 309.495671 141.687934 
L 311.143664 146.546364 
L 312.791657 148.691962 
L 314.439649 148.661126 
L 316.087642 147.554322 
L 317.735635 148.413964 
L 319.383627 149.494351 
L 321.03162 148.085054 
L 322.679612 147.489578 
L 324.327605 148.945272 
L 325.975598 152.467314 
L 327.62359 153.941164 
L 329.271583 153.175085 
L 330.919575 155.069101 
L 332.567568 157.65427 
L 335.863553 160.132043 
L 337.511546 161.77054 
L 339.159539 164.861465 
L 340.807531 166.388531 
L 342.455524 166.641554 
L 345.751509 167.830873 
L 347.399502 169.126724 
L 350.695487 169.55592 
L 352.343479 169.931035 
L 355.639465 170.013454 
L 360.583443 169.771383 
L 363.879428 170.152261 
L 370.471398 170.41585 
L 373.767383 169.565142 
L 375.415376 169.249873 
L 377.063369 168.771205 
L 378.711361 167.894177 
L 382.007347 164.226508 
L 383.655339 161.155563 
L 385.303332 156.426142 
L 386.951324 152.711499 
L 388.599317 150.499236 
L 390.24731 148.652385 
L 391.895302 145.753196 
L 393.543295 143.954663 
L 395.191287 145.918996 
L 396.83928 146.386424 
L 398.487273 144.508354 
L 398.487273 144.508354 
" style="fill:none;stroke:#fc8d62;stroke-linecap:square;stroke-width:1.5;"/>
   </g>
   <g id="line2d_16">
    <path clip-path="url(#p57312ad01b)" d="M 73.832727 191.839166 
L 78.776705 191.839166 
L 80.424698 195.680032 
L 83.720683 195.680032 
L 85.368676 199.520897 
L 87.016668 195.680032 
L 88.664661 195.680032 
L 90.312653 199.520897 
L 95.256631 199.520897 
L 96.904624 207.202629 
L 98.552617 211.043494 
L 100.200609 218.725226 
L 101.848602 218.725226 
L 103.496594 222.566092 
L 105.144587 230.247823 
L 108.440572 230.247823 
L 110.088565 234.088689 
L 111.736557 230.247823 
L 115.032543 230.247823 
L 116.680535 234.088689 
L 121.624513 234.088689 
L 123.272506 237.929555 
L 124.920498 237.353425 
L 126.568491 237.929555 
L 128.216484 234.088689 
L 133.160461 234.088689 
L 134.808454 237.353425 
L 136.456447 237.929555 
L 138.104439 237.929555 
L 139.752432 234.088689 
L 143.048417 234.088689 
L 147.992395 222.566092 
L 149.640388 214.88436 
L 151.28838 211.043494 
L 152.936373 203.361763 
L 156.232358 195.680032 
L 159.528343 195.680032 
L 161.176336 191.839166 
L 184.248233 191.839166 
L 185.896225 195.680032 
L 192.488196 195.680032 
L 194.136188 199.520897 
L 199.080166 199.520897 
L 204.024144 211.043494 
L 205.672137 211.043494 
L 207.320129 214.88436 
L 208.968122 214.88436 
L 210.616114 218.725226 
L 220.50407 218.725226 
L 222.152063 222.566092 
L 223.800055 222.566092 
L 225.448048 226.406957 
L 227.096041 226.406957 
L 230.392026 234.088689 
L 243.575967 234.088689 
L 245.223959 237.929555 
L 260.055893 237.929555 
L 261.703886 234.088689 
L 264.999871 234.088689 
L 276.535819 207.202629 
L 278.183812 207.202629 
L 281.479797 199.520897 
L 286.423775 199.520897 
L 288.071767 195.680032 
L 297.959723 195.680032 
L 299.607716 199.520897 
L 301.255708 195.680032 
L 304.551694 195.680032 
L 306.199686 199.520897 
L 307.847679 195.680032 
L 309.495671 195.680032 
L 311.143664 199.520897 
L 325.975598 199.520897 
L 327.62359 203.361763 
L 329.271583 203.361763 
L 334.215561 214.88436 
L 335.863553 214.88436 
L 337.511546 218.725226 
L 339.159539 226.406957 
L 340.807531 230.247823 
L 344.103516 230.247823 
L 345.751509 234.088689 
L 347.399502 234.088689 
L 349.047494 237.929555 
L 373.767383 237.929555 
L 375.415376 234.088689 
L 378.711361 234.088689 
L 382.007347 226.406957 
L 386.951324 203.361763 
L 388.599317 199.520897 
L 390.24731 199.520897 
L 391.895302 195.680032 
L 393.543295 195.680032 
L 395.191287 199.520897 
L 396.83928 199.520897 
L 398.487273 195.680032 
L 398.487273 195.680032 
" style="fill:none;stroke:#8da0cb;stroke-linecap:square;stroke-width:1.5;"/>
   </g>
   <g id="line2d_17">
    <path clip-path="url(#p57312ad01b)" d="M 73.832727 65.090597 
L 75.48072 61.249731 
L 78.776705 61.249731 
L 80.424698 65.090597 
L 82.07269 65.090597 
L 83.720683 68.931463 
L 90.312653 68.931463 
L 91.960646 72.772329 
L 95.256631 72.772329 
L 96.904624 76.613194 
L 98.552617 76.613194 
L 100.200609 80.45406 
L 103.496594 80.45406 
L 105.144587 84.294926 
L 144.69641 84.294926 
L 146.344402 80.45406 
L 147.992395 80.45406 
L 149.640388 76.613194 
L 151.28838 76.613194 
L 154.584365 68.931463 
L 156.232358 68.931463 
L 157.880351 65.090597 
L 159.528343 65.090597 
L 161.176336 61.249731 
L 166.120314 61.249731 
L 167.768306 57.408866 
L 171.064292 57.408866 
L 172.712284 53.568 
L 174.360277 57.408866 
L 176.008269 53.568 
L 177.656262 57.408866 
L 179.304255 57.408866 
L 180.952247 61.249731 
L 184.248233 61.249731 
L 185.896225 65.090597 
L 190.840203 65.090597 
L 192.488196 68.931463 
L 194.136188 68.931463 
L 195.784181 72.772329 
L 200.728159 72.772329 
L 202.376151 76.613194 
L 205.672137 76.613194 
L 207.320129 80.45406 
L 225.448048 80.45406 
L 227.096041 84.294926 
L 266.647863 84.294926 
L 268.295856 80.45406 
L 273.239834 80.45406 
L 274.887826 76.613194 
L 278.183812 76.613194 
L 279.831804 72.772329 
L 283.12779 72.772329 
L 284.775782 68.931463 
L 288.071767 68.931463 
L 289.71976 65.090597 
L 291.367753 68.931463 
L 293.015745 68.931463 
L 294.663738 65.090597 
L 296.311731 65.090597 
L 297.959723 68.931463 
L 299.607716 68.931463 
L 301.255708 65.090597 
L 302.903701 65.090597 
L 304.551694 68.931463 
L 306.199686 68.931463 
L 307.847679 65.090597 
L 311.143664 72.772329 
L 314.439649 72.772329 
L 316.087642 68.931463 
L 317.735635 72.772329 
L 319.383627 72.772329 
L 321.03162 68.931463 
L 322.679612 68.931463 
L 324.327605 72.772329 
L 325.975598 72.772329 
L 327.62359 76.613194 
L 329.271583 72.772329 
L 330.919575 76.613194 
L 332.567568 76.613194 
L 334.215561 80.45406 
L 337.511546 80.45406 
L 339.159539 84.294926 
L 363.879428 84.294926 
L 365.52742 88.135791 
L 370.471398 88.135791 
L 372.119391 84.294926 
L 380.359354 84.294926 
L 382.007347 80.45406 
L 383.655339 80.45406 
L 386.951324 72.772329 
L 390.24731 72.772329 
L 391.895302 68.931463 
L 398.487273 68.931463 
L 398.487273 68.931463 
" style="fill:none;stroke:#e78ac3;stroke-linecap:square;stroke-width:1.5;"/>
   </g>
   <g id="patch_3">
    <path d="M 57.6 307.584 
L 57.6 41.472 
" style="fill:none;stroke:#000000;stroke-linecap:square;stroke-linejoin:miter;stroke-width:0.8;"/>
   </g>
   <g id="patch_4">
    <path d="M 414.72 307.584 
L 414.72 41.472 
" style="fill:none;stroke:#000000;stroke-linecap:square;stroke-linejoin:miter;stroke-width:0.8;"/>
   </g>
   <g id="patch_5">
    <path d="M 57.6 307.584 
L 414.72 307.584 
" style="fill:none;stroke:#000000;stroke-linecap:square;stroke-linejoin:miter;stroke-width:0.8;"/>
   </g>
   <g id="patch_6">
    <path d="M 57.6 41.472 
L 414.72 41.472 
" style="fill:none;stroke:#000000;stroke-linecap:square;stroke-linejoin:miter;stroke-width:0.8;"/>
   </g>
   <g id="text_14">
    <!-- Plot of Test Data vs MCMC Uncertainty  -->
    <defs>
     <path d="M 19.671875 64.796875 
L 19.671875 37.40625 
L 32.078125 37.40625 
Q 38.96875 37.40625 42.71875 40.96875 
Q 46.484375 44.53125 46.484375 51.125 
Q 46.484375 57.671875 42.71875 61.234375 
Q 38.96875 64.796875 32.078125 64.796875 
z
M 9.8125 72.90625 
L 32.078125 72.90625 
Q 44.34375 72.90625 50.609375 67.359375 
Q 56.890625 61.8125 56.890625 51.125 
Q 56.890625 40.328125 50.609375 34.8125 
Q 44.34375 29.296875 32.078125 29.296875 
L 19.671875 29.296875 
L 19.671875 0 
L 9.8125 0 
z
" id="DejaVuSans-50"/>
     <path d="M 9.421875 75.984375 
L 18.40625 75.984375 
L 18.40625 0 
L 9.421875 0 
z
" id="DejaVuSans-6c"/>
     <path d="M 30.609375 48.390625 
Q 23.390625 48.390625 19.1875 42.75 
Q 14.984375 37.109375 14.984375 27.296875 
Q 14.984375 17.484375 19.15625 11.84375 
Q 23.34375 6.203125 30.609375 6.203125 
Q 37.796875 6.203125 41.984375 11.859375 
Q 46.1875 17.53125 46.1875 27.296875 
Q 46.1875 37.015625 41.984375 42.703125 
Q 37.796875 48.390625 30.609375 48.390625 
z
M 30.609375 56 
Q 42.328125 56 49.015625 48.375 
Q 55.71875 40.765625 55.71875 27.296875 
Q 55.71875 13.875 49.015625 6.21875 
Q 42.328125 -1.421875 30.609375 -1.421875 
Q 18.84375 -1.421875 12.171875 6.21875 
Q 5.515625 13.875 5.515625 27.296875 
Q 5.515625 40.765625 12.171875 48.375 
Q 18.84375 56 30.609375 56 
z
" id="DejaVuSans-6f"/>
     <path d="M 18.3125 70.21875 
L 18.3125 54.6875 
L 36.8125 54.6875 
L 36.8125 47.703125 
L 18.3125 47.703125 
L 18.3125 18.015625 
Q 18.3125 11.328125 20.140625 9.421875 
Q 21.96875 7.515625 27.59375 7.515625 
L 36.8125 7.515625 
L 36.8125 0 
L 27.59375 0 
Q 17.1875 0 13.234375 3.875 
Q 9.28125 7.765625 9.28125 18.015625 
L 9.28125 47.703125 
L 2.6875 47.703125 
L 2.6875 54.6875 
L 9.28125 54.6875 
L 9.28125 70.21875 
z
" id="DejaVuSans-74"/>
     <path id="DejaVuSans-20"/>
     <path d="M 37.109375 75.984375 
L 37.109375 68.5 
L 28.515625 68.5 
Q 23.6875 68.5 21.796875 66.546875 
Q 19.921875 64.59375 19.921875 59.515625 
L 19.921875 54.6875 
L 34.71875 54.6875 
L 34.71875 47.703125 
L 19.921875 47.703125 
L 19.921875 0 
L 10.890625 0 
L 10.890625 47.703125 
L 2.296875 47.703125 
L 2.296875 54.6875 
L 10.890625 54.6875 
L 10.890625 58.5 
Q 10.890625 67.625 15.140625 71.796875 
Q 19.390625 75.984375 28.609375 75.984375 
z
" id="DejaVuSans-66"/>
     <path d="M -0.296875 72.90625 
L 61.375 72.90625 
L 61.375 64.59375 
L 35.5 64.59375 
L 35.5 0 
L 25.59375 0 
L 25.59375 64.59375 
L -0.296875 64.59375 
z
" id="DejaVuSans-54"/>
     <path d="M 56.203125 29.59375 
L 56.203125 25.203125 
L 14.890625 25.203125 
Q 15.484375 15.921875 20.484375 11.0625 
Q 25.484375 6.203125 34.421875 6.203125 
Q 39.59375 6.203125 44.453125 7.46875 
Q 49.3125 8.734375 54.109375 11.28125 
L 54.109375 2.78125 
Q 49.265625 0.734375 44.1875 -0.34375 
Q 39.109375 -1.421875 33.890625 -1.421875 
Q 20.796875 -1.421875 13.15625 6.1875 
Q 5.515625 13.8125 5.515625 26.8125 
Q 5.515625 40.234375 12.765625 48.109375 
Q 20.015625 56 32.328125 56 
Q 43.359375 56 49.78125 48.890625 
Q 56.203125 41.796875 56.203125 29.59375 
z
M 47.21875 32.234375 
Q 47.125 39.59375 43.09375 43.984375 
Q 39.0625 48.390625 32.421875 48.390625 
Q 24.90625 48.390625 20.390625 44.140625 
Q 15.875 39.890625 15.1875 32.171875 
z
" id="DejaVuSans-65"/>
     <path d="M 44.28125 53.078125 
L 44.28125 44.578125 
Q 40.484375 46.53125 36.375 47.5 
Q 32.28125 48.484375 27.875 48.484375 
Q 21.1875 48.484375 17.84375 46.4375 
Q 14.5 44.390625 14.5 40.28125 
Q 14.5 37.15625 16.890625 35.375 
Q 19.28125 33.59375 26.515625 31.984375 
L 29.59375 31.296875 
Q 39.15625 29.25 43.1875 25.515625 
Q 47.21875 21.78125 47.21875 15.09375 
Q 47.21875 7.46875 41.1875 3.015625 
Q 35.15625 -1.421875 24.609375 -1.421875 
Q 20.21875 -1.421875 15.453125 -0.5625 
Q 10.6875 0.296875 5.421875 2 
L 5.421875 11.28125 
Q 10.40625 8.6875 15.234375 7.390625 
Q 20.0625 6.109375 24.8125 6.109375 
Q 31.15625 6.109375 34.5625 8.28125 
Q 37.984375 10.453125 37.984375 14.40625 
Q 37.984375 18.0625 35.515625 20.015625 
Q 33.0625 21.96875 24.703125 23.78125 
L 21.578125 24.515625 
Q 13.234375 26.265625 9.515625 29.90625 
Q 5.8125 33.546875 5.8125 39.890625 
Q 5.8125 47.609375 11.28125 51.796875 
Q 16.75 56 26.8125 56 
Q 31.78125 56 36.171875 55.265625 
Q 40.578125 54.546875 44.28125 53.078125 
z
" id="DejaVuSans-73"/>
     <path d="M 19.671875 64.796875 
L 19.671875 8.109375 
L 31.59375 8.109375 
Q 46.6875 8.109375 53.6875 14.9375 
Q 60.6875 21.78125 60.6875 36.53125 
Q 60.6875 51.171875 53.6875 57.984375 
Q 46.6875 64.796875 31.59375 64.796875 
z
M 9.8125 72.90625 
L 30.078125 72.90625 
Q 51.265625 72.90625 61.171875 64.09375 
Q 71.09375 55.28125 71.09375 36.53125 
Q 71.09375 17.671875 61.125 8.828125 
Q 51.171875 0 30.078125 0 
L 9.8125 0 
z
" id="DejaVuSans-44"/>
     <path d="M 34.28125 27.484375 
Q 23.390625 27.484375 19.1875 25 
Q 14.984375 22.515625 14.984375 16.5 
Q 14.984375 11.71875 18.140625 8.90625 
Q 21.296875 6.109375 26.703125 6.109375 
Q 34.1875 6.109375 38.703125 11.40625 
Q 43.21875 16.703125 43.21875 25.484375 
L 43.21875 27.484375 
z
M 52.203125 31.203125 
L 52.203125 0 
L 43.21875 0 
L 43.21875 8.296875 
Q 40.140625 3.328125 35.546875 0.953125 
Q 30.953125 -1.421875 24.3125 -1.421875 
Q 15.921875 -1.421875 10.953125 3.296875 
Q 6 8.015625 6 15.921875 
Q 6 25.140625 12.171875 29.828125 
Q 18.359375 34.515625 30.609375 34.515625 
L 43.21875 34.515625 
L 43.21875 35.40625 
Q 43.21875 41.609375 39.140625 45 
Q 35.0625 48.390625 27.6875 48.390625 
Q 23 48.390625 18.546875 47.265625 
Q 14.109375 46.140625 10.015625 43.890625 
L 10.015625 52.203125 
Q 14.9375 54.109375 19.578125 55.046875 
Q 24.21875 56 28.609375 56 
Q 40.484375 56 46.34375 49.84375 
Q 52.203125 43.703125 52.203125 31.203125 
z
" id="DejaVuSans-61"/>
     <path d="M 2.984375 54.6875 
L 12.5 54.6875 
L 29.59375 8.796875 
L 46.6875 54.6875 
L 56.203125 54.6875 
L 35.6875 0 
L 23.484375 0 
z
" id="DejaVuSans-76"/>
     <path d="M 9.8125 72.90625 
L 24.515625 72.90625 
L 43.109375 23.296875 
L 61.8125 72.90625 
L 76.515625 72.90625 
L 76.515625 0 
L 66.890625 0 
L 66.890625 64.015625 
L 48.09375 14.015625 
L 38.1875 14.015625 
L 19.390625 64.015625 
L 19.390625 0 
L 9.8125 0 
z
" id="DejaVuSans-4d"/>
     <path d="M 64.40625 67.28125 
L 64.40625 56.890625 
Q 59.421875 61.53125 53.78125 63.8125 
Q 48.140625 66.109375 41.796875 66.109375 
Q 29.296875 66.109375 22.65625 58.46875 
Q 16.015625 50.828125 16.015625 36.375 
Q 16.015625 21.96875 22.65625 14.328125 
Q 29.296875 6.6875 41.796875 6.6875 
Q 48.140625 6.6875 53.78125 8.984375 
Q 59.421875 11.28125 64.40625 15.921875 
L 64.40625 5.609375 
Q 59.234375 2.09375 53.4375 0.328125 
Q 47.65625 -1.421875 41.21875 -1.421875 
Q 24.65625 -1.421875 15.125 8.703125 
Q 5.609375 18.84375 5.609375 36.375 
Q 5.609375 53.953125 15.125 64.078125 
Q 24.65625 74.21875 41.21875 74.21875 
Q 47.75 74.21875 53.53125 72.484375 
Q 59.328125 70.75 64.40625 67.28125 
z
" id="DejaVuSans-43"/>
     <path d="M 8.6875 72.90625 
L 18.609375 72.90625 
L 18.609375 28.609375 
Q 18.609375 16.890625 22.84375 11.734375 
Q 27.09375 6.59375 36.625 6.59375 
Q 46.09375 6.59375 50.34375 11.734375 
Q 54.59375 16.890625 54.59375 28.609375 
L 54.59375 72.90625 
L 64.5 72.90625 
L 64.5 27.390625 
Q 64.5 13.140625 57.4375 5.859375 
Q 50.390625 -1.421875 36.625 -1.421875 
Q 22.796875 -1.421875 15.734375 5.859375 
Q 8.6875 13.140625 8.6875 27.390625 
z
" id="DejaVuSans-55"/>
     <path d="M 54.890625 33.015625 
L 54.890625 0 
L 45.90625 0 
L 45.90625 32.71875 
Q 45.90625 40.484375 42.875 44.328125 
Q 39.84375 48.1875 33.796875 48.1875 
Q 26.515625 48.1875 22.3125 43.546875 
Q 18.109375 38.921875 18.109375 30.90625 
L 18.109375 0 
L 9.078125 0 
L 9.078125 54.6875 
L 18.109375 54.6875 
L 18.109375 46.1875 
Q 21.34375 51.125 25.703125 53.5625 
Q 30.078125 56 35.796875 56 
Q 45.21875 56 50.046875 50.171875 
Q 54.890625 44.34375 54.890625 33.015625 
z
" id="DejaVuSans-6e"/>
     <path d="M 48.78125 52.59375 
L 48.78125 44.1875 
Q 44.96875 46.296875 41.140625 47.34375 
Q 37.3125 48.390625 33.40625 48.390625 
Q 24.65625 48.390625 19.8125 42.84375 
Q 14.984375 37.3125 14.984375 27.296875 
Q 14.984375 17.28125 19.8125 11.734375 
Q 24.65625 6.203125 33.40625 6.203125 
Q 37.3125 6.203125 41.140625 7.25 
Q 44.96875 8.296875 48.78125 10.40625 
L 48.78125 2.09375 
Q 45.015625 0.34375 40.984375 -0.53125 
Q 36.96875 -1.421875 32.421875 -1.421875 
Q 20.0625 -1.421875 12.78125 6.34375 
Q 5.515625 14.109375 5.515625 27.296875 
Q 5.515625 40.671875 12.859375 48.328125 
Q 20.21875 56 33.015625 56 
Q 37.15625 56 41.109375 55.140625 
Q 45.0625 54.296875 48.78125 52.59375 
z
" id="DejaVuSans-63"/>
     <path d="M 41.109375 46.296875 
Q 39.59375 47.171875 37.8125 47.578125 
Q 36.03125 48 33.890625 48 
Q 26.265625 48 22.1875 43.046875 
Q 18.109375 38.09375 18.109375 28.8125 
L 18.109375 0 
L 9.078125 0 
L 9.078125 54.6875 
L 18.109375 54.6875 
L 18.109375 46.1875 
Q 20.953125 51.171875 25.484375 53.578125 
Q 30.03125 56 36.53125 56 
Q 37.453125 56 38.578125 55.875 
Q 39.703125 55.765625 41.0625 55.515625 
z
" id="DejaVuSans-72"/>
     <path d="M 9.421875 54.6875 
L 18.40625 54.6875 
L 18.40625 0 
L 9.421875 0 
z
M 9.421875 75.984375 
L 18.40625 75.984375 
L 18.40625 64.59375 
L 9.421875 64.59375 
z
" id="DejaVuSans-69"/>
     <path d="M 32.171875 -5.078125 
Q 28.375 -14.84375 24.75 -17.8125 
Q 21.140625 -20.796875 15.09375 -20.796875 
L 7.90625 -20.796875 
L 7.90625 -13.28125 
L 13.1875 -13.28125 
Q 16.890625 -13.28125 18.9375 -11.515625 
Q 21 -9.765625 23.484375 -3.21875 
L 25.09375 0.875 
L 2.984375 54.6875 
L 12.5 54.6875 
L 29.59375 11.921875 
L 46.6875 54.6875 
L 56.203125 54.6875 
z
" id="DejaVuSans-79"/>
    </defs>
    <g transform="translate(118.112813 35.472)scale(0.12 -0.12)">
     <use xlink:href="#DejaVuSans-50"/>
     <use x="60.302734" xlink:href="#DejaVuSans-6c"/>
     <use x="88.085938" xlink:href="#DejaVuSans-6f"/>
     <use x="149.267578" xlink:href="#DejaVuSans-74"/>
     <use x="188.476562" xlink:href="#DejaVuSans-20"/>
     <use x="220.263672" xlink:href="#DejaVuSans-6f"/>
     <use x="281.445312" xlink:href="#DejaVuSans-66"/>
     <use x="316.650391" xlink:href="#DejaVuSans-20"/>
     <use x="348.4375" xlink:href="#DejaVuSans-54"/>
     <use x="409.255859" xlink:href="#DejaVuSans-65"/>
     <use x="470.779297" xlink:href="#DejaVuSans-73"/>
     <use x="522.878906" xlink:href="#DejaVuSans-74"/>
     <use x="562.087891" xlink:href="#DejaVuSans-20"/>
     <use x="593.875" xlink:href="#DejaVuSans-44"/>
     <use x="670.876953" xlink:href="#DejaVuSans-61"/>
     <use x="732.15625" xlink:href="#DejaVuSans-74"/>
     <use x="771.365234" xlink:href="#DejaVuSans-61"/>
     <use x="832.644531" xlink:href="#DejaVuSans-20"/>
     <use x="864.431641" xlink:href="#DejaVuSans-76"/>
     <use x="923.611328" xlink:href="#DejaVuSans-73"/>
     <use x="975.710938" xlink:href="#DejaVuSans-20"/>
     <use x="1007.498047" xlink:href="#DejaVuSans-4d"/>
     <use x="1093.777344" xlink:href="#DejaVuSans-43"/>
     <use x="1163.601562" xlink:href="#DejaVuSans-4d"/>
     <use x="1249.880859" xlink:href="#DejaVuSans-43"/>
     <use x="1319.705078" xlink:href="#DejaVuSans-20"/>
     <use x="1351.492188" xlink:href="#DejaVuSans-55"/>
     <use x="1424.685547" xlink:href="#DejaVuSans-6e"/>
     <use x="1488.064453" xlink:href="#DejaVuSans-63"/>
     <use x="1543.044922" xlink:href="#DejaVuSans-65"/>
     <use x="1604.568359" xlink:href="#DejaVuSans-72"/>
     <use x="1645.681641" xlink:href="#DejaVuSans-74"/>
     <use x="1684.890625" xlink:href="#DejaVuSans-61"/>
     <use x="1746.169922" xlink:href="#DejaVuSans-69"/>
     <use x="1773.953125" xlink:href="#DejaVuSans-6e"/>
     <use x="1837.332031" xlink:href="#DejaVuSans-74"/>
     <use x="1876.541016" xlink:href="#DejaVuSans-79"/>
     <use x="1935.720703" xlink:href="#DejaVuSans-20"/>
    </g>
   </g>
   <g id="legend_1">
    <g id="patch_7">
     <path d="M 275.02 108.1845 
L 407.72 108.1845 
Q 409.72 108.1845 409.72 106.1845 
L 409.72 48.472 
Q 409.72 46.472 407.72 46.472 
L 275.02 46.472 
Q 273.02 46.472 273.02 48.472 
L 273.02 106.1845 
Q 273.02 108.1845 275.02 108.1845 
z
" style="fill:#ffffff;opacity:0.8;stroke:#cccccc;stroke-linejoin:miter;"/>
    </g>
    <g id="line2d_18">
     <path d="M 277.02 54.570438 
L 297.02 54.570438 
" style="fill:none;stroke:#66c2a5;stroke-linecap:square;stroke-width:1.5;"/>
    </g>
    <g id="line2d_19"/>
    <g id="text_15">
     <!-- actual -->
     <defs>
      <path d="M 8.5 21.578125 
L 8.5 54.6875 
L 17.484375 54.6875 
L 17.484375 21.921875 
Q 17.484375 14.15625 20.5 10.265625 
Q 23.53125 6.390625 29.59375 6.390625 
Q 36.859375 6.390625 41.078125 11.03125 
Q 45.3125 15.671875 45.3125 23.6875 
L 45.3125 54.6875 
L 54.296875 54.6875 
L 54.296875 0 
L 45.3125 0 
L 45.3125 8.40625 
Q 42.046875 3.421875 37.71875 1 
Q 33.40625 -1.421875 27.6875 -1.421875 
Q 18.265625 -1.421875 13.375 4.4375 
Q 8.5 10.296875 8.5 21.578125 
z
M 31.109375 56 
z
" id="DejaVuSans-75"/>
     </defs>
     <g transform="translate(305.02 58.070438)scale(0.1 -0.1)">
      <use xlink:href="#DejaVuSans-61"/>
      <use x="61.279297" xlink:href="#DejaVuSans-63"/>
      <use x="116.259766" xlink:href="#DejaVuSans-74"/>
      <use x="155.46875" xlink:href="#DejaVuSans-75"/>
      <use x="218.847656" xlink:href="#DejaVuSans-61"/>
      <use x="280.126953" xlink:href="#DejaVuSans-6c"/>
     </g>
    </g>
    <g id="line2d_20">
     <path d="M 277.02 69.248563 
L 297.02 69.248563 
" style="fill:none;stroke:#fc8d62;stroke-linecap:square;stroke-width:1.5;"/>
    </g>
    <g id="line2d_21"/>
    <g id="text_16">
     <!-- pred. (mean) -->
     <defs>
      <path d="M 18.109375 8.203125 
L 18.109375 -20.796875 
L 9.078125 -20.796875 
L 9.078125 54.6875 
L 18.109375 54.6875 
L 18.109375 46.390625 
Q 20.953125 51.265625 25.265625 53.625 
Q 29.59375 56 35.59375 56 
Q 45.5625 56 51.78125 48.09375 
Q 58.015625 40.1875 58.015625 27.296875 
Q 58.015625 14.40625 51.78125 6.484375 
Q 45.5625 -1.421875 35.59375 -1.421875 
Q 29.59375 -1.421875 25.265625 0.953125 
Q 20.953125 3.328125 18.109375 8.203125 
z
M 48.6875 27.296875 
Q 48.6875 37.203125 44.609375 42.84375 
Q 40.53125 48.484375 33.40625 48.484375 
Q 26.265625 48.484375 22.1875 42.84375 
Q 18.109375 37.203125 18.109375 27.296875 
Q 18.109375 17.390625 22.1875 11.75 
Q 26.265625 6.109375 33.40625 6.109375 
Q 40.53125 6.109375 44.609375 11.75 
Q 48.6875 17.390625 48.6875 27.296875 
z
" id="DejaVuSans-70"/>
      <path d="M 45.40625 46.390625 
L 45.40625 75.984375 
L 54.390625 75.984375 
L 54.390625 0 
L 45.40625 0 
L 45.40625 8.203125 
Q 42.578125 3.328125 38.25 0.953125 
Q 33.9375 -1.421875 27.875 -1.421875 
Q 17.96875 -1.421875 11.734375 6.484375 
Q 5.515625 14.40625 5.515625 27.296875 
Q 5.515625 40.1875 11.734375 48.09375 
Q 17.96875 56 27.875 56 
Q 33.9375 56 38.25 53.625 
Q 42.578125 51.265625 45.40625 46.390625 
z
M 14.796875 27.296875 
Q 14.796875 17.390625 18.875 11.75 
Q 22.953125 6.109375 30.078125 6.109375 
Q 37.203125 6.109375 41.296875 11.75 
Q 45.40625 17.390625 45.40625 27.296875 
Q 45.40625 37.203125 41.296875 42.84375 
Q 37.203125 48.484375 30.078125 48.484375 
Q 22.953125 48.484375 18.875 42.84375 
Q 14.796875 37.203125 14.796875 27.296875 
z
" id="DejaVuSans-64"/>
      <path d="M 31 75.875 
Q 24.46875 64.65625 21.28125 53.65625 
Q 18.109375 42.671875 18.109375 31.390625 
Q 18.109375 20.125 21.3125 9.0625 
Q 24.515625 -2 31 -13.1875 
L 23.1875 -13.1875 
Q 15.875 -1.703125 12.234375 9.375 
Q 8.59375 20.453125 8.59375 31.390625 
Q 8.59375 42.28125 12.203125 53.3125 
Q 15.828125 64.359375 23.1875 75.875 
z
" id="DejaVuSans-28"/>
      <path d="M 52 44.1875 
Q 55.375 50.25 60.0625 53.125 
Q 64.75 56 71.09375 56 
Q 79.640625 56 84.28125 50.015625 
Q 88.921875 44.046875 88.921875 33.015625 
L 88.921875 0 
L 79.890625 0 
L 79.890625 32.71875 
Q 79.890625 40.578125 77.09375 44.375 
Q 74.3125 48.1875 68.609375 48.1875 
Q 61.625 48.1875 57.5625 43.546875 
Q 53.515625 38.921875 53.515625 30.90625 
L 53.515625 0 
L 44.484375 0 
L 44.484375 32.71875 
Q 44.484375 40.625 41.703125 44.40625 
Q 38.921875 48.1875 33.109375 48.1875 
Q 26.21875 48.1875 22.15625 43.53125 
Q 18.109375 38.875 18.109375 30.90625 
L 18.109375 0 
L 9.078125 0 
L 9.078125 54.6875 
L 18.109375 54.6875 
L 18.109375 46.1875 
Q 21.1875 51.21875 25.484375 53.609375 
Q 29.78125 56 35.6875 56 
Q 41.65625 56 45.828125 52.96875 
Q 50 49.953125 52 44.1875 
z
" id="DejaVuSans-6d"/>
      <path d="M 8.015625 75.875 
L 15.828125 75.875 
Q 23.140625 64.359375 26.78125 53.3125 
Q 30.421875 42.28125 30.421875 31.390625 
Q 30.421875 20.453125 26.78125 9.375 
Q 23.140625 -1.703125 15.828125 -13.1875 
L 8.015625 -13.1875 
Q 14.5 -2 17.703125 9.0625 
Q 20.90625 20.125 20.90625 31.390625 
Q 20.90625 42.671875 17.703125 53.65625 
Q 14.5 64.65625 8.015625 75.875 
z
" id="DejaVuSans-29"/>
     </defs>
     <g transform="translate(305.02 72.748563)scale(0.1 -0.1)">
      <use xlink:href="#DejaVuSans-70"/>
      <use x="63.476562" xlink:href="#DejaVuSans-72"/>
      <use x="104.558594" xlink:href="#DejaVuSans-65"/>
      <use x="166.082031" xlink:href="#DejaVuSans-64"/>
      <use x="229.558594" xlink:href="#DejaVuSans-2e"/>
      <use x="261.345703" xlink:href="#DejaVuSans-20"/>
      <use x="293.132812" xlink:href="#DejaVuSans-28"/>
      <use x="332.146484" xlink:href="#DejaVuSans-6d"/>
      <use x="429.558594" xlink:href="#DejaVuSans-65"/>
      <use x="491.082031" xlink:href="#DejaVuSans-61"/>
      <use x="552.361328" xlink:href="#DejaVuSans-6e"/>
      <use x="615.740234" xlink:href="#DejaVuSans-29"/>
     </g>
    </g>
    <g id="line2d_22">
     <path d="M 277.02 83.926688 
L 297.02 83.926688 
" style="fill:none;stroke:#8da0cb;stroke-linecap:square;stroke-width:1.5;"/>
    </g>
    <g id="line2d_23"/>
    <g id="text_17">
     <!-- pred.(5th percen.) -->
     <defs>
      <path d="M 54.890625 33.015625 
L 54.890625 0 
L 45.90625 0 
L 45.90625 32.71875 
Q 45.90625 40.484375 42.875 44.328125 
Q 39.84375 48.1875 33.796875 48.1875 
Q 26.515625 48.1875 22.3125 43.546875 
Q 18.109375 38.921875 18.109375 30.90625 
L 18.109375 0 
L 9.078125 0 
L 9.078125 75.984375 
L 18.109375 75.984375 
L 18.109375 46.1875 
Q 21.34375 51.125 25.703125 53.5625 
Q 30.078125 56 35.796875 56 
Q 45.21875 56 50.046875 50.171875 
Q 54.890625 44.34375 54.890625 33.015625 
z
" id="DejaVuSans-68"/>
     </defs>
     <g transform="translate(305.02 87.426688)scale(0.1 -0.1)">
      <use xlink:href="#DejaVuSans-70"/>
      <use x="63.476562" xlink:href="#DejaVuSans-72"/>
      <use x="104.558594" xlink:href="#DejaVuSans-65"/>
      <use x="166.082031" xlink:href="#DejaVuSans-64"/>
      <use x="229.558594" xlink:href="#DejaVuSans-2e"/>
      <use x="261.345703" xlink:href="#DejaVuSans-28"/>
      <use x="300.359375" xlink:href="#DejaVuSans-35"/>
      <use x="363.982422" xlink:href="#DejaVuSans-74"/>
      <use x="403.191406" xlink:href="#DejaVuSans-68"/>
      <use x="466.570312" xlink:href="#DejaVuSans-20"/>
      <use x="498.357422" xlink:href="#DejaVuSans-70"/>
      <use x="561.833984" xlink:href="#DejaVuSans-65"/>
      <use x="623.357422" xlink:href="#DejaVuSans-72"/>
      <use x="664.439453" xlink:href="#DejaVuSans-63"/>
      <use x="719.419922" xlink:href="#DejaVuSans-65"/>
      <use x="780.943359" xlink:href="#DejaVuSans-6e"/>
      <use x="844.322266" xlink:href="#DejaVuSans-2e"/>
      <use x="876.109375" xlink:href="#DejaVuSans-29"/>
     </g>
    </g>
    <g id="line2d_24">
     <path d="M 277.02 98.604813 
L 297.02 98.604813 
" style="fill:none;stroke:#e78ac3;stroke-linecap:square;stroke-width:1.5;"/>
    </g>
    <g id="line2d_25"/>
    <g id="text_18">
     <!-- pred.(95th	percen.) -->
     <defs>
      <path d="M 10.984375 1.515625 
L 10.984375 10.5 
Q 14.703125 8.734375 18.5 7.8125 
Q 22.3125 6.890625 25.984375 6.890625 
Q 35.75 6.890625 40.890625 13.453125 
Q 46.046875 20.015625 46.78125 33.40625 
Q 43.953125 29.203125 39.59375 26.953125 
Q 35.25 24.703125 29.984375 24.703125 
Q 19.046875 24.703125 12.671875 31.3125 
Q 6.296875 37.9375 6.296875 49.421875 
Q 6.296875 60.640625 12.9375 67.421875 
Q 19.578125 74.21875 30.609375 74.21875 
Q 43.265625 74.21875 49.921875 64.515625 
Q 56.59375 54.828125 56.59375 36.375 
Q 56.59375 19.140625 48.40625 8.859375 
Q 40.234375 -1.421875 26.421875 -1.421875 
Q 22.703125 -1.421875 18.890625 -0.6875 
Q 15.09375 0.046875 10.984375 1.515625 
z
M 30.609375 32.421875 
Q 37.25 32.421875 41.125 36.953125 
Q 45.015625 41.5 45.015625 49.421875 
Q 45.015625 57.28125 41.125 61.84375 
Q 37.25 66.40625 30.609375 66.40625 
Q 23.96875 66.40625 20.09375 61.84375 
Q 16.21875 57.28125 16.21875 49.421875 
Q 16.21875 41.5 20.09375 36.953125 
Q 23.96875 32.421875 30.609375 32.421875 
z
" id="DejaVuSans-39"/>
      <path d="M 4.984375 -17.671875 
L 4.984375 70.515625 
L 54.984375 70.515625 
L 54.984375 -17.671875 
z
M 10.59375 -12.109375 
L 49.421875 -12.109375 
L 49.421875 64.890625 
L 10.59375 64.890625 
z
" id="DejaVuSans-9"/>
     </defs>
     <g transform="translate(305.02 102.104813)scale(0.1 -0.1)">
      <use xlink:href="#DejaVuSans-70"/>
      <use x="63.476562" xlink:href="#DejaVuSans-72"/>
      <use x="104.558594" xlink:href="#DejaVuSans-65"/>
      <use x="166.082031" xlink:href="#DejaVuSans-64"/>
      <use x="229.558594" xlink:href="#DejaVuSans-2e"/>
      <use x="261.345703" xlink:href="#DejaVuSans-28"/>
      <use x="300.359375" xlink:href="#DejaVuSans-39"/>
      <use x="363.982422" xlink:href="#DejaVuSans-35"/>
      <use x="427.605469" xlink:href="#DejaVuSans-74"/>
      <use x="466.814453" xlink:href="#DejaVuSans-68"/>
      <use x="530.193359" xlink:href="#DejaVuSans-9"/>
      <use x="590.203125" xlink:href="#DejaVuSans-70"/>
      <use x="653.679688" xlink:href="#DejaVuSans-65"/>
      <use x="715.203125" xlink:href="#DejaVuSans-72"/>
      <use x="756.285156" xlink:href="#DejaVuSans-63"/>
      <use x="811.265625" xlink:href="#DejaVuSans-65"/>
      <use x="872.789062" xlink:href="#DejaVuSans-6e"/>
      <use x="936.167969" xlink:href="#DejaVuSans-2e"/>
      <use x="967.955078" xlink:href="#DejaVuSans-29"/>
     </g>
    </g>
   </g>
  </g>
 </g>
 <defs>
  <clipPath id="p57312ad01b">
   <rect height="266.112" width="357.12" x="57.6" y="41.472"/>
  </clipPath>
 </defs>
</svg>
