<?xml version="1.0" encoding="utf-8" standalone="no"?>
<!DOCTYPE svg PUBLIC "-//W3C//DTD SVG 1.1//EN"
  "http://www.w3.org/Graphics/SVG/1.1/DTD/svg11.dtd">
<!-- Created with matplotlib (http://matplotlib.org/) -->
<svg height="345.6pt" version="1.1" viewBox="0 0 460.8 345.6" width="460.8pt" xmlns="http://www.w3.org/2000/svg" xmlns:xlink="http://www.w3.org/1999/xlink">
 <defs>
  <style type="text/css">
*{stroke-linecap:butt;stroke-linejoin:round;}
  </style>
 </defs>
 <g id="figure_1">
  <g id="patch_1">
   <path d="M 0 345.6 
L 460.8 345.6 
L 460.8 0 
L 0 0 
z
" style="fill:#ffffff;"/>
  </g>
  <g id="axes_1">
   <g id="patch_2">
    <path d="M 57.6 307.584 
L 414.72 307.584 
L 414.72 41.472 
L 57.6 41.472 
z
" style="fill:#ffffff;"/>
   </g>
   <g id="PolyCollection_1">
    <path clip-path="url(#p73f443d4e3)" d="M 73.832727 84.790635 
L 73.832727 174.55571 
L 75.48072 174.55571 
L 77.128713 174.55571 
L 78.776705 174.55571 
L 80.424698 174.55571 
L 82.07269 178.458539 
L 83.720683 178.458539 
L 85.368676 178.458539 
L 87.016668 178.458539 
L 88.664661 178.458539 
L 90.312653 178.458539 
L 91.960646 178.458539 
L 93.608639 186.264198 
L 95.256631 190.167028 
L 96.904624 205.778345 
L 98.552617 221.389662 
L 100.200609 233.09815 
L 101.848602 240.903809 
L 103.496594 244.806639 
L 105.144587 256.515127 
L 106.79258 260.417956 
L 108.440572 260.417956 
L 110.088565 264.320785 
L 111.736557 260.417956 
L 113.38455 260.417956 
L 115.032543 260.417956 
L 116.680535 264.320785 
L 118.328528 268.223615 
L 119.976521 268.223615 
L 121.624513 268.223615 
L 123.272506 268.223615 
L 124.920498 272.126444 
L 126.568491 272.126444 
L 128.216484 268.223615 
L 129.864476 268.223615 
L 131.512469 268.223615 
L 133.160461 268.223615 
L 134.808454 268.223615 
L 136.456447 272.126444 
L 138.104439 272.126444 
L 139.752432 268.223615 
L 141.400425 268.223615 
L 143.048417 268.223615 
L 144.69641 264.320785 
L 146.344402 256.515127 
L 147.992395 244.806639 
L 149.640388 233.09815 
L 151.28838 217.486833 
L 152.936373 197.972686 
L 154.584365 182.361369 
L 156.232358 178.458539 
L 157.880351 174.55571 
L 159.528343 174.55571 
L 161.176336 174.55571 
L 162.824329 174.55571 
L 164.472321 174.55571 
L 166.120314 174.55571 
L 167.768306 170.652881 
L 169.416299 170.652881 
L 171.064292 170.652881 
L 172.712284 170.652881 
L 174.360277 170.652881 
L 176.008269 170.652881 
L 177.656262 174.55571 
L 179.304255 174.55571 
L 180.952247 174.55571 
L 182.60024 174.55571 
L 184.248233 174.55571 
L 185.896225 174.55571 
L 187.544218 178.458539 
L 189.19221 174.55571 
L 190.840203 174.55571 
L 192.488196 178.458539 
L 194.136188 178.458539 
L 195.784181 182.361369 
L 197.432174 182.361369 
L 199.080166 190.167028 
L 200.728159 197.972686 
L 202.376151 201.875516 
L 204.024144 209.681174 
L 205.672137 217.486833 
L 207.320129 225.292492 
L 208.968122 229.195321 
L 210.616114 237.00098 
L 212.264107 237.00098 
L 213.9121 237.00098 
L 215.560092 237.00098 
L 217.208085 240.903809 
L 218.856078 237.00098 
L 220.50407 237.00098 
L 222.152063 240.903809 
L 223.800055 244.806639 
L 225.448048 248.709468 
L 227.096041 252.612297 
L 228.744033 260.417956 
L 230.392026 260.417956 
L 232.040018 264.320785 
L 233.688011 264.320785 
L 235.336004 264.320785 
L 236.983996 264.320785 
L 238.631989 264.320785 
L 240.279982 264.320785 
L 241.927974 268.223615 
L 243.575967 268.223615 
L 245.223959 272.126444 
L 246.871952 272.126444 
L 248.519945 272.126444 
L 250.167937 272.126444 
L 251.81593 272.126444 
L 253.463922 272.126444 
L 255.111915 272.126444 
L 256.759908 272.126444 
L 258.4079 272.126444 
L 260.055893 272.126444 
L 261.703886 268.223615 
L 263.351878 268.223615 
L 264.999871 264.320785 
L 266.647863 260.417956 
L 268.295856 252.612297 
L 269.943849 244.806639 
L 271.591841 237.00098 
L 273.239834 229.195321 
L 274.887826 221.389662 
L 276.535819 209.681174 
L 278.183812 201.875516 
L 279.831804 197.972686 
L 281.479797 190.167028 
L 283.12779 182.361369 
L 284.775782 182.361369 
L 286.423775 178.458539 
L 288.071767 178.458539 
L 289.71976 174.55571 
L 291.367753 178.458539 
L 293.015745 174.55571 
L 294.663738 174.55571 
L 296.311731 174.55571 
L 297.959723 178.458539 
L 299.607716 178.458539 
L 301.255708 174.55571 
L 302.903701 174.55571 
L 304.551694 178.458539 
L 306.199686 178.458539 
L 307.847679 174.55571 
L 309.495671 174.55571 
L 311.143664 178.458539 
L 312.791657 182.361369 
L 314.439649 182.361369 
L 316.087642 182.361369 
L 317.735635 182.361369 
L 319.383627 182.361369 
L 321.03162 182.361369 
L 322.679612 178.458539 
L 324.327605 182.361369 
L 325.975598 194.069857 
L 327.62359 201.875516 
L 329.271583 197.972686 
L 330.919575 205.778345 
L 332.567568 217.486833 
L 334.215561 225.292492 
L 335.863553 229.195321 
L 337.511546 237.00098 
L 339.159539 248.709468 
L 340.807531 256.515127 
L 342.455524 260.417956 
L 344.103516 260.417956 
L 345.751509 264.320785 
L 347.399502 268.223615 
L 349.047494 268.223615 
L 350.695487 272.126444 
L 352.343479 272.126444 
L 353.991472 272.126444 
L 355.639465 272.126444 
L 357.287457 272.126444 
L 358.93545 272.126444 
L 360.583443 272.126444 
L 362.231435 272.126444 
L 363.879428 272.126444 
L 365.52742 272.126444 
L 367.175413 272.126444 
L 368.823406 276.029273 
L 370.471398 276.029273 
L 372.119391 272.126444 
L 373.767383 272.126444 
L 375.415376 272.126444 
L 377.063369 268.223615 
L 378.711361 264.320785 
L 380.359354 260.417956 
L 382.007347 252.612297 
L 383.655339 240.903809 
L 385.303332 217.486833 
L 386.951324 197.972686 
L 388.599317 190.167028 
L 390.24731 182.361369 
L 391.895302 178.458539 
L 393.543295 174.55571 
L 395.191287 178.458539 
L 396.83928 178.458539 
L 398.487273 178.458539 
L 398.487273 84.790635 
L 398.487273 84.790635 
L 396.83928 88.693464 
L 395.191287 88.693464 
L 393.543295 84.790635 
L 391.895302 84.790635 
L 390.24731 84.790635 
L 388.599317 84.790635 
L 386.951324 80.887806 
L 385.303332 73.082147 
L 383.655339 73.082147 
L 382.007347 69.179317 
L 380.359354 65.276488 
L 378.711361 65.276488 
L 377.063369 65.276488 
L 375.415376 65.276488 
L 373.767383 61.373659 
L 372.119391 61.373659 
L 370.471398 61.373659 
L 368.823406 61.373659 
L 367.175413 61.373659 
L 365.52742 61.373659 
L 363.879428 65.276488 
L 362.231435 65.276488 
L 360.583443 65.276488 
L 358.93545 65.276488 
L 357.287457 61.373659 
L 355.639465 65.276488 
L 353.991472 65.276488 
L 352.343479 65.276488 
L 350.695487 65.276488 
L 349.047494 65.276488 
L 347.399502 69.179317 
L 345.751509 69.179317 
L 344.103516 69.179317 
L 342.455524 69.179317 
L 340.807531 73.082147 
L 339.159539 76.984976 
L 337.511546 76.984976 
L 335.863553 80.887806 
L 334.215561 80.887806 
L 332.567568 84.790635 
L 330.919575 84.790635 
L 329.271583 80.887806 
L 327.62359 84.790635 
L 325.975598 88.693464 
L 324.327605 88.693464 
L 322.679612 84.790635 
L 321.03162 84.790635 
L 319.383627 88.693464 
L 317.735635 84.790635 
L 316.087642 84.790635 
L 314.439649 84.790635 
L 312.791657 88.693464 
L 311.143664 88.693464 
L 309.495671 84.790635 
L 307.847679 84.790635 
L 306.199686 88.693464 
L 304.551694 88.693464 
L 302.903701 84.790635 
L 301.255708 84.790635 
L 299.607716 88.693464 
L 297.959723 88.693464 
L 296.311731 84.790635 
L 294.663738 84.790635 
L 293.015745 84.790635 
L 291.367753 88.693464 
L 289.71976 84.790635 
L 288.071767 84.790635 
L 286.423775 84.790635 
L 284.775782 84.790635 
L 283.12779 84.790635 
L 281.479797 80.887806 
L 279.831804 84.790635 
L 278.183812 80.887806 
L 276.535819 80.887806 
L 274.887826 76.984976 
L 273.239834 76.984976 
L 271.591841 73.082147 
L 269.943849 73.082147 
L 268.295856 69.179317 
L 266.647863 69.179317 
L 264.999871 65.276488 
L 263.351878 65.276488 
L 261.703886 65.276488 
L 260.055893 65.276488 
L 258.4079 61.373659 
L 256.759908 61.373659 
L 255.111915 65.276488 
L 253.463922 61.373659 
L 251.81593 61.373659 
L 250.167937 61.373659 
L 248.519945 65.276488 
L 246.871952 65.276488 
L 245.223959 65.276488 
L 243.575967 65.276488 
L 241.927974 69.179317 
L 240.279982 69.179317 
L 238.631989 69.179317 
L 236.983996 69.179317 
L 235.336004 69.179317 
L 233.688011 69.179317 
L 232.040018 69.179317 
L 230.392026 69.179317 
L 228.744033 73.082147 
L 227.096041 73.082147 
L 225.448048 73.082147 
L 223.800055 76.984976 
L 222.152063 76.984976 
L 220.50407 76.984976 
L 218.856078 76.984976 
L 217.208085 76.984976 
L 215.560092 76.984976 
L 213.9121 76.984976 
L 212.264107 76.984976 
L 210.616114 76.984976 
L 208.968122 80.887806 
L 207.320129 80.887806 
L 205.672137 80.887806 
L 204.024144 84.790635 
L 202.376151 84.790635 
L 200.728159 84.790635 
L 199.080166 84.790635 
L 197.432174 88.693464 
L 195.784181 88.693464 
L 194.136188 88.693464 
L 192.488196 88.693464 
L 190.840203 84.790635 
L 189.19221 84.790635 
L 187.544218 88.693464 
L 185.896225 84.790635 
L 184.248233 80.887806 
L 182.60024 76.984976 
L 180.952247 69.179317 
L 179.304255 65.276488 
L 177.656262 57.470829 
L 176.008269 53.568 
L 174.360277 57.470829 
L 172.712284 57.470829 
L 171.064292 61.373659 
L 169.416299 65.276488 
L 167.768306 69.179317 
L 166.120314 73.082147 
L 164.472321 76.984976 
L 162.824329 80.887806 
L 161.176336 80.887806 
L 159.528343 84.790635 
L 157.880351 84.790635 
L 156.232358 84.790635 
L 154.584365 80.887806 
L 152.936373 80.887806 
L 151.28838 76.984976 
L 149.640388 73.082147 
L 147.992395 73.082147 
L 146.344402 69.179317 
L 144.69641 69.179317 
L 143.048417 65.276488 
L 141.400425 65.276488 
L 139.752432 65.276488 
L 138.104439 65.276488 
L 136.456447 65.276488 
L 134.808454 65.276488 
L 133.160461 65.276488 
L 131.512469 65.276488 
L 129.864476 65.276488 
L 128.216484 65.276488 
L 126.568491 65.276488 
L 124.920498 65.276488 
L 123.272506 65.276488 
L 121.624513 65.276488 
L 119.976521 65.276488 
L 118.328528 69.179317 
L 116.680535 69.179317 
L 115.032543 69.179317 
L 113.38455 69.179317 
L 111.736557 69.179317 
L 110.088565 69.179317 
L 108.440572 69.179317 
L 106.79258 73.082147 
L 105.144587 76.984976 
L 103.496594 76.984976 
L 101.848602 76.984976 
L 100.200609 80.887806 
L 98.552617 84.790635 
L 96.904624 84.790635 
L 95.256631 84.790635 
L 93.608639 88.693464 
L 91.960646 88.693464 
L 90.312653 88.693464 
L 88.664661 84.790635 
L 87.016668 84.790635 
L 85.368676 88.693464 
L 83.720683 88.693464 
L 82.07269 88.693464 
L 80.424698 84.790635 
L 78.776705 84.790635 
L 77.128713 80.887806 
L 75.48072 80.887806 
L 73.832727 84.790635 
z
" style="fill:#008000;fill-opacity:0.4;"/>
   </g>
   <g id="matplotlib.axis_1">
    <g id="xtick_1">
     <g id="line2d_1">
      <defs>
       <path d="M 0 0 
L 0 3.5 
" id="mcdf5761f3c" style="stroke:#000000;stroke-width:0.8;"/>
      </defs>
      <g>
       <use style="stroke:#000000;stroke-width:0.8;" x="73.832727" xlink:href="#mcdf5761f3c" y="307.584"/>
      </g>
     </g>
     <g id="text_1">
      <!-- 0.0 -->
      <defs>
       <path d="M 31.78125 66.40625 
Q 24.171875 66.40625 20.328125 58.90625 
Q 16.5 51.421875 16.5 36.375 
Q 16.5 21.390625 20.328125 13.890625 
Q 24.171875 6.390625 31.78125 6.390625 
Q 39.453125 6.390625 43.28125 13.890625 
Q 47.125 21.390625 47.125 36.375 
Q 47.125 51.421875 43.28125 58.90625 
Q 39.453125 66.40625 31.78125 66.40625 
z
M 31.78125 74.21875 
Q 44.046875 74.21875 50.515625 64.515625 
Q 56.984375 54.828125 56.984375 36.375 
Q 56.984375 17.96875 50.515625 8.265625 
Q 44.046875 -1.421875 31.78125 -1.421875 
Q 19.53125 -1.421875 13.0625 8.265625 
Q 6.59375 17.96875 6.59375 36.375 
Q 6.59375 54.828125 13.0625 64.515625 
Q 19.53125 74.21875 31.78125 74.21875 
z
" id="DejaVuSans-30"/>
       <path d="M 10.6875 12.40625 
L 21 12.40625 
L 21 0 
L 10.6875 0 
z
" id="DejaVuSans-2e"/>
      </defs>
      <g transform="translate(65.881165 322.182437)scale(0.1 -0.1)">
       <use xlink:href="#DejaVuSans-30"/>
       <use x="63.623047" xlink:href="#DejaVuSans-2e"/>
       <use x="95.410156" xlink:href="#DejaVuSans-30"/>
      </g>
     </g>
    </g>
    <g id="xtick_2">
     <g id="line2d_2">
      <g>
       <use style="stroke:#000000;stroke-width:0.8;" x="138.763636" xlink:href="#mcdf5761f3c" y="307.584"/>
      </g>
     </g>
     <g id="text_2">
      <!-- 0.2 -->
      <defs>
       <path d="M 19.1875 8.296875 
L 53.609375 8.296875 
L 53.609375 0 
L 7.328125 0 
L 7.328125 8.296875 
Q 12.9375 14.109375 22.625 23.890625 
Q 32.328125 33.6875 34.8125 36.53125 
Q 39.546875 41.84375 41.421875 45.53125 
Q 43.3125 49.21875 43.3125 52.78125 
Q 43.3125 58.59375 39.234375 62.25 
Q 35.15625 65.921875 28.609375 65.921875 
Q 23.96875 65.921875 18.8125 64.3125 
Q 13.671875 62.703125 7.8125 59.421875 
L 7.8125 69.390625 
Q 13.765625 71.78125 18.9375 73 
Q 24.125 74.21875 28.421875 74.21875 
Q 39.75 74.21875 46.484375 68.546875 
Q 53.21875 62.890625 53.21875 53.421875 
Q 53.21875 48.921875 51.53125 44.890625 
Q 49.859375 40.875 45.40625 35.40625 
Q 44.1875 33.984375 37.640625 27.21875 
Q 31.109375 20.453125 19.1875 8.296875 
z
" id="DejaVuSans-32"/>
      </defs>
      <g transform="translate(130.812074 322.182437)scale(0.1 -0.1)">
       <use xlink:href="#DejaVuSans-30"/>
       <use x="63.623047" xlink:href="#DejaVuSans-2e"/>
       <use x="95.410156" xlink:href="#DejaVuSans-32"/>
      </g>
     </g>
    </g>
    <g id="xtick_3">
     <g id="line2d_3">
      <g>
       <use style="stroke:#000000;stroke-width:0.8;" x="203.694545" xlink:href="#mcdf5761f3c" y="307.584"/>
      </g>
     </g>
     <g id="text_3">
      <!-- 0.4 -->
      <defs>
       <path d="M 37.796875 64.3125 
L 12.890625 25.390625 
L 37.796875 25.390625 
z
M 35.203125 72.90625 
L 47.609375 72.90625 
L 47.609375 25.390625 
L 58.015625 25.390625 
L 58.015625 17.1875 
L 47.609375 17.1875 
L 47.609375 0 
L 37.796875 0 
L 37.796875 17.1875 
L 4.890625 17.1875 
L 4.890625 26.703125 
z
" id="DejaVuSans-34"/>
      </defs>
      <g transform="translate(195.742983 322.182437)scale(0.1 -0.1)">
       <use xlink:href="#DejaVuSans-30"/>
       <use x="63.623047" xlink:href="#DejaVuSans-2e"/>
       <use x="95.410156" xlink:href="#DejaVuSans-34"/>
      </g>
     </g>
    </g>
    <g id="xtick_4">
     <g id="line2d_4">
      <g>
       <use style="stroke:#000000;stroke-width:0.8;" x="268.625455" xlink:href="#mcdf5761f3c" y="307.584"/>
      </g>
     </g>
     <g id="text_4">
      <!-- 0.6 -->
      <defs>
       <path d="M 33.015625 40.375 
Q 26.375 40.375 22.484375 35.828125 
Q 18.609375 31.296875 18.609375 23.390625 
Q 18.609375 15.53125 22.484375 10.953125 
Q 26.375 6.390625 33.015625 6.390625 
Q 39.65625 6.390625 43.53125 10.953125 
Q 47.40625 15.53125 47.40625 23.390625 
Q 47.40625 31.296875 43.53125 35.828125 
Q 39.65625 40.375 33.015625 40.375 
z
M 52.59375 71.296875 
L 52.59375 62.3125 
Q 48.875 64.0625 45.09375 64.984375 
Q 41.3125 65.921875 37.59375 65.921875 
Q 27.828125 65.921875 22.671875 59.328125 
Q 17.53125 52.734375 16.796875 39.40625 
Q 19.671875 43.65625 24.015625 45.921875 
Q 28.375 48.1875 33.59375 48.1875 
Q 44.578125 48.1875 50.953125 41.515625 
Q 57.328125 34.859375 57.328125 23.390625 
Q 57.328125 12.15625 50.6875 5.359375 
Q 44.046875 -1.421875 33.015625 -1.421875 
Q 20.359375 -1.421875 13.671875 8.265625 
Q 6.984375 17.96875 6.984375 36.375 
Q 6.984375 53.65625 15.1875 63.9375 
Q 23.390625 74.21875 37.203125 74.21875 
Q 40.921875 74.21875 44.703125 73.484375 
Q 48.484375 72.75 52.59375 71.296875 
z
" id="DejaVuSans-36"/>
      </defs>
      <g transform="translate(260.673892 322.182437)scale(0.1 -0.1)">
       <use xlink:href="#DejaVuSans-30"/>
       <use x="63.623047" xlink:href="#DejaVuSans-2e"/>
       <use x="95.410156" xlink:href="#DejaVuSans-36"/>
      </g>
     </g>
    </g>
    <g id="xtick_5">
     <g id="line2d_5">
      <g>
       <use style="stroke:#000000;stroke-width:0.8;" x="333.556364" xlink:href="#mcdf5761f3c" y="307.584"/>
      </g>
     </g>
     <g id="text_5">
      <!-- 0.8 -->
      <defs>
       <path d="M 31.78125 34.625 
Q 24.75 34.625 20.71875 30.859375 
Q 16.703125 27.09375 16.703125 20.515625 
Q 16.703125 13.921875 20.71875 10.15625 
Q 24.75 6.390625 31.78125 6.390625 
Q 38.8125 6.390625 42.859375 10.171875 
Q 46.921875 13.96875 46.921875 20.515625 
Q 46.921875 27.09375 42.890625 30.859375 
Q 38.875 34.625 31.78125 34.625 
z
M 21.921875 38.8125 
Q 15.578125 40.375 12.03125 44.71875 
Q 8.5 49.078125 8.5 55.328125 
Q 8.5 64.0625 14.71875 69.140625 
Q 20.953125 74.21875 31.78125 74.21875 
Q 42.671875 74.21875 48.875 69.140625 
Q 55.078125 64.0625 55.078125 55.328125 
Q 55.078125 49.078125 51.53125 44.71875 
Q 48 40.375 41.703125 38.8125 
Q 48.828125 37.15625 52.796875 32.3125 
Q 56.78125 27.484375 56.78125 20.515625 
Q 56.78125 9.90625 50.3125 4.234375 
Q 43.84375 -1.421875 31.78125 -1.421875 
Q 19.734375 -1.421875 13.25 4.234375 
Q 6.78125 9.90625 6.78125 20.515625 
Q 6.78125 27.484375 10.78125 32.3125 
Q 14.796875 37.15625 21.921875 38.8125 
z
M 18.3125 54.390625 
Q 18.3125 48.734375 21.84375 45.5625 
Q 25.390625 42.390625 31.78125 42.390625 
Q 38.140625 42.390625 41.71875 45.5625 
Q 45.3125 48.734375 45.3125 54.390625 
Q 45.3125 60.0625 41.71875 63.234375 
Q 38.140625 66.40625 31.78125 66.40625 
Q 25.390625 66.40625 21.84375 63.234375 
Q 18.3125 60.0625 18.3125 54.390625 
z
" id="DejaVuSans-38"/>
      </defs>
      <g transform="translate(325.604801 322.182437)scale(0.1 -0.1)">
       <use xlink:href="#DejaVuSans-30"/>
       <use x="63.623047" xlink:href="#DejaVuSans-2e"/>
       <use x="95.410156" xlink:href="#DejaVuSans-38"/>
      </g>
     </g>
    </g>
    <g id="xtick_6">
     <g id="line2d_6">
      <g>
       <use style="stroke:#000000;stroke-width:0.8;" x="398.487273" xlink:href="#mcdf5761f3c" y="307.584"/>
      </g>
     </g>
     <g id="text_6">
      <!-- 1.0 -->
      <defs>
       <path d="M 12.40625 8.296875 
L 28.515625 8.296875 
L 28.515625 63.921875 
L 10.984375 60.40625 
L 10.984375 69.390625 
L 28.421875 72.90625 
L 38.28125 72.90625 
L 38.28125 8.296875 
L 54.390625 8.296875 
L 54.390625 0 
L 12.40625 0 
z
" id="DejaVuSans-31"/>
      </defs>
      <g transform="translate(390.53571 322.182437)scale(0.1 -0.1)">
       <use xlink:href="#DejaVuSans-31"/>
       <use x="63.623047" xlink:href="#DejaVuSans-2e"/>
       <use x="95.410156" xlink:href="#DejaVuSans-30"/>
      </g>
     </g>
    </g>
   </g>
   <g id="matplotlib.axis_2">
    <g id="ytick_1">
     <g id="line2d_7">
      <defs>
       <path d="M 0 0 
L -3.5 0 
" id="m4f85555be2" style="stroke:#000000;stroke-width:0.8;"/>
      </defs>
      <g>
       <use style="stroke:#000000;stroke-width:0.8;" x="57.6" xlink:href="#m4f85555be2" y="299.44625"/>
      </g>
     </g>
     <g id="text_7">
      <!-- 0.0 -->
      <g transform="translate(34.696875 303.245468)scale(0.1 -0.1)">
       <use xlink:href="#DejaVuSans-30"/>
       <use x="63.623047" xlink:href="#DejaVuSans-2e"/>
       <use x="95.410156" xlink:href="#DejaVuSans-30"/>
      </g>
     </g>
    </g>
    <g id="ytick_2">
     <g id="line2d_8">
      <g>
       <use style="stroke:#000000;stroke-width:0.8;" x="57.6" xlink:href="#m4f85555be2" y="260.417956"/>
      </g>
     </g>
     <g id="text_8">
      <!-- 0.1 -->
      <g transform="translate(34.696875 264.217175)scale(0.1 -0.1)">
       <use xlink:href="#DejaVuSans-30"/>
       <use x="63.623047" xlink:href="#DejaVuSans-2e"/>
       <use x="95.410156" xlink:href="#DejaVuSans-31"/>
      </g>
     </g>
    </g>
    <g id="ytick_3">
     <g id="line2d_9">
      <g>
       <use style="stroke:#000000;stroke-width:0.8;" x="57.6" xlink:href="#m4f85555be2" y="221.389662"/>
      </g>
     </g>
     <g id="text_9">
      <!-- 0.2 -->
      <g transform="translate(34.696875 225.188881)scale(0.1 -0.1)">
       <use xlink:href="#DejaVuSans-30"/>
       <use x="63.623047" xlink:href="#DejaVuSans-2e"/>
       <use x="95.410156" xlink:href="#DejaVuSans-32"/>
      </g>
     </g>
    </g>
    <g id="ytick_4">
     <g id="line2d_10">
      <g>
       <use style="stroke:#000000;stroke-width:0.8;" x="57.6" xlink:href="#m4f85555be2" y="182.361369"/>
      </g>
     </g>
     <g id="text_10">
      <!-- 0.3 -->
      <defs>
       <path d="M 40.578125 39.3125 
Q 47.65625 37.796875 51.625 33 
Q 55.609375 28.21875 55.609375 21.1875 
Q 55.609375 10.40625 48.1875 4.484375 
Q 40.765625 -1.421875 27.09375 -1.421875 
Q 22.515625 -1.421875 17.65625 -0.515625 
Q 12.796875 0.390625 7.625 2.203125 
L 7.625 11.71875 
Q 11.71875 9.328125 16.59375 8.109375 
Q 21.484375 6.890625 26.8125 6.890625 
Q 36.078125 6.890625 40.9375 10.546875 
Q 45.796875 14.203125 45.796875 21.1875 
Q 45.796875 27.640625 41.28125 31.265625 
Q 36.765625 34.90625 28.71875 34.90625 
L 20.21875 34.90625 
L 20.21875 43.015625 
L 29.109375 43.015625 
Q 36.375 43.015625 40.234375 45.921875 
Q 44.09375 48.828125 44.09375 54.296875 
Q 44.09375 59.90625 40.109375 62.90625 
Q 36.140625 65.921875 28.71875 65.921875 
Q 24.65625 65.921875 20.015625 65.03125 
Q 15.375 64.15625 9.8125 62.3125 
L 9.8125 71.09375 
Q 15.4375 72.65625 20.34375 73.4375 
Q 25.25 74.21875 29.59375 74.21875 
Q 40.828125 74.21875 47.359375 69.109375 
Q 53.90625 64.015625 53.90625 55.328125 
Q 53.90625 49.265625 50.4375 45.09375 
Q 46.96875 40.921875 40.578125 39.3125 
z
" id="DejaVuSans-33"/>
      </defs>
      <g transform="translate(34.696875 186.160588)scale(0.1 -0.1)">
       <use xlink:href="#DejaVuSans-30"/>
       <use x="63.623047" xlink:href="#DejaVuSans-2e"/>
       <use x="95.410156" xlink:href="#DejaVuSans-33"/>
      </g>
     </g>
    </g>
    <g id="ytick_5">
     <g id="line2d_11">
      <g>
       <use style="stroke:#000000;stroke-width:0.8;" x="57.6" xlink:href="#m4f85555be2" y="143.333075"/>
      </g>
     </g>
     <g id="text_11">
      <!-- 0.4 -->
      <g transform="translate(34.696875 147.132294)scale(0.1 -0.1)">
       <use xlink:href="#DejaVuSans-30"/>
       <use x="63.623047" xlink:href="#DejaVuSans-2e"/>
       <use x="95.410156" xlink:href="#DejaVuSans-34"/>
      </g>
     </g>
    </g>
    <g id="ytick_6">
     <g id="line2d_12">
      <g>
       <use style="stroke:#000000;stroke-width:0.8;" x="57.6" xlink:href="#m4f85555be2" y="104.304782"/>
      </g>
     </g>
     <g id="text_12">
      <!-- 0.5 -->
      <defs>
       <path d="M 10.796875 72.90625 
L 49.515625 72.90625 
L 49.515625 64.59375 
L 19.828125 64.59375 
L 19.828125 46.734375 
Q 21.96875 47.46875 24.109375 47.828125 
Q 26.265625 48.1875 28.421875 48.1875 
Q 40.625 48.1875 47.75 41.5 
Q 54.890625 34.8125 54.890625 23.390625 
Q 54.890625 11.625 47.5625 5.09375 
Q 40.234375 -1.421875 26.90625 -1.421875 
Q 22.3125 -1.421875 17.546875 -0.640625 
Q 12.796875 0.140625 7.71875 1.703125 
L 7.71875 11.625 
Q 12.109375 9.234375 16.796875 8.0625 
Q 21.484375 6.890625 26.703125 6.890625 
Q 35.15625 6.890625 40.078125 11.328125 
Q 45.015625 15.765625 45.015625 23.390625 
Q 45.015625 31 40.078125 35.4375 
Q 35.15625 39.890625 26.703125 39.890625 
Q 22.75 39.890625 18.8125 39.015625 
Q 14.890625 38.140625 10.796875 36.28125 
z
" id="DejaVuSans-35"/>
      </defs>
      <g transform="translate(34.696875 108.104)scale(0.1 -0.1)">
       <use xlink:href="#DejaVuSans-30"/>
       <use x="63.623047" xlink:href="#DejaVuSans-2e"/>
       <use x="95.410156" xlink:href="#DejaVuSans-35"/>
      </g>
     </g>
    </g>
    <g id="ytick_7">
     <g id="line2d_13">
      <g>
       <use style="stroke:#000000;stroke-width:0.8;" x="57.6" xlink:href="#m4f85555be2" y="65.276488"/>
      </g>
     </g>
     <g id="text_13">
      <!-- 0.6 -->
      <g transform="translate(34.696875 69.075707)scale(0.1 -0.1)">
       <use xlink:href="#DejaVuSans-30"/>
       <use x="63.623047" xlink:href="#DejaVuSans-2e"/>
       <use x="95.410156" xlink:href="#DejaVuSans-36"/>
      </g>
     </g>
    </g>
   </g>
   <g id="line2d_14">
    <path clip-path="url(#p73f443d4e3)" d="M 73.832727 106.811569 
L 75.48072 102.589488 
L 77.128713 110.242156 
L 78.776705 111.03365 
L 80.424698 128.713857 
L 82.07269 144.283024 
L 83.720683 156.421604 
L 85.368676 153.782901 
L 87.016668 147.977442 
L 88.664661 154.574395 
L 90.312653 159.58836 
L 91.960646 170.143561 
L 93.608639 174.893305 
L 95.256631 191.518187 
L 96.904624 209.462226 
L 100.200609 231.364514 
L 101.848602 237.961466 
L 103.496594 255.114011 
L 105.144587 262.766523 
L 106.79258 265.141472 
L 108.440572 268.044163 
L 110.088565 265.933122 
L 111.736557 265.141472 
L 113.38455 265.141472 
L 115.032543 269.363592 
L 116.680535 276.752312 
L 118.328528 278.863391 
L 119.976521 280.182781 
L 121.624513 284.141031 
L 123.272506 284.141031 
L 124.920498 285.460461 
L 126.568491 282.293861 
L 128.216484 280.710561 
L 129.864476 283.085511 
L 131.512469 282.821641 
L 133.160461 284.404901 
L 134.808454 284.668811 
L 136.456447 286.25211 
L 138.104439 284.141031 
L 139.752432 280.974431 
L 141.400425 276.752312 
L 143.048417 270.946892 
L 144.69641 255.905505 
L 146.344402 237.697635 
L 147.992395 222.392299 
L 149.640388 208.142679 
L 152.936373 167.504859 
L 154.584365 150.352314 
L 156.232358 135.838862 
L 157.880351 124.491776 
L 159.528343 112.089365 
L 161.176336 106.020075 
L 162.824329 100.742279 
L 164.472321 95.992536 
L 167.768306 81.479084 
L 171.064292 71.715376 
L 172.712284 74.354079 
L 174.360277 70.395829 
L 176.008269 71.979207 
L 177.656262 81.479084 
L 179.304255 89.923246 
L 180.952247 99.950785 
L 182.60024 100.478448 
L 184.248233 111.297871 
L 185.896225 127.394701 
L 187.544218 130.033404 
L 189.19221 131.880613 
L 190.840203 139.269449 
L 192.488196 145.866402 
L 194.136188 160.907516 
L 197.432174 176.476683 
L 199.080166 185.97656 
L 200.728159 189.670978 
L 202.376151 199.170855 
L 204.024144 206.29547 
L 205.672137 215.003853 
L 207.320129 220.017428 
L 208.968122 229.253473 
L 210.616114 231.628345 
L 213.9121 230.044967 
L 215.560092 231.892176 
L 217.208085 231.628345 
L 218.856078 226.61438 
L 222.152063 241.655884 
L 223.800055 245.877965 
L 225.448048 248.252837 
L 227.096041 259.599923 
L 228.744033 267.252513 
L 230.392026 269.363592 
L 232.040018 270.683022 
L 233.688011 269.627462 
L 235.336004 271.738542 
L 236.983996 271.474672 
L 238.631989 273.321842 
L 240.279982 277.807832 
L 243.575967 285.196551 
L 245.223959 287.83541 
L 246.871952 291.00201 
L 248.519945 292.05753 
L 250.167937 291.26588 
L 251.81593 289.946451 
L 253.463922 292.05753 
L 255.111915 292.3214 
L 256.759908 289.154801 
L 258.4079 286.25211 
L 260.055893 283.613251 
L 261.703886 278.599482 
L 263.351878 271.474672 
L 264.999871 261.183223 
L 266.647863 254.85018 
L 268.295856 240.072507 
L 269.943849 229.253473 
L 271.591841 221.336974 
L 273.239834 211.045603 
L 274.887826 199.962349 
L 276.535819 190.990525 
L 278.183812 189.670978 
L 279.831804 177.004736 
L 281.479797 166.449143 
L 283.12779 164.074272 
L 284.775782 158.268813 
L 286.423775 150.088483 
L 288.071767 132.144444 
L 289.71976 140.060943 
L 291.367753 142.435815 
L 293.015745 137.158019 
L 294.663738 130.033404 
L 296.311731 137.686071 
L 297.959723 158.268813 
L 299.607716 142.171983 
L 301.255708 134.783147 
L 302.903701 140.852437 
L 304.551694 154.310563 
L 306.199686 142.171983 
L 307.847679 133.727822 
L 309.495671 152.199523 
L 311.143664 166.712974 
L 312.791657 165.921481 
L 314.439649 163.282778 
L 316.087642 162.490894 
L 317.735635 170.407393 
L 319.383627 166.185312 
L 321.03162 159.324528 
L 322.679612 165.921481 
L 324.327605 177.004736 
L 325.975598 192.04585 
L 327.62359 185.185066 
L 329.271583 192.04585 
L 330.919575 206.031639 
L 335.863553 226.350549 
L 337.511546 245.086471 
L 339.159539 258.016545 
L 340.807531 262.502613 
L 342.455524 265.669213 
L 344.103516 269.891372 
L 345.751509 279.655041 
L 347.399502 284.141031 
L 349.047494 285.988201 
L 350.695487 288.89093 
L 352.343479 291.26588 
L 353.991472 291.52975 
L 355.639465 290.47423 
L 357.287457 290.47423 
L 358.93545 289.154801 
L 360.583443 290.21036 
L 362.231435 292.05753 
L 363.879428 292.84918 
L 365.52742 294.69635 
L 367.175413 295.488 
L 368.823406 295.488 
L 370.471398 293.11305 
L 372.119391 289.154801 
L 373.767383 286.25211 
L 375.415376 282.293861 
L 377.063369 276.224532 
L 378.711361 265.405343 
L 382.007347 235.322763 
L 383.655339 207.615016 
L 385.303332 187.823769 
L 386.951324 175.685189 
L 388.599317 168.032521 
L 390.24731 157.213488 
L 391.895302 144.810686 
L 393.543295 152.727185 
L 395.191287 157.74115 
L 396.83928 150.879976 
L 398.487273 140.588606 
L 398.487273 140.588606 
" style="fill:none;stroke:#66c2a5;stroke-linecap:square;stroke-width:1.5;"/>
   </g>
   <g id="line2d_15">
    <path clip-path="url(#p73f443d4e3)" d="M 73.832727 127.54213 
L 75.48072 122.868785 
L 77.128713 122.355367 
L 78.776705 124.544952 
L 80.424698 126.464754 
L 82.07269 133.99019 
L 83.720683 140.356582 
L 85.368676 145.131304 
L 87.016668 142.761018 
L 88.664661 141.54275 
L 91.960646 146.826303 
L 93.608639 151.494282 
L 95.256631 153.500434 
L 96.904624 161.315459 
L 98.552617 167.644092 
L 100.200609 171.650346 
L 101.848602 175.009707 
L 103.496594 177.408288 
L 105.144587 182.605588 
L 106.79258 183.961041 
L 108.440572 184.333956 
L 110.088565 185.076177 
L 111.736557 184.244094 
L 115.032543 184.303026 
L 116.680535 185.616133 
L 118.328528 187.384993 
L 119.976521 187.443633 
L 121.624513 187.898703 
L 123.272506 188.664731 
L 124.920498 188.540816 
L 126.568491 188.805233 
L 128.216484 187.831379 
L 129.864476 187.83538 
L 131.512469 188.397777 
L 133.160461 188.284693 
L 134.808454 188.622093 
L 136.456447 188.653998 
L 138.104439 189.02223 
L 139.752432 188.264886 
L 141.400425 187.693024 
L 143.048417 186.565106 
L 144.69641 185.116669 
L 146.344402 180.602851 
L 149.640388 170.473546 
L 151.28838 165.321811 
L 154.584365 148.267422 
L 157.880351 134.282707 
L 159.528343 130.178394 
L 161.176336 124.486215 
L 162.824329 122.905862 
L 164.472321 120.403855 
L 166.120314 118.621823 
L 167.768306 115.463263 
L 169.416299 113.111711 
L 171.064292 111.231133 
L 172.712284 109.86163 
L 174.360277 110.928566 
L 176.008269 109.033547 
L 177.656262 111.288407 
L 179.304255 113.873739 
L 180.952247 117.711293 
L 182.60024 120.88683 
L 184.248233 121.303165 
L 187.544218 132.37032 
L 189.19221 133.496579 
L 190.840203 134.308856 
L 192.488196 137.659727 
L 194.136188 141.351023 
L 195.784181 147.237856 
L 200.728159 157.83394 
L 202.376151 159.757937 
L 204.024144 163.260824 
L 205.672137 166.477439 
L 207.320129 169.184441 
L 208.968122 171.271674 
L 210.616114 174.266998 
L 212.264107 174.552685 
L 213.9121 174.555125 
L 215.560092 174.109714 
L 217.208085 174.844519 
L 218.856078 174.23841 
L 220.50407 173.30095 
L 222.152063 176.147967 
L 223.800055 178.078306 
L 227.096041 180.299309 
L 228.744033 183.510752 
L 230.392026 185.055297 
L 233.688011 185.597985 
L 235.336004 185.395428 
L 236.983996 185.858011 
L 238.631989 185.775661 
L 240.279982 186.374941 
L 241.927974 187.447731 
L 245.223959 188.927977 
L 246.871952 189.405781 
L 248.519945 190.073847 
L 250.167937 190.07014 
L 253.463922 189.609606 
L 255.111915 190.190152 
L 256.759908 190.088776 
L 258.4079 189.237764 
L 260.055893 188.811868 
L 261.703886 188.150533 
L 263.351878 186.910312 
L 264.999871 185.281758 
L 266.647863 182.646861 
L 268.295856 181.013136 
L 269.943849 176.295104 
L 273.239834 170.57297 
L 274.887826 166.767712 
L 276.535819 162.493626 
L 278.183812 159.428148 
L 279.831804 158.696465 
L 281.479797 152.366466 
L 283.12779 149.254448 
L 284.775782 147.703366 
L 286.423775 145.237266 
L 288.071767 140.464788 
L 289.71976 134.06649 
L 291.367753 138.522643 
L 293.015745 138.044741 
L 296.311731 133.319586 
L 297.959723 138.668706 
L 299.607716 145.048466 
L 301.255708 136.996246 
L 302.903701 135.699239 
L 304.551694 139.175489 
L 306.199686 143.432305 
L 307.847679 137.202023 
L 309.495671 135.701971 
L 311.143664 144.840153 
L 312.791657 149.173269 
L 314.439649 148.98125 
L 316.087642 147.15375 
L 317.735635 148.351236 
L 319.383627 150.808262 
L 321.03162 148.278448 
L 322.679612 146.542079 
L 324.327605 149.450077 
L 325.975598 155.532051 
L 327.62359 159.493813 
L 329.271583 157.381309 
L 330.919575 160.973766 
L 332.567568 166.240147 
L 334.215561 168.556964 
L 337.511546 173.756508 
L 339.159539 179.996547 
L 340.807531 183.019191 
L 342.455524 183.68355 
L 345.751509 185.713119 
L 347.399502 188.279327 
L 350.695487 189.037451 
L 352.343479 189.668148 
L 353.991472 189.977448 
L 355.639465 189.995498 
L 357.287457 189.692346 
L 358.93545 189.737814 
L 360.583443 189.456615 
L 363.879428 190.179321 
L 365.52742 190.272697 
L 367.175413 190.659272 
L 368.823406 190.740841 
L 370.471398 190.681713 
L 375.415376 188.738787 
L 377.063369 187.841429 
L 378.711361 186.341474 
L 380.359354 183.362347 
L 382.007347 179.553186 
L 383.655339 174.282512 
L 385.303332 164.590811 
L 386.951324 157.228611 
L 388.599317 152.728747 
L 390.24731 149.240203 
L 391.895302 143.945819 
L 393.543295 139.912245 
L 395.191287 143.902693 
L 396.83928 145.025244 
L 398.487273 141.510942 
L 398.487273 141.510942 
" style="fill:none;stroke:#fc8d62;stroke-linecap:square;stroke-width:1.5;"/>
   </g>
   <g id="line2d_16">
    <path clip-path="url(#p73f443d4e3)" d="M 73.832727 174.55571 
L 80.424698 174.55571 
L 82.07269 178.458539 
L 91.960646 178.458539 
L 93.608639 186.264198 
L 95.256631 190.167028 
L 98.552617 221.389662 
L 100.200609 233.09815 
L 101.848602 240.903809 
L 103.496594 244.806639 
L 105.144587 256.515127 
L 106.79258 260.417956 
L 108.440572 260.417956 
L 110.088565 264.320785 
L 111.736557 260.417956 
L 115.032543 260.417956 
L 118.328528 268.223615 
L 123.272506 268.223615 
L 124.920498 272.126444 
L 126.568491 272.126444 
L 128.216484 268.223615 
L 134.808454 268.223615 
L 136.456447 272.126444 
L 138.104439 272.126444 
L 139.752432 268.223615 
L 143.048417 268.223615 
L 144.69641 264.320785 
L 146.344402 256.515127 
L 149.640388 233.09815 
L 151.28838 217.486833 
L 152.936373 197.972686 
L 154.584365 182.361369 
L 157.880351 174.55571 
L 166.120314 174.55571 
L 167.768306 170.652881 
L 176.008269 170.652881 
L 177.656262 174.55571 
L 185.896225 174.55571 
L 187.544218 178.458539 
L 189.19221 174.55571 
L 190.840203 174.55571 
L 192.488196 178.458539 
L 194.136188 178.458539 
L 195.784181 182.361369 
L 197.432174 182.361369 
L 200.728159 197.972686 
L 202.376151 201.875516 
L 207.320129 225.292492 
L 208.968122 229.195321 
L 210.616114 237.00098 
L 215.560092 237.00098 
L 217.208085 240.903809 
L 218.856078 237.00098 
L 220.50407 237.00098 
L 227.096041 252.612297 
L 228.744033 260.417956 
L 230.392026 260.417956 
L 232.040018 264.320785 
L 240.279982 264.320785 
L 241.927974 268.223615 
L 243.575967 268.223615 
L 245.223959 272.126444 
L 260.055893 272.126444 
L 261.703886 268.223615 
L 263.351878 268.223615 
L 266.647863 260.417956 
L 274.887826 221.389662 
L 276.535819 209.681174 
L 278.183812 201.875516 
L 279.831804 197.972686 
L 283.12779 182.361369 
L 284.775782 182.361369 
L 286.423775 178.458539 
L 288.071767 178.458539 
L 289.71976 174.55571 
L 291.367753 178.458539 
L 293.015745 174.55571 
L 296.311731 174.55571 
L 297.959723 178.458539 
L 299.607716 178.458539 
L 301.255708 174.55571 
L 302.903701 174.55571 
L 304.551694 178.458539 
L 306.199686 178.458539 
L 307.847679 174.55571 
L 309.495671 174.55571 
L 312.791657 182.361369 
L 321.03162 182.361369 
L 322.679612 178.458539 
L 324.327605 182.361369 
L 325.975598 194.069857 
L 327.62359 201.875516 
L 329.271583 197.972686 
L 330.919575 205.778345 
L 332.567568 217.486833 
L 334.215561 225.292492 
L 335.863553 229.195321 
L 337.511546 237.00098 
L 339.159539 248.709468 
L 340.807531 256.515127 
L 342.455524 260.417956 
L 344.103516 260.417956 
L 347.399502 268.223615 
L 349.047494 268.223615 
L 350.695487 272.126444 
L 367.175413 272.126444 
L 368.823406 276.029273 
L 370.471398 276.029273 
L 372.119391 272.126444 
L 375.415376 272.126444 
L 380.359354 260.417956 
L 382.007347 252.612297 
L 383.655339 240.903809 
L 385.303332 217.486833 
L 386.951324 197.972686 
L 390.24731 182.361369 
L 393.543295 174.55571 
L 395.191287 178.458539 
L 398.487273 178.458539 
L 398.487273 178.458539 
" style="fill:none;stroke:#8da0cb;stroke-linecap:square;stroke-width:1.5;"/>
   </g>
   <g id="line2d_17">
    <path clip-path="url(#p73f443d4e3)" d="M 73.832727 84.790635 
L 75.48072 80.887806 
L 77.128713 80.887806 
L 78.776705 84.790635 
L 80.424698 84.790635 
L 82.07269 88.693464 
L 85.368676 88.693464 
L 87.016668 84.790635 
L 88.664661 84.790635 
L 90.312653 88.693464 
L 93.608639 88.693464 
L 95.256631 84.790635 
L 98.552617 84.790635 
L 101.848602 76.984976 
L 105.144587 76.984976 
L 108.440572 69.179317 
L 118.328528 69.179317 
L 119.976521 65.276488 
L 143.048417 65.276488 
L 144.69641 69.179317 
L 146.344402 69.179317 
L 147.992395 73.082147 
L 149.640388 73.082147 
L 152.936373 80.887806 
L 154.584365 80.887806 
L 156.232358 84.790635 
L 159.528343 84.790635 
L 161.176336 80.887806 
L 162.824329 80.887806 
L 172.712284 57.470829 
L 174.360277 57.470829 
L 176.008269 53.568 
L 177.656262 57.470829 
L 179.304255 65.276488 
L 180.952247 69.179317 
L 182.60024 76.984976 
L 187.544218 88.693464 
L 189.19221 84.790635 
L 190.840203 84.790635 
L 192.488196 88.693464 
L 197.432174 88.693464 
L 199.080166 84.790635 
L 204.024144 84.790635 
L 205.672137 80.887806 
L 208.968122 80.887806 
L 210.616114 76.984976 
L 223.800055 76.984976 
L 225.448048 73.082147 
L 228.744033 73.082147 
L 230.392026 69.179317 
L 241.927974 69.179317 
L 243.575967 65.276488 
L 248.519945 65.276488 
L 250.167937 61.373659 
L 253.463922 61.373659 
L 255.111915 65.276488 
L 256.759908 61.373659 
L 258.4079 61.373659 
L 260.055893 65.276488 
L 264.999871 65.276488 
L 266.647863 69.179317 
L 268.295856 69.179317 
L 269.943849 73.082147 
L 271.591841 73.082147 
L 273.239834 76.984976 
L 274.887826 76.984976 
L 276.535819 80.887806 
L 278.183812 80.887806 
L 279.831804 84.790635 
L 281.479797 80.887806 
L 283.12779 84.790635 
L 289.71976 84.790635 
L 291.367753 88.693464 
L 293.015745 84.790635 
L 296.311731 84.790635 
L 297.959723 88.693464 
L 299.607716 88.693464 
L 301.255708 84.790635 
L 302.903701 84.790635 
L 304.551694 88.693464 
L 306.199686 88.693464 
L 307.847679 84.790635 
L 309.495671 84.790635 
L 311.143664 88.693464 
L 312.791657 88.693464 
L 314.439649 84.790635 
L 317.735635 84.790635 
L 319.383627 88.693464 
L 321.03162 84.790635 
L 322.679612 84.790635 
L 324.327605 88.693464 
L 325.975598 88.693464 
L 329.271583 80.887806 
L 330.919575 84.790635 
L 332.567568 84.790635 
L 334.215561 80.887806 
L 335.863553 80.887806 
L 337.511546 76.984976 
L 339.159539 76.984976 
L 342.455524 69.179317 
L 347.399502 69.179317 
L 349.047494 65.276488 
L 355.639465 65.276488 
L 357.287457 61.373659 
L 358.93545 65.276488 
L 363.879428 65.276488 
L 365.52742 61.373659 
L 373.767383 61.373659 
L 375.415376 65.276488 
L 380.359354 65.276488 
L 383.655339 73.082147 
L 385.303332 73.082147 
L 386.951324 80.887806 
L 388.599317 84.790635 
L 393.543295 84.790635 
L 395.191287 88.693464 
L 396.83928 88.693464 
L 398.487273 84.790635 
L 398.487273 84.790635 
" style="fill:none;stroke:#e78ac3;stroke-linecap:square;stroke-width:1.5;"/>
   </g>
   <g id="patch_3">
    <path d="M 57.6 307.584 
L 57.6 41.472 
" style="fill:none;stroke:#000000;stroke-linecap:square;stroke-linejoin:miter;stroke-width:0.8;"/>
   </g>
   <g id="patch_4">
    <path d="M 414.72 307.584 
L 414.72 41.472 
" style="fill:none;stroke:#000000;stroke-linecap:square;stroke-linejoin:miter;stroke-width:0.8;"/>
   </g>
   <g id="patch_5">
    <path d="M 57.6 307.584 
L 414.72 307.584 
" style="fill:none;stroke:#000000;stroke-linecap:square;stroke-linejoin:miter;stroke-width:0.8;"/>
   </g>
   <g id="patch_6">
    <path d="M 57.6 41.472 
L 414.72 41.472 
" style="fill:none;stroke:#000000;stroke-linecap:square;stroke-linejoin:miter;stroke-width:0.8;"/>
   </g>
   <g id="text_14">
    <!-- Plot of Test Data vs MCMC Uncertainty  -->
    <defs>
     <path d="M 19.671875 64.796875 
L 19.671875 37.40625 
L 32.078125 37.40625 
Q 38.96875 37.40625 42.71875 40.96875 
Q 46.484375 44.53125 46.484375 51.125 
Q 46.484375 57.671875 42.71875 61.234375 
Q 38.96875 64.796875 32.078125 64.796875 
z
M 9.8125 72.90625 
L 32.078125 72.90625 
Q 44.34375 72.90625 50.609375 67.359375 
Q 56.890625 61.8125 56.890625 51.125 
Q 56.890625 40.328125 50.609375 34.8125 
Q 44.34375 29.296875 32.078125 29.296875 
L 19.671875 29.296875 
L 19.671875 0 
L 9.8125 0 
z
" id="DejaVuSans-50"/>
     <path d="M 9.421875 75.984375 
L 18.40625 75.984375 
L 18.40625 0 
L 9.421875 0 
z
" id="DejaVuSans-6c"/>
     <path d="M 30.609375 48.390625 
Q 23.390625 48.390625 19.1875 42.75 
Q 14.984375 37.109375 14.984375 27.296875 
Q 14.984375 17.484375 19.15625 11.84375 
Q 23.34375 6.203125 30.609375 6.203125 
Q 37.796875 6.203125 41.984375 11.859375 
Q 46.1875 17.53125 46.1875 27.296875 
Q 46.1875 37.015625 41.984375 42.703125 
Q 37.796875 48.390625 30.609375 48.390625 
z
M 30.609375 56 
Q 42.328125 56 49.015625 48.375 
Q 55.71875 40.765625 55.71875 27.296875 
Q 55.71875 13.875 49.015625 6.21875 
Q 42.328125 -1.421875 30.609375 -1.421875 
Q 18.84375 -1.421875 12.171875 6.21875 
Q 5.515625 13.875 5.515625 27.296875 
Q 5.515625 40.765625 12.171875 48.375 
Q 18.84375 56 30.609375 56 
z
" id="DejaVuSans-6f"/>
     <path d="M 18.3125 70.21875 
L 18.3125 54.6875 
L 36.8125 54.6875 
L 36.8125 47.703125 
L 18.3125 47.703125 
L 18.3125 18.015625 
Q 18.3125 11.328125 20.140625 9.421875 
Q 21.96875 7.515625 27.59375 7.515625 
L 36.8125 7.515625 
L 36.8125 0 
L 27.59375 0 
Q 17.1875 0 13.234375 3.875 
Q 9.28125 7.765625 9.28125 18.015625 
L 9.28125 47.703125 
L 2.6875 47.703125 
L 2.6875 54.6875 
L 9.28125 54.6875 
L 9.28125 70.21875 
z
" id="DejaVuSans-74"/>
     <path id="DejaVuSans-20"/>
     <path d="M 37.109375 75.984375 
L 37.109375 68.5 
L 28.515625 68.5 
Q 23.6875 68.5 21.796875 66.546875 
Q 19.921875 64.59375 19.921875 59.515625 
L 19.921875 54.6875 
L 34.71875 54.6875 
L 34.71875 47.703125 
L 19.921875 47.703125 
L 19.921875 0 
L 10.890625 0 
L 10.890625 47.703125 
L 2.296875 47.703125 
L 2.296875 54.6875 
L 10.890625 54.6875 
L 10.890625 58.5 
Q 10.890625 67.625 15.140625 71.796875 
Q 19.390625 75.984375 28.609375 75.984375 
z
" id="DejaVuSans-66"/>
     <path d="M -0.296875 72.90625 
L 61.375 72.90625 
L 61.375 64.59375 
L 35.5 64.59375 
L 35.5 0 
L 25.59375 0 
L 25.59375 64.59375 
L -0.296875 64.59375 
z
" id="DejaVuSans-54"/>
     <path d="M 56.203125 29.59375 
L 56.203125 25.203125 
L 14.890625 25.203125 
Q 15.484375 15.921875 20.484375 11.0625 
Q 25.484375 6.203125 34.421875 6.203125 
Q 39.59375 6.203125 44.453125 7.46875 
Q 49.3125 8.734375 54.109375 11.28125 
L 54.109375 2.78125 
Q 49.265625 0.734375 44.1875 -0.34375 
Q 39.109375 -1.421875 33.890625 -1.421875 
Q 20.796875 -1.421875 13.15625 6.1875 
Q 5.515625 13.8125 5.515625 26.8125 
Q 5.515625 40.234375 12.765625 48.109375 
Q 20.015625 56 32.328125 56 
Q 43.359375 56 49.78125 48.890625 
Q 56.203125 41.796875 56.203125 29.59375 
z
M 47.21875 32.234375 
Q 47.125 39.59375 43.09375 43.984375 
Q 39.0625 48.390625 32.421875 48.390625 
Q 24.90625 48.390625 20.390625 44.140625 
Q 15.875 39.890625 15.1875 32.171875 
z
" id="DejaVuSans-65"/>
     <path d="M 44.28125 53.078125 
L 44.28125 44.578125 
Q 40.484375 46.53125 36.375 47.5 
Q 32.28125 48.484375 27.875 48.484375 
Q 21.1875 48.484375 17.84375 46.4375 
Q 14.5 44.390625 14.5 40.28125 
Q 14.5 37.15625 16.890625 35.375 
Q 19.28125 33.59375 26.515625 31.984375 
L 29.59375 31.296875 
Q 39.15625 29.25 43.1875 25.515625 
Q 47.21875 21.78125 47.21875 15.09375 
Q 47.21875 7.46875 41.1875 3.015625 
Q 35.15625 -1.421875 24.609375 -1.421875 
Q 20.21875 -1.421875 15.453125 -0.5625 
Q 10.6875 0.296875 5.421875 2 
L 5.421875 11.28125 
Q 10.40625 8.6875 15.234375 7.390625 
Q 20.0625 6.109375 24.8125 6.109375 
Q 31.15625 6.109375 34.5625 8.28125 
Q 37.984375 10.453125 37.984375 14.40625 
Q 37.984375 18.0625 35.515625 20.015625 
Q 33.0625 21.96875 24.703125 23.78125 
L 21.578125 24.515625 
Q 13.234375 26.265625 9.515625 29.90625 
Q 5.8125 33.546875 5.8125 39.890625 
Q 5.8125 47.609375 11.28125 51.796875 
Q 16.75 56 26.8125 56 
Q 31.78125 56 36.171875 55.265625 
Q 40.578125 54.546875 44.28125 53.078125 
z
" id="DejaVuSans-73"/>
     <path d="M 19.671875 64.796875 
L 19.671875 8.109375 
L 31.59375 8.109375 
Q 46.6875 8.109375 53.6875 14.9375 
Q 60.6875 21.78125 60.6875 36.53125 
Q 60.6875 51.171875 53.6875 57.984375 
Q 46.6875 64.796875 31.59375 64.796875 
z
M 9.8125 72.90625 
L 30.078125 72.90625 
Q 51.265625 72.90625 61.171875 64.09375 
Q 71.09375 55.28125 71.09375 36.53125 
Q 71.09375 17.671875 61.125 8.828125 
Q 51.171875 0 30.078125 0 
L 9.8125 0 
z
" id="DejaVuSans-44"/>
     <path d="M 34.28125 27.484375 
Q 23.390625 27.484375 19.1875 25 
Q 14.984375 22.515625 14.984375 16.5 
Q 14.984375 11.71875 18.140625 8.90625 
Q 21.296875 6.109375 26.703125 6.109375 
Q 34.1875 6.109375 38.703125 11.40625 
Q 43.21875 16.703125 43.21875 25.484375 
L 43.21875 27.484375 
z
M 52.203125 31.203125 
L 52.203125 0 
L 43.21875 0 
L 43.21875 8.296875 
Q 40.140625 3.328125 35.546875 0.953125 
Q 30.953125 -1.421875 24.3125 -1.421875 
Q 15.921875 -1.421875 10.953125 3.296875 
Q 6 8.015625 6 15.921875 
Q 6 25.140625 12.171875 29.828125 
Q 18.359375 34.515625 30.609375 34.515625 
L 43.21875 34.515625 
L 43.21875 35.40625 
Q 43.21875 41.609375 39.140625 45 
Q 35.0625 48.390625 27.6875 48.390625 
Q 23 48.390625 18.546875 47.265625 
Q 14.109375 46.140625 10.015625 43.890625 
L 10.015625 52.203125 
Q 14.9375 54.109375 19.578125 55.046875 
Q 24.21875 56 28.609375 56 
Q 40.484375 56 46.34375 49.84375 
Q 52.203125 43.703125 52.203125 31.203125 
z
" id="DejaVuSans-61"/>
     <path d="M 2.984375 54.6875 
L 12.5 54.6875 
L 29.59375 8.796875 
L 46.6875 54.6875 
L 56.203125 54.6875 
L 35.6875 0 
L 23.484375 0 
z
" id="DejaVuSans-76"/>
     <path d="M 9.8125 72.90625 
L 24.515625 72.90625 
L 43.109375 23.296875 
L 61.8125 72.90625 
L 76.515625 72.90625 
L 76.515625 0 
L 66.890625 0 
L 66.890625 64.015625 
L 48.09375 14.015625 
L 38.1875 14.015625 
L 19.390625 64.015625 
L 19.390625 0 
L 9.8125 0 
z
" id="DejaVuSans-4d"/>
     <path d="M 64.40625 67.28125 
L 64.40625 56.890625 
Q 59.421875 61.53125 53.78125 63.8125 
Q 48.140625 66.109375 41.796875 66.109375 
Q 29.296875 66.109375 22.65625 58.46875 
Q 16.015625 50.828125 16.015625 36.375 
Q 16.015625 21.96875 22.65625 14.328125 
Q 29.296875 6.6875 41.796875 6.6875 
Q 48.140625 6.6875 53.78125 8.984375 
Q 59.421875 11.28125 64.40625 15.921875 
L 64.40625 5.609375 
Q 59.234375 2.09375 53.4375 0.328125 
Q 47.65625 -1.421875 41.21875 -1.421875 
Q 24.65625 -1.421875 15.125 8.703125 
Q 5.609375 18.84375 5.609375 36.375 
Q 5.609375 53.953125 15.125 64.078125 
Q 24.65625 74.21875 41.21875 74.21875 
Q 47.75 74.21875 53.53125 72.484375 
Q 59.328125 70.75 64.40625 67.28125 
z
" id="DejaVuSans-43"/>
     <path d="M 8.6875 72.90625 
L 18.609375 72.90625 
L 18.609375 28.609375 
Q 18.609375 16.890625 22.84375 11.734375 
Q 27.09375 6.59375 36.625 6.59375 
Q 46.09375 6.59375 50.34375 11.734375 
Q 54.59375 16.890625 54.59375 28.609375 
L 54.59375 72.90625 
L 64.5 72.90625 
L 64.5 27.390625 
Q 64.5 13.140625 57.4375 5.859375 
Q 50.390625 -1.421875 36.625 -1.421875 
Q 22.796875 -1.421875 15.734375 5.859375 
Q 8.6875 13.140625 8.6875 27.390625 
z
" id="DejaVuSans-55"/>
     <path d="M 54.890625 33.015625 
L 54.890625 0 
L 45.90625 0 
L 45.90625 32.71875 
Q 45.90625 40.484375 42.875 44.328125 
Q 39.84375 48.1875 33.796875 48.1875 
Q 26.515625 48.1875 22.3125 43.546875 
Q 18.109375 38.921875 18.109375 30.90625 
L 18.109375 0 
L 9.078125 0 
L 9.078125 54.6875 
L 18.109375 54.6875 
L 18.109375 46.1875 
Q 21.34375 51.125 25.703125 53.5625 
Q 30.078125 56 35.796875 56 
Q 45.21875 56 50.046875 50.171875 
Q 54.890625 44.34375 54.890625 33.015625 
z
" id="DejaVuSans-6e"/>
     <path d="M 48.78125 52.59375 
L 48.78125 44.1875 
Q 44.96875 46.296875 41.140625 47.34375 
Q 37.3125 48.390625 33.40625 48.390625 
Q 24.65625 48.390625 19.8125 42.84375 
Q 14.984375 37.3125 14.984375 27.296875 
Q 14.984375 17.28125 19.8125 11.734375 
Q 24.65625 6.203125 33.40625 6.203125 
Q 37.3125 6.203125 41.140625 7.25 
Q 44.96875 8.296875 48.78125 10.40625 
L 48.78125 2.09375 
Q 45.015625 0.34375 40.984375 -0.53125 
Q 36.96875 -1.421875 32.421875 -1.421875 
Q 20.0625 -1.421875 12.78125 6.34375 
Q 5.515625 14.109375 5.515625 27.296875 
Q 5.515625 40.671875 12.859375 48.328125 
Q 20.21875 56 33.015625 56 
Q 37.15625 56 41.109375 55.140625 
Q 45.0625 54.296875 48.78125 52.59375 
z
" id="DejaVuSans-63"/>
     <path d="M 41.109375 46.296875 
Q 39.59375 47.171875 37.8125 47.578125 
Q 36.03125 48 33.890625 48 
Q 26.265625 48 22.1875 43.046875 
Q 18.109375 38.09375 18.109375 28.8125 
L 18.109375 0 
L 9.078125 0 
L 9.078125 54.6875 
L 18.109375 54.6875 
L 18.109375 46.1875 
Q 20.953125 51.171875 25.484375 53.578125 
Q 30.03125 56 36.53125 56 
Q 37.453125 56 38.578125 55.875 
Q 39.703125 55.765625 41.0625 55.515625 
z
" id="DejaVuSans-72"/>
     <path d="M 9.421875 54.6875 
L 18.40625 54.6875 
L 18.40625 0 
L 9.421875 0 
z
M 9.421875 75.984375 
L 18.40625 75.984375 
L 18.40625 64.59375 
L 9.421875 64.59375 
z
" id="DejaVuSans-69"/>
     <path d="M 32.171875 -5.078125 
Q 28.375 -14.84375 24.75 -17.8125 
Q 21.140625 -20.796875 15.09375 -20.796875 
L 7.90625 -20.796875 
L 7.90625 -13.28125 
L 13.1875 -13.28125 
Q 16.890625 -13.28125 18.9375 -11.515625 
Q 21 -9.765625 23.484375 -3.21875 
L 25.09375 0.875 
L 2.984375 54.6875 
L 12.5 54.6875 
L 29.59375 11.921875 
L 46.6875 54.6875 
L 56.203125 54.6875 
z
" id="DejaVuSans-79"/>
    </defs>
    <g transform="translate(118.112813 35.472)scale(0.12 -0.12)">
     <use xlink:href="#DejaVuSans-50"/>
     <use x="60.302734" xlink:href="#DejaVuSans-6c"/>
     <use x="88.085938" xlink:href="#DejaVuSans-6f"/>
     <use x="149.267578" xlink:href="#DejaVuSans-74"/>
     <use x="188.476562" xlink:href="#DejaVuSans-20"/>
     <use x="220.263672" xlink:href="#DejaVuSans-6f"/>
     <use x="281.445312" xlink:href="#DejaVuSans-66"/>
     <use x="316.650391" xlink:href="#DejaVuSans-20"/>
     <use x="348.4375" xlink:href="#DejaVuSans-54"/>
     <use x="409.255859" xlink:href="#DejaVuSans-65"/>
     <use x="470.779297" xlink:href="#DejaVuSans-73"/>
     <use x="522.878906" xlink:href="#DejaVuSans-74"/>
     <use x="562.087891" xlink:href="#DejaVuSans-20"/>
     <use x="593.875" xlink:href="#DejaVuSans-44"/>
     <use x="670.876953" xlink:href="#DejaVuSans-61"/>
     <use x="732.15625" xlink:href="#DejaVuSans-74"/>
     <use x="771.365234" xlink:href="#DejaVuSans-61"/>
     <use x="832.644531" xlink:href="#DejaVuSans-20"/>
     <use x="864.431641" xlink:href="#DejaVuSans-76"/>
     <use x="923.611328" xlink:href="#DejaVuSans-73"/>
     <use x="975.710938" xlink:href="#DejaVuSans-20"/>
     <use x="1007.498047" xlink:href="#DejaVuSans-4d"/>
     <use x="1093.777344" xlink:href="#DejaVuSans-43"/>
     <use x="1163.601562" xlink:href="#DejaVuSans-4d"/>
     <use x="1249.880859" xlink:href="#DejaVuSans-43"/>
     <use x="1319.705078" xlink:href="#DejaVuSans-20"/>
     <use x="1351.492188" xlink:href="#DejaVuSans-55"/>
     <use x="1424.685547" xlink:href="#DejaVuSans-6e"/>
     <use x="1488.064453" xlink:href="#DejaVuSans-63"/>
     <use x="1543.044922" xlink:href="#DejaVuSans-65"/>
     <use x="1604.568359" xlink:href="#DejaVuSans-72"/>
     <use x="1645.681641" xlink:href="#DejaVuSans-74"/>
     <use x="1684.890625" xlink:href="#DejaVuSans-61"/>
     <use x="1746.169922" xlink:href="#DejaVuSans-69"/>
     <use x="1773.953125" xlink:href="#DejaVuSans-6e"/>
     <use x="1837.332031" xlink:href="#DejaVuSans-74"/>
     <use x="1876.541016" xlink:href="#DejaVuSans-79"/>
     <use x="1935.720703" xlink:href="#DejaVuSans-20"/>
    </g>
   </g>
   <g id="legend_1">
    <g id="patch_7">
     <path d="M 275.02 108.1845 
L 407.72 108.1845 
Q 409.72 108.1845 409.72 106.1845 
L 409.72 48.472 
Q 409.72 46.472 407.72 46.472 
L 275.02 46.472 
Q 273.02 46.472 273.02 48.472 
L 273.02 106.1845 
Q 273.02 108.1845 275.02 108.1845 
z
" style="fill:#ffffff;opacity:0.8;stroke:#cccccc;stroke-linejoin:miter;"/>
    </g>
    <g id="line2d_18">
     <path d="M 277.02 54.570438 
L 297.02 54.570438 
" style="fill:none;stroke:#66c2a5;stroke-linecap:square;stroke-width:1.5;"/>
    </g>
    <g id="line2d_19"/>
    <g id="text_15">
     <!-- actual -->
     <defs>
      <path d="M 8.5 21.578125 
L 8.5 54.6875 
L 17.484375 54.6875 
L 17.484375 21.921875 
Q 17.484375 14.15625 20.5 10.265625 
Q 23.53125 6.390625 29.59375 6.390625 
Q 36.859375 6.390625 41.078125 11.03125 
Q 45.3125 15.671875 45.3125 23.6875 
L 45.3125 54.6875 
L 54.296875 54.6875 
L 54.296875 0 
L 45.3125 0 
L 45.3125 8.40625 
Q 42.046875 3.421875 37.71875 1 
Q 33.40625 -1.421875 27.6875 -1.421875 
Q 18.265625 -1.421875 13.375 4.4375 
Q 8.5 10.296875 8.5 21.578125 
z
M 31.109375 56 
z
" id="DejaVuSans-75"/>
     </defs>
     <g transform="translate(305.02 58.070438)scale(0.1 -0.1)">
      <use xlink:href="#DejaVuSans-61"/>
      <use x="61.279297" xlink:href="#DejaVuSans-63"/>
      <use x="116.259766" xlink:href="#DejaVuSans-74"/>
      <use x="155.46875" xlink:href="#DejaVuSans-75"/>
      <use x="218.847656" xlink:href="#DejaVuSans-61"/>
      <use x="280.126953" xlink:href="#DejaVuSans-6c"/>
     </g>
    </g>
    <g id="line2d_20">
     <path d="M 277.02 69.248563 
L 297.02 69.248563 
" style="fill:none;stroke:#fc8d62;stroke-linecap:square;stroke-width:1.5;"/>
    </g>
    <g id="line2d_21"/>
    <g id="text_16">
     <!-- pred. (mean) -->
     <defs>
      <path d="M 18.109375 8.203125 
L 18.109375 -20.796875 
L 9.078125 -20.796875 
L 9.078125 54.6875 
L 18.109375 54.6875 
L 18.109375 46.390625 
Q 20.953125 51.265625 25.265625 53.625 
Q 29.59375 56 35.59375 56 
Q 45.5625 56 51.78125 48.09375 
Q 58.015625 40.1875 58.015625 27.296875 
Q 58.015625 14.40625 51.78125 6.484375 
Q 45.5625 -1.421875 35.59375 -1.421875 
Q 29.59375 -1.421875 25.265625 0.953125 
Q 20.953125 3.328125 18.109375 8.203125 
z
M 48.6875 27.296875 
Q 48.6875 37.203125 44.609375 42.84375 
Q 40.53125 48.484375 33.40625 48.484375 
Q 26.265625 48.484375 22.1875 42.84375 
Q 18.109375 37.203125 18.109375 27.296875 
Q 18.109375 17.390625 22.1875 11.75 
Q 26.265625 6.109375 33.40625 6.109375 
Q 40.53125 6.109375 44.609375 11.75 
Q 48.6875 17.390625 48.6875 27.296875 
z
" id="DejaVuSans-70"/>
      <path d="M 45.40625 46.390625 
L 45.40625 75.984375 
L 54.390625 75.984375 
L 54.390625 0 
L 45.40625 0 
L 45.40625 8.203125 
Q 42.578125 3.328125 38.25 0.953125 
Q 33.9375 -1.421875 27.875 -1.421875 
Q 17.96875 -1.421875 11.734375 6.484375 
Q 5.515625 14.40625 5.515625 27.296875 
Q 5.515625 40.1875 11.734375 48.09375 
Q 17.96875 56 27.875 56 
Q 33.9375 56 38.25 53.625 
Q 42.578125 51.265625 45.40625 46.390625 
z
M 14.796875 27.296875 
Q 14.796875 17.390625 18.875 11.75 
Q 22.953125 6.109375 30.078125 6.109375 
Q 37.203125 6.109375 41.296875 11.75 
Q 45.40625 17.390625 45.40625 27.296875 
Q 45.40625 37.203125 41.296875 42.84375 
Q 37.203125 48.484375 30.078125 48.484375 
Q 22.953125 48.484375 18.875 42.84375 
Q 14.796875 37.203125 14.796875 27.296875 
z
" id="DejaVuSans-64"/>
      <path d="M 31 75.875 
Q 24.46875 64.65625 21.28125 53.65625 
Q 18.109375 42.671875 18.109375 31.390625 
Q 18.109375 20.125 21.3125 9.0625 
Q 24.515625 -2 31 -13.1875 
L 23.1875 -13.1875 
Q 15.875 -1.703125 12.234375 9.375 
Q 8.59375 20.453125 8.59375 31.390625 
Q 8.59375 42.28125 12.203125 53.3125 
Q 15.828125 64.359375 23.1875 75.875 
z
" id="DejaVuSans-28"/>
      <path d="M 52 44.1875 
Q 55.375 50.25 60.0625 53.125 
Q 64.75 56 71.09375 56 
Q 79.640625 56 84.28125 50.015625 
Q 88.921875 44.046875 88.921875 33.015625 
L 88.921875 0 
L 79.890625 0 
L 79.890625 32.71875 
Q 79.890625 40.578125 77.09375 44.375 
Q 74.3125 48.1875 68.609375 48.1875 
Q 61.625 48.1875 57.5625 43.546875 
Q 53.515625 38.921875 53.515625 30.90625 
L 53.515625 0 
L 44.484375 0 
L 44.484375 32.71875 
Q 44.484375 40.625 41.703125 44.40625 
Q 38.921875 48.1875 33.109375 48.1875 
Q 26.21875 48.1875 22.15625 43.53125 
Q 18.109375 38.875 18.109375 30.90625 
L 18.109375 0 
L 9.078125 0 
L 9.078125 54.6875 
L 18.109375 54.6875 
L 18.109375 46.1875 
Q 21.1875 51.21875 25.484375 53.609375 
Q 29.78125 56 35.6875 56 
Q 41.65625 56 45.828125 52.96875 
Q 50 49.953125 52 44.1875 
z
" id="DejaVuSans-6d"/>
      <path d="M 8.015625 75.875 
L 15.828125 75.875 
Q 23.140625 64.359375 26.78125 53.3125 
Q 30.421875 42.28125 30.421875 31.390625 
Q 30.421875 20.453125 26.78125 9.375 
Q 23.140625 -1.703125 15.828125 -13.1875 
L 8.015625 -13.1875 
Q 14.5 -2 17.703125 9.0625 
Q 20.90625 20.125 20.90625 31.390625 
Q 20.90625 42.671875 17.703125 53.65625 
Q 14.5 64.65625 8.015625 75.875 
z
" id="DejaVuSans-29"/>
     </defs>
     <g transform="translate(305.02 72.748563)scale(0.1 -0.1)">
      <use xlink:href="#DejaVuSans-70"/>
      <use x="63.476562" xlink:href="#DejaVuSans-72"/>
      <use x="104.558594" xlink:href="#DejaVuSans-65"/>
      <use x="166.082031" xlink:href="#DejaVuSans-64"/>
      <use x="229.558594" xlink:href="#DejaVuSans-2e"/>
      <use x="261.345703" xlink:href="#DejaVuSans-20"/>
      <use x="293.132812" xlink:href="#DejaVuSans-28"/>
      <use x="332.146484" xlink:href="#DejaVuSans-6d"/>
      <use x="429.558594" xlink:href="#DejaVuSans-65"/>
      <use x="491.082031" xlink:href="#DejaVuSans-61"/>
      <use x="552.361328" xlink:href="#DejaVuSans-6e"/>
      <use x="615.740234" xlink:href="#DejaVuSans-29"/>
     </g>
    </g>
    <g id="line2d_22">
     <path d="M 277.02 83.926688 
L 297.02 83.926688 
" style="fill:none;stroke:#8da0cb;stroke-linecap:square;stroke-width:1.5;"/>
    </g>
    <g id="line2d_23"/>
    <g id="text_17">
     <!-- pred.(5th percen.) -->
     <defs>
      <path d="M 54.890625 33.015625 
L 54.890625 0 
L 45.90625 0 
L 45.90625 32.71875 
Q 45.90625 40.484375 42.875 44.328125 
Q 39.84375 48.1875 33.796875 48.1875 
Q 26.515625 48.1875 22.3125 43.546875 
Q 18.109375 38.921875 18.109375 30.90625 
L 18.109375 0 
L 9.078125 0 
L 9.078125 75.984375 
L 18.109375 75.984375 
L 18.109375 46.1875 
Q 21.34375 51.125 25.703125 53.5625 
Q 30.078125 56 35.796875 56 
Q 45.21875 56 50.046875 50.171875 
Q 54.890625 44.34375 54.890625 33.015625 
z
" id="DejaVuSans-68"/>
     </defs>
     <g transform="translate(305.02 87.426688)scale(0.1 -0.1)">
      <use xlink:href="#DejaVuSans-70"/>
      <use x="63.476562" xlink:href="#DejaVuSans-72"/>
      <use x="104.558594" xlink:href="#DejaVuSans-65"/>
      <use x="166.082031" xlink:href="#DejaVuSans-64"/>
      <use x="229.558594" xlink:href="#DejaVuSans-2e"/>
      <use x="261.345703" xlink:href="#DejaVuSans-28"/>
      <use x="300.359375" xlink:href="#DejaVuSans-35"/>
      <use x="363.982422" xlink:href="#DejaVuSans-74"/>
      <use x="403.191406" xlink:href="#DejaVuSans-68"/>
      <use x="466.570312" xlink:href="#DejaVuSans-20"/>
      <use x="498.357422" xlink:href="#DejaVuSans-70"/>
      <use x="561.833984" xlink:href="#DejaVuSans-65"/>
      <use x="623.357422" xlink:href="#DejaVuSans-72"/>
      <use x="664.439453" xlink:href="#DejaVuSans-63"/>
      <use x="719.419922" xlink:href="#DejaVuSans-65"/>
      <use x="780.943359" xlink:href="#DejaVuSans-6e"/>
      <use x="844.322266" xlink:href="#DejaVuSans-2e"/>
      <use x="876.109375" xlink:href="#DejaVuSans-29"/>
     </g>
    </g>
    <g id="line2d_24">
     <path d="M 277.02 98.604813 
L 297.02 98.604813 
" style="fill:none;stroke:#e78ac3;stroke-linecap:square;stroke-width:1.5;"/>
    </g>
    <g id="line2d_25"/>
    <g id="text_18">
     <!-- pred.(95th	percen.) -->
     <defs>
      <path d="M 10.984375 1.515625 
L 10.984375 10.5 
Q 14.703125 8.734375 18.5 7.8125 
Q 22.3125 6.890625 25.984375 6.890625 
Q 35.75 6.890625 40.890625 13.453125 
Q 46.046875 20.015625 46.78125 33.40625 
Q 43.953125 29.203125 39.59375 26.953125 
Q 35.25 24.703125 29.984375 24.703125 
Q 19.046875 24.703125 12.671875 31.3125 
Q 6.296875 37.9375 6.296875 49.421875 
Q 6.296875 60.640625 12.9375 67.421875 
Q 19.578125 74.21875 30.609375 74.21875 
Q 43.265625 74.21875 49.921875 64.515625 
Q 56.59375 54.828125 56.59375 36.375 
Q 56.59375 19.140625 48.40625 8.859375 
Q 40.234375 -1.421875 26.421875 -1.421875 
Q 22.703125 -1.421875 18.890625 -0.6875 
Q 15.09375 0.046875 10.984375 1.515625 
z
M 30.609375 32.421875 
Q 37.25 32.421875 41.125 36.953125 
Q 45.015625 41.5 45.015625 49.421875 
Q 45.015625 57.28125 41.125 61.84375 
Q 37.25 66.40625 30.609375 66.40625 
Q 23.96875 66.40625 20.09375 61.84375 
Q 16.21875 57.28125 16.21875 49.421875 
Q 16.21875 41.5 20.09375 36.953125 
Q 23.96875 32.421875 30.609375 32.421875 
z
" id="DejaVuSans-39"/>
      <path d="M 4.984375 -17.671875 
L 4.984375 70.515625 
L 54.984375 70.515625 
L 54.984375 -17.671875 
z
M 10.59375 -12.109375 
L 49.421875 -12.109375 
L 49.421875 64.890625 
L 10.59375 64.890625 
z
" id="DejaVuSans-9"/>
     </defs>
     <g transform="translate(305.02 102.104813)scale(0.1 -0.1)">
      <use xlink:href="#DejaVuSans-70"/>
      <use x="63.476562" xlink:href="#DejaVuSans-72"/>
      <use x="104.558594" xlink:href="#DejaVuSans-65"/>
      <use x="166.082031" xlink:href="#DejaVuSans-64"/>
      <use x="229.558594" xlink:href="#DejaVuSans-2e"/>
      <use x="261.345703" xlink:href="#DejaVuSans-28"/>
      <use x="300.359375" xlink:href="#DejaVuSans-39"/>
      <use x="363.982422" xlink:href="#DejaVuSans-35"/>
      <use x="427.605469" xlink:href="#DejaVuSans-74"/>
      <use x="466.814453" xlink:href="#DejaVuSans-68"/>
      <use x="530.193359" xlink:href="#DejaVuSans-9"/>
      <use x="590.203125" xlink:href="#DejaVuSans-70"/>
      <use x="653.679688" xlink:href="#DejaVuSans-65"/>
      <use x="715.203125" xlink:href="#DejaVuSans-72"/>
      <use x="756.285156" xlink:href="#DejaVuSans-63"/>
      <use x="811.265625" xlink:href="#DejaVuSans-65"/>
      <use x="872.789062" xlink:href="#DejaVuSans-6e"/>
      <use x="936.167969" xlink:href="#DejaVuSans-2e"/>
      <use x="967.955078" xlink:href="#DejaVuSans-29"/>
     </g>
    </g>
   </g>
  </g>
 </g>
 <defs>
  <clipPath id="p73f443d4e3">
   <rect height="266.112" width="357.12" x="57.6" y="41.472"/>
  </clipPath>
 </defs>
</svg>
