<?xml version="1.0" encoding="utf-8" standalone="no"?>
<!DOCTYPE svg PUBLIC "-//W3C//DTD SVG 1.1//EN"
  "http://www.w3.org/Graphics/SVG/1.1/DTD/svg11.dtd">
<!-- Created with matplotlib (http://matplotlib.org/) -->
<svg height="345.6pt" version="1.1" viewBox="0 0 460.8 345.6" width="460.8pt" xmlns="http://www.w3.org/2000/svg" xmlns:xlink="http://www.w3.org/1999/xlink">
 <defs>
  <style type="text/css">
*{stroke-linecap:butt;stroke-linejoin:round;}
  </style>
 </defs>
 <g id="figure_1">
  <g id="patch_1">
   <path d="M 0 345.6 
L 460.8 345.6 
L 460.8 0 
L 0 0 
z
" style="fill:#ffffff;"/>
  </g>
  <g id="axes_1">
   <g id="patch_2">
    <path d="M 57.6 307.584 
L 414.72 307.584 
L 414.72 41.472 
L 57.6 41.472 
z
" style="fill:#ffffff;"/>
   </g>
   <g id="PolyCollection_1">
    <path clip-path="url(#p6498eb6064)" d="M 73.832727 152.783717 
L 73.832727 279.32868 
L 74.92584 279.32868 
L 76.018953 279.32868 
L 77.112066 279.32868 
L 78.205179 279.32868 
L 79.298292 274.366132 
L 80.391405 274.366132 
L 81.484518 269.403585 
L 82.577631 261.959763 
L 83.670744 252.034668 
L 84.763857 232.184478 
L 85.85697 222.259383 
L 86.950083 217.296835 
L 88.043196 217.296835 
L 89.136309 214.815561 
L 90.229421 214.815561 
L 91.322534 217.296835 
L 92.415647 214.815561 
L 93.50876 214.815561 
L 94.601873 214.815561 
L 95.694986 214.815561 
L 96.788099 214.815561 
L 97.881212 217.296835 
L 98.974325 217.296835 
L 100.067438 217.296835 
L 101.160551 217.296835 
L 102.253664 217.296835 
L 103.346777 217.296835 
L 104.43989 217.296835 
L 105.533003 217.296835 
L 106.626116 217.296835 
L 107.719229 219.778109 
L 108.812342 219.778109 
L 109.905455 217.296835 
L 110.998567 217.296835 
L 112.09168 217.296835 
L 113.184793 219.778109 
L 114.277906 219.778109 
L 115.371019 217.296835 
L 116.464132 219.778109 
L 117.557245 222.259383 
L 118.650358 219.778109 
L 119.743471 222.259383 
L 120.836584 224.740657 
L 121.929697 224.740657 
L 123.02281 229.703204 
L 124.115923 237.147025 
L 125.209036 242.109573 
L 126.302149 244.590847 
L 127.395262 249.553394 
L 128.488375 256.997216 
L 129.581488 261.959763 
L 130.674601 261.959763 
L 131.767713 261.959763 
L 132.860826 264.441037 
L 133.953939 266.922311 
L 135.047052 269.403585 
L 136.140165 271.884858 
L 137.233278 274.366132 
L 138.326391 276.847406 
L 139.419504 276.847406 
L 140.512617 274.366132 
L 141.60573 276.847406 
L 142.698843 274.366132 
L 143.791956 274.366132 
L 144.885069 271.884858 
L 145.978182 269.403585 
L 147.071295 264.441037 
L 148.164408 256.997216 
L 149.257521 254.515942 
L 150.350634 249.553394 
L 151.443747 242.109573 
L 152.53686 237.147025 
L 153.629972 232.184478 
L 154.723085 227.22193 
L 155.816198 224.740657 
L 156.909311 219.778109 
L 158.002424 219.778109 
L 159.095537 219.778109 
L 160.18865 219.778109 
L 161.281763 219.778109 
L 162.374876 217.296835 
L 163.467989 214.815561 
L 164.561102 214.815561 
L 165.654215 214.815561 
L 166.747328 214.815561 
L 167.840441 214.815561 
L 168.933554 214.815561 
L 170.026667 217.296835 
L 171.11978 217.296835 
L 172.212893 214.815561 
L 173.306006 217.296835 
L 174.399118 217.296835 
L 175.492231 219.778109 
L 176.585344 217.296835 
L 177.678457 219.778109 
L 178.77157 219.778109 
L 179.864683 219.778109 
L 180.957796 219.778109 
L 182.050909 219.778109 
L 183.144022 219.778109 
L 184.237135 219.778109 
L 185.330248 219.778109 
L 186.423361 219.778109 
L 187.516474 219.778109 
L 188.609587 219.778109 
L 189.7027 219.778109 
L 190.795813 219.778109 
L 191.888926 222.259383 
L 192.982039 219.778109 
L 194.075152 222.259383 
L 195.168264 222.259383 
L 196.261377 222.259383 
L 197.35449 222.259383 
L 198.447603 224.740657 
L 199.540716 227.22193 
L 200.633829 232.184478 
L 201.726942 232.184478 
L 202.820055 234.665752 
L 203.913168 239.628299 
L 205.006281 247.072121 
L 206.099394 252.034668 
L 207.192507 254.515942 
L 208.28562 261.959763 
L 209.378733 264.441037 
L 210.471846 266.922311 
L 211.564959 266.922311 
L 212.658072 269.403585 
L 213.751185 271.884858 
L 214.844298 274.366132 
L 215.93741 276.847406 
L 217.030523 279.32868 
L 218.123636 281.809953 
L 219.216749 281.809953 
L 220.309862 281.809953 
L 221.402975 281.809953 
L 222.496088 281.809953 
L 223.589201 281.809953 
L 224.682314 281.809953 
L 225.775427 279.32868 
L 226.86854 276.847406 
L 227.961653 274.366132 
L 229.054766 271.884858 
L 230.147879 266.922311 
L 231.240992 259.478489 
L 232.334105 252.034668 
L 233.427218 244.590847 
L 234.520331 237.147025 
L 235.613444 227.22193 
L 236.706556 222.259383 
L 237.799669 219.778109 
L 238.892782 219.778109 
L 239.985895 217.296835 
L 241.079008 217.296835 
L 242.172121 217.296835 
L 243.265234 217.296835 
L 244.358347 217.296835 
L 245.45146 217.296835 
L 246.544573 217.296835 
L 247.637686 217.296835 
L 248.730799 217.296835 
L 249.823912 217.296835 
L 250.917025 217.296835 
L 252.010138 217.296835 
L 253.103251 219.778109 
L 254.196364 219.778109 
L 255.289477 219.778109 
L 256.38259 219.778109 
L 257.475702 219.778109 
L 258.568815 222.259383 
L 259.661928 219.778109 
L 260.755041 219.778109 
L 261.848154 219.778109 
L 262.941267 222.259383 
L 264.03438 222.259383 
L 265.127493 222.259383 
L 266.220606 222.259383 
L 267.313719 227.22193 
L 268.406832 229.703204 
L 269.499945 232.184478 
L 270.593058 232.184478 
L 271.686171 232.184478 
L 272.779284 232.184478 
L 273.872397 229.703204 
L 274.96551 229.703204 
L 276.058623 227.22193 
L 277.151736 229.703204 
L 278.244848 234.665752 
L 279.337961 237.147025 
L 280.431074 244.590847 
L 281.524187 247.072121 
L 282.6173 254.515942 
L 283.710413 256.997216 
L 284.803526 259.478489 
L 285.896639 261.959763 
L 286.989752 266.922311 
L 288.082865 269.403585 
L 289.175978 271.884858 
L 290.269091 276.847406 
L 291.362204 279.32868 
L 292.455317 279.32868 
L 293.54843 281.809953 
L 294.641543 281.809953 
L 295.734656 279.32868 
L 296.827769 276.847406 
L 297.920882 274.366132 
L 299.013994 271.884858 
L 300.107107 264.441037 
L 301.20022 256.997216 
L 302.293333 247.072121 
L 303.386446 234.665752 
L 304.479559 227.22193 
L 305.572672 219.778109 
L 306.665785 219.778109 
L 307.758898 219.778109 
L 308.852011 219.778109 
L 309.945124 217.296835 
L 311.038237 214.815561 
L 312.13135 214.815561 
L 313.224463 214.815561 
L 314.317576 214.815561 
L 315.410689 214.815561 
L 316.503802 214.815561 
L 317.596915 217.296835 
L 318.690028 217.296835 
L 319.78314 217.296835 
L 320.876253 217.296835 
L 321.969366 217.296835 
L 323.062479 217.296835 
L 324.155592 219.778109 
L 325.248705 217.296835 
L 326.341818 217.296835 
L 327.434931 217.296835 
L 328.528044 217.296835 
L 329.621157 217.296835 
L 330.71427 217.296835 
L 331.807383 219.778109 
L 332.900496 219.778109 
L 333.993609 219.778109 
L 335.086722 222.259383 
L 336.179835 222.259383 
L 337.272948 224.740657 
L 338.366061 224.740657 
L 339.459174 224.740657 
L 340.552287 227.22193 
L 341.645399 232.184478 
L 342.738512 242.109573 
L 343.831625 247.072121 
L 344.924738 252.034668 
L 346.017851 261.959763 
L 347.110964 266.922311 
L 348.204077 269.403585 
L 349.29719 271.884858 
L 350.390303 274.366132 
L 351.483416 274.366132 
L 352.576529 276.847406 
L 353.669642 276.847406 
L 354.762755 276.847406 
L 355.855868 276.847406 
L 356.948981 276.847406 
L 358.042094 274.366132 
L 359.135207 274.366132 
L 360.22832 274.366132 
L 361.321433 274.366132 
L 362.414545 276.847406 
L 363.507658 279.32868 
L 364.600771 279.32868 
L 365.693884 279.32868 
L 366.786997 281.809953 
L 367.88011 281.809953 
L 368.973223 281.809953 
L 370.066336 281.809953 
L 371.159449 281.809953 
L 372.252562 281.809953 
L 373.345675 281.809953 
L 374.438788 279.32868 
L 375.531901 276.847406 
L 376.625014 274.366132 
L 377.718127 271.884858 
L 378.81124 266.922311 
L 379.904353 259.478489 
L 380.997466 252.034668 
L 382.090579 247.072121 
L 383.183691 239.628299 
L 384.276804 232.184478 
L 385.369917 227.22193 
L 386.46303 224.740657 
L 387.556143 222.259383 
L 388.649256 222.259383 
L 389.742369 219.778109 
L 390.835482 219.778109 
L 391.928595 222.259383 
L 393.021708 222.259383 
L 394.114821 219.778109 
L 395.207934 222.259383 
L 396.301047 222.259383 
L 397.39416 222.259383 
L 398.487273 219.778109 
L 398.487273 162.708812 
L 398.487273 162.708812 
L 397.39416 165.190086 
L 396.301047 165.190086 
L 395.207934 162.708812 
L 394.114821 162.708812 
L 393.021708 162.708812 
L 391.928595 165.190086 
L 390.835482 162.708812 
L 389.742369 162.708812 
L 388.649256 162.708812 
L 387.556143 162.708812 
L 386.46303 162.708812 
L 385.369917 160.227538 
L 384.276804 160.227538 
L 383.183691 160.227538 
L 382.090579 157.746265 
L 380.997466 157.746265 
L 379.904353 155.264991 
L 378.81124 155.264991 
L 377.718127 152.783717 
L 376.625014 152.783717 
L 375.531901 150.302443 
L 374.438788 150.302443 
L 373.345675 150.302443 
L 372.252562 147.821169 
L 371.159449 147.821169 
L 370.066336 147.821169 
L 368.973223 150.302443 
L 367.88011 150.302443 
L 366.786997 150.302443 
L 365.693884 150.302443 
L 364.600771 152.783717 
L 363.507658 152.783717 
L 362.414545 152.783717 
L 361.321433 152.783717 
L 360.22832 152.783717 
L 359.135207 152.783717 
L 358.042094 152.783717 
L 356.948981 152.783717 
L 355.855868 152.783717 
L 354.762755 152.783717 
L 353.669642 152.783717 
L 352.576529 152.783717 
L 351.483416 152.783717 
L 350.390303 155.264991 
L 349.29719 155.264991 
L 348.204077 155.264991 
L 347.110964 157.746265 
L 346.017851 160.227538 
L 344.924738 160.227538 
L 343.831625 160.227538 
L 342.738512 162.708812 
L 341.645399 162.708812 
L 340.552287 165.190086 
L 339.459174 162.708812 
L 338.366061 165.190086 
L 337.272948 165.190086 
L 336.179835 165.190086 
L 335.086722 162.708812 
L 333.993609 157.746265 
L 332.900496 145.339896 
L 331.807383 137.896074 
L 330.71427 125.489705 
L 329.621157 123.008432 
L 328.528044 123.008432 
L 327.434931 123.008432 
L 326.341818 127.970979 
L 325.248705 127.970979 
L 324.155592 123.008432 
L 323.062479 115.56461 
L 321.969366 113.083337 
L 320.876253 108.120789 
L 319.78314 100.676968 
L 318.690028 95.71442 
L 317.596915 90.751873 
L 316.503802 90.751873 
L 315.410689 90.751873 
L 314.317576 95.71442 
L 313.224463 103.158241 
L 312.13135 115.56461 
L 311.038237 127.970979 
L 309.945124 150.302443 
L 308.852011 160.227538 
L 307.758898 162.708812 
L 306.665785 162.708812 
L 305.572672 160.227538 
L 304.479559 162.708812 
L 303.386446 160.227538 
L 302.293333 157.746265 
L 301.20022 155.264991 
L 300.107107 155.264991 
L 299.013994 152.783717 
L 297.920882 152.783717 
L 296.827769 150.302443 
L 295.734656 150.302443 
L 294.641543 150.302443 
L 293.54843 150.302443 
L 292.455317 150.302443 
L 291.362204 152.783717 
L 290.269091 155.264991 
L 289.175978 155.264991 
L 288.082865 155.264991 
L 286.989752 157.746265 
L 285.896639 157.746265 
L 284.803526 157.746265 
L 283.710413 157.746265 
L 282.6173 160.227538 
L 281.524187 160.227538 
L 280.431074 162.708812 
L 279.337961 162.708812 
L 278.244848 162.708812 
L 277.151736 162.708812 
L 276.058623 162.708812 
L 274.96551 162.708812 
L 273.872397 162.708812 
L 272.779284 162.708812 
L 271.686171 162.708812 
L 270.593058 162.708812 
L 269.499945 162.708812 
L 268.406832 165.066022 
L 267.313719 165.190086 
L 266.220606 165.190086 
L 265.127493 162.708812 
L 264.03438 165.190086 
L 262.941267 165.190086 
L 261.848154 162.708812 
L 260.755041 162.708812 
L 259.661928 162.708812 
L 258.568815 162.708812 
L 257.475702 157.746265 
L 256.38259 155.264991 
L 255.289477 150.302443 
L 254.196364 145.339896 
L 253.103251 137.896074 
L 252.010138 132.933527 
L 250.917025 132.933527 
L 249.823912 132.933527 
L 248.730799 132.933527 
L 247.637686 127.970979 
L 246.544573 130.452253 
L 245.45146 132.933527 
L 244.358347 132.933527 
L 243.265234 132.933527 
L 242.172121 140.377348 
L 241.079008 145.339896 
L 239.985895 157.746265 
L 238.892782 160.227538 
L 237.799669 162.708812 
L 236.706556 162.708812 
L 235.613444 160.227538 
L 234.520331 160.227538 
L 233.427218 160.227538 
L 232.334105 157.746265 
L 231.240992 155.264991 
L 230.147879 155.264991 
L 229.054766 152.783717 
L 227.961653 152.783717 
L 226.86854 150.302443 
L 225.775427 150.302443 
L 224.682314 150.302443 
L 223.589201 150.302443 
L 222.496088 150.302443 
L 221.402975 150.302443 
L 220.309862 150.302443 
L 219.216749 150.302443 
L 218.123636 150.302443 
L 217.030523 152.783717 
L 215.93741 152.783717 
L 214.844298 152.783717 
L 213.751185 155.264991 
L 212.658072 155.264991 
L 211.564959 155.264991 
L 210.471846 155.264991 
L 209.378733 157.746265 
L 208.28562 157.746265 
L 207.192507 160.227538 
L 206.099394 160.227538 
L 205.006281 162.708812 
L 203.913168 162.708812 
L 202.820055 162.708812 
L 201.726942 162.708812 
L 200.633829 162.708812 
L 199.540716 165.190086 
L 198.447603 165.190086 
L 197.35449 165.190086 
L 196.261377 165.190086 
L 195.168264 165.190086 
L 194.075152 165.190086 
L 192.982039 162.708812 
L 191.888926 162.708812 
L 190.795813 162.708812 
L 189.7027 162.708812 
L 188.609587 162.708812 
L 187.516474 162.708812 
L 186.423361 162.708812 
L 185.330248 162.708812 
L 184.237135 162.708812 
L 183.144022 160.227538 
L 182.050909 160.227538 
L 180.957796 155.264991 
L 179.864683 150.302443 
L 178.77157 140.377348 
L 177.678457 130.452253 
L 176.585344 120.527158 
L 175.492231 115.56461 
L 174.399118 105.639515 
L 173.306006 100.676968 
L 172.212893 98.195694 
L 171.11978 100.676968 
L 170.026667 103.158241 
L 168.933554 95.71442 
L 167.840441 98.195694 
L 166.747328 105.639515 
L 165.654215 110.602063 
L 164.561102 125.489705 
L 163.467989 140.377348 
L 162.374876 160.227538 
L 161.281763 162.708812 
L 160.18865 162.708812 
L 159.095537 162.708812 
L 158.002424 162.708812 
L 156.909311 162.708812 
L 155.816198 162.708812 
L 154.723085 162.708812 
L 153.629972 160.227538 
L 152.53686 160.227538 
L 151.443747 160.227538 
L 150.350634 157.746265 
L 149.257521 157.746265 
L 148.164408 155.264991 
L 147.071295 155.264991 
L 145.978182 152.783717 
L 144.885069 152.783717 
L 143.791956 152.783717 
L 142.698843 152.783717 
L 141.60573 152.783717 
L 140.512617 152.783717 
L 139.419504 152.783717 
L 138.326391 152.783717 
L 137.233278 155.264991 
L 136.140165 155.264991 
L 135.047052 155.264991 
L 133.953939 155.264991 
L 132.860826 157.746265 
L 131.767713 155.264991 
L 130.674601 157.746265 
L 129.581488 157.746265 
L 128.488375 160.227538 
L 127.395262 160.227538 
L 126.302149 160.227538 
L 125.209036 162.708812 
L 124.115923 162.708812 
L 123.02281 162.708812 
L 121.929697 162.708812 
L 120.836584 165.190086 
L 119.743471 165.190086 
L 118.650358 162.708812 
L 117.557245 162.708812 
L 116.464132 157.746265 
L 115.371019 150.302443 
L 114.277906 150.302443 
L 113.184793 147.821169 
L 112.09168 145.339896 
L 110.998567 142.858622 
L 109.905455 150.302443 
L 108.812342 150.302443 
L 107.719229 135.414801 
L 106.626116 125.489705 
L 105.533003 120.527158 
L 104.43989 115.56461 
L 103.346777 110.602063 
L 102.253664 100.676968 
L 101.160551 98.195694 
L 100.067438 98.195694 
L 98.974325 90.751873 
L 97.881212 88.270599 
L 96.788099 88.270599 
L 95.694986 90.751873 
L 94.601873 90.751873 
L 93.50876 93.233146 
L 92.415647 103.158241 
L 91.322534 115.56461 
L 90.229421 118.045884 
L 89.136309 127.970979 
L 88.043196 145.339896 
L 86.950083 160.227538 
L 85.85697 160.227538 
L 84.763857 157.746265 
L 83.670744 155.264991 
L 82.577631 155.264991 
L 81.484518 152.783717 
L 80.391405 152.783717 
L 79.298292 150.302443 
L 78.205179 150.302443 
L 77.112066 150.302443 
L 76.018953 150.302443 
L 74.92584 150.302443 
L 73.832727 152.783717 
z
" style="fill:#008000;fill-opacity:0.4;"/>
   </g>
   <g id="matplotlib.axis_1">
    <g id="xtick_1">
     <g id="line2d_1">
      <defs>
       <path d="M 0 0 
L 0 3.5 
" id="m3d737346c8" style="stroke:#000000;stroke-width:0.8;"/>
      </defs>
      <g>
       <use style="stroke:#000000;stroke-width:0.8;" x="73.832727" xlink:href="#m3d737346c8" y="307.584"/>
      </g>
     </g>
     <g id="text_1">
      <!-- 0.0 -->
      <defs>
       <path d="M 31.78125 66.40625 
Q 24.171875 66.40625 20.328125 58.90625 
Q 16.5 51.421875 16.5 36.375 
Q 16.5 21.390625 20.328125 13.890625 
Q 24.171875 6.390625 31.78125 6.390625 
Q 39.453125 6.390625 43.28125 13.890625 
Q 47.125 21.390625 47.125 36.375 
Q 47.125 51.421875 43.28125 58.90625 
Q 39.453125 66.40625 31.78125 66.40625 
z
M 31.78125 74.21875 
Q 44.046875 74.21875 50.515625 64.515625 
Q 56.984375 54.828125 56.984375 36.375 
Q 56.984375 17.96875 50.515625 8.265625 
Q 44.046875 -1.421875 31.78125 -1.421875 
Q 19.53125 -1.421875 13.0625 8.265625 
Q 6.59375 17.96875 6.59375 36.375 
Q 6.59375 54.828125 13.0625 64.515625 
Q 19.53125 74.21875 31.78125 74.21875 
z
" id="DejaVuSans-30"/>
       <path d="M 10.6875 12.40625 
L 21 12.40625 
L 21 0 
L 10.6875 0 
z
" id="DejaVuSans-2e"/>
      </defs>
      <g transform="translate(65.881165 322.182437)scale(0.1 -0.1)">
       <use xlink:href="#DejaVuSans-30"/>
       <use x="63.623047" xlink:href="#DejaVuSans-2e"/>
       <use x="95.410156" xlink:href="#DejaVuSans-30"/>
      </g>
     </g>
    </g>
    <g id="xtick_2">
     <g id="line2d_2">
      <g>
       <use style="stroke:#000000;stroke-width:0.8;" x="138.763636" xlink:href="#m3d737346c8" y="307.584"/>
      </g>
     </g>
     <g id="text_2">
      <!-- 0.2 -->
      <defs>
       <path d="M 19.1875 8.296875 
L 53.609375 8.296875 
L 53.609375 0 
L 7.328125 0 
L 7.328125 8.296875 
Q 12.9375 14.109375 22.625 23.890625 
Q 32.328125 33.6875 34.8125 36.53125 
Q 39.546875 41.84375 41.421875 45.53125 
Q 43.3125 49.21875 43.3125 52.78125 
Q 43.3125 58.59375 39.234375 62.25 
Q 35.15625 65.921875 28.609375 65.921875 
Q 23.96875 65.921875 18.8125 64.3125 
Q 13.671875 62.703125 7.8125 59.421875 
L 7.8125 69.390625 
Q 13.765625 71.78125 18.9375 73 
Q 24.125 74.21875 28.421875 74.21875 
Q 39.75 74.21875 46.484375 68.546875 
Q 53.21875 62.890625 53.21875 53.421875 
Q 53.21875 48.921875 51.53125 44.890625 
Q 49.859375 40.875 45.40625 35.40625 
Q 44.1875 33.984375 37.640625 27.21875 
Q 31.109375 20.453125 19.1875 8.296875 
z
" id="DejaVuSans-32"/>
      </defs>
      <g transform="translate(130.812074 322.182437)scale(0.1 -0.1)">
       <use xlink:href="#DejaVuSans-30"/>
       <use x="63.623047" xlink:href="#DejaVuSans-2e"/>
       <use x="95.410156" xlink:href="#DejaVuSans-32"/>
      </g>
     </g>
    </g>
    <g id="xtick_3">
     <g id="line2d_3">
      <g>
       <use style="stroke:#000000;stroke-width:0.8;" x="203.694545" xlink:href="#m3d737346c8" y="307.584"/>
      </g>
     </g>
     <g id="text_3">
      <!-- 0.4 -->
      <defs>
       <path d="M 37.796875 64.3125 
L 12.890625 25.390625 
L 37.796875 25.390625 
z
M 35.203125 72.90625 
L 47.609375 72.90625 
L 47.609375 25.390625 
L 58.015625 25.390625 
L 58.015625 17.1875 
L 47.609375 17.1875 
L 47.609375 0 
L 37.796875 0 
L 37.796875 17.1875 
L 4.890625 17.1875 
L 4.890625 26.703125 
z
" id="DejaVuSans-34"/>
      </defs>
      <g transform="translate(195.742983 322.182437)scale(0.1 -0.1)">
       <use xlink:href="#DejaVuSans-30"/>
       <use x="63.623047" xlink:href="#DejaVuSans-2e"/>
       <use x="95.410156" xlink:href="#DejaVuSans-34"/>
      </g>
     </g>
    </g>
    <g id="xtick_4">
     <g id="line2d_4">
      <g>
       <use style="stroke:#000000;stroke-width:0.8;" x="268.625455" xlink:href="#m3d737346c8" y="307.584"/>
      </g>
     </g>
     <g id="text_4">
      <!-- 0.6 -->
      <defs>
       <path d="M 33.015625 40.375 
Q 26.375 40.375 22.484375 35.828125 
Q 18.609375 31.296875 18.609375 23.390625 
Q 18.609375 15.53125 22.484375 10.953125 
Q 26.375 6.390625 33.015625 6.390625 
Q 39.65625 6.390625 43.53125 10.953125 
Q 47.40625 15.53125 47.40625 23.390625 
Q 47.40625 31.296875 43.53125 35.828125 
Q 39.65625 40.375 33.015625 40.375 
z
M 52.59375 71.296875 
L 52.59375 62.3125 
Q 48.875 64.0625 45.09375 64.984375 
Q 41.3125 65.921875 37.59375 65.921875 
Q 27.828125 65.921875 22.671875 59.328125 
Q 17.53125 52.734375 16.796875 39.40625 
Q 19.671875 43.65625 24.015625 45.921875 
Q 28.375 48.1875 33.59375 48.1875 
Q 44.578125 48.1875 50.953125 41.515625 
Q 57.328125 34.859375 57.328125 23.390625 
Q 57.328125 12.15625 50.6875 5.359375 
Q 44.046875 -1.421875 33.015625 -1.421875 
Q 20.359375 -1.421875 13.671875 8.265625 
Q 6.984375 17.96875 6.984375 36.375 
Q 6.984375 53.65625 15.1875 63.9375 
Q 23.390625 74.21875 37.203125 74.21875 
Q 40.921875 74.21875 44.703125 73.484375 
Q 48.484375 72.75 52.59375 71.296875 
z
" id="DejaVuSans-36"/>
      </defs>
      <g transform="translate(260.673892 322.182437)scale(0.1 -0.1)">
       <use xlink:href="#DejaVuSans-30"/>
       <use x="63.623047" xlink:href="#DejaVuSans-2e"/>
       <use x="95.410156" xlink:href="#DejaVuSans-36"/>
      </g>
     </g>
    </g>
    <g id="xtick_5">
     <g id="line2d_5">
      <g>
       <use style="stroke:#000000;stroke-width:0.8;" x="333.556364" xlink:href="#m3d737346c8" y="307.584"/>
      </g>
     </g>
     <g id="text_5">
      <!-- 0.8 -->
      <defs>
       <path d="M 31.78125 34.625 
Q 24.75 34.625 20.71875 30.859375 
Q 16.703125 27.09375 16.703125 20.515625 
Q 16.703125 13.921875 20.71875 10.15625 
Q 24.75 6.390625 31.78125 6.390625 
Q 38.8125 6.390625 42.859375 10.171875 
Q 46.921875 13.96875 46.921875 20.515625 
Q 46.921875 27.09375 42.890625 30.859375 
Q 38.875 34.625 31.78125 34.625 
z
M 21.921875 38.8125 
Q 15.578125 40.375 12.03125 44.71875 
Q 8.5 49.078125 8.5 55.328125 
Q 8.5 64.0625 14.71875 69.140625 
Q 20.953125 74.21875 31.78125 74.21875 
Q 42.671875 74.21875 48.875 69.140625 
Q 55.078125 64.0625 55.078125 55.328125 
Q 55.078125 49.078125 51.53125 44.71875 
Q 48 40.375 41.703125 38.8125 
Q 48.828125 37.15625 52.796875 32.3125 
Q 56.78125 27.484375 56.78125 20.515625 
Q 56.78125 9.90625 50.3125 4.234375 
Q 43.84375 -1.421875 31.78125 -1.421875 
Q 19.734375 -1.421875 13.25 4.234375 
Q 6.78125 9.90625 6.78125 20.515625 
Q 6.78125 27.484375 10.78125 32.3125 
Q 14.796875 37.15625 21.921875 38.8125 
z
M 18.3125 54.390625 
Q 18.3125 48.734375 21.84375 45.5625 
Q 25.390625 42.390625 31.78125 42.390625 
Q 38.140625 42.390625 41.71875 45.5625 
Q 45.3125 48.734375 45.3125 54.390625 
Q 45.3125 60.0625 41.71875 63.234375 
Q 38.140625 66.40625 31.78125 66.40625 
Q 25.390625 66.40625 21.84375 63.234375 
Q 18.3125 60.0625 18.3125 54.390625 
z
" id="DejaVuSans-38"/>
      </defs>
      <g transform="translate(325.604801 322.182437)scale(0.1 -0.1)">
       <use xlink:href="#DejaVuSans-30"/>
       <use x="63.623047" xlink:href="#DejaVuSans-2e"/>
       <use x="95.410156" xlink:href="#DejaVuSans-38"/>
      </g>
     </g>
    </g>
    <g id="xtick_6">
     <g id="line2d_6">
      <g>
       <use style="stroke:#000000;stroke-width:0.8;" x="398.487273" xlink:href="#m3d737346c8" y="307.584"/>
      </g>
     </g>
     <g id="text_6">
      <!-- 1.0 -->
      <defs>
       <path d="M 12.40625 8.296875 
L 28.515625 8.296875 
L 28.515625 63.921875 
L 10.984375 60.40625 
L 10.984375 69.390625 
L 28.421875 72.90625 
L 38.28125 72.90625 
L 38.28125 8.296875 
L 54.390625 8.296875 
L 54.390625 0 
L 12.40625 0 
z
" id="DejaVuSans-31"/>
      </defs>
      <g transform="translate(390.53571 322.182437)scale(0.1 -0.1)">
       <use xlink:href="#DejaVuSans-31"/>
       <use x="63.623047" xlink:href="#DejaVuSans-2e"/>
       <use x="95.410156" xlink:href="#DejaVuSans-30"/>
      </g>
     </g>
    </g>
   </g>
   <g id="matplotlib.axis_2">
    <g id="ytick_1">
     <g id="line2d_7">
      <defs>
       <path d="M 0 0 
L -3.5 0 
" id="mc703d61501" style="stroke:#000000;stroke-width:0.8;"/>
      </defs>
      <g>
       <use style="stroke:#000000;stroke-width:0.8;" x="57.6" xlink:href="#mc703d61501" y="299.17887"/>
      </g>
     </g>
     <g id="text_7">
      <!-- 0.0 -->
      <g transform="translate(34.696875 302.978089)scale(0.1 -0.1)">
       <use xlink:href="#DejaVuSans-30"/>
       <use x="63.623047" xlink:href="#DejaVuSans-2e"/>
       <use x="95.410156" xlink:href="#DejaVuSans-30"/>
      </g>
     </g>
    </g>
    <g id="ytick_2">
     <g id="line2d_8">
      <g>
       <use style="stroke:#000000;stroke-width:0.8;" x="57.6" xlink:href="#mc703d61501" y="249.553394"/>
      </g>
     </g>
     <g id="text_8">
      <!-- 0.2 -->
      <g transform="translate(34.696875 253.352613)scale(0.1 -0.1)">
       <use xlink:href="#DejaVuSans-30"/>
       <use x="63.623047" xlink:href="#DejaVuSans-2e"/>
       <use x="95.410156" xlink:href="#DejaVuSans-32"/>
      </g>
     </g>
    </g>
    <g id="ytick_3">
     <g id="line2d_9">
      <g>
       <use style="stroke:#000000;stroke-width:0.8;" x="57.6" xlink:href="#mc703d61501" y="199.927919"/>
      </g>
     </g>
     <g id="text_9">
      <!-- 0.4 -->
      <g transform="translate(34.696875 203.727138)scale(0.1 -0.1)">
       <use xlink:href="#DejaVuSans-30"/>
       <use x="63.623047" xlink:href="#DejaVuSans-2e"/>
       <use x="95.410156" xlink:href="#DejaVuSans-34"/>
      </g>
     </g>
    </g>
    <g id="ytick_4">
     <g id="line2d_10">
      <g>
       <use style="stroke:#000000;stroke-width:0.8;" x="57.6" xlink:href="#mc703d61501" y="150.302443"/>
      </g>
     </g>
     <g id="text_10">
      <!-- 0.6 -->
      <g transform="translate(34.696875 154.101662)scale(0.1 -0.1)">
       <use xlink:href="#DejaVuSans-30"/>
       <use x="63.623047" xlink:href="#DejaVuSans-2e"/>
       <use x="95.410156" xlink:href="#DejaVuSans-36"/>
      </g>
     </g>
    </g>
    <g id="ytick_5">
     <g id="line2d_11">
      <g>
       <use style="stroke:#000000;stroke-width:0.8;" x="57.6" xlink:href="#mc703d61501" y="100.676968"/>
      </g>
     </g>
     <g id="text_11">
      <!-- 0.8 -->
      <g transform="translate(34.696875 104.476186)scale(0.1 -0.1)">
       <use xlink:href="#DejaVuSans-30"/>
       <use x="63.623047" xlink:href="#DejaVuSans-2e"/>
       <use x="95.410156" xlink:href="#DejaVuSans-38"/>
      </g>
     </g>
    </g>
    <g id="ytick_6">
     <g id="line2d_12">
      <g>
       <use style="stroke:#000000;stroke-width:0.8;" x="57.6" xlink:href="#mc703d61501" y="51.051492"/>
      </g>
     </g>
     <g id="text_12">
      <!-- 1.0 -->
      <g transform="translate(34.696875 54.850711)scale(0.1 -0.1)">
       <use xlink:href="#DejaVuSans-31"/>
       <use x="63.623047" xlink:href="#DejaVuSans-2e"/>
       <use x="95.410156" xlink:href="#DejaVuSans-30"/>
      </g>
     </g>
    </g>
   </g>
   <g id="line2d_13">
    <path clip-path="url(#p6498eb6064)" d="M 73.832727 286.596355 
L 74.92584 286.764114 
L 76.018953 286.093054 
L 77.112066 285.086451 
L 78.205179 278.711289 
L 79.298292 276.194781 
L 80.391405 269.316244 
L 81.484518 258.411542 
L 82.577631 245.661268 
L 83.670744 224.522553 
L 84.763857 206.739263 
L 85.85697 186.607201 
L 88.043196 142.65218 
L 89.136309 124.868891 
L 90.229421 119.332673 
L 91.322534 104.40136 
L 92.415647 76.719773 
L 93.50876 67.324926 
L 94.601873 65.143887 
L 95.694986 54.574653 
L 96.788099 53.568 
L 97.881212 61.78846 
L 98.974325 79.571997 
L 100.067438 85.779152 
L 101.160551 87.456989 
L 102.253664 103.394707 
L 105.533003 130.405357 
L 106.626116 142.484446 
L 107.719229 161.609856 
L 108.812342 163.95863 
L 109.905455 152.047275 
L 110.998567 154.396049 
L 112.09168 159.932267 
L 113.184793 161.945572 
L 114.277906 159.932267 
L 115.371019 168.991645 
L 116.464132 184.761877 
L 117.557245 189.962627 
L 118.650358 202.712901 
L 119.743471 213.953319 
L 120.836584 215.463174 
L 121.929697 220.328456 
L 124.115923 236.433907 
L 125.209036 238.614947 
L 126.302149 241.131455 
L 127.395262 250.52655 
L 128.488375 256.398236 
L 129.581488 259.250212 
L 130.674601 257.069421 
L 131.767713 260.92805 
L 132.860826 265.289881 
L 135.047052 269.819694 
L 137.233278 280.892279 
L 138.326391 280.892279 
L 139.419504 278.54353 
L 140.512617 279.550133 
L 141.60573 277.704686 
L 142.698843 275.188178 
L 143.791956 274.684901 
L 144.885069 269.819694 
L 147.071295 251.532955 
L 148.164408 247.674326 
L 149.257521 242.64131 
L 150.350634 234.588584 
L 151.443747 229.555568 
L 152.53686 225.361471 
L 153.629972 220.49619 
L 154.723085 214.288787 
L 155.816198 200.867329 
L 156.909311 196.337764 
L 158.002424 193.150071 
L 159.095537 192.143419 
L 160.18865 190.298095 
L 161.281763 182.077387 
L 164.561102 115.809512 
L 167.840441 77.89416 
L 168.933554 90.141231 
L 170.026667 93.496658 
L 171.11978 88.79911 
L 172.212893 89.470047 
L 173.306006 96.1809 
L 174.399118 112.622068 
L 175.492231 122.352383 
L 176.585344 133.257333 
L 177.678457 151.543825 
L 178.77157 160.435469 
L 179.864683 167.984993 
L 180.957796 174.695846 
L 182.050909 176.205701 
L 183.144022 184.929611 
L 184.237135 186.607201 
L 185.330248 187.110403 
L 186.423361 186.607201 
L 187.516474 187.781587 
L 188.609587 191.304748 
L 189.7027 191.640216 
L 190.795813 194.659926 
L 191.888926 197.176434 
L 194.075152 200.364127 
L 195.168264 205.564877 
L 196.261377 206.571529 
L 197.35449 213.785585 
L 198.447603 219.992739 
L 199.540716 224.522553 
L 200.633829 223.683634 
L 201.726942 225.361471 
L 203.913168 238.950415 
L 205.006281 244.319147 
L 206.099394 248.680979 
L 207.192507 256.230502 
L 208.28562 262.270171 
L 209.378733 264.45121 
L 210.471846 265.625349 
L 211.564959 268.309839 
L 213.751185 277.536927 
L 214.844298 281.731099 
L 215.93741 286.596355 
L 217.030523 290.119442 
L 218.123636 292.803733 
L 219.216749 293.810336 
L 220.309862 293.139251 
L 221.402975 292.635949 
L 222.496088 292.300432 
L 223.589201 289.951683 
L 224.682314 288.777321 
L 225.775427 283.744305 
L 226.86854 279.717892 
L 229.054766 263.109089 
L 230.147879 255.559566 
L 231.240992 244.486881 
L 232.334105 238.782681 
L 233.427218 229.2201 
L 234.520331 217.811948 
L 235.613444 209.255771 
L 239.985895 160.603451 
L 242.172121 142.819914 
L 243.265234 141.813509 
L 244.358347 141.645775 
L 245.45146 138.961285 
L 246.544573 134.767188 
L 247.637686 138.961285 
L 248.730799 139.464736 
L 249.823912 141.981244 
L 250.917025 140.639123 
L 252.010138 147.181993 
L 253.103251 155.234719 
L 254.196364 159.764533 
L 255.289477 168.656177 
L 256.38259 170.501501 
L 257.475702 182.580838 
L 259.661928 187.278385 
L 262.941267 202.712901 
L 264.03438 200.867329 
L 265.127493 206.403795 
L 266.220606 216.13411 
L 267.313719 223.5159 
L 268.406832 225.361471 
L 269.499945 224.690287 
L 271.686171 226.703592 
L 272.779284 222.006045 
L 273.872397 220.999392 
L 274.96551 219.489537 
L 276.058623 222.173779 
L 277.151736 227.03906 
L 278.244848 229.891037 
L 279.337961 236.769624 
L 280.431074 240.124802 
L 281.524187 247.003389 
L 282.6173 250.52655 
L 283.710413 253.54626 
L 285.896639 263.94776 
L 286.989752 267.806389 
L 288.082865 270.994081 
L 289.175978 278.879073 
L 290.269091 284.583149 
L 291.362204 287.938476 
L 292.455317 290.119442 
L 293.54843 290.287225 
L 294.641543 288.609562 
L 295.734656 283.744305 
L 296.827769 278.040229 
L 299.013994 262.941107 
L 300.107107 252.371873 
L 302.293333 226.703592 
L 303.386446 219.657271 
L 304.479559 203.048369 
L 305.572672 190.298095 
L 306.665785 182.748572 
L 307.758898 177.547822 
L 308.852011 168.991645 
L 309.945124 142.148978 
L 311.038237 121.849181 
L 314.317576 67.828129 
L 315.410689 63.801766 
L 316.503802 64.976152 
L 317.596915 72.022474 
L 318.690028 82.256239 
L 319.78314 97.187304 
L 320.876253 109.769844 
L 321.969366 114.131923 
L 323.062479 126.378994 
L 324.155592 134.599454 
L 325.248705 134.263986 
L 326.341818 129.734172 
L 327.434931 128.224317 
L 328.528044 128.72752 
L 329.621157 130.069641 
L 330.71427 144.665485 
L 331.807383 156.409106 
L 333.993609 185.600548 
L 335.086722 194.659926 
L 336.179835 208.081384 
L 337.272948 211.940013 
L 338.366061 212.778932 
L 339.459174 216.973029 
L 340.552287 222.844963 
L 341.645399 233.749665 
L 342.738512 238.614947 
L 343.831625 244.486881 
L 344.924738 256.56597 
L 346.017851 264.786678 
L 347.110964 269.316244 
L 348.204077 271.161815 
L 349.29719 273.846057 
L 350.390303 278.207988 
L 351.483416 279.885676 
L 352.576529 279.046832 
L 353.669642 280.221194 
L 354.762755 279.382374 
L 355.855868 281.395581 
L 356.948981 277.201384 
L 358.042094 277.87247 
L 359.135207 277.536927 
L 360.22832 277.87247 
L 361.321433 281.395581 
L 362.414545 283.241003 
L 363.507658 287.099657 
L 364.600771 288.94508 
L 365.693884 291.293828 
L 366.786997 293.307035 
L 367.88011 294.145854 
L 368.973223 295.320241 
L 370.066336 295.488 
L 372.252562 292.132648 
L 373.345675 289.61614 
L 376.625014 272.67167 
L 377.718127 265.961065 
L 378.81124 252.875076 
L 379.904353 246.667921 
L 380.997466 241.466923 
L 382.090579 232.910995 
L 383.183691 226.032408 
L 384.276804 215.798642 
L 385.369917 215.463174 
L 386.46303 209.255771 
L 387.556143 205.732611 
L 388.649256 199.357474 
L 389.742369 194.492192 
L 390.835482 201.203045 
L 391.928595 202.20945 
L 393.021708 198.854272 
L 394.114821 198.518555 
L 395.207934 204.39049 
L 396.301047 207.745916 
L 397.39416 200.364127 
L 398.487273 198.854272 
L 398.487273 198.854272 
" style="fill:none;stroke:#66c2a5;stroke-linecap:square;stroke-width:1.5;"/>
   </g>
   <g id="line2d_14">
    <path clip-path="url(#p6498eb6064)" d="M 73.832727 227.91036 
L 74.92584 228.126479 
L 77.112066 227.943609 
L 78.205179 227.515403 
L 79.298292 225.902637 
L 80.391405 225.497073 
L 81.484518 223.083042 
L 82.577631 219.966562 
L 83.670744 214.995826 
L 84.763857 206.457825 
L 85.85697 198.96109 
L 88.043196 180.54793 
L 89.136309 173.049397 
L 90.229421 168.717031 
L 91.322534 167.556043 
L 93.50876 157.763944 
L 94.601873 157.587153 
L 95.694986 157.15355 
L 96.788099 155.528626 
L 97.881212 156.157257 
L 98.974325 158.185388 
L 100.067438 161.277986 
L 101.160551 161.047785 
L 102.253664 161.973673 
L 103.346777 165.636777 
L 104.43989 167.269331 
L 105.533003 170.05698 
L 106.626116 171.594316 
L 107.719229 176.496816 
L 108.812342 182.415957 
L 109.905455 181.148212 
L 110.998567 177.732305 
L 112.09168 179.144522 
L 113.184793 181.0819 
L 114.277906 181.317063 
L 115.371019 180.92558 
L 116.464132 185.676537 
L 117.557245 191.282541 
L 118.650358 193.455888 
L 119.743471 199.545368 
L 120.836584 203.644867 
L 121.929697 204.165128 
L 123.02281 206.718049 
L 124.115923 210.259633 
L 125.209036 212.993562 
L 126.302149 213.762137 
L 127.395262 215.027276 
L 128.488375 218.54442 
L 129.581488 220.22325 
L 130.674601 220.731725 
L 131.767713 220.351966 
L 133.953939 222.928334 
L 135.047052 223.484202 
L 136.140165 224.185223 
L 137.233278 225.835643 
L 138.326391 226.977711 
L 139.419504 226.69956 
L 140.512617 226.133334 
L 141.60573 226.534804 
L 143.791956 225.25732 
L 144.885069 225.160302 
L 145.978182 223.513605 
L 148.164408 217.917464 
L 149.257521 216.749652 
L 150.350634 214.722017 
L 151.443747 211.509698 
L 153.629972 208.016747 
L 154.723085 205.673805 
L 155.816198 202.57854 
L 156.909311 197.135928 
L 158.002424 195.297924 
L 159.095537 194.036382 
L 160.18865 193.890111 
L 161.281763 192.591413 
L 162.374876 187.936667 
L 163.467989 178.475942 
L 164.561102 171.557096 
L 165.654215 165.827649 
L 167.840441 161.121169 
L 168.933554 159.196073 
L 170.026667 162.843359 
L 172.212893 161.287104 
L 173.306006 161.833357 
L 174.399118 163.897466 
L 175.492231 167.774333 
L 176.585344 169.834348 
L 177.678457 173.362409 
L 178.77157 178.792801 
L 179.864683 181.860276 
L 182.050909 186.666875 
L 183.144022 187.435512 
L 184.237135 191.263869 
L 185.330248 191.308222 
L 186.423361 191.504677 
L 187.516474 191.498287 
L 188.609587 192.114388 
L 189.7027 193.582247 
L 190.795813 193.496147 
L 191.888926 195.403254 
L 192.982039 195.896903 
L 195.168264 197.840361 
L 196.261377 199.600949 
L 197.35449 200.678814 
L 198.447603 203.767938 
L 199.540716 206.372159 
L 200.633829 207.957693 
L 201.726942 207.474713 
L 202.820055 208.773102 
L 205.006281 214.13439 
L 206.099394 216.064263 
L 207.192507 217.713565 
L 208.28562 220.370885 
L 209.378733 222.102814 
L 211.564959 222.905134 
L 212.658072 223.836418 
L 214.844298 226.280411 
L 215.93741 227.210392 
L 217.030523 228.387261 
L 219.216749 229.45272 
L 220.309862 229.552839 
L 221.402975 229.316063 
L 223.589201 229.130774 
L 224.682314 228.624843 
L 225.775427 228.353515 
L 226.86854 227.108536 
L 227.961653 226.171793 
L 231.240992 219.053143 
L 232.334105 215.351206 
L 233.427218 213.155775 
L 234.520331 209.137353 
L 235.613444 204.267915 
L 236.706556 200.587069 
L 239.985895 184.576526 
L 241.079008 179.993427 
L 243.265234 174.455534 
L 245.45146 174.483387 
L 246.544573 173.170483 
L 247.637686 172.419587 
L 248.730799 174.024661 
L 249.823912 173.740741 
L 250.917025 174.812155 
L 252.010138 174.161069 
L 253.103251 177.061492 
L 254.196364 179.531104 
L 255.289477 181.336789 
L 256.38259 184.363199 
L 257.475702 185.37103 
L 258.568815 190.33761 
L 259.661928 190.69603 
L 260.755041 192.03356 
L 262.941267 196.565855 
L 264.03438 198.255416 
L 265.127493 197.814928 
L 266.220606 200.925887 
L 267.313719 204.853992 
L 268.406832 207.6636 
L 269.499945 208.211651 
L 270.593058 208.079958 
L 271.686171 208.56666 
L 272.779284 208.47417 
L 273.872397 206.692367 
L 276.058623 205.948792 
L 277.151736 207.236263 
L 278.244848 209.12048 
L 279.337961 210.638213 
L 280.431074 213.156644 
L 281.524187 214.602668 
L 282.6173 217.081771 
L 284.803526 219.303069 
L 286.989752 222.660667 
L 289.175978 224.597487 
L 290.269091 226.846762 
L 291.362204 227.881329 
L 292.455317 228.55425 
L 293.54843 228.886803 
L 294.641543 228.81007 
L 295.734656 228.232739 
L 296.827769 227.134838 
L 297.920882 225.639684 
L 299.013994 223.670979 
L 300.107107 221.427226 
L 301.20022 217.749109 
L 303.386446 208.115998 
L 304.479559 205.149946 
L 305.572672 197.258875 
L 306.665785 192.131943 
L 308.852011 186.916181 
L 309.945124 182.567997 
L 311.038237 172.331688 
L 313.224463 163.092107 
L 314.317576 159.291602 
L 315.410689 157.081345 
L 316.503802 157.247467 
L 317.596915 157.766115 
L 319.78314 161.31049 
L 320.876253 164.435531 
L 321.969366 166.695475 
L 323.062479 167.323671 
L 324.155592 171.324663 
L 325.248705 172.35799 
L 326.341818 172.192737 
L 327.434931 170.520668 
L 328.528044 170.497158 
L 329.621157 170.698017 
L 330.71427 171.651261 
L 331.807383 176.870558 
L 332.900496 180.468591 
L 333.993609 186.523644 
L 335.086722 191.716764 
L 336.179835 195.892375 
L 337.272948 201.341625 
L 338.366061 202.510987 
L 339.459174 203.085278 
L 340.552287 205.070173 
L 341.645399 207.8358 
L 342.738512 212.302527 
L 343.831625 213.870196 
L 344.924738 216.417906 
L 346.017851 220.747791 
L 347.110964 222.89676 
L 348.204077 224.066308 
L 349.29719 224.422247 
L 350.390303 225.321399 
L 351.483416 226.374824 
L 352.576529 226.592183 
L 353.669642 226.329168 
L 354.762755 226.658061 
L 355.855868 226.495537 
L 356.948981 226.851476 
L 358.042094 225.700972 
L 359.135207 226.104799 
L 360.22832 225.99004 
L 361.321433 226.166707 
L 362.414545 227.055065 
L 363.507658 227.520055 
L 364.600771 228.360029 
L 365.693884 228.677322 
L 366.786997 229.170909 
L 367.88011 229.514441 
L 371.159449 229.844575 
L 372.252562 229.375366 
L 373.345675 229.042131 
L 374.438788 228.495506 
L 375.531901 227.077458 
L 376.625014 225.906235 
L 377.718127 224.307054 
L 378.81124 222.220737 
L 379.904353 218.214472 
L 382.090579 214.214225 
L 385.369917 204.123194 
L 386.46303 203.60039 
L 387.556143 201.013228 
L 388.649256 199.439232 
L 389.742369 196.197262 
L 390.835482 195.282106 
L 391.928595 197.979809 
L 393.021708 197.953135 
L 394.114821 196.563125 
L 395.207934 197.038972 
L 396.301047 199.629546 
L 397.39416 199.980522 
L 398.487273 197.340447 
L 398.487273 197.340447 
" style="fill:none;stroke:#fc8d62;stroke-linecap:square;stroke-width:1.5;"/>
   </g>
   <g id="line2d_15">
    <path clip-path="url(#p6498eb6064)" d="M 73.832727 279.32868 
L 78.205179 279.32868 
L 79.298292 274.366132 
L 80.391405 274.366132 
L 81.484518 269.403585 
L 82.577631 261.959763 
L 83.670744 252.034668 
L 84.763857 232.184478 
L 85.85697 222.259383 
L 86.950083 217.296835 
L 88.043196 217.296835 
L 89.136309 214.815561 
L 90.229421 214.815561 
L 91.322534 217.296835 
L 92.415647 214.815561 
L 96.788099 214.815561 
L 97.881212 217.296835 
L 106.626116 217.296835 
L 107.719229 219.778109 
L 108.812342 219.778109 
L 109.905455 217.296835 
L 112.09168 217.296835 
L 113.184793 219.778109 
L 114.277906 219.778109 
L 115.371019 217.296835 
L 117.557245 222.259383 
L 118.650358 219.778109 
L 120.836584 224.740657 
L 121.929697 224.740657 
L 123.02281 229.703204 
L 124.115923 237.147025 
L 125.209036 242.109573 
L 126.302149 244.590847 
L 127.395262 249.553394 
L 128.488375 256.997216 
L 129.581488 261.959763 
L 131.767713 261.959763 
L 138.326391 276.847406 
L 139.419504 276.847406 
L 140.512617 274.366132 
L 141.60573 276.847406 
L 142.698843 274.366132 
L 143.791956 274.366132 
L 145.978182 269.403585 
L 147.071295 264.441037 
L 148.164408 256.997216 
L 149.257521 254.515942 
L 150.350634 249.553394 
L 151.443747 242.109573 
L 154.723085 227.22193 
L 155.816198 224.740657 
L 156.909311 219.778109 
L 161.281763 219.778109 
L 163.467989 214.815561 
L 168.933554 214.815561 
L 170.026667 217.296835 
L 171.11978 217.296835 
L 172.212893 214.815561 
L 173.306006 217.296835 
L 174.399118 217.296835 
L 175.492231 219.778109 
L 176.585344 217.296835 
L 177.678457 219.778109 
L 190.795813 219.778109 
L 191.888926 222.259383 
L 192.982039 219.778109 
L 194.075152 222.259383 
L 197.35449 222.259383 
L 199.540716 227.22193 
L 200.633829 232.184478 
L 201.726942 232.184478 
L 202.820055 234.665752 
L 203.913168 239.628299 
L 205.006281 247.072121 
L 206.099394 252.034668 
L 207.192507 254.515942 
L 208.28562 261.959763 
L 210.471846 266.922311 
L 211.564959 266.922311 
L 218.123636 281.809953 
L 224.682314 281.809953 
L 229.054766 271.884858 
L 230.147879 266.922311 
L 234.520331 237.147025 
L 235.613444 227.22193 
L 236.706556 222.259383 
L 237.799669 219.778109 
L 238.892782 219.778109 
L 239.985895 217.296835 
L 252.010138 217.296835 
L 253.103251 219.778109 
L 257.475702 219.778109 
L 258.568815 222.259383 
L 259.661928 219.778109 
L 261.848154 219.778109 
L 262.941267 222.259383 
L 266.220606 222.259383 
L 267.313719 227.22193 
L 269.499945 232.184478 
L 272.779284 232.184478 
L 273.872397 229.703204 
L 274.96551 229.703204 
L 276.058623 227.22193 
L 277.151736 229.703204 
L 278.244848 234.665752 
L 279.337961 237.147025 
L 280.431074 244.590847 
L 281.524187 247.072121 
L 282.6173 254.515942 
L 285.896639 261.959763 
L 286.989752 266.922311 
L 289.175978 271.884858 
L 290.269091 276.847406 
L 291.362204 279.32868 
L 292.455317 279.32868 
L 293.54843 281.809953 
L 294.641543 281.809953 
L 299.013994 271.884858 
L 301.20022 256.997216 
L 302.293333 247.072121 
L 303.386446 234.665752 
L 305.572672 219.778109 
L 308.852011 219.778109 
L 311.038237 214.815561 
L 316.503802 214.815561 
L 317.596915 217.296835 
L 323.062479 217.296835 
L 324.155592 219.778109 
L 325.248705 217.296835 
L 330.71427 217.296835 
L 331.807383 219.778109 
L 333.993609 219.778109 
L 335.086722 222.259383 
L 336.179835 222.259383 
L 337.272948 224.740657 
L 339.459174 224.740657 
L 340.552287 227.22193 
L 341.645399 232.184478 
L 342.738512 242.109573 
L 344.924738 252.034668 
L 346.017851 261.959763 
L 347.110964 266.922311 
L 350.390303 274.366132 
L 351.483416 274.366132 
L 352.576529 276.847406 
L 356.948981 276.847406 
L 358.042094 274.366132 
L 361.321433 274.366132 
L 363.507658 279.32868 
L 365.693884 279.32868 
L 366.786997 281.809953 
L 373.345675 281.809953 
L 377.718127 271.884858 
L 378.81124 266.922311 
L 380.997466 252.034668 
L 382.090579 247.072121 
L 384.276804 232.184478 
L 385.369917 227.22193 
L 387.556143 222.259383 
L 388.649256 222.259383 
L 389.742369 219.778109 
L 390.835482 219.778109 
L 391.928595 222.259383 
L 393.021708 222.259383 
L 394.114821 219.778109 
L 395.207934 222.259383 
L 397.39416 222.259383 
L 398.487273 219.778109 
L 398.487273 219.778109 
" style="fill:none;stroke:#8da0cb;stroke-linecap:square;stroke-width:1.5;"/>
   </g>
   <g id="line2d_16">
    <path clip-path="url(#p6498eb6064)" d="M 73.832727 152.783717 
L 74.92584 150.302443 
L 79.298292 150.302443 
L 80.391405 152.783717 
L 81.484518 152.783717 
L 82.577631 155.264991 
L 83.670744 155.264991 
L 85.85697 160.227538 
L 86.950083 160.227538 
L 88.043196 145.339896 
L 89.136309 127.970979 
L 90.229421 118.045884 
L 91.322534 115.56461 
L 92.415647 103.158241 
L 93.50876 93.233146 
L 94.601873 90.751873 
L 95.694986 90.751873 
L 96.788099 88.270599 
L 97.881212 88.270599 
L 98.974325 90.751873 
L 100.067438 98.195694 
L 101.160551 98.195694 
L 102.253664 100.676968 
L 103.346777 110.602063 
L 106.626116 125.489705 
L 107.719229 135.414801 
L 108.812342 150.302443 
L 109.905455 150.302443 
L 110.998567 142.858622 
L 114.277906 150.302443 
L 115.371019 150.302443 
L 116.464132 157.746265 
L 117.557245 162.708812 
L 118.650358 162.708812 
L 119.743471 165.190086 
L 120.836584 165.190086 
L 121.929697 162.708812 
L 125.209036 162.708812 
L 126.302149 160.227538 
L 128.488375 160.227538 
L 129.581488 157.746265 
L 130.674601 157.746265 
L 131.767713 155.264991 
L 132.860826 157.746265 
L 133.953939 155.264991 
L 137.233278 155.264991 
L 138.326391 152.783717 
L 145.978182 152.783717 
L 147.071295 155.264991 
L 148.164408 155.264991 
L 149.257521 157.746265 
L 150.350634 157.746265 
L 151.443747 160.227538 
L 153.629972 160.227538 
L 154.723085 162.708812 
L 161.281763 162.708812 
L 162.374876 160.227538 
L 163.467989 140.377348 
L 165.654215 110.602063 
L 166.747328 105.639515 
L 167.840441 98.195694 
L 168.933554 95.71442 
L 170.026667 103.158241 
L 172.212893 98.195694 
L 173.306006 100.676968 
L 174.399118 105.639515 
L 175.492231 115.56461 
L 176.585344 120.527158 
L 179.864683 150.302443 
L 182.050909 160.227538 
L 183.144022 160.227538 
L 184.237135 162.708812 
L 192.982039 162.708812 
L 194.075152 165.190086 
L 199.540716 165.190086 
L 200.633829 162.708812 
L 205.006281 162.708812 
L 206.099394 160.227538 
L 207.192507 160.227538 
L 208.28562 157.746265 
L 209.378733 157.746265 
L 210.471846 155.264991 
L 213.751185 155.264991 
L 214.844298 152.783717 
L 217.030523 152.783717 
L 218.123636 150.302443 
L 226.86854 150.302443 
L 227.961653 152.783717 
L 229.054766 152.783717 
L 230.147879 155.264991 
L 231.240992 155.264991 
L 233.427218 160.227538 
L 235.613444 160.227538 
L 236.706556 162.708812 
L 237.799669 162.708812 
L 239.985895 157.746265 
L 241.079008 145.339896 
L 242.172121 140.377348 
L 243.265234 132.933527 
L 245.45146 132.933527 
L 247.637686 127.970979 
L 248.730799 132.933527 
L 252.010138 132.933527 
L 253.103251 137.896074 
L 254.196364 145.339896 
L 256.38259 155.264991 
L 257.475702 157.746265 
L 258.568815 162.708812 
L 261.848154 162.708812 
L 262.941267 165.190086 
L 264.03438 165.190086 
L 265.127493 162.708812 
L 266.220606 165.190086 
L 267.313719 165.190086 
L 268.406832 165.066022 
L 269.499945 162.708812 
L 280.431074 162.708812 
L 281.524187 160.227538 
L 282.6173 160.227538 
L 283.710413 157.746265 
L 286.989752 157.746265 
L 288.082865 155.264991 
L 290.269091 155.264991 
L 292.455317 150.302443 
L 296.827769 150.302443 
L 297.920882 152.783717 
L 299.013994 152.783717 
L 300.107107 155.264991 
L 301.20022 155.264991 
L 304.479559 162.708812 
L 305.572672 160.227538 
L 306.665785 162.708812 
L 307.758898 162.708812 
L 308.852011 160.227538 
L 309.945124 150.302443 
L 311.038237 127.970979 
L 313.224463 103.158241 
L 314.317576 95.71442 
L 315.410689 90.751873 
L 317.596915 90.751873 
L 319.78314 100.676968 
L 320.876253 108.120789 
L 321.969366 113.083337 
L 323.062479 115.56461 
L 324.155592 123.008432 
L 325.248705 127.970979 
L 326.341818 127.970979 
L 327.434931 123.008432 
L 329.621157 123.008432 
L 330.71427 125.489705 
L 331.807383 137.896074 
L 332.900496 145.339896 
L 333.993609 157.746265 
L 335.086722 162.708812 
L 336.179835 165.190086 
L 338.366061 165.190086 
L 339.459174 162.708812 
L 340.552287 165.190086 
L 341.645399 162.708812 
L 342.738512 162.708812 
L 343.831625 160.227538 
L 346.017851 160.227538 
L 348.204077 155.264991 
L 350.390303 155.264991 
L 351.483416 152.783717 
L 364.600771 152.783717 
L 365.693884 150.302443 
L 368.973223 150.302443 
L 370.066336 147.821169 
L 372.252562 147.821169 
L 373.345675 150.302443 
L 375.531901 150.302443 
L 376.625014 152.783717 
L 377.718127 152.783717 
L 378.81124 155.264991 
L 379.904353 155.264991 
L 380.997466 157.746265 
L 382.090579 157.746265 
L 383.183691 160.227538 
L 385.369917 160.227538 
L 386.46303 162.708812 
L 390.835482 162.708812 
L 391.928595 165.190086 
L 393.021708 162.708812 
L 395.207934 162.708812 
L 396.301047 165.190086 
L 397.39416 165.190086 
L 398.487273 162.708812 
L 398.487273 162.708812 
" style="fill:none;stroke:#e78ac3;stroke-linecap:square;stroke-width:1.5;"/>
   </g>
   <g id="patch_3">
    <path d="M 57.6 307.584 
L 57.6 41.472 
" style="fill:none;stroke:#000000;stroke-linecap:square;stroke-linejoin:miter;stroke-width:0.8;"/>
   </g>
   <g id="patch_4">
    <path d="M 414.72 307.584 
L 414.72 41.472 
" style="fill:none;stroke:#000000;stroke-linecap:square;stroke-linejoin:miter;stroke-width:0.8;"/>
   </g>
   <g id="patch_5">
    <path d="M 57.6 307.584 
L 414.72 307.584 
" style="fill:none;stroke:#000000;stroke-linecap:square;stroke-linejoin:miter;stroke-width:0.8;"/>
   </g>
   <g id="patch_6">
    <path d="M 57.6 41.472 
L 414.72 41.472 
" style="fill:none;stroke:#000000;stroke-linecap:square;stroke-linejoin:miter;stroke-width:0.8;"/>
   </g>
   <g id="text_13">
    <!-- Plot of Train Data	vs MCMC	Uncertainty	 -->
    <defs>
     <path d="M 19.671875 64.796875 
L 19.671875 37.40625 
L 32.078125 37.40625 
Q 38.96875 37.40625 42.71875 40.96875 
Q 46.484375 44.53125 46.484375 51.125 
Q 46.484375 57.671875 42.71875 61.234375 
Q 38.96875 64.796875 32.078125 64.796875 
z
M 9.8125 72.90625 
L 32.078125 72.90625 
Q 44.34375 72.90625 50.609375 67.359375 
Q 56.890625 61.8125 56.890625 51.125 
Q 56.890625 40.328125 50.609375 34.8125 
Q 44.34375 29.296875 32.078125 29.296875 
L 19.671875 29.296875 
L 19.671875 0 
L 9.8125 0 
z
" id="DejaVuSans-50"/>
     <path d="M 9.421875 75.984375 
L 18.40625 75.984375 
L 18.40625 0 
L 9.421875 0 
z
" id="DejaVuSans-6c"/>
     <path d="M 30.609375 48.390625 
Q 23.390625 48.390625 19.1875 42.75 
Q 14.984375 37.109375 14.984375 27.296875 
Q 14.984375 17.484375 19.15625 11.84375 
Q 23.34375 6.203125 30.609375 6.203125 
Q 37.796875 6.203125 41.984375 11.859375 
Q 46.1875 17.53125 46.1875 27.296875 
Q 46.1875 37.015625 41.984375 42.703125 
Q 37.796875 48.390625 30.609375 48.390625 
z
M 30.609375 56 
Q 42.328125 56 49.015625 48.375 
Q 55.71875 40.765625 55.71875 27.296875 
Q 55.71875 13.875 49.015625 6.21875 
Q 42.328125 -1.421875 30.609375 -1.421875 
Q 18.84375 -1.421875 12.171875 6.21875 
Q 5.515625 13.875 5.515625 27.296875 
Q 5.515625 40.765625 12.171875 48.375 
Q 18.84375 56 30.609375 56 
z
" id="DejaVuSans-6f"/>
     <path d="M 18.3125 70.21875 
L 18.3125 54.6875 
L 36.8125 54.6875 
L 36.8125 47.703125 
L 18.3125 47.703125 
L 18.3125 18.015625 
Q 18.3125 11.328125 20.140625 9.421875 
Q 21.96875 7.515625 27.59375 7.515625 
L 36.8125 7.515625 
L 36.8125 0 
L 27.59375 0 
Q 17.1875 0 13.234375 3.875 
Q 9.28125 7.765625 9.28125 18.015625 
L 9.28125 47.703125 
L 2.6875 47.703125 
L 2.6875 54.6875 
L 9.28125 54.6875 
L 9.28125 70.21875 
z
" id="DejaVuSans-74"/>
     <path id="DejaVuSans-20"/>
     <path d="M 37.109375 75.984375 
L 37.109375 68.5 
L 28.515625 68.5 
Q 23.6875 68.5 21.796875 66.546875 
Q 19.921875 64.59375 19.921875 59.515625 
L 19.921875 54.6875 
L 34.71875 54.6875 
L 34.71875 47.703125 
L 19.921875 47.703125 
L 19.921875 0 
L 10.890625 0 
L 10.890625 47.703125 
L 2.296875 47.703125 
L 2.296875 54.6875 
L 10.890625 54.6875 
L 10.890625 58.5 
Q 10.890625 67.625 15.140625 71.796875 
Q 19.390625 75.984375 28.609375 75.984375 
z
" id="DejaVuSans-66"/>
     <path d="M -0.296875 72.90625 
L 61.375 72.90625 
L 61.375 64.59375 
L 35.5 64.59375 
L 35.5 0 
L 25.59375 0 
L 25.59375 64.59375 
L -0.296875 64.59375 
z
" id="DejaVuSans-54"/>
     <path d="M 41.109375 46.296875 
Q 39.59375 47.171875 37.8125 47.578125 
Q 36.03125 48 33.890625 48 
Q 26.265625 48 22.1875 43.046875 
Q 18.109375 38.09375 18.109375 28.8125 
L 18.109375 0 
L 9.078125 0 
L 9.078125 54.6875 
L 18.109375 54.6875 
L 18.109375 46.1875 
Q 20.953125 51.171875 25.484375 53.578125 
Q 30.03125 56 36.53125 56 
Q 37.453125 56 38.578125 55.875 
Q 39.703125 55.765625 41.0625 55.515625 
z
" id="DejaVuSans-72"/>
     <path d="M 34.28125 27.484375 
Q 23.390625 27.484375 19.1875 25 
Q 14.984375 22.515625 14.984375 16.5 
Q 14.984375 11.71875 18.140625 8.90625 
Q 21.296875 6.109375 26.703125 6.109375 
Q 34.1875 6.109375 38.703125 11.40625 
Q 43.21875 16.703125 43.21875 25.484375 
L 43.21875 27.484375 
z
M 52.203125 31.203125 
L 52.203125 0 
L 43.21875 0 
L 43.21875 8.296875 
Q 40.140625 3.328125 35.546875 0.953125 
Q 30.953125 -1.421875 24.3125 -1.421875 
Q 15.921875 -1.421875 10.953125 3.296875 
Q 6 8.015625 6 15.921875 
Q 6 25.140625 12.171875 29.828125 
Q 18.359375 34.515625 30.609375 34.515625 
L 43.21875 34.515625 
L 43.21875 35.40625 
Q 43.21875 41.609375 39.140625 45 
Q 35.0625 48.390625 27.6875 48.390625 
Q 23 48.390625 18.546875 47.265625 
Q 14.109375 46.140625 10.015625 43.890625 
L 10.015625 52.203125 
Q 14.9375 54.109375 19.578125 55.046875 
Q 24.21875 56 28.609375 56 
Q 40.484375 56 46.34375 49.84375 
Q 52.203125 43.703125 52.203125 31.203125 
z
" id="DejaVuSans-61"/>
     <path d="M 9.421875 54.6875 
L 18.40625 54.6875 
L 18.40625 0 
L 9.421875 0 
z
M 9.421875 75.984375 
L 18.40625 75.984375 
L 18.40625 64.59375 
L 9.421875 64.59375 
z
" id="DejaVuSans-69"/>
     <path d="M 54.890625 33.015625 
L 54.890625 0 
L 45.90625 0 
L 45.90625 32.71875 
Q 45.90625 40.484375 42.875 44.328125 
Q 39.84375 48.1875 33.796875 48.1875 
Q 26.515625 48.1875 22.3125 43.546875 
Q 18.109375 38.921875 18.109375 30.90625 
L 18.109375 0 
L 9.078125 0 
L 9.078125 54.6875 
L 18.109375 54.6875 
L 18.109375 46.1875 
Q 21.34375 51.125 25.703125 53.5625 
Q 30.078125 56 35.796875 56 
Q 45.21875 56 50.046875 50.171875 
Q 54.890625 44.34375 54.890625 33.015625 
z
" id="DejaVuSans-6e"/>
     <path d="M 19.671875 64.796875 
L 19.671875 8.109375 
L 31.59375 8.109375 
Q 46.6875 8.109375 53.6875 14.9375 
Q 60.6875 21.78125 60.6875 36.53125 
Q 60.6875 51.171875 53.6875 57.984375 
Q 46.6875 64.796875 31.59375 64.796875 
z
M 9.8125 72.90625 
L 30.078125 72.90625 
Q 51.265625 72.90625 61.171875 64.09375 
Q 71.09375 55.28125 71.09375 36.53125 
Q 71.09375 17.671875 61.125 8.828125 
Q 51.171875 0 30.078125 0 
L 9.8125 0 
z
" id="DejaVuSans-44"/>
     <path d="M 4.984375 -17.671875 
L 4.984375 70.515625 
L 54.984375 70.515625 
L 54.984375 -17.671875 
z
M 10.59375 -12.109375 
L 49.421875 -12.109375 
L 49.421875 64.890625 
L 10.59375 64.890625 
z
" id="DejaVuSans-9"/>
     <path d="M 2.984375 54.6875 
L 12.5 54.6875 
L 29.59375 8.796875 
L 46.6875 54.6875 
L 56.203125 54.6875 
L 35.6875 0 
L 23.484375 0 
z
" id="DejaVuSans-76"/>
     <path d="M 44.28125 53.078125 
L 44.28125 44.578125 
Q 40.484375 46.53125 36.375 47.5 
Q 32.28125 48.484375 27.875 48.484375 
Q 21.1875 48.484375 17.84375 46.4375 
Q 14.5 44.390625 14.5 40.28125 
Q 14.5 37.15625 16.890625 35.375 
Q 19.28125 33.59375 26.515625 31.984375 
L 29.59375 31.296875 
Q 39.15625 29.25 43.1875 25.515625 
Q 47.21875 21.78125 47.21875 15.09375 
Q 47.21875 7.46875 41.1875 3.015625 
Q 35.15625 -1.421875 24.609375 -1.421875 
Q 20.21875 -1.421875 15.453125 -0.5625 
Q 10.6875 0.296875 5.421875 2 
L 5.421875 11.28125 
Q 10.40625 8.6875 15.234375 7.390625 
Q 20.0625 6.109375 24.8125 6.109375 
Q 31.15625 6.109375 34.5625 8.28125 
Q 37.984375 10.453125 37.984375 14.40625 
Q 37.984375 18.0625 35.515625 20.015625 
Q 33.0625 21.96875 24.703125 23.78125 
L 21.578125 24.515625 
Q 13.234375 26.265625 9.515625 29.90625 
Q 5.8125 33.546875 5.8125 39.890625 
Q 5.8125 47.609375 11.28125 51.796875 
Q 16.75 56 26.8125 56 
Q 31.78125 56 36.171875 55.265625 
Q 40.578125 54.546875 44.28125 53.078125 
z
" id="DejaVuSans-73"/>
     <path d="M 9.8125 72.90625 
L 24.515625 72.90625 
L 43.109375 23.296875 
L 61.8125 72.90625 
L 76.515625 72.90625 
L 76.515625 0 
L 66.890625 0 
L 66.890625 64.015625 
L 48.09375 14.015625 
L 38.1875 14.015625 
L 19.390625 64.015625 
L 19.390625 0 
L 9.8125 0 
z
" id="DejaVuSans-4d"/>
     <path d="M 64.40625 67.28125 
L 64.40625 56.890625 
Q 59.421875 61.53125 53.78125 63.8125 
Q 48.140625 66.109375 41.796875 66.109375 
Q 29.296875 66.109375 22.65625 58.46875 
Q 16.015625 50.828125 16.015625 36.375 
Q 16.015625 21.96875 22.65625 14.328125 
Q 29.296875 6.6875 41.796875 6.6875 
Q 48.140625 6.6875 53.78125 8.984375 
Q 59.421875 11.28125 64.40625 15.921875 
L 64.40625 5.609375 
Q 59.234375 2.09375 53.4375 0.328125 
Q 47.65625 -1.421875 41.21875 -1.421875 
Q 24.65625 -1.421875 15.125 8.703125 
Q 5.609375 18.84375 5.609375 36.375 
Q 5.609375 53.953125 15.125 64.078125 
Q 24.65625 74.21875 41.21875 74.21875 
Q 47.75 74.21875 53.53125 72.484375 
Q 59.328125 70.75 64.40625 67.28125 
z
" id="DejaVuSans-43"/>
     <path d="M 8.6875 72.90625 
L 18.609375 72.90625 
L 18.609375 28.609375 
Q 18.609375 16.890625 22.84375 11.734375 
Q 27.09375 6.59375 36.625 6.59375 
Q 46.09375 6.59375 50.34375 11.734375 
Q 54.59375 16.890625 54.59375 28.609375 
L 54.59375 72.90625 
L 64.5 72.90625 
L 64.5 27.390625 
Q 64.5 13.140625 57.4375 5.859375 
Q 50.390625 -1.421875 36.625 -1.421875 
Q 22.796875 -1.421875 15.734375 5.859375 
Q 8.6875 13.140625 8.6875 27.390625 
z
" id="DejaVuSans-55"/>
     <path d="M 48.78125 52.59375 
L 48.78125 44.1875 
Q 44.96875 46.296875 41.140625 47.34375 
Q 37.3125 48.390625 33.40625 48.390625 
Q 24.65625 48.390625 19.8125 42.84375 
Q 14.984375 37.3125 14.984375 27.296875 
Q 14.984375 17.28125 19.8125 11.734375 
Q 24.65625 6.203125 33.40625 6.203125 
Q 37.3125 6.203125 41.140625 7.25 
Q 44.96875 8.296875 48.78125 10.40625 
L 48.78125 2.09375 
Q 45.015625 0.34375 40.984375 -0.53125 
Q 36.96875 -1.421875 32.421875 -1.421875 
Q 20.0625 -1.421875 12.78125 6.34375 
Q 5.515625 14.109375 5.515625 27.296875 
Q 5.515625 40.671875 12.859375 48.328125 
Q 20.21875 56 33.015625 56 
Q 37.15625 56 41.109375 55.140625 
Q 45.0625 54.296875 48.78125 52.59375 
z
" id="DejaVuSans-63"/>
     <path d="M 56.203125 29.59375 
L 56.203125 25.203125 
L 14.890625 25.203125 
Q 15.484375 15.921875 20.484375 11.0625 
Q 25.484375 6.203125 34.421875 6.203125 
Q 39.59375 6.203125 44.453125 7.46875 
Q 49.3125 8.734375 54.109375 11.28125 
L 54.109375 2.78125 
Q 49.265625 0.734375 44.1875 -0.34375 
Q 39.109375 -1.421875 33.890625 -1.421875 
Q 20.796875 -1.421875 13.15625 6.1875 
Q 5.515625 13.8125 5.515625 26.8125 
Q 5.515625 40.234375 12.765625 48.109375 
Q 20.015625 56 32.328125 56 
Q 43.359375 56 49.78125 48.890625 
Q 56.203125 41.796875 56.203125 29.59375 
z
M 47.21875 32.234375 
Q 47.125 39.59375 43.09375 43.984375 
Q 39.0625 48.390625 32.421875 48.390625 
Q 24.90625 48.390625 20.390625 44.140625 
Q 15.875 39.890625 15.1875 32.171875 
z
" id="DejaVuSans-65"/>
     <path d="M 32.171875 -5.078125 
Q 28.375 -14.84375 24.75 -17.8125 
Q 21.140625 -20.796875 15.09375 -20.796875 
L 7.90625 -20.796875 
L 7.90625 -13.28125 
L 13.1875 -13.28125 
Q 16.890625 -13.28125 18.9375 -11.515625 
Q 21 -9.765625 23.484375 -3.21875 
L 25.09375 0.875 
L 2.984375 54.6875 
L 12.5 54.6875 
L 29.59375 11.921875 
L 46.6875 54.6875 
L 56.203125 54.6875 
z
" id="DejaVuSans-79"/>
    </defs>
    <g transform="translate(110.584688 35.472)scale(0.12 -0.12)">
     <use xlink:href="#DejaVuSans-50"/>
     <use x="60.302734" xlink:href="#DejaVuSans-6c"/>
     <use x="88.085938" xlink:href="#DejaVuSans-6f"/>
     <use x="149.267578" xlink:href="#DejaVuSans-74"/>
     <use x="188.476562" xlink:href="#DejaVuSans-20"/>
     <use x="220.263672" xlink:href="#DejaVuSans-6f"/>
     <use x="281.445312" xlink:href="#DejaVuSans-66"/>
     <use x="316.650391" xlink:href="#DejaVuSans-20"/>
     <use x="348.4375" xlink:href="#DejaVuSans-54"/>
     <use x="409.302734" xlink:href="#DejaVuSans-72"/>
     <use x="450.416016" xlink:href="#DejaVuSans-61"/>
     <use x="511.695312" xlink:href="#DejaVuSans-69"/>
     <use x="539.478516" xlink:href="#DejaVuSans-6e"/>
     <use x="602.857422" xlink:href="#DejaVuSans-20"/>
     <use x="634.644531" xlink:href="#DejaVuSans-44"/>
     <use x="711.646484" xlink:href="#DejaVuSans-61"/>
     <use x="772.925781" xlink:href="#DejaVuSans-74"/>
     <use x="812.134766" xlink:href="#DejaVuSans-61"/>
     <use x="873.414062" xlink:href="#DejaVuSans-9"/>
     <use x="933.423828" xlink:href="#DejaVuSans-76"/>
     <use x="992.603516" xlink:href="#DejaVuSans-73"/>
     <use x="1044.703125" xlink:href="#DejaVuSans-20"/>
     <use x="1076.490234" xlink:href="#DejaVuSans-4d"/>
     <use x="1162.769531" xlink:href="#DejaVuSans-43"/>
     <use x="1232.59375" xlink:href="#DejaVuSans-4d"/>
     <use x="1318.873047" xlink:href="#DejaVuSans-43"/>
     <use x="1388.697266" xlink:href="#DejaVuSans-9"/>
     <use x="1448.707031" xlink:href="#DejaVuSans-55"/>
     <use x="1521.900391" xlink:href="#DejaVuSans-6e"/>
     <use x="1585.279297" xlink:href="#DejaVuSans-63"/>
     <use x="1640.259766" xlink:href="#DejaVuSans-65"/>
     <use x="1701.783203" xlink:href="#DejaVuSans-72"/>
     <use x="1742.896484" xlink:href="#DejaVuSans-74"/>
     <use x="1782.105469" xlink:href="#DejaVuSans-61"/>
     <use x="1843.384766" xlink:href="#DejaVuSans-69"/>
     <use x="1871.167969" xlink:href="#DejaVuSans-6e"/>
     <use x="1934.546875" xlink:href="#DejaVuSans-74"/>
     <use x="1973.755859" xlink:href="#DejaVuSans-79"/>
     <use x="2032.935547" xlink:href="#DejaVuSans-9"/>
    </g>
   </g>
   <g id="legend_1">
    <g id="patch_7">
     <path d="M 275.02 108.1845 
L 407.72 108.1845 
Q 409.72 108.1845 409.72 106.1845 
L 409.72 48.472 
Q 409.72 46.472 407.72 46.472 
L 275.02 46.472 
Q 273.02 46.472 273.02 48.472 
L 273.02 106.1845 
Q 273.02 108.1845 275.02 108.1845 
z
" style="fill:#ffffff;opacity:0.8;stroke:#cccccc;stroke-linejoin:miter;"/>
    </g>
    <g id="line2d_17">
     <path d="M 277.02 54.570438 
L 297.02 54.570438 
" style="fill:none;stroke:#66c2a5;stroke-linecap:square;stroke-width:1.5;"/>
    </g>
    <g id="line2d_18"/>
    <g id="text_14">
     <!-- actual -->
     <defs>
      <path d="M 8.5 21.578125 
L 8.5 54.6875 
L 17.484375 54.6875 
L 17.484375 21.921875 
Q 17.484375 14.15625 20.5 10.265625 
Q 23.53125 6.390625 29.59375 6.390625 
Q 36.859375 6.390625 41.078125 11.03125 
Q 45.3125 15.671875 45.3125 23.6875 
L 45.3125 54.6875 
L 54.296875 54.6875 
L 54.296875 0 
L 45.3125 0 
L 45.3125 8.40625 
Q 42.046875 3.421875 37.71875 1 
Q 33.40625 -1.421875 27.6875 -1.421875 
Q 18.265625 -1.421875 13.375 4.4375 
Q 8.5 10.296875 8.5 21.578125 
z
M 31.109375 56 
z
" id="DejaVuSans-75"/>
     </defs>
     <g transform="translate(305.02 58.070438)scale(0.1 -0.1)">
      <use xlink:href="#DejaVuSans-61"/>
      <use x="61.279297" xlink:href="#DejaVuSans-63"/>
      <use x="116.259766" xlink:href="#DejaVuSans-74"/>
      <use x="155.46875" xlink:href="#DejaVuSans-75"/>
      <use x="218.847656" xlink:href="#DejaVuSans-61"/>
      <use x="280.126953" xlink:href="#DejaVuSans-6c"/>
     </g>
    </g>
    <g id="line2d_19">
     <path d="M 277.02 69.248563 
L 297.02 69.248563 
" style="fill:none;stroke:#fc8d62;stroke-linecap:square;stroke-width:1.5;"/>
    </g>
    <g id="line2d_20"/>
    <g id="text_15">
     <!-- pred. (mean) -->
     <defs>
      <path d="M 18.109375 8.203125 
L 18.109375 -20.796875 
L 9.078125 -20.796875 
L 9.078125 54.6875 
L 18.109375 54.6875 
L 18.109375 46.390625 
Q 20.953125 51.265625 25.265625 53.625 
Q 29.59375 56 35.59375 56 
Q 45.5625 56 51.78125 48.09375 
Q 58.015625 40.1875 58.015625 27.296875 
Q 58.015625 14.40625 51.78125 6.484375 
Q 45.5625 -1.421875 35.59375 -1.421875 
Q 29.59375 -1.421875 25.265625 0.953125 
Q 20.953125 3.328125 18.109375 8.203125 
z
M 48.6875 27.296875 
Q 48.6875 37.203125 44.609375 42.84375 
Q 40.53125 48.484375 33.40625 48.484375 
Q 26.265625 48.484375 22.1875 42.84375 
Q 18.109375 37.203125 18.109375 27.296875 
Q 18.109375 17.390625 22.1875 11.75 
Q 26.265625 6.109375 33.40625 6.109375 
Q 40.53125 6.109375 44.609375 11.75 
Q 48.6875 17.390625 48.6875 27.296875 
z
" id="DejaVuSans-70"/>
      <path d="M 45.40625 46.390625 
L 45.40625 75.984375 
L 54.390625 75.984375 
L 54.390625 0 
L 45.40625 0 
L 45.40625 8.203125 
Q 42.578125 3.328125 38.25 0.953125 
Q 33.9375 -1.421875 27.875 -1.421875 
Q 17.96875 -1.421875 11.734375 6.484375 
Q 5.515625 14.40625 5.515625 27.296875 
Q 5.515625 40.1875 11.734375 48.09375 
Q 17.96875 56 27.875 56 
Q 33.9375 56 38.25 53.625 
Q 42.578125 51.265625 45.40625 46.390625 
z
M 14.796875 27.296875 
Q 14.796875 17.390625 18.875 11.75 
Q 22.953125 6.109375 30.078125 6.109375 
Q 37.203125 6.109375 41.296875 11.75 
Q 45.40625 17.390625 45.40625 27.296875 
Q 45.40625 37.203125 41.296875 42.84375 
Q 37.203125 48.484375 30.078125 48.484375 
Q 22.953125 48.484375 18.875 42.84375 
Q 14.796875 37.203125 14.796875 27.296875 
z
" id="DejaVuSans-64"/>
      <path d="M 31 75.875 
Q 24.46875 64.65625 21.28125 53.65625 
Q 18.109375 42.671875 18.109375 31.390625 
Q 18.109375 20.125 21.3125 9.0625 
Q 24.515625 -2 31 -13.1875 
L 23.1875 -13.1875 
Q 15.875 -1.703125 12.234375 9.375 
Q 8.59375 20.453125 8.59375 31.390625 
Q 8.59375 42.28125 12.203125 53.3125 
Q 15.828125 64.359375 23.1875 75.875 
z
" id="DejaVuSans-28"/>
      <path d="M 52 44.1875 
Q 55.375 50.25 60.0625 53.125 
Q 64.75 56 71.09375 56 
Q 79.640625 56 84.28125 50.015625 
Q 88.921875 44.046875 88.921875 33.015625 
L 88.921875 0 
L 79.890625 0 
L 79.890625 32.71875 
Q 79.890625 40.578125 77.09375 44.375 
Q 74.3125 48.1875 68.609375 48.1875 
Q 61.625 48.1875 57.5625 43.546875 
Q 53.515625 38.921875 53.515625 30.90625 
L 53.515625 0 
L 44.484375 0 
L 44.484375 32.71875 
Q 44.484375 40.625 41.703125 44.40625 
Q 38.921875 48.1875 33.109375 48.1875 
Q 26.21875 48.1875 22.15625 43.53125 
Q 18.109375 38.875 18.109375 30.90625 
L 18.109375 0 
L 9.078125 0 
L 9.078125 54.6875 
L 18.109375 54.6875 
L 18.109375 46.1875 
Q 21.1875 51.21875 25.484375 53.609375 
Q 29.78125 56 35.6875 56 
Q 41.65625 56 45.828125 52.96875 
Q 50 49.953125 52 44.1875 
z
" id="DejaVuSans-6d"/>
      <path d="M 8.015625 75.875 
L 15.828125 75.875 
Q 23.140625 64.359375 26.78125 53.3125 
Q 30.421875 42.28125 30.421875 31.390625 
Q 30.421875 20.453125 26.78125 9.375 
Q 23.140625 -1.703125 15.828125 -13.1875 
L 8.015625 -13.1875 
Q 14.5 -2 17.703125 9.0625 
Q 20.90625 20.125 20.90625 31.390625 
Q 20.90625 42.671875 17.703125 53.65625 
Q 14.5 64.65625 8.015625 75.875 
z
" id="DejaVuSans-29"/>
     </defs>
     <g transform="translate(305.02 72.748563)scale(0.1 -0.1)">
      <use xlink:href="#DejaVuSans-70"/>
      <use x="63.476562" xlink:href="#DejaVuSans-72"/>
      <use x="104.558594" xlink:href="#DejaVuSans-65"/>
      <use x="166.082031" xlink:href="#DejaVuSans-64"/>
      <use x="229.558594" xlink:href="#DejaVuSans-2e"/>
      <use x="261.345703" xlink:href="#DejaVuSans-20"/>
      <use x="293.132812" xlink:href="#DejaVuSans-28"/>
      <use x="332.146484" xlink:href="#DejaVuSans-6d"/>
      <use x="429.558594" xlink:href="#DejaVuSans-65"/>
      <use x="491.082031" xlink:href="#DejaVuSans-61"/>
      <use x="552.361328" xlink:href="#DejaVuSans-6e"/>
      <use x="615.740234" xlink:href="#DejaVuSans-29"/>
     </g>
    </g>
    <g id="line2d_21">
     <path d="M 277.02 83.926688 
L 297.02 83.926688 
" style="fill:none;stroke:#8da0cb;stroke-linecap:square;stroke-width:1.5;"/>
    </g>
    <g id="line2d_22"/>
    <g id="text_16">
     <!-- pred.(5th percen.) -->
     <defs>
      <path d="M 10.796875 72.90625 
L 49.515625 72.90625 
L 49.515625 64.59375 
L 19.828125 64.59375 
L 19.828125 46.734375 
Q 21.96875 47.46875 24.109375 47.828125 
Q 26.265625 48.1875 28.421875 48.1875 
Q 40.625 48.1875 47.75 41.5 
Q 54.890625 34.8125 54.890625 23.390625 
Q 54.890625 11.625 47.5625 5.09375 
Q 40.234375 -1.421875 26.90625 -1.421875 
Q 22.3125 -1.421875 17.546875 -0.640625 
Q 12.796875 0.140625 7.71875 1.703125 
L 7.71875 11.625 
Q 12.109375 9.234375 16.796875 8.0625 
Q 21.484375 6.890625 26.703125 6.890625 
Q 35.15625 6.890625 40.078125 11.328125 
Q 45.015625 15.765625 45.015625 23.390625 
Q 45.015625 31 40.078125 35.4375 
Q 35.15625 39.890625 26.703125 39.890625 
Q 22.75 39.890625 18.8125 39.015625 
Q 14.890625 38.140625 10.796875 36.28125 
z
" id="DejaVuSans-35"/>
      <path d="M 54.890625 33.015625 
L 54.890625 0 
L 45.90625 0 
L 45.90625 32.71875 
Q 45.90625 40.484375 42.875 44.328125 
Q 39.84375 48.1875 33.796875 48.1875 
Q 26.515625 48.1875 22.3125 43.546875 
Q 18.109375 38.921875 18.109375 30.90625 
L 18.109375 0 
L 9.078125 0 
L 9.078125 75.984375 
L 18.109375 75.984375 
L 18.109375 46.1875 
Q 21.34375 51.125 25.703125 53.5625 
Q 30.078125 56 35.796875 56 
Q 45.21875 56 50.046875 50.171875 
Q 54.890625 44.34375 54.890625 33.015625 
z
" id="DejaVuSans-68"/>
     </defs>
     <g transform="translate(305.02 87.426688)scale(0.1 -0.1)">
      <use xlink:href="#DejaVuSans-70"/>
      <use x="63.476562" xlink:href="#DejaVuSans-72"/>
      <use x="104.558594" xlink:href="#DejaVuSans-65"/>
      <use x="166.082031" xlink:href="#DejaVuSans-64"/>
      <use x="229.558594" xlink:href="#DejaVuSans-2e"/>
      <use x="261.345703" xlink:href="#DejaVuSans-28"/>
      <use x="300.359375" xlink:href="#DejaVuSans-35"/>
      <use x="363.982422" xlink:href="#DejaVuSans-74"/>
      <use x="403.191406" xlink:href="#DejaVuSans-68"/>
      <use x="466.570312" xlink:href="#DejaVuSans-20"/>
      <use x="498.357422" xlink:href="#DejaVuSans-70"/>
      <use x="561.833984" xlink:href="#DejaVuSans-65"/>
      <use x="623.357422" xlink:href="#DejaVuSans-72"/>
      <use x="664.439453" xlink:href="#DejaVuSans-63"/>
      <use x="719.419922" xlink:href="#DejaVuSans-65"/>
      <use x="780.943359" xlink:href="#DejaVuSans-6e"/>
      <use x="844.322266" xlink:href="#DejaVuSans-2e"/>
      <use x="876.109375" xlink:href="#DejaVuSans-29"/>
     </g>
    </g>
    <g id="line2d_23">
     <path d="M 277.02 98.604813 
L 297.02 98.604813 
" style="fill:none;stroke:#e78ac3;stroke-linecap:square;stroke-width:1.5;"/>
    </g>
    <g id="line2d_24"/>
    <g id="text_17">
     <!-- pred.(95th	percen.) -->
     <defs>
      <path d="M 10.984375 1.515625 
L 10.984375 10.5 
Q 14.703125 8.734375 18.5 7.8125 
Q 22.3125 6.890625 25.984375 6.890625 
Q 35.75 6.890625 40.890625 13.453125 
Q 46.046875 20.015625 46.78125 33.40625 
Q 43.953125 29.203125 39.59375 26.953125 
Q 35.25 24.703125 29.984375 24.703125 
Q 19.046875 24.703125 12.671875 31.3125 
Q 6.296875 37.9375 6.296875 49.421875 
Q 6.296875 60.640625 12.9375 67.421875 
Q 19.578125 74.21875 30.609375 74.21875 
Q 43.265625 74.21875 49.921875 64.515625 
Q 56.59375 54.828125 56.59375 36.375 
Q 56.59375 19.140625 48.40625 8.859375 
Q 40.234375 -1.421875 26.421875 -1.421875 
Q 22.703125 -1.421875 18.890625 -0.6875 
Q 15.09375 0.046875 10.984375 1.515625 
z
M 30.609375 32.421875 
Q 37.25 32.421875 41.125 36.953125 
Q 45.015625 41.5 45.015625 49.421875 
Q 45.015625 57.28125 41.125 61.84375 
Q 37.25 66.40625 30.609375 66.40625 
Q 23.96875 66.40625 20.09375 61.84375 
Q 16.21875 57.28125 16.21875 49.421875 
Q 16.21875 41.5 20.09375 36.953125 
Q 23.96875 32.421875 30.609375 32.421875 
z
" id="DejaVuSans-39"/>
     </defs>
     <g transform="translate(305.02 102.104813)scale(0.1 -0.1)">
      <use xlink:href="#DejaVuSans-70"/>
      <use x="63.476562" xlink:href="#DejaVuSans-72"/>
      <use x="104.558594" xlink:href="#DejaVuSans-65"/>
      <use x="166.082031" xlink:href="#DejaVuSans-64"/>
      <use x="229.558594" xlink:href="#DejaVuSans-2e"/>
      <use x="261.345703" xlink:href="#DejaVuSans-28"/>
      <use x="300.359375" xlink:href="#DejaVuSans-39"/>
      <use x="363.982422" xlink:href="#DejaVuSans-35"/>
      <use x="427.605469" xlink:href="#DejaVuSans-74"/>
      <use x="466.814453" xlink:href="#DejaVuSans-68"/>
      <use x="530.193359" xlink:href="#DejaVuSans-9"/>
      <use x="590.203125" xlink:href="#DejaVuSans-70"/>
      <use x="653.679688" xlink:href="#DejaVuSans-65"/>
      <use x="715.203125" xlink:href="#DejaVuSans-72"/>
      <use x="756.285156" xlink:href="#DejaVuSans-63"/>
      <use x="811.265625" xlink:href="#DejaVuSans-65"/>
      <use x="872.789062" xlink:href="#DejaVuSans-6e"/>
      <use x="936.167969" xlink:href="#DejaVuSans-2e"/>
      <use x="967.955078" xlink:href="#DejaVuSans-29"/>
     </g>
    </g>
   </g>
  </g>
 </g>
 <defs>
  <clipPath id="p6498eb6064">
   <rect height="266.112" width="357.12" x="57.6" y="41.472"/>
  </clipPath>
 </defs>
</svg>
