<?xml version="1.0" encoding="utf-8" standalone="no"?>
<!DOCTYPE svg PUBLIC "-//W3C//DTD SVG 1.1//EN"
  "http://www.w3.org/Graphics/SVG/1.1/DTD/svg11.dtd">
<!-- Created with matplotlib (http://matplotlib.org/) -->
<svg height="345.6pt" version="1.1" viewBox="0 0 460.8 345.6" width="460.8pt" xmlns="http://www.w3.org/2000/svg" xmlns:xlink="http://www.w3.org/1999/xlink">
 <defs>
  <style type="text/css">
*{stroke-linecap:butt;stroke-linejoin:round;}
  </style>
 </defs>
 <g id="figure_1">
  <g id="patch_1">
   <path d="M 0 345.6 
L 460.8 345.6 
L 460.8 0 
L 0 0 
z
" style="fill:#ffffff;"/>
  </g>
  <g id="axes_1">
   <g id="patch_2">
    <path d="M 57.6 307.584 
L 414.72 307.584 
L 414.72 41.472 
L 57.6 41.472 
z
" style="fill:#ffffff;"/>
   </g>
   <g id="PolyCollection_1">
    <path clip-path="url(#pee273fca1d)" d="M 73.832727 160.227538 
L 73.832727 256.997216 
L 74.92584 256.997216 
L 76.018953 256.997216 
L 77.112066 256.997216 
L 78.205179 256.997216 
L 79.298292 254.515942 
L 80.391405 254.515942 
L 81.484518 252.034668 
L 82.577631 249.181203 
L 83.670744 242.109573 
L 84.763857 234.665752 
L 85.85697 232.184478 
L 86.950083 229.703204 
L 88.043196 229.703204 
L 89.136309 227.22193 
L 90.229421 224.740657 
L 91.322534 224.740657 
L 92.415647 224.740657 
L 93.50876 222.259383 
L 94.601873 222.259383 
L 95.694986 222.259383 
L 96.788099 222.259383 
L 97.881212 222.259383 
L 98.974325 222.259383 
L 100.067438 224.740657 
L 101.160551 224.740657 
L 102.253664 224.740657 
L 103.346777 224.740657 
L 104.43989 227.22193 
L 105.533003 227.22193 
L 106.626116 227.22193 
L 107.719229 229.703204 
L 108.812342 229.703204 
L 109.905455 229.703204 
L 110.998567 227.22193 
L 112.09168 229.703204 
L 113.184793 229.703204 
L 114.277906 229.703204 
L 115.371019 229.703204 
L 116.464132 229.703204 
L 117.557245 232.184478 
L 118.650358 232.184478 
L 119.743471 234.665752 
L 120.836584 234.665752 
L 121.929697 234.665752 
L 123.02281 234.665752 
L 124.115923 239.628299 
L 125.209036 242.109573 
L 126.302149 242.109573 
L 127.395262 242.109573 
L 128.488375 247.072121 
L 129.581488 249.553394 
L 130.674601 249.553394 
L 131.767713 249.553394 
L 132.860826 249.553394 
L 133.953939 252.034668 
L 135.047052 252.034668 
L 136.140165 254.515942 
L 137.233278 254.515942 
L 138.326391 256.997216 
L 139.419504 256.997216 
L 140.512617 254.515942 
L 141.60573 256.997216 
L 142.698843 254.515942 
L 143.791956 254.515942 
L 144.885069 254.515942 
L 145.978182 252.034668 
L 147.071295 249.553394 
L 148.164408 247.072121 
L 149.257521 244.590847 
L 150.350634 242.109573 
L 151.443747 239.628299 
L 152.53686 237.147025 
L 153.629972 237.147025 
L 154.723085 234.665752 
L 155.816198 234.665752 
L 156.909311 232.184478 
L 158.002424 232.184478 
L 159.095537 232.184478 
L 160.18865 232.184478 
L 161.281763 232.184478 
L 162.374876 229.703204 
L 163.467989 227.22193 
L 164.561102 227.22193 
L 165.654215 224.740657 
L 166.747328 224.740657 
L 167.840441 224.740657 
L 168.933554 224.740657 
L 170.026667 224.740657 
L 171.11978 224.740657 
L 172.212893 224.740657 
L 173.306006 224.740657 
L 174.399118 224.740657 
L 175.492231 227.22193 
L 176.585344 227.22193 
L 177.678457 227.22193 
L 178.77157 229.703204 
L 179.864683 229.703204 
L 180.957796 229.703204 
L 182.050909 229.703204 
L 183.144022 229.703204 
L 184.237135 232.184478 
L 185.330248 232.184478 
L 186.423361 232.184478 
L 187.516474 232.184478 
L 188.609587 232.184478 
L 189.7027 232.184478 
L 190.795813 232.184478 
L 191.888926 232.184478 
L 192.982039 232.184478 
L 194.075152 232.184478 
L 195.168264 232.184478 
L 196.261377 234.665752 
L 197.35449 234.665752 
L 198.447603 234.665752 
L 199.540716 234.665752 
L 200.633829 234.665752 
L 201.726942 234.665752 
L 202.820055 237.147025 
L 203.913168 239.628299 
L 205.006281 242.109573 
L 206.099394 244.590847 
L 207.192507 244.590847 
L 208.28562 249.553394 
L 209.378733 249.553394 
L 210.471846 252.034668 
L 211.564959 252.034668 
L 212.658072 252.034668 
L 213.751185 254.515942 
L 214.844298 256.997216 
L 215.93741 256.997216 
L 217.030523 256.997216 
L 218.123636 259.478489 
L 219.216749 259.478489 
L 220.309862 259.478489 
L 221.402975 259.478489 
L 222.496088 259.478489 
L 223.589201 259.478489 
L 224.682314 256.997216 
L 225.775427 256.997216 
L 226.86854 256.997216 
L 227.961653 254.515942 
L 229.054766 252.034668 
L 230.147879 249.553394 
L 231.240992 247.072121 
L 232.334105 244.590847 
L 233.427218 242.109573 
L 234.520331 237.147025 
L 235.613444 234.665752 
L 236.706556 232.184478 
L 237.799669 232.184478 
L 238.892782 229.703204 
L 239.985895 229.703204 
L 241.079008 229.703204 
L 242.172121 227.22193 
L 243.265234 227.22193 
L 244.358347 227.22193 
L 245.45146 227.22193 
L 246.544573 227.22193 
L 247.637686 227.22193 
L 248.730799 227.22193 
L 249.823912 227.22193 
L 250.917025 227.22193 
L 252.010138 227.22193 
L 253.103251 229.703204 
L 254.196364 229.703204 
L 255.289477 229.703204 
L 256.38259 229.703204 
L 257.475702 229.703204 
L 258.568815 232.184478 
L 259.661928 232.184478 
L 260.755041 232.184478 
L 261.848154 232.184478 
L 262.941267 232.184478 
L 264.03438 232.184478 
L 265.127493 232.184478 
L 266.220606 234.665752 
L 267.313719 234.665752 
L 268.406832 234.665752 
L 269.499945 237.147025 
L 270.593058 237.147025 
L 271.686171 237.147025 
L 272.779284 237.147025 
L 273.872397 234.665752 
L 274.96551 234.665752 
L 276.058623 234.665752 
L 277.151736 234.665752 
L 278.244848 237.147025 
L 279.337961 239.628299 
L 280.431074 242.109573 
L 281.524187 242.109573 
L 282.6173 244.590847 
L 283.710413 247.072121 
L 284.803526 247.072121 
L 285.896639 249.553394 
L 286.989752 252.034668 
L 288.082865 252.034668 
L 289.175978 254.515942 
L 290.269091 256.997216 
L 291.362204 256.997216 
L 292.455317 256.997216 
L 293.54843 259.478489 
L 294.641543 259.478489 
L 295.734656 256.997216 
L 296.827769 256.997216 
L 297.920882 254.515942 
L 299.013994 252.034668 
L 300.107107 249.553394 
L 301.20022 244.590847 
L 302.293333 242.109573 
L 303.386446 237.147025 
L 304.479559 234.665752 
L 305.572672 232.184478 
L 306.665785 232.184478 
L 307.758898 232.184478 
L 308.852011 229.703204 
L 309.945124 229.703204 
L 311.038237 227.22193 
L 312.13135 224.740657 
L 313.224463 224.740657 
L 314.317576 222.259383 
L 315.410689 222.259383 
L 316.503802 222.259383 
L 317.596915 222.259383 
L 318.690028 224.740657 
L 319.78314 224.740657 
L 320.876253 224.740657 
L 321.969366 224.740657 
L 323.062479 227.22193 
L 324.155592 227.22193 
L 325.248705 227.22193 
L 326.341818 227.22193 
L 327.434931 227.22193 
L 328.528044 227.22193 
L 329.621157 227.22193 
L 330.71427 227.22193 
L 331.807383 229.703204 
L 332.900496 229.703204 
L 333.993609 232.184478 
L 335.086722 232.184478 
L 336.179835 232.184478 
L 337.272948 234.665752 
L 338.366061 234.665752 
L 339.459174 234.665752 
L 340.552287 234.665752 
L 341.645399 234.665752 
L 342.738512 239.628299 
L 343.831625 242.109573 
L 344.924738 244.590847 
L 346.017851 249.553394 
L 347.110964 252.034668 
L 348.204077 252.034668 
L 349.29719 254.515942 
L 350.390303 254.515942 
L 351.483416 256.997216 
L 352.576529 256.997216 
L 353.669642 256.997216 
L 354.762755 256.997216 
L 355.855868 256.997216 
L 356.948981 256.997216 
L 358.042094 254.515942 
L 359.135207 254.515942 
L 360.22832 254.515942 
L 361.321433 256.997216 
L 362.414545 256.997216 
L 363.507658 256.997216 
L 364.600771 256.997216 
L 365.693884 259.478489 
L 366.786997 259.478489 
L 367.88011 259.478489 
L 368.973223 259.478489 
L 370.066336 259.478489 
L 371.159449 259.478489 
L 372.252562 259.478489 
L 373.345675 259.478489 
L 374.438788 256.997216 
L 375.531901 256.997216 
L 376.625014 254.515942 
L 377.718127 254.515942 
L 378.81124 249.553394 
L 379.904353 247.072121 
L 380.997466 244.590847 
L 382.090579 242.109573 
L 383.183691 239.628299 
L 384.276804 234.665752 
L 385.369917 234.665752 
L 386.46303 234.665752 
L 387.556143 234.665752 
L 388.649256 232.184478 
L 389.742369 232.184478 
L 390.835482 232.184478 
L 391.928595 232.184478 
L 393.021708 232.184478 
L 394.114821 232.184478 
L 395.207934 232.184478 
L 396.301047 234.665752 
L 397.39416 232.184478 
L 398.487273 232.184478 
L 398.487273 150.302443 
L 398.487273 150.302443 
L 397.39416 150.302443 
L 396.301047 150.302443 
L 395.207934 150.302443 
L 394.114821 150.302443 
L 393.021708 150.302443 
L 391.928595 150.302443 
L 390.835482 150.302443 
L 389.742369 147.821169 
L 388.649256 150.302443 
L 387.556143 150.302443 
L 386.46303 152.783717 
L 385.369917 152.783717 
L 384.276804 152.783717 
L 383.183691 155.264991 
L 382.090579 155.264991 
L 380.997466 155.264991 
L 379.904353 157.746265 
L 378.81124 157.746265 
L 377.718127 157.746265 
L 376.625014 160.227538 
L 375.531901 160.227538 
L 374.438788 160.227538 
L 373.345675 160.227538 
L 372.252562 160.227538 
L 371.159449 162.708812 
L 370.066336 162.708812 
L 368.973223 160.599729 
L 367.88011 160.227538 
L 366.786997 160.227538 
L 365.693884 160.227538 
L 364.600771 160.227538 
L 363.507658 160.227538 
L 362.414545 160.227538 
L 361.321433 160.227538 
L 360.22832 160.227538 
L 359.135207 160.227538 
L 358.042094 160.227538 
L 356.948981 160.227538 
L 355.855868 160.227538 
L 354.762755 160.227538 
L 353.669642 160.227538 
L 352.576529 160.227538 
L 351.483416 160.227538 
L 350.390303 160.227538 
L 349.29719 160.227538 
L 348.204077 160.227538 
L 347.110964 157.746265 
L 346.017851 157.746265 
L 344.924738 157.746265 
L 343.831625 155.264991 
L 342.738512 155.264991 
L 341.645399 152.783717 
L 340.552287 152.783717 
L 339.459174 152.783717 
L 338.366061 150.674634 
L 337.272948 150.302443 
L 336.179835 150.302443 
L 335.086722 147.821169 
L 333.993609 145.339896 
L 332.900496 142.858622 
L 331.807383 135.414801 
L 330.71427 127.970979 
L 329.621157 127.970979 
L 328.528044 127.970979 
L 327.434931 127.970979 
L 326.341818 127.970979 
L 325.248705 127.970979 
L 324.155592 127.970979 
L 323.062479 123.008432 
L 321.969366 123.008432 
L 320.876253 120.527158 
L 319.78314 115.936801 
L 318.690028 115.56461 
L 317.596915 113.083337 
L 316.503802 113.083337 
L 315.410689 113.083337 
L 314.317576 115.56461 
L 313.224463 120.527158 
L 312.13135 125.489705 
L 311.038237 130.452253 
L 309.945124 142.858622 
L 308.852011 145.339896 
L 307.758898 147.821169 
L 306.665785 147.821169 
L 305.572672 150.302443 
L 304.479559 152.783717 
L 303.386446 152.783717 
L 302.293333 155.264991 
L 301.20022 155.264991 
L 300.107107 157.746265 
L 299.013994 157.746265 
L 297.920882 160.227538 
L 296.827769 160.227538 
L 295.734656 160.227538 
L 294.641543 160.227538 
L 293.54843 160.227538 
L 292.455317 160.227538 
L 291.362204 160.227538 
L 290.269091 160.227538 
L 289.175978 160.227538 
L 288.082865 158.118456 
L 286.989752 157.746265 
L 285.896639 157.746265 
L 284.803526 157.746265 
L 283.710413 157.746265 
L 282.6173 157.746265 
L 281.524187 155.264991 
L 280.431074 155.264991 
L 279.337961 155.264991 
L 278.244848 152.783717 
L 277.151736 152.783717 
L 276.058623 152.783717 
L 274.96551 152.783717 
L 273.872397 152.783717 
L 272.779284 152.783717 
L 271.686171 152.783717 
L 270.593058 152.783717 
L 269.499945 152.783717 
L 268.406832 152.783717 
L 267.313719 152.783717 
L 266.220606 150.302443 
L 265.127493 150.302443 
L 264.03438 150.302443 
L 262.941267 150.302443 
L 261.848154 147.821169 
L 260.755041 147.821169 
L 259.661928 147.821169 
L 258.568815 147.821169 
L 257.475702 145.339896 
L 256.38259 145.339896 
L 255.289477 145.339896 
L 254.196364 142.858622 
L 253.103251 137.896074 
L 252.010138 132.933527 
L 250.917025 132.933527 
L 249.823912 130.452253 
L 248.730799 130.452253 
L 247.637686 130.452253 
L 246.544573 130.452253 
L 245.45146 132.933527 
L 244.358347 132.933527 
L 243.265234 132.933527 
L 242.172121 137.896074 
L 241.079008 142.858622 
L 239.985895 145.339896 
L 238.892782 147.821169 
L 237.799669 147.821169 
L 236.706556 150.302443 
L 235.613444 152.783717 
L 234.520331 152.783717 
L 233.427218 155.264991 
L 232.334105 155.264991 
L 231.240992 157.746265 
L 230.147879 157.746265 
L 229.054766 157.746265 
L 227.961653 160.227538 
L 226.86854 160.227538 
L 225.775427 160.227538 
L 224.682314 160.227538 
L 223.589201 160.227538 
L 222.496088 160.227538 
L 221.402975 160.227538 
L 220.309862 160.227538 
L 219.216749 160.227538 
L 218.123636 160.227538 
L 217.030523 160.227538 
L 215.93741 160.227538 
L 214.844298 160.227538 
L 213.751185 160.227538 
L 212.658072 160.227538 
L 211.564959 157.746265 
L 210.471846 157.746265 
L 209.378733 157.746265 
L 208.28562 157.746265 
L 207.192507 157.746265 
L 206.099394 157.746265 
L 205.006281 155.264991 
L 203.913168 155.264991 
L 202.820055 152.783717 
L 201.726942 152.783717 
L 200.633829 152.783717 
L 199.540716 152.783717 
L 198.447603 152.783717 
L 197.35449 150.302443 
L 196.261377 150.302443 
L 195.168264 150.302443 
L 194.075152 150.302443 
L 192.982039 150.302443 
L 191.888926 150.302443 
L 190.795813 147.821169 
L 189.7027 147.821169 
L 188.609587 147.821169 
L 187.516474 147.821169 
L 186.423361 147.821169 
L 185.330248 147.821169 
L 184.237135 147.821169 
L 183.144022 145.339896 
L 182.050909 145.339896 
L 180.957796 145.339896 
L 179.864683 145.339896 
L 178.77157 137.896074 
L 177.678457 130.452253 
L 176.585344 125.489705 
L 175.492231 123.008432 
L 174.399118 120.527158 
L 173.306006 118.045884 
L 172.212893 118.045884 
L 171.11978 118.045884 
L 170.026667 118.045884 
L 168.933554 115.56461 
L 167.840441 118.045884 
L 166.747328 120.527158 
L 165.654215 123.008432 
L 164.561102 127.970979 
L 163.467989 140.377348 
L 162.374876 145.339896 
L 161.281763 147.821169 
L 160.18865 147.821169 
L 159.095537 147.821169 
L 158.002424 147.821169 
L 156.909311 150.302443 
L 155.816198 150.302443 
L 154.723085 152.783717 
L 153.629972 152.783717 
L 152.53686 152.783717 
L 151.443747 155.264991 
L 150.350634 155.264991 
L 149.257521 155.264991 
L 148.164408 157.746265 
L 147.071295 157.746265 
L 145.978182 157.746265 
L 144.885069 160.227538 
L 143.791956 160.227538 
L 142.698843 160.227538 
L 141.60573 160.227538 
L 140.512617 160.227538 
L 139.419504 160.227538 
L 138.326391 160.227538 
L 137.233278 160.227538 
L 136.140165 160.227538 
L 135.047052 157.746265 
L 133.953939 157.746265 
L 132.860826 157.746265 
L 131.767713 157.746265 
L 130.674601 157.746265 
L 129.581488 157.746265 
L 128.488375 157.746265 
L 127.395262 155.264991 
L 126.302149 155.264991 
L 125.209036 155.264991 
L 124.115923 155.264991 
L 123.02281 152.783717 
L 121.929697 152.783717 
L 120.836584 152.783717 
L 119.743471 150.302443 
L 118.650358 147.821169 
L 117.557245 147.821169 
L 116.464132 145.339896 
L 115.371019 142.858622 
L 114.277906 142.858622 
L 113.184793 142.858622 
L 112.09168 142.858622 
L 110.998567 140.377348 
L 109.905455 142.858622 
L 108.812342 145.339896 
L 107.719229 135.414801 
L 106.626116 127.970979 
L 105.533003 125.489705 
L 104.43989 123.008432 
L 103.346777 120.527158 
L 102.253664 118.045884 
L 101.160551 115.56461 
L 100.067438 115.56461 
L 98.974325 113.083337 
L 97.881212 110.602063 
L 96.788099 110.602063 
L 95.694986 113.083337 
L 94.601873 113.083337 
L 93.50876 113.083337 
L 92.415647 118.045884 
L 91.322534 125.489705 
L 90.229421 125.489705 
L 89.136309 130.452253 
L 88.043196 142.858622 
L 86.950083 145.339896 
L 85.85697 150.302443 
L 84.763857 152.783717 
L 83.670744 155.264991 
L 82.577631 157.746265 
L 81.484518 157.746265 
L 80.391405 160.227538 
L 79.298292 160.227538 
L 78.205179 160.227538 
L 77.112066 160.227538 
L 76.018953 160.227538 
L 74.92584 160.227538 
L 73.832727 160.227538 
z
" style="fill:#008000;fill-opacity:0.4;"/>
   </g>
   <g id="matplotlib.axis_1">
    <g id="xtick_1">
     <g id="line2d_1">
      <defs>
       <path d="M 0 0 
L 0 3.5 
" id="m09597f5961" style="stroke:#000000;stroke-width:0.8;"/>
      </defs>
      <g>
       <use style="stroke:#000000;stroke-width:0.8;" x="73.832727" xlink:href="#m09597f5961" y="307.584"/>
      </g>
     </g>
     <g id="text_1">
      <!-- 0.0 -->
      <defs>
       <path d="M 31.78125 66.40625 
Q 24.171875 66.40625 20.328125 58.90625 
Q 16.5 51.421875 16.5 36.375 
Q 16.5 21.390625 20.328125 13.890625 
Q 24.171875 6.390625 31.78125 6.390625 
Q 39.453125 6.390625 43.28125 13.890625 
Q 47.125 21.390625 47.125 36.375 
Q 47.125 51.421875 43.28125 58.90625 
Q 39.453125 66.40625 31.78125 66.40625 
z
M 31.78125 74.21875 
Q 44.046875 74.21875 50.515625 64.515625 
Q 56.984375 54.828125 56.984375 36.375 
Q 56.984375 17.96875 50.515625 8.265625 
Q 44.046875 -1.421875 31.78125 -1.421875 
Q 19.53125 -1.421875 13.0625 8.265625 
Q 6.59375 17.96875 6.59375 36.375 
Q 6.59375 54.828125 13.0625 64.515625 
Q 19.53125 74.21875 31.78125 74.21875 
z
" id="DejaVuSans-30"/>
       <path d="M 10.6875 12.40625 
L 21 12.40625 
L 21 0 
L 10.6875 0 
z
" id="DejaVuSans-2e"/>
      </defs>
      <g transform="translate(65.881165 322.182437)scale(0.1 -0.1)">
       <use xlink:href="#DejaVuSans-30"/>
       <use x="63.623047" xlink:href="#DejaVuSans-2e"/>
       <use x="95.410156" xlink:href="#DejaVuSans-30"/>
      </g>
     </g>
    </g>
    <g id="xtick_2">
     <g id="line2d_2">
      <g>
       <use style="stroke:#000000;stroke-width:0.8;" x="138.763636" xlink:href="#m09597f5961" y="307.584"/>
      </g>
     </g>
     <g id="text_2">
      <!-- 0.2 -->
      <defs>
       <path d="M 19.1875 8.296875 
L 53.609375 8.296875 
L 53.609375 0 
L 7.328125 0 
L 7.328125 8.296875 
Q 12.9375 14.109375 22.625 23.890625 
Q 32.328125 33.6875 34.8125 36.53125 
Q 39.546875 41.84375 41.421875 45.53125 
Q 43.3125 49.21875 43.3125 52.78125 
Q 43.3125 58.59375 39.234375 62.25 
Q 35.15625 65.921875 28.609375 65.921875 
Q 23.96875 65.921875 18.8125 64.3125 
Q 13.671875 62.703125 7.8125 59.421875 
L 7.8125 69.390625 
Q 13.765625 71.78125 18.9375 73 
Q 24.125 74.21875 28.421875 74.21875 
Q 39.75 74.21875 46.484375 68.546875 
Q 53.21875 62.890625 53.21875 53.421875 
Q 53.21875 48.921875 51.53125 44.890625 
Q 49.859375 40.875 45.40625 35.40625 
Q 44.1875 33.984375 37.640625 27.21875 
Q 31.109375 20.453125 19.1875 8.296875 
z
" id="DejaVuSans-32"/>
      </defs>
      <g transform="translate(130.812074 322.182437)scale(0.1 -0.1)">
       <use xlink:href="#DejaVuSans-30"/>
       <use x="63.623047" xlink:href="#DejaVuSans-2e"/>
       <use x="95.410156" xlink:href="#DejaVuSans-32"/>
      </g>
     </g>
    </g>
    <g id="xtick_3">
     <g id="line2d_3">
      <g>
       <use style="stroke:#000000;stroke-width:0.8;" x="203.694545" xlink:href="#m09597f5961" y="307.584"/>
      </g>
     </g>
     <g id="text_3">
      <!-- 0.4 -->
      <defs>
       <path d="M 37.796875 64.3125 
L 12.890625 25.390625 
L 37.796875 25.390625 
z
M 35.203125 72.90625 
L 47.609375 72.90625 
L 47.609375 25.390625 
L 58.015625 25.390625 
L 58.015625 17.1875 
L 47.609375 17.1875 
L 47.609375 0 
L 37.796875 0 
L 37.796875 17.1875 
L 4.890625 17.1875 
L 4.890625 26.703125 
z
" id="DejaVuSans-34"/>
      </defs>
      <g transform="translate(195.742983 322.182437)scale(0.1 -0.1)">
       <use xlink:href="#DejaVuSans-30"/>
       <use x="63.623047" xlink:href="#DejaVuSans-2e"/>
       <use x="95.410156" xlink:href="#DejaVuSans-34"/>
      </g>
     </g>
    </g>
    <g id="xtick_4">
     <g id="line2d_4">
      <g>
       <use style="stroke:#000000;stroke-width:0.8;" x="268.625455" xlink:href="#m09597f5961" y="307.584"/>
      </g>
     </g>
     <g id="text_4">
      <!-- 0.6 -->
      <defs>
       <path d="M 33.015625 40.375 
Q 26.375 40.375 22.484375 35.828125 
Q 18.609375 31.296875 18.609375 23.390625 
Q 18.609375 15.53125 22.484375 10.953125 
Q 26.375 6.390625 33.015625 6.390625 
Q 39.65625 6.390625 43.53125 10.953125 
Q 47.40625 15.53125 47.40625 23.390625 
Q 47.40625 31.296875 43.53125 35.828125 
Q 39.65625 40.375 33.015625 40.375 
z
M 52.59375 71.296875 
L 52.59375 62.3125 
Q 48.875 64.0625 45.09375 64.984375 
Q 41.3125 65.921875 37.59375 65.921875 
Q 27.828125 65.921875 22.671875 59.328125 
Q 17.53125 52.734375 16.796875 39.40625 
Q 19.671875 43.65625 24.015625 45.921875 
Q 28.375 48.1875 33.59375 48.1875 
Q 44.578125 48.1875 50.953125 41.515625 
Q 57.328125 34.859375 57.328125 23.390625 
Q 57.328125 12.15625 50.6875 5.359375 
Q 44.046875 -1.421875 33.015625 -1.421875 
Q 20.359375 -1.421875 13.671875 8.265625 
Q 6.984375 17.96875 6.984375 36.375 
Q 6.984375 53.65625 15.1875 63.9375 
Q 23.390625 74.21875 37.203125 74.21875 
Q 40.921875 74.21875 44.703125 73.484375 
Q 48.484375 72.75 52.59375 71.296875 
z
" id="DejaVuSans-36"/>
      </defs>
      <g transform="translate(260.673892 322.182437)scale(0.1 -0.1)">
       <use xlink:href="#DejaVuSans-30"/>
       <use x="63.623047" xlink:href="#DejaVuSans-2e"/>
       <use x="95.410156" xlink:href="#DejaVuSans-36"/>
      </g>
     </g>
    </g>
    <g id="xtick_5">
     <g id="line2d_5">
      <g>
       <use style="stroke:#000000;stroke-width:0.8;" x="333.556364" xlink:href="#m09597f5961" y="307.584"/>
      </g>
     </g>
     <g id="text_5">
      <!-- 0.8 -->
      <defs>
       <path d="M 31.78125 34.625 
Q 24.75 34.625 20.71875 30.859375 
Q 16.703125 27.09375 16.703125 20.515625 
Q 16.703125 13.921875 20.71875 10.15625 
Q 24.75 6.390625 31.78125 6.390625 
Q 38.8125 6.390625 42.859375 10.171875 
Q 46.921875 13.96875 46.921875 20.515625 
Q 46.921875 27.09375 42.890625 30.859375 
Q 38.875 34.625 31.78125 34.625 
z
M 21.921875 38.8125 
Q 15.578125 40.375 12.03125 44.71875 
Q 8.5 49.078125 8.5 55.328125 
Q 8.5 64.0625 14.71875 69.140625 
Q 20.953125 74.21875 31.78125 74.21875 
Q 42.671875 74.21875 48.875 69.140625 
Q 55.078125 64.0625 55.078125 55.328125 
Q 55.078125 49.078125 51.53125 44.71875 
Q 48 40.375 41.703125 38.8125 
Q 48.828125 37.15625 52.796875 32.3125 
Q 56.78125 27.484375 56.78125 20.515625 
Q 56.78125 9.90625 50.3125 4.234375 
Q 43.84375 -1.421875 31.78125 -1.421875 
Q 19.734375 -1.421875 13.25 4.234375 
Q 6.78125 9.90625 6.78125 20.515625 
Q 6.78125 27.484375 10.78125 32.3125 
Q 14.796875 37.15625 21.921875 38.8125 
z
M 18.3125 54.390625 
Q 18.3125 48.734375 21.84375 45.5625 
Q 25.390625 42.390625 31.78125 42.390625 
Q 38.140625 42.390625 41.71875 45.5625 
Q 45.3125 48.734375 45.3125 54.390625 
Q 45.3125 60.0625 41.71875 63.234375 
Q 38.140625 66.40625 31.78125 66.40625 
Q 25.390625 66.40625 21.84375 63.234375 
Q 18.3125 60.0625 18.3125 54.390625 
z
" id="DejaVuSans-38"/>
      </defs>
      <g transform="translate(325.604801 322.182437)scale(0.1 -0.1)">
       <use xlink:href="#DejaVuSans-30"/>
       <use x="63.623047" xlink:href="#DejaVuSans-2e"/>
       <use x="95.410156" xlink:href="#DejaVuSans-38"/>
      </g>
     </g>
    </g>
    <g id="xtick_6">
     <g id="line2d_6">
      <g>
       <use style="stroke:#000000;stroke-width:0.8;" x="398.487273" xlink:href="#m09597f5961" y="307.584"/>
      </g>
     </g>
     <g id="text_6">
      <!-- 1.0 -->
      <defs>
       <path d="M 12.40625 8.296875 
L 28.515625 8.296875 
L 28.515625 63.921875 
L 10.984375 60.40625 
L 10.984375 69.390625 
L 28.421875 72.90625 
L 38.28125 72.90625 
L 38.28125 8.296875 
L 54.390625 8.296875 
L 54.390625 0 
L 12.40625 0 
z
" id="DejaVuSans-31"/>
      </defs>
      <g transform="translate(390.53571 322.182437)scale(0.1 -0.1)">
       <use xlink:href="#DejaVuSans-31"/>
       <use x="63.623047" xlink:href="#DejaVuSans-2e"/>
       <use x="95.410156" xlink:href="#DejaVuSans-30"/>
      </g>
     </g>
    </g>
   </g>
   <g id="matplotlib.axis_2">
    <g id="ytick_1">
     <g id="line2d_7">
      <defs>
       <path d="M 0 0 
L -3.5 0 
" id="m74662aa02a" style="stroke:#000000;stroke-width:0.8;"/>
      </defs>
      <g>
       <use style="stroke:#000000;stroke-width:0.8;" x="57.6" xlink:href="#m74662aa02a" y="299.17887"/>
      </g>
     </g>
     <g id="text_7">
      <!-- 0.0 -->
      <g transform="translate(34.696875 302.978089)scale(0.1 -0.1)">
       <use xlink:href="#DejaVuSans-30"/>
       <use x="63.623047" xlink:href="#DejaVuSans-2e"/>
       <use x="95.410156" xlink:href="#DejaVuSans-30"/>
      </g>
     </g>
    </g>
    <g id="ytick_2">
     <g id="line2d_8">
      <g>
       <use style="stroke:#000000;stroke-width:0.8;" x="57.6" xlink:href="#m74662aa02a" y="249.553394"/>
      </g>
     </g>
     <g id="text_8">
      <!-- 0.2 -->
      <g transform="translate(34.696875 253.352613)scale(0.1 -0.1)">
       <use xlink:href="#DejaVuSans-30"/>
       <use x="63.623047" xlink:href="#DejaVuSans-2e"/>
       <use x="95.410156" xlink:href="#DejaVuSans-32"/>
      </g>
     </g>
    </g>
    <g id="ytick_3">
     <g id="line2d_9">
      <g>
       <use style="stroke:#000000;stroke-width:0.8;" x="57.6" xlink:href="#m74662aa02a" y="199.927919"/>
      </g>
     </g>
     <g id="text_9">
      <!-- 0.4 -->
      <g transform="translate(34.696875 203.727138)scale(0.1 -0.1)">
       <use xlink:href="#DejaVuSans-30"/>
       <use x="63.623047" xlink:href="#DejaVuSans-2e"/>
       <use x="95.410156" xlink:href="#DejaVuSans-34"/>
      </g>
     </g>
    </g>
    <g id="ytick_4">
     <g id="line2d_10">
      <g>
       <use style="stroke:#000000;stroke-width:0.8;" x="57.6" xlink:href="#m74662aa02a" y="150.302443"/>
      </g>
     </g>
     <g id="text_10">
      <!-- 0.6 -->
      <g transform="translate(34.696875 154.101662)scale(0.1 -0.1)">
       <use xlink:href="#DejaVuSans-30"/>
       <use x="63.623047" xlink:href="#DejaVuSans-2e"/>
       <use x="95.410156" xlink:href="#DejaVuSans-36"/>
      </g>
     </g>
    </g>
    <g id="ytick_5">
     <g id="line2d_11">
      <g>
       <use style="stroke:#000000;stroke-width:0.8;" x="57.6" xlink:href="#m74662aa02a" y="100.676968"/>
      </g>
     </g>
     <g id="text_11">
      <!-- 0.8 -->
      <g transform="translate(34.696875 104.476186)scale(0.1 -0.1)">
       <use xlink:href="#DejaVuSans-30"/>
       <use x="63.623047" xlink:href="#DejaVuSans-2e"/>
       <use x="95.410156" xlink:href="#DejaVuSans-38"/>
      </g>
     </g>
    </g>
    <g id="ytick_6">
     <g id="line2d_12">
      <g>
       <use style="stroke:#000000;stroke-width:0.8;" x="57.6" xlink:href="#m74662aa02a" y="51.051492"/>
      </g>
     </g>
     <g id="text_12">
      <!-- 1.0 -->
      <g transform="translate(34.696875 54.850711)scale(0.1 -0.1)">
       <use xlink:href="#DejaVuSans-31"/>
       <use x="63.623047" xlink:href="#DejaVuSans-2e"/>
       <use x="95.410156" xlink:href="#DejaVuSans-30"/>
      </g>
     </g>
    </g>
   </g>
   <g id="line2d_13">
    <path clip-path="url(#pee273fca1d)" d="M 73.832727 286.596355 
L 74.92584 286.764114 
L 76.018953 286.093054 
L 77.112066 285.086451 
L 78.205179 278.711289 
L 79.298292 276.194781 
L 80.391405 269.316244 
L 81.484518 258.411542 
L 82.577631 245.661268 
L 83.670744 224.522553 
L 84.763857 206.739263 
L 85.85697 186.607201 
L 88.043196 142.65218 
L 89.136309 124.868891 
L 90.229421 119.332673 
L 91.322534 104.40136 
L 92.415647 76.719773 
L 93.50876 67.324926 
L 94.601873 65.143887 
L 95.694986 54.574653 
L 96.788099 53.568 
L 97.881212 61.78846 
L 98.974325 79.571997 
L 100.067438 85.779152 
L 101.160551 87.456989 
L 102.253664 103.394707 
L 105.533003 130.405357 
L 106.626116 142.484446 
L 107.719229 161.609856 
L 108.812342 163.95863 
L 109.905455 152.047275 
L 110.998567 154.396049 
L 112.09168 159.932267 
L 113.184793 161.945572 
L 114.277906 159.932267 
L 115.371019 168.991645 
L 116.464132 184.761877 
L 117.557245 189.962627 
L 118.650358 202.712901 
L 119.743471 213.953319 
L 120.836584 215.463174 
L 121.929697 220.328456 
L 124.115923 236.433907 
L 125.209036 238.614947 
L 126.302149 241.131455 
L 127.395262 250.52655 
L 128.488375 256.398236 
L 129.581488 259.250212 
L 130.674601 257.069421 
L 131.767713 260.92805 
L 132.860826 265.289881 
L 135.047052 269.819694 
L 137.233278 280.892279 
L 138.326391 280.892279 
L 139.419504 278.54353 
L 140.512617 279.550133 
L 141.60573 277.704686 
L 142.698843 275.188178 
L 143.791956 274.684901 
L 144.885069 269.819694 
L 147.071295 251.532955 
L 148.164408 247.674326 
L 149.257521 242.64131 
L 150.350634 234.588584 
L 151.443747 229.555568 
L 152.53686 225.361471 
L 153.629972 220.49619 
L 154.723085 214.288787 
L 155.816198 200.867329 
L 156.909311 196.337764 
L 158.002424 193.150071 
L 159.095537 192.143419 
L 160.18865 190.298095 
L 161.281763 182.077387 
L 164.561102 115.809512 
L 167.840441 77.89416 
L 168.933554 90.141231 
L 170.026667 93.496658 
L 171.11978 88.79911 
L 172.212893 89.470047 
L 173.306006 96.1809 
L 174.399118 112.622068 
L 175.492231 122.352383 
L 176.585344 133.257333 
L 177.678457 151.543825 
L 178.77157 160.435469 
L 179.864683 167.984993 
L 180.957796 174.695846 
L 182.050909 176.205701 
L 183.144022 184.929611 
L 184.237135 186.607201 
L 185.330248 187.110403 
L 186.423361 186.607201 
L 187.516474 187.781587 
L 188.609587 191.304748 
L 189.7027 191.640216 
L 190.795813 194.659926 
L 191.888926 197.176434 
L 194.075152 200.364127 
L 195.168264 205.564877 
L 196.261377 206.571529 
L 197.35449 213.785585 
L 198.447603 219.992739 
L 199.540716 224.522553 
L 200.633829 223.683634 
L 201.726942 225.361471 
L 203.913168 238.950415 
L 205.006281 244.319147 
L 206.099394 248.680979 
L 207.192507 256.230502 
L 208.28562 262.270171 
L 209.378733 264.45121 
L 210.471846 265.625349 
L 211.564959 268.309839 
L 213.751185 277.536927 
L 214.844298 281.731099 
L 215.93741 286.596355 
L 217.030523 290.119442 
L 218.123636 292.803733 
L 219.216749 293.810336 
L 220.309862 293.139251 
L 221.402975 292.635949 
L 222.496088 292.300432 
L 223.589201 289.951683 
L 224.682314 288.777321 
L 225.775427 283.744305 
L 226.86854 279.717892 
L 229.054766 263.109089 
L 230.147879 255.559566 
L 231.240992 244.486881 
L 232.334105 238.782681 
L 233.427218 229.2201 
L 234.520331 217.811948 
L 235.613444 209.255771 
L 239.985895 160.603451 
L 242.172121 142.819914 
L 243.265234 141.813509 
L 244.358347 141.645775 
L 245.45146 138.961285 
L 246.544573 134.767188 
L 247.637686 138.961285 
L 248.730799 139.464736 
L 249.823912 141.981244 
L 250.917025 140.639123 
L 252.010138 147.181993 
L 253.103251 155.234719 
L 254.196364 159.764533 
L 255.289477 168.656177 
L 256.38259 170.501501 
L 257.475702 182.580838 
L 259.661928 187.278385 
L 262.941267 202.712901 
L 264.03438 200.867329 
L 265.127493 206.403795 
L 266.220606 216.13411 
L 267.313719 223.5159 
L 268.406832 225.361471 
L 269.499945 224.690287 
L 271.686171 226.703592 
L 272.779284 222.006045 
L 273.872397 220.999392 
L 274.96551 219.489537 
L 276.058623 222.173779 
L 277.151736 227.03906 
L 278.244848 229.891037 
L 279.337961 236.769624 
L 280.431074 240.124802 
L 281.524187 247.003389 
L 282.6173 250.52655 
L 283.710413 253.54626 
L 285.896639 263.94776 
L 286.989752 267.806389 
L 288.082865 270.994081 
L 289.175978 278.879073 
L 290.269091 284.583149 
L 291.362204 287.938476 
L 292.455317 290.119442 
L 293.54843 290.287225 
L 294.641543 288.609562 
L 295.734656 283.744305 
L 296.827769 278.040229 
L 299.013994 262.941107 
L 300.107107 252.371873 
L 302.293333 226.703592 
L 303.386446 219.657271 
L 304.479559 203.048369 
L 305.572672 190.298095 
L 306.665785 182.748572 
L 307.758898 177.547822 
L 308.852011 168.991645 
L 309.945124 142.148978 
L 311.038237 121.849181 
L 314.317576 67.828129 
L 315.410689 63.801766 
L 316.503802 64.976152 
L 317.596915 72.022474 
L 318.690028 82.256239 
L 319.78314 97.187304 
L 320.876253 109.769844 
L 321.969366 114.131923 
L 323.062479 126.378994 
L 324.155592 134.599454 
L 325.248705 134.263986 
L 326.341818 129.734172 
L 327.434931 128.224317 
L 328.528044 128.72752 
L 329.621157 130.069641 
L 330.71427 144.665485 
L 331.807383 156.409106 
L 333.993609 185.600548 
L 335.086722 194.659926 
L 336.179835 208.081384 
L 337.272948 211.940013 
L 338.366061 212.778932 
L 339.459174 216.973029 
L 340.552287 222.844963 
L 341.645399 233.749665 
L 342.738512 238.614947 
L 343.831625 244.486881 
L 344.924738 256.56597 
L 346.017851 264.786678 
L 347.110964 269.316244 
L 348.204077 271.161815 
L 349.29719 273.846057 
L 350.390303 278.207988 
L 351.483416 279.885676 
L 352.576529 279.046832 
L 353.669642 280.221194 
L 354.762755 279.382374 
L 355.855868 281.395581 
L 356.948981 277.201384 
L 358.042094 277.87247 
L 359.135207 277.536927 
L 360.22832 277.87247 
L 361.321433 281.395581 
L 362.414545 283.241003 
L 363.507658 287.099657 
L 364.600771 288.94508 
L 365.693884 291.293828 
L 366.786997 293.307035 
L 367.88011 294.145854 
L 368.973223 295.320241 
L 370.066336 295.488 
L 372.252562 292.132648 
L 373.345675 289.61614 
L 376.625014 272.67167 
L 377.718127 265.961065 
L 378.81124 252.875076 
L 379.904353 246.667921 
L 380.997466 241.466923 
L 382.090579 232.910995 
L 383.183691 226.032408 
L 384.276804 215.798642 
L 385.369917 215.463174 
L 386.46303 209.255771 
L 387.556143 205.732611 
L 388.649256 199.357474 
L 389.742369 194.492192 
L 390.835482 201.203045 
L 391.928595 202.20945 
L 393.021708 198.854272 
L 394.114821 198.518555 
L 395.207934 204.39049 
L 396.301047 207.745916 
L 397.39416 200.364127 
L 398.487273 198.854272 
L 398.487273 198.854272 
" style="fill:none;stroke:#66c2a5;stroke-linecap:square;stroke-width:1.5;"/>
   </g>
   <g id="line2d_14">
    <path clip-path="url(#pee273fca1d)" d="M 73.832727 214.68276 
L 74.92584 214.792476 
L 77.112066 214.695668 
L 78.205179 214.324011 
L 79.298292 213.542283 
L 80.391405 213.27395 
L 82.577631 210.183714 
L 83.670744 207.438203 
L 85.85697 199.092822 
L 89.136309 183.685703 
L 90.229421 180.834386 
L 91.322534 179.637188 
L 93.50876 172.721469 
L 95.694986 171.472579 
L 96.788099 170.434371 
L 97.881212 170.612473 
L 98.974325 172.064661 
L 100.067438 174.230439 
L 101.160551 174.542026 
L 102.253664 175.493478 
L 103.346777 177.757244 
L 104.43989 179.239405 
L 105.533003 181.218516 
L 106.626116 182.426263 
L 107.719229 185.625967 
L 108.812342 189.224137 
L 109.905455 188.551691 
L 110.998567 186.840106 
L 112.09168 187.513048 
L 113.184793 188.645024 
L 114.277906 188.816362 
L 115.371019 188.767089 
L 116.464132 191.623806 
L 117.557245 194.796515 
L 118.650358 196.344457 
L 119.743471 199.652139 
L 120.836584 201.836472 
L 121.929697 202.240088 
L 123.02281 203.605955 
L 124.115923 205.483666 
L 125.209036 206.79964 
L 126.302149 207.233292 
L 127.395262 208.031713 
L 128.488375 209.759991 
L 129.581488 210.641072 
L 131.767713 210.711196 
L 133.953939 212.019909 
L 135.047052 212.313623 
L 136.140165 212.733188 
L 137.233278 213.674526 
L 138.326391 214.161919 
L 140.512617 213.727894 
L 141.60573 213.868763 
L 143.791956 213.236343 
L 144.885069 213.067425 
L 145.978182 212.12255 
L 148.164408 209.27961 
L 149.257521 208.632732 
L 150.350634 207.56033 
L 151.443747 205.933205 
L 153.629972 204.155095 
L 154.723085 202.856063 
L 155.816198 201.005471 
L 156.909311 198.364649 
L 158.002424 197.222869 
L 159.095537 196.520325 
L 160.18865 196.46255 
L 161.281763 195.726558 
L 162.374876 192.791961 
L 163.467989 187.083678 
L 164.561102 182.58066 
L 165.654215 178.873457 
L 167.840441 174.840766 
L 168.933554 173.802186 
L 170.026667 175.664631 
L 171.11978 175.478833 
L 172.212893 174.997832 
L 173.306006 175.293718 
L 174.399118 176.786864 
L 175.492231 179.279928 
L 176.585344 181.070387 
L 177.678457 183.655358 
L 178.77157 186.875726 
L 179.864683 189.16903 
L 180.957796 190.762087 
L 182.050909 192.076633 
L 183.144022 192.768131 
L 184.237135 194.795398 
L 185.330248 195.017933 
L 187.516474 195.082782 
L 188.609587 195.477339 
L 189.7027 196.230086 
L 190.795813 196.232444 
L 191.888926 197.329544 
L 192.982039 197.616184 
L 194.075152 198.110651 
L 196.261377 199.571838 
L 197.35449 200.353007 
L 198.447603 202.001666 
L 199.540716 203.374918 
L 200.633829 204.119288 
L 201.726942 203.908047 
L 202.820055 204.687293 
L 205.006281 207.449932 
L 207.192507 209.371082 
L 208.28562 210.709706 
L 209.378733 211.59662 
L 211.564959 211.99099 
L 212.658072 212.551672 
L 214.844298 213.8741 
L 218.123636 215.3333 
L 219.216749 215.548389 
L 220.309862 215.581279 
L 221.402975 215.453256 
L 222.496088 215.452697 
L 224.682314 215.072414 
L 225.775427 214.813638 
L 227.961653 213.565864 
L 231.240992 209.69812 
L 232.334105 207.957803 
L 233.427218 206.689737 
L 234.520331 204.623685 
L 235.613444 202.093572 
L 236.706556 200.034532 
L 241.079008 188.141434 
L 242.172121 186.159965 
L 243.265234 184.633743 
L 244.358347 184.423991 
L 245.45146 184.417662 
L 246.544573 183.585544 
L 247.637686 183.184409 
L 248.730799 184.021988 
L 249.823912 184.017955 
L 250.917025 184.55822 
L 252.010138 184.392715 
L 254.196364 187.606754 
L 255.289477 188.957169 
L 256.38259 190.606263 
L 257.475702 191.573726 
L 258.568815 194.174149 
L 259.661928 194.643607 
L 260.755041 195.416461 
L 261.848154 196.602612 
L 262.941267 198.045616 
L 264.03438 198.806493 
L 265.127493 198.760136 
L 266.220606 200.53111 
L 267.313719 202.614848 
L 268.406832 203.971966 
L 269.499945 204.229066 
L 270.593058 204.243339 
L 271.686171 204.537178 
L 272.779284 204.312843 
L 273.872397 203.473278 
L 274.96551 203.232933 
L 276.058623 203.180743 
L 277.151736 203.867835 
L 279.337961 205.689446 
L 280.431074 206.90979 
L 281.524187 207.760835 
L 282.6173 208.956792 
L 284.803526 210.146046 
L 286.989752 211.929926 
L 288.082865 212.381513 
L 289.175978 212.993392 
L 290.269091 214.184569 
L 291.362204 214.702991 
L 292.455317 215.062919 
L 293.54843 215.226377 
L 294.641543 215.18635 
L 295.734656 214.756546 
L 296.827769 214.177309 
L 297.920882 213.292132 
L 299.013994 212.237665 
L 300.107107 211.000131 
L 301.20022 208.995515 
L 303.386446 204.123322 
L 304.479559 202.411054 
L 305.572672 198.352548 
L 306.665785 195.370912 
L 308.852011 192.372644 
L 309.945124 189.437177 
L 311.038237 183.297166 
L 313.224463 176.678326 
L 314.317576 173.670812 
L 315.410689 171.950477 
L 316.503802 171.69772 
L 317.596915 171.976541 
L 318.690028 173.135263 
L 319.78314 174.663595 
L 320.876253 176.884292 
L 321.969366 178.642668 
L 323.062479 179.488997 
L 324.155592 181.973374 
L 325.248705 182.814241 
L 326.341818 182.789419 
L 327.434931 181.888728 
L 328.528044 181.723658 
L 329.621157 181.836539 
L 330.71427 182.642903 
L 331.807383 185.747846 
L 332.900496 188.312338 
L 333.993609 191.988327 
L 335.086722 195.092339 
L 337.272948 200.552519 
L 338.366061 201.26282 
L 339.459174 201.643599 
L 340.552287 202.693598 
L 341.645399 204.241602 
L 342.738512 206.489294 
L 343.831625 207.377573 
L 344.924738 208.755231 
L 346.017851 210.950672 
L 347.110964 212.047152 
L 348.204077 212.613853 
L 349.29719 212.808463 
L 351.483416 213.864729 
L 352.576529 213.93082 
L 353.669642 213.849153 
L 356.948981 213.979348 
L 358.042094 213.510262 
L 359.135207 213.640767 
L 360.22832 213.638843 
L 361.321433 213.83668 
L 364.600771 214.942529 
L 368.973223 215.702599 
L 371.159449 215.721589 
L 374.438788 214.899462 
L 375.531901 214.124933 
L 376.625014 213.488976 
L 377.718127 212.608951 
L 378.81124 211.284227 
L 379.904353 209.419238 
L 382.090579 207.265313 
L 385.369917 202.218803 
L 386.46303 201.694734 
L 387.556143 200.411464 
L 388.649256 199.500659 
L 389.742369 197.691769 
L 390.835482 197.383161 
L 391.928595 198.673009 
L 393.021708 198.661156 
L 394.114821 197.978781 
L 395.207934 198.368187 
L 396.301047 199.756394 
L 397.39416 199.666102 
L 398.487273 198.484791 
L 398.487273 198.484791 
" style="fill:none;stroke:#fc8d62;stroke-linecap:square;stroke-width:1.5;"/>
   </g>
   <g id="line2d_15">
    <path clip-path="url(#pee273fca1d)" d="M 73.832727 256.997216 
L 78.205179 256.997216 
L 79.298292 254.515942 
L 80.391405 254.515942 
L 81.484518 252.034668 
L 82.577631 249.181203 
L 84.763857 234.665752 
L 86.950083 229.703204 
L 88.043196 229.703204 
L 90.229421 224.740657 
L 92.415647 224.740657 
L 93.50876 222.259383 
L 98.974325 222.259383 
L 100.067438 224.740657 
L 103.346777 224.740657 
L 104.43989 227.22193 
L 106.626116 227.22193 
L 107.719229 229.703204 
L 109.905455 229.703204 
L 110.998567 227.22193 
L 112.09168 229.703204 
L 116.464132 229.703204 
L 117.557245 232.184478 
L 118.650358 232.184478 
L 119.743471 234.665752 
L 123.02281 234.665752 
L 124.115923 239.628299 
L 125.209036 242.109573 
L 127.395262 242.109573 
L 128.488375 247.072121 
L 129.581488 249.553394 
L 132.860826 249.553394 
L 133.953939 252.034668 
L 135.047052 252.034668 
L 136.140165 254.515942 
L 137.233278 254.515942 
L 138.326391 256.997216 
L 139.419504 256.997216 
L 140.512617 254.515942 
L 141.60573 256.997216 
L 142.698843 254.515942 
L 144.885069 254.515942 
L 152.53686 237.147025 
L 153.629972 237.147025 
L 154.723085 234.665752 
L 155.816198 234.665752 
L 156.909311 232.184478 
L 161.281763 232.184478 
L 163.467989 227.22193 
L 164.561102 227.22193 
L 165.654215 224.740657 
L 174.399118 224.740657 
L 175.492231 227.22193 
L 177.678457 227.22193 
L 178.77157 229.703204 
L 183.144022 229.703204 
L 184.237135 232.184478 
L 195.168264 232.184478 
L 196.261377 234.665752 
L 201.726942 234.665752 
L 206.099394 244.590847 
L 207.192507 244.590847 
L 208.28562 249.553394 
L 209.378733 249.553394 
L 210.471846 252.034668 
L 212.658072 252.034668 
L 214.844298 256.997216 
L 217.030523 256.997216 
L 218.123636 259.478489 
L 223.589201 259.478489 
L 224.682314 256.997216 
L 226.86854 256.997216 
L 233.427218 242.109573 
L 234.520331 237.147025 
L 236.706556 232.184478 
L 237.799669 232.184478 
L 238.892782 229.703204 
L 241.079008 229.703204 
L 242.172121 227.22193 
L 252.010138 227.22193 
L 253.103251 229.703204 
L 257.475702 229.703204 
L 258.568815 232.184478 
L 265.127493 232.184478 
L 266.220606 234.665752 
L 268.406832 234.665752 
L 269.499945 237.147025 
L 272.779284 237.147025 
L 273.872397 234.665752 
L 277.151736 234.665752 
L 280.431074 242.109573 
L 281.524187 242.109573 
L 283.710413 247.072121 
L 284.803526 247.072121 
L 286.989752 252.034668 
L 288.082865 252.034668 
L 290.269091 256.997216 
L 292.455317 256.997216 
L 293.54843 259.478489 
L 294.641543 259.478489 
L 295.734656 256.997216 
L 296.827769 256.997216 
L 300.107107 249.553394 
L 301.20022 244.590847 
L 302.293333 242.109573 
L 303.386446 237.147025 
L 305.572672 232.184478 
L 307.758898 232.184478 
L 308.852011 229.703204 
L 309.945124 229.703204 
L 312.13135 224.740657 
L 313.224463 224.740657 
L 314.317576 222.259383 
L 317.596915 222.259383 
L 318.690028 224.740657 
L 321.969366 224.740657 
L 323.062479 227.22193 
L 330.71427 227.22193 
L 331.807383 229.703204 
L 332.900496 229.703204 
L 333.993609 232.184478 
L 336.179835 232.184478 
L 337.272948 234.665752 
L 341.645399 234.665752 
L 342.738512 239.628299 
L 344.924738 244.590847 
L 346.017851 249.553394 
L 347.110964 252.034668 
L 348.204077 252.034668 
L 349.29719 254.515942 
L 350.390303 254.515942 
L 351.483416 256.997216 
L 356.948981 256.997216 
L 358.042094 254.515942 
L 360.22832 254.515942 
L 361.321433 256.997216 
L 364.600771 256.997216 
L 365.693884 259.478489 
L 373.345675 259.478489 
L 374.438788 256.997216 
L 375.531901 256.997216 
L 376.625014 254.515942 
L 377.718127 254.515942 
L 378.81124 249.553394 
L 383.183691 239.628299 
L 384.276804 234.665752 
L 387.556143 234.665752 
L 388.649256 232.184478 
L 395.207934 232.184478 
L 396.301047 234.665752 
L 397.39416 232.184478 
L 398.487273 232.184478 
L 398.487273 232.184478 
" style="fill:none;stroke:#8da0cb;stroke-linecap:square;stroke-width:1.5;"/>
   </g>
   <g id="line2d_16">
    <path clip-path="url(#pee273fca1d)" d="M 73.832727 160.227538 
L 80.391405 160.227538 
L 81.484518 157.746265 
L 82.577631 157.746265 
L 85.85697 150.302443 
L 86.950083 145.339896 
L 88.043196 142.858622 
L 89.136309 130.452253 
L 90.229421 125.489705 
L 91.322534 125.489705 
L 92.415647 118.045884 
L 93.50876 113.083337 
L 95.694986 113.083337 
L 96.788099 110.602063 
L 97.881212 110.602063 
L 100.067438 115.56461 
L 101.160551 115.56461 
L 106.626116 127.970979 
L 107.719229 135.414801 
L 108.812342 145.339896 
L 110.998567 140.377348 
L 112.09168 142.858622 
L 115.371019 142.858622 
L 117.557245 147.821169 
L 118.650358 147.821169 
L 120.836584 152.783717 
L 123.02281 152.783717 
L 124.115923 155.264991 
L 127.395262 155.264991 
L 128.488375 157.746265 
L 135.047052 157.746265 
L 136.140165 160.227538 
L 144.885069 160.227538 
L 145.978182 157.746265 
L 148.164408 157.746265 
L 149.257521 155.264991 
L 151.443747 155.264991 
L 152.53686 152.783717 
L 154.723085 152.783717 
L 155.816198 150.302443 
L 156.909311 150.302443 
L 158.002424 147.821169 
L 161.281763 147.821169 
L 162.374876 145.339896 
L 163.467989 140.377348 
L 164.561102 127.970979 
L 165.654215 123.008432 
L 168.933554 115.56461 
L 170.026667 118.045884 
L 173.306006 118.045884 
L 176.585344 125.489705 
L 177.678457 130.452253 
L 179.864683 145.339896 
L 183.144022 145.339896 
L 184.237135 147.821169 
L 190.795813 147.821169 
L 191.888926 150.302443 
L 197.35449 150.302443 
L 198.447603 152.783717 
L 202.820055 152.783717 
L 203.913168 155.264991 
L 205.006281 155.264991 
L 206.099394 157.746265 
L 211.564959 157.746265 
L 212.658072 160.227538 
L 227.961653 160.227538 
L 229.054766 157.746265 
L 231.240992 157.746265 
L 232.334105 155.264991 
L 233.427218 155.264991 
L 234.520331 152.783717 
L 235.613444 152.783717 
L 237.799669 147.821169 
L 238.892782 147.821169 
L 241.079008 142.858622 
L 243.265234 132.933527 
L 245.45146 132.933527 
L 246.544573 130.452253 
L 249.823912 130.452253 
L 250.917025 132.933527 
L 252.010138 132.933527 
L 254.196364 142.858622 
L 255.289477 145.339896 
L 257.475702 145.339896 
L 258.568815 147.821169 
L 261.848154 147.821169 
L 262.941267 150.302443 
L 266.220606 150.302443 
L 267.313719 152.783717 
L 278.244848 152.783717 
L 279.337961 155.264991 
L 281.524187 155.264991 
L 282.6173 157.746265 
L 286.989752 157.746265 
L 288.082865 158.118456 
L 289.175978 160.227538 
L 297.920882 160.227538 
L 299.013994 157.746265 
L 300.107107 157.746265 
L 301.20022 155.264991 
L 302.293333 155.264991 
L 303.386446 152.783717 
L 304.479559 152.783717 
L 306.665785 147.821169 
L 307.758898 147.821169 
L 309.945124 142.858622 
L 311.038237 130.452253 
L 314.317576 115.56461 
L 315.410689 113.083337 
L 317.596915 113.083337 
L 318.690028 115.56461 
L 319.78314 115.936801 
L 320.876253 120.527158 
L 321.969366 123.008432 
L 323.062479 123.008432 
L 324.155592 127.970979 
L 330.71427 127.970979 
L 332.900496 142.858622 
L 336.179835 150.302443 
L 337.272948 150.302443 
L 338.366061 150.674634 
L 339.459174 152.783717 
L 341.645399 152.783717 
L 342.738512 155.264991 
L 343.831625 155.264991 
L 344.924738 157.746265 
L 347.110964 157.746265 
L 348.204077 160.227538 
L 367.88011 160.227538 
L 368.973223 160.599729 
L 370.066336 162.708812 
L 371.159449 162.708812 
L 372.252562 160.227538 
L 376.625014 160.227538 
L 377.718127 157.746265 
L 379.904353 157.746265 
L 380.997466 155.264991 
L 383.183691 155.264991 
L 384.276804 152.783717 
L 386.46303 152.783717 
L 387.556143 150.302443 
L 388.649256 150.302443 
L 389.742369 147.821169 
L 390.835482 150.302443 
L 398.487273 150.302443 
L 398.487273 150.302443 
" style="fill:none;stroke:#e78ac3;stroke-linecap:square;stroke-width:1.5;"/>
   </g>
   <g id="patch_3">
    <path d="M 57.6 307.584 
L 57.6 41.472 
" style="fill:none;stroke:#000000;stroke-linecap:square;stroke-linejoin:miter;stroke-width:0.8;"/>
   </g>
   <g id="patch_4">
    <path d="M 414.72 307.584 
L 414.72 41.472 
" style="fill:none;stroke:#000000;stroke-linecap:square;stroke-linejoin:miter;stroke-width:0.8;"/>
   </g>
   <g id="patch_5">
    <path d="M 57.6 307.584 
L 414.72 307.584 
" style="fill:none;stroke:#000000;stroke-linecap:square;stroke-linejoin:miter;stroke-width:0.8;"/>
   </g>
   <g id="patch_6">
    <path d="M 57.6 41.472 
L 414.72 41.472 
" style="fill:none;stroke:#000000;stroke-linecap:square;stroke-linejoin:miter;stroke-width:0.8;"/>
   </g>
   <g id="text_13">
    <!-- Plot of Train Data	vs MCMC	Uncertainty	 -->
    <defs>
     <path d="M 19.671875 64.796875 
L 19.671875 37.40625 
L 32.078125 37.40625 
Q 38.96875 37.40625 42.71875 40.96875 
Q 46.484375 44.53125 46.484375 51.125 
Q 46.484375 57.671875 42.71875 61.234375 
Q 38.96875 64.796875 32.078125 64.796875 
z
M 9.8125 72.90625 
L 32.078125 72.90625 
Q 44.34375 72.90625 50.609375 67.359375 
Q 56.890625 61.8125 56.890625 51.125 
Q 56.890625 40.328125 50.609375 34.8125 
Q 44.34375 29.296875 32.078125 29.296875 
L 19.671875 29.296875 
L 19.671875 0 
L 9.8125 0 
z
" id="DejaVuSans-50"/>
     <path d="M 9.421875 75.984375 
L 18.40625 75.984375 
L 18.40625 0 
L 9.421875 0 
z
" id="DejaVuSans-6c"/>
     <path d="M 30.609375 48.390625 
Q 23.390625 48.390625 19.1875 42.75 
Q 14.984375 37.109375 14.984375 27.296875 
Q 14.984375 17.484375 19.15625 11.84375 
Q 23.34375 6.203125 30.609375 6.203125 
Q 37.796875 6.203125 41.984375 11.859375 
Q 46.1875 17.53125 46.1875 27.296875 
Q 46.1875 37.015625 41.984375 42.703125 
Q 37.796875 48.390625 30.609375 48.390625 
z
M 30.609375 56 
Q 42.328125 56 49.015625 48.375 
Q 55.71875 40.765625 55.71875 27.296875 
Q 55.71875 13.875 49.015625 6.21875 
Q 42.328125 -1.421875 30.609375 -1.421875 
Q 18.84375 -1.421875 12.171875 6.21875 
Q 5.515625 13.875 5.515625 27.296875 
Q 5.515625 40.765625 12.171875 48.375 
Q 18.84375 56 30.609375 56 
z
" id="DejaVuSans-6f"/>
     <path d="M 18.3125 70.21875 
L 18.3125 54.6875 
L 36.8125 54.6875 
L 36.8125 47.703125 
L 18.3125 47.703125 
L 18.3125 18.015625 
Q 18.3125 11.328125 20.140625 9.421875 
Q 21.96875 7.515625 27.59375 7.515625 
L 36.8125 7.515625 
L 36.8125 0 
L 27.59375 0 
Q 17.1875 0 13.234375 3.875 
Q 9.28125 7.765625 9.28125 18.015625 
L 9.28125 47.703125 
L 2.6875 47.703125 
L 2.6875 54.6875 
L 9.28125 54.6875 
L 9.28125 70.21875 
z
" id="DejaVuSans-74"/>
     <path id="DejaVuSans-20"/>
     <path d="M 37.109375 75.984375 
L 37.109375 68.5 
L 28.515625 68.5 
Q 23.6875 68.5 21.796875 66.546875 
Q 19.921875 64.59375 19.921875 59.515625 
L 19.921875 54.6875 
L 34.71875 54.6875 
L 34.71875 47.703125 
L 19.921875 47.703125 
L 19.921875 0 
L 10.890625 0 
L 10.890625 47.703125 
L 2.296875 47.703125 
L 2.296875 54.6875 
L 10.890625 54.6875 
L 10.890625 58.5 
Q 10.890625 67.625 15.140625 71.796875 
Q 19.390625 75.984375 28.609375 75.984375 
z
" id="DejaVuSans-66"/>
     <path d="M -0.296875 72.90625 
L 61.375 72.90625 
L 61.375 64.59375 
L 35.5 64.59375 
L 35.5 0 
L 25.59375 0 
L 25.59375 64.59375 
L -0.296875 64.59375 
z
" id="DejaVuSans-54"/>
     <path d="M 41.109375 46.296875 
Q 39.59375 47.171875 37.8125 47.578125 
Q 36.03125 48 33.890625 48 
Q 26.265625 48 22.1875 43.046875 
Q 18.109375 38.09375 18.109375 28.8125 
L 18.109375 0 
L 9.078125 0 
L 9.078125 54.6875 
L 18.109375 54.6875 
L 18.109375 46.1875 
Q 20.953125 51.171875 25.484375 53.578125 
Q 30.03125 56 36.53125 56 
Q 37.453125 56 38.578125 55.875 
Q 39.703125 55.765625 41.0625 55.515625 
z
" id="DejaVuSans-72"/>
     <path d="M 34.28125 27.484375 
Q 23.390625 27.484375 19.1875 25 
Q 14.984375 22.515625 14.984375 16.5 
Q 14.984375 11.71875 18.140625 8.90625 
Q 21.296875 6.109375 26.703125 6.109375 
Q 34.1875 6.109375 38.703125 11.40625 
Q 43.21875 16.703125 43.21875 25.484375 
L 43.21875 27.484375 
z
M 52.203125 31.203125 
L 52.203125 0 
L 43.21875 0 
L 43.21875 8.296875 
Q 40.140625 3.328125 35.546875 0.953125 
Q 30.953125 -1.421875 24.3125 -1.421875 
Q 15.921875 -1.421875 10.953125 3.296875 
Q 6 8.015625 6 15.921875 
Q 6 25.140625 12.171875 29.828125 
Q 18.359375 34.515625 30.609375 34.515625 
L 43.21875 34.515625 
L 43.21875 35.40625 
Q 43.21875 41.609375 39.140625 45 
Q 35.0625 48.390625 27.6875 48.390625 
Q 23 48.390625 18.546875 47.265625 
Q 14.109375 46.140625 10.015625 43.890625 
L 10.015625 52.203125 
Q 14.9375 54.109375 19.578125 55.046875 
Q 24.21875 56 28.609375 56 
Q 40.484375 56 46.34375 49.84375 
Q 52.203125 43.703125 52.203125 31.203125 
z
" id="DejaVuSans-61"/>
     <path d="M 9.421875 54.6875 
L 18.40625 54.6875 
L 18.40625 0 
L 9.421875 0 
z
M 9.421875 75.984375 
L 18.40625 75.984375 
L 18.40625 64.59375 
L 9.421875 64.59375 
z
" id="DejaVuSans-69"/>
     <path d="M 54.890625 33.015625 
L 54.890625 0 
L 45.90625 0 
L 45.90625 32.71875 
Q 45.90625 40.484375 42.875 44.328125 
Q 39.84375 48.1875 33.796875 48.1875 
Q 26.515625 48.1875 22.3125 43.546875 
Q 18.109375 38.921875 18.109375 30.90625 
L 18.109375 0 
L 9.078125 0 
L 9.078125 54.6875 
L 18.109375 54.6875 
L 18.109375 46.1875 
Q 21.34375 51.125 25.703125 53.5625 
Q 30.078125 56 35.796875 56 
Q 45.21875 56 50.046875 50.171875 
Q 54.890625 44.34375 54.890625 33.015625 
z
" id="DejaVuSans-6e"/>
     <path d="M 19.671875 64.796875 
L 19.671875 8.109375 
L 31.59375 8.109375 
Q 46.6875 8.109375 53.6875 14.9375 
Q 60.6875 21.78125 60.6875 36.53125 
Q 60.6875 51.171875 53.6875 57.984375 
Q 46.6875 64.796875 31.59375 64.796875 
z
M 9.8125 72.90625 
L 30.078125 72.90625 
Q 51.265625 72.90625 61.171875 64.09375 
Q 71.09375 55.28125 71.09375 36.53125 
Q 71.09375 17.671875 61.125 8.828125 
Q 51.171875 0 30.078125 0 
L 9.8125 0 
z
" id="DejaVuSans-44"/>
     <path d="M 4.984375 -17.671875 
L 4.984375 70.515625 
L 54.984375 70.515625 
L 54.984375 -17.671875 
z
M 10.59375 -12.109375 
L 49.421875 -12.109375 
L 49.421875 64.890625 
L 10.59375 64.890625 
z
" id="DejaVuSans-9"/>
     <path d="M 2.984375 54.6875 
L 12.5 54.6875 
L 29.59375 8.796875 
L 46.6875 54.6875 
L 56.203125 54.6875 
L 35.6875 0 
L 23.484375 0 
z
" id="DejaVuSans-76"/>
     <path d="M 44.28125 53.078125 
L 44.28125 44.578125 
Q 40.484375 46.53125 36.375 47.5 
Q 32.28125 48.484375 27.875 48.484375 
Q 21.1875 48.484375 17.84375 46.4375 
Q 14.5 44.390625 14.5 40.28125 
Q 14.5 37.15625 16.890625 35.375 
Q 19.28125 33.59375 26.515625 31.984375 
L 29.59375 31.296875 
Q 39.15625 29.25 43.1875 25.515625 
Q 47.21875 21.78125 47.21875 15.09375 
Q 47.21875 7.46875 41.1875 3.015625 
Q 35.15625 -1.421875 24.609375 -1.421875 
Q 20.21875 -1.421875 15.453125 -0.5625 
Q 10.6875 0.296875 5.421875 2 
L 5.421875 11.28125 
Q 10.40625 8.6875 15.234375 7.390625 
Q 20.0625 6.109375 24.8125 6.109375 
Q 31.15625 6.109375 34.5625 8.28125 
Q 37.984375 10.453125 37.984375 14.40625 
Q 37.984375 18.0625 35.515625 20.015625 
Q 33.0625 21.96875 24.703125 23.78125 
L 21.578125 24.515625 
Q 13.234375 26.265625 9.515625 29.90625 
Q 5.8125 33.546875 5.8125 39.890625 
Q 5.8125 47.609375 11.28125 51.796875 
Q 16.75 56 26.8125 56 
Q 31.78125 56 36.171875 55.265625 
Q 40.578125 54.546875 44.28125 53.078125 
z
" id="DejaVuSans-73"/>
     <path d="M 9.8125 72.90625 
L 24.515625 72.90625 
L 43.109375 23.296875 
L 61.8125 72.90625 
L 76.515625 72.90625 
L 76.515625 0 
L 66.890625 0 
L 66.890625 64.015625 
L 48.09375 14.015625 
L 38.1875 14.015625 
L 19.390625 64.015625 
L 19.390625 0 
L 9.8125 0 
z
" id="DejaVuSans-4d"/>
     <path d="M 64.40625 67.28125 
L 64.40625 56.890625 
Q 59.421875 61.53125 53.78125 63.8125 
Q 48.140625 66.109375 41.796875 66.109375 
Q 29.296875 66.109375 22.65625 58.46875 
Q 16.015625 50.828125 16.015625 36.375 
Q 16.015625 21.96875 22.65625 14.328125 
Q 29.296875 6.6875 41.796875 6.6875 
Q 48.140625 6.6875 53.78125 8.984375 
Q 59.421875 11.28125 64.40625 15.921875 
L 64.40625 5.609375 
Q 59.234375 2.09375 53.4375 0.328125 
Q 47.65625 -1.421875 41.21875 -1.421875 
Q 24.65625 -1.421875 15.125 8.703125 
Q 5.609375 18.84375 5.609375 36.375 
Q 5.609375 53.953125 15.125 64.078125 
Q 24.65625 74.21875 41.21875 74.21875 
Q 47.75 74.21875 53.53125 72.484375 
Q 59.328125 70.75 64.40625 67.28125 
z
" id="DejaVuSans-43"/>
     <path d="M 8.6875 72.90625 
L 18.609375 72.90625 
L 18.609375 28.609375 
Q 18.609375 16.890625 22.84375 11.734375 
Q 27.09375 6.59375 36.625 6.59375 
Q 46.09375 6.59375 50.34375 11.734375 
Q 54.59375 16.890625 54.59375 28.609375 
L 54.59375 72.90625 
L 64.5 72.90625 
L 64.5 27.390625 
Q 64.5 13.140625 57.4375 5.859375 
Q 50.390625 -1.421875 36.625 -1.421875 
Q 22.796875 -1.421875 15.734375 5.859375 
Q 8.6875 13.140625 8.6875 27.390625 
z
" id="DejaVuSans-55"/>
     <path d="M 48.78125 52.59375 
L 48.78125 44.1875 
Q 44.96875 46.296875 41.140625 47.34375 
Q 37.3125 48.390625 33.40625 48.390625 
Q 24.65625 48.390625 19.8125 42.84375 
Q 14.984375 37.3125 14.984375 27.296875 
Q 14.984375 17.28125 19.8125 11.734375 
Q 24.65625 6.203125 33.40625 6.203125 
Q 37.3125 6.203125 41.140625 7.25 
Q 44.96875 8.296875 48.78125 10.40625 
L 48.78125 2.09375 
Q 45.015625 0.34375 40.984375 -0.53125 
Q 36.96875 -1.421875 32.421875 -1.421875 
Q 20.0625 -1.421875 12.78125 6.34375 
Q 5.515625 14.109375 5.515625 27.296875 
Q 5.515625 40.671875 12.859375 48.328125 
Q 20.21875 56 33.015625 56 
Q 37.15625 56 41.109375 55.140625 
Q 45.0625 54.296875 48.78125 52.59375 
z
" id="DejaVuSans-63"/>
     <path d="M 56.203125 29.59375 
L 56.203125 25.203125 
L 14.890625 25.203125 
Q 15.484375 15.921875 20.484375 11.0625 
Q 25.484375 6.203125 34.421875 6.203125 
Q 39.59375 6.203125 44.453125 7.46875 
Q 49.3125 8.734375 54.109375 11.28125 
L 54.109375 2.78125 
Q 49.265625 0.734375 44.1875 -0.34375 
Q 39.109375 -1.421875 33.890625 -1.421875 
Q 20.796875 -1.421875 13.15625 6.1875 
Q 5.515625 13.8125 5.515625 26.8125 
Q 5.515625 40.234375 12.765625 48.109375 
Q 20.015625 56 32.328125 56 
Q 43.359375 56 49.78125 48.890625 
Q 56.203125 41.796875 56.203125 29.59375 
z
M 47.21875 32.234375 
Q 47.125 39.59375 43.09375 43.984375 
Q 39.0625 48.390625 32.421875 48.390625 
Q 24.90625 48.390625 20.390625 44.140625 
Q 15.875 39.890625 15.1875 32.171875 
z
" id="DejaVuSans-65"/>
     <path d="M 32.171875 -5.078125 
Q 28.375 -14.84375 24.75 -17.8125 
Q 21.140625 -20.796875 15.09375 -20.796875 
L 7.90625 -20.796875 
L 7.90625 -13.28125 
L 13.1875 -13.28125 
Q 16.890625 -13.28125 18.9375 -11.515625 
Q 21 -9.765625 23.484375 -3.21875 
L 25.09375 0.875 
L 2.984375 54.6875 
L 12.5 54.6875 
L 29.59375 11.921875 
L 46.6875 54.6875 
L 56.203125 54.6875 
z
" id="DejaVuSans-79"/>
    </defs>
    <g transform="translate(110.584688 35.472)scale(0.12 -0.12)">
     <use xlink:href="#DejaVuSans-50"/>
     <use x="60.302734" xlink:href="#DejaVuSans-6c"/>
     <use x="88.085938" xlink:href="#DejaVuSans-6f"/>
     <use x="149.267578" xlink:href="#DejaVuSans-74"/>
     <use x="188.476562" xlink:href="#DejaVuSans-20"/>
     <use x="220.263672" xlink:href="#DejaVuSans-6f"/>
     <use x="281.445312" xlink:href="#DejaVuSans-66"/>
     <use x="316.650391" xlink:href="#DejaVuSans-20"/>
     <use x="348.4375" xlink:href="#DejaVuSans-54"/>
     <use x="409.302734" xlink:href="#DejaVuSans-72"/>
     <use x="450.416016" xlink:href="#DejaVuSans-61"/>
     <use x="511.695312" xlink:href="#DejaVuSans-69"/>
     <use x="539.478516" xlink:href="#DejaVuSans-6e"/>
     <use x="602.857422" xlink:href="#DejaVuSans-20"/>
     <use x="634.644531" xlink:href="#DejaVuSans-44"/>
     <use x="711.646484" xlink:href="#DejaVuSans-61"/>
     <use x="772.925781" xlink:href="#DejaVuSans-74"/>
     <use x="812.134766" xlink:href="#DejaVuSans-61"/>
     <use x="873.414062" xlink:href="#DejaVuSans-9"/>
     <use x="933.423828" xlink:href="#DejaVuSans-76"/>
     <use x="992.603516" xlink:href="#DejaVuSans-73"/>
     <use x="1044.703125" xlink:href="#DejaVuSans-20"/>
     <use x="1076.490234" xlink:href="#DejaVuSans-4d"/>
     <use x="1162.769531" xlink:href="#DejaVuSans-43"/>
     <use x="1232.59375" xlink:href="#DejaVuSans-4d"/>
     <use x="1318.873047" xlink:href="#DejaVuSans-43"/>
     <use x="1388.697266" xlink:href="#DejaVuSans-9"/>
     <use x="1448.707031" xlink:href="#DejaVuSans-55"/>
     <use x="1521.900391" xlink:href="#DejaVuSans-6e"/>
     <use x="1585.279297" xlink:href="#DejaVuSans-63"/>
     <use x="1640.259766" xlink:href="#DejaVuSans-65"/>
     <use x="1701.783203" xlink:href="#DejaVuSans-72"/>
     <use x="1742.896484" xlink:href="#DejaVuSans-74"/>
     <use x="1782.105469" xlink:href="#DejaVuSans-61"/>
     <use x="1843.384766" xlink:href="#DejaVuSans-69"/>
     <use x="1871.167969" xlink:href="#DejaVuSans-6e"/>
     <use x="1934.546875" xlink:href="#DejaVuSans-74"/>
     <use x="1973.755859" xlink:href="#DejaVuSans-79"/>
     <use x="2032.935547" xlink:href="#DejaVuSans-9"/>
    </g>
   </g>
   <g id="legend_1">
    <g id="patch_7">
     <path d="M 275.02 108.1845 
L 407.72 108.1845 
Q 409.72 108.1845 409.72 106.1845 
L 409.72 48.472 
Q 409.72 46.472 407.72 46.472 
L 275.02 46.472 
Q 273.02 46.472 273.02 48.472 
L 273.02 106.1845 
Q 273.02 108.1845 275.02 108.1845 
z
" style="fill:#ffffff;opacity:0.8;stroke:#cccccc;stroke-linejoin:miter;"/>
    </g>
    <g id="line2d_17">
     <path d="M 277.02 54.570438 
L 297.02 54.570438 
" style="fill:none;stroke:#66c2a5;stroke-linecap:square;stroke-width:1.5;"/>
    </g>
    <g id="line2d_18"/>
    <g id="text_14">
     <!-- actual -->
     <defs>
      <path d="M 8.5 21.578125 
L 8.5 54.6875 
L 17.484375 54.6875 
L 17.484375 21.921875 
Q 17.484375 14.15625 20.5 10.265625 
Q 23.53125 6.390625 29.59375 6.390625 
Q 36.859375 6.390625 41.078125 11.03125 
Q 45.3125 15.671875 45.3125 23.6875 
L 45.3125 54.6875 
L 54.296875 54.6875 
L 54.296875 0 
L 45.3125 0 
L 45.3125 8.40625 
Q 42.046875 3.421875 37.71875 1 
Q 33.40625 -1.421875 27.6875 -1.421875 
Q 18.265625 -1.421875 13.375 4.4375 
Q 8.5 10.296875 8.5 21.578125 
z
M 31.109375 56 
z
" id="DejaVuSans-75"/>
     </defs>
     <g transform="translate(305.02 58.070438)scale(0.1 -0.1)">
      <use xlink:href="#DejaVuSans-61"/>
      <use x="61.279297" xlink:href="#DejaVuSans-63"/>
      <use x="116.259766" xlink:href="#DejaVuSans-74"/>
      <use x="155.46875" xlink:href="#DejaVuSans-75"/>
      <use x="218.847656" xlink:href="#DejaVuSans-61"/>
      <use x="280.126953" xlink:href="#DejaVuSans-6c"/>
     </g>
    </g>
    <g id="line2d_19">
     <path d="M 277.02 69.248563 
L 297.02 69.248563 
" style="fill:none;stroke:#fc8d62;stroke-linecap:square;stroke-width:1.5;"/>
    </g>
    <g id="line2d_20"/>
    <g id="text_15">
     <!-- pred. (mean) -->
     <defs>
      <path d="M 18.109375 8.203125 
L 18.109375 -20.796875 
L 9.078125 -20.796875 
L 9.078125 54.6875 
L 18.109375 54.6875 
L 18.109375 46.390625 
Q 20.953125 51.265625 25.265625 53.625 
Q 29.59375 56 35.59375 56 
Q 45.5625 56 51.78125 48.09375 
Q 58.015625 40.1875 58.015625 27.296875 
Q 58.015625 14.40625 51.78125 6.484375 
Q 45.5625 -1.421875 35.59375 -1.421875 
Q 29.59375 -1.421875 25.265625 0.953125 
Q 20.953125 3.328125 18.109375 8.203125 
z
M 48.6875 27.296875 
Q 48.6875 37.203125 44.609375 42.84375 
Q 40.53125 48.484375 33.40625 48.484375 
Q 26.265625 48.484375 22.1875 42.84375 
Q 18.109375 37.203125 18.109375 27.296875 
Q 18.109375 17.390625 22.1875 11.75 
Q 26.265625 6.109375 33.40625 6.109375 
Q 40.53125 6.109375 44.609375 11.75 
Q 48.6875 17.390625 48.6875 27.296875 
z
" id="DejaVuSans-70"/>
      <path d="M 45.40625 46.390625 
L 45.40625 75.984375 
L 54.390625 75.984375 
L 54.390625 0 
L 45.40625 0 
L 45.40625 8.203125 
Q 42.578125 3.328125 38.25 0.953125 
Q 33.9375 -1.421875 27.875 -1.421875 
Q 17.96875 -1.421875 11.734375 6.484375 
Q 5.515625 14.40625 5.515625 27.296875 
Q 5.515625 40.1875 11.734375 48.09375 
Q 17.96875 56 27.875 56 
Q 33.9375 56 38.25 53.625 
Q 42.578125 51.265625 45.40625 46.390625 
z
M 14.796875 27.296875 
Q 14.796875 17.390625 18.875 11.75 
Q 22.953125 6.109375 30.078125 6.109375 
Q 37.203125 6.109375 41.296875 11.75 
Q 45.40625 17.390625 45.40625 27.296875 
Q 45.40625 37.203125 41.296875 42.84375 
Q 37.203125 48.484375 30.078125 48.484375 
Q 22.953125 48.484375 18.875 42.84375 
Q 14.796875 37.203125 14.796875 27.296875 
z
" id="DejaVuSans-64"/>
      <path d="M 31 75.875 
Q 24.46875 64.65625 21.28125 53.65625 
Q 18.109375 42.671875 18.109375 31.390625 
Q 18.109375 20.125 21.3125 9.0625 
Q 24.515625 -2 31 -13.1875 
L 23.1875 -13.1875 
Q 15.875 -1.703125 12.234375 9.375 
Q 8.59375 20.453125 8.59375 31.390625 
Q 8.59375 42.28125 12.203125 53.3125 
Q 15.828125 64.359375 23.1875 75.875 
z
" id="DejaVuSans-28"/>
      <path d="M 52 44.1875 
Q 55.375 50.25 60.0625 53.125 
Q 64.75 56 71.09375 56 
Q 79.640625 56 84.28125 50.015625 
Q 88.921875 44.046875 88.921875 33.015625 
L 88.921875 0 
L 79.890625 0 
L 79.890625 32.71875 
Q 79.890625 40.578125 77.09375 44.375 
Q 74.3125 48.1875 68.609375 48.1875 
Q 61.625 48.1875 57.5625 43.546875 
Q 53.515625 38.921875 53.515625 30.90625 
L 53.515625 0 
L 44.484375 0 
L 44.484375 32.71875 
Q 44.484375 40.625 41.703125 44.40625 
Q 38.921875 48.1875 33.109375 48.1875 
Q 26.21875 48.1875 22.15625 43.53125 
Q 18.109375 38.875 18.109375 30.90625 
L 18.109375 0 
L 9.078125 0 
L 9.078125 54.6875 
L 18.109375 54.6875 
L 18.109375 46.1875 
Q 21.1875 51.21875 25.484375 53.609375 
Q 29.78125 56 35.6875 56 
Q 41.65625 56 45.828125 52.96875 
Q 50 49.953125 52 44.1875 
z
" id="DejaVuSans-6d"/>
      <path d="M 8.015625 75.875 
L 15.828125 75.875 
Q 23.140625 64.359375 26.78125 53.3125 
Q 30.421875 42.28125 30.421875 31.390625 
Q 30.421875 20.453125 26.78125 9.375 
Q 23.140625 -1.703125 15.828125 -13.1875 
L 8.015625 -13.1875 
Q 14.5 -2 17.703125 9.0625 
Q 20.90625 20.125 20.90625 31.390625 
Q 20.90625 42.671875 17.703125 53.65625 
Q 14.5 64.65625 8.015625 75.875 
z
" id="DejaVuSans-29"/>
     </defs>
     <g transform="translate(305.02 72.748563)scale(0.1 -0.1)">
      <use xlink:href="#DejaVuSans-70"/>
      <use x="63.476562" xlink:href="#DejaVuSans-72"/>
      <use x="104.558594" xlink:href="#DejaVuSans-65"/>
      <use x="166.082031" xlink:href="#DejaVuSans-64"/>
      <use x="229.558594" xlink:href="#DejaVuSans-2e"/>
      <use x="261.345703" xlink:href="#DejaVuSans-20"/>
      <use x="293.132812" xlink:href="#DejaVuSans-28"/>
      <use x="332.146484" xlink:href="#DejaVuSans-6d"/>
      <use x="429.558594" xlink:href="#DejaVuSans-65"/>
      <use x="491.082031" xlink:href="#DejaVuSans-61"/>
      <use x="552.361328" xlink:href="#DejaVuSans-6e"/>
      <use x="615.740234" xlink:href="#DejaVuSans-29"/>
     </g>
    </g>
    <g id="line2d_21">
     <path d="M 277.02 83.926688 
L 297.02 83.926688 
" style="fill:none;stroke:#8da0cb;stroke-linecap:square;stroke-width:1.5;"/>
    </g>
    <g id="line2d_22"/>
    <g id="text_16">
     <!-- pred.(5th percen.) -->
     <defs>
      <path d="M 10.796875 72.90625 
L 49.515625 72.90625 
L 49.515625 64.59375 
L 19.828125 64.59375 
L 19.828125 46.734375 
Q 21.96875 47.46875 24.109375 47.828125 
Q 26.265625 48.1875 28.421875 48.1875 
Q 40.625 48.1875 47.75 41.5 
Q 54.890625 34.8125 54.890625 23.390625 
Q 54.890625 11.625 47.5625 5.09375 
Q 40.234375 -1.421875 26.90625 -1.421875 
Q 22.3125 -1.421875 17.546875 -0.640625 
Q 12.796875 0.140625 7.71875 1.703125 
L 7.71875 11.625 
Q 12.109375 9.234375 16.796875 8.0625 
Q 21.484375 6.890625 26.703125 6.890625 
Q 35.15625 6.890625 40.078125 11.328125 
Q 45.015625 15.765625 45.015625 23.390625 
Q 45.015625 31 40.078125 35.4375 
Q 35.15625 39.890625 26.703125 39.890625 
Q 22.75 39.890625 18.8125 39.015625 
Q 14.890625 38.140625 10.796875 36.28125 
z
" id="DejaVuSans-35"/>
      <path d="M 54.890625 33.015625 
L 54.890625 0 
L 45.90625 0 
L 45.90625 32.71875 
Q 45.90625 40.484375 42.875 44.328125 
Q 39.84375 48.1875 33.796875 48.1875 
Q 26.515625 48.1875 22.3125 43.546875 
Q 18.109375 38.921875 18.109375 30.90625 
L 18.109375 0 
L 9.078125 0 
L 9.078125 75.984375 
L 18.109375 75.984375 
L 18.109375 46.1875 
Q 21.34375 51.125 25.703125 53.5625 
Q 30.078125 56 35.796875 56 
Q 45.21875 56 50.046875 50.171875 
Q 54.890625 44.34375 54.890625 33.015625 
z
" id="DejaVuSans-68"/>
     </defs>
     <g transform="translate(305.02 87.426688)scale(0.1 -0.1)">
      <use xlink:href="#DejaVuSans-70"/>
      <use x="63.476562" xlink:href="#DejaVuSans-72"/>
      <use x="104.558594" xlink:href="#DejaVuSans-65"/>
      <use x="166.082031" xlink:href="#DejaVuSans-64"/>
      <use x="229.558594" xlink:href="#DejaVuSans-2e"/>
      <use x="261.345703" xlink:href="#DejaVuSans-28"/>
      <use x="300.359375" xlink:href="#DejaVuSans-35"/>
      <use x="363.982422" xlink:href="#DejaVuSans-74"/>
      <use x="403.191406" xlink:href="#DejaVuSans-68"/>
      <use x="466.570312" xlink:href="#DejaVuSans-20"/>
      <use x="498.357422" xlink:href="#DejaVuSans-70"/>
      <use x="561.833984" xlink:href="#DejaVuSans-65"/>
      <use x="623.357422" xlink:href="#DejaVuSans-72"/>
      <use x="664.439453" xlink:href="#DejaVuSans-63"/>
      <use x="719.419922" xlink:href="#DejaVuSans-65"/>
      <use x="780.943359" xlink:href="#DejaVuSans-6e"/>
      <use x="844.322266" xlink:href="#DejaVuSans-2e"/>
      <use x="876.109375" xlink:href="#DejaVuSans-29"/>
     </g>
    </g>
    <g id="line2d_23">
     <path d="M 277.02 98.604813 
L 297.02 98.604813 
" style="fill:none;stroke:#e78ac3;stroke-linecap:square;stroke-width:1.5;"/>
    </g>
    <g id="line2d_24"/>
    <g id="text_17">
     <!-- pred.(95th	percen.) -->
     <defs>
      <path d="M 10.984375 1.515625 
L 10.984375 10.5 
Q 14.703125 8.734375 18.5 7.8125 
Q 22.3125 6.890625 25.984375 6.890625 
Q 35.75 6.890625 40.890625 13.453125 
Q 46.046875 20.015625 46.78125 33.40625 
Q 43.953125 29.203125 39.59375 26.953125 
Q 35.25 24.703125 29.984375 24.703125 
Q 19.046875 24.703125 12.671875 31.3125 
Q 6.296875 37.9375 6.296875 49.421875 
Q 6.296875 60.640625 12.9375 67.421875 
Q 19.578125 74.21875 30.609375 74.21875 
Q 43.265625 74.21875 49.921875 64.515625 
Q 56.59375 54.828125 56.59375 36.375 
Q 56.59375 19.140625 48.40625 8.859375 
Q 40.234375 -1.421875 26.421875 -1.421875 
Q 22.703125 -1.421875 18.890625 -0.6875 
Q 15.09375 0.046875 10.984375 1.515625 
z
M 30.609375 32.421875 
Q 37.25 32.421875 41.125 36.953125 
Q 45.015625 41.5 45.015625 49.421875 
Q 45.015625 57.28125 41.125 61.84375 
Q 37.25 66.40625 30.609375 66.40625 
Q 23.96875 66.40625 20.09375 61.84375 
Q 16.21875 57.28125 16.21875 49.421875 
Q 16.21875 41.5 20.09375 36.953125 
Q 23.96875 32.421875 30.609375 32.421875 
z
" id="DejaVuSans-39"/>
     </defs>
     <g transform="translate(305.02 102.104813)scale(0.1 -0.1)">
      <use xlink:href="#DejaVuSans-70"/>
      <use x="63.476562" xlink:href="#DejaVuSans-72"/>
      <use x="104.558594" xlink:href="#DejaVuSans-65"/>
      <use x="166.082031" xlink:href="#DejaVuSans-64"/>
      <use x="229.558594" xlink:href="#DejaVuSans-2e"/>
      <use x="261.345703" xlink:href="#DejaVuSans-28"/>
      <use x="300.359375" xlink:href="#DejaVuSans-39"/>
      <use x="363.982422" xlink:href="#DejaVuSans-35"/>
      <use x="427.605469" xlink:href="#DejaVuSans-74"/>
      <use x="466.814453" xlink:href="#DejaVuSans-68"/>
      <use x="530.193359" xlink:href="#DejaVuSans-9"/>
      <use x="590.203125" xlink:href="#DejaVuSans-70"/>
      <use x="653.679688" xlink:href="#DejaVuSans-65"/>
      <use x="715.203125" xlink:href="#DejaVuSans-72"/>
      <use x="756.285156" xlink:href="#DejaVuSans-63"/>
      <use x="811.265625" xlink:href="#DejaVuSans-65"/>
      <use x="872.789062" xlink:href="#DejaVuSans-6e"/>
      <use x="936.167969" xlink:href="#DejaVuSans-2e"/>
      <use x="967.955078" xlink:href="#DejaVuSans-29"/>
     </g>
    </g>
   </g>
  </g>
 </g>
 <defs>
  <clipPath id="pee273fca1d">
   <rect height="266.112" width="357.12" x="57.6" y="41.472"/>
  </clipPath>
 </defs>
</svg>
