<?xml version="1.0" encoding="utf-8" standalone="no"?>
<!DOCTYPE svg PUBLIC "-//W3C//DTD SVG 1.1//EN"
  "http://www.w3.org/Graphics/SVG/1.1/DTD/svg11.dtd">
<!-- Created with matplotlib (http://matplotlib.org/) -->
<svg height="345.6pt" version="1.1" viewBox="0 0 460.8 345.6" width="460.8pt" xmlns="http://www.w3.org/2000/svg" xmlns:xlink="http://www.w3.org/1999/xlink">
 <defs>
  <style type="text/css">
*{stroke-linecap:butt;stroke-linejoin:round;}
  </style>
 </defs>
 <g id="figure_1">
  <g id="patch_1">
   <path d="M 0 345.6 
L 460.8 345.6 
L 460.8 0 
L 0 0 
z
" style="fill:#ffffff;"/>
  </g>
  <g id="axes_1">
   <g id="patch_2">
    <path d="M 57.6 307.584 
L 414.72 307.584 
L 414.72 41.472 
L 57.6 41.472 
z
" style="fill:#ffffff;"/>
   </g>
   <g id="PolyCollection_1">
    <path clip-path="url(#pf2130f96ad)" d="M 73.832727 99.958847 
L 73.832727 213.143155 
L 75.48072 214.13552 
L 77.128713 212.540064 
L 78.776705 212.183867 
L 80.424698 209.921992 
L 82.07269 206.623931 
L 83.720683 205.718668 
L 85.368676 205.105182 
L 87.016668 207.696628 
L 88.664661 207.211976 
L 90.312653 205.718628 
L 91.960646 205.187128 
L 93.608639 204.292762 
L 95.256631 204.586897 
L 96.904624 207.837466 
L 98.552617 220.704197 
L 100.200609 230.360134 
L 101.848602 237.36276 
L 103.496594 243.172886 
L 105.144587 251.519856 
L 106.79258 256.77521 
L 108.440572 258.530402 
L 110.088565 259.506085 
L 111.736557 259.165524 
L 113.38455 258.566936 
L 115.032543 258.816428 
L 116.680535 260.469198 
L 118.328528 263.374764 
L 119.976521 264.822348 
L 121.624513 265.650972 
L 123.272506 266.841477 
L 124.920498 267.244018 
L 126.568491 267.477237 
L 128.216484 266.71587 
L 129.864476 265.917382 
L 131.512469 266.415923 
L 133.160461 266.73328 
L 134.808454 267.119562 
L 136.456447 267.375305 
L 138.104439 267.810026 
L 139.752432 267.31598 
L 141.400425 266.080281 
L 143.048417 264.387571 
L 144.69641 261.490429 
L 146.344402 254.918963 
L 147.992395 245.20921 
L 149.640388 234.986078 
L 151.28838 224.202717 
L 152.936373 211.8791 
L 154.584365 208.759826 
L 156.232358 209.363981 
L 157.880351 210.787261 
L 159.528343 211.475583 
L 161.176336 213.597027 
L 162.824329 213.431909 
L 164.472321 214.324825 
L 166.120314 215.187486 
L 167.768306 216.765715 
L 169.416299 217.450752 
L 171.064292 217.638381 
L 172.712284 217.842197 
L 174.360277 217.444529 
L 176.008269 218.543033 
L 177.656262 216.428573 
L 179.304255 215.228963 
L 180.952247 213.620055 
L 182.60024 212.870287 
L 184.248233 212.853101 
L 185.896225 209.079992 
L 187.544218 208.109283 
L 189.19221 208.624064 
L 190.840203 208.434764 
L 192.488196 207.57028 
L 194.136188 205.59742 
L 195.784181 204.337597 
L 197.432174 204.360123 
L 199.080166 204.272947 
L 200.728159 205.026352 
L 202.376151 207.549747 
L 204.024144 212.687612 
L 205.672137 219.323107 
L 207.320129 225.501446 
L 208.968122 230.322904 
L 210.616114 235.722335 
L 212.264107 237.993753 
L 213.9121 238.178995 
L 215.560092 238.127778 
L 217.208085 238.441651 
L 218.856078 237.903858 
L 220.50407 236.45808 
L 222.152063 240.101923 
L 223.800055 244.459208 
L 225.448048 246.850909 
L 227.096041 249.60911 
L 228.744033 254.953172 
L 230.392026 258.935833 
L 232.040018 260.477699 
L 233.688011 260.926349 
L 235.336004 261.063998 
L 236.983996 261.525084 
L 238.631989 261.741302 
L 240.279982 262.533338 
L 241.927974 264.20403 
L 243.575967 265.968591 
L 245.223959 267.464882 
L 246.871952 268.526882 
L 248.519945 269.604244 
L 250.167937 270.09837 
L 251.81593 269.942397 
L 253.463922 269.649514 
L 255.111915 270.010373 
L 256.759908 270.178793 
L 258.4079 269.344605 
L 260.055893 268.227695 
L 261.703886 267.171041 
L 263.351878 265.154565 
L 264.999871 262.0883 
L 266.647863 257.750285 
L 268.295856 252.985211 
L 269.943849 246.113032 
L 271.591841 238.412298 
L 273.239834 232.640713 
L 274.887826 225.535869 
L 276.535819 217.780149 
L 278.183812 210.936644 
L 279.831804 207.979004 
L 281.479797 207.566253 
L 283.12779 206.709716 
L 284.775782 206.460785 
L 286.423775 207.005236 
L 288.071767 209.464977 
L 289.71976 210.306776 
L 291.367753 206.950861 
L 293.015745 208.181575 
L 294.663738 209.543803 
L 296.311731 209.530284 
L 297.959723 205.746975 
L 299.607716 205.150135 
L 301.255708 210.25107 
L 302.903701 209.023855 
L 304.551694 206.392232 
L 306.199686 206.157211 
L 307.847679 209.950029 
L 309.495671 208.736284 
L 311.143664 203.588804 
L 312.791657 204.419043 
L 314.439649 205.866642 
L 316.087642 206.699205 
L 317.735635 205.380846 
L 319.383627 204.860165 
L 321.03162 206.837907 
L 322.679612 206.325338 
L 324.327605 204.731671 
L 325.975598 203.544418 
L 327.62359 206.713684 
L 329.271583 207.511791 
L 330.919575 208.452385 
L 332.567568 217.637358 
L 334.215561 224.292566 
L 335.863553 229.40013 
L 337.511546 235.606648 
L 339.159539 245.838132 
L 340.807531 253.803566 
L 342.455524 256.898137 
L 344.103516 258.60459 
L 345.751509 260.803767 
L 347.399502 264.530787 
L 349.047494 266.965041 
L 350.695487 267.825633 
L 352.343479 268.915479 
L 353.991472 269.718567 
L 355.639465 269.925372 
L 357.287457 269.767041 
L 358.93545 269.54391 
L 360.583443 269.284817 
L 362.231435 269.478247 
L 363.879428 270.080152 
L 365.52742 270.522038 
L 367.175413 270.983361 
L 368.823406 271.356648 
L 370.471398 271.419462 
L 372.119391 270.728462 
L 373.767383 269.374439 
L 375.415376 268.100286 
L 377.063369 266.648824 
L 378.711361 264.283299 
L 380.359354 259.433636 
L 382.007347 252.171984 
L 383.655339 242.862824 
L 385.303332 228.012365 
L 386.951324 211.555313 
L 388.599317 206.960091 
L 390.24731 206.915795 
L 391.895302 208.64433 
L 393.543295 208.387491 
L 395.191287 205.336049 
L 396.83928 206.323329 
L 398.487273 208.664833 
L 398.487273 112.955187 
L 398.487273 112.955187 
L 396.83928 114.977393 
L 395.191287 113.925118 
L 393.543295 112.092253 
L 391.895302 114.67677 
L 390.24731 118.20449 
L 388.599317 120.457061 
L 386.951324 122.32945 
L 385.303332 126.313592 
L 383.655339 130.578135 
L 382.007347 132.805232 
L 380.359354 133.634652 
L 378.711361 134.742244 
L 377.063369 135.159623 
L 375.415376 135.485173 
L 373.767383 135.723239 
L 372.119391 135.885715 
L 370.471398 136.0461 
L 368.823406 136.10113 
L 367.175413 135.985557 
L 365.52742 135.864023 
L 363.879428 135.890977 
L 362.231435 135.776959 
L 360.583443 135.703978 
L 358.93545 135.775747 
L 357.287457 135.818757 
L 355.639465 135.81071 
L 353.991472 135.733328 
L 352.343479 135.585245 
L 350.695487 135.36184 
L 349.047494 135.335588 
L 347.399502 134.863103 
L 345.751509 134.167306 
L 344.103516 133.849212 
L 342.455524 133.548118 
L 340.807531 133.176751 
L 339.159539 131.861067 
L 337.511546 130.136256 
L 335.863553 128.928036 
L 334.215561 127.880741 
L 332.567568 126.65141 
L 330.919575 124.642607 
L 329.271583 123.248938 
L 327.62359 123.665599 
L 325.975598 122.330045 
L 324.327605 118.390648 
L 322.679612 116.701014 
L 321.03162 117.559743 
L 319.383627 119.057565 
L 317.735635 117.570799 
L 316.087642 116.812822 
L 314.439649 118.212879 
L 312.791657 117.778763 
L 311.143664 113.541812 
L 309.495671 108.215862 
L 307.847679 110.193563 
L 306.199686 113.267804 
L 304.551694 110.294278 
L 302.903701 107.759781 
L 301.255708 110.414649 
L 299.607716 114.002078 
L 297.959723 109.542874 
L 296.311731 105.642437 
L 294.663738 107.705915 
L 293.015745 109.876889 
L 291.367753 109.27901 
L 289.71976 107.530186 
L 288.071767 112.217205 
L 286.423775 115.42377 
L 284.775782 117.213153 
L 283.12779 118.247072 
L 281.479797 119.714507 
L 279.831804 123.573484 
L 278.183812 123.985255 
L 276.535819 125.230108 
L 274.887826 127.371374 
L 273.239834 129.034193 
L 271.591841 130.060344 
L 269.943849 131.6565 
L 268.295856 132.95867 
L 266.647863 133.501544 
L 264.999871 134.315619 
L 263.351878 134.859283 
L 261.703886 135.261316 
L 260.055893 135.521257 
L 258.4079 135.686248 
L 256.759908 135.869102 
L 255.111915 135.888082 
L 253.463922 135.810083 
L 251.81593 135.822272 
L 250.167937 135.85232 
L 248.519945 135.740755 
L 246.871952 135.497256 
L 245.223959 135.315941 
L 243.575967 135.115988 
L 241.927974 134.764857 
L 240.279982 134.494908 
L 238.631989 134.34482 
L 236.983996 134.292939 
L 235.336004 134.216711 
L 233.688011 134.248686 
L 232.040018 134.207866 
L 230.392026 133.901747 
L 228.744033 133.416678 
L 227.096041 132.480471 
L 225.448048 132.234703 
L 223.800055 131.721547 
L 222.152063 130.971541 
L 220.50407 130.187391 
L 218.856078 130.302838 
L 217.208085 130.692941 
L 215.560092 130.490038 
L 213.9121 130.654184 
L 212.264107 130.499153 
L 210.616114 130.262224 
L 208.968122 129.183476 
L 207.320129 128.051822 
L 205.672137 126.827355 
L 204.024144 125.47604 
L 202.376151 124.186849 
L 200.728159 123.162791 
L 199.080166 121.615618 
L 197.432174 119.068768 
L 195.784181 116.082379 
L 194.136188 112.089756 
L 192.488196 108.766346 
L 190.840203 106.256654 
L 189.19221 105.00071 
L 187.544218 100.805243 
L 185.896225 90.263417 
L 184.248233 83.242487 
L 182.60024 78.691715 
L 180.952247 69.651671 
L 179.304255 61.756924 
L 177.656262 54.819259 
L 176.008269 53.568 
L 174.360277 55.460328 
L 172.712284 55.767991 
L 171.064292 59.714737 
L 169.416299 64.958473 
L 167.768306 71.900349 
L 166.120314 78.513829 
L 164.472321 83.721002 
L 162.824329 88.097518 
L 161.176336 94.662889 
L 159.528343 102.429668 
L 157.880351 107.716439 
L 156.232358 113.229629 
L 154.584365 117.214647 
L 152.936373 122.048291 
L 151.28838 126.490469 
L 149.640388 129.027756 
L 147.992395 131.370707 
L 146.344402 133.043432 
L 144.69641 134.203937 
L 143.048417 134.727119 
L 141.400425 135.08216 
L 139.752432 135.29199 
L 138.104439 135.34358 
L 136.456447 135.313033 
L 134.808454 135.2723 
L 133.160461 135.25762 
L 131.512469 135.209705 
L 129.864476 135.166302 
L 128.216484 135.149238 
L 126.568491 135.323878 
L 124.920498 135.299915 
L 123.272506 135.305608 
L 121.624513 135.047173 
L 119.976521 134.962804 
L 118.328528 134.6377 
L 116.680535 134.148392 
L 115.032543 133.824807 
L 113.38455 133.745665 
L 111.736557 133.820927 
L 110.088565 133.980847 
L 108.440572 133.844255 
L 106.79258 133.651797 
L 105.144587 132.805671 
L 103.496594 131.609555 
L 101.848602 130.5434 
L 100.200609 129.226157 
L 98.552617 127.173524 
L 96.904624 124.594024 
L 95.256631 121.298992 
L 93.608639 119.516851 
L 91.960646 116.406171 
L 90.312653 114.362121 
L 88.664661 112.937169 
L 87.016668 113.762586 
L 85.368676 114.694867 
L 83.720683 110.602397 
L 82.07269 102.235893 
L 80.424698 92.688934 
L 78.776705 88.893902 
L 77.128713 86.671835 
L 75.48072 90.124299 
L 73.832727 99.958847 
z
" style="fill:#008000;fill-opacity:0.4;"/>
   </g>
   <g id="matplotlib.axis_1">
    <g id="xtick_1">
     <g id="line2d_1">
      <defs>
       <path d="M 0 0 
L 0 3.5 
" id="m3f6ad6a236" style="stroke:#000000;stroke-width:0.8;"/>
      </defs>
      <g>
       <use style="stroke:#000000;stroke-width:0.8;" x="73.832727" xlink:href="#m3f6ad6a236" y="307.584"/>
      </g>
     </g>
     <g id="text_1">
      <!-- 0.0 -->
      <defs>
       <path d="M 31.78125 66.40625 
Q 24.171875 66.40625 20.328125 58.90625 
Q 16.5 51.421875 16.5 36.375 
Q 16.5 21.390625 20.328125 13.890625 
Q 24.171875 6.390625 31.78125 6.390625 
Q 39.453125 6.390625 43.28125 13.890625 
Q 47.125 21.390625 47.125 36.375 
Q 47.125 51.421875 43.28125 58.90625 
Q 39.453125 66.40625 31.78125 66.40625 
z
M 31.78125 74.21875 
Q 44.046875 74.21875 50.515625 64.515625 
Q 56.984375 54.828125 56.984375 36.375 
Q 56.984375 17.96875 50.515625 8.265625 
Q 44.046875 -1.421875 31.78125 -1.421875 
Q 19.53125 -1.421875 13.0625 8.265625 
Q 6.59375 17.96875 6.59375 36.375 
Q 6.59375 54.828125 13.0625 64.515625 
Q 19.53125 74.21875 31.78125 74.21875 
z
" id="DejaVuSans-30"/>
       <path d="M 10.6875 12.40625 
L 21 12.40625 
L 21 0 
L 10.6875 0 
z
" id="DejaVuSans-2e"/>
      </defs>
      <g transform="translate(65.881165 322.182437)scale(0.1 -0.1)">
       <use xlink:href="#DejaVuSans-30"/>
       <use x="63.623047" xlink:href="#DejaVuSans-2e"/>
       <use x="95.410156" xlink:href="#DejaVuSans-30"/>
      </g>
     </g>
    </g>
    <g id="xtick_2">
     <g id="line2d_2">
      <g>
       <use style="stroke:#000000;stroke-width:0.8;" x="138.763636" xlink:href="#m3f6ad6a236" y="307.584"/>
      </g>
     </g>
     <g id="text_2">
      <!-- 0.2 -->
      <defs>
       <path d="M 19.1875 8.296875 
L 53.609375 8.296875 
L 53.609375 0 
L 7.328125 0 
L 7.328125 8.296875 
Q 12.9375 14.109375 22.625 23.890625 
Q 32.328125 33.6875 34.8125 36.53125 
Q 39.546875 41.84375 41.421875 45.53125 
Q 43.3125 49.21875 43.3125 52.78125 
Q 43.3125 58.59375 39.234375 62.25 
Q 35.15625 65.921875 28.609375 65.921875 
Q 23.96875 65.921875 18.8125 64.3125 
Q 13.671875 62.703125 7.8125 59.421875 
L 7.8125 69.390625 
Q 13.765625 71.78125 18.9375 73 
Q 24.125 74.21875 28.421875 74.21875 
Q 39.75 74.21875 46.484375 68.546875 
Q 53.21875 62.890625 53.21875 53.421875 
Q 53.21875 48.921875 51.53125 44.890625 
Q 49.859375 40.875 45.40625 35.40625 
Q 44.1875 33.984375 37.640625 27.21875 
Q 31.109375 20.453125 19.1875 8.296875 
z
" id="DejaVuSans-32"/>
      </defs>
      <g transform="translate(130.812074 322.182437)scale(0.1 -0.1)">
       <use xlink:href="#DejaVuSans-30"/>
       <use x="63.623047" xlink:href="#DejaVuSans-2e"/>
       <use x="95.410156" xlink:href="#DejaVuSans-32"/>
      </g>
     </g>
    </g>
    <g id="xtick_3">
     <g id="line2d_3">
      <g>
       <use style="stroke:#000000;stroke-width:0.8;" x="203.694545" xlink:href="#m3f6ad6a236" y="307.584"/>
      </g>
     </g>
     <g id="text_3">
      <!-- 0.4 -->
      <defs>
       <path d="M 37.796875 64.3125 
L 12.890625 25.390625 
L 37.796875 25.390625 
z
M 35.203125 72.90625 
L 47.609375 72.90625 
L 47.609375 25.390625 
L 58.015625 25.390625 
L 58.015625 17.1875 
L 47.609375 17.1875 
L 47.609375 0 
L 37.796875 0 
L 37.796875 17.1875 
L 4.890625 17.1875 
L 4.890625 26.703125 
z
" id="DejaVuSans-34"/>
      </defs>
      <g transform="translate(195.742983 322.182437)scale(0.1 -0.1)">
       <use xlink:href="#DejaVuSans-30"/>
       <use x="63.623047" xlink:href="#DejaVuSans-2e"/>
       <use x="95.410156" xlink:href="#DejaVuSans-34"/>
      </g>
     </g>
    </g>
    <g id="xtick_4">
     <g id="line2d_4">
      <g>
       <use style="stroke:#000000;stroke-width:0.8;" x="268.625455" xlink:href="#m3f6ad6a236" y="307.584"/>
      </g>
     </g>
     <g id="text_4">
      <!-- 0.6 -->
      <defs>
       <path d="M 33.015625 40.375 
Q 26.375 40.375 22.484375 35.828125 
Q 18.609375 31.296875 18.609375 23.390625 
Q 18.609375 15.53125 22.484375 10.953125 
Q 26.375 6.390625 33.015625 6.390625 
Q 39.65625 6.390625 43.53125 10.953125 
Q 47.40625 15.53125 47.40625 23.390625 
Q 47.40625 31.296875 43.53125 35.828125 
Q 39.65625 40.375 33.015625 40.375 
z
M 52.59375 71.296875 
L 52.59375 62.3125 
Q 48.875 64.0625 45.09375 64.984375 
Q 41.3125 65.921875 37.59375 65.921875 
Q 27.828125 65.921875 22.671875 59.328125 
Q 17.53125 52.734375 16.796875 39.40625 
Q 19.671875 43.65625 24.015625 45.921875 
Q 28.375 48.1875 33.59375 48.1875 
Q 44.578125 48.1875 50.953125 41.515625 
Q 57.328125 34.859375 57.328125 23.390625 
Q 57.328125 12.15625 50.6875 5.359375 
Q 44.046875 -1.421875 33.015625 -1.421875 
Q 20.359375 -1.421875 13.671875 8.265625 
Q 6.984375 17.96875 6.984375 36.375 
Q 6.984375 53.65625 15.1875 63.9375 
Q 23.390625 74.21875 37.203125 74.21875 
Q 40.921875 74.21875 44.703125 73.484375 
Q 48.484375 72.75 52.59375 71.296875 
z
" id="DejaVuSans-36"/>
      </defs>
      <g transform="translate(260.673892 322.182437)scale(0.1 -0.1)">
       <use xlink:href="#DejaVuSans-30"/>
       <use x="63.623047" xlink:href="#DejaVuSans-2e"/>
       <use x="95.410156" xlink:href="#DejaVuSans-36"/>
      </g>
     </g>
    </g>
    <g id="xtick_5">
     <g id="line2d_5">
      <g>
       <use style="stroke:#000000;stroke-width:0.8;" x="333.556364" xlink:href="#m3f6ad6a236" y="307.584"/>
      </g>
     </g>
     <g id="text_5">
      <!-- 0.8 -->
      <defs>
       <path d="M 31.78125 34.625 
Q 24.75 34.625 20.71875 30.859375 
Q 16.703125 27.09375 16.703125 20.515625 
Q 16.703125 13.921875 20.71875 10.15625 
Q 24.75 6.390625 31.78125 6.390625 
Q 38.8125 6.390625 42.859375 10.171875 
Q 46.921875 13.96875 46.921875 20.515625 
Q 46.921875 27.09375 42.890625 30.859375 
Q 38.875 34.625 31.78125 34.625 
z
M 21.921875 38.8125 
Q 15.578125 40.375 12.03125 44.71875 
Q 8.5 49.078125 8.5 55.328125 
Q 8.5 64.0625 14.71875 69.140625 
Q 20.953125 74.21875 31.78125 74.21875 
Q 42.671875 74.21875 48.875 69.140625 
Q 55.078125 64.0625 55.078125 55.328125 
Q 55.078125 49.078125 51.53125 44.71875 
Q 48 40.375 41.703125 38.8125 
Q 48.828125 37.15625 52.796875 32.3125 
Q 56.78125 27.484375 56.78125 20.515625 
Q 56.78125 9.90625 50.3125 4.234375 
Q 43.84375 -1.421875 31.78125 -1.421875 
Q 19.734375 -1.421875 13.25 4.234375 
Q 6.78125 9.90625 6.78125 20.515625 
Q 6.78125 27.484375 10.78125 32.3125 
Q 14.796875 37.15625 21.921875 38.8125 
z
M 18.3125 54.390625 
Q 18.3125 48.734375 21.84375 45.5625 
Q 25.390625 42.390625 31.78125 42.390625 
Q 38.140625 42.390625 41.71875 45.5625 
Q 45.3125 48.734375 45.3125 54.390625 
Q 45.3125 60.0625 41.71875 63.234375 
Q 38.140625 66.40625 31.78125 66.40625 
Q 25.390625 66.40625 21.84375 63.234375 
Q 18.3125 60.0625 18.3125 54.390625 
z
" id="DejaVuSans-38"/>
      </defs>
      <g transform="translate(325.604801 322.182437)scale(0.1 -0.1)">
       <use xlink:href="#DejaVuSans-30"/>
       <use x="63.623047" xlink:href="#DejaVuSans-2e"/>
       <use x="95.410156" xlink:href="#DejaVuSans-38"/>
      </g>
     </g>
    </g>
    <g id="xtick_6">
     <g id="line2d_6">
      <g>
       <use style="stroke:#000000;stroke-width:0.8;" x="398.487273" xlink:href="#m3f6ad6a236" y="307.584"/>
      </g>
     </g>
     <g id="text_6">
      <!-- 1.0 -->
      <defs>
       <path d="M 12.40625 8.296875 
L 28.515625 8.296875 
L 28.515625 63.921875 
L 10.984375 60.40625 
L 10.984375 69.390625 
L 28.421875 72.90625 
L 38.28125 72.90625 
L 38.28125 8.296875 
L 54.390625 8.296875 
L 54.390625 0 
L 12.40625 0 
z
" id="DejaVuSans-31"/>
      </defs>
      <g transform="translate(390.53571 322.182437)scale(0.1 -0.1)">
       <use xlink:href="#DejaVuSans-31"/>
       <use x="63.623047" xlink:href="#DejaVuSans-2e"/>
       <use x="95.410156" xlink:href="#DejaVuSans-30"/>
      </g>
     </g>
    </g>
   </g>
   <g id="matplotlib.axis_2">
    <g id="ytick_1">
     <g id="line2d_7">
      <defs>
       <path d="M 0 0 
L -3.5 0 
" id="m248c08e914" style="stroke:#000000;stroke-width:0.8;"/>
      </defs>
      <g>
       <use style="stroke:#000000;stroke-width:0.8;" x="57.6" xlink:href="#m248c08e914" y="299.45613"/>
      </g>
     </g>
     <g id="text_7">
      <!-- 0.0 -->
      <g transform="translate(34.696875 303.255348)scale(0.1 -0.1)">
       <use xlink:href="#DejaVuSans-30"/>
       <use x="63.623047" xlink:href="#DejaVuSans-2e"/>
       <use x="95.410156" xlink:href="#DejaVuSans-30"/>
      </g>
     </g>
    </g>
    <g id="ytick_2">
     <g id="line2d_8">
      <g>
       <use style="stroke:#000000;stroke-width:0.8;" x="57.6" xlink:href="#m248c08e914" y="260.330418"/>
      </g>
     </g>
     <g id="text_8">
      <!-- 0.1 -->
      <g transform="translate(34.696875 264.129637)scale(0.1 -0.1)">
       <use xlink:href="#DejaVuSans-30"/>
       <use x="63.623047" xlink:href="#DejaVuSans-2e"/>
       <use x="95.410156" xlink:href="#DejaVuSans-31"/>
      </g>
     </g>
    </g>
    <g id="ytick_3">
     <g id="line2d_9">
      <g>
       <use style="stroke:#000000;stroke-width:0.8;" x="57.6" xlink:href="#m248c08e914" y="221.204707"/>
      </g>
     </g>
     <g id="text_9">
      <!-- 0.2 -->
      <g transform="translate(34.696875 225.003925)scale(0.1 -0.1)">
       <use xlink:href="#DejaVuSans-30"/>
       <use x="63.623047" xlink:href="#DejaVuSans-2e"/>
       <use x="95.410156" xlink:href="#DejaVuSans-32"/>
      </g>
     </g>
    </g>
    <g id="ytick_4">
     <g id="line2d_10">
      <g>
       <use style="stroke:#000000;stroke-width:0.8;" x="57.6" xlink:href="#m248c08e914" y="182.078995"/>
      </g>
     </g>
     <g id="text_10">
      <!-- 0.3 -->
      <defs>
       <path d="M 40.578125 39.3125 
Q 47.65625 37.796875 51.625 33 
Q 55.609375 28.21875 55.609375 21.1875 
Q 55.609375 10.40625 48.1875 4.484375 
Q 40.765625 -1.421875 27.09375 -1.421875 
Q 22.515625 -1.421875 17.65625 -0.515625 
Q 12.796875 0.390625 7.625 2.203125 
L 7.625 11.71875 
Q 11.71875 9.328125 16.59375 8.109375 
Q 21.484375 6.890625 26.8125 6.890625 
Q 36.078125 6.890625 40.9375 10.546875 
Q 45.796875 14.203125 45.796875 21.1875 
Q 45.796875 27.640625 41.28125 31.265625 
Q 36.765625 34.90625 28.71875 34.90625 
L 20.21875 34.90625 
L 20.21875 43.015625 
L 29.109375 43.015625 
Q 36.375 43.015625 40.234375 45.921875 
Q 44.09375 48.828125 44.09375 54.296875 
Q 44.09375 59.90625 40.109375 62.90625 
Q 36.140625 65.921875 28.71875 65.921875 
Q 24.65625 65.921875 20.015625 65.03125 
Q 15.375 64.15625 9.8125 62.3125 
L 9.8125 71.09375 
Q 15.4375 72.65625 20.34375 73.4375 
Q 25.25 74.21875 29.59375 74.21875 
Q 40.828125 74.21875 47.359375 69.109375 
Q 53.90625 64.015625 53.90625 55.328125 
Q 53.90625 49.265625 50.4375 45.09375 
Q 46.96875 40.921875 40.578125 39.3125 
z
" id="DejaVuSans-33"/>
      </defs>
      <g transform="translate(34.696875 185.878214)scale(0.1 -0.1)">
       <use xlink:href="#DejaVuSans-30"/>
       <use x="63.623047" xlink:href="#DejaVuSans-2e"/>
       <use x="95.410156" xlink:href="#DejaVuSans-33"/>
      </g>
     </g>
    </g>
    <g id="ytick_5">
     <g id="line2d_11">
      <g>
       <use style="stroke:#000000;stroke-width:0.8;" x="57.6" xlink:href="#m248c08e914" y="142.953284"/>
      </g>
     </g>
     <g id="text_11">
      <!-- 0.4 -->
      <g transform="translate(34.696875 146.752503)scale(0.1 -0.1)">
       <use xlink:href="#DejaVuSans-30"/>
       <use x="63.623047" xlink:href="#DejaVuSans-2e"/>
       <use x="95.410156" xlink:href="#DejaVuSans-34"/>
      </g>
     </g>
    </g>
    <g id="ytick_6">
     <g id="line2d_12">
      <g>
       <use style="stroke:#000000;stroke-width:0.8;" x="57.6" xlink:href="#m248c08e914" y="103.827572"/>
      </g>
     </g>
     <g id="text_12">
      <!-- 0.5 -->
      <defs>
       <path d="M 10.796875 72.90625 
L 49.515625 72.90625 
L 49.515625 64.59375 
L 19.828125 64.59375 
L 19.828125 46.734375 
Q 21.96875 47.46875 24.109375 47.828125 
Q 26.265625 48.1875 28.421875 48.1875 
Q 40.625 48.1875 47.75 41.5 
Q 54.890625 34.8125 54.890625 23.390625 
Q 54.890625 11.625 47.5625 5.09375 
Q 40.234375 -1.421875 26.90625 -1.421875 
Q 22.3125 -1.421875 17.546875 -0.640625 
Q 12.796875 0.140625 7.71875 1.703125 
L 7.71875 11.625 
Q 12.109375 9.234375 16.796875 8.0625 
Q 21.484375 6.890625 26.703125 6.890625 
Q 35.15625 6.890625 40.078125 11.328125 
Q 45.015625 15.765625 45.015625 23.390625 
Q 45.015625 31 40.078125 35.4375 
Q 35.15625 39.890625 26.703125 39.890625 
Q 22.75 39.890625 18.8125 39.015625 
Q 14.890625 38.140625 10.796875 36.28125 
z
" id="DejaVuSans-35"/>
      </defs>
      <g transform="translate(34.696875 107.626791)scale(0.1 -0.1)">
       <use xlink:href="#DejaVuSans-30"/>
       <use x="63.623047" xlink:href="#DejaVuSans-2e"/>
       <use x="95.410156" xlink:href="#DejaVuSans-35"/>
      </g>
     </g>
    </g>
    <g id="ytick_7">
     <g id="line2d_13">
      <g>
       <use style="stroke:#000000;stroke-width:0.8;" x="57.6" xlink:href="#m248c08e914" y="64.701861"/>
      </g>
     </g>
     <g id="text_13">
      <!-- 0.6 -->
      <g transform="translate(34.696875 68.50108)scale(0.1 -0.1)">
       <use xlink:href="#DejaVuSans-30"/>
       <use x="63.623047" xlink:href="#DejaVuSans-2e"/>
       <use x="95.410156" xlink:href="#DejaVuSans-36"/>
      </g>
     </g>
    </g>
   </g>
   <g id="line2d_14">
    <path clip-path="url(#pf2130f96ad)" d="M 73.832727 106.340617 
L 75.48072 102.107997 
L 77.128713 109.779767 
L 78.776705 110.573236 
L 80.424698 128.297575 
L 82.07269 143.905604 
L 83.720683 156.074482 
L 85.368676 153.429193 
L 87.016668 147.609243 
L 88.664661 154.222662 
L 90.312653 159.249143 
L 91.960646 169.830691 
L 93.608639 174.59229 
L 95.256631 191.25867 
L 96.904624 209.247498 
L 100.200609 231.204456 
L 101.848602 237.817875 
L 103.496594 255.013234 
L 105.144587 262.684847 
L 106.79258 265.065725 
L 108.440572 267.97566 
L 110.088565 265.859351 
L 111.736557 265.065725 
L 113.38455 265.065725 
L 115.032543 269.298383 
L 116.680535 276.705546 
L 118.328528 278.821895 
L 119.976521 280.144578 
L 121.624513 284.112708 
L 123.272506 284.112708 
L 124.920498 285.435431 
L 126.568491 282.260927 
L 128.216484 280.673675 
L 129.864476 283.054553 
L 131.512469 282.790024 
L 133.160461 284.377237 
L 134.808454 284.641805 
L 136.456447 286.229057 
L 138.104439 284.112708 
L 139.752432 280.938204 
L 141.400425 276.705546 
L 143.048417 270.885635 
L 144.69641 255.806703 
L 146.344402 237.553385 
L 147.992395 222.209846 
L 149.640388 207.924658 
L 152.936373 167.185402 
L 154.584365 149.990043 
L 156.232358 135.440365 
L 157.880351 124.064955 
L 159.528343 111.631587 
L 161.176336 105.547147 
L 162.824329 100.256177 
L 164.472321 95.494578 
L 167.768306 80.9449 
L 171.064292 71.156821 
L 172.712284 73.80211 
L 174.360277 69.83398 
L 176.008269 71.421311 
L 177.656262 80.9449 
L 179.304255 89.410139 
L 180.952247 99.462708 
L 182.60024 99.991688 
L 184.248233 110.838117 
L 185.896225 126.975126 
L 187.544218 129.620415 
L 189.19221 131.472235 
L 190.840203 138.879515 
L 192.488196 145.492934 
L 194.136188 160.571592 
L 197.432174 176.17962 
L 199.080166 185.70321 
L 200.728159 189.40685 
L 202.376151 198.930439 
L 204.024144 206.072838 
L 205.672137 214.802958 
L 207.320129 219.829047 
L 208.968122 229.088146 
L 210.616114 231.468946 
L 213.9121 229.881616 
L 215.560092 231.733436 
L 217.208085 231.468946 
L 218.856078 226.442466 
L 222.152063 241.521515 
L 223.800055 245.754134 
L 225.448048 248.134934 
L 227.096041 259.510343 
L 228.744033 267.182035 
L 230.392026 269.298383 
L 232.040018 270.621106 
L 233.688011 269.562912 
L 235.336004 271.679261 
L 236.983996 271.414732 
L 238.631989 273.266513 
L 240.279982 277.763701 
L 243.575967 285.170863 
L 245.223959 287.816309 
L 246.871952 290.990812 
L 248.519945 292.048967 
L 250.167937 291.255341 
L 251.81593 289.932618 
L 253.463922 292.048967 
L 255.111915 292.313496 
L 256.759908 289.138993 
L 258.4079 286.229057 
L 260.055893 283.583611 
L 261.703886 278.557327 
L 263.351878 271.414732 
L 264.999871 261.097595 
L 266.647863 254.748744 
L 268.295856 239.934185 
L 269.943849 229.088146 
L 271.591841 221.151887 
L 273.239834 210.834828 
L 274.887826 199.723909 
L 276.535819 190.72969 
L 278.183812 189.40685 
L 279.831804 176.708991 
L 281.479797 166.127051 
L 283.12779 163.746252 
L 284.775782 157.926302 
L 286.423775 149.725553 
L 288.071767 131.736725 
L 289.71976 139.672984 
L 291.367753 142.053784 
L 293.015745 136.762814 
L 294.663738 129.620415 
L 296.311731 137.292185 
L 297.959723 157.926302 
L 299.607716 141.789294 
L 301.255708 134.382014 
L 302.903701 140.466454 
L 304.551694 153.958173 
L 306.199686 141.789294 
L 307.847679 133.324055 
L 309.495671 151.841863 
L 311.143664 166.391541 
L 312.791657 165.598072 
L 314.439649 162.952782 
L 316.087642 162.158922 
L 317.735635 170.095181 
L 319.383627 165.862562 
L 321.03162 158.984653 
L 322.679612 165.598072 
L 324.327605 176.708991 
L 325.975598 191.787649 
L 327.62359 184.90974 
L 329.271583 191.787649 
L 330.919575 205.808348 
L 335.863553 226.177976 
L 337.511546 244.960665 
L 339.159539 257.923013 
L 340.807531 262.420279 
L 342.455524 265.594783 
L 344.103516 269.82748 
L 345.751509 279.61552 
L 347.399502 284.112708 
L 349.047494 285.964489 
L 350.695487 288.874464 
L 352.343479 291.255341 
L 353.991472 291.51987 
L 355.639465 290.461715 
L 357.287457 290.461715 
L 358.93545 289.138993 
L 360.583443 290.197187 
L 362.231435 292.048967 
L 363.879428 292.842593 
L 365.52742 294.694374 
L 367.175413 295.488 
L 368.823406 295.488 
L 370.471398 293.107122 
L 372.119391 289.138993 
L 373.767383 286.229057 
L 375.415376 282.260927 
L 377.063369 276.176449 
L 378.711361 265.330254 
L 382.007347 235.172586 
L 383.655339 207.395678 
L 385.303332 187.55503 
L 386.951324 175.386151 
L 388.599317 167.714382 
L 390.24731 156.868343 
L 391.895302 144.434583 
L 393.543295 152.370843 
L 395.191287 157.397323 
L 396.83928 150.519023 
L 398.487273 140.201964 
L 398.487273 140.201964 
" style="fill:none;stroke:#1f77b4;stroke-linecap:square;stroke-width:1.5;"/>
   </g>
   <g id="line2d_15">
    <path clip-path="url(#pf2130f96ad)" d="M 73.832727 134.920542 
L 75.48072 128.102407 
L 77.128713 125.852339 
L 78.776705 127.084687 
L 80.424698 129.607222 
L 82.07269 136.27483 
L 83.720683 144.666403 
L 85.368676 151.128598 
L 87.016668 151.791976 
L 88.664661 149.716803 
L 90.312653 151.131237 
L 91.960646 154.420481 
L 93.608639 159.113703 
L 95.256631 163.272448 
L 96.904624 169.928506 
L 98.552617 178.354087 
L 100.200609 184.448365 
L 101.848602 188.860908 
L 103.496594 192.483629 
L 105.144587 197.304675 
L 106.79258 200.986524 
L 108.440572 202.229352 
L 110.088565 202.881832 
L 111.736557 202.739141 
L 113.38455 202.383444 
L 115.032543 202.492792 
L 116.680535 203.470523 
L 118.328528 205.307993 
L 119.976521 206.399728 
L 121.624513 206.986832 
L 123.272506 207.729796 
L 124.920498 208.133203 
L 126.568491 208.282952 
L 129.864476 207.276399 
L 138.104439 208.496088 
L 139.752432 208.169543 
L 141.400425 207.370517 
L 143.048417 206.169859 
L 144.69641 204.251525 
L 146.344402 200.056876 
L 147.992395 193.971653 
L 151.28838 180.696926 
L 152.936373 171.738865 
L 154.584365 161.093996 
L 156.232358 151.957341 
L 157.880351 143.552753 
L 159.528343 136.726892 
L 161.176336 130.80825 
L 162.824329 126.65302 
L 166.120314 121.642283 
L 169.416299 115.153825 
L 171.064292 112.680767 
L 172.712284 110.813498 
L 174.360277 110.612171 
L 176.008269 109.840397 
L 177.656262 110.506386 
L 179.304255 113.755562 
L 180.952247 117.616989 
L 182.60024 121.819371 
L 184.248233 124.016787 
L 185.896225 128.285629 
L 187.544218 134.927263 
L 189.19221 138.545181 
L 190.840203 139.955685 
L 192.488196 142.616613 
L 194.136188 147.219045 
L 195.784181 153.329938 
L 197.432174 158.760154 
L 200.728159 167.542121 
L 204.024144 174.27201 
L 205.672137 178.357344 
L 207.320129 181.979642 
L 210.616114 188.00335 
L 212.264107 189.609456 
L 213.9121 189.823116 
L 215.560092 189.710793 
L 217.208085 189.931764 
L 218.856078 189.589988 
L 220.50407 188.826971 
L 222.152063 190.609366 
L 223.800055 193.411144 
L 227.096041 196.692543 
L 228.744033 199.678098 
L 230.392026 202.37388 
L 232.040018 203.521281 
L 233.688011 203.859053 
L 236.983996 204.213434 
L 238.631989 204.406508 
L 240.279982 204.869864 
L 241.927974 205.922668 
L 243.575967 207.135478 
L 245.223959 208.164715 
L 248.519945 209.716745 
L 250.167937 210.114292 
L 251.81593 210.038628 
L 253.463922 209.844965 
L 256.759908 210.197356 
L 258.4079 209.610681 
L 261.703886 208.077934 
L 263.351878 206.681599 
L 264.999871 204.662006 
L 268.295856 198.974476 
L 271.591841 189.941718 
L 273.239834 186.302046 
L 274.887826 181.995013 
L 276.535819 176.901741 
L 278.183812 172.601494 
L 279.831804 170.383734 
L 281.479797 165.416999 
L 283.12779 159.817881 
L 286.423775 154.712456 
L 288.071767 149.790825 
L 289.71976 143.022019 
L 291.367753 143.087768 
L 293.015745 145.161984 
L 294.663738 142.780691 
L 296.311731 139.981837 
L 297.959723 143.263906 
L 299.607716 150.348756 
L 301.255708 147.536856 
L 302.903701 142.291636 
L 304.551694 144.624612 
L 306.199686 149.236755 
L 307.847679 146.705462 
L 309.495671 142.67504 
L 311.143664 148.784355 
L 312.791657 156.636991 
L 314.439649 158.435825 
L 316.087642 156.879098 
L 317.735635 156.788748 
L 319.383627 159.269443 
L 321.03162 158.458451 
L 322.679612 156.077741 
L 324.327605 157.515229 
L 325.975598 163.712014 
L 327.62359 169.441602 
L 329.271583 169.75081 
L 330.919575 171.448046 
L 332.567568 176.98675 
L 334.215561 181.36233 
L 335.863553 184.346389 
L 337.511546 187.791523 
L 339.159539 193.598428 
L 340.807531 198.920798 
L 342.455524 201.131397 
L 344.103516 202.274462 
L 345.751509 203.67084 
L 347.399502 206.03081 
L 349.047494 207.777402 
L 353.991472 209.811087 
L 355.639465 210.018831 
L 358.93545 209.744564 
L 360.583443 209.582036 
L 362.231435 209.679168 
L 365.52742 210.419535 
L 368.823406 211.033333 
L 370.471398 211.090699 
L 372.119391 210.584334 
L 377.063369 207.741158 
L 378.711361 206.088717 
L 380.359354 202.916113 
L 382.007347 198.444278 
L 383.655339 192.205707 
L 386.951324 171.840076 
L 388.599317 164.781949 
L 390.24731 160.08555 
L 393.543295 149.069132 
L 395.191287 150.044135 
L 396.83928 152.804417 
L 398.487273 150.673677 
L 398.487273 150.673677 
" style="fill:none;stroke:#ff7f0e;stroke-linecap:square;stroke-width:1.5;"/>
   </g>
   <g id="line2d_16">
    <path clip-path="url(#pf2130f96ad)" d="M 73.832727 213.143155 
L 75.48072 214.13552 
L 77.128713 212.540064 
L 78.776705 212.183867 
L 80.424698 209.921992 
L 82.07269 206.623931 
L 83.720683 205.718668 
L 85.368676 205.105182 
L 87.016668 207.696628 
L 88.664661 207.211976 
L 90.312653 205.718628 
L 91.960646 205.187128 
L 93.608639 204.292762 
L 95.256631 204.586897 
L 96.904624 207.837466 
L 98.552617 220.704197 
L 100.200609 230.360134 
L 101.848602 237.36276 
L 103.496594 243.172886 
L 105.144587 251.519856 
L 106.79258 256.77521 
L 108.440572 258.530402 
L 110.088565 259.506085 
L 111.736557 259.165524 
L 113.38455 258.566936 
L 115.032543 258.816428 
L 116.680535 260.469198 
L 118.328528 263.374764 
L 119.976521 264.822348 
L 121.624513 265.650972 
L 123.272506 266.841477 
L 124.920498 267.244018 
L 126.568491 267.477237 
L 129.864476 265.917382 
L 131.512469 266.415923 
L 136.456447 267.375305 
L 138.104439 267.810026 
L 139.752432 267.31598 
L 141.400425 266.080281 
L 143.048417 264.387571 
L 144.69641 261.490429 
L 146.344402 254.918963 
L 149.640388 234.986078 
L 151.28838 224.202717 
L 152.936373 211.8791 
L 154.584365 208.759826 
L 156.232358 209.363981 
L 157.880351 210.787261 
L 159.528343 211.475583 
L 161.176336 213.597027 
L 162.824329 213.431909 
L 166.120314 215.187486 
L 167.768306 216.765715 
L 169.416299 217.450752 
L 172.712284 217.842197 
L 174.360277 217.444529 
L 176.008269 218.543033 
L 177.656262 216.428573 
L 179.304255 215.228963 
L 180.952247 213.620055 
L 182.60024 212.870287 
L 184.248233 212.853101 
L 185.896225 209.079992 
L 187.544218 208.109283 
L 189.19221 208.624064 
L 190.840203 208.434764 
L 192.488196 207.57028 
L 194.136188 205.59742 
L 195.784181 204.337597 
L 199.080166 204.272947 
L 200.728159 205.026352 
L 202.376151 207.549747 
L 204.024144 212.687612 
L 207.320129 225.501446 
L 208.968122 230.322904 
L 210.616114 235.722335 
L 212.264107 237.993753 
L 213.9121 238.178995 
L 215.560092 238.127778 
L 217.208085 238.441651 
L 218.856078 237.903858 
L 220.50407 236.45808 
L 222.152063 240.101923 
L 223.800055 244.459208 
L 225.448048 246.850909 
L 227.096041 249.60911 
L 228.744033 254.953172 
L 230.392026 258.935833 
L 232.040018 260.477699 
L 233.688011 260.926349 
L 235.336004 261.063998 
L 236.983996 261.525084 
L 238.631989 261.741302 
L 240.279982 262.533338 
L 245.223959 267.464882 
L 248.519945 269.604244 
L 250.167937 270.09837 
L 251.81593 269.942397 
L 253.463922 269.649514 
L 255.111915 270.010373 
L 256.759908 270.178793 
L 258.4079 269.344605 
L 261.703886 267.171041 
L 263.351878 265.154565 
L 264.999871 262.0883 
L 266.647863 257.750285 
L 268.295856 252.985211 
L 269.943849 246.113032 
L 271.591841 238.412298 
L 273.239834 232.640713 
L 274.887826 225.535869 
L 276.535819 217.780149 
L 278.183812 210.936644 
L 279.831804 207.979004 
L 281.479797 207.566253 
L 283.12779 206.709716 
L 284.775782 206.460785 
L 286.423775 207.005236 
L 288.071767 209.464977 
L 289.71976 210.306776 
L 291.367753 206.950861 
L 294.663738 209.543803 
L 296.311731 209.530284 
L 297.959723 205.746975 
L 299.607716 205.150135 
L 301.255708 210.25107 
L 302.903701 209.023855 
L 304.551694 206.392232 
L 306.199686 206.157211 
L 307.847679 209.950029 
L 309.495671 208.736284 
L 311.143664 203.588804 
L 312.791657 204.419043 
L 314.439649 205.866642 
L 316.087642 206.699205 
L 317.735635 205.380846 
L 319.383627 204.860165 
L 321.03162 206.837907 
L 322.679612 206.325338 
L 324.327605 204.731671 
L 325.975598 203.544418 
L 327.62359 206.713684 
L 329.271583 207.511791 
L 330.919575 208.452385 
L 332.567568 217.637358 
L 334.215561 224.292566 
L 335.863553 229.40013 
L 337.511546 235.606648 
L 339.159539 245.838132 
L 340.807531 253.803566 
L 342.455524 256.898137 
L 344.103516 258.60459 
L 345.751509 260.803767 
L 347.399502 264.530787 
L 349.047494 266.965041 
L 350.695487 267.825633 
L 352.343479 268.915479 
L 353.991472 269.718567 
L 355.639465 269.925372 
L 358.93545 269.54391 
L 360.583443 269.284817 
L 362.231435 269.478247 
L 363.879428 270.080152 
L 368.823406 271.356648 
L 370.471398 271.419462 
L 372.119391 270.728462 
L 377.063369 266.648824 
L 378.711361 264.283299 
L 380.359354 259.433636 
L 382.007347 252.171984 
L 383.655339 242.862824 
L 385.303332 228.012365 
L 386.951324 211.555313 
L 388.599317 206.960091 
L 390.24731 206.915795 
L 391.895302 208.64433 
L 393.543295 208.387491 
L 395.191287 205.336049 
L 396.83928 206.323329 
L 398.487273 208.664833 
L 398.487273 208.664833 
" style="fill:none;stroke:#2ca02c;stroke-linecap:square;stroke-width:1.5;"/>
   </g>
   <g id="line2d_17">
    <path clip-path="url(#pf2130f96ad)" d="M 73.832727 99.958847 
L 75.48072 90.124299 
L 77.128713 86.671835 
L 78.776705 88.893902 
L 80.424698 92.688934 
L 82.07269 102.235893 
L 83.720683 110.602397 
L 85.368676 114.694867 
L 88.664661 112.937169 
L 90.312653 114.362121 
L 91.960646 116.406171 
L 93.608639 119.516851 
L 95.256631 121.298992 
L 96.904624 124.594024 
L 98.552617 127.173524 
L 100.200609 129.226157 
L 101.848602 130.5434 
L 106.79258 133.651797 
L 110.088565 133.980847 
L 113.38455 133.745665 
L 115.032543 133.824807 
L 116.680535 134.148392 
L 118.328528 134.6377 
L 119.976521 134.962804 
L 121.624513 135.047173 
L 123.272506 135.305608 
L 126.568491 135.323878 
L 128.216484 135.149238 
L 139.752432 135.29199 
L 141.400425 135.08216 
L 143.048417 134.727119 
L 144.69641 134.203937 
L 146.344402 133.043432 
L 147.992395 131.370707 
L 149.640388 129.027756 
L 151.28838 126.490469 
L 152.936373 122.048291 
L 154.584365 117.214647 
L 156.232358 113.229629 
L 159.528343 102.429668 
L 161.176336 94.662889 
L 162.824329 88.097518 
L 164.472321 83.721002 
L 166.120314 78.513829 
L 169.416299 64.958473 
L 171.064292 59.714737 
L 172.712284 55.767991 
L 174.360277 55.460328 
L 176.008269 53.568 
L 177.656262 54.819259 
L 179.304255 61.756924 
L 180.952247 69.651671 
L 182.60024 78.691715 
L 184.248233 83.242487 
L 185.896225 90.263417 
L 187.544218 100.805243 
L 189.19221 105.00071 
L 190.840203 106.256654 
L 192.488196 108.766346 
L 194.136188 112.089756 
L 195.784181 116.082379 
L 197.432174 119.068768 
L 199.080166 121.615618 
L 200.728159 123.162791 
L 202.376151 124.186849 
L 207.320129 128.051822 
L 210.616114 130.262224 
L 213.9121 130.654184 
L 215.560092 130.490038 
L 217.208085 130.692941 
L 218.856078 130.302838 
L 220.50407 130.187391 
L 223.800055 131.721547 
L 225.448048 132.234703 
L 227.096041 132.480471 
L 228.744033 133.416678 
L 230.392026 133.901747 
L 232.040018 134.207866 
L 240.279982 134.494908 
L 248.519945 135.740755 
L 250.167937 135.85232 
L 253.463922 135.810083 
L 256.759908 135.869102 
L 261.703886 135.261316 
L 263.351878 134.859283 
L 264.999871 134.315619 
L 266.647863 133.501544 
L 268.295856 132.95867 
L 269.943849 131.6565 
L 271.591841 130.060344 
L 273.239834 129.034193 
L 274.887826 127.371374 
L 276.535819 125.230108 
L 278.183812 123.985255 
L 279.831804 123.573484 
L 281.479797 119.714507 
L 283.12779 118.247072 
L 284.775782 117.213153 
L 286.423775 115.42377 
L 288.071767 112.217205 
L 289.71976 107.530186 
L 291.367753 109.27901 
L 293.015745 109.876889 
L 296.311731 105.642437 
L 297.959723 109.542874 
L 299.607716 114.002078 
L 301.255708 110.414649 
L 302.903701 107.759781 
L 304.551694 110.294278 
L 306.199686 113.267804 
L 307.847679 110.193563 
L 309.495671 108.215862 
L 311.143664 113.541812 
L 312.791657 117.778763 
L 314.439649 118.212879 
L 316.087642 116.812822 
L 317.735635 117.570799 
L 319.383627 119.057565 
L 321.03162 117.559743 
L 322.679612 116.701014 
L 324.327605 118.390648 
L 325.975598 122.330045 
L 327.62359 123.665599 
L 329.271583 123.248938 
L 330.919575 124.642607 
L 332.567568 126.65141 
L 334.215561 127.880741 
L 335.863553 128.928036 
L 337.511546 130.136256 
L 339.159539 131.861067 
L 340.807531 133.176751 
L 344.103516 133.849212 
L 345.751509 134.167306 
L 347.399502 134.863103 
L 349.047494 135.335588 
L 350.695487 135.36184 
L 353.991472 135.733328 
L 357.287457 135.818757 
L 362.231435 135.776959 
L 363.879428 135.890977 
L 365.52742 135.864023 
L 368.823406 136.10113 
L 372.119391 135.885715 
L 375.415376 135.485173 
L 378.711361 134.742244 
L 380.359354 133.634652 
L 382.007347 132.805232 
L 383.655339 130.578135 
L 386.951324 122.32945 
L 388.599317 120.457061 
L 390.24731 118.20449 
L 391.895302 114.67677 
L 393.543295 112.092253 
L 395.191287 113.925118 
L 396.83928 114.977393 
L 398.487273 112.955187 
L 398.487273 112.955187 
" style="fill:none;stroke:#d62728;stroke-linecap:square;stroke-width:1.5;"/>
   </g>
   <g id="patch_3">
    <path d="M 57.6 307.584 
L 57.6 41.472 
" style="fill:none;stroke:#000000;stroke-linecap:square;stroke-linejoin:miter;stroke-width:0.8;"/>
   </g>
   <g id="patch_4">
    <path d="M 414.72 307.584 
L 414.72 41.472 
" style="fill:none;stroke:#000000;stroke-linecap:square;stroke-linejoin:miter;stroke-width:0.8;"/>
   </g>
   <g id="patch_5">
    <path d="M 57.6 307.584 
L 414.72 307.584 
" style="fill:none;stroke:#000000;stroke-linecap:square;stroke-linejoin:miter;stroke-width:0.8;"/>
   </g>
   <g id="patch_6">
    <path d="M 57.6 41.472 
L 414.72 41.472 
" style="fill:none;stroke:#000000;stroke-linecap:square;stroke-linejoin:miter;stroke-width:0.8;"/>
   </g>
   <g id="text_14">
    <!-- Plot of Test Data vs MCMC Uncertainty  -->
    <defs>
     <path d="M 19.671875 64.796875 
L 19.671875 37.40625 
L 32.078125 37.40625 
Q 38.96875 37.40625 42.71875 40.96875 
Q 46.484375 44.53125 46.484375 51.125 
Q 46.484375 57.671875 42.71875 61.234375 
Q 38.96875 64.796875 32.078125 64.796875 
z
M 9.8125 72.90625 
L 32.078125 72.90625 
Q 44.34375 72.90625 50.609375 67.359375 
Q 56.890625 61.8125 56.890625 51.125 
Q 56.890625 40.328125 50.609375 34.8125 
Q 44.34375 29.296875 32.078125 29.296875 
L 19.671875 29.296875 
L 19.671875 0 
L 9.8125 0 
z
" id="DejaVuSans-50"/>
     <path d="M 9.421875 75.984375 
L 18.40625 75.984375 
L 18.40625 0 
L 9.421875 0 
z
" id="DejaVuSans-6c"/>
     <path d="M 30.609375 48.390625 
Q 23.390625 48.390625 19.1875 42.75 
Q 14.984375 37.109375 14.984375 27.296875 
Q 14.984375 17.484375 19.15625 11.84375 
Q 23.34375 6.203125 30.609375 6.203125 
Q 37.796875 6.203125 41.984375 11.859375 
Q 46.1875 17.53125 46.1875 27.296875 
Q 46.1875 37.015625 41.984375 42.703125 
Q 37.796875 48.390625 30.609375 48.390625 
z
M 30.609375 56 
Q 42.328125 56 49.015625 48.375 
Q 55.71875 40.765625 55.71875 27.296875 
Q 55.71875 13.875 49.015625 6.21875 
Q 42.328125 -1.421875 30.609375 -1.421875 
Q 18.84375 -1.421875 12.171875 6.21875 
Q 5.515625 13.875 5.515625 27.296875 
Q 5.515625 40.765625 12.171875 48.375 
Q 18.84375 56 30.609375 56 
z
" id="DejaVuSans-6f"/>
     <path d="M 18.3125 70.21875 
L 18.3125 54.6875 
L 36.8125 54.6875 
L 36.8125 47.703125 
L 18.3125 47.703125 
L 18.3125 18.015625 
Q 18.3125 11.328125 20.140625 9.421875 
Q 21.96875 7.515625 27.59375 7.515625 
L 36.8125 7.515625 
L 36.8125 0 
L 27.59375 0 
Q 17.1875 0 13.234375 3.875 
Q 9.28125 7.765625 9.28125 18.015625 
L 9.28125 47.703125 
L 2.6875 47.703125 
L 2.6875 54.6875 
L 9.28125 54.6875 
L 9.28125 70.21875 
z
" id="DejaVuSans-74"/>
     <path id="DejaVuSans-20"/>
     <path d="M 37.109375 75.984375 
L 37.109375 68.5 
L 28.515625 68.5 
Q 23.6875 68.5 21.796875 66.546875 
Q 19.921875 64.59375 19.921875 59.515625 
L 19.921875 54.6875 
L 34.71875 54.6875 
L 34.71875 47.703125 
L 19.921875 47.703125 
L 19.921875 0 
L 10.890625 0 
L 10.890625 47.703125 
L 2.296875 47.703125 
L 2.296875 54.6875 
L 10.890625 54.6875 
L 10.890625 58.5 
Q 10.890625 67.625 15.140625 71.796875 
Q 19.390625 75.984375 28.609375 75.984375 
z
" id="DejaVuSans-66"/>
     <path d="M -0.296875 72.90625 
L 61.375 72.90625 
L 61.375 64.59375 
L 35.5 64.59375 
L 35.5 0 
L 25.59375 0 
L 25.59375 64.59375 
L -0.296875 64.59375 
z
" id="DejaVuSans-54"/>
     <path d="M 56.203125 29.59375 
L 56.203125 25.203125 
L 14.890625 25.203125 
Q 15.484375 15.921875 20.484375 11.0625 
Q 25.484375 6.203125 34.421875 6.203125 
Q 39.59375 6.203125 44.453125 7.46875 
Q 49.3125 8.734375 54.109375 11.28125 
L 54.109375 2.78125 
Q 49.265625 0.734375 44.1875 -0.34375 
Q 39.109375 -1.421875 33.890625 -1.421875 
Q 20.796875 -1.421875 13.15625 6.1875 
Q 5.515625 13.8125 5.515625 26.8125 
Q 5.515625 40.234375 12.765625 48.109375 
Q 20.015625 56 32.328125 56 
Q 43.359375 56 49.78125 48.890625 
Q 56.203125 41.796875 56.203125 29.59375 
z
M 47.21875 32.234375 
Q 47.125 39.59375 43.09375 43.984375 
Q 39.0625 48.390625 32.421875 48.390625 
Q 24.90625 48.390625 20.390625 44.140625 
Q 15.875 39.890625 15.1875 32.171875 
z
" id="DejaVuSans-65"/>
     <path d="M 44.28125 53.078125 
L 44.28125 44.578125 
Q 40.484375 46.53125 36.375 47.5 
Q 32.28125 48.484375 27.875 48.484375 
Q 21.1875 48.484375 17.84375 46.4375 
Q 14.5 44.390625 14.5 40.28125 
Q 14.5 37.15625 16.890625 35.375 
Q 19.28125 33.59375 26.515625 31.984375 
L 29.59375 31.296875 
Q 39.15625 29.25 43.1875 25.515625 
Q 47.21875 21.78125 47.21875 15.09375 
Q 47.21875 7.46875 41.1875 3.015625 
Q 35.15625 -1.421875 24.609375 -1.421875 
Q 20.21875 -1.421875 15.453125 -0.5625 
Q 10.6875 0.296875 5.421875 2 
L 5.421875 11.28125 
Q 10.40625 8.6875 15.234375 7.390625 
Q 20.0625 6.109375 24.8125 6.109375 
Q 31.15625 6.109375 34.5625 8.28125 
Q 37.984375 10.453125 37.984375 14.40625 
Q 37.984375 18.0625 35.515625 20.015625 
Q 33.0625 21.96875 24.703125 23.78125 
L 21.578125 24.515625 
Q 13.234375 26.265625 9.515625 29.90625 
Q 5.8125 33.546875 5.8125 39.890625 
Q 5.8125 47.609375 11.28125 51.796875 
Q 16.75 56 26.8125 56 
Q 31.78125 56 36.171875 55.265625 
Q 40.578125 54.546875 44.28125 53.078125 
z
" id="DejaVuSans-73"/>
     <path d="M 19.671875 64.796875 
L 19.671875 8.109375 
L 31.59375 8.109375 
Q 46.6875 8.109375 53.6875 14.9375 
Q 60.6875 21.78125 60.6875 36.53125 
Q 60.6875 51.171875 53.6875 57.984375 
Q 46.6875 64.796875 31.59375 64.796875 
z
M 9.8125 72.90625 
L 30.078125 72.90625 
Q 51.265625 72.90625 61.171875 64.09375 
Q 71.09375 55.28125 71.09375 36.53125 
Q 71.09375 17.671875 61.125 8.828125 
Q 51.171875 0 30.078125 0 
L 9.8125 0 
z
" id="DejaVuSans-44"/>
     <path d="M 34.28125 27.484375 
Q 23.390625 27.484375 19.1875 25 
Q 14.984375 22.515625 14.984375 16.5 
Q 14.984375 11.71875 18.140625 8.90625 
Q 21.296875 6.109375 26.703125 6.109375 
Q 34.1875 6.109375 38.703125 11.40625 
Q 43.21875 16.703125 43.21875 25.484375 
L 43.21875 27.484375 
z
M 52.203125 31.203125 
L 52.203125 0 
L 43.21875 0 
L 43.21875 8.296875 
Q 40.140625 3.328125 35.546875 0.953125 
Q 30.953125 -1.421875 24.3125 -1.421875 
Q 15.921875 -1.421875 10.953125 3.296875 
Q 6 8.015625 6 15.921875 
Q 6 25.140625 12.171875 29.828125 
Q 18.359375 34.515625 30.609375 34.515625 
L 43.21875 34.515625 
L 43.21875 35.40625 
Q 43.21875 41.609375 39.140625 45 
Q 35.0625 48.390625 27.6875 48.390625 
Q 23 48.390625 18.546875 47.265625 
Q 14.109375 46.140625 10.015625 43.890625 
L 10.015625 52.203125 
Q 14.9375 54.109375 19.578125 55.046875 
Q 24.21875 56 28.609375 56 
Q 40.484375 56 46.34375 49.84375 
Q 52.203125 43.703125 52.203125 31.203125 
z
" id="DejaVuSans-61"/>
     <path d="M 2.984375 54.6875 
L 12.5 54.6875 
L 29.59375 8.796875 
L 46.6875 54.6875 
L 56.203125 54.6875 
L 35.6875 0 
L 23.484375 0 
z
" id="DejaVuSans-76"/>
     <path d="M 9.8125 72.90625 
L 24.515625 72.90625 
L 43.109375 23.296875 
L 61.8125 72.90625 
L 76.515625 72.90625 
L 76.515625 0 
L 66.890625 0 
L 66.890625 64.015625 
L 48.09375 14.015625 
L 38.1875 14.015625 
L 19.390625 64.015625 
L 19.390625 0 
L 9.8125 0 
z
" id="DejaVuSans-4d"/>
     <path d="M 64.40625 67.28125 
L 64.40625 56.890625 
Q 59.421875 61.53125 53.78125 63.8125 
Q 48.140625 66.109375 41.796875 66.109375 
Q 29.296875 66.109375 22.65625 58.46875 
Q 16.015625 50.828125 16.015625 36.375 
Q 16.015625 21.96875 22.65625 14.328125 
Q 29.296875 6.6875 41.796875 6.6875 
Q 48.140625 6.6875 53.78125 8.984375 
Q 59.421875 11.28125 64.40625 15.921875 
L 64.40625 5.609375 
Q 59.234375 2.09375 53.4375 0.328125 
Q 47.65625 -1.421875 41.21875 -1.421875 
Q 24.65625 -1.421875 15.125 8.703125 
Q 5.609375 18.84375 5.609375 36.375 
Q 5.609375 53.953125 15.125 64.078125 
Q 24.65625 74.21875 41.21875 74.21875 
Q 47.75 74.21875 53.53125 72.484375 
Q 59.328125 70.75 64.40625 67.28125 
z
" id="DejaVuSans-43"/>
     <path d="M 8.6875 72.90625 
L 18.609375 72.90625 
L 18.609375 28.609375 
Q 18.609375 16.890625 22.84375 11.734375 
Q 27.09375 6.59375 36.625 6.59375 
Q 46.09375 6.59375 50.34375 11.734375 
Q 54.59375 16.890625 54.59375 28.609375 
L 54.59375 72.90625 
L 64.5 72.90625 
L 64.5 27.390625 
Q 64.5 13.140625 57.4375 5.859375 
Q 50.390625 -1.421875 36.625 -1.421875 
Q 22.796875 -1.421875 15.734375 5.859375 
Q 8.6875 13.140625 8.6875 27.390625 
z
" id="DejaVuSans-55"/>
     <path d="M 54.890625 33.015625 
L 54.890625 0 
L 45.90625 0 
L 45.90625 32.71875 
Q 45.90625 40.484375 42.875 44.328125 
Q 39.84375 48.1875 33.796875 48.1875 
Q 26.515625 48.1875 22.3125 43.546875 
Q 18.109375 38.921875 18.109375 30.90625 
L 18.109375 0 
L 9.078125 0 
L 9.078125 54.6875 
L 18.109375 54.6875 
L 18.109375 46.1875 
Q 21.34375 51.125 25.703125 53.5625 
Q 30.078125 56 35.796875 56 
Q 45.21875 56 50.046875 50.171875 
Q 54.890625 44.34375 54.890625 33.015625 
z
" id="DejaVuSans-6e"/>
     <path d="M 48.78125 52.59375 
L 48.78125 44.1875 
Q 44.96875 46.296875 41.140625 47.34375 
Q 37.3125 48.390625 33.40625 48.390625 
Q 24.65625 48.390625 19.8125 42.84375 
Q 14.984375 37.3125 14.984375 27.296875 
Q 14.984375 17.28125 19.8125 11.734375 
Q 24.65625 6.203125 33.40625 6.203125 
Q 37.3125 6.203125 41.140625 7.25 
Q 44.96875 8.296875 48.78125 10.40625 
L 48.78125 2.09375 
Q 45.015625 0.34375 40.984375 -0.53125 
Q 36.96875 -1.421875 32.421875 -1.421875 
Q 20.0625 -1.421875 12.78125 6.34375 
Q 5.515625 14.109375 5.515625 27.296875 
Q 5.515625 40.671875 12.859375 48.328125 
Q 20.21875 56 33.015625 56 
Q 37.15625 56 41.109375 55.140625 
Q 45.0625 54.296875 48.78125 52.59375 
z
" id="DejaVuSans-63"/>
     <path d="M 41.109375 46.296875 
Q 39.59375 47.171875 37.8125 47.578125 
Q 36.03125 48 33.890625 48 
Q 26.265625 48 22.1875 43.046875 
Q 18.109375 38.09375 18.109375 28.8125 
L 18.109375 0 
L 9.078125 0 
L 9.078125 54.6875 
L 18.109375 54.6875 
L 18.109375 46.1875 
Q 20.953125 51.171875 25.484375 53.578125 
Q 30.03125 56 36.53125 56 
Q 37.453125 56 38.578125 55.875 
Q 39.703125 55.765625 41.0625 55.515625 
z
" id="DejaVuSans-72"/>
     <path d="M 9.421875 54.6875 
L 18.40625 54.6875 
L 18.40625 0 
L 9.421875 0 
z
M 9.421875 75.984375 
L 18.40625 75.984375 
L 18.40625 64.59375 
L 9.421875 64.59375 
z
" id="DejaVuSans-69"/>
     <path d="M 32.171875 -5.078125 
Q 28.375 -14.84375 24.75 -17.8125 
Q 21.140625 -20.796875 15.09375 -20.796875 
L 7.90625 -20.796875 
L 7.90625 -13.28125 
L 13.1875 -13.28125 
Q 16.890625 -13.28125 18.9375 -11.515625 
Q 21 -9.765625 23.484375 -3.21875 
L 25.09375 0.875 
L 2.984375 54.6875 
L 12.5 54.6875 
L 29.59375 11.921875 
L 46.6875 54.6875 
L 56.203125 54.6875 
z
" id="DejaVuSans-79"/>
    </defs>
    <g transform="translate(118.112813 35.472)scale(0.12 -0.12)">
     <use xlink:href="#DejaVuSans-50"/>
     <use x="60.302734" xlink:href="#DejaVuSans-6c"/>
     <use x="88.085938" xlink:href="#DejaVuSans-6f"/>
     <use x="149.267578" xlink:href="#DejaVuSans-74"/>
     <use x="188.476562" xlink:href="#DejaVuSans-20"/>
     <use x="220.263672" xlink:href="#DejaVuSans-6f"/>
     <use x="281.445312" xlink:href="#DejaVuSans-66"/>
     <use x="316.650391" xlink:href="#DejaVuSans-20"/>
     <use x="348.4375" xlink:href="#DejaVuSans-54"/>
     <use x="409.255859" xlink:href="#DejaVuSans-65"/>
     <use x="470.779297" xlink:href="#DejaVuSans-73"/>
     <use x="522.878906" xlink:href="#DejaVuSans-74"/>
     <use x="562.087891" xlink:href="#DejaVuSans-20"/>
     <use x="593.875" xlink:href="#DejaVuSans-44"/>
     <use x="670.876953" xlink:href="#DejaVuSans-61"/>
     <use x="732.15625" xlink:href="#DejaVuSans-74"/>
     <use x="771.365234" xlink:href="#DejaVuSans-61"/>
     <use x="832.644531" xlink:href="#DejaVuSans-20"/>
     <use x="864.431641" xlink:href="#DejaVuSans-76"/>
     <use x="923.611328" xlink:href="#DejaVuSans-73"/>
     <use x="975.710938" xlink:href="#DejaVuSans-20"/>
     <use x="1007.498047" xlink:href="#DejaVuSans-4d"/>
     <use x="1093.777344" xlink:href="#DejaVuSans-43"/>
     <use x="1163.601562" xlink:href="#DejaVuSans-4d"/>
     <use x="1249.880859" xlink:href="#DejaVuSans-43"/>
     <use x="1319.705078" xlink:href="#DejaVuSans-20"/>
     <use x="1351.492188" xlink:href="#DejaVuSans-55"/>
     <use x="1424.685547" xlink:href="#DejaVuSans-6e"/>
     <use x="1488.064453" xlink:href="#DejaVuSans-63"/>
     <use x="1543.044922" xlink:href="#DejaVuSans-65"/>
     <use x="1604.568359" xlink:href="#DejaVuSans-72"/>
     <use x="1645.681641" xlink:href="#DejaVuSans-74"/>
     <use x="1684.890625" xlink:href="#DejaVuSans-61"/>
     <use x="1746.169922" xlink:href="#DejaVuSans-69"/>
     <use x="1773.953125" xlink:href="#DejaVuSans-6e"/>
     <use x="1837.332031" xlink:href="#DejaVuSans-74"/>
     <use x="1876.541016" xlink:href="#DejaVuSans-79"/>
     <use x="1935.720703" xlink:href="#DejaVuSans-20"/>
    </g>
   </g>
   <g id="legend_1">
    <g id="patch_7">
     <path d="M 277.843437 108.1845 
L 407.72 108.1845 
Q 409.72 108.1845 409.72 106.1845 
L 409.72 48.472 
Q 409.72 46.472 407.72 46.472 
L 277.843437 46.472 
Q 275.843437 46.472 275.843437 48.472 
L 275.843437 106.1845 
Q 275.843437 108.1845 277.843437 108.1845 
z
" style="fill:#ffffff;opacity:0.8;stroke:#cccccc;stroke-linejoin:miter;"/>
    </g>
    <g id="line2d_18">
     <path d="M 279.843437 54.570438 
L 299.843437 54.570438 
" style="fill:none;stroke:#1f77b4;stroke-linecap:square;stroke-width:1.5;"/>
    </g>
    <g id="line2d_19"/>
    <g id="text_15">
     <!-- actual -->
     <defs>
      <path d="M 8.5 21.578125 
L 8.5 54.6875 
L 17.484375 54.6875 
L 17.484375 21.921875 
Q 17.484375 14.15625 20.5 10.265625 
Q 23.53125 6.390625 29.59375 6.390625 
Q 36.859375 6.390625 41.078125 11.03125 
Q 45.3125 15.671875 45.3125 23.6875 
L 45.3125 54.6875 
L 54.296875 54.6875 
L 54.296875 0 
L 45.3125 0 
L 45.3125 8.40625 
Q 42.046875 3.421875 37.71875 1 
Q 33.40625 -1.421875 27.6875 -1.421875 
Q 18.265625 -1.421875 13.375 4.4375 
Q 8.5 10.296875 8.5 21.578125 
z
M 31.109375 56 
z
" id="DejaVuSans-75"/>
     </defs>
     <g transform="translate(307.843437 58.070438)scale(0.1 -0.1)">
      <use xlink:href="#DejaVuSans-61"/>
      <use x="61.279297" xlink:href="#DejaVuSans-63"/>
      <use x="116.259766" xlink:href="#DejaVuSans-74"/>
      <use x="155.46875" xlink:href="#DejaVuSans-75"/>
      <use x="218.847656" xlink:href="#DejaVuSans-61"/>
      <use x="280.126953" xlink:href="#DejaVuSans-6c"/>
     </g>
    </g>
    <g id="line2d_20">
     <path d="M 279.843437 69.248563 
L 299.843437 69.248563 
" style="fill:none;stroke:#ff7f0e;stroke-linecap:square;stroke-width:1.5;"/>
    </g>
    <g id="line2d_21"/>
    <g id="text_16">
     <!-- pred. (mean) -->
     <defs>
      <path d="M 18.109375 8.203125 
L 18.109375 -20.796875 
L 9.078125 -20.796875 
L 9.078125 54.6875 
L 18.109375 54.6875 
L 18.109375 46.390625 
Q 20.953125 51.265625 25.265625 53.625 
Q 29.59375 56 35.59375 56 
Q 45.5625 56 51.78125 48.09375 
Q 58.015625 40.1875 58.015625 27.296875 
Q 58.015625 14.40625 51.78125 6.484375 
Q 45.5625 -1.421875 35.59375 -1.421875 
Q 29.59375 -1.421875 25.265625 0.953125 
Q 20.953125 3.328125 18.109375 8.203125 
z
M 48.6875 27.296875 
Q 48.6875 37.203125 44.609375 42.84375 
Q 40.53125 48.484375 33.40625 48.484375 
Q 26.265625 48.484375 22.1875 42.84375 
Q 18.109375 37.203125 18.109375 27.296875 
Q 18.109375 17.390625 22.1875 11.75 
Q 26.265625 6.109375 33.40625 6.109375 
Q 40.53125 6.109375 44.609375 11.75 
Q 48.6875 17.390625 48.6875 27.296875 
z
" id="DejaVuSans-70"/>
      <path d="M 45.40625 46.390625 
L 45.40625 75.984375 
L 54.390625 75.984375 
L 54.390625 0 
L 45.40625 0 
L 45.40625 8.203125 
Q 42.578125 3.328125 38.25 0.953125 
Q 33.9375 -1.421875 27.875 -1.421875 
Q 17.96875 -1.421875 11.734375 6.484375 
Q 5.515625 14.40625 5.515625 27.296875 
Q 5.515625 40.1875 11.734375 48.09375 
Q 17.96875 56 27.875 56 
Q 33.9375 56 38.25 53.625 
Q 42.578125 51.265625 45.40625 46.390625 
z
M 14.796875 27.296875 
Q 14.796875 17.390625 18.875 11.75 
Q 22.953125 6.109375 30.078125 6.109375 
Q 37.203125 6.109375 41.296875 11.75 
Q 45.40625 17.390625 45.40625 27.296875 
Q 45.40625 37.203125 41.296875 42.84375 
Q 37.203125 48.484375 30.078125 48.484375 
Q 22.953125 48.484375 18.875 42.84375 
Q 14.796875 37.203125 14.796875 27.296875 
z
" id="DejaVuSans-64"/>
      <path d="M 31 75.875 
Q 24.46875 64.65625 21.28125 53.65625 
Q 18.109375 42.671875 18.109375 31.390625 
Q 18.109375 20.125 21.3125 9.0625 
Q 24.515625 -2 31 -13.1875 
L 23.1875 -13.1875 
Q 15.875 -1.703125 12.234375 9.375 
Q 8.59375 20.453125 8.59375 31.390625 
Q 8.59375 42.28125 12.203125 53.3125 
Q 15.828125 64.359375 23.1875 75.875 
z
" id="DejaVuSans-28"/>
      <path d="M 52 44.1875 
Q 55.375 50.25 60.0625 53.125 
Q 64.75 56 71.09375 56 
Q 79.640625 56 84.28125 50.015625 
Q 88.921875 44.046875 88.921875 33.015625 
L 88.921875 0 
L 79.890625 0 
L 79.890625 32.71875 
Q 79.890625 40.578125 77.09375 44.375 
Q 74.3125 48.1875 68.609375 48.1875 
Q 61.625 48.1875 57.5625 43.546875 
Q 53.515625 38.921875 53.515625 30.90625 
L 53.515625 0 
L 44.484375 0 
L 44.484375 32.71875 
Q 44.484375 40.625 41.703125 44.40625 
Q 38.921875 48.1875 33.109375 48.1875 
Q 26.21875 48.1875 22.15625 43.53125 
Q 18.109375 38.875 18.109375 30.90625 
L 18.109375 0 
L 9.078125 0 
L 9.078125 54.6875 
L 18.109375 54.6875 
L 18.109375 46.1875 
Q 21.1875 51.21875 25.484375 53.609375 
Q 29.78125 56 35.6875 56 
Q 41.65625 56 45.828125 52.96875 
Q 50 49.953125 52 44.1875 
z
" id="DejaVuSans-6d"/>
      <path d="M 8.015625 75.875 
L 15.828125 75.875 
Q 23.140625 64.359375 26.78125 53.3125 
Q 30.421875 42.28125 30.421875 31.390625 
Q 30.421875 20.453125 26.78125 9.375 
Q 23.140625 -1.703125 15.828125 -13.1875 
L 8.015625 -13.1875 
Q 14.5 -2 17.703125 9.0625 
Q 20.90625 20.125 20.90625 31.390625 
Q 20.90625 42.671875 17.703125 53.65625 
Q 14.5 64.65625 8.015625 75.875 
z
" id="DejaVuSans-29"/>
     </defs>
     <g transform="translate(307.843437 72.748563)scale(0.1 -0.1)">
      <use xlink:href="#DejaVuSans-70"/>
      <use x="63.476562" xlink:href="#DejaVuSans-72"/>
      <use x="104.558594" xlink:href="#DejaVuSans-65"/>
      <use x="166.082031" xlink:href="#DejaVuSans-64"/>
      <use x="229.558594" xlink:href="#DejaVuSans-2e"/>
      <use x="261.345703" xlink:href="#DejaVuSans-20"/>
      <use x="293.132812" xlink:href="#DejaVuSans-28"/>
      <use x="332.146484" xlink:href="#DejaVuSans-6d"/>
      <use x="429.558594" xlink:href="#DejaVuSans-65"/>
      <use x="491.082031" xlink:href="#DejaVuSans-61"/>
      <use x="552.361328" xlink:href="#DejaVuSans-6e"/>
      <use x="615.740234" xlink:href="#DejaVuSans-29"/>
     </g>
    </g>
    <g id="line2d_22">
     <path d="M 279.843437 83.926688 
L 299.843437 83.926688 
" style="fill:none;stroke:#2ca02c;stroke-linecap:square;stroke-width:1.5;"/>
    </g>
    <g id="line2d_23"/>
    <g id="text_17">
     <!-- pred.(5th percen.) -->
     <defs>
      <path d="M 54.890625 33.015625 
L 54.890625 0 
L 45.90625 0 
L 45.90625 32.71875 
Q 45.90625 40.484375 42.875 44.328125 
Q 39.84375 48.1875 33.796875 48.1875 
Q 26.515625 48.1875 22.3125 43.546875 
Q 18.109375 38.921875 18.109375 30.90625 
L 18.109375 0 
L 9.078125 0 
L 9.078125 75.984375 
L 18.109375 75.984375 
L 18.109375 46.1875 
Q 21.34375 51.125 25.703125 53.5625 
Q 30.078125 56 35.796875 56 
Q 45.21875 56 50.046875 50.171875 
Q 54.890625 44.34375 54.890625 33.015625 
z
" id="DejaVuSans-68"/>
     </defs>
     <g transform="translate(307.843437 87.426688)scale(0.1 -0.1)">
      <use xlink:href="#DejaVuSans-70"/>
      <use x="63.476562" xlink:href="#DejaVuSans-72"/>
      <use x="104.558594" xlink:href="#DejaVuSans-65"/>
      <use x="166.082031" xlink:href="#DejaVuSans-64"/>
      <use x="229.558594" xlink:href="#DejaVuSans-2e"/>
      <use x="261.345703" xlink:href="#DejaVuSans-28"/>
      <use x="300.359375" xlink:href="#DejaVuSans-35"/>
      <use x="363.982422" xlink:href="#DejaVuSans-74"/>
      <use x="403.191406" xlink:href="#DejaVuSans-68"/>
      <use x="466.570312" xlink:href="#DejaVuSans-20"/>
      <use x="498.357422" xlink:href="#DejaVuSans-70"/>
      <use x="561.833984" xlink:href="#DejaVuSans-65"/>
      <use x="623.357422" xlink:href="#DejaVuSans-72"/>
      <use x="664.439453" xlink:href="#DejaVuSans-63"/>
      <use x="719.419922" xlink:href="#DejaVuSans-65"/>
      <use x="780.943359" xlink:href="#DejaVuSans-6e"/>
      <use x="844.322266" xlink:href="#DejaVuSans-2e"/>
      <use x="876.109375" xlink:href="#DejaVuSans-29"/>
     </g>
    </g>
    <g id="line2d_24">
     <path d="M 279.843437 98.604813 
L 299.843437 98.604813 
" style="fill:none;stroke:#d62728;stroke-linecap:square;stroke-width:1.5;"/>
    </g>
    <g id="line2d_25"/>
    <g id="text_18">
     <!-- pred.(95th percen.) -->
     <defs>
      <path d="M 10.984375 1.515625 
L 10.984375 10.5 
Q 14.703125 8.734375 18.5 7.8125 
Q 22.3125 6.890625 25.984375 6.890625 
Q 35.75 6.890625 40.890625 13.453125 
Q 46.046875 20.015625 46.78125 33.40625 
Q 43.953125 29.203125 39.59375 26.953125 
Q 35.25 24.703125 29.984375 24.703125 
Q 19.046875 24.703125 12.671875 31.3125 
Q 6.296875 37.9375 6.296875 49.421875 
Q 6.296875 60.640625 12.9375 67.421875 
Q 19.578125 74.21875 30.609375 74.21875 
Q 43.265625 74.21875 49.921875 64.515625 
Q 56.59375 54.828125 56.59375 36.375 
Q 56.59375 19.140625 48.40625 8.859375 
Q 40.234375 -1.421875 26.421875 -1.421875 
Q 22.703125 -1.421875 18.890625 -0.6875 
Q 15.09375 0.046875 10.984375 1.515625 
z
M 30.609375 32.421875 
Q 37.25 32.421875 41.125 36.953125 
Q 45.015625 41.5 45.015625 49.421875 
Q 45.015625 57.28125 41.125 61.84375 
Q 37.25 66.40625 30.609375 66.40625 
Q 23.96875 66.40625 20.09375 61.84375 
Q 16.21875 57.28125 16.21875 49.421875 
Q 16.21875 41.5 20.09375 36.953125 
Q 23.96875 32.421875 30.609375 32.421875 
z
" id="DejaVuSans-39"/>
     </defs>
     <g transform="translate(307.843437 102.104813)scale(0.1 -0.1)">
      <use xlink:href="#DejaVuSans-70"/>
      <use x="63.476562" xlink:href="#DejaVuSans-72"/>
      <use x="104.558594" xlink:href="#DejaVuSans-65"/>
      <use x="166.082031" xlink:href="#DejaVuSans-64"/>
      <use x="229.558594" xlink:href="#DejaVuSans-2e"/>
      <use x="261.345703" xlink:href="#DejaVuSans-28"/>
      <use x="300.359375" xlink:href="#DejaVuSans-39"/>
      <use x="363.982422" xlink:href="#DejaVuSans-35"/>
      <use x="427.605469" xlink:href="#DejaVuSans-74"/>
      <use x="466.814453" xlink:href="#DejaVuSans-68"/>
      <use x="530.193359" xlink:href="#DejaVuSans-20"/>
      <use x="561.980469" xlink:href="#DejaVuSans-70"/>
      <use x="625.457031" xlink:href="#DejaVuSans-65"/>
      <use x="686.980469" xlink:href="#DejaVuSans-72"/>
      <use x="728.0625" xlink:href="#DejaVuSans-63"/>
      <use x="783.042969" xlink:href="#DejaVuSans-65"/>
      <use x="844.566406" xlink:href="#DejaVuSans-6e"/>
      <use x="907.945312" xlink:href="#DejaVuSans-2e"/>
      <use x="939.732422" xlink:href="#DejaVuSans-29"/>
     </g>
    </g>
   </g>
  </g>
 </g>
 <defs>
  <clipPath id="pf2130f96ad">
   <rect height="266.112" width="357.12" x="57.6" y="41.472"/>
  </clipPath>
 </defs>
</svg>
