<?xml version="1.0" encoding="utf-8" standalone="no"?>
<!DOCTYPE svg PUBLIC "-//W3C//DTD SVG 1.1//EN"
  "http://www.w3.org/Graphics/SVG/1.1/DTD/svg11.dtd">
<!-- Created with matplotlib (http://matplotlib.org/) -->
<svg height="864pt" version="1.1" viewBox="0 0 720 864" width="720pt" xmlns="http://www.w3.org/2000/svg" xmlns:xlink="http://www.w3.org/1999/xlink">
 <defs>
  <style type="text/css">
*{stroke-linecap:butt;stroke-linejoin:round;}
  </style>
 </defs>
 <g id="figure_1">
  <g id="patch_1">
   <path d="M 0 864 
L 720 864 
L 720 0 
L 0 0 
z
" style="fill:#ffffff;"/>
  </g>
  <g id="axes_1">
   <g id="patch_2">
    <path d="M 47.72 770.6 
L 706.68 770.6 
L 706.68 103.68 
L 47.72 103.68 
z
" style="fill:#ffffff;"/>
   </g>
   <g id="PolyCollection_1">
    <path clip-path="url(#pb9cef044ce)" d="M 77.672727 562.981093 
L 77.672727 699.787567 
L 79.689746 699.787567 
L 81.706765 699.787567 
L 83.723783 699.787567 
L 85.740802 693.569091 
L 87.757821 693.569091 
L 89.774839 687.350615 
L 91.791858 674.913663 
L 93.808877 662.47671 
L 95.825895 631.38433 
L 97.842914 587.854997 
L 99.859933 538.107189 
L 101.876951 507.014808 
L 103.89397 488.35938 
L 105.910989 475.922428 
L 107.928007 469.703952 
L 109.945026 469.703952 
L 111.962045 463.485476 
L 113.979063 451.048523 
L 115.996082 451.048523 
L 118.013101 451.048523 
L 120.030119 444.830047 
L 122.047138 444.830047 
L 124.064157 451.048523 
L 126.081175 457.267 
L 128.098194 457.267 
L 130.115213 457.267 
L 132.132231 463.485476 
L 134.14925 469.703952 
L 136.166269 475.922428 
L 138.183287 475.922428 
L 140.200306 482.140904 
L 142.217325 488.35938 
L 144.234343 488.35938 
L 146.251362 488.35938 
L 148.268381 488.35938 
L 150.285399 488.35938 
L 152.302418 488.35938 
L 154.319437 488.35938 
L 156.336455 494.577856 
L 158.353474 500.796332 
L 160.370493 507.014808 
L 162.387511 531.888713 
L 164.40453 556.762617 
L 166.421549 562.981093 
L 168.438567 575.418045 
L 170.455586 600.291949 
L 172.472605 612.728902 
L 174.489624 618.947378 
L 176.506642 631.38433 
L 178.523661 643.821282 
L 180.54068 656.258234 
L 182.557698 656.258234 
L 184.574717 662.47671 
L 186.591736 668.695186 
L 188.608754 674.913663 
L 190.625773 674.913663 
L 192.642792 681.132139 
L 194.65981 687.350615 
L 196.676829 693.569091 
L 198.693848 693.569091 
L 200.710866 693.569091 
L 202.727885 693.569091 
L 204.744904 687.350615 
L 206.761922 687.350615 
L 208.778941 681.132139 
L 210.79596 674.913663 
L 212.812978 662.47671 
L 214.829997 650.039758 
L 216.847016 637.602806 
L 218.864034 625.165854 
L 220.881053 612.728902 
L 222.898072 594.073473 
L 224.91509 587.854997 
L 226.932109 569.199569 
L 228.949128 550.544141 
L 230.966146 525.670236 
L 232.983165 513.233284 
L 235.000184 507.014808 
L 237.017202 507.014808 
L 239.034221 507.014808 
L 241.05124 500.796332 
L 243.068258 488.35938 
L 245.085277 475.922428 
L 247.102296 469.703952 
L 249.119314 463.485476 
L 251.136333 457.267 
L 253.153352 457.267 
L 255.17037 457.267 
L 257.187389 457.267 
L 259.204408 457.267 
L 261.221426 457.267 
L 263.238445 463.485476 
L 265.255464 469.703952 
L 267.272482 469.703952 
L 269.289501 482.140904 
L 271.30652 482.140904 
L 273.323538 488.35938 
L 275.340557 494.577856 
L 277.357576 494.577856 
L 279.374594 500.796332 
L 281.391613 500.796332 
L 283.408632 507.014808 
L 285.42565 507.014808 
L 287.442669 507.014808 
L 289.459688 507.014808 
L 291.476706 507.014808 
L 293.493725 507.014808 
L 295.510744 513.233284 
L 297.527762 513.233284 
L 299.544781 513.233284 
L 301.5618 525.670236 
L 303.578818 531.888713 
L 305.595837 538.107189 
L 307.612856 556.762617 
L 309.629875 575.418045 
L 311.646893 581.636521 
L 313.663912 581.636521 
L 315.680931 587.854997 
L 317.697949 606.510426 
L 319.714968 618.947378 
L 321.731987 631.38433 
L 323.749005 643.821282 
L 325.766024 656.258234 
L 327.783043 668.695186 
L 329.800061 668.695186 
L 331.81708 674.913663 
L 333.834099 674.913663 
L 335.851117 681.132139 
L 337.868136 687.350615 
L 339.885155 693.569091 
L 341.902173 699.787567 
L 343.919192 706.006043 
L 345.936211 706.006043 
L 347.953229 706.006043 
L 349.970248 706.006043 
L 351.987267 706.006043 
L 354.004285 706.006043 
L 356.021304 699.787567 
L 358.038323 699.787567 
L 360.055341 693.569091 
L 362.07236 687.350615 
L 364.089379 681.132139 
L 366.106397 668.695186 
L 368.123416 656.258234 
L 370.140435 637.602806 
L 372.157453 618.947378 
L 374.174472 594.073473 
L 376.191491 569.199569 
L 378.208509 538.107189 
L 380.225528 519.45176 
L 382.242547 500.796332 
L 384.259565 494.577856 
L 386.276584 488.35938 
L 388.293603 482.140904 
L 390.310621 482.140904 
L 392.32764 482.140904 
L 394.344659 482.140904 
L 396.361677 475.922428 
L 398.378696 475.922428 
L 400.395715 475.922428 
L 402.412733 482.140904 
L 404.429752 482.140904 
L 406.446771 482.140904 
L 408.463789 482.140904 
L 410.480808 488.35938 
L 412.497827 488.35938 
L 414.514845 494.577856 
L 416.531864 494.577856 
L 418.548883 500.796332 
L 420.565901 507.014808 
L 422.58292 507.014808 
L 424.599939 507.014808 
L 426.616957 513.233284 
L 428.633976 519.45176 
L 430.650995 519.45176 
L 432.668013 538.107189 
L 434.685032 562.981093 
L 436.702051 581.636521 
L 438.719069 581.636521 
L 440.736088 587.854997 
L 442.753107 587.854997 
L 444.770125 587.854997 
L 446.787144 575.418045 
L 448.804163 575.418045 
L 450.821182 575.418045 
L 452.8382 581.636521 
L 454.855219 587.854997 
L 456.872238 600.291949 
L 458.889256 612.728902 
L 460.906275 625.165854 
L 462.923294 637.602806 
L 464.940312 643.821282 
L 466.957331 650.039758 
L 468.97435 662.47671 
L 470.991368 668.695186 
L 473.008387 674.913663 
L 475.025406 681.132139 
L 477.042424 693.569091 
L 479.059443 699.787567 
L 481.076462 699.787567 
L 483.09348 699.787567 
L 485.110499 706.006043 
L 487.127518 699.787567 
L 489.144536 693.569091 
L 491.161555 687.350615 
L 493.178574 681.132139 
L 495.195592 668.695186 
L 497.212611 650.039758 
L 499.22963 618.947378 
L 501.246648 594.073473 
L 503.263667 562.981093 
L 505.280686 531.888713 
L 507.297704 507.014808 
L 509.314723 500.796332 
L 511.331742 500.796332 
L 513.34876 488.35938 
L 515.365779 475.922428 
L 517.382798 469.703952 
L 519.399816 463.485476 
L 521.416835 457.267 
L 523.433854 451.048523 
L 525.450872 451.048523 
L 527.467891 451.048523 
L 529.48491 451.048523 
L 531.501928 457.267 
L 533.518947 463.485476 
L 535.535966 463.485476 
L 537.552984 469.703952 
L 539.570003 475.922428 
L 541.587022 475.922428 
L 543.60404 475.922428 
L 545.621059 475.922428 
L 547.638078 475.922428 
L 549.655096 475.922428 
L 551.672115 475.922428 
L 553.689134 482.140904 
L 555.706152 488.35938 
L 557.723171 494.577856 
L 559.74019 507.014808 
L 561.757208 513.233284 
L 563.774227 538.107189 
L 565.791246 550.544141 
L 567.808264 556.762617 
L 569.825283 562.981093 
L 571.842302 581.636521 
L 573.85932 606.510426 
L 575.876339 618.947378 
L 577.893358 637.602806 
L 579.910376 656.258234 
L 581.927395 668.695186 
L 583.944414 674.913663 
L 585.961433 681.132139 
L 587.978451 687.350615 
L 589.99547 687.350615 
L 592.012489 693.569091 
L 594.029507 693.569091 
L 596.046526 693.569091 
L 598.063545 693.569091 
L 600.080563 693.569091 
L 602.097582 687.350615 
L 604.114601 687.350615 
L 606.131619 687.350615 
L 608.148638 693.569091 
L 610.165657 693.569091 
L 612.182675 693.569091 
L 614.199694 699.787567 
L 616.216713 699.787567 
L 618.233731 706.006043 
L 620.25075 706.006043 
L 622.267769 706.006043 
L 624.284787 706.006043 
L 626.301806 706.006043 
L 628.318825 706.006043 
L 630.335843 706.006043 
L 632.352862 699.787567 
L 634.369881 693.569091 
L 636.386899 687.350615 
L 638.403918 681.132139 
L 640.420937 668.695186 
L 642.437955 656.258234 
L 644.454974 637.602806 
L 646.471993 625.165854 
L 648.489011 606.510426 
L 650.50603 581.636521 
L 652.523049 569.199569 
L 654.540067 556.762617 
L 656.557086 544.325665 
L 658.574105 531.888713 
L 660.591123 519.45176 
L 662.608142 513.233284 
L 664.625161 519.45176 
L 666.642179 519.45176 
L 668.659198 519.45176 
L 670.676217 519.45176 
L 672.693235 531.888713 
L 674.710254 531.888713 
L 676.727273 519.45176 
L 676.727273 488.35938 
L 676.727273 488.35938 
L 674.710254 488.35938 
L 672.693235 488.35938 
L 670.676217 482.140904 
L 668.659198 482.140904 
L 666.642179 482.140904 
L 664.625161 482.140904 
L 662.608142 475.922428 
L 660.591123 482.140904 
L 658.574105 494.577856 
L 656.557086 500.796332 
L 654.540067 500.796332 
L 652.523049 507.014808 
L 650.50603 513.233284 
L 648.489011 519.45176 
L 646.471993 525.670236 
L 644.454974 531.888713 
L 642.437955 538.107189 
L 640.420937 544.325665 
L 638.403918 550.544141 
L 636.386899 556.762617 
L 634.369881 562.981093 
L 632.352862 562.981093 
L 630.335843 562.981093 
L 628.318825 569.199569 
L 626.301806 569.199569 
L 624.284787 569.199569 
L 622.267769 569.199569 
L 620.25075 569.199569 
L 618.233731 562.981093 
L 616.216713 562.981093 
L 614.199694 562.981093 
L 612.182675 562.981093 
L 610.165657 556.762617 
L 608.148638 556.762617 
L 606.131619 556.762617 
L 604.114601 556.762617 
L 602.097582 556.762617 
L 600.080563 556.762617 
L 598.063545 556.762617 
L 596.046526 556.762617 
L 594.029507 556.762617 
L 592.012489 556.762617 
L 589.99547 556.762617 
L 587.978451 556.762617 
L 585.961433 550.544141 
L 583.944414 550.544141 
L 581.927395 550.544141 
L 579.910376 538.107189 
L 577.893358 531.888713 
L 575.876339 525.670236 
L 573.85932 519.45176 
L 571.842302 513.233284 
L 569.825283 507.014808 
L 567.808264 500.796332 
L 565.791246 500.796332 
L 563.774227 488.35938 
L 561.757208 469.703952 
L 559.74019 438.611571 
L 557.723171 401.300715 
L 555.706152 363.989858 
L 553.689134 332.897478 
L 551.672115 308.023573 
L 549.655096 301.805097 
L 547.638078 301.805097 
L 545.621059 301.805097 
L 543.60404 308.023573 
L 541.587022 308.023573 
L 539.570003 295.586621 
L 537.552984 276.931193 
L 535.535966 264.494241 
L 533.518947 252.057289 
L 531.501928 233.40186 
L 529.48491 220.964908 
L 527.467891 214.746432 
L 525.450872 214.746432 
L 523.433854 214.746432 
L 521.416835 227.183384 
L 519.399816 252.057289 
L 517.382798 276.931193 
L 515.365779 308.023573 
L 513.34876 382.645287 
L 511.331742 419.956143 
L 509.314723 438.611571 
L 507.297704 457.267 
L 505.280686 488.35938 
L 503.263667 507.014808 
L 501.246648 513.233284 
L 499.22963 525.670236 
L 497.212611 538.107189 
L 495.195592 544.325665 
L 493.178574 550.544141 
L 491.161555 556.762617 
L 489.144536 556.762617 
L 487.127518 562.981093 
L 485.110499 562.981093 
L 483.09348 562.981093 
L 481.076462 562.981093 
L 479.059443 562.981093 
L 477.042424 556.762617 
L 475.025406 550.544141 
L 473.008387 550.544141 
L 470.991368 550.544141 
L 468.97435 544.325665 
L 466.957331 538.107189 
L 464.940312 538.107189 
L 462.923294 531.888713 
L 460.906275 531.888713 
L 458.889256 525.670236 
L 456.872238 519.45176 
L 454.855219 513.233284 
L 452.8382 513.233284 
L 450.821182 507.014808 
L 448.804163 507.014808 
L 446.787144 513.233284 
L 444.770125 513.233284 
L 442.753107 513.233284 
L 440.736088 513.233284 
L 438.719069 513.233284 
L 436.702051 513.233284 
L 434.685032 507.014808 
L 432.668013 494.577856 
L 430.650995 488.35938 
L 428.633976 482.140904 
L 426.616957 475.922428 
L 424.599939 463.485476 
L 422.58292 451.048523 
L 420.565901 444.830047 
L 418.548883 432.393095 
L 416.531864 407.519191 
L 414.514845 395.082239 
L 412.497827 376.42681 
L 410.480808 357.771382 
L 408.463789 339.115954 
L 406.446771 326.679002 
L 404.429752 326.679002 
L 402.412733 326.679002 
L 400.395715 320.460526 
L 398.378696 314.24205 
L 396.361677 320.460526 
L 394.344659 326.679002 
L 392.32764 326.679002 
L 390.310621 332.897478 
L 388.293603 345.33443 
L 386.276584 370.208334 
L 384.259565 401.300715 
L 382.242547 438.611571 
L 380.225528 475.922428 
L 378.208509 494.577856 
L 376.191491 507.014808 
L 374.174472 519.45176 
L 372.157453 525.670236 
L 370.140435 531.888713 
L 368.123416 538.107189 
L 366.106397 544.325665 
L 364.089379 550.544141 
L 362.07236 556.762617 
L 360.055341 562.981093 
L 358.038323 562.981093 
L 356.021304 562.981093 
L 354.004285 562.981093 
L 351.987267 562.981093 
L 349.970248 569.199569 
L 347.953229 569.199569 
L 345.936211 569.199569 
L 343.919192 562.981093 
L 341.902173 562.981093 
L 339.885155 556.762617 
L 337.868136 556.762617 
L 335.851117 556.762617 
L 333.834099 550.544141 
L 331.81708 550.544141 
L 329.800061 550.544141 
L 327.783043 544.325665 
L 325.766024 538.107189 
L 323.749005 538.107189 
L 321.731987 531.888713 
L 319.714968 525.670236 
L 317.697949 519.45176 
L 315.680931 513.233284 
L 313.663912 513.233284 
L 311.646893 513.233284 
L 309.629875 507.014808 
L 307.612856 500.796332 
L 305.595837 494.577856 
L 303.578818 488.35938 
L 301.5618 488.35938 
L 299.544781 482.140904 
L 297.527762 475.922428 
L 295.510744 469.703952 
L 293.493725 463.485476 
L 291.476706 463.485476 
L 289.459688 457.267 
L 287.442669 451.048523 
L 285.42565 451.048523 
L 283.408632 451.048523 
L 281.391613 438.611571 
L 279.374594 419.956143 
L 277.357576 413.737667 
L 275.340557 395.082239 
L 273.323538 376.42681 
L 271.30652 345.33443 
L 269.289501 314.24205 
L 267.272482 289.368145 
L 265.255464 270.712717 
L 263.238445 252.057289 
L 261.221426 239.620337 
L 259.204408 239.620337 
L 257.187389 239.620337 
L 255.17037 239.620337 
L 253.153352 233.40186 
L 251.136333 233.40186 
L 249.119314 252.057289 
L 247.102296 270.712717 
L 245.085277 301.805097 
L 243.068258 351.552906 
L 241.05124 426.174619 
L 239.034221 457.267 
L 237.017202 463.485476 
L 235.000184 469.703952 
L 232.983165 475.922428 
L 230.966146 488.35938 
L 228.949128 500.796332 
L 226.932109 507.014808 
L 224.91509 513.233284 
L 222.898072 519.45176 
L 220.881053 525.670236 
L 218.864034 531.888713 
L 216.847016 531.888713 
L 214.829997 538.107189 
L 212.812978 544.325665 
L 210.79596 550.544141 
L 208.778941 550.544141 
L 206.761922 556.762617 
L 204.744904 556.762617 
L 202.727885 556.762617 
L 200.710866 556.762617 
L 198.693848 556.762617 
L 196.676829 556.762617 
L 194.65981 556.762617 
L 192.642792 550.544141 
L 190.625773 550.544141 
L 188.608754 550.544141 
L 186.591736 544.325665 
L 184.574717 544.325665 
L 182.557698 544.325665 
L 180.54068 544.325665 
L 178.523661 538.107189 
L 176.506642 531.888713 
L 174.489624 525.670236 
L 172.472605 525.670236 
L 170.455586 519.45176 
L 168.438567 513.233284 
L 166.421549 507.014808 
L 164.40453 500.796332 
L 162.387511 482.140904 
L 160.370493 463.485476 
L 158.353474 438.611571 
L 156.336455 401.300715 
L 154.319437 376.42681 
L 152.302418 376.42681 
L 150.285399 370.208334 
L 148.268381 357.771382 
L 146.251362 357.771382 
L 144.234343 370.208334 
L 142.217325 370.208334 
L 140.200306 332.897478 
L 138.183287 301.805097 
L 136.166269 289.368145 
L 134.14925 270.712717 
L 132.132231 258.275765 
L 130.115213 239.620337 
L 128.098194 233.40186 
L 126.081175 227.183384 
L 124.064157 214.746432 
L 122.047138 208.527956 
L 120.030119 202.30948 
L 118.013101 208.527956 
L 115.996082 214.746432 
L 113.979063 220.964908 
L 111.962045 245.838813 
L 109.945026 276.931193 
L 107.928007 289.368145 
L 105.910989 314.24205 
L 103.89397 370.208334 
L 101.876951 432.393095 
L 99.859933 494.577856 
L 97.842914 513.233284 
L 95.825895 531.888713 
L 93.808877 544.325665 
L 91.791858 550.544141 
L 89.774839 556.762617 
L 87.757821 556.762617 
L 85.740802 562.981093 
L 83.723783 562.981093 
L 81.706765 562.981093 
L 79.689746 562.981093 
L 77.672727 562.981093 
z
" style="fill:#008000;fill-opacity:0.4;"/>
   </g>
   <g id="matplotlib.axis_1">
    <g id="xtick_1">
     <g id="line2d_1">
      <defs>
       <path d="M 0 0 
L 0 3.5 
" id="m2db3743594" style="stroke:#000000;stroke-width:0.8;"/>
      </defs>
      <g>
       <use style="stroke:#000000;stroke-width:0.8;" x="77.672727" xlink:href="#m2db3743594" y="770.6"/>
      </g>
     </g>
     <g id="text_1">
      <!-- 0.0 -->
      <defs>
       <path d="M 31.78125 66.40625 
Q 24.171875 66.40625 20.328125 58.90625 
Q 16.5 51.421875 16.5 36.375 
Q 16.5 21.390625 20.328125 13.890625 
Q 24.171875 6.390625 31.78125 6.390625 
Q 39.453125 6.390625 43.28125 13.890625 
Q 47.125 21.390625 47.125 36.375 
Q 47.125 51.421875 43.28125 58.90625 
Q 39.453125 66.40625 31.78125 66.40625 
z
M 31.78125 74.21875 
Q 44.046875 74.21875 50.515625 64.515625 
Q 56.984375 54.828125 56.984375 36.375 
Q 56.984375 17.96875 50.515625 8.265625 
Q 44.046875 -1.421875 31.78125 -1.421875 
Q 19.53125 -1.421875 13.0625 8.265625 
Q 6.59375 17.96875 6.59375 36.375 
Q 6.59375 54.828125 13.0625 64.515625 
Q 19.53125 74.21875 31.78125 74.21875 
z
" id="DejaVuSans-30"/>
       <path d="M 10.6875 12.40625 
L 21 12.40625 
L 21 0 
L 10.6875 0 
z
" id="DejaVuSans-2e"/>
      </defs>
      <g transform="translate(69.721165 785.198437)scale(0.1 -0.1)">
       <use xlink:href="#DejaVuSans-30"/>
       <use x="63.623047" xlink:href="#DejaVuSans-2e"/>
       <use x="95.410156" xlink:href="#DejaVuSans-30"/>
      </g>
     </g>
    </g>
    <g id="xtick_2">
     <g id="line2d_2">
      <g>
       <use style="stroke:#000000;stroke-width:0.8;" x="197.483636" xlink:href="#m2db3743594" y="770.6"/>
      </g>
     </g>
     <g id="text_2">
      <!-- 0.2 -->
      <defs>
       <path d="M 19.1875 8.296875 
L 53.609375 8.296875 
L 53.609375 0 
L 7.328125 0 
L 7.328125 8.296875 
Q 12.9375 14.109375 22.625 23.890625 
Q 32.328125 33.6875 34.8125 36.53125 
Q 39.546875 41.84375 41.421875 45.53125 
Q 43.3125 49.21875 43.3125 52.78125 
Q 43.3125 58.59375 39.234375 62.25 
Q 35.15625 65.921875 28.609375 65.921875 
Q 23.96875 65.921875 18.8125 64.3125 
Q 13.671875 62.703125 7.8125 59.421875 
L 7.8125 69.390625 
Q 13.765625 71.78125 18.9375 73 
Q 24.125 74.21875 28.421875 74.21875 
Q 39.75 74.21875 46.484375 68.546875 
Q 53.21875 62.890625 53.21875 53.421875 
Q 53.21875 48.921875 51.53125 44.890625 
Q 49.859375 40.875 45.40625 35.40625 
Q 44.1875 33.984375 37.640625 27.21875 
Q 31.109375 20.453125 19.1875 8.296875 
z
" id="DejaVuSans-32"/>
      </defs>
      <g transform="translate(189.532074 785.198437)scale(0.1 -0.1)">
       <use xlink:href="#DejaVuSans-30"/>
       <use x="63.623047" xlink:href="#DejaVuSans-2e"/>
       <use x="95.410156" xlink:href="#DejaVuSans-32"/>
      </g>
     </g>
    </g>
    <g id="xtick_3">
     <g id="line2d_3">
      <g>
       <use style="stroke:#000000;stroke-width:0.8;" x="317.294545" xlink:href="#m2db3743594" y="770.6"/>
      </g>
     </g>
     <g id="text_3">
      <!-- 0.4 -->
      <defs>
       <path d="M 37.796875 64.3125 
L 12.890625 25.390625 
L 37.796875 25.390625 
z
M 35.203125 72.90625 
L 47.609375 72.90625 
L 47.609375 25.390625 
L 58.015625 25.390625 
L 58.015625 17.1875 
L 47.609375 17.1875 
L 47.609375 0 
L 37.796875 0 
L 37.796875 17.1875 
L 4.890625 17.1875 
L 4.890625 26.703125 
z
" id="DejaVuSans-34"/>
      </defs>
      <g transform="translate(309.342983 785.198437)scale(0.1 -0.1)">
       <use xlink:href="#DejaVuSans-30"/>
       <use x="63.623047" xlink:href="#DejaVuSans-2e"/>
       <use x="95.410156" xlink:href="#DejaVuSans-34"/>
      </g>
     </g>
    </g>
    <g id="xtick_4">
     <g id="line2d_4">
      <g>
       <use style="stroke:#000000;stroke-width:0.8;" x="437.105455" xlink:href="#m2db3743594" y="770.6"/>
      </g>
     </g>
     <g id="text_4">
      <!-- 0.6 -->
      <defs>
       <path d="M 33.015625 40.375 
Q 26.375 40.375 22.484375 35.828125 
Q 18.609375 31.296875 18.609375 23.390625 
Q 18.609375 15.53125 22.484375 10.953125 
Q 26.375 6.390625 33.015625 6.390625 
Q 39.65625 6.390625 43.53125 10.953125 
Q 47.40625 15.53125 47.40625 23.390625 
Q 47.40625 31.296875 43.53125 35.828125 
Q 39.65625 40.375 33.015625 40.375 
z
M 52.59375 71.296875 
L 52.59375 62.3125 
Q 48.875 64.0625 45.09375 64.984375 
Q 41.3125 65.921875 37.59375 65.921875 
Q 27.828125 65.921875 22.671875 59.328125 
Q 17.53125 52.734375 16.796875 39.40625 
Q 19.671875 43.65625 24.015625 45.921875 
Q 28.375 48.1875 33.59375 48.1875 
Q 44.578125 48.1875 50.953125 41.515625 
Q 57.328125 34.859375 57.328125 23.390625 
Q 57.328125 12.15625 50.6875 5.359375 
Q 44.046875 -1.421875 33.015625 -1.421875 
Q 20.359375 -1.421875 13.671875 8.265625 
Q 6.984375 17.96875 6.984375 36.375 
Q 6.984375 53.65625 15.1875 63.9375 
Q 23.390625 74.21875 37.203125 74.21875 
Q 40.921875 74.21875 44.703125 73.484375 
Q 48.484375 72.75 52.59375 71.296875 
z
" id="DejaVuSans-36"/>
      </defs>
      <g transform="translate(429.153892 785.198437)scale(0.1 -0.1)">
       <use xlink:href="#DejaVuSans-30"/>
       <use x="63.623047" xlink:href="#DejaVuSans-2e"/>
       <use x="95.410156" xlink:href="#DejaVuSans-36"/>
      </g>
     </g>
    </g>
    <g id="xtick_5">
     <g id="line2d_5">
      <g>
       <use style="stroke:#000000;stroke-width:0.8;" x="556.916364" xlink:href="#m2db3743594" y="770.6"/>
      </g>
     </g>
     <g id="text_5">
      <!-- 0.8 -->
      <defs>
       <path d="M 31.78125 34.625 
Q 24.75 34.625 20.71875 30.859375 
Q 16.703125 27.09375 16.703125 20.515625 
Q 16.703125 13.921875 20.71875 10.15625 
Q 24.75 6.390625 31.78125 6.390625 
Q 38.8125 6.390625 42.859375 10.171875 
Q 46.921875 13.96875 46.921875 20.515625 
Q 46.921875 27.09375 42.890625 30.859375 
Q 38.875 34.625 31.78125 34.625 
z
M 21.921875 38.8125 
Q 15.578125 40.375 12.03125 44.71875 
Q 8.5 49.078125 8.5 55.328125 
Q 8.5 64.0625 14.71875 69.140625 
Q 20.953125 74.21875 31.78125 74.21875 
Q 42.671875 74.21875 48.875 69.140625 
Q 55.078125 64.0625 55.078125 55.328125 
Q 55.078125 49.078125 51.53125 44.71875 
Q 48 40.375 41.703125 38.8125 
Q 48.828125 37.15625 52.796875 32.3125 
Q 56.78125 27.484375 56.78125 20.515625 
Q 56.78125 9.90625 50.3125 4.234375 
Q 43.84375 -1.421875 31.78125 -1.421875 
Q 19.734375 -1.421875 13.25 4.234375 
Q 6.78125 9.90625 6.78125 20.515625 
Q 6.78125 27.484375 10.78125 32.3125 
Q 14.796875 37.15625 21.921875 38.8125 
z
M 18.3125 54.390625 
Q 18.3125 48.734375 21.84375 45.5625 
Q 25.390625 42.390625 31.78125 42.390625 
Q 38.140625 42.390625 41.71875 45.5625 
Q 45.3125 48.734375 45.3125 54.390625 
Q 45.3125 60.0625 41.71875 63.234375 
Q 38.140625 66.40625 31.78125 66.40625 
Q 25.390625 66.40625 21.84375 63.234375 
Q 18.3125 60.0625 18.3125 54.390625 
z
" id="DejaVuSans-38"/>
      </defs>
      <g transform="translate(548.964801 785.198437)scale(0.1 -0.1)">
       <use xlink:href="#DejaVuSans-30"/>
       <use x="63.623047" xlink:href="#DejaVuSans-2e"/>
       <use x="95.410156" xlink:href="#DejaVuSans-38"/>
      </g>
     </g>
    </g>
    <g id="xtick_6">
     <g id="line2d_6">
      <g>
       <use style="stroke:#000000;stroke-width:0.8;" x="676.727273" xlink:href="#m2db3743594" y="770.6"/>
      </g>
     </g>
     <g id="text_6">
      <!-- 1.0 -->
      <defs>
       <path d="M 12.40625 8.296875 
L 28.515625 8.296875 
L 28.515625 63.921875 
L 10.984375 60.40625 
L 10.984375 69.390625 
L 28.421875 72.90625 
L 38.28125 72.90625 
L 38.28125 8.296875 
L 54.390625 8.296875 
L 54.390625 0 
L 12.40625 0 
z
" id="DejaVuSans-31"/>
      </defs>
      <g transform="translate(668.77571 785.198437)scale(0.1 -0.1)">
       <use xlink:href="#DejaVuSans-31"/>
       <use x="63.623047" xlink:href="#DejaVuSans-2e"/>
       <use x="95.410156" xlink:href="#DejaVuSans-30"/>
      </g>
     </g>
    </g>
   </g>
   <g id="matplotlib.axis_2">
    <g id="ytick_1">
     <g id="line2d_7">
      <defs>
       <path d="M 0 0 
L -3.5 0 
" id="m79508bd805" style="stroke:#000000;stroke-width:0.8;"/>
      </defs>
      <g>
       <use style="stroke:#000000;stroke-width:0.8;" x="47.72" xlink:href="#m79508bd805" y="749.535376"/>
      </g>
     </g>
     <g id="text_7">
      <!-- 0.0 -->
      <g transform="translate(24.816875 753.334594)scale(0.1 -0.1)">
       <use xlink:href="#DejaVuSans-30"/>
       <use x="63.623047" xlink:href="#DejaVuSans-2e"/>
       <use x="95.410156" xlink:href="#DejaVuSans-30"/>
      </g>
     </g>
    </g>
    <g id="ytick_2">
     <g id="line2d_8">
      <g>
       <use style="stroke:#000000;stroke-width:0.8;" x="47.72" xlink:href="#m79508bd805" y="625.165854"/>
      </g>
     </g>
     <g id="text_8">
      <!-- 0.2 -->
      <g transform="translate(24.816875 628.965073)scale(0.1 -0.1)">
       <use xlink:href="#DejaVuSans-30"/>
       <use x="63.623047" xlink:href="#DejaVuSans-2e"/>
       <use x="95.410156" xlink:href="#DejaVuSans-32"/>
      </g>
     </g>
    </g>
    <g id="ytick_3">
     <g id="line2d_9">
      <g>
       <use style="stroke:#000000;stroke-width:0.8;" x="47.72" xlink:href="#m79508bd805" y="500.796332"/>
      </g>
     </g>
     <g id="text_9">
      <!-- 0.4 -->
      <g transform="translate(24.816875 504.595551)scale(0.1 -0.1)">
       <use xlink:href="#DejaVuSans-30"/>
       <use x="63.623047" xlink:href="#DejaVuSans-2e"/>
       <use x="95.410156" xlink:href="#DejaVuSans-34"/>
      </g>
     </g>
    </g>
    <g id="ytick_4">
     <g id="line2d_10">
      <g>
       <use style="stroke:#000000;stroke-width:0.8;" x="47.72" xlink:href="#m79508bd805" y="376.42681"/>
      </g>
     </g>
     <g id="text_10">
      <!-- 0.6 -->
      <g transform="translate(24.816875 380.226029)scale(0.1 -0.1)">
       <use xlink:href="#DejaVuSans-30"/>
       <use x="63.623047" xlink:href="#DejaVuSans-2e"/>
       <use x="95.410156" xlink:href="#DejaVuSans-36"/>
      </g>
     </g>
    </g>
    <g id="ytick_5">
     <g id="line2d_11">
      <g>
       <use style="stroke:#000000;stroke-width:0.8;" x="47.72" xlink:href="#m79508bd805" y="252.057289"/>
      </g>
     </g>
     <g id="text_11">
      <!-- 0.8 -->
      <g transform="translate(24.816875 255.856507)scale(0.1 -0.1)">
       <use xlink:href="#DejaVuSans-30"/>
       <use x="63.623047" xlink:href="#DejaVuSans-2e"/>
       <use x="95.410156" xlink:href="#DejaVuSans-38"/>
      </g>
     </g>
    </g>
    <g id="ytick_6">
     <g id="line2d_12">
      <g>
       <use style="stroke:#000000;stroke-width:0.8;" x="47.72" xlink:href="#m79508bd805" y="127.687767"/>
      </g>
     </g>
     <g id="text_12">
      <!-- 1.0 -->
      <g transform="translate(24.816875 131.486986)scale(0.1 -0.1)">
       <use xlink:href="#DejaVuSans-31"/>
       <use x="63.623047" xlink:href="#DejaVuSans-2e"/>
       <use x="95.410156" xlink:href="#DejaVuSans-30"/>
      </g>
     </g>
    </g>
   </g>
   <g id="line2d_13">
    <path clip-path="url(#pb9cef044ce)" d="M 77.672727 718.001545 
L 79.689746 718.421977 
L 81.706765 716.74019 
L 83.723783 714.217478 
L 85.740802 698.240286 
L 87.757821 691.933507 
L 89.774839 674.694772 
L 91.791858 647.365813 
L 93.808877 615.411552 
L 95.825895 562.434489 
L 97.842914 517.866671 
L 99.859933 467.412443 
L 103.89397 357.254005 
L 105.910989 312.686187 
L 107.928007 298.811523 
L 109.945026 261.391221 
L 111.962045 192.016658 
L 113.979063 168.471642 
L 115.996082 163.005602 
L 118.013101 136.517381 
L 120.030119 133.994545 
L 122.047138 154.596357 
L 124.064157 199.164797 
L 126.081175 214.720936 
L 128.098194 218.92587 
L 130.115213 258.868386 
L 132.132231 281.993654 
L 134.14925 307.220768 
L 136.166269 326.561473 
L 138.183287 356.833636 
L 140.200306 404.765028 
L 142.217325 410.651437 
L 144.234343 380.799643 
L 146.251362 386.686052 
L 148.268381 400.560716 
L 150.285399 405.606388 
L 152.302418 400.560716 
L 154.319437 423.264994 
L 156.336455 462.787763 
L 158.353474 475.821688 
L 160.370493 507.77595 
L 162.387511 535.946268 
L 164.40453 539.730211 
L 166.421549 551.923399 
L 168.438567 572.945579 
L 170.455586 592.286283 
L 172.472605 597.752324 
L 174.489624 604.059102 
L 176.506642 627.60474 
L 178.523661 642.320142 
L 180.54068 649.467658 
L 182.557698 644.00224 
L 184.574717 653.672592 
L 186.591736 664.604051 
L 188.608754 670.49046 
L 190.625773 675.956501 
L 192.642792 689.410796 
L 194.65981 703.706202 
L 196.676829 703.706202 
L 198.693848 697.819854 
L 200.710866 700.342566 
L 202.727885 695.717574 
L 204.744904 689.410796 
L 206.761922 688.149502 
L 208.778941 675.956501 
L 210.79596 654.092961 
L 212.812978 630.126954 
L 214.829997 620.456602 
L 216.847016 607.843045 
L 218.864034 587.661603 
L 220.881053 575.048046 
L 222.898072 564.536956 
L 224.91509 552.343768 
L 226.932109 536.787006 
L 228.949128 503.150647 
L 230.966146 491.798819 
L 232.983165 483.809943 
L 235.000184 481.287107 
L 237.017202 476.662426 
L 239.034221 456.059993 
L 245.085277 289.981909 
L 247.102296 259.288755 
L 249.119314 231.539427 
L 251.136333 194.959863 
L 253.153352 225.653017 
L 255.17037 234.062263 
L 257.187389 222.289444 
L 259.204408 223.97092 
L 261.221426 240.78941 
L 263.238445 281.993654 
L 265.255464 306.379408 
L 267.272482 333.708989 
L 269.289501 379.537914 
L 271.30652 401.821823 
L 273.323538 420.742158 
L 275.340557 437.560649 
L 277.357576 441.344592 
L 279.374594 463.208132 
L 281.391613 467.412443 
L 283.408632 468.67355 
L 285.42565 467.412443 
L 287.442669 470.355648 
L 289.459688 479.185262 
L 291.476706 480.026 
L 293.493725 487.593886 
L 295.510744 493.900664 
L 297.527762 498.105598 
L 299.544781 501.88954 
L 301.5618 514.923466 
L 303.578818 517.446302 
L 305.595837 535.525899 
L 307.612856 551.082039 
L 309.629875 562.434489 
L 311.646893 560.332022 
L 313.663912 564.536956 
L 317.697949 598.593062 
L 319.714968 612.047979 
L 321.731987 622.979438 
L 323.749005 641.899773 
L 325.766024 657.036166 
L 327.783043 662.502206 
L 329.800061 665.444789 
L 331.81708 672.172558 
L 335.851117 695.297143 
L 337.868136 705.80842 
L 339.885155 718.001545 
L 341.902173 726.830973 
L 343.919192 733.558245 
L 345.936211 736.080956 
L 347.953229 734.399107 
L 349.970248 733.137752 
L 351.987267 732.296889 
L 354.004285 726.410542 
L 356.021304 723.467399 
L 358.038323 710.853843 
L 360.055341 700.762997 
L 362.07236 679.320075 
L 364.089379 659.138632 
L 366.106397 640.218297 
L 368.123416 612.468348 
L 370.140435 598.172693 
L 372.157453 574.207308 
L 374.174472 545.61662 
L 376.191491 524.173449 
L 380.225528 465.309976 
L 382.242547 432.094608 
L 384.259565 402.242814 
L 388.293603 357.674374 
L 390.310621 355.15216 
L 392.32764 354.731791 
L 394.344659 348.004022 
L 396.361677 337.492932 
L 398.378696 348.004022 
L 400.395715 349.265751 
L 402.412733 355.572529 
L 404.429752 352.208955 
L 406.446771 368.606455 
L 408.463789 388.787897 
L 410.480808 400.140347 
L 412.497827 422.424256 
L 414.514845 427.048937 
L 416.531864 457.321722 
L 420.565901 469.094541 
L 424.599939 493.900664 
L 426.616957 507.77595 
L 428.633976 503.150647 
L 430.650995 517.025933 
L 432.668013 541.411687 
L 434.685032 559.911653 
L 436.702051 564.536956 
L 438.719069 562.854858 
L 442.753107 567.900529 
L 444.770125 556.12771 
L 446.787144 553.604875 
L 448.804163 549.820932 
L 450.821182 556.548079 
L 452.8382 568.741267 
L 454.855219 575.888784 
L 456.872238 593.127643 
L 458.889256 601.536267 
L 460.906275 618.775126 
L 462.923294 627.60474 
L 464.940312 635.172626 
L 466.957331 647.786182 
L 468.97435 661.240477 
L 470.991368 670.910829 
L 473.008387 678.899706 
L 475.025406 698.660779 
L 477.042424 712.956123 
L 479.059443 721.365119 
L 481.076462 726.830973 
L 483.09348 727.251466 
L 485.110499 723.046968 
L 487.127518 710.853843 
L 489.144536 696.558499 
L 493.178574 658.717642 
L 495.195592 632.229421 
L 497.212611 599.014053 
L 499.22963 567.900529 
L 501.246648 550.241301 
L 503.263667 508.616688 
L 505.280686 476.662426 
L 507.297704 457.742091 
L 509.314723 444.708165 
L 511.331742 423.264994 
L 513.34876 355.992898 
L 515.365779 305.118301 
L 517.382798 261.391221 
L 519.399816 213.880198 
L 521.416835 169.732749 
L 523.433854 159.642028 
L 525.450872 162.585233 
L 527.467891 180.244461 
L 529.48491 205.891944 
L 531.501928 243.311624 
L 533.518947 274.845516 
L 535.535966 285.777597 
L 537.552984 316.470751 
L 539.570003 337.072563 
L 541.587022 336.231825 
L 543.60404 324.879375 
L 545.621059 321.095432 
L 547.638078 322.356539 
L 549.655096 325.720113 
L 551.672115 362.299676 
L 553.689134 391.731102 
L 557.723171 464.889608 
L 559.74019 487.593886 
L 561.757208 521.230245 
L 563.774227 530.900597 
L 565.791246 533.003063 
L 567.808264 543.514154 
L 569.825283 558.230177 
L 571.842302 585.559136 
L 573.85932 597.752324 
L 575.876339 612.468348 
L 577.893358 642.740511 
L 579.910376 663.342944 
L 581.927395 674.694772 
L 583.944414 679.320075 
L 585.961433 686.047222 
L 587.978451 696.97893 
L 589.99547 701.18349 
L 592.012489 699.08121 
L 594.029507 702.024353 
L 596.046526 699.922135 
L 598.063545 704.967557 
L 600.080563 694.456219 
L 602.097582 696.138068 
L 604.114601 695.297143 
L 606.131619 696.138068 
L 608.148638 704.967557 
L 610.165657 709.592487 
L 612.182675 719.262901 
L 614.199694 723.887831 
L 616.216713 729.774178 
L 618.233731 734.819601 
L 620.25075 736.921819 
L 622.267769 739.865023 
L 624.284787 740.285455 
L 628.318825 731.876396 
L 630.335843 725.569617 
L 634.369881 697.819854 
L 636.386899 683.104017 
L 638.403918 666.286149 
L 640.420937 633.490528 
L 642.437955 617.934388 
L 644.454974 604.89984 
L 646.471993 583.457291 
L 648.489011 566.218432 
L 650.50603 540.570949 
L 652.523049 539.730211 
L 654.540067 524.173449 
L 656.557086 515.343835 
L 658.574105 499.366704 
L 660.591123 487.173517 
L 662.608142 503.992007 
L 664.625161 506.514221 
L 666.642179 498.105598 
L 668.659198 497.264238 
L 670.676217 511.980261 
L 672.693235 520.389507 
L 674.710254 501.88954 
L 676.727273 498.105598 
L 676.727273 498.105598 
" style="fill:none;stroke:#1f77b4;stroke-linecap:square;stroke-width:1.5;"/>
   </g>
   <g id="line2d_14">
    <path clip-path="url(#pb9cef044ce)" d="M 77.672727 662.781907 
L 79.689746 663.768353 
L 83.723783 663.558152 
L 85.740802 661.17263 
L 87.757821 656.003686 
L 89.774839 651.606978 
L 91.791858 641.193158 
L 93.808877 626.410776 
L 95.825895 601.256795 
L 97.842914 560.647528 
L 99.859933 516.716695 
L 103.89397 412.949966 
L 105.910989 368.84837 
L 107.928007 343.850178 
L 109.945026 331.04069 
L 111.962045 307.594171 
L 113.979063 287.53304 
L 115.996082 280.70139 
L 118.013101 276.615605 
L 120.030119 271.986686 
L 122.047138 271.576512 
L 124.064157 278.299667 
L 126.081175 289.669005 
L 128.098194 293.789482 
L 130.115213 300.433351 
L 134.14925 325.669318 
L 136.166269 340.540067 
L 138.183287 351.715568 
L 140.200306 376.532688 
L 142.217325 407.031695 
L 144.234343 405.699632 
L 146.251362 394.30542 
L 148.268381 396.214656 
L 150.285399 405.693168 
L 152.302418 408.258208 
L 154.319437 409.463528 
L 156.336455 432.674236 
L 158.353474 461.422987 
L 160.370493 481.405978 
L 162.387511 510.481363 
L 164.40453 533.934918 
L 166.421549 542.425838 
L 168.438567 553.942129 
L 170.455586 571.838085 
L 172.472605 585.35157 
L 174.489624 592.278216 
L 176.506642 599.919986 
L 178.523661 613.347313 
L 180.54068 623.984098 
L 182.557698 625.953555 
L 184.574717 627.2875 
L 186.591736 631.570475 
L 188.608754 637.350058 
L 192.642792 644.835139 
L 194.65981 651.729629 
L 196.676829 656.811842 
L 198.693848 657.136758 
L 200.710866 655.870398 
L 202.727885 655.705363 
L 204.744904 653.976626 
L 208.778941 649.0034 
L 210.79596 642.59346 
L 212.812978 630.654886 
L 214.829997 617.464598 
L 216.847016 608.385542 
L 218.864034 598.621961 
L 220.881053 583.893255 
L 222.898072 572.459523 
L 224.91509 563.867635 
L 226.932109 550.970434 
L 228.949128 531.328477 
L 230.966146 508.498406 
L 232.983165 492.715832 
L 235.000184 484.914099 
L 237.017202 483.595291 
L 239.034221 477.448655 
L 241.05124 449.900315 
L 243.068258 399.585888 
L 245.085277 358.608749 
L 247.102296 329.700445 
L 249.119314 311.903657 
L 251.136333 297.676929 
L 253.153352 292.498084 
L 255.17037 299.429312 
L 257.187389 300.364293 
L 259.204408 297.996526 
L 261.221426 299.065695 
L 263.238445 308.256685 
L 267.272482 339.522282 
L 269.289501 360.923495 
L 273.323538 409.778134 
L 275.340557 425.949936 
L 277.357576 437.606469 
L 279.374594 446.842379 
L 281.391613 462.882693 
L 283.408632 469.028838 
L 285.42565 468.413618 
L 287.442669 469.527216 
L 289.459688 473.297904 
L 291.476706 479.705307 
L 293.493725 481.364413 
L 295.510744 490.586658 
L 299.544781 498.940035 
L 301.5618 507.169534 
L 303.578818 512.863367 
L 305.595837 522.65583 
L 309.629875 551.369971 
L 311.646893 559.653963 
L 313.663912 559.936822 
L 315.680931 566.422447 
L 319.714968 592.076606 
L 321.731987 602.823933 
L 323.749005 612.069907 
L 325.766024 623.243281 
L 327.783043 632.687264 
L 329.800061 636.247833 
L 331.81708 638.228663 
L 333.834099 642.766759 
L 337.868136 654.247048 
L 339.885155 658.800609 
L 341.902173 663.828574 
L 343.919192 667.509667 
L 345.936211 669.705852 
L 347.953229 670.724128 
L 349.970248 670.41394 
L 351.987267 669.977993 
L 354.004285 669.072632 
L 356.021304 667.720031 
L 358.038323 665.265451 
L 360.055341 661.27769 
L 362.07236 655.322926 
L 364.089379 645.937691 
L 366.106397 634.195572 
L 368.123416 620.922398 
L 372.157453 590.107149 
L 374.174472 570.9999 
L 376.191491 545.899676 
L 378.208509 522.454712 
L 380.225528 494.510926 
L 384.259565 433.475683 
L 386.276584 406.196619 
L 388.293603 386.595164 
L 390.310621 373.864471 
L 392.32764 369.370558 
L 394.344659 369.13172 
L 396.361677 363.039986 
L 398.378696 359.819061 
L 400.395715 364.754976 
L 402.412733 366.252074 
L 404.429752 369.413679 
L 406.446771 370.242863 
L 408.463789 381.218064 
L 414.514845 422.870808 
L 416.531864 435.470914 
L 418.548883 455.57271 
L 420.565901 465.301025 
L 422.58292 472.164177 
L 424.599939 482.998644 
L 426.616957 497.755579 
L 428.633976 505.182731 
L 430.650995 507.826156 
L 432.668013 522.582599 
L 434.685032 542.483359 
L 436.702051 556.873322 
L 438.719069 561.823065 
L 440.736088 562.941655 
L 442.753107 565.537869 
L 444.770125 563.049169 
L 446.787144 556.846321 
L 448.804163 552.625121 
L 450.821182 552.7652 
L 452.8382 558.176502 
L 454.855219 565.678193 
L 462.923294 606.853751 
L 464.940312 613.829326 
L 466.957331 619.942825 
L 468.97435 627.580014 
L 470.991368 635.853369 
L 475.025406 646.584904 
L 477.042424 655.254114 
L 479.059443 661.418178 
L 481.076462 665.048132 
L 483.09348 667.228362 
L 485.110499 667.796208 
L 487.127518 665.227077 
L 489.144536 660.957438 
L 491.161555 653.803 
L 493.178574 644.757899 
L 495.195592 633.245045 
L 497.212611 615.634485 
L 499.22963 592.196066 
L 501.246648 566.887851 
L 503.263667 545.952124 
L 507.297704 476.671754 
L 511.331742 445.026011 
L 513.34876 416.368246 
L 515.365779 367.610075 
L 517.382798 335.99477 
L 519.399816 312.51585 
L 521.416835 292.196325 
L 523.433854 281.211632 
L 525.450872 278.06852 
L 527.467891 278.824801 
L 529.48491 284.545062 
L 531.501928 293.798237 
L 533.518947 307.599572 
L 535.535966 320.38574 
L 537.552984 328.883288 
L 539.570003 345.668673 
L 541.587022 354.19854 
L 543.60404 355.161995 
L 545.621059 349.637125 
L 547.638078 346.77188 
L 549.655096 347.232293 
L 551.672115 354.559212 
L 553.689134 376.818083 
L 555.706152 401.82634 
L 557.723171 434.349215 
L 559.74019 464.872359 
L 561.757208 493.212491 
L 563.774227 519.466897 
L 565.791246 531.437464 
L 567.808264 536.021054 
L 569.825283 545.239781 
L 571.842302 560.492721 
L 573.85932 580.559579 
L 577.893358 605.368026 
L 579.910376 623.512476 
L 581.927395 636.262561 
L 583.944414 642.917067 
L 585.961433 645.792784 
L 587.978451 649.813602 
L 589.99547 654.342371 
L 592.012489 656.24187 
L 594.029507 656.354866 
L 596.046526 656.260443 
L 598.063545 657.242554 
L 600.080563 656.692382 
L 602.097582 654.573109 
L 604.114601 653.684603 
L 606.131619 654.100914 
L 608.148638 655.518563 
L 610.165657 657.702884 
L 612.182675 661.05718 
L 614.199694 664.066186 
L 616.216713 666.619361 
L 618.233731 668.758108 
L 622.267769 671.70452 
L 624.284787 672.179251 
L 626.301806 672.259601 
L 628.318825 671.122274 
L 630.335843 669.057658 
L 632.352862 666.370213 
L 634.369881 661.100873 
L 636.386899 655.065105 
L 638.403918 647.622162 
L 640.420937 635.598575 
L 642.437955 620.40962 
L 644.454974 607.374794 
L 646.471993 595.726606 
L 648.489011 580.282284 
L 650.50603 561.535706 
L 652.523049 546.664139 
L 656.557086 526.314503 
L 658.574105 515.660781 
L 660.591123 498.767227 
L 662.608142 494.359146 
L 664.625161 502.863812 
L 666.642179 505.357175 
L 668.659198 500.362839 
L 670.676217 503.249194 
L 672.693235 514.933219 
L 674.710254 514.563302 
L 676.727273 506.810253 
L 676.727273 506.810253 
" style="fill:none;stroke:#ff7f0e;stroke-linecap:square;stroke-width:1.5;"/>
   </g>
   <g id="line2d_15">
    <path clip-path="url(#pb9cef044ce)" d="M 77.672727 699.787567 
L 83.723783 699.787567 
L 85.740802 693.569091 
L 87.757821 693.569091 
L 89.774839 687.350615 
L 93.808877 662.47671 
L 95.825895 631.38433 
L 97.842914 587.854997 
L 99.859933 538.107189 
L 101.876951 507.014808 
L 103.89397 488.35938 
L 105.910989 475.922428 
L 107.928007 469.703952 
L 109.945026 469.703952 
L 111.962045 463.485476 
L 113.979063 451.048523 
L 118.013101 451.048523 
L 120.030119 444.830047 
L 122.047138 444.830047 
L 126.081175 457.267 
L 130.115213 457.267 
L 136.166269 475.922428 
L 138.183287 475.922428 
L 142.217325 488.35938 
L 154.319437 488.35938 
L 160.370493 507.014808 
L 164.40453 556.762617 
L 166.421549 562.981093 
L 168.438567 575.418045 
L 170.455586 600.291949 
L 172.472605 612.728902 
L 174.489624 618.947378 
L 180.54068 656.258234 
L 182.557698 656.258234 
L 188.608754 674.913663 
L 190.625773 674.913663 
L 196.676829 693.569091 
L 202.727885 693.569091 
L 204.744904 687.350615 
L 206.761922 687.350615 
L 210.79596 674.913663 
L 220.881053 612.728902 
L 222.898072 594.073473 
L 224.91509 587.854997 
L 228.949128 550.544141 
L 230.966146 525.670236 
L 232.983165 513.233284 
L 235.000184 507.014808 
L 239.034221 507.014808 
L 241.05124 500.796332 
L 245.085277 475.922428 
L 251.136333 457.267 
L 261.221426 457.267 
L 265.255464 469.703952 
L 267.272482 469.703952 
L 269.289501 482.140904 
L 271.30652 482.140904 
L 275.340557 494.577856 
L 277.357576 494.577856 
L 279.374594 500.796332 
L 281.391613 500.796332 
L 283.408632 507.014808 
L 293.493725 507.014808 
L 295.510744 513.233284 
L 299.544781 513.233284 
L 301.5618 525.670236 
L 305.595837 538.107189 
L 309.629875 575.418045 
L 311.646893 581.636521 
L 313.663912 581.636521 
L 315.680931 587.854997 
L 317.697949 606.510426 
L 327.783043 668.695186 
L 329.800061 668.695186 
L 331.81708 674.913663 
L 333.834099 674.913663 
L 343.919192 706.006043 
L 354.004285 706.006043 
L 356.021304 699.787567 
L 358.038323 699.787567 
L 364.089379 681.132139 
L 368.123416 656.258234 
L 372.157453 618.947378 
L 376.191491 569.199569 
L 378.208509 538.107189 
L 382.242547 500.796332 
L 388.293603 482.140904 
L 394.344659 482.140904 
L 396.361677 475.922428 
L 400.395715 475.922428 
L 402.412733 482.140904 
L 408.463789 482.140904 
L 410.480808 488.35938 
L 412.497827 488.35938 
L 414.514845 494.577856 
L 416.531864 494.577856 
L 420.565901 507.014808 
L 424.599939 507.014808 
L 428.633976 519.45176 
L 430.650995 519.45176 
L 432.668013 538.107189 
L 434.685032 562.981093 
L 436.702051 581.636521 
L 438.719069 581.636521 
L 440.736088 587.854997 
L 444.770125 587.854997 
L 446.787144 575.418045 
L 450.821182 575.418045 
L 454.855219 587.854997 
L 462.923294 637.602806 
L 466.957331 650.039758 
L 468.97435 662.47671 
L 475.025406 681.132139 
L 477.042424 693.569091 
L 479.059443 699.787567 
L 483.09348 699.787567 
L 485.110499 706.006043 
L 493.178574 681.132139 
L 495.195592 668.695186 
L 497.212611 650.039758 
L 499.22963 618.947378 
L 501.246648 594.073473 
L 505.280686 531.888713 
L 507.297704 507.014808 
L 509.314723 500.796332 
L 511.331742 500.796332 
L 515.365779 475.922428 
L 523.433854 451.048523 
L 529.48491 451.048523 
L 533.518947 463.485476 
L 535.535966 463.485476 
L 539.570003 475.922428 
L 551.672115 475.922428 
L 557.723171 494.577856 
L 559.74019 507.014808 
L 561.757208 513.233284 
L 563.774227 538.107189 
L 565.791246 550.544141 
L 569.825283 562.981093 
L 571.842302 581.636521 
L 573.85932 606.510426 
L 575.876339 618.947378 
L 579.910376 656.258234 
L 581.927395 668.695186 
L 587.978451 687.350615 
L 589.99547 687.350615 
L 592.012489 693.569091 
L 600.080563 693.569091 
L 602.097582 687.350615 
L 606.131619 687.350615 
L 608.148638 693.569091 
L 612.182675 693.569091 
L 614.199694 699.787567 
L 616.216713 699.787567 
L 618.233731 706.006043 
L 630.335843 706.006043 
L 638.403918 681.132139 
L 642.437955 656.258234 
L 644.454974 637.602806 
L 646.471993 625.165854 
L 648.489011 606.510426 
L 650.50603 581.636521 
L 660.591123 519.45176 
L 662.608142 513.233284 
L 664.625161 519.45176 
L 670.676217 519.45176 
L 672.693235 531.888713 
L 674.710254 531.888713 
L 676.727273 519.45176 
L 676.727273 519.45176 
" style="fill:none;stroke:#2ca02c;stroke-linecap:square;stroke-width:1.5;"/>
   </g>
   <g id="line2d_16">
    <path clip-path="url(#pb9cef044ce)" d="M 77.672727 562.981093 
L 85.740802 562.981093 
L 87.757821 556.762617 
L 89.774839 556.762617 
L 93.808877 544.325665 
L 95.825895 531.888713 
L 99.859933 494.577856 
L 103.89397 370.208334 
L 105.910989 314.24205 
L 107.928007 289.368145 
L 109.945026 276.931193 
L 111.962045 245.838813 
L 113.979063 220.964908 
L 120.030119 202.30948 
L 124.064157 214.746432 
L 126.081175 227.183384 
L 130.115213 239.620337 
L 132.132231 258.275765 
L 134.14925 270.712717 
L 136.166269 289.368145 
L 138.183287 301.805097 
L 140.200306 332.897478 
L 142.217325 370.208334 
L 144.234343 370.208334 
L 146.251362 357.771382 
L 148.268381 357.771382 
L 150.285399 370.208334 
L 152.302418 376.42681 
L 154.319437 376.42681 
L 156.336455 401.300715 
L 158.353474 438.611571 
L 160.370493 463.485476 
L 164.40453 500.796332 
L 172.472605 525.670236 
L 174.489624 525.670236 
L 180.54068 544.325665 
L 186.591736 544.325665 
L 188.608754 550.544141 
L 192.642792 550.544141 
L 194.65981 556.762617 
L 206.761922 556.762617 
L 208.778941 550.544141 
L 210.79596 550.544141 
L 216.847016 531.888713 
L 218.864034 531.888713 
L 228.949128 500.796332 
L 232.983165 475.922428 
L 239.034221 457.267 
L 241.05124 426.174619 
L 243.068258 351.552906 
L 245.085277 301.805097 
L 247.102296 270.712717 
L 251.136333 233.40186 
L 253.153352 233.40186 
L 255.17037 239.620337 
L 261.221426 239.620337 
L 263.238445 252.057289 
L 267.272482 289.368145 
L 269.289501 314.24205 
L 273.323538 376.42681 
L 277.357576 413.737667 
L 279.374594 419.956143 
L 281.391613 438.611571 
L 283.408632 451.048523 
L 287.442669 451.048523 
L 291.476706 463.485476 
L 293.493725 463.485476 
L 301.5618 488.35938 
L 303.578818 488.35938 
L 311.646893 513.233284 
L 315.680931 513.233284 
L 323.749005 538.107189 
L 325.766024 538.107189 
L 329.800061 550.544141 
L 333.834099 550.544141 
L 335.851117 556.762617 
L 339.885155 556.762617 
L 341.902173 562.981093 
L 343.919192 562.981093 
L 345.936211 569.199569 
L 349.970248 569.199569 
L 351.987267 562.981093 
L 360.055341 562.981093 
L 374.174472 519.45176 
L 378.208509 494.577856 
L 380.225528 475.922428 
L 384.259565 401.300715 
L 386.276584 370.208334 
L 388.293603 345.33443 
L 390.310621 332.897478 
L 392.32764 326.679002 
L 394.344659 326.679002 
L 398.378696 314.24205 
L 402.412733 326.679002 
L 406.446771 326.679002 
L 408.463789 339.115954 
L 414.514845 395.082239 
L 416.531864 407.519191 
L 418.548883 432.393095 
L 420.565901 444.830047 
L 422.58292 451.048523 
L 426.616957 475.922428 
L 432.668013 494.577856 
L 434.685032 507.014808 
L 436.702051 513.233284 
L 446.787144 513.233284 
L 448.804163 507.014808 
L 450.821182 507.014808 
L 452.8382 513.233284 
L 454.855219 513.233284 
L 460.906275 531.888713 
L 462.923294 531.888713 
L 464.940312 538.107189 
L 466.957331 538.107189 
L 470.991368 550.544141 
L 475.025406 550.544141 
L 479.059443 562.981093 
L 487.127518 562.981093 
L 489.144536 556.762617 
L 491.161555 556.762617 
L 497.212611 538.107189 
L 501.246648 513.233284 
L 503.263667 507.014808 
L 505.280686 488.35938 
L 507.297704 457.267 
L 511.331742 419.956143 
L 513.34876 382.645287 
L 515.365779 308.023573 
L 517.382798 276.931193 
L 521.416835 227.183384 
L 523.433854 214.746432 
L 527.467891 214.746432 
L 529.48491 220.964908 
L 531.501928 233.40186 
L 533.518947 252.057289 
L 537.552984 276.931193 
L 539.570003 295.586621 
L 541.587022 308.023573 
L 543.60404 308.023573 
L 545.621059 301.805097 
L 549.655096 301.805097 
L 551.672115 308.023573 
L 553.689134 332.897478 
L 555.706152 363.989858 
L 559.74019 438.611571 
L 561.757208 469.703952 
L 563.774227 488.35938 
L 565.791246 500.796332 
L 567.808264 500.796332 
L 579.910376 538.107189 
L 581.927395 550.544141 
L 585.961433 550.544141 
L 587.978451 556.762617 
L 610.165657 556.762617 
L 612.182675 562.981093 
L 618.233731 562.981093 
L 620.25075 569.199569 
L 628.318825 569.199569 
L 630.335843 562.981093 
L 634.369881 562.981093 
L 654.540067 500.796332 
L 656.557086 500.796332 
L 658.574105 494.577856 
L 660.591123 482.140904 
L 662.608142 475.922428 
L 664.625161 482.140904 
L 670.676217 482.140904 
L 672.693235 488.35938 
L 676.727273 488.35938 
L 676.727273 488.35938 
" style="fill:none;stroke:#d62728;stroke-linecap:square;stroke-width:1.5;"/>
   </g>
   <g id="patch_3">
    <path d="M 47.72 770.6 
L 47.72 103.68 
" style="fill:none;stroke:#000000;stroke-linecap:square;stroke-linejoin:miter;stroke-width:0.8;"/>
   </g>
   <g id="patch_4">
    <path d="M 706.68 770.6 
L 706.68 103.68 
" style="fill:none;stroke:#000000;stroke-linecap:square;stroke-linejoin:miter;stroke-width:0.8;"/>
   </g>
   <g id="patch_5">
    <path d="M 47.72 770.6 
L 706.68 770.6 
" style="fill:none;stroke:#000000;stroke-linecap:square;stroke-linejoin:miter;stroke-width:0.8;"/>
   </g>
   <g id="patch_6">
    <path d="M 47.72 103.68 
L 706.68 103.68 
" style="fill:none;stroke:#000000;stroke-linecap:square;stroke-linejoin:miter;stroke-width:0.8;"/>
   </g>
   <g id="text_13">
    <!-- Plot of Train Data vs MCMC Uncertainty  -->
    <defs>
     <path d="M 19.671875 64.796875 
L 19.671875 37.40625 
L 32.078125 37.40625 
Q 38.96875 37.40625 42.71875 40.96875 
Q 46.484375 44.53125 46.484375 51.125 
Q 46.484375 57.671875 42.71875 61.234375 
Q 38.96875 64.796875 32.078125 64.796875 
z
M 9.8125 72.90625 
L 32.078125 72.90625 
Q 44.34375 72.90625 50.609375 67.359375 
Q 56.890625 61.8125 56.890625 51.125 
Q 56.890625 40.328125 50.609375 34.8125 
Q 44.34375 29.296875 32.078125 29.296875 
L 19.671875 29.296875 
L 19.671875 0 
L 9.8125 0 
z
" id="DejaVuSans-50"/>
     <path d="M 9.421875 75.984375 
L 18.40625 75.984375 
L 18.40625 0 
L 9.421875 0 
z
" id="DejaVuSans-6c"/>
     <path d="M 30.609375 48.390625 
Q 23.390625 48.390625 19.1875 42.75 
Q 14.984375 37.109375 14.984375 27.296875 
Q 14.984375 17.484375 19.15625 11.84375 
Q 23.34375 6.203125 30.609375 6.203125 
Q 37.796875 6.203125 41.984375 11.859375 
Q 46.1875 17.53125 46.1875 27.296875 
Q 46.1875 37.015625 41.984375 42.703125 
Q 37.796875 48.390625 30.609375 48.390625 
z
M 30.609375 56 
Q 42.328125 56 49.015625 48.375 
Q 55.71875 40.765625 55.71875 27.296875 
Q 55.71875 13.875 49.015625 6.21875 
Q 42.328125 -1.421875 30.609375 -1.421875 
Q 18.84375 -1.421875 12.171875 6.21875 
Q 5.515625 13.875 5.515625 27.296875 
Q 5.515625 40.765625 12.171875 48.375 
Q 18.84375 56 30.609375 56 
z
" id="DejaVuSans-6f"/>
     <path d="M 18.3125 70.21875 
L 18.3125 54.6875 
L 36.8125 54.6875 
L 36.8125 47.703125 
L 18.3125 47.703125 
L 18.3125 18.015625 
Q 18.3125 11.328125 20.140625 9.421875 
Q 21.96875 7.515625 27.59375 7.515625 
L 36.8125 7.515625 
L 36.8125 0 
L 27.59375 0 
Q 17.1875 0 13.234375 3.875 
Q 9.28125 7.765625 9.28125 18.015625 
L 9.28125 47.703125 
L 2.6875 47.703125 
L 2.6875 54.6875 
L 9.28125 54.6875 
L 9.28125 70.21875 
z
" id="DejaVuSans-74"/>
     <path id="DejaVuSans-20"/>
     <path d="M 37.109375 75.984375 
L 37.109375 68.5 
L 28.515625 68.5 
Q 23.6875 68.5 21.796875 66.546875 
Q 19.921875 64.59375 19.921875 59.515625 
L 19.921875 54.6875 
L 34.71875 54.6875 
L 34.71875 47.703125 
L 19.921875 47.703125 
L 19.921875 0 
L 10.890625 0 
L 10.890625 47.703125 
L 2.296875 47.703125 
L 2.296875 54.6875 
L 10.890625 54.6875 
L 10.890625 58.5 
Q 10.890625 67.625 15.140625 71.796875 
Q 19.390625 75.984375 28.609375 75.984375 
z
" id="DejaVuSans-66"/>
     <path d="M -0.296875 72.90625 
L 61.375 72.90625 
L 61.375 64.59375 
L 35.5 64.59375 
L 35.5 0 
L 25.59375 0 
L 25.59375 64.59375 
L -0.296875 64.59375 
z
" id="DejaVuSans-54"/>
     <path d="M 41.109375 46.296875 
Q 39.59375 47.171875 37.8125 47.578125 
Q 36.03125 48 33.890625 48 
Q 26.265625 48 22.1875 43.046875 
Q 18.109375 38.09375 18.109375 28.8125 
L 18.109375 0 
L 9.078125 0 
L 9.078125 54.6875 
L 18.109375 54.6875 
L 18.109375 46.1875 
Q 20.953125 51.171875 25.484375 53.578125 
Q 30.03125 56 36.53125 56 
Q 37.453125 56 38.578125 55.875 
Q 39.703125 55.765625 41.0625 55.515625 
z
" id="DejaVuSans-72"/>
     <path d="M 34.28125 27.484375 
Q 23.390625 27.484375 19.1875 25 
Q 14.984375 22.515625 14.984375 16.5 
Q 14.984375 11.71875 18.140625 8.90625 
Q 21.296875 6.109375 26.703125 6.109375 
Q 34.1875 6.109375 38.703125 11.40625 
Q 43.21875 16.703125 43.21875 25.484375 
L 43.21875 27.484375 
z
M 52.203125 31.203125 
L 52.203125 0 
L 43.21875 0 
L 43.21875 8.296875 
Q 40.140625 3.328125 35.546875 0.953125 
Q 30.953125 -1.421875 24.3125 -1.421875 
Q 15.921875 -1.421875 10.953125 3.296875 
Q 6 8.015625 6 15.921875 
Q 6 25.140625 12.171875 29.828125 
Q 18.359375 34.515625 30.609375 34.515625 
L 43.21875 34.515625 
L 43.21875 35.40625 
Q 43.21875 41.609375 39.140625 45 
Q 35.0625 48.390625 27.6875 48.390625 
Q 23 48.390625 18.546875 47.265625 
Q 14.109375 46.140625 10.015625 43.890625 
L 10.015625 52.203125 
Q 14.9375 54.109375 19.578125 55.046875 
Q 24.21875 56 28.609375 56 
Q 40.484375 56 46.34375 49.84375 
Q 52.203125 43.703125 52.203125 31.203125 
z
" id="DejaVuSans-61"/>
     <path d="M 9.421875 54.6875 
L 18.40625 54.6875 
L 18.40625 0 
L 9.421875 0 
z
M 9.421875 75.984375 
L 18.40625 75.984375 
L 18.40625 64.59375 
L 9.421875 64.59375 
z
" id="DejaVuSans-69"/>
     <path d="M 54.890625 33.015625 
L 54.890625 0 
L 45.90625 0 
L 45.90625 32.71875 
Q 45.90625 40.484375 42.875 44.328125 
Q 39.84375 48.1875 33.796875 48.1875 
Q 26.515625 48.1875 22.3125 43.546875 
Q 18.109375 38.921875 18.109375 30.90625 
L 18.109375 0 
L 9.078125 0 
L 9.078125 54.6875 
L 18.109375 54.6875 
L 18.109375 46.1875 
Q 21.34375 51.125 25.703125 53.5625 
Q 30.078125 56 35.796875 56 
Q 45.21875 56 50.046875 50.171875 
Q 54.890625 44.34375 54.890625 33.015625 
z
" id="DejaVuSans-6e"/>
     <path d="M 19.671875 64.796875 
L 19.671875 8.109375 
L 31.59375 8.109375 
Q 46.6875 8.109375 53.6875 14.9375 
Q 60.6875 21.78125 60.6875 36.53125 
Q 60.6875 51.171875 53.6875 57.984375 
Q 46.6875 64.796875 31.59375 64.796875 
z
M 9.8125 72.90625 
L 30.078125 72.90625 
Q 51.265625 72.90625 61.171875 64.09375 
Q 71.09375 55.28125 71.09375 36.53125 
Q 71.09375 17.671875 61.125 8.828125 
Q 51.171875 0 30.078125 0 
L 9.8125 0 
z
" id="DejaVuSans-44"/>
     <path d="M 2.984375 54.6875 
L 12.5 54.6875 
L 29.59375 8.796875 
L 46.6875 54.6875 
L 56.203125 54.6875 
L 35.6875 0 
L 23.484375 0 
z
" id="DejaVuSans-76"/>
     <path d="M 44.28125 53.078125 
L 44.28125 44.578125 
Q 40.484375 46.53125 36.375 47.5 
Q 32.28125 48.484375 27.875 48.484375 
Q 21.1875 48.484375 17.84375 46.4375 
Q 14.5 44.390625 14.5 40.28125 
Q 14.5 37.15625 16.890625 35.375 
Q 19.28125 33.59375 26.515625 31.984375 
L 29.59375 31.296875 
Q 39.15625 29.25 43.1875 25.515625 
Q 47.21875 21.78125 47.21875 15.09375 
Q 47.21875 7.46875 41.1875 3.015625 
Q 35.15625 -1.421875 24.609375 -1.421875 
Q 20.21875 -1.421875 15.453125 -0.5625 
Q 10.6875 0.296875 5.421875 2 
L 5.421875 11.28125 
Q 10.40625 8.6875 15.234375 7.390625 
Q 20.0625 6.109375 24.8125 6.109375 
Q 31.15625 6.109375 34.5625 8.28125 
Q 37.984375 10.453125 37.984375 14.40625 
Q 37.984375 18.0625 35.515625 20.015625 
Q 33.0625 21.96875 24.703125 23.78125 
L 21.578125 24.515625 
Q 13.234375 26.265625 9.515625 29.90625 
Q 5.8125 33.546875 5.8125 39.890625 
Q 5.8125 47.609375 11.28125 51.796875 
Q 16.75 56 26.8125 56 
Q 31.78125 56 36.171875 55.265625 
Q 40.578125 54.546875 44.28125 53.078125 
z
" id="DejaVuSans-73"/>
     <path d="M 9.8125 72.90625 
L 24.515625 72.90625 
L 43.109375 23.296875 
L 61.8125 72.90625 
L 76.515625 72.90625 
L 76.515625 0 
L 66.890625 0 
L 66.890625 64.015625 
L 48.09375 14.015625 
L 38.1875 14.015625 
L 19.390625 64.015625 
L 19.390625 0 
L 9.8125 0 
z
" id="DejaVuSans-4d"/>
     <path d="M 64.40625 67.28125 
L 64.40625 56.890625 
Q 59.421875 61.53125 53.78125 63.8125 
Q 48.140625 66.109375 41.796875 66.109375 
Q 29.296875 66.109375 22.65625 58.46875 
Q 16.015625 50.828125 16.015625 36.375 
Q 16.015625 21.96875 22.65625 14.328125 
Q 29.296875 6.6875 41.796875 6.6875 
Q 48.140625 6.6875 53.78125 8.984375 
Q 59.421875 11.28125 64.40625 15.921875 
L 64.40625 5.609375 
Q 59.234375 2.09375 53.4375 0.328125 
Q 47.65625 -1.421875 41.21875 -1.421875 
Q 24.65625 -1.421875 15.125 8.703125 
Q 5.609375 18.84375 5.609375 36.375 
Q 5.609375 53.953125 15.125 64.078125 
Q 24.65625 74.21875 41.21875 74.21875 
Q 47.75 74.21875 53.53125 72.484375 
Q 59.328125 70.75 64.40625 67.28125 
z
" id="DejaVuSans-43"/>
     <path d="M 8.6875 72.90625 
L 18.609375 72.90625 
L 18.609375 28.609375 
Q 18.609375 16.890625 22.84375 11.734375 
Q 27.09375 6.59375 36.625 6.59375 
Q 46.09375 6.59375 50.34375 11.734375 
Q 54.59375 16.890625 54.59375 28.609375 
L 54.59375 72.90625 
L 64.5 72.90625 
L 64.5 27.390625 
Q 64.5 13.140625 57.4375 5.859375 
Q 50.390625 -1.421875 36.625 -1.421875 
Q 22.796875 -1.421875 15.734375 5.859375 
Q 8.6875 13.140625 8.6875 27.390625 
z
" id="DejaVuSans-55"/>
     <path d="M 48.78125 52.59375 
L 48.78125 44.1875 
Q 44.96875 46.296875 41.140625 47.34375 
Q 37.3125 48.390625 33.40625 48.390625 
Q 24.65625 48.390625 19.8125 42.84375 
Q 14.984375 37.3125 14.984375 27.296875 
Q 14.984375 17.28125 19.8125 11.734375 
Q 24.65625 6.203125 33.40625 6.203125 
Q 37.3125 6.203125 41.140625 7.25 
Q 44.96875 8.296875 48.78125 10.40625 
L 48.78125 2.09375 
Q 45.015625 0.34375 40.984375 -0.53125 
Q 36.96875 -1.421875 32.421875 -1.421875 
Q 20.0625 -1.421875 12.78125 6.34375 
Q 5.515625 14.109375 5.515625 27.296875 
Q 5.515625 40.671875 12.859375 48.328125 
Q 20.21875 56 33.015625 56 
Q 37.15625 56 41.109375 55.140625 
Q 45.0625 54.296875 48.78125 52.59375 
z
" id="DejaVuSans-63"/>
     <path d="M 56.203125 29.59375 
L 56.203125 25.203125 
L 14.890625 25.203125 
Q 15.484375 15.921875 20.484375 11.0625 
Q 25.484375 6.203125 34.421875 6.203125 
Q 39.59375 6.203125 44.453125 7.46875 
Q 49.3125 8.734375 54.109375 11.28125 
L 54.109375 2.78125 
Q 49.265625 0.734375 44.1875 -0.34375 
Q 39.109375 -1.421875 33.890625 -1.421875 
Q 20.796875 -1.421875 13.15625 6.1875 
Q 5.515625 13.8125 5.515625 26.8125 
Q 5.515625 40.234375 12.765625 48.109375 
Q 20.015625 56 32.328125 56 
Q 43.359375 56 49.78125 48.890625 
Q 56.203125 41.796875 56.203125 29.59375 
z
M 47.21875 32.234375 
Q 47.125 39.59375 43.09375 43.984375 
Q 39.0625 48.390625 32.421875 48.390625 
Q 24.90625 48.390625 20.390625 44.140625 
Q 15.875 39.890625 15.1875 32.171875 
z
" id="DejaVuSans-65"/>
     <path d="M 32.171875 -5.078125 
Q 28.375 -14.84375 24.75 -17.8125 
Q 21.140625 -20.796875 15.09375 -20.796875 
L 7.90625 -20.796875 
L 7.90625 -13.28125 
L 13.1875 -13.28125 
Q 16.890625 -13.28125 18.9375 -11.515625 
Q 21 -9.765625 23.484375 -3.21875 
L 25.09375 0.875 
L 2.984375 54.6875 
L 12.5 54.6875 
L 29.59375 11.921875 
L 46.6875 54.6875 
L 56.203125 54.6875 
z
" id="DejaVuSans-79"/>
    </defs>
    <g transform="translate(256.706875 97.68)scale(0.12 -0.12)">
     <use xlink:href="#DejaVuSans-50"/>
     <use x="60.302734" xlink:href="#DejaVuSans-6c"/>
     <use x="88.085938" xlink:href="#DejaVuSans-6f"/>
     <use x="149.267578" xlink:href="#DejaVuSans-74"/>
     <use x="188.476562" xlink:href="#DejaVuSans-20"/>
     <use x="220.263672" xlink:href="#DejaVuSans-6f"/>
     <use x="281.445312" xlink:href="#DejaVuSans-66"/>
     <use x="316.650391" xlink:href="#DejaVuSans-20"/>
     <use x="348.4375" xlink:href="#DejaVuSans-54"/>
     <use x="409.302734" xlink:href="#DejaVuSans-72"/>
     <use x="450.416016" xlink:href="#DejaVuSans-61"/>
     <use x="511.695312" xlink:href="#DejaVuSans-69"/>
     <use x="539.478516" xlink:href="#DejaVuSans-6e"/>
     <use x="602.857422" xlink:href="#DejaVuSans-20"/>
     <use x="634.644531" xlink:href="#DejaVuSans-44"/>
     <use x="711.646484" xlink:href="#DejaVuSans-61"/>
     <use x="772.925781" xlink:href="#DejaVuSans-74"/>
     <use x="812.134766" xlink:href="#DejaVuSans-61"/>
     <use x="873.414062" xlink:href="#DejaVuSans-20"/>
     <use x="905.201172" xlink:href="#DejaVuSans-76"/>
     <use x="964.380859" xlink:href="#DejaVuSans-73"/>
     <use x="1016.480469" xlink:href="#DejaVuSans-20"/>
     <use x="1048.267578" xlink:href="#DejaVuSans-4d"/>
     <use x="1134.546875" xlink:href="#DejaVuSans-43"/>
     <use x="1204.371094" xlink:href="#DejaVuSans-4d"/>
     <use x="1290.650391" xlink:href="#DejaVuSans-43"/>
     <use x="1360.474609" xlink:href="#DejaVuSans-20"/>
     <use x="1392.261719" xlink:href="#DejaVuSans-55"/>
     <use x="1465.455078" xlink:href="#DejaVuSans-6e"/>
     <use x="1528.833984" xlink:href="#DejaVuSans-63"/>
     <use x="1583.814453" xlink:href="#DejaVuSans-65"/>
     <use x="1645.337891" xlink:href="#DejaVuSans-72"/>
     <use x="1686.451172" xlink:href="#DejaVuSans-74"/>
     <use x="1725.660156" xlink:href="#DejaVuSans-61"/>
     <use x="1786.939453" xlink:href="#DejaVuSans-69"/>
     <use x="1814.722656" xlink:href="#DejaVuSans-6e"/>
     <use x="1878.101562" xlink:href="#DejaVuSans-74"/>
     <use x="1917.310547" xlink:href="#DejaVuSans-79"/>
     <use x="1976.490234" xlink:href="#DejaVuSans-20"/>
    </g>
   </g>
   <g id="legend_1">
    <g id="patch_7">
     <path d="M 569.803438 170.3925 
L 699.68 170.3925 
Q 701.68 170.3925 701.68 168.3925 
L 701.68 110.68 
Q 701.68 108.68 699.68 108.68 
L 569.803438 108.68 
Q 567.803438 108.68 567.803438 110.68 
L 567.803438 168.3925 
Q 567.803438 170.3925 569.803438 170.3925 
z
" style="fill:#ffffff;opacity:0.8;stroke:#cccccc;stroke-linejoin:miter;"/>
    </g>
    <g id="line2d_17">
     <path d="M 571.803438 116.778437 
L 591.803438 116.778437 
" style="fill:none;stroke:#1f77b4;stroke-linecap:square;stroke-width:1.5;"/>
    </g>
    <g id="line2d_18"/>
    <g id="text_14">
     <!-- actual -->
     <defs>
      <path d="M 8.5 21.578125 
L 8.5 54.6875 
L 17.484375 54.6875 
L 17.484375 21.921875 
Q 17.484375 14.15625 20.5 10.265625 
Q 23.53125 6.390625 29.59375 6.390625 
Q 36.859375 6.390625 41.078125 11.03125 
Q 45.3125 15.671875 45.3125 23.6875 
L 45.3125 54.6875 
L 54.296875 54.6875 
L 54.296875 0 
L 45.3125 0 
L 45.3125 8.40625 
Q 42.046875 3.421875 37.71875 1 
Q 33.40625 -1.421875 27.6875 -1.421875 
Q 18.265625 -1.421875 13.375 4.4375 
Q 8.5 10.296875 8.5 21.578125 
z
M 31.109375 56 
z
" id="DejaVuSans-75"/>
     </defs>
     <g transform="translate(599.803438 120.278437)scale(0.1 -0.1)">
      <use xlink:href="#DejaVuSans-61"/>
      <use x="61.279297" xlink:href="#DejaVuSans-63"/>
      <use x="116.259766" xlink:href="#DejaVuSans-74"/>
      <use x="155.46875" xlink:href="#DejaVuSans-75"/>
      <use x="218.847656" xlink:href="#DejaVuSans-61"/>
      <use x="280.126953" xlink:href="#DejaVuSans-6c"/>
     </g>
    </g>
    <g id="line2d_19">
     <path d="M 571.803438 131.456562 
L 591.803438 131.456562 
" style="fill:none;stroke:#ff7f0e;stroke-linecap:square;stroke-width:1.5;"/>
    </g>
    <g id="line2d_20"/>
    <g id="text_15">
     <!-- pred. (mean) -->
     <defs>
      <path d="M 18.109375 8.203125 
L 18.109375 -20.796875 
L 9.078125 -20.796875 
L 9.078125 54.6875 
L 18.109375 54.6875 
L 18.109375 46.390625 
Q 20.953125 51.265625 25.265625 53.625 
Q 29.59375 56 35.59375 56 
Q 45.5625 56 51.78125 48.09375 
Q 58.015625 40.1875 58.015625 27.296875 
Q 58.015625 14.40625 51.78125 6.484375 
Q 45.5625 -1.421875 35.59375 -1.421875 
Q 29.59375 -1.421875 25.265625 0.953125 
Q 20.953125 3.328125 18.109375 8.203125 
z
M 48.6875 27.296875 
Q 48.6875 37.203125 44.609375 42.84375 
Q 40.53125 48.484375 33.40625 48.484375 
Q 26.265625 48.484375 22.1875 42.84375 
Q 18.109375 37.203125 18.109375 27.296875 
Q 18.109375 17.390625 22.1875 11.75 
Q 26.265625 6.109375 33.40625 6.109375 
Q 40.53125 6.109375 44.609375 11.75 
Q 48.6875 17.390625 48.6875 27.296875 
z
" id="DejaVuSans-70"/>
      <path d="M 45.40625 46.390625 
L 45.40625 75.984375 
L 54.390625 75.984375 
L 54.390625 0 
L 45.40625 0 
L 45.40625 8.203125 
Q 42.578125 3.328125 38.25 0.953125 
Q 33.9375 -1.421875 27.875 -1.421875 
Q 17.96875 -1.421875 11.734375 6.484375 
Q 5.515625 14.40625 5.515625 27.296875 
Q 5.515625 40.1875 11.734375 48.09375 
Q 17.96875 56 27.875 56 
Q 33.9375 56 38.25 53.625 
Q 42.578125 51.265625 45.40625 46.390625 
z
M 14.796875 27.296875 
Q 14.796875 17.390625 18.875 11.75 
Q 22.953125 6.109375 30.078125 6.109375 
Q 37.203125 6.109375 41.296875 11.75 
Q 45.40625 17.390625 45.40625 27.296875 
Q 45.40625 37.203125 41.296875 42.84375 
Q 37.203125 48.484375 30.078125 48.484375 
Q 22.953125 48.484375 18.875 42.84375 
Q 14.796875 37.203125 14.796875 27.296875 
z
" id="DejaVuSans-64"/>
      <path d="M 31 75.875 
Q 24.46875 64.65625 21.28125 53.65625 
Q 18.109375 42.671875 18.109375 31.390625 
Q 18.109375 20.125 21.3125 9.0625 
Q 24.515625 -2 31 -13.1875 
L 23.1875 -13.1875 
Q 15.875 -1.703125 12.234375 9.375 
Q 8.59375 20.453125 8.59375 31.390625 
Q 8.59375 42.28125 12.203125 53.3125 
Q 15.828125 64.359375 23.1875 75.875 
z
" id="DejaVuSans-28"/>
      <path d="M 52 44.1875 
Q 55.375 50.25 60.0625 53.125 
Q 64.75 56 71.09375 56 
Q 79.640625 56 84.28125 50.015625 
Q 88.921875 44.046875 88.921875 33.015625 
L 88.921875 0 
L 79.890625 0 
L 79.890625 32.71875 
Q 79.890625 40.578125 77.09375 44.375 
Q 74.3125 48.1875 68.609375 48.1875 
Q 61.625 48.1875 57.5625 43.546875 
Q 53.515625 38.921875 53.515625 30.90625 
L 53.515625 0 
L 44.484375 0 
L 44.484375 32.71875 
Q 44.484375 40.625 41.703125 44.40625 
Q 38.921875 48.1875 33.109375 48.1875 
Q 26.21875 48.1875 22.15625 43.53125 
Q 18.109375 38.875 18.109375 30.90625 
L 18.109375 0 
L 9.078125 0 
L 9.078125 54.6875 
L 18.109375 54.6875 
L 18.109375 46.1875 
Q 21.1875 51.21875 25.484375 53.609375 
Q 29.78125 56 35.6875 56 
Q 41.65625 56 45.828125 52.96875 
Q 50 49.953125 52 44.1875 
z
" id="DejaVuSans-6d"/>
      <path d="M 8.015625 75.875 
L 15.828125 75.875 
Q 23.140625 64.359375 26.78125 53.3125 
Q 30.421875 42.28125 30.421875 31.390625 
Q 30.421875 20.453125 26.78125 9.375 
Q 23.140625 -1.703125 15.828125 -13.1875 
L 8.015625 -13.1875 
Q 14.5 -2 17.703125 9.0625 
Q 20.90625 20.125 20.90625 31.390625 
Q 20.90625 42.671875 17.703125 53.65625 
Q 14.5 64.65625 8.015625 75.875 
z
" id="DejaVuSans-29"/>
     </defs>
     <g transform="translate(599.803438 134.956562)scale(0.1 -0.1)">
      <use xlink:href="#DejaVuSans-70"/>
      <use x="63.476562" xlink:href="#DejaVuSans-72"/>
      <use x="104.558594" xlink:href="#DejaVuSans-65"/>
      <use x="166.082031" xlink:href="#DejaVuSans-64"/>
      <use x="229.558594" xlink:href="#DejaVuSans-2e"/>
      <use x="261.345703" xlink:href="#DejaVuSans-20"/>
      <use x="293.132812" xlink:href="#DejaVuSans-28"/>
      <use x="332.146484" xlink:href="#DejaVuSans-6d"/>
      <use x="429.558594" xlink:href="#DejaVuSans-65"/>
      <use x="491.082031" xlink:href="#DejaVuSans-61"/>
      <use x="552.361328" xlink:href="#DejaVuSans-6e"/>
      <use x="615.740234" xlink:href="#DejaVuSans-29"/>
     </g>
    </g>
    <g id="line2d_21">
     <path d="M 571.803438 146.134687 
L 591.803438 146.134687 
" style="fill:none;stroke:#2ca02c;stroke-linecap:square;stroke-width:1.5;"/>
    </g>
    <g id="line2d_22"/>
    <g id="text_16">
     <!-- pred.(5th percen.) -->
     <defs>
      <path d="M 10.796875 72.90625 
L 49.515625 72.90625 
L 49.515625 64.59375 
L 19.828125 64.59375 
L 19.828125 46.734375 
Q 21.96875 47.46875 24.109375 47.828125 
Q 26.265625 48.1875 28.421875 48.1875 
Q 40.625 48.1875 47.75 41.5 
Q 54.890625 34.8125 54.890625 23.390625 
Q 54.890625 11.625 47.5625 5.09375 
Q 40.234375 -1.421875 26.90625 -1.421875 
Q 22.3125 -1.421875 17.546875 -0.640625 
Q 12.796875 0.140625 7.71875 1.703125 
L 7.71875 11.625 
Q 12.109375 9.234375 16.796875 8.0625 
Q 21.484375 6.890625 26.703125 6.890625 
Q 35.15625 6.890625 40.078125 11.328125 
Q 45.015625 15.765625 45.015625 23.390625 
Q 45.015625 31 40.078125 35.4375 
Q 35.15625 39.890625 26.703125 39.890625 
Q 22.75 39.890625 18.8125 39.015625 
Q 14.890625 38.140625 10.796875 36.28125 
z
" id="DejaVuSans-35"/>
      <path d="M 54.890625 33.015625 
L 54.890625 0 
L 45.90625 0 
L 45.90625 32.71875 
Q 45.90625 40.484375 42.875 44.328125 
Q 39.84375 48.1875 33.796875 48.1875 
Q 26.515625 48.1875 22.3125 43.546875 
Q 18.109375 38.921875 18.109375 30.90625 
L 18.109375 0 
L 9.078125 0 
L 9.078125 75.984375 
L 18.109375 75.984375 
L 18.109375 46.1875 
Q 21.34375 51.125 25.703125 53.5625 
Q 30.078125 56 35.796875 56 
Q 45.21875 56 50.046875 50.171875 
Q 54.890625 44.34375 54.890625 33.015625 
z
" id="DejaVuSans-68"/>
     </defs>
     <g transform="translate(599.803438 149.634687)scale(0.1 -0.1)">
      <use xlink:href="#DejaVuSans-70"/>
      <use x="63.476562" xlink:href="#DejaVuSans-72"/>
      <use x="104.558594" xlink:href="#DejaVuSans-65"/>
      <use x="166.082031" xlink:href="#DejaVuSans-64"/>
      <use x="229.558594" xlink:href="#DejaVuSans-2e"/>
      <use x="261.345703" xlink:href="#DejaVuSans-28"/>
      <use x="300.359375" xlink:href="#DejaVuSans-35"/>
      <use x="363.982422" xlink:href="#DejaVuSans-74"/>
      <use x="403.191406" xlink:href="#DejaVuSans-68"/>
      <use x="466.570312" xlink:href="#DejaVuSans-20"/>
      <use x="498.357422" xlink:href="#DejaVuSans-70"/>
      <use x="561.833984" xlink:href="#DejaVuSans-65"/>
      <use x="623.357422" xlink:href="#DejaVuSans-72"/>
      <use x="664.439453" xlink:href="#DejaVuSans-63"/>
      <use x="719.419922" xlink:href="#DejaVuSans-65"/>
      <use x="780.943359" xlink:href="#DejaVuSans-6e"/>
      <use x="844.322266" xlink:href="#DejaVuSans-2e"/>
      <use x="876.109375" xlink:href="#DejaVuSans-29"/>
     </g>
    </g>
    <g id="line2d_23">
     <path d="M 571.803438 160.812812 
L 591.803438 160.812812 
" style="fill:none;stroke:#d62728;stroke-linecap:square;stroke-width:1.5;"/>
    </g>
    <g id="line2d_24"/>
    <g id="text_17">
     <!-- pred.(95th percen.) -->
     <defs>
      <path d="M 10.984375 1.515625 
L 10.984375 10.5 
Q 14.703125 8.734375 18.5 7.8125 
Q 22.3125 6.890625 25.984375 6.890625 
Q 35.75 6.890625 40.890625 13.453125 
Q 46.046875 20.015625 46.78125 33.40625 
Q 43.953125 29.203125 39.59375 26.953125 
Q 35.25 24.703125 29.984375 24.703125 
Q 19.046875 24.703125 12.671875 31.3125 
Q 6.296875 37.9375 6.296875 49.421875 
Q 6.296875 60.640625 12.9375 67.421875 
Q 19.578125 74.21875 30.609375 74.21875 
Q 43.265625 74.21875 49.921875 64.515625 
Q 56.59375 54.828125 56.59375 36.375 
Q 56.59375 19.140625 48.40625 8.859375 
Q 40.234375 -1.421875 26.421875 -1.421875 
Q 22.703125 -1.421875 18.890625 -0.6875 
Q 15.09375 0.046875 10.984375 1.515625 
z
M 30.609375 32.421875 
Q 37.25 32.421875 41.125 36.953125 
Q 45.015625 41.5 45.015625 49.421875 
Q 45.015625 57.28125 41.125 61.84375 
Q 37.25 66.40625 30.609375 66.40625 
Q 23.96875 66.40625 20.09375 61.84375 
Q 16.21875 57.28125 16.21875 49.421875 
Q 16.21875 41.5 20.09375 36.953125 
Q 23.96875 32.421875 30.609375 32.421875 
z
" id="DejaVuSans-39"/>
     </defs>
     <g transform="translate(599.803438 164.312812)scale(0.1 -0.1)">
      <use xlink:href="#DejaVuSans-70"/>
      <use x="63.476562" xlink:href="#DejaVuSans-72"/>
      <use x="104.558594" xlink:href="#DejaVuSans-65"/>
      <use x="166.082031" xlink:href="#DejaVuSans-64"/>
      <use x="229.558594" xlink:href="#DejaVuSans-2e"/>
      <use x="261.345703" xlink:href="#DejaVuSans-28"/>
      <use x="300.359375" xlink:href="#DejaVuSans-39"/>
      <use x="363.982422" xlink:href="#DejaVuSans-35"/>
      <use x="427.605469" xlink:href="#DejaVuSans-74"/>
      <use x="466.814453" xlink:href="#DejaVuSans-68"/>
      <use x="530.193359" xlink:href="#DejaVuSans-20"/>
      <use x="561.980469" xlink:href="#DejaVuSans-70"/>
      <use x="625.457031" xlink:href="#DejaVuSans-65"/>
      <use x="686.980469" xlink:href="#DejaVuSans-72"/>
      <use x="728.0625" xlink:href="#DejaVuSans-63"/>
      <use x="783.042969" xlink:href="#DejaVuSans-65"/>
      <use x="844.566406" xlink:href="#DejaVuSans-6e"/>
      <use x="907.945312" xlink:href="#DejaVuSans-2e"/>
      <use x="939.732422" xlink:href="#DejaVuSans-29"/>
     </g>
    </g>
   </g>
  </g>
 </g>
 <defs>
  <clipPath id="pb9cef044ce">
   <rect height="666.92" width="658.96" x="47.72" y="103.68"/>
  </clipPath>
 </defs>
</svg>
