<?xml version="1.0" encoding="utf-8" standalone="no"?>
<!DOCTYPE svg PUBLIC "-//W3C//DTD SVG 1.1//EN"
  "http://www.w3.org/Graphics/SVG/1.1/DTD/svg11.dtd">
<!-- Created with matplotlib (http://matplotlib.org/) -->
<svg height="864pt" version="1.1" viewBox="0 0 720 864" width="720pt" xmlns="http://www.w3.org/2000/svg" xmlns:xlink="http://www.w3.org/1999/xlink">
 <defs>
  <style type="text/css">
*{stroke-linecap:butt;stroke-linejoin:round;}
  </style>
 </defs>
 <g id="figure_1">
  <g id="patch_1">
   <path d="M 0 864 
L 720 864 
L 720 0 
L 0 0 
z
" style="fill:#ffffff;"/>
  </g>
  <g id="axes_1">
   <g id="patch_2">
    <path d="M 47.72 770.6 
L 706.68 770.6 
L 706.68 103.68 
L 47.72 103.68 
z
" style="fill:#ffffff;"/>
   </g>
   <g id="PolyCollection_1">
    <path clip-path="url(#p4fbffd2e3a)" d="M 77.672727 261.149181 
L 77.672727 358.960439 
L 80.713613 358.960439 
L 83.754499 358.960439 
L 86.795385 358.960439 
L 89.836271 358.960439 
L 92.877157 368.741565 
L 95.918043 398.084943 
L 98.958929 417.647194 
L 101.999815 407.866069 
L 105.040701 398.084943 
L 108.081587 417.647194 
L 111.122473 427.42832 
L 114.163359 456.771698 
L 117.204246 476.333949 
L 120.245132 525.239578 
L 123.286018 554.582956 
L 126.326904 583.926333 
L 129.36779 603.488585 
L 132.408676 623.050837 
L 135.449562 642.613088 
L 138.490448 652.394214 
L 141.531334 652.394214 
L 144.57222 652.394214 
L 147.613106 652.394214 
L 150.653992 652.394214 
L 153.694878 652.394214 
L 156.735764 662.17534 
L 159.77665 671.956466 
L 162.817536 671.956466 
L 165.858422 671.956466 
L 168.899308 671.956466 
L 171.940194 671.956466 
L 174.98108 671.956466 
L 178.021966 671.956466 
L 181.062852 671.956466 
L 184.103738 671.956466 
L 187.144624 671.956466 
L 190.18551 671.956466 
L 193.226396 671.956466 
L 196.267282 681.737592 
L 199.308168 671.956466 
L 202.349054 671.956466 
L 205.38994 671.956466 
L 208.430826 662.17534 
L 211.471712 642.613088 
L 214.512598 613.269711 
L 217.553484 583.926333 
L 220.59437 554.582956 
L 223.635256 505.677327 
L 226.676142 446.990572 
L 229.717028 407.866069 
L 232.757914 378.522691 
L 235.7988 368.741565 
L 238.839686 358.960439 
L 241.880572 358.960439 
L 244.921458 349.179314 
L 247.962344 349.179314 
L 251.00323 349.179314 
L 254.044116 339.398188 
L 257.085002 339.398188 
L 260.125888 339.398188 
L 263.166774 339.398188 
L 266.20766 339.398188 
L 269.248546 339.398188 
L 272.289432 339.398188 
L 275.330318 349.179314 
L 278.371204 349.179314 
L 281.41209 358.960439 
L 284.452976 358.960439 
L 287.493862 368.741565 
L 290.534749 368.741565 
L 293.575635 368.741565 
L 296.616521 378.522691 
L 299.657407 398.084943 
L 302.698293 427.42832 
L 305.739179 456.771698 
L 308.780065 476.333949 
L 311.820951 495.896201 
L 314.861837 515.458453 
L 317.902723 535.020704 
L 320.943609 554.582956 
L 323.984495 574.145208 
L 327.025381 583.926333 
L 330.066267 603.488585 
L 333.107153 603.488585 
L 336.148039 603.488585 
L 339.188925 603.488585 
L 342.229811 603.488585 
L 345.270697 603.488585 
L 348.311583 593.707459 
L 351.352469 613.269711 
L 354.393355 623.050837 
L 357.434241 623.050837 
L 360.475127 632.831962 
L 363.516013 652.394214 
L 366.556899 652.394214 
L 369.597785 662.17534 
L 372.638671 662.17534 
L 375.679557 662.17534 
L 378.720443 662.17534 
L 381.761329 662.17534 
L 384.802215 662.17534 
L 387.843101 671.956466 
L 390.883987 671.956466 
L 393.924873 681.737592 
L 396.965759 681.737592 
L 400.006645 681.737592 
L 403.047531 681.737592 
L 406.088417 681.737592 
L 409.129303 681.737592 
L 412.170189 681.737592 
L 415.211075 681.737592 
L 418.251961 681.737592 
L 421.292847 681.737592 
L 424.333733 671.956466 
L 427.374619 671.956466 
L 430.415505 662.17534 
L 433.456391 652.394214 
L 436.497277 632.831962 
L 439.538163 623.050837 
L 442.579049 603.488585 
L 445.619935 583.926333 
L 448.660821 564.364082 
L 451.701707 535.020704 
L 454.742593 515.458453 
L 457.783479 505.677327 
L 460.824365 476.333949 
L 463.865251 446.990572 
L 466.906138 437.209446 
L 469.947024 417.647194 
L 472.98791 398.084943 
L 476.028796 378.522691 
L 479.069682 378.522691 
L 482.110568 378.522691 
L 485.151454 378.522691 
L 488.19234 368.741565 
L 491.233226 388.303817 
L 494.274112 417.647194 
L 497.314998 388.303817 
L 500.355884 378.522691 
L 503.39677 388.303817 
L 506.437656 407.866069 
L 509.478542 388.303817 
L 512.519428 378.522691 
L 515.560314 417.647194 
L 518.6012 446.990572 
L 521.642086 446.990572 
L 524.682972 437.209446 
L 527.723858 437.209446 
L 530.764744 456.771698 
L 533.80563 437.209446 
L 536.846516 437.209446 
L 539.887402 446.990572 
L 542.928288 495.896201 
L 545.969174 505.677327 
L 549.01006 505.677327 
L 552.050946 525.239578 
L 555.091832 554.582956 
L 558.132718 564.364082 
L 561.173604 583.926333 
L 564.21449 603.488585 
L 567.255376 632.831962 
L 570.296262 642.613088 
L 573.337148 652.394214 
L 576.378034 652.394214 
L 579.41892 662.17534 
L 582.459806 671.956466 
L 585.500692 671.956466 
L 588.541578 681.737592 
L 591.582464 681.737592 
L 594.62335 681.737592 
L 597.664236 681.737592 
L 600.705122 681.737592 
L 603.746008 681.737592 
L 606.786894 681.737592 
L 609.82778 681.737592 
L 612.868666 681.737592 
L 615.909552 681.737592 
L 618.950438 681.737592 
L 621.991324 681.737592 
L 625.03221 681.737592 
L 628.073096 681.737592 
L 631.113982 681.737592 
L 634.154868 681.737592 
L 637.195754 671.956466 
L 640.236641 662.17534 
L 643.277527 652.394214 
L 646.318413 632.831962 
L 649.359299 603.488585 
L 652.400185 554.582956 
L 655.441071 505.677327 
L 658.481957 476.333949 
L 661.522843 446.990572 
L 664.563729 417.647194 
L 667.604615 398.084943 
L 670.645501 407.866069 
L 673.686387 417.647194 
L 676.727273 398.084943 
L 676.727273 339.398188 
L 676.727273 339.398188 
L 673.686387 349.179314 
L 670.645501 339.398188 
L 667.604615 339.398188 
L 664.563729 349.179314 
L 661.522843 368.741565 
L 658.481957 368.741565 
L 655.441071 388.303817 
L 652.400185 398.084943 
L 649.359299 417.647194 
L 646.318413 437.209446 
L 643.277527 446.990572 
L 640.236641 456.771698 
L 637.195754 456.771698 
L 634.154868 456.771698 
L 631.113982 456.771698 
L 628.073096 466.552823 
L 625.03221 466.552823 
L 621.991324 466.552823 
L 618.950438 466.552823 
L 615.909552 466.552823 
L 612.868666 466.552823 
L 609.82778 466.552823 
L 606.786894 466.552823 
L 603.746008 466.552823 
L 600.705122 466.552823 
L 597.664236 466.552823 
L 594.62335 466.552823 
L 591.582464 466.552823 
L 588.541578 456.771698 
L 585.500692 456.771698 
L 582.459806 456.771698 
L 579.41892 446.990572 
L 576.378034 446.990572 
L 573.337148 446.990572 
L 570.296262 446.990572 
L 567.255376 437.209446 
L 564.21449 417.647194 
L 561.173604 407.866069 
L 558.132718 407.866069 
L 555.091832 398.084943 
L 552.050946 388.303817 
L 549.01006 388.303817 
L 545.969174 388.303817 
L 542.928288 378.522691 
L 539.887402 358.960439 
L 536.846516 358.960439 
L 533.80563 358.960439 
L 530.764744 368.741565 
L 527.723858 358.960439 
L 524.682972 358.960439 
L 521.642086 358.960439 
L 518.6012 358.960439 
L 515.560314 339.398188 
L 512.519428 319.835936 
L 509.478542 329.617062 
L 506.437656 339.398188 
L 503.39677 329.617062 
L 500.355884 319.835936 
L 497.314998 329.617062 
L 494.274112 339.398188 
L 491.233226 329.617062 
L 488.19234 310.05481 
L 485.151454 319.835936 
L 482.110568 329.617062 
L 479.069682 319.835936 
L 476.028796 319.835936 
L 472.98791 339.398188 
L 469.947024 349.179314 
L 466.906138 358.960439 
L 463.865251 368.741565 
L 460.824365 368.741565 
L 457.783479 388.303817 
L 454.742593 388.303817 
L 451.701707 398.084943 
L 448.660821 407.866069 
L 445.619935 407.866069 
L 442.579049 417.647194 
L 439.538163 427.42832 
L 436.497277 437.209446 
L 433.456391 446.990572 
L 430.415505 446.990572 
L 427.374619 456.771698 
L 424.333733 456.771698 
L 421.292847 456.771698 
L 418.251961 456.771698 
L 415.211075 466.552823 
L 412.170189 466.552823 
L 409.129303 466.552823 
L 406.088417 466.552823 
L 403.047531 466.552823 
L 400.006645 466.552823 
L 396.965759 456.771698 
L 393.924873 456.771698 
L 390.883987 456.771698 
L 387.843101 456.771698 
L 384.802215 456.771698 
L 381.761329 446.990572 
L 378.720443 446.990572 
L 375.679557 446.990572 
L 372.638671 446.990572 
L 369.597785 446.990572 
L 366.556899 446.990572 
L 363.516013 446.990572 
L 360.475127 437.209446 
L 357.434241 427.42832 
L 354.393355 427.42832 
L 351.352469 427.42832 
L 348.311583 417.647194 
L 345.270697 417.647194 
L 342.229811 417.647194 
L 339.188925 417.647194 
L 336.148039 417.647194 
L 333.107153 417.647194 
L 330.066267 417.647194 
L 327.025381 417.647194 
L 323.984495 407.866069 
L 320.943609 398.084943 
L 317.902723 398.084943 
L 314.861837 388.303817 
L 311.820951 378.522691 
L 308.780065 378.522691 
L 305.739179 368.741565 
L 302.698293 349.179314 
L 299.657407 339.398188 
L 296.616521 319.835936 
L 293.575635 310.05481 
L 290.534749 300.273684 
L 287.493862 280.711433 
L 284.452976 251.368055 
L 281.41209 222.024678 
L 278.371204 212.243552 
L 275.330318 182.900175 
L 272.289432 163.337923 
L 269.248546 143.775671 
L 266.20766 133.994545 
L 263.166774 143.775671 
L 260.125888 133.994545 
L 257.085002 143.775671 
L 254.044116 163.337923 
L 251.00323 182.900175 
L 247.962344 202.462426 
L 244.921458 212.243552 
L 241.880572 231.805804 
L 238.839686 241.58693 
L 235.7988 280.711433 
L 232.757914 310.05481 
L 229.717028 349.179314 
L 226.676142 368.741565 
L 223.635256 388.303817 
L 220.59437 398.084943 
L 217.553484 417.647194 
L 214.512598 427.42832 
L 211.471712 437.209446 
L 208.430826 446.990572 
L 205.38994 456.771698 
L 202.349054 456.771698 
L 199.308168 456.771698 
L 196.267282 456.771698 
L 193.226396 456.771698 
L 190.18551 456.771698 
L 187.144624 456.771698 
L 184.103738 456.771698 
L 181.062852 456.771698 
L 178.021966 456.771698 
L 174.98108 456.771698 
L 171.940194 456.771698 
L 168.899308 456.771698 
L 165.858422 456.771698 
L 162.817536 456.771698 
L 159.77665 456.771698 
L 156.735764 446.990572 
L 153.694878 446.990572 
L 150.653992 446.990572 
L 147.613106 446.990572 
L 144.57222 446.990572 
L 141.531334 446.990572 
L 138.490448 446.990572 
L 135.449562 437.209446 
L 132.408676 427.42832 
L 129.36779 417.647194 
L 126.326904 417.647194 
L 123.286018 407.866069 
L 120.245132 388.303817 
L 117.204246 378.522691 
L 114.163359 368.741565 
L 111.122473 358.960439 
L 108.081587 349.179314 
L 105.040701 339.398188 
L 101.999815 349.179314 
L 98.958929 349.179314 
L 95.918043 329.617062 
L 92.877157 290.492559 
L 89.836271 261.149181 
L 86.795385 231.805804 
L 83.754499 231.805804 
L 80.713613 231.805804 
L 77.672727 261.149181 
z
" style="fill:#008000;fill-opacity:0.4;"/>
   </g>
   <g id="matplotlib.axis_1">
    <g id="xtick_1">
     <g id="line2d_1">
      <defs>
       <path d="M 0 0 
L 0 3.5 
" id="medeb1e32f1" style="stroke:#000000;stroke-width:0.8;"/>
      </defs>
      <g>
       <use style="stroke:#000000;stroke-width:0.8;" x="77.672727" xlink:href="#medeb1e32f1" y="770.6"/>
      </g>
     </g>
     <g id="text_1">
      <!-- 0.0 -->
      <defs>
       <path d="M 31.78125 66.40625 
Q 24.171875 66.40625 20.328125 58.90625 
Q 16.5 51.421875 16.5 36.375 
Q 16.5 21.390625 20.328125 13.890625 
Q 24.171875 6.390625 31.78125 6.390625 
Q 39.453125 6.390625 43.28125 13.890625 
Q 47.125 21.390625 47.125 36.375 
Q 47.125 51.421875 43.28125 58.90625 
Q 39.453125 66.40625 31.78125 66.40625 
z
M 31.78125 74.21875 
Q 44.046875 74.21875 50.515625 64.515625 
Q 56.984375 54.828125 56.984375 36.375 
Q 56.984375 17.96875 50.515625 8.265625 
Q 44.046875 -1.421875 31.78125 -1.421875 
Q 19.53125 -1.421875 13.0625 8.265625 
Q 6.59375 17.96875 6.59375 36.375 
Q 6.59375 54.828125 13.0625 64.515625 
Q 19.53125 74.21875 31.78125 74.21875 
z
" id="DejaVuSans-30"/>
       <path d="M 10.6875 12.40625 
L 21 12.40625 
L 21 0 
L 10.6875 0 
z
" id="DejaVuSans-2e"/>
      </defs>
      <g transform="translate(69.721165 785.198437)scale(0.1 -0.1)">
       <use xlink:href="#DejaVuSans-30"/>
       <use x="63.623047" xlink:href="#DejaVuSans-2e"/>
       <use x="95.410156" xlink:href="#DejaVuSans-30"/>
      </g>
     </g>
    </g>
    <g id="xtick_2">
     <g id="line2d_2">
      <g>
       <use style="stroke:#000000;stroke-width:0.8;" x="197.483636" xlink:href="#medeb1e32f1" y="770.6"/>
      </g>
     </g>
     <g id="text_2">
      <!-- 0.2 -->
      <defs>
       <path d="M 19.1875 8.296875 
L 53.609375 8.296875 
L 53.609375 0 
L 7.328125 0 
L 7.328125 8.296875 
Q 12.9375 14.109375 22.625 23.890625 
Q 32.328125 33.6875 34.8125 36.53125 
Q 39.546875 41.84375 41.421875 45.53125 
Q 43.3125 49.21875 43.3125 52.78125 
Q 43.3125 58.59375 39.234375 62.25 
Q 35.15625 65.921875 28.609375 65.921875 
Q 23.96875 65.921875 18.8125 64.3125 
Q 13.671875 62.703125 7.8125 59.421875 
L 7.8125 69.390625 
Q 13.765625 71.78125 18.9375 73 
Q 24.125 74.21875 28.421875 74.21875 
Q 39.75 74.21875 46.484375 68.546875 
Q 53.21875 62.890625 53.21875 53.421875 
Q 53.21875 48.921875 51.53125 44.890625 
Q 49.859375 40.875 45.40625 35.40625 
Q 44.1875 33.984375 37.640625 27.21875 
Q 31.109375 20.453125 19.1875 8.296875 
z
" id="DejaVuSans-32"/>
      </defs>
      <g transform="translate(189.532074 785.198437)scale(0.1 -0.1)">
       <use xlink:href="#DejaVuSans-30"/>
       <use x="63.623047" xlink:href="#DejaVuSans-2e"/>
       <use x="95.410156" xlink:href="#DejaVuSans-32"/>
      </g>
     </g>
    </g>
    <g id="xtick_3">
     <g id="line2d_3">
      <g>
       <use style="stroke:#000000;stroke-width:0.8;" x="317.294545" xlink:href="#medeb1e32f1" y="770.6"/>
      </g>
     </g>
     <g id="text_3">
      <!-- 0.4 -->
      <defs>
       <path d="M 37.796875 64.3125 
L 12.890625 25.390625 
L 37.796875 25.390625 
z
M 35.203125 72.90625 
L 47.609375 72.90625 
L 47.609375 25.390625 
L 58.015625 25.390625 
L 58.015625 17.1875 
L 47.609375 17.1875 
L 47.609375 0 
L 37.796875 0 
L 37.796875 17.1875 
L 4.890625 17.1875 
L 4.890625 26.703125 
z
" id="DejaVuSans-34"/>
      </defs>
      <g transform="translate(309.342983 785.198437)scale(0.1 -0.1)">
       <use xlink:href="#DejaVuSans-30"/>
       <use x="63.623047" xlink:href="#DejaVuSans-2e"/>
       <use x="95.410156" xlink:href="#DejaVuSans-34"/>
      </g>
     </g>
    </g>
    <g id="xtick_4">
     <g id="line2d_4">
      <g>
       <use style="stroke:#000000;stroke-width:0.8;" x="437.105455" xlink:href="#medeb1e32f1" y="770.6"/>
      </g>
     </g>
     <g id="text_4">
      <!-- 0.6 -->
      <defs>
       <path d="M 33.015625 40.375 
Q 26.375 40.375 22.484375 35.828125 
Q 18.609375 31.296875 18.609375 23.390625 
Q 18.609375 15.53125 22.484375 10.953125 
Q 26.375 6.390625 33.015625 6.390625 
Q 39.65625 6.390625 43.53125 10.953125 
Q 47.40625 15.53125 47.40625 23.390625 
Q 47.40625 31.296875 43.53125 35.828125 
Q 39.65625 40.375 33.015625 40.375 
z
M 52.59375 71.296875 
L 52.59375 62.3125 
Q 48.875 64.0625 45.09375 64.984375 
Q 41.3125 65.921875 37.59375 65.921875 
Q 27.828125 65.921875 22.671875 59.328125 
Q 17.53125 52.734375 16.796875 39.40625 
Q 19.671875 43.65625 24.015625 45.921875 
Q 28.375 48.1875 33.59375 48.1875 
Q 44.578125 48.1875 50.953125 41.515625 
Q 57.328125 34.859375 57.328125 23.390625 
Q 57.328125 12.15625 50.6875 5.359375 
Q 44.046875 -1.421875 33.015625 -1.421875 
Q 20.359375 -1.421875 13.671875 8.265625 
Q 6.984375 17.96875 6.984375 36.375 
Q 6.984375 53.65625 15.1875 63.9375 
Q 23.390625 74.21875 37.203125 74.21875 
Q 40.921875 74.21875 44.703125 73.484375 
Q 48.484375 72.75 52.59375 71.296875 
z
" id="DejaVuSans-36"/>
      </defs>
      <g transform="translate(429.153892 785.198437)scale(0.1 -0.1)">
       <use xlink:href="#DejaVuSans-30"/>
       <use x="63.623047" xlink:href="#DejaVuSans-2e"/>
       <use x="95.410156" xlink:href="#DejaVuSans-36"/>
      </g>
     </g>
    </g>
    <g id="xtick_5">
     <g id="line2d_5">
      <g>
       <use style="stroke:#000000;stroke-width:0.8;" x="556.916364" xlink:href="#medeb1e32f1" y="770.6"/>
      </g>
     </g>
     <g id="text_5">
      <!-- 0.8 -->
      <defs>
       <path d="M 31.78125 34.625 
Q 24.75 34.625 20.71875 30.859375 
Q 16.703125 27.09375 16.703125 20.515625 
Q 16.703125 13.921875 20.71875 10.15625 
Q 24.75 6.390625 31.78125 6.390625 
Q 38.8125 6.390625 42.859375 10.171875 
Q 46.921875 13.96875 46.921875 20.515625 
Q 46.921875 27.09375 42.890625 30.859375 
Q 38.875 34.625 31.78125 34.625 
z
M 21.921875 38.8125 
Q 15.578125 40.375 12.03125 44.71875 
Q 8.5 49.078125 8.5 55.328125 
Q 8.5 64.0625 14.71875 69.140625 
Q 20.953125 74.21875 31.78125 74.21875 
Q 42.671875 74.21875 48.875 69.140625 
Q 55.078125 64.0625 55.078125 55.328125 
Q 55.078125 49.078125 51.53125 44.71875 
Q 48 40.375 41.703125 38.8125 
Q 48.828125 37.15625 52.796875 32.3125 
Q 56.78125 27.484375 56.78125 20.515625 
Q 56.78125 9.90625 50.3125 4.234375 
Q 43.84375 -1.421875 31.78125 -1.421875 
Q 19.734375 -1.421875 13.25 4.234375 
Q 6.78125 9.90625 6.78125 20.515625 
Q 6.78125 27.484375 10.78125 32.3125 
Q 14.796875 37.15625 21.921875 38.8125 
z
M 18.3125 54.390625 
Q 18.3125 48.734375 21.84375 45.5625 
Q 25.390625 42.390625 31.78125 42.390625 
Q 38.140625 42.390625 41.71875 45.5625 
Q 45.3125 48.734375 45.3125 54.390625 
Q 45.3125 60.0625 41.71875 63.234375 
Q 38.140625 66.40625 31.78125 66.40625 
Q 25.390625 66.40625 21.84375 63.234375 
Q 18.3125 60.0625 18.3125 54.390625 
z
" id="DejaVuSans-38"/>
      </defs>
      <g transform="translate(548.964801 785.198437)scale(0.1 -0.1)">
       <use xlink:href="#DejaVuSans-30"/>
       <use x="63.623047" xlink:href="#DejaVuSans-2e"/>
       <use x="95.410156" xlink:href="#DejaVuSans-38"/>
      </g>
     </g>
    </g>
    <g id="xtick_6">
     <g id="line2d_6">
      <g>
       <use style="stroke:#000000;stroke-width:0.8;" x="676.727273" xlink:href="#medeb1e32f1" y="770.6"/>
      </g>
     </g>
     <g id="text_6">
      <!-- 1.0 -->
      <defs>
       <path d="M 12.40625 8.296875 
L 28.515625 8.296875 
L 28.515625 63.921875 
L 10.984375 60.40625 
L 10.984375 69.390625 
L 28.421875 72.90625 
L 38.28125 72.90625 
L 38.28125 8.296875 
L 54.390625 8.296875 
L 54.390625 0 
L 12.40625 0 
z
" id="DejaVuSans-31"/>
      </defs>
      <g transform="translate(668.77571 785.198437)scale(0.1 -0.1)">
       <use xlink:href="#DejaVuSans-31"/>
       <use x="63.623047" xlink:href="#DejaVuSans-2e"/>
       <use x="95.410156" xlink:href="#DejaVuSans-30"/>
      </g>
     </g>
    </g>
   </g>
   <g id="matplotlib.axis_2">
    <g id="ytick_1">
     <g id="line2d_7">
      <defs>
       <path d="M 0 0 
L -3.5 0 
" id="m3e049b9f23" style="stroke:#000000;stroke-width:0.8;"/>
      </defs>
      <g>
       <use style="stroke:#000000;stroke-width:0.8;" x="47.72" xlink:href="#m3e049b9f23" y="750.205472"/>
      </g>
     </g>
     <g id="text_7">
      <!-- 0.0 -->
      <g transform="translate(24.816875 754.004691)scale(0.1 -0.1)">
       <use xlink:href="#DejaVuSans-30"/>
       <use x="63.623047" xlink:href="#DejaVuSans-2e"/>
       <use x="95.410156" xlink:href="#DejaVuSans-30"/>
      </g>
     </g>
    </g>
    <g id="ytick_2">
     <g id="line2d_8">
      <g>
       <use style="stroke:#000000;stroke-width:0.8;" x="47.72" xlink:href="#m3e049b9f23" y="652.394214"/>
      </g>
     </g>
     <g id="text_8">
      <!-- 0.1 -->
      <g transform="translate(24.816875 656.193433)scale(0.1 -0.1)">
       <use xlink:href="#DejaVuSans-30"/>
       <use x="63.623047" xlink:href="#DejaVuSans-2e"/>
       <use x="95.410156" xlink:href="#DejaVuSans-31"/>
      </g>
     </g>
    </g>
    <g id="ytick_3">
     <g id="line2d_9">
      <g>
       <use style="stroke:#000000;stroke-width:0.8;" x="47.72" xlink:href="#m3e049b9f23" y="554.582956"/>
      </g>
     </g>
     <g id="text_9">
      <!-- 0.2 -->
      <g transform="translate(24.816875 558.382175)scale(0.1 -0.1)">
       <use xlink:href="#DejaVuSans-30"/>
       <use x="63.623047" xlink:href="#DejaVuSans-2e"/>
       <use x="95.410156" xlink:href="#DejaVuSans-32"/>
      </g>
     </g>
    </g>
    <g id="ytick_4">
     <g id="line2d_10">
      <g>
       <use style="stroke:#000000;stroke-width:0.8;" x="47.72" xlink:href="#m3e049b9f23" y="456.771698"/>
      </g>
     </g>
     <g id="text_10">
      <!-- 0.3 -->
      <defs>
       <path d="M 40.578125 39.3125 
Q 47.65625 37.796875 51.625 33 
Q 55.609375 28.21875 55.609375 21.1875 
Q 55.609375 10.40625 48.1875 4.484375 
Q 40.765625 -1.421875 27.09375 -1.421875 
Q 22.515625 -1.421875 17.65625 -0.515625 
Q 12.796875 0.390625 7.625 2.203125 
L 7.625 11.71875 
Q 11.71875 9.328125 16.59375 8.109375 
Q 21.484375 6.890625 26.8125 6.890625 
Q 36.078125 6.890625 40.9375 10.546875 
Q 45.796875 14.203125 45.796875 21.1875 
Q 45.796875 27.640625 41.28125 31.265625 
Q 36.765625 34.90625 28.71875 34.90625 
L 20.21875 34.90625 
L 20.21875 43.015625 
L 29.109375 43.015625 
Q 36.375 43.015625 40.234375 45.921875 
Q 44.09375 48.828125 44.09375 54.296875 
Q 44.09375 59.90625 40.109375 62.90625 
Q 36.140625 65.921875 28.71875 65.921875 
Q 24.65625 65.921875 20.015625 65.03125 
Q 15.375 64.15625 9.8125 62.3125 
L 9.8125 71.09375 
Q 15.4375 72.65625 20.34375 73.4375 
Q 25.25 74.21875 29.59375 74.21875 
Q 40.828125 74.21875 47.359375 69.109375 
Q 53.90625 64.015625 53.90625 55.328125 
Q 53.90625 49.265625 50.4375 45.09375 
Q 46.96875 40.921875 40.578125 39.3125 
z
" id="DejaVuSans-33"/>
      </defs>
      <g transform="translate(24.816875 460.570916)scale(0.1 -0.1)">
       <use xlink:href="#DejaVuSans-30"/>
       <use x="63.623047" xlink:href="#DejaVuSans-2e"/>
       <use x="95.410156" xlink:href="#DejaVuSans-33"/>
      </g>
     </g>
    </g>
    <g id="ytick_5">
     <g id="line2d_11">
      <g>
       <use style="stroke:#000000;stroke-width:0.8;" x="47.72" xlink:href="#m3e049b9f23" y="358.960439"/>
      </g>
     </g>
     <g id="text_11">
      <!-- 0.4 -->
      <g transform="translate(24.816875 362.759658)scale(0.1 -0.1)">
       <use xlink:href="#DejaVuSans-30"/>
       <use x="63.623047" xlink:href="#DejaVuSans-2e"/>
       <use x="95.410156" xlink:href="#DejaVuSans-34"/>
      </g>
     </g>
    </g>
    <g id="ytick_6">
     <g id="line2d_12">
      <g>
       <use style="stroke:#000000;stroke-width:0.8;" x="47.72" xlink:href="#m3e049b9f23" y="261.149181"/>
      </g>
     </g>
     <g id="text_12">
      <!-- 0.5 -->
      <defs>
       <path d="M 10.796875 72.90625 
L 49.515625 72.90625 
L 49.515625 64.59375 
L 19.828125 64.59375 
L 19.828125 46.734375 
Q 21.96875 47.46875 24.109375 47.828125 
Q 26.265625 48.1875 28.421875 48.1875 
Q 40.625 48.1875 47.75 41.5 
Q 54.890625 34.8125 54.890625 23.390625 
Q 54.890625 11.625 47.5625 5.09375 
Q 40.234375 -1.421875 26.90625 -1.421875 
Q 22.3125 -1.421875 17.546875 -0.640625 
Q 12.796875 0.140625 7.71875 1.703125 
L 7.71875 11.625 
Q 12.109375 9.234375 16.796875 8.0625 
Q 21.484375 6.890625 26.703125 6.890625 
Q 35.15625 6.890625 40.078125 11.328125 
Q 45.015625 15.765625 45.015625 23.390625 
Q 45.015625 31 40.078125 35.4375 
Q 35.15625 39.890625 26.703125 39.890625 
Q 22.75 39.890625 18.8125 39.015625 
Q 14.890625 38.140625 10.796875 36.28125 
z
" id="DejaVuSans-35"/>
      </defs>
      <g transform="translate(24.816875 264.9484)scale(0.1 -0.1)">
       <use xlink:href="#DejaVuSans-30"/>
       <use x="63.623047" xlink:href="#DejaVuSans-2e"/>
       <use x="95.410156" xlink:href="#DejaVuSans-35"/>
      </g>
     </g>
    </g>
    <g id="ytick_7">
     <g id="line2d_13">
      <g>
       <use style="stroke:#000000;stroke-width:0.8;" x="47.72" xlink:href="#m3e049b9f23" y="163.337923"/>
      </g>
     </g>
     <g id="text_13">
      <!-- 0.6 -->
      <g transform="translate(24.816875 167.137142)scale(0.1 -0.1)">
       <use xlink:href="#DejaVuSans-30"/>
       <use x="63.623047" xlink:href="#DejaVuSans-2e"/>
       <use x="95.410156" xlink:href="#DejaVuSans-36"/>
      </g>
     </g>
    </g>
   </g>
   <g id="line2d_14">
    <path clip-path="url(#p4fbffd2e3a)" d="M 77.672727 267.431598 
L 80.713613 256.850376 
L 83.754499 276.029208 
L 86.795385 278.01282 
L 89.836271 322.322298 
L 92.877157 361.341165 
L 95.918043 391.762423 
L 98.958929 385.149404 
L 101.999815 370.599979 
L 105.040701 387.133016 
L 108.081587 399.698828 
L 111.122473 426.151883 
L 114.163359 438.055513 
L 117.204246 479.720175 
L 120.245132 524.690857 
L 126.326904 579.581557 
L 129.36779 596.114594 
L 132.408676 639.101664 
L 135.449562 658.280104 
L 138.490448 664.232115 
L 141.531334 671.50673 
L 144.57222 666.216119 
L 147.613106 664.232115 
L 150.653992 664.232115 
L 153.694878 674.813435 
L 156.735764 693.330769 
L 159.77665 698.621478 
L 162.817536 701.928085 
L 165.858422 711.848103 
L 168.899308 711.848103 
L 171.940194 715.154808 
L 174.98108 707.218794 
L 178.021966 703.250787 
L 181.062852 709.202797 
L 184.103738 708.541495 
L 187.144624 712.509405 
L 190.18551 713.170804 
L 193.226396 717.138812 
L 196.267282 711.848103 
L 199.308168 703.912089 
L 202.349054 693.330769 
L 205.38994 678.781442 
L 208.430826 641.085276 
L 211.471712 595.45339 
L 214.512598 557.095727 
L 217.553484 521.383859 
L 220.59437 469.138953 
L 223.635256 419.538864 
L 226.676142 376.551794 
L 229.717028 340.178722 
L 232.757914 311.741076 
L 235.7988 280.658615 
L 238.839686 265.447986 
L 241.880572 252.22097 
L 244.921458 240.317339 
L 251.00323 203.944267 
L 254.044116 191.378454 
L 257.085002 179.474824 
L 260.125888 186.087843 
L 263.166774 176.167826 
L 266.20766 180.136028 
L 269.248546 203.944267 
L 272.289432 225.106711 
L 275.330318 250.237357 
L 278.371204 251.559765 
L 281.41209 278.675002 
L 284.452976 319.016278 
L 287.493862 325.629297 
L 290.534749 330.258704 
L 293.575635 348.776331 
L 296.616521 365.309368 
L 299.657407 403.004849 
L 305.739179 442.023716 
L 308.780065 465.831954 
L 311.820951 475.090768 
L 314.861837 498.899007 
L 317.902723 516.754452 
L 320.943609 538.579078 
L 323.984495 551.143912 
L 327.025381 574.290946 
L 330.066267 580.242761 
L 336.148039 576.274559 
L 339.188925 580.903965 
L 342.229811 580.242761 
L 345.270697 567.676949 
L 351.352469 605.373408 
L 354.393355 615.95463 
L 357.434241 621.906445 
L 360.475127 650.34409 
L 363.516013 669.522726 
L 366.556899 674.813435 
L 369.597785 678.12014 
L 372.638671 675.474737 
L 375.679557 680.765445 
L 378.720443 680.104144 
L 381.761329 684.733453 
L 384.802215 695.976074 
L 390.883987 714.493408 
L 393.924873 721.106819 
L 396.965759 729.042833 
L 400.006645 731.688138 
L 403.047531 729.704135 
L 406.088417 726.39743 
L 409.129303 731.688138 
L 412.170189 732.34944 
L 415.211075 724.413426 
L 418.251961 717.138812 
L 421.292847 710.525401 
L 424.333733 697.960078 
L 427.374619 680.104144 
L 430.415505 654.312097 
L 433.456391 638.44046 
L 436.497277 601.405205 
L 439.538163 574.290946 
L 442.579049 554.450911 
L 445.619935 528.65906 
L 448.660821 500.882619 
L 451.701707 478.397767 
L 454.742593 475.090768 
L 457.783479 443.347102 
L 460.824365 416.89307 
L 463.865251 410.941254 
L 466.906138 396.39183 
L 469.947024 375.89059 
L 472.98791 330.919908 
L 476.028796 350.759944 
L 479.069682 356.711759 
L 482.110568 343.484742 
L 485.151454 325.629297 
L 488.19234 344.808128 
L 491.233226 396.39183 
L 494.274112 356.050554 
L 497.314998 337.532927 
L 500.355884 352.743556 
L 503.39677 386.471812 
L 506.437656 356.050554 
L 509.478542 334.888111 
L 512.519428 381.181201 
L 515.560314 417.554274 
L 518.6012 415.570661 
L 521.642086 408.957642 
L 524.682972 406.973052 
L 527.723858 426.813087 
L 530.764744 416.231865 
L 533.80563 399.037624 
L 536.846516 415.570661 
L 539.887402 443.347102 
L 542.928288 481.042583 
L 545.969174 463.848342 
L 549.01006 481.042583 
L 552.050946 516.093248 
L 555.091832 533.288467 
L 558.132718 551.143912 
L 561.173604 567.015745 
L 564.21449 613.971018 
L 567.255376 646.375887 
L 570.296262 657.618705 
L 573.337148 665.554719 
L 576.378034 676.136136 
L 579.41892 700.605481 
L 582.459806 711.848103 
L 585.500692 716.477412 
L 588.541578 723.752124 
L 591.582464 729.704135 
L 594.62335 730.365437 
L 597.664236 727.720131 
L 600.705122 727.720131 
L 603.746008 724.413426 
L 606.786894 727.058829 
L 609.82778 731.688138 
L 612.868666 733.672142 
L 615.909552 738.301451 
L 618.950438 740.285455 
L 621.991324 740.285455 
L 625.03221 734.333444 
L 628.073096 724.413426 
L 631.113982 717.138812 
L 634.154868 707.218794 
L 637.195754 692.008067 
L 640.236641 664.893417 
L 646.318413 589.501575 
L 649.359299 520.06145 
L 652.400185 470.461361 
L 655.441071 440.040104 
L 658.481957 420.861272 
L 661.522843 393.747013 
L 664.563729 362.663574 
L 667.604615 382.503609 
L 670.645501 395.069422 
L 673.686387 377.874202 
L 676.727273 352.082352 
L 676.727273 352.082352 
" style="fill:none;stroke:#1f77b4;stroke-linecap:square;stroke-width:1.5;"/>
   </g>
   <g id="line2d_15">
    <path clip-path="url(#p4fbffd2e3a)" d="M 77.672727 298.915781 
L 80.713613 271.701858 
L 83.754499 269.707409 
L 86.795385 272.841359 
L 89.836271 291.30658 
L 95.918043 363.401328 
L 98.958929 389.268416 
L 101.999815 383.581206 
L 105.040701 379.259236 
L 108.081587 387.654016 
L 111.122473 404.001752 
L 114.163359 426.449178 
L 117.204246 444.211702 
L 120.245132 478.08284 
L 123.286018 510.441379 
L 126.326904 534.627529 
L 132.408676 565.770505 
L 135.449562 584.460563 
L 138.490448 596.039872 
L 141.531334 599.640742 
L 144.57222 601.459774 
L 147.613106 600.181792 
L 150.653992 599.517834 
L 153.694878 600.460812 
L 156.735764 605.049704 
L 159.77665 611.472815 
L 162.817536 614.43418 
L 168.899308 619.42886 
L 171.940194 620.612119 
L 174.98108 621.076851 
L 178.021966 618.415741 
L 181.062852 617.533381 
L 184.103738 618.238265 
L 187.144624 619.492952 
L 193.226396 620.839273 
L 196.267282 621.878131 
L 199.308168 619.871456 
L 202.349054 617.191942 
L 205.38994 612.1925 
L 208.430826 603.903639 
L 211.471712 585.514479 
L 214.512598 562.124204 
L 217.553484 535.565101 
L 220.59437 506.974227 
L 223.635256 465.485909 
L 226.676142 418.470611 
L 229.717028 380.746868 
L 232.757914 339.975532 
L 235.7988 311.942439 
L 238.839686 282.707683 
L 241.880572 267.842045 
L 247.962344 243.504416 
L 251.00323 226.640854 
L 254.044116 212.39413 
L 257.085002 200.875181 
L 260.125888 193.816554 
L 263.166774 193.900595 
L 266.20766 187.410046 
L 269.248546 199.008659 
L 272.289432 212.969415 
L 275.330318 233.64916 
L 278.371204 250.445155 
L 281.41209 260.865786 
L 287.493862 314.668413 
L 290.534749 328.78232 
L 293.575635 335.599893 
L 296.616521 349.132467 
L 302.698293 400.238206 
L 305.739179 423.76117 
L 308.780065 445.063304 
L 311.820951 461.092253 
L 314.861837 476.162908 
L 317.902723 490.29715 
L 320.943609 508.802911 
L 323.984495 522.057366 
L 330.066267 546.450465 
L 333.107153 550.180162 
L 336.148039 551.923777 
L 339.188925 551.536264 
L 342.229811 552.483231 
L 345.270697 547.918792 
L 348.311583 547.84376 
L 351.352469 557.906222 
L 354.393355 567.470876 
L 357.434241 572.072767 
L 360.475127 580.686464 
L 363.516013 592.587906 
L 366.556899 600.874064 
L 369.597785 604.195529 
L 372.638671 604.725125 
L 375.679557 605.783803 
L 381.761329 606.992287 
L 384.802215 609.609124 
L 387.843101 613.448989 
L 390.883987 617.891035 
L 393.924873 621.467581 
L 396.965759 623.87747 
L 400.006645 626.550678 
L 403.047531 627.434712 
L 409.129303 626.574616 
L 412.170189 627.407556 
L 415.211075 627.473193 
L 418.251961 624.643487 
L 421.292847 622.628575 
L 424.333733 619.6129 
L 427.374619 613.569193 
L 430.415505 605.962052 
L 433.456391 595.87977 
L 436.497277 583.595577 
L 439.538163 565.090202 
L 442.579049 548.559327 
L 445.619935 533.523935 
L 448.660821 515.002729 
L 451.701707 493.19069 
L 454.742593 477.580528 
L 457.783479 467.778939 
L 460.824365 439.994364 
L 463.865251 421.331333 
L 466.906138 409.926411 
L 469.947024 397.981597 
L 472.98791 369.240145 
L 476.028796 343.197769 
L 479.069682 353.50167 
L 482.110568 355.605899 
L 485.151454 341.44965 
L 488.19234 332.022704 
L 491.233226 360.752573 
L 494.274112 383.557912 
L 497.314998 358.063536 
L 500.355884 343.731226 
L 503.39677 362.500177 
L 506.437656 377.04883 
L 509.478542 355.966514 
L 512.519428 348.057959 
L 515.560314 386.988127 
L 518.6012 413.120978 
L 521.642086 417.653372 
L 524.682972 407.281646 
L 527.723858 413.830753 
L 530.764744 422.725915 
L 533.80563 413.132561 
L 536.846516 407.832478 
L 539.887402 417.507942 
L 542.928288 452.038276 
L 545.969174 467.262341 
L 549.01006 467.188468 
L 552.050946 480.629022 
L 555.091832 503.486741 
L 558.132718 519.950563 
L 561.173604 531.617773 
L 564.21449 547.760363 
L 567.255376 572.02206 
L 570.296262 589.410327 
L 573.337148 595.714907 
L 576.378034 600.139579 
L 579.41892 605.744808 
L 582.459806 614.877033 
L 585.500692 619.845845 
L 591.582464 624.869869 
L 594.62335 626.509623 
L 597.664236 627.075899 
L 600.705122 626.609751 
L 603.746008 625.905252 
L 606.786894 625.574238 
L 609.82778 626.128674 
L 612.868666 627.61296 
L 615.909552 628.826205 
L 618.950438 629.839324 
L 621.991324 630.547297 
L 625.03221 630.863511 
L 628.073096 628.240625 
L 634.154868 621.794477 
L 637.195754 618.032347 
L 640.236641 611.465093 
L 643.277527 597.743718 
L 646.318413 580.754031 
L 649.359299 552.499705 
L 655.441071 467.781127 
L 658.481957 440.764885 
L 661.522843 420.61435 
L 664.563729 391.261964 
L 667.604615 373.720287 
L 670.645501 384.975274 
L 673.686387 392.123347 
L 676.727273 377.210218 
L 676.727273 377.210218 
" style="fill:none;stroke:#ff7f0e;stroke-linecap:square;stroke-width:1.5;"/>
   </g>
   <g id="line2d_16">
    <path clip-path="url(#p4fbffd2e3a)" d="M 77.672727 358.960439 
L 89.836271 358.960439 
L 92.877157 368.741565 
L 95.918043 398.084943 
L 98.958929 417.647194 
L 105.040701 398.084943 
L 108.081587 417.647194 
L 111.122473 427.42832 
L 114.163359 456.771698 
L 117.204246 476.333949 
L 120.245132 525.239578 
L 126.326904 583.926333 
L 135.449562 642.613088 
L 138.490448 652.394214 
L 153.694878 652.394214 
L 159.77665 671.956466 
L 193.226396 671.956466 
L 196.267282 681.737592 
L 199.308168 671.956466 
L 205.38994 671.956466 
L 208.430826 662.17534 
L 211.471712 642.613088 
L 220.59437 554.582956 
L 223.635256 505.677327 
L 226.676142 446.990572 
L 229.717028 407.866069 
L 232.757914 378.522691 
L 238.839686 358.960439 
L 241.880572 358.960439 
L 244.921458 349.179314 
L 251.00323 349.179314 
L 254.044116 339.398188 
L 272.289432 339.398188 
L 275.330318 349.179314 
L 278.371204 349.179314 
L 281.41209 358.960439 
L 284.452976 358.960439 
L 287.493862 368.741565 
L 293.575635 368.741565 
L 296.616521 378.522691 
L 299.657407 398.084943 
L 305.739179 456.771698 
L 323.984495 574.145208 
L 327.025381 583.926333 
L 330.066267 603.488585 
L 345.270697 603.488585 
L 348.311583 593.707459 
L 351.352469 613.269711 
L 354.393355 623.050837 
L 357.434241 623.050837 
L 360.475127 632.831962 
L 363.516013 652.394214 
L 366.556899 652.394214 
L 369.597785 662.17534 
L 384.802215 662.17534 
L 387.843101 671.956466 
L 390.883987 671.956466 
L 393.924873 681.737592 
L 421.292847 681.737592 
L 424.333733 671.956466 
L 427.374619 671.956466 
L 433.456391 652.394214 
L 436.497277 632.831962 
L 439.538163 623.050837 
L 448.660821 564.364082 
L 451.701707 535.020704 
L 454.742593 515.458453 
L 457.783479 505.677327 
L 463.865251 446.990572 
L 466.906138 437.209446 
L 476.028796 378.522691 
L 485.151454 378.522691 
L 488.19234 368.741565 
L 491.233226 388.303817 
L 494.274112 417.647194 
L 497.314998 388.303817 
L 500.355884 378.522691 
L 503.39677 388.303817 
L 506.437656 407.866069 
L 509.478542 388.303817 
L 512.519428 378.522691 
L 515.560314 417.647194 
L 518.6012 446.990572 
L 521.642086 446.990572 
L 524.682972 437.209446 
L 527.723858 437.209446 
L 530.764744 456.771698 
L 533.80563 437.209446 
L 536.846516 437.209446 
L 539.887402 446.990572 
L 542.928288 495.896201 
L 545.969174 505.677327 
L 549.01006 505.677327 
L 552.050946 525.239578 
L 555.091832 554.582956 
L 558.132718 564.364082 
L 564.21449 603.488585 
L 567.255376 632.831962 
L 573.337148 652.394214 
L 576.378034 652.394214 
L 582.459806 671.956466 
L 585.500692 671.956466 
L 588.541578 681.737592 
L 634.154868 681.737592 
L 643.277527 652.394214 
L 646.318413 632.831962 
L 649.359299 603.488585 
L 655.441071 505.677327 
L 664.563729 417.647194 
L 667.604615 398.084943 
L 673.686387 417.647194 
L 676.727273 398.084943 
L 676.727273 398.084943 
" style="fill:none;stroke:#2ca02c;stroke-linecap:square;stroke-width:1.5;"/>
   </g>
   <g id="line2d_17">
    <path clip-path="url(#p4fbffd2e3a)" d="M 77.672727 261.149181 
L 80.713613 231.805804 
L 86.795385 231.805804 
L 92.877157 290.492559 
L 95.918043 329.617062 
L 98.958929 349.179314 
L 101.999815 349.179314 
L 105.040701 339.398188 
L 120.245132 388.303817 
L 123.286018 407.866069 
L 126.326904 417.647194 
L 129.36779 417.647194 
L 138.490448 446.990572 
L 156.735764 446.990572 
L 159.77665 456.771698 
L 205.38994 456.771698 
L 217.553484 417.647194 
L 220.59437 398.084943 
L 223.635256 388.303817 
L 229.717028 349.179314 
L 232.757914 310.05481 
L 235.7988 280.711433 
L 238.839686 241.58693 
L 241.880572 231.805804 
L 244.921458 212.243552 
L 247.962344 202.462426 
L 257.085002 143.775671 
L 260.125888 133.994545 
L 263.166774 143.775671 
L 266.20766 133.994545 
L 269.248546 143.775671 
L 275.330318 182.900175 
L 278.371204 212.243552 
L 281.41209 222.024678 
L 287.493862 280.711433 
L 290.534749 300.273684 
L 296.616521 319.835936 
L 299.657407 339.398188 
L 302.698293 349.179314 
L 305.739179 368.741565 
L 308.780065 378.522691 
L 311.820951 378.522691 
L 317.902723 398.084943 
L 320.943609 398.084943 
L 327.025381 417.647194 
L 348.311583 417.647194 
L 351.352469 427.42832 
L 357.434241 427.42832 
L 363.516013 446.990572 
L 381.761329 446.990572 
L 384.802215 456.771698 
L 396.965759 456.771698 
L 400.006645 466.552823 
L 415.211075 466.552823 
L 418.251961 456.771698 
L 427.374619 456.771698 
L 430.415505 446.990572 
L 433.456391 446.990572 
L 445.619935 407.866069 
L 448.660821 407.866069 
L 454.742593 388.303817 
L 457.783479 388.303817 
L 460.824365 368.741565 
L 463.865251 368.741565 
L 472.98791 339.398188 
L 476.028796 319.835936 
L 479.069682 319.835936 
L 482.110568 329.617062 
L 488.19234 310.05481 
L 491.233226 329.617062 
L 494.274112 339.398188 
L 500.355884 319.835936 
L 506.437656 339.398188 
L 512.519428 319.835936 
L 518.6012 358.960439 
L 527.723858 358.960439 
L 530.764744 368.741565 
L 533.80563 358.960439 
L 539.887402 358.960439 
L 542.928288 378.522691 
L 545.969174 388.303817 
L 552.050946 388.303817 
L 558.132718 407.866069 
L 561.173604 407.866069 
L 564.21449 417.647194 
L 567.255376 437.209446 
L 570.296262 446.990572 
L 579.41892 446.990572 
L 582.459806 456.771698 
L 588.541578 456.771698 
L 591.582464 466.552823 
L 628.073096 466.552823 
L 631.113982 456.771698 
L 640.236641 456.771698 
L 646.318413 437.209446 
L 652.400185 398.084943 
L 655.441071 388.303817 
L 658.481957 368.741565 
L 661.522843 368.741565 
L 664.563729 349.179314 
L 667.604615 339.398188 
L 670.645501 339.398188 
L 673.686387 349.179314 
L 676.727273 339.398188 
L 676.727273 339.398188 
" style="fill:none;stroke:#d62728;stroke-linecap:square;stroke-width:1.5;"/>
   </g>
   <g id="patch_3">
    <path d="M 47.72 770.6 
L 47.72 103.68 
" style="fill:none;stroke:#000000;stroke-linecap:square;stroke-linejoin:miter;stroke-width:0.8;"/>
   </g>
   <g id="patch_4">
    <path d="M 706.68 770.6 
L 706.68 103.68 
" style="fill:none;stroke:#000000;stroke-linecap:square;stroke-linejoin:miter;stroke-width:0.8;"/>
   </g>
   <g id="patch_5">
    <path d="M 47.72 770.6 
L 706.68 770.6 
" style="fill:none;stroke:#000000;stroke-linecap:square;stroke-linejoin:miter;stroke-width:0.8;"/>
   </g>
   <g id="patch_6">
    <path d="M 47.72 103.68 
L 706.68 103.68 
" style="fill:none;stroke:#000000;stroke-linecap:square;stroke-linejoin:miter;stroke-width:0.8;"/>
   </g>
   <g id="text_14">
    <!-- Plot of Test Data vs MCMC Uncertainty  -->
    <defs>
     <path d="M 19.671875 64.796875 
L 19.671875 37.40625 
L 32.078125 37.40625 
Q 38.96875 37.40625 42.71875 40.96875 
Q 46.484375 44.53125 46.484375 51.125 
Q 46.484375 57.671875 42.71875 61.234375 
Q 38.96875 64.796875 32.078125 64.796875 
z
M 9.8125 72.90625 
L 32.078125 72.90625 
Q 44.34375 72.90625 50.609375 67.359375 
Q 56.890625 61.8125 56.890625 51.125 
Q 56.890625 40.328125 50.609375 34.8125 
Q 44.34375 29.296875 32.078125 29.296875 
L 19.671875 29.296875 
L 19.671875 0 
L 9.8125 0 
z
" id="DejaVuSans-50"/>
     <path d="M 9.421875 75.984375 
L 18.40625 75.984375 
L 18.40625 0 
L 9.421875 0 
z
" id="DejaVuSans-6c"/>
     <path d="M 30.609375 48.390625 
Q 23.390625 48.390625 19.1875 42.75 
Q 14.984375 37.109375 14.984375 27.296875 
Q 14.984375 17.484375 19.15625 11.84375 
Q 23.34375 6.203125 30.609375 6.203125 
Q 37.796875 6.203125 41.984375 11.859375 
Q 46.1875 17.53125 46.1875 27.296875 
Q 46.1875 37.015625 41.984375 42.703125 
Q 37.796875 48.390625 30.609375 48.390625 
z
M 30.609375 56 
Q 42.328125 56 49.015625 48.375 
Q 55.71875 40.765625 55.71875 27.296875 
Q 55.71875 13.875 49.015625 6.21875 
Q 42.328125 -1.421875 30.609375 -1.421875 
Q 18.84375 -1.421875 12.171875 6.21875 
Q 5.515625 13.875 5.515625 27.296875 
Q 5.515625 40.765625 12.171875 48.375 
Q 18.84375 56 30.609375 56 
z
" id="DejaVuSans-6f"/>
     <path d="M 18.3125 70.21875 
L 18.3125 54.6875 
L 36.8125 54.6875 
L 36.8125 47.703125 
L 18.3125 47.703125 
L 18.3125 18.015625 
Q 18.3125 11.328125 20.140625 9.421875 
Q 21.96875 7.515625 27.59375 7.515625 
L 36.8125 7.515625 
L 36.8125 0 
L 27.59375 0 
Q 17.1875 0 13.234375 3.875 
Q 9.28125 7.765625 9.28125 18.015625 
L 9.28125 47.703125 
L 2.6875 47.703125 
L 2.6875 54.6875 
L 9.28125 54.6875 
L 9.28125 70.21875 
z
" id="DejaVuSans-74"/>
     <path id="DejaVuSans-20"/>
     <path d="M 37.109375 75.984375 
L 37.109375 68.5 
L 28.515625 68.5 
Q 23.6875 68.5 21.796875 66.546875 
Q 19.921875 64.59375 19.921875 59.515625 
L 19.921875 54.6875 
L 34.71875 54.6875 
L 34.71875 47.703125 
L 19.921875 47.703125 
L 19.921875 0 
L 10.890625 0 
L 10.890625 47.703125 
L 2.296875 47.703125 
L 2.296875 54.6875 
L 10.890625 54.6875 
L 10.890625 58.5 
Q 10.890625 67.625 15.140625 71.796875 
Q 19.390625 75.984375 28.609375 75.984375 
z
" id="DejaVuSans-66"/>
     <path d="M -0.296875 72.90625 
L 61.375 72.90625 
L 61.375 64.59375 
L 35.5 64.59375 
L 35.5 0 
L 25.59375 0 
L 25.59375 64.59375 
L -0.296875 64.59375 
z
" id="DejaVuSans-54"/>
     <path d="M 56.203125 29.59375 
L 56.203125 25.203125 
L 14.890625 25.203125 
Q 15.484375 15.921875 20.484375 11.0625 
Q 25.484375 6.203125 34.421875 6.203125 
Q 39.59375 6.203125 44.453125 7.46875 
Q 49.3125 8.734375 54.109375 11.28125 
L 54.109375 2.78125 
Q 49.265625 0.734375 44.1875 -0.34375 
Q 39.109375 -1.421875 33.890625 -1.421875 
Q 20.796875 -1.421875 13.15625 6.1875 
Q 5.515625 13.8125 5.515625 26.8125 
Q 5.515625 40.234375 12.765625 48.109375 
Q 20.015625 56 32.328125 56 
Q 43.359375 56 49.78125 48.890625 
Q 56.203125 41.796875 56.203125 29.59375 
z
M 47.21875 32.234375 
Q 47.125 39.59375 43.09375 43.984375 
Q 39.0625 48.390625 32.421875 48.390625 
Q 24.90625 48.390625 20.390625 44.140625 
Q 15.875 39.890625 15.1875 32.171875 
z
" id="DejaVuSans-65"/>
     <path d="M 44.28125 53.078125 
L 44.28125 44.578125 
Q 40.484375 46.53125 36.375 47.5 
Q 32.28125 48.484375 27.875 48.484375 
Q 21.1875 48.484375 17.84375 46.4375 
Q 14.5 44.390625 14.5 40.28125 
Q 14.5 37.15625 16.890625 35.375 
Q 19.28125 33.59375 26.515625 31.984375 
L 29.59375 31.296875 
Q 39.15625 29.25 43.1875 25.515625 
Q 47.21875 21.78125 47.21875 15.09375 
Q 47.21875 7.46875 41.1875 3.015625 
Q 35.15625 -1.421875 24.609375 -1.421875 
Q 20.21875 -1.421875 15.453125 -0.5625 
Q 10.6875 0.296875 5.421875 2 
L 5.421875 11.28125 
Q 10.40625 8.6875 15.234375 7.390625 
Q 20.0625 6.109375 24.8125 6.109375 
Q 31.15625 6.109375 34.5625 8.28125 
Q 37.984375 10.453125 37.984375 14.40625 
Q 37.984375 18.0625 35.515625 20.015625 
Q 33.0625 21.96875 24.703125 23.78125 
L 21.578125 24.515625 
Q 13.234375 26.265625 9.515625 29.90625 
Q 5.8125 33.546875 5.8125 39.890625 
Q 5.8125 47.609375 11.28125 51.796875 
Q 16.75 56 26.8125 56 
Q 31.78125 56 36.171875 55.265625 
Q 40.578125 54.546875 44.28125 53.078125 
z
" id="DejaVuSans-73"/>
     <path d="M 19.671875 64.796875 
L 19.671875 8.109375 
L 31.59375 8.109375 
Q 46.6875 8.109375 53.6875 14.9375 
Q 60.6875 21.78125 60.6875 36.53125 
Q 60.6875 51.171875 53.6875 57.984375 
Q 46.6875 64.796875 31.59375 64.796875 
z
M 9.8125 72.90625 
L 30.078125 72.90625 
Q 51.265625 72.90625 61.171875 64.09375 
Q 71.09375 55.28125 71.09375 36.53125 
Q 71.09375 17.671875 61.125 8.828125 
Q 51.171875 0 30.078125 0 
L 9.8125 0 
z
" id="DejaVuSans-44"/>
     <path d="M 34.28125 27.484375 
Q 23.390625 27.484375 19.1875 25 
Q 14.984375 22.515625 14.984375 16.5 
Q 14.984375 11.71875 18.140625 8.90625 
Q 21.296875 6.109375 26.703125 6.109375 
Q 34.1875 6.109375 38.703125 11.40625 
Q 43.21875 16.703125 43.21875 25.484375 
L 43.21875 27.484375 
z
M 52.203125 31.203125 
L 52.203125 0 
L 43.21875 0 
L 43.21875 8.296875 
Q 40.140625 3.328125 35.546875 0.953125 
Q 30.953125 -1.421875 24.3125 -1.421875 
Q 15.921875 -1.421875 10.953125 3.296875 
Q 6 8.015625 6 15.921875 
Q 6 25.140625 12.171875 29.828125 
Q 18.359375 34.515625 30.609375 34.515625 
L 43.21875 34.515625 
L 43.21875 35.40625 
Q 43.21875 41.609375 39.140625 45 
Q 35.0625 48.390625 27.6875 48.390625 
Q 23 48.390625 18.546875 47.265625 
Q 14.109375 46.140625 10.015625 43.890625 
L 10.015625 52.203125 
Q 14.9375 54.109375 19.578125 55.046875 
Q 24.21875 56 28.609375 56 
Q 40.484375 56 46.34375 49.84375 
Q 52.203125 43.703125 52.203125 31.203125 
z
" id="DejaVuSans-61"/>
     <path d="M 2.984375 54.6875 
L 12.5 54.6875 
L 29.59375 8.796875 
L 46.6875 54.6875 
L 56.203125 54.6875 
L 35.6875 0 
L 23.484375 0 
z
" id="DejaVuSans-76"/>
     <path d="M 9.8125 72.90625 
L 24.515625 72.90625 
L 43.109375 23.296875 
L 61.8125 72.90625 
L 76.515625 72.90625 
L 76.515625 0 
L 66.890625 0 
L 66.890625 64.015625 
L 48.09375 14.015625 
L 38.1875 14.015625 
L 19.390625 64.015625 
L 19.390625 0 
L 9.8125 0 
z
" id="DejaVuSans-4d"/>
     <path d="M 64.40625 67.28125 
L 64.40625 56.890625 
Q 59.421875 61.53125 53.78125 63.8125 
Q 48.140625 66.109375 41.796875 66.109375 
Q 29.296875 66.109375 22.65625 58.46875 
Q 16.015625 50.828125 16.015625 36.375 
Q 16.015625 21.96875 22.65625 14.328125 
Q 29.296875 6.6875 41.796875 6.6875 
Q 48.140625 6.6875 53.78125 8.984375 
Q 59.421875 11.28125 64.40625 15.921875 
L 64.40625 5.609375 
Q 59.234375 2.09375 53.4375 0.328125 
Q 47.65625 -1.421875 41.21875 -1.421875 
Q 24.65625 -1.421875 15.125 8.703125 
Q 5.609375 18.84375 5.609375 36.375 
Q 5.609375 53.953125 15.125 64.078125 
Q 24.65625 74.21875 41.21875 74.21875 
Q 47.75 74.21875 53.53125 72.484375 
Q 59.328125 70.75 64.40625 67.28125 
z
" id="DejaVuSans-43"/>
     <path d="M 8.6875 72.90625 
L 18.609375 72.90625 
L 18.609375 28.609375 
Q 18.609375 16.890625 22.84375 11.734375 
Q 27.09375 6.59375 36.625 6.59375 
Q 46.09375 6.59375 50.34375 11.734375 
Q 54.59375 16.890625 54.59375 28.609375 
L 54.59375 72.90625 
L 64.5 72.90625 
L 64.5 27.390625 
Q 64.5 13.140625 57.4375 5.859375 
Q 50.390625 -1.421875 36.625 -1.421875 
Q 22.796875 -1.421875 15.734375 5.859375 
Q 8.6875 13.140625 8.6875 27.390625 
z
" id="DejaVuSans-55"/>
     <path d="M 54.890625 33.015625 
L 54.890625 0 
L 45.90625 0 
L 45.90625 32.71875 
Q 45.90625 40.484375 42.875 44.328125 
Q 39.84375 48.1875 33.796875 48.1875 
Q 26.515625 48.1875 22.3125 43.546875 
Q 18.109375 38.921875 18.109375 30.90625 
L 18.109375 0 
L 9.078125 0 
L 9.078125 54.6875 
L 18.109375 54.6875 
L 18.109375 46.1875 
Q 21.34375 51.125 25.703125 53.5625 
Q 30.078125 56 35.796875 56 
Q 45.21875 56 50.046875 50.171875 
Q 54.890625 44.34375 54.890625 33.015625 
z
" id="DejaVuSans-6e"/>
     <path d="M 48.78125 52.59375 
L 48.78125 44.1875 
Q 44.96875 46.296875 41.140625 47.34375 
Q 37.3125 48.390625 33.40625 48.390625 
Q 24.65625 48.390625 19.8125 42.84375 
Q 14.984375 37.3125 14.984375 27.296875 
Q 14.984375 17.28125 19.8125 11.734375 
Q 24.65625 6.203125 33.40625 6.203125 
Q 37.3125 6.203125 41.140625 7.25 
Q 44.96875 8.296875 48.78125 10.40625 
L 48.78125 2.09375 
Q 45.015625 0.34375 40.984375 -0.53125 
Q 36.96875 -1.421875 32.421875 -1.421875 
Q 20.0625 -1.421875 12.78125 6.34375 
Q 5.515625 14.109375 5.515625 27.296875 
Q 5.515625 40.671875 12.859375 48.328125 
Q 20.21875 56 33.015625 56 
Q 37.15625 56 41.109375 55.140625 
Q 45.0625 54.296875 48.78125 52.59375 
z
" id="DejaVuSans-63"/>
     <path d="M 41.109375 46.296875 
Q 39.59375 47.171875 37.8125 47.578125 
Q 36.03125 48 33.890625 48 
Q 26.265625 48 22.1875 43.046875 
Q 18.109375 38.09375 18.109375 28.8125 
L 18.109375 0 
L 9.078125 0 
L 9.078125 54.6875 
L 18.109375 54.6875 
L 18.109375 46.1875 
Q 20.953125 51.171875 25.484375 53.578125 
Q 30.03125 56 36.53125 56 
Q 37.453125 56 38.578125 55.875 
Q 39.703125 55.765625 41.0625 55.515625 
z
" id="DejaVuSans-72"/>
     <path d="M 9.421875 54.6875 
L 18.40625 54.6875 
L 18.40625 0 
L 9.421875 0 
z
M 9.421875 75.984375 
L 18.40625 75.984375 
L 18.40625 64.59375 
L 9.421875 64.59375 
z
" id="DejaVuSans-69"/>
     <path d="M 32.171875 -5.078125 
Q 28.375 -14.84375 24.75 -17.8125 
Q 21.140625 -20.796875 15.09375 -20.796875 
L 7.90625 -20.796875 
L 7.90625 -13.28125 
L 13.1875 -13.28125 
Q 16.890625 -13.28125 18.9375 -11.515625 
Q 21 -9.765625 23.484375 -3.21875 
L 25.09375 0.875 
L 2.984375 54.6875 
L 12.5 54.6875 
L 29.59375 11.921875 
L 46.6875 54.6875 
L 56.203125 54.6875 
z
" id="DejaVuSans-79"/>
    </defs>
    <g transform="translate(259.152813 97.68)scale(0.12 -0.12)">
     <use xlink:href="#DejaVuSans-50"/>
     <use x="60.302734" xlink:href="#DejaVuSans-6c"/>
     <use x="88.085938" xlink:href="#DejaVuSans-6f"/>
     <use x="149.267578" xlink:href="#DejaVuSans-74"/>
     <use x="188.476562" xlink:href="#DejaVuSans-20"/>
     <use x="220.263672" xlink:href="#DejaVuSans-6f"/>
     <use x="281.445312" xlink:href="#DejaVuSans-66"/>
     <use x="316.650391" xlink:href="#DejaVuSans-20"/>
     <use x="348.4375" xlink:href="#DejaVuSans-54"/>
     <use x="409.255859" xlink:href="#DejaVuSans-65"/>
     <use x="470.779297" xlink:href="#DejaVuSans-73"/>
     <use x="522.878906" xlink:href="#DejaVuSans-74"/>
     <use x="562.087891" xlink:href="#DejaVuSans-20"/>
     <use x="593.875" xlink:href="#DejaVuSans-44"/>
     <use x="670.876953" xlink:href="#DejaVuSans-61"/>
     <use x="732.15625" xlink:href="#DejaVuSans-74"/>
     <use x="771.365234" xlink:href="#DejaVuSans-61"/>
     <use x="832.644531" xlink:href="#DejaVuSans-20"/>
     <use x="864.431641" xlink:href="#DejaVuSans-76"/>
     <use x="923.611328" xlink:href="#DejaVuSans-73"/>
     <use x="975.710938" xlink:href="#DejaVuSans-20"/>
     <use x="1007.498047" xlink:href="#DejaVuSans-4d"/>
     <use x="1093.777344" xlink:href="#DejaVuSans-43"/>
     <use x="1163.601562" xlink:href="#DejaVuSans-4d"/>
     <use x="1249.880859" xlink:href="#DejaVuSans-43"/>
     <use x="1319.705078" xlink:href="#DejaVuSans-20"/>
     <use x="1351.492188" xlink:href="#DejaVuSans-55"/>
     <use x="1424.685547" xlink:href="#DejaVuSans-6e"/>
     <use x="1488.064453" xlink:href="#DejaVuSans-63"/>
     <use x="1543.044922" xlink:href="#DejaVuSans-65"/>
     <use x="1604.568359" xlink:href="#DejaVuSans-72"/>
     <use x="1645.681641" xlink:href="#DejaVuSans-74"/>
     <use x="1684.890625" xlink:href="#DejaVuSans-61"/>
     <use x="1746.169922" xlink:href="#DejaVuSans-69"/>
     <use x="1773.953125" xlink:href="#DejaVuSans-6e"/>
     <use x="1837.332031" xlink:href="#DejaVuSans-74"/>
     <use x="1876.541016" xlink:href="#DejaVuSans-79"/>
     <use x="1935.720703" xlink:href="#DejaVuSans-20"/>
    </g>
   </g>
   <g id="legend_1">
    <g id="patch_7">
     <path d="M 569.803438 170.3925 
L 699.68 170.3925 
Q 701.68 170.3925 701.68 168.3925 
L 701.68 110.68 
Q 701.68 108.68 699.68 108.68 
L 569.803438 108.68 
Q 567.803438 108.68 567.803438 110.68 
L 567.803438 168.3925 
Q 567.803438 170.3925 569.803438 170.3925 
z
" style="fill:#ffffff;opacity:0.8;stroke:#cccccc;stroke-linejoin:miter;"/>
    </g>
    <g id="line2d_18">
     <path d="M 571.803438 116.778437 
L 591.803438 116.778437 
" style="fill:none;stroke:#1f77b4;stroke-linecap:square;stroke-width:1.5;"/>
    </g>
    <g id="line2d_19"/>
    <g id="text_15">
     <!-- actual -->
     <defs>
      <path d="M 8.5 21.578125 
L 8.5 54.6875 
L 17.484375 54.6875 
L 17.484375 21.921875 
Q 17.484375 14.15625 20.5 10.265625 
Q 23.53125 6.390625 29.59375 6.390625 
Q 36.859375 6.390625 41.078125 11.03125 
Q 45.3125 15.671875 45.3125 23.6875 
L 45.3125 54.6875 
L 54.296875 54.6875 
L 54.296875 0 
L 45.3125 0 
L 45.3125 8.40625 
Q 42.046875 3.421875 37.71875 1 
Q 33.40625 -1.421875 27.6875 -1.421875 
Q 18.265625 -1.421875 13.375 4.4375 
Q 8.5 10.296875 8.5 21.578125 
z
M 31.109375 56 
z
" id="DejaVuSans-75"/>
     </defs>
     <g transform="translate(599.803438 120.278437)scale(0.1 -0.1)">
      <use xlink:href="#DejaVuSans-61"/>
      <use x="61.279297" xlink:href="#DejaVuSans-63"/>
      <use x="116.259766" xlink:href="#DejaVuSans-74"/>
      <use x="155.46875" xlink:href="#DejaVuSans-75"/>
      <use x="218.847656" xlink:href="#DejaVuSans-61"/>
      <use x="280.126953" xlink:href="#DejaVuSans-6c"/>
     </g>
    </g>
    <g id="line2d_20">
     <path d="M 571.803438 131.456562 
L 591.803438 131.456562 
" style="fill:none;stroke:#ff7f0e;stroke-linecap:square;stroke-width:1.5;"/>
    </g>
    <g id="line2d_21"/>
    <g id="text_16">
     <!-- pred. (mean) -->
     <defs>
      <path d="M 18.109375 8.203125 
L 18.109375 -20.796875 
L 9.078125 -20.796875 
L 9.078125 54.6875 
L 18.109375 54.6875 
L 18.109375 46.390625 
Q 20.953125 51.265625 25.265625 53.625 
Q 29.59375 56 35.59375 56 
Q 45.5625 56 51.78125 48.09375 
Q 58.015625 40.1875 58.015625 27.296875 
Q 58.015625 14.40625 51.78125 6.484375 
Q 45.5625 -1.421875 35.59375 -1.421875 
Q 29.59375 -1.421875 25.265625 0.953125 
Q 20.953125 3.328125 18.109375 8.203125 
z
M 48.6875 27.296875 
Q 48.6875 37.203125 44.609375 42.84375 
Q 40.53125 48.484375 33.40625 48.484375 
Q 26.265625 48.484375 22.1875 42.84375 
Q 18.109375 37.203125 18.109375 27.296875 
Q 18.109375 17.390625 22.1875 11.75 
Q 26.265625 6.109375 33.40625 6.109375 
Q 40.53125 6.109375 44.609375 11.75 
Q 48.6875 17.390625 48.6875 27.296875 
z
" id="DejaVuSans-70"/>
      <path d="M 45.40625 46.390625 
L 45.40625 75.984375 
L 54.390625 75.984375 
L 54.390625 0 
L 45.40625 0 
L 45.40625 8.203125 
Q 42.578125 3.328125 38.25 0.953125 
Q 33.9375 -1.421875 27.875 -1.421875 
Q 17.96875 -1.421875 11.734375 6.484375 
Q 5.515625 14.40625 5.515625 27.296875 
Q 5.515625 40.1875 11.734375 48.09375 
Q 17.96875 56 27.875 56 
Q 33.9375 56 38.25 53.625 
Q 42.578125 51.265625 45.40625 46.390625 
z
M 14.796875 27.296875 
Q 14.796875 17.390625 18.875 11.75 
Q 22.953125 6.109375 30.078125 6.109375 
Q 37.203125 6.109375 41.296875 11.75 
Q 45.40625 17.390625 45.40625 27.296875 
Q 45.40625 37.203125 41.296875 42.84375 
Q 37.203125 48.484375 30.078125 48.484375 
Q 22.953125 48.484375 18.875 42.84375 
Q 14.796875 37.203125 14.796875 27.296875 
z
" id="DejaVuSans-64"/>
      <path d="M 31 75.875 
Q 24.46875 64.65625 21.28125 53.65625 
Q 18.109375 42.671875 18.109375 31.390625 
Q 18.109375 20.125 21.3125 9.0625 
Q 24.515625 -2 31 -13.1875 
L 23.1875 -13.1875 
Q 15.875 -1.703125 12.234375 9.375 
Q 8.59375 20.453125 8.59375 31.390625 
Q 8.59375 42.28125 12.203125 53.3125 
Q 15.828125 64.359375 23.1875 75.875 
z
" id="DejaVuSans-28"/>
      <path d="M 52 44.1875 
Q 55.375 50.25 60.0625 53.125 
Q 64.75 56 71.09375 56 
Q 79.640625 56 84.28125 50.015625 
Q 88.921875 44.046875 88.921875 33.015625 
L 88.921875 0 
L 79.890625 0 
L 79.890625 32.71875 
Q 79.890625 40.578125 77.09375 44.375 
Q 74.3125 48.1875 68.609375 48.1875 
Q 61.625 48.1875 57.5625 43.546875 
Q 53.515625 38.921875 53.515625 30.90625 
L 53.515625 0 
L 44.484375 0 
L 44.484375 32.71875 
Q 44.484375 40.625 41.703125 44.40625 
Q 38.921875 48.1875 33.109375 48.1875 
Q 26.21875 48.1875 22.15625 43.53125 
Q 18.109375 38.875 18.109375 30.90625 
L 18.109375 0 
L 9.078125 0 
L 9.078125 54.6875 
L 18.109375 54.6875 
L 18.109375 46.1875 
Q 21.1875 51.21875 25.484375 53.609375 
Q 29.78125 56 35.6875 56 
Q 41.65625 56 45.828125 52.96875 
Q 50 49.953125 52 44.1875 
z
" id="DejaVuSans-6d"/>
      <path d="M 8.015625 75.875 
L 15.828125 75.875 
Q 23.140625 64.359375 26.78125 53.3125 
Q 30.421875 42.28125 30.421875 31.390625 
Q 30.421875 20.453125 26.78125 9.375 
Q 23.140625 -1.703125 15.828125 -13.1875 
L 8.015625 -13.1875 
Q 14.5 -2 17.703125 9.0625 
Q 20.90625 20.125 20.90625 31.390625 
Q 20.90625 42.671875 17.703125 53.65625 
Q 14.5 64.65625 8.015625 75.875 
z
" id="DejaVuSans-29"/>
     </defs>
     <g transform="translate(599.803438 134.956562)scale(0.1 -0.1)">
      <use xlink:href="#DejaVuSans-70"/>
      <use x="63.476562" xlink:href="#DejaVuSans-72"/>
      <use x="104.558594" xlink:href="#DejaVuSans-65"/>
      <use x="166.082031" xlink:href="#DejaVuSans-64"/>
      <use x="229.558594" xlink:href="#DejaVuSans-2e"/>
      <use x="261.345703" xlink:href="#DejaVuSans-20"/>
      <use x="293.132812" xlink:href="#DejaVuSans-28"/>
      <use x="332.146484" xlink:href="#DejaVuSans-6d"/>
      <use x="429.558594" xlink:href="#DejaVuSans-65"/>
      <use x="491.082031" xlink:href="#DejaVuSans-61"/>
      <use x="552.361328" xlink:href="#DejaVuSans-6e"/>
      <use x="615.740234" xlink:href="#DejaVuSans-29"/>
     </g>
    </g>
    <g id="line2d_22">
     <path d="M 571.803438 146.134687 
L 591.803438 146.134687 
" style="fill:none;stroke:#2ca02c;stroke-linecap:square;stroke-width:1.5;"/>
    </g>
    <g id="line2d_23"/>
    <g id="text_17">
     <!-- pred.(5th percen.) -->
     <defs>
      <path d="M 54.890625 33.015625 
L 54.890625 0 
L 45.90625 0 
L 45.90625 32.71875 
Q 45.90625 40.484375 42.875 44.328125 
Q 39.84375 48.1875 33.796875 48.1875 
Q 26.515625 48.1875 22.3125 43.546875 
Q 18.109375 38.921875 18.109375 30.90625 
L 18.109375 0 
L 9.078125 0 
L 9.078125 75.984375 
L 18.109375 75.984375 
L 18.109375 46.1875 
Q 21.34375 51.125 25.703125 53.5625 
Q 30.078125 56 35.796875 56 
Q 45.21875 56 50.046875 50.171875 
Q 54.890625 44.34375 54.890625 33.015625 
z
" id="DejaVuSans-68"/>
     </defs>
     <g transform="translate(599.803438 149.634687)scale(0.1 -0.1)">
      <use xlink:href="#DejaVuSans-70"/>
      <use x="63.476562" xlink:href="#DejaVuSans-72"/>
      <use x="104.558594" xlink:href="#DejaVuSans-65"/>
      <use x="166.082031" xlink:href="#DejaVuSans-64"/>
      <use x="229.558594" xlink:href="#DejaVuSans-2e"/>
      <use x="261.345703" xlink:href="#DejaVuSans-28"/>
      <use x="300.359375" xlink:href="#DejaVuSans-35"/>
      <use x="363.982422" xlink:href="#DejaVuSans-74"/>
      <use x="403.191406" xlink:href="#DejaVuSans-68"/>
      <use x="466.570312" xlink:href="#DejaVuSans-20"/>
      <use x="498.357422" xlink:href="#DejaVuSans-70"/>
      <use x="561.833984" xlink:href="#DejaVuSans-65"/>
      <use x="623.357422" xlink:href="#DejaVuSans-72"/>
      <use x="664.439453" xlink:href="#DejaVuSans-63"/>
      <use x="719.419922" xlink:href="#DejaVuSans-65"/>
      <use x="780.943359" xlink:href="#DejaVuSans-6e"/>
      <use x="844.322266" xlink:href="#DejaVuSans-2e"/>
      <use x="876.109375" xlink:href="#DejaVuSans-29"/>
     </g>
    </g>
    <g id="line2d_24">
     <path d="M 571.803438 160.812812 
L 591.803438 160.812812 
" style="fill:none;stroke:#d62728;stroke-linecap:square;stroke-width:1.5;"/>
    </g>
    <g id="line2d_25"/>
    <g id="text_18">
     <!-- pred.(95th percen.) -->
     <defs>
      <path d="M 10.984375 1.515625 
L 10.984375 10.5 
Q 14.703125 8.734375 18.5 7.8125 
Q 22.3125 6.890625 25.984375 6.890625 
Q 35.75 6.890625 40.890625 13.453125 
Q 46.046875 20.015625 46.78125 33.40625 
Q 43.953125 29.203125 39.59375 26.953125 
Q 35.25 24.703125 29.984375 24.703125 
Q 19.046875 24.703125 12.671875 31.3125 
Q 6.296875 37.9375 6.296875 49.421875 
Q 6.296875 60.640625 12.9375 67.421875 
Q 19.578125 74.21875 30.609375 74.21875 
Q 43.265625 74.21875 49.921875 64.515625 
Q 56.59375 54.828125 56.59375 36.375 
Q 56.59375 19.140625 48.40625 8.859375 
Q 40.234375 -1.421875 26.421875 -1.421875 
Q 22.703125 -1.421875 18.890625 -0.6875 
Q 15.09375 0.046875 10.984375 1.515625 
z
M 30.609375 32.421875 
Q 37.25 32.421875 41.125 36.953125 
Q 45.015625 41.5 45.015625 49.421875 
Q 45.015625 57.28125 41.125 61.84375 
Q 37.25 66.40625 30.609375 66.40625 
Q 23.96875 66.40625 20.09375 61.84375 
Q 16.21875 57.28125 16.21875 49.421875 
Q 16.21875 41.5 20.09375 36.953125 
Q 23.96875 32.421875 30.609375 32.421875 
z
" id="DejaVuSans-39"/>
     </defs>
     <g transform="translate(599.803438 164.312812)scale(0.1 -0.1)">
      <use xlink:href="#DejaVuSans-70"/>
      <use x="63.476562" xlink:href="#DejaVuSans-72"/>
      <use x="104.558594" xlink:href="#DejaVuSans-65"/>
      <use x="166.082031" xlink:href="#DejaVuSans-64"/>
      <use x="229.558594" xlink:href="#DejaVuSans-2e"/>
      <use x="261.345703" xlink:href="#DejaVuSans-28"/>
      <use x="300.359375" xlink:href="#DejaVuSans-39"/>
      <use x="363.982422" xlink:href="#DejaVuSans-35"/>
      <use x="427.605469" xlink:href="#DejaVuSans-74"/>
      <use x="466.814453" xlink:href="#DejaVuSans-68"/>
      <use x="530.193359" xlink:href="#DejaVuSans-20"/>
      <use x="561.980469" xlink:href="#DejaVuSans-70"/>
      <use x="625.457031" xlink:href="#DejaVuSans-65"/>
      <use x="686.980469" xlink:href="#DejaVuSans-72"/>
      <use x="728.0625" xlink:href="#DejaVuSans-63"/>
      <use x="783.042969" xlink:href="#DejaVuSans-65"/>
      <use x="844.566406" xlink:href="#DejaVuSans-6e"/>
      <use x="907.945312" xlink:href="#DejaVuSans-2e"/>
      <use x="939.732422" xlink:href="#DejaVuSans-29"/>
     </g>
    </g>
   </g>
  </g>
 </g>
 <defs>
  <clipPath id="p4fbffd2e3a">
   <rect height="666.92" width="658.96" x="47.72" y="103.68"/>
  </clipPath>
 </defs>
</svg>
