<?xml version="1.0" encoding="utf-8" standalone="no"?>
<!DOCTYPE svg PUBLIC "-//W3C//DTD SVG 1.1//EN"
  "http://www.w3.org/Graphics/SVG/1.1/DTD/svg11.dtd">
<!-- Created with matplotlib (http://matplotlib.org/) -->
<svg height="345.6pt" version="1.1" viewBox="0 0 460.8 345.6" width="460.8pt" xmlns="http://www.w3.org/2000/svg" xmlns:xlink="http://www.w3.org/1999/xlink">
 <defs>
  <style type="text/css">
*{stroke-linecap:butt;stroke-linejoin:round;}
  </style>
 </defs>
 <g id="figure_1">
  <g id="patch_1">
   <path d="M 0 345.6 
L 460.8 345.6 
L 460.8 0 
L 0 0 
z
" style="fill:#ffffff;"/>
  </g>
  <g id="axes_1">
   <g id="patch_2">
    <path d="M 57.6 307.584 
L 414.72 307.584 
L 414.72 41.472 
L 57.6 41.472 
z
" style="fill:#ffffff;"/>
   </g>
   <g id="PolyCollection_1">
    <path clip-path="url(#pa26125e9ee)" d="M 73.832727 53.568 
L 73.832727 205.095189 
L 75.48072 202.651202 
L 77.128713 202.651202 
L 78.776705 202.651202 
L 80.424698 202.651202 
L 82.07269 205.095189 
L 83.720683 207.539176 
L 85.368676 212.427149 
L 87.016668 212.427149 
L 88.664661 212.427149 
L 90.312653 212.427149 
L 91.960646 217.315123 
L 93.608639 222.203097 
L 95.256631 229.535058 
L 96.904624 236.867019 
L 98.552617 249.086953 
L 100.200609 253.974927 
L 101.848602 261.306888 
L 103.496594 263.750875 
L 105.144587 268.638849 
L 106.79258 273.526822 
L 108.440572 273.526822 
L 110.088565 273.526822 
L 111.736557 273.526822 
L 113.38455 273.526822 
L 115.032543 273.526822 
L 116.680535 275.970809 
L 118.328528 275.970809 
L 119.976521 278.414796 
L 121.624513 278.414796 
L 123.272506 278.414796 
L 124.920498 278.414796 
L 126.568491 278.414796 
L 128.216484 278.414796 
L 129.864476 278.414796 
L 131.512469 278.414796 
L 133.160461 278.414796 
L 134.808454 278.414796 
L 136.456447 278.414796 
L 138.104439 278.414796 
L 139.752432 278.414796 
L 141.400425 278.414796 
L 143.048417 278.414796 
L 144.69641 275.970809 
L 146.344402 271.082835 
L 147.992395 266.194862 
L 149.640388 258.862901 
L 151.28838 251.53094 
L 152.936373 239.311006 
L 154.584365 224.647084 
L 156.232358 212.427149 
L 157.880351 207.539176 
L 159.528343 205.095189 
L 161.176336 202.651202 
L 162.824329 202.651202 
L 164.472321 202.651202 
L 166.120314 200.207215 
L 167.768306 200.207215 
L 169.416299 197.763228 
L 171.064292 197.763228 
L 172.712284 197.763228 
L 174.360277 197.763228 
L 176.008269 197.763228 
L 177.656262 197.763228 
L 179.304255 197.763228 
L 180.952247 200.207215 
L 182.60024 200.207215 
L 184.248233 202.651202 
L 185.896225 202.651202 
L 187.544218 205.095189 
L 189.19221 205.095189 
L 190.840203 207.539176 
L 192.488196 207.539176 
L 194.136188 209.983163 
L 195.784181 214.871136 
L 197.432174 222.203097 
L 199.080166 229.535058 
L 200.728159 234.423032 
L 202.376151 239.311006 
L 204.024144 241.754992 
L 205.672137 246.642966 
L 207.320129 251.53094 
L 208.968122 256.418914 
L 210.616114 258.862901 
L 212.264107 261.306888 
L 213.9121 261.306888 
L 215.560092 261.306888 
L 217.208085 261.306888 
L 218.856078 261.306888 
L 220.50407 258.862901 
L 222.152063 261.306888 
L 223.800055 266.194862 
L 225.448048 266.194862 
L 227.096041 268.638849 
L 228.744033 271.082835 
L 230.392026 273.526822 
L 232.040018 275.970809 
L 233.688011 275.970809 
L 235.336004 275.970809 
L 236.983996 275.970809 
L 238.631989 275.970809 
L 240.279982 275.970809 
L 241.927974 275.970809 
L 243.575967 278.414796 
L 245.223959 278.414796 
L 246.871952 278.414796 
L 248.519945 280.858783 
L 250.167937 280.858783 
L 251.81593 280.858783 
L 253.463922 280.858783 
L 255.111915 280.858783 
L 256.759908 280.858783 
L 258.4079 280.858783 
L 260.055893 278.414796 
L 261.703886 278.414796 
L 263.351878 278.414796 
L 264.999871 275.970809 
L 266.647863 273.526822 
L 268.295856 271.082835 
L 269.943849 266.194862 
L 271.591841 261.306888 
L 273.239834 256.418914 
L 274.887826 251.53094 
L 276.535819 246.642966 
L 278.183812 239.311006 
L 279.831804 236.867019 
L 281.479797 229.535058 
L 283.12779 222.203097 
L 284.775782 219.75911 
L 286.423775 217.315123 
L 288.071767 209.983163 
L 289.71976 207.539176 
L 291.367753 207.539176 
L 293.015745 207.539176 
L 294.663738 207.539176 
L 296.311731 207.539176 
L 297.959723 207.539176 
L 299.607716 212.427149 
L 301.255708 209.983163 
L 302.903701 207.539176 
L 304.551694 207.539176 
L 306.199686 209.983163 
L 307.847679 209.983163 
L 309.495671 207.539176 
L 311.143664 209.983163 
L 312.791657 219.75911 
L 314.439649 222.203097 
L 316.087642 219.75911 
L 317.735635 219.75911 
L 319.383627 222.203097 
L 321.03162 222.203097 
L 322.679612 219.75911 
L 324.327605 219.75911 
L 325.975598 229.535058 
L 327.62359 236.867019 
L 329.271583 236.867019 
L 330.919575 239.311006 
L 332.567568 246.642966 
L 334.215561 251.53094 
L 335.863553 253.974927 
L 337.511546 258.862901 
L 339.159539 266.194862 
L 340.807531 271.082835 
L 342.455524 273.526822 
L 344.103516 273.526822 
L 345.751509 275.970809 
L 347.399502 275.970809 
L 349.047494 278.414796 
L 350.695487 278.414796 
L 352.343479 280.858783 
L 353.991472 280.858783 
L 355.639465 280.858783 
L 357.287457 280.858783 
L 358.93545 280.858783 
L 360.583443 280.858783 
L 362.231435 280.858783 
L 363.879428 280.858783 
L 365.52742 280.858783 
L 367.175413 280.858783 
L 368.823406 280.858783 
L 370.471398 280.858783 
L 372.119391 280.858783 
L 373.767383 280.858783 
L 375.415376 278.414796 
L 377.063369 278.414796 
L 378.711361 275.970809 
L 380.359354 273.526822 
L 382.007347 271.082835 
L 383.655339 263.750875 
L 385.303332 253.974927 
L 386.951324 239.311006 
L 388.599317 229.535058 
L 390.24731 222.203097 
L 391.895302 214.871136 
L 393.543295 209.983163 
L 395.191287 212.427149 
L 396.83928 214.871136 
L 398.487273 212.427149 
L 398.487273 53.568 
L 398.487273 53.568 
L 396.83928 53.568 
L 395.191287 53.568 
L 393.543295 53.568 
L 391.895302 53.568 
L 390.24731 53.568 
L 388.599317 53.568 
L 386.951324 53.568 
L 385.303332 53.568 
L 383.655339 53.568 
L 382.007347 53.568 
L 380.359354 53.568 
L 378.711361 53.568 
L 377.063369 53.568 
L 375.415376 53.568 
L 373.767383 53.568 
L 372.119391 53.568 
L 370.471398 53.568 
L 368.823406 53.568 
L 367.175413 53.568 
L 365.52742 53.568 
L 363.879428 53.568 
L 362.231435 53.568 
L 360.583443 53.568 
L 358.93545 53.568 
L 357.287457 53.568 
L 355.639465 53.568 
L 353.991472 53.568 
L 352.343479 53.568 
L 350.695487 53.568 
L 349.047494 53.568 
L 347.399502 53.568 
L 345.751509 53.568 
L 344.103516 53.568 
L 342.455524 53.568 
L 340.807531 53.568 
L 339.159539 53.568 
L 337.511546 53.568 
L 335.863553 53.568 
L 334.215561 53.568 
L 332.567568 53.568 
L 330.919575 53.568 
L 329.271583 53.568 
L 327.62359 53.568 
L 325.975598 53.568 
L 324.327605 53.568 
L 322.679612 53.568 
L 321.03162 53.568 
L 319.383627 53.568 
L 317.735635 53.568 
L 316.087642 53.568 
L 314.439649 53.568 
L 312.791657 53.568 
L 311.143664 53.568 
L 309.495671 53.568 
L 307.847679 53.568 
L 306.199686 53.568 
L 304.551694 53.568 
L 302.903701 53.568 
L 301.255708 53.568 
L 299.607716 53.568 
L 297.959723 53.568 
L 296.311731 53.568 
L 294.663738 53.568 
L 293.015745 53.568 
L 291.367753 53.568 
L 289.71976 53.568 
L 288.071767 53.568 
L 286.423775 53.568 
L 284.775782 53.568 
L 283.12779 53.568 
L 281.479797 53.568 
L 279.831804 53.568 
L 278.183812 53.568 
L 276.535819 53.568 
L 274.887826 53.568 
L 273.239834 53.568 
L 271.591841 53.568 
L 269.943849 53.568 
L 268.295856 53.568 
L 266.647863 53.568 
L 264.999871 53.568 
L 263.351878 53.568 
L 261.703886 53.568 
L 260.055893 53.568 
L 258.4079 53.568 
L 256.759908 53.568 
L 255.111915 53.568 
L 253.463922 53.568 
L 251.81593 53.568 
L 250.167937 53.568 
L 248.519945 53.568 
L 246.871952 53.568 
L 245.223959 53.568 
L 243.575967 53.568 
L 241.927974 53.568 
L 240.279982 53.568 
L 238.631989 53.568 
L 236.983996 53.568 
L 235.336004 53.568 
L 233.688011 53.568 
L 232.040018 53.568 
L 230.392026 53.568 
L 228.744033 53.568 
L 227.096041 53.568 
L 225.448048 53.568 
L 223.800055 53.568 
L 222.152063 53.568 
L 220.50407 53.568 
L 218.856078 53.568 
L 217.208085 53.568 
L 215.560092 53.568 
L 213.9121 53.568 
L 212.264107 53.568 
L 210.616114 53.568 
L 208.968122 53.568 
L 207.320129 53.568 
L 205.672137 53.568 
L 204.024144 53.568 
L 202.376151 53.568 
L 200.728159 53.568 
L 199.080166 53.568 
L 197.432174 53.568 
L 195.784181 53.568 
L 194.136188 53.568 
L 192.488196 53.568 
L 190.840203 53.568 
L 189.19221 53.568 
L 187.544218 53.568 
L 185.896225 53.568 
L 184.248233 53.568 
L 182.60024 53.568 
L 180.952247 53.568 
L 179.304255 53.568 
L 177.656262 53.568 
L 176.008269 53.568 
L 174.360277 53.568 
L 172.712284 53.568 
L 171.064292 53.568 
L 169.416299 53.568 
L 167.768306 53.568 
L 166.120314 53.568 
L 164.472321 53.568 
L 162.824329 53.568 
L 161.176336 53.568 
L 159.528343 53.568 
L 157.880351 53.568 
L 156.232358 53.568 
L 154.584365 53.568 
L 152.936373 53.568 
L 151.28838 53.568 
L 149.640388 53.568 
L 147.992395 53.568 
L 146.344402 53.568 
L 144.69641 53.568 
L 143.048417 53.568 
L 141.400425 53.568 
L 139.752432 53.568 
L 138.104439 53.568 
L 136.456447 53.568 
L 134.808454 53.568 
L 133.160461 53.568 
L 131.512469 53.568 
L 129.864476 53.568 
L 128.216484 53.568 
L 126.568491 53.568 
L 124.920498 53.568 
L 123.272506 53.568 
L 121.624513 53.568 
L 119.976521 53.568 
L 118.328528 53.568 
L 116.680535 53.568 
L 115.032543 53.568 
L 113.38455 53.568 
L 111.736557 53.568 
L 110.088565 53.568 
L 108.440572 53.568 
L 106.79258 53.568 
L 105.144587 53.568 
L 103.496594 53.568 
L 101.848602 53.568 
L 100.200609 53.568 
L 98.552617 53.568 
L 96.904624 53.568 
L 95.256631 53.568 
L 93.608639 53.568 
L 91.960646 53.568 
L 90.312653 53.568 
L 88.664661 53.568 
L 87.016668 53.568 
L 85.368676 53.568 
L 83.720683 53.568 
L 82.07269 53.568 
L 80.424698 53.568 
L 78.776705 53.568 
L 77.128713 53.568 
L 75.48072 53.568 
L 73.832727 53.568 
z
" style="fill:#008000;fill-opacity:0.4;"/>
   </g>
   <g id="matplotlib.axis_1">
    <g id="xtick_1">
     <g id="line2d_1">
      <defs>
       <path d="M 0 0 
L 0 3.5 
" id="m1c1bda2b4e" style="stroke:#000000;stroke-width:0.8;"/>
      </defs>
      <g>
       <use style="stroke:#000000;stroke-width:0.8;" x="73.832727" xlink:href="#m1c1bda2b4e" y="307.584"/>
      </g>
     </g>
     <g id="text_1">
      <!-- 0.0 -->
      <defs>
       <path d="M 31.78125 66.40625 
Q 24.171875 66.40625 20.328125 58.90625 
Q 16.5 51.421875 16.5 36.375 
Q 16.5 21.390625 20.328125 13.890625 
Q 24.171875 6.390625 31.78125 6.390625 
Q 39.453125 6.390625 43.28125 13.890625 
Q 47.125 21.390625 47.125 36.375 
Q 47.125 51.421875 43.28125 58.90625 
Q 39.453125 66.40625 31.78125 66.40625 
z
M 31.78125 74.21875 
Q 44.046875 74.21875 50.515625 64.515625 
Q 56.984375 54.828125 56.984375 36.375 
Q 56.984375 17.96875 50.515625 8.265625 
Q 44.046875 -1.421875 31.78125 -1.421875 
Q 19.53125 -1.421875 13.0625 8.265625 
Q 6.59375 17.96875 6.59375 36.375 
Q 6.59375 54.828125 13.0625 64.515625 
Q 19.53125 74.21875 31.78125 74.21875 
z
" id="DejaVuSans-30"/>
       <path d="M 10.6875 12.40625 
L 21 12.40625 
L 21 0 
L 10.6875 0 
z
" id="DejaVuSans-2e"/>
      </defs>
      <g transform="translate(65.881165 322.182437)scale(0.1 -0.1)">
       <use xlink:href="#DejaVuSans-30"/>
       <use x="63.623047" xlink:href="#DejaVuSans-2e"/>
       <use x="95.410156" xlink:href="#DejaVuSans-30"/>
      </g>
     </g>
    </g>
    <g id="xtick_2">
     <g id="line2d_2">
      <g>
       <use style="stroke:#000000;stroke-width:0.8;" x="138.763636" xlink:href="#m1c1bda2b4e" y="307.584"/>
      </g>
     </g>
     <g id="text_2">
      <!-- 0.2 -->
      <defs>
       <path d="M 19.1875 8.296875 
L 53.609375 8.296875 
L 53.609375 0 
L 7.328125 0 
L 7.328125 8.296875 
Q 12.9375 14.109375 22.625 23.890625 
Q 32.328125 33.6875 34.8125 36.53125 
Q 39.546875 41.84375 41.421875 45.53125 
Q 43.3125 49.21875 43.3125 52.78125 
Q 43.3125 58.59375 39.234375 62.25 
Q 35.15625 65.921875 28.609375 65.921875 
Q 23.96875 65.921875 18.8125 64.3125 
Q 13.671875 62.703125 7.8125 59.421875 
L 7.8125 69.390625 
Q 13.765625 71.78125 18.9375 73 
Q 24.125 74.21875 28.421875 74.21875 
Q 39.75 74.21875 46.484375 68.546875 
Q 53.21875 62.890625 53.21875 53.421875 
Q 53.21875 48.921875 51.53125 44.890625 
Q 49.859375 40.875 45.40625 35.40625 
Q 44.1875 33.984375 37.640625 27.21875 
Q 31.109375 20.453125 19.1875 8.296875 
z
" id="DejaVuSans-32"/>
      </defs>
      <g transform="translate(130.812074 322.182437)scale(0.1 -0.1)">
       <use xlink:href="#DejaVuSans-30"/>
       <use x="63.623047" xlink:href="#DejaVuSans-2e"/>
       <use x="95.410156" xlink:href="#DejaVuSans-32"/>
      </g>
     </g>
    </g>
    <g id="xtick_3">
     <g id="line2d_3">
      <g>
       <use style="stroke:#000000;stroke-width:0.8;" x="203.694545" xlink:href="#m1c1bda2b4e" y="307.584"/>
      </g>
     </g>
     <g id="text_3">
      <!-- 0.4 -->
      <defs>
       <path d="M 37.796875 64.3125 
L 12.890625 25.390625 
L 37.796875 25.390625 
z
M 35.203125 72.90625 
L 47.609375 72.90625 
L 47.609375 25.390625 
L 58.015625 25.390625 
L 58.015625 17.1875 
L 47.609375 17.1875 
L 47.609375 0 
L 37.796875 0 
L 37.796875 17.1875 
L 4.890625 17.1875 
L 4.890625 26.703125 
z
" id="DejaVuSans-34"/>
      </defs>
      <g transform="translate(195.742983 322.182437)scale(0.1 -0.1)">
       <use xlink:href="#DejaVuSans-30"/>
       <use x="63.623047" xlink:href="#DejaVuSans-2e"/>
       <use x="95.410156" xlink:href="#DejaVuSans-34"/>
      </g>
     </g>
    </g>
    <g id="xtick_4">
     <g id="line2d_4">
      <g>
       <use style="stroke:#000000;stroke-width:0.8;" x="268.625455" xlink:href="#m1c1bda2b4e" y="307.584"/>
      </g>
     </g>
     <g id="text_4">
      <!-- 0.6 -->
      <defs>
       <path d="M 33.015625 40.375 
Q 26.375 40.375 22.484375 35.828125 
Q 18.609375 31.296875 18.609375 23.390625 
Q 18.609375 15.53125 22.484375 10.953125 
Q 26.375 6.390625 33.015625 6.390625 
Q 39.65625 6.390625 43.53125 10.953125 
Q 47.40625 15.53125 47.40625 23.390625 
Q 47.40625 31.296875 43.53125 35.828125 
Q 39.65625 40.375 33.015625 40.375 
z
M 52.59375 71.296875 
L 52.59375 62.3125 
Q 48.875 64.0625 45.09375 64.984375 
Q 41.3125 65.921875 37.59375 65.921875 
Q 27.828125 65.921875 22.671875 59.328125 
Q 17.53125 52.734375 16.796875 39.40625 
Q 19.671875 43.65625 24.015625 45.921875 
Q 28.375 48.1875 33.59375 48.1875 
Q 44.578125 48.1875 50.953125 41.515625 
Q 57.328125 34.859375 57.328125 23.390625 
Q 57.328125 12.15625 50.6875 5.359375 
Q 44.046875 -1.421875 33.015625 -1.421875 
Q 20.359375 -1.421875 13.671875 8.265625 
Q 6.984375 17.96875 6.984375 36.375 
Q 6.984375 53.65625 15.1875 63.9375 
Q 23.390625 74.21875 37.203125 74.21875 
Q 40.921875 74.21875 44.703125 73.484375 
Q 48.484375 72.75 52.59375 71.296875 
z
" id="DejaVuSans-36"/>
      </defs>
      <g transform="translate(260.673892 322.182437)scale(0.1 -0.1)">
       <use xlink:href="#DejaVuSans-30"/>
       <use x="63.623047" xlink:href="#DejaVuSans-2e"/>
       <use x="95.410156" xlink:href="#DejaVuSans-36"/>
      </g>
     </g>
    </g>
    <g id="xtick_5">
     <g id="line2d_5">
      <g>
       <use style="stroke:#000000;stroke-width:0.8;" x="333.556364" xlink:href="#m1c1bda2b4e" y="307.584"/>
      </g>
     </g>
     <g id="text_5">
      <!-- 0.8 -->
      <defs>
       <path d="M 31.78125 34.625 
Q 24.75 34.625 20.71875 30.859375 
Q 16.703125 27.09375 16.703125 20.515625 
Q 16.703125 13.921875 20.71875 10.15625 
Q 24.75 6.390625 31.78125 6.390625 
Q 38.8125 6.390625 42.859375 10.171875 
Q 46.921875 13.96875 46.921875 20.515625 
Q 46.921875 27.09375 42.890625 30.859375 
Q 38.875 34.625 31.78125 34.625 
z
M 21.921875 38.8125 
Q 15.578125 40.375 12.03125 44.71875 
Q 8.5 49.078125 8.5 55.328125 
Q 8.5 64.0625 14.71875 69.140625 
Q 20.953125 74.21875 31.78125 74.21875 
Q 42.671875 74.21875 48.875 69.140625 
Q 55.078125 64.0625 55.078125 55.328125 
Q 55.078125 49.078125 51.53125 44.71875 
Q 48 40.375 41.703125 38.8125 
Q 48.828125 37.15625 52.796875 32.3125 
Q 56.78125 27.484375 56.78125 20.515625 
Q 56.78125 9.90625 50.3125 4.234375 
Q 43.84375 -1.421875 31.78125 -1.421875 
Q 19.734375 -1.421875 13.25 4.234375 
Q 6.78125 9.90625 6.78125 20.515625 
Q 6.78125 27.484375 10.78125 32.3125 
Q 14.796875 37.15625 21.921875 38.8125 
z
M 18.3125 54.390625 
Q 18.3125 48.734375 21.84375 45.5625 
Q 25.390625 42.390625 31.78125 42.390625 
Q 38.140625 42.390625 41.71875 45.5625 
Q 45.3125 48.734375 45.3125 54.390625 
Q 45.3125 60.0625 41.71875 63.234375 
Q 38.140625 66.40625 31.78125 66.40625 
Q 25.390625 66.40625 21.84375 63.234375 
Q 18.3125 60.0625 18.3125 54.390625 
z
" id="DejaVuSans-38"/>
      </defs>
      <g transform="translate(325.604801 322.182437)scale(0.1 -0.1)">
       <use xlink:href="#DejaVuSans-30"/>
       <use x="63.623047" xlink:href="#DejaVuSans-2e"/>
       <use x="95.410156" xlink:href="#DejaVuSans-38"/>
      </g>
     </g>
    </g>
    <g id="xtick_6">
     <g id="line2d_6">
      <g>
       <use style="stroke:#000000;stroke-width:0.8;" x="398.487273" xlink:href="#m1c1bda2b4e" y="307.584"/>
      </g>
     </g>
     <g id="text_6">
      <!-- 1.0 -->
      <defs>
       <path d="M 12.40625 8.296875 
L 28.515625 8.296875 
L 28.515625 63.921875 
L 10.984375 60.40625 
L 10.984375 69.390625 
L 28.421875 72.90625 
L 38.28125 72.90625 
L 38.28125 8.296875 
L 54.390625 8.296875 
L 54.390625 0 
L 12.40625 0 
z
" id="DejaVuSans-31"/>
      </defs>
      <g transform="translate(390.53571 322.182437)scale(0.1 -0.1)">
       <use xlink:href="#DejaVuSans-31"/>
       <use x="63.623047" xlink:href="#DejaVuSans-2e"/>
       <use x="95.410156" xlink:href="#DejaVuSans-30"/>
      </g>
     </g>
    </g>
   </g>
   <g id="matplotlib.axis_2">
    <g id="ytick_1">
     <g id="line2d_7">
      <defs>
       <path d="M 0 0 
L -3.5 0 
" id="m430a445d94" style="stroke:#000000;stroke-width:0.8;"/>
      </defs>
      <g>
       <use style="stroke:#000000;stroke-width:0.8;" x="57.6" xlink:href="#m430a445d94" y="297.966692"/>
      </g>
     </g>
     <g id="text_7">
      <!-- 0.0 -->
      <g transform="translate(34.696875 301.76591)scale(0.1 -0.1)">
       <use xlink:href="#DejaVuSans-30"/>
       <use x="63.623047" xlink:href="#DejaVuSans-2e"/>
       <use x="95.410156" xlink:href="#DejaVuSans-30"/>
      </g>
     </g>
    </g>
    <g id="ytick_2">
     <g id="line2d_8">
      <g>
       <use style="stroke:#000000;stroke-width:0.8;" x="57.6" xlink:href="#m430a445d94" y="249.086953"/>
      </g>
     </g>
     <g id="text_8">
      <!-- 0.2 -->
      <g transform="translate(34.696875 252.886172)scale(0.1 -0.1)">
       <use xlink:href="#DejaVuSans-30"/>
       <use x="63.623047" xlink:href="#DejaVuSans-2e"/>
       <use x="95.410156" xlink:href="#DejaVuSans-32"/>
      </g>
     </g>
    </g>
    <g id="ytick_3">
     <g id="line2d_9">
      <g>
       <use style="stroke:#000000;stroke-width:0.8;" x="57.6" xlink:href="#m430a445d94" y="200.207215"/>
      </g>
     </g>
     <g id="text_9">
      <!-- 0.4 -->
      <g transform="translate(34.696875 204.006434)scale(0.1 -0.1)">
       <use xlink:href="#DejaVuSans-30"/>
       <use x="63.623047" xlink:href="#DejaVuSans-2e"/>
       <use x="95.410156" xlink:href="#DejaVuSans-34"/>
      </g>
     </g>
    </g>
    <g id="ytick_4">
     <g id="line2d_10">
      <g>
       <use style="stroke:#000000;stroke-width:0.8;" x="57.6" xlink:href="#m430a445d94" y="151.327477"/>
      </g>
     </g>
     <g id="text_10">
      <!-- 0.6 -->
      <g transform="translate(34.696875 155.126695)scale(0.1 -0.1)">
       <use xlink:href="#DejaVuSans-30"/>
       <use x="63.623047" xlink:href="#DejaVuSans-2e"/>
       <use x="95.410156" xlink:href="#DejaVuSans-36"/>
      </g>
     </g>
    </g>
    <g id="ytick_5">
     <g id="line2d_11">
      <g>
       <use style="stroke:#000000;stroke-width:0.8;" x="57.6" xlink:href="#m430a445d94" y="102.447738"/>
      </g>
     </g>
     <g id="text_11">
      <!-- 0.8 -->
      <g transform="translate(34.696875 106.246957)scale(0.1 -0.1)">
       <use xlink:href="#DejaVuSans-30"/>
       <use x="63.623047" xlink:href="#DejaVuSans-2e"/>
       <use x="95.410156" xlink:href="#DejaVuSans-38"/>
      </g>
     </g>
    </g>
    <g id="ytick_6">
     <g id="line2d_12">
      <g>
       <use style="stroke:#000000;stroke-width:0.8;" x="57.6" xlink:href="#m430a445d94" y="53.568"/>
      </g>
     </g>
     <g id="text_12">
      <!-- 1.0 -->
      <g transform="translate(34.696875 57.367219)scale(0.1 -0.1)">
       <use xlink:href="#DejaVuSans-31"/>
       <use x="63.623047" xlink:href="#DejaVuSans-2e"/>
       <use x="95.410156" xlink:href="#DejaVuSans-30"/>
      </g>
     </g>
    </g>
   </g>
   <g id="line2d_13">
    <path clip-path="url(#pa26125e9ee)" d="M 73.832727 177.337119 
L 75.48072 174.693214 
L 77.128713 179.485383 
L 78.776705 179.981024 
L 80.424698 191.052529 
L 82.07269 200.802081 
L 83.720683 208.403369 
L 85.368676 206.75099 
L 87.016668 203.115559 
L 88.664661 207.24663 
L 90.312653 210.38642 
L 91.960646 216.996183 
L 93.608639 219.970515 
L 95.256631 230.381166 
L 96.904624 241.617885 
L 100.200609 255.333295 
L 101.848602 259.464366 
L 103.496594 270.205444 
L 105.144587 274.997516 
L 106.79258 276.484731 
L 108.440572 278.302422 
L 110.088565 276.980469 
L 111.736557 276.484731 
L 113.38455 276.484731 
L 115.032543 279.12866 
L 116.680535 283.755543 
L 118.328528 285.07752 
L 119.976521 285.903734 
L 121.624513 288.382426 
L 123.272506 288.382426 
L 124.920498 289.208664 
L 126.568491 287.225711 
L 128.216484 286.234235 
L 129.864476 287.72145 
L 131.512469 287.556212 
L 133.160461 288.547664 
L 134.808454 288.712926 
L 136.456447 289.704403 
L 138.104439 288.382426 
L 139.752432 286.399473 
L 141.400425 283.755543 
L 143.048417 280.120137 
L 144.69641 270.701085 
L 146.344402 259.299153 
L 147.992395 249.714813 
L 149.640388 240.791573 
L 152.936373 215.343803 
L 154.584365 204.602725 
L 156.232358 195.514271 
L 157.880351 188.408624 
L 159.528343 180.642122 
L 161.176336 176.841478 
L 162.824329 173.536475 
L 164.472321 170.562142 
L 167.768306 161.473688 
L 171.064292 155.359566 
L 172.712284 157.011946 
L 174.360277 154.533254 
L 176.008269 155.52478 
L 177.656262 161.473688 
L 179.304255 166.761498 
L 180.952247 173.040834 
L 182.60024 173.371261 
L 184.248233 180.146482 
L 185.896225 190.226461 
L 187.544218 191.878841 
L 189.19221 193.03558 
L 190.840203 197.662536 
L 192.488196 201.793607 
L 194.136188 211.212488 
L 197.432174 220.962041 
L 199.080166 226.910949 
L 200.728159 229.224427 
L 202.376151 235.173336 
L 204.024144 239.634834 
L 205.672137 245.088102 
L 207.320129 248.227647 
L 208.968122 254.011342 
L 210.616114 255.498508 
L 213.9121 254.506983 
L 215.560092 255.663722 
L 217.208085 255.498508 
L 218.856078 252.358719 
L 222.152063 261.777844 
L 223.800055 264.421749 
L 225.448048 265.908915 
L 227.096041 273.014563 
L 228.744033 277.806683 
L 230.392026 279.12866 
L 232.040018 279.954899 
L 233.688011 279.293898 
L 235.336004 280.615875 
L 236.983996 280.450637 
L 238.631989 281.607352 
L 240.279982 284.416519 
L 243.575967 289.043402 
L 245.223959 290.695879 
L 246.871952 292.678833 
L 248.519945 293.339809 
L 250.167937 292.844071 
L 251.81593 292.017832 
L 253.463922 293.339809 
L 255.111915 293.505047 
L 258.4079 289.704403 
L 260.055893 288.051925 
L 261.703886 284.912258 
L 263.351878 280.450637 
L 264.999871 274.006039 
L 266.647863 270.040231 
L 268.295856 260.786319 
L 269.943849 254.011342 
L 271.591841 249.053959 
L 273.239834 242.60941 
L 274.887826 235.668976 
L 276.535819 230.050739 
L 278.183812 229.224427 
L 279.831804 221.292712 
L 281.479797 214.682705 
L 283.12779 213.195539 
L 284.775782 209.560108 
L 286.423775 204.437512 
L 288.071767 193.200793 
L 289.71976 198.158176 
L 291.367753 199.645342 
L 293.015745 196.340339 
L 294.663738 191.878841 
L 296.311731 196.67101 
L 297.959723 209.560108 
L 299.607716 199.480129 
L 301.255708 194.853173 
L 302.903701 198.653817 
L 304.551694 207.081417 
L 306.199686 199.480129 
L 307.847679 194.192319 
L 309.495671 205.759464 
L 311.143664 214.847919 
L 312.791657 214.352278 
L 314.439649 212.699898 
L 316.087642 212.204013 
L 317.735635 217.161397 
L 319.383627 214.517492 
L 321.03162 210.221207 
L 322.679612 214.352278 
L 324.327605 221.292712 
L 325.975598 230.711593 
L 327.62359 226.415309 
L 329.271583 230.711593 
L 330.919575 239.46962 
L 335.863553 252.193505 
L 337.511546 263.926109 
L 339.159539 272.023037 
L 340.807531 274.832254 
L 342.455524 276.815207 
L 344.103516 279.459161 
L 345.751509 285.573258 
L 347.399502 288.382426 
L 349.047494 289.53914 
L 350.695487 291.356856 
L 352.343479 292.844071 
L 353.991472 293.009308 
L 355.639465 292.348332 
L 357.287457 292.348332 
L 358.93545 291.522094 
L 360.583443 292.183094 
L 362.231435 293.339809 
L 363.879428 293.835547 
L 365.52742 294.992262 
L 367.175413 295.488 
L 368.823406 295.488 
L 370.471398 294.000785 
L 372.119391 291.522094 
L 373.767383 289.704403 
L 375.415376 287.225711 
L 377.063369 283.425043 
L 378.711361 276.649969 
L 382.007347 257.811987 
L 383.655339 240.461146 
L 385.303332 228.067688 
L 386.951324 220.4664 
L 388.599317 215.674231 
L 390.24731 208.899254 
L 391.895302 201.132508 
L 393.543295 206.089891 
L 395.191287 209.229681 
L 396.83928 204.933152 
L 398.487273 198.488603 
L 398.487273 198.488603 
" style="fill:none;stroke:#1f77b4;stroke-linecap:square;stroke-width:1.5;"/>
   </g>
   <g id="line2d_14">
    <path clip-path="url(#pa26125e9ee)" d="M 73.832727 154.281646 
L 75.48072 148.531148 
L 77.128713 146.964281 
L 78.776705 147.493133 
L 80.424698 150.262306 
L 82.07269 155.81355 
L 83.720683 162.990046 
L 85.368676 168.239187 
L 87.016668 168.91366 
L 88.664661 167.392617 
L 90.312653 168.369194 
L 91.960646 171.240539 
L 95.256631 178.835568 
L 96.904624 183.80942 
L 98.552617 190.248647 
L 100.200609 194.697382 
L 101.848602 197.687193 
L 103.496594 200.229618 
L 105.144587 203.053441 
L 106.79258 205.487245 
L 108.440572 206.209239 
L 110.088565 206.469592 
L 111.736557 206.47095 
L 113.38455 206.201432 
L 115.032543 206.351126 
L 116.680535 206.908831 
L 118.328528 207.882692 
L 119.976521 208.585677 
L 124.920498 209.554786 
L 126.568491 209.593482 
L 128.216484 209.367074 
L 129.864476 209.027971 
L 131.512469 209.120299 
L 133.160461 209.348065 
L 138.104439 209.712287 
L 139.752432 209.562254 
L 141.400425 209.080245 
L 143.048417 208.449561 
L 144.69641 207.221118 
L 146.344402 204.800213 
L 147.992395 200.935998 
L 149.640388 196.637976 
L 151.28838 191.65971 
L 152.936373 185.12544 
L 154.584365 176.522945 
L 157.880351 161.886179 
L 159.528343 155.832559 
L 161.176336 150.88111 
L 162.824329 147.170323 
L 164.472321 145.183565 
L 166.120314 142.87841 
L 169.416299 137.319698 
L 171.064292 135.179173 
L 172.712284 133.686304 
L 176.008269 132.748084 
L 177.656262 133.54272 
L 179.304255 136.255206 
L 182.60024 142.971757 
L 184.248233 145.261976 
L 185.896225 148.977515 
L 187.544218 154.288435 
L 189.19221 157.66487 
L 190.840203 159.042329 
L 192.488196 161.0576 
L 194.136188 165.3692 
L 197.432174 174.803668 
L 199.080166 178.685873 
L 200.728159 181.838277 
L 202.376151 184.684843 
L 204.024144 187.097941 
L 205.672137 190.261546 
L 207.320129 192.873896 
L 210.616114 197.026298 
L 212.264107 198.107423 
L 215.560092 198.350124 
L 217.208085 198.362344 
L 220.50407 197.65257 
L 222.152063 198.87049 
L 223.800055 200.751681 
L 225.448048 201.654598 
L 227.096041 202.82262 
L 228.744033 204.678014 
L 230.392026 206.267284 
L 232.040018 206.947527 
L 238.631989 207.417316 
L 240.279982 207.690228 
L 246.871952 209.980447 
L 250.167937 210.597554 
L 255.111915 210.5205 
L 256.759908 210.621315 
L 260.055893 209.906788 
L 261.703886 209.513713 
L 263.351878 208.704822 
L 264.999871 207.476039 
L 266.647863 206.014399 
L 268.295856 204.042917 
L 269.943849 201.430227 
L 271.591841 198.235732 
L 273.239834 195.835194 
L 274.887826 192.770706 
L 276.535819 189.043626 
L 278.183812 185.855241 
L 279.831804 183.911932 
L 281.479797 180.140385 
L 283.12779 175.555194 
L 286.423775 171.349839 
L 288.071767 166.926902 
L 289.71976 161.866491 
L 291.367753 161.482242 
L 293.015745 163.389231 
L 294.663738 161.088149 
L 296.311731 158.990394 
L 297.959723 162.224603 
L 299.607716 167.3176 
L 301.255708 165.518215 
L 302.903701 160.861741 
L 304.551694 163.193712 
L 306.199686 166.408573 
L 307.847679 164.604096 
L 309.495671 161.535195 
L 311.143664 166.51991 
L 312.791657 173.02431 
L 314.439649 174.542637 
L 316.087642 173.128519 
L 317.735635 173.224242 
L 319.383627 175.086084 
L 321.03162 174.339311 
L 322.679612 172.737481 
L 324.327605 173.800955 
L 325.975598 179.144121 
L 327.62359 183.265633 
L 329.271583 183.795503 
L 330.919575 185.017836 
L 332.567568 189.082322 
L 334.215561 192.491684 
L 335.863553 194.47946 
L 337.511546 197.113535 
L 340.807531 204.235041 
L 342.455524 205.573124 
L 344.103516 206.146443 
L 345.751509 207.043929 
L 349.047494 209.398642 
L 353.991472 210.422741 
L 357.287457 210.498776 
L 360.583443 210.308009 
L 362.231435 210.334486 
L 367.175413 210.915611 
L 368.823406 211.077526 
L 370.471398 211.122332 
L 372.119391 210.868429 
L 377.063369 209.282892 
L 378.711361 208.386424 
L 380.359354 206.517453 
L 382.007347 203.818206 
L 383.655339 199.730637 
L 385.303332 193.095892 
L 386.951324 185.120687 
L 388.599317 179.579286 
L 390.24731 175.745621 
L 391.895302 170.986636 
L 393.543295 166.966277 
L 395.191287 167.462882 
L 396.83928 169.706598 
L 398.487273 167.931652 
L 398.487273 167.931652 
" style="fill:none;stroke:#ff7f0e;stroke-linecap:square;stroke-width:1.5;"/>
   </g>
   <g id="line2d_15">
    <path clip-path="url(#pa26125e9ee)" d="M 73.832727 205.095189 
L 75.48072 202.651202 
L 80.424698 202.651202 
L 83.720683 207.539176 
L 85.368676 212.427149 
L 90.312653 212.427149 
L 93.608639 222.203097 
L 96.904624 236.867019 
L 98.552617 249.086953 
L 100.200609 253.974927 
L 101.848602 261.306888 
L 103.496594 263.750875 
L 106.79258 273.526822 
L 115.032543 273.526822 
L 116.680535 275.970809 
L 118.328528 275.970809 
L 119.976521 278.414796 
L 143.048417 278.414796 
L 144.69641 275.970809 
L 147.992395 266.194862 
L 151.28838 251.53094 
L 152.936373 239.311006 
L 154.584365 224.647084 
L 156.232358 212.427149 
L 157.880351 207.539176 
L 161.176336 202.651202 
L 164.472321 202.651202 
L 166.120314 200.207215 
L 167.768306 200.207215 
L 169.416299 197.763228 
L 179.304255 197.763228 
L 180.952247 200.207215 
L 182.60024 200.207215 
L 184.248233 202.651202 
L 185.896225 202.651202 
L 187.544218 205.095189 
L 189.19221 205.095189 
L 190.840203 207.539176 
L 192.488196 207.539176 
L 194.136188 209.983163 
L 195.784181 214.871136 
L 199.080166 229.535058 
L 202.376151 239.311006 
L 204.024144 241.754992 
L 208.968122 256.418914 
L 212.264107 261.306888 
L 218.856078 261.306888 
L 220.50407 258.862901 
L 222.152063 261.306888 
L 223.800055 266.194862 
L 225.448048 266.194862 
L 232.040018 275.970809 
L 241.927974 275.970809 
L 243.575967 278.414796 
L 246.871952 278.414796 
L 248.519945 280.858783 
L 258.4079 280.858783 
L 260.055893 278.414796 
L 263.351878 278.414796 
L 268.295856 271.082835 
L 276.535819 246.642966 
L 278.183812 239.311006 
L 279.831804 236.867019 
L 283.12779 222.203097 
L 286.423775 217.315123 
L 288.071767 209.983163 
L 289.71976 207.539176 
L 297.959723 207.539176 
L 299.607716 212.427149 
L 302.903701 207.539176 
L 304.551694 207.539176 
L 306.199686 209.983163 
L 307.847679 209.983163 
L 309.495671 207.539176 
L 311.143664 209.983163 
L 312.791657 219.75911 
L 314.439649 222.203097 
L 316.087642 219.75911 
L 317.735635 219.75911 
L 319.383627 222.203097 
L 321.03162 222.203097 
L 322.679612 219.75911 
L 324.327605 219.75911 
L 325.975598 229.535058 
L 327.62359 236.867019 
L 329.271583 236.867019 
L 330.919575 239.311006 
L 332.567568 246.642966 
L 334.215561 251.53094 
L 335.863553 253.974927 
L 337.511546 258.862901 
L 339.159539 266.194862 
L 340.807531 271.082835 
L 342.455524 273.526822 
L 344.103516 273.526822 
L 345.751509 275.970809 
L 347.399502 275.970809 
L 349.047494 278.414796 
L 350.695487 278.414796 
L 352.343479 280.858783 
L 373.767383 280.858783 
L 375.415376 278.414796 
L 377.063369 278.414796 
L 382.007347 271.082835 
L 383.655339 263.750875 
L 385.303332 253.974927 
L 386.951324 239.311006 
L 388.599317 229.535058 
L 391.895302 214.871136 
L 393.543295 209.983163 
L 396.83928 214.871136 
L 398.487273 212.427149 
L 398.487273 212.427149 
" style="fill:none;stroke:#2ca02c;stroke-linecap:square;stroke-width:1.5;"/>
   </g>
   <g id="line2d_16">
    <path clip-path="url(#pa26125e9ee)" d="M 73.832727 53.568 
L 398.487273 53.568 
L 398.487273 53.568 
" style="fill:none;stroke:#d62728;stroke-linecap:square;stroke-width:1.5;"/>
   </g>
   <g id="patch_3">
    <path d="M 57.6 307.584 
L 57.6 41.472 
" style="fill:none;stroke:#000000;stroke-linecap:square;stroke-linejoin:miter;stroke-width:0.8;"/>
   </g>
   <g id="patch_4">
    <path d="M 414.72 307.584 
L 414.72 41.472 
" style="fill:none;stroke:#000000;stroke-linecap:square;stroke-linejoin:miter;stroke-width:0.8;"/>
   </g>
   <g id="patch_5">
    <path d="M 57.6 307.584 
L 414.72 307.584 
" style="fill:none;stroke:#000000;stroke-linecap:square;stroke-linejoin:miter;stroke-width:0.8;"/>
   </g>
   <g id="patch_6">
    <path d="M 57.6 41.472 
L 414.72 41.472 
" style="fill:none;stroke:#000000;stroke-linecap:square;stroke-linejoin:miter;stroke-width:0.8;"/>
   </g>
   <g id="text_13">
    <!-- Plot of Test Data vs MCMC Uncertainty  -->
    <defs>
     <path d="M 19.671875 64.796875 
L 19.671875 37.40625 
L 32.078125 37.40625 
Q 38.96875 37.40625 42.71875 40.96875 
Q 46.484375 44.53125 46.484375 51.125 
Q 46.484375 57.671875 42.71875 61.234375 
Q 38.96875 64.796875 32.078125 64.796875 
z
M 9.8125 72.90625 
L 32.078125 72.90625 
Q 44.34375 72.90625 50.609375 67.359375 
Q 56.890625 61.8125 56.890625 51.125 
Q 56.890625 40.328125 50.609375 34.8125 
Q 44.34375 29.296875 32.078125 29.296875 
L 19.671875 29.296875 
L 19.671875 0 
L 9.8125 0 
z
" id="DejaVuSans-50"/>
     <path d="M 9.421875 75.984375 
L 18.40625 75.984375 
L 18.40625 0 
L 9.421875 0 
z
" id="DejaVuSans-6c"/>
     <path d="M 30.609375 48.390625 
Q 23.390625 48.390625 19.1875 42.75 
Q 14.984375 37.109375 14.984375 27.296875 
Q 14.984375 17.484375 19.15625 11.84375 
Q 23.34375 6.203125 30.609375 6.203125 
Q 37.796875 6.203125 41.984375 11.859375 
Q 46.1875 17.53125 46.1875 27.296875 
Q 46.1875 37.015625 41.984375 42.703125 
Q 37.796875 48.390625 30.609375 48.390625 
z
M 30.609375 56 
Q 42.328125 56 49.015625 48.375 
Q 55.71875 40.765625 55.71875 27.296875 
Q 55.71875 13.875 49.015625 6.21875 
Q 42.328125 -1.421875 30.609375 -1.421875 
Q 18.84375 -1.421875 12.171875 6.21875 
Q 5.515625 13.875 5.515625 27.296875 
Q 5.515625 40.765625 12.171875 48.375 
Q 18.84375 56 30.609375 56 
z
" id="DejaVuSans-6f"/>
     <path d="M 18.3125 70.21875 
L 18.3125 54.6875 
L 36.8125 54.6875 
L 36.8125 47.703125 
L 18.3125 47.703125 
L 18.3125 18.015625 
Q 18.3125 11.328125 20.140625 9.421875 
Q 21.96875 7.515625 27.59375 7.515625 
L 36.8125 7.515625 
L 36.8125 0 
L 27.59375 0 
Q 17.1875 0 13.234375 3.875 
Q 9.28125 7.765625 9.28125 18.015625 
L 9.28125 47.703125 
L 2.6875 47.703125 
L 2.6875 54.6875 
L 9.28125 54.6875 
L 9.28125 70.21875 
z
" id="DejaVuSans-74"/>
     <path id="DejaVuSans-20"/>
     <path d="M 37.109375 75.984375 
L 37.109375 68.5 
L 28.515625 68.5 
Q 23.6875 68.5 21.796875 66.546875 
Q 19.921875 64.59375 19.921875 59.515625 
L 19.921875 54.6875 
L 34.71875 54.6875 
L 34.71875 47.703125 
L 19.921875 47.703125 
L 19.921875 0 
L 10.890625 0 
L 10.890625 47.703125 
L 2.296875 47.703125 
L 2.296875 54.6875 
L 10.890625 54.6875 
L 10.890625 58.5 
Q 10.890625 67.625 15.140625 71.796875 
Q 19.390625 75.984375 28.609375 75.984375 
z
" id="DejaVuSans-66"/>
     <path d="M -0.296875 72.90625 
L 61.375 72.90625 
L 61.375 64.59375 
L 35.5 64.59375 
L 35.5 0 
L 25.59375 0 
L 25.59375 64.59375 
L -0.296875 64.59375 
z
" id="DejaVuSans-54"/>
     <path d="M 56.203125 29.59375 
L 56.203125 25.203125 
L 14.890625 25.203125 
Q 15.484375 15.921875 20.484375 11.0625 
Q 25.484375 6.203125 34.421875 6.203125 
Q 39.59375 6.203125 44.453125 7.46875 
Q 49.3125 8.734375 54.109375 11.28125 
L 54.109375 2.78125 
Q 49.265625 0.734375 44.1875 -0.34375 
Q 39.109375 -1.421875 33.890625 -1.421875 
Q 20.796875 -1.421875 13.15625 6.1875 
Q 5.515625 13.8125 5.515625 26.8125 
Q 5.515625 40.234375 12.765625 48.109375 
Q 20.015625 56 32.328125 56 
Q 43.359375 56 49.78125 48.890625 
Q 56.203125 41.796875 56.203125 29.59375 
z
M 47.21875 32.234375 
Q 47.125 39.59375 43.09375 43.984375 
Q 39.0625 48.390625 32.421875 48.390625 
Q 24.90625 48.390625 20.390625 44.140625 
Q 15.875 39.890625 15.1875 32.171875 
z
" id="DejaVuSans-65"/>
     <path d="M 44.28125 53.078125 
L 44.28125 44.578125 
Q 40.484375 46.53125 36.375 47.5 
Q 32.28125 48.484375 27.875 48.484375 
Q 21.1875 48.484375 17.84375 46.4375 
Q 14.5 44.390625 14.5 40.28125 
Q 14.5 37.15625 16.890625 35.375 
Q 19.28125 33.59375 26.515625 31.984375 
L 29.59375 31.296875 
Q 39.15625 29.25 43.1875 25.515625 
Q 47.21875 21.78125 47.21875 15.09375 
Q 47.21875 7.46875 41.1875 3.015625 
Q 35.15625 -1.421875 24.609375 -1.421875 
Q 20.21875 -1.421875 15.453125 -0.5625 
Q 10.6875 0.296875 5.421875 2 
L 5.421875 11.28125 
Q 10.40625 8.6875 15.234375 7.390625 
Q 20.0625 6.109375 24.8125 6.109375 
Q 31.15625 6.109375 34.5625 8.28125 
Q 37.984375 10.453125 37.984375 14.40625 
Q 37.984375 18.0625 35.515625 20.015625 
Q 33.0625 21.96875 24.703125 23.78125 
L 21.578125 24.515625 
Q 13.234375 26.265625 9.515625 29.90625 
Q 5.8125 33.546875 5.8125 39.890625 
Q 5.8125 47.609375 11.28125 51.796875 
Q 16.75 56 26.8125 56 
Q 31.78125 56 36.171875 55.265625 
Q 40.578125 54.546875 44.28125 53.078125 
z
" id="DejaVuSans-73"/>
     <path d="M 19.671875 64.796875 
L 19.671875 8.109375 
L 31.59375 8.109375 
Q 46.6875 8.109375 53.6875 14.9375 
Q 60.6875 21.78125 60.6875 36.53125 
Q 60.6875 51.171875 53.6875 57.984375 
Q 46.6875 64.796875 31.59375 64.796875 
z
M 9.8125 72.90625 
L 30.078125 72.90625 
Q 51.265625 72.90625 61.171875 64.09375 
Q 71.09375 55.28125 71.09375 36.53125 
Q 71.09375 17.671875 61.125 8.828125 
Q 51.171875 0 30.078125 0 
L 9.8125 0 
z
" id="DejaVuSans-44"/>
     <path d="M 34.28125 27.484375 
Q 23.390625 27.484375 19.1875 25 
Q 14.984375 22.515625 14.984375 16.5 
Q 14.984375 11.71875 18.140625 8.90625 
Q 21.296875 6.109375 26.703125 6.109375 
Q 34.1875 6.109375 38.703125 11.40625 
Q 43.21875 16.703125 43.21875 25.484375 
L 43.21875 27.484375 
z
M 52.203125 31.203125 
L 52.203125 0 
L 43.21875 0 
L 43.21875 8.296875 
Q 40.140625 3.328125 35.546875 0.953125 
Q 30.953125 -1.421875 24.3125 -1.421875 
Q 15.921875 -1.421875 10.953125 3.296875 
Q 6 8.015625 6 15.921875 
Q 6 25.140625 12.171875 29.828125 
Q 18.359375 34.515625 30.609375 34.515625 
L 43.21875 34.515625 
L 43.21875 35.40625 
Q 43.21875 41.609375 39.140625 45 
Q 35.0625 48.390625 27.6875 48.390625 
Q 23 48.390625 18.546875 47.265625 
Q 14.109375 46.140625 10.015625 43.890625 
L 10.015625 52.203125 
Q 14.9375 54.109375 19.578125 55.046875 
Q 24.21875 56 28.609375 56 
Q 40.484375 56 46.34375 49.84375 
Q 52.203125 43.703125 52.203125 31.203125 
z
" id="DejaVuSans-61"/>
     <path d="M 2.984375 54.6875 
L 12.5 54.6875 
L 29.59375 8.796875 
L 46.6875 54.6875 
L 56.203125 54.6875 
L 35.6875 0 
L 23.484375 0 
z
" id="DejaVuSans-76"/>
     <path d="M 9.8125 72.90625 
L 24.515625 72.90625 
L 43.109375 23.296875 
L 61.8125 72.90625 
L 76.515625 72.90625 
L 76.515625 0 
L 66.890625 0 
L 66.890625 64.015625 
L 48.09375 14.015625 
L 38.1875 14.015625 
L 19.390625 64.015625 
L 19.390625 0 
L 9.8125 0 
z
" id="DejaVuSans-4d"/>
     <path d="M 64.40625 67.28125 
L 64.40625 56.890625 
Q 59.421875 61.53125 53.78125 63.8125 
Q 48.140625 66.109375 41.796875 66.109375 
Q 29.296875 66.109375 22.65625 58.46875 
Q 16.015625 50.828125 16.015625 36.375 
Q 16.015625 21.96875 22.65625 14.328125 
Q 29.296875 6.6875 41.796875 6.6875 
Q 48.140625 6.6875 53.78125 8.984375 
Q 59.421875 11.28125 64.40625 15.921875 
L 64.40625 5.609375 
Q 59.234375 2.09375 53.4375 0.328125 
Q 47.65625 -1.421875 41.21875 -1.421875 
Q 24.65625 -1.421875 15.125 8.703125 
Q 5.609375 18.84375 5.609375 36.375 
Q 5.609375 53.953125 15.125 64.078125 
Q 24.65625 74.21875 41.21875 74.21875 
Q 47.75 74.21875 53.53125 72.484375 
Q 59.328125 70.75 64.40625 67.28125 
z
" id="DejaVuSans-43"/>
     <path d="M 8.6875 72.90625 
L 18.609375 72.90625 
L 18.609375 28.609375 
Q 18.609375 16.890625 22.84375 11.734375 
Q 27.09375 6.59375 36.625 6.59375 
Q 46.09375 6.59375 50.34375 11.734375 
Q 54.59375 16.890625 54.59375 28.609375 
L 54.59375 72.90625 
L 64.5 72.90625 
L 64.5 27.390625 
Q 64.5 13.140625 57.4375 5.859375 
Q 50.390625 -1.421875 36.625 -1.421875 
Q 22.796875 -1.421875 15.734375 5.859375 
Q 8.6875 13.140625 8.6875 27.390625 
z
" id="DejaVuSans-55"/>
     <path d="M 54.890625 33.015625 
L 54.890625 0 
L 45.90625 0 
L 45.90625 32.71875 
Q 45.90625 40.484375 42.875 44.328125 
Q 39.84375 48.1875 33.796875 48.1875 
Q 26.515625 48.1875 22.3125 43.546875 
Q 18.109375 38.921875 18.109375 30.90625 
L 18.109375 0 
L 9.078125 0 
L 9.078125 54.6875 
L 18.109375 54.6875 
L 18.109375 46.1875 
Q 21.34375 51.125 25.703125 53.5625 
Q 30.078125 56 35.796875 56 
Q 45.21875 56 50.046875 50.171875 
Q 54.890625 44.34375 54.890625 33.015625 
z
" id="DejaVuSans-6e"/>
     <path d="M 48.78125 52.59375 
L 48.78125 44.1875 
Q 44.96875 46.296875 41.140625 47.34375 
Q 37.3125 48.390625 33.40625 48.390625 
Q 24.65625 48.390625 19.8125 42.84375 
Q 14.984375 37.3125 14.984375 27.296875 
Q 14.984375 17.28125 19.8125 11.734375 
Q 24.65625 6.203125 33.40625 6.203125 
Q 37.3125 6.203125 41.140625 7.25 
Q 44.96875 8.296875 48.78125 10.40625 
L 48.78125 2.09375 
Q 45.015625 0.34375 40.984375 -0.53125 
Q 36.96875 -1.421875 32.421875 -1.421875 
Q 20.0625 -1.421875 12.78125 6.34375 
Q 5.515625 14.109375 5.515625 27.296875 
Q 5.515625 40.671875 12.859375 48.328125 
Q 20.21875 56 33.015625 56 
Q 37.15625 56 41.109375 55.140625 
Q 45.0625 54.296875 48.78125 52.59375 
z
" id="DejaVuSans-63"/>
     <path d="M 41.109375 46.296875 
Q 39.59375 47.171875 37.8125 47.578125 
Q 36.03125 48 33.890625 48 
Q 26.265625 48 22.1875 43.046875 
Q 18.109375 38.09375 18.109375 28.8125 
L 18.109375 0 
L 9.078125 0 
L 9.078125 54.6875 
L 18.109375 54.6875 
L 18.109375 46.1875 
Q 20.953125 51.171875 25.484375 53.578125 
Q 30.03125 56 36.53125 56 
Q 37.453125 56 38.578125 55.875 
Q 39.703125 55.765625 41.0625 55.515625 
z
" id="DejaVuSans-72"/>
     <path d="M 9.421875 54.6875 
L 18.40625 54.6875 
L 18.40625 0 
L 9.421875 0 
z
M 9.421875 75.984375 
L 18.40625 75.984375 
L 18.40625 64.59375 
L 9.421875 64.59375 
z
" id="DejaVuSans-69"/>
     <path d="M 32.171875 -5.078125 
Q 28.375 -14.84375 24.75 -17.8125 
Q 21.140625 -20.796875 15.09375 -20.796875 
L 7.90625 -20.796875 
L 7.90625 -13.28125 
L 13.1875 -13.28125 
Q 16.890625 -13.28125 18.9375 -11.515625 
Q 21 -9.765625 23.484375 -3.21875 
L 25.09375 0.875 
L 2.984375 54.6875 
L 12.5 54.6875 
L 29.59375 11.921875 
L 46.6875 54.6875 
L 56.203125 54.6875 
z
" id="DejaVuSans-79"/>
    </defs>
    <g transform="translate(118.112813 35.472)scale(0.12 -0.12)">
     <use xlink:href="#DejaVuSans-50"/>
     <use x="60.302734" xlink:href="#DejaVuSans-6c"/>
     <use x="88.085938" xlink:href="#DejaVuSans-6f"/>
     <use x="149.267578" xlink:href="#DejaVuSans-74"/>
     <use x="188.476562" xlink:href="#DejaVuSans-20"/>
     <use x="220.263672" xlink:href="#DejaVuSans-6f"/>
     <use x="281.445312" xlink:href="#DejaVuSans-66"/>
     <use x="316.650391" xlink:href="#DejaVuSans-20"/>
     <use x="348.4375" xlink:href="#DejaVuSans-54"/>
     <use x="409.255859" xlink:href="#DejaVuSans-65"/>
     <use x="470.779297" xlink:href="#DejaVuSans-73"/>
     <use x="522.878906" xlink:href="#DejaVuSans-74"/>
     <use x="562.087891" xlink:href="#DejaVuSans-20"/>
     <use x="593.875" xlink:href="#DejaVuSans-44"/>
     <use x="670.876953" xlink:href="#DejaVuSans-61"/>
     <use x="732.15625" xlink:href="#DejaVuSans-74"/>
     <use x="771.365234" xlink:href="#DejaVuSans-61"/>
     <use x="832.644531" xlink:href="#DejaVuSans-20"/>
     <use x="864.431641" xlink:href="#DejaVuSans-76"/>
     <use x="923.611328" xlink:href="#DejaVuSans-73"/>
     <use x="975.710938" xlink:href="#DejaVuSans-20"/>
     <use x="1007.498047" xlink:href="#DejaVuSans-4d"/>
     <use x="1093.777344" xlink:href="#DejaVuSans-43"/>
     <use x="1163.601562" xlink:href="#DejaVuSans-4d"/>
     <use x="1249.880859" xlink:href="#DejaVuSans-43"/>
     <use x="1319.705078" xlink:href="#DejaVuSans-20"/>
     <use x="1351.492188" xlink:href="#DejaVuSans-55"/>
     <use x="1424.685547" xlink:href="#DejaVuSans-6e"/>
     <use x="1488.064453" xlink:href="#DejaVuSans-63"/>
     <use x="1543.044922" xlink:href="#DejaVuSans-65"/>
     <use x="1604.568359" xlink:href="#DejaVuSans-72"/>
     <use x="1645.681641" xlink:href="#DejaVuSans-74"/>
     <use x="1684.890625" xlink:href="#DejaVuSans-61"/>
     <use x="1746.169922" xlink:href="#DejaVuSans-69"/>
     <use x="1773.953125" xlink:href="#DejaVuSans-6e"/>
     <use x="1837.332031" xlink:href="#DejaVuSans-74"/>
     <use x="1876.541016" xlink:href="#DejaVuSans-79"/>
     <use x="1935.720703" xlink:href="#DejaVuSans-20"/>
    </g>
   </g>
   <g id="legend_1">
    <g id="patch_7">
     <path d="M 277.843437 108.1845 
L 407.72 108.1845 
Q 409.72 108.1845 409.72 106.1845 
L 409.72 48.472 
Q 409.72 46.472 407.72 46.472 
L 277.843437 46.472 
Q 275.843437 46.472 275.843437 48.472 
L 275.843437 106.1845 
Q 275.843437 108.1845 277.843437 108.1845 
z
" style="fill:#ffffff;opacity:0.8;stroke:#cccccc;stroke-linejoin:miter;"/>
    </g>
    <g id="line2d_17">
     <path d="M 279.843437 54.570438 
L 299.843437 54.570438 
" style="fill:none;stroke:#1f77b4;stroke-linecap:square;stroke-width:1.5;"/>
    </g>
    <g id="line2d_18"/>
    <g id="text_14">
     <!-- actual -->
     <defs>
      <path d="M 8.5 21.578125 
L 8.5 54.6875 
L 17.484375 54.6875 
L 17.484375 21.921875 
Q 17.484375 14.15625 20.5 10.265625 
Q 23.53125 6.390625 29.59375 6.390625 
Q 36.859375 6.390625 41.078125 11.03125 
Q 45.3125 15.671875 45.3125 23.6875 
L 45.3125 54.6875 
L 54.296875 54.6875 
L 54.296875 0 
L 45.3125 0 
L 45.3125 8.40625 
Q 42.046875 3.421875 37.71875 1 
Q 33.40625 -1.421875 27.6875 -1.421875 
Q 18.265625 -1.421875 13.375 4.4375 
Q 8.5 10.296875 8.5 21.578125 
z
M 31.109375 56 
z
" id="DejaVuSans-75"/>
     </defs>
     <g transform="translate(307.843437 58.070438)scale(0.1 -0.1)">
      <use xlink:href="#DejaVuSans-61"/>
      <use x="61.279297" xlink:href="#DejaVuSans-63"/>
      <use x="116.259766" xlink:href="#DejaVuSans-74"/>
      <use x="155.46875" xlink:href="#DejaVuSans-75"/>
      <use x="218.847656" xlink:href="#DejaVuSans-61"/>
      <use x="280.126953" xlink:href="#DejaVuSans-6c"/>
     </g>
    </g>
    <g id="line2d_19">
     <path d="M 279.843437 69.248563 
L 299.843437 69.248563 
" style="fill:none;stroke:#ff7f0e;stroke-linecap:square;stroke-width:1.5;"/>
    </g>
    <g id="line2d_20"/>
    <g id="text_15">
     <!-- pred. (mean) -->
     <defs>
      <path d="M 18.109375 8.203125 
L 18.109375 -20.796875 
L 9.078125 -20.796875 
L 9.078125 54.6875 
L 18.109375 54.6875 
L 18.109375 46.390625 
Q 20.953125 51.265625 25.265625 53.625 
Q 29.59375 56 35.59375 56 
Q 45.5625 56 51.78125 48.09375 
Q 58.015625 40.1875 58.015625 27.296875 
Q 58.015625 14.40625 51.78125 6.484375 
Q 45.5625 -1.421875 35.59375 -1.421875 
Q 29.59375 -1.421875 25.265625 0.953125 
Q 20.953125 3.328125 18.109375 8.203125 
z
M 48.6875 27.296875 
Q 48.6875 37.203125 44.609375 42.84375 
Q 40.53125 48.484375 33.40625 48.484375 
Q 26.265625 48.484375 22.1875 42.84375 
Q 18.109375 37.203125 18.109375 27.296875 
Q 18.109375 17.390625 22.1875 11.75 
Q 26.265625 6.109375 33.40625 6.109375 
Q 40.53125 6.109375 44.609375 11.75 
Q 48.6875 17.390625 48.6875 27.296875 
z
" id="DejaVuSans-70"/>
      <path d="M 45.40625 46.390625 
L 45.40625 75.984375 
L 54.390625 75.984375 
L 54.390625 0 
L 45.40625 0 
L 45.40625 8.203125 
Q 42.578125 3.328125 38.25 0.953125 
Q 33.9375 -1.421875 27.875 -1.421875 
Q 17.96875 -1.421875 11.734375 6.484375 
Q 5.515625 14.40625 5.515625 27.296875 
Q 5.515625 40.1875 11.734375 48.09375 
Q 17.96875 56 27.875 56 
Q 33.9375 56 38.25 53.625 
Q 42.578125 51.265625 45.40625 46.390625 
z
M 14.796875 27.296875 
Q 14.796875 17.390625 18.875 11.75 
Q 22.953125 6.109375 30.078125 6.109375 
Q 37.203125 6.109375 41.296875 11.75 
Q 45.40625 17.390625 45.40625 27.296875 
Q 45.40625 37.203125 41.296875 42.84375 
Q 37.203125 48.484375 30.078125 48.484375 
Q 22.953125 48.484375 18.875 42.84375 
Q 14.796875 37.203125 14.796875 27.296875 
z
" id="DejaVuSans-64"/>
      <path d="M 31 75.875 
Q 24.46875 64.65625 21.28125 53.65625 
Q 18.109375 42.671875 18.109375 31.390625 
Q 18.109375 20.125 21.3125 9.0625 
Q 24.515625 -2 31 -13.1875 
L 23.1875 -13.1875 
Q 15.875 -1.703125 12.234375 9.375 
Q 8.59375 20.453125 8.59375 31.390625 
Q 8.59375 42.28125 12.203125 53.3125 
Q 15.828125 64.359375 23.1875 75.875 
z
" id="DejaVuSans-28"/>
      <path d="M 52 44.1875 
Q 55.375 50.25 60.0625 53.125 
Q 64.75 56 71.09375 56 
Q 79.640625 56 84.28125 50.015625 
Q 88.921875 44.046875 88.921875 33.015625 
L 88.921875 0 
L 79.890625 0 
L 79.890625 32.71875 
Q 79.890625 40.578125 77.09375 44.375 
Q 74.3125 48.1875 68.609375 48.1875 
Q 61.625 48.1875 57.5625 43.546875 
Q 53.515625 38.921875 53.515625 30.90625 
L 53.515625 0 
L 44.484375 0 
L 44.484375 32.71875 
Q 44.484375 40.625 41.703125 44.40625 
Q 38.921875 48.1875 33.109375 48.1875 
Q 26.21875 48.1875 22.15625 43.53125 
Q 18.109375 38.875 18.109375 30.90625 
L 18.109375 0 
L 9.078125 0 
L 9.078125 54.6875 
L 18.109375 54.6875 
L 18.109375 46.1875 
Q 21.1875 51.21875 25.484375 53.609375 
Q 29.78125 56 35.6875 56 
Q 41.65625 56 45.828125 52.96875 
Q 50 49.953125 52 44.1875 
z
" id="DejaVuSans-6d"/>
      <path d="M 8.015625 75.875 
L 15.828125 75.875 
Q 23.140625 64.359375 26.78125 53.3125 
Q 30.421875 42.28125 30.421875 31.390625 
Q 30.421875 20.453125 26.78125 9.375 
Q 23.140625 -1.703125 15.828125 -13.1875 
L 8.015625 -13.1875 
Q 14.5 -2 17.703125 9.0625 
Q 20.90625 20.125 20.90625 31.390625 
Q 20.90625 42.671875 17.703125 53.65625 
Q 14.5 64.65625 8.015625 75.875 
z
" id="DejaVuSans-29"/>
     </defs>
     <g transform="translate(307.843437 72.748563)scale(0.1 -0.1)">
      <use xlink:href="#DejaVuSans-70"/>
      <use x="63.476562" xlink:href="#DejaVuSans-72"/>
      <use x="104.558594" xlink:href="#DejaVuSans-65"/>
      <use x="166.082031" xlink:href="#DejaVuSans-64"/>
      <use x="229.558594" xlink:href="#DejaVuSans-2e"/>
      <use x="261.345703" xlink:href="#DejaVuSans-20"/>
      <use x="293.132812" xlink:href="#DejaVuSans-28"/>
      <use x="332.146484" xlink:href="#DejaVuSans-6d"/>
      <use x="429.558594" xlink:href="#DejaVuSans-65"/>
      <use x="491.082031" xlink:href="#DejaVuSans-61"/>
      <use x="552.361328" xlink:href="#DejaVuSans-6e"/>
      <use x="615.740234" xlink:href="#DejaVuSans-29"/>
     </g>
    </g>
    <g id="line2d_21">
     <path d="M 279.843437 83.926688 
L 299.843437 83.926688 
" style="fill:none;stroke:#2ca02c;stroke-linecap:square;stroke-width:1.5;"/>
    </g>
    <g id="line2d_22"/>
    <g id="text_16">
     <!-- pred.(5th percen.) -->
     <defs>
      <path d="M 10.796875 72.90625 
L 49.515625 72.90625 
L 49.515625 64.59375 
L 19.828125 64.59375 
L 19.828125 46.734375 
Q 21.96875 47.46875 24.109375 47.828125 
Q 26.265625 48.1875 28.421875 48.1875 
Q 40.625 48.1875 47.75 41.5 
Q 54.890625 34.8125 54.890625 23.390625 
Q 54.890625 11.625 47.5625 5.09375 
Q 40.234375 -1.421875 26.90625 -1.421875 
Q 22.3125 -1.421875 17.546875 -0.640625 
Q 12.796875 0.140625 7.71875 1.703125 
L 7.71875 11.625 
Q 12.109375 9.234375 16.796875 8.0625 
Q 21.484375 6.890625 26.703125 6.890625 
Q 35.15625 6.890625 40.078125 11.328125 
Q 45.015625 15.765625 45.015625 23.390625 
Q 45.015625 31 40.078125 35.4375 
Q 35.15625 39.890625 26.703125 39.890625 
Q 22.75 39.890625 18.8125 39.015625 
Q 14.890625 38.140625 10.796875 36.28125 
z
" id="DejaVuSans-35"/>
      <path d="M 54.890625 33.015625 
L 54.890625 0 
L 45.90625 0 
L 45.90625 32.71875 
Q 45.90625 40.484375 42.875 44.328125 
Q 39.84375 48.1875 33.796875 48.1875 
Q 26.515625 48.1875 22.3125 43.546875 
Q 18.109375 38.921875 18.109375 30.90625 
L 18.109375 0 
L 9.078125 0 
L 9.078125 75.984375 
L 18.109375 75.984375 
L 18.109375 46.1875 
Q 21.34375 51.125 25.703125 53.5625 
Q 30.078125 56 35.796875 56 
Q 45.21875 56 50.046875 50.171875 
Q 54.890625 44.34375 54.890625 33.015625 
z
" id="DejaVuSans-68"/>
     </defs>
     <g transform="translate(307.843437 87.426688)scale(0.1 -0.1)">
      <use xlink:href="#DejaVuSans-70"/>
      <use x="63.476562" xlink:href="#DejaVuSans-72"/>
      <use x="104.558594" xlink:href="#DejaVuSans-65"/>
      <use x="166.082031" xlink:href="#DejaVuSans-64"/>
      <use x="229.558594" xlink:href="#DejaVuSans-2e"/>
      <use x="261.345703" xlink:href="#DejaVuSans-28"/>
      <use x="300.359375" xlink:href="#DejaVuSans-35"/>
      <use x="363.982422" xlink:href="#DejaVuSans-74"/>
      <use x="403.191406" xlink:href="#DejaVuSans-68"/>
      <use x="466.570312" xlink:href="#DejaVuSans-20"/>
      <use x="498.357422" xlink:href="#DejaVuSans-70"/>
      <use x="561.833984" xlink:href="#DejaVuSans-65"/>
      <use x="623.357422" xlink:href="#DejaVuSans-72"/>
      <use x="664.439453" xlink:href="#DejaVuSans-63"/>
      <use x="719.419922" xlink:href="#DejaVuSans-65"/>
      <use x="780.943359" xlink:href="#DejaVuSans-6e"/>
      <use x="844.322266" xlink:href="#DejaVuSans-2e"/>
      <use x="876.109375" xlink:href="#DejaVuSans-29"/>
     </g>
    </g>
    <g id="line2d_23">
     <path d="M 279.843437 98.604813 
L 299.843437 98.604813 
" style="fill:none;stroke:#d62728;stroke-linecap:square;stroke-width:1.5;"/>
    </g>
    <g id="line2d_24"/>
    <g id="text_17">
     <!-- pred.(95th percen.) -->
     <defs>
      <path d="M 10.984375 1.515625 
L 10.984375 10.5 
Q 14.703125 8.734375 18.5 7.8125 
Q 22.3125 6.890625 25.984375 6.890625 
Q 35.75 6.890625 40.890625 13.453125 
Q 46.046875 20.015625 46.78125 33.40625 
Q 43.953125 29.203125 39.59375 26.953125 
Q 35.25 24.703125 29.984375 24.703125 
Q 19.046875 24.703125 12.671875 31.3125 
Q 6.296875 37.9375 6.296875 49.421875 
Q 6.296875 60.640625 12.9375 67.421875 
Q 19.578125 74.21875 30.609375 74.21875 
Q 43.265625 74.21875 49.921875 64.515625 
Q 56.59375 54.828125 56.59375 36.375 
Q 56.59375 19.140625 48.40625 8.859375 
Q 40.234375 -1.421875 26.421875 -1.421875 
Q 22.703125 -1.421875 18.890625 -0.6875 
Q 15.09375 0.046875 10.984375 1.515625 
z
M 30.609375 32.421875 
Q 37.25 32.421875 41.125 36.953125 
Q 45.015625 41.5 45.015625 49.421875 
Q 45.015625 57.28125 41.125 61.84375 
Q 37.25 66.40625 30.609375 66.40625 
Q 23.96875 66.40625 20.09375 61.84375 
Q 16.21875 57.28125 16.21875 49.421875 
Q 16.21875 41.5 20.09375 36.953125 
Q 23.96875 32.421875 30.609375 32.421875 
z
" id="DejaVuSans-39"/>
     </defs>
     <g transform="translate(307.843437 102.104813)scale(0.1 -0.1)">
      <use xlink:href="#DejaVuSans-70"/>
      <use x="63.476562" xlink:href="#DejaVuSans-72"/>
      <use x="104.558594" xlink:href="#DejaVuSans-65"/>
      <use x="166.082031" xlink:href="#DejaVuSans-64"/>
      <use x="229.558594" xlink:href="#DejaVuSans-2e"/>
      <use x="261.345703" xlink:href="#DejaVuSans-28"/>
      <use x="300.359375" xlink:href="#DejaVuSans-39"/>
      <use x="363.982422" xlink:href="#DejaVuSans-35"/>
      <use x="427.605469" xlink:href="#DejaVuSans-74"/>
      <use x="466.814453" xlink:href="#DejaVuSans-68"/>
      <use x="530.193359" xlink:href="#DejaVuSans-20"/>
      <use x="561.980469" xlink:href="#DejaVuSans-70"/>
      <use x="625.457031" xlink:href="#DejaVuSans-65"/>
      <use x="686.980469" xlink:href="#DejaVuSans-72"/>
      <use x="728.0625" xlink:href="#DejaVuSans-63"/>
      <use x="783.042969" xlink:href="#DejaVuSans-65"/>
      <use x="844.566406" xlink:href="#DejaVuSans-6e"/>
      <use x="907.945312" xlink:href="#DejaVuSans-2e"/>
      <use x="939.732422" xlink:href="#DejaVuSans-29"/>
     </g>
    </g>
   </g>
  </g>
 </g>
 <defs>
  <clipPath id="pa26125e9ee">
   <rect height="266.112" width="357.12" x="57.6" y="41.472"/>
  </clipPath>
 </defs>
</svg>
