<?xml version="1.0" encoding="utf-8" standalone="no"?>
<!DOCTYPE svg PUBLIC "-//W3C//DTD SVG 1.1//EN"
  "http://www.w3.org/Graphics/SVG/1.1/DTD/svg11.dtd">
<!-- Created with matplotlib (http://matplotlib.org/) -->
<svg height="345.6pt" version="1.1" viewBox="0 0 460.8 345.6" width="460.8pt" xmlns="http://www.w3.org/2000/svg" xmlns:xlink="http://www.w3.org/1999/xlink">
 <defs>
  <style type="text/css">
*{stroke-linecap:butt;stroke-linejoin:round;}
  </style>
 </defs>
 <g id="figure_1">
  <g id="patch_1">
   <path d="M 0 345.6 
L 460.8 345.6 
L 460.8 0 
L 0 0 
z
" style="fill:#ffffff;"/>
  </g>
  <g id="axes_1">
   <g id="patch_2">
    <path d="M 57.6 307.584 
L 414.72 307.584 
L 414.72 41.472 
L 57.6 41.472 
z
" style="fill:#ffffff;"/>
   </g>
   <g id="PolyCollection_1">
    <path clip-path="url(#p6310550146)" d="M 73.832727 96.499123 
L 73.832727 116.01327 
L 75.48072 104.304782 
L 77.128713 112.11044 
L 78.776705 112.11044 
L 80.424698 123.818928 
L 82.07269 151.138734 
L 83.720683 162.847222 
L 85.368676 170.652881 
L 87.016668 158.944393 
L 88.664661 155.041563 
L 90.312653 166.750051 
L 91.960646 174.55571 
L 93.608639 186.264198 
L 95.256631 194.069857 
L 96.904624 217.486833 
L 98.552617 233.09815 
L 100.200609 237.00098 
L 101.848602 244.806639 
L 103.496594 252.612297 
L 105.144587 260.417956 
L 106.79258 264.320785 
L 108.440572 264.320785 
L 110.088565 268.223615 
L 111.736557 264.320785 
L 113.38455 264.320785 
L 115.032543 264.320785 
L 116.680535 268.223615 
L 118.328528 272.126444 
L 119.976521 276.029273 
L 121.624513 276.029273 
L 123.272506 279.932103 
L 124.920498 279.932103 
L 126.568491 279.932103 
L 128.216484 276.029273 
L 129.864476 276.029273 
L 131.512469 276.029273 
L 133.160461 279.932103 
L 134.808454 279.932103 
L 136.456447 279.932103 
L 138.104439 279.932103 
L 139.752432 279.932103 
L 141.400425 276.029273 
L 143.048417 272.126444 
L 144.69641 268.223615 
L 146.344402 252.612297 
L 147.992395 240.903809 
L 149.640388 229.195321 
L 151.28838 213.584004 
L 152.936373 194.069857 
L 154.584365 170.652881 
L 156.232358 155.041563 
L 157.880351 135.527417 
L 159.528343 123.818928 
L 161.176336 108.207611 
L 162.824329 104.304782 
L 164.472321 100.401952 
L 166.120314 92.596294 
L 167.768306 84.790635 
L 169.416299 80.887806 
L 171.064292 76.984976 
L 172.712284 73.082147 
L 174.360277 76.984976 
L 176.008269 69.179317 
L 177.656262 84.790635 
L 179.304255 92.596294 
L 180.952247 104.304782 
L 182.60024 108.207611 
L 184.248233 108.207611 
L 185.896225 127.721758 
L 187.544218 139.430246 
L 189.19221 135.527417 
L 190.840203 139.430246 
L 192.488196 147.235905 
L 194.136188 162.847222 
L 195.784181 178.458539 
L 197.432174 186.264198 
L 199.080166 194.069857 
L 200.728159 201.875516 
L 202.376151 205.778345 
L 204.024144 217.486833 
L 205.672137 225.292492 
L 207.320129 229.195321 
L 208.968122 237.00098 
L 210.616114 240.903809 
L 212.264107 240.903809 
L 213.9121 240.903809 
L 215.560092 240.903809 
L 217.208085 240.903809 
L 218.856078 237.00098 
L 220.50407 237.00098 
L 222.152063 248.709468 
L 223.800055 248.709468 
L 225.448048 252.612297 
L 227.096041 256.515127 
L 228.744033 264.320785 
L 230.392026 268.223615 
L 232.040018 268.223615 
L 233.688011 268.223615 
L 235.336004 268.223615 
L 236.983996 268.223615 
L 238.631989 272.126444 
L 240.279982 272.126444 
L 241.927974 276.029273 
L 243.575967 276.029273 
L 245.223959 279.932103 
L 246.871952 279.932103 
L 248.519945 283.834932 
L 250.167937 283.834932 
L 251.81593 283.834932 
L 253.463922 283.834932 
L 255.111915 283.834932 
L 256.759908 283.834932 
L 258.4079 279.932103 
L 260.055893 279.932103 
L 261.703886 279.932103 
L 263.351878 272.126444 
L 264.999871 268.223615 
L 266.647863 260.417956 
L 268.295856 252.612297 
L 269.943849 240.903809 
L 271.591841 237.00098 
L 273.239834 229.195321 
L 274.887826 217.486833 
L 276.535819 205.778345 
L 278.183812 201.875516 
L 279.831804 197.972686 
L 281.479797 182.361369 
L 283.12779 174.55571 
L 284.775782 170.652881 
L 286.423775 162.847222 
L 288.071767 147.235905 
L 289.71976 139.430246 
L 291.367753 151.138734 
L 293.015745 147.235905 
L 294.663738 139.430246 
L 296.311731 135.527417 
L 297.959723 162.847222 
L 299.607716 170.652881 
L 301.255708 143.333075 
L 302.903701 139.430246 
L 304.551694 158.944393 
L 306.199686 162.847222 
L 307.847679 143.333075 
L 309.495671 143.333075 
L 311.143664 178.458539 
L 312.791657 182.361369 
L 314.439649 174.55571 
L 316.087642 166.750051 
L 317.735635 174.55571 
L 319.383627 182.361369 
L 321.03162 170.652881 
L 322.679612 170.652881 
L 324.327605 178.458539 
L 325.975598 205.778345 
L 327.62359 205.778345 
L 329.271583 197.972686 
L 330.919575 209.681174 
L 332.567568 225.292492 
L 334.215561 229.195321 
L 335.863553 233.09815 
L 337.511546 244.806639 
L 339.159539 256.515127 
L 340.807531 264.320785 
L 342.455524 264.320785 
L 344.103516 268.223615 
L 345.751509 268.223615 
L 347.399502 276.029273 
L 349.047494 279.932103 
L 350.695487 279.932103 
L 352.343479 279.932103 
L 353.991472 283.834932 
L 355.639465 283.834932 
L 357.287457 283.834932 
L 358.93545 283.834932 
L 360.583443 279.932103 
L 362.231435 283.834932 
L 363.879428 283.834932 
L 365.52742 283.834932 
L 367.175413 283.834932 
L 368.823406 283.834932 
L 370.471398 283.834932 
L 372.119391 283.834932 
L 373.767383 279.932103 
L 375.415376 279.932103 
L 377.063369 276.029273 
L 378.711361 272.126444 
L 380.359354 260.417956 
L 382.007347 252.612297 
L 383.655339 237.00098 
L 385.303332 213.584004 
L 386.951324 194.069857 
L 388.599317 182.361369 
L 390.24731 174.55571 
L 391.895302 158.944393 
L 393.543295 151.138734 
L 395.191287 166.750051 
L 396.83928 166.750051 
L 398.487273 155.041563 
L 398.487273 139.430246 
L 398.487273 139.430246 
L 396.83928 155.041563 
L 395.191287 155.041563 
L 393.543295 139.430246 
L 391.895302 143.333075 
L 390.24731 158.944393 
L 388.599317 166.750051 
L 386.951324 170.652881 
L 385.303332 186.264198 
L 383.655339 221.389662 
L 382.007347 237.00098 
L 380.359354 248.709468 
L 378.711361 256.515127 
L 377.063369 260.417956 
L 375.415376 260.417956 
L 373.767383 264.320785 
L 372.119391 264.320785 
L 370.471398 264.320785 
L 368.823406 264.320785 
L 367.175413 264.320785 
L 365.52742 264.320785 
L 363.879428 264.320785 
L 362.231435 264.320785 
L 360.583443 264.320785 
L 358.93545 264.320785 
L 357.287457 264.320785 
L 355.639465 264.320785 
L 353.991472 264.320785 
L 352.343479 264.320785 
L 350.695487 264.320785 
L 349.047494 260.417956 
L 347.399502 260.417956 
L 345.751509 256.515127 
L 344.103516 252.612297 
L 342.455524 252.612297 
L 340.807531 248.709468 
L 339.159539 244.806639 
L 337.511546 229.195321 
L 335.863553 221.389662 
L 334.215561 217.486833 
L 332.567568 209.681174 
L 330.919575 197.972686 
L 329.271583 186.264198 
L 327.62359 190.167028 
L 325.975598 186.264198 
L 324.327605 166.750051 
L 322.679612 158.944393 
L 321.03162 158.944393 
L 319.383627 170.652881 
L 317.735635 162.847222 
L 316.087642 155.041563 
L 314.439649 162.847222 
L 312.791657 166.750051 
L 311.143664 155.041563 
L 309.495671 131.624587 
L 307.847679 123.818928 
L 306.199686 147.235905 
L 304.551694 143.333075 
L 302.903701 127.721758 
L 301.255708 123.818928 
L 299.607716 155.041563 
L 297.959723 143.333075 
L 296.311731 123.818928 
L 294.663738 123.818928 
L 293.015745 135.527417 
L 291.367753 139.430246 
L 289.71976 119.916099 
L 288.071767 131.624587 
L 286.423775 151.138734 
L 284.775782 158.944393 
L 283.12779 158.944393 
L 281.479797 162.847222 
L 279.831804 186.264198 
L 278.183812 186.264198 
L 276.535819 190.167028 
L 274.887826 205.778345 
L 273.239834 217.486833 
L 271.591841 225.292492 
L 269.943849 229.195321 
L 268.295856 240.903809 
L 266.647863 248.709468 
L 264.999871 252.612297 
L 263.351878 256.515127 
L 261.703886 260.417956 
L 260.055893 260.417956 
L 258.4079 264.320785 
L 256.759908 264.320785 
L 255.111915 264.320785 
L 253.463922 264.320785 
L 251.81593 264.320785 
L 250.167937 264.320785 
L 248.519945 264.320785 
L 246.871952 264.320785 
L 245.223959 264.320785 
L 243.575967 260.417956 
L 241.927974 260.417956 
L 240.279982 256.515127 
L 238.631989 256.515127 
L 236.983996 256.515127 
L 235.336004 256.515127 
L 233.688011 256.515127 
L 232.040018 256.515127 
L 230.392026 252.612297 
L 228.744033 252.612297 
L 227.096041 244.806639 
L 225.448048 240.903809 
L 223.800055 240.903809 
L 222.152063 237.00098 
L 220.50407 229.195321 
L 218.856078 225.292492 
L 217.208085 229.195321 
L 215.560092 229.195321 
L 213.9121 229.195321 
L 212.264107 229.195321 
L 210.616114 229.195321 
L 208.968122 221.389662 
L 207.320129 217.486833 
L 205.672137 209.681174 
L 204.024144 201.875516 
L 202.376151 194.069857 
L 200.728159 190.167028 
L 199.080166 182.361369 
L 197.432174 170.652881 
L 195.784181 162.847222 
L 194.136188 147.235905 
L 192.488196 135.527417 
L 190.840203 127.721758 
L 189.19221 123.818928 
L 187.544218 123.818928 
L 185.896225 108.207611 
L 184.248233 92.596294 
L 182.60024 88.693464 
L 180.952247 80.887806 
L 179.304255 69.179317 
L 177.656262 61.373659 
L 176.008269 53.568 
L 174.360277 57.470829 
L 172.712284 57.470829 
L 171.064292 57.470829 
L 169.416299 61.373659 
L 167.768306 69.179317 
L 166.120314 80.887806 
L 164.472321 84.790635 
L 162.824329 88.693464 
L 161.176336 92.596294 
L 159.528343 104.304782 
L 157.880351 116.01327 
L 156.232358 135.527417 
L 154.584365 147.235905 
L 152.936373 166.750051 
L 151.28838 197.972686 
L 149.640388 213.584004 
L 147.992395 225.292492 
L 146.344402 237.00098 
L 144.69641 252.612297 
L 143.048417 256.515127 
L 141.400425 260.417956 
L 139.752432 260.417956 
L 138.104439 260.417956 
L 136.456447 260.417956 
L 134.808454 260.417956 
L 133.160461 260.417956 
L 131.512469 260.417956 
L 129.864476 260.417956 
L 128.216484 260.417956 
L 126.568491 260.417956 
L 124.920498 260.417956 
L 123.272506 260.417956 
L 121.624513 260.417956 
L 119.976521 260.417956 
L 118.328528 260.417956 
L 116.680535 256.515127 
L 115.032543 252.612297 
L 113.38455 252.612297 
L 111.736557 252.612297 
L 110.088565 252.612297 
L 108.440572 252.612297 
L 106.79258 252.612297 
L 105.144587 248.709468 
L 103.496594 240.903809 
L 101.848602 233.09815 
L 100.200609 225.292492 
L 98.552617 213.584004 
L 96.904624 197.972686 
L 95.256631 182.361369 
L 93.608639 174.55571 
L 91.960646 162.847222 
L 90.312653 155.041563 
L 88.664661 147.235905 
L 87.016668 143.333075 
L 85.368676 155.041563 
L 83.720683 143.333075 
L 82.07269 127.721758 
L 80.424698 108.207611 
L 78.776705 100.401952 
L 77.128713 96.499123 
L 75.48072 84.790635 
L 73.832727 96.499123 
z
" style="fill:#008000;fill-opacity:0.4;"/>
   </g>
   <g id="matplotlib.axis_1">
    <g id="xtick_1">
     <g id="line2d_1">
      <defs>
       <path d="M 0 0 
L 0 3.5 
" id="m64cd4ed600" style="stroke:#000000;stroke-width:0.8;"/>
      </defs>
      <g>
       <use style="stroke:#000000;stroke-width:0.8;" x="73.832727" xlink:href="#m64cd4ed600" y="307.584"/>
      </g>
     </g>
     <g id="text_1">
      <!-- 0.0 -->
      <defs>
       <path d="M 31.78125 66.40625 
Q 24.171875 66.40625 20.328125 58.90625 
Q 16.5 51.421875 16.5 36.375 
Q 16.5 21.390625 20.328125 13.890625 
Q 24.171875 6.390625 31.78125 6.390625 
Q 39.453125 6.390625 43.28125 13.890625 
Q 47.125 21.390625 47.125 36.375 
Q 47.125 51.421875 43.28125 58.90625 
Q 39.453125 66.40625 31.78125 66.40625 
z
M 31.78125 74.21875 
Q 44.046875 74.21875 50.515625 64.515625 
Q 56.984375 54.828125 56.984375 36.375 
Q 56.984375 17.96875 50.515625 8.265625 
Q 44.046875 -1.421875 31.78125 -1.421875 
Q 19.53125 -1.421875 13.0625 8.265625 
Q 6.59375 17.96875 6.59375 36.375 
Q 6.59375 54.828125 13.0625 64.515625 
Q 19.53125 74.21875 31.78125 74.21875 
z
" id="DejaVuSans-30"/>
       <path d="M 10.6875 12.40625 
L 21 12.40625 
L 21 0 
L 10.6875 0 
z
" id="DejaVuSans-2e"/>
      </defs>
      <g transform="translate(65.881165 322.182437)scale(0.1 -0.1)">
       <use xlink:href="#DejaVuSans-30"/>
       <use x="63.623047" xlink:href="#DejaVuSans-2e"/>
       <use x="95.410156" xlink:href="#DejaVuSans-30"/>
      </g>
     </g>
    </g>
    <g id="xtick_2">
     <g id="line2d_2">
      <g>
       <use style="stroke:#000000;stroke-width:0.8;" x="138.763636" xlink:href="#m64cd4ed600" y="307.584"/>
      </g>
     </g>
     <g id="text_2">
      <!-- 0.2 -->
      <defs>
       <path d="M 19.1875 8.296875 
L 53.609375 8.296875 
L 53.609375 0 
L 7.328125 0 
L 7.328125 8.296875 
Q 12.9375 14.109375 22.625 23.890625 
Q 32.328125 33.6875 34.8125 36.53125 
Q 39.546875 41.84375 41.421875 45.53125 
Q 43.3125 49.21875 43.3125 52.78125 
Q 43.3125 58.59375 39.234375 62.25 
Q 35.15625 65.921875 28.609375 65.921875 
Q 23.96875 65.921875 18.8125 64.3125 
Q 13.671875 62.703125 7.8125 59.421875 
L 7.8125 69.390625 
Q 13.765625 71.78125 18.9375 73 
Q 24.125 74.21875 28.421875 74.21875 
Q 39.75 74.21875 46.484375 68.546875 
Q 53.21875 62.890625 53.21875 53.421875 
Q 53.21875 48.921875 51.53125 44.890625 
Q 49.859375 40.875 45.40625 35.40625 
Q 44.1875 33.984375 37.640625 27.21875 
Q 31.109375 20.453125 19.1875 8.296875 
z
" id="DejaVuSans-32"/>
      </defs>
      <g transform="translate(130.812074 322.182437)scale(0.1 -0.1)">
       <use xlink:href="#DejaVuSans-30"/>
       <use x="63.623047" xlink:href="#DejaVuSans-2e"/>
       <use x="95.410156" xlink:href="#DejaVuSans-32"/>
      </g>
     </g>
    </g>
    <g id="xtick_3">
     <g id="line2d_3">
      <g>
       <use style="stroke:#000000;stroke-width:0.8;" x="203.694545" xlink:href="#m64cd4ed600" y="307.584"/>
      </g>
     </g>
     <g id="text_3">
      <!-- 0.4 -->
      <defs>
       <path d="M 37.796875 64.3125 
L 12.890625 25.390625 
L 37.796875 25.390625 
z
M 35.203125 72.90625 
L 47.609375 72.90625 
L 47.609375 25.390625 
L 58.015625 25.390625 
L 58.015625 17.1875 
L 47.609375 17.1875 
L 47.609375 0 
L 37.796875 0 
L 37.796875 17.1875 
L 4.890625 17.1875 
L 4.890625 26.703125 
z
" id="DejaVuSans-34"/>
      </defs>
      <g transform="translate(195.742983 322.182437)scale(0.1 -0.1)">
       <use xlink:href="#DejaVuSans-30"/>
       <use x="63.623047" xlink:href="#DejaVuSans-2e"/>
       <use x="95.410156" xlink:href="#DejaVuSans-34"/>
      </g>
     </g>
    </g>
    <g id="xtick_4">
     <g id="line2d_4">
      <g>
       <use style="stroke:#000000;stroke-width:0.8;" x="268.625455" xlink:href="#m64cd4ed600" y="307.584"/>
      </g>
     </g>
     <g id="text_4">
      <!-- 0.6 -->
      <defs>
       <path d="M 33.015625 40.375 
Q 26.375 40.375 22.484375 35.828125 
Q 18.609375 31.296875 18.609375 23.390625 
Q 18.609375 15.53125 22.484375 10.953125 
Q 26.375 6.390625 33.015625 6.390625 
Q 39.65625 6.390625 43.53125 10.953125 
Q 47.40625 15.53125 47.40625 23.390625 
Q 47.40625 31.296875 43.53125 35.828125 
Q 39.65625 40.375 33.015625 40.375 
z
M 52.59375 71.296875 
L 52.59375 62.3125 
Q 48.875 64.0625 45.09375 64.984375 
Q 41.3125 65.921875 37.59375 65.921875 
Q 27.828125 65.921875 22.671875 59.328125 
Q 17.53125 52.734375 16.796875 39.40625 
Q 19.671875 43.65625 24.015625 45.921875 
Q 28.375 48.1875 33.59375 48.1875 
Q 44.578125 48.1875 50.953125 41.515625 
Q 57.328125 34.859375 57.328125 23.390625 
Q 57.328125 12.15625 50.6875 5.359375 
Q 44.046875 -1.421875 33.015625 -1.421875 
Q 20.359375 -1.421875 13.671875 8.265625 
Q 6.984375 17.96875 6.984375 36.375 
Q 6.984375 53.65625 15.1875 63.9375 
Q 23.390625 74.21875 37.203125 74.21875 
Q 40.921875 74.21875 44.703125 73.484375 
Q 48.484375 72.75 52.59375 71.296875 
z
" id="DejaVuSans-36"/>
      </defs>
      <g transform="translate(260.673892 322.182437)scale(0.1 -0.1)">
       <use xlink:href="#DejaVuSans-30"/>
       <use x="63.623047" xlink:href="#DejaVuSans-2e"/>
       <use x="95.410156" xlink:href="#DejaVuSans-36"/>
      </g>
     </g>
    </g>
    <g id="xtick_5">
     <g id="line2d_5">
      <g>
       <use style="stroke:#000000;stroke-width:0.8;" x="333.556364" xlink:href="#m64cd4ed600" y="307.584"/>
      </g>
     </g>
     <g id="text_5">
      <!-- 0.8 -->
      <defs>
       <path d="M 31.78125 34.625 
Q 24.75 34.625 20.71875 30.859375 
Q 16.703125 27.09375 16.703125 20.515625 
Q 16.703125 13.921875 20.71875 10.15625 
Q 24.75 6.390625 31.78125 6.390625 
Q 38.8125 6.390625 42.859375 10.171875 
Q 46.921875 13.96875 46.921875 20.515625 
Q 46.921875 27.09375 42.890625 30.859375 
Q 38.875 34.625 31.78125 34.625 
z
M 21.921875 38.8125 
Q 15.578125 40.375 12.03125 44.71875 
Q 8.5 49.078125 8.5 55.328125 
Q 8.5 64.0625 14.71875 69.140625 
Q 20.953125 74.21875 31.78125 74.21875 
Q 42.671875 74.21875 48.875 69.140625 
Q 55.078125 64.0625 55.078125 55.328125 
Q 55.078125 49.078125 51.53125 44.71875 
Q 48 40.375 41.703125 38.8125 
Q 48.828125 37.15625 52.796875 32.3125 
Q 56.78125 27.484375 56.78125 20.515625 
Q 56.78125 9.90625 50.3125 4.234375 
Q 43.84375 -1.421875 31.78125 -1.421875 
Q 19.734375 -1.421875 13.25 4.234375 
Q 6.78125 9.90625 6.78125 20.515625 
Q 6.78125 27.484375 10.78125 32.3125 
Q 14.796875 37.15625 21.921875 38.8125 
z
M 18.3125 54.390625 
Q 18.3125 48.734375 21.84375 45.5625 
Q 25.390625 42.390625 31.78125 42.390625 
Q 38.140625 42.390625 41.71875 45.5625 
Q 45.3125 48.734375 45.3125 54.390625 
Q 45.3125 60.0625 41.71875 63.234375 
Q 38.140625 66.40625 31.78125 66.40625 
Q 25.390625 66.40625 21.84375 63.234375 
Q 18.3125 60.0625 18.3125 54.390625 
z
" id="DejaVuSans-38"/>
      </defs>
      <g transform="translate(325.604801 322.182437)scale(0.1 -0.1)">
       <use xlink:href="#DejaVuSans-30"/>
       <use x="63.623047" xlink:href="#DejaVuSans-2e"/>
       <use x="95.410156" xlink:href="#DejaVuSans-38"/>
      </g>
     </g>
    </g>
    <g id="xtick_6">
     <g id="line2d_6">
      <g>
       <use style="stroke:#000000;stroke-width:0.8;" x="398.487273" xlink:href="#m64cd4ed600" y="307.584"/>
      </g>
     </g>
     <g id="text_6">
      <!-- 1.0 -->
      <defs>
       <path d="M 12.40625 8.296875 
L 28.515625 8.296875 
L 28.515625 63.921875 
L 10.984375 60.40625 
L 10.984375 69.390625 
L 28.421875 72.90625 
L 38.28125 72.90625 
L 38.28125 8.296875 
L 54.390625 8.296875 
L 54.390625 0 
L 12.40625 0 
z
" id="DejaVuSans-31"/>
      </defs>
      <g transform="translate(390.53571 322.182437)scale(0.1 -0.1)">
       <use xlink:href="#DejaVuSans-31"/>
       <use x="63.623047" xlink:href="#DejaVuSans-2e"/>
       <use x="95.410156" xlink:href="#DejaVuSans-30"/>
      </g>
     </g>
    </g>
   </g>
   <g id="matplotlib.axis_2">
    <g id="ytick_1">
     <g id="line2d_7">
      <defs>
       <path d="M 0 0 
L -3.5 0 
" id="mcdf32929d6" style="stroke:#000000;stroke-width:0.8;"/>
      </defs>
      <g>
       <use style="stroke:#000000;stroke-width:0.8;" x="57.6" xlink:href="#mcdf32929d6" y="299.44625"/>
      </g>
     </g>
     <g id="text_7">
      <!-- 0.0 -->
      <g transform="translate(34.696875 303.245468)scale(0.1 -0.1)">
       <use xlink:href="#DejaVuSans-30"/>
       <use x="63.623047" xlink:href="#DejaVuSans-2e"/>
       <use x="95.410156" xlink:href="#DejaVuSans-30"/>
      </g>
     </g>
    </g>
    <g id="ytick_2">
     <g id="line2d_8">
      <g>
       <use style="stroke:#000000;stroke-width:0.8;" x="57.6" xlink:href="#mcdf32929d6" y="260.417956"/>
      </g>
     </g>
     <g id="text_8">
      <!-- 0.1 -->
      <g transform="translate(34.696875 264.217175)scale(0.1 -0.1)">
       <use xlink:href="#DejaVuSans-30"/>
       <use x="63.623047" xlink:href="#DejaVuSans-2e"/>
       <use x="95.410156" xlink:href="#DejaVuSans-31"/>
      </g>
     </g>
    </g>
    <g id="ytick_3">
     <g id="line2d_9">
      <g>
       <use style="stroke:#000000;stroke-width:0.8;" x="57.6" xlink:href="#mcdf32929d6" y="221.389662"/>
      </g>
     </g>
     <g id="text_9">
      <!-- 0.2 -->
      <g transform="translate(34.696875 225.188881)scale(0.1 -0.1)">
       <use xlink:href="#DejaVuSans-30"/>
       <use x="63.623047" xlink:href="#DejaVuSans-2e"/>
       <use x="95.410156" xlink:href="#DejaVuSans-32"/>
      </g>
     </g>
    </g>
    <g id="ytick_4">
     <g id="line2d_10">
      <g>
       <use style="stroke:#000000;stroke-width:0.8;" x="57.6" xlink:href="#mcdf32929d6" y="182.361369"/>
      </g>
     </g>
     <g id="text_10">
      <!-- 0.3 -->
      <defs>
       <path d="M 40.578125 39.3125 
Q 47.65625 37.796875 51.625 33 
Q 55.609375 28.21875 55.609375 21.1875 
Q 55.609375 10.40625 48.1875 4.484375 
Q 40.765625 -1.421875 27.09375 -1.421875 
Q 22.515625 -1.421875 17.65625 -0.515625 
Q 12.796875 0.390625 7.625 2.203125 
L 7.625 11.71875 
Q 11.71875 9.328125 16.59375 8.109375 
Q 21.484375 6.890625 26.8125 6.890625 
Q 36.078125 6.890625 40.9375 10.546875 
Q 45.796875 14.203125 45.796875 21.1875 
Q 45.796875 27.640625 41.28125 31.265625 
Q 36.765625 34.90625 28.71875 34.90625 
L 20.21875 34.90625 
L 20.21875 43.015625 
L 29.109375 43.015625 
Q 36.375 43.015625 40.234375 45.921875 
Q 44.09375 48.828125 44.09375 54.296875 
Q 44.09375 59.90625 40.109375 62.90625 
Q 36.140625 65.921875 28.71875 65.921875 
Q 24.65625 65.921875 20.015625 65.03125 
Q 15.375 64.15625 9.8125 62.3125 
L 9.8125 71.09375 
Q 15.4375 72.65625 20.34375 73.4375 
Q 25.25 74.21875 29.59375 74.21875 
Q 40.828125 74.21875 47.359375 69.109375 
Q 53.90625 64.015625 53.90625 55.328125 
Q 53.90625 49.265625 50.4375 45.09375 
Q 46.96875 40.921875 40.578125 39.3125 
z
" id="DejaVuSans-33"/>
      </defs>
      <g transform="translate(34.696875 186.160588)scale(0.1 -0.1)">
       <use xlink:href="#DejaVuSans-30"/>
       <use x="63.623047" xlink:href="#DejaVuSans-2e"/>
       <use x="95.410156" xlink:href="#DejaVuSans-33"/>
      </g>
     </g>
    </g>
    <g id="ytick_5">
     <g id="line2d_11">
      <g>
       <use style="stroke:#000000;stroke-width:0.8;" x="57.6" xlink:href="#mcdf32929d6" y="143.333075"/>
      </g>
     </g>
     <g id="text_11">
      <!-- 0.4 -->
      <g transform="translate(34.696875 147.132294)scale(0.1 -0.1)">
       <use xlink:href="#DejaVuSans-30"/>
       <use x="63.623047" xlink:href="#DejaVuSans-2e"/>
       <use x="95.410156" xlink:href="#DejaVuSans-34"/>
      </g>
     </g>
    </g>
    <g id="ytick_6">
     <g id="line2d_12">
      <g>
       <use style="stroke:#000000;stroke-width:0.8;" x="57.6" xlink:href="#mcdf32929d6" y="104.304782"/>
      </g>
     </g>
     <g id="text_12">
      <!-- 0.5 -->
      <defs>
       <path d="M 10.796875 72.90625 
L 49.515625 72.90625 
L 49.515625 64.59375 
L 19.828125 64.59375 
L 19.828125 46.734375 
Q 21.96875 47.46875 24.109375 47.828125 
Q 26.265625 48.1875 28.421875 48.1875 
Q 40.625 48.1875 47.75 41.5 
Q 54.890625 34.8125 54.890625 23.390625 
Q 54.890625 11.625 47.5625 5.09375 
Q 40.234375 -1.421875 26.90625 -1.421875 
Q 22.3125 -1.421875 17.546875 -0.640625 
Q 12.796875 0.140625 7.71875 1.703125 
L 7.71875 11.625 
Q 12.109375 9.234375 16.796875 8.0625 
Q 21.484375 6.890625 26.703125 6.890625 
Q 35.15625 6.890625 40.078125 11.328125 
Q 45.015625 15.765625 45.015625 23.390625 
Q 45.015625 31 40.078125 35.4375 
Q 35.15625 39.890625 26.703125 39.890625 
Q 22.75 39.890625 18.8125 39.015625 
Q 14.890625 38.140625 10.796875 36.28125 
z
" id="DejaVuSans-35"/>
      </defs>
      <g transform="translate(34.696875 108.104)scale(0.1 -0.1)">
       <use xlink:href="#DejaVuSans-30"/>
       <use x="63.623047" xlink:href="#DejaVuSans-2e"/>
       <use x="95.410156" xlink:href="#DejaVuSans-35"/>
      </g>
     </g>
    </g>
    <g id="ytick_7">
     <g id="line2d_13">
      <g>
       <use style="stroke:#000000;stroke-width:0.8;" x="57.6" xlink:href="#mcdf32929d6" y="65.276488"/>
      </g>
     </g>
     <g id="text_13">
      <!-- 0.6 -->
      <g transform="translate(34.696875 69.075707)scale(0.1 -0.1)">
       <use xlink:href="#DejaVuSans-30"/>
       <use x="63.623047" xlink:href="#DejaVuSans-2e"/>
       <use x="95.410156" xlink:href="#DejaVuSans-36"/>
      </g>
     </g>
    </g>
   </g>
   <g id="line2d_14">
    <path clip-path="url(#p6310550146)" d="M 73.832727 106.811569 
L 75.48072 102.589488 
L 77.128713 110.242156 
L 78.776705 111.03365 
L 80.424698 128.713857 
L 82.07269 144.283024 
L 83.720683 156.421604 
L 85.368676 153.782901 
L 87.016668 147.977442 
L 88.664661 154.574395 
L 90.312653 159.58836 
L 91.960646 170.143561 
L 93.608639 174.893305 
L 95.256631 191.518187 
L 96.904624 209.462226 
L 100.200609 231.364514 
L 101.848602 237.961466 
L 103.496594 255.114011 
L 105.144587 262.766523 
L 106.79258 265.141472 
L 108.440572 268.044163 
L 110.088565 265.933122 
L 111.736557 265.141472 
L 113.38455 265.141472 
L 115.032543 269.363592 
L 116.680535 276.752312 
L 118.328528 278.863391 
L 119.976521 280.182781 
L 121.624513 284.141031 
L 123.272506 284.141031 
L 124.920498 285.460461 
L 126.568491 282.293861 
L 128.216484 280.710561 
L 129.864476 283.085511 
L 131.512469 282.821641 
L 133.160461 284.404901 
L 134.808454 284.668811 
L 136.456447 286.25211 
L 138.104439 284.141031 
L 139.752432 280.974431 
L 141.400425 276.752312 
L 143.048417 270.946892 
L 144.69641 255.905505 
L 146.344402 237.697635 
L 147.992395 222.392299 
L 149.640388 208.142679 
L 152.936373 167.504859 
L 154.584365 150.352314 
L 156.232358 135.838862 
L 157.880351 124.491776 
L 159.528343 112.089365 
L 161.176336 106.020075 
L 162.824329 100.742279 
L 164.472321 95.992536 
L 167.768306 81.479084 
L 171.064292 71.715376 
L 172.712284 74.354079 
L 174.360277 70.395829 
L 176.008269 71.979207 
L 177.656262 81.479084 
L 179.304255 89.923246 
L 180.952247 99.950785 
L 182.60024 100.478448 
L 184.248233 111.297871 
L 185.896225 127.394701 
L 187.544218 130.033404 
L 189.19221 131.880613 
L 190.840203 139.269449 
L 192.488196 145.866402 
L 194.136188 160.907516 
L 197.432174 176.476683 
L 199.080166 185.97656 
L 200.728159 189.670978 
L 202.376151 199.170855 
L 204.024144 206.29547 
L 205.672137 215.003853 
L 207.320129 220.017428 
L 208.968122 229.253473 
L 210.616114 231.628345 
L 213.9121 230.044967 
L 215.560092 231.892176 
L 217.208085 231.628345 
L 218.856078 226.61438 
L 222.152063 241.655884 
L 223.800055 245.877965 
L 225.448048 248.252837 
L 227.096041 259.599923 
L 228.744033 267.252513 
L 230.392026 269.363592 
L 232.040018 270.683022 
L 233.688011 269.627462 
L 235.336004 271.738542 
L 236.983996 271.474672 
L 238.631989 273.321842 
L 240.279982 277.807832 
L 243.575967 285.196551 
L 245.223959 287.83541 
L 246.871952 291.00201 
L 248.519945 292.05753 
L 250.167937 291.26588 
L 251.81593 289.946451 
L 253.463922 292.05753 
L 255.111915 292.3214 
L 256.759908 289.154801 
L 258.4079 286.25211 
L 260.055893 283.613251 
L 261.703886 278.599482 
L 263.351878 271.474672 
L 264.999871 261.183223 
L 266.647863 254.85018 
L 268.295856 240.072507 
L 269.943849 229.253473 
L 271.591841 221.336974 
L 273.239834 211.045603 
L 274.887826 199.962349 
L 276.535819 190.990525 
L 278.183812 189.670978 
L 279.831804 177.004736 
L 281.479797 166.449143 
L 283.12779 164.074272 
L 284.775782 158.268813 
L 286.423775 150.088483 
L 288.071767 132.144444 
L 289.71976 140.060943 
L 291.367753 142.435815 
L 293.015745 137.158019 
L 294.663738 130.033404 
L 296.311731 137.686071 
L 297.959723 158.268813 
L 299.607716 142.171983 
L 301.255708 134.783147 
L 302.903701 140.852437 
L 304.551694 154.310563 
L 306.199686 142.171983 
L 307.847679 133.727822 
L 309.495671 152.199523 
L 311.143664 166.712974 
L 312.791657 165.921481 
L 314.439649 163.282778 
L 316.087642 162.490894 
L 317.735635 170.407393 
L 319.383627 166.185312 
L 321.03162 159.324528 
L 322.679612 165.921481 
L 324.327605 177.004736 
L 325.975598 192.04585 
L 327.62359 185.185066 
L 329.271583 192.04585 
L 330.919575 206.031639 
L 335.863553 226.350549 
L 337.511546 245.086471 
L 339.159539 258.016545 
L 340.807531 262.502613 
L 342.455524 265.669213 
L 344.103516 269.891372 
L 345.751509 279.655041 
L 347.399502 284.141031 
L 349.047494 285.988201 
L 350.695487 288.89093 
L 352.343479 291.26588 
L 353.991472 291.52975 
L 355.639465 290.47423 
L 357.287457 290.47423 
L 358.93545 289.154801 
L 360.583443 290.21036 
L 362.231435 292.05753 
L 363.879428 292.84918 
L 365.52742 294.69635 
L 367.175413 295.488 
L 368.823406 295.488 
L 370.471398 293.11305 
L 372.119391 289.154801 
L 373.767383 286.25211 
L 375.415376 282.293861 
L 377.063369 276.224532 
L 378.711361 265.405343 
L 382.007347 235.322763 
L 383.655339 207.615016 
L 385.303332 187.823769 
L 386.951324 175.685189 
L 388.599317 168.032521 
L 390.24731 157.213488 
L 391.895302 144.810686 
L 393.543295 152.727185 
L 395.191287 157.74115 
L 396.83928 150.879976 
L 398.487273 140.588606 
L 398.487273 140.588606 
" style="fill:none;stroke:#1f77b4;stroke-linecap:square;stroke-width:1.5;"/>
   </g>
   <g id="line2d_15">
    <path clip-path="url(#p6310550146)" d="M 73.832727 104.753468 
L 75.48072 96.40211 
L 77.128713 104.627462 
L 78.776705 107.194966 
L 80.424698 118.151323 
L 82.07269 140.899801 
L 83.720683 154.306438 
L 85.368676 161.839456 
L 87.016668 149.794488 
L 88.664661 150.25307 
L 90.312653 158.776989 
L 91.960646 166.37315 
L 93.608639 178.33351 
L 95.256631 184.589048 
L 96.904624 205.483263 
L 98.552617 218.779924 
L 100.200609 228.230068 
L 101.848602 234.993532 
L 103.496594 242.472328 
L 105.144587 253.39133 
L 106.79258 257.065286 
L 110.088565 258.678967 
L 111.736557 257.058317 
L 113.38455 257.145015 
L 115.032543 257.974367 
L 118.328528 264.521363 
L 119.976521 265.198225 
L 121.624513 266.722698 
L 123.272506 267.688091 
L 126.568491 268.087016 
L 128.216484 266.252268 
L 129.864476 266.357923 
L 131.512469 266.957843 
L 138.104439 268.612086 
L 139.752432 266.983769 
L 141.400425 265.779328 
L 143.048417 262.752824 
L 144.69641 257.738942 
L 147.992395 231.139209 
L 151.28838 201.179836 
L 152.936373 177.075962 
L 154.584365 155.275315 
L 156.232358 141.824771 
L 157.880351 123.455408 
L 159.528343 114.130712 
L 161.176336 100.755995 
L 162.824329 98.80695 
L 166.120314 87.957223 
L 167.768306 78.060763 
L 169.416299 72.664405 
L 171.064292 68.14688 
L 172.712284 66.06709 
L 174.360277 68.015159 
L 176.008269 61.753209 
L 177.656262 74.637146 
L 179.304255 82.749873 
L 180.952247 93.391913 
L 182.60024 99.553644 
L 184.248233 101.980229 
L 185.896225 121.256442 
L 187.544218 131.139939 
L 189.19221 131.606049 
L 190.840203 134.802327 
L 192.488196 142.671406 
L 194.136188 156.192898 
L 195.784181 168.316898 
L 197.432174 176.072238 
L 199.080166 186.035464 
L 202.376151 198.475872 
L 204.024144 205.684259 
L 205.672137 214.692128 
L 208.968122 225.859378 
L 210.616114 232.200221 
L 212.264107 231.402789 
L 213.9121 232.026266 
L 215.560092 231.681981 
L 217.208085 232.812268 
L 218.856078 228.786082 
L 220.50407 229.538909 
L 222.152063 238.31233 
L 223.800055 242.317609 
L 225.448048 243.63802 
L 227.096041 248.809687 
L 228.744033 256.143103 
L 230.392026 259.194977 
L 232.040018 260.090676 
L 233.688011 260.102942 
L 236.983996 260.985957 
L 238.631989 261.103042 
L 240.279982 262.995496 
L 243.575967 267.218079 
L 245.223959 268.851831 
L 248.519945 271.037973 
L 250.167937 271.087037 
L 251.81593 270.66121 
L 253.463922 270.541338 
L 255.111915 271.266567 
L 256.759908 271.008562 
L 258.4079 269.421365 
L 260.055893 268.395757 
L 261.703886 266.827238 
L 263.351878 263.223254 
L 264.999871 258.918573 
L 268.295856 246.414186 
L 269.943849 233.402432 
L 271.591841 226.385981 
L 273.239834 218.718733 
L 276.535819 196.688237 
L 278.183812 191.603687 
L 279.831804 188.98907 
L 281.479797 168.914449 
L 283.12779 164.934399 
L 284.775782 162.375119 
L 286.423775 155.639254 
L 288.071767 138.277796 
L 289.71976 128.144936 
L 291.367753 146.167923 
L 293.015745 141.0771 
L 294.663738 129.937868 
L 296.311731 128.248361 
L 297.959723 153.801857 
L 299.607716 160.248077 
L 301.255708 131.006546 
L 302.903701 133.307125 
L 304.551694 151.08507 
L 306.199686 154.756796 
L 307.847679 131.956049 
L 309.495671 137.022479 
L 311.143664 168.104612 
L 312.791657 172.340854 
L 314.439649 168.133326 
L 316.087642 160.643657 
L 317.735635 168.67568 
L 319.383627 173.31252 
L 321.03162 161.833323 
L 322.679612 162.391288 
L 324.327605 172.410548 
L 325.975598 193.152831 
L 327.62359 194.73292 
L 329.271583 188.738313 
L 330.919575 201.775436 
L 332.567568 213.813295 
L 334.215561 218.896173 
L 335.863553 224.554299 
L 337.511546 233.483276 
L 339.159539 247.943259 
L 340.807531 254.979781 
L 342.455524 255.912139 
L 344.103516 258.398939 
L 345.751509 261.477574 
L 347.399502 266.871284 
L 350.695487 269.079031 
L 352.343479 270.486698 
L 353.991472 270.812166 
L 355.639465 270.848407 
L 358.93545 270.299502 
L 360.583443 270.088749 
L 362.231435 270.623018 
L 363.879428 271.357587 
L 365.52742 271.777141 
L 367.175413 272.342215 
L 368.823406 272.510036 
L 370.471398 272.462506 
L 372.119391 270.963819 
L 373.767383 269.284487 
L 375.415376 267.828035 
L 377.063369 265.968197 
L 378.711361 262.03317 
L 380.359354 253.026833 
L 382.007347 243.106538 
L 383.655339 224.642392 
L 385.303332 197.20132 
L 386.951324 179.569034 
L 390.24731 164.022252 
L 391.895302 148.085746 
L 393.543295 144.558006 
L 395.191287 159.312095 
L 396.83928 158.105563 
L 398.487273 144.953168 
L 398.487273 144.953168 
" style="fill:none;stroke:#ff7f0e;stroke-linecap:square;stroke-width:1.5;"/>
   </g>
   <g id="line2d_16">
    <path clip-path="url(#p6310550146)" d="M 73.832727 116.01327 
L 75.48072 104.304782 
L 77.128713 112.11044 
L 78.776705 112.11044 
L 80.424698 123.818928 
L 82.07269 151.138734 
L 83.720683 162.847222 
L 85.368676 170.652881 
L 87.016668 158.944393 
L 88.664661 155.041563 
L 90.312653 166.750051 
L 91.960646 174.55571 
L 93.608639 186.264198 
L 95.256631 194.069857 
L 96.904624 217.486833 
L 98.552617 233.09815 
L 100.200609 237.00098 
L 105.144587 260.417956 
L 106.79258 264.320785 
L 108.440572 264.320785 
L 110.088565 268.223615 
L 111.736557 264.320785 
L 115.032543 264.320785 
L 119.976521 276.029273 
L 121.624513 276.029273 
L 123.272506 279.932103 
L 126.568491 279.932103 
L 128.216484 276.029273 
L 131.512469 276.029273 
L 133.160461 279.932103 
L 139.752432 279.932103 
L 144.69641 268.223615 
L 146.344402 252.612297 
L 149.640388 229.195321 
L 151.28838 213.584004 
L 152.936373 194.069857 
L 154.584365 170.652881 
L 156.232358 155.041563 
L 157.880351 135.527417 
L 159.528343 123.818928 
L 161.176336 108.207611 
L 164.472321 100.401952 
L 167.768306 84.790635 
L 172.712284 73.082147 
L 174.360277 76.984976 
L 176.008269 69.179317 
L 177.656262 84.790635 
L 179.304255 92.596294 
L 180.952247 104.304782 
L 182.60024 108.207611 
L 184.248233 108.207611 
L 185.896225 127.721758 
L 187.544218 139.430246 
L 189.19221 135.527417 
L 190.840203 139.430246 
L 192.488196 147.235905 
L 195.784181 178.458539 
L 200.728159 201.875516 
L 202.376151 205.778345 
L 204.024144 217.486833 
L 205.672137 225.292492 
L 207.320129 229.195321 
L 208.968122 237.00098 
L 210.616114 240.903809 
L 217.208085 240.903809 
L 218.856078 237.00098 
L 220.50407 237.00098 
L 222.152063 248.709468 
L 223.800055 248.709468 
L 227.096041 256.515127 
L 228.744033 264.320785 
L 230.392026 268.223615 
L 236.983996 268.223615 
L 238.631989 272.126444 
L 240.279982 272.126444 
L 241.927974 276.029273 
L 243.575967 276.029273 
L 245.223959 279.932103 
L 246.871952 279.932103 
L 248.519945 283.834932 
L 256.759908 283.834932 
L 258.4079 279.932103 
L 261.703886 279.932103 
L 263.351878 272.126444 
L 264.999871 268.223615 
L 268.295856 252.612297 
L 269.943849 240.903809 
L 271.591841 237.00098 
L 273.239834 229.195321 
L 276.535819 205.778345 
L 279.831804 197.972686 
L 281.479797 182.361369 
L 283.12779 174.55571 
L 284.775782 170.652881 
L 286.423775 162.847222 
L 288.071767 147.235905 
L 289.71976 139.430246 
L 291.367753 151.138734 
L 293.015745 147.235905 
L 294.663738 139.430246 
L 296.311731 135.527417 
L 297.959723 162.847222 
L 299.607716 170.652881 
L 301.255708 143.333075 
L 302.903701 139.430246 
L 304.551694 158.944393 
L 306.199686 162.847222 
L 307.847679 143.333075 
L 309.495671 143.333075 
L 311.143664 178.458539 
L 312.791657 182.361369 
L 316.087642 166.750051 
L 319.383627 182.361369 
L 321.03162 170.652881 
L 322.679612 170.652881 
L 324.327605 178.458539 
L 325.975598 205.778345 
L 327.62359 205.778345 
L 329.271583 197.972686 
L 330.919575 209.681174 
L 332.567568 225.292492 
L 335.863553 233.09815 
L 339.159539 256.515127 
L 340.807531 264.320785 
L 342.455524 264.320785 
L 344.103516 268.223615 
L 345.751509 268.223615 
L 347.399502 276.029273 
L 349.047494 279.932103 
L 352.343479 279.932103 
L 353.991472 283.834932 
L 358.93545 283.834932 
L 360.583443 279.932103 
L 362.231435 283.834932 
L 372.119391 283.834932 
L 373.767383 279.932103 
L 375.415376 279.932103 
L 378.711361 272.126444 
L 380.359354 260.417956 
L 382.007347 252.612297 
L 383.655339 237.00098 
L 385.303332 213.584004 
L 386.951324 194.069857 
L 388.599317 182.361369 
L 390.24731 174.55571 
L 391.895302 158.944393 
L 393.543295 151.138734 
L 395.191287 166.750051 
L 396.83928 166.750051 
L 398.487273 155.041563 
L 398.487273 155.041563 
" style="fill:none;stroke:#2ca02c;stroke-linecap:square;stroke-width:1.5;"/>
   </g>
   <g id="line2d_17">
    <path clip-path="url(#p6310550146)" d="M 73.832727 96.499123 
L 75.48072 84.790635 
L 77.128713 96.499123 
L 78.776705 100.401952 
L 80.424698 108.207611 
L 82.07269 127.721758 
L 83.720683 143.333075 
L 85.368676 155.041563 
L 87.016668 143.333075 
L 88.664661 147.235905 
L 91.960646 162.847222 
L 93.608639 174.55571 
L 95.256631 182.361369 
L 98.552617 213.584004 
L 100.200609 225.292492 
L 105.144587 248.709468 
L 106.79258 252.612297 
L 115.032543 252.612297 
L 118.328528 260.417956 
L 141.400425 260.417956 
L 144.69641 252.612297 
L 146.344402 237.00098 
L 149.640388 213.584004 
L 151.28838 197.972686 
L 152.936373 166.750051 
L 154.584365 147.235905 
L 156.232358 135.527417 
L 157.880351 116.01327 
L 161.176336 92.596294 
L 166.120314 80.887806 
L 167.768306 69.179317 
L 169.416299 61.373659 
L 171.064292 57.470829 
L 174.360277 57.470829 
L 176.008269 53.568 
L 179.304255 69.179317 
L 180.952247 80.887806 
L 182.60024 88.693464 
L 184.248233 92.596294 
L 187.544218 123.818928 
L 189.19221 123.818928 
L 190.840203 127.721758 
L 192.488196 135.527417 
L 194.136188 147.235905 
L 195.784181 162.847222 
L 197.432174 170.652881 
L 199.080166 182.361369 
L 200.728159 190.167028 
L 202.376151 194.069857 
L 207.320129 217.486833 
L 208.968122 221.389662 
L 210.616114 229.195321 
L 217.208085 229.195321 
L 218.856078 225.292492 
L 220.50407 229.195321 
L 222.152063 237.00098 
L 223.800055 240.903809 
L 225.448048 240.903809 
L 227.096041 244.806639 
L 228.744033 252.612297 
L 230.392026 252.612297 
L 232.040018 256.515127 
L 240.279982 256.515127 
L 241.927974 260.417956 
L 243.575967 260.417956 
L 245.223959 264.320785 
L 258.4079 264.320785 
L 260.055893 260.417956 
L 261.703886 260.417956 
L 266.647863 248.709468 
L 268.295856 240.903809 
L 269.943849 229.195321 
L 271.591841 225.292492 
L 273.239834 217.486833 
L 274.887826 205.778345 
L 276.535819 190.167028 
L 278.183812 186.264198 
L 279.831804 186.264198 
L 281.479797 162.847222 
L 283.12779 158.944393 
L 284.775782 158.944393 
L 286.423775 151.138734 
L 288.071767 131.624587 
L 289.71976 119.916099 
L 291.367753 139.430246 
L 293.015745 135.527417 
L 294.663738 123.818928 
L 296.311731 123.818928 
L 297.959723 143.333075 
L 299.607716 155.041563 
L 301.255708 123.818928 
L 302.903701 127.721758 
L 304.551694 143.333075 
L 306.199686 147.235905 
L 307.847679 123.818928 
L 309.495671 131.624587 
L 311.143664 155.041563 
L 312.791657 166.750051 
L 314.439649 162.847222 
L 316.087642 155.041563 
L 319.383627 170.652881 
L 321.03162 158.944393 
L 322.679612 158.944393 
L 324.327605 166.750051 
L 325.975598 186.264198 
L 327.62359 190.167028 
L 329.271583 186.264198 
L 332.567568 209.681174 
L 334.215561 217.486833 
L 335.863553 221.389662 
L 337.511546 229.195321 
L 339.159539 244.806639 
L 342.455524 252.612297 
L 344.103516 252.612297 
L 347.399502 260.417956 
L 349.047494 260.417956 
L 350.695487 264.320785 
L 373.767383 264.320785 
L 375.415376 260.417956 
L 377.063369 260.417956 
L 378.711361 256.515127 
L 380.359354 248.709468 
L 382.007347 237.00098 
L 383.655339 221.389662 
L 385.303332 186.264198 
L 386.951324 170.652881 
L 388.599317 166.750051 
L 390.24731 158.944393 
L 391.895302 143.333075 
L 393.543295 139.430246 
L 395.191287 155.041563 
L 396.83928 155.041563 
L 398.487273 139.430246 
L 398.487273 139.430246 
" style="fill:none;stroke:#d62728;stroke-linecap:square;stroke-width:1.5;"/>
   </g>
   <g id="patch_3">
    <path d="M 57.6 307.584 
L 57.6 41.472 
" style="fill:none;stroke:#000000;stroke-linecap:square;stroke-linejoin:miter;stroke-width:0.8;"/>
   </g>
   <g id="patch_4">
    <path d="M 414.72 307.584 
L 414.72 41.472 
" style="fill:none;stroke:#000000;stroke-linecap:square;stroke-linejoin:miter;stroke-width:0.8;"/>
   </g>
   <g id="patch_5">
    <path d="M 57.6 307.584 
L 414.72 307.584 
" style="fill:none;stroke:#000000;stroke-linecap:square;stroke-linejoin:miter;stroke-width:0.8;"/>
   </g>
   <g id="patch_6">
    <path d="M 57.6 41.472 
L 414.72 41.472 
" style="fill:none;stroke:#000000;stroke-linecap:square;stroke-linejoin:miter;stroke-width:0.8;"/>
   </g>
   <g id="text_14">
    <!-- Plot of Test Data vs MCMC Uncertainty  -->
    <defs>
     <path d="M 19.671875 64.796875 
L 19.671875 37.40625 
L 32.078125 37.40625 
Q 38.96875 37.40625 42.71875 40.96875 
Q 46.484375 44.53125 46.484375 51.125 
Q 46.484375 57.671875 42.71875 61.234375 
Q 38.96875 64.796875 32.078125 64.796875 
z
M 9.8125 72.90625 
L 32.078125 72.90625 
Q 44.34375 72.90625 50.609375 67.359375 
Q 56.890625 61.8125 56.890625 51.125 
Q 56.890625 40.328125 50.609375 34.8125 
Q 44.34375 29.296875 32.078125 29.296875 
L 19.671875 29.296875 
L 19.671875 0 
L 9.8125 0 
z
" id="DejaVuSans-50"/>
     <path d="M 9.421875 75.984375 
L 18.40625 75.984375 
L 18.40625 0 
L 9.421875 0 
z
" id="DejaVuSans-6c"/>
     <path d="M 30.609375 48.390625 
Q 23.390625 48.390625 19.1875 42.75 
Q 14.984375 37.109375 14.984375 27.296875 
Q 14.984375 17.484375 19.15625 11.84375 
Q 23.34375 6.203125 30.609375 6.203125 
Q 37.796875 6.203125 41.984375 11.859375 
Q 46.1875 17.53125 46.1875 27.296875 
Q 46.1875 37.015625 41.984375 42.703125 
Q 37.796875 48.390625 30.609375 48.390625 
z
M 30.609375 56 
Q 42.328125 56 49.015625 48.375 
Q 55.71875 40.765625 55.71875 27.296875 
Q 55.71875 13.875 49.015625 6.21875 
Q 42.328125 -1.421875 30.609375 -1.421875 
Q 18.84375 -1.421875 12.171875 6.21875 
Q 5.515625 13.875 5.515625 27.296875 
Q 5.515625 40.765625 12.171875 48.375 
Q 18.84375 56 30.609375 56 
z
" id="DejaVuSans-6f"/>
     <path d="M 18.3125 70.21875 
L 18.3125 54.6875 
L 36.8125 54.6875 
L 36.8125 47.703125 
L 18.3125 47.703125 
L 18.3125 18.015625 
Q 18.3125 11.328125 20.140625 9.421875 
Q 21.96875 7.515625 27.59375 7.515625 
L 36.8125 7.515625 
L 36.8125 0 
L 27.59375 0 
Q 17.1875 0 13.234375 3.875 
Q 9.28125 7.765625 9.28125 18.015625 
L 9.28125 47.703125 
L 2.6875 47.703125 
L 2.6875 54.6875 
L 9.28125 54.6875 
L 9.28125 70.21875 
z
" id="DejaVuSans-74"/>
     <path id="DejaVuSans-20"/>
     <path d="M 37.109375 75.984375 
L 37.109375 68.5 
L 28.515625 68.5 
Q 23.6875 68.5 21.796875 66.546875 
Q 19.921875 64.59375 19.921875 59.515625 
L 19.921875 54.6875 
L 34.71875 54.6875 
L 34.71875 47.703125 
L 19.921875 47.703125 
L 19.921875 0 
L 10.890625 0 
L 10.890625 47.703125 
L 2.296875 47.703125 
L 2.296875 54.6875 
L 10.890625 54.6875 
L 10.890625 58.5 
Q 10.890625 67.625 15.140625 71.796875 
Q 19.390625 75.984375 28.609375 75.984375 
z
" id="DejaVuSans-66"/>
     <path d="M -0.296875 72.90625 
L 61.375 72.90625 
L 61.375 64.59375 
L 35.5 64.59375 
L 35.5 0 
L 25.59375 0 
L 25.59375 64.59375 
L -0.296875 64.59375 
z
" id="DejaVuSans-54"/>
     <path d="M 56.203125 29.59375 
L 56.203125 25.203125 
L 14.890625 25.203125 
Q 15.484375 15.921875 20.484375 11.0625 
Q 25.484375 6.203125 34.421875 6.203125 
Q 39.59375 6.203125 44.453125 7.46875 
Q 49.3125 8.734375 54.109375 11.28125 
L 54.109375 2.78125 
Q 49.265625 0.734375 44.1875 -0.34375 
Q 39.109375 -1.421875 33.890625 -1.421875 
Q 20.796875 -1.421875 13.15625 6.1875 
Q 5.515625 13.8125 5.515625 26.8125 
Q 5.515625 40.234375 12.765625 48.109375 
Q 20.015625 56 32.328125 56 
Q 43.359375 56 49.78125 48.890625 
Q 56.203125 41.796875 56.203125 29.59375 
z
M 47.21875 32.234375 
Q 47.125 39.59375 43.09375 43.984375 
Q 39.0625 48.390625 32.421875 48.390625 
Q 24.90625 48.390625 20.390625 44.140625 
Q 15.875 39.890625 15.1875 32.171875 
z
" id="DejaVuSans-65"/>
     <path d="M 44.28125 53.078125 
L 44.28125 44.578125 
Q 40.484375 46.53125 36.375 47.5 
Q 32.28125 48.484375 27.875 48.484375 
Q 21.1875 48.484375 17.84375 46.4375 
Q 14.5 44.390625 14.5 40.28125 
Q 14.5 37.15625 16.890625 35.375 
Q 19.28125 33.59375 26.515625 31.984375 
L 29.59375 31.296875 
Q 39.15625 29.25 43.1875 25.515625 
Q 47.21875 21.78125 47.21875 15.09375 
Q 47.21875 7.46875 41.1875 3.015625 
Q 35.15625 -1.421875 24.609375 -1.421875 
Q 20.21875 -1.421875 15.453125 -0.5625 
Q 10.6875 0.296875 5.421875 2 
L 5.421875 11.28125 
Q 10.40625 8.6875 15.234375 7.390625 
Q 20.0625 6.109375 24.8125 6.109375 
Q 31.15625 6.109375 34.5625 8.28125 
Q 37.984375 10.453125 37.984375 14.40625 
Q 37.984375 18.0625 35.515625 20.015625 
Q 33.0625 21.96875 24.703125 23.78125 
L 21.578125 24.515625 
Q 13.234375 26.265625 9.515625 29.90625 
Q 5.8125 33.546875 5.8125 39.890625 
Q 5.8125 47.609375 11.28125 51.796875 
Q 16.75 56 26.8125 56 
Q 31.78125 56 36.171875 55.265625 
Q 40.578125 54.546875 44.28125 53.078125 
z
" id="DejaVuSans-73"/>
     <path d="M 19.671875 64.796875 
L 19.671875 8.109375 
L 31.59375 8.109375 
Q 46.6875 8.109375 53.6875 14.9375 
Q 60.6875 21.78125 60.6875 36.53125 
Q 60.6875 51.171875 53.6875 57.984375 
Q 46.6875 64.796875 31.59375 64.796875 
z
M 9.8125 72.90625 
L 30.078125 72.90625 
Q 51.265625 72.90625 61.171875 64.09375 
Q 71.09375 55.28125 71.09375 36.53125 
Q 71.09375 17.671875 61.125 8.828125 
Q 51.171875 0 30.078125 0 
L 9.8125 0 
z
" id="DejaVuSans-44"/>
     <path d="M 34.28125 27.484375 
Q 23.390625 27.484375 19.1875 25 
Q 14.984375 22.515625 14.984375 16.5 
Q 14.984375 11.71875 18.140625 8.90625 
Q 21.296875 6.109375 26.703125 6.109375 
Q 34.1875 6.109375 38.703125 11.40625 
Q 43.21875 16.703125 43.21875 25.484375 
L 43.21875 27.484375 
z
M 52.203125 31.203125 
L 52.203125 0 
L 43.21875 0 
L 43.21875 8.296875 
Q 40.140625 3.328125 35.546875 0.953125 
Q 30.953125 -1.421875 24.3125 -1.421875 
Q 15.921875 -1.421875 10.953125 3.296875 
Q 6 8.015625 6 15.921875 
Q 6 25.140625 12.171875 29.828125 
Q 18.359375 34.515625 30.609375 34.515625 
L 43.21875 34.515625 
L 43.21875 35.40625 
Q 43.21875 41.609375 39.140625 45 
Q 35.0625 48.390625 27.6875 48.390625 
Q 23 48.390625 18.546875 47.265625 
Q 14.109375 46.140625 10.015625 43.890625 
L 10.015625 52.203125 
Q 14.9375 54.109375 19.578125 55.046875 
Q 24.21875 56 28.609375 56 
Q 40.484375 56 46.34375 49.84375 
Q 52.203125 43.703125 52.203125 31.203125 
z
" id="DejaVuSans-61"/>
     <path d="M 2.984375 54.6875 
L 12.5 54.6875 
L 29.59375 8.796875 
L 46.6875 54.6875 
L 56.203125 54.6875 
L 35.6875 0 
L 23.484375 0 
z
" id="DejaVuSans-76"/>
     <path d="M 9.8125 72.90625 
L 24.515625 72.90625 
L 43.109375 23.296875 
L 61.8125 72.90625 
L 76.515625 72.90625 
L 76.515625 0 
L 66.890625 0 
L 66.890625 64.015625 
L 48.09375 14.015625 
L 38.1875 14.015625 
L 19.390625 64.015625 
L 19.390625 0 
L 9.8125 0 
z
" id="DejaVuSans-4d"/>
     <path d="M 64.40625 67.28125 
L 64.40625 56.890625 
Q 59.421875 61.53125 53.78125 63.8125 
Q 48.140625 66.109375 41.796875 66.109375 
Q 29.296875 66.109375 22.65625 58.46875 
Q 16.015625 50.828125 16.015625 36.375 
Q 16.015625 21.96875 22.65625 14.328125 
Q 29.296875 6.6875 41.796875 6.6875 
Q 48.140625 6.6875 53.78125 8.984375 
Q 59.421875 11.28125 64.40625 15.921875 
L 64.40625 5.609375 
Q 59.234375 2.09375 53.4375 0.328125 
Q 47.65625 -1.421875 41.21875 -1.421875 
Q 24.65625 -1.421875 15.125 8.703125 
Q 5.609375 18.84375 5.609375 36.375 
Q 5.609375 53.953125 15.125 64.078125 
Q 24.65625 74.21875 41.21875 74.21875 
Q 47.75 74.21875 53.53125 72.484375 
Q 59.328125 70.75 64.40625 67.28125 
z
" id="DejaVuSans-43"/>
     <path d="M 8.6875 72.90625 
L 18.609375 72.90625 
L 18.609375 28.609375 
Q 18.609375 16.890625 22.84375 11.734375 
Q 27.09375 6.59375 36.625 6.59375 
Q 46.09375 6.59375 50.34375 11.734375 
Q 54.59375 16.890625 54.59375 28.609375 
L 54.59375 72.90625 
L 64.5 72.90625 
L 64.5 27.390625 
Q 64.5 13.140625 57.4375 5.859375 
Q 50.390625 -1.421875 36.625 -1.421875 
Q 22.796875 -1.421875 15.734375 5.859375 
Q 8.6875 13.140625 8.6875 27.390625 
z
" id="DejaVuSans-55"/>
     <path d="M 54.890625 33.015625 
L 54.890625 0 
L 45.90625 0 
L 45.90625 32.71875 
Q 45.90625 40.484375 42.875 44.328125 
Q 39.84375 48.1875 33.796875 48.1875 
Q 26.515625 48.1875 22.3125 43.546875 
Q 18.109375 38.921875 18.109375 30.90625 
L 18.109375 0 
L 9.078125 0 
L 9.078125 54.6875 
L 18.109375 54.6875 
L 18.109375 46.1875 
Q 21.34375 51.125 25.703125 53.5625 
Q 30.078125 56 35.796875 56 
Q 45.21875 56 50.046875 50.171875 
Q 54.890625 44.34375 54.890625 33.015625 
z
" id="DejaVuSans-6e"/>
     <path d="M 48.78125 52.59375 
L 48.78125 44.1875 
Q 44.96875 46.296875 41.140625 47.34375 
Q 37.3125 48.390625 33.40625 48.390625 
Q 24.65625 48.390625 19.8125 42.84375 
Q 14.984375 37.3125 14.984375 27.296875 
Q 14.984375 17.28125 19.8125 11.734375 
Q 24.65625 6.203125 33.40625 6.203125 
Q 37.3125 6.203125 41.140625 7.25 
Q 44.96875 8.296875 48.78125 10.40625 
L 48.78125 2.09375 
Q 45.015625 0.34375 40.984375 -0.53125 
Q 36.96875 -1.421875 32.421875 -1.421875 
Q 20.0625 -1.421875 12.78125 6.34375 
Q 5.515625 14.109375 5.515625 27.296875 
Q 5.515625 40.671875 12.859375 48.328125 
Q 20.21875 56 33.015625 56 
Q 37.15625 56 41.109375 55.140625 
Q 45.0625 54.296875 48.78125 52.59375 
z
" id="DejaVuSans-63"/>
     <path d="M 41.109375 46.296875 
Q 39.59375 47.171875 37.8125 47.578125 
Q 36.03125 48 33.890625 48 
Q 26.265625 48 22.1875 43.046875 
Q 18.109375 38.09375 18.109375 28.8125 
L 18.109375 0 
L 9.078125 0 
L 9.078125 54.6875 
L 18.109375 54.6875 
L 18.109375 46.1875 
Q 20.953125 51.171875 25.484375 53.578125 
Q 30.03125 56 36.53125 56 
Q 37.453125 56 38.578125 55.875 
Q 39.703125 55.765625 41.0625 55.515625 
z
" id="DejaVuSans-72"/>
     <path d="M 9.421875 54.6875 
L 18.40625 54.6875 
L 18.40625 0 
L 9.421875 0 
z
M 9.421875 75.984375 
L 18.40625 75.984375 
L 18.40625 64.59375 
L 9.421875 64.59375 
z
" id="DejaVuSans-69"/>
     <path d="M 32.171875 -5.078125 
Q 28.375 -14.84375 24.75 -17.8125 
Q 21.140625 -20.796875 15.09375 -20.796875 
L 7.90625 -20.796875 
L 7.90625 -13.28125 
L 13.1875 -13.28125 
Q 16.890625 -13.28125 18.9375 -11.515625 
Q 21 -9.765625 23.484375 -3.21875 
L 25.09375 0.875 
L 2.984375 54.6875 
L 12.5 54.6875 
L 29.59375 11.921875 
L 46.6875 54.6875 
L 56.203125 54.6875 
z
" id="DejaVuSans-79"/>
    </defs>
    <g transform="translate(118.112813 35.472)scale(0.12 -0.12)">
     <use xlink:href="#DejaVuSans-50"/>
     <use x="60.302734" xlink:href="#DejaVuSans-6c"/>
     <use x="88.085938" xlink:href="#DejaVuSans-6f"/>
     <use x="149.267578" xlink:href="#DejaVuSans-74"/>
     <use x="188.476562" xlink:href="#DejaVuSans-20"/>
     <use x="220.263672" xlink:href="#DejaVuSans-6f"/>
     <use x="281.445312" xlink:href="#DejaVuSans-66"/>
     <use x="316.650391" xlink:href="#DejaVuSans-20"/>
     <use x="348.4375" xlink:href="#DejaVuSans-54"/>
     <use x="409.255859" xlink:href="#DejaVuSans-65"/>
     <use x="470.779297" xlink:href="#DejaVuSans-73"/>
     <use x="522.878906" xlink:href="#DejaVuSans-74"/>
     <use x="562.087891" xlink:href="#DejaVuSans-20"/>
     <use x="593.875" xlink:href="#DejaVuSans-44"/>
     <use x="670.876953" xlink:href="#DejaVuSans-61"/>
     <use x="732.15625" xlink:href="#DejaVuSans-74"/>
     <use x="771.365234" xlink:href="#DejaVuSans-61"/>
     <use x="832.644531" xlink:href="#DejaVuSans-20"/>
     <use x="864.431641" xlink:href="#DejaVuSans-76"/>
     <use x="923.611328" xlink:href="#DejaVuSans-73"/>
     <use x="975.710938" xlink:href="#DejaVuSans-20"/>
     <use x="1007.498047" xlink:href="#DejaVuSans-4d"/>
     <use x="1093.777344" xlink:href="#DejaVuSans-43"/>
     <use x="1163.601562" xlink:href="#DejaVuSans-4d"/>
     <use x="1249.880859" xlink:href="#DejaVuSans-43"/>
     <use x="1319.705078" xlink:href="#DejaVuSans-20"/>
     <use x="1351.492188" xlink:href="#DejaVuSans-55"/>
     <use x="1424.685547" xlink:href="#DejaVuSans-6e"/>
     <use x="1488.064453" xlink:href="#DejaVuSans-63"/>
     <use x="1543.044922" xlink:href="#DejaVuSans-65"/>
     <use x="1604.568359" xlink:href="#DejaVuSans-72"/>
     <use x="1645.681641" xlink:href="#DejaVuSans-74"/>
     <use x="1684.890625" xlink:href="#DejaVuSans-61"/>
     <use x="1746.169922" xlink:href="#DejaVuSans-69"/>
     <use x="1773.953125" xlink:href="#DejaVuSans-6e"/>
     <use x="1837.332031" xlink:href="#DejaVuSans-74"/>
     <use x="1876.541016" xlink:href="#DejaVuSans-79"/>
     <use x="1935.720703" xlink:href="#DejaVuSans-20"/>
    </g>
   </g>
   <g id="legend_1">
    <g id="patch_7">
     <path d="M 277.843437 108.1845 
L 407.72 108.1845 
Q 409.72 108.1845 409.72 106.1845 
L 409.72 48.472 
Q 409.72 46.472 407.72 46.472 
L 277.843437 46.472 
Q 275.843437 46.472 275.843437 48.472 
L 275.843437 106.1845 
Q 275.843437 108.1845 277.843437 108.1845 
z
" style="fill:#ffffff;opacity:0.8;stroke:#cccccc;stroke-linejoin:miter;"/>
    </g>
    <g id="line2d_18">
     <path d="M 279.843437 54.570438 
L 299.843437 54.570438 
" style="fill:none;stroke:#1f77b4;stroke-linecap:square;stroke-width:1.5;"/>
    </g>
    <g id="line2d_19"/>
    <g id="text_15">
     <!-- actual -->
     <defs>
      <path d="M 8.5 21.578125 
L 8.5 54.6875 
L 17.484375 54.6875 
L 17.484375 21.921875 
Q 17.484375 14.15625 20.5 10.265625 
Q 23.53125 6.390625 29.59375 6.390625 
Q 36.859375 6.390625 41.078125 11.03125 
Q 45.3125 15.671875 45.3125 23.6875 
L 45.3125 54.6875 
L 54.296875 54.6875 
L 54.296875 0 
L 45.3125 0 
L 45.3125 8.40625 
Q 42.046875 3.421875 37.71875 1 
Q 33.40625 -1.421875 27.6875 -1.421875 
Q 18.265625 -1.421875 13.375 4.4375 
Q 8.5 10.296875 8.5 21.578125 
z
M 31.109375 56 
z
" id="DejaVuSans-75"/>
     </defs>
     <g transform="translate(307.843437 58.070438)scale(0.1 -0.1)">
      <use xlink:href="#DejaVuSans-61"/>
      <use x="61.279297" xlink:href="#DejaVuSans-63"/>
      <use x="116.259766" xlink:href="#DejaVuSans-74"/>
      <use x="155.46875" xlink:href="#DejaVuSans-75"/>
      <use x="218.847656" xlink:href="#DejaVuSans-61"/>
      <use x="280.126953" xlink:href="#DejaVuSans-6c"/>
     </g>
    </g>
    <g id="line2d_20">
     <path d="M 279.843437 69.248563 
L 299.843437 69.248563 
" style="fill:none;stroke:#ff7f0e;stroke-linecap:square;stroke-width:1.5;"/>
    </g>
    <g id="line2d_21"/>
    <g id="text_16">
     <!-- pred. (mean) -->
     <defs>
      <path d="M 18.109375 8.203125 
L 18.109375 -20.796875 
L 9.078125 -20.796875 
L 9.078125 54.6875 
L 18.109375 54.6875 
L 18.109375 46.390625 
Q 20.953125 51.265625 25.265625 53.625 
Q 29.59375 56 35.59375 56 
Q 45.5625 56 51.78125 48.09375 
Q 58.015625 40.1875 58.015625 27.296875 
Q 58.015625 14.40625 51.78125 6.484375 
Q 45.5625 -1.421875 35.59375 -1.421875 
Q 29.59375 -1.421875 25.265625 0.953125 
Q 20.953125 3.328125 18.109375 8.203125 
z
M 48.6875 27.296875 
Q 48.6875 37.203125 44.609375 42.84375 
Q 40.53125 48.484375 33.40625 48.484375 
Q 26.265625 48.484375 22.1875 42.84375 
Q 18.109375 37.203125 18.109375 27.296875 
Q 18.109375 17.390625 22.1875 11.75 
Q 26.265625 6.109375 33.40625 6.109375 
Q 40.53125 6.109375 44.609375 11.75 
Q 48.6875 17.390625 48.6875 27.296875 
z
" id="DejaVuSans-70"/>
      <path d="M 45.40625 46.390625 
L 45.40625 75.984375 
L 54.390625 75.984375 
L 54.390625 0 
L 45.40625 0 
L 45.40625 8.203125 
Q 42.578125 3.328125 38.25 0.953125 
Q 33.9375 -1.421875 27.875 -1.421875 
Q 17.96875 -1.421875 11.734375 6.484375 
Q 5.515625 14.40625 5.515625 27.296875 
Q 5.515625 40.1875 11.734375 48.09375 
Q 17.96875 56 27.875 56 
Q 33.9375 56 38.25 53.625 
Q 42.578125 51.265625 45.40625 46.390625 
z
M 14.796875 27.296875 
Q 14.796875 17.390625 18.875 11.75 
Q 22.953125 6.109375 30.078125 6.109375 
Q 37.203125 6.109375 41.296875 11.75 
Q 45.40625 17.390625 45.40625 27.296875 
Q 45.40625 37.203125 41.296875 42.84375 
Q 37.203125 48.484375 30.078125 48.484375 
Q 22.953125 48.484375 18.875 42.84375 
Q 14.796875 37.203125 14.796875 27.296875 
z
" id="DejaVuSans-64"/>
      <path d="M 31 75.875 
Q 24.46875 64.65625 21.28125 53.65625 
Q 18.109375 42.671875 18.109375 31.390625 
Q 18.109375 20.125 21.3125 9.0625 
Q 24.515625 -2 31 -13.1875 
L 23.1875 -13.1875 
Q 15.875 -1.703125 12.234375 9.375 
Q 8.59375 20.453125 8.59375 31.390625 
Q 8.59375 42.28125 12.203125 53.3125 
Q 15.828125 64.359375 23.1875 75.875 
z
" id="DejaVuSans-28"/>
      <path d="M 52 44.1875 
Q 55.375 50.25 60.0625 53.125 
Q 64.75 56 71.09375 56 
Q 79.640625 56 84.28125 50.015625 
Q 88.921875 44.046875 88.921875 33.015625 
L 88.921875 0 
L 79.890625 0 
L 79.890625 32.71875 
Q 79.890625 40.578125 77.09375 44.375 
Q 74.3125 48.1875 68.609375 48.1875 
Q 61.625 48.1875 57.5625 43.546875 
Q 53.515625 38.921875 53.515625 30.90625 
L 53.515625 0 
L 44.484375 0 
L 44.484375 32.71875 
Q 44.484375 40.625 41.703125 44.40625 
Q 38.921875 48.1875 33.109375 48.1875 
Q 26.21875 48.1875 22.15625 43.53125 
Q 18.109375 38.875 18.109375 30.90625 
L 18.109375 0 
L 9.078125 0 
L 9.078125 54.6875 
L 18.109375 54.6875 
L 18.109375 46.1875 
Q 21.1875 51.21875 25.484375 53.609375 
Q 29.78125 56 35.6875 56 
Q 41.65625 56 45.828125 52.96875 
Q 50 49.953125 52 44.1875 
z
" id="DejaVuSans-6d"/>
      <path d="M 8.015625 75.875 
L 15.828125 75.875 
Q 23.140625 64.359375 26.78125 53.3125 
Q 30.421875 42.28125 30.421875 31.390625 
Q 30.421875 20.453125 26.78125 9.375 
Q 23.140625 -1.703125 15.828125 -13.1875 
L 8.015625 -13.1875 
Q 14.5 -2 17.703125 9.0625 
Q 20.90625 20.125 20.90625 31.390625 
Q 20.90625 42.671875 17.703125 53.65625 
Q 14.5 64.65625 8.015625 75.875 
z
" id="DejaVuSans-29"/>
     </defs>
     <g transform="translate(307.843437 72.748563)scale(0.1 -0.1)">
      <use xlink:href="#DejaVuSans-70"/>
      <use x="63.476562" xlink:href="#DejaVuSans-72"/>
      <use x="104.558594" xlink:href="#DejaVuSans-65"/>
      <use x="166.082031" xlink:href="#DejaVuSans-64"/>
      <use x="229.558594" xlink:href="#DejaVuSans-2e"/>
      <use x="261.345703" xlink:href="#DejaVuSans-20"/>
      <use x="293.132812" xlink:href="#DejaVuSans-28"/>
      <use x="332.146484" xlink:href="#DejaVuSans-6d"/>
      <use x="429.558594" xlink:href="#DejaVuSans-65"/>
      <use x="491.082031" xlink:href="#DejaVuSans-61"/>
      <use x="552.361328" xlink:href="#DejaVuSans-6e"/>
      <use x="615.740234" xlink:href="#DejaVuSans-29"/>
     </g>
    </g>
    <g id="line2d_22">
     <path d="M 279.843437 83.926688 
L 299.843437 83.926688 
" style="fill:none;stroke:#2ca02c;stroke-linecap:square;stroke-width:1.5;"/>
    </g>
    <g id="line2d_23"/>
    <g id="text_17">
     <!-- pred.(5th percen.) -->
     <defs>
      <path d="M 54.890625 33.015625 
L 54.890625 0 
L 45.90625 0 
L 45.90625 32.71875 
Q 45.90625 40.484375 42.875 44.328125 
Q 39.84375 48.1875 33.796875 48.1875 
Q 26.515625 48.1875 22.3125 43.546875 
Q 18.109375 38.921875 18.109375 30.90625 
L 18.109375 0 
L 9.078125 0 
L 9.078125 75.984375 
L 18.109375 75.984375 
L 18.109375 46.1875 
Q 21.34375 51.125 25.703125 53.5625 
Q 30.078125 56 35.796875 56 
Q 45.21875 56 50.046875 50.171875 
Q 54.890625 44.34375 54.890625 33.015625 
z
" id="DejaVuSans-68"/>
     </defs>
     <g transform="translate(307.843437 87.426688)scale(0.1 -0.1)">
      <use xlink:href="#DejaVuSans-70"/>
      <use x="63.476562" xlink:href="#DejaVuSans-72"/>
      <use x="104.558594" xlink:href="#DejaVuSans-65"/>
      <use x="166.082031" xlink:href="#DejaVuSans-64"/>
      <use x="229.558594" xlink:href="#DejaVuSans-2e"/>
      <use x="261.345703" xlink:href="#DejaVuSans-28"/>
      <use x="300.359375" xlink:href="#DejaVuSans-35"/>
      <use x="363.982422" xlink:href="#DejaVuSans-74"/>
      <use x="403.191406" xlink:href="#DejaVuSans-68"/>
      <use x="466.570312" xlink:href="#DejaVuSans-20"/>
      <use x="498.357422" xlink:href="#DejaVuSans-70"/>
      <use x="561.833984" xlink:href="#DejaVuSans-65"/>
      <use x="623.357422" xlink:href="#DejaVuSans-72"/>
      <use x="664.439453" xlink:href="#DejaVuSans-63"/>
      <use x="719.419922" xlink:href="#DejaVuSans-65"/>
      <use x="780.943359" xlink:href="#DejaVuSans-6e"/>
      <use x="844.322266" xlink:href="#DejaVuSans-2e"/>
      <use x="876.109375" xlink:href="#DejaVuSans-29"/>
     </g>
    </g>
    <g id="line2d_24">
     <path d="M 279.843437 98.604813 
L 299.843437 98.604813 
" style="fill:none;stroke:#d62728;stroke-linecap:square;stroke-width:1.5;"/>
    </g>
    <g id="line2d_25"/>
    <g id="text_18">
     <!-- pred.(95th percen.) -->
     <defs>
      <path d="M 10.984375 1.515625 
L 10.984375 10.5 
Q 14.703125 8.734375 18.5 7.8125 
Q 22.3125 6.890625 25.984375 6.890625 
Q 35.75 6.890625 40.890625 13.453125 
Q 46.046875 20.015625 46.78125 33.40625 
Q 43.953125 29.203125 39.59375 26.953125 
Q 35.25 24.703125 29.984375 24.703125 
Q 19.046875 24.703125 12.671875 31.3125 
Q 6.296875 37.9375 6.296875 49.421875 
Q 6.296875 60.640625 12.9375 67.421875 
Q 19.578125 74.21875 30.609375 74.21875 
Q 43.265625 74.21875 49.921875 64.515625 
Q 56.59375 54.828125 56.59375 36.375 
Q 56.59375 19.140625 48.40625 8.859375 
Q 40.234375 -1.421875 26.421875 -1.421875 
Q 22.703125 -1.421875 18.890625 -0.6875 
Q 15.09375 0.046875 10.984375 1.515625 
z
M 30.609375 32.421875 
Q 37.25 32.421875 41.125 36.953125 
Q 45.015625 41.5 45.015625 49.421875 
Q 45.015625 57.28125 41.125 61.84375 
Q 37.25 66.40625 30.609375 66.40625 
Q 23.96875 66.40625 20.09375 61.84375 
Q 16.21875 57.28125 16.21875 49.421875 
Q 16.21875 41.5 20.09375 36.953125 
Q 23.96875 32.421875 30.609375 32.421875 
z
" id="DejaVuSans-39"/>
     </defs>
     <g transform="translate(307.843437 102.104813)scale(0.1 -0.1)">
      <use xlink:href="#DejaVuSans-70"/>
      <use x="63.476562" xlink:href="#DejaVuSans-72"/>
      <use x="104.558594" xlink:href="#DejaVuSans-65"/>
      <use x="166.082031" xlink:href="#DejaVuSans-64"/>
      <use x="229.558594" xlink:href="#DejaVuSans-2e"/>
      <use x="261.345703" xlink:href="#DejaVuSans-28"/>
      <use x="300.359375" xlink:href="#DejaVuSans-39"/>
      <use x="363.982422" xlink:href="#DejaVuSans-35"/>
      <use x="427.605469" xlink:href="#DejaVuSans-74"/>
      <use x="466.814453" xlink:href="#DejaVuSans-68"/>
      <use x="530.193359" xlink:href="#DejaVuSans-20"/>
      <use x="561.980469" xlink:href="#DejaVuSans-70"/>
      <use x="625.457031" xlink:href="#DejaVuSans-65"/>
      <use x="686.980469" xlink:href="#DejaVuSans-72"/>
      <use x="728.0625" xlink:href="#DejaVuSans-63"/>
      <use x="783.042969" xlink:href="#DejaVuSans-65"/>
      <use x="844.566406" xlink:href="#DejaVuSans-6e"/>
      <use x="907.945312" xlink:href="#DejaVuSans-2e"/>
      <use x="939.732422" xlink:href="#DejaVuSans-29"/>
     </g>
    </g>
   </g>
  </g>
 </g>
 <defs>
  <clipPath id="p6310550146">
   <rect height="266.112" width="357.12" x="57.6" y="41.472"/>
  </clipPath>
 </defs>
</svg>
