<?xml version="1.0" encoding="utf-8" standalone="no"?>
<!DOCTYPE svg PUBLIC "-//W3C//DTD SVG 1.1//EN"
  "http://www.w3.org/Graphics/SVG/1.1/DTD/svg11.dtd">
<!-- Created with matplotlib (http://matplotlib.org/) -->
<svg height="864pt" version="1.1" viewBox="0 0 720 864" width="720pt" xmlns="http://www.w3.org/2000/svg" xmlns:xlink="http://www.w3.org/1999/xlink">
 <defs>
  <style type="text/css">
*{stroke-linecap:butt;stroke-linejoin:round;}
  </style>
 </defs>
 <g id="figure_1">
  <g id="patch_1">
   <path d="M 0 864 
L 720 864 
L 720 0 
L 0 0 
z
" style="fill:#ffffff;"/>
  </g>
  <g id="axes_1">
   <g id="patch_2">
    <path d="M 78.93 804.96 
L 698.76 804.96 
L 698.76 103.68 
L 78.93 103.68 
z
" style="fill:#ffffff;"/>
   </g>
   <g id="PolyCollection_1">
    <path clip-path="url(#p838fe18e6f)" d="M 107.104091 240.085185 
L 107.104091 462.406242 
L 109.001336 462.406242 
L 110.898581 462.406242 
L 112.795826 462.406242 
L 114.693072 462.406242 
L 116.590317 462.406242 
L 118.487562 455.867387 
L 120.384807 455.867387 
L 122.282052 455.867387 
L 124.179298 449.328533 
L 126.076543 442.789678 
L 127.973788 436.250823 
L 129.871033 429.711969 
L 131.768278 416.63426 
L 133.665523 403.55655 
L 135.562769 397.017696 
L 137.460014 390.478841 
L 139.357259 390.478841 
L 141.254504 377.401132 
L 143.151749 370.862277 
L 145.048994 370.862277 
L 146.94624 364.323423 
L 148.843485 364.323423 
L 150.74073 364.323423 
L 152.637975 370.862277 
L 154.53522 377.401132 
L 156.432466 377.401132 
L 158.329711 383.939987 
L 160.226956 390.478841 
L 162.124201 390.478841 
L 164.021446 397.017696 
L 165.918691 403.55655 
L 167.815937 410.095405 
L 169.713182 410.095405 
L 171.610427 410.095405 
L 173.507672 410.095405 
L 175.404917 410.095405 
L 177.302163 410.095405 
L 179.199408 410.095405 
L 181.096653 416.63426 
L 182.993898 423.173114 
L 184.891143 423.173114 
L 186.788388 429.711969 
L 188.685634 436.250823 
L 190.582879 436.250823 
L 192.480124 436.250823 
L 194.377369 442.789678 
L 196.274614 442.789678 
L 198.17186 442.789678 
L 200.069105 449.328533 
L 201.96635 449.328533 
L 203.863595 449.328533 
L 205.76084 449.328533 
L 207.658085 449.328533 
L 209.555331 455.867387 
L 211.452576 455.867387 
L 213.349821 455.867387 
L 215.247066 455.867387 
L 217.144311 455.867387 
L 219.041556 462.406242 
L 220.938802 462.406242 
L 222.836047 462.406242 
L 224.733292 455.867387 
L 226.630537 462.406242 
L 228.527782 455.867387 
L 230.425028 455.867387 
L 232.322273 455.867387 
L 234.219518 455.867387 
L 236.116763 449.328533 
L 238.014008 449.328533 
L 239.911253 449.328533 
L 241.808499 442.789678 
L 243.705744 442.789678 
L 245.602989 442.789678 
L 247.500234 436.250823 
L 249.397479 436.250823 
L 251.294725 429.711969 
L 253.19197 429.711969 
L 255.089215 429.711969 
L 256.98646 423.173114 
L 258.883705 429.711969 
L 260.78095 423.173114 
L 262.678196 416.63426 
L 264.575441 403.55655 
L 266.472686 397.017696 
L 268.369931 383.939987 
L 270.267176 377.401132 
L 272.164421 377.401132 
L 274.061667 377.401132 
L 275.958912 383.939987 
L 277.856157 377.401132 
L 279.753402 377.401132 
L 281.650647 383.939987 
L 283.547893 390.478841 
L 285.445138 397.017696 
L 287.342383 397.017696 
L 289.239628 403.55655 
L 291.136873 410.095405 
L 293.034118 416.63426 
L 294.931364 416.63426 
L 296.828609 416.63426 
L 298.725854 423.173114 
L 300.623099 423.173114 
L 302.520344 423.173114 
L 304.41759 423.173114 
L 306.314835 423.173114 
L 308.21208 423.173114 
L 310.109325 423.173114 
L 312.00657 423.173114 
L 313.903815 429.711969 
L 315.801061 429.711969 
L 317.698306 429.711969 
L 319.595551 429.711969 
L 321.492796 429.711969 
L 323.390041 436.250823 
L 325.287287 436.250823 
L 327.184532 436.250823 
L 329.081777 442.789678 
L 330.979022 442.789678 
L 332.876267 442.789678 
L 334.773512 442.789678 
L 336.670758 449.328533 
L 338.568003 449.328533 
L 340.465248 449.328533 
L 342.362493 455.867387 
L 344.259738 455.867387 
L 346.156983 455.867387 
L 348.054229 455.867387 
L 349.951474 455.867387 
L 351.848719 455.867387 
L 353.745964 462.406242 
L 355.643209 462.406242 
L 357.540455 462.406242 
L 359.4377 462.406242 
L 361.334945 462.406242 
L 363.23219 462.406242 
L 365.129435 462.406242 
L 367.02668 462.406242 
L 368.923926 462.406242 
L 370.821171 462.406242 
L 372.718416 462.406242 
L 374.615661 462.406242 
L 376.512906 455.867387 
L 378.410152 455.867387 
L 380.307397 449.328533 
L 382.204642 449.328533 
L 384.101887 442.789678 
L 385.999132 442.789678 
L 387.896377 436.250823 
L 389.793623 436.250823 
L 391.690868 429.711969 
L 393.588113 423.173114 
L 395.485358 416.63426 
L 397.382603 416.63426 
L 399.279848 410.095405 
L 401.177094 403.55655 
L 403.074339 403.55655 
L 404.971584 403.55655 
L 406.868829 403.55655 
L 408.766074 403.55655 
L 410.66332 403.55655 
L 412.560565 403.55655 
L 414.45781 403.55655 
L 416.355055 403.55655 
L 418.2523 403.55655 
L 420.149545 410.095405 
L 422.046791 410.095405 
L 423.944036 416.63426 
L 425.841281 416.63426 
L 427.738526 416.63426 
L 429.635771 423.173114 
L 431.533017 423.173114 
L 433.430262 423.173114 
L 435.327507 429.711969 
L 437.224752 429.711969 
L 439.121997 429.711969 
L 441.019242 429.711969 
L 442.916488 436.250823 
L 444.813733 436.250823 
L 446.710978 442.789678 
L 448.608223 442.789678 
L 450.505468 442.789678 
L 452.402713 442.789678 
L 454.299959 436.250823 
L 456.197204 436.250823 
L 458.094449 436.250823 
L 459.991694 436.250823 
L 461.888939 442.789678 
L 463.786185 442.789678 
L 465.68343 442.789678 
L 467.580675 442.789678 
L 469.47792 449.328533 
L 471.375165 449.328533 
L 473.27241 449.328533 
L 475.169656 449.328533 
L 477.066901 455.867387 
L 478.964146 455.867387 
L 480.861391 455.867387 
L 482.758636 455.867387 
L 484.655882 462.406242 
L 486.553127 462.406242 
L 488.450372 462.406242 
L 490.347617 462.406242 
L 492.244862 462.406242 
L 494.142107 462.406242 
L 496.039353 462.406242 
L 497.936598 455.867387 
L 499.833843 455.867387 
L 501.731088 449.328533 
L 503.628333 449.328533 
L 505.525579 442.789678 
L 507.422824 436.250823 
L 509.320069 436.250823 
L 511.217314 423.173114 
L 513.114559 423.173114 
L 515.011804 423.173114 
L 516.90905 416.63426 
L 518.806295 410.095405 
L 520.70354 397.017696 
L 522.600785 390.478841 
L 524.49803 377.401132 
L 526.395275 370.862277 
L 528.292521 370.862277 
L 530.189766 370.862277 
L 532.087011 370.862277 
L 533.984256 377.401132 
L 535.881501 383.939987 
L 537.778747 390.478841 
L 539.675992 390.478841 
L 541.573237 397.017696 
L 543.470482 397.017696 
L 545.367727 397.017696 
L 547.264972 397.017696 
L 549.162218 397.017696 
L 551.059463 397.017696 
L 552.956708 397.017696 
L 554.853953 403.55655 
L 556.751198 410.095405 
L 558.648444 416.63426 
L 560.545689 423.173114 
L 562.442934 429.711969 
L 564.340179 429.711969 
L 566.237424 436.250823 
L 568.134669 436.250823 
L 570.031915 436.250823 
L 571.92916 436.250823 
L 573.826405 442.789678 
L 575.72365 442.789678 
L 577.620895 449.328533 
L 579.51814 449.328533 
L 581.415386 455.867387 
L 583.312631 455.867387 
L 585.209876 455.867387 
L 587.107121 455.867387 
L 589.004366 455.867387 
L 590.901612 462.406242 
L 592.798857 462.406242 
L 594.696102 462.406242 
L 596.593347 462.406242 
L 598.490592 462.406242 
L 600.387837 462.406242 
L 602.285083 455.867387 
L 604.182328 455.867387 
L 606.079573 462.406242 
L 607.976818 462.406242 
L 609.874063 462.406242 
L 611.771309 462.406242 
L 613.668554 462.406242 
L 615.565799 462.406242 
L 617.463044 462.406242 
L 619.360289 462.406242 
L 621.257534 462.406242 
L 623.15478 462.406242 
L 625.052025 462.406242 
L 626.94927 462.406242 
L 628.846515 462.406242 
L 630.74376 462.406242 
L 632.641006 462.406242 
L 634.538251 455.867387 
L 636.435496 455.867387 
L 638.332741 449.328533 
L 640.229986 449.328533 
L 642.127231 449.328533 
L 644.024477 442.789678 
L 645.921722 442.789678 
L 647.818967 436.250823 
L 649.716212 436.250823 
L 651.613457 436.250823 
L 653.510702 429.711969 
L 655.407948 429.711969 
L 657.305193 429.711969 
L 659.202438 429.711969 
L 661.099683 429.711969 
L 662.996928 429.711969 
L 664.894174 429.711969 
L 666.791419 429.711969 
L 668.688664 429.711969 
L 670.585909 429.711969 
L 670.585909 240.085185 
L 670.585909 240.085185 
L 668.688664 240.085185 
L 666.791419 240.085185 
L 664.894174 240.085185 
L 662.996928 240.085185 
L 661.099683 240.085185 
L 659.202438 240.085185 
L 657.305193 240.085185 
L 655.407948 240.085185 
L 653.510702 240.085185 
L 651.613457 240.085185 
L 649.716212 240.085185 
L 647.818967 240.085185 
L 645.921722 240.085185 
L 644.024477 240.085185 
L 642.127231 240.085185 
L 640.229986 240.085185 
L 638.332741 240.085185 
L 636.435496 239.758243 
L 634.538251 239.758243 
L 632.641006 233.546331 
L 630.74376 233.546331 
L 628.846515 233.546331 
L 626.94927 233.546331 
L 625.052025 233.546331 
L 623.15478 233.546331 
L 621.257534 233.546331 
L 619.360289 233.546331 
L 617.463044 233.546331 
L 615.565799 233.546331 
L 613.668554 239.758243 
L 611.771309 233.546331 
L 609.874063 233.546331 
L 607.976818 239.758243 
L 606.079573 239.758243 
L 604.182328 239.758243 
L 602.285083 239.758243 
L 600.387837 239.758243 
L 598.490592 239.758243 
L 596.593347 239.758243 
L 594.696102 239.758243 
L 592.798857 239.758243 
L 590.901612 239.758243 
L 589.004366 239.758243 
L 587.107121 239.758243 
L 585.209876 239.758243 
L 583.312631 240.085185 
L 581.415386 240.085185 
L 579.51814 240.085185 
L 577.620895 240.085185 
L 575.72365 240.085185 
L 573.826405 240.085185 
L 571.92916 240.085185 
L 570.031915 240.085185 
L 568.134669 240.085185 
L 566.237424 240.085185 
L 564.340179 240.085185 
L 562.442934 246.62404 
L 560.545689 246.62404 
L 558.648444 246.62404 
L 556.751198 246.62404 
L 554.853953 246.62404 
L 552.956708 246.62404 
L 551.059463 246.62404 
L 549.162218 246.62404 
L 547.264972 246.62404 
L 545.367727 246.62404 
L 543.470482 253.162895 
L 541.573237 246.62404 
L 539.675992 253.162895 
L 537.778747 253.162895 
L 535.881501 253.162895 
L 533.984256 253.162895 
L 532.087011 253.162895 
L 530.189766 253.162895 
L 528.292521 253.162895 
L 526.395275 253.162895 
L 524.49803 253.162895 
L 522.600785 253.162895 
L 520.70354 246.62404 
L 518.806295 246.62404 
L 516.90905 246.62404 
L 515.011804 246.62404 
L 513.114559 240.085185 
L 511.217314 240.085185 
L 509.320069 240.085185 
L 507.422824 240.085185 
L 505.525579 240.085185 
L 503.628333 240.085185 
L 501.731088 240.085185 
L 499.833843 240.085185 
L 497.936598 239.758243 
L 496.039353 239.758243 
L 494.142107 233.546331 
L 492.244862 233.546331 
L 490.347617 233.546331 
L 488.450372 239.758243 
L 486.553127 233.546331 
L 484.655882 240.085185 
L 482.758636 239.758243 
L 480.861391 239.758243 
L 478.964146 240.085185 
L 477.066901 240.085185 
L 475.169656 240.085185 
L 473.27241 240.085185 
L 471.375165 240.085185 
L 469.47792 240.085185 
L 467.580675 240.085185 
L 465.68343 240.085185 
L 463.786185 240.085185 
L 461.888939 240.085185 
L 459.991694 240.085185 
L 458.094449 240.085185 
L 456.197204 240.085185 
L 454.299959 240.085185 
L 452.402713 240.085185 
L 450.505468 240.085185 
L 448.608223 240.085185 
L 446.710978 240.085185 
L 444.813733 240.085185 
L 442.916488 240.085185 
L 441.019242 240.085185 
L 439.121997 240.085185 
L 437.224752 240.085185 
L 435.327507 240.085185 
L 433.430262 240.085185 
L 431.533017 246.62404 
L 429.635771 246.62404 
L 427.738526 246.62404 
L 425.841281 246.62404 
L 423.944036 246.62404 
L 422.046791 246.62404 
L 420.149545 246.62404 
L 418.2523 246.62404 
L 416.355055 246.62404 
L 414.45781 246.62404 
L 412.560565 246.62404 
L 410.66332 246.62404 
L 408.766074 246.62404 
L 406.868829 246.62404 
L 404.971584 246.62404 
L 403.074339 246.62404 
L 401.177094 246.62404 
L 399.279848 246.62404 
L 397.382603 246.62404 
L 395.485358 246.62404 
L 393.588113 240.085185 
L 391.690868 240.085185 
L 389.793623 240.085185 
L 387.896377 240.085185 
L 385.999132 240.085185 
L 384.101887 240.085185 
L 382.204642 240.085185 
L 380.307397 240.085185 
L 378.410152 240.085185 
L 376.512906 239.758243 
L 374.615661 233.546331 
L 372.718416 233.546331 
L 370.821171 233.546331 
L 368.923926 233.546331 
L 367.02668 233.546331 
L 365.129435 233.546331 
L 363.23219 233.546331 
L 361.334945 233.546331 
L 359.4377 233.546331 
L 357.540455 239.758243 
L 355.643209 233.546331 
L 353.745964 239.758243 
L 351.848719 239.758243 
L 349.951474 239.758243 
L 348.054229 239.758243 
L 346.156983 240.085185 
L 344.259738 240.085185 
L 342.362493 240.085185 
L 340.465248 240.085185 
L 338.568003 240.085185 
L 336.670758 240.085185 
L 334.773512 240.085185 
L 332.876267 240.085185 
L 330.979022 240.085185 
L 329.081777 240.085185 
L 327.184532 240.085185 
L 325.287287 240.085185 
L 323.390041 240.085185 
L 321.492796 240.085185 
L 319.595551 240.085185 
L 317.698306 240.085185 
L 315.801061 240.085185 
L 313.903815 246.62404 
L 312.00657 240.085185 
L 310.109325 246.62404 
L 308.21208 240.085185 
L 306.314835 246.62404 
L 304.41759 246.62404 
L 302.520344 246.62404 
L 300.623099 246.62404 
L 298.725854 246.62404 
L 296.828609 246.62404 
L 294.931364 246.62404 
L 293.034118 246.62404 
L 291.136873 246.62404 
L 289.239628 246.62404 
L 287.342383 253.162895 
L 285.445138 253.162895 
L 283.547893 253.162895 
L 281.650647 253.162895 
L 279.753402 253.162895 
L 277.856157 253.162895 
L 275.958912 253.162895 
L 274.061667 253.162895 
L 272.164421 253.162895 
L 270.267176 253.162895 
L 268.369931 253.162895 
L 266.472686 246.62404 
L 264.575441 246.62404 
L 262.678196 246.62404 
L 260.78095 246.62404 
L 258.883705 246.62404 
L 256.98646 240.085185 
L 255.089215 240.085185 
L 253.19197 240.085185 
L 251.294725 240.085185 
L 249.397479 240.085185 
L 247.500234 240.085185 
L 245.602989 240.085185 
L 243.705744 240.085185 
L 241.808499 240.085185 
L 239.911253 240.085185 
L 238.014008 240.085185 
L 236.116763 240.085185 
L 234.219518 240.085185 
L 232.322273 239.758243 
L 230.425028 239.758243 
L 228.527782 239.758243 
L 226.630537 239.758243 
L 224.733292 233.546331 
L 222.836047 239.758243 
L 220.938802 239.758243 
L 219.041556 239.758243 
L 217.144311 239.758243 
L 215.247066 239.758243 
L 213.349821 240.085185 
L 211.452576 240.085185 
L 209.555331 240.085185 
L 207.658085 240.085185 
L 205.76084 240.085185 
L 203.863595 240.085185 
L 201.96635 240.085185 
L 200.069105 240.085185 
L 198.17186 240.085185 
L 196.274614 240.085185 
L 194.377369 240.085185 
L 192.480124 240.085185 
L 190.582879 240.085185 
L 188.685634 240.085185 
L 186.788388 240.085185 
L 184.891143 246.62404 
L 182.993898 246.62404 
L 181.096653 246.62404 
L 179.199408 246.62404 
L 177.302163 246.62404 
L 175.404917 246.62404 
L 173.507672 246.62404 
L 171.610427 246.62404 
L 169.713182 246.62404 
L 167.815937 246.62404 
L 165.918691 246.62404 
L 164.021446 253.162895 
L 162.124201 253.162895 
L 160.226956 253.162895 
L 158.329711 253.162895 
L 156.432466 253.162895 
L 154.53522 253.162895 
L 152.637975 253.162895 
L 150.74073 253.162895 
L 148.843485 253.162895 
L 146.94624 253.162895 
L 145.048994 253.162895 
L 143.151749 253.162895 
L 141.254504 253.162895 
L 139.357259 253.162895 
L 137.460014 246.62404 
L 135.562769 246.62404 
L 133.665523 246.62404 
L 131.768278 246.62404 
L 129.871033 240.085185 
L 127.973788 240.085185 
L 126.076543 240.085185 
L 124.179298 240.085185 
L 122.282052 239.758243 
L 120.384807 240.085185 
L 118.487562 233.546331 
L 116.590317 239.758243 
L 114.693072 233.546331 
L 112.795826 233.546331 
L 110.898581 233.546331 
L 109.001336 233.546331 
L 107.104091 240.085185 
z
" style="fill:#008000;fill-opacity:0.4;"/>
   </g>
   <g id="matplotlib.axis_1">
    <g id="xtick_1">
     <g id="line2d_1">
      <defs>
       <path d="M 0 0 
L 0 3.5 
" id="mb6819e60fa" style="stroke:#000000;stroke-width:0.8;"/>
      </defs>
      <g>
       <use style="stroke:#000000;stroke-width:0.8;" x="107.104091" xlink:href="#mb6819e60fa" y="804.96"/>
      </g>
     </g>
     <g id="text_1">
      <!-- 0.0 -->
      <defs>
       <path d="M 31.78125 66.40625 
Q 24.171875 66.40625 20.328125 58.90625 
Q 16.5 51.421875 16.5 36.375 
Q 16.5 21.390625 20.328125 13.890625 
Q 24.171875 6.390625 31.78125 6.390625 
Q 39.453125 6.390625 43.28125 13.890625 
Q 47.125 21.390625 47.125 36.375 
Q 47.125 51.421875 43.28125 58.90625 
Q 39.453125 66.40625 31.78125 66.40625 
z
M 31.78125 74.21875 
Q 44.046875 74.21875 50.515625 64.515625 
Q 56.984375 54.828125 56.984375 36.375 
Q 56.984375 17.96875 50.515625 8.265625 
Q 44.046875 -1.421875 31.78125 -1.421875 
Q 19.53125 -1.421875 13.0625 8.265625 
Q 6.59375 17.96875 6.59375 36.375 
Q 6.59375 54.828125 13.0625 64.515625 
Q 19.53125 74.21875 31.78125 74.21875 
z
" id="DejaVuSans-30"/>
       <path d="M 10.6875 12.40625 
L 21 12.40625 
L 21 0 
L 10.6875 0 
z
" id="DejaVuSans-2e"/>
      </defs>
      <g transform="translate(99.152528 819.558437)scale(0.1 -0.1)">
       <use xlink:href="#DejaVuSans-30"/>
       <use x="63.623047" xlink:href="#DejaVuSans-2e"/>
       <use x="95.410156" xlink:href="#DejaVuSans-30"/>
      </g>
     </g>
    </g>
    <g id="xtick_2">
     <g id="line2d_2">
      <g>
       <use style="stroke:#000000;stroke-width:0.8;" x="219.800455" xlink:href="#mb6819e60fa" y="804.96"/>
      </g>
     </g>
     <g id="text_2">
      <!-- 0.2 -->
      <defs>
       <path d="M 19.1875 8.296875 
L 53.609375 8.296875 
L 53.609375 0 
L 7.328125 0 
L 7.328125 8.296875 
Q 12.9375 14.109375 22.625 23.890625 
Q 32.328125 33.6875 34.8125 36.53125 
Q 39.546875 41.84375 41.421875 45.53125 
Q 43.3125 49.21875 43.3125 52.78125 
Q 43.3125 58.59375 39.234375 62.25 
Q 35.15625 65.921875 28.609375 65.921875 
Q 23.96875 65.921875 18.8125 64.3125 
Q 13.671875 62.703125 7.8125 59.421875 
L 7.8125 69.390625 
Q 13.765625 71.78125 18.9375 73 
Q 24.125 74.21875 28.421875 74.21875 
Q 39.75 74.21875 46.484375 68.546875 
Q 53.21875 62.890625 53.21875 53.421875 
Q 53.21875 48.921875 51.53125 44.890625 
Q 49.859375 40.875 45.40625 35.40625 
Q 44.1875 33.984375 37.640625 27.21875 
Q 31.109375 20.453125 19.1875 8.296875 
z
" id="DejaVuSans-32"/>
      </defs>
      <g transform="translate(211.848892 819.558437)scale(0.1 -0.1)">
       <use xlink:href="#DejaVuSans-30"/>
       <use x="63.623047" xlink:href="#DejaVuSans-2e"/>
       <use x="95.410156" xlink:href="#DejaVuSans-32"/>
      </g>
     </g>
    </g>
    <g id="xtick_3">
     <g id="line2d_3">
      <g>
       <use style="stroke:#000000;stroke-width:0.8;" x="332.496818" xlink:href="#mb6819e60fa" y="804.96"/>
      </g>
     </g>
     <g id="text_3">
      <!-- 0.4 -->
      <defs>
       <path d="M 37.796875 64.3125 
L 12.890625 25.390625 
L 37.796875 25.390625 
z
M 35.203125 72.90625 
L 47.609375 72.90625 
L 47.609375 25.390625 
L 58.015625 25.390625 
L 58.015625 17.1875 
L 47.609375 17.1875 
L 47.609375 0 
L 37.796875 0 
L 37.796875 17.1875 
L 4.890625 17.1875 
L 4.890625 26.703125 
z
" id="DejaVuSans-34"/>
      </defs>
      <g transform="translate(324.545256 819.558437)scale(0.1 -0.1)">
       <use xlink:href="#DejaVuSans-30"/>
       <use x="63.623047" xlink:href="#DejaVuSans-2e"/>
       <use x="95.410156" xlink:href="#DejaVuSans-34"/>
      </g>
     </g>
    </g>
    <g id="xtick_4">
     <g id="line2d_4">
      <g>
       <use style="stroke:#000000;stroke-width:0.8;" x="445.193182" xlink:href="#mb6819e60fa" y="804.96"/>
      </g>
     </g>
     <g id="text_4">
      <!-- 0.6 -->
      <defs>
       <path d="M 33.015625 40.375 
Q 26.375 40.375 22.484375 35.828125 
Q 18.609375 31.296875 18.609375 23.390625 
Q 18.609375 15.53125 22.484375 10.953125 
Q 26.375 6.390625 33.015625 6.390625 
Q 39.65625 6.390625 43.53125 10.953125 
Q 47.40625 15.53125 47.40625 23.390625 
Q 47.40625 31.296875 43.53125 35.828125 
Q 39.65625 40.375 33.015625 40.375 
z
M 52.59375 71.296875 
L 52.59375 62.3125 
Q 48.875 64.0625 45.09375 64.984375 
Q 41.3125 65.921875 37.59375 65.921875 
Q 27.828125 65.921875 22.671875 59.328125 
Q 17.53125 52.734375 16.796875 39.40625 
Q 19.671875 43.65625 24.015625 45.921875 
Q 28.375 48.1875 33.59375 48.1875 
Q 44.578125 48.1875 50.953125 41.515625 
Q 57.328125 34.859375 57.328125 23.390625 
Q 57.328125 12.15625 50.6875 5.359375 
Q 44.046875 -1.421875 33.015625 -1.421875 
Q 20.359375 -1.421875 13.671875 8.265625 
Q 6.984375 17.96875 6.984375 36.375 
Q 6.984375 53.65625 15.1875 63.9375 
Q 23.390625 74.21875 37.203125 74.21875 
Q 40.921875 74.21875 44.703125 73.484375 
Q 48.484375 72.75 52.59375 71.296875 
z
" id="DejaVuSans-36"/>
      </defs>
      <g transform="translate(437.241619 819.558437)scale(0.1 -0.1)">
       <use xlink:href="#DejaVuSans-30"/>
       <use x="63.623047" xlink:href="#DejaVuSans-2e"/>
       <use x="95.410156" xlink:href="#DejaVuSans-36"/>
      </g>
     </g>
    </g>
    <g id="xtick_5">
     <g id="line2d_5">
      <g>
       <use style="stroke:#000000;stroke-width:0.8;" x="557.889545" xlink:href="#mb6819e60fa" y="804.96"/>
      </g>
     </g>
     <g id="text_5">
      <!-- 0.8 -->
      <defs>
       <path d="M 31.78125 34.625 
Q 24.75 34.625 20.71875 30.859375 
Q 16.703125 27.09375 16.703125 20.515625 
Q 16.703125 13.921875 20.71875 10.15625 
Q 24.75 6.390625 31.78125 6.390625 
Q 38.8125 6.390625 42.859375 10.171875 
Q 46.921875 13.96875 46.921875 20.515625 
Q 46.921875 27.09375 42.890625 30.859375 
Q 38.875 34.625 31.78125 34.625 
z
M 21.921875 38.8125 
Q 15.578125 40.375 12.03125 44.71875 
Q 8.5 49.078125 8.5 55.328125 
Q 8.5 64.0625 14.71875 69.140625 
Q 20.953125 74.21875 31.78125 74.21875 
Q 42.671875 74.21875 48.875 69.140625 
Q 55.078125 64.0625 55.078125 55.328125 
Q 55.078125 49.078125 51.53125 44.71875 
Q 48 40.375 41.703125 38.8125 
Q 48.828125 37.15625 52.796875 32.3125 
Q 56.78125 27.484375 56.78125 20.515625 
Q 56.78125 9.90625 50.3125 4.234375 
Q 43.84375 -1.421875 31.78125 -1.421875 
Q 19.734375 -1.421875 13.25 4.234375 
Q 6.78125 9.90625 6.78125 20.515625 
Q 6.78125 27.484375 10.78125 32.3125 
Q 14.796875 37.15625 21.921875 38.8125 
z
M 18.3125 54.390625 
Q 18.3125 48.734375 21.84375 45.5625 
Q 25.390625 42.390625 31.78125 42.390625 
Q 38.140625 42.390625 41.71875 45.5625 
Q 45.3125 48.734375 45.3125 54.390625 
Q 45.3125 60.0625 41.71875 63.234375 
Q 38.140625 66.40625 31.78125 66.40625 
Q 25.390625 66.40625 21.84375 63.234375 
Q 18.3125 60.0625 18.3125 54.390625 
z
" id="DejaVuSans-38"/>
      </defs>
      <g transform="translate(549.937983 819.558437)scale(0.1 -0.1)">
       <use xlink:href="#DejaVuSans-30"/>
       <use x="63.623047" xlink:href="#DejaVuSans-2e"/>
       <use x="95.410156" xlink:href="#DejaVuSans-38"/>
      </g>
     </g>
    </g>
    <g id="xtick_6">
     <g id="line2d_6">
      <g>
       <use style="stroke:#000000;stroke-width:0.8;" x="670.585909" xlink:href="#mb6819e60fa" y="804.96"/>
      </g>
     </g>
     <g id="text_6">
      <!-- 1.0 -->
      <defs>
       <path d="M 12.40625 8.296875 
L 28.515625 8.296875 
L 28.515625 63.921875 
L 10.984375 60.40625 
L 10.984375 69.390625 
L 28.421875 72.90625 
L 38.28125 72.90625 
L 38.28125 8.296875 
L 54.390625 8.296875 
L 54.390625 0 
L 12.40625 0 
z
" id="DejaVuSans-31"/>
      </defs>
      <g transform="translate(662.634347 819.558437)scale(0.1 -0.1)">
       <use xlink:href="#DejaVuSans-31"/>
       <use x="63.623047" xlink:href="#DejaVuSans-2e"/>
       <use x="95.410156" xlink:href="#DejaVuSans-30"/>
      </g>
     </g>
    </g>
   </g>
   <g id="matplotlib.axis_2">
    <g id="ytick_1">
     <g id="line2d_7">
      <defs>
       <path d="M 0 0 
L -3.5 0 
" id="m8e62eb9bc5" style="stroke:#000000;stroke-width:0.8;"/>
      </defs>
      <g>
       <use style="stroke:#000000;stroke-width:0.8;" x="78.93" xlink:href="#m8e62eb9bc5" y="782.810117"/>
      </g>
     </g>
     <g id="text_7">
      <!-- 0.0 -->
      <g transform="translate(56.026875 786.609336)scale(0.1 -0.1)">
       <use xlink:href="#DejaVuSans-30"/>
       <use x="63.623047" xlink:href="#DejaVuSans-2e"/>
       <use x="95.410156" xlink:href="#DejaVuSans-30"/>
      </g>
     </g>
    </g>
    <g id="ytick_2">
     <g id="line2d_8">
      <g>
       <use style="stroke:#000000;stroke-width:0.8;" x="78.93" xlink:href="#m8e62eb9bc5" y="652.033025"/>
      </g>
     </g>
     <g id="text_8">
      <!-- 0.2 -->
      <g transform="translate(56.026875 655.832244)scale(0.1 -0.1)">
       <use xlink:href="#DejaVuSans-30"/>
       <use x="63.623047" xlink:href="#DejaVuSans-2e"/>
       <use x="95.410156" xlink:href="#DejaVuSans-32"/>
      </g>
     </g>
    </g>
    <g id="ytick_3">
     <g id="line2d_9">
      <g>
       <use style="stroke:#000000;stroke-width:0.8;" x="78.93" xlink:href="#m8e62eb9bc5" y="521.255933"/>
      </g>
     </g>
     <g id="text_9">
      <!-- 0.4 -->
      <g transform="translate(56.026875 525.055152)scale(0.1 -0.1)">
       <use xlink:href="#DejaVuSans-30"/>
       <use x="63.623047" xlink:href="#DejaVuSans-2e"/>
       <use x="95.410156" xlink:href="#DejaVuSans-34"/>
      </g>
     </g>
    </g>
    <g id="ytick_4">
     <g id="line2d_10">
      <g>
       <use style="stroke:#000000;stroke-width:0.8;" x="78.93" xlink:href="#m8e62eb9bc5" y="390.478841"/>
      </g>
     </g>
     <g id="text_10">
      <!-- 0.6 -->
      <g transform="translate(56.026875 394.27806)scale(0.1 -0.1)">
       <use xlink:href="#DejaVuSans-30"/>
       <use x="63.623047" xlink:href="#DejaVuSans-2e"/>
       <use x="95.410156" xlink:href="#DejaVuSans-36"/>
      </g>
     </g>
    </g>
    <g id="ytick_5">
     <g id="line2d_11">
      <g>
       <use style="stroke:#000000;stroke-width:0.8;" x="78.93" xlink:href="#m8e62eb9bc5" y="259.701749"/>
      </g>
     </g>
     <g id="text_11">
      <!-- 0.8 -->
      <g transform="translate(56.026875 263.500968)scale(0.1 -0.1)">
       <use xlink:href="#DejaVuSans-30"/>
       <use x="63.623047" xlink:href="#DejaVuSans-2e"/>
       <use x="95.410156" xlink:href="#DejaVuSans-38"/>
      </g>
     </g>
    </g>
    <g id="ytick_6">
     <g id="line2d_12">
      <g>
       <use style="stroke:#000000;stroke-width:0.8;" x="78.93" xlink:href="#m8e62eb9bc5" y="128.924657"/>
      </g>
     </g>
     <g id="text_12">
      <!-- 1.0 -->
      <g transform="translate(56.026875 132.723876)scale(0.1 -0.1)">
       <use xlink:href="#DejaVuSans-31"/>
       <use x="63.623047" xlink:href="#DejaVuSans-2e"/>
       <use x="95.410156" xlink:href="#DejaVuSans-30"/>
      </g>
     </g>
    </g>
   </g>
   <g id="line2d_13">
    <path clip-path="url(#p838fe18e6f)" d="M 107.104091 749.651651 
L 109.001336 750.093743 
L 110.898581 748.32531 
L 112.795826 745.672627 
L 114.693072 728.872283 
L 116.590317 722.240576 
L 118.487562 704.113694 
L 120.384807 675.376736 
L 122.282052 641.776178 
L 124.179298 586.069714 
L 126.076543 539.205743 
L 127.973788 486.152092 
L 131.768278 370.318245 
L 133.665523 323.454274 
L 135.562769 308.864781 
L 137.460014 269.51657 
L 139.357259 196.5678 
L 141.254504 171.809735 
L 143.151749 166.062082 
L 145.048994 138.209177 
L 146.94624 135.556364 
L 148.843485 157.219589 
L 150.74073 204.084214 
L 152.637975 220.441812 
L 154.53522 224.863386 
L 156.432466 266.863757 
L 158.329711 291.180449 
L 160.226956 317.707275 
L 162.124201 338.04442 
L 164.021446 369.876218 
L 165.918691 420.277056 
L 167.815937 426.466735 
L 169.713182 395.076964 
L 171.610427 401.266644 
L 173.507672 415.856136 
L 175.404917 421.161763 
L 177.302163 415.856136 
L 179.199408 439.730148 
L 181.096653 481.289146 
L 182.993898 494.994585 
L 184.891143 528.595144 
L 186.788388 558.216809 
L 188.685634 562.195702 
L 190.582879 575.017088 
L 192.480124 597.12234 
L 194.377369 617.459485 
L 196.274614 623.207139 
L 198.17186 629.838845 
L 200.069105 654.597564 
L 201.96635 670.07111 
L 203.863595 677.586869 
L 205.76084 671.83987 
L 207.658085 682.008442 
L 209.555331 693.503095 
L 211.452576 699.692775 
L 213.349821 705.440428 
L 215.247066 719.587894 
L 217.144311 734.619805 
L 219.041556 734.619805 
L 220.938802 728.430191 
L 222.836047 731.082873 
L 224.733292 726.2196 
L 226.630537 719.587894 
L 228.527782 718.261618 
L 230.425028 705.440428 
L 232.322273 682.450469 
L 234.219518 657.249723 
L 236.116763 647.081151 
L 238.014008 633.817738 
L 239.911253 612.596539 
L 241.808499 599.333127 
L 243.705744 588.280501 
L 245.602989 575.459115 
L 247.500234 559.100862 
L 249.397479 523.731544 
L 251.294725 511.794865 
L 253.19197 503.394398 
L 255.089215 500.741585 
L 256.98646 495.878639 
L 258.883705 474.214759 
L 264.575441 299.580262 
L 266.472686 267.305783 
L 268.369931 238.126799 
L 270.267176 199.66264 
L 272.164421 231.937119 
L 274.061667 240.779612 
L 275.958912 228.400252 
L 277.856157 230.168359 
L 279.753402 247.853345 
L 281.650647 291.180449 
L 283.547893 316.822568 
L 285.445138 345.56018 
L 287.342383 393.75023 
L 289.239628 417.182216 
L 291.136873 437.077335 
L 293.034118 454.762321 
L 294.931364 458.741214 
L 296.828609 481.731173 
L 298.725854 486.152092 
L 300.623099 487.478172 
L 302.520344 486.152092 
L 304.41759 489.246932 
L 306.314835 498.531452 
L 308.21208 499.415505 
L 310.109325 507.373291 
L 312.00657 514.004997 
L 313.903815 518.426571 
L 315.801061 522.405464 
L 317.698306 536.110903 
L 319.595551 538.763716 
L 321.492796 557.774782 
L 323.390041 574.132381 
L 325.287287 586.069714 
L 327.184532 583.858927 
L 329.081777 588.280501 
L 332.876267 624.091192 
L 334.773512 638.239311 
L 336.670758 649.733964 
L 338.568003 669.629083 
L 340.465248 685.545309 
L 342.362493 691.292962 
L 344.259738 694.387148 
L 346.156983 701.461535 
L 349.951474 725.777508 
L 351.848719 736.83033 
L 353.745964 749.651651 
L 355.643209 758.935974 
L 357.540455 766.009838 
L 359.4377 768.662521 
L 361.334945 766.894022 
L 363.23219 765.567681 
L 365.129435 764.683497 
L 367.02668 758.493882 
L 368.923926 755.399108 
L 370.821171 742.135695 
L 372.718416 731.524965 
L 374.615661 708.977294 
L 376.512906 687.756096 
L 378.410152 667.860977 
L 380.307397 638.681338 
L 382.204642 623.649165 
L 384.101887 598.449073 
L 385.999132 568.385382 
L 387.896377 545.837449 
L 391.690868 483.941306 
L 393.588113 449.014668 
L 395.485358 417.624896 
L 399.279848 370.760271 
L 401.177094 368.108112 
L 403.074339 367.666085 
L 404.971584 360.591699 
L 406.868829 349.539073 
L 408.766074 360.591699 
L 410.66332 361.918432 
L 412.560565 368.550138 
L 414.45781 365.013272 
L 416.355055 382.255578 
L 418.2523 403.476776 
L 420.149545 415.414109 
L 422.046791 438.846095 
L 423.944036 443.709041 
L 425.841281 475.541493 
L 429.635771 487.920852 
L 433.430262 514.004997 
L 435.327507 528.595144 
L 437.224752 523.731544 
L 439.121997 538.32169 
L 441.019242 563.963808 
L 442.916488 583.416901 
L 444.813733 588.280501 
L 446.710978 586.51174 
L 450.505468 591.817367 
L 452.402713 579.438008 
L 454.299959 576.785194 
L 456.197204 572.806301 
L 458.094449 579.880034 
L 459.991694 592.70142 
L 461.888939 600.21718 
L 463.786185 618.344192 
L 465.68343 627.186032 
L 467.580675 645.313044 
L 469.47792 654.597564 
L 471.375165 662.55535 
L 473.27241 675.818763 
L 475.169656 689.966229 
L 477.066901 700.134801 
L 478.964146 708.535268 
L 480.861391 729.31444 
L 482.758636 744.346286 
L 484.655882 753.188517 
L 486.553127 758.935974 
L 488.450372 759.378132 
L 490.347617 754.957016 
L 492.244862 742.135695 
L 494.142107 727.103849 
L 497.936598 687.313415 
L 499.833843 659.46051 
L 501.731088 624.533872 
L 503.628333 591.817367 
L 505.525579 573.248328 
L 507.422824 529.479197 
L 509.320069 495.878639 
L 511.217314 475.98352 
L 513.114559 462.27808 
L 515.011804 439.730148 
L 516.90905 368.992165 
L 518.806295 315.496488 
L 520.70354 269.51657 
L 522.600785 219.557759 
L 524.49803 173.135815 
L 526.395275 162.525216 
L 528.292521 165.620055 
L 530.189766 184.189095 
L 532.087011 211.157947 
L 533.984256 250.505504 
L 535.881501 283.664036 
L 537.778747 295.159342 
L 539.675992 327.433821 
L 541.573237 349.097046 
L 543.470482 348.212993 
L 545.367727 336.27566 
L 547.264972 332.296767 
L 549.162218 333.622847 
L 551.059463 337.159713 
L 552.956708 375.623871 
L 554.853953 406.571616 
L 558.648444 483.499279 
L 560.545689 507.373291 
L 562.442934 542.742609 
L 564.340179 552.911182 
L 566.237424 555.121969 
L 568.134669 566.174595 
L 570.031915 581.648794 
L 571.92916 610.385753 
L 573.826405 623.207139 
L 575.72365 638.681338 
L 577.620895 670.513136 
L 579.51814 692.177015 
L 581.415386 704.113694 
L 583.312631 708.977294 
L 585.209876 716.051027 
L 587.107121 727.545941 
L 589.004366 731.967122 
L 590.901612 729.756532 
L 592.798857 732.851306 
L 594.696102 730.640781 
L 596.593347 735.946146 
L 598.490592 724.893259 
L 600.387837 726.661757 
L 602.285083 725.777508 
L 604.182328 726.661757 
L 606.079573 735.946146 
L 607.976818 740.809354 
L 609.874063 750.977992 
L 611.771309 755.8412 
L 613.668554 762.030814 
L 615.565799 767.336179 
L 617.463044 769.546705 
L 619.360289 772.641544 
L 621.257534 773.083636 
L 625.052025 764.241339 
L 626.94927 757.609633 
L 630.74376 728.430191 
L 632.641006 712.956187 
L 634.538251 695.271855 
L 636.435496 660.78659 
L 638.332741 644.428991 
L 640.229986 630.722898 
L 642.127231 608.17562 
L 644.024477 590.048607 
L 645.921722 563.079755 
L 647.818967 562.195702 
L 649.716212 545.837449 
L 651.613457 536.55293 
L 653.510702 519.752651 
L 655.407948 506.931264 
L 657.305193 524.616251 
L 659.202438 527.26841 
L 661.099683 518.426571 
L 662.996928 517.541864 
L 664.894174 533.016063 
L 666.791419 541.858556 
L 668.688664 522.405464 
L 670.585909 518.426571 
L 670.585909 518.426571 
" style="fill:none;stroke:#1f77b4;stroke-linecap:square;stroke-width:1.5;"/>
   </g>
   <g id="line2d_14">
    <path clip-path="url(#p838fe18e6f)" d="M 107.104091 312.432941 
L 109.001336 312.164381 
L 110.898581 312.374558 
L 112.795826 312.105998 
L 114.693072 312.187734 
L 116.590317 312.00091 
L 118.487562 310.973375 
L 120.384807 311.276965 
L 122.282052 309.688957 
L 124.179298 308.894954 
L 126.076543 307.283593 
L 127.973788 304.843199 
L 129.871033 303.512075 
L 133.665523 297.615429 
L 135.562769 295.66545 
L 137.460014 294.427738 
L 139.357259 293.505292 
L 141.254504 290.002334 
L 143.151749 289.138272 
L 145.048994 290.411013 
L 146.94624 289.453538 
L 148.843485 289.126595 
L 150.74073 289.792157 
L 154.53522 293.166673 
L 156.432466 291.963991 
L 160.226956 295.233418 
L 162.124201 295.642097 
L 164.021446 297.743871 
L 165.918691 297.84896 
L 167.815937 300.219295 
L 169.713182 300.674679 
L 171.610427 298.946553 
L 173.507672 299.098348 
L 175.404917 299.600439 
L 177.302163 299.880675 
L 179.199408 299.868999 
L 181.096653 300.534561 
L 182.993898 303.336927 
L 184.891143 304.142608 
L 186.788388 303.862371 
L 188.685634 305.812351 
L 190.582879 306.256059 
L 192.480124 306.010852 
L 194.377369 307.248563 
L 196.274614 307.890772 
L 198.17186 308.322804 
L 200.069105 308.953336 
L 201.96635 308.731482 
L 203.863595 310.027577 
L 207.658085 309.525486 
L 209.555331 310.412902 
L 211.452576 310.482961 
L 213.349821 310.938346 
L 215.247066 310.89164 
L 217.144311 311.078464 
L 219.041556 311.96588 
L 222.836047 311.884144 
L 224.733292 311.1602 
L 226.630537 311.93085 
L 228.527782 311.241935 
L 230.425028 310.926669 
L 232.322273 310.938346 
L 234.219518 310.31949 
L 236.116763 309.338662 
L 238.014008 308.63807 
L 239.911253 308.778188 
L 241.808499 308.229392 
L 243.705744 307.155151 
L 245.602989 307.108445 
L 247.500234 306.279412 
L 249.397479 305.321937 
L 253.19197 304.002489 
L 255.089215 303.62884 
L 256.98646 303.056691 
L 258.883705 304.060872 
L 260.78095 302.893219 
L 262.678196 300.219295 
L 264.575441 296.331012 
L 266.472686 295.408566 
L 268.369931 292.828054 
L 270.267176 290.983163 
L 272.164421 291.333458 
L 274.061667 291.566989 
L 275.958912 294.310973 
L 277.856157 291.578665 
L 279.753402 291.76549 
L 281.650647 293.038231 
L 289.239628 299.028289 
L 291.136873 300.207618 
L 293.034118 301.830655 
L 294.931364 301.153417 
L 296.828609 301.854008 
L 298.725854 302.134245 
L 300.623099 303.523752 
L 302.520344 302.893219 
L 304.41759 302.834837 
L 306.314835 303.243515 
L 308.21208 303.033338 
L 310.109325 303.465369 
L 312.00657 302.939925 
L 313.903815 304.819846 
L 315.801061 303.920754 
L 317.698306 304.749787 
L 321.492796 304.691404 
L 323.390041 305.824027 
L 325.287287 306.221029 
L 327.184532 306.477913 
L 329.081777 307.085092 
L 330.979022 306.944974 
L 332.876267 307.598859 
L 334.773512 308.077597 
L 336.670758 308.859924 
L 338.568003 309.221896 
L 340.465248 309.245249 
L 342.362493 310.436255 
L 344.259738 310.879963 
L 346.156983 310.623079 
L 348.054229 310.716492 
L 351.848719 311.335348 
L 353.745964 312.164381 
L 355.643209 312.094322 
L 357.540455 312.643118 
L 359.4377 312.561383 
L 361.334945 312.070969 
L 363.23219 312.176057 
L 365.129435 312.047616 
L 367.02668 312.584736 
L 368.923926 311.907497 
L 370.821171 311.755702 
L 372.718416 312.257793 
L 376.512906 311.195229 
L 378.410152 310.447932 
L 380.307397 309.315309 
L 382.204642 309.198543 
L 384.101887 308.019214 
L 385.999132 307.458741 
L 389.793623 305.030023 
L 391.690868 304.387815 
L 393.588113 302.706395 
L 395.485358 301.17677 
L 397.382603 300.289354 
L 399.279848 298.549552 
L 401.177094 297.790577 
L 403.074339 297.615429 
L 404.971584 297.650459 
L 406.868829 298.327698 
L 408.766074 297.206751 
L 410.66332 297.802254 
L 412.560565 298.561228 
L 414.45781 297.416928 
L 416.355055 298.736376 
L 418.2523 297.778901 
L 420.149545 299.658821 
L 422.046791 300.476178 
L 423.944036 300.616297 
L 425.841281 301.924068 
L 427.738526 301.305212 
L 429.635771 303.383633 
L 431.533017 303.021661 
L 433.430262 303.138426 
L 435.327507 304.224343 
L 437.224752 304.726434 
L 439.121997 304.597992 
L 441.019242 304.691404 
L 442.916488 306.092587 
L 444.813733 306.337794 
L 446.710978 306.933297 
L 448.608223 306.95665 
L 450.505468 307.178504 
L 452.402713 307.143475 
L 454.299959 306.372824 
L 456.197204 306.010852 
L 459.991694 306.489589 
L 461.888939 307.038386 
L 463.786185 307.377005 
L 467.580675 308.40454 
L 471.375165 309.373691 
L 473.27241 309.256926 
L 475.169656 309.595545 
L 477.066901 310.424579 
L 478.964146 311.078464 
L 480.861391 310.938346 
L 482.758636 311.12517 
L 484.655882 312.386235 
L 486.553127 312.257793 
L 488.450372 312.549706 
L 492.244862 312.526353 
L 494.142107 311.954203 
L 496.039353 311.96588 
L 497.936598 310.914993 
L 499.833843 310.389549 
L 501.731088 309.338662 
L 503.628333 308.568011 
L 505.525579 307.306946 
L 507.422824 305.602173 
L 509.320069 306.010852 
L 511.217314 302.706395 
L 513.114559 302.122568 
L 515.011804 302.601306 
L 516.90905 300.30103 
L 518.806295 298.677993 
L 520.70354 294.381032 
L 522.600785 294.357679 
L 524.49803 290.772985 
L 526.395275 288.916418 
L 528.292521 290.399336 
L 530.189766 290.562808 
L 532.087011 290.92478 
L 533.984256 292.746318 
L 535.881501 293.10829 
L 537.778747 294.661268 
L 539.675992 295.723832 
L 541.573237 295.782215 
L 543.470482 297.743871 
L 545.367727 296.190893 
L 547.264972 297.171721 
L 549.162218 295.793891 
L 551.059463 296.412747 
L 554.853953 298.000755 
L 556.751198 300.616297 
L 558.648444 301.188446 
L 560.545689 303.208485 
L 562.442934 304.142608 
L 564.340179 304.633022 
L 566.237424 305.905763 
L 568.134669 305.765645 
L 570.031915 305.859057 
L 571.92916 306.431207 
L 573.826405 307.306946 
L 575.72365 308.649747 
L 577.620895 308.953336 
L 579.51814 309.105131 
L 581.415386 310.763198 
L 583.312631 310.82158 
L 585.209876 311.055111 
L 587.107121 310.926669 
L 589.004366 311.323671 
L 590.901612 311.942527 
L 598.490592 311.849115 
L 600.387837 311.919174 
L 602.285083 311.066787 
L 604.182328 311.253612 
L 606.079573 311.93085 
L 607.976818 311.872468 
L 609.874063 311.989233 
L 611.771309 312.327852 
L 613.668554 312.467971 
L 615.565799 312.456294 
L 617.463044 312.584736 
L 619.360289 312.152704 
L 621.257534 312.257793 
L 623.15478 311.195229 
L 625.052025 312.304499 
L 626.94927 311.206906 
L 628.846515 310.985052 
L 630.74376 312.316176 
L 636.435496 310.412902 
L 638.332741 309.595545 
L 640.229986 308.918307 
L 642.127231 308.6731 
L 644.024477 307.937478 
L 645.921722 306.828208 
L 647.818967 306.127617 
L 649.716212 305.590497 
L 651.613457 305.57882 
L 653.510702 304.656375 
L 655.407948 304.50458 
L 657.305193 303.675546 
L 659.202438 304.212667 
L 661.099683 304.562962 
L 662.996928 304.387815 
L 664.894174 304.387815 
L 666.791419 304.808169 
L 668.688664 304.831523 
L 670.585909 304.364461 
L 670.585909 304.364461 
" style="fill:none;stroke:#ff7f0e;stroke-linecap:square;stroke-width:1.5;"/>
   </g>
   <g id="line2d_15">
    <path clip-path="url(#p838fe18e6f)" d="M 107.104091 462.406242 
L 116.590317 462.406242 
L 118.487562 455.867387 
L 122.282052 455.867387 
L 129.871033 429.711969 
L 133.665523 403.55655 
L 137.460014 390.478841 
L 139.357259 390.478841 
L 141.254504 377.401132 
L 143.151749 370.862277 
L 145.048994 370.862277 
L 146.94624 364.323423 
L 150.74073 364.323423 
L 154.53522 377.401132 
L 156.432466 377.401132 
L 160.226956 390.478841 
L 162.124201 390.478841 
L 167.815937 410.095405 
L 179.199408 410.095405 
L 182.993898 423.173114 
L 184.891143 423.173114 
L 188.685634 436.250823 
L 192.480124 436.250823 
L 194.377369 442.789678 
L 198.17186 442.789678 
L 200.069105 449.328533 
L 207.658085 449.328533 
L 209.555331 455.867387 
L 217.144311 455.867387 
L 219.041556 462.406242 
L 222.836047 462.406242 
L 224.733292 455.867387 
L 226.630537 462.406242 
L 228.527782 455.867387 
L 234.219518 455.867387 
L 236.116763 449.328533 
L 239.911253 449.328533 
L 241.808499 442.789678 
L 245.602989 442.789678 
L 247.500234 436.250823 
L 249.397479 436.250823 
L 251.294725 429.711969 
L 255.089215 429.711969 
L 256.98646 423.173114 
L 258.883705 429.711969 
L 262.678196 416.63426 
L 264.575441 403.55655 
L 266.472686 397.017696 
L 268.369931 383.939987 
L 270.267176 377.401132 
L 274.061667 377.401132 
L 275.958912 383.939987 
L 277.856157 377.401132 
L 279.753402 377.401132 
L 285.445138 397.017696 
L 287.342383 397.017696 
L 293.034118 416.63426 
L 296.828609 416.63426 
L 298.725854 423.173114 
L 312.00657 423.173114 
L 313.903815 429.711969 
L 321.492796 429.711969 
L 323.390041 436.250823 
L 327.184532 436.250823 
L 329.081777 442.789678 
L 334.773512 442.789678 
L 336.670758 449.328533 
L 340.465248 449.328533 
L 342.362493 455.867387 
L 351.848719 455.867387 
L 353.745964 462.406242 
L 374.615661 462.406242 
L 376.512906 455.867387 
L 378.410152 455.867387 
L 380.307397 449.328533 
L 382.204642 449.328533 
L 384.101887 442.789678 
L 385.999132 442.789678 
L 387.896377 436.250823 
L 389.793623 436.250823 
L 395.485358 416.63426 
L 397.382603 416.63426 
L 401.177094 403.55655 
L 418.2523 403.55655 
L 420.149545 410.095405 
L 422.046791 410.095405 
L 423.944036 416.63426 
L 427.738526 416.63426 
L 429.635771 423.173114 
L 433.430262 423.173114 
L 435.327507 429.711969 
L 441.019242 429.711969 
L 442.916488 436.250823 
L 444.813733 436.250823 
L 446.710978 442.789678 
L 452.402713 442.789678 
L 454.299959 436.250823 
L 459.991694 436.250823 
L 461.888939 442.789678 
L 467.580675 442.789678 
L 469.47792 449.328533 
L 475.169656 449.328533 
L 477.066901 455.867387 
L 482.758636 455.867387 
L 484.655882 462.406242 
L 496.039353 462.406242 
L 497.936598 455.867387 
L 499.833843 455.867387 
L 501.731088 449.328533 
L 503.628333 449.328533 
L 507.422824 436.250823 
L 509.320069 436.250823 
L 511.217314 423.173114 
L 515.011804 423.173114 
L 518.806295 410.095405 
L 520.70354 397.017696 
L 522.600785 390.478841 
L 524.49803 377.401132 
L 526.395275 370.862277 
L 532.087011 370.862277 
L 537.778747 390.478841 
L 539.675992 390.478841 
L 541.573237 397.017696 
L 552.956708 397.017696 
L 562.442934 429.711969 
L 564.340179 429.711969 
L 566.237424 436.250823 
L 571.92916 436.250823 
L 573.826405 442.789678 
L 575.72365 442.789678 
L 577.620895 449.328533 
L 579.51814 449.328533 
L 581.415386 455.867387 
L 589.004366 455.867387 
L 590.901612 462.406242 
L 600.387837 462.406242 
L 602.285083 455.867387 
L 604.182328 455.867387 
L 606.079573 462.406242 
L 632.641006 462.406242 
L 634.538251 455.867387 
L 636.435496 455.867387 
L 638.332741 449.328533 
L 642.127231 449.328533 
L 644.024477 442.789678 
L 645.921722 442.789678 
L 647.818967 436.250823 
L 651.613457 436.250823 
L 653.510702 429.711969 
L 670.585909 429.711969 
L 670.585909 429.711969 
" style="fill:none;stroke:#2ca02c;stroke-linecap:square;stroke-width:1.5;"/>
   </g>
   <g id="line2d_16">
    <path clip-path="url(#p838fe18e6f)" d="M 107.104091 240.085185 
L 109.001336 233.546331 
L 114.693072 233.546331 
L 116.590317 239.758243 
L 118.487562 233.546331 
L 120.384807 240.085185 
L 122.282052 239.758243 
L 124.179298 240.085185 
L 129.871033 240.085185 
L 131.768278 246.62404 
L 137.460014 246.62404 
L 139.357259 253.162895 
L 164.021446 253.162895 
L 165.918691 246.62404 
L 184.891143 246.62404 
L 186.788388 240.085185 
L 213.349821 240.085185 
L 215.247066 239.758243 
L 222.836047 239.758243 
L 224.733292 233.546331 
L 226.630537 239.758243 
L 232.322273 239.758243 
L 234.219518 240.085185 
L 256.98646 240.085185 
L 258.883705 246.62404 
L 266.472686 246.62404 
L 268.369931 253.162895 
L 287.342383 253.162895 
L 289.239628 246.62404 
L 306.314835 246.62404 
L 308.21208 240.085185 
L 310.109325 246.62404 
L 312.00657 240.085185 
L 313.903815 246.62404 
L 315.801061 240.085185 
L 346.156983 240.085185 
L 348.054229 239.758243 
L 353.745964 239.758243 
L 355.643209 233.546331 
L 357.540455 239.758243 
L 359.4377 233.546331 
L 374.615661 233.546331 
L 376.512906 239.758243 
L 378.410152 240.085185 
L 393.588113 240.085185 
L 395.485358 246.62404 
L 431.533017 246.62404 
L 433.430262 240.085185 
L 478.964146 240.085185 
L 480.861391 239.758243 
L 482.758636 239.758243 
L 484.655882 240.085185 
L 486.553127 233.546331 
L 488.450372 239.758243 
L 490.347617 233.546331 
L 494.142107 233.546331 
L 496.039353 239.758243 
L 497.936598 239.758243 
L 499.833843 240.085185 
L 513.114559 240.085185 
L 515.011804 246.62404 
L 520.70354 246.62404 
L 522.600785 253.162895 
L 539.675992 253.162895 
L 541.573237 246.62404 
L 543.470482 253.162895 
L 545.367727 246.62404 
L 562.442934 246.62404 
L 564.340179 240.085185 
L 583.312631 240.085185 
L 585.209876 239.758243 
L 607.976818 239.758243 
L 609.874063 233.546331 
L 611.771309 233.546331 
L 613.668554 239.758243 
L 615.565799 233.546331 
L 632.641006 233.546331 
L 634.538251 239.758243 
L 636.435496 239.758243 
L 638.332741 240.085185 
L 670.585909 240.085185 
L 670.585909 240.085185 
" style="fill:none;stroke:#d62728;stroke-linecap:square;stroke-width:1.5;"/>
   </g>
   <g id="patch_3">
    <path d="M 78.93 804.96 
L 78.93 103.68 
" style="fill:none;stroke:#000000;stroke-linecap:square;stroke-linejoin:miter;stroke-width:0.8;"/>
   </g>
   <g id="patch_4">
    <path d="M 698.76 804.96 
L 698.76 103.68 
" style="fill:none;stroke:#000000;stroke-linecap:square;stroke-linejoin:miter;stroke-width:0.8;"/>
   </g>
   <g id="patch_5">
    <path d="M 78.93 804.96 
L 698.76 804.96 
" style="fill:none;stroke:#000000;stroke-linecap:square;stroke-linejoin:miter;stroke-width:0.8;"/>
   </g>
   <g id="patch_6">
    <path d="M 78.93 103.68 
L 698.76 103.68 
" style="fill:none;stroke:#000000;stroke-linecap:square;stroke-linejoin:miter;stroke-width:0.8;"/>
   </g>
   <g id="text_13">
    <!-- Plot of Train Data vs MCMC Uncertainty  -->
    <defs>
     <path d="M 19.671875 64.796875 
L 19.671875 37.40625 
L 32.078125 37.40625 
Q 38.96875 37.40625 42.71875 40.96875 
Q 46.484375 44.53125 46.484375 51.125 
Q 46.484375 57.671875 42.71875 61.234375 
Q 38.96875 64.796875 32.078125 64.796875 
z
M 9.8125 72.90625 
L 32.078125 72.90625 
Q 44.34375 72.90625 50.609375 67.359375 
Q 56.890625 61.8125 56.890625 51.125 
Q 56.890625 40.328125 50.609375 34.8125 
Q 44.34375 29.296875 32.078125 29.296875 
L 19.671875 29.296875 
L 19.671875 0 
L 9.8125 0 
z
" id="DejaVuSans-50"/>
     <path d="M 9.421875 75.984375 
L 18.40625 75.984375 
L 18.40625 0 
L 9.421875 0 
z
" id="DejaVuSans-6c"/>
     <path d="M 30.609375 48.390625 
Q 23.390625 48.390625 19.1875 42.75 
Q 14.984375 37.109375 14.984375 27.296875 
Q 14.984375 17.484375 19.15625 11.84375 
Q 23.34375 6.203125 30.609375 6.203125 
Q 37.796875 6.203125 41.984375 11.859375 
Q 46.1875 17.53125 46.1875 27.296875 
Q 46.1875 37.015625 41.984375 42.703125 
Q 37.796875 48.390625 30.609375 48.390625 
z
M 30.609375 56 
Q 42.328125 56 49.015625 48.375 
Q 55.71875 40.765625 55.71875 27.296875 
Q 55.71875 13.875 49.015625 6.21875 
Q 42.328125 -1.421875 30.609375 -1.421875 
Q 18.84375 -1.421875 12.171875 6.21875 
Q 5.515625 13.875 5.515625 27.296875 
Q 5.515625 40.765625 12.171875 48.375 
Q 18.84375 56 30.609375 56 
z
" id="DejaVuSans-6f"/>
     <path d="M 18.3125 70.21875 
L 18.3125 54.6875 
L 36.8125 54.6875 
L 36.8125 47.703125 
L 18.3125 47.703125 
L 18.3125 18.015625 
Q 18.3125 11.328125 20.140625 9.421875 
Q 21.96875 7.515625 27.59375 7.515625 
L 36.8125 7.515625 
L 36.8125 0 
L 27.59375 0 
Q 17.1875 0 13.234375 3.875 
Q 9.28125 7.765625 9.28125 18.015625 
L 9.28125 47.703125 
L 2.6875 47.703125 
L 2.6875 54.6875 
L 9.28125 54.6875 
L 9.28125 70.21875 
z
" id="DejaVuSans-74"/>
     <path id="DejaVuSans-20"/>
     <path d="M 37.109375 75.984375 
L 37.109375 68.5 
L 28.515625 68.5 
Q 23.6875 68.5 21.796875 66.546875 
Q 19.921875 64.59375 19.921875 59.515625 
L 19.921875 54.6875 
L 34.71875 54.6875 
L 34.71875 47.703125 
L 19.921875 47.703125 
L 19.921875 0 
L 10.890625 0 
L 10.890625 47.703125 
L 2.296875 47.703125 
L 2.296875 54.6875 
L 10.890625 54.6875 
L 10.890625 58.5 
Q 10.890625 67.625 15.140625 71.796875 
Q 19.390625 75.984375 28.609375 75.984375 
z
" id="DejaVuSans-66"/>
     <path d="M -0.296875 72.90625 
L 61.375 72.90625 
L 61.375 64.59375 
L 35.5 64.59375 
L 35.5 0 
L 25.59375 0 
L 25.59375 64.59375 
L -0.296875 64.59375 
z
" id="DejaVuSans-54"/>
     <path d="M 41.109375 46.296875 
Q 39.59375 47.171875 37.8125 47.578125 
Q 36.03125 48 33.890625 48 
Q 26.265625 48 22.1875 43.046875 
Q 18.109375 38.09375 18.109375 28.8125 
L 18.109375 0 
L 9.078125 0 
L 9.078125 54.6875 
L 18.109375 54.6875 
L 18.109375 46.1875 
Q 20.953125 51.171875 25.484375 53.578125 
Q 30.03125 56 36.53125 56 
Q 37.453125 56 38.578125 55.875 
Q 39.703125 55.765625 41.0625 55.515625 
z
" id="DejaVuSans-72"/>
     <path d="M 34.28125 27.484375 
Q 23.390625 27.484375 19.1875 25 
Q 14.984375 22.515625 14.984375 16.5 
Q 14.984375 11.71875 18.140625 8.90625 
Q 21.296875 6.109375 26.703125 6.109375 
Q 34.1875 6.109375 38.703125 11.40625 
Q 43.21875 16.703125 43.21875 25.484375 
L 43.21875 27.484375 
z
M 52.203125 31.203125 
L 52.203125 0 
L 43.21875 0 
L 43.21875 8.296875 
Q 40.140625 3.328125 35.546875 0.953125 
Q 30.953125 -1.421875 24.3125 -1.421875 
Q 15.921875 -1.421875 10.953125 3.296875 
Q 6 8.015625 6 15.921875 
Q 6 25.140625 12.171875 29.828125 
Q 18.359375 34.515625 30.609375 34.515625 
L 43.21875 34.515625 
L 43.21875 35.40625 
Q 43.21875 41.609375 39.140625 45 
Q 35.0625 48.390625 27.6875 48.390625 
Q 23 48.390625 18.546875 47.265625 
Q 14.109375 46.140625 10.015625 43.890625 
L 10.015625 52.203125 
Q 14.9375 54.109375 19.578125 55.046875 
Q 24.21875 56 28.609375 56 
Q 40.484375 56 46.34375 49.84375 
Q 52.203125 43.703125 52.203125 31.203125 
z
" id="DejaVuSans-61"/>
     <path d="M 9.421875 54.6875 
L 18.40625 54.6875 
L 18.40625 0 
L 9.421875 0 
z
M 9.421875 75.984375 
L 18.40625 75.984375 
L 18.40625 64.59375 
L 9.421875 64.59375 
z
" id="DejaVuSans-69"/>
     <path d="M 54.890625 33.015625 
L 54.890625 0 
L 45.90625 0 
L 45.90625 32.71875 
Q 45.90625 40.484375 42.875 44.328125 
Q 39.84375 48.1875 33.796875 48.1875 
Q 26.515625 48.1875 22.3125 43.546875 
Q 18.109375 38.921875 18.109375 30.90625 
L 18.109375 0 
L 9.078125 0 
L 9.078125 54.6875 
L 18.109375 54.6875 
L 18.109375 46.1875 
Q 21.34375 51.125 25.703125 53.5625 
Q 30.078125 56 35.796875 56 
Q 45.21875 56 50.046875 50.171875 
Q 54.890625 44.34375 54.890625 33.015625 
z
" id="DejaVuSans-6e"/>
     <path d="M 19.671875 64.796875 
L 19.671875 8.109375 
L 31.59375 8.109375 
Q 46.6875 8.109375 53.6875 14.9375 
Q 60.6875 21.78125 60.6875 36.53125 
Q 60.6875 51.171875 53.6875 57.984375 
Q 46.6875 64.796875 31.59375 64.796875 
z
M 9.8125 72.90625 
L 30.078125 72.90625 
Q 51.265625 72.90625 61.171875 64.09375 
Q 71.09375 55.28125 71.09375 36.53125 
Q 71.09375 17.671875 61.125 8.828125 
Q 51.171875 0 30.078125 0 
L 9.8125 0 
z
" id="DejaVuSans-44"/>
     <path d="M 2.984375 54.6875 
L 12.5 54.6875 
L 29.59375 8.796875 
L 46.6875 54.6875 
L 56.203125 54.6875 
L 35.6875 0 
L 23.484375 0 
z
" id="DejaVuSans-76"/>
     <path d="M 44.28125 53.078125 
L 44.28125 44.578125 
Q 40.484375 46.53125 36.375 47.5 
Q 32.28125 48.484375 27.875 48.484375 
Q 21.1875 48.484375 17.84375 46.4375 
Q 14.5 44.390625 14.5 40.28125 
Q 14.5 37.15625 16.890625 35.375 
Q 19.28125 33.59375 26.515625 31.984375 
L 29.59375 31.296875 
Q 39.15625 29.25 43.1875 25.515625 
Q 47.21875 21.78125 47.21875 15.09375 
Q 47.21875 7.46875 41.1875 3.015625 
Q 35.15625 -1.421875 24.609375 -1.421875 
Q 20.21875 -1.421875 15.453125 -0.5625 
Q 10.6875 0.296875 5.421875 2 
L 5.421875 11.28125 
Q 10.40625 8.6875 15.234375 7.390625 
Q 20.0625 6.109375 24.8125 6.109375 
Q 31.15625 6.109375 34.5625 8.28125 
Q 37.984375 10.453125 37.984375 14.40625 
Q 37.984375 18.0625 35.515625 20.015625 
Q 33.0625 21.96875 24.703125 23.78125 
L 21.578125 24.515625 
Q 13.234375 26.265625 9.515625 29.90625 
Q 5.8125 33.546875 5.8125 39.890625 
Q 5.8125 47.609375 11.28125 51.796875 
Q 16.75 56 26.8125 56 
Q 31.78125 56 36.171875 55.265625 
Q 40.578125 54.546875 44.28125 53.078125 
z
" id="DejaVuSans-73"/>
     <path d="M 9.8125 72.90625 
L 24.515625 72.90625 
L 43.109375 23.296875 
L 61.8125 72.90625 
L 76.515625 72.90625 
L 76.515625 0 
L 66.890625 0 
L 66.890625 64.015625 
L 48.09375 14.015625 
L 38.1875 14.015625 
L 19.390625 64.015625 
L 19.390625 0 
L 9.8125 0 
z
" id="DejaVuSans-4d"/>
     <path d="M 64.40625 67.28125 
L 64.40625 56.890625 
Q 59.421875 61.53125 53.78125 63.8125 
Q 48.140625 66.109375 41.796875 66.109375 
Q 29.296875 66.109375 22.65625 58.46875 
Q 16.015625 50.828125 16.015625 36.375 
Q 16.015625 21.96875 22.65625 14.328125 
Q 29.296875 6.6875 41.796875 6.6875 
Q 48.140625 6.6875 53.78125 8.984375 
Q 59.421875 11.28125 64.40625 15.921875 
L 64.40625 5.609375 
Q 59.234375 2.09375 53.4375 0.328125 
Q 47.65625 -1.421875 41.21875 -1.421875 
Q 24.65625 -1.421875 15.125 8.703125 
Q 5.609375 18.84375 5.609375 36.375 
Q 5.609375 53.953125 15.125 64.078125 
Q 24.65625 74.21875 41.21875 74.21875 
Q 47.75 74.21875 53.53125 72.484375 
Q 59.328125 70.75 64.40625 67.28125 
z
" id="DejaVuSans-43"/>
     <path d="M 8.6875 72.90625 
L 18.609375 72.90625 
L 18.609375 28.609375 
Q 18.609375 16.890625 22.84375 11.734375 
Q 27.09375 6.59375 36.625 6.59375 
Q 46.09375 6.59375 50.34375 11.734375 
Q 54.59375 16.890625 54.59375 28.609375 
L 54.59375 72.90625 
L 64.5 72.90625 
L 64.5 27.390625 
Q 64.5 13.140625 57.4375 5.859375 
Q 50.390625 -1.421875 36.625 -1.421875 
Q 22.796875 -1.421875 15.734375 5.859375 
Q 8.6875 13.140625 8.6875 27.390625 
z
" id="DejaVuSans-55"/>
     <path d="M 48.78125 52.59375 
L 48.78125 44.1875 
Q 44.96875 46.296875 41.140625 47.34375 
Q 37.3125 48.390625 33.40625 48.390625 
Q 24.65625 48.390625 19.8125 42.84375 
Q 14.984375 37.3125 14.984375 27.296875 
Q 14.984375 17.28125 19.8125 11.734375 
Q 24.65625 6.203125 33.40625 6.203125 
Q 37.3125 6.203125 41.140625 7.25 
Q 44.96875 8.296875 48.78125 10.40625 
L 48.78125 2.09375 
Q 45.015625 0.34375 40.984375 -0.53125 
Q 36.96875 -1.421875 32.421875 -1.421875 
Q 20.0625 -1.421875 12.78125 6.34375 
Q 5.515625 14.109375 5.515625 27.296875 
Q 5.515625 40.671875 12.859375 48.328125 
Q 20.21875 56 33.015625 56 
Q 37.15625 56 41.109375 55.140625 
Q 45.0625 54.296875 48.78125 52.59375 
z
" id="DejaVuSans-63"/>
     <path d="M 56.203125 29.59375 
L 56.203125 25.203125 
L 14.890625 25.203125 
Q 15.484375 15.921875 20.484375 11.0625 
Q 25.484375 6.203125 34.421875 6.203125 
Q 39.59375 6.203125 44.453125 7.46875 
Q 49.3125 8.734375 54.109375 11.28125 
L 54.109375 2.78125 
Q 49.265625 0.734375 44.1875 -0.34375 
Q 39.109375 -1.421875 33.890625 -1.421875 
Q 20.796875 -1.421875 13.15625 6.1875 
Q 5.515625 13.8125 5.515625 26.8125 
Q 5.515625 40.234375 12.765625 48.109375 
Q 20.015625 56 32.328125 56 
Q 43.359375 56 49.78125 48.890625 
Q 56.203125 41.796875 56.203125 29.59375 
z
M 47.21875 32.234375 
Q 47.125 39.59375 43.09375 43.984375 
Q 39.0625 48.390625 32.421875 48.390625 
Q 24.90625 48.390625 20.390625 44.140625 
Q 15.875 39.890625 15.1875 32.171875 
z
" id="DejaVuSans-65"/>
     <path d="M 32.171875 -5.078125 
Q 28.375 -14.84375 24.75 -17.8125 
Q 21.140625 -20.796875 15.09375 -20.796875 
L 7.90625 -20.796875 
L 7.90625 -13.28125 
L 13.1875 -13.28125 
Q 16.890625 -13.28125 18.9375 -11.515625 
Q 21 -9.765625 23.484375 -3.21875 
L 25.09375 0.875 
L 2.984375 54.6875 
L 12.5 54.6875 
L 29.59375 11.921875 
L 46.6875 54.6875 
L 56.203125 54.6875 
z
" id="DejaVuSans-79"/>
    </defs>
    <g transform="translate(268.351875 97.68)scale(0.12 -0.12)">
     <use xlink:href="#DejaVuSans-50"/>
     <use x="60.302734" xlink:href="#DejaVuSans-6c"/>
     <use x="88.085938" xlink:href="#DejaVuSans-6f"/>
     <use x="149.267578" xlink:href="#DejaVuSans-74"/>
     <use x="188.476562" xlink:href="#DejaVuSans-20"/>
     <use x="220.263672" xlink:href="#DejaVuSans-6f"/>
     <use x="281.445312" xlink:href="#DejaVuSans-66"/>
     <use x="316.650391" xlink:href="#DejaVuSans-20"/>
     <use x="348.4375" xlink:href="#DejaVuSans-54"/>
     <use x="409.302734" xlink:href="#DejaVuSans-72"/>
     <use x="450.416016" xlink:href="#DejaVuSans-61"/>
     <use x="511.695312" xlink:href="#DejaVuSans-69"/>
     <use x="539.478516" xlink:href="#DejaVuSans-6e"/>
     <use x="602.857422" xlink:href="#DejaVuSans-20"/>
     <use x="634.644531" xlink:href="#DejaVuSans-44"/>
     <use x="711.646484" xlink:href="#DejaVuSans-61"/>
     <use x="772.925781" xlink:href="#DejaVuSans-74"/>
     <use x="812.134766" xlink:href="#DejaVuSans-61"/>
     <use x="873.414062" xlink:href="#DejaVuSans-20"/>
     <use x="905.201172" xlink:href="#DejaVuSans-76"/>
     <use x="964.380859" xlink:href="#DejaVuSans-73"/>
     <use x="1016.480469" xlink:href="#DejaVuSans-20"/>
     <use x="1048.267578" xlink:href="#DejaVuSans-4d"/>
     <use x="1134.546875" xlink:href="#DejaVuSans-43"/>
     <use x="1204.371094" xlink:href="#DejaVuSans-4d"/>
     <use x="1290.650391" xlink:href="#DejaVuSans-43"/>
     <use x="1360.474609" xlink:href="#DejaVuSans-20"/>
     <use x="1392.261719" xlink:href="#DejaVuSans-55"/>
     <use x="1465.455078" xlink:href="#DejaVuSans-6e"/>
     <use x="1528.833984" xlink:href="#DejaVuSans-63"/>
     <use x="1583.814453" xlink:href="#DejaVuSans-65"/>
     <use x="1645.337891" xlink:href="#DejaVuSans-72"/>
     <use x="1686.451172" xlink:href="#DejaVuSans-74"/>
     <use x="1725.660156" xlink:href="#DejaVuSans-61"/>
     <use x="1786.939453" xlink:href="#DejaVuSans-69"/>
     <use x="1814.722656" xlink:href="#DejaVuSans-6e"/>
     <use x="1878.101562" xlink:href="#DejaVuSans-74"/>
     <use x="1917.310547" xlink:href="#DejaVuSans-79"/>
     <use x="1976.490234" xlink:href="#DejaVuSans-20"/>
    </g>
   </g>
   <g id="legend_1">
    <g id="patch_7">
     <path d="M 561.883437 170.3925 
L 691.76 170.3925 
Q 693.76 170.3925 693.76 168.3925 
L 693.76 110.68 
Q 693.76 108.68 691.76 108.68 
L 561.883437 108.68 
Q 559.883437 108.68 559.883437 110.68 
L 559.883437 168.3925 
Q 559.883437 170.3925 561.883437 170.3925 
z
" style="fill:#ffffff;opacity:0.8;stroke:#cccccc;stroke-linejoin:miter;"/>
    </g>
    <g id="line2d_17">
     <path d="M 563.883437 116.778437 
L 583.883437 116.778437 
" style="fill:none;stroke:#1f77b4;stroke-linecap:square;stroke-width:1.5;"/>
    </g>
    <g id="line2d_18"/>
    <g id="text_14">
     <!-- actual -->
     <defs>
      <path d="M 8.5 21.578125 
L 8.5 54.6875 
L 17.484375 54.6875 
L 17.484375 21.921875 
Q 17.484375 14.15625 20.5 10.265625 
Q 23.53125 6.390625 29.59375 6.390625 
Q 36.859375 6.390625 41.078125 11.03125 
Q 45.3125 15.671875 45.3125 23.6875 
L 45.3125 54.6875 
L 54.296875 54.6875 
L 54.296875 0 
L 45.3125 0 
L 45.3125 8.40625 
Q 42.046875 3.421875 37.71875 1 
Q 33.40625 -1.421875 27.6875 -1.421875 
Q 18.265625 -1.421875 13.375 4.4375 
Q 8.5 10.296875 8.5 21.578125 
z
M 31.109375 56 
z
" id="DejaVuSans-75"/>
     </defs>
     <g transform="translate(591.883437 120.278437)scale(0.1 -0.1)">
      <use xlink:href="#DejaVuSans-61"/>
      <use x="61.279297" xlink:href="#DejaVuSans-63"/>
      <use x="116.259766" xlink:href="#DejaVuSans-74"/>
      <use x="155.46875" xlink:href="#DejaVuSans-75"/>
      <use x="218.847656" xlink:href="#DejaVuSans-61"/>
      <use x="280.126953" xlink:href="#DejaVuSans-6c"/>
     </g>
    </g>
    <g id="line2d_19">
     <path d="M 563.883437 131.456562 
L 583.883437 131.456562 
" style="fill:none;stroke:#ff7f0e;stroke-linecap:square;stroke-width:1.5;"/>
    </g>
    <g id="line2d_20"/>
    <g id="text_15">
     <!-- pred. (mean) -->
     <defs>
      <path d="M 18.109375 8.203125 
L 18.109375 -20.796875 
L 9.078125 -20.796875 
L 9.078125 54.6875 
L 18.109375 54.6875 
L 18.109375 46.390625 
Q 20.953125 51.265625 25.265625 53.625 
Q 29.59375 56 35.59375 56 
Q 45.5625 56 51.78125 48.09375 
Q 58.015625 40.1875 58.015625 27.296875 
Q 58.015625 14.40625 51.78125 6.484375 
Q 45.5625 -1.421875 35.59375 -1.421875 
Q 29.59375 -1.421875 25.265625 0.953125 
Q 20.953125 3.328125 18.109375 8.203125 
z
M 48.6875 27.296875 
Q 48.6875 37.203125 44.609375 42.84375 
Q 40.53125 48.484375 33.40625 48.484375 
Q 26.265625 48.484375 22.1875 42.84375 
Q 18.109375 37.203125 18.109375 27.296875 
Q 18.109375 17.390625 22.1875 11.75 
Q 26.265625 6.109375 33.40625 6.109375 
Q 40.53125 6.109375 44.609375 11.75 
Q 48.6875 17.390625 48.6875 27.296875 
z
" id="DejaVuSans-70"/>
      <path d="M 45.40625 46.390625 
L 45.40625 75.984375 
L 54.390625 75.984375 
L 54.390625 0 
L 45.40625 0 
L 45.40625 8.203125 
Q 42.578125 3.328125 38.25 0.953125 
Q 33.9375 -1.421875 27.875 -1.421875 
Q 17.96875 -1.421875 11.734375 6.484375 
Q 5.515625 14.40625 5.515625 27.296875 
Q 5.515625 40.1875 11.734375 48.09375 
Q 17.96875 56 27.875 56 
Q 33.9375 56 38.25 53.625 
Q 42.578125 51.265625 45.40625 46.390625 
z
M 14.796875 27.296875 
Q 14.796875 17.390625 18.875 11.75 
Q 22.953125 6.109375 30.078125 6.109375 
Q 37.203125 6.109375 41.296875 11.75 
Q 45.40625 17.390625 45.40625 27.296875 
Q 45.40625 37.203125 41.296875 42.84375 
Q 37.203125 48.484375 30.078125 48.484375 
Q 22.953125 48.484375 18.875 42.84375 
Q 14.796875 37.203125 14.796875 27.296875 
z
" id="DejaVuSans-64"/>
      <path d="M 31 75.875 
Q 24.46875 64.65625 21.28125 53.65625 
Q 18.109375 42.671875 18.109375 31.390625 
Q 18.109375 20.125 21.3125 9.0625 
Q 24.515625 -2 31 -13.1875 
L 23.1875 -13.1875 
Q 15.875 -1.703125 12.234375 9.375 
Q 8.59375 20.453125 8.59375 31.390625 
Q 8.59375 42.28125 12.203125 53.3125 
Q 15.828125 64.359375 23.1875 75.875 
z
" id="DejaVuSans-28"/>
      <path d="M 52 44.1875 
Q 55.375 50.25 60.0625 53.125 
Q 64.75 56 71.09375 56 
Q 79.640625 56 84.28125 50.015625 
Q 88.921875 44.046875 88.921875 33.015625 
L 88.921875 0 
L 79.890625 0 
L 79.890625 32.71875 
Q 79.890625 40.578125 77.09375 44.375 
Q 74.3125 48.1875 68.609375 48.1875 
Q 61.625 48.1875 57.5625 43.546875 
Q 53.515625 38.921875 53.515625 30.90625 
L 53.515625 0 
L 44.484375 0 
L 44.484375 32.71875 
Q 44.484375 40.625 41.703125 44.40625 
Q 38.921875 48.1875 33.109375 48.1875 
Q 26.21875 48.1875 22.15625 43.53125 
Q 18.109375 38.875 18.109375 30.90625 
L 18.109375 0 
L 9.078125 0 
L 9.078125 54.6875 
L 18.109375 54.6875 
L 18.109375 46.1875 
Q 21.1875 51.21875 25.484375 53.609375 
Q 29.78125 56 35.6875 56 
Q 41.65625 56 45.828125 52.96875 
Q 50 49.953125 52 44.1875 
z
" id="DejaVuSans-6d"/>
      <path d="M 8.015625 75.875 
L 15.828125 75.875 
Q 23.140625 64.359375 26.78125 53.3125 
Q 30.421875 42.28125 30.421875 31.390625 
Q 30.421875 20.453125 26.78125 9.375 
Q 23.140625 -1.703125 15.828125 -13.1875 
L 8.015625 -13.1875 
Q 14.5 -2 17.703125 9.0625 
Q 20.90625 20.125 20.90625 31.390625 
Q 20.90625 42.671875 17.703125 53.65625 
Q 14.5 64.65625 8.015625 75.875 
z
" id="DejaVuSans-29"/>
     </defs>
     <g transform="translate(591.883437 134.956562)scale(0.1 -0.1)">
      <use xlink:href="#DejaVuSans-70"/>
      <use x="63.476562" xlink:href="#DejaVuSans-72"/>
      <use x="104.558594" xlink:href="#DejaVuSans-65"/>
      <use x="166.082031" xlink:href="#DejaVuSans-64"/>
      <use x="229.558594" xlink:href="#DejaVuSans-2e"/>
      <use x="261.345703" xlink:href="#DejaVuSans-20"/>
      <use x="293.132812" xlink:href="#DejaVuSans-28"/>
      <use x="332.146484" xlink:href="#DejaVuSans-6d"/>
      <use x="429.558594" xlink:href="#DejaVuSans-65"/>
      <use x="491.082031" xlink:href="#DejaVuSans-61"/>
      <use x="552.361328" xlink:href="#DejaVuSans-6e"/>
      <use x="615.740234" xlink:href="#DejaVuSans-29"/>
     </g>
    </g>
    <g id="line2d_21">
     <path d="M 563.883437 146.134687 
L 583.883437 146.134687 
" style="fill:none;stroke:#2ca02c;stroke-linecap:square;stroke-width:1.5;"/>
    </g>
    <g id="line2d_22"/>
    <g id="text_16">
     <!-- pred.(5th percen.) -->
     <defs>
      <path d="M 10.796875 72.90625 
L 49.515625 72.90625 
L 49.515625 64.59375 
L 19.828125 64.59375 
L 19.828125 46.734375 
Q 21.96875 47.46875 24.109375 47.828125 
Q 26.265625 48.1875 28.421875 48.1875 
Q 40.625 48.1875 47.75 41.5 
Q 54.890625 34.8125 54.890625 23.390625 
Q 54.890625 11.625 47.5625 5.09375 
Q 40.234375 -1.421875 26.90625 -1.421875 
Q 22.3125 -1.421875 17.546875 -0.640625 
Q 12.796875 0.140625 7.71875 1.703125 
L 7.71875 11.625 
Q 12.109375 9.234375 16.796875 8.0625 
Q 21.484375 6.890625 26.703125 6.890625 
Q 35.15625 6.890625 40.078125 11.328125 
Q 45.015625 15.765625 45.015625 23.390625 
Q 45.015625 31 40.078125 35.4375 
Q 35.15625 39.890625 26.703125 39.890625 
Q 22.75 39.890625 18.8125 39.015625 
Q 14.890625 38.140625 10.796875 36.28125 
z
" id="DejaVuSans-35"/>
      <path d="M 54.890625 33.015625 
L 54.890625 0 
L 45.90625 0 
L 45.90625 32.71875 
Q 45.90625 40.484375 42.875 44.328125 
Q 39.84375 48.1875 33.796875 48.1875 
Q 26.515625 48.1875 22.3125 43.546875 
Q 18.109375 38.921875 18.109375 30.90625 
L 18.109375 0 
L 9.078125 0 
L 9.078125 75.984375 
L 18.109375 75.984375 
L 18.109375 46.1875 
Q 21.34375 51.125 25.703125 53.5625 
Q 30.078125 56 35.796875 56 
Q 45.21875 56 50.046875 50.171875 
Q 54.890625 44.34375 54.890625 33.015625 
z
" id="DejaVuSans-68"/>
     </defs>
     <g transform="translate(591.883437 149.634687)scale(0.1 -0.1)">
      <use xlink:href="#DejaVuSans-70"/>
      <use x="63.476562" xlink:href="#DejaVuSans-72"/>
      <use x="104.558594" xlink:href="#DejaVuSans-65"/>
      <use x="166.082031" xlink:href="#DejaVuSans-64"/>
      <use x="229.558594" xlink:href="#DejaVuSans-2e"/>
      <use x="261.345703" xlink:href="#DejaVuSans-28"/>
      <use x="300.359375" xlink:href="#DejaVuSans-35"/>
      <use x="363.982422" xlink:href="#DejaVuSans-74"/>
      <use x="403.191406" xlink:href="#DejaVuSans-68"/>
      <use x="466.570312" xlink:href="#DejaVuSans-20"/>
      <use x="498.357422" xlink:href="#DejaVuSans-70"/>
      <use x="561.833984" xlink:href="#DejaVuSans-65"/>
      <use x="623.357422" xlink:href="#DejaVuSans-72"/>
      <use x="664.439453" xlink:href="#DejaVuSans-63"/>
      <use x="719.419922" xlink:href="#DejaVuSans-65"/>
      <use x="780.943359" xlink:href="#DejaVuSans-6e"/>
      <use x="844.322266" xlink:href="#DejaVuSans-2e"/>
      <use x="876.109375" xlink:href="#DejaVuSans-29"/>
     </g>
    </g>
    <g id="line2d_23">
     <path d="M 563.883437 160.812812 
L 583.883437 160.812812 
" style="fill:none;stroke:#d62728;stroke-linecap:square;stroke-width:1.5;"/>
    </g>
    <g id="line2d_24"/>
    <g id="text_17">
     <!-- pred.(95th percen.) -->
     <defs>
      <path d="M 10.984375 1.515625 
L 10.984375 10.5 
Q 14.703125 8.734375 18.5 7.8125 
Q 22.3125 6.890625 25.984375 6.890625 
Q 35.75 6.890625 40.890625 13.453125 
Q 46.046875 20.015625 46.78125 33.40625 
Q 43.953125 29.203125 39.59375 26.953125 
Q 35.25 24.703125 29.984375 24.703125 
Q 19.046875 24.703125 12.671875 31.3125 
Q 6.296875 37.9375 6.296875 49.421875 
Q 6.296875 60.640625 12.9375 67.421875 
Q 19.578125 74.21875 30.609375 74.21875 
Q 43.265625 74.21875 49.921875 64.515625 
Q 56.59375 54.828125 56.59375 36.375 
Q 56.59375 19.140625 48.40625 8.859375 
Q 40.234375 -1.421875 26.421875 -1.421875 
Q 22.703125 -1.421875 18.890625 -0.6875 
Q 15.09375 0.046875 10.984375 1.515625 
z
M 30.609375 32.421875 
Q 37.25 32.421875 41.125 36.953125 
Q 45.015625 41.5 45.015625 49.421875 
Q 45.015625 57.28125 41.125 61.84375 
Q 37.25 66.40625 30.609375 66.40625 
Q 23.96875 66.40625 20.09375 61.84375 
Q 16.21875 57.28125 16.21875 49.421875 
Q 16.21875 41.5 20.09375 36.953125 
Q 23.96875 32.421875 30.609375 32.421875 
z
" id="DejaVuSans-39"/>
     </defs>
     <g transform="translate(591.883437 164.312812)scale(0.1 -0.1)">
      <use xlink:href="#DejaVuSans-70"/>
      <use x="63.476562" xlink:href="#DejaVuSans-72"/>
      <use x="104.558594" xlink:href="#DejaVuSans-65"/>
      <use x="166.082031" xlink:href="#DejaVuSans-64"/>
      <use x="229.558594" xlink:href="#DejaVuSans-2e"/>
      <use x="261.345703" xlink:href="#DejaVuSans-28"/>
      <use x="300.359375" xlink:href="#DejaVuSans-39"/>
      <use x="363.982422" xlink:href="#DejaVuSans-35"/>
      <use x="427.605469" xlink:href="#DejaVuSans-74"/>
      <use x="466.814453" xlink:href="#DejaVuSans-68"/>
      <use x="530.193359" xlink:href="#DejaVuSans-20"/>
      <use x="561.980469" xlink:href="#DejaVuSans-70"/>
      <use x="625.457031" xlink:href="#DejaVuSans-65"/>
      <use x="686.980469" xlink:href="#DejaVuSans-72"/>
      <use x="728.0625" xlink:href="#DejaVuSans-63"/>
      <use x="783.042969" xlink:href="#DejaVuSans-65"/>
      <use x="844.566406" xlink:href="#DejaVuSans-6e"/>
      <use x="907.945312" xlink:href="#DejaVuSans-2e"/>
      <use x="939.732422" xlink:href="#DejaVuSans-29"/>
     </g>
    </g>
   </g>
  </g>
 </g>
 <defs>
  <clipPath id="p838fe18e6f">
   <rect height="701.28" width="619.83" x="78.93" y="103.68"/>
  </clipPath>
 </defs>
</svg>
