<?xml version="1.0" encoding="utf-8" standalone="no"?>
<!DOCTYPE svg PUBLIC "-//W3C//DTD SVG 1.1//EN"
  "http://www.w3.org/Graphics/SVG/1.1/DTD/svg11.dtd">
<!-- Created with matplotlib (http://matplotlib.org/) -->
<svg height="345.6pt" version="1.1" viewBox="0 0 460.8 345.6" width="460.8pt" xmlns="http://www.w3.org/2000/svg" xmlns:xlink="http://www.w3.org/1999/xlink">
 <defs>
  <style type="text/css">
*{stroke-linecap:butt;stroke-linejoin:round;}
  </style>
 </defs>
 <g id="figure_1">
  <g id="patch_1">
   <path d="M 0 345.6 
L 460.8 345.6 
L 460.8 0 
L 0 0 
z
" style="fill:#ffffff;"/>
  </g>
  <g id="axes_1">
   <g id="patch_2">
    <path d="M 57.6 307.584 
L 414.72 307.584 
L 414.72 41.472 
L 57.6 41.472 
z
" style="fill:#ffffff;"/>
   </g>
   <g id="PolyCollection_1">
    <path clip-path="url(#pbd2d5223c8)" d="M 73.832727 59.311876 
L 73.832727 71.517613 
L 75.48072 71.517613 
L 77.128713 71.517613 
L 78.776705 71.517613 
L 80.424698 71.517613 
L 82.07269 71.517613 
L 83.720683 71.517613 
L 85.368676 68.645675 
L 87.016668 68.645675 
L 88.664661 68.645675 
L 90.312653 68.645675 
L 91.960646 68.645675 
L 93.608639 68.645675 
L 95.256631 68.645675 
L 96.904624 68.645675 
L 98.552617 68.645675 
L 100.200609 68.645675 
L 101.848602 68.645675 
L 103.496594 68.645675 
L 105.144587 65.773737 
L 106.79258 65.773737 
L 108.440572 65.773737 
L 110.088565 65.773737 
L 111.736557 65.773737 
L 113.38455 65.773737 
L 115.032543 65.773737 
L 116.680535 65.773737 
L 118.328528 65.773737 
L 119.976521 65.773737 
L 121.624513 65.773737 
L 123.272506 65.773737 
L 124.920498 65.773737 
L 126.568491 65.773737 
L 128.216484 65.773737 
L 129.864476 65.773737 
L 131.512469 65.773737 
L 133.160461 65.773737 
L 134.808454 65.773737 
L 136.456447 65.773737 
L 138.104439 65.773737 
L 139.752432 65.773737 
L 141.400425 65.773737 
L 143.048417 65.773737 
L 144.69641 65.773737 
L 146.344402 65.773737 
L 147.992395 65.773737 
L 149.640388 65.773737 
L 151.28838 68.645675 
L 152.936373 68.645675 
L 154.584365 68.645675 
L 156.232358 68.645675 
L 157.880351 68.645675 
L 159.528343 68.645675 
L 161.176336 71.517613 
L 162.824329 71.517613 
L 164.472321 71.517613 
L 166.120314 71.517613 
L 167.768306 71.517613 
L 169.416299 71.517613 
L 171.064292 71.517613 
L 172.712284 71.517613 
L 174.360277 71.517613 
L 176.008269 71.517613 
L 177.656262 71.517613 
L 179.304255 71.517613 
L 180.952247 71.517613 
L 182.60024 71.517613 
L 184.248233 71.517613 
L 185.896225 71.517613 
L 187.544218 71.517613 
L 189.19221 71.517613 
L 190.840203 71.517613 
L 192.488196 71.517613 
L 194.136188 68.645675 
L 195.784181 68.645675 
L 197.432174 68.645675 
L 199.080166 68.645675 
L 200.728159 68.645675 
L 202.376151 68.645675 
L 204.024144 68.645675 
L 205.672137 68.645675 
L 207.320129 68.645675 
L 208.968122 68.645675 
L 210.616114 68.645675 
L 212.264107 68.645675 
L 213.9121 65.773737 
L 215.560092 68.645675 
L 217.208085 68.645675 
L 218.856078 68.645675 
L 220.50407 65.773737 
L 222.152063 68.645675 
L 223.800055 68.645675 
L 225.448048 65.773737 
L 227.096041 65.773737 
L 228.744033 65.773737 
L 230.392026 65.773737 
L 232.040018 65.773737 
L 233.688011 65.773737 
L 235.336004 65.773737 
L 236.983996 65.773737 
L 238.631989 65.773737 
L 240.279982 65.773737 
L 241.927974 65.773737 
L 243.575967 65.773737 
L 245.223959 65.773737 
L 246.871952 65.773737 
L 248.519945 65.773737 
L 250.167937 65.773737 
L 251.81593 65.773737 
L 253.463922 65.773737 
L 255.111915 65.773737 
L 256.759908 65.773737 
L 258.4079 65.773737 
L 260.055893 65.773737 
L 261.703886 65.773737 
L 263.351878 65.773737 
L 264.999871 65.773737 
L 266.647863 65.773737 
L 268.295856 65.773737 
L 269.943849 65.773737 
L 271.591841 65.773737 
L 273.239834 68.645675 
L 274.887826 68.645675 
L 276.535819 68.645675 
L 278.183812 68.645675 
L 279.831804 68.645675 
L 281.479797 68.645675 
L 283.12779 68.645675 
L 284.775782 68.645675 
L 286.423775 68.645675 
L 288.071767 68.645675 
L 289.71976 68.645675 
L 291.367753 68.645675 
L 293.015745 71.517613 
L 294.663738 68.645675 
L 296.311731 71.517613 
L 297.959723 71.517613 
L 299.607716 71.517613 
L 301.255708 68.645675 
L 302.903701 68.645675 
L 304.551694 71.517613 
L 306.199686 68.645675 
L 307.847679 68.645675 
L 309.495671 68.645675 
L 311.143664 68.645675 
L 312.791657 68.645675 
L 314.439649 68.645675 
L 316.087642 68.645675 
L 317.735635 68.645675 
L 319.383627 68.645675 
L 321.03162 68.645675 
L 322.679612 68.645675 
L 324.327605 68.645675 
L 325.975598 68.645675 
L 327.62359 68.645675 
L 329.271583 68.645675 
L 330.919575 68.645675 
L 332.567568 68.645675 
L 334.215561 68.645675 
L 335.863553 68.645675 
L 337.511546 68.645675 
L 339.159539 65.773737 
L 340.807531 65.773737 
L 342.455524 65.773737 
L 344.103516 65.773737 
L 345.751509 65.773737 
L 347.399502 65.773737 
L 349.047494 65.773737 
L 350.695487 65.773737 
L 352.343479 65.773737 
L 353.991472 65.773737 
L 355.639465 65.773737 
L 357.287457 65.773737 
L 358.93545 65.773737 
L 360.583443 65.773737 
L 362.231435 65.773737 
L 363.879428 65.773737 
L 365.52742 65.773737 
L 367.175413 65.773737 
L 368.823406 65.773737 
L 370.471398 65.773737 
L 372.119391 65.773737 
L 373.767383 65.773737 
L 375.415376 65.773737 
L 377.063369 65.773737 
L 378.711361 65.773737 
L 380.359354 65.773737 
L 382.007347 65.773737 
L 383.655339 65.773737 
L 385.303332 68.645675 
L 386.951324 68.645675 
L 388.599317 68.645675 
L 390.24731 68.645675 
L 391.895302 68.645675 
L 393.543295 68.645675 
L 395.191287 68.645675 
L 396.83928 68.645675 
L 398.487273 68.645675 
L 398.487273 59.311876 
L 398.487273 59.311876 
L 396.83928 59.311876 
L 395.191287 59.311876 
L 393.543295 59.311876 
L 391.895302 57.157923 
L 390.24731 57.157923 
L 388.599317 57.157923 
L 386.951324 56.439938 
L 385.303332 56.439938 
L 383.655339 54.285985 
L 382.007347 54.285985 
L 380.359354 54.285985 
L 378.711361 53.568 
L 377.063369 53.568 
L 375.415376 53.568 
L 373.767383 53.568 
L 372.119391 53.568 
L 370.471398 53.568 
L 368.823406 53.568 
L 367.175413 53.568 
L 365.52742 53.568 
L 363.879428 53.568 
L 362.231435 53.568 
L 360.583443 53.568 
L 358.93545 53.568 
L 357.287457 53.568 
L 355.639465 53.568 
L 353.991472 53.568 
L 352.343479 53.568 
L 350.695487 53.568 
L 349.047494 54.285985 
L 347.399502 54.285985 
L 345.751509 54.285985 
L 344.103516 54.285985 
L 342.455524 54.285985 
L 340.807531 54.285985 
L 339.159539 56.439938 
L 337.511546 56.439938 
L 335.863553 56.439938 
L 334.215561 56.439938 
L 332.567568 56.439938 
L 330.919575 57.157923 
L 329.271583 57.157923 
L 327.62359 57.157923 
L 325.975598 57.157923 
L 324.327605 57.157923 
L 322.679612 57.157923 
L 321.03162 57.157923 
L 319.383627 57.157923 
L 317.735635 57.157923 
L 316.087642 57.157923 
L 314.439649 57.157923 
L 312.791657 59.311876 
L 311.143664 59.311876 
L 309.495671 59.311876 
L 307.847679 59.311876 
L 306.199686 59.311876 
L 304.551694 59.311876 
L 302.903701 59.311876 
L 301.255708 59.311876 
L 299.607716 59.311876 
L 297.959723 59.311876 
L 296.311731 59.311876 
L 294.663738 59.311876 
L 293.015745 59.311876 
L 291.367753 59.311876 
L 289.71976 59.311876 
L 288.071767 57.157923 
L 286.423775 57.157923 
L 284.775782 57.157923 
L 283.12779 57.157923 
L 281.479797 57.157923 
L 279.831804 57.157923 
L 278.183812 56.439938 
L 276.535819 56.439938 
L 274.887826 56.439938 
L 273.239834 56.439938 
L 271.591841 54.285985 
L 269.943849 54.285985 
L 268.295856 54.285985 
L 266.647863 54.285985 
L 264.999871 54.285985 
L 263.351878 53.568 
L 261.703886 53.568 
L 260.055893 53.568 
L 258.4079 53.568 
L 256.759908 53.568 
L 255.111915 53.568 
L 253.463922 53.568 
L 251.81593 53.568 
L 250.167937 53.568 
L 248.519945 53.568 
L 246.871952 53.568 
L 245.223959 53.568 
L 243.575967 53.568 
L 241.927974 54.285985 
L 240.279982 54.285985 
L 238.631989 54.285985 
L 236.983996 54.285985 
L 235.336004 54.285985 
L 233.688011 54.285985 
L 232.040018 54.285985 
L 230.392026 54.285985 
L 228.744033 54.285985 
L 227.096041 54.285985 
L 225.448048 54.285985 
L 223.800055 56.439938 
L 222.152063 56.439938 
L 220.50407 56.439938 
L 218.856078 56.439938 
L 217.208085 56.439938 
L 215.560092 56.439938 
L 213.9121 56.439938 
L 212.264107 56.439938 
L 210.616114 56.439938 
L 208.968122 56.439938 
L 207.320129 56.439938 
L 205.672137 56.439938 
L 204.024144 57.157923 
L 202.376151 57.157923 
L 200.728159 57.157923 
L 199.080166 57.157923 
L 197.432174 57.157923 
L 195.784181 59.311876 
L 194.136188 59.311876 
L 192.488196 59.311876 
L 190.840203 59.311876 
L 189.19221 59.311876 
L 187.544218 60.029861 
L 185.896225 60.029861 
L 184.248233 60.029861 
L 182.60024 60.029861 
L 180.952247 60.029861 
L 179.304255 62.183814 
L 177.656262 62.183814 
L 176.008269 62.183814 
L 174.360277 62.183814 
L 172.712284 62.183814 
L 171.064292 62.183814 
L 169.416299 60.029861 
L 167.768306 60.029861 
L 166.120314 60.029861 
L 164.472321 60.029861 
L 162.824329 60.029861 
L 161.176336 60.029861 
L 159.528343 59.311876 
L 157.880351 59.311876 
L 156.232358 57.157923 
L 154.584365 57.157923 
L 152.936373 57.157923 
L 151.28838 56.439938 
L 149.640388 56.439938 
L 147.992395 54.285985 
L 146.344402 54.285985 
L 144.69641 54.285985 
L 143.048417 54.285985 
L 141.400425 53.568 
L 139.752432 53.568 
L 138.104439 53.568 
L 136.456447 53.568 
L 134.808454 53.568 
L 133.160461 53.568 
L 131.512469 53.568 
L 129.864476 53.568 
L 128.216484 53.568 
L 126.568491 53.568 
L 124.920498 53.568 
L 123.272506 53.568 
L 121.624513 53.568 
L 119.976521 54.285985 
L 118.328528 54.285985 
L 116.680535 54.285985 
L 115.032543 54.285985 
L 113.38455 54.285985 
L 111.736557 54.285985 
L 110.088565 54.285985 
L 108.440572 54.285985 
L 106.79258 54.285985 
L 105.144587 54.285985 
L 103.496594 56.439938 
L 101.848602 56.439938 
L 100.200609 56.439938 
L 98.552617 56.439938 
L 96.904624 57.157923 
L 95.256631 57.157923 
L 93.608639 57.157923 
L 91.960646 57.157923 
L 90.312653 59.311876 
L 88.664661 59.311876 
L 87.016668 59.311876 
L 85.368676 59.311876 
L 83.720683 59.311876 
L 82.07269 60.029861 
L 80.424698 60.029861 
L 78.776705 60.029861 
L 77.128713 60.029861 
L 75.48072 60.029861 
L 73.832727 59.311876 
z
" style="fill:#008000;fill-opacity:0.4;"/>
   </g>
   <g id="matplotlib.axis_1">
    <g id="xtick_1">
     <g id="line2d_1">
      <defs>
       <path d="M 0 0 
L 0 3.5 
" id="m99464e2499" style="stroke:#000000;stroke-width:0.8;"/>
      </defs>
      <g>
       <use style="stroke:#000000;stroke-width:0.8;" x="73.832727" xlink:href="#m99464e2499" y="307.584"/>
      </g>
     </g>
     <g id="text_1">
      <!-- 0.0 -->
      <defs>
       <path d="M 31.78125 66.40625 
Q 24.171875 66.40625 20.328125 58.90625 
Q 16.5 51.421875 16.5 36.375 
Q 16.5 21.390625 20.328125 13.890625 
Q 24.171875 6.390625 31.78125 6.390625 
Q 39.453125 6.390625 43.28125 13.890625 
Q 47.125 21.390625 47.125 36.375 
Q 47.125 51.421875 43.28125 58.90625 
Q 39.453125 66.40625 31.78125 66.40625 
z
M 31.78125 74.21875 
Q 44.046875 74.21875 50.515625 64.515625 
Q 56.984375 54.828125 56.984375 36.375 
Q 56.984375 17.96875 50.515625 8.265625 
Q 44.046875 -1.421875 31.78125 -1.421875 
Q 19.53125 -1.421875 13.0625 8.265625 
Q 6.59375 17.96875 6.59375 36.375 
Q 6.59375 54.828125 13.0625 64.515625 
Q 19.53125 74.21875 31.78125 74.21875 
z
" id="DejaVuSans-30"/>
       <path d="M 10.6875 12.40625 
L 21 12.40625 
L 21 0 
L 10.6875 0 
z
" id="DejaVuSans-2e"/>
      </defs>
      <g transform="translate(65.881165 322.182437)scale(0.1 -0.1)">
       <use xlink:href="#DejaVuSans-30"/>
       <use x="63.623047" xlink:href="#DejaVuSans-2e"/>
       <use x="95.410156" xlink:href="#DejaVuSans-30"/>
      </g>
     </g>
    </g>
    <g id="xtick_2">
     <g id="line2d_2">
      <g>
       <use style="stroke:#000000;stroke-width:0.8;" x="138.763636" xlink:href="#m99464e2499" y="307.584"/>
      </g>
     </g>
     <g id="text_2">
      <!-- 0.2 -->
      <defs>
       <path d="M 19.1875 8.296875 
L 53.609375 8.296875 
L 53.609375 0 
L 7.328125 0 
L 7.328125 8.296875 
Q 12.9375 14.109375 22.625 23.890625 
Q 32.328125 33.6875 34.8125 36.53125 
Q 39.546875 41.84375 41.421875 45.53125 
Q 43.3125 49.21875 43.3125 52.78125 
Q 43.3125 58.59375 39.234375 62.25 
Q 35.15625 65.921875 28.609375 65.921875 
Q 23.96875 65.921875 18.8125 64.3125 
Q 13.671875 62.703125 7.8125 59.421875 
L 7.8125 69.390625 
Q 13.765625 71.78125 18.9375 73 
Q 24.125 74.21875 28.421875 74.21875 
Q 39.75 74.21875 46.484375 68.546875 
Q 53.21875 62.890625 53.21875 53.421875 
Q 53.21875 48.921875 51.53125 44.890625 
Q 49.859375 40.875 45.40625 35.40625 
Q 44.1875 33.984375 37.640625 27.21875 
Q 31.109375 20.453125 19.1875 8.296875 
z
" id="DejaVuSans-32"/>
      </defs>
      <g transform="translate(130.812074 322.182437)scale(0.1 -0.1)">
       <use xlink:href="#DejaVuSans-30"/>
       <use x="63.623047" xlink:href="#DejaVuSans-2e"/>
       <use x="95.410156" xlink:href="#DejaVuSans-32"/>
      </g>
     </g>
    </g>
    <g id="xtick_3">
     <g id="line2d_3">
      <g>
       <use style="stroke:#000000;stroke-width:0.8;" x="203.694545" xlink:href="#m99464e2499" y="307.584"/>
      </g>
     </g>
     <g id="text_3">
      <!-- 0.4 -->
      <defs>
       <path d="M 37.796875 64.3125 
L 12.890625 25.390625 
L 37.796875 25.390625 
z
M 35.203125 72.90625 
L 47.609375 72.90625 
L 47.609375 25.390625 
L 58.015625 25.390625 
L 58.015625 17.1875 
L 47.609375 17.1875 
L 47.609375 0 
L 37.796875 0 
L 37.796875 17.1875 
L 4.890625 17.1875 
L 4.890625 26.703125 
z
" id="DejaVuSans-34"/>
      </defs>
      <g transform="translate(195.742983 322.182437)scale(0.1 -0.1)">
       <use xlink:href="#DejaVuSans-30"/>
       <use x="63.623047" xlink:href="#DejaVuSans-2e"/>
       <use x="95.410156" xlink:href="#DejaVuSans-34"/>
      </g>
     </g>
    </g>
    <g id="xtick_4">
     <g id="line2d_4">
      <g>
       <use style="stroke:#000000;stroke-width:0.8;" x="268.625455" xlink:href="#m99464e2499" y="307.584"/>
      </g>
     </g>
     <g id="text_4">
      <!-- 0.6 -->
      <defs>
       <path d="M 33.015625 40.375 
Q 26.375 40.375 22.484375 35.828125 
Q 18.609375 31.296875 18.609375 23.390625 
Q 18.609375 15.53125 22.484375 10.953125 
Q 26.375 6.390625 33.015625 6.390625 
Q 39.65625 6.390625 43.53125 10.953125 
Q 47.40625 15.53125 47.40625 23.390625 
Q 47.40625 31.296875 43.53125 35.828125 
Q 39.65625 40.375 33.015625 40.375 
z
M 52.59375 71.296875 
L 52.59375 62.3125 
Q 48.875 64.0625 45.09375 64.984375 
Q 41.3125 65.921875 37.59375 65.921875 
Q 27.828125 65.921875 22.671875 59.328125 
Q 17.53125 52.734375 16.796875 39.40625 
Q 19.671875 43.65625 24.015625 45.921875 
Q 28.375 48.1875 33.59375 48.1875 
Q 44.578125 48.1875 50.953125 41.515625 
Q 57.328125 34.859375 57.328125 23.390625 
Q 57.328125 12.15625 50.6875 5.359375 
Q 44.046875 -1.421875 33.015625 -1.421875 
Q 20.359375 -1.421875 13.671875 8.265625 
Q 6.984375 17.96875 6.984375 36.375 
Q 6.984375 53.65625 15.1875 63.9375 
Q 23.390625 74.21875 37.203125 74.21875 
Q 40.921875 74.21875 44.703125 73.484375 
Q 48.484375 72.75 52.59375 71.296875 
z
" id="DejaVuSans-36"/>
      </defs>
      <g transform="translate(260.673892 322.182437)scale(0.1 -0.1)">
       <use xlink:href="#DejaVuSans-30"/>
       <use x="63.623047" xlink:href="#DejaVuSans-2e"/>
       <use x="95.410156" xlink:href="#DejaVuSans-36"/>
      </g>
     </g>
    </g>
    <g id="xtick_5">
     <g id="line2d_5">
      <g>
       <use style="stroke:#000000;stroke-width:0.8;" x="333.556364" xlink:href="#m99464e2499" y="307.584"/>
      </g>
     </g>
     <g id="text_5">
      <!-- 0.8 -->
      <defs>
       <path d="M 31.78125 34.625 
Q 24.75 34.625 20.71875 30.859375 
Q 16.703125 27.09375 16.703125 20.515625 
Q 16.703125 13.921875 20.71875 10.15625 
Q 24.75 6.390625 31.78125 6.390625 
Q 38.8125 6.390625 42.859375 10.171875 
Q 46.921875 13.96875 46.921875 20.515625 
Q 46.921875 27.09375 42.890625 30.859375 
Q 38.875 34.625 31.78125 34.625 
z
M 21.921875 38.8125 
Q 15.578125 40.375 12.03125 44.71875 
Q 8.5 49.078125 8.5 55.328125 
Q 8.5 64.0625 14.71875 69.140625 
Q 20.953125 74.21875 31.78125 74.21875 
Q 42.671875 74.21875 48.875 69.140625 
Q 55.078125 64.0625 55.078125 55.328125 
Q 55.078125 49.078125 51.53125 44.71875 
Q 48 40.375 41.703125 38.8125 
Q 48.828125 37.15625 52.796875 32.3125 
Q 56.78125 27.484375 56.78125 20.515625 
Q 56.78125 9.90625 50.3125 4.234375 
Q 43.84375 -1.421875 31.78125 -1.421875 
Q 19.734375 -1.421875 13.25 4.234375 
Q 6.78125 9.90625 6.78125 20.515625 
Q 6.78125 27.484375 10.78125 32.3125 
Q 14.796875 37.15625 21.921875 38.8125 
z
M 18.3125 54.390625 
Q 18.3125 48.734375 21.84375 45.5625 
Q 25.390625 42.390625 31.78125 42.390625 
Q 38.140625 42.390625 41.71875 45.5625 
Q 45.3125 48.734375 45.3125 54.390625 
Q 45.3125 60.0625 41.71875 63.234375 
Q 38.140625 66.40625 31.78125 66.40625 
Q 25.390625 66.40625 21.84375 63.234375 
Q 18.3125 60.0625 18.3125 54.390625 
z
" id="DejaVuSans-38"/>
      </defs>
      <g transform="translate(325.604801 322.182437)scale(0.1 -0.1)">
       <use xlink:href="#DejaVuSans-30"/>
       <use x="63.623047" xlink:href="#DejaVuSans-2e"/>
       <use x="95.410156" xlink:href="#DejaVuSans-38"/>
      </g>
     </g>
    </g>
    <g id="xtick_6">
     <g id="line2d_6">
      <g>
       <use style="stroke:#000000;stroke-width:0.8;" x="398.487273" xlink:href="#m99464e2499" y="307.584"/>
      </g>
     </g>
     <g id="text_6">
      <!-- 1.0 -->
      <defs>
       <path d="M 12.40625 8.296875 
L 28.515625 8.296875 
L 28.515625 63.921875 
L 10.984375 60.40625 
L 10.984375 69.390625 
L 28.421875 72.90625 
L 38.28125 72.90625 
L 38.28125 8.296875 
L 54.390625 8.296875 
L 54.390625 0 
L 12.40625 0 
z
" id="DejaVuSans-31"/>
      </defs>
      <g transform="translate(390.53571 322.182437)scale(0.1 -0.1)">
       <use xlink:href="#DejaVuSans-31"/>
       <use x="63.623047" xlink:href="#DejaVuSans-2e"/>
       <use x="95.410156" xlink:href="#DejaVuSans-30"/>
      </g>
     </g>
    </g>
   </g>
   <g id="matplotlib.axis_2">
    <g id="ytick_1">
     <g id="line2d_7">
      <defs>
       <path d="M 0 0 
L -3.5 0 
" id="m52a00a72fe" style="stroke:#000000;stroke-width:0.8;"/>
      </defs>
      <g>
       <use style="stroke:#000000;stroke-width:0.8;" x="57.6" xlink:href="#m52a00a72fe" y="298.40072"/>
      </g>
     </g>
     <g id="text_7">
      <!-- 0.0 -->
      <g transform="translate(34.696875 302.199938)scale(0.1 -0.1)">
       <use xlink:href="#DejaVuSans-30"/>
       <use x="63.623047" xlink:href="#DejaVuSans-2e"/>
       <use x="95.410156" xlink:href="#DejaVuSans-30"/>
      </g>
     </g>
    </g>
    <g id="ytick_2">
     <g id="line2d_8">
      <g>
       <use style="stroke:#000000;stroke-width:0.8;" x="57.6" xlink:href="#m52a00a72fe" y="240.961958"/>
      </g>
     </g>
     <g id="text_8">
      <!-- 0.2 -->
      <g transform="translate(34.696875 244.761177)scale(0.1 -0.1)">
       <use xlink:href="#DejaVuSans-30"/>
       <use x="63.623047" xlink:href="#DejaVuSans-2e"/>
       <use x="95.410156" xlink:href="#DejaVuSans-32"/>
      </g>
     </g>
    </g>
    <g id="ytick_3">
     <g id="line2d_9">
      <g>
       <use style="stroke:#000000;stroke-width:0.8;" x="57.6" xlink:href="#m52a00a72fe" y="183.523197"/>
      </g>
     </g>
     <g id="text_9">
      <!-- 0.4 -->
      <g transform="translate(34.696875 187.322416)scale(0.1 -0.1)">
       <use xlink:href="#DejaVuSans-30"/>
       <use x="63.623047" xlink:href="#DejaVuSans-2e"/>
       <use x="95.410156" xlink:href="#DejaVuSans-34"/>
      </g>
     </g>
    </g>
    <g id="ytick_4">
     <g id="line2d_10">
      <g>
       <use style="stroke:#000000;stroke-width:0.8;" x="57.6" xlink:href="#m52a00a72fe" y="126.084436"/>
      </g>
     </g>
     <g id="text_10">
      <!-- 0.6 -->
      <g transform="translate(34.696875 129.883655)scale(0.1 -0.1)">
       <use xlink:href="#DejaVuSans-30"/>
       <use x="63.623047" xlink:href="#DejaVuSans-2e"/>
       <use x="95.410156" xlink:href="#DejaVuSans-36"/>
      </g>
     </g>
    </g>
    <g id="ytick_5">
     <g id="line2d_11">
      <g>
       <use style="stroke:#000000;stroke-width:0.8;" x="57.6" xlink:href="#m52a00a72fe" y="68.645675"/>
      </g>
     </g>
     <g id="text_11">
      <!-- 0.8 -->
      <g transform="translate(34.696875 72.444894)scale(0.1 -0.1)">
       <use xlink:href="#DejaVuSans-30"/>
       <use x="63.623047" xlink:href="#DejaVuSans-2e"/>
       <use x="95.410156" xlink:href="#DejaVuSans-38"/>
      </g>
     </g>
    </g>
   </g>
   <g id="line2d_12">
    <path clip-path="url(#pbd2d5223c8)" d="M 73.832727 156.648462 
L 75.48072 153.5416 
L 77.128713 159.172896 
L 78.776705 159.755325 
L 80.424698 172.765492 
L 82.07269 184.222227 
L 83.720683 193.154529 
L 85.368676 191.212811 
L 87.016668 186.940803 
L 88.664661 191.79524 
L 90.312653 195.484819 
L 91.960646 203.251976 
L 93.608639 206.747124 
L 95.256631 218.980719 
L 96.904624 232.185028 
L 100.200609 248.302058 
L 101.848602 253.156495 
L 103.496594 265.778375 
L 105.144587 271.409556 
L 106.79258 273.157188 
L 108.440572 275.293163 
L 110.088565 273.739732 
L 111.736557 273.157188 
L 113.38455 273.157188 
L 115.032543 276.264079 
L 116.680535 281.701146 
L 118.328528 283.254606 
L 119.976521 284.225494 
L 121.624513 287.138213 
L 123.272506 287.138213 
L 124.920498 288.10913 
L 126.568491 285.778954 
L 128.216484 284.613866 
L 129.864476 286.361498 
L 131.512469 286.167326 
L 133.160461 287.332385 
L 134.808454 287.526586 
L 136.456447 288.691673 
L 138.104439 287.138213 
L 139.752432 284.808038 
L 141.400425 281.701146 
L 143.048417 277.429167 
L 144.69641 266.360804 
L 146.344402 252.962352 
L 147.992395 241.699759 
L 149.640388 231.214026 
L 152.936373 201.310258 
L 154.584365 188.688378 
L 156.232358 178.008502 
L 157.880351 169.658629 
L 159.528343 160.532184 
L 161.176336 156.066033 
L 162.824329 152.182312 
L 164.472321 148.687163 
L 167.768306 138.007287 
L 171.064292 130.822559 
L 172.712284 132.764277 
L 174.360277 129.851557 
L 176.008269 131.016702 
L 177.656262 138.007287 
L 179.304255 144.221012 
L 180.952247 151.599883 
L 182.60024 151.988169 
L 184.248233 159.949755 
L 185.896225 171.794777 
L 187.544218 173.736494 
L 189.19221 175.095782 
L 190.840203 180.532935 
L 192.488196 185.387372 
L 194.136188 196.455534 
L 197.432174 207.91227 
L 199.080166 214.902854 
L 200.728159 217.621431 
L 202.376151 224.612015 
L 204.024144 229.854738 
L 205.672137 236.262893 
L 207.320129 239.952185 
L 208.968122 246.748626 
L 210.616114 248.496201 
L 213.9121 247.331055 
L 215.560092 248.690344 
L 217.208085 248.496201 
L 218.856078 244.806622 
L 222.152063 255.875071 
L 223.800055 258.981934 
L 225.448048 260.729508 
L 227.096041 269.079381 
L 228.744033 274.710619 
L 230.392026 276.264079 
L 232.040018 277.234996 
L 233.688011 276.458251 
L 235.336004 278.011711 
L 236.983996 277.81754 
L 238.631989 279.176799 
L 240.279982 282.477862 
L 243.575967 287.914929 
L 245.223959 289.856761 
L 246.871952 292.186937 
L 248.519945 292.963653 
L 250.167937 292.381109 
L 251.81593 291.410193 
L 253.463922 292.963653 
L 255.111915 293.157824 
L 256.759908 290.827649 
L 258.4079 288.691673 
L 260.055893 286.749841 
L 261.703886 283.060406 
L 263.351878 277.81754 
L 264.999871 270.244469 
L 266.647863 265.584232 
L 268.295856 254.709926 
L 269.943849 246.748626 
L 271.591841 240.923187 
L 273.239834 233.350174 
L 274.887826 225.194444 
L 276.535819 218.592433 
L 278.183812 217.621431 
L 279.831804 208.300843 
L 281.479797 200.533399 
L 283.12779 198.785825 
L 284.775782 194.513817 
L 286.423775 188.494235 
L 288.071767 175.289925 
L 289.71976 181.115364 
L 291.367753 182.862939 
L 293.015745 178.979217 
L 294.663738 173.736494 
L 296.311731 179.36779 
L 297.959723 194.513817 
L 299.607716 182.668796 
L 301.255708 177.231642 
L 302.903701 181.697793 
L 304.551694 191.601097 
L 306.199686 182.668796 
L 307.847679 176.45507 
L 309.495671 190.047666 
L 311.143664 200.727542 
L 312.791657 200.145113 
L 314.439649 198.203396 
L 316.087642 197.62068 
L 317.735635 203.446119 
L 319.383627 200.339256 
L 321.03162 195.290676 
L 322.679612 200.145113 
L 324.327605 208.300843 
L 325.975598 219.369005 
L 327.62359 214.320425 
L 329.271583 219.369005 
L 330.919575 229.660595 
L 335.863553 244.612479 
L 337.511546 258.399505 
L 339.159539 267.914235 
L 340.807531 271.215356 
L 342.455524 273.545532 
L 344.103516 276.652452 
L 345.751509 283.83715 
L 347.399502 287.138213 
L 349.047494 288.497473 
L 350.695487 290.633477 
L 352.343479 292.381109 
L 353.991472 292.57528 
L 355.639465 291.798565 
L 357.287457 291.798565 
L 358.93545 290.827649 
L 360.583443 291.604393 
L 362.231435 292.963653 
L 363.879428 293.546197 
L 365.52742 294.905456 
L 367.175413 295.488 
L 368.823406 295.488 
L 370.471398 293.740368 
L 372.119391 290.827649 
L 373.767383 288.691673 
L 375.415376 285.778954 
L 377.063369 281.312774 
L 378.711361 273.35136 
L 382.007347 251.214777 
L 383.655339 230.82574 
L 385.303332 216.262142 
L 386.951324 207.329841 
L 388.599317 201.698544 
L 390.24731 193.737245 
L 391.895302 184.610513 
L 393.543295 190.435952 
L 395.191287 194.125531 
L 396.83928 189.076664 
L 398.487273 181.50365 
L 398.487273 181.50365 
" style="fill:none;stroke:#1f77b4;stroke-linecap:square;stroke-width:1.5;"/>
   </g>
   <g id="line2d_13">
    <path clip-path="url(#pbd2d5223c8)" d="M 73.832727 67.768138 
L 75.48072 68.087242 
L 77.128713 68.246795 
L 78.776705 68.565899 
L 80.424698 68.087242 
L 82.07269 68.087242 
L 83.720683 67.92769 
L 85.368676 66.810825 
L 95.256631 66.731049 
L 96.904624 65.693961 
L 98.552617 65.454633 
L 100.200609 65.055752 
L 103.496594 64.975976 
L 105.144587 64.018663 
L 106.79258 64.018663 
L 108.440572 63.779335 
L 110.088565 63.220903 
L 113.38455 63.220903 
L 115.032543 63.779335 
L 116.680535 63.220903 
L 123.272506 62.981575 
L 136.456447 62.981575 
L 138.104439 62.822023 
L 139.752432 62.981575 
L 141.400425 62.981575 
L 143.048417 63.141127 
L 146.344402 63.220903 
L 147.992395 64.018663 
L 149.640388 64.09844 
L 151.28838 65.055752 
L 152.936373 65.215304 
L 154.584365 65.693961 
L 156.232358 66.731049 
L 159.528343 66.810825 
L 161.176336 68.087242 
L 162.824329 68.087242 
L 164.472321 68.565899 
L 166.120314 68.565899 
L 167.768306 68.805227 
L 169.416299 69.363659 
L 174.360277 69.523211 
L 177.656262 69.523211 
L 179.304255 69.682764 
L 180.952247 69.363659 
L 182.60024 68.805227 
L 185.896225 68.565899 
L 187.544218 68.087242 
L 189.19221 67.92769 
L 192.488196 67.92769 
L 194.136188 66.970378 
L 197.432174 66.731049 
L 199.080166 66.731049 
L 200.728159 65.773737 
L 204.024144 65.693961 
L 205.672137 65.29508 
L 207.320129 65.29508 
L 208.968122 65.055752 
L 212.264107 64.975976 
L 213.9121 64.09844 
L 215.560092 65.055752 
L 218.856078 64.975976 
L 220.50407 64.09844 
L 222.152063 65.055752 
L 223.800055 64.975976 
L 225.448048 64.018663 
L 230.392026 63.938887 
L 232.040018 63.220903 
L 235.336004 63.141127 
L 241.927974 63.141127 
L 243.575967 62.981575 
L 246.871952 62.981575 
L 248.519945 62.822023 
L 260.055893 62.822023 
L 261.703886 62.981575 
L 263.351878 62.981575 
L 266.647863 63.220903 
L 268.295856 63.779335 
L 269.943849 64.018663 
L 271.591841 64.018663 
L 273.239834 65.055752 
L 276.535819 65.055752 
L 281.479797 65.773737 
L 283.12779 65.693961 
L 284.775782 66.731049 
L 291.367753 66.810825 
L 293.015745 67.92769 
L 294.663738 66.810825 
L 296.311731 67.768138 
L 297.959723 67.92769 
L 299.607716 67.92769 
L 301.255708 66.810825 
L 302.903701 66.810825 
L 304.551694 67.92769 
L 306.199686 66.810825 
L 311.143664 66.810825 
L 312.791657 66.970378 
L 314.439649 66.731049 
L 316.087642 66.731049 
L 317.735635 66.571497 
L 319.383627 66.731049 
L 327.62359 66.651273 
L 329.271583 65.614185 
L 330.919575 65.693961 
L 332.567568 65.29508 
L 334.215561 65.055752 
L 337.511546 65.055752 
L 339.159539 64.09844 
L 345.751509 63.779335 
L 347.399502 63.141127 
L 349.047494 63.141127 
L 350.695487 62.981575 
L 352.343479 62.981575 
L 355.639465 62.742247 
L 358.93545 62.822023 
L 365.52742 62.742247 
L 368.823406 62.662471 
L 373.767383 62.662471 
L 375.415376 62.822023 
L 377.063369 62.822023 
L 382.007347 63.220903 
L 383.655339 64.018663 
L 385.303332 64.975976 
L 386.951324 65.055752 
L 388.599317 65.693961 
L 390.24731 65.933289 
L 391.895302 66.731049 
L 395.191287 66.810825 
L 398.487273 66.810825 
L 398.487273 66.810825 
" style="fill:none;stroke:#ff7f0e;stroke-linecap:square;stroke-width:1.5;"/>
   </g>
   <g id="line2d_14">
    <path clip-path="url(#pbd2d5223c8)" d="M 73.832727 71.517613 
L 83.720683 71.517613 
L 85.368676 68.645675 
L 103.496594 68.645675 
L 105.144587 65.773737 
L 149.640388 65.773737 
L 151.28838 68.645675 
L 159.528343 68.645675 
L 161.176336 71.517613 
L 192.488196 71.517613 
L 194.136188 68.645675 
L 212.264107 68.645675 
L 213.9121 65.773737 
L 215.560092 68.645675 
L 218.856078 68.645675 
L 220.50407 65.773737 
L 222.152063 68.645675 
L 223.800055 68.645675 
L 225.448048 65.773737 
L 271.591841 65.773737 
L 273.239834 68.645675 
L 291.367753 68.645675 
L 293.015745 71.517613 
L 294.663738 68.645675 
L 296.311731 71.517613 
L 299.607716 71.517613 
L 301.255708 68.645675 
L 302.903701 68.645675 
L 304.551694 71.517613 
L 306.199686 68.645675 
L 337.511546 68.645675 
L 339.159539 65.773737 
L 383.655339 65.773737 
L 385.303332 68.645675 
L 398.487273 68.645675 
L 398.487273 68.645675 
" style="fill:none;stroke:#2ca02c;stroke-linecap:square;stroke-width:1.5;"/>
   </g>
   <g id="line2d_15">
    <path clip-path="url(#pbd2d5223c8)" d="M 73.832727 59.311876 
L 75.48072 60.029861 
L 82.07269 60.029861 
L 83.720683 59.311876 
L 90.312653 59.311876 
L 91.960646 57.157923 
L 96.904624 57.157923 
L 98.552617 56.439938 
L 103.496594 56.439938 
L 105.144587 54.285985 
L 119.976521 54.285985 
L 121.624513 53.568 
L 141.400425 53.568 
L 143.048417 54.285985 
L 147.992395 54.285985 
L 149.640388 56.439938 
L 151.28838 56.439938 
L 152.936373 57.157923 
L 156.232358 57.157923 
L 157.880351 59.311876 
L 159.528343 59.311876 
L 161.176336 60.029861 
L 169.416299 60.029861 
L 171.064292 62.183814 
L 179.304255 62.183814 
L 180.952247 60.029861 
L 187.544218 60.029861 
L 189.19221 59.311876 
L 195.784181 59.311876 
L 197.432174 57.157923 
L 204.024144 57.157923 
L 205.672137 56.439938 
L 223.800055 56.439938 
L 225.448048 54.285985 
L 241.927974 54.285985 
L 243.575967 53.568 
L 263.351878 53.568 
L 264.999871 54.285985 
L 271.591841 54.285985 
L 273.239834 56.439938 
L 278.183812 56.439938 
L 279.831804 57.157923 
L 288.071767 57.157923 
L 289.71976 59.311876 
L 312.791657 59.311876 
L 314.439649 57.157923 
L 330.919575 57.157923 
L 332.567568 56.439938 
L 339.159539 56.439938 
L 340.807531 54.285985 
L 349.047494 54.285985 
L 350.695487 53.568 
L 378.711361 53.568 
L 380.359354 54.285985 
L 383.655339 54.285985 
L 385.303332 56.439938 
L 386.951324 56.439938 
L 388.599317 57.157923 
L 391.895302 57.157923 
L 393.543295 59.311876 
L 398.487273 59.311876 
L 398.487273 59.311876 
" style="fill:none;stroke:#d62728;stroke-linecap:square;stroke-width:1.5;"/>
   </g>
   <g id="patch_3">
    <path d="M 57.6 307.584 
L 57.6 41.472 
" style="fill:none;stroke:#000000;stroke-linecap:square;stroke-linejoin:miter;stroke-width:0.8;"/>
   </g>
   <g id="patch_4">
    <path d="M 414.72 307.584 
L 414.72 41.472 
" style="fill:none;stroke:#000000;stroke-linecap:square;stroke-linejoin:miter;stroke-width:0.8;"/>
   </g>
   <g id="patch_5">
    <path d="M 57.6 307.584 
L 414.72 307.584 
" style="fill:none;stroke:#000000;stroke-linecap:square;stroke-linejoin:miter;stroke-width:0.8;"/>
   </g>
   <g id="patch_6">
    <path d="M 57.6 41.472 
L 414.72 41.472 
" style="fill:none;stroke:#000000;stroke-linecap:square;stroke-linejoin:miter;stroke-width:0.8;"/>
   </g>
   <g id="text_12">
    <!-- Plot of Test Data vs MCMC Uncertainty  -->
    <defs>
     <path d="M 19.671875 64.796875 
L 19.671875 37.40625 
L 32.078125 37.40625 
Q 38.96875 37.40625 42.71875 40.96875 
Q 46.484375 44.53125 46.484375 51.125 
Q 46.484375 57.671875 42.71875 61.234375 
Q 38.96875 64.796875 32.078125 64.796875 
z
M 9.8125 72.90625 
L 32.078125 72.90625 
Q 44.34375 72.90625 50.609375 67.359375 
Q 56.890625 61.8125 56.890625 51.125 
Q 56.890625 40.328125 50.609375 34.8125 
Q 44.34375 29.296875 32.078125 29.296875 
L 19.671875 29.296875 
L 19.671875 0 
L 9.8125 0 
z
" id="DejaVuSans-50"/>
     <path d="M 9.421875 75.984375 
L 18.40625 75.984375 
L 18.40625 0 
L 9.421875 0 
z
" id="DejaVuSans-6c"/>
     <path d="M 30.609375 48.390625 
Q 23.390625 48.390625 19.1875 42.75 
Q 14.984375 37.109375 14.984375 27.296875 
Q 14.984375 17.484375 19.15625 11.84375 
Q 23.34375 6.203125 30.609375 6.203125 
Q 37.796875 6.203125 41.984375 11.859375 
Q 46.1875 17.53125 46.1875 27.296875 
Q 46.1875 37.015625 41.984375 42.703125 
Q 37.796875 48.390625 30.609375 48.390625 
z
M 30.609375 56 
Q 42.328125 56 49.015625 48.375 
Q 55.71875 40.765625 55.71875 27.296875 
Q 55.71875 13.875 49.015625 6.21875 
Q 42.328125 -1.421875 30.609375 -1.421875 
Q 18.84375 -1.421875 12.171875 6.21875 
Q 5.515625 13.875 5.515625 27.296875 
Q 5.515625 40.765625 12.171875 48.375 
Q 18.84375 56 30.609375 56 
z
" id="DejaVuSans-6f"/>
     <path d="M 18.3125 70.21875 
L 18.3125 54.6875 
L 36.8125 54.6875 
L 36.8125 47.703125 
L 18.3125 47.703125 
L 18.3125 18.015625 
Q 18.3125 11.328125 20.140625 9.421875 
Q 21.96875 7.515625 27.59375 7.515625 
L 36.8125 7.515625 
L 36.8125 0 
L 27.59375 0 
Q 17.1875 0 13.234375 3.875 
Q 9.28125 7.765625 9.28125 18.015625 
L 9.28125 47.703125 
L 2.6875 47.703125 
L 2.6875 54.6875 
L 9.28125 54.6875 
L 9.28125 70.21875 
z
" id="DejaVuSans-74"/>
     <path id="DejaVuSans-20"/>
     <path d="M 37.109375 75.984375 
L 37.109375 68.5 
L 28.515625 68.5 
Q 23.6875 68.5 21.796875 66.546875 
Q 19.921875 64.59375 19.921875 59.515625 
L 19.921875 54.6875 
L 34.71875 54.6875 
L 34.71875 47.703125 
L 19.921875 47.703125 
L 19.921875 0 
L 10.890625 0 
L 10.890625 47.703125 
L 2.296875 47.703125 
L 2.296875 54.6875 
L 10.890625 54.6875 
L 10.890625 58.5 
Q 10.890625 67.625 15.140625 71.796875 
Q 19.390625 75.984375 28.609375 75.984375 
z
" id="DejaVuSans-66"/>
     <path d="M -0.296875 72.90625 
L 61.375 72.90625 
L 61.375 64.59375 
L 35.5 64.59375 
L 35.5 0 
L 25.59375 0 
L 25.59375 64.59375 
L -0.296875 64.59375 
z
" id="DejaVuSans-54"/>
     <path d="M 56.203125 29.59375 
L 56.203125 25.203125 
L 14.890625 25.203125 
Q 15.484375 15.921875 20.484375 11.0625 
Q 25.484375 6.203125 34.421875 6.203125 
Q 39.59375 6.203125 44.453125 7.46875 
Q 49.3125 8.734375 54.109375 11.28125 
L 54.109375 2.78125 
Q 49.265625 0.734375 44.1875 -0.34375 
Q 39.109375 -1.421875 33.890625 -1.421875 
Q 20.796875 -1.421875 13.15625 6.1875 
Q 5.515625 13.8125 5.515625 26.8125 
Q 5.515625 40.234375 12.765625 48.109375 
Q 20.015625 56 32.328125 56 
Q 43.359375 56 49.78125 48.890625 
Q 56.203125 41.796875 56.203125 29.59375 
z
M 47.21875 32.234375 
Q 47.125 39.59375 43.09375 43.984375 
Q 39.0625 48.390625 32.421875 48.390625 
Q 24.90625 48.390625 20.390625 44.140625 
Q 15.875 39.890625 15.1875 32.171875 
z
" id="DejaVuSans-65"/>
     <path d="M 44.28125 53.078125 
L 44.28125 44.578125 
Q 40.484375 46.53125 36.375 47.5 
Q 32.28125 48.484375 27.875 48.484375 
Q 21.1875 48.484375 17.84375 46.4375 
Q 14.5 44.390625 14.5 40.28125 
Q 14.5 37.15625 16.890625 35.375 
Q 19.28125 33.59375 26.515625 31.984375 
L 29.59375 31.296875 
Q 39.15625 29.25 43.1875 25.515625 
Q 47.21875 21.78125 47.21875 15.09375 
Q 47.21875 7.46875 41.1875 3.015625 
Q 35.15625 -1.421875 24.609375 -1.421875 
Q 20.21875 -1.421875 15.453125 -0.5625 
Q 10.6875 0.296875 5.421875 2 
L 5.421875 11.28125 
Q 10.40625 8.6875 15.234375 7.390625 
Q 20.0625 6.109375 24.8125 6.109375 
Q 31.15625 6.109375 34.5625 8.28125 
Q 37.984375 10.453125 37.984375 14.40625 
Q 37.984375 18.0625 35.515625 20.015625 
Q 33.0625 21.96875 24.703125 23.78125 
L 21.578125 24.515625 
Q 13.234375 26.265625 9.515625 29.90625 
Q 5.8125 33.546875 5.8125 39.890625 
Q 5.8125 47.609375 11.28125 51.796875 
Q 16.75 56 26.8125 56 
Q 31.78125 56 36.171875 55.265625 
Q 40.578125 54.546875 44.28125 53.078125 
z
" id="DejaVuSans-73"/>
     <path d="M 19.671875 64.796875 
L 19.671875 8.109375 
L 31.59375 8.109375 
Q 46.6875 8.109375 53.6875 14.9375 
Q 60.6875 21.78125 60.6875 36.53125 
Q 60.6875 51.171875 53.6875 57.984375 
Q 46.6875 64.796875 31.59375 64.796875 
z
M 9.8125 72.90625 
L 30.078125 72.90625 
Q 51.265625 72.90625 61.171875 64.09375 
Q 71.09375 55.28125 71.09375 36.53125 
Q 71.09375 17.671875 61.125 8.828125 
Q 51.171875 0 30.078125 0 
L 9.8125 0 
z
" id="DejaVuSans-44"/>
     <path d="M 34.28125 27.484375 
Q 23.390625 27.484375 19.1875 25 
Q 14.984375 22.515625 14.984375 16.5 
Q 14.984375 11.71875 18.140625 8.90625 
Q 21.296875 6.109375 26.703125 6.109375 
Q 34.1875 6.109375 38.703125 11.40625 
Q 43.21875 16.703125 43.21875 25.484375 
L 43.21875 27.484375 
z
M 52.203125 31.203125 
L 52.203125 0 
L 43.21875 0 
L 43.21875 8.296875 
Q 40.140625 3.328125 35.546875 0.953125 
Q 30.953125 -1.421875 24.3125 -1.421875 
Q 15.921875 -1.421875 10.953125 3.296875 
Q 6 8.015625 6 15.921875 
Q 6 25.140625 12.171875 29.828125 
Q 18.359375 34.515625 30.609375 34.515625 
L 43.21875 34.515625 
L 43.21875 35.40625 
Q 43.21875 41.609375 39.140625 45 
Q 35.0625 48.390625 27.6875 48.390625 
Q 23 48.390625 18.546875 47.265625 
Q 14.109375 46.140625 10.015625 43.890625 
L 10.015625 52.203125 
Q 14.9375 54.109375 19.578125 55.046875 
Q 24.21875 56 28.609375 56 
Q 40.484375 56 46.34375 49.84375 
Q 52.203125 43.703125 52.203125 31.203125 
z
" id="DejaVuSans-61"/>
     <path d="M 2.984375 54.6875 
L 12.5 54.6875 
L 29.59375 8.796875 
L 46.6875 54.6875 
L 56.203125 54.6875 
L 35.6875 0 
L 23.484375 0 
z
" id="DejaVuSans-76"/>
     <path d="M 9.8125 72.90625 
L 24.515625 72.90625 
L 43.109375 23.296875 
L 61.8125 72.90625 
L 76.515625 72.90625 
L 76.515625 0 
L 66.890625 0 
L 66.890625 64.015625 
L 48.09375 14.015625 
L 38.1875 14.015625 
L 19.390625 64.015625 
L 19.390625 0 
L 9.8125 0 
z
" id="DejaVuSans-4d"/>
     <path d="M 64.40625 67.28125 
L 64.40625 56.890625 
Q 59.421875 61.53125 53.78125 63.8125 
Q 48.140625 66.109375 41.796875 66.109375 
Q 29.296875 66.109375 22.65625 58.46875 
Q 16.015625 50.828125 16.015625 36.375 
Q 16.015625 21.96875 22.65625 14.328125 
Q 29.296875 6.6875 41.796875 6.6875 
Q 48.140625 6.6875 53.78125 8.984375 
Q 59.421875 11.28125 64.40625 15.921875 
L 64.40625 5.609375 
Q 59.234375 2.09375 53.4375 0.328125 
Q 47.65625 -1.421875 41.21875 -1.421875 
Q 24.65625 -1.421875 15.125 8.703125 
Q 5.609375 18.84375 5.609375 36.375 
Q 5.609375 53.953125 15.125 64.078125 
Q 24.65625 74.21875 41.21875 74.21875 
Q 47.75 74.21875 53.53125 72.484375 
Q 59.328125 70.75 64.40625 67.28125 
z
" id="DejaVuSans-43"/>
     <path d="M 8.6875 72.90625 
L 18.609375 72.90625 
L 18.609375 28.609375 
Q 18.609375 16.890625 22.84375 11.734375 
Q 27.09375 6.59375 36.625 6.59375 
Q 46.09375 6.59375 50.34375 11.734375 
Q 54.59375 16.890625 54.59375 28.609375 
L 54.59375 72.90625 
L 64.5 72.90625 
L 64.5 27.390625 
Q 64.5 13.140625 57.4375 5.859375 
Q 50.390625 -1.421875 36.625 -1.421875 
Q 22.796875 -1.421875 15.734375 5.859375 
Q 8.6875 13.140625 8.6875 27.390625 
z
" id="DejaVuSans-55"/>
     <path d="M 54.890625 33.015625 
L 54.890625 0 
L 45.90625 0 
L 45.90625 32.71875 
Q 45.90625 40.484375 42.875 44.328125 
Q 39.84375 48.1875 33.796875 48.1875 
Q 26.515625 48.1875 22.3125 43.546875 
Q 18.109375 38.921875 18.109375 30.90625 
L 18.109375 0 
L 9.078125 0 
L 9.078125 54.6875 
L 18.109375 54.6875 
L 18.109375 46.1875 
Q 21.34375 51.125 25.703125 53.5625 
Q 30.078125 56 35.796875 56 
Q 45.21875 56 50.046875 50.171875 
Q 54.890625 44.34375 54.890625 33.015625 
z
" id="DejaVuSans-6e"/>
     <path d="M 48.78125 52.59375 
L 48.78125 44.1875 
Q 44.96875 46.296875 41.140625 47.34375 
Q 37.3125 48.390625 33.40625 48.390625 
Q 24.65625 48.390625 19.8125 42.84375 
Q 14.984375 37.3125 14.984375 27.296875 
Q 14.984375 17.28125 19.8125 11.734375 
Q 24.65625 6.203125 33.40625 6.203125 
Q 37.3125 6.203125 41.140625 7.25 
Q 44.96875 8.296875 48.78125 10.40625 
L 48.78125 2.09375 
Q 45.015625 0.34375 40.984375 -0.53125 
Q 36.96875 -1.421875 32.421875 -1.421875 
Q 20.0625 -1.421875 12.78125 6.34375 
Q 5.515625 14.109375 5.515625 27.296875 
Q 5.515625 40.671875 12.859375 48.328125 
Q 20.21875 56 33.015625 56 
Q 37.15625 56 41.109375 55.140625 
Q 45.0625 54.296875 48.78125 52.59375 
z
" id="DejaVuSans-63"/>
     <path d="M 41.109375 46.296875 
Q 39.59375 47.171875 37.8125 47.578125 
Q 36.03125 48 33.890625 48 
Q 26.265625 48 22.1875 43.046875 
Q 18.109375 38.09375 18.109375 28.8125 
L 18.109375 0 
L 9.078125 0 
L 9.078125 54.6875 
L 18.109375 54.6875 
L 18.109375 46.1875 
Q 20.953125 51.171875 25.484375 53.578125 
Q 30.03125 56 36.53125 56 
Q 37.453125 56 38.578125 55.875 
Q 39.703125 55.765625 41.0625 55.515625 
z
" id="DejaVuSans-72"/>
     <path d="M 9.421875 54.6875 
L 18.40625 54.6875 
L 18.40625 0 
L 9.421875 0 
z
M 9.421875 75.984375 
L 18.40625 75.984375 
L 18.40625 64.59375 
L 9.421875 64.59375 
z
" id="DejaVuSans-69"/>
     <path d="M 32.171875 -5.078125 
Q 28.375 -14.84375 24.75 -17.8125 
Q 21.140625 -20.796875 15.09375 -20.796875 
L 7.90625 -20.796875 
L 7.90625 -13.28125 
L 13.1875 -13.28125 
Q 16.890625 -13.28125 18.9375 -11.515625 
Q 21 -9.765625 23.484375 -3.21875 
L 25.09375 0.875 
L 2.984375 54.6875 
L 12.5 54.6875 
L 29.59375 11.921875 
L 46.6875 54.6875 
L 56.203125 54.6875 
z
" id="DejaVuSans-79"/>
    </defs>
    <g transform="translate(118.112813 35.472)scale(0.12 -0.12)">
     <use xlink:href="#DejaVuSans-50"/>
     <use x="60.302734" xlink:href="#DejaVuSans-6c"/>
     <use x="88.085938" xlink:href="#DejaVuSans-6f"/>
     <use x="149.267578" xlink:href="#DejaVuSans-74"/>
     <use x="188.476562" xlink:href="#DejaVuSans-20"/>
     <use x="220.263672" xlink:href="#DejaVuSans-6f"/>
     <use x="281.445312" xlink:href="#DejaVuSans-66"/>
     <use x="316.650391" xlink:href="#DejaVuSans-20"/>
     <use x="348.4375" xlink:href="#DejaVuSans-54"/>
     <use x="409.255859" xlink:href="#DejaVuSans-65"/>
     <use x="470.779297" xlink:href="#DejaVuSans-73"/>
     <use x="522.878906" xlink:href="#DejaVuSans-74"/>
     <use x="562.087891" xlink:href="#DejaVuSans-20"/>
     <use x="593.875" xlink:href="#DejaVuSans-44"/>
     <use x="670.876953" xlink:href="#DejaVuSans-61"/>
     <use x="732.15625" xlink:href="#DejaVuSans-74"/>
     <use x="771.365234" xlink:href="#DejaVuSans-61"/>
     <use x="832.644531" xlink:href="#DejaVuSans-20"/>
     <use x="864.431641" xlink:href="#DejaVuSans-76"/>
     <use x="923.611328" xlink:href="#DejaVuSans-73"/>
     <use x="975.710938" xlink:href="#DejaVuSans-20"/>
     <use x="1007.498047" xlink:href="#DejaVuSans-4d"/>
     <use x="1093.777344" xlink:href="#DejaVuSans-43"/>
     <use x="1163.601562" xlink:href="#DejaVuSans-4d"/>
     <use x="1249.880859" xlink:href="#DejaVuSans-43"/>
     <use x="1319.705078" xlink:href="#DejaVuSans-20"/>
     <use x="1351.492188" xlink:href="#DejaVuSans-55"/>
     <use x="1424.685547" xlink:href="#DejaVuSans-6e"/>
     <use x="1488.064453" xlink:href="#DejaVuSans-63"/>
     <use x="1543.044922" xlink:href="#DejaVuSans-65"/>
     <use x="1604.568359" xlink:href="#DejaVuSans-72"/>
     <use x="1645.681641" xlink:href="#DejaVuSans-74"/>
     <use x="1684.890625" xlink:href="#DejaVuSans-61"/>
     <use x="1746.169922" xlink:href="#DejaVuSans-69"/>
     <use x="1773.953125" xlink:href="#DejaVuSans-6e"/>
     <use x="1837.332031" xlink:href="#DejaVuSans-74"/>
     <use x="1876.541016" xlink:href="#DejaVuSans-79"/>
     <use x="1935.720703" xlink:href="#DejaVuSans-20"/>
    </g>
   </g>
   <g id="legend_1">
    <g id="patch_7">
     <path d="M 277.843437 108.1845 
L 407.72 108.1845 
Q 409.72 108.1845 409.72 106.1845 
L 409.72 48.472 
Q 409.72 46.472 407.72 46.472 
L 277.843437 46.472 
Q 275.843437 46.472 275.843437 48.472 
L 275.843437 106.1845 
Q 275.843437 108.1845 277.843437 108.1845 
z
" style="fill:#ffffff;opacity:0.8;stroke:#cccccc;stroke-linejoin:miter;"/>
    </g>
    <g id="line2d_16">
     <path d="M 279.843437 54.570438 
L 299.843437 54.570438 
" style="fill:none;stroke:#1f77b4;stroke-linecap:square;stroke-width:1.5;"/>
    </g>
    <g id="line2d_17"/>
    <g id="text_13">
     <!-- actual -->
     <defs>
      <path d="M 8.5 21.578125 
L 8.5 54.6875 
L 17.484375 54.6875 
L 17.484375 21.921875 
Q 17.484375 14.15625 20.5 10.265625 
Q 23.53125 6.390625 29.59375 6.390625 
Q 36.859375 6.390625 41.078125 11.03125 
Q 45.3125 15.671875 45.3125 23.6875 
L 45.3125 54.6875 
L 54.296875 54.6875 
L 54.296875 0 
L 45.3125 0 
L 45.3125 8.40625 
Q 42.046875 3.421875 37.71875 1 
Q 33.40625 -1.421875 27.6875 -1.421875 
Q 18.265625 -1.421875 13.375 4.4375 
Q 8.5 10.296875 8.5 21.578125 
z
M 31.109375 56 
z
" id="DejaVuSans-75"/>
     </defs>
     <g transform="translate(307.843437 58.070438)scale(0.1 -0.1)">
      <use xlink:href="#DejaVuSans-61"/>
      <use x="61.279297" xlink:href="#DejaVuSans-63"/>
      <use x="116.259766" xlink:href="#DejaVuSans-74"/>
      <use x="155.46875" xlink:href="#DejaVuSans-75"/>
      <use x="218.847656" xlink:href="#DejaVuSans-61"/>
      <use x="280.126953" xlink:href="#DejaVuSans-6c"/>
     </g>
    </g>
    <g id="line2d_18">
     <path d="M 279.843437 69.248563 
L 299.843437 69.248563 
" style="fill:none;stroke:#ff7f0e;stroke-linecap:square;stroke-width:1.5;"/>
    </g>
    <g id="line2d_19"/>
    <g id="text_14">
     <!-- pred. (mean) -->
     <defs>
      <path d="M 18.109375 8.203125 
L 18.109375 -20.796875 
L 9.078125 -20.796875 
L 9.078125 54.6875 
L 18.109375 54.6875 
L 18.109375 46.390625 
Q 20.953125 51.265625 25.265625 53.625 
Q 29.59375 56 35.59375 56 
Q 45.5625 56 51.78125 48.09375 
Q 58.015625 40.1875 58.015625 27.296875 
Q 58.015625 14.40625 51.78125 6.484375 
Q 45.5625 -1.421875 35.59375 -1.421875 
Q 29.59375 -1.421875 25.265625 0.953125 
Q 20.953125 3.328125 18.109375 8.203125 
z
M 48.6875 27.296875 
Q 48.6875 37.203125 44.609375 42.84375 
Q 40.53125 48.484375 33.40625 48.484375 
Q 26.265625 48.484375 22.1875 42.84375 
Q 18.109375 37.203125 18.109375 27.296875 
Q 18.109375 17.390625 22.1875 11.75 
Q 26.265625 6.109375 33.40625 6.109375 
Q 40.53125 6.109375 44.609375 11.75 
Q 48.6875 17.390625 48.6875 27.296875 
z
" id="DejaVuSans-70"/>
      <path d="M 45.40625 46.390625 
L 45.40625 75.984375 
L 54.390625 75.984375 
L 54.390625 0 
L 45.40625 0 
L 45.40625 8.203125 
Q 42.578125 3.328125 38.25 0.953125 
Q 33.9375 -1.421875 27.875 -1.421875 
Q 17.96875 -1.421875 11.734375 6.484375 
Q 5.515625 14.40625 5.515625 27.296875 
Q 5.515625 40.1875 11.734375 48.09375 
Q 17.96875 56 27.875 56 
Q 33.9375 56 38.25 53.625 
Q 42.578125 51.265625 45.40625 46.390625 
z
M 14.796875 27.296875 
Q 14.796875 17.390625 18.875 11.75 
Q 22.953125 6.109375 30.078125 6.109375 
Q 37.203125 6.109375 41.296875 11.75 
Q 45.40625 17.390625 45.40625 27.296875 
Q 45.40625 37.203125 41.296875 42.84375 
Q 37.203125 48.484375 30.078125 48.484375 
Q 22.953125 48.484375 18.875 42.84375 
Q 14.796875 37.203125 14.796875 27.296875 
z
" id="DejaVuSans-64"/>
      <path d="M 31 75.875 
Q 24.46875 64.65625 21.28125 53.65625 
Q 18.109375 42.671875 18.109375 31.390625 
Q 18.109375 20.125 21.3125 9.0625 
Q 24.515625 -2 31 -13.1875 
L 23.1875 -13.1875 
Q 15.875 -1.703125 12.234375 9.375 
Q 8.59375 20.453125 8.59375 31.390625 
Q 8.59375 42.28125 12.203125 53.3125 
Q 15.828125 64.359375 23.1875 75.875 
z
" id="DejaVuSans-28"/>
      <path d="M 52 44.1875 
Q 55.375 50.25 60.0625 53.125 
Q 64.75 56 71.09375 56 
Q 79.640625 56 84.28125 50.015625 
Q 88.921875 44.046875 88.921875 33.015625 
L 88.921875 0 
L 79.890625 0 
L 79.890625 32.71875 
Q 79.890625 40.578125 77.09375 44.375 
Q 74.3125 48.1875 68.609375 48.1875 
Q 61.625 48.1875 57.5625 43.546875 
Q 53.515625 38.921875 53.515625 30.90625 
L 53.515625 0 
L 44.484375 0 
L 44.484375 32.71875 
Q 44.484375 40.625 41.703125 44.40625 
Q 38.921875 48.1875 33.109375 48.1875 
Q 26.21875 48.1875 22.15625 43.53125 
Q 18.109375 38.875 18.109375 30.90625 
L 18.109375 0 
L 9.078125 0 
L 9.078125 54.6875 
L 18.109375 54.6875 
L 18.109375 46.1875 
Q 21.1875 51.21875 25.484375 53.609375 
Q 29.78125 56 35.6875 56 
Q 41.65625 56 45.828125 52.96875 
Q 50 49.953125 52 44.1875 
z
" id="DejaVuSans-6d"/>
      <path d="M 8.015625 75.875 
L 15.828125 75.875 
Q 23.140625 64.359375 26.78125 53.3125 
Q 30.421875 42.28125 30.421875 31.390625 
Q 30.421875 20.453125 26.78125 9.375 
Q 23.140625 -1.703125 15.828125 -13.1875 
L 8.015625 -13.1875 
Q 14.5 -2 17.703125 9.0625 
Q 20.90625 20.125 20.90625 31.390625 
Q 20.90625 42.671875 17.703125 53.65625 
Q 14.5 64.65625 8.015625 75.875 
z
" id="DejaVuSans-29"/>
     </defs>
     <g transform="translate(307.843437 72.748563)scale(0.1 -0.1)">
      <use xlink:href="#DejaVuSans-70"/>
      <use x="63.476562" xlink:href="#DejaVuSans-72"/>
      <use x="104.558594" xlink:href="#DejaVuSans-65"/>
      <use x="166.082031" xlink:href="#DejaVuSans-64"/>
      <use x="229.558594" xlink:href="#DejaVuSans-2e"/>
      <use x="261.345703" xlink:href="#DejaVuSans-20"/>
      <use x="293.132812" xlink:href="#DejaVuSans-28"/>
      <use x="332.146484" xlink:href="#DejaVuSans-6d"/>
      <use x="429.558594" xlink:href="#DejaVuSans-65"/>
      <use x="491.082031" xlink:href="#DejaVuSans-61"/>
      <use x="552.361328" xlink:href="#DejaVuSans-6e"/>
      <use x="615.740234" xlink:href="#DejaVuSans-29"/>
     </g>
    </g>
    <g id="line2d_20">
     <path d="M 279.843437 83.926688 
L 299.843437 83.926688 
" style="fill:none;stroke:#2ca02c;stroke-linecap:square;stroke-width:1.5;"/>
    </g>
    <g id="line2d_21"/>
    <g id="text_15">
     <!-- pred.(5th percen.) -->
     <defs>
      <path d="M 10.796875 72.90625 
L 49.515625 72.90625 
L 49.515625 64.59375 
L 19.828125 64.59375 
L 19.828125 46.734375 
Q 21.96875 47.46875 24.109375 47.828125 
Q 26.265625 48.1875 28.421875 48.1875 
Q 40.625 48.1875 47.75 41.5 
Q 54.890625 34.8125 54.890625 23.390625 
Q 54.890625 11.625 47.5625 5.09375 
Q 40.234375 -1.421875 26.90625 -1.421875 
Q 22.3125 -1.421875 17.546875 -0.640625 
Q 12.796875 0.140625 7.71875 1.703125 
L 7.71875 11.625 
Q 12.109375 9.234375 16.796875 8.0625 
Q 21.484375 6.890625 26.703125 6.890625 
Q 35.15625 6.890625 40.078125 11.328125 
Q 45.015625 15.765625 45.015625 23.390625 
Q 45.015625 31 40.078125 35.4375 
Q 35.15625 39.890625 26.703125 39.890625 
Q 22.75 39.890625 18.8125 39.015625 
Q 14.890625 38.140625 10.796875 36.28125 
z
" id="DejaVuSans-35"/>
      <path d="M 54.890625 33.015625 
L 54.890625 0 
L 45.90625 0 
L 45.90625 32.71875 
Q 45.90625 40.484375 42.875 44.328125 
Q 39.84375 48.1875 33.796875 48.1875 
Q 26.515625 48.1875 22.3125 43.546875 
Q 18.109375 38.921875 18.109375 30.90625 
L 18.109375 0 
L 9.078125 0 
L 9.078125 75.984375 
L 18.109375 75.984375 
L 18.109375 46.1875 
Q 21.34375 51.125 25.703125 53.5625 
Q 30.078125 56 35.796875 56 
Q 45.21875 56 50.046875 50.171875 
Q 54.890625 44.34375 54.890625 33.015625 
z
" id="DejaVuSans-68"/>
     </defs>
     <g transform="translate(307.843437 87.426688)scale(0.1 -0.1)">
      <use xlink:href="#DejaVuSans-70"/>
      <use x="63.476562" xlink:href="#DejaVuSans-72"/>
      <use x="104.558594" xlink:href="#DejaVuSans-65"/>
      <use x="166.082031" xlink:href="#DejaVuSans-64"/>
      <use x="229.558594" xlink:href="#DejaVuSans-2e"/>
      <use x="261.345703" xlink:href="#DejaVuSans-28"/>
      <use x="300.359375" xlink:href="#DejaVuSans-35"/>
      <use x="363.982422" xlink:href="#DejaVuSans-74"/>
      <use x="403.191406" xlink:href="#DejaVuSans-68"/>
      <use x="466.570312" xlink:href="#DejaVuSans-20"/>
      <use x="498.357422" xlink:href="#DejaVuSans-70"/>
      <use x="561.833984" xlink:href="#DejaVuSans-65"/>
      <use x="623.357422" xlink:href="#DejaVuSans-72"/>
      <use x="664.439453" xlink:href="#DejaVuSans-63"/>
      <use x="719.419922" xlink:href="#DejaVuSans-65"/>
      <use x="780.943359" xlink:href="#DejaVuSans-6e"/>
      <use x="844.322266" xlink:href="#DejaVuSans-2e"/>
      <use x="876.109375" xlink:href="#DejaVuSans-29"/>
     </g>
    </g>
    <g id="line2d_22">
     <path d="M 279.843437 98.604813 
L 299.843437 98.604813 
" style="fill:none;stroke:#d62728;stroke-linecap:square;stroke-width:1.5;"/>
    </g>
    <g id="line2d_23"/>
    <g id="text_16">
     <!-- pred.(95th percen.) -->
     <defs>
      <path d="M 10.984375 1.515625 
L 10.984375 10.5 
Q 14.703125 8.734375 18.5 7.8125 
Q 22.3125 6.890625 25.984375 6.890625 
Q 35.75 6.890625 40.890625 13.453125 
Q 46.046875 20.015625 46.78125 33.40625 
Q 43.953125 29.203125 39.59375 26.953125 
Q 35.25 24.703125 29.984375 24.703125 
Q 19.046875 24.703125 12.671875 31.3125 
Q 6.296875 37.9375 6.296875 49.421875 
Q 6.296875 60.640625 12.9375 67.421875 
Q 19.578125 74.21875 30.609375 74.21875 
Q 43.265625 74.21875 49.921875 64.515625 
Q 56.59375 54.828125 56.59375 36.375 
Q 56.59375 19.140625 48.40625 8.859375 
Q 40.234375 -1.421875 26.421875 -1.421875 
Q 22.703125 -1.421875 18.890625 -0.6875 
Q 15.09375 0.046875 10.984375 1.515625 
z
M 30.609375 32.421875 
Q 37.25 32.421875 41.125 36.953125 
Q 45.015625 41.5 45.015625 49.421875 
Q 45.015625 57.28125 41.125 61.84375 
Q 37.25 66.40625 30.609375 66.40625 
Q 23.96875 66.40625 20.09375 61.84375 
Q 16.21875 57.28125 16.21875 49.421875 
Q 16.21875 41.5 20.09375 36.953125 
Q 23.96875 32.421875 30.609375 32.421875 
z
" id="DejaVuSans-39"/>
     </defs>
     <g transform="translate(307.843437 102.104813)scale(0.1 -0.1)">
      <use xlink:href="#DejaVuSans-70"/>
      <use x="63.476562" xlink:href="#DejaVuSans-72"/>
      <use x="104.558594" xlink:href="#DejaVuSans-65"/>
      <use x="166.082031" xlink:href="#DejaVuSans-64"/>
      <use x="229.558594" xlink:href="#DejaVuSans-2e"/>
      <use x="261.345703" xlink:href="#DejaVuSans-28"/>
      <use x="300.359375" xlink:href="#DejaVuSans-39"/>
      <use x="363.982422" xlink:href="#DejaVuSans-35"/>
      <use x="427.605469" xlink:href="#DejaVuSans-74"/>
      <use x="466.814453" xlink:href="#DejaVuSans-68"/>
      <use x="530.193359" xlink:href="#DejaVuSans-20"/>
      <use x="561.980469" xlink:href="#DejaVuSans-70"/>
      <use x="625.457031" xlink:href="#DejaVuSans-65"/>
      <use x="686.980469" xlink:href="#DejaVuSans-72"/>
      <use x="728.0625" xlink:href="#DejaVuSans-63"/>
      <use x="783.042969" xlink:href="#DejaVuSans-65"/>
      <use x="844.566406" xlink:href="#DejaVuSans-6e"/>
      <use x="907.945312" xlink:href="#DejaVuSans-2e"/>
      <use x="939.732422" xlink:href="#DejaVuSans-29"/>
     </g>
    </g>
   </g>
  </g>
 </g>
 <defs>
  <clipPath id="pbd2d5223c8">
   <rect height="266.112" width="357.12" x="57.6" y="41.472"/>
  </clipPath>
 </defs>
</svg>
