<?xml version="1.0" encoding="utf-8" standalone="no"?>
<!DOCTYPE svg PUBLIC "-//W3C//DTD SVG 1.1//EN"
  "http://www.w3.org/Graphics/SVG/1.1/DTD/svg11.dtd">
<!-- Created with matplotlib (http://matplotlib.org/) -->
<svg height="345.6pt" version="1.1" viewBox="0 0 460.8 345.6" width="460.8pt" xmlns="http://www.w3.org/2000/svg" xmlns:xlink="http://www.w3.org/1999/xlink">
 <defs>
  <style type="text/css">
*{stroke-linecap:butt;stroke-linejoin:round;}
  </style>
 </defs>
 <g id="figure_1">
  <g id="patch_1">
   <path d="M 0 345.6 
L 460.8 345.6 
L 460.8 0 
L 0 0 
z
" style="fill:#ffffff;"/>
  </g>
  <g id="axes_1">
   <g id="patch_2">
    <path d="M 57.6 307.584 
L 414.72 307.584 
L 414.72 41.472 
L 57.6 41.472 
z
" style="fill:#ffffff;"/>
   </g>
   <g id="PolyCollection_1">
    <path clip-path="url(#pa21fc463d8)" d="M 73.832727 53.568 
L 73.832727 277.039313 
L 74.92584 279.495042 
L 76.018953 279.495042 
L 77.112066 279.495042 
L 78.205179 277.039313 
L 79.298292 277.039313 
L 80.391405 274.583585 
L 81.484518 272.127856 
L 82.577631 264.76067 
L 83.670744 254.937755 
L 84.763857 237.747654 
L 85.85697 218.101824 
L 86.950083 205.823181 
L 88.043196 200.911723 
L 89.136309 196.000266 
L 90.229421 191.088808 
L 91.322534 188.63308 
L 92.415647 186.177351 
L 93.50876 181.265893 
L 94.601873 176.477222 
L 95.694986 176.354436 
L 96.788099 176.354436 
L 97.881212 173.898707 
L 98.974325 176.354436 
L 100.067438 178.810165 
L 101.160551 181.265893 
L 102.253664 181.265893 
L 103.346777 183.721622 
L 104.43989 188.63308 
L 105.533003 188.63308 
L 106.626116 193.544537 
L 107.719229 193.544537 
L 108.812342 198.455994 
L 109.905455 198.455994 
L 110.998567 198.455994 
L 112.09168 198.455994 
L 113.184793 198.455994 
L 114.277906 198.455994 
L 115.371019 198.455994 
L 116.464132 200.911723 
L 117.557245 203.367452 
L 118.650358 205.823181 
L 119.743471 208.278909 
L 120.836584 218.101824 
L 121.929697 223.013282 
L 123.02281 227.924739 
L 124.115923 237.747654 
L 125.209036 245.11484 
L 126.302149 247.570569 
L 127.395262 250.026298 
L 128.488375 257.393484 
L 129.581488 262.304941 
L 130.674601 262.304941 
L 131.767713 264.76067 
L 132.860826 264.76067 
L 133.953939 267.216399 
L 135.047052 269.672127 
L 136.140165 272.127856 
L 137.233278 274.583585 
L 138.326391 274.583585 
L 139.419504 277.039313 
L 140.512617 277.039313 
L 141.60573 274.583585 
L 142.698843 274.583585 
L 143.791956 274.583585 
L 144.885069 274.583585 
L 145.978182 272.127856 
L 147.071295 267.216399 
L 148.164408 259.849212 
L 149.257521 257.393484 
L 150.350634 252.482026 
L 151.443747 245.11484 
L 152.53686 240.203383 
L 153.629972 235.291925 
L 154.723085 230.380468 
L 155.816198 220.557553 
L 156.909311 213.190367 
L 158.002424 208.278909 
L 159.095537 208.278909 
L 160.18865 208.278909 
L 161.281763 208.278909 
L 162.374876 203.367452 
L 163.467989 198.578781 
L 164.561102 193.544537 
L 165.654215 191.088808 
L 166.747328 186.177351 
L 167.840441 183.721622 
L 168.933554 181.265893 
L 170.026667 181.265893 
L 171.11978 183.721622 
L 172.212893 181.265893 
L 173.306006 181.265893 
L 174.399118 183.721622 
L 175.492231 186.177351 
L 176.585344 188.63308 
L 177.678457 193.544537 
L 178.77157 196.000266 
L 179.864683 198.455994 
L 180.957796 200.911723 
L 182.050909 200.911723 
L 183.144022 203.367452 
L 184.237135 203.367452 
L 185.330248 205.823181 
L 186.423361 205.823181 
L 187.516474 205.823181 
L 188.609587 205.823181 
L 189.7027 205.823181 
L 190.795813 208.278909 
L 191.888926 208.278909 
L 192.982039 208.278909 
L 194.075152 208.278909 
L 195.168264 210.734638 
L 196.261377 210.734638 
L 197.35449 213.190367 
L 198.447603 220.557553 
L 199.540716 227.924739 
L 200.633829 232.836196 
L 201.726942 232.836196 
L 202.820055 235.291925 
L 203.913168 240.203383 
L 205.006281 247.570569 
L 206.099394 252.482026 
L 207.192507 257.393484 
L 208.28562 262.304941 
L 209.378733 264.76067 
L 210.471846 267.216399 
L 211.564959 269.672127 
L 212.658072 269.672127 
L 213.751185 272.127856 
L 214.844298 274.583585 
L 215.93741 277.039313 
L 217.030523 279.495042 
L 218.123636 279.495042 
L 219.216749 281.950771 
L 220.309862 281.950771 
L 221.402975 281.950771 
L 222.496088 281.950771 
L 223.589201 281.950771 
L 224.682314 279.495042 
L 225.775427 279.495042 
L 226.86854 277.039313 
L 227.961653 277.039313 
L 229.054766 272.127856 
L 230.147879 267.216399 
L 231.240992 262.304941 
L 232.334105 254.937755 
L 233.427218 247.570569 
L 234.520331 240.203383 
L 235.613444 227.924739 
L 236.706556 218.101824 
L 237.799669 208.278909 
L 238.892782 205.823181 
L 239.985895 203.367452 
L 241.079008 198.455994 
L 242.172121 196.000266 
L 243.265234 196.000266 
L 244.358347 193.544537 
L 245.45146 193.544537 
L 246.544573 193.544537 
L 247.637686 193.544537 
L 248.730799 193.544537 
L 249.823912 193.544537 
L 250.917025 193.544537 
L 252.010138 196.000266 
L 253.103251 196.000266 
L 254.196364 196.123052 
L 255.289477 198.455994 
L 256.38259 200.911723 
L 257.475702 200.911723 
L 258.568815 203.367452 
L 259.661928 205.823181 
L 260.755041 205.823181 
L 261.848154 205.823181 
L 262.941267 208.278909 
L 264.03438 208.278909 
L 265.127493 210.734638 
L 266.220606 213.190367 
L 267.313719 223.013282 
L 268.406832 230.380468 
L 269.499945 232.836196 
L 270.593058 232.836196 
L 271.686171 235.291925 
L 272.779284 235.291925 
L 273.872397 232.836196 
L 274.96551 230.380468 
L 276.058623 227.924739 
L 277.151736 230.380468 
L 278.244848 235.291925 
L 279.337961 240.203383 
L 280.431074 245.11484 
L 281.524187 250.026298 
L 282.6173 254.937755 
L 283.710413 257.393484 
L 284.803526 259.849212 
L 285.896639 262.304941 
L 286.989752 267.216399 
L 288.082865 269.672127 
L 289.175978 272.127856 
L 290.269091 274.583585 
L 291.362204 277.039313 
L 292.455317 279.495042 
L 293.54843 279.495042 
L 294.641543 279.495042 
L 295.734656 279.495042 
L 296.827769 277.039313 
L 297.920882 274.583585 
L 299.013994 272.127856 
L 300.107107 267.216399 
L 301.20022 259.849212 
L 302.293333 250.026298 
L 303.386446 237.747654 
L 304.479559 227.924739 
L 305.572672 215.646095 
L 306.665785 205.945967 
L 307.758898 205.823181 
L 308.852011 203.367452 
L 309.945124 200.911723 
L 311.038237 196.000266 
L 312.13135 191.088808 
L 313.224463 186.177351 
L 314.317576 181.265893 
L 315.410689 178.810165 
L 316.503802 176.354436 
L 317.596915 176.354436 
L 318.690028 178.810165 
L 319.78314 181.265893 
L 320.876253 183.721622 
L 321.969366 186.177351 
L 323.062479 188.63308 
L 324.155592 191.088808 
L 325.248705 193.544537 
L 326.341818 191.088808 
L 327.434931 193.544537 
L 328.528044 191.088808 
L 329.621157 191.088808 
L 330.71427 193.544537 
L 331.807383 193.544537 
L 332.900496 198.455994 
L 333.993609 200.911723 
L 335.086722 203.367452 
L 336.179835 208.278909 
L 337.272948 213.190367 
L 338.366061 218.101824 
L 339.459174 220.557553 
L 340.552287 225.46901 
L 341.645399 230.380468 
L 342.738512 240.203383 
L 343.831625 247.570569 
L 344.924738 252.482026 
L 346.017851 259.849212 
L 347.110964 267.216399 
L 348.204077 269.672127 
L 349.29719 272.127856 
L 350.390303 272.127856 
L 351.483416 274.583585 
L 352.576529 277.039313 
L 353.669642 277.039313 
L 354.762755 277.039313 
L 355.855868 277.039313 
L 356.948981 277.039313 
L 358.042094 274.583585 
L 359.135207 274.583585 
L 360.22832 274.583585 
L 361.321433 274.583585 
L 362.414545 277.039313 
L 363.507658 277.039313 
L 364.600771 279.495042 
L 365.693884 279.495042 
L 366.786997 279.495042 
L 367.88011 281.950771 
L 368.973223 281.950771 
L 370.066336 281.950771 
L 371.159449 281.950771 
L 372.252562 281.950771 
L 373.345675 281.950771 
L 374.438788 279.495042 
L 375.531901 279.495042 
L 376.625014 277.039313 
L 377.718127 274.583585 
L 378.81124 269.672127 
L 379.904353 262.304941 
L 380.997466 254.937755 
L 382.090579 250.026298 
L 383.183691 245.11484 
L 384.276804 235.291925 
L 385.369917 227.924739 
L 386.46303 223.013282 
L 387.556143 218.101824 
L 388.649256 213.190367 
L 389.742369 208.278909 
L 390.835482 208.278909 
L 391.928595 208.278909 
L 393.021708 210.734638 
L 394.114821 208.278909 
L 395.207934 208.278909 
L 396.301047 210.734638 
L 397.39416 213.190367 
L 398.487273 210.734638 
L 398.487273 53.568 
L 398.487273 53.568 
L 397.39416 53.568 
L 396.301047 53.568 
L 395.207934 53.568 
L 394.114821 53.568 
L 393.021708 53.568 
L 391.928595 53.568 
L 390.835482 53.568 
L 389.742369 53.568 
L 388.649256 53.568 
L 387.556143 53.568 
L 386.46303 53.568 
L 385.369917 53.568 
L 384.276804 53.568 
L 383.183691 53.568 
L 382.090579 53.568 
L 380.997466 53.568 
L 379.904353 53.568 
L 378.81124 53.568 
L 377.718127 53.568 
L 376.625014 53.568 
L 375.531901 53.568 
L 374.438788 53.568 
L 373.345675 53.568 
L 372.252562 53.568 
L 371.159449 53.568 
L 370.066336 53.568 
L 368.973223 53.568 
L 367.88011 53.568 
L 366.786997 53.568 
L 365.693884 53.568 
L 364.600771 53.568 
L 363.507658 53.568 
L 362.414545 53.568 
L 361.321433 53.568 
L 360.22832 53.568 
L 359.135207 53.568 
L 358.042094 53.568 
L 356.948981 53.568 
L 355.855868 53.568 
L 354.762755 53.568 
L 353.669642 53.568 
L 352.576529 53.568 
L 351.483416 53.568 
L 350.390303 53.568 
L 349.29719 53.568 
L 348.204077 53.568 
L 347.110964 53.568 
L 346.017851 53.568 
L 344.924738 53.568 
L 343.831625 53.568 
L 342.738512 53.568 
L 341.645399 53.568 
L 340.552287 53.568 
L 339.459174 53.568 
L 338.366061 53.568 
L 337.272948 53.568 
L 336.179835 53.568 
L 335.086722 53.568 
L 333.993609 53.568 
L 332.900496 53.568 
L 331.807383 53.568 
L 330.71427 53.568 
L 329.621157 53.568 
L 328.528044 53.568 
L 327.434931 53.568 
L 326.341818 53.568 
L 325.248705 53.568 
L 324.155592 53.568 
L 323.062479 53.568 
L 321.969366 53.568 
L 320.876253 53.568 
L 319.78314 53.568 
L 318.690028 53.568 
L 317.596915 53.568 
L 316.503802 53.568 
L 315.410689 53.568 
L 314.317576 53.568 
L 313.224463 53.568 
L 312.13135 53.568 
L 311.038237 53.568 
L 309.945124 53.568 
L 308.852011 53.568 
L 307.758898 53.568 
L 306.665785 53.568 
L 305.572672 53.568 
L 304.479559 53.568 
L 303.386446 53.568 
L 302.293333 53.568 
L 301.20022 53.568 
L 300.107107 53.568 
L 299.013994 53.568 
L 297.920882 53.568 
L 296.827769 53.568 
L 295.734656 53.568 
L 294.641543 53.568 
L 293.54843 53.568 
L 292.455317 53.568 
L 291.362204 53.568 
L 290.269091 53.568 
L 289.175978 53.568 
L 288.082865 53.568 
L 286.989752 53.568 
L 285.896639 53.568 
L 284.803526 53.568 
L 283.710413 53.568 
L 282.6173 53.568 
L 281.524187 53.568 
L 280.431074 53.568 
L 279.337961 53.568 
L 278.244848 53.568 
L 277.151736 53.568 
L 276.058623 53.568 
L 274.96551 53.568 
L 273.872397 53.568 
L 272.779284 53.568 
L 271.686171 53.568 
L 270.593058 53.568 
L 269.499945 53.568 
L 268.406832 53.568 
L 267.313719 53.568 
L 266.220606 53.568 
L 265.127493 53.568 
L 264.03438 53.568 
L 262.941267 53.568 
L 261.848154 53.568 
L 260.755041 53.568 
L 259.661928 53.568 
L 258.568815 53.568 
L 257.475702 53.568 
L 256.38259 53.568 
L 255.289477 53.568 
L 254.196364 53.568 
L 253.103251 53.568 
L 252.010138 53.568 
L 250.917025 53.568 
L 249.823912 53.568 
L 248.730799 53.568 
L 247.637686 53.568 
L 246.544573 53.568 
L 245.45146 53.568 
L 244.358347 53.568 
L 243.265234 53.568 
L 242.172121 53.568 
L 241.079008 53.568 
L 239.985895 53.568 
L 238.892782 53.568 
L 237.799669 53.568 
L 236.706556 53.568 
L 235.613444 53.568 
L 234.520331 53.568 
L 233.427218 53.568 
L 232.334105 53.568 
L 231.240992 53.568 
L 230.147879 53.568 
L 229.054766 53.568 
L 227.961653 53.568 
L 226.86854 53.568 
L 225.775427 53.568 
L 224.682314 53.568 
L 223.589201 53.568 
L 222.496088 53.568 
L 221.402975 53.568 
L 220.309862 53.568 
L 219.216749 53.568 
L 218.123636 53.568 
L 217.030523 53.568 
L 215.93741 53.568 
L 214.844298 53.568 
L 213.751185 53.568 
L 212.658072 53.568 
L 211.564959 53.568 
L 210.471846 53.568 
L 209.378733 53.568 
L 208.28562 53.568 
L 207.192507 53.568 
L 206.099394 53.568 
L 205.006281 53.568 
L 203.913168 53.568 
L 202.820055 53.568 
L 201.726942 53.568 
L 200.633829 53.568 
L 199.540716 53.568 
L 198.447603 53.568 
L 197.35449 53.568 
L 196.261377 53.568 
L 195.168264 53.568 
L 194.075152 53.568 
L 192.982039 53.568 
L 191.888926 53.568 
L 190.795813 53.568 
L 189.7027 53.568 
L 188.609587 53.568 
L 187.516474 53.568 
L 186.423361 53.568 
L 185.330248 53.568 
L 184.237135 53.568 
L 183.144022 53.568 
L 182.050909 53.568 
L 180.957796 53.568 
L 179.864683 53.568 
L 178.77157 53.568 
L 177.678457 53.568 
L 176.585344 53.568 
L 175.492231 53.568 
L 174.399118 53.568 
L 173.306006 53.568 
L 172.212893 53.568 
L 171.11978 53.568 
L 170.026667 53.568 
L 168.933554 53.568 
L 167.840441 53.568 
L 166.747328 53.568 
L 165.654215 53.568 
L 164.561102 53.568 
L 163.467989 53.568 
L 162.374876 53.568 
L 161.281763 53.568 
L 160.18865 53.568 
L 159.095537 53.568 
L 158.002424 53.568 
L 156.909311 53.568 
L 155.816198 53.568 
L 154.723085 53.568 
L 153.629972 53.568 
L 152.53686 53.568 
L 151.443747 53.568 
L 150.350634 53.568 
L 149.257521 53.568 
L 148.164408 53.568 
L 147.071295 53.568 
L 145.978182 53.568 
L 144.885069 53.568 
L 143.791956 53.568 
L 142.698843 53.568 
L 141.60573 53.568 
L 140.512617 53.568 
L 139.419504 53.568 
L 138.326391 53.568 
L 137.233278 53.568 
L 136.140165 53.568 
L 135.047052 53.568 
L 133.953939 53.568 
L 132.860826 53.568 
L 131.767713 53.568 
L 130.674601 53.568 
L 129.581488 53.568 
L 128.488375 53.568 
L 127.395262 53.568 
L 126.302149 53.568 
L 125.209036 53.568 
L 124.115923 53.568 
L 123.02281 53.568 
L 121.929697 53.568 
L 120.836584 53.568 
L 119.743471 53.568 
L 118.650358 53.568 
L 117.557245 53.568 
L 116.464132 53.568 
L 115.371019 53.568 
L 114.277906 53.568 
L 113.184793 53.568 
L 112.09168 53.568 
L 110.998567 53.568 
L 109.905455 53.568 
L 108.812342 53.568 
L 107.719229 53.568 
L 106.626116 53.568 
L 105.533003 53.568 
L 104.43989 53.568 
L 103.346777 53.568 
L 102.253664 53.568 
L 101.160551 53.568 
L 100.067438 53.568 
L 98.974325 53.568 
L 97.881212 53.568 
L 96.788099 53.568 
L 95.694986 53.568 
L 94.601873 53.568 
L 93.50876 53.568 
L 92.415647 53.568 
L 91.322534 53.568 
L 90.229421 53.568 
L 89.136309 53.568 
L 88.043196 53.568 
L 86.950083 53.568 
L 85.85697 53.568 
L 84.763857 53.568 
L 83.670744 53.568 
L 82.577631 53.568 
L 81.484518 53.568 
L 80.391405 53.568 
L 79.298292 53.568 
L 78.205179 53.568 
L 77.112066 53.568 
L 76.018953 53.568 
L 74.92584 53.568 
L 73.832727 53.568 
z
" style="fill:#008000;fill-opacity:0.4;"/>
   </g>
   <g id="matplotlib.axis_1">
    <g id="xtick_1">
     <g id="line2d_1">
      <defs>
       <path d="M 0 0 
L 0 3.5 
" id="m14540803a3" style="stroke:#000000;stroke-width:0.8;"/>
      </defs>
      <g>
       <use style="stroke:#000000;stroke-width:0.8;" x="73.832727" xlink:href="#m14540803a3" y="307.584"/>
      </g>
     </g>
     <g id="text_1">
      <!-- 0.0 -->
      <defs>
       <path d="M 31.78125 66.40625 
Q 24.171875 66.40625 20.328125 58.90625 
Q 16.5 51.421875 16.5 36.375 
Q 16.5 21.390625 20.328125 13.890625 
Q 24.171875 6.390625 31.78125 6.390625 
Q 39.453125 6.390625 43.28125 13.890625 
Q 47.125 21.390625 47.125 36.375 
Q 47.125 51.421875 43.28125 58.90625 
Q 39.453125 66.40625 31.78125 66.40625 
z
M 31.78125 74.21875 
Q 44.046875 74.21875 50.515625 64.515625 
Q 56.984375 54.828125 56.984375 36.375 
Q 56.984375 17.96875 50.515625 8.265625 
Q 44.046875 -1.421875 31.78125 -1.421875 
Q 19.53125 -1.421875 13.0625 8.265625 
Q 6.59375 17.96875 6.59375 36.375 
Q 6.59375 54.828125 13.0625 64.515625 
Q 19.53125 74.21875 31.78125 74.21875 
z
" id="DejaVuSans-30"/>
       <path d="M 10.6875 12.40625 
L 21 12.40625 
L 21 0 
L 10.6875 0 
z
" id="DejaVuSans-2e"/>
      </defs>
      <g transform="translate(65.881165 322.182437)scale(0.1 -0.1)">
       <use xlink:href="#DejaVuSans-30"/>
       <use x="63.623047" xlink:href="#DejaVuSans-2e"/>
       <use x="95.410156" xlink:href="#DejaVuSans-30"/>
      </g>
     </g>
    </g>
    <g id="xtick_2">
     <g id="line2d_2">
      <g>
       <use style="stroke:#000000;stroke-width:0.8;" x="138.763636" xlink:href="#m14540803a3" y="307.584"/>
      </g>
     </g>
     <g id="text_2">
      <!-- 0.2 -->
      <defs>
       <path d="M 19.1875 8.296875 
L 53.609375 8.296875 
L 53.609375 0 
L 7.328125 0 
L 7.328125 8.296875 
Q 12.9375 14.109375 22.625 23.890625 
Q 32.328125 33.6875 34.8125 36.53125 
Q 39.546875 41.84375 41.421875 45.53125 
Q 43.3125 49.21875 43.3125 52.78125 
Q 43.3125 58.59375 39.234375 62.25 
Q 35.15625 65.921875 28.609375 65.921875 
Q 23.96875 65.921875 18.8125 64.3125 
Q 13.671875 62.703125 7.8125 59.421875 
L 7.8125 69.390625 
Q 13.765625 71.78125 18.9375 73 
Q 24.125 74.21875 28.421875 74.21875 
Q 39.75 74.21875 46.484375 68.546875 
Q 53.21875 62.890625 53.21875 53.421875 
Q 53.21875 48.921875 51.53125 44.890625 
Q 49.859375 40.875 45.40625 35.40625 
Q 44.1875 33.984375 37.640625 27.21875 
Q 31.109375 20.453125 19.1875 8.296875 
z
" id="DejaVuSans-32"/>
      </defs>
      <g transform="translate(130.812074 322.182437)scale(0.1 -0.1)">
       <use xlink:href="#DejaVuSans-30"/>
       <use x="63.623047" xlink:href="#DejaVuSans-2e"/>
       <use x="95.410156" xlink:href="#DejaVuSans-32"/>
      </g>
     </g>
    </g>
    <g id="xtick_3">
     <g id="line2d_3">
      <g>
       <use style="stroke:#000000;stroke-width:0.8;" x="203.694545" xlink:href="#m14540803a3" y="307.584"/>
      </g>
     </g>
     <g id="text_3">
      <!-- 0.4 -->
      <defs>
       <path d="M 37.796875 64.3125 
L 12.890625 25.390625 
L 37.796875 25.390625 
z
M 35.203125 72.90625 
L 47.609375 72.90625 
L 47.609375 25.390625 
L 58.015625 25.390625 
L 58.015625 17.1875 
L 47.609375 17.1875 
L 47.609375 0 
L 37.796875 0 
L 37.796875 17.1875 
L 4.890625 17.1875 
L 4.890625 26.703125 
z
" id="DejaVuSans-34"/>
      </defs>
      <g transform="translate(195.742983 322.182437)scale(0.1 -0.1)">
       <use xlink:href="#DejaVuSans-30"/>
       <use x="63.623047" xlink:href="#DejaVuSans-2e"/>
       <use x="95.410156" xlink:href="#DejaVuSans-34"/>
      </g>
     </g>
    </g>
    <g id="xtick_4">
     <g id="line2d_4">
      <g>
       <use style="stroke:#000000;stroke-width:0.8;" x="268.625455" xlink:href="#m14540803a3" y="307.584"/>
      </g>
     </g>
     <g id="text_4">
      <!-- 0.6 -->
      <defs>
       <path d="M 33.015625 40.375 
Q 26.375 40.375 22.484375 35.828125 
Q 18.609375 31.296875 18.609375 23.390625 
Q 18.609375 15.53125 22.484375 10.953125 
Q 26.375 6.390625 33.015625 6.390625 
Q 39.65625 6.390625 43.53125 10.953125 
Q 47.40625 15.53125 47.40625 23.390625 
Q 47.40625 31.296875 43.53125 35.828125 
Q 39.65625 40.375 33.015625 40.375 
z
M 52.59375 71.296875 
L 52.59375 62.3125 
Q 48.875 64.0625 45.09375 64.984375 
Q 41.3125 65.921875 37.59375 65.921875 
Q 27.828125 65.921875 22.671875 59.328125 
Q 17.53125 52.734375 16.796875 39.40625 
Q 19.671875 43.65625 24.015625 45.921875 
Q 28.375 48.1875 33.59375 48.1875 
Q 44.578125 48.1875 50.953125 41.515625 
Q 57.328125 34.859375 57.328125 23.390625 
Q 57.328125 12.15625 50.6875 5.359375 
Q 44.046875 -1.421875 33.015625 -1.421875 
Q 20.359375 -1.421875 13.671875 8.265625 
Q 6.984375 17.96875 6.984375 36.375 
Q 6.984375 53.65625 15.1875 63.9375 
Q 23.390625 74.21875 37.203125 74.21875 
Q 40.921875 74.21875 44.703125 73.484375 
Q 48.484375 72.75 52.59375 71.296875 
z
" id="DejaVuSans-36"/>
      </defs>
      <g transform="translate(260.673892 322.182437)scale(0.1 -0.1)">
       <use xlink:href="#DejaVuSans-30"/>
       <use x="63.623047" xlink:href="#DejaVuSans-2e"/>
       <use x="95.410156" xlink:href="#DejaVuSans-36"/>
      </g>
     </g>
    </g>
    <g id="xtick_5">
     <g id="line2d_5">
      <g>
       <use style="stroke:#000000;stroke-width:0.8;" x="333.556364" xlink:href="#m14540803a3" y="307.584"/>
      </g>
     </g>
     <g id="text_5">
      <!-- 0.8 -->
      <defs>
       <path d="M 31.78125 34.625 
Q 24.75 34.625 20.71875 30.859375 
Q 16.703125 27.09375 16.703125 20.515625 
Q 16.703125 13.921875 20.71875 10.15625 
Q 24.75 6.390625 31.78125 6.390625 
Q 38.8125 6.390625 42.859375 10.171875 
Q 46.921875 13.96875 46.921875 20.515625 
Q 46.921875 27.09375 42.890625 30.859375 
Q 38.875 34.625 31.78125 34.625 
z
M 21.921875 38.8125 
Q 15.578125 40.375 12.03125 44.71875 
Q 8.5 49.078125 8.5 55.328125 
Q 8.5 64.0625 14.71875 69.140625 
Q 20.953125 74.21875 31.78125 74.21875 
Q 42.671875 74.21875 48.875 69.140625 
Q 55.078125 64.0625 55.078125 55.328125 
Q 55.078125 49.078125 51.53125 44.71875 
Q 48 40.375 41.703125 38.8125 
Q 48.828125 37.15625 52.796875 32.3125 
Q 56.78125 27.484375 56.78125 20.515625 
Q 56.78125 9.90625 50.3125 4.234375 
Q 43.84375 -1.421875 31.78125 -1.421875 
Q 19.734375 -1.421875 13.25 4.234375 
Q 6.78125 9.90625 6.78125 20.515625 
Q 6.78125 27.484375 10.78125 32.3125 
Q 14.796875 37.15625 21.921875 38.8125 
z
M 18.3125 54.390625 
Q 18.3125 48.734375 21.84375 45.5625 
Q 25.390625 42.390625 31.78125 42.390625 
Q 38.140625 42.390625 41.71875 45.5625 
Q 45.3125 48.734375 45.3125 54.390625 
Q 45.3125 60.0625 41.71875 63.234375 
Q 38.140625 66.40625 31.78125 66.40625 
Q 25.390625 66.40625 21.84375 63.234375 
Q 18.3125 60.0625 18.3125 54.390625 
z
" id="DejaVuSans-38"/>
      </defs>
      <g transform="translate(325.604801 322.182437)scale(0.1 -0.1)">
       <use xlink:href="#DejaVuSans-30"/>
       <use x="63.623047" xlink:href="#DejaVuSans-2e"/>
       <use x="95.410156" xlink:href="#DejaVuSans-38"/>
      </g>
     </g>
    </g>
    <g id="xtick_6">
     <g id="line2d_6">
      <g>
       <use style="stroke:#000000;stroke-width:0.8;" x="398.487273" xlink:href="#m14540803a3" y="307.584"/>
      </g>
     </g>
     <g id="text_6">
      <!-- 1.0 -->
      <defs>
       <path d="M 12.40625 8.296875 
L 28.515625 8.296875 
L 28.515625 63.921875 
L 10.984375 60.40625 
L 10.984375 69.390625 
L 28.421875 72.90625 
L 38.28125 72.90625 
L 38.28125 8.296875 
L 54.390625 8.296875 
L 54.390625 0 
L 12.40625 0 
z
" id="DejaVuSans-31"/>
      </defs>
      <g transform="translate(390.53571 322.182437)scale(0.1 -0.1)">
       <use xlink:href="#DejaVuSans-31"/>
       <use x="63.623047" xlink:href="#DejaVuSans-2e"/>
       <use x="95.410156" xlink:href="#DejaVuSans-30"/>
      </g>
     </g>
    </g>
   </g>
   <g id="matplotlib.axis_2">
    <g id="ytick_1">
     <g id="line2d_7">
      <defs>
       <path d="M 0 0 
L -3.5 0 
" id="mfdf4a2b0e6" style="stroke:#000000;stroke-width:0.8;"/>
      </defs>
      <g>
       <use style="stroke:#000000;stroke-width:0.8;" x="57.6" xlink:href="#mfdf4a2b0e6" y="299.140872"/>
      </g>
     </g>
     <g id="text_7">
      <!-- 0.0 -->
      <g transform="translate(34.696875 302.940091)scale(0.1 -0.1)">
       <use xlink:href="#DejaVuSans-30"/>
       <use x="63.623047" xlink:href="#DejaVuSans-2e"/>
       <use x="95.410156" xlink:href="#DejaVuSans-30"/>
      </g>
     </g>
    </g>
    <g id="ytick_2">
     <g id="line2d_8">
      <g>
       <use style="stroke:#000000;stroke-width:0.8;" x="57.6" xlink:href="#mfdf4a2b0e6" y="250.026298"/>
      </g>
     </g>
     <g id="text_8">
      <!-- 0.2 -->
      <g transform="translate(34.696875 253.825516)scale(0.1 -0.1)">
       <use xlink:href="#DejaVuSans-30"/>
       <use x="63.623047" xlink:href="#DejaVuSans-2e"/>
       <use x="95.410156" xlink:href="#DejaVuSans-32"/>
      </g>
     </g>
    </g>
    <g id="ytick_3">
     <g id="line2d_9">
      <g>
       <use style="stroke:#000000;stroke-width:0.8;" x="57.6" xlink:href="#mfdf4a2b0e6" y="200.911723"/>
      </g>
     </g>
     <g id="text_9">
      <!-- 0.4 -->
      <g transform="translate(34.696875 204.710942)scale(0.1 -0.1)">
       <use xlink:href="#DejaVuSans-30"/>
       <use x="63.623047" xlink:href="#DejaVuSans-2e"/>
       <use x="95.410156" xlink:href="#DejaVuSans-34"/>
      </g>
     </g>
    </g>
    <g id="ytick_4">
     <g id="line2d_10">
      <g>
       <use style="stroke:#000000;stroke-width:0.8;" x="57.6" xlink:href="#mfdf4a2b0e6" y="151.797149"/>
      </g>
     </g>
     <g id="text_10">
      <!-- 0.6 -->
      <g transform="translate(34.696875 155.596368)scale(0.1 -0.1)">
       <use xlink:href="#DejaVuSans-30"/>
       <use x="63.623047" xlink:href="#DejaVuSans-2e"/>
       <use x="95.410156" xlink:href="#DejaVuSans-36"/>
      </g>
     </g>
    </g>
    <g id="ytick_5">
     <g id="line2d_11">
      <g>
       <use style="stroke:#000000;stroke-width:0.8;" x="57.6" xlink:href="#mfdf4a2b0e6" y="102.682574"/>
      </g>
     </g>
     <g id="text_11">
      <!-- 0.8 -->
      <g transform="translate(34.696875 106.481793)scale(0.1 -0.1)">
       <use xlink:href="#DejaVuSans-30"/>
       <use x="63.623047" xlink:href="#DejaVuSans-2e"/>
       <use x="95.410156" xlink:href="#DejaVuSans-38"/>
      </g>
     </g>
    </g>
    <g id="ytick_6">
     <g id="line2d_12">
      <g>
       <use style="stroke:#000000;stroke-width:0.8;" x="57.6" xlink:href="#mfdf4a2b0e6" y="53.568"/>
      </g>
     </g>
     <g id="text_12">
      <!-- 1.0 -->
      <g transform="translate(34.696875 57.367219)scale(0.1 -0.1)">
       <use xlink:href="#DejaVuSans-31"/>
       <use x="63.623047" xlink:href="#DejaVuSans-2e"/>
       <use x="95.410156" xlink:href="#DejaVuSans-30"/>
      </g>
     </g>
    </g>
   </g>
   <g id="line2d_13">
    <path clip-path="url(#pa21fc463d8)" d="M 73.832727 286.687896 
L 74.92584 286.853928 
L 76.018953 286.189776 
L 77.112066 285.193536 
L 78.205179 278.884008 
L 79.298292 276.393408 
L 80.391405 269.585686 
L 81.484518 258.793249 
L 82.577631 246.174241 
L 83.670744 225.253152 
L 84.763857 207.652944 
L 85.85697 187.728144 
L 88.043196 144.225646 
L 89.136309 126.625438 
L 90.229421 121.146216 
L 91.322534 106.368623 
L 92.415647 78.972022 
L 93.50876 69.673897 
L 94.601873 67.515311 
L 95.694986 57.054889 
L 96.788099 56.0586 
L 97.881212 64.194429 
L 98.974325 81.794883 
L 100.067438 87.938134 
L 101.160551 89.598697 
L 102.253664 105.372334 
L 105.533003 132.104906 
L 106.626116 144.059639 
L 107.719229 162.98815 
L 108.812342 165.312743 
L 109.905455 153.524017 
L 110.998567 155.84861 
L 112.09168 161.327832 
L 113.184793 163.32041 
L 114.277906 161.327832 
L 115.371019 170.293943 
L 116.464132 185.901818 
L 117.557245 191.049025 
L 118.650358 203.668033 
L 119.743471 214.79273 
L 120.836584 216.287041 
L 121.929697 221.102234 
L 124.115923 237.041878 
L 125.209036 239.200463 
L 126.302149 241.691063 
L 127.395262 250.989434 
L 128.488375 256.800671 
L 129.581488 259.623285 
L 130.674601 257.464945 
L 131.767713 261.283849 
L 132.860826 265.600775 
L 135.047052 270.083953 
L 137.233278 281.042544 
L 138.326391 281.042544 
L 139.419504 278.717976 
L 140.512617 279.714216 
L 141.60573 277.887768 
L 142.698843 275.397168 
L 143.791956 274.899072 
L 144.885069 270.083953 
L 147.071295 251.985478 
L 148.164408 248.166574 
L 149.257521 243.185374 
L 150.350634 235.215552 
L 151.443747 230.234352 
L 152.53686 226.083434 
L 153.629972 221.268241 
L 154.723085 215.124744 
L 155.816198 201.841462 
L 156.909311 197.358529 
L 158.002424 194.203655 
L 159.095537 193.207365 
L 160.18865 191.38104 
L 161.281763 183.244965 
L 164.561102 117.659327 
L 167.840441 80.134319 
L 168.933554 92.255305 
L 170.026667 95.576187 
L 171.11978 90.927001 
L 172.212893 91.59103 
L 173.306006 98.232794 
L 174.399118 114.504698 
L 175.492231 124.134838 
L 176.585344 134.92752 
L 177.678457 153.02575 
L 178.77157 161.825854 
L 179.864683 169.297654 
L 180.957796 175.939418 
L 182.050909 177.433729 
L 183.144022 186.067825 
L 184.237135 187.728144 
L 185.330248 188.226165 
L 186.423361 187.728144 
L 187.516474 188.89044 
L 188.609587 192.377329 
L 189.7027 192.709344 
L 190.795813 195.697966 
L 191.888926 198.188566 
L 194.075152 201.34344 
L 195.168264 206.490648 
L 196.261377 207.486937 
L 197.35449 214.626722 
L 198.447603 220.769973 
L 199.540716 225.253152 
L 200.633829 224.42287 
L 201.726942 226.083434 
L 203.913168 239.532478 
L 205.006281 244.845938 
L 206.099394 249.162863 
L 207.192507 256.634664 
L 208.28562 262.612153 
L 209.378733 264.770738 
L 210.471846 265.932789 
L 211.564959 268.589642 
L 213.751185 277.721736 
L 214.844298 281.872728 
L 215.93741 286.687896 
L 217.030523 290.174712 
L 218.123636 292.831368 
L 219.216749 293.827608 
L 220.309862 293.163432 
L 221.402975 292.665312 
L 222.496088 292.333248 
L 223.589201 290.00868 
L 224.682314 288.846408 
L 225.775427 283.865208 
L 226.86854 279.880248 
L 229.054766 263.442435 
L 230.147879 255.970634 
L 231.240992 245.011945 
L 232.334105 239.36647 
L 233.427218 229.902337 
L 234.520331 218.611633 
L 235.613444 210.143544 
L 239.985895 161.992107 
L 242.172121 144.391653 
L 243.265234 143.39561 
L 244.358347 143.229602 
L 245.45146 140.57275 
L 246.544573 136.421831 
L 247.637686 140.57275 
L 248.730799 141.071017 
L 249.823912 143.561617 
L 250.917025 142.233313 
L 252.010138 148.708824 
L 253.103251 156.678646 
L 254.196364 161.161825 
L 255.289477 169.961929 
L 256.38259 171.788254 
L 257.475702 183.743233 
L 259.661928 188.392418 
L 262.941267 203.668033 
L 264.03438 201.841462 
L 265.127493 207.32093 
L 266.220606 216.95107 
L 267.313719 224.256863 
L 268.406832 226.083434 
L 269.499945 225.419159 
L 271.686171 227.411737 
L 272.779284 222.762552 
L 273.872397 221.766263 
L 274.96551 220.271952 
L 276.058623 222.928559 
L 277.151736 227.743752 
L 278.244848 230.566366 
L 279.337961 237.374138 
L 280.431074 240.694774 
L 281.524187 247.502545 
L 282.6173 250.989434 
L 283.710413 253.978056 
L 285.896639 264.272471 
L 286.989752 268.091375 
L 288.082865 271.246249 
L 289.175978 279.050064 
L 290.269091 284.695416 
L 291.362204 288.0162 
L 292.455317 290.174712 
L 293.54843 290.340768 
L 294.641543 288.680376 
L 295.734656 283.865208 
L 296.827769 278.219856 
L 299.013994 263.276182 
L 300.107107 252.81576 
L 302.293333 227.411737 
L 303.386446 220.437959 
L 304.479559 204.000048 
L 305.572672 191.38104 
L 306.665785 183.90924 
L 307.758898 178.762032 
L 308.852011 170.293943 
L 309.945124 143.727624 
L 311.038237 123.636816 
L 314.317576 70.171919 
L 315.410689 66.187008 
L 316.503802 67.349304 
L 317.596915 74.323082 
L 318.690028 84.45149 
L 319.78314 99.228838 
L 320.876253 111.681838 
L 321.969366 115.999009 
L 323.062479 128.119995 
L 324.155592 136.255824 
L 325.248705 135.923809 
L 326.341818 131.440631 
L 327.434931 129.94632 
L 328.528044 130.444342 
L 329.621157 131.772646 
L 330.71427 146.218224 
L 331.807383 157.840943 
L 333.993609 186.731854 
L 335.086722 195.697966 
L 336.179835 208.981248 
L 337.272948 212.800151 
L 338.366061 213.630433 
L 339.459174 217.781352 
L 340.552287 223.592834 
L 341.645399 234.38527 
L 342.738512 239.200463 
L 343.831625 245.011945 
L 344.924738 256.966678 
L 346.017851 265.102753 
L 347.110964 269.585686 
L 348.204077 271.412257 
L 349.29719 274.068864 
L 350.390303 278.385888 
L 351.483416 280.046304 
L 352.576529 279.216096 
L 353.669642 280.378368 
L 354.762755 279.548184 
L 355.855868 281.540664 
L 356.948981 277.389648 
L 358.042094 278.053824 
L 359.135207 277.721736 
L 360.22832 278.053824 
L 361.321433 281.540664 
L 362.414545 283.367088 
L 363.507658 287.186016 
L 364.600771 289.01244 
L 365.693884 291.337008 
L 366.786997 293.329488 
L 367.88011 294.159672 
L 368.973223 295.321968 
L 370.066336 295.488 
L 372.252562 292.167192 
L 373.345675 289.676592 
L 376.625014 272.906568 
L 377.718127 266.265049 
L 378.81124 253.313782 
L 379.904353 247.170531 
L 380.997466 242.023078 
L 382.090579 233.555234 
L 383.183691 226.747463 
L 384.276804 216.619055 
L 385.369917 216.287041 
L 386.46303 210.143544 
L 387.556143 206.656655 
L 388.649256 200.347151 
L 389.742369 195.531958 
L 390.835482 202.173722 
L 391.928595 203.169766 
L 393.021708 199.849129 
L 394.114821 199.516869 
L 395.207934 205.328351 
L 396.301047 208.649233 
L 397.39416 201.34344 
L 398.487273 199.849129 
L 398.487273 199.849129 
" style="fill:none;stroke:#1f77b4;stroke-linecap:square;stroke-width:1.5;"/>
   </g>
   <g id="line2d_14">
    <path clip-path="url(#pa21fc463d8)" d="M 73.832727 209.185482 
L 74.92584 209.42935 
L 76.018953 209.508138 
L 77.112066 209.425598 
L 78.205179 209.011194 
L 80.391405 206.577976 
L 81.484518 204.590541 
L 82.577631 200.699234 
L 83.670744 194.799346 
L 84.763857 184.540539 
L 86.950083 157.420768 
L 88.043196 142.110322 
L 89.136309 129.098371 
L 90.229421 120.898965 
L 91.322534 116.651237 
L 92.415647 111.570266 
L 93.50876 105.831705 
L 94.601873 102.820027 
L 96.788099 100.638521 
L 97.881212 99.984001 
L 98.974325 101.125915 
L 100.067438 103.805047 
L 101.160551 105.935051 
L 102.253664 107.227719 
L 103.346777 109.995871 
L 106.626116 120.857695 
L 107.719229 126.179464 
L 108.812342 134.672534 
L 109.905455 137.410671 
L 110.998567 134.328391 
L 112.09168 133.376114 
L 113.184793 135.807285 
L 114.277906 137.29573 
L 115.371019 137.652151 
L 116.464132 142.107253 
L 117.557245 150.624538 
L 119.743471 164.626626 
L 120.836584 172.550103 
L 121.929697 176.096584 
L 123.02281 178.689084 
L 124.115923 183.646927 
L 125.209036 187.942747 
L 126.302149 190.317982 
L 127.395262 192.147159 
L 129.581488 198.825036 
L 130.674601 199.781406 
L 131.767713 200.051877 
L 132.860826 200.940032 
L 133.953939 202.437686 
L 135.047052 203.587785 
L 136.140165 204.493335 
L 138.326391 207.564702 
L 139.419504 207.903729 
L 140.512617 207.589259 
L 142.698843 207.206574 
L 144.885069 205.910836 
L 145.978182 204.648524 
L 147.071295 201.782484 
L 148.164408 198.225429 
L 149.257521 195.338242 
L 150.350634 192.985177 
L 152.53686 185.506118 
L 153.629972 183.068808 
L 154.723085 179.675809 
L 155.816198 174.425666 
L 156.909311 168.086816 
L 158.002424 162.499692 
L 159.095537 159.992802 
L 160.18865 159.11522 
L 161.281763 157.892813 
L 162.374876 151.517469 
L 164.561102 125.965952 
L 165.654215 117.555081 
L 166.747328 111.862566 
L 167.840441 108.018668 
L 168.933554 106.073185 
L 170.026667 106.558533 
L 171.11978 107.94943 
L 172.212893 107.349823 
L 173.306006 107.253299 
L 174.399118 108.987658 
L 175.492231 112.660337 
L 176.585344 117.238906 
L 177.678457 122.407533 
L 179.864683 136.218961 
L 180.957796 141.365418 
L 182.050909 144.913605 
L 183.144022 147.870029 
L 184.237135 151.60376 
L 185.330248 154.921381 
L 186.423361 154.74607 
L 187.516474 154.95276 
L 188.609587 155.830342 
L 189.7027 157.467495 
L 190.795813 158.506745 
L 191.888926 160.25884 
L 192.982039 162.355418 
L 194.075152 163.26472 
L 195.168264 165.460892 
L 196.261377 167.266534 
L 197.35449 169.890071 
L 198.447603 173.657227 
L 199.540716 178.081973 
L 200.633829 180.902309 
L 201.726942 181.604579 
L 202.820055 182.610405 
L 203.913168 185.947467 
L 205.006281 189.747708 
L 206.099394 192.913892 
L 208.28562 198.358106 
L 209.378733 201.111592 
L 210.471846 202.431546 
L 211.564959 202.920305 
L 212.658072 203.853482 
L 214.844298 206.800356 
L 217.030523 209.198443 
L 218.123636 210.291584 
L 219.216749 210.855037 
L 220.309862 211.133012 
L 222.496088 211.012954 
L 223.589201 210.849921 
L 224.682314 210.514305 
L 225.775427 209.954262 
L 226.86854 209.11147 
L 227.961653 207.694309 
L 229.054766 205.593297 
L 230.147879 202.566953 
L 231.240992 199.170884 
L 233.427218 190.723519 
L 234.520331 185.889826 
L 236.706556 171.922187 
L 237.799669 164.379007 
L 239.985895 146.595779 
L 241.079008 138.566228 
L 242.172121 132.370629 
L 243.265234 128.509337 
L 244.358347 126.522925 
L 245.45146 126.363303 
L 247.637686 123.999664 
L 248.730799 124.576078 
L 249.823912 125.630677 
L 250.917025 126.118412 
L 252.010138 126.793055 
L 253.103251 128.550607 
L 256.38259 140.407343 
L 257.475702 144.381189 
L 259.661928 153.552654 
L 260.755041 155.183667 
L 261.848154 158.1111 
L 262.941267 162.22888 
L 264.03438 165.040007 
L 265.127493 166.188742 
L 266.220606 169.200421 
L 267.313719 175.108154 
L 268.406832 179.717079 
L 269.499945 181.813998 
L 270.593058 182.218511 
L 271.686171 182.783329 
L 272.779284 182.554128 
L 274.96551 179.34872 
L 276.058623 179.245033 
L 277.151736 180.390358 
L 278.244848 182.546624 
L 282.6173 193.971902 
L 283.710413 196.231172 
L 284.803526 197.793289 
L 285.896639 199.704664 
L 286.989752 201.918231 
L 288.082865 203.559817 
L 289.175978 204.854873 
L 291.362204 208.673872 
L 292.455317 209.641157 
L 293.54843 210.274189 
L 294.641543 210.468942 
L 295.734656 210.032027 
L 296.827769 209.024496 
L 297.920882 207.460674 
L 299.013994 205.190148 
L 300.107107 202.354123 
L 301.20022 198.148346 
L 302.293333 192.0329 
L 304.479559 178.500129 
L 305.572672 169.998533 
L 306.665785 159.03575 
L 307.758898 153.191116 
L 308.852011 149.03002 
L 309.945124 141.730366 
L 311.038237 129.683994 
L 312.13135 119.025108 
L 313.224463 112.640213 
L 314.317576 106.983851 
L 315.410689 103.409402 
L 316.503802 101.947902 
L 317.596915 101.890943 
L 318.690028 102.947247 
L 319.78314 105.218455 
L 320.876253 108.448762 
L 321.969366 112.138494 
L 323.062479 114.924723 
L 325.248705 121.893194 
L 326.341818 122.503716 
L 327.434931 121.544617 
L 328.528044 120.301064 
L 329.621157 120.308226 
L 330.71427 121.785415 
L 331.807383 126.424355 
L 332.900496 133.840656 
L 333.993609 142.197296 
L 335.086722 151.659355 
L 337.272948 167.783943 
L 338.366061 172.755429 
L 339.459174 174.210789 
L 340.552287 176.392636 
L 341.645399 180.515191 
L 342.738512 185.892896 
L 343.831625 190.316618 
L 344.924738 193.362063 
L 346.017851 197.957345 
L 347.110964 202.001112 
L 348.204077 203.889635 
L 351.483416 206.876074 
L 352.576529 207.572546 
L 353.669642 207.673504 
L 354.762755 207.591305 
L 355.855868 207.814708 
L 356.948981 207.765935 
L 358.042094 207.403374 
L 359.135207 206.897903 
L 360.22832 207.031604 
L 361.321433 207.364833 
L 362.414545 207.834491 
L 365.693884 210.078413 
L 367.88011 211.004086 
L 368.973223 211.337997 
L 370.066336 211.507169 
L 371.159449 211.515696 
L 372.252562 211.368352 
L 373.345675 210.883687 
L 374.438788 210.263275 
L 375.531901 209.175591 
L 377.718127 205.901627 
L 378.81124 203.058439 
L 380.997466 195.28981 
L 382.090579 192.190134 
L 383.183691 188.246984 
L 384.276804 183.004004 
L 385.369917 178.534918 
L 386.46303 175.022544 
L 387.556143 172.477113 
L 388.649256 169.094006 
L 389.742369 164.848665 
L 390.835482 162.22581 
L 393.021708 165.594251 
L 394.114821 164.447562 
L 395.207934 164.419594 
L 396.301047 167.324858 
L 397.39416 168.528506 
L 398.487273 166.682958 
L 398.487273 166.682958 
" style="fill:none;stroke:#ff7f0e;stroke-linecap:square;stroke-width:1.5;"/>
   </g>
   <g id="line2d_15">
    <path clip-path="url(#pa21fc463d8)" d="M 73.832727 277.039313 
L 74.92584 279.495042 
L 77.112066 279.495042 
L 78.205179 277.039313 
L 79.298292 277.039313 
L 81.484518 272.127856 
L 82.577631 264.76067 
L 83.670744 254.937755 
L 84.763857 237.747654 
L 85.85697 218.101824 
L 86.950083 205.823181 
L 90.229421 191.088808 
L 92.415647 186.177351 
L 94.601873 176.477222 
L 95.694986 176.354436 
L 96.788099 176.354436 
L 97.881212 173.898707 
L 101.160551 181.265893 
L 102.253664 181.265893 
L 103.346777 183.721622 
L 104.43989 188.63308 
L 105.533003 188.63308 
L 106.626116 193.544537 
L 107.719229 193.544537 
L 108.812342 198.455994 
L 115.371019 198.455994 
L 119.743471 208.278909 
L 120.836584 218.101824 
L 123.02281 227.924739 
L 124.115923 237.747654 
L 125.209036 245.11484 
L 127.395262 250.026298 
L 128.488375 257.393484 
L 129.581488 262.304941 
L 130.674601 262.304941 
L 131.767713 264.76067 
L 132.860826 264.76067 
L 137.233278 274.583585 
L 138.326391 274.583585 
L 139.419504 277.039313 
L 140.512617 277.039313 
L 141.60573 274.583585 
L 144.885069 274.583585 
L 145.978182 272.127856 
L 147.071295 267.216399 
L 148.164408 259.849212 
L 149.257521 257.393484 
L 150.350634 252.482026 
L 151.443747 245.11484 
L 154.723085 230.380468 
L 155.816198 220.557553 
L 156.909311 213.190367 
L 158.002424 208.278909 
L 161.281763 208.278909 
L 164.561102 193.544537 
L 165.654215 191.088808 
L 166.747328 186.177351 
L 168.933554 181.265893 
L 170.026667 181.265893 
L 171.11978 183.721622 
L 172.212893 181.265893 
L 173.306006 181.265893 
L 176.585344 188.63308 
L 177.678457 193.544537 
L 180.957796 200.911723 
L 182.050909 200.911723 
L 183.144022 203.367452 
L 184.237135 203.367452 
L 185.330248 205.823181 
L 189.7027 205.823181 
L 190.795813 208.278909 
L 194.075152 208.278909 
L 195.168264 210.734638 
L 196.261377 210.734638 
L 197.35449 213.190367 
L 199.540716 227.924739 
L 200.633829 232.836196 
L 201.726942 232.836196 
L 202.820055 235.291925 
L 203.913168 240.203383 
L 205.006281 247.570569 
L 208.28562 262.304941 
L 211.564959 269.672127 
L 212.658072 269.672127 
L 217.030523 279.495042 
L 218.123636 279.495042 
L 219.216749 281.950771 
L 223.589201 281.950771 
L 224.682314 279.495042 
L 225.775427 279.495042 
L 226.86854 277.039313 
L 227.961653 277.039313 
L 231.240992 262.304941 
L 234.520331 240.203383 
L 235.613444 227.924739 
L 237.799669 208.278909 
L 239.985895 203.367452 
L 241.079008 198.455994 
L 242.172121 196.000266 
L 243.265234 196.000266 
L 244.358347 193.544537 
L 250.917025 193.544537 
L 252.010138 196.000266 
L 253.103251 196.000266 
L 254.196364 196.123052 
L 256.38259 200.911723 
L 257.475702 200.911723 
L 259.661928 205.823181 
L 261.848154 205.823181 
L 262.941267 208.278909 
L 264.03438 208.278909 
L 266.220606 213.190367 
L 267.313719 223.013282 
L 268.406832 230.380468 
L 269.499945 232.836196 
L 270.593058 232.836196 
L 271.686171 235.291925 
L 272.779284 235.291925 
L 276.058623 227.924739 
L 277.151736 230.380468 
L 282.6173 254.937755 
L 285.896639 262.304941 
L 286.989752 267.216399 
L 292.455317 279.495042 
L 295.734656 279.495042 
L 299.013994 272.127856 
L 300.107107 267.216399 
L 301.20022 259.849212 
L 302.293333 250.026298 
L 303.386446 237.747654 
L 304.479559 227.924739 
L 305.572672 215.646095 
L 306.665785 205.945967 
L 307.758898 205.823181 
L 309.945124 200.911723 
L 314.317576 181.265893 
L 316.503802 176.354436 
L 317.596915 176.354436 
L 325.248705 193.544537 
L 326.341818 191.088808 
L 327.434931 193.544537 
L 328.528044 191.088808 
L 329.621157 191.088808 
L 330.71427 193.544537 
L 331.807383 193.544537 
L 332.900496 198.455994 
L 335.086722 203.367452 
L 338.366061 218.101824 
L 339.459174 220.557553 
L 341.645399 230.380468 
L 342.738512 240.203383 
L 343.831625 247.570569 
L 344.924738 252.482026 
L 347.110964 267.216399 
L 349.29719 272.127856 
L 350.390303 272.127856 
L 352.576529 277.039313 
L 356.948981 277.039313 
L 358.042094 274.583585 
L 361.321433 274.583585 
L 362.414545 277.039313 
L 363.507658 277.039313 
L 364.600771 279.495042 
L 366.786997 279.495042 
L 367.88011 281.950771 
L 373.345675 281.950771 
L 374.438788 279.495042 
L 375.531901 279.495042 
L 377.718127 274.583585 
L 378.81124 269.672127 
L 380.997466 254.937755 
L 383.183691 245.11484 
L 384.276804 235.291925 
L 385.369917 227.924739 
L 389.742369 208.278909 
L 391.928595 208.278909 
L 393.021708 210.734638 
L 394.114821 208.278909 
L 395.207934 208.278909 
L 397.39416 213.190367 
L 398.487273 210.734638 
L 398.487273 210.734638 
" style="fill:none;stroke:#2ca02c;stroke-linecap:square;stroke-width:1.5;"/>
   </g>
   <g id="line2d_16">
    <path clip-path="url(#pa21fc463d8)" d="M 73.832727 53.568 
L 398.487273 53.568 
L 398.487273 53.568 
" style="fill:none;stroke:#d62728;stroke-linecap:square;stroke-width:1.5;"/>
   </g>
   <g id="patch_3">
    <path d="M 57.6 307.584 
L 57.6 41.472 
" style="fill:none;stroke:#000000;stroke-linecap:square;stroke-linejoin:miter;stroke-width:0.8;"/>
   </g>
   <g id="patch_4">
    <path d="M 414.72 307.584 
L 414.72 41.472 
" style="fill:none;stroke:#000000;stroke-linecap:square;stroke-linejoin:miter;stroke-width:0.8;"/>
   </g>
   <g id="patch_5">
    <path d="M 57.6 307.584 
L 414.72 307.584 
" style="fill:none;stroke:#000000;stroke-linecap:square;stroke-linejoin:miter;stroke-width:0.8;"/>
   </g>
   <g id="patch_6">
    <path d="M 57.6 41.472 
L 414.72 41.472 
" style="fill:none;stroke:#000000;stroke-linecap:square;stroke-linejoin:miter;stroke-width:0.8;"/>
   </g>
   <g id="text_13">
    <!-- Plot of Train Data vs MCMC Uncertainty  -->
    <defs>
     <path d="M 19.671875 64.796875 
L 19.671875 37.40625 
L 32.078125 37.40625 
Q 38.96875 37.40625 42.71875 40.96875 
Q 46.484375 44.53125 46.484375 51.125 
Q 46.484375 57.671875 42.71875 61.234375 
Q 38.96875 64.796875 32.078125 64.796875 
z
M 9.8125 72.90625 
L 32.078125 72.90625 
Q 44.34375 72.90625 50.609375 67.359375 
Q 56.890625 61.8125 56.890625 51.125 
Q 56.890625 40.328125 50.609375 34.8125 
Q 44.34375 29.296875 32.078125 29.296875 
L 19.671875 29.296875 
L 19.671875 0 
L 9.8125 0 
z
" id="DejaVuSans-50"/>
     <path d="M 9.421875 75.984375 
L 18.40625 75.984375 
L 18.40625 0 
L 9.421875 0 
z
" id="DejaVuSans-6c"/>
     <path d="M 30.609375 48.390625 
Q 23.390625 48.390625 19.1875 42.75 
Q 14.984375 37.109375 14.984375 27.296875 
Q 14.984375 17.484375 19.15625 11.84375 
Q 23.34375 6.203125 30.609375 6.203125 
Q 37.796875 6.203125 41.984375 11.859375 
Q 46.1875 17.53125 46.1875 27.296875 
Q 46.1875 37.015625 41.984375 42.703125 
Q 37.796875 48.390625 30.609375 48.390625 
z
M 30.609375 56 
Q 42.328125 56 49.015625 48.375 
Q 55.71875 40.765625 55.71875 27.296875 
Q 55.71875 13.875 49.015625 6.21875 
Q 42.328125 -1.421875 30.609375 -1.421875 
Q 18.84375 -1.421875 12.171875 6.21875 
Q 5.515625 13.875 5.515625 27.296875 
Q 5.515625 40.765625 12.171875 48.375 
Q 18.84375 56 30.609375 56 
z
" id="DejaVuSans-6f"/>
     <path d="M 18.3125 70.21875 
L 18.3125 54.6875 
L 36.8125 54.6875 
L 36.8125 47.703125 
L 18.3125 47.703125 
L 18.3125 18.015625 
Q 18.3125 11.328125 20.140625 9.421875 
Q 21.96875 7.515625 27.59375 7.515625 
L 36.8125 7.515625 
L 36.8125 0 
L 27.59375 0 
Q 17.1875 0 13.234375 3.875 
Q 9.28125 7.765625 9.28125 18.015625 
L 9.28125 47.703125 
L 2.6875 47.703125 
L 2.6875 54.6875 
L 9.28125 54.6875 
L 9.28125 70.21875 
z
" id="DejaVuSans-74"/>
     <path id="DejaVuSans-20"/>
     <path d="M 37.109375 75.984375 
L 37.109375 68.5 
L 28.515625 68.5 
Q 23.6875 68.5 21.796875 66.546875 
Q 19.921875 64.59375 19.921875 59.515625 
L 19.921875 54.6875 
L 34.71875 54.6875 
L 34.71875 47.703125 
L 19.921875 47.703125 
L 19.921875 0 
L 10.890625 0 
L 10.890625 47.703125 
L 2.296875 47.703125 
L 2.296875 54.6875 
L 10.890625 54.6875 
L 10.890625 58.5 
Q 10.890625 67.625 15.140625 71.796875 
Q 19.390625 75.984375 28.609375 75.984375 
z
" id="DejaVuSans-66"/>
     <path d="M -0.296875 72.90625 
L 61.375 72.90625 
L 61.375 64.59375 
L 35.5 64.59375 
L 35.5 0 
L 25.59375 0 
L 25.59375 64.59375 
L -0.296875 64.59375 
z
" id="DejaVuSans-54"/>
     <path d="M 41.109375 46.296875 
Q 39.59375 47.171875 37.8125 47.578125 
Q 36.03125 48 33.890625 48 
Q 26.265625 48 22.1875 43.046875 
Q 18.109375 38.09375 18.109375 28.8125 
L 18.109375 0 
L 9.078125 0 
L 9.078125 54.6875 
L 18.109375 54.6875 
L 18.109375 46.1875 
Q 20.953125 51.171875 25.484375 53.578125 
Q 30.03125 56 36.53125 56 
Q 37.453125 56 38.578125 55.875 
Q 39.703125 55.765625 41.0625 55.515625 
z
" id="DejaVuSans-72"/>
     <path d="M 34.28125 27.484375 
Q 23.390625 27.484375 19.1875 25 
Q 14.984375 22.515625 14.984375 16.5 
Q 14.984375 11.71875 18.140625 8.90625 
Q 21.296875 6.109375 26.703125 6.109375 
Q 34.1875 6.109375 38.703125 11.40625 
Q 43.21875 16.703125 43.21875 25.484375 
L 43.21875 27.484375 
z
M 52.203125 31.203125 
L 52.203125 0 
L 43.21875 0 
L 43.21875 8.296875 
Q 40.140625 3.328125 35.546875 0.953125 
Q 30.953125 -1.421875 24.3125 -1.421875 
Q 15.921875 -1.421875 10.953125 3.296875 
Q 6 8.015625 6 15.921875 
Q 6 25.140625 12.171875 29.828125 
Q 18.359375 34.515625 30.609375 34.515625 
L 43.21875 34.515625 
L 43.21875 35.40625 
Q 43.21875 41.609375 39.140625 45 
Q 35.0625 48.390625 27.6875 48.390625 
Q 23 48.390625 18.546875 47.265625 
Q 14.109375 46.140625 10.015625 43.890625 
L 10.015625 52.203125 
Q 14.9375 54.109375 19.578125 55.046875 
Q 24.21875 56 28.609375 56 
Q 40.484375 56 46.34375 49.84375 
Q 52.203125 43.703125 52.203125 31.203125 
z
" id="DejaVuSans-61"/>
     <path d="M 9.421875 54.6875 
L 18.40625 54.6875 
L 18.40625 0 
L 9.421875 0 
z
M 9.421875 75.984375 
L 18.40625 75.984375 
L 18.40625 64.59375 
L 9.421875 64.59375 
z
" id="DejaVuSans-69"/>
     <path d="M 54.890625 33.015625 
L 54.890625 0 
L 45.90625 0 
L 45.90625 32.71875 
Q 45.90625 40.484375 42.875 44.328125 
Q 39.84375 48.1875 33.796875 48.1875 
Q 26.515625 48.1875 22.3125 43.546875 
Q 18.109375 38.921875 18.109375 30.90625 
L 18.109375 0 
L 9.078125 0 
L 9.078125 54.6875 
L 18.109375 54.6875 
L 18.109375 46.1875 
Q 21.34375 51.125 25.703125 53.5625 
Q 30.078125 56 35.796875 56 
Q 45.21875 56 50.046875 50.171875 
Q 54.890625 44.34375 54.890625 33.015625 
z
" id="DejaVuSans-6e"/>
     <path d="M 19.671875 64.796875 
L 19.671875 8.109375 
L 31.59375 8.109375 
Q 46.6875 8.109375 53.6875 14.9375 
Q 60.6875 21.78125 60.6875 36.53125 
Q 60.6875 51.171875 53.6875 57.984375 
Q 46.6875 64.796875 31.59375 64.796875 
z
M 9.8125 72.90625 
L 30.078125 72.90625 
Q 51.265625 72.90625 61.171875 64.09375 
Q 71.09375 55.28125 71.09375 36.53125 
Q 71.09375 17.671875 61.125 8.828125 
Q 51.171875 0 30.078125 0 
L 9.8125 0 
z
" id="DejaVuSans-44"/>
     <path d="M 2.984375 54.6875 
L 12.5 54.6875 
L 29.59375 8.796875 
L 46.6875 54.6875 
L 56.203125 54.6875 
L 35.6875 0 
L 23.484375 0 
z
" id="DejaVuSans-76"/>
     <path d="M 44.28125 53.078125 
L 44.28125 44.578125 
Q 40.484375 46.53125 36.375 47.5 
Q 32.28125 48.484375 27.875 48.484375 
Q 21.1875 48.484375 17.84375 46.4375 
Q 14.5 44.390625 14.5 40.28125 
Q 14.5 37.15625 16.890625 35.375 
Q 19.28125 33.59375 26.515625 31.984375 
L 29.59375 31.296875 
Q 39.15625 29.25 43.1875 25.515625 
Q 47.21875 21.78125 47.21875 15.09375 
Q 47.21875 7.46875 41.1875 3.015625 
Q 35.15625 -1.421875 24.609375 -1.421875 
Q 20.21875 -1.421875 15.453125 -0.5625 
Q 10.6875 0.296875 5.421875 2 
L 5.421875 11.28125 
Q 10.40625 8.6875 15.234375 7.390625 
Q 20.0625 6.109375 24.8125 6.109375 
Q 31.15625 6.109375 34.5625 8.28125 
Q 37.984375 10.453125 37.984375 14.40625 
Q 37.984375 18.0625 35.515625 20.015625 
Q 33.0625 21.96875 24.703125 23.78125 
L 21.578125 24.515625 
Q 13.234375 26.265625 9.515625 29.90625 
Q 5.8125 33.546875 5.8125 39.890625 
Q 5.8125 47.609375 11.28125 51.796875 
Q 16.75 56 26.8125 56 
Q 31.78125 56 36.171875 55.265625 
Q 40.578125 54.546875 44.28125 53.078125 
z
" id="DejaVuSans-73"/>
     <path d="M 9.8125 72.90625 
L 24.515625 72.90625 
L 43.109375 23.296875 
L 61.8125 72.90625 
L 76.515625 72.90625 
L 76.515625 0 
L 66.890625 0 
L 66.890625 64.015625 
L 48.09375 14.015625 
L 38.1875 14.015625 
L 19.390625 64.015625 
L 19.390625 0 
L 9.8125 0 
z
" id="DejaVuSans-4d"/>
     <path d="M 64.40625 67.28125 
L 64.40625 56.890625 
Q 59.421875 61.53125 53.78125 63.8125 
Q 48.140625 66.109375 41.796875 66.109375 
Q 29.296875 66.109375 22.65625 58.46875 
Q 16.015625 50.828125 16.015625 36.375 
Q 16.015625 21.96875 22.65625 14.328125 
Q 29.296875 6.6875 41.796875 6.6875 
Q 48.140625 6.6875 53.78125 8.984375 
Q 59.421875 11.28125 64.40625 15.921875 
L 64.40625 5.609375 
Q 59.234375 2.09375 53.4375 0.328125 
Q 47.65625 -1.421875 41.21875 -1.421875 
Q 24.65625 -1.421875 15.125 8.703125 
Q 5.609375 18.84375 5.609375 36.375 
Q 5.609375 53.953125 15.125 64.078125 
Q 24.65625 74.21875 41.21875 74.21875 
Q 47.75 74.21875 53.53125 72.484375 
Q 59.328125 70.75 64.40625 67.28125 
z
" id="DejaVuSans-43"/>
     <path d="M 8.6875 72.90625 
L 18.609375 72.90625 
L 18.609375 28.609375 
Q 18.609375 16.890625 22.84375 11.734375 
Q 27.09375 6.59375 36.625 6.59375 
Q 46.09375 6.59375 50.34375 11.734375 
Q 54.59375 16.890625 54.59375 28.609375 
L 54.59375 72.90625 
L 64.5 72.90625 
L 64.5 27.390625 
Q 64.5 13.140625 57.4375 5.859375 
Q 50.390625 -1.421875 36.625 -1.421875 
Q 22.796875 -1.421875 15.734375 5.859375 
Q 8.6875 13.140625 8.6875 27.390625 
z
" id="DejaVuSans-55"/>
     <path d="M 48.78125 52.59375 
L 48.78125 44.1875 
Q 44.96875 46.296875 41.140625 47.34375 
Q 37.3125 48.390625 33.40625 48.390625 
Q 24.65625 48.390625 19.8125 42.84375 
Q 14.984375 37.3125 14.984375 27.296875 
Q 14.984375 17.28125 19.8125 11.734375 
Q 24.65625 6.203125 33.40625 6.203125 
Q 37.3125 6.203125 41.140625 7.25 
Q 44.96875 8.296875 48.78125 10.40625 
L 48.78125 2.09375 
Q 45.015625 0.34375 40.984375 -0.53125 
Q 36.96875 -1.421875 32.421875 -1.421875 
Q 20.0625 -1.421875 12.78125 6.34375 
Q 5.515625 14.109375 5.515625 27.296875 
Q 5.515625 40.671875 12.859375 48.328125 
Q 20.21875 56 33.015625 56 
Q 37.15625 56 41.109375 55.140625 
Q 45.0625 54.296875 48.78125 52.59375 
z
" id="DejaVuSans-63"/>
     <path d="M 56.203125 29.59375 
L 56.203125 25.203125 
L 14.890625 25.203125 
Q 15.484375 15.921875 20.484375 11.0625 
Q 25.484375 6.203125 34.421875 6.203125 
Q 39.59375 6.203125 44.453125 7.46875 
Q 49.3125 8.734375 54.109375 11.28125 
L 54.109375 2.78125 
Q 49.265625 0.734375 44.1875 -0.34375 
Q 39.109375 -1.421875 33.890625 -1.421875 
Q 20.796875 -1.421875 13.15625 6.1875 
Q 5.515625 13.8125 5.515625 26.8125 
Q 5.515625 40.234375 12.765625 48.109375 
Q 20.015625 56 32.328125 56 
Q 43.359375 56 49.78125 48.890625 
Q 56.203125 41.796875 56.203125 29.59375 
z
M 47.21875 32.234375 
Q 47.125 39.59375 43.09375 43.984375 
Q 39.0625 48.390625 32.421875 48.390625 
Q 24.90625 48.390625 20.390625 44.140625 
Q 15.875 39.890625 15.1875 32.171875 
z
" id="DejaVuSans-65"/>
     <path d="M 32.171875 -5.078125 
Q 28.375 -14.84375 24.75 -17.8125 
Q 21.140625 -20.796875 15.09375 -20.796875 
L 7.90625 -20.796875 
L 7.90625 -13.28125 
L 13.1875 -13.28125 
Q 16.890625 -13.28125 18.9375 -11.515625 
Q 21 -9.765625 23.484375 -3.21875 
L 25.09375 0.875 
L 2.984375 54.6875 
L 12.5 54.6875 
L 29.59375 11.921875 
L 46.6875 54.6875 
L 56.203125 54.6875 
z
" id="DejaVuSans-79"/>
    </defs>
    <g transform="translate(115.666875 35.472)scale(0.12 -0.12)">
     <use xlink:href="#DejaVuSans-50"/>
     <use x="60.302734" xlink:href="#DejaVuSans-6c"/>
     <use x="88.085938" xlink:href="#DejaVuSans-6f"/>
     <use x="149.267578" xlink:href="#DejaVuSans-74"/>
     <use x="188.476562" xlink:href="#DejaVuSans-20"/>
     <use x="220.263672" xlink:href="#DejaVuSans-6f"/>
     <use x="281.445312" xlink:href="#DejaVuSans-66"/>
     <use x="316.650391" xlink:href="#DejaVuSans-20"/>
     <use x="348.4375" xlink:href="#DejaVuSans-54"/>
     <use x="409.302734" xlink:href="#DejaVuSans-72"/>
     <use x="450.416016" xlink:href="#DejaVuSans-61"/>
     <use x="511.695312" xlink:href="#DejaVuSans-69"/>
     <use x="539.478516" xlink:href="#DejaVuSans-6e"/>
     <use x="602.857422" xlink:href="#DejaVuSans-20"/>
     <use x="634.644531" xlink:href="#DejaVuSans-44"/>
     <use x="711.646484" xlink:href="#DejaVuSans-61"/>
     <use x="772.925781" xlink:href="#DejaVuSans-74"/>
     <use x="812.134766" xlink:href="#DejaVuSans-61"/>
     <use x="873.414062" xlink:href="#DejaVuSans-20"/>
     <use x="905.201172" xlink:href="#DejaVuSans-76"/>
     <use x="964.380859" xlink:href="#DejaVuSans-73"/>
     <use x="1016.480469" xlink:href="#DejaVuSans-20"/>
     <use x="1048.267578" xlink:href="#DejaVuSans-4d"/>
     <use x="1134.546875" xlink:href="#DejaVuSans-43"/>
     <use x="1204.371094" xlink:href="#DejaVuSans-4d"/>
     <use x="1290.650391" xlink:href="#DejaVuSans-43"/>
     <use x="1360.474609" xlink:href="#DejaVuSans-20"/>
     <use x="1392.261719" xlink:href="#DejaVuSans-55"/>
     <use x="1465.455078" xlink:href="#DejaVuSans-6e"/>
     <use x="1528.833984" xlink:href="#DejaVuSans-63"/>
     <use x="1583.814453" xlink:href="#DejaVuSans-65"/>
     <use x="1645.337891" xlink:href="#DejaVuSans-72"/>
     <use x="1686.451172" xlink:href="#DejaVuSans-74"/>
     <use x="1725.660156" xlink:href="#DejaVuSans-61"/>
     <use x="1786.939453" xlink:href="#DejaVuSans-69"/>
     <use x="1814.722656" xlink:href="#DejaVuSans-6e"/>
     <use x="1878.101562" xlink:href="#DejaVuSans-74"/>
     <use x="1917.310547" xlink:href="#DejaVuSans-79"/>
     <use x="1976.490234" xlink:href="#DejaVuSans-20"/>
    </g>
   </g>
   <g id="legend_1">
    <g id="patch_7">
     <path d="M 277.843437 108.1845 
L 407.72 108.1845 
Q 409.72 108.1845 409.72 106.1845 
L 409.72 48.472 
Q 409.72 46.472 407.72 46.472 
L 277.843437 46.472 
Q 275.843437 46.472 275.843437 48.472 
L 275.843437 106.1845 
Q 275.843437 108.1845 277.843437 108.1845 
z
" style="fill:#ffffff;opacity:0.8;stroke:#cccccc;stroke-linejoin:miter;"/>
    </g>
    <g id="line2d_17">
     <path d="M 279.843437 54.570438 
L 299.843437 54.570438 
" style="fill:none;stroke:#1f77b4;stroke-linecap:square;stroke-width:1.5;"/>
    </g>
    <g id="line2d_18"/>
    <g id="text_14">
     <!-- actual -->
     <defs>
      <path d="M 8.5 21.578125 
L 8.5 54.6875 
L 17.484375 54.6875 
L 17.484375 21.921875 
Q 17.484375 14.15625 20.5 10.265625 
Q 23.53125 6.390625 29.59375 6.390625 
Q 36.859375 6.390625 41.078125 11.03125 
Q 45.3125 15.671875 45.3125 23.6875 
L 45.3125 54.6875 
L 54.296875 54.6875 
L 54.296875 0 
L 45.3125 0 
L 45.3125 8.40625 
Q 42.046875 3.421875 37.71875 1 
Q 33.40625 -1.421875 27.6875 -1.421875 
Q 18.265625 -1.421875 13.375 4.4375 
Q 8.5 10.296875 8.5 21.578125 
z
M 31.109375 56 
z
" id="DejaVuSans-75"/>
     </defs>
     <g transform="translate(307.843437 58.070438)scale(0.1 -0.1)">
      <use xlink:href="#DejaVuSans-61"/>
      <use x="61.279297" xlink:href="#DejaVuSans-63"/>
      <use x="116.259766" xlink:href="#DejaVuSans-74"/>
      <use x="155.46875" xlink:href="#DejaVuSans-75"/>
      <use x="218.847656" xlink:href="#DejaVuSans-61"/>
      <use x="280.126953" xlink:href="#DejaVuSans-6c"/>
     </g>
    </g>
    <g id="line2d_19">
     <path d="M 279.843437 69.248563 
L 299.843437 69.248563 
" style="fill:none;stroke:#ff7f0e;stroke-linecap:square;stroke-width:1.5;"/>
    </g>
    <g id="line2d_20"/>
    <g id="text_15">
     <!-- pred. (mean) -->
     <defs>
      <path d="M 18.109375 8.203125 
L 18.109375 -20.796875 
L 9.078125 -20.796875 
L 9.078125 54.6875 
L 18.109375 54.6875 
L 18.109375 46.390625 
Q 20.953125 51.265625 25.265625 53.625 
Q 29.59375 56 35.59375 56 
Q 45.5625 56 51.78125 48.09375 
Q 58.015625 40.1875 58.015625 27.296875 
Q 58.015625 14.40625 51.78125 6.484375 
Q 45.5625 -1.421875 35.59375 -1.421875 
Q 29.59375 -1.421875 25.265625 0.953125 
Q 20.953125 3.328125 18.109375 8.203125 
z
M 48.6875 27.296875 
Q 48.6875 37.203125 44.609375 42.84375 
Q 40.53125 48.484375 33.40625 48.484375 
Q 26.265625 48.484375 22.1875 42.84375 
Q 18.109375 37.203125 18.109375 27.296875 
Q 18.109375 17.390625 22.1875 11.75 
Q 26.265625 6.109375 33.40625 6.109375 
Q 40.53125 6.109375 44.609375 11.75 
Q 48.6875 17.390625 48.6875 27.296875 
z
" id="DejaVuSans-70"/>
      <path d="M 45.40625 46.390625 
L 45.40625 75.984375 
L 54.390625 75.984375 
L 54.390625 0 
L 45.40625 0 
L 45.40625 8.203125 
Q 42.578125 3.328125 38.25 0.953125 
Q 33.9375 -1.421875 27.875 -1.421875 
Q 17.96875 -1.421875 11.734375 6.484375 
Q 5.515625 14.40625 5.515625 27.296875 
Q 5.515625 40.1875 11.734375 48.09375 
Q 17.96875 56 27.875 56 
Q 33.9375 56 38.25 53.625 
Q 42.578125 51.265625 45.40625 46.390625 
z
M 14.796875 27.296875 
Q 14.796875 17.390625 18.875 11.75 
Q 22.953125 6.109375 30.078125 6.109375 
Q 37.203125 6.109375 41.296875 11.75 
Q 45.40625 17.390625 45.40625 27.296875 
Q 45.40625 37.203125 41.296875 42.84375 
Q 37.203125 48.484375 30.078125 48.484375 
Q 22.953125 48.484375 18.875 42.84375 
Q 14.796875 37.203125 14.796875 27.296875 
z
" id="DejaVuSans-64"/>
      <path d="M 31 75.875 
Q 24.46875 64.65625 21.28125 53.65625 
Q 18.109375 42.671875 18.109375 31.390625 
Q 18.109375 20.125 21.3125 9.0625 
Q 24.515625 -2 31 -13.1875 
L 23.1875 -13.1875 
Q 15.875 -1.703125 12.234375 9.375 
Q 8.59375 20.453125 8.59375 31.390625 
Q 8.59375 42.28125 12.203125 53.3125 
Q 15.828125 64.359375 23.1875 75.875 
z
" id="DejaVuSans-28"/>
      <path d="M 52 44.1875 
Q 55.375 50.25 60.0625 53.125 
Q 64.75 56 71.09375 56 
Q 79.640625 56 84.28125 50.015625 
Q 88.921875 44.046875 88.921875 33.015625 
L 88.921875 0 
L 79.890625 0 
L 79.890625 32.71875 
Q 79.890625 40.578125 77.09375 44.375 
Q 74.3125 48.1875 68.609375 48.1875 
Q 61.625 48.1875 57.5625 43.546875 
Q 53.515625 38.921875 53.515625 30.90625 
L 53.515625 0 
L 44.484375 0 
L 44.484375 32.71875 
Q 44.484375 40.625 41.703125 44.40625 
Q 38.921875 48.1875 33.109375 48.1875 
Q 26.21875 48.1875 22.15625 43.53125 
Q 18.109375 38.875 18.109375 30.90625 
L 18.109375 0 
L 9.078125 0 
L 9.078125 54.6875 
L 18.109375 54.6875 
L 18.109375 46.1875 
Q 21.1875 51.21875 25.484375 53.609375 
Q 29.78125 56 35.6875 56 
Q 41.65625 56 45.828125 52.96875 
Q 50 49.953125 52 44.1875 
z
" id="DejaVuSans-6d"/>
      <path d="M 8.015625 75.875 
L 15.828125 75.875 
Q 23.140625 64.359375 26.78125 53.3125 
Q 30.421875 42.28125 30.421875 31.390625 
Q 30.421875 20.453125 26.78125 9.375 
Q 23.140625 -1.703125 15.828125 -13.1875 
L 8.015625 -13.1875 
Q 14.5 -2 17.703125 9.0625 
Q 20.90625 20.125 20.90625 31.390625 
Q 20.90625 42.671875 17.703125 53.65625 
Q 14.5 64.65625 8.015625 75.875 
z
" id="DejaVuSans-29"/>
     </defs>
     <g transform="translate(307.843437 72.748563)scale(0.1 -0.1)">
      <use xlink:href="#DejaVuSans-70"/>
      <use x="63.476562" xlink:href="#DejaVuSans-72"/>
      <use x="104.558594" xlink:href="#DejaVuSans-65"/>
      <use x="166.082031" xlink:href="#DejaVuSans-64"/>
      <use x="229.558594" xlink:href="#DejaVuSans-2e"/>
      <use x="261.345703" xlink:href="#DejaVuSans-20"/>
      <use x="293.132812" xlink:href="#DejaVuSans-28"/>
      <use x="332.146484" xlink:href="#DejaVuSans-6d"/>
      <use x="429.558594" xlink:href="#DejaVuSans-65"/>
      <use x="491.082031" xlink:href="#DejaVuSans-61"/>
      <use x="552.361328" xlink:href="#DejaVuSans-6e"/>
      <use x="615.740234" xlink:href="#DejaVuSans-29"/>
     </g>
    </g>
    <g id="line2d_21">
     <path d="M 279.843437 83.926688 
L 299.843437 83.926688 
" style="fill:none;stroke:#2ca02c;stroke-linecap:square;stroke-width:1.5;"/>
    </g>
    <g id="line2d_22"/>
    <g id="text_16">
     <!-- pred.(5th percen.) -->
     <defs>
      <path d="M 10.796875 72.90625 
L 49.515625 72.90625 
L 49.515625 64.59375 
L 19.828125 64.59375 
L 19.828125 46.734375 
Q 21.96875 47.46875 24.109375 47.828125 
Q 26.265625 48.1875 28.421875 48.1875 
Q 40.625 48.1875 47.75 41.5 
Q 54.890625 34.8125 54.890625 23.390625 
Q 54.890625 11.625 47.5625 5.09375 
Q 40.234375 -1.421875 26.90625 -1.421875 
Q 22.3125 -1.421875 17.546875 -0.640625 
Q 12.796875 0.140625 7.71875 1.703125 
L 7.71875 11.625 
Q 12.109375 9.234375 16.796875 8.0625 
Q 21.484375 6.890625 26.703125 6.890625 
Q 35.15625 6.890625 40.078125 11.328125 
Q 45.015625 15.765625 45.015625 23.390625 
Q 45.015625 31 40.078125 35.4375 
Q 35.15625 39.890625 26.703125 39.890625 
Q 22.75 39.890625 18.8125 39.015625 
Q 14.890625 38.140625 10.796875 36.28125 
z
" id="DejaVuSans-35"/>
      <path d="M 54.890625 33.015625 
L 54.890625 0 
L 45.90625 0 
L 45.90625 32.71875 
Q 45.90625 40.484375 42.875 44.328125 
Q 39.84375 48.1875 33.796875 48.1875 
Q 26.515625 48.1875 22.3125 43.546875 
Q 18.109375 38.921875 18.109375 30.90625 
L 18.109375 0 
L 9.078125 0 
L 9.078125 75.984375 
L 18.109375 75.984375 
L 18.109375 46.1875 
Q 21.34375 51.125 25.703125 53.5625 
Q 30.078125 56 35.796875 56 
Q 45.21875 56 50.046875 50.171875 
Q 54.890625 44.34375 54.890625 33.015625 
z
" id="DejaVuSans-68"/>
     </defs>
     <g transform="translate(307.843437 87.426688)scale(0.1 -0.1)">
      <use xlink:href="#DejaVuSans-70"/>
      <use x="63.476562" xlink:href="#DejaVuSans-72"/>
      <use x="104.558594" xlink:href="#DejaVuSans-65"/>
      <use x="166.082031" xlink:href="#DejaVuSans-64"/>
      <use x="229.558594" xlink:href="#DejaVuSans-2e"/>
      <use x="261.345703" xlink:href="#DejaVuSans-28"/>
      <use x="300.359375" xlink:href="#DejaVuSans-35"/>
      <use x="363.982422" xlink:href="#DejaVuSans-74"/>
      <use x="403.191406" xlink:href="#DejaVuSans-68"/>
      <use x="466.570312" xlink:href="#DejaVuSans-20"/>
      <use x="498.357422" xlink:href="#DejaVuSans-70"/>
      <use x="561.833984" xlink:href="#DejaVuSans-65"/>
      <use x="623.357422" xlink:href="#DejaVuSans-72"/>
      <use x="664.439453" xlink:href="#DejaVuSans-63"/>
      <use x="719.419922" xlink:href="#DejaVuSans-65"/>
      <use x="780.943359" xlink:href="#DejaVuSans-6e"/>
      <use x="844.322266" xlink:href="#DejaVuSans-2e"/>
      <use x="876.109375" xlink:href="#DejaVuSans-29"/>
     </g>
    </g>
    <g id="line2d_23">
     <path d="M 279.843437 98.604813 
L 299.843437 98.604813 
" style="fill:none;stroke:#d62728;stroke-linecap:square;stroke-width:1.5;"/>
    </g>
    <g id="line2d_24"/>
    <g id="text_17">
     <!-- pred.(95th percen.) -->
     <defs>
      <path d="M 10.984375 1.515625 
L 10.984375 10.5 
Q 14.703125 8.734375 18.5 7.8125 
Q 22.3125 6.890625 25.984375 6.890625 
Q 35.75 6.890625 40.890625 13.453125 
Q 46.046875 20.015625 46.78125 33.40625 
Q 43.953125 29.203125 39.59375 26.953125 
Q 35.25 24.703125 29.984375 24.703125 
Q 19.046875 24.703125 12.671875 31.3125 
Q 6.296875 37.9375 6.296875 49.421875 
Q 6.296875 60.640625 12.9375 67.421875 
Q 19.578125 74.21875 30.609375 74.21875 
Q 43.265625 74.21875 49.921875 64.515625 
Q 56.59375 54.828125 56.59375 36.375 
Q 56.59375 19.140625 48.40625 8.859375 
Q 40.234375 -1.421875 26.421875 -1.421875 
Q 22.703125 -1.421875 18.890625 -0.6875 
Q 15.09375 0.046875 10.984375 1.515625 
z
M 30.609375 32.421875 
Q 37.25 32.421875 41.125 36.953125 
Q 45.015625 41.5 45.015625 49.421875 
Q 45.015625 57.28125 41.125 61.84375 
Q 37.25 66.40625 30.609375 66.40625 
Q 23.96875 66.40625 20.09375 61.84375 
Q 16.21875 57.28125 16.21875 49.421875 
Q 16.21875 41.5 20.09375 36.953125 
Q 23.96875 32.421875 30.609375 32.421875 
z
" id="DejaVuSans-39"/>
     </defs>
     <g transform="translate(307.843437 102.104813)scale(0.1 -0.1)">
      <use xlink:href="#DejaVuSans-70"/>
      <use x="63.476562" xlink:href="#DejaVuSans-72"/>
      <use x="104.558594" xlink:href="#DejaVuSans-65"/>
      <use x="166.082031" xlink:href="#DejaVuSans-64"/>
      <use x="229.558594" xlink:href="#DejaVuSans-2e"/>
      <use x="261.345703" xlink:href="#DejaVuSans-28"/>
      <use x="300.359375" xlink:href="#DejaVuSans-39"/>
      <use x="363.982422" xlink:href="#DejaVuSans-35"/>
      <use x="427.605469" xlink:href="#DejaVuSans-74"/>
      <use x="466.814453" xlink:href="#DejaVuSans-68"/>
      <use x="530.193359" xlink:href="#DejaVuSans-20"/>
      <use x="561.980469" xlink:href="#DejaVuSans-70"/>
      <use x="625.457031" xlink:href="#DejaVuSans-65"/>
      <use x="686.980469" xlink:href="#DejaVuSans-72"/>
      <use x="728.0625" xlink:href="#DejaVuSans-63"/>
      <use x="783.042969" xlink:href="#DejaVuSans-65"/>
      <use x="844.566406" xlink:href="#DejaVuSans-6e"/>
      <use x="907.945312" xlink:href="#DejaVuSans-2e"/>
      <use x="939.732422" xlink:href="#DejaVuSans-29"/>
     </g>
    </g>
   </g>
  </g>
 </g>
 <defs>
  <clipPath id="pa21fc463d8">
   <rect height="266.112" width="357.12" x="57.6" y="41.472"/>
  </clipPath>
 </defs>
</svg>
