<?xml version="1.0" encoding="utf-8" standalone="no"?>
<!DOCTYPE svg PUBLIC "-//W3C//DTD SVG 1.1//EN"
  "http://www.w3.org/Graphics/SVG/1.1/DTD/svg11.dtd">
<!-- Created with matplotlib (http://matplotlib.org/) -->
<svg height="345.6pt" version="1.1" viewBox="0 0 460.8 345.6" width="460.8pt" xmlns="http://www.w3.org/2000/svg" xmlns:xlink="http://www.w3.org/1999/xlink">
 <defs>
  <style type="text/css">
*{stroke-linecap:butt;stroke-linejoin:round;}
  </style>
 </defs>
 <g id="figure_1">
  <g id="patch_1">
   <path d="M 0 345.6 
L 460.8 345.6 
L 460.8 0 
L 0 0 
z
" style="fill:#ffffff;"/>
  </g>
  <g id="axes_1">
   <g id="patch_2">
    <path d="M 57.6 307.584 
L 414.72 307.584 
L 414.72 41.472 
L 57.6 41.472 
z
" style="fill:#ffffff;"/>
   </g>
   <g id="PolyCollection_1">
    <path clip-path="url(#pcc6ae09e8a)" d="M 73.832727 72.180619 
L 73.832727 186.958438 
L 75.48072 186.958438 
L 77.128713 186.958438 
L 78.776705 186.958438 
L 80.424698 186.958438 
L 82.07269 186.958438 
L 83.720683 190.060541 
L 85.368676 193.162644 
L 87.016668 193.162644 
L 88.664661 193.162644 
L 90.312653 193.162644 
L 91.960646 193.162644 
L 93.608639 196.264747 
L 95.256631 199.366851 
L 96.904624 202.468954 
L 98.552617 208.67316 
L 100.200609 211.775263 
L 101.848602 217.97947 
L 103.496594 221.081573 
L 105.144587 224.183676 
L 106.79258 227.285779 
L 108.440572 230.387883 
L 110.088565 230.387883 
L 111.736557 230.387883 
L 113.38455 230.387883 
L 115.032543 230.387883 
L 116.680535 230.387883 
L 118.328528 233.489986 
L 119.976521 233.489986 
L 121.624513 233.489986 
L 123.272506 236.592089 
L 124.920498 236.592089 
L 126.568491 236.592089 
L 128.216484 236.592089 
L 129.864476 236.592089 
L 131.512469 236.592089 
L 133.160461 236.592089 
L 134.808454 236.592089 
L 136.456447 236.592089 
L 138.104439 236.592089 
L 139.752432 236.592089 
L 141.400425 236.592089 
L 143.048417 233.489986 
L 144.69641 230.387883 
L 146.344402 227.285779 
L 147.992395 221.081573 
L 149.640388 214.877367 
L 151.28838 208.67316 
L 152.936373 202.624059 
L 154.584365 196.264747 
L 156.232358 193.162644 
L 157.880351 190.060541 
L 159.528343 186.958438 
L 161.176336 186.958438 
L 162.824329 183.856335 
L 164.472321 183.856335 
L 166.120314 183.856335 
L 167.768306 183.856335 
L 169.416299 183.856335 
L 171.064292 180.909336 
L 172.712284 180.754231 
L 174.360277 180.754231 
L 176.008269 180.754231 
L 177.656262 180.754231 
L 179.304255 183.856335 
L 180.952247 183.856335 
L 182.60024 183.856335 
L 184.248233 183.856335 
L 185.896225 186.958438 
L 187.544218 186.958438 
L 189.19221 186.958438 
L 190.840203 190.060541 
L 192.488196 190.060541 
L 194.136188 190.060541 
L 195.784181 193.162644 
L 197.432174 196.264747 
L 199.080166 199.366851 
L 200.728159 199.366851 
L 202.376151 202.468954 
L 204.024144 205.571057 
L 205.672137 208.67316 
L 207.320129 211.775263 
L 208.968122 211.775263 
L 210.616114 214.877367 
L 212.264107 217.97947 
L 213.9121 217.97947 
L 215.560092 217.97947 
L 217.208085 217.97947 
L 218.856078 217.97947 
L 220.50407 217.97947 
L 222.152063 217.97947 
L 223.800055 221.081573 
L 225.448048 221.081573 
L 227.096041 224.183676 
L 228.744033 227.285779 
L 230.392026 230.387883 
L 232.040018 230.387883 
L 233.688011 230.387883 
L 235.336004 230.387883 
L 236.983996 230.542988 
L 238.631989 233.489986 
L 240.279982 233.489986 
L 241.927974 233.489986 
L 243.575967 233.489986 
L 245.223959 236.592089 
L 246.871952 236.592089 
L 248.519945 236.592089 
L 250.167937 239.694192 
L 251.81593 239.694192 
L 253.463922 236.592089 
L 255.111915 239.694192 
L 256.759908 239.694192 
L 258.4079 236.592089 
L 260.055893 236.592089 
L 261.703886 236.592089 
L 263.351878 233.489986 
L 264.999871 233.489986 
L 266.647863 230.387883 
L 268.295856 227.285779 
L 269.943849 224.183676 
L 271.591841 217.97947 
L 273.239834 214.877367 
L 274.887826 211.775263 
L 276.535819 208.67316 
L 278.183812 205.571057 
L 279.831804 202.468954 
L 281.479797 199.366851 
L 283.12779 196.264747 
L 284.775782 196.264747 
L 286.423775 193.162644 
L 288.071767 193.162644 
L 289.71976 190.060541 
L 291.367753 190.060541 
L 293.015745 190.060541 
L 294.663738 190.060541 
L 296.311731 190.060541 
L 297.959723 190.060541 
L 299.607716 193.162644 
L 301.255708 193.162644 
L 302.903701 190.060541 
L 304.551694 190.060541 
L 306.199686 190.060541 
L 307.847679 190.060541 
L 309.495671 190.060541 
L 311.143664 190.060541 
L 312.791657 196.264747 
L 314.439649 196.264747 
L 316.087642 196.264747 
L 317.735635 193.162644 
L 319.383627 196.264747 
L 321.03162 196.264747 
L 322.679612 193.162644 
L 324.327605 196.264747 
L 325.975598 199.366851 
L 327.62359 202.468954 
L 329.271583 202.468954 
L 330.919575 202.468954 
L 332.567568 205.571057 
L 334.215561 211.775263 
L 335.863553 211.775263 
L 337.511546 214.877367 
L 339.159539 221.081573 
L 340.807531 227.285779 
L 342.455524 227.285779 
L 344.103516 230.387883 
L 345.751509 230.387883 
L 347.399502 233.489986 
L 349.047494 236.592089 
L 350.695487 236.592089 
L 352.343479 236.592089 
L 353.991472 236.592089 
L 355.639465 239.694192 
L 357.287457 239.694192 
L 358.93545 236.592089 
L 360.583443 236.592089 
L 362.231435 236.592089 
L 363.879428 239.694192 
L 365.52742 239.694192 
L 367.175413 239.694192 
L 368.823406 239.694192 
L 370.471398 239.694192 
L 372.119391 239.694192 
L 373.767383 236.592089 
L 375.415376 236.592089 
L 377.063369 236.592089 
L 378.711361 233.489986 
L 380.359354 230.387883 
L 382.007347 227.285779 
L 383.655339 221.081573 
L 385.303332 211.775263 
L 386.951324 202.468954 
L 388.599317 199.366851 
L 390.24731 196.264747 
L 391.895302 193.162644 
L 393.543295 193.162644 
L 395.191287 190.060541 
L 396.83928 193.162644 
L 398.487273 193.162644 
L 398.487273 69.078516 
L 398.487273 69.078516 
L 396.83928 69.078516 
L 395.191287 72.025514 
L 393.543295 69.078516 
L 391.895302 69.078516 
L 390.24731 69.078516 
L 388.599317 65.976413 
L 386.951324 65.976413 
L 385.303332 62.87431 
L 383.655339 59.772206 
L 382.007347 59.772206 
L 380.359354 56.670103 
L 378.711361 56.670103 
L 377.063369 56.670103 
L 375.415376 53.568 
L 373.767383 53.568 
L 372.119391 53.568 
L 370.471398 53.568 
L 368.823406 53.568 
L 367.175413 53.568 
L 365.52742 53.568 
L 363.879428 53.568 
L 362.231435 53.568 
L 360.583443 53.568 
L 358.93545 53.568 
L 357.287457 53.568 
L 355.639465 53.568 
L 353.991472 53.568 
L 352.343479 56.670103 
L 350.695487 56.670103 
L 349.047494 56.670103 
L 347.399502 56.670103 
L 345.751509 56.670103 
L 344.103516 56.670103 
L 342.455524 59.772206 
L 340.807531 59.772206 
L 339.159539 59.772206 
L 337.511546 62.87431 
L 335.863553 62.87431 
L 334.215561 62.87431 
L 332.567568 65.976413 
L 330.919575 65.976413 
L 329.271583 65.976413 
L 327.62359 65.976413 
L 325.975598 69.078516 
L 324.327605 69.078516 
L 322.679612 69.078516 
L 321.03162 69.078516 
L 319.383627 69.078516 
L 317.735635 69.078516 
L 316.087642 69.078516 
L 314.439649 69.078516 
L 312.791657 69.078516 
L 311.143664 72.180619 
L 309.495671 72.180619 
L 307.847679 72.180619 
L 306.199686 72.180619 
L 304.551694 72.180619 
L 302.903701 72.180619 
L 301.255708 72.180619 
L 299.607716 72.180619 
L 297.959723 72.180619 
L 296.311731 72.180619 
L 294.663738 72.180619 
L 293.015745 72.180619 
L 291.367753 72.180619 
L 289.71976 72.180619 
L 288.071767 69.078516 
L 286.423775 69.078516 
L 284.775782 69.078516 
L 283.12779 69.078516 
L 281.479797 65.976413 
L 279.831804 65.976413 
L 278.183812 65.976413 
L 276.535819 62.87431 
L 274.887826 62.87431 
L 273.239834 62.87431 
L 271.591841 59.772206 
L 269.943849 59.772206 
L 268.295856 59.772206 
L 266.647863 56.670103 
L 264.999871 56.670103 
L 263.351878 56.670103 
L 261.703886 56.670103 
L 260.055893 53.568 
L 258.4079 53.568 
L 256.759908 53.568 
L 255.111915 53.568 
L 253.463922 53.568 
L 251.81593 53.568 
L 250.167937 53.568 
L 248.519945 53.568 
L 246.871952 56.670103 
L 245.223959 56.670103 
L 243.575967 56.670103 
L 241.927974 56.670103 
L 240.279982 56.670103 
L 238.631989 56.670103 
L 236.983996 56.670103 
L 235.336004 56.670103 
L 233.688011 56.670103 
L 232.040018 56.670103 
L 230.392026 56.670103 
L 228.744033 59.772206 
L 227.096041 59.772206 
L 225.448048 59.772206 
L 223.800055 59.772206 
L 222.152063 62.87431 
L 220.50407 62.87431 
L 218.856078 59.772206 
L 217.208085 62.87431 
L 215.560092 62.87431 
L 213.9121 59.772206 
L 212.264107 62.87431 
L 210.616114 62.87431 
L 208.968122 62.87431 
L 207.320129 62.87431 
L 205.672137 65.976413 
L 204.024144 65.976413 
L 202.376151 65.976413 
L 200.728159 65.976413 
L 199.080166 69.078516 
L 197.432174 69.078516 
L 195.784181 69.078516 
L 194.136188 72.180619 
L 192.488196 72.180619 
L 190.840203 72.180619 
L 189.19221 72.180619 
L 187.544218 75.282722 
L 185.896225 75.282722 
L 184.248233 75.282722 
L 182.60024 75.282722 
L 180.952247 78.384826 
L 179.304255 78.384826 
L 177.656262 78.384826 
L 176.008269 78.384826 
L 174.360277 78.384826 
L 172.712284 78.384826 
L 171.064292 78.384826 
L 169.416299 75.282722 
L 167.768306 75.282722 
L 166.120314 75.282722 
L 164.472321 75.282722 
L 162.824329 75.282722 
L 161.176336 75.282722 
L 159.528343 72.180619 
L 157.880351 72.180619 
L 156.232358 69.078516 
L 154.584365 65.976413 
L 152.936373 65.976413 
L 151.28838 62.87431 
L 149.640388 62.87431 
L 147.992395 59.772206 
L 146.344402 56.670103 
L 144.69641 56.670103 
L 143.048417 56.670103 
L 141.400425 56.670103 
L 139.752432 56.670103 
L 138.104439 56.670103 
L 136.456447 56.670103 
L 134.808454 56.670103 
L 133.160461 56.670103 
L 131.512469 56.670103 
L 129.864476 56.670103 
L 128.216484 56.670103 
L 126.568491 56.670103 
L 124.920498 56.670103 
L 123.272506 56.670103 
L 121.624513 56.670103 
L 119.976521 56.670103 
L 118.328528 56.670103 
L 116.680535 56.670103 
L 115.032543 56.670103 
L 113.38455 56.670103 
L 111.736557 56.670103 
L 110.088565 56.670103 
L 108.440572 56.670103 
L 106.79258 59.772206 
L 105.144587 59.772206 
L 103.496594 59.772206 
L 101.848602 62.87431 
L 100.200609 62.87431 
L 98.552617 65.976413 
L 96.904624 65.976413 
L 95.256631 69.078516 
L 93.608639 69.078516 
L 91.960646 69.078516 
L 90.312653 69.078516 
L 88.664661 69.078516 
L 87.016668 69.078516 
L 85.368676 72.025514 
L 83.720683 72.180619 
L 82.07269 75.282722 
L 80.424698 75.282722 
L 78.776705 75.282722 
L 77.128713 75.282722 
L 75.48072 75.282722 
L 73.832727 72.180619 
z
" style="fill:#008000;fill-opacity:0.4;"/>
   </g>
   <g id="matplotlib.axis_1">
    <g id="xtick_1">
     <g id="line2d_1">
      <defs>
       <path d="M 0 0 
L 0 3.5 
" id="m85ef8da927" style="stroke:#000000;stroke-width:0.8;"/>
      </defs>
      <g>
       <use style="stroke:#000000;stroke-width:0.8;" x="73.832727" xlink:href="#m85ef8da927" y="307.584"/>
      </g>
     </g>
     <g id="text_1">
      <!-- 0.0 -->
      <defs>
       <path d="M 31.78125 66.40625 
Q 24.171875 66.40625 20.328125 58.90625 
Q 16.5 51.421875 16.5 36.375 
Q 16.5 21.390625 20.328125 13.890625 
Q 24.171875 6.390625 31.78125 6.390625 
Q 39.453125 6.390625 43.28125 13.890625 
Q 47.125 21.390625 47.125 36.375 
Q 47.125 51.421875 43.28125 58.90625 
Q 39.453125 66.40625 31.78125 66.40625 
z
M 31.78125 74.21875 
Q 44.046875 74.21875 50.515625 64.515625 
Q 56.984375 54.828125 56.984375 36.375 
Q 56.984375 17.96875 50.515625 8.265625 
Q 44.046875 -1.421875 31.78125 -1.421875 
Q 19.53125 -1.421875 13.0625 8.265625 
Q 6.59375 17.96875 6.59375 36.375 
Q 6.59375 54.828125 13.0625 64.515625 
Q 19.53125 74.21875 31.78125 74.21875 
z
" id="DejaVuSans-30"/>
       <path d="M 10.6875 12.40625 
L 21 12.40625 
L 21 0 
L 10.6875 0 
z
" id="DejaVuSans-2e"/>
      </defs>
      <g transform="translate(65.881165 322.182437)scale(0.1 -0.1)">
       <use xlink:href="#DejaVuSans-30"/>
       <use x="63.623047" xlink:href="#DejaVuSans-2e"/>
       <use x="95.410156" xlink:href="#DejaVuSans-30"/>
      </g>
     </g>
    </g>
    <g id="xtick_2">
     <g id="line2d_2">
      <g>
       <use style="stroke:#000000;stroke-width:0.8;" x="138.763636" xlink:href="#m85ef8da927" y="307.584"/>
      </g>
     </g>
     <g id="text_2">
      <!-- 0.2 -->
      <defs>
       <path d="M 19.1875 8.296875 
L 53.609375 8.296875 
L 53.609375 0 
L 7.328125 0 
L 7.328125 8.296875 
Q 12.9375 14.109375 22.625 23.890625 
Q 32.328125 33.6875 34.8125 36.53125 
Q 39.546875 41.84375 41.421875 45.53125 
Q 43.3125 49.21875 43.3125 52.78125 
Q 43.3125 58.59375 39.234375 62.25 
Q 35.15625 65.921875 28.609375 65.921875 
Q 23.96875 65.921875 18.8125 64.3125 
Q 13.671875 62.703125 7.8125 59.421875 
L 7.8125 69.390625 
Q 13.765625 71.78125 18.9375 73 
Q 24.125 74.21875 28.421875 74.21875 
Q 39.75 74.21875 46.484375 68.546875 
Q 53.21875 62.890625 53.21875 53.421875 
Q 53.21875 48.921875 51.53125 44.890625 
Q 49.859375 40.875 45.40625 35.40625 
Q 44.1875 33.984375 37.640625 27.21875 
Q 31.109375 20.453125 19.1875 8.296875 
z
" id="DejaVuSans-32"/>
      </defs>
      <g transform="translate(130.812074 322.182437)scale(0.1 -0.1)">
       <use xlink:href="#DejaVuSans-30"/>
       <use x="63.623047" xlink:href="#DejaVuSans-2e"/>
       <use x="95.410156" xlink:href="#DejaVuSans-32"/>
      </g>
     </g>
    </g>
    <g id="xtick_3">
     <g id="line2d_3">
      <g>
       <use style="stroke:#000000;stroke-width:0.8;" x="203.694545" xlink:href="#m85ef8da927" y="307.584"/>
      </g>
     </g>
     <g id="text_3">
      <!-- 0.4 -->
      <defs>
       <path d="M 37.796875 64.3125 
L 12.890625 25.390625 
L 37.796875 25.390625 
z
M 35.203125 72.90625 
L 47.609375 72.90625 
L 47.609375 25.390625 
L 58.015625 25.390625 
L 58.015625 17.1875 
L 47.609375 17.1875 
L 47.609375 0 
L 37.796875 0 
L 37.796875 17.1875 
L 4.890625 17.1875 
L 4.890625 26.703125 
z
" id="DejaVuSans-34"/>
      </defs>
      <g transform="translate(195.742983 322.182437)scale(0.1 -0.1)">
       <use xlink:href="#DejaVuSans-30"/>
       <use x="63.623047" xlink:href="#DejaVuSans-2e"/>
       <use x="95.410156" xlink:href="#DejaVuSans-34"/>
      </g>
     </g>
    </g>
    <g id="xtick_4">
     <g id="line2d_4">
      <g>
       <use style="stroke:#000000;stroke-width:0.8;" x="268.625455" xlink:href="#m85ef8da927" y="307.584"/>
      </g>
     </g>
     <g id="text_4">
      <!-- 0.6 -->
      <defs>
       <path d="M 33.015625 40.375 
Q 26.375 40.375 22.484375 35.828125 
Q 18.609375 31.296875 18.609375 23.390625 
Q 18.609375 15.53125 22.484375 10.953125 
Q 26.375 6.390625 33.015625 6.390625 
Q 39.65625 6.390625 43.53125 10.953125 
Q 47.40625 15.53125 47.40625 23.390625 
Q 47.40625 31.296875 43.53125 35.828125 
Q 39.65625 40.375 33.015625 40.375 
z
M 52.59375 71.296875 
L 52.59375 62.3125 
Q 48.875 64.0625 45.09375 64.984375 
Q 41.3125 65.921875 37.59375 65.921875 
Q 27.828125 65.921875 22.671875 59.328125 
Q 17.53125 52.734375 16.796875 39.40625 
Q 19.671875 43.65625 24.015625 45.921875 
Q 28.375 48.1875 33.59375 48.1875 
Q 44.578125 48.1875 50.953125 41.515625 
Q 57.328125 34.859375 57.328125 23.390625 
Q 57.328125 12.15625 50.6875 5.359375 
Q 44.046875 -1.421875 33.015625 -1.421875 
Q 20.359375 -1.421875 13.671875 8.265625 
Q 6.984375 17.96875 6.984375 36.375 
Q 6.984375 53.65625 15.1875 63.9375 
Q 23.390625 74.21875 37.203125 74.21875 
Q 40.921875 74.21875 44.703125 73.484375 
Q 48.484375 72.75 52.59375 71.296875 
z
" id="DejaVuSans-36"/>
      </defs>
      <g transform="translate(260.673892 322.182437)scale(0.1 -0.1)">
       <use xlink:href="#DejaVuSans-30"/>
       <use x="63.623047" xlink:href="#DejaVuSans-2e"/>
       <use x="95.410156" xlink:href="#DejaVuSans-36"/>
      </g>
     </g>
    </g>
    <g id="xtick_5">
     <g id="line2d_5">
      <g>
       <use style="stroke:#000000;stroke-width:0.8;" x="333.556364" xlink:href="#m85ef8da927" y="307.584"/>
      </g>
     </g>
     <g id="text_5">
      <!-- 0.8 -->
      <defs>
       <path d="M 31.78125 34.625 
Q 24.75 34.625 20.71875 30.859375 
Q 16.703125 27.09375 16.703125 20.515625 
Q 16.703125 13.921875 20.71875 10.15625 
Q 24.75 6.390625 31.78125 6.390625 
Q 38.8125 6.390625 42.859375 10.171875 
Q 46.921875 13.96875 46.921875 20.515625 
Q 46.921875 27.09375 42.890625 30.859375 
Q 38.875 34.625 31.78125 34.625 
z
M 21.921875 38.8125 
Q 15.578125 40.375 12.03125 44.71875 
Q 8.5 49.078125 8.5 55.328125 
Q 8.5 64.0625 14.71875 69.140625 
Q 20.953125 74.21875 31.78125 74.21875 
Q 42.671875 74.21875 48.875 69.140625 
Q 55.078125 64.0625 55.078125 55.328125 
Q 55.078125 49.078125 51.53125 44.71875 
Q 48 40.375 41.703125 38.8125 
Q 48.828125 37.15625 52.796875 32.3125 
Q 56.78125 27.484375 56.78125 20.515625 
Q 56.78125 9.90625 50.3125 4.234375 
Q 43.84375 -1.421875 31.78125 -1.421875 
Q 19.734375 -1.421875 13.25 4.234375 
Q 6.78125 9.90625 6.78125 20.515625 
Q 6.78125 27.484375 10.78125 32.3125 
Q 14.796875 37.15625 21.921875 38.8125 
z
M 18.3125 54.390625 
Q 18.3125 48.734375 21.84375 45.5625 
Q 25.390625 42.390625 31.78125 42.390625 
Q 38.140625 42.390625 41.71875 45.5625 
Q 45.3125 48.734375 45.3125 54.390625 
Q 45.3125 60.0625 41.71875 63.234375 
Q 38.140625 66.40625 31.78125 66.40625 
Q 25.390625 66.40625 21.84375 63.234375 
Q 18.3125 60.0625 18.3125 54.390625 
z
" id="DejaVuSans-38"/>
      </defs>
      <g transform="translate(325.604801 322.182437)scale(0.1 -0.1)">
       <use xlink:href="#DejaVuSans-30"/>
       <use x="63.623047" xlink:href="#DejaVuSans-2e"/>
       <use x="95.410156" xlink:href="#DejaVuSans-38"/>
      </g>
     </g>
    </g>
    <g id="xtick_6">
     <g id="line2d_6">
      <g>
       <use style="stroke:#000000;stroke-width:0.8;" x="398.487273" xlink:href="#m85ef8da927" y="307.584"/>
      </g>
     </g>
     <g id="text_6">
      <!-- 1.0 -->
      <defs>
       <path d="M 12.40625 8.296875 
L 28.515625 8.296875 
L 28.515625 63.921875 
L 10.984375 60.40625 
L 10.984375 69.390625 
L 28.421875 72.90625 
L 38.28125 72.90625 
L 38.28125 8.296875 
L 54.390625 8.296875 
L 54.390625 0 
L 12.40625 0 
z
" id="DejaVuSans-31"/>
      </defs>
      <g transform="translate(390.53571 322.182437)scale(0.1 -0.1)">
       <use xlink:href="#DejaVuSans-31"/>
       <use x="63.623047" xlink:href="#DejaVuSans-2e"/>
       <use x="95.410156" xlink:href="#DejaVuSans-30"/>
      </g>
     </g>
    </g>
   </g>
   <g id="matplotlib.axis_2">
    <g id="ytick_1">
     <g id="line2d_7">
      <defs>
       <path d="M 0 0 
L -3.5 0 
" id="m25c6e0a0e5" style="stroke:#000000;stroke-width:0.8;"/>
      </defs>
      <g>
       <use style="stroke:#000000;stroke-width:0.8;" x="57.6" xlink:href="#m25c6e0a0e5" y="298.634153"/>
      </g>
     </g>
     <g id="text_7">
      <!-- 0.0 -->
      <g transform="translate(34.696875 302.433372)scale(0.1 -0.1)">
       <use xlink:href="#DejaVuSans-30"/>
       <use x="63.623047" xlink:href="#DejaVuSans-2e"/>
       <use x="95.410156" xlink:href="#DejaVuSans-30"/>
      </g>
     </g>
    </g>
    <g id="ytick_2">
     <g id="line2d_8">
      <g>
       <use style="stroke:#000000;stroke-width:0.8;" x="57.6" xlink:href="#m25c6e0a0e5" y="267.613121"/>
      </g>
     </g>
     <g id="text_8">
      <!-- 0.1 -->
      <g transform="translate(34.696875 271.41234)scale(0.1 -0.1)">
       <use xlink:href="#DejaVuSans-30"/>
       <use x="63.623047" xlink:href="#DejaVuSans-2e"/>
       <use x="95.410156" xlink:href="#DejaVuSans-31"/>
      </g>
     </g>
    </g>
    <g id="ytick_3">
     <g id="line2d_9">
      <g>
       <use style="stroke:#000000;stroke-width:0.8;" x="57.6" xlink:href="#m25c6e0a0e5" y="236.592089"/>
      </g>
     </g>
     <g id="text_9">
      <!-- 0.2 -->
      <g transform="translate(34.696875 240.391308)scale(0.1 -0.1)">
       <use xlink:href="#DejaVuSans-30"/>
       <use x="63.623047" xlink:href="#DejaVuSans-2e"/>
       <use x="95.410156" xlink:href="#DejaVuSans-32"/>
      </g>
     </g>
    </g>
    <g id="ytick_4">
     <g id="line2d_10">
      <g>
       <use style="stroke:#000000;stroke-width:0.8;" x="57.6" xlink:href="#m25c6e0a0e5" y="205.571057"/>
      </g>
     </g>
     <g id="text_10">
      <!-- 0.3 -->
      <defs>
       <path d="M 40.578125 39.3125 
Q 47.65625 37.796875 51.625 33 
Q 55.609375 28.21875 55.609375 21.1875 
Q 55.609375 10.40625 48.1875 4.484375 
Q 40.765625 -1.421875 27.09375 -1.421875 
Q 22.515625 -1.421875 17.65625 -0.515625 
Q 12.796875 0.390625 7.625 2.203125 
L 7.625 11.71875 
Q 11.71875 9.328125 16.59375 8.109375 
Q 21.484375 6.890625 26.8125 6.890625 
Q 36.078125 6.890625 40.9375 10.546875 
Q 45.796875 14.203125 45.796875 21.1875 
Q 45.796875 27.640625 41.28125 31.265625 
Q 36.765625 34.90625 28.71875 34.90625 
L 20.21875 34.90625 
L 20.21875 43.015625 
L 29.109375 43.015625 
Q 36.375 43.015625 40.234375 45.921875 
Q 44.09375 48.828125 44.09375 54.296875 
Q 44.09375 59.90625 40.109375 62.90625 
Q 36.140625 65.921875 28.71875 65.921875 
Q 24.65625 65.921875 20.015625 65.03125 
Q 15.375 64.15625 9.8125 62.3125 
L 9.8125 71.09375 
Q 15.4375 72.65625 20.34375 73.4375 
Q 25.25 74.21875 29.59375 74.21875 
Q 40.828125 74.21875 47.359375 69.109375 
Q 53.90625 64.015625 53.90625 55.328125 
Q 53.90625 49.265625 50.4375 45.09375 
Q 46.96875 40.921875 40.578125 39.3125 
z
" id="DejaVuSans-33"/>
      </defs>
      <g transform="translate(34.696875 209.370276)scale(0.1 -0.1)">
       <use xlink:href="#DejaVuSans-30"/>
       <use x="63.623047" xlink:href="#DejaVuSans-2e"/>
       <use x="95.410156" xlink:href="#DejaVuSans-33"/>
      </g>
     </g>
    </g>
    <g id="ytick_5">
     <g id="line2d_11">
      <g>
       <use style="stroke:#000000;stroke-width:0.8;" x="57.6" xlink:href="#m25c6e0a0e5" y="174.550025"/>
      </g>
     </g>
     <g id="text_11">
      <!-- 0.4 -->
      <g transform="translate(34.696875 178.349244)scale(0.1 -0.1)">
       <use xlink:href="#DejaVuSans-30"/>
       <use x="63.623047" xlink:href="#DejaVuSans-2e"/>
       <use x="95.410156" xlink:href="#DejaVuSans-34"/>
      </g>
     </g>
    </g>
    <g id="ytick_6">
     <g id="line2d_12">
      <g>
       <use style="stroke:#000000;stroke-width:0.8;" x="57.6" xlink:href="#m25c6e0a0e5" y="143.528993"/>
      </g>
     </g>
     <g id="text_12">
      <!-- 0.5 -->
      <defs>
       <path d="M 10.796875 72.90625 
L 49.515625 72.90625 
L 49.515625 64.59375 
L 19.828125 64.59375 
L 19.828125 46.734375 
Q 21.96875 47.46875 24.109375 47.828125 
Q 26.265625 48.1875 28.421875 48.1875 
Q 40.625 48.1875 47.75 41.5 
Q 54.890625 34.8125 54.890625 23.390625 
Q 54.890625 11.625 47.5625 5.09375 
Q 40.234375 -1.421875 26.90625 -1.421875 
Q 22.3125 -1.421875 17.546875 -0.640625 
Q 12.796875 0.140625 7.71875 1.703125 
L 7.71875 11.625 
Q 12.109375 9.234375 16.796875 8.0625 
Q 21.484375 6.890625 26.703125 6.890625 
Q 35.15625 6.890625 40.078125 11.328125 
Q 45.015625 15.765625 45.015625 23.390625 
Q 45.015625 31 40.078125 35.4375 
Q 35.15625 39.890625 26.703125 39.890625 
Q 22.75 39.890625 18.8125 39.015625 
Q 14.890625 38.140625 10.796875 36.28125 
z
" id="DejaVuSans-35"/>
      </defs>
      <g transform="translate(34.696875 147.328212)scale(0.1 -0.1)">
       <use xlink:href="#DejaVuSans-30"/>
       <use x="63.623047" xlink:href="#DejaVuSans-2e"/>
       <use x="95.410156" xlink:href="#DejaVuSans-35"/>
      </g>
     </g>
    </g>
    <g id="ytick_7">
     <g id="line2d_13">
      <g>
       <use style="stroke:#000000;stroke-width:0.8;" x="57.6" xlink:href="#m25c6e0a0e5" y="112.507961"/>
      </g>
     </g>
     <g id="text_13">
      <!-- 0.6 -->
      <g transform="translate(34.696875 116.30718)scale(0.1 -0.1)">
       <use xlink:href="#DejaVuSans-30"/>
       <use x="63.623047" xlink:href="#DejaVuSans-2e"/>
       <use x="95.410156" xlink:href="#DejaVuSans-36"/>
      </g>
     </g>
    </g>
    <g id="ytick_8">
     <g id="line2d_14">
      <g>
       <use style="stroke:#000000;stroke-width:0.8;" x="57.6" xlink:href="#m25c6e0a0e5" y="81.486929"/>
      </g>
     </g>
     <g id="text_14">
      <!-- 0.7 -->
      <defs>
       <path d="M 8.203125 72.90625 
L 55.078125 72.90625 
L 55.078125 68.703125 
L 28.609375 0 
L 18.3125 0 
L 43.21875 64.59375 
L 8.203125 64.59375 
z
" id="DejaVuSans-37"/>
      </defs>
      <g transform="translate(34.696875 85.286148)scale(0.1 -0.1)">
       <use xlink:href="#DejaVuSans-30"/>
       <use x="63.623047" xlink:href="#DejaVuSans-2e"/>
       <use x="95.410156" xlink:href="#DejaVuSans-37"/>
      </g>
     </g>
    </g>
    <g id="ytick_9">
     <g id="line2d_15">
      <g>
       <use style="stroke:#000000;stroke-width:0.8;" x="57.6" xlink:href="#m25c6e0a0e5" y="50.465897"/>
      </g>
     </g>
     <g id="text_15">
      <!-- 0.8 -->
      <g transform="translate(34.696875 54.265116)scale(0.1 -0.1)">
       <use xlink:href="#DejaVuSans-30"/>
       <use x="63.623047" xlink:href="#DejaVuSans-2e"/>
       <use x="95.410156" xlink:href="#DejaVuSans-38"/>
      </g>
     </g>
    </g>
   </g>
   <g id="line2d_16">
    <path clip-path="url(#pcc6ae09e8a)" d="M 73.832727 145.521474 
L 75.48072 142.165619 
L 77.128713 148.248223 
L 78.776705 148.877329 
L 80.424698 162.930167 
L 82.07269 175.305077 
L 83.720683 184.953238 
L 85.368676 182.855906 
L 87.016668 178.241528 
L 88.664661 183.485013 
L 90.312653 187.470285 
L 91.960646 195.859923 
L 93.608639 199.635182 
L 95.256631 212.849212 
L 96.904624 227.111751 
L 100.200609 244.520444 
L 101.848602 249.763929 
L 103.496594 263.397363 
L 105.144587 269.479843 
L 106.79258 271.367534 
L 108.440572 273.674693 
L 110.088565 271.996765 
L 111.736557 271.367534 
L 113.38455 271.367534 
L 115.032543 274.723421 
L 116.680535 280.596229 
L 118.328528 282.274188 
L 119.976521 283.322885 
L 121.624513 286.469038 
L 123.272506 286.469038 
L 124.920498 287.517766 
L 126.568491 285.000844 
L 128.216484 283.742383 
L 129.864476 285.630074 
L 131.512469 285.420341 
L 133.160461 286.678771 
L 134.808454 286.888536 
L 136.456447 288.146997 
L 138.104439 286.469038 
L 139.752432 283.952116 
L 141.400425 280.596229 
L 143.048417 275.981882 
L 144.69641 264.026469 
L 146.344402 249.554227 
L 147.992395 237.389019 
L 149.640388 226.06293 
L 152.936373 193.762591 
L 154.584365 180.129158 
L 156.232358 168.593366 
L 157.880351 159.574312 
L 159.528343 149.716448 
L 161.176336 144.892367 
L 162.824329 140.697393 
L 164.472321 136.922133 
L 167.768306 125.386342 
L 171.064292 117.625811 
L 172.712284 119.723143 
L 174.360277 116.57699 
L 176.008269 117.835513 
L 177.656262 125.386342 
L 179.304255 132.098053 
L 180.952247 140.068287 
L 182.60024 140.487691 
L 184.248233 149.087341 
L 185.896225 161.881656 
L 187.544218 163.978988 
L 189.19221 165.447213 
L 190.840203 171.320115 
L 192.488196 176.5636 
L 194.136188 188.518796 
L 197.432174 200.893706 
L 199.080166 208.444535 
L 200.728159 211.380986 
L 202.376151 218.931815 
L 204.024144 224.594705 
L 205.672137 231.516428 
L 207.320129 235.50139 
L 208.968122 242.842517 
L 210.616114 244.730147 
L 213.9121 243.471623 
L 215.560092 244.939849 
L 217.208085 244.730147 
L 218.856078 240.744875 
L 222.152063 252.70038 
L 223.800055 256.056236 
L 225.448048 257.943865 
L 227.096041 266.96292 
L 228.744033 273.045462 
L 230.392026 274.723421 
L 232.040018 275.772149 
L 233.688011 274.933154 
L 235.336004 276.611113 
L 236.983996 276.401379 
L 238.631989 277.869574 
L 240.279982 281.435193 
L 243.575967 287.308002 
L 245.223959 289.405458 
L 246.871952 291.922381 
L 248.519945 292.761344 
L 250.167937 292.132114 
L 251.81593 291.083386 
L 253.463922 292.761344 
L 255.111915 292.971078 
L 256.759908 290.454155 
L 258.4079 288.146997 
L 260.055893 286.049541 
L 261.703886 282.064424 
L 263.351878 276.401379 
L 264.999871 268.221381 
L 266.647863 263.187661 
L 268.295856 251.441857 
L 269.943849 242.842517 
L 271.591841 236.550211 
L 273.239834 228.370275 
L 274.887826 219.560922 
L 276.535819 212.429807 
L 278.183812 211.380986 
L 279.831804 201.31342 
L 281.479797 192.923472 
L 283.12779 191.035842 
L 284.775782 186.421464 
L 286.423775 179.919455 
L 288.071767 165.656915 
L 289.71976 171.949222 
L 291.367753 173.836851 
L 293.015745 169.641877 
L 294.663738 163.978988 
L 296.311731 170.061592 
L 297.959723 186.421464 
L 299.607716 173.627149 
L 301.255708 167.754247 
L 302.903701 172.578328 
L 304.551694 183.275311 
L 306.199686 173.627149 
L 307.847679 166.915439 
L 309.495671 181.597383 
L 311.143664 193.133174 
L 312.791657 192.504068 
L 314.439649 190.406736 
L 316.087642 189.777319 
L 317.735635 196.069625 
L 319.383627 192.71377 
L 321.03162 187.260583 
L 322.679612 192.504068 
L 324.327605 201.31342 
L 325.975598 213.268616 
L 327.62359 207.815429 
L 329.271583 213.268616 
L 330.919575 224.385003 
L 335.863553 240.535172 
L 337.511546 255.427129 
L 339.159539 265.704397 
L 340.807531 269.270078 
L 342.455524 271.787001 
L 344.103516 275.142918 
L 345.751509 282.903419 
L 347.399502 286.469038 
L 349.047494 287.937233 
L 350.695487 290.244422 
L 352.343479 292.132114 
L 353.991472 292.341847 
L 355.639465 291.502883 
L 357.287457 291.502883 
L 358.93545 290.454155 
L 360.583443 291.29315 
L 362.231435 292.761344 
L 363.879428 293.390575 
L 365.52742 294.858769 
L 367.175413 295.488 
L 368.823406 295.488 
L 370.471398 293.600308 
L 372.119391 290.454155 
L 373.767383 288.146997 
L 375.415376 285.000844 
L 377.063369 280.176732 
L 378.711361 271.577268 
L 382.007347 247.666597 
L 383.655339 225.643526 
L 385.303332 209.912761 
L 386.951324 200.264599 
L 388.599317 194.181995 
L 390.24731 185.582655 
L 391.895302 175.724481 
L 393.543295 182.016787 
L 395.191287 186.002059 
L 396.83928 180.548562 
L 398.487273 172.368626 
L 398.487273 172.368626 
" style="fill:none;stroke:#1f77b4;stroke-linecap:square;stroke-width:1.5;"/>
   </g>
   <g id="line2d_17">
    <path clip-path="url(#pcc6ae09e8a)" d="M 73.832727 157.402042 
L 75.48072 154.486065 
L 77.128713 154.018533 
L 78.776705 154.38303 
L 80.424698 155.268238 
L 82.07269 157.909457 
L 83.720683 160.983863 
L 85.368676 163.107696 
L 87.016668 164.051621 
L 88.664661 162.826291 
L 90.312653 163.296038 
L 91.960646 164.48924 
L 93.608639 166.070204 
L 95.256631 168.373516 
L 96.904624 169.841475 
L 98.552617 173.371226 
L 100.200609 175.772032 
L 101.848602 177.57236 
L 105.144587 180.482797 
L 106.79258 182.637651 
L 108.440572 183.12734 
L 110.088565 183.095211 
L 111.736557 183.27469 
L 113.38455 182.883604 
L 116.680535 183.44309 
L 119.976521 184.960905 
L 121.624513 185.092744 
L 123.272506 185.527039 
L 124.920498 185.685468 
L 128.216484 185.652231 
L 129.864476 185.182484 
L 131.512469 185.281086 
L 133.160461 185.508204 
L 138.104439 185.764128 
L 139.752432 185.808444 
L 141.400425 185.294381 
L 143.048417 184.96866 
L 144.69641 183.712308 
L 146.344402 182.287557 
L 147.992395 179.449132 
L 149.640388 177.131418 
L 152.936373 171.329377 
L 154.584365 167.031856 
L 156.232358 163.721469 
L 157.880351 161.076926 
L 159.528343 157.60257 
L 161.176336 156.14015 
L 162.824329 153.712755 
L 164.472321 153.421378 
L 167.768306 150.930833 
L 169.416299 149.295581 
L 171.064292 148.402619 
L 172.712284 147.649251 
L 174.360277 147.084225 
L 176.008269 147.180612 
L 177.656262 147.063175 
L 179.304255 149.326602 
L 180.952247 150.197407 
L 182.60024 152.067532 
L 185.896225 154.764146 
L 187.544218 157.18711 
L 189.19221 158.735946 
L 190.840203 159.561327 
L 192.488196 159.967924 
L 199.080166 167.941437 
L 202.376151 170.770998 
L 204.024144 171.889971 
L 205.672137 173.238278 
L 207.320129 175.008693 
L 212.264107 177.818312 
L 213.9121 177.710847 
L 215.560092 178.132954 
L 220.50407 177.333055 
L 222.152063 178.147357 
L 223.800055 179.484585 
L 225.448048 179.809198 
L 227.096041 180.570321 
L 228.744033 181.946325 
L 230.392026 183.116261 
L 232.040018 183.54834 
L 233.688011 183.592656 
L 236.983996 183.898435 
L 238.631989 183.953829 
L 240.279982 184.154358 
L 243.575967 185.161434 
L 245.223959 185.738646 
L 246.871952 186.09428 
L 250.167937 186.585077 
L 253.463922 186.492014 
L 255.111915 186.447699 
L 256.759908 186.565135 
L 258.4079 186.381225 
L 260.055893 185.943607 
L 261.703886 185.744186 
L 263.351878 185.107147 
L 264.999871 183.9638 
L 266.647863 183.04314 
L 268.295856 181.421184 
L 269.943849 179.996432 
L 271.591841 177.607812 
L 273.239834 176.457818 
L 274.887826 174.95219 
L 276.535819 172.940255 
L 278.183812 171.310543 
L 281.479797 169.061518 
L 283.12779 166.15662 
L 284.775782 165.695736 
L 286.423775 164.735192 
L 288.071767 162.935972 
L 289.71976 160.766716 
L 291.367753 159.873753 
L 293.015745 161.733907 
L 294.663738 160.179532 
L 296.311731 159.331993 
L 297.959723 160.483095 
L 299.607716 163.067812 
L 301.255708 162.889441 
L 302.903701 159.627801 
L 306.199686 162.457362 
L 307.847679 162.206978 
L 309.495671 160.220524 
L 311.143664 162.006449 
L 312.791657 165.799878 
L 314.439649 166.189857 
L 317.735635 165.093042 
L 319.383627 166.378199 
L 321.03162 166.179886 
L 322.679612 165.22045 
L 324.327605 165.696844 
L 325.975598 167.843943 
L 327.62359 170.437522 
L 329.271583 170.386559 
L 330.919575 170.657993 
L 334.215561 174.702914 
L 335.863553 175.610279 
L 337.511546 177.126986 
L 339.159539 178.970522 
L 340.807531 181.700373 
L 342.455524 182.740685 
L 344.103516 182.823777 
L 347.399502 184.354887 
L 349.047494 185.695439 
L 350.695487 185.788502 
L 353.991472 186.449914 
L 362.231435 186.32583 
L 368.823406 186.958438 
L 370.471398 187.019372 
L 372.119391 186.90969 
L 373.767383 186.294809 
L 377.063369 185.466105 
L 378.711361 184.823526 
L 380.359354 183.396559 
L 382.007347 181.341415 
L 383.655339 178.961659 
L 385.303332 175.223624 
L 386.951324 170.934967 
L 388.599317 168.237245 
L 390.24731 166.659604 
L 393.543295 162.808564 
L 395.191287 162.636841 
L 396.83928 164.081535 
L 398.487273 163.381346 
L 398.487273 163.381346 
" style="fill:none;stroke:#ff7f0e;stroke-linecap:square;stroke-width:1.5;"/>
   </g>
   <g id="line2d_18">
    <path clip-path="url(#pcc6ae09e8a)" d="M 73.832727 186.958438 
L 82.07269 186.958438 
L 85.368676 193.162644 
L 91.960646 193.162644 
L 96.904624 202.468954 
L 98.552617 208.67316 
L 100.200609 211.775263 
L 101.848602 217.97947 
L 108.440572 230.387883 
L 116.680535 230.387883 
L 118.328528 233.489986 
L 121.624513 233.489986 
L 123.272506 236.592089 
L 141.400425 236.592089 
L 146.344402 227.285779 
L 154.584365 196.264747 
L 159.528343 186.958438 
L 161.176336 186.958438 
L 162.824329 183.856335 
L 169.416299 183.856335 
L 171.064292 180.909336 
L 172.712284 180.754231 
L 177.656262 180.754231 
L 179.304255 183.856335 
L 184.248233 183.856335 
L 185.896225 186.958438 
L 189.19221 186.958438 
L 190.840203 190.060541 
L 194.136188 190.060541 
L 199.080166 199.366851 
L 200.728159 199.366851 
L 207.320129 211.775263 
L 208.968122 211.775263 
L 212.264107 217.97947 
L 222.152063 217.97947 
L 223.800055 221.081573 
L 225.448048 221.081573 
L 230.392026 230.387883 
L 235.336004 230.387883 
L 236.983996 230.542988 
L 238.631989 233.489986 
L 243.575967 233.489986 
L 245.223959 236.592089 
L 248.519945 236.592089 
L 250.167937 239.694192 
L 251.81593 239.694192 
L 253.463922 236.592089 
L 255.111915 239.694192 
L 256.759908 239.694192 
L 258.4079 236.592089 
L 261.703886 236.592089 
L 263.351878 233.489986 
L 264.999871 233.489986 
L 269.943849 224.183676 
L 271.591841 217.97947 
L 283.12779 196.264747 
L 284.775782 196.264747 
L 286.423775 193.162644 
L 288.071767 193.162644 
L 289.71976 190.060541 
L 297.959723 190.060541 
L 299.607716 193.162644 
L 301.255708 193.162644 
L 302.903701 190.060541 
L 311.143664 190.060541 
L 312.791657 196.264747 
L 316.087642 196.264747 
L 317.735635 193.162644 
L 319.383627 196.264747 
L 321.03162 196.264747 
L 322.679612 193.162644 
L 327.62359 202.468954 
L 330.919575 202.468954 
L 332.567568 205.571057 
L 334.215561 211.775263 
L 335.863553 211.775263 
L 337.511546 214.877367 
L 340.807531 227.285779 
L 342.455524 227.285779 
L 344.103516 230.387883 
L 345.751509 230.387883 
L 349.047494 236.592089 
L 353.991472 236.592089 
L 355.639465 239.694192 
L 357.287457 239.694192 
L 358.93545 236.592089 
L 362.231435 236.592089 
L 363.879428 239.694192 
L 372.119391 239.694192 
L 373.767383 236.592089 
L 377.063369 236.592089 
L 382.007347 227.285779 
L 383.655339 221.081573 
L 386.951324 202.468954 
L 391.895302 193.162644 
L 393.543295 193.162644 
L 395.191287 190.060541 
L 396.83928 193.162644 
L 398.487273 193.162644 
L 398.487273 193.162644 
" style="fill:none;stroke:#2ca02c;stroke-linecap:square;stroke-width:1.5;"/>
   </g>
   <g id="line2d_19">
    <path clip-path="url(#pcc6ae09e8a)" d="M 73.832727 72.180619 
L 75.48072 75.282722 
L 82.07269 75.282722 
L 83.720683 72.180619 
L 85.368676 72.025514 
L 87.016668 69.078516 
L 95.256631 69.078516 
L 96.904624 65.976413 
L 98.552617 65.976413 
L 100.200609 62.87431 
L 101.848602 62.87431 
L 103.496594 59.772206 
L 106.79258 59.772206 
L 108.440572 56.670103 
L 146.344402 56.670103 
L 149.640388 62.87431 
L 151.28838 62.87431 
L 152.936373 65.976413 
L 154.584365 65.976413 
L 157.880351 72.180619 
L 159.528343 72.180619 
L 161.176336 75.282722 
L 169.416299 75.282722 
L 171.064292 78.384826 
L 180.952247 78.384826 
L 182.60024 75.282722 
L 187.544218 75.282722 
L 189.19221 72.180619 
L 194.136188 72.180619 
L 195.784181 69.078516 
L 199.080166 69.078516 
L 200.728159 65.976413 
L 205.672137 65.976413 
L 207.320129 62.87431 
L 212.264107 62.87431 
L 213.9121 59.772206 
L 215.560092 62.87431 
L 217.208085 62.87431 
L 218.856078 59.772206 
L 220.50407 62.87431 
L 222.152063 62.87431 
L 223.800055 59.772206 
L 228.744033 59.772206 
L 230.392026 56.670103 
L 246.871952 56.670103 
L 248.519945 53.568 
L 260.055893 53.568 
L 261.703886 56.670103 
L 266.647863 56.670103 
L 268.295856 59.772206 
L 271.591841 59.772206 
L 273.239834 62.87431 
L 276.535819 62.87431 
L 278.183812 65.976413 
L 281.479797 65.976413 
L 283.12779 69.078516 
L 288.071767 69.078516 
L 289.71976 72.180619 
L 311.143664 72.180619 
L 312.791657 69.078516 
L 325.975598 69.078516 
L 327.62359 65.976413 
L 332.567568 65.976413 
L 334.215561 62.87431 
L 337.511546 62.87431 
L 339.159539 59.772206 
L 342.455524 59.772206 
L 344.103516 56.670103 
L 352.343479 56.670103 
L 353.991472 53.568 
L 375.415376 53.568 
L 377.063369 56.670103 
L 380.359354 56.670103 
L 382.007347 59.772206 
L 383.655339 59.772206 
L 386.951324 65.976413 
L 388.599317 65.976413 
L 390.24731 69.078516 
L 393.543295 69.078516 
L 395.191287 72.025514 
L 396.83928 69.078516 
L 398.487273 69.078516 
L 398.487273 69.078516 
" style="fill:none;stroke:#d62728;stroke-linecap:square;stroke-width:1.5;"/>
   </g>
   <g id="patch_3">
    <path d="M 57.6 307.584 
L 57.6 41.472 
" style="fill:none;stroke:#000000;stroke-linecap:square;stroke-linejoin:miter;stroke-width:0.8;"/>
   </g>
   <g id="patch_4">
    <path d="M 414.72 307.584 
L 414.72 41.472 
" style="fill:none;stroke:#000000;stroke-linecap:square;stroke-linejoin:miter;stroke-width:0.8;"/>
   </g>
   <g id="patch_5">
    <path d="M 57.6 307.584 
L 414.72 307.584 
" style="fill:none;stroke:#000000;stroke-linecap:square;stroke-linejoin:miter;stroke-width:0.8;"/>
   </g>
   <g id="patch_6">
    <path d="M 57.6 41.472 
L 414.72 41.472 
" style="fill:none;stroke:#000000;stroke-linecap:square;stroke-linejoin:miter;stroke-width:0.8;"/>
   </g>
   <g id="text_16">
    <!-- Plot of Test Data vs MCMC Uncertainty  -->
    <defs>
     <path d="M 19.671875 64.796875 
L 19.671875 37.40625 
L 32.078125 37.40625 
Q 38.96875 37.40625 42.71875 40.96875 
Q 46.484375 44.53125 46.484375 51.125 
Q 46.484375 57.671875 42.71875 61.234375 
Q 38.96875 64.796875 32.078125 64.796875 
z
M 9.8125 72.90625 
L 32.078125 72.90625 
Q 44.34375 72.90625 50.609375 67.359375 
Q 56.890625 61.8125 56.890625 51.125 
Q 56.890625 40.328125 50.609375 34.8125 
Q 44.34375 29.296875 32.078125 29.296875 
L 19.671875 29.296875 
L 19.671875 0 
L 9.8125 0 
z
" id="DejaVuSans-50"/>
     <path d="M 9.421875 75.984375 
L 18.40625 75.984375 
L 18.40625 0 
L 9.421875 0 
z
" id="DejaVuSans-6c"/>
     <path d="M 30.609375 48.390625 
Q 23.390625 48.390625 19.1875 42.75 
Q 14.984375 37.109375 14.984375 27.296875 
Q 14.984375 17.484375 19.15625 11.84375 
Q 23.34375 6.203125 30.609375 6.203125 
Q 37.796875 6.203125 41.984375 11.859375 
Q 46.1875 17.53125 46.1875 27.296875 
Q 46.1875 37.015625 41.984375 42.703125 
Q 37.796875 48.390625 30.609375 48.390625 
z
M 30.609375 56 
Q 42.328125 56 49.015625 48.375 
Q 55.71875 40.765625 55.71875 27.296875 
Q 55.71875 13.875 49.015625 6.21875 
Q 42.328125 -1.421875 30.609375 -1.421875 
Q 18.84375 -1.421875 12.171875 6.21875 
Q 5.515625 13.875 5.515625 27.296875 
Q 5.515625 40.765625 12.171875 48.375 
Q 18.84375 56 30.609375 56 
z
" id="DejaVuSans-6f"/>
     <path d="M 18.3125 70.21875 
L 18.3125 54.6875 
L 36.8125 54.6875 
L 36.8125 47.703125 
L 18.3125 47.703125 
L 18.3125 18.015625 
Q 18.3125 11.328125 20.140625 9.421875 
Q 21.96875 7.515625 27.59375 7.515625 
L 36.8125 7.515625 
L 36.8125 0 
L 27.59375 0 
Q 17.1875 0 13.234375 3.875 
Q 9.28125 7.765625 9.28125 18.015625 
L 9.28125 47.703125 
L 2.6875 47.703125 
L 2.6875 54.6875 
L 9.28125 54.6875 
L 9.28125 70.21875 
z
" id="DejaVuSans-74"/>
     <path id="DejaVuSans-20"/>
     <path d="M 37.109375 75.984375 
L 37.109375 68.5 
L 28.515625 68.5 
Q 23.6875 68.5 21.796875 66.546875 
Q 19.921875 64.59375 19.921875 59.515625 
L 19.921875 54.6875 
L 34.71875 54.6875 
L 34.71875 47.703125 
L 19.921875 47.703125 
L 19.921875 0 
L 10.890625 0 
L 10.890625 47.703125 
L 2.296875 47.703125 
L 2.296875 54.6875 
L 10.890625 54.6875 
L 10.890625 58.5 
Q 10.890625 67.625 15.140625 71.796875 
Q 19.390625 75.984375 28.609375 75.984375 
z
" id="DejaVuSans-66"/>
     <path d="M -0.296875 72.90625 
L 61.375 72.90625 
L 61.375 64.59375 
L 35.5 64.59375 
L 35.5 0 
L 25.59375 0 
L 25.59375 64.59375 
L -0.296875 64.59375 
z
" id="DejaVuSans-54"/>
     <path d="M 56.203125 29.59375 
L 56.203125 25.203125 
L 14.890625 25.203125 
Q 15.484375 15.921875 20.484375 11.0625 
Q 25.484375 6.203125 34.421875 6.203125 
Q 39.59375 6.203125 44.453125 7.46875 
Q 49.3125 8.734375 54.109375 11.28125 
L 54.109375 2.78125 
Q 49.265625 0.734375 44.1875 -0.34375 
Q 39.109375 -1.421875 33.890625 -1.421875 
Q 20.796875 -1.421875 13.15625 6.1875 
Q 5.515625 13.8125 5.515625 26.8125 
Q 5.515625 40.234375 12.765625 48.109375 
Q 20.015625 56 32.328125 56 
Q 43.359375 56 49.78125 48.890625 
Q 56.203125 41.796875 56.203125 29.59375 
z
M 47.21875 32.234375 
Q 47.125 39.59375 43.09375 43.984375 
Q 39.0625 48.390625 32.421875 48.390625 
Q 24.90625 48.390625 20.390625 44.140625 
Q 15.875 39.890625 15.1875 32.171875 
z
" id="DejaVuSans-65"/>
     <path d="M 44.28125 53.078125 
L 44.28125 44.578125 
Q 40.484375 46.53125 36.375 47.5 
Q 32.28125 48.484375 27.875 48.484375 
Q 21.1875 48.484375 17.84375 46.4375 
Q 14.5 44.390625 14.5 40.28125 
Q 14.5 37.15625 16.890625 35.375 
Q 19.28125 33.59375 26.515625 31.984375 
L 29.59375 31.296875 
Q 39.15625 29.25 43.1875 25.515625 
Q 47.21875 21.78125 47.21875 15.09375 
Q 47.21875 7.46875 41.1875 3.015625 
Q 35.15625 -1.421875 24.609375 -1.421875 
Q 20.21875 -1.421875 15.453125 -0.5625 
Q 10.6875 0.296875 5.421875 2 
L 5.421875 11.28125 
Q 10.40625 8.6875 15.234375 7.390625 
Q 20.0625 6.109375 24.8125 6.109375 
Q 31.15625 6.109375 34.5625 8.28125 
Q 37.984375 10.453125 37.984375 14.40625 
Q 37.984375 18.0625 35.515625 20.015625 
Q 33.0625 21.96875 24.703125 23.78125 
L 21.578125 24.515625 
Q 13.234375 26.265625 9.515625 29.90625 
Q 5.8125 33.546875 5.8125 39.890625 
Q 5.8125 47.609375 11.28125 51.796875 
Q 16.75 56 26.8125 56 
Q 31.78125 56 36.171875 55.265625 
Q 40.578125 54.546875 44.28125 53.078125 
z
" id="DejaVuSans-73"/>
     <path d="M 19.671875 64.796875 
L 19.671875 8.109375 
L 31.59375 8.109375 
Q 46.6875 8.109375 53.6875 14.9375 
Q 60.6875 21.78125 60.6875 36.53125 
Q 60.6875 51.171875 53.6875 57.984375 
Q 46.6875 64.796875 31.59375 64.796875 
z
M 9.8125 72.90625 
L 30.078125 72.90625 
Q 51.265625 72.90625 61.171875 64.09375 
Q 71.09375 55.28125 71.09375 36.53125 
Q 71.09375 17.671875 61.125 8.828125 
Q 51.171875 0 30.078125 0 
L 9.8125 0 
z
" id="DejaVuSans-44"/>
     <path d="M 34.28125 27.484375 
Q 23.390625 27.484375 19.1875 25 
Q 14.984375 22.515625 14.984375 16.5 
Q 14.984375 11.71875 18.140625 8.90625 
Q 21.296875 6.109375 26.703125 6.109375 
Q 34.1875 6.109375 38.703125 11.40625 
Q 43.21875 16.703125 43.21875 25.484375 
L 43.21875 27.484375 
z
M 52.203125 31.203125 
L 52.203125 0 
L 43.21875 0 
L 43.21875 8.296875 
Q 40.140625 3.328125 35.546875 0.953125 
Q 30.953125 -1.421875 24.3125 -1.421875 
Q 15.921875 -1.421875 10.953125 3.296875 
Q 6 8.015625 6 15.921875 
Q 6 25.140625 12.171875 29.828125 
Q 18.359375 34.515625 30.609375 34.515625 
L 43.21875 34.515625 
L 43.21875 35.40625 
Q 43.21875 41.609375 39.140625 45 
Q 35.0625 48.390625 27.6875 48.390625 
Q 23 48.390625 18.546875 47.265625 
Q 14.109375 46.140625 10.015625 43.890625 
L 10.015625 52.203125 
Q 14.9375 54.109375 19.578125 55.046875 
Q 24.21875 56 28.609375 56 
Q 40.484375 56 46.34375 49.84375 
Q 52.203125 43.703125 52.203125 31.203125 
z
" id="DejaVuSans-61"/>
     <path d="M 2.984375 54.6875 
L 12.5 54.6875 
L 29.59375 8.796875 
L 46.6875 54.6875 
L 56.203125 54.6875 
L 35.6875 0 
L 23.484375 0 
z
" id="DejaVuSans-76"/>
     <path d="M 9.8125 72.90625 
L 24.515625 72.90625 
L 43.109375 23.296875 
L 61.8125 72.90625 
L 76.515625 72.90625 
L 76.515625 0 
L 66.890625 0 
L 66.890625 64.015625 
L 48.09375 14.015625 
L 38.1875 14.015625 
L 19.390625 64.015625 
L 19.390625 0 
L 9.8125 0 
z
" id="DejaVuSans-4d"/>
     <path d="M 64.40625 67.28125 
L 64.40625 56.890625 
Q 59.421875 61.53125 53.78125 63.8125 
Q 48.140625 66.109375 41.796875 66.109375 
Q 29.296875 66.109375 22.65625 58.46875 
Q 16.015625 50.828125 16.015625 36.375 
Q 16.015625 21.96875 22.65625 14.328125 
Q 29.296875 6.6875 41.796875 6.6875 
Q 48.140625 6.6875 53.78125 8.984375 
Q 59.421875 11.28125 64.40625 15.921875 
L 64.40625 5.609375 
Q 59.234375 2.09375 53.4375 0.328125 
Q 47.65625 -1.421875 41.21875 -1.421875 
Q 24.65625 -1.421875 15.125 8.703125 
Q 5.609375 18.84375 5.609375 36.375 
Q 5.609375 53.953125 15.125 64.078125 
Q 24.65625 74.21875 41.21875 74.21875 
Q 47.75 74.21875 53.53125 72.484375 
Q 59.328125 70.75 64.40625 67.28125 
z
" id="DejaVuSans-43"/>
     <path d="M 8.6875 72.90625 
L 18.609375 72.90625 
L 18.609375 28.609375 
Q 18.609375 16.890625 22.84375 11.734375 
Q 27.09375 6.59375 36.625 6.59375 
Q 46.09375 6.59375 50.34375 11.734375 
Q 54.59375 16.890625 54.59375 28.609375 
L 54.59375 72.90625 
L 64.5 72.90625 
L 64.5 27.390625 
Q 64.5 13.140625 57.4375 5.859375 
Q 50.390625 -1.421875 36.625 -1.421875 
Q 22.796875 -1.421875 15.734375 5.859375 
Q 8.6875 13.140625 8.6875 27.390625 
z
" id="DejaVuSans-55"/>
     <path d="M 54.890625 33.015625 
L 54.890625 0 
L 45.90625 0 
L 45.90625 32.71875 
Q 45.90625 40.484375 42.875 44.328125 
Q 39.84375 48.1875 33.796875 48.1875 
Q 26.515625 48.1875 22.3125 43.546875 
Q 18.109375 38.921875 18.109375 30.90625 
L 18.109375 0 
L 9.078125 0 
L 9.078125 54.6875 
L 18.109375 54.6875 
L 18.109375 46.1875 
Q 21.34375 51.125 25.703125 53.5625 
Q 30.078125 56 35.796875 56 
Q 45.21875 56 50.046875 50.171875 
Q 54.890625 44.34375 54.890625 33.015625 
z
" id="DejaVuSans-6e"/>
     <path d="M 48.78125 52.59375 
L 48.78125 44.1875 
Q 44.96875 46.296875 41.140625 47.34375 
Q 37.3125 48.390625 33.40625 48.390625 
Q 24.65625 48.390625 19.8125 42.84375 
Q 14.984375 37.3125 14.984375 27.296875 
Q 14.984375 17.28125 19.8125 11.734375 
Q 24.65625 6.203125 33.40625 6.203125 
Q 37.3125 6.203125 41.140625 7.25 
Q 44.96875 8.296875 48.78125 10.40625 
L 48.78125 2.09375 
Q 45.015625 0.34375 40.984375 -0.53125 
Q 36.96875 -1.421875 32.421875 -1.421875 
Q 20.0625 -1.421875 12.78125 6.34375 
Q 5.515625 14.109375 5.515625 27.296875 
Q 5.515625 40.671875 12.859375 48.328125 
Q 20.21875 56 33.015625 56 
Q 37.15625 56 41.109375 55.140625 
Q 45.0625 54.296875 48.78125 52.59375 
z
" id="DejaVuSans-63"/>
     <path d="M 41.109375 46.296875 
Q 39.59375 47.171875 37.8125 47.578125 
Q 36.03125 48 33.890625 48 
Q 26.265625 48 22.1875 43.046875 
Q 18.109375 38.09375 18.109375 28.8125 
L 18.109375 0 
L 9.078125 0 
L 9.078125 54.6875 
L 18.109375 54.6875 
L 18.109375 46.1875 
Q 20.953125 51.171875 25.484375 53.578125 
Q 30.03125 56 36.53125 56 
Q 37.453125 56 38.578125 55.875 
Q 39.703125 55.765625 41.0625 55.515625 
z
" id="DejaVuSans-72"/>
     <path d="M 9.421875 54.6875 
L 18.40625 54.6875 
L 18.40625 0 
L 9.421875 0 
z
M 9.421875 75.984375 
L 18.40625 75.984375 
L 18.40625 64.59375 
L 9.421875 64.59375 
z
" id="DejaVuSans-69"/>
     <path d="M 32.171875 -5.078125 
Q 28.375 -14.84375 24.75 -17.8125 
Q 21.140625 -20.796875 15.09375 -20.796875 
L 7.90625 -20.796875 
L 7.90625 -13.28125 
L 13.1875 -13.28125 
Q 16.890625 -13.28125 18.9375 -11.515625 
Q 21 -9.765625 23.484375 -3.21875 
L 25.09375 0.875 
L 2.984375 54.6875 
L 12.5 54.6875 
L 29.59375 11.921875 
L 46.6875 54.6875 
L 56.203125 54.6875 
z
" id="DejaVuSans-79"/>
    </defs>
    <g transform="translate(118.112813 35.472)scale(0.12 -0.12)">
     <use xlink:href="#DejaVuSans-50"/>
     <use x="60.302734" xlink:href="#DejaVuSans-6c"/>
     <use x="88.085938" xlink:href="#DejaVuSans-6f"/>
     <use x="149.267578" xlink:href="#DejaVuSans-74"/>
     <use x="188.476562" xlink:href="#DejaVuSans-20"/>
     <use x="220.263672" xlink:href="#DejaVuSans-6f"/>
     <use x="281.445312" xlink:href="#DejaVuSans-66"/>
     <use x="316.650391" xlink:href="#DejaVuSans-20"/>
     <use x="348.4375" xlink:href="#DejaVuSans-54"/>
     <use x="409.255859" xlink:href="#DejaVuSans-65"/>
     <use x="470.779297" xlink:href="#DejaVuSans-73"/>
     <use x="522.878906" xlink:href="#DejaVuSans-74"/>
     <use x="562.087891" xlink:href="#DejaVuSans-20"/>
     <use x="593.875" xlink:href="#DejaVuSans-44"/>
     <use x="670.876953" xlink:href="#DejaVuSans-61"/>
     <use x="732.15625" xlink:href="#DejaVuSans-74"/>
     <use x="771.365234" xlink:href="#DejaVuSans-61"/>
     <use x="832.644531" xlink:href="#DejaVuSans-20"/>
     <use x="864.431641" xlink:href="#DejaVuSans-76"/>
     <use x="923.611328" xlink:href="#DejaVuSans-73"/>
     <use x="975.710938" xlink:href="#DejaVuSans-20"/>
     <use x="1007.498047" xlink:href="#DejaVuSans-4d"/>
     <use x="1093.777344" xlink:href="#DejaVuSans-43"/>
     <use x="1163.601562" xlink:href="#DejaVuSans-4d"/>
     <use x="1249.880859" xlink:href="#DejaVuSans-43"/>
     <use x="1319.705078" xlink:href="#DejaVuSans-20"/>
     <use x="1351.492188" xlink:href="#DejaVuSans-55"/>
     <use x="1424.685547" xlink:href="#DejaVuSans-6e"/>
     <use x="1488.064453" xlink:href="#DejaVuSans-63"/>
     <use x="1543.044922" xlink:href="#DejaVuSans-65"/>
     <use x="1604.568359" xlink:href="#DejaVuSans-72"/>
     <use x="1645.681641" xlink:href="#DejaVuSans-74"/>
     <use x="1684.890625" xlink:href="#DejaVuSans-61"/>
     <use x="1746.169922" xlink:href="#DejaVuSans-69"/>
     <use x="1773.953125" xlink:href="#DejaVuSans-6e"/>
     <use x="1837.332031" xlink:href="#DejaVuSans-74"/>
     <use x="1876.541016" xlink:href="#DejaVuSans-79"/>
     <use x="1935.720703" xlink:href="#DejaVuSans-20"/>
    </g>
   </g>
   <g id="legend_1">
    <g id="patch_7">
     <path d="M 277.843437 108.1845 
L 407.72 108.1845 
Q 409.72 108.1845 409.72 106.1845 
L 409.72 48.472 
Q 409.72 46.472 407.72 46.472 
L 277.843437 46.472 
Q 275.843437 46.472 275.843437 48.472 
L 275.843437 106.1845 
Q 275.843437 108.1845 277.843437 108.1845 
z
" style="fill:#ffffff;opacity:0.8;stroke:#cccccc;stroke-linejoin:miter;"/>
    </g>
    <g id="line2d_20">
     <path d="M 279.843437 54.570438 
L 299.843437 54.570438 
" style="fill:none;stroke:#1f77b4;stroke-linecap:square;stroke-width:1.5;"/>
    </g>
    <g id="line2d_21"/>
    <g id="text_17">
     <!-- actual -->
     <defs>
      <path d="M 8.5 21.578125 
L 8.5 54.6875 
L 17.484375 54.6875 
L 17.484375 21.921875 
Q 17.484375 14.15625 20.5 10.265625 
Q 23.53125 6.390625 29.59375 6.390625 
Q 36.859375 6.390625 41.078125 11.03125 
Q 45.3125 15.671875 45.3125 23.6875 
L 45.3125 54.6875 
L 54.296875 54.6875 
L 54.296875 0 
L 45.3125 0 
L 45.3125 8.40625 
Q 42.046875 3.421875 37.71875 1 
Q 33.40625 -1.421875 27.6875 -1.421875 
Q 18.265625 -1.421875 13.375 4.4375 
Q 8.5 10.296875 8.5 21.578125 
z
M 31.109375 56 
z
" id="DejaVuSans-75"/>
     </defs>
     <g transform="translate(307.843437 58.070438)scale(0.1 -0.1)">
      <use xlink:href="#DejaVuSans-61"/>
      <use x="61.279297" xlink:href="#DejaVuSans-63"/>
      <use x="116.259766" xlink:href="#DejaVuSans-74"/>
      <use x="155.46875" xlink:href="#DejaVuSans-75"/>
      <use x="218.847656" xlink:href="#DejaVuSans-61"/>
      <use x="280.126953" xlink:href="#DejaVuSans-6c"/>
     </g>
    </g>
    <g id="line2d_22">
     <path d="M 279.843437 69.248563 
L 299.843437 69.248563 
" style="fill:none;stroke:#ff7f0e;stroke-linecap:square;stroke-width:1.5;"/>
    </g>
    <g id="line2d_23"/>
    <g id="text_18">
     <!-- pred. (mean) -->
     <defs>
      <path d="M 18.109375 8.203125 
L 18.109375 -20.796875 
L 9.078125 -20.796875 
L 9.078125 54.6875 
L 18.109375 54.6875 
L 18.109375 46.390625 
Q 20.953125 51.265625 25.265625 53.625 
Q 29.59375 56 35.59375 56 
Q 45.5625 56 51.78125 48.09375 
Q 58.015625 40.1875 58.015625 27.296875 
Q 58.015625 14.40625 51.78125 6.484375 
Q 45.5625 -1.421875 35.59375 -1.421875 
Q 29.59375 -1.421875 25.265625 0.953125 
Q 20.953125 3.328125 18.109375 8.203125 
z
M 48.6875 27.296875 
Q 48.6875 37.203125 44.609375 42.84375 
Q 40.53125 48.484375 33.40625 48.484375 
Q 26.265625 48.484375 22.1875 42.84375 
Q 18.109375 37.203125 18.109375 27.296875 
Q 18.109375 17.390625 22.1875 11.75 
Q 26.265625 6.109375 33.40625 6.109375 
Q 40.53125 6.109375 44.609375 11.75 
Q 48.6875 17.390625 48.6875 27.296875 
z
" id="DejaVuSans-70"/>
      <path d="M 45.40625 46.390625 
L 45.40625 75.984375 
L 54.390625 75.984375 
L 54.390625 0 
L 45.40625 0 
L 45.40625 8.203125 
Q 42.578125 3.328125 38.25 0.953125 
Q 33.9375 -1.421875 27.875 -1.421875 
Q 17.96875 -1.421875 11.734375 6.484375 
Q 5.515625 14.40625 5.515625 27.296875 
Q 5.515625 40.1875 11.734375 48.09375 
Q 17.96875 56 27.875 56 
Q 33.9375 56 38.25 53.625 
Q 42.578125 51.265625 45.40625 46.390625 
z
M 14.796875 27.296875 
Q 14.796875 17.390625 18.875 11.75 
Q 22.953125 6.109375 30.078125 6.109375 
Q 37.203125 6.109375 41.296875 11.75 
Q 45.40625 17.390625 45.40625 27.296875 
Q 45.40625 37.203125 41.296875 42.84375 
Q 37.203125 48.484375 30.078125 48.484375 
Q 22.953125 48.484375 18.875 42.84375 
Q 14.796875 37.203125 14.796875 27.296875 
z
" id="DejaVuSans-64"/>
      <path d="M 31 75.875 
Q 24.46875 64.65625 21.28125 53.65625 
Q 18.109375 42.671875 18.109375 31.390625 
Q 18.109375 20.125 21.3125 9.0625 
Q 24.515625 -2 31 -13.1875 
L 23.1875 -13.1875 
Q 15.875 -1.703125 12.234375 9.375 
Q 8.59375 20.453125 8.59375 31.390625 
Q 8.59375 42.28125 12.203125 53.3125 
Q 15.828125 64.359375 23.1875 75.875 
z
" id="DejaVuSans-28"/>
      <path d="M 52 44.1875 
Q 55.375 50.25 60.0625 53.125 
Q 64.75 56 71.09375 56 
Q 79.640625 56 84.28125 50.015625 
Q 88.921875 44.046875 88.921875 33.015625 
L 88.921875 0 
L 79.890625 0 
L 79.890625 32.71875 
Q 79.890625 40.578125 77.09375 44.375 
Q 74.3125 48.1875 68.609375 48.1875 
Q 61.625 48.1875 57.5625 43.546875 
Q 53.515625 38.921875 53.515625 30.90625 
L 53.515625 0 
L 44.484375 0 
L 44.484375 32.71875 
Q 44.484375 40.625 41.703125 44.40625 
Q 38.921875 48.1875 33.109375 48.1875 
Q 26.21875 48.1875 22.15625 43.53125 
Q 18.109375 38.875 18.109375 30.90625 
L 18.109375 0 
L 9.078125 0 
L 9.078125 54.6875 
L 18.109375 54.6875 
L 18.109375 46.1875 
Q 21.1875 51.21875 25.484375 53.609375 
Q 29.78125 56 35.6875 56 
Q 41.65625 56 45.828125 52.96875 
Q 50 49.953125 52 44.1875 
z
" id="DejaVuSans-6d"/>
      <path d="M 8.015625 75.875 
L 15.828125 75.875 
Q 23.140625 64.359375 26.78125 53.3125 
Q 30.421875 42.28125 30.421875 31.390625 
Q 30.421875 20.453125 26.78125 9.375 
Q 23.140625 -1.703125 15.828125 -13.1875 
L 8.015625 -13.1875 
Q 14.5 -2 17.703125 9.0625 
Q 20.90625 20.125 20.90625 31.390625 
Q 20.90625 42.671875 17.703125 53.65625 
Q 14.5 64.65625 8.015625 75.875 
z
" id="DejaVuSans-29"/>
     </defs>
     <g transform="translate(307.843437 72.748563)scale(0.1 -0.1)">
      <use xlink:href="#DejaVuSans-70"/>
      <use x="63.476562" xlink:href="#DejaVuSans-72"/>
      <use x="104.558594" xlink:href="#DejaVuSans-65"/>
      <use x="166.082031" xlink:href="#DejaVuSans-64"/>
      <use x="229.558594" xlink:href="#DejaVuSans-2e"/>
      <use x="261.345703" xlink:href="#DejaVuSans-20"/>
      <use x="293.132812" xlink:href="#DejaVuSans-28"/>
      <use x="332.146484" xlink:href="#DejaVuSans-6d"/>
      <use x="429.558594" xlink:href="#DejaVuSans-65"/>
      <use x="491.082031" xlink:href="#DejaVuSans-61"/>
      <use x="552.361328" xlink:href="#DejaVuSans-6e"/>
      <use x="615.740234" xlink:href="#DejaVuSans-29"/>
     </g>
    </g>
    <g id="line2d_24">
     <path d="M 279.843437 83.926688 
L 299.843437 83.926688 
" style="fill:none;stroke:#2ca02c;stroke-linecap:square;stroke-width:1.5;"/>
    </g>
    <g id="line2d_25"/>
    <g id="text_19">
     <!-- pred.(5th percen.) -->
     <defs>
      <path d="M 54.890625 33.015625 
L 54.890625 0 
L 45.90625 0 
L 45.90625 32.71875 
Q 45.90625 40.484375 42.875 44.328125 
Q 39.84375 48.1875 33.796875 48.1875 
Q 26.515625 48.1875 22.3125 43.546875 
Q 18.109375 38.921875 18.109375 30.90625 
L 18.109375 0 
L 9.078125 0 
L 9.078125 75.984375 
L 18.109375 75.984375 
L 18.109375 46.1875 
Q 21.34375 51.125 25.703125 53.5625 
Q 30.078125 56 35.796875 56 
Q 45.21875 56 50.046875 50.171875 
Q 54.890625 44.34375 54.890625 33.015625 
z
" id="DejaVuSans-68"/>
     </defs>
     <g transform="translate(307.843437 87.426688)scale(0.1 -0.1)">
      <use xlink:href="#DejaVuSans-70"/>
      <use x="63.476562" xlink:href="#DejaVuSans-72"/>
      <use x="104.558594" xlink:href="#DejaVuSans-65"/>
      <use x="166.082031" xlink:href="#DejaVuSans-64"/>
      <use x="229.558594" xlink:href="#DejaVuSans-2e"/>
      <use x="261.345703" xlink:href="#DejaVuSans-28"/>
      <use x="300.359375" xlink:href="#DejaVuSans-35"/>
      <use x="363.982422" xlink:href="#DejaVuSans-74"/>
      <use x="403.191406" xlink:href="#DejaVuSans-68"/>
      <use x="466.570312" xlink:href="#DejaVuSans-20"/>
      <use x="498.357422" xlink:href="#DejaVuSans-70"/>
      <use x="561.833984" xlink:href="#DejaVuSans-65"/>
      <use x="623.357422" xlink:href="#DejaVuSans-72"/>
      <use x="664.439453" xlink:href="#DejaVuSans-63"/>
      <use x="719.419922" xlink:href="#DejaVuSans-65"/>
      <use x="780.943359" xlink:href="#DejaVuSans-6e"/>
      <use x="844.322266" xlink:href="#DejaVuSans-2e"/>
      <use x="876.109375" xlink:href="#DejaVuSans-29"/>
     </g>
    </g>
    <g id="line2d_26">
     <path d="M 279.843437 98.604813 
L 299.843437 98.604813 
" style="fill:none;stroke:#d62728;stroke-linecap:square;stroke-width:1.5;"/>
    </g>
    <g id="line2d_27"/>
    <g id="text_20">
     <!-- pred.(95th percen.) -->
     <defs>
      <path d="M 10.984375 1.515625 
L 10.984375 10.5 
Q 14.703125 8.734375 18.5 7.8125 
Q 22.3125 6.890625 25.984375 6.890625 
Q 35.75 6.890625 40.890625 13.453125 
Q 46.046875 20.015625 46.78125 33.40625 
Q 43.953125 29.203125 39.59375 26.953125 
Q 35.25 24.703125 29.984375 24.703125 
Q 19.046875 24.703125 12.671875 31.3125 
Q 6.296875 37.9375 6.296875 49.421875 
Q 6.296875 60.640625 12.9375 67.421875 
Q 19.578125 74.21875 30.609375 74.21875 
Q 43.265625 74.21875 49.921875 64.515625 
Q 56.59375 54.828125 56.59375 36.375 
Q 56.59375 19.140625 48.40625 8.859375 
Q 40.234375 -1.421875 26.421875 -1.421875 
Q 22.703125 -1.421875 18.890625 -0.6875 
Q 15.09375 0.046875 10.984375 1.515625 
z
M 30.609375 32.421875 
Q 37.25 32.421875 41.125 36.953125 
Q 45.015625 41.5 45.015625 49.421875 
Q 45.015625 57.28125 41.125 61.84375 
Q 37.25 66.40625 30.609375 66.40625 
Q 23.96875 66.40625 20.09375 61.84375 
Q 16.21875 57.28125 16.21875 49.421875 
Q 16.21875 41.5 20.09375 36.953125 
Q 23.96875 32.421875 30.609375 32.421875 
z
" id="DejaVuSans-39"/>
     </defs>
     <g transform="translate(307.843437 102.104813)scale(0.1 -0.1)">
      <use xlink:href="#DejaVuSans-70"/>
      <use x="63.476562" xlink:href="#DejaVuSans-72"/>
      <use x="104.558594" xlink:href="#DejaVuSans-65"/>
      <use x="166.082031" xlink:href="#DejaVuSans-64"/>
      <use x="229.558594" xlink:href="#DejaVuSans-2e"/>
      <use x="261.345703" xlink:href="#DejaVuSans-28"/>
      <use x="300.359375" xlink:href="#DejaVuSans-39"/>
      <use x="363.982422" xlink:href="#DejaVuSans-35"/>
      <use x="427.605469" xlink:href="#DejaVuSans-74"/>
      <use x="466.814453" xlink:href="#DejaVuSans-68"/>
      <use x="530.193359" xlink:href="#DejaVuSans-20"/>
      <use x="561.980469" xlink:href="#DejaVuSans-70"/>
      <use x="625.457031" xlink:href="#DejaVuSans-65"/>
      <use x="686.980469" xlink:href="#DejaVuSans-72"/>
      <use x="728.0625" xlink:href="#DejaVuSans-63"/>
      <use x="783.042969" xlink:href="#DejaVuSans-65"/>
      <use x="844.566406" xlink:href="#DejaVuSans-6e"/>
      <use x="907.945312" xlink:href="#DejaVuSans-2e"/>
      <use x="939.732422" xlink:href="#DejaVuSans-29"/>
     </g>
    </g>
   </g>
  </g>
 </g>
 <defs>
  <clipPath id="pcc6ae09e8a">
   <rect height="266.112" width="357.12" x="57.6" y="41.472"/>
  </clipPath>
 </defs>
</svg>
