<?xml version="1.0" encoding="utf-8" standalone="no"?>
<!DOCTYPE svg PUBLIC "-//W3C//DTD SVG 1.1//EN"
  "http://www.w3.org/Graphics/SVG/1.1/DTD/svg11.dtd">
<!-- Created with matplotlib (http://matplotlib.org/) -->
<svg height="864pt" version="1.1" viewBox="0 0 720 864" width="720pt" xmlns="http://www.w3.org/2000/svg" xmlns:xlink="http://www.w3.org/1999/xlink">
 <defs>
  <style type="text/css">
*{stroke-linecap:butt;stroke-linejoin:round;}
  </style>
 </defs>
 <g id="figure_1">
  <g id="patch_1">
   <path d="M 0 864 
L 720 864 
L 720 0 
L 0 0 
z
" style="fill:#ffffff;"/>
  </g>
  <g id="axes_1">
   <g id="patch_2">
    <path d="M 78.93 804.96 
L 698.76 804.96 
L 698.76 103.68 
L 78.93 103.68 
z
" style="fill:#ffffff;"/>
   </g>
   <g id="PolyCollection_1">
    <path clip-path="url(#p6bca143436)" d="M 107.104091 143.238729 
L 107.104091 358.344972 
L 109.964405 350.662606 
L 112.824719 350.662606 
L 115.685032 350.662606 
L 118.545346 358.344972 
L 121.40566 358.344972 
L 124.265974 366.027338 
L 127.126287 366.027338 
L 129.986601 373.709704 
L 132.846915 366.027338 
L 135.707229 366.027338 
L 138.567543 373.709704 
L 141.427856 373.709704 
L 144.28817 373.709704 
L 147.148484 381.39207 
L 150.008798 381.39207 
L 152.869112 389.074435 
L 155.729425 389.074435 
L 158.589739 396.756801 
L 161.450053 396.756801 
L 164.310367 396.756801 
L 167.170681 404.439167 
L 170.030994 396.756801 
L 172.891308 404.439167 
L 175.751622 396.756801 
L 178.611936 404.439167 
L 181.47225 404.439167 
L 184.332563 404.439167 
L 187.192877 404.439167 
L 190.053191 404.439167 
L 192.913505 404.439167 
L 195.773819 404.439167 
L 198.634132 404.439167 
L 201.494446 404.439167 
L 204.35476 404.439167 
L 207.215074 404.439167 
L 210.075388 404.439167 
L 212.935701 404.439167 
L 215.796015 404.439167 
L 218.656329 404.439167 
L 221.516643 404.439167 
L 224.376957 404.439167 
L 227.23727 404.439167 
L 230.097584 404.439167 
L 232.957898 396.756801 
L 235.818212 396.756801 
L 238.678526 389.074435 
L 241.538839 389.074435 
L 244.399153 381.39207 
L 247.259467 373.709704 
L 250.119781 366.027338 
L 252.980095 366.027338 
L 255.840408 358.344972 
L 258.700722 358.344972 
L 261.561036 350.662606 
L 264.42135 350.662606 
L 267.281664 350.662606 
L 270.141977 350.662606 
L 273.002291 342.980241 
L 275.862605 342.980241 
L 278.722919 342.980241 
L 281.583233 342.980241 
L 284.443546 342.980241 
L 287.30386 342.980241 
L 290.164174 342.980241 
L 293.024488 342.980241 
L 295.884802 350.662606 
L 298.745115 350.662606 
L 301.605429 358.344972 
L 304.465743 358.344972 
L 307.326057 358.344972 
L 310.186371 366.027338 
L 313.046684 366.027338 
L 315.906998 366.027338 
L 318.767312 366.027338 
L 321.627626 373.709704 
L 324.48794 373.709704 
L 327.348253 381.39207 
L 330.208567 381.39207 
L 333.068881 381.39207 
L 335.929195 381.39207 
L 338.789509 389.074435 
L 341.649822 389.074435 
L 344.510136 389.074435 
L 347.37045 389.074435 
L 350.230764 389.074435 
L 353.091078 389.074435 
L 355.951391 389.074435 
L 358.811705 389.074435 
L 361.672019 389.074435 
L 364.532333 389.074435 
L 367.392647 396.756801 
L 370.25296 396.756801 
L 373.113274 396.756801 
L 375.973588 396.756801 
L 378.833902 404.439167 
L 381.694216 404.439167 
L 384.554529 404.439167 
L 387.414843 404.439167 
L 390.275157 404.439167 
L 393.135471 404.439167 
L 395.995784 404.439167 
L 398.856098 404.439167 
L 401.716412 404.439167 
L 404.576726 404.439167 
L 407.43704 404.439167 
L 410.297353 404.439167 
L 413.157667 404.439167 
L 416.017981 404.439167 
L 418.878295 404.439167 
L 421.738609 404.439167 
L 424.598922 404.439167 
L 427.459236 404.439167 
L 430.31955 404.439167 
L 433.179864 404.439167 
L 436.040178 404.439167 
L 438.900491 404.439167 
L 441.760805 404.439167 
L 444.621119 396.756801 
L 447.481433 396.756801 
L 450.341747 389.074435 
L 453.20206 389.074435 
L 456.062374 389.074435 
L 458.922688 381.39207 
L 461.783002 381.39207 
L 464.643316 381.39207 
L 467.503629 381.39207 
L 470.363943 373.709704 
L 473.224257 373.709704 
L 476.084571 373.709704 
L 478.944885 366.027338 
L 481.805198 366.027338 
L 484.665512 366.027338 
L 487.525826 366.027338 
L 490.38614 366.027338 
L 493.246454 358.344972 
L 496.106767 366.027338 
L 498.967081 366.027338 
L 501.827395 366.027338 
L 504.687709 358.344972 
L 507.548023 366.027338 
L 510.408336 366.027338 
L 513.26865 366.027338 
L 516.128964 366.027338 
L 518.989278 366.027338 
L 521.849592 373.709704 
L 524.709905 373.709704 
L 527.570219 373.709704 
L 530.430533 373.709704 
L 533.290847 373.709704 
L 536.151161 373.709704 
L 539.011474 373.709704 
L 541.871788 373.709704 
L 544.732102 373.709704 
L 547.592416 381.39207 
L 550.45273 381.39207 
L 553.313043 381.39207 
L 556.173357 381.39207 
L 559.033671 389.074435 
L 561.893985 389.074435 
L 564.754299 389.074435 
L 567.614612 396.756801 
L 570.474926 396.756801 
L 573.33524 396.756801 
L 576.195554 396.756801 
L 579.055868 404.439167 
L 581.916181 404.439167 
L 584.776495 404.439167 
L 587.636809 404.439167 
L 590.497123 404.439167 
L 593.357437 404.439167 
L 596.21775 404.439167 
L 599.078064 404.439167 
L 601.938378 404.439167 
L 604.798692 404.439167 
L 607.659006 404.439167 
L 610.519319 404.439167 
L 613.379633 404.439167 
L 616.239947 404.439167 
L 619.100261 404.439167 
L 621.960575 404.439167 
L 624.820888 404.439167 
L 627.681202 404.439167 
L 630.541516 404.439167 
L 633.40183 404.439167 
L 636.262144 404.439167 
L 639.122457 404.439167 
L 641.982771 396.756801 
L 644.843085 396.756801 
L 647.703399 389.074435 
L 650.563713 381.39207 
L 653.424026 373.709704 
L 656.28434 373.709704 
L 659.144654 373.709704 
L 662.004968 366.027338 
L 664.865281 366.027338 
L 667.725595 373.709704 
L 670.585909 366.027338 
L 670.585909 143.238729 
L 670.585909 143.238729 
L 667.725595 143.238729 
L 664.865281 143.238729 
L 662.004968 143.238729 
L 659.144654 143.238729 
L 656.28434 143.238729 
L 653.424026 143.238729 
L 650.563713 143.238729 
L 647.703399 143.238729 
L 644.843085 143.238729 
L 641.982771 142.854611 
L 639.122457 135.556364 
L 636.262144 135.556364 
L 633.40183 135.556364 
L 630.541516 135.556364 
L 627.681202 135.556364 
L 624.820888 135.556364 
L 621.960575 135.556364 
L 619.100261 135.556364 
L 616.239947 135.556364 
L 613.379633 135.556364 
L 610.519319 135.556364 
L 607.659006 135.556364 
L 604.798692 135.556364 
L 601.938378 135.556364 
L 599.078064 135.556364 
L 596.21775 135.556364 
L 593.357437 135.556364 
L 590.497123 135.556364 
L 587.636809 135.556364 
L 584.776495 143.238729 
L 581.916181 135.556364 
L 579.055868 142.854611 
L 576.195554 142.854611 
L 573.33524 142.854611 
L 570.474926 143.238729 
L 567.614612 143.238729 
L 564.754299 143.238729 
L 561.893985 143.238729 
L 559.033671 143.238729 
L 556.173357 143.238729 
L 553.313043 143.238729 
L 550.45273 143.238729 
L 547.592416 143.238729 
L 544.732102 143.238729 
L 541.871788 143.238729 
L 539.011474 143.238729 
L 536.151161 143.238729 
L 533.290847 143.238729 
L 530.430533 143.238729 
L 527.570219 143.238729 
L 524.709905 143.238729 
L 521.849592 143.238729 
L 518.989278 143.238729 
L 516.128964 143.238729 
L 513.26865 143.238729 
L 510.408336 143.238729 
L 507.548023 143.238729 
L 504.687709 143.238729 
L 501.827395 143.238729 
L 498.967081 143.238729 
L 496.106767 143.238729 
L 493.246454 143.238729 
L 490.38614 143.238729 
L 487.525826 150.536977 
L 484.665512 143.238729 
L 481.805198 143.238729 
L 478.944885 143.238729 
L 476.084571 143.238729 
L 473.224257 143.238729 
L 470.363943 143.238729 
L 467.503629 143.238729 
L 464.643316 143.238729 
L 461.783002 143.238729 
L 458.922688 143.238729 
L 456.062374 143.238729 
L 453.20206 143.238729 
L 450.341747 143.238729 
L 447.481433 143.238729 
L 444.621119 142.854611 
L 441.760805 142.854611 
L 438.900491 135.556364 
L 436.040178 135.556364 
L 433.179864 135.556364 
L 430.31955 135.556364 
L 427.459236 135.556364 
L 424.598922 135.556364 
L 421.738609 135.556364 
L 418.878295 135.556364 
L 416.017981 135.556364 
L 413.157667 135.556364 
L 410.297353 135.556364 
L 407.43704 135.556364 
L 404.576726 142.854611 
L 401.716412 135.556364 
L 398.856098 135.556364 
L 395.995784 142.854611 
L 393.135471 142.854611 
L 390.275157 142.854611 
L 387.414843 142.854611 
L 384.554529 135.556364 
L 381.694216 142.854611 
L 378.833902 142.854611 
L 375.973588 142.854611 
L 373.113274 143.238729 
L 370.25296 143.238729 
L 367.392647 143.238729 
L 364.532333 143.238729 
L 361.672019 143.238729 
L 358.811705 143.238729 
L 355.951391 143.238729 
L 353.091078 143.238729 
L 350.230764 143.238729 
L 347.37045 143.238729 
L 344.510136 143.238729 
L 341.649822 143.238729 
L 338.789509 143.238729 
L 335.929195 143.238729 
L 333.068881 143.238729 
L 330.208567 143.238729 
L 327.348253 143.238729 
L 324.48794 143.238729 
L 321.627626 143.238729 
L 318.767312 143.238729 
L 315.906998 143.238729 
L 313.046684 143.238729 
L 310.186371 150.921095 
L 307.326057 143.238729 
L 304.465743 150.921095 
L 301.605429 150.921095 
L 298.745115 150.921095 
L 295.884802 150.921095 
L 293.024488 150.921095 
L 290.164174 150.921095 
L 287.30386 150.921095 
L 284.443546 150.921095 
L 281.583233 150.921095 
L 278.722919 150.921095 
L 275.862605 150.921095 
L 273.002291 150.921095 
L 270.141977 150.921095 
L 267.281664 150.921095 
L 264.42135 150.921095 
L 261.561036 150.921095 
L 258.700722 150.921095 
L 255.840408 143.238729 
L 252.980095 143.238729 
L 250.119781 143.238729 
L 247.259467 143.238729 
L 244.399153 143.238729 
L 241.538839 143.238729 
L 238.678526 143.238729 
L 235.818212 143.238729 
L 232.957898 142.854611 
L 230.097584 135.556364 
L 227.23727 135.556364 
L 224.376957 135.556364 
L 221.516643 135.556364 
L 218.656329 135.556364 
L 215.796015 135.556364 
L 212.935701 135.556364 
L 210.075388 135.556364 
L 207.215074 135.556364 
L 204.35476 135.556364 
L 201.494446 135.556364 
L 198.634132 135.556364 
L 195.773819 135.556364 
L 192.913505 142.854611 
L 190.053191 135.556364 
L 187.192877 135.556364 
L 184.332563 135.556364 
L 181.47225 142.854611 
L 178.611936 142.854611 
L 175.751622 142.854611 
L 172.891308 142.854611 
L 170.030994 142.854611 
L 167.170681 142.854611 
L 164.310367 142.854611 
L 161.450053 142.854611 
L 158.589739 143.238729 
L 155.729425 143.238729 
L 152.869112 143.238729 
L 150.008798 143.238729 
L 147.148484 143.238729 
L 144.28817 143.238729 
L 141.427856 143.238729 
L 138.567543 143.238729 
L 135.707229 143.238729 
L 132.846915 143.238729 
L 129.986601 143.238729 
L 127.126287 143.238729 
L 124.265974 143.238729 
L 121.40566 150.921095 
L 118.545346 150.921095 
L 115.685032 150.921095 
L 112.824719 150.921095 
L 109.964405 150.921095 
L 107.104091 143.238729 
z
" style="fill:#008000;fill-opacity:0.4;"/>
   </g>
   <g id="matplotlib.axis_1">
    <g id="xtick_1">
     <g id="line2d_1">
      <defs>
       <path d="M 0 0 
L 0 3.5 
" id="m150ad7a2b4" style="stroke:#000000;stroke-width:0.8;"/>
      </defs>
      <g>
       <use style="stroke:#000000;stroke-width:0.8;" x="107.104091" xlink:href="#m150ad7a2b4" y="804.96"/>
      </g>
     </g>
     <g id="text_1">
      <!-- 0.0 -->
      <defs>
       <path d="M 31.78125 66.40625 
Q 24.171875 66.40625 20.328125 58.90625 
Q 16.5 51.421875 16.5 36.375 
Q 16.5 21.390625 20.328125 13.890625 
Q 24.171875 6.390625 31.78125 6.390625 
Q 39.453125 6.390625 43.28125 13.890625 
Q 47.125 21.390625 47.125 36.375 
Q 47.125 51.421875 43.28125 58.90625 
Q 39.453125 66.40625 31.78125 66.40625 
z
M 31.78125 74.21875 
Q 44.046875 74.21875 50.515625 64.515625 
Q 56.984375 54.828125 56.984375 36.375 
Q 56.984375 17.96875 50.515625 8.265625 
Q 44.046875 -1.421875 31.78125 -1.421875 
Q 19.53125 -1.421875 13.0625 8.265625 
Q 6.59375 17.96875 6.59375 36.375 
Q 6.59375 54.828125 13.0625 64.515625 
Q 19.53125 74.21875 31.78125 74.21875 
z
" id="DejaVuSans-30"/>
       <path d="M 10.6875 12.40625 
L 21 12.40625 
L 21 0 
L 10.6875 0 
z
" id="DejaVuSans-2e"/>
      </defs>
      <g transform="translate(99.152528 819.558437)scale(0.1 -0.1)">
       <use xlink:href="#DejaVuSans-30"/>
       <use x="63.623047" xlink:href="#DejaVuSans-2e"/>
       <use x="95.410156" xlink:href="#DejaVuSans-30"/>
      </g>
     </g>
    </g>
    <g id="xtick_2">
     <g id="line2d_2">
      <g>
       <use style="stroke:#000000;stroke-width:0.8;" x="219.800455" xlink:href="#m150ad7a2b4" y="804.96"/>
      </g>
     </g>
     <g id="text_2">
      <!-- 0.2 -->
      <defs>
       <path d="M 19.1875 8.296875 
L 53.609375 8.296875 
L 53.609375 0 
L 7.328125 0 
L 7.328125 8.296875 
Q 12.9375 14.109375 22.625 23.890625 
Q 32.328125 33.6875 34.8125 36.53125 
Q 39.546875 41.84375 41.421875 45.53125 
Q 43.3125 49.21875 43.3125 52.78125 
Q 43.3125 58.59375 39.234375 62.25 
Q 35.15625 65.921875 28.609375 65.921875 
Q 23.96875 65.921875 18.8125 64.3125 
Q 13.671875 62.703125 7.8125 59.421875 
L 7.8125 69.390625 
Q 13.765625 71.78125 18.9375 73 
Q 24.125 74.21875 28.421875 74.21875 
Q 39.75 74.21875 46.484375 68.546875 
Q 53.21875 62.890625 53.21875 53.421875 
Q 53.21875 48.921875 51.53125 44.890625 
Q 49.859375 40.875 45.40625 35.40625 
Q 44.1875 33.984375 37.640625 27.21875 
Q 31.109375 20.453125 19.1875 8.296875 
z
" id="DejaVuSans-32"/>
      </defs>
      <g transform="translate(211.848892 819.558437)scale(0.1 -0.1)">
       <use xlink:href="#DejaVuSans-30"/>
       <use x="63.623047" xlink:href="#DejaVuSans-2e"/>
       <use x="95.410156" xlink:href="#DejaVuSans-32"/>
      </g>
     </g>
    </g>
    <g id="xtick_3">
     <g id="line2d_3">
      <g>
       <use style="stroke:#000000;stroke-width:0.8;" x="332.496818" xlink:href="#m150ad7a2b4" y="804.96"/>
      </g>
     </g>
     <g id="text_3">
      <!-- 0.4 -->
      <defs>
       <path d="M 37.796875 64.3125 
L 12.890625 25.390625 
L 37.796875 25.390625 
z
M 35.203125 72.90625 
L 47.609375 72.90625 
L 47.609375 25.390625 
L 58.015625 25.390625 
L 58.015625 17.1875 
L 47.609375 17.1875 
L 47.609375 0 
L 37.796875 0 
L 37.796875 17.1875 
L 4.890625 17.1875 
L 4.890625 26.703125 
z
" id="DejaVuSans-34"/>
      </defs>
      <g transform="translate(324.545256 819.558437)scale(0.1 -0.1)">
       <use xlink:href="#DejaVuSans-30"/>
       <use x="63.623047" xlink:href="#DejaVuSans-2e"/>
       <use x="95.410156" xlink:href="#DejaVuSans-34"/>
      </g>
     </g>
    </g>
    <g id="xtick_4">
     <g id="line2d_4">
      <g>
       <use style="stroke:#000000;stroke-width:0.8;" x="445.193182" xlink:href="#m150ad7a2b4" y="804.96"/>
      </g>
     </g>
     <g id="text_4">
      <!-- 0.6 -->
      <defs>
       <path d="M 33.015625 40.375 
Q 26.375 40.375 22.484375 35.828125 
Q 18.609375 31.296875 18.609375 23.390625 
Q 18.609375 15.53125 22.484375 10.953125 
Q 26.375 6.390625 33.015625 6.390625 
Q 39.65625 6.390625 43.53125 10.953125 
Q 47.40625 15.53125 47.40625 23.390625 
Q 47.40625 31.296875 43.53125 35.828125 
Q 39.65625 40.375 33.015625 40.375 
z
M 52.59375 71.296875 
L 52.59375 62.3125 
Q 48.875 64.0625 45.09375 64.984375 
Q 41.3125 65.921875 37.59375 65.921875 
Q 27.828125 65.921875 22.671875 59.328125 
Q 17.53125 52.734375 16.796875 39.40625 
Q 19.671875 43.65625 24.015625 45.921875 
Q 28.375 48.1875 33.59375 48.1875 
Q 44.578125 48.1875 50.953125 41.515625 
Q 57.328125 34.859375 57.328125 23.390625 
Q 57.328125 12.15625 50.6875 5.359375 
Q 44.046875 -1.421875 33.015625 -1.421875 
Q 20.359375 -1.421875 13.671875 8.265625 
Q 6.984375 17.96875 6.984375 36.375 
Q 6.984375 53.65625 15.1875 63.9375 
Q 23.390625 74.21875 37.203125 74.21875 
Q 40.921875 74.21875 44.703125 73.484375 
Q 48.484375 72.75 52.59375 71.296875 
z
" id="DejaVuSans-36"/>
      </defs>
      <g transform="translate(437.241619 819.558437)scale(0.1 -0.1)">
       <use xlink:href="#DejaVuSans-30"/>
       <use x="63.623047" xlink:href="#DejaVuSans-2e"/>
       <use x="95.410156" xlink:href="#DejaVuSans-36"/>
      </g>
     </g>
    </g>
    <g id="xtick_5">
     <g id="line2d_5">
      <g>
       <use style="stroke:#000000;stroke-width:0.8;" x="557.889545" xlink:href="#m150ad7a2b4" y="804.96"/>
      </g>
     </g>
     <g id="text_5">
      <!-- 0.8 -->
      <defs>
       <path d="M 31.78125 34.625 
Q 24.75 34.625 20.71875 30.859375 
Q 16.703125 27.09375 16.703125 20.515625 
Q 16.703125 13.921875 20.71875 10.15625 
Q 24.75 6.390625 31.78125 6.390625 
Q 38.8125 6.390625 42.859375 10.171875 
Q 46.921875 13.96875 46.921875 20.515625 
Q 46.921875 27.09375 42.890625 30.859375 
Q 38.875 34.625 31.78125 34.625 
z
M 21.921875 38.8125 
Q 15.578125 40.375 12.03125 44.71875 
Q 8.5 49.078125 8.5 55.328125 
Q 8.5 64.0625 14.71875 69.140625 
Q 20.953125 74.21875 31.78125 74.21875 
Q 42.671875 74.21875 48.875 69.140625 
Q 55.078125 64.0625 55.078125 55.328125 
Q 55.078125 49.078125 51.53125 44.71875 
Q 48 40.375 41.703125 38.8125 
Q 48.828125 37.15625 52.796875 32.3125 
Q 56.78125 27.484375 56.78125 20.515625 
Q 56.78125 9.90625 50.3125 4.234375 
Q 43.84375 -1.421875 31.78125 -1.421875 
Q 19.734375 -1.421875 13.25 4.234375 
Q 6.78125 9.90625 6.78125 20.515625 
Q 6.78125 27.484375 10.78125 32.3125 
Q 14.796875 37.15625 21.921875 38.8125 
z
M 18.3125 54.390625 
Q 18.3125 48.734375 21.84375 45.5625 
Q 25.390625 42.390625 31.78125 42.390625 
Q 38.140625 42.390625 41.71875 45.5625 
Q 45.3125 48.734375 45.3125 54.390625 
Q 45.3125 60.0625 41.71875 63.234375 
Q 38.140625 66.40625 31.78125 66.40625 
Q 25.390625 66.40625 21.84375 63.234375 
Q 18.3125 60.0625 18.3125 54.390625 
z
" id="DejaVuSans-38"/>
      </defs>
      <g transform="translate(549.937983 819.558437)scale(0.1 -0.1)">
       <use xlink:href="#DejaVuSans-30"/>
       <use x="63.623047" xlink:href="#DejaVuSans-2e"/>
       <use x="95.410156" xlink:href="#DejaVuSans-38"/>
      </g>
     </g>
    </g>
    <g id="xtick_6">
     <g id="line2d_6">
      <g>
       <use style="stroke:#000000;stroke-width:0.8;" x="670.585909" xlink:href="#m150ad7a2b4" y="804.96"/>
      </g>
     </g>
     <g id="text_6">
      <!-- 1.0 -->
      <defs>
       <path d="M 12.40625 8.296875 
L 28.515625 8.296875 
L 28.515625 63.921875 
L 10.984375 60.40625 
L 10.984375 69.390625 
L 28.421875 72.90625 
L 38.28125 72.90625 
L 38.28125 8.296875 
L 54.390625 8.296875 
L 54.390625 0 
L 12.40625 0 
z
" id="DejaVuSans-31"/>
      </defs>
      <g transform="translate(662.634347 819.558437)scale(0.1 -0.1)">
       <use xlink:href="#DejaVuSans-31"/>
       <use x="63.623047" xlink:href="#DejaVuSans-2e"/>
       <use x="95.410156" xlink:href="#DejaVuSans-30"/>
      </g>
     </g>
    </g>
   </g>
   <g id="matplotlib.axis_2">
    <g id="ytick_1">
     <g id="line2d_7">
      <defs>
       <path d="M 0 0 
L -3.5 0 
" id="m85df003a2a" style="stroke:#000000;stroke-width:0.8;"/>
      </defs>
      <g>
       <use style="stroke:#000000;stroke-width:0.8;" x="78.93" xlink:href="#m85df003a2a" y="780.875092"/>
      </g>
     </g>
     <g id="text_7">
      <!-- 0.0 -->
      <g transform="translate(56.026875 784.674311)scale(0.1 -0.1)">
       <use xlink:href="#DejaVuSans-30"/>
       <use x="63.623047" xlink:href="#DejaVuSans-2e"/>
       <use x="95.410156" xlink:href="#DejaVuSans-30"/>
      </g>
     </g>
    </g>
    <g id="ytick_2">
     <g id="line2d_8">
      <g>
       <use style="stroke:#000000;stroke-width:0.8;" x="78.93" xlink:href="#m85df003a2a" y="627.227776"/>
      </g>
     </g>
     <g id="text_8">
      <!-- 0.2 -->
      <g transform="translate(56.026875 631.026994)scale(0.1 -0.1)">
       <use xlink:href="#DejaVuSans-30"/>
       <use x="63.623047" xlink:href="#DejaVuSans-2e"/>
       <use x="95.410156" xlink:href="#DejaVuSans-32"/>
      </g>
     </g>
    </g>
    <g id="ytick_3">
     <g id="line2d_9">
      <g>
       <use style="stroke:#000000;stroke-width:0.8;" x="78.93" xlink:href="#m85df003a2a" y="473.580459"/>
      </g>
     </g>
     <g id="text_9">
      <!-- 0.4 -->
      <g transform="translate(56.026875 477.379678)scale(0.1 -0.1)">
       <use xlink:href="#DejaVuSans-30"/>
       <use x="63.623047" xlink:href="#DejaVuSans-2e"/>
       <use x="95.410156" xlink:href="#DejaVuSans-34"/>
      </g>
     </g>
    </g>
    <g id="ytick_4">
     <g id="line2d_10">
      <g>
       <use style="stroke:#000000;stroke-width:0.8;" x="78.93" xlink:href="#m85df003a2a" y="319.933143"/>
      </g>
     </g>
     <g id="text_10">
      <!-- 0.6 -->
      <g transform="translate(56.026875 323.732362)scale(0.1 -0.1)">
       <use xlink:href="#DejaVuSans-30"/>
       <use x="63.623047" xlink:href="#DejaVuSans-2e"/>
       <use x="95.410156" xlink:href="#DejaVuSans-36"/>
      </g>
     </g>
    </g>
    <g id="ytick_5">
     <g id="line2d_11">
      <g>
       <use style="stroke:#000000;stroke-width:0.8;" x="78.93" xlink:href="#m85df003a2a" y="166.285827"/>
      </g>
     </g>
     <g id="text_11">
      <!-- 0.8 -->
      <g transform="translate(56.026875 170.085046)scale(0.1 -0.1)">
       <use xlink:href="#DejaVuSans-30"/>
       <use x="63.623047" xlink:href="#DejaVuSans-2e"/>
       <use x="95.410156" xlink:href="#DejaVuSans-38"/>
      </g>
     </g>
    </g>
   </g>
   <g id="line2d_12">
    <path clip-path="url(#p6bca143436)" d="M 107.104091 401.691185 
L 109.964405 393.380401 
L 112.824719 408.443984 
L 115.685032 410.001968 
L 118.545346 444.803853 
L 121.40566 475.450347 
L 124.265974 499.344041 
L 127.126287 494.149994 
L 129.986601 482.722475 
L 132.846915 495.707978 
L 135.707229 505.577513 
L 138.567543 526.354471 
L 141.427856 535.70391 
L 144.28817 568.428484 
L 147.148484 603.749697 
L 152.869112 646.862366 
L 155.729425 659.847869 
L 158.589739 693.611099 
L 161.450053 708.674374 
L 164.310367 713.349247 
L 167.170681 719.06293 
L 170.030994 714.907538 
L 172.891308 713.349247 
L 175.751622 713.349247 
L 178.611936 721.660108 
L 181.47225 736.204132 
L 184.332563 740.3596 
L 187.192877 742.956701 
L 190.053191 750.748156 
L 192.913505 750.748156 
L 195.773819 753.345334 
L 198.634132 747.11217 
L 201.494446 743.995587 
L 204.35476 748.670461 
L 207.215074 748.151056 
L 210.075388 751.267561 
L 212.935701 751.787043 
L 215.796015 754.903625 
L 218.656329 750.748156 
L 221.516643 744.514992 
L 224.376957 736.204132 
L 227.23727 724.77669 
L 230.097584 695.169082 
L 232.957898 659.328541 
L 235.818212 629.201375 
L 238.678526 601.15229 
L 241.538839 560.117701 
L 244.399153 521.160424 
L 247.259467 487.397194 
L 250.119781 458.82878 
L 252.980095 436.49307 
L 255.840408 412.080048 
L 258.700722 400.133201 
L 261.561036 389.744338 
L 264.42135 380.394899 
L 270.141977 351.826485 
L 273.002291 341.956949 
L 275.862605 332.60751 
L 278.722919 337.801558 
L 281.583233 330.010102 
L 284.443546 333.126838 
L 287.30386 351.826485 
L 290.164174 368.448051 
L 293.024488 388.186354 
L 295.884802 389.22501 
L 298.745115 410.522064 
L 301.605429 442.207214 
L 304.465743 447.401261 
L 307.326057 451.037325 
L 310.186371 465.58158 
L 313.046684 478.567083 
L 315.906998 508.174153 
L 321.627626 538.820646 
L 324.48794 557.520293 
L 327.348253 564.79242 
L 330.208567 583.492067 
L 333.068881 597.516226 
L 335.929195 614.657889 
L 338.789509 624.526656 
L 341.649822 642.706974 
L 344.510136 647.381694 
L 350.230764 644.264958 
L 353.091078 647.901022 
L 355.951391 647.381694 
L 358.811705 637.512159 
L 364.532333 667.119996 
L 367.392647 675.43078 
L 370.25296 680.105499 
L 373.113274 702.44121 
L 375.973588 717.504639 
L 378.833902 721.660108 
L 381.694216 724.257285 
L 384.554529 722.179512 
L 387.414843 726.334981 
L 390.275157 725.815576 
L 393.135471 729.451563 
L 395.995784 738.281828 
L 401.716412 752.825852 
L 404.576726 758.020207 
L 407.43704 764.253371 
L 410.297353 766.331067 
L 413.157667 764.772776 
L 416.017981 762.175599 
L 418.878295 766.331067 
L 421.738609 766.850472 
L 424.598922 760.617308 
L 427.459236 754.903625 
L 430.31955 749.70927 
L 433.179864 739.840119 
L 436.040178 725.815576 
L 438.900491 705.557792 
L 441.760805 693.091771 
L 444.621119 664.003261 
L 447.481433 642.706974 
L 450.341747 627.124064 
L 453.20206 606.866433 
L 456.062374 585.050051 
L 458.922688 567.389828 
L 461.783002 564.79242 
L 464.643316 539.86007 
L 467.503629 519.082344 
L 470.363943 514.407624 
L 473.224257 502.980105 
L 476.084571 486.877866 
L 478.944885 451.556653 
L 481.805198 467.139564 
L 484.665512 471.814283 
L 487.525826 461.42542 
L 490.38614 447.401261 
L 493.246454 462.464844 
L 496.106767 502.980105 
L 498.967081 471.294955 
L 501.827395 456.750701 
L 504.687709 468.697548 
L 507.548023 495.18865 
L 510.408336 471.294955 
L 513.26865 454.673389 
L 516.128964 491.033258 
L 518.989278 519.601672 
L 521.849592 518.043688 
L 524.709905 512.84964 
L 527.570219 511.290888 
L 530.430533 526.873799 
L 533.290847 518.563016 
L 536.151161 505.058185 
L 539.011474 518.043688 
L 541.871788 539.86007 
L 544.732102 569.46714 
L 547.592416 555.962309 
L 550.45273 569.46714 
L 553.313043 596.996898 
L 561.893985 636.992831 
L 564.754299 673.872796 
L 567.614612 699.324474 
L 570.474926 708.154893 
L 573.33524 714.388057 
L 576.195554 722.698994 
L 579.055868 741.917892 
L 581.916181 750.748156 
L 584.776495 754.384143 
L 587.636809 760.097903 
L 590.497123 764.772776 
L 593.357437 765.292181 
L 596.21775 763.214485 
L 599.078064 763.214485 
L 601.938378 760.617308 
L 604.798692 762.69508 
L 607.659006 766.331067 
L 610.519319 767.889358 
L 613.379633 771.525345 
L 616.239947 773.083636 
L 619.100261 773.083636 
L 621.960575 768.408763 
L 624.820888 760.617308 
L 627.681202 754.903625 
L 630.541516 747.11217 
L 633.40183 735.165246 
L 636.262144 713.868652 
L 641.982771 654.653821 
L 644.843085 600.113634 
L 647.703399 561.156357 
L 650.563713 537.262662 
L 653.424026 522.19908 
L 656.28434 500.902793 
L 659.144654 476.489003 
L 662.004968 492.071914 
L 664.865281 501.941449 
L 667.725595 488.43585 
L 670.585909 468.17822 
L 670.585909 468.17822 
" style="fill:none;stroke:#1f77b4;stroke-linecap:square;stroke-width:1.5;"/>
   </g>
   <g id="line2d_13">
    <path clip-path="url(#p6bca143436)" d="M 107.104091 216.893412 
L 109.964405 215.055131 
L 112.824719 215.576435 
L 115.685032 215.782212 
L 118.545346 216.385827 
L 121.40566 217.428434 
L 124.265974 218.93747 
L 127.126287 218.992344 
L 129.986601 220.22701 
L 132.846915 218.827722 
L 135.707229 219.156966 
L 138.567543 220.007514 
L 141.427856 220.281884 
L 144.28817 221.708609 
L 147.148484 221.886949 
L 150.008798 223.505734 
L 152.869112 224.534622 
L 155.729425 225.124518 
L 158.589739 226.057377 
L 161.450053 225.865317 
L 164.310367 227.031391 
L 167.170681 227.607568 
L 170.030994 226.798176 
L 172.891308 227.538976 
L 175.751622 226.67471 
L 178.611936 227.580131 
L 181.47225 227.442946 
L 184.332563 227.621287 
L 187.192877 228.266057 
L 190.053191 228.046561 
L 192.913505 228.320931 
L 198.634132 228.115153 
L 201.494446 228.389523 
L 204.35476 227.881938 
L 212.935701 228.211183 
L 218.656329 228.046561 
L 221.516643 228.403242 
L 224.376957 227.923094 
L 227.23727 228.252338 
L 232.957898 226.647273 
L 235.818212 225.453762 
L 244.399153 222.71006 
L 247.259467 220.350476 
L 250.119781 219.006062 
L 252.980095 218.992344 
L 255.840408 216.577886 
L 258.700722 216.920849 
L 261.561036 214.739606 
L 264.42135 215.233472 
L 267.281664 214.533828 
L 270.141977 214.42408 
L 273.002291 213.271725 
L 275.862605 213.258006 
L 278.722919 212.887607 
L 281.583233 212.39374 
L 284.443546 212.66811 
L 287.30386 212.297711 
L 290.164174 214.684731 
L 293.024488 213.546095 
L 295.884802 214.808198 
L 298.745115 215.452968 
L 301.605429 216.303516 
L 304.465743 217.346123 
L 307.326057 217.291248 
L 310.186371 218.512196 
L 313.046684 218.182952 
L 315.906998 219.033499 
L 318.767312 219.458773 
L 327.348253 222.037853 
L 335.929195 223.2588 
L 338.789509 224.424874 
L 341.649822 224.315126 
L 344.510136 224.520903 
L 347.37045 225.001051 
L 350.230764 224.54834 
L 353.091078 225.467481 
L 355.951391 224.808992 
L 358.811705 224.685526 
L 361.672019 224.397437 
L 364.532333 225.097081 
L 367.392647 226.194562 
L 370.25296 225.892754 
L 373.113274 226.180843 
L 375.973588 226.770739 
L 378.833902 227.621287 
L 387.414843 227.538976 
L 390.275157 227.689879 
L 395.995784 227.717316 
L 398.856098 227.881938 
L 404.576726 228.41696 
L 407.43704 228.389523 
L 410.297353 227.799627 
L 413.157667 227.977968 
L 416.017981 226.935361 
L 418.878295 228.567864 
L 421.738609 226.921643 
L 424.598922 227.881938 
L 427.459236 227.977968 
L 430.31955 226.67471 
L 433.179864 228.362086 
L 436.040178 228.101435 
L 438.900491 227.470383 
L 441.760805 227.49782 
L 444.621119 226.167125 
L 447.481433 226.139688 
L 450.341747 224.205378 
L 453.20206 224.411155 
L 456.062374 223.972163 
L 461.783002 222.380816 
L 464.643316 221.996698 
L 467.503629 222.037853 
L 470.363943 219.884047 
L 473.224257 220.295602 
L 476.084571 219.980076 
L 478.944885 219.006062 
L 484.665512 217.689085 
L 487.525826 219.609677 
L 490.38614 218.073204 
L 493.246454 217.304967 
L 496.106767 218.525914 
L 498.967081 219.595958 
L 501.827395 219.85661 
L 504.687709 216.742508 
L 507.548023 218.745411 
L 513.26865 219.198121 
L 516.128964 217.949737 
L 518.989278 218.457322 
L 521.849592 221.077557 
L 524.709905 220.350476 
L 527.570219 220.446506 
L 530.430533 219.733143 
L 533.290847 220.460224 
L 539.011474 220.062388 
L 541.871788 220.350476 
L 544.732102 220.899217 
L 547.592416 223.025586 
L 550.45273 222.147601 
L 553.313043 222.147601 
L 556.173357 223.011867 
L 559.033671 224.287689 
L 561.893985 224.109348 
L 567.614612 225.590947 
L 570.474926 226.85305 
L 573.33524 227.141139 
L 576.195554 226.688428 
L 579.055868 227.648724 
L 581.916181 227.333198 
L 584.776495 228.650175 
L 587.636809 228.156309 
L 590.497123 228.403242 
L 593.357437 228.526708 
L 596.21775 226.866769 
L 599.078064 228.019124 
L 601.938378 227.799627 
L 613.379633 228.005405 
L 616.239947 227.086265 
L 621.960575 227.154857 
L 624.820888 228.073998 
L 627.681202 226.839332 
L 630.541516 226.660991 
L 633.40183 227.525257 
L 636.262144 228.032842 
L 639.122457 227.538976 
L 641.982771 226.194562 
L 644.843085 225.728132 
L 647.703399 224.068193 
L 650.563713 222.175038 
L 653.424026 220.652284 
L 656.28434 220.446506 
L 659.144654 219.966358 
L 662.004968 218.93747 
L 664.865281 218.704255 
L 667.725595 220.172136 
L 670.585909 219.239277 
L 670.585909 219.239277 
" style="fill:none;stroke:#ff7f0e;stroke-linecap:square;stroke-width:1.5;"/>
   </g>
   <g id="line2d_14">
    <path clip-path="url(#p6bca143436)" d="M 107.104091 358.344972 
L 109.964405 350.662606 
L 115.685032 350.662606 
L 118.545346 358.344972 
L 121.40566 358.344972 
L 124.265974 366.027338 
L 127.126287 366.027338 
L 129.986601 373.709704 
L 132.846915 366.027338 
L 135.707229 366.027338 
L 138.567543 373.709704 
L 144.28817 373.709704 
L 147.148484 381.39207 
L 150.008798 381.39207 
L 152.869112 389.074435 
L 155.729425 389.074435 
L 158.589739 396.756801 
L 164.310367 396.756801 
L 167.170681 404.439167 
L 170.030994 396.756801 
L 172.891308 404.439167 
L 175.751622 396.756801 
L 178.611936 404.439167 
L 230.097584 404.439167 
L 232.957898 396.756801 
L 235.818212 396.756801 
L 238.678526 389.074435 
L 241.538839 389.074435 
L 250.119781 366.027338 
L 252.980095 366.027338 
L 255.840408 358.344972 
L 258.700722 358.344972 
L 261.561036 350.662606 
L 270.141977 350.662606 
L 273.002291 342.980241 
L 293.024488 342.980241 
L 295.884802 350.662606 
L 298.745115 350.662606 
L 301.605429 358.344972 
L 307.326057 358.344972 
L 310.186371 366.027338 
L 318.767312 366.027338 
L 321.627626 373.709704 
L 324.48794 373.709704 
L 327.348253 381.39207 
L 335.929195 381.39207 
L 338.789509 389.074435 
L 364.532333 389.074435 
L 367.392647 396.756801 
L 375.973588 396.756801 
L 378.833902 404.439167 
L 441.760805 404.439167 
L 444.621119 396.756801 
L 447.481433 396.756801 
L 450.341747 389.074435 
L 456.062374 389.074435 
L 458.922688 381.39207 
L 467.503629 381.39207 
L 470.363943 373.709704 
L 476.084571 373.709704 
L 478.944885 366.027338 
L 490.38614 366.027338 
L 493.246454 358.344972 
L 496.106767 366.027338 
L 501.827395 366.027338 
L 504.687709 358.344972 
L 507.548023 366.027338 
L 518.989278 366.027338 
L 521.849592 373.709704 
L 544.732102 373.709704 
L 547.592416 381.39207 
L 556.173357 381.39207 
L 559.033671 389.074435 
L 564.754299 389.074435 
L 567.614612 396.756801 
L 576.195554 396.756801 
L 579.055868 404.439167 
L 639.122457 404.439167 
L 641.982771 396.756801 
L 644.843085 396.756801 
L 653.424026 373.709704 
L 659.144654 373.709704 
L 662.004968 366.027338 
L 664.865281 366.027338 
L 667.725595 373.709704 
L 670.585909 366.027338 
L 670.585909 366.027338 
" style="fill:none;stroke:#2ca02c;stroke-linecap:square;stroke-width:1.5;"/>
   </g>
   <g id="line2d_15">
    <path clip-path="url(#p6bca143436)" d="M 107.104091 143.238729 
L 109.964405 150.921095 
L 121.40566 150.921095 
L 124.265974 143.238729 
L 158.589739 143.238729 
L 161.450053 142.854611 
L 181.47225 142.854611 
L 184.332563 135.556364 
L 190.053191 135.556364 
L 192.913505 142.854611 
L 195.773819 135.556364 
L 230.097584 135.556364 
L 232.957898 142.854611 
L 235.818212 143.238729 
L 255.840408 143.238729 
L 258.700722 150.921095 
L 304.465743 150.921095 
L 307.326057 143.238729 
L 310.186371 150.921095 
L 313.046684 143.238729 
L 373.113274 143.238729 
L 375.973588 142.854611 
L 381.694216 142.854611 
L 384.554529 135.556364 
L 387.414843 142.854611 
L 395.995784 142.854611 
L 398.856098 135.556364 
L 401.716412 135.556364 
L 404.576726 142.854611 
L 407.43704 135.556364 
L 438.900491 135.556364 
L 441.760805 142.854611 
L 444.621119 142.854611 
L 447.481433 143.238729 
L 484.665512 143.238729 
L 487.525826 150.536977 
L 490.38614 143.238729 
L 570.474926 143.238729 
L 573.33524 142.854611 
L 579.055868 142.854611 
L 581.916181 135.556364 
L 584.776495 143.238729 
L 587.636809 135.556364 
L 639.122457 135.556364 
L 641.982771 142.854611 
L 644.843085 143.238729 
L 670.585909 143.238729 
L 670.585909 143.238729 
" style="fill:none;stroke:#d62728;stroke-linecap:square;stroke-width:1.5;"/>
   </g>
   <g id="patch_3">
    <path d="M 78.93 804.96 
L 78.93 103.68 
" style="fill:none;stroke:#000000;stroke-linecap:square;stroke-linejoin:miter;stroke-width:0.8;"/>
   </g>
   <g id="patch_4">
    <path d="M 698.76 804.96 
L 698.76 103.68 
" style="fill:none;stroke:#000000;stroke-linecap:square;stroke-linejoin:miter;stroke-width:0.8;"/>
   </g>
   <g id="patch_5">
    <path d="M 78.93 804.96 
L 698.76 804.96 
" style="fill:none;stroke:#000000;stroke-linecap:square;stroke-linejoin:miter;stroke-width:0.8;"/>
   </g>
   <g id="patch_6">
    <path d="M 78.93 103.68 
L 698.76 103.68 
" style="fill:none;stroke:#000000;stroke-linecap:square;stroke-linejoin:miter;stroke-width:0.8;"/>
   </g>
   <g id="text_12">
    <!-- Plot of Test Data vs MCMC Uncertainty  -->
    <defs>
     <path d="M 19.671875 64.796875 
L 19.671875 37.40625 
L 32.078125 37.40625 
Q 38.96875 37.40625 42.71875 40.96875 
Q 46.484375 44.53125 46.484375 51.125 
Q 46.484375 57.671875 42.71875 61.234375 
Q 38.96875 64.796875 32.078125 64.796875 
z
M 9.8125 72.90625 
L 32.078125 72.90625 
Q 44.34375 72.90625 50.609375 67.359375 
Q 56.890625 61.8125 56.890625 51.125 
Q 56.890625 40.328125 50.609375 34.8125 
Q 44.34375 29.296875 32.078125 29.296875 
L 19.671875 29.296875 
L 19.671875 0 
L 9.8125 0 
z
" id="DejaVuSans-50"/>
     <path d="M 9.421875 75.984375 
L 18.40625 75.984375 
L 18.40625 0 
L 9.421875 0 
z
" id="DejaVuSans-6c"/>
     <path d="M 30.609375 48.390625 
Q 23.390625 48.390625 19.1875 42.75 
Q 14.984375 37.109375 14.984375 27.296875 
Q 14.984375 17.484375 19.15625 11.84375 
Q 23.34375 6.203125 30.609375 6.203125 
Q 37.796875 6.203125 41.984375 11.859375 
Q 46.1875 17.53125 46.1875 27.296875 
Q 46.1875 37.015625 41.984375 42.703125 
Q 37.796875 48.390625 30.609375 48.390625 
z
M 30.609375 56 
Q 42.328125 56 49.015625 48.375 
Q 55.71875 40.765625 55.71875 27.296875 
Q 55.71875 13.875 49.015625 6.21875 
Q 42.328125 -1.421875 30.609375 -1.421875 
Q 18.84375 -1.421875 12.171875 6.21875 
Q 5.515625 13.875 5.515625 27.296875 
Q 5.515625 40.765625 12.171875 48.375 
Q 18.84375 56 30.609375 56 
z
" id="DejaVuSans-6f"/>
     <path d="M 18.3125 70.21875 
L 18.3125 54.6875 
L 36.8125 54.6875 
L 36.8125 47.703125 
L 18.3125 47.703125 
L 18.3125 18.015625 
Q 18.3125 11.328125 20.140625 9.421875 
Q 21.96875 7.515625 27.59375 7.515625 
L 36.8125 7.515625 
L 36.8125 0 
L 27.59375 0 
Q 17.1875 0 13.234375 3.875 
Q 9.28125 7.765625 9.28125 18.015625 
L 9.28125 47.703125 
L 2.6875 47.703125 
L 2.6875 54.6875 
L 9.28125 54.6875 
L 9.28125 70.21875 
z
" id="DejaVuSans-74"/>
     <path id="DejaVuSans-20"/>
     <path d="M 37.109375 75.984375 
L 37.109375 68.5 
L 28.515625 68.5 
Q 23.6875 68.5 21.796875 66.546875 
Q 19.921875 64.59375 19.921875 59.515625 
L 19.921875 54.6875 
L 34.71875 54.6875 
L 34.71875 47.703125 
L 19.921875 47.703125 
L 19.921875 0 
L 10.890625 0 
L 10.890625 47.703125 
L 2.296875 47.703125 
L 2.296875 54.6875 
L 10.890625 54.6875 
L 10.890625 58.5 
Q 10.890625 67.625 15.140625 71.796875 
Q 19.390625 75.984375 28.609375 75.984375 
z
" id="DejaVuSans-66"/>
     <path d="M -0.296875 72.90625 
L 61.375 72.90625 
L 61.375 64.59375 
L 35.5 64.59375 
L 35.5 0 
L 25.59375 0 
L 25.59375 64.59375 
L -0.296875 64.59375 
z
" id="DejaVuSans-54"/>
     <path d="M 56.203125 29.59375 
L 56.203125 25.203125 
L 14.890625 25.203125 
Q 15.484375 15.921875 20.484375 11.0625 
Q 25.484375 6.203125 34.421875 6.203125 
Q 39.59375 6.203125 44.453125 7.46875 
Q 49.3125 8.734375 54.109375 11.28125 
L 54.109375 2.78125 
Q 49.265625 0.734375 44.1875 -0.34375 
Q 39.109375 -1.421875 33.890625 -1.421875 
Q 20.796875 -1.421875 13.15625 6.1875 
Q 5.515625 13.8125 5.515625 26.8125 
Q 5.515625 40.234375 12.765625 48.109375 
Q 20.015625 56 32.328125 56 
Q 43.359375 56 49.78125 48.890625 
Q 56.203125 41.796875 56.203125 29.59375 
z
M 47.21875 32.234375 
Q 47.125 39.59375 43.09375 43.984375 
Q 39.0625 48.390625 32.421875 48.390625 
Q 24.90625 48.390625 20.390625 44.140625 
Q 15.875 39.890625 15.1875 32.171875 
z
" id="DejaVuSans-65"/>
     <path d="M 44.28125 53.078125 
L 44.28125 44.578125 
Q 40.484375 46.53125 36.375 47.5 
Q 32.28125 48.484375 27.875 48.484375 
Q 21.1875 48.484375 17.84375 46.4375 
Q 14.5 44.390625 14.5 40.28125 
Q 14.5 37.15625 16.890625 35.375 
Q 19.28125 33.59375 26.515625 31.984375 
L 29.59375 31.296875 
Q 39.15625 29.25 43.1875 25.515625 
Q 47.21875 21.78125 47.21875 15.09375 
Q 47.21875 7.46875 41.1875 3.015625 
Q 35.15625 -1.421875 24.609375 -1.421875 
Q 20.21875 -1.421875 15.453125 -0.5625 
Q 10.6875 0.296875 5.421875 2 
L 5.421875 11.28125 
Q 10.40625 8.6875 15.234375 7.390625 
Q 20.0625 6.109375 24.8125 6.109375 
Q 31.15625 6.109375 34.5625 8.28125 
Q 37.984375 10.453125 37.984375 14.40625 
Q 37.984375 18.0625 35.515625 20.015625 
Q 33.0625 21.96875 24.703125 23.78125 
L 21.578125 24.515625 
Q 13.234375 26.265625 9.515625 29.90625 
Q 5.8125 33.546875 5.8125 39.890625 
Q 5.8125 47.609375 11.28125 51.796875 
Q 16.75 56 26.8125 56 
Q 31.78125 56 36.171875 55.265625 
Q 40.578125 54.546875 44.28125 53.078125 
z
" id="DejaVuSans-73"/>
     <path d="M 19.671875 64.796875 
L 19.671875 8.109375 
L 31.59375 8.109375 
Q 46.6875 8.109375 53.6875 14.9375 
Q 60.6875 21.78125 60.6875 36.53125 
Q 60.6875 51.171875 53.6875 57.984375 
Q 46.6875 64.796875 31.59375 64.796875 
z
M 9.8125 72.90625 
L 30.078125 72.90625 
Q 51.265625 72.90625 61.171875 64.09375 
Q 71.09375 55.28125 71.09375 36.53125 
Q 71.09375 17.671875 61.125 8.828125 
Q 51.171875 0 30.078125 0 
L 9.8125 0 
z
" id="DejaVuSans-44"/>
     <path d="M 34.28125 27.484375 
Q 23.390625 27.484375 19.1875 25 
Q 14.984375 22.515625 14.984375 16.5 
Q 14.984375 11.71875 18.140625 8.90625 
Q 21.296875 6.109375 26.703125 6.109375 
Q 34.1875 6.109375 38.703125 11.40625 
Q 43.21875 16.703125 43.21875 25.484375 
L 43.21875 27.484375 
z
M 52.203125 31.203125 
L 52.203125 0 
L 43.21875 0 
L 43.21875 8.296875 
Q 40.140625 3.328125 35.546875 0.953125 
Q 30.953125 -1.421875 24.3125 -1.421875 
Q 15.921875 -1.421875 10.953125 3.296875 
Q 6 8.015625 6 15.921875 
Q 6 25.140625 12.171875 29.828125 
Q 18.359375 34.515625 30.609375 34.515625 
L 43.21875 34.515625 
L 43.21875 35.40625 
Q 43.21875 41.609375 39.140625 45 
Q 35.0625 48.390625 27.6875 48.390625 
Q 23 48.390625 18.546875 47.265625 
Q 14.109375 46.140625 10.015625 43.890625 
L 10.015625 52.203125 
Q 14.9375 54.109375 19.578125 55.046875 
Q 24.21875 56 28.609375 56 
Q 40.484375 56 46.34375 49.84375 
Q 52.203125 43.703125 52.203125 31.203125 
z
" id="DejaVuSans-61"/>
     <path d="M 2.984375 54.6875 
L 12.5 54.6875 
L 29.59375 8.796875 
L 46.6875 54.6875 
L 56.203125 54.6875 
L 35.6875 0 
L 23.484375 0 
z
" id="DejaVuSans-76"/>
     <path d="M 9.8125 72.90625 
L 24.515625 72.90625 
L 43.109375 23.296875 
L 61.8125 72.90625 
L 76.515625 72.90625 
L 76.515625 0 
L 66.890625 0 
L 66.890625 64.015625 
L 48.09375 14.015625 
L 38.1875 14.015625 
L 19.390625 64.015625 
L 19.390625 0 
L 9.8125 0 
z
" id="DejaVuSans-4d"/>
     <path d="M 64.40625 67.28125 
L 64.40625 56.890625 
Q 59.421875 61.53125 53.78125 63.8125 
Q 48.140625 66.109375 41.796875 66.109375 
Q 29.296875 66.109375 22.65625 58.46875 
Q 16.015625 50.828125 16.015625 36.375 
Q 16.015625 21.96875 22.65625 14.328125 
Q 29.296875 6.6875 41.796875 6.6875 
Q 48.140625 6.6875 53.78125 8.984375 
Q 59.421875 11.28125 64.40625 15.921875 
L 64.40625 5.609375 
Q 59.234375 2.09375 53.4375 0.328125 
Q 47.65625 -1.421875 41.21875 -1.421875 
Q 24.65625 -1.421875 15.125 8.703125 
Q 5.609375 18.84375 5.609375 36.375 
Q 5.609375 53.953125 15.125 64.078125 
Q 24.65625 74.21875 41.21875 74.21875 
Q 47.75 74.21875 53.53125 72.484375 
Q 59.328125 70.75 64.40625 67.28125 
z
" id="DejaVuSans-43"/>
     <path d="M 8.6875 72.90625 
L 18.609375 72.90625 
L 18.609375 28.609375 
Q 18.609375 16.890625 22.84375 11.734375 
Q 27.09375 6.59375 36.625 6.59375 
Q 46.09375 6.59375 50.34375 11.734375 
Q 54.59375 16.890625 54.59375 28.609375 
L 54.59375 72.90625 
L 64.5 72.90625 
L 64.5 27.390625 
Q 64.5 13.140625 57.4375 5.859375 
Q 50.390625 -1.421875 36.625 -1.421875 
Q 22.796875 -1.421875 15.734375 5.859375 
Q 8.6875 13.140625 8.6875 27.390625 
z
" id="DejaVuSans-55"/>
     <path d="M 54.890625 33.015625 
L 54.890625 0 
L 45.90625 0 
L 45.90625 32.71875 
Q 45.90625 40.484375 42.875 44.328125 
Q 39.84375 48.1875 33.796875 48.1875 
Q 26.515625 48.1875 22.3125 43.546875 
Q 18.109375 38.921875 18.109375 30.90625 
L 18.109375 0 
L 9.078125 0 
L 9.078125 54.6875 
L 18.109375 54.6875 
L 18.109375 46.1875 
Q 21.34375 51.125 25.703125 53.5625 
Q 30.078125 56 35.796875 56 
Q 45.21875 56 50.046875 50.171875 
Q 54.890625 44.34375 54.890625 33.015625 
z
" id="DejaVuSans-6e"/>
     <path d="M 48.78125 52.59375 
L 48.78125 44.1875 
Q 44.96875 46.296875 41.140625 47.34375 
Q 37.3125 48.390625 33.40625 48.390625 
Q 24.65625 48.390625 19.8125 42.84375 
Q 14.984375 37.3125 14.984375 27.296875 
Q 14.984375 17.28125 19.8125 11.734375 
Q 24.65625 6.203125 33.40625 6.203125 
Q 37.3125 6.203125 41.140625 7.25 
Q 44.96875 8.296875 48.78125 10.40625 
L 48.78125 2.09375 
Q 45.015625 0.34375 40.984375 -0.53125 
Q 36.96875 -1.421875 32.421875 -1.421875 
Q 20.0625 -1.421875 12.78125 6.34375 
Q 5.515625 14.109375 5.515625 27.296875 
Q 5.515625 40.671875 12.859375 48.328125 
Q 20.21875 56 33.015625 56 
Q 37.15625 56 41.109375 55.140625 
Q 45.0625 54.296875 48.78125 52.59375 
z
" id="DejaVuSans-63"/>
     <path d="M 41.109375 46.296875 
Q 39.59375 47.171875 37.8125 47.578125 
Q 36.03125 48 33.890625 48 
Q 26.265625 48 22.1875 43.046875 
Q 18.109375 38.09375 18.109375 28.8125 
L 18.109375 0 
L 9.078125 0 
L 9.078125 54.6875 
L 18.109375 54.6875 
L 18.109375 46.1875 
Q 20.953125 51.171875 25.484375 53.578125 
Q 30.03125 56 36.53125 56 
Q 37.453125 56 38.578125 55.875 
Q 39.703125 55.765625 41.0625 55.515625 
z
" id="DejaVuSans-72"/>
     <path d="M 9.421875 54.6875 
L 18.40625 54.6875 
L 18.40625 0 
L 9.421875 0 
z
M 9.421875 75.984375 
L 18.40625 75.984375 
L 18.40625 64.59375 
L 9.421875 64.59375 
z
" id="DejaVuSans-69"/>
     <path d="M 32.171875 -5.078125 
Q 28.375 -14.84375 24.75 -17.8125 
Q 21.140625 -20.796875 15.09375 -20.796875 
L 7.90625 -20.796875 
L 7.90625 -13.28125 
L 13.1875 -13.28125 
Q 16.890625 -13.28125 18.9375 -11.515625 
Q 21 -9.765625 23.484375 -3.21875 
L 25.09375 0.875 
L 2.984375 54.6875 
L 12.5 54.6875 
L 29.59375 11.921875 
L 46.6875 54.6875 
L 56.203125 54.6875 
z
" id="DejaVuSans-79"/>
    </defs>
    <g transform="translate(270.797812 97.68)scale(0.12 -0.12)">
     <use xlink:href="#DejaVuSans-50"/>
     <use x="60.302734" xlink:href="#DejaVuSans-6c"/>
     <use x="88.085938" xlink:href="#DejaVuSans-6f"/>
     <use x="149.267578" xlink:href="#DejaVuSans-74"/>
     <use x="188.476562" xlink:href="#DejaVuSans-20"/>
     <use x="220.263672" xlink:href="#DejaVuSans-6f"/>
     <use x="281.445312" xlink:href="#DejaVuSans-66"/>
     <use x="316.650391" xlink:href="#DejaVuSans-20"/>
     <use x="348.4375" xlink:href="#DejaVuSans-54"/>
     <use x="409.255859" xlink:href="#DejaVuSans-65"/>
     <use x="470.779297" xlink:href="#DejaVuSans-73"/>
     <use x="522.878906" xlink:href="#DejaVuSans-74"/>
     <use x="562.087891" xlink:href="#DejaVuSans-20"/>
     <use x="593.875" xlink:href="#DejaVuSans-44"/>
     <use x="670.876953" xlink:href="#DejaVuSans-61"/>
     <use x="732.15625" xlink:href="#DejaVuSans-74"/>
     <use x="771.365234" xlink:href="#DejaVuSans-61"/>
     <use x="832.644531" xlink:href="#DejaVuSans-20"/>
     <use x="864.431641" xlink:href="#DejaVuSans-76"/>
     <use x="923.611328" xlink:href="#DejaVuSans-73"/>
     <use x="975.710938" xlink:href="#DejaVuSans-20"/>
     <use x="1007.498047" xlink:href="#DejaVuSans-4d"/>
     <use x="1093.777344" xlink:href="#DejaVuSans-43"/>
     <use x="1163.601562" xlink:href="#DejaVuSans-4d"/>
     <use x="1249.880859" xlink:href="#DejaVuSans-43"/>
     <use x="1319.705078" xlink:href="#DejaVuSans-20"/>
     <use x="1351.492188" xlink:href="#DejaVuSans-55"/>
     <use x="1424.685547" xlink:href="#DejaVuSans-6e"/>
     <use x="1488.064453" xlink:href="#DejaVuSans-63"/>
     <use x="1543.044922" xlink:href="#DejaVuSans-65"/>
     <use x="1604.568359" xlink:href="#DejaVuSans-72"/>
     <use x="1645.681641" xlink:href="#DejaVuSans-74"/>
     <use x="1684.890625" xlink:href="#DejaVuSans-61"/>
     <use x="1746.169922" xlink:href="#DejaVuSans-69"/>
     <use x="1773.953125" xlink:href="#DejaVuSans-6e"/>
     <use x="1837.332031" xlink:href="#DejaVuSans-74"/>
     <use x="1876.541016" xlink:href="#DejaVuSans-79"/>
     <use x="1935.720703" xlink:href="#DejaVuSans-20"/>
    </g>
   </g>
   <g id="legend_1">
    <g id="patch_7">
     <path d="M 561.883437 170.3925 
L 691.76 170.3925 
Q 693.76 170.3925 693.76 168.3925 
L 693.76 110.68 
Q 693.76 108.68 691.76 108.68 
L 561.883437 108.68 
Q 559.883437 108.68 559.883437 110.68 
L 559.883437 168.3925 
Q 559.883437 170.3925 561.883437 170.3925 
z
" style="fill:#ffffff;opacity:0.8;stroke:#cccccc;stroke-linejoin:miter;"/>
    </g>
    <g id="line2d_16">
     <path d="M 563.883437 116.778437 
L 583.883437 116.778437 
" style="fill:none;stroke:#1f77b4;stroke-linecap:square;stroke-width:1.5;"/>
    </g>
    <g id="line2d_17"/>
    <g id="text_13">
     <!-- actual -->
     <defs>
      <path d="M 8.5 21.578125 
L 8.5 54.6875 
L 17.484375 54.6875 
L 17.484375 21.921875 
Q 17.484375 14.15625 20.5 10.265625 
Q 23.53125 6.390625 29.59375 6.390625 
Q 36.859375 6.390625 41.078125 11.03125 
Q 45.3125 15.671875 45.3125 23.6875 
L 45.3125 54.6875 
L 54.296875 54.6875 
L 54.296875 0 
L 45.3125 0 
L 45.3125 8.40625 
Q 42.046875 3.421875 37.71875 1 
Q 33.40625 -1.421875 27.6875 -1.421875 
Q 18.265625 -1.421875 13.375 4.4375 
Q 8.5 10.296875 8.5 21.578125 
z
M 31.109375 56 
z
" id="DejaVuSans-75"/>
     </defs>
     <g transform="translate(591.883437 120.278437)scale(0.1 -0.1)">
      <use xlink:href="#DejaVuSans-61"/>
      <use x="61.279297" xlink:href="#DejaVuSans-63"/>
      <use x="116.259766" xlink:href="#DejaVuSans-74"/>
      <use x="155.46875" xlink:href="#DejaVuSans-75"/>
      <use x="218.847656" xlink:href="#DejaVuSans-61"/>
      <use x="280.126953" xlink:href="#DejaVuSans-6c"/>
     </g>
    </g>
    <g id="line2d_18">
     <path d="M 563.883437 131.456562 
L 583.883437 131.456562 
" style="fill:none;stroke:#ff7f0e;stroke-linecap:square;stroke-width:1.5;"/>
    </g>
    <g id="line2d_19"/>
    <g id="text_14">
     <!-- pred. (mean) -->
     <defs>
      <path d="M 18.109375 8.203125 
L 18.109375 -20.796875 
L 9.078125 -20.796875 
L 9.078125 54.6875 
L 18.109375 54.6875 
L 18.109375 46.390625 
Q 20.953125 51.265625 25.265625 53.625 
Q 29.59375 56 35.59375 56 
Q 45.5625 56 51.78125 48.09375 
Q 58.015625 40.1875 58.015625 27.296875 
Q 58.015625 14.40625 51.78125 6.484375 
Q 45.5625 -1.421875 35.59375 -1.421875 
Q 29.59375 -1.421875 25.265625 0.953125 
Q 20.953125 3.328125 18.109375 8.203125 
z
M 48.6875 27.296875 
Q 48.6875 37.203125 44.609375 42.84375 
Q 40.53125 48.484375 33.40625 48.484375 
Q 26.265625 48.484375 22.1875 42.84375 
Q 18.109375 37.203125 18.109375 27.296875 
Q 18.109375 17.390625 22.1875 11.75 
Q 26.265625 6.109375 33.40625 6.109375 
Q 40.53125 6.109375 44.609375 11.75 
Q 48.6875 17.390625 48.6875 27.296875 
z
" id="DejaVuSans-70"/>
      <path d="M 45.40625 46.390625 
L 45.40625 75.984375 
L 54.390625 75.984375 
L 54.390625 0 
L 45.40625 0 
L 45.40625 8.203125 
Q 42.578125 3.328125 38.25 0.953125 
Q 33.9375 -1.421875 27.875 -1.421875 
Q 17.96875 -1.421875 11.734375 6.484375 
Q 5.515625 14.40625 5.515625 27.296875 
Q 5.515625 40.1875 11.734375 48.09375 
Q 17.96875 56 27.875 56 
Q 33.9375 56 38.25 53.625 
Q 42.578125 51.265625 45.40625 46.390625 
z
M 14.796875 27.296875 
Q 14.796875 17.390625 18.875 11.75 
Q 22.953125 6.109375 30.078125 6.109375 
Q 37.203125 6.109375 41.296875 11.75 
Q 45.40625 17.390625 45.40625 27.296875 
Q 45.40625 37.203125 41.296875 42.84375 
Q 37.203125 48.484375 30.078125 48.484375 
Q 22.953125 48.484375 18.875 42.84375 
Q 14.796875 37.203125 14.796875 27.296875 
z
" id="DejaVuSans-64"/>
      <path d="M 31 75.875 
Q 24.46875 64.65625 21.28125 53.65625 
Q 18.109375 42.671875 18.109375 31.390625 
Q 18.109375 20.125 21.3125 9.0625 
Q 24.515625 -2 31 -13.1875 
L 23.1875 -13.1875 
Q 15.875 -1.703125 12.234375 9.375 
Q 8.59375 20.453125 8.59375 31.390625 
Q 8.59375 42.28125 12.203125 53.3125 
Q 15.828125 64.359375 23.1875 75.875 
z
" id="DejaVuSans-28"/>
      <path d="M 52 44.1875 
Q 55.375 50.25 60.0625 53.125 
Q 64.75 56 71.09375 56 
Q 79.640625 56 84.28125 50.015625 
Q 88.921875 44.046875 88.921875 33.015625 
L 88.921875 0 
L 79.890625 0 
L 79.890625 32.71875 
Q 79.890625 40.578125 77.09375 44.375 
Q 74.3125 48.1875 68.609375 48.1875 
Q 61.625 48.1875 57.5625 43.546875 
Q 53.515625 38.921875 53.515625 30.90625 
L 53.515625 0 
L 44.484375 0 
L 44.484375 32.71875 
Q 44.484375 40.625 41.703125 44.40625 
Q 38.921875 48.1875 33.109375 48.1875 
Q 26.21875 48.1875 22.15625 43.53125 
Q 18.109375 38.875 18.109375 30.90625 
L 18.109375 0 
L 9.078125 0 
L 9.078125 54.6875 
L 18.109375 54.6875 
L 18.109375 46.1875 
Q 21.1875 51.21875 25.484375 53.609375 
Q 29.78125 56 35.6875 56 
Q 41.65625 56 45.828125 52.96875 
Q 50 49.953125 52 44.1875 
z
" id="DejaVuSans-6d"/>
      <path d="M 8.015625 75.875 
L 15.828125 75.875 
Q 23.140625 64.359375 26.78125 53.3125 
Q 30.421875 42.28125 30.421875 31.390625 
Q 30.421875 20.453125 26.78125 9.375 
Q 23.140625 -1.703125 15.828125 -13.1875 
L 8.015625 -13.1875 
Q 14.5 -2 17.703125 9.0625 
Q 20.90625 20.125 20.90625 31.390625 
Q 20.90625 42.671875 17.703125 53.65625 
Q 14.5 64.65625 8.015625 75.875 
z
" id="DejaVuSans-29"/>
     </defs>
     <g transform="translate(591.883437 134.956562)scale(0.1 -0.1)">
      <use xlink:href="#DejaVuSans-70"/>
      <use x="63.476562" xlink:href="#DejaVuSans-72"/>
      <use x="104.558594" xlink:href="#DejaVuSans-65"/>
      <use x="166.082031" xlink:href="#DejaVuSans-64"/>
      <use x="229.558594" xlink:href="#DejaVuSans-2e"/>
      <use x="261.345703" xlink:href="#DejaVuSans-20"/>
      <use x="293.132812" xlink:href="#DejaVuSans-28"/>
      <use x="332.146484" xlink:href="#DejaVuSans-6d"/>
      <use x="429.558594" xlink:href="#DejaVuSans-65"/>
      <use x="491.082031" xlink:href="#DejaVuSans-61"/>
      <use x="552.361328" xlink:href="#DejaVuSans-6e"/>
      <use x="615.740234" xlink:href="#DejaVuSans-29"/>
     </g>
    </g>
    <g id="line2d_20">
     <path d="M 563.883437 146.134687 
L 583.883437 146.134687 
" style="fill:none;stroke:#2ca02c;stroke-linecap:square;stroke-width:1.5;"/>
    </g>
    <g id="line2d_21"/>
    <g id="text_15">
     <!-- pred.(5th percen.) -->
     <defs>
      <path d="M 10.796875 72.90625 
L 49.515625 72.90625 
L 49.515625 64.59375 
L 19.828125 64.59375 
L 19.828125 46.734375 
Q 21.96875 47.46875 24.109375 47.828125 
Q 26.265625 48.1875 28.421875 48.1875 
Q 40.625 48.1875 47.75 41.5 
Q 54.890625 34.8125 54.890625 23.390625 
Q 54.890625 11.625 47.5625 5.09375 
Q 40.234375 -1.421875 26.90625 -1.421875 
Q 22.3125 -1.421875 17.546875 -0.640625 
Q 12.796875 0.140625 7.71875 1.703125 
L 7.71875 11.625 
Q 12.109375 9.234375 16.796875 8.0625 
Q 21.484375 6.890625 26.703125 6.890625 
Q 35.15625 6.890625 40.078125 11.328125 
Q 45.015625 15.765625 45.015625 23.390625 
Q 45.015625 31 40.078125 35.4375 
Q 35.15625 39.890625 26.703125 39.890625 
Q 22.75 39.890625 18.8125 39.015625 
Q 14.890625 38.140625 10.796875 36.28125 
z
" id="DejaVuSans-35"/>
      <path d="M 54.890625 33.015625 
L 54.890625 0 
L 45.90625 0 
L 45.90625 32.71875 
Q 45.90625 40.484375 42.875 44.328125 
Q 39.84375 48.1875 33.796875 48.1875 
Q 26.515625 48.1875 22.3125 43.546875 
Q 18.109375 38.921875 18.109375 30.90625 
L 18.109375 0 
L 9.078125 0 
L 9.078125 75.984375 
L 18.109375 75.984375 
L 18.109375 46.1875 
Q 21.34375 51.125 25.703125 53.5625 
Q 30.078125 56 35.796875 56 
Q 45.21875 56 50.046875 50.171875 
Q 54.890625 44.34375 54.890625 33.015625 
z
" id="DejaVuSans-68"/>
     </defs>
     <g transform="translate(591.883437 149.634687)scale(0.1 -0.1)">
      <use xlink:href="#DejaVuSans-70"/>
      <use x="63.476562" xlink:href="#DejaVuSans-72"/>
      <use x="104.558594" xlink:href="#DejaVuSans-65"/>
      <use x="166.082031" xlink:href="#DejaVuSans-64"/>
      <use x="229.558594" xlink:href="#DejaVuSans-2e"/>
      <use x="261.345703" xlink:href="#DejaVuSans-28"/>
      <use x="300.359375" xlink:href="#DejaVuSans-35"/>
      <use x="363.982422" xlink:href="#DejaVuSans-74"/>
      <use x="403.191406" xlink:href="#DejaVuSans-68"/>
      <use x="466.570312" xlink:href="#DejaVuSans-20"/>
      <use x="498.357422" xlink:href="#DejaVuSans-70"/>
      <use x="561.833984" xlink:href="#DejaVuSans-65"/>
      <use x="623.357422" xlink:href="#DejaVuSans-72"/>
      <use x="664.439453" xlink:href="#DejaVuSans-63"/>
      <use x="719.419922" xlink:href="#DejaVuSans-65"/>
      <use x="780.943359" xlink:href="#DejaVuSans-6e"/>
      <use x="844.322266" xlink:href="#DejaVuSans-2e"/>
      <use x="876.109375" xlink:href="#DejaVuSans-29"/>
     </g>
    </g>
    <g id="line2d_22">
     <path d="M 563.883437 160.812812 
L 583.883437 160.812812 
" style="fill:none;stroke:#d62728;stroke-linecap:square;stroke-width:1.5;"/>
    </g>
    <g id="line2d_23"/>
    <g id="text_16">
     <!-- pred.(95th percen.) -->
     <defs>
      <path d="M 10.984375 1.515625 
L 10.984375 10.5 
Q 14.703125 8.734375 18.5 7.8125 
Q 22.3125 6.890625 25.984375 6.890625 
Q 35.75 6.890625 40.890625 13.453125 
Q 46.046875 20.015625 46.78125 33.40625 
Q 43.953125 29.203125 39.59375 26.953125 
Q 35.25 24.703125 29.984375 24.703125 
Q 19.046875 24.703125 12.671875 31.3125 
Q 6.296875 37.9375 6.296875 49.421875 
Q 6.296875 60.640625 12.9375 67.421875 
Q 19.578125 74.21875 30.609375 74.21875 
Q 43.265625 74.21875 49.921875 64.515625 
Q 56.59375 54.828125 56.59375 36.375 
Q 56.59375 19.140625 48.40625 8.859375 
Q 40.234375 -1.421875 26.421875 -1.421875 
Q 22.703125 -1.421875 18.890625 -0.6875 
Q 15.09375 0.046875 10.984375 1.515625 
z
M 30.609375 32.421875 
Q 37.25 32.421875 41.125 36.953125 
Q 45.015625 41.5 45.015625 49.421875 
Q 45.015625 57.28125 41.125 61.84375 
Q 37.25 66.40625 30.609375 66.40625 
Q 23.96875 66.40625 20.09375 61.84375 
Q 16.21875 57.28125 16.21875 49.421875 
Q 16.21875 41.5 20.09375 36.953125 
Q 23.96875 32.421875 30.609375 32.421875 
z
" id="DejaVuSans-39"/>
     </defs>
     <g transform="translate(591.883437 164.312812)scale(0.1 -0.1)">
      <use xlink:href="#DejaVuSans-70"/>
      <use x="63.476562" xlink:href="#DejaVuSans-72"/>
      <use x="104.558594" xlink:href="#DejaVuSans-65"/>
      <use x="166.082031" xlink:href="#DejaVuSans-64"/>
      <use x="229.558594" xlink:href="#DejaVuSans-2e"/>
      <use x="261.345703" xlink:href="#DejaVuSans-28"/>
      <use x="300.359375" xlink:href="#DejaVuSans-39"/>
      <use x="363.982422" xlink:href="#DejaVuSans-35"/>
      <use x="427.605469" xlink:href="#DejaVuSans-74"/>
      <use x="466.814453" xlink:href="#DejaVuSans-68"/>
      <use x="530.193359" xlink:href="#DejaVuSans-20"/>
      <use x="561.980469" xlink:href="#DejaVuSans-70"/>
      <use x="625.457031" xlink:href="#DejaVuSans-65"/>
      <use x="686.980469" xlink:href="#DejaVuSans-72"/>
      <use x="728.0625" xlink:href="#DejaVuSans-63"/>
      <use x="783.042969" xlink:href="#DejaVuSans-65"/>
      <use x="844.566406" xlink:href="#DejaVuSans-6e"/>
      <use x="907.945312" xlink:href="#DejaVuSans-2e"/>
      <use x="939.732422" xlink:href="#DejaVuSans-29"/>
     </g>
    </g>
   </g>
  </g>
 </g>
 <defs>
  <clipPath id="p6bca143436">
   <rect height="701.28" width="619.83" x="78.93" y="103.68"/>
  </clipPath>
 </defs>
</svg>
