<?xml version="1.0" encoding="utf-8" standalone="no"?>
<!DOCTYPE svg PUBLIC "-//W3C//DTD SVG 1.1//EN"
  "http://www.w3.org/Graphics/SVG/1.1/DTD/svg11.dtd">
<!-- Created with matplotlib (http://matplotlib.org/) -->
<svg height="345.6pt" version="1.1" viewBox="0 0 460.8 345.6" width="460.8pt" xmlns="http://www.w3.org/2000/svg" xmlns:xlink="http://www.w3.org/1999/xlink">
 <defs>
  <style type="text/css">
*{stroke-linecap:butt;stroke-linejoin:round;}
  </style>
 </defs>
 <g id="figure_1">
  <g id="patch_1">
   <path d="M 0 345.6 
L 460.8 345.6 
L 460.8 0 
L 0 0 
z
" style="fill:#ffffff;"/>
  </g>
  <g id="axes_1">
   <g id="patch_2">
    <path d="M 57.6 307.584 
L 414.72 307.584 
L 414.72 41.472 
L 57.6 41.472 
z
" style="fill:#ffffff;"/>
   </g>
   <g id="PolyCollection_1">
    <path clip-path="url(#p6ae288e723)" d="M 73.832727 76.42465 
L 73.832727 266.661793 
L 75.48072 267.488297 
L 77.128713 267.914691 
L 78.776705 267.957346 
L 80.424698 267.349322 
L 82.07269 266.609875 
L 83.720683 265.346028 
L 85.368676 264.452771 
L 87.016668 264.190057 
L 88.664661 264.421457 
L 90.312653 264.415856 
L 91.960646 263.9562 
L 93.608639 263.454199 
L 95.256631 262.934573 
L 96.904624 263.010678 
L 98.552617 262.732141 
L 100.200609 262.501994 
L 101.848602 262.541294 
L 103.496594 263.657826 
L 105.144587 266.52127 
L 106.79258 267.92098 
L 108.440572 268.354495 
L 110.088565 268.680572 
L 111.736557 268.477421 
L 113.38455 268.36025 
L 115.032543 268.422951 
L 116.680535 269.00236 
L 118.328528 270.098933 
L 119.976521 270.689669 
L 121.624513 271.048048 
L 123.272506 271.670381 
L 124.920498 271.85988 
L 126.568491 272.026259 
L 128.216484 271.561897 
L 129.864476 271.194467 
L 131.512469 271.461625 
L 133.160461 271.577402 
L 134.808454 271.797919 
L 136.456447 271.955649 
L 138.104439 272.177435 
L 139.752432 271.874565 
L 141.400425 271.221267 
L 143.048417 270.394823 
L 144.69641 269.114595 
L 146.344402 266.274665 
L 147.992395 262.431285 
L 149.640388 262.187474 
L 151.28838 262.356679 
L 152.936373 262.354881 
L 154.584365 262.742408 
L 156.232358 264.001218 
L 157.880351 265.455835 
L 159.528343 266.479774 
L 161.176336 267.195215 
L 162.824329 267.82818 
L 164.472321 268.215546 
L 166.120314 268.69698 
L 167.768306 269.242891 
L 169.416299 269.544092 
L 171.064292 269.928823 
L 172.712284 270.060424 
L 174.360277 270.15063 
L 176.008269 270.162452 
L 177.656262 270.054616 
L 179.304255 269.808624 
L 180.952247 269.246826 
L 182.60024 268.757868 
L 184.248233 268.319364 
L 185.896225 267.570607 
L 187.544218 266.792667 
L 189.19221 266.241917 
L 190.840203 265.975733 
L 192.488196 265.627673 
L 194.136188 264.870805 
L 195.784181 264.239567 
L 197.432174 263.411363 
L 199.080166 262.993454 
L 200.728159 262.890258 
L 202.376151 262.779281 
L 204.024144 262.727543 
L 205.672137 262.692551 
L 207.320129 262.537185 
L 208.968122 262.438254 
L 210.616114 262.492155 
L 212.264107 262.394115 
L 213.9121 262.387596 
L 215.560092 262.304318 
L 217.208085 262.410098 
L 218.856078 262.26874 
L 220.50407 262.287594 
L 222.152063 262.848118 
L 223.800055 263.73647 
L 225.448048 264.362153 
L 227.096041 265.55251 
L 228.744033 267.390133 
L 230.392026 268.579959 
L 232.040018 268.97966 
L 233.688011 269.109874 
L 235.336004 269.102814 
L 236.983996 269.333707 
L 238.631989 269.356997 
L 240.279982 269.71681 
L 241.927974 270.329754 
L 243.575967 271.186608 
L 245.223959 271.992171 
L 246.871952 272.543262 
L 248.519945 273.11532 
L 250.167937 273.357617 
L 251.81593 273.240877 
L 253.463922 273.102843 
L 255.111915 273.293324 
L 256.759908 273.414554 
L 258.4079 272.890561 
L 260.055893 272.328462 
L 261.703886 271.795951 
L 263.351878 270.739358 
L 264.999871 269.276345 
L 266.647863 267.858225 
L 268.295856 265.99909 
L 269.943849 262.780963 
L 271.591841 262.187133 
L 273.239834 262.259238 
L 274.887826 262.390624 
L 276.535819 262.411887 
L 278.183812 262.586701 
L 279.831804 262.626262 
L 281.479797 262.591127 
L 283.12779 263.056656 
L 284.775782 263.526464 
L 286.423775 263.84305 
L 288.071767 264.502489 
L 289.71976 265.44616 
L 291.367753 265.536734 
L 293.015745 265.227857 
L 294.663738 265.648781 
L 296.311731 265.989434 
L 297.959723 265.334179 
L 299.607716 264.66351 
L 301.255708 264.804511 
L 302.903701 265.583741 
L 304.551694 265.284689 
L 306.199686 264.746139 
L 307.847679 264.926209 
L 309.495671 265.487008 
L 311.143664 264.662987 
L 312.791657 263.740259 
L 314.439649 263.411646 
L 316.087642 263.608388 
L 317.735635 263.607533 
L 319.383627 263.42063 
L 321.03162 263.367444 
L 322.679612 263.638948 
L 324.327605 263.593354 
L 325.975598 263.131088 
L 327.62359 262.784022 
L 329.271583 262.570376 
L 330.919575 262.837492 
L 332.567568 262.75243 
L 334.215561 262.562346 
L 335.863553 262.481171 
L 337.511546 262.505973 
L 339.159539 264.949192 
L 340.807531 267.163943 
L 342.455524 267.906638 
L 344.103516 268.397402 
L 345.751509 269.098672 
L 347.399502 270.547356 
L 349.047494 271.725421 
L 350.695487 272.170947 
L 352.343479 272.740599 
L 353.991472 273.149601 
L 355.639465 273.256601 
L 357.287457 273.155423 
L 358.93545 273.060025 
L 360.583443 272.905251 
L 362.231435 273.053483 
L 363.879428 273.336818 
L 365.52742 273.572956 
L 367.175413 273.828266 
L 368.823406 274.016824 
L 370.471398 274.055891 
L 372.119391 273.661329 
L 373.767383 272.896647 
L 375.415376 272.263461 
L 377.063369 271.503743 
L 378.711361 270.289294 
L 380.359354 268.362569 
L 382.007347 265.159804 
L 383.655339 261.916472 
L 385.303332 262.133403 
L 386.951324 262.397332 
L 388.599317 262.660366 
L 390.24731 263.034136 
L 391.895302 263.755574 
L 393.543295 264.506343 
L 395.191287 264.496174 
L 396.83928 264.131118 
L 398.487273 264.298891 
L 398.487273 72.321828 
L 398.487273 72.321828 
L 396.83928 71.634736 
L 395.191287 72.404458 
L 393.543295 72.736643 
L 391.895302 71.618101 
L 390.24731 70.776352 
L 388.599317 69.699024 
L 386.951324 68.501916 
L 385.303332 65.701737 
L 383.655339 62.508661 
L 382.007347 59.745361 
L 380.359354 57.669724 
L 378.711361 56.104459 
L 377.063369 55.339453 
L 375.415376 54.865881 
L 373.767383 54.362663 
L 372.119391 53.820037 
L 370.471398 53.568 
L 368.823406 53.590813 
L 367.175413 53.762219 
L 365.52742 53.938574 
L 363.879428 54.161465 
L 362.231435 54.339868 
L 360.583443 54.400269 
L 358.93545 54.317824 
L 357.287457 54.210035 
L 355.639465 54.163075 
L 353.991472 54.267377 
L 352.343479 54.575959 
L 350.695487 54.947556 
L 349.047494 55.246507 
L 347.399502 56.319726 
L 345.751509 57.466225 
L 344.103516 58.137218 
L 342.455524 58.548537 
L 340.807531 59.715432 
L 339.159539 61.696556 
L 337.511546 63.348796 
L 335.863553 64.476995 
L 334.215561 65.314021 
L 332.567568 66.46387 
L 330.919575 68.052246 
L 329.271583 68.566223 
L 327.62359 68.44767 
L 325.975598 69.319796 
L 324.327605 71.093337 
L 322.679612 71.189447 
L 321.03162 71.062233 
L 319.383627 70.680139 
L 317.735635 71.086144 
L 316.087642 71.049068 
L 314.439649 70.936342 
L 312.791657 71.055497 
L 311.143664 72.538523 
L 309.495671 74.526995 
L 307.847679 73.258974 
L 306.199686 72.483867 
L 304.551694 73.684301 
L 302.903701 74.719612 
L 301.255708 73.029874 
L 299.607716 72.101048 
L 297.959723 74.080518 
L 296.311731 75.059002 
L 294.663738 74.555044 
L 293.015745 73.54997 
L 291.367753 74.295876 
L 289.71976 74.480516 
L 288.071767 72.560379 
L 286.423775 71.506557 
L 284.775782 71.061114 
L 283.12779 70.934395 
L 281.479797 69.689253 
L 279.831804 68.521654 
L 278.183812 68.172754 
L 276.535819 66.939367 
L 274.887826 65.533631 
L 273.239834 64.200048 
L 271.591841 63.160167 
L 269.943849 61.454808 
L 268.295856 59.574643 
L 266.647863 58.077908 
L 264.999871 56.820932 
L 263.351878 55.806325 
L 261.703886 55.187038 
L 260.055893 54.795623 
L 258.4079 54.341652 
L 256.759908 54.052873 
L 255.111915 54.20932 
L 253.463922 54.243065 
L 251.81593 54.139149 
L 250.167937 54.091811 
L 248.519945 54.39018 
L 246.871952 54.737285 
L 245.223959 55.139659 
L 243.575967 55.737845 
L 241.927974 56.293005 
L 240.279982 56.783645 
L 238.631989 57.012523 
L 236.983996 57.046513 
L 235.336004 57.179432 
L 233.688011 57.231118 
L 232.040018 57.437133 
L 230.392026 58.057036 
L 228.744033 59.35967 
L 227.096041 60.664627 
L 225.448048 61.329339 
L 223.800055 61.820579 
L 222.152063 62.707716 
L 220.50407 63.307568 
L 218.856078 63.188123 
L 217.208085 62.96096 
L 215.560092 63.031145 
L 213.9121 63.000142 
L 212.264107 63.050773 
L 210.616114 63.432393 
L 208.968122 64.360594 
L 207.320129 65.10696 
L 205.672137 66.208724 
L 204.024144 67.269876 
L 202.376151 68.234963 
L 200.728159 68.730581 
L 199.080166 69.665912 
L 197.432174 70.823531 
L 195.784181 71.551431 
L 194.136188 72.939703 
L 192.488196 74.313789 
L 190.840203 74.930727 
L 189.19221 75.374019 
L 187.544218 76.153831 
L 185.896225 77.635916 
L 184.248233 78.887812 
L 182.60024 79.347441 
L 180.952247 80.416403 
L 179.304255 81.199068 
L 177.656262 82.306142 
L 176.008269 82.578567 
L 174.360277 82.298083 
L 172.712284 82.251889 
L 171.064292 81.816593 
L 169.416299 81.349121 
L 167.768306 80.502332 
L 166.120314 79.690514 
L 164.472321 79.106692 
L 162.824329 78.62008 
L 161.176336 77.490333 
L 159.528343 76.177881 
L 157.880351 74.222922 
L 156.232358 72.176308 
L 154.584365 70.678633 
L 152.936373 68.589252 
L 151.28838 66.062101 
L 149.640388 64.059174 
L 147.992395 61.845902 
L 146.344402 58.921471 
L 144.69641 56.99276 
L 143.048417 56.013283 
L 141.400425 55.530342 
L 139.752432 55.103362 
L 138.104439 54.954711 
L 136.456447 55.104699 
L 134.808454 55.208415 
L 133.160461 55.319814 
L 131.512469 55.476935 
L 129.864476 55.5698 
L 128.216484 55.303015 
L 126.568491 55.083009 
L 124.920498 55.157735 
L 123.272506 55.36965 
L 121.624513 55.819648 
L 119.976521 56.056093 
L 118.328528 56.568937 
L 116.680535 57.605351 
L 115.032543 58.016685 
L 113.38455 58.080456 
L 111.736557 57.773142 
L 110.088565 57.904786 
L 108.440572 58.053968 
L 106.79258 58.695896 
L 105.144587 60.324689 
L 103.496594 62.147344 
L 101.848602 63.097854 
L 100.200609 64.312331 
L 98.552617 66.029373 
L 96.904624 68.132466 
L 95.256631 69.674133 
L 93.608639 70.646417 
L 91.960646 71.361367 
L 90.312653 72.068099 
L 88.664661 72.521012 
L 87.016668 71.954996 
L 85.368676 72.06268 
L 83.720683 73.494618 
L 82.07269 75.702206 
L 80.424698 77.654431 
L 78.776705 78.103854 
L 77.128713 78.506381 
L 75.48072 78.261775 
L 73.832727 76.42465 
z
" style="fill:#008000;fill-opacity:0.4;"/>
   </g>
   <g id="matplotlib.axis_1">
    <g id="xtick_1">
     <g id="line2d_1">
      <defs>
       <path d="M 0 0 
L 0 3.5 
" id="m7a3366dbfa" style="stroke:#000000;stroke-width:0.8;"/>
      </defs>
      <g>
       <use style="stroke:#000000;stroke-width:0.8;" x="73.832727" xlink:href="#m7a3366dbfa" y="307.584"/>
      </g>
     </g>
     <g id="text_1">
      <!-- 0.0 -->
      <defs>
       <path d="M 31.78125 66.40625 
Q 24.171875 66.40625 20.328125 58.90625 
Q 16.5 51.421875 16.5 36.375 
Q 16.5 21.390625 20.328125 13.890625 
Q 24.171875 6.390625 31.78125 6.390625 
Q 39.453125 6.390625 43.28125 13.890625 
Q 47.125 21.390625 47.125 36.375 
Q 47.125 51.421875 43.28125 58.90625 
Q 39.453125 66.40625 31.78125 66.40625 
z
M 31.78125 74.21875 
Q 44.046875 74.21875 50.515625 64.515625 
Q 56.984375 54.828125 56.984375 36.375 
Q 56.984375 17.96875 50.515625 8.265625 
Q 44.046875 -1.421875 31.78125 -1.421875 
Q 19.53125 -1.421875 13.0625 8.265625 
Q 6.59375 17.96875 6.59375 36.375 
Q 6.59375 54.828125 13.0625 64.515625 
Q 19.53125 74.21875 31.78125 74.21875 
z
" id="DejaVuSans-30"/>
       <path d="M 10.6875 12.40625 
L 21 12.40625 
L 21 0 
L 10.6875 0 
z
" id="DejaVuSans-2e"/>
      </defs>
      <g transform="translate(65.881165 322.182437)scale(0.1 -0.1)">
       <use xlink:href="#DejaVuSans-30"/>
       <use x="63.623047" xlink:href="#DejaVuSans-2e"/>
       <use x="95.410156" xlink:href="#DejaVuSans-30"/>
      </g>
     </g>
    </g>
    <g id="xtick_2">
     <g id="line2d_2">
      <g>
       <use style="stroke:#000000;stroke-width:0.8;" x="138.763636" xlink:href="#m7a3366dbfa" y="307.584"/>
      </g>
     </g>
     <g id="text_2">
      <!-- 0.2 -->
      <defs>
       <path d="M 19.1875 8.296875 
L 53.609375 8.296875 
L 53.609375 0 
L 7.328125 0 
L 7.328125 8.296875 
Q 12.9375 14.109375 22.625 23.890625 
Q 32.328125 33.6875 34.8125 36.53125 
Q 39.546875 41.84375 41.421875 45.53125 
Q 43.3125 49.21875 43.3125 52.78125 
Q 43.3125 58.59375 39.234375 62.25 
Q 35.15625 65.921875 28.609375 65.921875 
Q 23.96875 65.921875 18.8125 64.3125 
Q 13.671875 62.703125 7.8125 59.421875 
L 7.8125 69.390625 
Q 13.765625 71.78125 18.9375 73 
Q 24.125 74.21875 28.421875 74.21875 
Q 39.75 74.21875 46.484375 68.546875 
Q 53.21875 62.890625 53.21875 53.421875 
Q 53.21875 48.921875 51.53125 44.890625 
Q 49.859375 40.875 45.40625 35.40625 
Q 44.1875 33.984375 37.640625 27.21875 
Q 31.109375 20.453125 19.1875 8.296875 
z
" id="DejaVuSans-32"/>
      </defs>
      <g transform="translate(130.812074 322.182437)scale(0.1 -0.1)">
       <use xlink:href="#DejaVuSans-30"/>
       <use x="63.623047" xlink:href="#DejaVuSans-2e"/>
       <use x="95.410156" xlink:href="#DejaVuSans-32"/>
      </g>
     </g>
    </g>
    <g id="xtick_3">
     <g id="line2d_3">
      <g>
       <use style="stroke:#000000;stroke-width:0.8;" x="203.694545" xlink:href="#m7a3366dbfa" y="307.584"/>
      </g>
     </g>
     <g id="text_3">
      <!-- 0.4 -->
      <defs>
       <path d="M 37.796875 64.3125 
L 12.890625 25.390625 
L 37.796875 25.390625 
z
M 35.203125 72.90625 
L 47.609375 72.90625 
L 47.609375 25.390625 
L 58.015625 25.390625 
L 58.015625 17.1875 
L 47.609375 17.1875 
L 47.609375 0 
L 37.796875 0 
L 37.796875 17.1875 
L 4.890625 17.1875 
L 4.890625 26.703125 
z
" id="DejaVuSans-34"/>
      </defs>
      <g transform="translate(195.742983 322.182437)scale(0.1 -0.1)">
       <use xlink:href="#DejaVuSans-30"/>
       <use x="63.623047" xlink:href="#DejaVuSans-2e"/>
       <use x="95.410156" xlink:href="#DejaVuSans-34"/>
      </g>
     </g>
    </g>
    <g id="xtick_4">
     <g id="line2d_4">
      <g>
       <use style="stroke:#000000;stroke-width:0.8;" x="268.625455" xlink:href="#m7a3366dbfa" y="307.584"/>
      </g>
     </g>
     <g id="text_4">
      <!-- 0.6 -->
      <defs>
       <path d="M 33.015625 40.375 
Q 26.375 40.375 22.484375 35.828125 
Q 18.609375 31.296875 18.609375 23.390625 
Q 18.609375 15.53125 22.484375 10.953125 
Q 26.375 6.390625 33.015625 6.390625 
Q 39.65625 6.390625 43.53125 10.953125 
Q 47.40625 15.53125 47.40625 23.390625 
Q 47.40625 31.296875 43.53125 35.828125 
Q 39.65625 40.375 33.015625 40.375 
z
M 52.59375 71.296875 
L 52.59375 62.3125 
Q 48.875 64.0625 45.09375 64.984375 
Q 41.3125 65.921875 37.59375 65.921875 
Q 27.828125 65.921875 22.671875 59.328125 
Q 17.53125 52.734375 16.796875 39.40625 
Q 19.671875 43.65625 24.015625 45.921875 
Q 28.375 48.1875 33.59375 48.1875 
Q 44.578125 48.1875 50.953125 41.515625 
Q 57.328125 34.859375 57.328125 23.390625 
Q 57.328125 12.15625 50.6875 5.359375 
Q 44.046875 -1.421875 33.015625 -1.421875 
Q 20.359375 -1.421875 13.671875 8.265625 
Q 6.984375 17.96875 6.984375 36.375 
Q 6.984375 53.65625 15.1875 63.9375 
Q 23.390625 74.21875 37.203125 74.21875 
Q 40.921875 74.21875 44.703125 73.484375 
Q 48.484375 72.75 52.59375 71.296875 
z
" id="DejaVuSans-36"/>
      </defs>
      <g transform="translate(260.673892 322.182437)scale(0.1 -0.1)">
       <use xlink:href="#DejaVuSans-30"/>
       <use x="63.623047" xlink:href="#DejaVuSans-2e"/>
       <use x="95.410156" xlink:href="#DejaVuSans-36"/>
      </g>
     </g>
    </g>
    <g id="xtick_5">
     <g id="line2d_5">
      <g>
       <use style="stroke:#000000;stroke-width:0.8;" x="333.556364" xlink:href="#m7a3366dbfa" y="307.584"/>
      </g>
     </g>
     <g id="text_5">
      <!-- 0.8 -->
      <defs>
       <path d="M 31.78125 34.625 
Q 24.75 34.625 20.71875 30.859375 
Q 16.703125 27.09375 16.703125 20.515625 
Q 16.703125 13.921875 20.71875 10.15625 
Q 24.75 6.390625 31.78125 6.390625 
Q 38.8125 6.390625 42.859375 10.171875 
Q 46.921875 13.96875 46.921875 20.515625 
Q 46.921875 27.09375 42.890625 30.859375 
Q 38.875 34.625 31.78125 34.625 
z
M 21.921875 38.8125 
Q 15.578125 40.375 12.03125 44.71875 
Q 8.5 49.078125 8.5 55.328125 
Q 8.5 64.0625 14.71875 69.140625 
Q 20.953125 74.21875 31.78125 74.21875 
Q 42.671875 74.21875 48.875 69.140625 
Q 55.078125 64.0625 55.078125 55.328125 
Q 55.078125 49.078125 51.53125 44.71875 
Q 48 40.375 41.703125 38.8125 
Q 48.828125 37.15625 52.796875 32.3125 
Q 56.78125 27.484375 56.78125 20.515625 
Q 56.78125 9.90625 50.3125 4.234375 
Q 43.84375 -1.421875 31.78125 -1.421875 
Q 19.734375 -1.421875 13.25 4.234375 
Q 6.78125 9.90625 6.78125 20.515625 
Q 6.78125 27.484375 10.78125 32.3125 
Q 14.796875 37.15625 21.921875 38.8125 
z
M 18.3125 54.390625 
Q 18.3125 48.734375 21.84375 45.5625 
Q 25.390625 42.390625 31.78125 42.390625 
Q 38.140625 42.390625 41.71875 45.5625 
Q 45.3125 48.734375 45.3125 54.390625 
Q 45.3125 60.0625 41.71875 63.234375 
Q 38.140625 66.40625 31.78125 66.40625 
Q 25.390625 66.40625 21.84375 63.234375 
Q 18.3125 60.0625 18.3125 54.390625 
z
" id="DejaVuSans-38"/>
      </defs>
      <g transform="translate(325.604801 322.182437)scale(0.1 -0.1)">
       <use xlink:href="#DejaVuSans-30"/>
       <use x="63.623047" xlink:href="#DejaVuSans-2e"/>
       <use x="95.410156" xlink:href="#DejaVuSans-38"/>
      </g>
     </g>
    </g>
    <g id="xtick_6">
     <g id="line2d_6">
      <g>
       <use style="stroke:#000000;stroke-width:0.8;" x="398.487273" xlink:href="#m7a3366dbfa" y="307.584"/>
      </g>
     </g>
     <g id="text_6">
      <!-- 1.0 -->
      <defs>
       <path d="M 12.40625 8.296875 
L 28.515625 8.296875 
L 28.515625 63.921875 
L 10.984375 60.40625 
L 10.984375 69.390625 
L 28.421875 72.90625 
L 38.28125 72.90625 
L 38.28125 8.296875 
L 54.390625 8.296875 
L 54.390625 0 
L 12.40625 0 
z
" id="DejaVuSans-31"/>
      </defs>
      <g transform="translate(390.53571 322.182437)scale(0.1 -0.1)">
       <use xlink:href="#DejaVuSans-31"/>
       <use x="63.623047" xlink:href="#DejaVuSans-2e"/>
       <use x="95.410156" xlink:href="#DejaVuSans-30"/>
      </g>
     </g>
    </g>
   </g>
   <g id="matplotlib.axis_2">
    <g id="ytick_1">
     <g id="line2d_7">
      <defs>
       <path d="M 0 0 
L -3.5 0 
" id="mf1c437827f" style="stroke:#000000;stroke-width:0.8;"/>
      </defs>
      <g>
       <use style="stroke:#000000;stroke-width:0.8;" x="57.6" xlink:href="#mf1c437827f" y="298.500628"/>
      </g>
     </g>
     <g id="text_7">
      <!-- 0.0 -->
      <g transform="translate(34.696875 302.299847)scale(0.1 -0.1)">
       <use xlink:href="#DejaVuSans-30"/>
       <use x="63.623047" xlink:href="#DejaVuSans-2e"/>
       <use x="95.410156" xlink:href="#DejaVuSans-30"/>
      </g>
     </g>
    </g>
    <g id="ytick_2">
     <g id="line2d_8">
      <g>
       <use style="stroke:#000000;stroke-width:0.8;" x="57.6" xlink:href="#mf1c437827f" y="268.79615"/>
      </g>
     </g>
     <g id="text_8">
      <!-- 0.1 -->
      <g transform="translate(34.696875 272.595368)scale(0.1 -0.1)">
       <use xlink:href="#DejaVuSans-30"/>
       <use x="63.623047" xlink:href="#DejaVuSans-2e"/>
       <use x="95.410156" xlink:href="#DejaVuSans-31"/>
      </g>
     </g>
    </g>
    <g id="ytick_3">
     <g id="line2d_9">
      <g>
       <use style="stroke:#000000;stroke-width:0.8;" x="57.6" xlink:href="#mf1c437827f" y="239.091671"/>
      </g>
     </g>
     <g id="text_9">
      <!-- 0.2 -->
      <g transform="translate(34.696875 242.89089)scale(0.1 -0.1)">
       <use xlink:href="#DejaVuSans-30"/>
       <use x="63.623047" xlink:href="#DejaVuSans-2e"/>
       <use x="95.410156" xlink:href="#DejaVuSans-32"/>
      </g>
     </g>
    </g>
    <g id="ytick_4">
     <g id="line2d_10">
      <g>
       <use style="stroke:#000000;stroke-width:0.8;" x="57.6" xlink:href="#mf1c437827f" y="209.387192"/>
      </g>
     </g>
     <g id="text_10">
      <!-- 0.3 -->
      <defs>
       <path d="M 40.578125 39.3125 
Q 47.65625 37.796875 51.625 33 
Q 55.609375 28.21875 55.609375 21.1875 
Q 55.609375 10.40625 48.1875 4.484375 
Q 40.765625 -1.421875 27.09375 -1.421875 
Q 22.515625 -1.421875 17.65625 -0.515625 
Q 12.796875 0.390625 7.625 2.203125 
L 7.625 11.71875 
Q 11.71875 9.328125 16.59375 8.109375 
Q 21.484375 6.890625 26.8125 6.890625 
Q 36.078125 6.890625 40.9375 10.546875 
Q 45.796875 14.203125 45.796875 21.1875 
Q 45.796875 27.640625 41.28125 31.265625 
Q 36.765625 34.90625 28.71875 34.90625 
L 20.21875 34.90625 
L 20.21875 43.015625 
L 29.109375 43.015625 
Q 36.375 43.015625 40.234375 45.921875 
Q 44.09375 48.828125 44.09375 54.296875 
Q 44.09375 59.90625 40.109375 62.90625 
Q 36.140625 65.921875 28.71875 65.921875 
Q 24.65625 65.921875 20.015625 65.03125 
Q 15.375 64.15625 9.8125 62.3125 
L 9.8125 71.09375 
Q 15.4375 72.65625 20.34375 73.4375 
Q 25.25 74.21875 29.59375 74.21875 
Q 40.828125 74.21875 47.359375 69.109375 
Q 53.90625 64.015625 53.90625 55.328125 
Q 53.90625 49.265625 50.4375 45.09375 
Q 46.96875 40.921875 40.578125 39.3125 
z
" id="DejaVuSans-33"/>
      </defs>
      <g transform="translate(34.696875 213.186411)scale(0.1 -0.1)">
       <use xlink:href="#DejaVuSans-30"/>
       <use x="63.623047" xlink:href="#DejaVuSans-2e"/>
       <use x="95.410156" xlink:href="#DejaVuSans-33"/>
      </g>
     </g>
    </g>
    <g id="ytick_5">
     <g id="line2d_11">
      <g>
       <use style="stroke:#000000;stroke-width:0.8;" x="57.6" xlink:href="#mf1c437827f" y="179.682714"/>
      </g>
     </g>
     <g id="text_11">
      <!-- 0.4 -->
      <g transform="translate(34.696875 183.481932)scale(0.1 -0.1)">
       <use xlink:href="#DejaVuSans-30"/>
       <use x="63.623047" xlink:href="#DejaVuSans-2e"/>
       <use x="95.410156" xlink:href="#DejaVuSans-34"/>
      </g>
     </g>
    </g>
    <g id="ytick_6">
     <g id="line2d_12">
      <g>
       <use style="stroke:#000000;stroke-width:0.8;" x="57.6" xlink:href="#mf1c437827f" y="149.978235"/>
      </g>
     </g>
     <g id="text_12">
      <!-- 0.5 -->
      <defs>
       <path d="M 10.796875 72.90625 
L 49.515625 72.90625 
L 49.515625 64.59375 
L 19.828125 64.59375 
L 19.828125 46.734375 
Q 21.96875 47.46875 24.109375 47.828125 
Q 26.265625 48.1875 28.421875 48.1875 
Q 40.625 48.1875 47.75 41.5 
Q 54.890625 34.8125 54.890625 23.390625 
Q 54.890625 11.625 47.5625 5.09375 
Q 40.234375 -1.421875 26.90625 -1.421875 
Q 22.3125 -1.421875 17.546875 -0.640625 
Q 12.796875 0.140625 7.71875 1.703125 
L 7.71875 11.625 
Q 12.109375 9.234375 16.796875 8.0625 
Q 21.484375 6.890625 26.703125 6.890625 
Q 35.15625 6.890625 40.078125 11.328125 
Q 45.015625 15.765625 45.015625 23.390625 
Q 45.015625 31 40.078125 35.4375 
Q 35.15625 39.890625 26.703125 39.890625 
Q 22.75 39.890625 18.8125 39.015625 
Q 14.890625 38.140625 10.796875 36.28125 
z
" id="DejaVuSans-35"/>
      </defs>
      <g transform="translate(34.696875 153.777454)scale(0.1 -0.1)">
       <use xlink:href="#DejaVuSans-30"/>
       <use x="63.623047" xlink:href="#DejaVuSans-2e"/>
       <use x="95.410156" xlink:href="#DejaVuSans-35"/>
      </g>
     </g>
    </g>
    <g id="ytick_7">
     <g id="line2d_13">
      <g>
       <use style="stroke:#000000;stroke-width:0.8;" x="57.6" xlink:href="#mf1c437827f" y="120.273756"/>
      </g>
     </g>
     <g id="text_13">
      <!-- 0.6 -->
      <g transform="translate(34.696875 124.072975)scale(0.1 -0.1)">
       <use xlink:href="#DejaVuSans-30"/>
       <use x="63.623047" xlink:href="#DejaVuSans-2e"/>
       <use x="95.410156" xlink:href="#DejaVuSans-36"/>
      </g>
     </g>
    </g>
    <g id="ytick_8">
     <g id="line2d_14">
      <g>
       <use style="stroke:#000000;stroke-width:0.8;" x="57.6" xlink:href="#mf1c437827f" y="90.569278"/>
      </g>
     </g>
     <g id="text_14">
      <!-- 0.7 -->
      <defs>
       <path d="M 8.203125 72.90625 
L 55.078125 72.90625 
L 55.078125 68.703125 
L 28.609375 0 
L 18.3125 0 
L 43.21875 64.59375 
L 8.203125 64.59375 
z
" id="DejaVuSans-37"/>
      </defs>
      <g transform="translate(34.696875 94.368496)scale(0.1 -0.1)">
       <use xlink:href="#DejaVuSans-30"/>
       <use x="63.623047" xlink:href="#DejaVuSans-2e"/>
       <use x="95.410156" xlink:href="#DejaVuSans-37"/>
      </g>
     </g>
    </g>
    <g id="ytick_9">
     <g id="line2d_15">
      <g>
       <use style="stroke:#000000;stroke-width:0.8;" x="57.6" xlink:href="#mf1c437827f" y="60.864799"/>
      </g>
     </g>
     <g id="text_15">
      <!-- 0.8 -->
      <g transform="translate(34.696875 64.664018)scale(0.1 -0.1)">
       <use xlink:href="#DejaVuSans-30"/>
       <use x="63.623047" xlink:href="#DejaVuSans-2e"/>
       <use x="95.410156" xlink:href="#DejaVuSans-38"/>
      </g>
     </g>
    </g>
   </g>
   <g id="line2d_16">
    <path clip-path="url(#p6ae288e723)" d="M 73.832727 151.886154 
L 75.48072 148.672723 
L 77.128713 154.497177 
L 78.776705 155.099584 
L 80.424698 168.55601 
L 82.07269 180.405721 
L 83.720683 189.644408 
L 85.368676 187.636088 
L 87.016668 183.217547 
L 88.664661 188.238495 
L 90.312653 192.054629 
L 91.960646 200.088205 
L 93.608639 203.70324 
L 95.256631 216.356457 
L 96.904624 230.013685 
L 100.200609 246.683542 
L 101.848602 251.70449 
L 103.496594 264.759311 
L 105.144587 270.583646 
L 106.79258 272.391223 
L 108.440572 274.600464 
L 110.088565 272.993749 
L 111.736557 272.391223 
L 113.38455 272.391223 
L 115.032543 275.604683 
L 116.680535 281.228246 
L 118.328528 282.834991 
L 119.976521 283.839181 
L 121.624513 286.851809 
L 123.272506 286.851809 
L 124.920498 287.856028 
L 126.568491 285.445926 
L 128.216484 284.240874 
L 129.864476 286.048451 
L 131.512469 285.847619 
L 133.160461 287.052641 
L 134.808454 287.253503 
L 136.456447 288.458554 
L 138.104439 286.851809 
L 139.752432 284.441706 
L 141.400425 281.228246 
L 143.048417 276.809735 
L 144.69641 265.361718 
L 146.344402 251.503687 
L 147.992395 239.854779 
L 149.640388 229.009377 
L 152.936373 198.079885 
L 154.584365 185.025064 
L 156.232358 173.97886 
L 157.880351 165.34258 
L 159.528343 155.90309 
L 161.176336 151.283747 
L 162.824329 147.26681 
L 164.472321 143.651775 
L 167.768306 132.605571 
L 171.064292 125.174401 
L 172.712284 127.182721 
L 174.360277 124.170093 
L 176.008269 125.375203 
L 177.656262 132.605571 
L 179.304255 139.032432 
L 180.952247 146.664403 
L 182.60024 147.066008 
L 184.248233 155.300683 
L 185.896225 167.551999 
L 187.544218 169.560318 
L 189.19221 170.966231 
L 190.840203 176.589883 
L 192.488196 181.610831 
L 194.136188 193.05864 
L 197.432174 204.908351 
L 199.080166 212.138718 
L 200.728159 214.950544 
L 202.376151 222.180911 
L 204.024144 227.603464 
L 205.672137 234.231424 
L 207.320129 238.047261 
L 208.968122 245.076826 
L 210.616114 246.884344 
L 213.9121 245.679233 
L 215.560092 247.085146 
L 217.208085 246.884344 
L 218.856078 243.068209 
L 222.152063 254.516316 
L 223.800055 257.729746 
L 225.448048 259.537264 
L 227.096041 268.173544 
L 228.744033 273.997938 
L 230.392026 275.604683 
L 232.040018 276.608903 
L 233.688011 275.805515 
L 235.336004 277.41226 
L 236.983996 277.211428 
L 238.631989 278.617312 
L 240.279982 282.031604 
L 243.575967 287.655167 
L 245.223959 289.663605 
L 246.871952 292.073708 
L 248.519945 292.877065 
L 250.167937 292.27454 
L 251.81593 291.27032 
L 253.463922 292.877065 
L 255.111915 293.077897 
L 256.759908 290.667795 
L 258.4079 288.458554 
L 260.055893 286.450115 
L 261.703886 282.634129 
L 263.351878 277.211428 
L 264.999871 269.378595 
L 266.647863 264.558509 
L 268.295856 253.311205 
L 269.943849 245.076826 
L 271.591841 239.05157 
L 273.239834 231.218796 
L 274.887826 222.783318 
L 276.535819 215.954853 
L 278.183812 214.950544 
L 279.831804 205.310253 
L 281.479797 197.276379 
L 283.12779 195.468862 
L 284.775782 191.050321 
L 286.423775 184.824262 
L 288.071767 171.167034 
L 289.71976 177.19229 
L 291.367753 178.999808 
L 293.015745 174.982871 
L 294.663738 169.560318 
L 296.311731 175.384773 
L 297.959723 191.050321 
L 299.607716 178.799005 
L 301.255708 173.175353 
L 302.903701 177.794697 
L 304.551694 188.037692 
L 306.199686 178.799005 
L 307.847679 172.372144 
L 309.495671 186.430977 
L 311.143664 197.477182 
L 312.791657 196.874775 
L 314.439649 194.866455 
L 316.087642 194.263751 
L 317.735635 200.289008 
L 319.383627 197.075577 
L 321.03162 191.853827 
L 322.679612 196.874775 
L 324.327605 205.310253 
L 325.975598 216.758062 
L 327.62359 211.536311 
L 329.271583 216.758062 
L 330.919575 227.402662 
L 335.863553 242.867407 
L 337.511546 257.127339 
L 339.159539 266.968433 
L 340.807531 270.382785 
L 342.455524 272.792887 
L 344.103516 276.006377 
L 345.751509 283.437517 
L 347.399502 286.851809 
L 349.047494 288.257692 
L 350.695487 290.466963 
L 352.343479 292.27454 
L 353.991472 292.475372 
L 355.639465 291.672014 
L 357.287457 291.672014 
L 358.93545 290.667795 
L 360.583443 291.471182 
L 362.231435 292.877065 
L 363.879428 293.479591 
L 365.52742 294.885474 
L 367.175413 295.488 
L 368.823406 295.488 
L 370.471398 293.680423 
L 372.119391 290.667795 
L 373.767383 288.458554 
L 375.415376 285.445926 
L 377.063369 280.826553 
L 378.711361 272.592055 
L 382.007347 249.69617 
L 383.655339 228.607772 
L 385.303332 213.544631 
L 386.951324 204.305944 
L 388.599317 198.48149 
L 390.24731 190.247111 
L 391.895302 180.807325 
L 393.543295 186.832582 
L 395.191287 190.648716 
L 396.83928 185.426669 
L 398.487273 177.593895 
L 398.487273 177.593895 
" style="fill:none;stroke:#1f77b4;stroke-linecap:square;stroke-width:1.5;"/>
   </g>
   <g id="line2d_17">
    <path clip-path="url(#p6ae288e723)" d="M 73.832727 178.79386 
L 75.48072 176.916743 
L 77.128713 176.134459 
L 78.776705 176.42288 
L 80.424698 177.232961 
L 82.07269 179.038012 
L 83.720683 181.441095 
L 85.368676 183.313121 
L 87.016668 183.397873 
L 88.664661 182.946113 
L 90.312653 183.300795 
L 91.960646 184.226524 
L 93.608639 185.540969 
L 95.256631 186.560873 
L 98.552617 190.631993 
L 100.200609 192.194986 
L 101.848602 193.256002 
L 103.496594 194.116922 
L 105.144587 195.207844 
L 106.79258 195.932184 
L 110.088565 196.365778 
L 115.032543 196.266686 
L 116.680535 196.453318 
L 118.328528 196.787232 
L 121.624513 197.083108 
L 126.568491 197.295521 
L 129.864476 197.154679 
L 139.752432 197.273934 
L 141.400425 197.174286 
L 144.69641 196.659809 
L 146.344402 195.824133 
L 147.992395 194.543522 
L 151.28838 191.291074 
L 152.936373 188.837733 
L 154.584365 186.040117 
L 157.880351 181.135722 
L 161.176336 177.569332 
L 162.824329 176.484996 
L 171.064292 172.292898 
L 172.712284 171.724093 
L 174.360277 171.673155 
L 176.008269 171.434092 
L 177.656262 171.650879 
L 179.304255 172.413715 
L 182.60024 174.897272 
L 184.248233 175.549252 
L 185.896225 176.78426 
L 187.544218 178.666744 
L 189.19221 179.761239 
L 190.840203 180.11379 
L 192.488196 180.940664 
L 194.136188 182.20492 
L 197.432174 185.441703 
L 200.728159 187.788655 
L 204.024144 189.584771 
L 205.672137 190.690971 
L 208.968122 192.323965 
L 210.616114 193.089087 
L 212.264107 193.466255 
L 213.9121 193.557524 
L 215.560092 193.459286 
L 217.208085 193.559906 
L 220.50407 193.330599 
L 222.152063 193.703193 
L 223.800055 194.31432 
L 228.744033 195.670586 
L 230.392026 196.213408 
L 232.040018 196.464773 
L 235.336004 196.565212 
L 240.279982 196.7156 
L 248.519945 197.507642 
L 251.81593 197.570301 
L 255.111915 197.56156 
L 258.4079 197.50806 
L 261.703886 197.264219 
L 263.351878 197.05571 
L 264.999871 196.734907 
L 268.295856 195.623591 
L 274.887826 191.586658 
L 276.535819 190.268884 
L 278.183812 189.155823 
L 279.831804 188.586926 
L 283.12779 185.792941 
L 286.423775 184.296148 
L 288.071767 182.913113 
L 289.71976 181.051218 
L 291.367753 181.130153 
L 293.015745 181.512844 
L 294.663738 180.995713 
L 296.311731 180.212108 
L 297.959723 181.108472 
L 299.607716 182.989785 
L 301.255708 182.180304 
L 302.903701 180.961984 
L 304.551694 181.472265 
L 306.199686 182.745737 
L 307.847679 182.004347 
L 309.495671 181.005194 
L 311.143664 182.70719 
L 312.791657 184.699439 
L 314.439649 185.306038 
L 316.087642 184.845136 
L 317.735635 184.964649 
L 319.383627 185.522496 
L 321.03162 185.299985 
L 322.679612 184.704297 
L 324.327605 185.064597 
L 325.975598 186.806297 
L 327.62359 188.197916 
L 329.271583 188.379819 
L 330.919575 188.886273 
L 332.567568 190.333078 
L 334.215561 191.413438 
L 337.511546 193.021758 
L 339.159539 194.391462 
L 340.807531 195.494649 
L 342.455524 195.969091 
L 350.695487 197.326274 
L 355.639465 197.569175 
L 362.231435 197.50849 
L 370.471398 197.711993 
L 375.415376 197.397107 
L 377.063369 197.235256 
L 378.711361 196.955556 
L 380.359354 196.391309 
L 382.007347 195.517284 
L 383.655339 194.082025 
L 385.303332 191.632733 
L 386.951324 188.944864 
L 388.599317 187.089978 
L 390.24731 185.762474 
L 393.543295 182.745853 
L 395.191287 183.044702 
L 396.83928 183.720789 
L 398.487273 183.145711 
L 398.487273 183.145711 
" style="fill:none;stroke:#ff7f0e;stroke-linecap:square;stroke-width:1.5;"/>
   </g>
   <g id="line2d_18">
    <path clip-path="url(#p6ae288e723)" d="M 73.832727 266.661793 
L 75.48072 267.488297 
L 77.128713 267.914691 
L 78.776705 267.957346 
L 80.424698 267.349322 
L 82.07269 266.609875 
L 83.720683 265.346028 
L 85.368676 264.452771 
L 87.016668 264.190057 
L 88.664661 264.421457 
L 90.312653 264.415856 
L 95.256631 262.934573 
L 96.904624 263.010678 
L 100.200609 262.501994 
L 101.848602 262.541294 
L 103.496594 263.657826 
L 105.144587 266.52127 
L 106.79258 267.92098 
L 110.088565 268.680572 
L 113.38455 268.36025 
L 115.032543 268.422951 
L 116.680535 269.00236 
L 118.328528 270.098933 
L 119.976521 270.689669 
L 121.624513 271.048048 
L 123.272506 271.670381 
L 126.568491 272.026259 
L 129.864476 271.194467 
L 131.512469 271.461625 
L 134.808454 271.797919 
L 138.104439 272.177435 
L 139.752432 271.874565 
L 141.400425 271.221267 
L 143.048417 270.394823 
L 144.69641 269.114595 
L 146.344402 266.274665 
L 147.992395 262.431285 
L 149.640388 262.187474 
L 151.28838 262.356679 
L 152.936373 262.354881 
L 154.584365 262.742408 
L 156.232358 264.001218 
L 157.880351 265.455835 
L 159.528343 266.479774 
L 162.824329 267.82818 
L 166.120314 268.69698 
L 167.768306 269.242891 
L 172.712284 270.060424 
L 176.008269 270.162452 
L 177.656262 270.054616 
L 179.304255 269.808624 
L 182.60024 268.757868 
L 184.248233 268.319364 
L 187.544218 266.792667 
L 189.19221 266.241917 
L 192.488196 265.627673 
L 194.136188 264.870805 
L 195.784181 264.239567 
L 197.432174 263.411363 
L 199.080166 262.993454 
L 204.024144 262.727543 
L 205.672137 262.692551 
L 208.968122 262.438254 
L 210.616114 262.492155 
L 215.560092 262.304318 
L 217.208085 262.410098 
L 218.856078 262.26874 
L 220.50407 262.287594 
L 222.152063 262.848118 
L 223.800055 263.73647 
L 225.448048 264.362153 
L 227.096041 265.55251 
L 228.744033 267.390133 
L 230.392026 268.579959 
L 232.040018 268.97966 
L 233.688011 269.109874 
L 235.336004 269.102814 
L 236.983996 269.333707 
L 238.631989 269.356997 
L 240.279982 269.71681 
L 241.927974 270.329754 
L 245.223959 271.992171 
L 248.519945 273.11532 
L 250.167937 273.357617 
L 253.463922 273.102843 
L 256.759908 273.414554 
L 261.703886 271.795951 
L 263.351878 270.739358 
L 266.647863 267.858225 
L 268.295856 265.99909 
L 269.943849 262.780963 
L 271.591841 262.187133 
L 281.479797 262.591127 
L 284.775782 263.526464 
L 286.423775 263.84305 
L 288.071767 264.502489 
L 289.71976 265.44616 
L 291.367753 265.536734 
L 293.015745 265.227857 
L 296.311731 265.989434 
L 299.607716 264.66351 
L 301.255708 264.804511 
L 302.903701 265.583741 
L 304.551694 265.284689 
L 306.199686 264.746139 
L 307.847679 264.926209 
L 309.495671 265.487008 
L 312.791657 263.740259 
L 314.439649 263.411646 
L 316.087642 263.608388 
L 317.735635 263.607533 
L 319.383627 263.42063 
L 321.03162 263.367444 
L 322.679612 263.638948 
L 324.327605 263.593354 
L 327.62359 262.784022 
L 329.271583 262.570376 
L 330.919575 262.837492 
L 337.511546 262.505973 
L 339.159539 264.949192 
L 340.807531 267.163943 
L 342.455524 267.906638 
L 344.103516 268.397402 
L 345.751509 269.098672 
L 347.399502 270.547356 
L 349.047494 271.725421 
L 350.695487 272.170947 
L 352.343479 272.740599 
L 353.991472 273.149601 
L 355.639465 273.256601 
L 360.583443 272.905251 
L 362.231435 273.053483 
L 367.175413 273.828266 
L 368.823406 274.016824 
L 370.471398 274.055891 
L 372.119391 273.661329 
L 373.767383 272.896647 
L 375.415376 272.263461 
L 377.063369 271.503743 
L 378.711361 270.289294 
L 380.359354 268.362569 
L 383.655339 261.916472 
L 388.599317 262.660366 
L 390.24731 263.034136 
L 393.543295 264.506343 
L 395.191287 264.496174 
L 396.83928 264.131118 
L 398.487273 264.298891 
L 398.487273 264.298891 
" style="fill:none;stroke:#2ca02c;stroke-linecap:square;stroke-width:1.5;"/>
   </g>
   <g id="line2d_19">
    <path clip-path="url(#p6ae288e723)" d="M 73.832727 76.42465 
L 75.48072 78.261775 
L 77.128713 78.506381 
L 80.424698 77.654431 
L 82.07269 75.702206 
L 83.720683 73.494618 
L 85.368676 72.06268 
L 87.016668 71.954996 
L 88.664661 72.521012 
L 90.312653 72.068099 
L 93.608639 70.646417 
L 95.256631 69.674133 
L 96.904624 68.132466 
L 98.552617 66.029373 
L 100.200609 64.312331 
L 101.848602 63.097854 
L 103.496594 62.147344 
L 105.144587 60.324689 
L 106.79258 58.695896 
L 108.440572 58.053968 
L 111.736557 57.773142 
L 113.38455 58.080456 
L 115.032543 58.016685 
L 116.680535 57.605351 
L 118.328528 56.568937 
L 119.976521 56.056093 
L 121.624513 55.819648 
L 123.272506 55.36965 
L 124.920498 55.157735 
L 126.568491 55.083009 
L 129.864476 55.5698 
L 136.456447 55.104699 
L 138.104439 54.954711 
L 139.752432 55.103362 
L 143.048417 56.013283 
L 144.69641 56.99276 
L 146.344402 58.921471 
L 147.992395 61.845902 
L 149.640388 64.059174 
L 151.28838 66.062101 
L 152.936373 68.589252 
L 154.584365 70.678633 
L 156.232358 72.176308 
L 159.528343 76.177881 
L 161.176336 77.490333 
L 162.824329 78.62008 
L 166.120314 79.690514 
L 169.416299 81.349121 
L 172.712284 82.251889 
L 174.360277 82.298083 
L 176.008269 82.578567 
L 177.656262 82.306142 
L 179.304255 81.199068 
L 180.952247 80.416403 
L 182.60024 79.347441 
L 184.248233 78.887812 
L 185.896225 77.635916 
L 187.544218 76.153831 
L 189.19221 75.374019 
L 190.840203 74.930727 
L 192.488196 74.313789 
L 195.784181 71.551431 
L 197.432174 70.823531 
L 199.080166 69.665912 
L 200.728159 68.730581 
L 202.376151 68.234963 
L 205.672137 66.208724 
L 207.320129 65.10696 
L 208.968122 64.360594 
L 210.616114 63.432393 
L 212.264107 63.050773 
L 217.208085 62.96096 
L 220.50407 63.307568 
L 222.152063 62.707716 
L 223.800055 61.820579 
L 225.448048 61.329339 
L 227.096041 60.664627 
L 230.392026 58.057036 
L 232.040018 57.437133 
L 233.688011 57.231118 
L 238.631989 57.012523 
L 240.279982 56.783645 
L 243.575967 55.737845 
L 245.223959 55.139659 
L 248.519945 54.39018 
L 250.167937 54.091811 
L 255.111915 54.20932 
L 256.759908 54.052873 
L 258.4079 54.341652 
L 263.351878 55.806325 
L 264.999871 56.820932 
L 266.647863 58.077908 
L 268.295856 59.574643 
L 269.943849 61.454808 
L 271.591841 63.160167 
L 273.239834 64.200048 
L 278.183812 68.172754 
L 279.831804 68.521654 
L 283.12779 70.934395 
L 284.775782 71.061114 
L 286.423775 71.506557 
L 288.071767 72.560379 
L 289.71976 74.480516 
L 291.367753 74.295876 
L 293.015745 73.54997 
L 294.663738 74.555044 
L 296.311731 75.059002 
L 297.959723 74.080518 
L 299.607716 72.101048 
L 301.255708 73.029874 
L 302.903701 74.719612 
L 304.551694 73.684301 
L 306.199686 72.483867 
L 307.847679 73.258974 
L 309.495671 74.526995 
L 311.143664 72.538523 
L 312.791657 71.055497 
L 314.439649 70.936342 
L 317.735635 71.086144 
L 319.383627 70.680139 
L 321.03162 71.062233 
L 322.679612 71.189447 
L 324.327605 71.093337 
L 325.975598 69.319796 
L 327.62359 68.44767 
L 329.271583 68.566223 
L 330.919575 68.052246 
L 332.567568 66.46387 
L 334.215561 65.314021 
L 335.863553 64.476995 
L 337.511546 63.348796 
L 339.159539 61.696556 
L 340.807531 59.715432 
L 342.455524 58.548537 
L 344.103516 58.137218 
L 345.751509 57.466225 
L 349.047494 55.246507 
L 355.639465 54.163075 
L 362.231435 54.339868 
L 368.823406 53.590813 
L 370.471398 53.568 
L 372.119391 53.820037 
L 378.711361 56.104459 
L 380.359354 57.669724 
L 382.007347 59.745361 
L 383.655339 62.508661 
L 385.303332 65.701737 
L 386.951324 68.501916 
L 390.24731 70.776352 
L 391.895302 71.618101 
L 393.543295 72.736643 
L 395.191287 72.404458 
L 396.83928 71.634736 
L 398.487273 72.321828 
L 398.487273 72.321828 
" style="fill:none;stroke:#d62728;stroke-linecap:square;stroke-width:1.5;"/>
   </g>
   <g id="patch_3">
    <path d="M 57.6 307.584 
L 57.6 41.472 
" style="fill:none;stroke:#000000;stroke-linecap:square;stroke-linejoin:miter;stroke-width:0.8;"/>
   </g>
   <g id="patch_4">
    <path d="M 414.72 307.584 
L 414.72 41.472 
" style="fill:none;stroke:#000000;stroke-linecap:square;stroke-linejoin:miter;stroke-width:0.8;"/>
   </g>
   <g id="patch_5">
    <path d="M 57.6 307.584 
L 414.72 307.584 
" style="fill:none;stroke:#000000;stroke-linecap:square;stroke-linejoin:miter;stroke-width:0.8;"/>
   </g>
   <g id="patch_6">
    <path d="M 57.6 41.472 
L 414.72 41.472 
" style="fill:none;stroke:#000000;stroke-linecap:square;stroke-linejoin:miter;stroke-width:0.8;"/>
   </g>
   <g id="text_16">
    <!-- Plot of Test Data vs MCMC Uncertainty  -->
    <defs>
     <path d="M 19.671875 64.796875 
L 19.671875 37.40625 
L 32.078125 37.40625 
Q 38.96875 37.40625 42.71875 40.96875 
Q 46.484375 44.53125 46.484375 51.125 
Q 46.484375 57.671875 42.71875 61.234375 
Q 38.96875 64.796875 32.078125 64.796875 
z
M 9.8125 72.90625 
L 32.078125 72.90625 
Q 44.34375 72.90625 50.609375 67.359375 
Q 56.890625 61.8125 56.890625 51.125 
Q 56.890625 40.328125 50.609375 34.8125 
Q 44.34375 29.296875 32.078125 29.296875 
L 19.671875 29.296875 
L 19.671875 0 
L 9.8125 0 
z
" id="DejaVuSans-50"/>
     <path d="M 9.421875 75.984375 
L 18.40625 75.984375 
L 18.40625 0 
L 9.421875 0 
z
" id="DejaVuSans-6c"/>
     <path d="M 30.609375 48.390625 
Q 23.390625 48.390625 19.1875 42.75 
Q 14.984375 37.109375 14.984375 27.296875 
Q 14.984375 17.484375 19.15625 11.84375 
Q 23.34375 6.203125 30.609375 6.203125 
Q 37.796875 6.203125 41.984375 11.859375 
Q 46.1875 17.53125 46.1875 27.296875 
Q 46.1875 37.015625 41.984375 42.703125 
Q 37.796875 48.390625 30.609375 48.390625 
z
M 30.609375 56 
Q 42.328125 56 49.015625 48.375 
Q 55.71875 40.765625 55.71875 27.296875 
Q 55.71875 13.875 49.015625 6.21875 
Q 42.328125 -1.421875 30.609375 -1.421875 
Q 18.84375 -1.421875 12.171875 6.21875 
Q 5.515625 13.875 5.515625 27.296875 
Q 5.515625 40.765625 12.171875 48.375 
Q 18.84375 56 30.609375 56 
z
" id="DejaVuSans-6f"/>
     <path d="M 18.3125 70.21875 
L 18.3125 54.6875 
L 36.8125 54.6875 
L 36.8125 47.703125 
L 18.3125 47.703125 
L 18.3125 18.015625 
Q 18.3125 11.328125 20.140625 9.421875 
Q 21.96875 7.515625 27.59375 7.515625 
L 36.8125 7.515625 
L 36.8125 0 
L 27.59375 0 
Q 17.1875 0 13.234375 3.875 
Q 9.28125 7.765625 9.28125 18.015625 
L 9.28125 47.703125 
L 2.6875 47.703125 
L 2.6875 54.6875 
L 9.28125 54.6875 
L 9.28125 70.21875 
z
" id="DejaVuSans-74"/>
     <path id="DejaVuSans-20"/>
     <path d="M 37.109375 75.984375 
L 37.109375 68.5 
L 28.515625 68.5 
Q 23.6875 68.5 21.796875 66.546875 
Q 19.921875 64.59375 19.921875 59.515625 
L 19.921875 54.6875 
L 34.71875 54.6875 
L 34.71875 47.703125 
L 19.921875 47.703125 
L 19.921875 0 
L 10.890625 0 
L 10.890625 47.703125 
L 2.296875 47.703125 
L 2.296875 54.6875 
L 10.890625 54.6875 
L 10.890625 58.5 
Q 10.890625 67.625 15.140625 71.796875 
Q 19.390625 75.984375 28.609375 75.984375 
z
" id="DejaVuSans-66"/>
     <path d="M -0.296875 72.90625 
L 61.375 72.90625 
L 61.375 64.59375 
L 35.5 64.59375 
L 35.5 0 
L 25.59375 0 
L 25.59375 64.59375 
L -0.296875 64.59375 
z
" id="DejaVuSans-54"/>
     <path d="M 56.203125 29.59375 
L 56.203125 25.203125 
L 14.890625 25.203125 
Q 15.484375 15.921875 20.484375 11.0625 
Q 25.484375 6.203125 34.421875 6.203125 
Q 39.59375 6.203125 44.453125 7.46875 
Q 49.3125 8.734375 54.109375 11.28125 
L 54.109375 2.78125 
Q 49.265625 0.734375 44.1875 -0.34375 
Q 39.109375 -1.421875 33.890625 -1.421875 
Q 20.796875 -1.421875 13.15625 6.1875 
Q 5.515625 13.8125 5.515625 26.8125 
Q 5.515625 40.234375 12.765625 48.109375 
Q 20.015625 56 32.328125 56 
Q 43.359375 56 49.78125 48.890625 
Q 56.203125 41.796875 56.203125 29.59375 
z
M 47.21875 32.234375 
Q 47.125 39.59375 43.09375 43.984375 
Q 39.0625 48.390625 32.421875 48.390625 
Q 24.90625 48.390625 20.390625 44.140625 
Q 15.875 39.890625 15.1875 32.171875 
z
" id="DejaVuSans-65"/>
     <path d="M 44.28125 53.078125 
L 44.28125 44.578125 
Q 40.484375 46.53125 36.375 47.5 
Q 32.28125 48.484375 27.875 48.484375 
Q 21.1875 48.484375 17.84375 46.4375 
Q 14.5 44.390625 14.5 40.28125 
Q 14.5 37.15625 16.890625 35.375 
Q 19.28125 33.59375 26.515625 31.984375 
L 29.59375 31.296875 
Q 39.15625 29.25 43.1875 25.515625 
Q 47.21875 21.78125 47.21875 15.09375 
Q 47.21875 7.46875 41.1875 3.015625 
Q 35.15625 -1.421875 24.609375 -1.421875 
Q 20.21875 -1.421875 15.453125 -0.5625 
Q 10.6875 0.296875 5.421875 2 
L 5.421875 11.28125 
Q 10.40625 8.6875 15.234375 7.390625 
Q 20.0625 6.109375 24.8125 6.109375 
Q 31.15625 6.109375 34.5625 8.28125 
Q 37.984375 10.453125 37.984375 14.40625 
Q 37.984375 18.0625 35.515625 20.015625 
Q 33.0625 21.96875 24.703125 23.78125 
L 21.578125 24.515625 
Q 13.234375 26.265625 9.515625 29.90625 
Q 5.8125 33.546875 5.8125 39.890625 
Q 5.8125 47.609375 11.28125 51.796875 
Q 16.75 56 26.8125 56 
Q 31.78125 56 36.171875 55.265625 
Q 40.578125 54.546875 44.28125 53.078125 
z
" id="DejaVuSans-73"/>
     <path d="M 19.671875 64.796875 
L 19.671875 8.109375 
L 31.59375 8.109375 
Q 46.6875 8.109375 53.6875 14.9375 
Q 60.6875 21.78125 60.6875 36.53125 
Q 60.6875 51.171875 53.6875 57.984375 
Q 46.6875 64.796875 31.59375 64.796875 
z
M 9.8125 72.90625 
L 30.078125 72.90625 
Q 51.265625 72.90625 61.171875 64.09375 
Q 71.09375 55.28125 71.09375 36.53125 
Q 71.09375 17.671875 61.125 8.828125 
Q 51.171875 0 30.078125 0 
L 9.8125 0 
z
" id="DejaVuSans-44"/>
     <path d="M 34.28125 27.484375 
Q 23.390625 27.484375 19.1875 25 
Q 14.984375 22.515625 14.984375 16.5 
Q 14.984375 11.71875 18.140625 8.90625 
Q 21.296875 6.109375 26.703125 6.109375 
Q 34.1875 6.109375 38.703125 11.40625 
Q 43.21875 16.703125 43.21875 25.484375 
L 43.21875 27.484375 
z
M 52.203125 31.203125 
L 52.203125 0 
L 43.21875 0 
L 43.21875 8.296875 
Q 40.140625 3.328125 35.546875 0.953125 
Q 30.953125 -1.421875 24.3125 -1.421875 
Q 15.921875 -1.421875 10.953125 3.296875 
Q 6 8.015625 6 15.921875 
Q 6 25.140625 12.171875 29.828125 
Q 18.359375 34.515625 30.609375 34.515625 
L 43.21875 34.515625 
L 43.21875 35.40625 
Q 43.21875 41.609375 39.140625 45 
Q 35.0625 48.390625 27.6875 48.390625 
Q 23 48.390625 18.546875 47.265625 
Q 14.109375 46.140625 10.015625 43.890625 
L 10.015625 52.203125 
Q 14.9375 54.109375 19.578125 55.046875 
Q 24.21875 56 28.609375 56 
Q 40.484375 56 46.34375 49.84375 
Q 52.203125 43.703125 52.203125 31.203125 
z
" id="DejaVuSans-61"/>
     <path d="M 2.984375 54.6875 
L 12.5 54.6875 
L 29.59375 8.796875 
L 46.6875 54.6875 
L 56.203125 54.6875 
L 35.6875 0 
L 23.484375 0 
z
" id="DejaVuSans-76"/>
     <path d="M 9.8125 72.90625 
L 24.515625 72.90625 
L 43.109375 23.296875 
L 61.8125 72.90625 
L 76.515625 72.90625 
L 76.515625 0 
L 66.890625 0 
L 66.890625 64.015625 
L 48.09375 14.015625 
L 38.1875 14.015625 
L 19.390625 64.015625 
L 19.390625 0 
L 9.8125 0 
z
" id="DejaVuSans-4d"/>
     <path d="M 64.40625 67.28125 
L 64.40625 56.890625 
Q 59.421875 61.53125 53.78125 63.8125 
Q 48.140625 66.109375 41.796875 66.109375 
Q 29.296875 66.109375 22.65625 58.46875 
Q 16.015625 50.828125 16.015625 36.375 
Q 16.015625 21.96875 22.65625 14.328125 
Q 29.296875 6.6875 41.796875 6.6875 
Q 48.140625 6.6875 53.78125 8.984375 
Q 59.421875 11.28125 64.40625 15.921875 
L 64.40625 5.609375 
Q 59.234375 2.09375 53.4375 0.328125 
Q 47.65625 -1.421875 41.21875 -1.421875 
Q 24.65625 -1.421875 15.125 8.703125 
Q 5.609375 18.84375 5.609375 36.375 
Q 5.609375 53.953125 15.125 64.078125 
Q 24.65625 74.21875 41.21875 74.21875 
Q 47.75 74.21875 53.53125 72.484375 
Q 59.328125 70.75 64.40625 67.28125 
z
" id="DejaVuSans-43"/>
     <path d="M 8.6875 72.90625 
L 18.609375 72.90625 
L 18.609375 28.609375 
Q 18.609375 16.890625 22.84375 11.734375 
Q 27.09375 6.59375 36.625 6.59375 
Q 46.09375 6.59375 50.34375 11.734375 
Q 54.59375 16.890625 54.59375 28.609375 
L 54.59375 72.90625 
L 64.5 72.90625 
L 64.5 27.390625 
Q 64.5 13.140625 57.4375 5.859375 
Q 50.390625 -1.421875 36.625 -1.421875 
Q 22.796875 -1.421875 15.734375 5.859375 
Q 8.6875 13.140625 8.6875 27.390625 
z
" id="DejaVuSans-55"/>
     <path d="M 54.890625 33.015625 
L 54.890625 0 
L 45.90625 0 
L 45.90625 32.71875 
Q 45.90625 40.484375 42.875 44.328125 
Q 39.84375 48.1875 33.796875 48.1875 
Q 26.515625 48.1875 22.3125 43.546875 
Q 18.109375 38.921875 18.109375 30.90625 
L 18.109375 0 
L 9.078125 0 
L 9.078125 54.6875 
L 18.109375 54.6875 
L 18.109375 46.1875 
Q 21.34375 51.125 25.703125 53.5625 
Q 30.078125 56 35.796875 56 
Q 45.21875 56 50.046875 50.171875 
Q 54.890625 44.34375 54.890625 33.015625 
z
" id="DejaVuSans-6e"/>
     <path d="M 48.78125 52.59375 
L 48.78125 44.1875 
Q 44.96875 46.296875 41.140625 47.34375 
Q 37.3125 48.390625 33.40625 48.390625 
Q 24.65625 48.390625 19.8125 42.84375 
Q 14.984375 37.3125 14.984375 27.296875 
Q 14.984375 17.28125 19.8125 11.734375 
Q 24.65625 6.203125 33.40625 6.203125 
Q 37.3125 6.203125 41.140625 7.25 
Q 44.96875 8.296875 48.78125 10.40625 
L 48.78125 2.09375 
Q 45.015625 0.34375 40.984375 -0.53125 
Q 36.96875 -1.421875 32.421875 -1.421875 
Q 20.0625 -1.421875 12.78125 6.34375 
Q 5.515625 14.109375 5.515625 27.296875 
Q 5.515625 40.671875 12.859375 48.328125 
Q 20.21875 56 33.015625 56 
Q 37.15625 56 41.109375 55.140625 
Q 45.0625 54.296875 48.78125 52.59375 
z
" id="DejaVuSans-63"/>
     <path d="M 41.109375 46.296875 
Q 39.59375 47.171875 37.8125 47.578125 
Q 36.03125 48 33.890625 48 
Q 26.265625 48 22.1875 43.046875 
Q 18.109375 38.09375 18.109375 28.8125 
L 18.109375 0 
L 9.078125 0 
L 9.078125 54.6875 
L 18.109375 54.6875 
L 18.109375 46.1875 
Q 20.953125 51.171875 25.484375 53.578125 
Q 30.03125 56 36.53125 56 
Q 37.453125 56 38.578125 55.875 
Q 39.703125 55.765625 41.0625 55.515625 
z
" id="DejaVuSans-72"/>
     <path d="M 9.421875 54.6875 
L 18.40625 54.6875 
L 18.40625 0 
L 9.421875 0 
z
M 9.421875 75.984375 
L 18.40625 75.984375 
L 18.40625 64.59375 
L 9.421875 64.59375 
z
" id="DejaVuSans-69"/>
     <path d="M 32.171875 -5.078125 
Q 28.375 -14.84375 24.75 -17.8125 
Q 21.140625 -20.796875 15.09375 -20.796875 
L 7.90625 -20.796875 
L 7.90625 -13.28125 
L 13.1875 -13.28125 
Q 16.890625 -13.28125 18.9375 -11.515625 
Q 21 -9.765625 23.484375 -3.21875 
L 25.09375 0.875 
L 2.984375 54.6875 
L 12.5 54.6875 
L 29.59375 11.921875 
L 46.6875 54.6875 
L 56.203125 54.6875 
z
" id="DejaVuSans-79"/>
    </defs>
    <g transform="translate(118.112813 35.472)scale(0.12 -0.12)">
     <use xlink:href="#DejaVuSans-50"/>
     <use x="60.302734" xlink:href="#DejaVuSans-6c"/>
     <use x="88.085938" xlink:href="#DejaVuSans-6f"/>
     <use x="149.267578" xlink:href="#DejaVuSans-74"/>
     <use x="188.476562" xlink:href="#DejaVuSans-20"/>
     <use x="220.263672" xlink:href="#DejaVuSans-6f"/>
     <use x="281.445312" xlink:href="#DejaVuSans-66"/>
     <use x="316.650391" xlink:href="#DejaVuSans-20"/>
     <use x="348.4375" xlink:href="#DejaVuSans-54"/>
     <use x="409.255859" xlink:href="#DejaVuSans-65"/>
     <use x="470.779297" xlink:href="#DejaVuSans-73"/>
     <use x="522.878906" xlink:href="#DejaVuSans-74"/>
     <use x="562.087891" xlink:href="#DejaVuSans-20"/>
     <use x="593.875" xlink:href="#DejaVuSans-44"/>
     <use x="670.876953" xlink:href="#DejaVuSans-61"/>
     <use x="732.15625" xlink:href="#DejaVuSans-74"/>
     <use x="771.365234" xlink:href="#DejaVuSans-61"/>
     <use x="832.644531" xlink:href="#DejaVuSans-20"/>
     <use x="864.431641" xlink:href="#DejaVuSans-76"/>
     <use x="923.611328" xlink:href="#DejaVuSans-73"/>
     <use x="975.710938" xlink:href="#DejaVuSans-20"/>
     <use x="1007.498047" xlink:href="#DejaVuSans-4d"/>
     <use x="1093.777344" xlink:href="#DejaVuSans-43"/>
     <use x="1163.601562" xlink:href="#DejaVuSans-4d"/>
     <use x="1249.880859" xlink:href="#DejaVuSans-43"/>
     <use x="1319.705078" xlink:href="#DejaVuSans-20"/>
     <use x="1351.492188" xlink:href="#DejaVuSans-55"/>
     <use x="1424.685547" xlink:href="#DejaVuSans-6e"/>
     <use x="1488.064453" xlink:href="#DejaVuSans-63"/>
     <use x="1543.044922" xlink:href="#DejaVuSans-65"/>
     <use x="1604.568359" xlink:href="#DejaVuSans-72"/>
     <use x="1645.681641" xlink:href="#DejaVuSans-74"/>
     <use x="1684.890625" xlink:href="#DejaVuSans-61"/>
     <use x="1746.169922" xlink:href="#DejaVuSans-69"/>
     <use x="1773.953125" xlink:href="#DejaVuSans-6e"/>
     <use x="1837.332031" xlink:href="#DejaVuSans-74"/>
     <use x="1876.541016" xlink:href="#DejaVuSans-79"/>
     <use x="1935.720703" xlink:href="#DejaVuSans-20"/>
    </g>
   </g>
   <g id="legend_1">
    <g id="patch_7">
     <path d="M 277.843437 108.1845 
L 407.72 108.1845 
Q 409.72 108.1845 409.72 106.1845 
L 409.72 48.472 
Q 409.72 46.472 407.72 46.472 
L 277.843437 46.472 
Q 275.843437 46.472 275.843437 48.472 
L 275.843437 106.1845 
Q 275.843437 108.1845 277.843437 108.1845 
z
" style="fill:#ffffff;opacity:0.8;stroke:#cccccc;stroke-linejoin:miter;"/>
    </g>
    <g id="line2d_20">
     <path d="M 279.843437 54.570438 
L 299.843437 54.570438 
" style="fill:none;stroke:#1f77b4;stroke-linecap:square;stroke-width:1.5;"/>
    </g>
    <g id="line2d_21"/>
    <g id="text_17">
     <!-- actual -->
     <defs>
      <path d="M 8.5 21.578125 
L 8.5 54.6875 
L 17.484375 54.6875 
L 17.484375 21.921875 
Q 17.484375 14.15625 20.5 10.265625 
Q 23.53125 6.390625 29.59375 6.390625 
Q 36.859375 6.390625 41.078125 11.03125 
Q 45.3125 15.671875 45.3125 23.6875 
L 45.3125 54.6875 
L 54.296875 54.6875 
L 54.296875 0 
L 45.3125 0 
L 45.3125 8.40625 
Q 42.046875 3.421875 37.71875 1 
Q 33.40625 -1.421875 27.6875 -1.421875 
Q 18.265625 -1.421875 13.375 4.4375 
Q 8.5 10.296875 8.5 21.578125 
z
M 31.109375 56 
z
" id="DejaVuSans-75"/>
     </defs>
     <g transform="translate(307.843437 58.070438)scale(0.1 -0.1)">
      <use xlink:href="#DejaVuSans-61"/>
      <use x="61.279297" xlink:href="#DejaVuSans-63"/>
      <use x="116.259766" xlink:href="#DejaVuSans-74"/>
      <use x="155.46875" xlink:href="#DejaVuSans-75"/>
      <use x="218.847656" xlink:href="#DejaVuSans-61"/>
      <use x="280.126953" xlink:href="#DejaVuSans-6c"/>
     </g>
    </g>
    <g id="line2d_22">
     <path d="M 279.843437 69.248563 
L 299.843437 69.248563 
" style="fill:none;stroke:#ff7f0e;stroke-linecap:square;stroke-width:1.5;"/>
    </g>
    <g id="line2d_23"/>
    <g id="text_18">
     <!-- pred. (mean) -->
     <defs>
      <path d="M 18.109375 8.203125 
L 18.109375 -20.796875 
L 9.078125 -20.796875 
L 9.078125 54.6875 
L 18.109375 54.6875 
L 18.109375 46.390625 
Q 20.953125 51.265625 25.265625 53.625 
Q 29.59375 56 35.59375 56 
Q 45.5625 56 51.78125 48.09375 
Q 58.015625 40.1875 58.015625 27.296875 
Q 58.015625 14.40625 51.78125 6.484375 
Q 45.5625 -1.421875 35.59375 -1.421875 
Q 29.59375 -1.421875 25.265625 0.953125 
Q 20.953125 3.328125 18.109375 8.203125 
z
M 48.6875 27.296875 
Q 48.6875 37.203125 44.609375 42.84375 
Q 40.53125 48.484375 33.40625 48.484375 
Q 26.265625 48.484375 22.1875 42.84375 
Q 18.109375 37.203125 18.109375 27.296875 
Q 18.109375 17.390625 22.1875 11.75 
Q 26.265625 6.109375 33.40625 6.109375 
Q 40.53125 6.109375 44.609375 11.75 
Q 48.6875 17.390625 48.6875 27.296875 
z
" id="DejaVuSans-70"/>
      <path d="M 45.40625 46.390625 
L 45.40625 75.984375 
L 54.390625 75.984375 
L 54.390625 0 
L 45.40625 0 
L 45.40625 8.203125 
Q 42.578125 3.328125 38.25 0.953125 
Q 33.9375 -1.421875 27.875 -1.421875 
Q 17.96875 -1.421875 11.734375 6.484375 
Q 5.515625 14.40625 5.515625 27.296875 
Q 5.515625 40.1875 11.734375 48.09375 
Q 17.96875 56 27.875 56 
Q 33.9375 56 38.25 53.625 
Q 42.578125 51.265625 45.40625 46.390625 
z
M 14.796875 27.296875 
Q 14.796875 17.390625 18.875 11.75 
Q 22.953125 6.109375 30.078125 6.109375 
Q 37.203125 6.109375 41.296875 11.75 
Q 45.40625 17.390625 45.40625 27.296875 
Q 45.40625 37.203125 41.296875 42.84375 
Q 37.203125 48.484375 30.078125 48.484375 
Q 22.953125 48.484375 18.875 42.84375 
Q 14.796875 37.203125 14.796875 27.296875 
z
" id="DejaVuSans-64"/>
      <path d="M 31 75.875 
Q 24.46875 64.65625 21.28125 53.65625 
Q 18.109375 42.671875 18.109375 31.390625 
Q 18.109375 20.125 21.3125 9.0625 
Q 24.515625 -2 31 -13.1875 
L 23.1875 -13.1875 
Q 15.875 -1.703125 12.234375 9.375 
Q 8.59375 20.453125 8.59375 31.390625 
Q 8.59375 42.28125 12.203125 53.3125 
Q 15.828125 64.359375 23.1875 75.875 
z
" id="DejaVuSans-28"/>
      <path d="M 52 44.1875 
Q 55.375 50.25 60.0625 53.125 
Q 64.75 56 71.09375 56 
Q 79.640625 56 84.28125 50.015625 
Q 88.921875 44.046875 88.921875 33.015625 
L 88.921875 0 
L 79.890625 0 
L 79.890625 32.71875 
Q 79.890625 40.578125 77.09375 44.375 
Q 74.3125 48.1875 68.609375 48.1875 
Q 61.625 48.1875 57.5625 43.546875 
Q 53.515625 38.921875 53.515625 30.90625 
L 53.515625 0 
L 44.484375 0 
L 44.484375 32.71875 
Q 44.484375 40.625 41.703125 44.40625 
Q 38.921875 48.1875 33.109375 48.1875 
Q 26.21875 48.1875 22.15625 43.53125 
Q 18.109375 38.875 18.109375 30.90625 
L 18.109375 0 
L 9.078125 0 
L 9.078125 54.6875 
L 18.109375 54.6875 
L 18.109375 46.1875 
Q 21.1875 51.21875 25.484375 53.609375 
Q 29.78125 56 35.6875 56 
Q 41.65625 56 45.828125 52.96875 
Q 50 49.953125 52 44.1875 
z
" id="DejaVuSans-6d"/>
      <path d="M 8.015625 75.875 
L 15.828125 75.875 
Q 23.140625 64.359375 26.78125 53.3125 
Q 30.421875 42.28125 30.421875 31.390625 
Q 30.421875 20.453125 26.78125 9.375 
Q 23.140625 -1.703125 15.828125 -13.1875 
L 8.015625 -13.1875 
Q 14.5 -2 17.703125 9.0625 
Q 20.90625 20.125 20.90625 31.390625 
Q 20.90625 42.671875 17.703125 53.65625 
Q 14.5 64.65625 8.015625 75.875 
z
" id="DejaVuSans-29"/>
     </defs>
     <g transform="translate(307.843437 72.748563)scale(0.1 -0.1)">
      <use xlink:href="#DejaVuSans-70"/>
      <use x="63.476562" xlink:href="#DejaVuSans-72"/>
      <use x="104.558594" xlink:href="#DejaVuSans-65"/>
      <use x="166.082031" xlink:href="#DejaVuSans-64"/>
      <use x="229.558594" xlink:href="#DejaVuSans-2e"/>
      <use x="261.345703" xlink:href="#DejaVuSans-20"/>
      <use x="293.132812" xlink:href="#DejaVuSans-28"/>
      <use x="332.146484" xlink:href="#DejaVuSans-6d"/>
      <use x="429.558594" xlink:href="#DejaVuSans-65"/>
      <use x="491.082031" xlink:href="#DejaVuSans-61"/>
      <use x="552.361328" xlink:href="#DejaVuSans-6e"/>
      <use x="615.740234" xlink:href="#DejaVuSans-29"/>
     </g>
    </g>
    <g id="line2d_24">
     <path d="M 279.843437 83.926688 
L 299.843437 83.926688 
" style="fill:none;stroke:#2ca02c;stroke-linecap:square;stroke-width:1.5;"/>
    </g>
    <g id="line2d_25"/>
    <g id="text_19">
     <!-- pred.(5th percen.) -->
     <defs>
      <path d="M 54.890625 33.015625 
L 54.890625 0 
L 45.90625 0 
L 45.90625 32.71875 
Q 45.90625 40.484375 42.875 44.328125 
Q 39.84375 48.1875 33.796875 48.1875 
Q 26.515625 48.1875 22.3125 43.546875 
Q 18.109375 38.921875 18.109375 30.90625 
L 18.109375 0 
L 9.078125 0 
L 9.078125 75.984375 
L 18.109375 75.984375 
L 18.109375 46.1875 
Q 21.34375 51.125 25.703125 53.5625 
Q 30.078125 56 35.796875 56 
Q 45.21875 56 50.046875 50.171875 
Q 54.890625 44.34375 54.890625 33.015625 
z
" id="DejaVuSans-68"/>
     </defs>
     <g transform="translate(307.843437 87.426688)scale(0.1 -0.1)">
      <use xlink:href="#DejaVuSans-70"/>
      <use x="63.476562" xlink:href="#DejaVuSans-72"/>
      <use x="104.558594" xlink:href="#DejaVuSans-65"/>
      <use x="166.082031" xlink:href="#DejaVuSans-64"/>
      <use x="229.558594" xlink:href="#DejaVuSans-2e"/>
      <use x="261.345703" xlink:href="#DejaVuSans-28"/>
      <use x="300.359375" xlink:href="#DejaVuSans-35"/>
      <use x="363.982422" xlink:href="#DejaVuSans-74"/>
      <use x="403.191406" xlink:href="#DejaVuSans-68"/>
      <use x="466.570312" xlink:href="#DejaVuSans-20"/>
      <use x="498.357422" xlink:href="#DejaVuSans-70"/>
      <use x="561.833984" xlink:href="#DejaVuSans-65"/>
      <use x="623.357422" xlink:href="#DejaVuSans-72"/>
      <use x="664.439453" xlink:href="#DejaVuSans-63"/>
      <use x="719.419922" xlink:href="#DejaVuSans-65"/>
      <use x="780.943359" xlink:href="#DejaVuSans-6e"/>
      <use x="844.322266" xlink:href="#DejaVuSans-2e"/>
      <use x="876.109375" xlink:href="#DejaVuSans-29"/>
     </g>
    </g>
    <g id="line2d_26">
     <path d="M 279.843437 98.604813 
L 299.843437 98.604813 
" style="fill:none;stroke:#d62728;stroke-linecap:square;stroke-width:1.5;"/>
    </g>
    <g id="line2d_27"/>
    <g id="text_20">
     <!-- pred.(95th percen.) -->
     <defs>
      <path d="M 10.984375 1.515625 
L 10.984375 10.5 
Q 14.703125 8.734375 18.5 7.8125 
Q 22.3125 6.890625 25.984375 6.890625 
Q 35.75 6.890625 40.890625 13.453125 
Q 46.046875 20.015625 46.78125 33.40625 
Q 43.953125 29.203125 39.59375 26.953125 
Q 35.25 24.703125 29.984375 24.703125 
Q 19.046875 24.703125 12.671875 31.3125 
Q 6.296875 37.9375 6.296875 49.421875 
Q 6.296875 60.640625 12.9375 67.421875 
Q 19.578125 74.21875 30.609375 74.21875 
Q 43.265625 74.21875 49.921875 64.515625 
Q 56.59375 54.828125 56.59375 36.375 
Q 56.59375 19.140625 48.40625 8.859375 
Q 40.234375 -1.421875 26.421875 -1.421875 
Q 22.703125 -1.421875 18.890625 -0.6875 
Q 15.09375 0.046875 10.984375 1.515625 
z
M 30.609375 32.421875 
Q 37.25 32.421875 41.125 36.953125 
Q 45.015625 41.5 45.015625 49.421875 
Q 45.015625 57.28125 41.125 61.84375 
Q 37.25 66.40625 30.609375 66.40625 
Q 23.96875 66.40625 20.09375 61.84375 
Q 16.21875 57.28125 16.21875 49.421875 
Q 16.21875 41.5 20.09375 36.953125 
Q 23.96875 32.421875 30.609375 32.421875 
z
" id="DejaVuSans-39"/>
     </defs>
     <g transform="translate(307.843437 102.104813)scale(0.1 -0.1)">
      <use xlink:href="#DejaVuSans-70"/>
      <use x="63.476562" xlink:href="#DejaVuSans-72"/>
      <use x="104.558594" xlink:href="#DejaVuSans-65"/>
      <use x="166.082031" xlink:href="#DejaVuSans-64"/>
      <use x="229.558594" xlink:href="#DejaVuSans-2e"/>
      <use x="261.345703" xlink:href="#DejaVuSans-28"/>
      <use x="300.359375" xlink:href="#DejaVuSans-39"/>
      <use x="363.982422" xlink:href="#DejaVuSans-35"/>
      <use x="427.605469" xlink:href="#DejaVuSans-74"/>
      <use x="466.814453" xlink:href="#DejaVuSans-68"/>
      <use x="530.193359" xlink:href="#DejaVuSans-20"/>
      <use x="561.980469" xlink:href="#DejaVuSans-70"/>
      <use x="625.457031" xlink:href="#DejaVuSans-65"/>
      <use x="686.980469" xlink:href="#DejaVuSans-72"/>
      <use x="728.0625" xlink:href="#DejaVuSans-63"/>
      <use x="783.042969" xlink:href="#DejaVuSans-65"/>
      <use x="844.566406" xlink:href="#DejaVuSans-6e"/>
      <use x="907.945312" xlink:href="#DejaVuSans-2e"/>
      <use x="939.732422" xlink:href="#DejaVuSans-29"/>
     </g>
    </g>
   </g>
  </g>
 </g>
 <defs>
  <clipPath id="p6ae288e723">
   <rect height="266.112" width="357.12" x="57.6" y="41.472"/>
  </clipPath>
 </defs>
</svg>
