<?xml version="1.0" encoding="utf-8" standalone="no"?>
<!DOCTYPE svg PUBLIC "-//W3C//DTD SVG 1.1//EN"
  "http://www.w3.org/Graphics/SVG/1.1/DTD/svg11.dtd">
<!-- Created with matplotlib (http://matplotlib.org/) -->
<svg height="345.6pt" version="1.1" viewBox="0 0 460.8 345.6" width="460.8pt" xmlns="http://www.w3.org/2000/svg" xmlns:xlink="http://www.w3.org/1999/xlink">
 <defs>
  <style type="text/css">
*{stroke-linecap:butt;stroke-linejoin:round;}
  </style>
 </defs>
 <g id="figure_1">
  <g id="patch_1">
   <path d="M 0 345.6 
L 460.8 345.6 
L 460.8 0 
L 0 0 
z
" style="fill:#ffffff;"/>
  </g>
  <g id="axes_1">
   <g id="patch_2">
    <path d="M 57.6 307.584 
L 414.72 307.584 
L 414.72 41.472 
L 57.6 41.472 
z
" style="fill:#ffffff;"/>
   </g>
   <g id="PolyCollection_1">
    <path clip-path="url(#p71b879d449)" d="M 73.832727 96.782096 
L 73.832727 275.758309 
L 74.92584 276.075903 
L 76.018953 276.162169 
L 77.112066 276.005826 
L 78.205179 275.629262 
L 79.298292 274.34216 
L 80.391405 273.727577 
L 81.484518 271.351063 
L 82.577631 268.776066 
L 83.670744 268.794365 
L 84.763857 268.967404 
L 85.85697 270.007855 
L 86.950083 272.024096 
L 88.043196 274.356882 
L 89.136309 275.912018 
L 90.229421 277.071609 
L 91.322534 277.714921 
L 92.415647 278.046266 
L 93.50876 278.638003 
L 94.601873 278.945725 
L 95.694986 278.997649 
L 96.788099 279.025594 
L 97.881212 279.149259 
L 98.974325 279.156973 
L 100.067438 278.991402 
L 101.160551 278.800856 
L 102.253664 278.660882 
L 103.346777 278.425377 
L 104.43989 278.022343 
L 105.533003 277.634821 
L 106.626116 277.262191 
L 107.719229 276.559452 
L 108.812342 275.453055 
L 109.905455 275.193004 
L 110.998567 275.365069 
L 112.09168 275.544387 
L 113.184793 275.275167 
L 114.277906 275.133079 
L 115.371019 275.042072 
L 116.464132 274.469393 
L 117.557245 273.222597 
L 118.650358 272.348091 
L 119.743471 271.283916 
L 120.836584 270.349163 
L 121.929697 269.772647 
L 123.02281 269.586627 
L 124.115923 269.479443 
L 125.209036 269.293232 
L 126.302149 269.238214 
L 127.395262 269.230837 
L 128.488375 269.151254 
L 129.581488 269.148888 
L 130.674601 269.107283 
L 131.767713 269.177132 
L 132.860826 269.905842 
L 133.953939 270.869207 
L 135.047052 271.521446 
L 136.140165 272.296617 
L 137.233278 273.562842 
L 138.326391 274.585939 
L 139.419504 274.639377 
L 140.512617 274.286611 
L 141.60573 274.342156 
L 142.698843 274.079108 
L 143.791956 273.624996 
L 144.885069 273.333313 
L 145.978182 271.696637 
L 147.071295 269.2223 
L 148.164408 268.789557 
L 149.257521 268.983221 
L 150.350634 269.047765 
L 151.443747 269.013882 
L 152.53686 269.191582 
L 153.629972 269.195203 
L 154.723085 269.259244 
L 155.816198 269.798392 
L 156.909311 270.618142 
L 158.002424 271.563421 
L 159.095537 271.979465 
L 160.18865 272.067492 
L 161.281763 272.288817 
L 162.374876 272.936474 
L 163.467989 274.907396 
L 164.561102 276.2124 
L 165.654215 277.585021 
L 166.747328 278.08159 
L 167.840441 278.483631 
L 168.933554 278.747917 
L 170.026667 278.754148 
L 171.11978 278.543051 
L 172.212893 278.576123 
L 173.306006 278.642373 
L 174.399118 278.48795 
L 175.492231 278.128836 
L 176.585344 277.646611 
L 177.678457 277.095481 
L 178.77157 276.222589 
L 179.864683 275.186394 
L 180.957796 274.64602 
L 182.050909 274.132086 
L 183.144022 273.627674 
L 184.237135 273.00908 
L 185.330248 272.728736 
L 186.423361 272.735551 
L 187.516474 272.714945 
L 188.609587 272.597746 
L 189.7027 272.312083 
L 190.795813 272.205206 
L 191.888926 271.869073 
L 192.982039 271.634648 
L 194.075152 271.440641 
L 195.168264 271.141076 
L 196.261377 270.897527 
L 197.35449 270.551504 
L 198.447603 270.206345 
L 199.540716 269.616634 
L 200.633829 269.428568 
L 201.726942 269.323734 
L 202.820055 269.400406 
L 203.913168 269.366388 
L 205.006281 269.311899 
L 206.099394 269.195362 
L 207.192507 269.078458 
L 208.28562 269.276759 
L 209.378733 270.182282 
L 210.471846 270.563324 
L 211.564959 270.935129 
L 212.658072 271.93162 
L 213.751185 273.048602 
L 214.844298 273.987685 
L 215.93741 274.9444 
L 217.030523 275.918624 
L 218.123636 277.003809 
L 219.216749 277.680833 
L 220.309862 277.993131 
L 221.402975 277.899153 
L 222.496088 277.762459 
L 223.589201 277.597084 
L 224.682314 277.13604 
L 225.775427 276.653753 
L 226.86854 275.511411 
L 227.961653 274.384156 
L 229.054766 272.386471 
L 230.147879 269.771174 
L 231.240992 268.693149 
L 232.334105 268.95094 
L 233.427218 269.070489 
L 234.520331 269.001782 
L 235.613444 269.210814 
L 236.706556 270.063748 
L 237.799669 271.233478 
L 238.892782 272.495086 
L 239.985895 273.613506 
L 241.079008 274.967431 
L 242.172121 275.571986 
L 243.265234 276.040887 
L 244.358347 276.400746 
L 245.45146 276.430579 
L 246.544573 276.590371 
L 247.637686 276.752399 
L 248.730799 276.738924 
L 249.823912 276.578924 
L 250.917025 276.496469 
L 252.010138 276.406794 
L 253.103251 276.194008 
L 254.196364 275.653527 
L 255.289477 275.158055 
L 256.38259 274.730847 
L 257.475702 274.173789 
L 258.568815 273.432519 
L 259.661928 272.840511 
L 260.755041 272.693821 
L 261.848154 272.229066 
L 262.941267 271.641748 
L 264.03438 271.264557 
L 265.127493 271.011866 
L 266.220606 270.638965 
L 267.313719 270.044783 
L 268.406832 269.55636 
L 269.499945 269.31832 
L 270.593058 269.322288 
L 271.686171 269.324709 
L 272.779284 269.254035 
L 273.872397 269.277338 
L 274.96551 269.329931 
L 276.058623 269.399975 
L 277.151736 269.473073 
L 278.244848 269.410893 
L 279.337961 269.36945 
L 280.431074 269.27377 
L 281.524187 269.246855 
L 282.6173 269.148766 
L 283.710413 269.029611 
L 284.803526 269.041273 
L 285.896639 269.436911 
L 286.989752 270.737757 
L 288.082865 271.581653 
L 289.175978 272.701872 
L 290.269091 274.211137 
L 291.362204 275.471036 
L 292.455317 276.356611 
L 293.54843 276.980817 
L 294.641543 277.134134 
L 295.734656 276.677511 
L 296.827769 275.462878 
L 297.920882 274.100208 
L 299.013994 272.145432 
L 300.107107 269.674645 
L 301.20022 268.756082 
L 302.293333 268.89811 
L 303.386446 269.023389 
L 304.479559 269.302454 
L 305.572672 270.244446 
L 306.665785 272.010645 
L 307.758898 272.787725 
L 308.852011 273.366018 
L 309.945124 274.54189 
L 311.038237 275.887239 
L 312.13135 277.315367 
L 313.224463 277.924462 
L 314.317576 278.55366 
L 315.410689 278.875207 
L 316.503802 278.986421 
L 317.596915 278.988236 
L 318.690028 279.02965 
L 319.78314 278.853128 
L 320.876253 278.572901 
L 321.969366 278.174979 
L 323.062479 277.895711 
L 324.155592 277.556727 
L 325.248705 277.167736 
L 326.341818 276.979326 
L 327.434931 277.13188 
L 328.528044 277.287739 
L 329.621157 277.2986 
L 330.71427 277.135642 
L 331.807383 276.528934 
L 332.900496 275.496673 
L 333.993609 274.520874 
L 335.086722 273.039171 
L 336.179835 271.920331 
L 337.272948 270.867696 
L 338.366061 270.215374 
L 339.459174 269.987393 
L 340.552287 269.7676 
L 341.645399 269.497899 
L 342.738512 269.472138 
L 343.831625 269.199159 
L 344.924738 269.159753 
L 346.017851 269.423739 
L 347.110964 270.813444 
L 348.204077 272.005187 
L 349.29719 272.513818 
L 350.390303 273.255421 
L 351.483416 274.09478 
L 352.576529 274.424976 
L 353.669642 274.361129 
L 354.762755 274.456182 
L 355.855868 274.50632 
L 356.948981 274.639254 
L 358.042094 274.106713 
L 359.135207 274.053374 
L 360.22832 274.056005 
L 361.321433 274.178614 
L 362.414545 274.728651 
L 363.507658 275.294139 
L 364.600771 276.105919 
L 365.693884 276.70202 
L 366.786997 277.328646 
L 367.88011 277.863677 
L 368.973223 278.136821 
L 370.066336 278.391284 
L 371.159449 278.416062 
L 372.252562 278.123912 
L 373.345675 277.605636 
L 374.438788 276.93941 
L 375.531901 275.595674 
L 376.625014 274.241169 
L 377.718127 272.862884 
L 378.81124 270.156766 
L 379.904353 268.666764 
L 380.997466 269.000969 
L 382.090579 269.027921 
L 383.183691 269.028967 
L 384.276804 269.227798 
L 385.369917 269.263943 
L 386.46303 269.847675 
L 387.556143 270.068921 
L 388.649256 270.519624 
L 389.742369 271.173634 
L 390.835482 271.566904 
L 391.928595 271.41649 
L 393.021708 271.109665 
L 394.114821 271.255328 
L 395.207934 271.28298 
L 396.301047 270.875714 
L 397.39416 270.686223 
L 398.487273 270.901819 
L 398.487273 110.843118 
L 398.487273 110.843118 
L 397.39416 110.103844 
L 396.301047 110.351679 
L 395.207934 111.339739 
L 394.114821 111.329869 
L 393.021708 110.899066 
L 391.928595 111.251324 
L 390.835482 112.028841 
L 389.742369 111.108888 
L 388.649256 110.136567 
L 387.556143 109.470325 
L 386.46303 109.118272 
L 385.369917 108.45154 
L 384.276804 107.560689 
L 383.183691 106.259638 
L 382.090579 105.047443 
L 380.997466 103.825979 
L 379.904353 102.558954 
L 378.81124 100.700516 
L 377.718127 98.982115 
L 376.625014 97.774997 
L 375.531901 96.682135 
L 374.438788 95.902041 
L 373.345675 95.390409 
L 372.252562 95.006055 
L 371.159449 94.877742 
L 370.066336 94.919187 
L 368.973223 95.073585 
L 367.88011 95.305537 
L 366.786997 95.668085 
L 365.693884 96.066514 
L 364.600771 96.587477 
L 363.507658 97.125002 
L 362.414545 97.728204 
L 361.321433 98.150472 
L 360.22832 98.324865 
L 359.135207 98.345681 
L 358.042094 97.961624 
L 356.948981 97.610962 
L 355.855868 97.696017 
L 354.762755 97.875066 
L 353.669642 97.753788 
L 352.576529 97.861256 
L 351.483416 98.394744 
L 350.390303 99.163345 
L 349.29719 99.644069 
L 348.204077 100.230003 
L 347.110964 101.191065 
L 346.017851 102.436037 
L 344.924738 104.24789 
L 343.831625 105.269087 
L 342.738512 106.463351 
L 341.645399 107.649335 
L 340.552287 108.764739 
L 339.459174 109.204859 
L 338.366061 109.228685 
L 337.272948 110.078395 
L 336.179835 112.162962 
L 335.086722 114.134577 
L 333.993609 116.08575 
L 332.900496 117.998437 
L 331.807383 119.996172 
L 330.71427 119.866803 
L 329.621157 118.775154 
L 328.528044 118.799708 
L 327.434931 120.090416 
L 326.341818 121.182227 
L 325.248705 120.533737 
L 324.155592 115.893824 
L 323.062479 109.836046 
L 321.969366 105.583623 
L 320.876253 99.543981 
L 319.78314 94.554409 
L 318.690028 91.14655 
L 317.596915 89.592953 
L 316.503802 89.56536 
L 315.410689 91.704842 
L 314.317576 97.718181 
L 313.224463 106.183528 
L 312.13135 117.419866 
L 311.038237 120.740666 
L 309.945124 116.911493 
L 308.852011 115.068925 
L 307.758898 114.227703 
L 306.665785 112.861173 
L 305.572672 110.193581 
L 304.479559 108.407429 
L 303.386446 107.262903 
L 302.293333 105.233202 
L 301.20022 103.096507 
L 300.107107 101.082059 
L 299.013994 99.384206 
L 297.920882 97.915089 
L 296.827769 96.834542 
L 295.734656 96.039307 
L 294.641543 95.778118 
L 293.54843 95.921289 
L 292.455317 96.428773 
L 291.362204 97.06416 
L 290.269091 98.542849 
L 289.175978 99.759811 
L 288.082865 100.392802 
L 286.989752 101.238076 
L 285.896639 102.160166 
L 284.803526 102.822665 
L 283.710413 103.413616 
L 282.6173 104.052526 
L 281.524187 105.072379 
L 280.431074 105.834867 
L 279.337961 106.794907 
L 278.244848 107.251739 
L 277.151736 107.823227 
L 276.058623 108.176967 
L 274.96551 108.153479 
L 273.872397 107.831329 
L 272.779284 107.404393 
L 271.686171 107.33818 
L 270.593058 107.368707 
L 269.499945 107.450274 
L 268.406832 107.869741 
L 267.313719 108.944338 
L 266.220606 109.943873 
L 265.127493 110.836947 
L 264.03438 110.946778 
L 262.941267 111.739781 
L 261.848154 112.765271 
L 260.755041 113.532007 
L 259.661928 113.878791 
L 258.568815 114.712077 
L 257.475702 116.031508 
L 256.38259 116.79374 
L 255.289477 117.758363 
L 254.196364 118.630408 
L 253.103251 119.851944 
L 252.010138 120.477451 
L 250.917025 120.759442 
L 249.823912 120.843809 
L 248.730799 121.088323 
L 247.637686 121.586177 
L 246.544573 121.1175 
L 245.45146 120.726182 
L 244.358347 120.690325 
L 243.265234 120.447212 
L 242.172121 119.39059 
L 241.079008 117.822433 
L 239.985895 115.858567 
L 238.892782 113.629452 
L 237.799669 111.283187 
L 236.706556 109.648889 
L 235.613444 108.497449 
L 234.520331 107.005835 
L 233.427218 105.411869 
L 232.334105 104.025837 
L 231.240992 102.486155 
L 230.147879 100.976197 
L 229.054766 99.10318 
L 227.961653 97.683398 
L 226.86854 96.746294 
L 225.775427 96.080712 
L 224.682314 95.744575 
L 223.589201 95.444364 
L 222.496088 95.329005 
L 221.402975 95.211075 
L 220.309862 95.190254 
L 219.216749 95.451473 
L 218.123636 95.921668 
L 217.030523 96.723636 
L 215.93741 97.57613 
L 214.844298 98.518792 
L 213.751185 99.440143 
L 212.658072 100.263293 
L 211.564959 100.780774 
L 210.471846 101.036021 
L 209.378733 101.608326 
L 208.28562 102.405165 
L 207.192507 103.618145 
L 206.099394 104.445203 
L 205.006281 105.39827 
L 203.913168 106.554059 
L 202.820055 107.292535 
L 201.726942 107.656974 
L 200.633829 107.626764 
L 199.540716 108.366009 
L 198.447603 109.255528 
L 197.35449 109.872725 
L 196.261377 110.353351 
L 195.168264 110.979213 
L 194.075152 111.55236 
L 192.982039 111.747904 
L 191.888926 112.339147 
L 190.795813 112.640817 
L 189.7027 112.967191 
L 188.609587 113.342856 
L 187.516474 113.624676 
L 186.423361 113.645252 
L 185.330248 113.413929 
L 184.237135 114.295182 
L 183.144022 115.309628 
L 182.050909 115.844546 
L 180.957796 116.538582 
L 179.864683 117.649441 
L 178.77157 119.145803 
L 177.678457 120.165366 
L 176.585344 114.004035 
L 175.492231 106.737373 
L 174.399118 100.070582 
L 173.306006 97.784397 
L 172.212893 98.064072 
L 171.11978 99.03001 
L 170.026667 96.862586 
L 168.933554 95.326344 
L 167.840441 99.781571 
L 166.747328 105.10498 
L 165.654215 114.293998 
L 164.561102 121.682333 
L 163.467989 118.194257 
L 162.374876 114.436973 
L 161.281763 112.862734 
L 160.18865 112.617671 
L 159.095537 112.369155 
L 158.002424 111.898685 
L 156.909311 110.445304 
L 155.816198 109.279066 
L 154.723085 108.139138 
L 153.629972 107.412416 
L 152.53686 106.871905 
L 151.443747 105.892319 
L 150.350634 104.758442 
L 149.257521 103.84288 
L 148.164408 102.928279 
L 147.071295 101.451762 
L 145.978182 99.652431 
L 144.885069 99.010123 
L 143.791956 98.62138 
L 142.698843 98.092097 
L 141.60573 98.071718 
L 140.512617 97.792699 
L 139.419504 97.585903 
L 138.326391 97.986602 
L 137.233278 99.017675 
L 136.140165 99.933639 
L 135.047052 100.375286 
L 133.953939 101.004205 
L 132.860826 101.738721 
L 131.767713 102.18132 
L 130.674601 102.145902 
L 129.581488 102.380689 
L 128.488375 103.362724 
L 127.395262 104.764725 
L 126.302149 105.33766 
L 125.209036 105.923201 
L 124.115923 107.114242 
L 123.02281 108.103702 
L 121.929697 108.87916 
L 120.836584 109.322095 
L 119.743471 110.996373 
L 118.650358 112.827539 
L 117.557245 114.201471 
L 116.464132 116.283168 
L 115.371019 117.696715 
L 114.277906 117.67983 
L 113.184793 117.872976 
L 112.09168 118.616284 
L 110.998567 118.88524 
L 109.905455 117.566991 
L 108.812342 117.732916 
L 107.719229 120.205799 
L 106.626116 119.054901 
L 105.533003 114.108183 
L 104.43989 108.077794 
L 103.346777 102.069933 
L 102.253664 97.22968 
L 101.160551 95.761403 
L 100.067438 92.761281 
L 98.974325 88.227744 
L 97.881212 86.658205 
L 96.788099 87.555281 
L 95.694986 89.657921 
L 94.601873 90.90661 
L 93.50876 95.401709 
L 92.415647 105.265127 
L 91.322534 113.703425 
L 90.229421 119.19494 
L 89.136309 120.863535 
L 88.043196 117.172062 
L 86.950083 113.362303 
L 85.85697 109.854886 
L 84.763857 107.539022 
L 83.670744 104.223895 
L 82.577631 102.002681 
L 81.484518 99.746193 
L 80.391405 98.534752 
L 79.298292 97.608565 
L 78.205179 96.776609 
L 77.112066 96.563028 
L 76.018953 96.475764 
L 74.92584 96.582031 
L 73.832727 96.782096 
z
" style="fill:#008000;fill-opacity:0.4;"/>
   </g>
   <g id="matplotlib.axis_1">
    <g id="xtick_1">
     <g id="line2d_1">
      <defs>
       <path d="M 0 0 
L 0 3.5 
" id="mfa8a8c0825" style="stroke:#000000;stroke-width:0.8;"/>
      </defs>
      <g>
       <use style="stroke:#000000;stroke-width:0.8;" x="73.832727" xlink:href="#mfa8a8c0825" y="307.584"/>
      </g>
     </g>
     <g id="text_1">
      <!-- 0.0 -->
      <defs>
       <path d="M 31.78125 66.40625 
Q 24.171875 66.40625 20.328125 58.90625 
Q 16.5 51.421875 16.5 36.375 
Q 16.5 21.390625 20.328125 13.890625 
Q 24.171875 6.390625 31.78125 6.390625 
Q 39.453125 6.390625 43.28125 13.890625 
Q 47.125 21.390625 47.125 36.375 
Q 47.125 51.421875 43.28125 58.90625 
Q 39.453125 66.40625 31.78125 66.40625 
z
M 31.78125 74.21875 
Q 44.046875 74.21875 50.515625 64.515625 
Q 56.984375 54.828125 56.984375 36.375 
Q 56.984375 17.96875 50.515625 8.265625 
Q 44.046875 -1.421875 31.78125 -1.421875 
Q 19.53125 -1.421875 13.0625 8.265625 
Q 6.59375 17.96875 6.59375 36.375 
Q 6.59375 54.828125 13.0625 64.515625 
Q 19.53125 74.21875 31.78125 74.21875 
z
" id="DejaVuSans-30"/>
       <path d="M 10.6875 12.40625 
L 21 12.40625 
L 21 0 
L 10.6875 0 
z
" id="DejaVuSans-2e"/>
      </defs>
      <g transform="translate(65.881165 322.182437)scale(0.1 -0.1)">
       <use xlink:href="#DejaVuSans-30"/>
       <use x="63.623047" xlink:href="#DejaVuSans-2e"/>
       <use x="95.410156" xlink:href="#DejaVuSans-30"/>
      </g>
     </g>
    </g>
    <g id="xtick_2">
     <g id="line2d_2">
      <g>
       <use style="stroke:#000000;stroke-width:0.8;" x="138.763636" xlink:href="#mfa8a8c0825" y="307.584"/>
      </g>
     </g>
     <g id="text_2">
      <!-- 0.2 -->
      <defs>
       <path d="M 19.1875 8.296875 
L 53.609375 8.296875 
L 53.609375 0 
L 7.328125 0 
L 7.328125 8.296875 
Q 12.9375 14.109375 22.625 23.890625 
Q 32.328125 33.6875 34.8125 36.53125 
Q 39.546875 41.84375 41.421875 45.53125 
Q 43.3125 49.21875 43.3125 52.78125 
Q 43.3125 58.59375 39.234375 62.25 
Q 35.15625 65.921875 28.609375 65.921875 
Q 23.96875 65.921875 18.8125 64.3125 
Q 13.671875 62.703125 7.8125 59.421875 
L 7.8125 69.390625 
Q 13.765625 71.78125 18.9375 73 
Q 24.125 74.21875 28.421875 74.21875 
Q 39.75 74.21875 46.484375 68.546875 
Q 53.21875 62.890625 53.21875 53.421875 
Q 53.21875 48.921875 51.53125 44.890625 
Q 49.859375 40.875 45.40625 35.40625 
Q 44.1875 33.984375 37.640625 27.21875 
Q 31.109375 20.453125 19.1875 8.296875 
z
" id="DejaVuSans-32"/>
      </defs>
      <g transform="translate(130.812074 322.182437)scale(0.1 -0.1)">
       <use xlink:href="#DejaVuSans-30"/>
       <use x="63.623047" xlink:href="#DejaVuSans-2e"/>
       <use x="95.410156" xlink:href="#DejaVuSans-32"/>
      </g>
     </g>
    </g>
    <g id="xtick_3">
     <g id="line2d_3">
      <g>
       <use style="stroke:#000000;stroke-width:0.8;" x="203.694545" xlink:href="#mfa8a8c0825" y="307.584"/>
      </g>
     </g>
     <g id="text_3">
      <!-- 0.4 -->
      <defs>
       <path d="M 37.796875 64.3125 
L 12.890625 25.390625 
L 37.796875 25.390625 
z
M 35.203125 72.90625 
L 47.609375 72.90625 
L 47.609375 25.390625 
L 58.015625 25.390625 
L 58.015625 17.1875 
L 47.609375 17.1875 
L 47.609375 0 
L 37.796875 0 
L 37.796875 17.1875 
L 4.890625 17.1875 
L 4.890625 26.703125 
z
" id="DejaVuSans-34"/>
      </defs>
      <g transform="translate(195.742983 322.182437)scale(0.1 -0.1)">
       <use xlink:href="#DejaVuSans-30"/>
       <use x="63.623047" xlink:href="#DejaVuSans-2e"/>
       <use x="95.410156" xlink:href="#DejaVuSans-34"/>
      </g>
     </g>
    </g>
    <g id="xtick_4">
     <g id="line2d_4">
      <g>
       <use style="stroke:#000000;stroke-width:0.8;" x="268.625455" xlink:href="#mfa8a8c0825" y="307.584"/>
      </g>
     </g>
     <g id="text_4">
      <!-- 0.6 -->
      <defs>
       <path d="M 33.015625 40.375 
Q 26.375 40.375 22.484375 35.828125 
Q 18.609375 31.296875 18.609375 23.390625 
Q 18.609375 15.53125 22.484375 10.953125 
Q 26.375 6.390625 33.015625 6.390625 
Q 39.65625 6.390625 43.53125 10.953125 
Q 47.40625 15.53125 47.40625 23.390625 
Q 47.40625 31.296875 43.53125 35.828125 
Q 39.65625 40.375 33.015625 40.375 
z
M 52.59375 71.296875 
L 52.59375 62.3125 
Q 48.875 64.0625 45.09375 64.984375 
Q 41.3125 65.921875 37.59375 65.921875 
Q 27.828125 65.921875 22.671875 59.328125 
Q 17.53125 52.734375 16.796875 39.40625 
Q 19.671875 43.65625 24.015625 45.921875 
Q 28.375 48.1875 33.59375 48.1875 
Q 44.578125 48.1875 50.953125 41.515625 
Q 57.328125 34.859375 57.328125 23.390625 
Q 57.328125 12.15625 50.6875 5.359375 
Q 44.046875 -1.421875 33.015625 -1.421875 
Q 20.359375 -1.421875 13.671875 8.265625 
Q 6.984375 17.96875 6.984375 36.375 
Q 6.984375 53.65625 15.1875 63.9375 
Q 23.390625 74.21875 37.203125 74.21875 
Q 40.921875 74.21875 44.703125 73.484375 
Q 48.484375 72.75 52.59375 71.296875 
z
" id="DejaVuSans-36"/>
      </defs>
      <g transform="translate(260.673892 322.182437)scale(0.1 -0.1)">
       <use xlink:href="#DejaVuSans-30"/>
       <use x="63.623047" xlink:href="#DejaVuSans-2e"/>
       <use x="95.410156" xlink:href="#DejaVuSans-36"/>
      </g>
     </g>
    </g>
    <g id="xtick_5">
     <g id="line2d_5">
      <g>
       <use style="stroke:#000000;stroke-width:0.8;" x="333.556364" xlink:href="#mfa8a8c0825" y="307.584"/>
      </g>
     </g>
     <g id="text_5">
      <!-- 0.8 -->
      <defs>
       <path d="M 31.78125 34.625 
Q 24.75 34.625 20.71875 30.859375 
Q 16.703125 27.09375 16.703125 20.515625 
Q 16.703125 13.921875 20.71875 10.15625 
Q 24.75 6.390625 31.78125 6.390625 
Q 38.8125 6.390625 42.859375 10.171875 
Q 46.921875 13.96875 46.921875 20.515625 
Q 46.921875 27.09375 42.890625 30.859375 
Q 38.875 34.625 31.78125 34.625 
z
M 21.921875 38.8125 
Q 15.578125 40.375 12.03125 44.71875 
Q 8.5 49.078125 8.5 55.328125 
Q 8.5 64.0625 14.71875 69.140625 
Q 20.953125 74.21875 31.78125 74.21875 
Q 42.671875 74.21875 48.875 69.140625 
Q 55.078125 64.0625 55.078125 55.328125 
Q 55.078125 49.078125 51.53125 44.71875 
Q 48 40.375 41.703125 38.8125 
Q 48.828125 37.15625 52.796875 32.3125 
Q 56.78125 27.484375 56.78125 20.515625 
Q 56.78125 9.90625 50.3125 4.234375 
Q 43.84375 -1.421875 31.78125 -1.421875 
Q 19.734375 -1.421875 13.25 4.234375 
Q 6.78125 9.90625 6.78125 20.515625 
Q 6.78125 27.484375 10.78125 32.3125 
Q 14.796875 37.15625 21.921875 38.8125 
z
M 18.3125 54.390625 
Q 18.3125 48.734375 21.84375 45.5625 
Q 25.390625 42.390625 31.78125 42.390625 
Q 38.140625 42.390625 41.71875 45.5625 
Q 45.3125 48.734375 45.3125 54.390625 
Q 45.3125 60.0625 41.71875 63.234375 
Q 38.140625 66.40625 31.78125 66.40625 
Q 25.390625 66.40625 21.84375 63.234375 
Q 18.3125 60.0625 18.3125 54.390625 
z
" id="DejaVuSans-38"/>
      </defs>
      <g transform="translate(325.604801 322.182437)scale(0.1 -0.1)">
       <use xlink:href="#DejaVuSans-30"/>
       <use x="63.623047" xlink:href="#DejaVuSans-2e"/>
       <use x="95.410156" xlink:href="#DejaVuSans-38"/>
      </g>
     </g>
    </g>
    <g id="xtick_6">
     <g id="line2d_6">
      <g>
       <use style="stroke:#000000;stroke-width:0.8;" x="398.487273" xlink:href="#mfa8a8c0825" y="307.584"/>
      </g>
     </g>
     <g id="text_6">
      <!-- 1.0 -->
      <defs>
       <path d="M 12.40625 8.296875 
L 28.515625 8.296875 
L 28.515625 63.921875 
L 10.984375 60.40625 
L 10.984375 69.390625 
L 28.421875 72.90625 
L 38.28125 72.90625 
L 38.28125 8.296875 
L 54.390625 8.296875 
L 54.390625 0 
L 12.40625 0 
z
" id="DejaVuSans-31"/>
      </defs>
      <g transform="translate(390.53571 322.182437)scale(0.1 -0.1)">
       <use xlink:href="#DejaVuSans-31"/>
       <use x="63.623047" xlink:href="#DejaVuSans-2e"/>
       <use x="95.410156" xlink:href="#DejaVuSans-30"/>
      </g>
     </g>
    </g>
   </g>
   <g id="matplotlib.axis_2">
    <g id="ytick_1">
     <g id="line2d_7">
      <defs>
       <path d="M 0 0 
L -3.5 0 
" id="m17bcbc4da1" style="stroke:#000000;stroke-width:0.8;"/>
      </defs>
      <g>
       <use style="stroke:#000000;stroke-width:0.8;" x="57.6" xlink:href="#m17bcbc4da1" y="299.17887"/>
      </g>
     </g>
     <g id="text_7">
      <!-- 0.0 -->
      <g transform="translate(34.696875 302.978089)scale(0.1 -0.1)">
       <use xlink:href="#DejaVuSans-30"/>
       <use x="63.623047" xlink:href="#DejaVuSans-2e"/>
       <use x="95.410156" xlink:href="#DejaVuSans-30"/>
      </g>
     </g>
    </g>
    <g id="ytick_2">
     <g id="line2d_8">
      <g>
       <use style="stroke:#000000;stroke-width:0.8;" x="57.6" xlink:href="#m17bcbc4da1" y="249.553394"/>
      </g>
     </g>
     <g id="text_8">
      <!-- 0.2 -->
      <g transform="translate(34.696875 253.352613)scale(0.1 -0.1)">
       <use xlink:href="#DejaVuSans-30"/>
       <use x="63.623047" xlink:href="#DejaVuSans-2e"/>
       <use x="95.410156" xlink:href="#DejaVuSans-32"/>
      </g>
     </g>
    </g>
    <g id="ytick_3">
     <g id="line2d_9">
      <g>
       <use style="stroke:#000000;stroke-width:0.8;" x="57.6" xlink:href="#m17bcbc4da1" y="199.927919"/>
      </g>
     </g>
     <g id="text_9">
      <!-- 0.4 -->
      <g transform="translate(34.696875 203.727138)scale(0.1 -0.1)">
       <use xlink:href="#DejaVuSans-30"/>
       <use x="63.623047" xlink:href="#DejaVuSans-2e"/>
       <use x="95.410156" xlink:href="#DejaVuSans-34"/>
      </g>
     </g>
    </g>
    <g id="ytick_4">
     <g id="line2d_10">
      <g>
       <use style="stroke:#000000;stroke-width:0.8;" x="57.6" xlink:href="#m17bcbc4da1" y="150.302443"/>
      </g>
     </g>
     <g id="text_10">
      <!-- 0.6 -->
      <g transform="translate(34.696875 154.101662)scale(0.1 -0.1)">
       <use xlink:href="#DejaVuSans-30"/>
       <use x="63.623047" xlink:href="#DejaVuSans-2e"/>
       <use x="95.410156" xlink:href="#DejaVuSans-36"/>
      </g>
     </g>
    </g>
    <g id="ytick_5">
     <g id="line2d_11">
      <g>
       <use style="stroke:#000000;stroke-width:0.8;" x="57.6" xlink:href="#m17bcbc4da1" y="100.676968"/>
      </g>
     </g>
     <g id="text_11">
      <!-- 0.8 -->
      <g transform="translate(34.696875 104.476186)scale(0.1 -0.1)">
       <use xlink:href="#DejaVuSans-30"/>
       <use x="63.623047" xlink:href="#DejaVuSans-2e"/>
       <use x="95.410156" xlink:href="#DejaVuSans-38"/>
      </g>
     </g>
    </g>
    <g id="ytick_6">
     <g id="line2d_12">
      <g>
       <use style="stroke:#000000;stroke-width:0.8;" x="57.6" xlink:href="#m17bcbc4da1" y="51.051492"/>
      </g>
     </g>
     <g id="text_12">
      <!-- 1.0 -->
      <g transform="translate(34.696875 54.850711)scale(0.1 -0.1)">
       <use xlink:href="#DejaVuSans-31"/>
       <use x="63.623047" xlink:href="#DejaVuSans-2e"/>
       <use x="95.410156" xlink:href="#DejaVuSans-30"/>
      </g>
     </g>
    </g>
   </g>
   <g id="line2d_13">
    <path clip-path="url(#p71b879d449)" d="M 73.832727 286.596355 
L 74.92584 286.764114 
L 76.018953 286.093054 
L 77.112066 285.086451 
L 78.205179 278.711289 
L 79.298292 276.194781 
L 80.391405 269.316244 
L 81.484518 258.411542 
L 82.577631 245.661268 
L 83.670744 224.522553 
L 84.763857 206.739263 
L 85.85697 186.607201 
L 88.043196 142.65218 
L 89.136309 124.868891 
L 90.229421 119.332673 
L 91.322534 104.40136 
L 92.415647 76.719773 
L 93.50876 67.324926 
L 94.601873 65.143887 
L 95.694986 54.574653 
L 96.788099 53.568 
L 97.881212 61.78846 
L 98.974325 79.571997 
L 100.067438 85.779152 
L 101.160551 87.456989 
L 102.253664 103.394707 
L 105.533003 130.405357 
L 106.626116 142.484446 
L 107.719229 161.609856 
L 108.812342 163.95863 
L 109.905455 152.047275 
L 110.998567 154.396049 
L 112.09168 159.932267 
L 113.184793 161.945572 
L 114.277906 159.932267 
L 115.371019 168.991645 
L 116.464132 184.761877 
L 117.557245 189.962627 
L 118.650358 202.712901 
L 119.743471 213.953319 
L 120.836584 215.463174 
L 121.929697 220.328456 
L 124.115923 236.433907 
L 125.209036 238.614947 
L 126.302149 241.131455 
L 127.395262 250.52655 
L 128.488375 256.398236 
L 129.581488 259.250212 
L 130.674601 257.069421 
L 131.767713 260.92805 
L 132.860826 265.289881 
L 135.047052 269.819694 
L 137.233278 280.892279 
L 138.326391 280.892279 
L 139.419504 278.54353 
L 140.512617 279.550133 
L 141.60573 277.704686 
L 142.698843 275.188178 
L 143.791956 274.684901 
L 144.885069 269.819694 
L 147.071295 251.532955 
L 148.164408 247.674326 
L 149.257521 242.64131 
L 150.350634 234.588584 
L 151.443747 229.555568 
L 152.53686 225.361471 
L 153.629972 220.49619 
L 154.723085 214.288787 
L 155.816198 200.867329 
L 156.909311 196.337764 
L 158.002424 193.150071 
L 159.095537 192.143419 
L 160.18865 190.298095 
L 161.281763 182.077387 
L 164.561102 115.809512 
L 167.840441 77.89416 
L 168.933554 90.141231 
L 170.026667 93.496658 
L 171.11978 88.79911 
L 172.212893 89.470047 
L 173.306006 96.1809 
L 174.399118 112.622068 
L 175.492231 122.352383 
L 176.585344 133.257333 
L 177.678457 151.543825 
L 178.77157 160.435469 
L 179.864683 167.984993 
L 180.957796 174.695846 
L 182.050909 176.205701 
L 183.144022 184.929611 
L 184.237135 186.607201 
L 185.330248 187.110403 
L 186.423361 186.607201 
L 187.516474 187.781587 
L 188.609587 191.304748 
L 189.7027 191.640216 
L 190.795813 194.659926 
L 191.888926 197.176434 
L 194.075152 200.364127 
L 195.168264 205.564877 
L 196.261377 206.571529 
L 197.35449 213.785585 
L 198.447603 219.992739 
L 199.540716 224.522553 
L 200.633829 223.683634 
L 201.726942 225.361471 
L 203.913168 238.950415 
L 205.006281 244.319147 
L 206.099394 248.680979 
L 207.192507 256.230502 
L 208.28562 262.270171 
L 209.378733 264.45121 
L 210.471846 265.625349 
L 211.564959 268.309839 
L 213.751185 277.536927 
L 214.844298 281.731099 
L 215.93741 286.596355 
L 217.030523 290.119442 
L 218.123636 292.803733 
L 219.216749 293.810336 
L 220.309862 293.139251 
L 221.402975 292.635949 
L 222.496088 292.300432 
L 223.589201 289.951683 
L 224.682314 288.777321 
L 225.775427 283.744305 
L 226.86854 279.717892 
L 229.054766 263.109089 
L 230.147879 255.559566 
L 231.240992 244.486881 
L 232.334105 238.782681 
L 233.427218 229.2201 
L 234.520331 217.811948 
L 235.613444 209.255771 
L 239.985895 160.603451 
L 242.172121 142.819914 
L 243.265234 141.813509 
L 244.358347 141.645775 
L 245.45146 138.961285 
L 246.544573 134.767188 
L 247.637686 138.961285 
L 248.730799 139.464736 
L 249.823912 141.981244 
L 250.917025 140.639123 
L 252.010138 147.181993 
L 253.103251 155.234719 
L 254.196364 159.764533 
L 255.289477 168.656177 
L 256.38259 170.501501 
L 257.475702 182.580838 
L 259.661928 187.278385 
L 262.941267 202.712901 
L 264.03438 200.867329 
L 265.127493 206.403795 
L 266.220606 216.13411 
L 267.313719 223.5159 
L 268.406832 225.361471 
L 269.499945 224.690287 
L 271.686171 226.703592 
L 272.779284 222.006045 
L 273.872397 220.999392 
L 274.96551 219.489537 
L 276.058623 222.173779 
L 277.151736 227.03906 
L 278.244848 229.891037 
L 279.337961 236.769624 
L 280.431074 240.124802 
L 281.524187 247.003389 
L 282.6173 250.52655 
L 283.710413 253.54626 
L 285.896639 263.94776 
L 286.989752 267.806389 
L 288.082865 270.994081 
L 289.175978 278.879073 
L 290.269091 284.583149 
L 291.362204 287.938476 
L 292.455317 290.119442 
L 293.54843 290.287225 
L 294.641543 288.609562 
L 295.734656 283.744305 
L 296.827769 278.040229 
L 299.013994 262.941107 
L 300.107107 252.371873 
L 302.293333 226.703592 
L 303.386446 219.657271 
L 304.479559 203.048369 
L 305.572672 190.298095 
L 306.665785 182.748572 
L 307.758898 177.547822 
L 308.852011 168.991645 
L 309.945124 142.148978 
L 311.038237 121.849181 
L 314.317576 67.828129 
L 315.410689 63.801766 
L 316.503802 64.976152 
L 317.596915 72.022474 
L 318.690028 82.256239 
L 319.78314 97.187304 
L 320.876253 109.769844 
L 321.969366 114.131923 
L 323.062479 126.378994 
L 324.155592 134.599454 
L 325.248705 134.263986 
L 326.341818 129.734172 
L 327.434931 128.224317 
L 328.528044 128.72752 
L 329.621157 130.069641 
L 330.71427 144.665485 
L 331.807383 156.409106 
L 333.993609 185.600548 
L 335.086722 194.659926 
L 336.179835 208.081384 
L 337.272948 211.940013 
L 338.366061 212.778932 
L 339.459174 216.973029 
L 340.552287 222.844963 
L 341.645399 233.749665 
L 342.738512 238.614947 
L 343.831625 244.486881 
L 344.924738 256.56597 
L 346.017851 264.786678 
L 347.110964 269.316244 
L 348.204077 271.161815 
L 349.29719 273.846057 
L 350.390303 278.207988 
L 351.483416 279.885676 
L 352.576529 279.046832 
L 353.669642 280.221194 
L 354.762755 279.382374 
L 355.855868 281.395581 
L 356.948981 277.201384 
L 358.042094 277.87247 
L 359.135207 277.536927 
L 360.22832 277.87247 
L 361.321433 281.395581 
L 362.414545 283.241003 
L 363.507658 287.099657 
L 364.600771 288.94508 
L 365.693884 291.293828 
L 366.786997 293.307035 
L 367.88011 294.145854 
L 368.973223 295.320241 
L 370.066336 295.488 
L 372.252562 292.132648 
L 373.345675 289.61614 
L 376.625014 272.67167 
L 377.718127 265.961065 
L 378.81124 252.875076 
L 379.904353 246.667921 
L 380.997466 241.466923 
L 382.090579 232.910995 
L 383.183691 226.032408 
L 384.276804 215.798642 
L 385.369917 215.463174 
L 386.46303 209.255771 
L 387.556143 205.732611 
L 388.649256 199.357474 
L 389.742369 194.492192 
L 390.835482 201.203045 
L 391.928595 202.20945 
L 393.021708 198.854272 
L 394.114821 198.518555 
L 395.207934 204.39049 
L 396.301047 207.745916 
L 397.39416 200.364127 
L 398.487273 198.854272 
L 398.487273 198.854272 
" style="fill:none;stroke:#1f77b4;stroke-linecap:square;stroke-width:1.5;"/>
   </g>
   <g id="line2d_14">
    <path clip-path="url(#p71b879d449)" d="M 73.832727 214.317752 
L 76.018953 214.436637 
L 78.205179 214.325146 
L 80.391405 213.727391 
L 81.484518 213.110602 
L 82.577631 212.114887 
L 83.670744 210.308727 
L 84.763857 207.244236 
L 85.85697 203.786832 
L 89.136309 192.131586 
L 90.229421 189.4682 
L 92.415647 186.492155 
L 93.50876 184.464847 
L 94.601873 182.960161 
L 95.694986 182.433942 
L 97.881212 181.639148 
L 98.974325 181.919149 
L 101.160551 183.83217 
L 102.253664 184.328113 
L 103.346777 185.238055 
L 105.533003 187.863966 
L 106.626116 188.976394 
L 107.719229 190.724918 
L 108.812342 193.298041 
L 109.905455 194.342721 
L 110.998567 193.436477 
L 112.09168 193.03009 
L 113.184793 193.759628 
L 114.277906 194.233124 
L 115.371019 194.255524 
L 116.464132 195.46325 
L 117.557245 197.841901 
L 118.650358 199.626869 
L 120.836584 203.915288 
L 123.02281 205.638592 
L 125.209036 208.273537 
L 126.302149 208.922248 
L 127.395262 209.416282 
L 128.488375 210.484428 
L 129.581488 211.387325 
L 130.674601 211.756008 
L 131.767713 211.815575 
L 132.860826 212.0353 
L 133.953939 212.497052 
L 137.233278 213.485545 
L 138.326391 213.876932 
L 139.419504 214.023315 
L 144.885069 213.530136 
L 145.978182 213.160724 
L 147.071295 212.348588 
L 148.164408 211.264308 
L 150.350634 209.748672 
L 151.443747 208.589926 
L 152.53686 207.637836 
L 153.629972 206.84686 
L 154.723085 205.902259 
L 155.816198 204.632079 
L 156.909311 202.6553 
L 158.002424 201.220307 
L 159.095537 200.536181 
L 160.18865 200.276825 
L 161.281763 199.862069 
L 162.374876 198.325409 
L 165.654215 188.377147 
L 166.747328 186.433087 
L 167.840441 185.156107 
L 168.933554 184.123849 
L 170.026667 184.061783 
L 171.11978 184.66003 
L 173.306006 184.47245 
L 174.399118 184.955339 
L 175.492231 186.24842 
L 177.678457 189.384825 
L 179.864683 193.775739 
L 180.957796 195.16691 
L 182.050909 196.365015 
L 183.144022 197.084522 
L 184.237135 198.289766 
L 185.330248 198.99189 
L 188.609587 199.315291 
L 189.7027 199.824483 
L 190.795813 200.058053 
L 191.888926 200.620993 
L 195.168264 201.888238 
L 197.35449 203.172613 
L 198.447603 204.200879 
L 199.540716 205.435913 
L 200.633829 206.277192 
L 201.726942 206.408852 
L 202.820055 206.742427 
L 203.913168 207.670147 
L 205.006281 208.800962 
L 206.099394 209.705114 
L 207.192507 210.436826 
L 209.378733 212.101244 
L 210.471846 212.451122 
L 212.658072 212.90185 
L 217.030523 214.346333 
L 219.216749 214.743707 
L 221.402975 214.825006 
L 224.682314 214.693271 
L 225.775427 214.580494 
L 227.961653 214.018234 
L 229.054766 213.400106 
L 230.147879 212.584271 
L 231.240992 211.618941 
L 234.520331 207.675793 
L 237.799669 201.708667 
L 241.079008 194.722278 
L 242.172121 193.014146 
L 243.265234 191.684555 
L 244.358347 191.069514 
L 245.45146 191.003764 
L 247.637686 190.238419 
L 249.823912 190.646029 
L 250.917025 190.920615 
L 252.010138 190.971283 
L 253.103251 191.608968 
L 256.38259 195.09753 
L 257.475702 196.052194 
L 258.568815 197.606068 
L 259.661928 198.636999 
L 260.755041 199.165202 
L 261.848154 199.979862 
L 262.941267 201.052134 
L 264.03438 201.894572 
L 265.127493 202.124407 
L 266.220606 202.955015 
L 268.406832 205.958667 
L 269.499945 206.550053 
L 272.779284 206.756295 
L 274.96551 205.885382 
L 276.058623 205.743921 
L 277.151736 206.050096 
L 279.337961 207.500449 
L 282.6173 210.038683 
L 283.710413 210.66689 
L 285.896639 211.711352 
L 286.989752 212.339418 
L 292.455317 214.458353 
L 294.641543 214.65455 
L 295.734656 214.566264 
L 296.827769 214.350838 
L 297.920882 213.917451 
L 299.013994 213.326621 
L 300.107107 212.525388 
L 301.20022 211.275454 
L 302.293333 209.477037 
L 303.386446 207.396048 
L 304.479559 205.766681 
L 306.665785 200.385798 
L 307.758898 198.756709 
L 308.852011 197.50617 
L 309.945124 195.812681 
L 312.13135 189.099226 
L 313.224463 186.737816 
L 314.317576 184.815509 
L 315.410689 183.318203 
L 316.503802 182.465714 
L 317.596915 182.359407 
L 318.690028 182.706372 
L 319.78314 183.452206 
L 320.876253 184.660909 
L 321.969366 186.075053 
L 323.062479 187.029669 
L 325.248705 189.429057 
L 326.341818 189.866469 
L 328.528044 189.099376 
L 329.621157 189.06193 
L 330.71427 189.354385 
L 331.807383 190.823558 
L 332.900496 192.928631 
L 336.179835 200.402886 
L 337.272948 202.663956 
L 338.366061 203.917482 
L 339.459174 204.326908 
L 340.552287 204.975898 
L 341.645399 206.085095 
L 342.738512 207.73826 
L 344.924738 209.800485 
L 346.017851 211.228335 
L 347.110964 212.302976 
L 348.204077 212.909452 
L 352.576529 213.912645 
L 356.948981 213.993502 
L 359.135207 213.792796 
L 361.321433 213.825529 
L 368.973223 214.858504 
L 372.252562 214.874069 
L 374.438788 214.666371 
L 376.625014 213.989402 
L 377.718127 213.478566 
L 378.81124 212.773727 
L 380.997466 210.440248 
L 382.090579 209.549412 
L 383.183691 208.332876 
L 385.369917 205.490318 
L 388.649256 203.019363 
L 389.742369 201.828862 
L 390.835482 201.103837 
L 393.021708 202.05796 
L 394.114821 201.7026 
L 395.207934 201.633786 
L 396.301047 202.418531 
L 397.39416 202.885181 
L 398.487273 202.293598 
L 398.487273 202.293598 
" style="fill:none;stroke:#ff7f0e;stroke-linecap:square;stroke-width:1.5;"/>
   </g>
   <g id="line2d_15">
    <path clip-path="url(#p71b879d449)" d="M 73.832727 275.758309 
L 74.92584 276.075903 
L 76.018953 276.162169 
L 77.112066 276.005826 
L 78.205179 275.629262 
L 79.298292 274.34216 
L 80.391405 273.727577 
L 82.577631 268.776066 
L 83.670744 268.794365 
L 84.763857 268.967404 
L 85.85697 270.007855 
L 86.950083 272.024096 
L 88.043196 274.356882 
L 89.136309 275.912018 
L 90.229421 277.071609 
L 91.322534 277.714921 
L 92.415647 278.046266 
L 93.50876 278.638003 
L 94.601873 278.945725 
L 98.974325 279.156973 
L 103.346777 278.425377 
L 106.626116 277.262191 
L 107.719229 276.559452 
L 108.812342 275.453055 
L 109.905455 275.193004 
L 112.09168 275.544387 
L 113.184793 275.275167 
L 115.371019 275.042072 
L 116.464132 274.469393 
L 117.557245 273.222597 
L 118.650358 272.348091 
L 120.836584 270.349163 
L 121.929697 269.772647 
L 125.209036 269.293232 
L 130.674601 269.107283 
L 131.767713 269.177132 
L 132.860826 269.905842 
L 133.953939 270.869207 
L 136.140165 272.296617 
L 137.233278 273.562842 
L 138.326391 274.585939 
L 139.419504 274.639377 
L 140.512617 274.286611 
L 141.60573 274.342156 
L 142.698843 274.079108 
L 143.791956 273.624996 
L 144.885069 273.333313 
L 145.978182 271.696637 
L 147.071295 269.2223 
L 148.164408 268.789557 
L 149.257521 268.983221 
L 154.723085 269.259244 
L 155.816198 269.798392 
L 158.002424 271.563421 
L 159.095537 271.979465 
L 160.18865 272.067492 
L 161.281763 272.288817 
L 162.374876 272.936474 
L 163.467989 274.907396 
L 165.654215 277.585021 
L 167.840441 278.483631 
L 168.933554 278.747917 
L 170.026667 278.754148 
L 171.11978 278.543051 
L 173.306006 278.642373 
L 174.399118 278.48795 
L 175.492231 278.128836 
L 177.678457 277.095481 
L 178.77157 276.222589 
L 179.864683 275.186394 
L 184.237135 273.00908 
L 185.330248 272.728736 
L 187.516474 272.714945 
L 188.609587 272.597746 
L 189.7027 272.312083 
L 190.795813 272.205206 
L 192.982039 271.634648 
L 195.168264 271.141076 
L 197.35449 270.551504 
L 198.447603 270.206345 
L 199.540716 269.616634 
L 201.726942 269.323734 
L 203.913168 269.366388 
L 206.099394 269.195362 
L 207.192507 269.078458 
L 208.28562 269.276759 
L 209.378733 270.182282 
L 211.564959 270.935129 
L 218.123636 277.003809 
L 219.216749 277.680833 
L 220.309862 277.993131 
L 222.496088 277.762459 
L 223.589201 277.597084 
L 225.775427 276.653753 
L 227.961653 274.384156 
L 229.054766 272.386471 
L 230.147879 269.771174 
L 231.240992 268.693149 
L 232.334105 268.95094 
L 233.427218 269.070489 
L 234.520331 269.001782 
L 235.613444 269.210814 
L 236.706556 270.063748 
L 239.985895 273.613506 
L 241.079008 274.967431 
L 242.172121 275.571986 
L 244.358347 276.400746 
L 245.45146 276.430579 
L 247.637686 276.752399 
L 248.730799 276.738924 
L 250.917025 276.496469 
L 252.010138 276.406794 
L 253.103251 276.194008 
L 255.289477 275.158055 
L 256.38259 274.730847 
L 257.475702 274.173789 
L 258.568815 273.432519 
L 259.661928 272.840511 
L 260.755041 272.693821 
L 261.848154 272.229066 
L 262.941267 271.641748 
L 264.03438 271.264557 
L 265.127493 271.011866 
L 266.220606 270.638965 
L 268.406832 269.55636 
L 269.499945 269.31832 
L 276.058623 269.399975 
L 277.151736 269.473073 
L 284.803526 269.041273 
L 285.896639 269.436911 
L 286.989752 270.737757 
L 288.082865 271.581653 
L 289.175978 272.701872 
L 290.269091 274.211137 
L 291.362204 275.471036 
L 292.455317 276.356611 
L 293.54843 276.980817 
L 294.641543 277.134134 
L 295.734656 276.677511 
L 297.920882 274.100208 
L 299.013994 272.145432 
L 300.107107 269.674645 
L 301.20022 268.756082 
L 303.386446 269.023389 
L 304.479559 269.302454 
L 305.572672 270.244446 
L 306.665785 272.010645 
L 307.758898 272.787725 
L 308.852011 273.366018 
L 309.945124 274.54189 
L 312.13135 277.315367 
L 314.317576 278.55366 
L 315.410689 278.875207 
L 317.596915 278.988236 
L 318.690028 279.02965 
L 320.876253 278.572901 
L 321.969366 278.174979 
L 324.155592 277.556727 
L 325.248705 277.167736 
L 326.341818 276.979326 
L 328.528044 277.287739 
L 329.621157 277.2986 
L 330.71427 277.135642 
L 331.807383 276.528934 
L 333.993609 274.520874 
L 335.086722 273.039171 
L 337.272948 270.867696 
L 338.366061 270.215374 
L 341.645399 269.497899 
L 342.738512 269.472138 
L 343.831625 269.199159 
L 344.924738 269.159753 
L 346.017851 269.423739 
L 347.110964 270.813444 
L 348.204077 272.005187 
L 349.29719 272.513818 
L 351.483416 274.09478 
L 352.576529 274.424976 
L 353.669642 274.361129 
L 356.948981 274.639254 
L 358.042094 274.106713 
L 360.22832 274.056005 
L 361.321433 274.178614 
L 363.507658 275.294139 
L 364.600771 276.105919 
L 367.88011 277.863677 
L 370.066336 278.391284 
L 371.159449 278.416062 
L 372.252562 278.123912 
L 373.345675 277.605636 
L 374.438788 276.93941 
L 377.718127 272.862884 
L 378.81124 270.156766 
L 379.904353 268.666764 
L 380.997466 269.000969 
L 383.183691 269.028967 
L 384.276804 269.227798 
L 385.369917 269.263943 
L 386.46303 269.847675 
L 387.556143 270.068921 
L 388.649256 270.519624 
L 389.742369 271.173634 
L 390.835482 271.566904 
L 391.928595 271.41649 
L 393.021708 271.109665 
L 394.114821 271.255328 
L 395.207934 271.28298 
L 396.301047 270.875714 
L 397.39416 270.686223 
L 398.487273 270.901819 
L 398.487273 270.901819 
" style="fill:none;stroke:#2ca02c;stroke-linecap:square;stroke-width:1.5;"/>
   </g>
   <g id="line2d_16">
    <path clip-path="url(#p71b879d449)" d="M 73.832727 96.782096 
L 76.018953 96.475764 
L 77.112066 96.563028 
L 78.205179 96.776609 
L 80.391405 98.534752 
L 81.484518 99.746193 
L 83.670744 104.223895 
L 84.763857 107.539022 
L 85.85697 109.854886 
L 88.043196 117.172062 
L 89.136309 120.863535 
L 90.229421 119.19494 
L 91.322534 113.703425 
L 92.415647 105.265127 
L 93.50876 95.401709 
L 94.601873 90.90661 
L 95.694986 89.657921 
L 96.788099 87.555281 
L 97.881212 86.658205 
L 98.974325 88.227744 
L 100.067438 92.761281 
L 101.160551 95.761403 
L 102.253664 97.22968 
L 103.346777 102.069933 
L 105.533003 114.108183 
L 106.626116 119.054901 
L 107.719229 120.205799 
L 108.812342 117.732916 
L 109.905455 117.566991 
L 110.998567 118.88524 
L 112.09168 118.616284 
L 113.184793 117.872976 
L 114.277906 117.67983 
L 115.371019 117.696715 
L 116.464132 116.283168 
L 117.557245 114.201471 
L 118.650358 112.827539 
L 120.836584 109.322095 
L 121.929697 108.87916 
L 123.02281 108.103702 
L 124.115923 107.114242 
L 125.209036 105.923201 
L 127.395262 104.764725 
L 128.488375 103.362724 
L 129.581488 102.380689 
L 130.674601 102.145902 
L 131.767713 102.18132 
L 132.860826 101.738721 
L 135.047052 100.375286 
L 136.140165 99.933639 
L 138.326391 97.986602 
L 139.419504 97.585903 
L 141.60573 98.071718 
L 142.698843 98.092097 
L 143.791956 98.62138 
L 144.885069 99.010123 
L 145.978182 99.652431 
L 147.071295 101.451762 
L 148.164408 102.928279 
L 150.350634 104.758442 
L 152.53686 106.871905 
L 153.629972 107.412416 
L 154.723085 108.139138 
L 156.909311 110.445304 
L 158.002424 111.898685 
L 159.095537 112.369155 
L 161.281763 112.862734 
L 162.374876 114.436973 
L 164.561102 121.682333 
L 165.654215 114.293998 
L 166.747328 105.10498 
L 167.840441 99.781571 
L 168.933554 95.326344 
L 170.026667 96.862586 
L 171.11978 99.03001 
L 172.212893 98.064072 
L 173.306006 97.784397 
L 174.399118 100.070582 
L 177.678457 120.165366 
L 178.77157 119.145803 
L 179.864683 117.649441 
L 180.957796 116.538582 
L 182.050909 115.844546 
L 183.144022 115.309628 
L 185.330248 113.413929 
L 186.423361 113.645252 
L 187.516474 113.624676 
L 189.7027 112.967191 
L 191.888926 112.339147 
L 192.982039 111.747904 
L 194.075152 111.55236 
L 198.447603 109.255528 
L 199.540716 108.366009 
L 200.633829 107.626764 
L 201.726942 107.656974 
L 202.820055 107.292535 
L 203.913168 106.554059 
L 205.006281 105.39827 
L 209.378733 101.608326 
L 210.471846 101.036021 
L 211.564959 100.780774 
L 212.658072 100.263293 
L 214.844298 98.518792 
L 217.030523 96.723636 
L 218.123636 95.921668 
L 219.216749 95.451473 
L 220.309862 95.190254 
L 222.496088 95.329005 
L 223.589201 95.444364 
L 225.775427 96.080712 
L 226.86854 96.746294 
L 227.961653 97.683398 
L 229.054766 99.10318 
L 230.147879 100.976197 
L 235.613444 108.497449 
L 236.706556 109.648889 
L 237.799669 111.283187 
L 239.985895 115.858567 
L 241.079008 117.822433 
L 242.172121 119.39059 
L 243.265234 120.447212 
L 244.358347 120.690325 
L 245.45146 120.726182 
L 247.637686 121.586177 
L 248.730799 121.088323 
L 249.823912 120.843809 
L 250.917025 120.759442 
L 252.010138 120.477451 
L 253.103251 119.851944 
L 254.196364 118.630408 
L 257.475702 116.031508 
L 258.568815 114.712077 
L 259.661928 113.878791 
L 260.755041 113.532007 
L 261.848154 112.765271 
L 262.941267 111.739781 
L 264.03438 110.946778 
L 265.127493 110.836947 
L 267.313719 108.944338 
L 268.406832 107.869741 
L 269.499945 107.450274 
L 271.686171 107.33818 
L 272.779284 107.404393 
L 274.96551 108.153479 
L 276.058623 108.176967 
L 277.151736 107.823227 
L 279.337961 106.794907 
L 280.431074 105.834867 
L 281.524187 105.072379 
L 282.6173 104.052526 
L 285.896639 102.160166 
L 288.082865 100.392802 
L 289.175978 99.759811 
L 290.269091 98.542849 
L 291.362204 97.06416 
L 293.54843 95.921289 
L 294.641543 95.778118 
L 295.734656 96.039307 
L 296.827769 96.834542 
L 297.920882 97.915089 
L 299.013994 99.384206 
L 300.107107 101.082059 
L 303.386446 107.262903 
L 304.479559 108.407429 
L 305.572672 110.193581 
L 306.665785 112.861173 
L 307.758898 114.227703 
L 308.852011 115.068925 
L 309.945124 116.911493 
L 311.038237 120.740666 
L 312.13135 117.419866 
L 313.224463 106.183528 
L 314.317576 97.718181 
L 315.410689 91.704842 
L 316.503802 89.56536 
L 317.596915 89.592953 
L 318.690028 91.14655 
L 319.78314 94.554409 
L 320.876253 99.543981 
L 321.969366 105.583623 
L 323.062479 109.836046 
L 324.155592 115.893824 
L 325.248705 120.533737 
L 326.341818 121.182227 
L 327.434931 120.090416 
L 328.528044 118.799708 
L 329.621157 118.775154 
L 330.71427 119.866803 
L 331.807383 119.996172 
L 337.272948 110.078395 
L 338.366061 109.228685 
L 339.459174 109.204859 
L 340.552287 108.764739 
L 344.924738 104.24789 
L 346.017851 102.436037 
L 347.110964 101.191065 
L 348.204077 100.230003 
L 352.576529 97.861256 
L 353.669642 97.753788 
L 354.762755 97.875066 
L 356.948981 97.610962 
L 359.135207 98.345681 
L 360.22832 98.324865 
L 361.321433 98.150472 
L 362.414545 97.728204 
L 364.600771 96.587477 
L 366.786997 95.668085 
L 367.88011 95.305537 
L 370.066336 94.919187 
L 371.159449 94.877742 
L 372.252562 95.006055 
L 373.345675 95.390409 
L 374.438788 95.902041 
L 375.531901 96.682135 
L 377.718127 98.982115 
L 379.904353 102.558954 
L 384.276804 107.560689 
L 385.369917 108.45154 
L 386.46303 109.118272 
L 387.556143 109.470325 
L 388.649256 110.136567 
L 390.835482 112.028841 
L 391.928595 111.251324 
L 393.021708 110.899066 
L 394.114821 111.329869 
L 395.207934 111.339739 
L 396.301047 110.351679 
L 397.39416 110.103844 
L 398.487273 110.843118 
L 398.487273 110.843118 
" style="fill:none;stroke:#d62728;stroke-linecap:square;stroke-width:1.5;"/>
   </g>
   <g id="patch_3">
    <path d="M 57.6 307.584 
L 57.6 41.472 
" style="fill:none;stroke:#000000;stroke-linecap:square;stroke-linejoin:miter;stroke-width:0.8;"/>
   </g>
   <g id="patch_4">
    <path d="M 414.72 307.584 
L 414.72 41.472 
" style="fill:none;stroke:#000000;stroke-linecap:square;stroke-linejoin:miter;stroke-width:0.8;"/>
   </g>
   <g id="patch_5">
    <path d="M 57.6 307.584 
L 414.72 307.584 
" style="fill:none;stroke:#000000;stroke-linecap:square;stroke-linejoin:miter;stroke-width:0.8;"/>
   </g>
   <g id="patch_6">
    <path d="M 57.6 41.472 
L 414.72 41.472 
" style="fill:none;stroke:#000000;stroke-linecap:square;stroke-linejoin:miter;stroke-width:0.8;"/>
   </g>
   <g id="text_13">
    <!-- Plot of Train Data vs MCMC Uncertainty  -->
    <defs>
     <path d="M 19.671875 64.796875 
L 19.671875 37.40625 
L 32.078125 37.40625 
Q 38.96875 37.40625 42.71875 40.96875 
Q 46.484375 44.53125 46.484375 51.125 
Q 46.484375 57.671875 42.71875 61.234375 
Q 38.96875 64.796875 32.078125 64.796875 
z
M 9.8125 72.90625 
L 32.078125 72.90625 
Q 44.34375 72.90625 50.609375 67.359375 
Q 56.890625 61.8125 56.890625 51.125 
Q 56.890625 40.328125 50.609375 34.8125 
Q 44.34375 29.296875 32.078125 29.296875 
L 19.671875 29.296875 
L 19.671875 0 
L 9.8125 0 
z
" id="DejaVuSans-50"/>
     <path d="M 9.421875 75.984375 
L 18.40625 75.984375 
L 18.40625 0 
L 9.421875 0 
z
" id="DejaVuSans-6c"/>
     <path d="M 30.609375 48.390625 
Q 23.390625 48.390625 19.1875 42.75 
Q 14.984375 37.109375 14.984375 27.296875 
Q 14.984375 17.484375 19.15625 11.84375 
Q 23.34375 6.203125 30.609375 6.203125 
Q 37.796875 6.203125 41.984375 11.859375 
Q 46.1875 17.53125 46.1875 27.296875 
Q 46.1875 37.015625 41.984375 42.703125 
Q 37.796875 48.390625 30.609375 48.390625 
z
M 30.609375 56 
Q 42.328125 56 49.015625 48.375 
Q 55.71875 40.765625 55.71875 27.296875 
Q 55.71875 13.875 49.015625 6.21875 
Q 42.328125 -1.421875 30.609375 -1.421875 
Q 18.84375 -1.421875 12.171875 6.21875 
Q 5.515625 13.875 5.515625 27.296875 
Q 5.515625 40.765625 12.171875 48.375 
Q 18.84375 56 30.609375 56 
z
" id="DejaVuSans-6f"/>
     <path d="M 18.3125 70.21875 
L 18.3125 54.6875 
L 36.8125 54.6875 
L 36.8125 47.703125 
L 18.3125 47.703125 
L 18.3125 18.015625 
Q 18.3125 11.328125 20.140625 9.421875 
Q 21.96875 7.515625 27.59375 7.515625 
L 36.8125 7.515625 
L 36.8125 0 
L 27.59375 0 
Q 17.1875 0 13.234375 3.875 
Q 9.28125 7.765625 9.28125 18.015625 
L 9.28125 47.703125 
L 2.6875 47.703125 
L 2.6875 54.6875 
L 9.28125 54.6875 
L 9.28125 70.21875 
z
" id="DejaVuSans-74"/>
     <path id="DejaVuSans-20"/>
     <path d="M 37.109375 75.984375 
L 37.109375 68.5 
L 28.515625 68.5 
Q 23.6875 68.5 21.796875 66.546875 
Q 19.921875 64.59375 19.921875 59.515625 
L 19.921875 54.6875 
L 34.71875 54.6875 
L 34.71875 47.703125 
L 19.921875 47.703125 
L 19.921875 0 
L 10.890625 0 
L 10.890625 47.703125 
L 2.296875 47.703125 
L 2.296875 54.6875 
L 10.890625 54.6875 
L 10.890625 58.5 
Q 10.890625 67.625 15.140625 71.796875 
Q 19.390625 75.984375 28.609375 75.984375 
z
" id="DejaVuSans-66"/>
     <path d="M -0.296875 72.90625 
L 61.375 72.90625 
L 61.375 64.59375 
L 35.5 64.59375 
L 35.5 0 
L 25.59375 0 
L 25.59375 64.59375 
L -0.296875 64.59375 
z
" id="DejaVuSans-54"/>
     <path d="M 41.109375 46.296875 
Q 39.59375 47.171875 37.8125 47.578125 
Q 36.03125 48 33.890625 48 
Q 26.265625 48 22.1875 43.046875 
Q 18.109375 38.09375 18.109375 28.8125 
L 18.109375 0 
L 9.078125 0 
L 9.078125 54.6875 
L 18.109375 54.6875 
L 18.109375 46.1875 
Q 20.953125 51.171875 25.484375 53.578125 
Q 30.03125 56 36.53125 56 
Q 37.453125 56 38.578125 55.875 
Q 39.703125 55.765625 41.0625 55.515625 
z
" id="DejaVuSans-72"/>
     <path d="M 34.28125 27.484375 
Q 23.390625 27.484375 19.1875 25 
Q 14.984375 22.515625 14.984375 16.5 
Q 14.984375 11.71875 18.140625 8.90625 
Q 21.296875 6.109375 26.703125 6.109375 
Q 34.1875 6.109375 38.703125 11.40625 
Q 43.21875 16.703125 43.21875 25.484375 
L 43.21875 27.484375 
z
M 52.203125 31.203125 
L 52.203125 0 
L 43.21875 0 
L 43.21875 8.296875 
Q 40.140625 3.328125 35.546875 0.953125 
Q 30.953125 -1.421875 24.3125 -1.421875 
Q 15.921875 -1.421875 10.953125 3.296875 
Q 6 8.015625 6 15.921875 
Q 6 25.140625 12.171875 29.828125 
Q 18.359375 34.515625 30.609375 34.515625 
L 43.21875 34.515625 
L 43.21875 35.40625 
Q 43.21875 41.609375 39.140625 45 
Q 35.0625 48.390625 27.6875 48.390625 
Q 23 48.390625 18.546875 47.265625 
Q 14.109375 46.140625 10.015625 43.890625 
L 10.015625 52.203125 
Q 14.9375 54.109375 19.578125 55.046875 
Q 24.21875 56 28.609375 56 
Q 40.484375 56 46.34375 49.84375 
Q 52.203125 43.703125 52.203125 31.203125 
z
" id="DejaVuSans-61"/>
     <path d="M 9.421875 54.6875 
L 18.40625 54.6875 
L 18.40625 0 
L 9.421875 0 
z
M 9.421875 75.984375 
L 18.40625 75.984375 
L 18.40625 64.59375 
L 9.421875 64.59375 
z
" id="DejaVuSans-69"/>
     <path d="M 54.890625 33.015625 
L 54.890625 0 
L 45.90625 0 
L 45.90625 32.71875 
Q 45.90625 40.484375 42.875 44.328125 
Q 39.84375 48.1875 33.796875 48.1875 
Q 26.515625 48.1875 22.3125 43.546875 
Q 18.109375 38.921875 18.109375 30.90625 
L 18.109375 0 
L 9.078125 0 
L 9.078125 54.6875 
L 18.109375 54.6875 
L 18.109375 46.1875 
Q 21.34375 51.125 25.703125 53.5625 
Q 30.078125 56 35.796875 56 
Q 45.21875 56 50.046875 50.171875 
Q 54.890625 44.34375 54.890625 33.015625 
z
" id="DejaVuSans-6e"/>
     <path d="M 19.671875 64.796875 
L 19.671875 8.109375 
L 31.59375 8.109375 
Q 46.6875 8.109375 53.6875 14.9375 
Q 60.6875 21.78125 60.6875 36.53125 
Q 60.6875 51.171875 53.6875 57.984375 
Q 46.6875 64.796875 31.59375 64.796875 
z
M 9.8125 72.90625 
L 30.078125 72.90625 
Q 51.265625 72.90625 61.171875 64.09375 
Q 71.09375 55.28125 71.09375 36.53125 
Q 71.09375 17.671875 61.125 8.828125 
Q 51.171875 0 30.078125 0 
L 9.8125 0 
z
" id="DejaVuSans-44"/>
     <path d="M 2.984375 54.6875 
L 12.5 54.6875 
L 29.59375 8.796875 
L 46.6875 54.6875 
L 56.203125 54.6875 
L 35.6875 0 
L 23.484375 0 
z
" id="DejaVuSans-76"/>
     <path d="M 44.28125 53.078125 
L 44.28125 44.578125 
Q 40.484375 46.53125 36.375 47.5 
Q 32.28125 48.484375 27.875 48.484375 
Q 21.1875 48.484375 17.84375 46.4375 
Q 14.5 44.390625 14.5 40.28125 
Q 14.5 37.15625 16.890625 35.375 
Q 19.28125 33.59375 26.515625 31.984375 
L 29.59375 31.296875 
Q 39.15625 29.25 43.1875 25.515625 
Q 47.21875 21.78125 47.21875 15.09375 
Q 47.21875 7.46875 41.1875 3.015625 
Q 35.15625 -1.421875 24.609375 -1.421875 
Q 20.21875 -1.421875 15.453125 -0.5625 
Q 10.6875 0.296875 5.421875 2 
L 5.421875 11.28125 
Q 10.40625 8.6875 15.234375 7.390625 
Q 20.0625 6.109375 24.8125 6.109375 
Q 31.15625 6.109375 34.5625 8.28125 
Q 37.984375 10.453125 37.984375 14.40625 
Q 37.984375 18.0625 35.515625 20.015625 
Q 33.0625 21.96875 24.703125 23.78125 
L 21.578125 24.515625 
Q 13.234375 26.265625 9.515625 29.90625 
Q 5.8125 33.546875 5.8125 39.890625 
Q 5.8125 47.609375 11.28125 51.796875 
Q 16.75 56 26.8125 56 
Q 31.78125 56 36.171875 55.265625 
Q 40.578125 54.546875 44.28125 53.078125 
z
" id="DejaVuSans-73"/>
     <path d="M 9.8125 72.90625 
L 24.515625 72.90625 
L 43.109375 23.296875 
L 61.8125 72.90625 
L 76.515625 72.90625 
L 76.515625 0 
L 66.890625 0 
L 66.890625 64.015625 
L 48.09375 14.015625 
L 38.1875 14.015625 
L 19.390625 64.015625 
L 19.390625 0 
L 9.8125 0 
z
" id="DejaVuSans-4d"/>
     <path d="M 64.40625 67.28125 
L 64.40625 56.890625 
Q 59.421875 61.53125 53.78125 63.8125 
Q 48.140625 66.109375 41.796875 66.109375 
Q 29.296875 66.109375 22.65625 58.46875 
Q 16.015625 50.828125 16.015625 36.375 
Q 16.015625 21.96875 22.65625 14.328125 
Q 29.296875 6.6875 41.796875 6.6875 
Q 48.140625 6.6875 53.78125 8.984375 
Q 59.421875 11.28125 64.40625 15.921875 
L 64.40625 5.609375 
Q 59.234375 2.09375 53.4375 0.328125 
Q 47.65625 -1.421875 41.21875 -1.421875 
Q 24.65625 -1.421875 15.125 8.703125 
Q 5.609375 18.84375 5.609375 36.375 
Q 5.609375 53.953125 15.125 64.078125 
Q 24.65625 74.21875 41.21875 74.21875 
Q 47.75 74.21875 53.53125 72.484375 
Q 59.328125 70.75 64.40625 67.28125 
z
" id="DejaVuSans-43"/>
     <path d="M 8.6875 72.90625 
L 18.609375 72.90625 
L 18.609375 28.609375 
Q 18.609375 16.890625 22.84375 11.734375 
Q 27.09375 6.59375 36.625 6.59375 
Q 46.09375 6.59375 50.34375 11.734375 
Q 54.59375 16.890625 54.59375 28.609375 
L 54.59375 72.90625 
L 64.5 72.90625 
L 64.5 27.390625 
Q 64.5 13.140625 57.4375 5.859375 
Q 50.390625 -1.421875 36.625 -1.421875 
Q 22.796875 -1.421875 15.734375 5.859375 
Q 8.6875 13.140625 8.6875 27.390625 
z
" id="DejaVuSans-55"/>
     <path d="M 48.78125 52.59375 
L 48.78125 44.1875 
Q 44.96875 46.296875 41.140625 47.34375 
Q 37.3125 48.390625 33.40625 48.390625 
Q 24.65625 48.390625 19.8125 42.84375 
Q 14.984375 37.3125 14.984375 27.296875 
Q 14.984375 17.28125 19.8125 11.734375 
Q 24.65625 6.203125 33.40625 6.203125 
Q 37.3125 6.203125 41.140625 7.25 
Q 44.96875 8.296875 48.78125 10.40625 
L 48.78125 2.09375 
Q 45.015625 0.34375 40.984375 -0.53125 
Q 36.96875 -1.421875 32.421875 -1.421875 
Q 20.0625 -1.421875 12.78125 6.34375 
Q 5.515625 14.109375 5.515625 27.296875 
Q 5.515625 40.671875 12.859375 48.328125 
Q 20.21875 56 33.015625 56 
Q 37.15625 56 41.109375 55.140625 
Q 45.0625 54.296875 48.78125 52.59375 
z
" id="DejaVuSans-63"/>
     <path d="M 56.203125 29.59375 
L 56.203125 25.203125 
L 14.890625 25.203125 
Q 15.484375 15.921875 20.484375 11.0625 
Q 25.484375 6.203125 34.421875 6.203125 
Q 39.59375 6.203125 44.453125 7.46875 
Q 49.3125 8.734375 54.109375 11.28125 
L 54.109375 2.78125 
Q 49.265625 0.734375 44.1875 -0.34375 
Q 39.109375 -1.421875 33.890625 -1.421875 
Q 20.796875 -1.421875 13.15625 6.1875 
Q 5.515625 13.8125 5.515625 26.8125 
Q 5.515625 40.234375 12.765625 48.109375 
Q 20.015625 56 32.328125 56 
Q 43.359375 56 49.78125 48.890625 
Q 56.203125 41.796875 56.203125 29.59375 
z
M 47.21875 32.234375 
Q 47.125 39.59375 43.09375 43.984375 
Q 39.0625 48.390625 32.421875 48.390625 
Q 24.90625 48.390625 20.390625 44.140625 
Q 15.875 39.890625 15.1875 32.171875 
z
" id="DejaVuSans-65"/>
     <path d="M 32.171875 -5.078125 
Q 28.375 -14.84375 24.75 -17.8125 
Q 21.140625 -20.796875 15.09375 -20.796875 
L 7.90625 -20.796875 
L 7.90625 -13.28125 
L 13.1875 -13.28125 
Q 16.890625 -13.28125 18.9375 -11.515625 
Q 21 -9.765625 23.484375 -3.21875 
L 25.09375 0.875 
L 2.984375 54.6875 
L 12.5 54.6875 
L 29.59375 11.921875 
L 46.6875 54.6875 
L 56.203125 54.6875 
z
" id="DejaVuSans-79"/>
    </defs>
    <g transform="translate(115.666875 35.472)scale(0.12 -0.12)">
     <use xlink:href="#DejaVuSans-50"/>
     <use x="60.302734" xlink:href="#DejaVuSans-6c"/>
     <use x="88.085938" xlink:href="#DejaVuSans-6f"/>
     <use x="149.267578" xlink:href="#DejaVuSans-74"/>
     <use x="188.476562" xlink:href="#DejaVuSans-20"/>
     <use x="220.263672" xlink:href="#DejaVuSans-6f"/>
     <use x="281.445312" xlink:href="#DejaVuSans-66"/>
     <use x="316.650391" xlink:href="#DejaVuSans-20"/>
     <use x="348.4375" xlink:href="#DejaVuSans-54"/>
     <use x="409.302734" xlink:href="#DejaVuSans-72"/>
     <use x="450.416016" xlink:href="#DejaVuSans-61"/>
     <use x="511.695312" xlink:href="#DejaVuSans-69"/>
     <use x="539.478516" xlink:href="#DejaVuSans-6e"/>
     <use x="602.857422" xlink:href="#DejaVuSans-20"/>
     <use x="634.644531" xlink:href="#DejaVuSans-44"/>
     <use x="711.646484" xlink:href="#DejaVuSans-61"/>
     <use x="772.925781" xlink:href="#DejaVuSans-74"/>
     <use x="812.134766" xlink:href="#DejaVuSans-61"/>
     <use x="873.414062" xlink:href="#DejaVuSans-20"/>
     <use x="905.201172" xlink:href="#DejaVuSans-76"/>
     <use x="964.380859" xlink:href="#DejaVuSans-73"/>
     <use x="1016.480469" xlink:href="#DejaVuSans-20"/>
     <use x="1048.267578" xlink:href="#DejaVuSans-4d"/>
     <use x="1134.546875" xlink:href="#DejaVuSans-43"/>
     <use x="1204.371094" xlink:href="#DejaVuSans-4d"/>
     <use x="1290.650391" xlink:href="#DejaVuSans-43"/>
     <use x="1360.474609" xlink:href="#DejaVuSans-20"/>
     <use x="1392.261719" xlink:href="#DejaVuSans-55"/>
     <use x="1465.455078" xlink:href="#DejaVuSans-6e"/>
     <use x="1528.833984" xlink:href="#DejaVuSans-63"/>
     <use x="1583.814453" xlink:href="#DejaVuSans-65"/>
     <use x="1645.337891" xlink:href="#DejaVuSans-72"/>
     <use x="1686.451172" xlink:href="#DejaVuSans-74"/>
     <use x="1725.660156" xlink:href="#DejaVuSans-61"/>
     <use x="1786.939453" xlink:href="#DejaVuSans-69"/>
     <use x="1814.722656" xlink:href="#DejaVuSans-6e"/>
     <use x="1878.101562" xlink:href="#DejaVuSans-74"/>
     <use x="1917.310547" xlink:href="#DejaVuSans-79"/>
     <use x="1976.490234" xlink:href="#DejaVuSans-20"/>
    </g>
   </g>
   <g id="legend_1">
    <g id="patch_7">
     <path d="M 277.843437 108.1845 
L 407.72 108.1845 
Q 409.72 108.1845 409.72 106.1845 
L 409.72 48.472 
Q 409.72 46.472 407.72 46.472 
L 277.843437 46.472 
Q 275.843437 46.472 275.843437 48.472 
L 275.843437 106.1845 
Q 275.843437 108.1845 277.843437 108.1845 
z
" style="fill:#ffffff;opacity:0.8;stroke:#cccccc;stroke-linejoin:miter;"/>
    </g>
    <g id="line2d_17">
     <path d="M 279.843437 54.570438 
L 299.843437 54.570438 
" style="fill:none;stroke:#1f77b4;stroke-linecap:square;stroke-width:1.5;"/>
    </g>
    <g id="line2d_18"/>
    <g id="text_14">
     <!-- actual -->
     <defs>
      <path d="M 8.5 21.578125 
L 8.5 54.6875 
L 17.484375 54.6875 
L 17.484375 21.921875 
Q 17.484375 14.15625 20.5 10.265625 
Q 23.53125 6.390625 29.59375 6.390625 
Q 36.859375 6.390625 41.078125 11.03125 
Q 45.3125 15.671875 45.3125 23.6875 
L 45.3125 54.6875 
L 54.296875 54.6875 
L 54.296875 0 
L 45.3125 0 
L 45.3125 8.40625 
Q 42.046875 3.421875 37.71875 1 
Q 33.40625 -1.421875 27.6875 -1.421875 
Q 18.265625 -1.421875 13.375 4.4375 
Q 8.5 10.296875 8.5 21.578125 
z
M 31.109375 56 
z
" id="DejaVuSans-75"/>
     </defs>
     <g transform="translate(307.843437 58.070438)scale(0.1 -0.1)">
      <use xlink:href="#DejaVuSans-61"/>
      <use x="61.279297" xlink:href="#DejaVuSans-63"/>
      <use x="116.259766" xlink:href="#DejaVuSans-74"/>
      <use x="155.46875" xlink:href="#DejaVuSans-75"/>
      <use x="218.847656" xlink:href="#DejaVuSans-61"/>
      <use x="280.126953" xlink:href="#DejaVuSans-6c"/>
     </g>
    </g>
    <g id="line2d_19">
     <path d="M 279.843437 69.248563 
L 299.843437 69.248563 
" style="fill:none;stroke:#ff7f0e;stroke-linecap:square;stroke-width:1.5;"/>
    </g>
    <g id="line2d_20"/>
    <g id="text_15">
     <!-- pred. (mean) -->
     <defs>
      <path d="M 18.109375 8.203125 
L 18.109375 -20.796875 
L 9.078125 -20.796875 
L 9.078125 54.6875 
L 18.109375 54.6875 
L 18.109375 46.390625 
Q 20.953125 51.265625 25.265625 53.625 
Q 29.59375 56 35.59375 56 
Q 45.5625 56 51.78125 48.09375 
Q 58.015625 40.1875 58.015625 27.296875 
Q 58.015625 14.40625 51.78125 6.484375 
Q 45.5625 -1.421875 35.59375 -1.421875 
Q 29.59375 -1.421875 25.265625 0.953125 
Q 20.953125 3.328125 18.109375 8.203125 
z
M 48.6875 27.296875 
Q 48.6875 37.203125 44.609375 42.84375 
Q 40.53125 48.484375 33.40625 48.484375 
Q 26.265625 48.484375 22.1875 42.84375 
Q 18.109375 37.203125 18.109375 27.296875 
Q 18.109375 17.390625 22.1875 11.75 
Q 26.265625 6.109375 33.40625 6.109375 
Q 40.53125 6.109375 44.609375 11.75 
Q 48.6875 17.390625 48.6875 27.296875 
z
" id="DejaVuSans-70"/>
      <path d="M 45.40625 46.390625 
L 45.40625 75.984375 
L 54.390625 75.984375 
L 54.390625 0 
L 45.40625 0 
L 45.40625 8.203125 
Q 42.578125 3.328125 38.25 0.953125 
Q 33.9375 -1.421875 27.875 -1.421875 
Q 17.96875 -1.421875 11.734375 6.484375 
Q 5.515625 14.40625 5.515625 27.296875 
Q 5.515625 40.1875 11.734375 48.09375 
Q 17.96875 56 27.875 56 
Q 33.9375 56 38.25 53.625 
Q 42.578125 51.265625 45.40625 46.390625 
z
M 14.796875 27.296875 
Q 14.796875 17.390625 18.875 11.75 
Q 22.953125 6.109375 30.078125 6.109375 
Q 37.203125 6.109375 41.296875 11.75 
Q 45.40625 17.390625 45.40625 27.296875 
Q 45.40625 37.203125 41.296875 42.84375 
Q 37.203125 48.484375 30.078125 48.484375 
Q 22.953125 48.484375 18.875 42.84375 
Q 14.796875 37.203125 14.796875 27.296875 
z
" id="DejaVuSans-64"/>
      <path d="M 31 75.875 
Q 24.46875 64.65625 21.28125 53.65625 
Q 18.109375 42.671875 18.109375 31.390625 
Q 18.109375 20.125 21.3125 9.0625 
Q 24.515625 -2 31 -13.1875 
L 23.1875 -13.1875 
Q 15.875 -1.703125 12.234375 9.375 
Q 8.59375 20.453125 8.59375 31.390625 
Q 8.59375 42.28125 12.203125 53.3125 
Q 15.828125 64.359375 23.1875 75.875 
z
" id="DejaVuSans-28"/>
      <path d="M 52 44.1875 
Q 55.375 50.25 60.0625 53.125 
Q 64.75 56 71.09375 56 
Q 79.640625 56 84.28125 50.015625 
Q 88.921875 44.046875 88.921875 33.015625 
L 88.921875 0 
L 79.890625 0 
L 79.890625 32.71875 
Q 79.890625 40.578125 77.09375 44.375 
Q 74.3125 48.1875 68.609375 48.1875 
Q 61.625 48.1875 57.5625 43.546875 
Q 53.515625 38.921875 53.515625 30.90625 
L 53.515625 0 
L 44.484375 0 
L 44.484375 32.71875 
Q 44.484375 40.625 41.703125 44.40625 
Q 38.921875 48.1875 33.109375 48.1875 
Q 26.21875 48.1875 22.15625 43.53125 
Q 18.109375 38.875 18.109375 30.90625 
L 18.109375 0 
L 9.078125 0 
L 9.078125 54.6875 
L 18.109375 54.6875 
L 18.109375 46.1875 
Q 21.1875 51.21875 25.484375 53.609375 
Q 29.78125 56 35.6875 56 
Q 41.65625 56 45.828125 52.96875 
Q 50 49.953125 52 44.1875 
z
" id="DejaVuSans-6d"/>
      <path d="M 8.015625 75.875 
L 15.828125 75.875 
Q 23.140625 64.359375 26.78125 53.3125 
Q 30.421875 42.28125 30.421875 31.390625 
Q 30.421875 20.453125 26.78125 9.375 
Q 23.140625 -1.703125 15.828125 -13.1875 
L 8.015625 -13.1875 
Q 14.5 -2 17.703125 9.0625 
Q 20.90625 20.125 20.90625 31.390625 
Q 20.90625 42.671875 17.703125 53.65625 
Q 14.5 64.65625 8.015625 75.875 
z
" id="DejaVuSans-29"/>
     </defs>
     <g transform="translate(307.843437 72.748563)scale(0.1 -0.1)">
      <use xlink:href="#DejaVuSans-70"/>
      <use x="63.476562" xlink:href="#DejaVuSans-72"/>
      <use x="104.558594" xlink:href="#DejaVuSans-65"/>
      <use x="166.082031" xlink:href="#DejaVuSans-64"/>
      <use x="229.558594" xlink:href="#DejaVuSans-2e"/>
      <use x="261.345703" xlink:href="#DejaVuSans-20"/>
      <use x="293.132812" xlink:href="#DejaVuSans-28"/>
      <use x="332.146484" xlink:href="#DejaVuSans-6d"/>
      <use x="429.558594" xlink:href="#DejaVuSans-65"/>
      <use x="491.082031" xlink:href="#DejaVuSans-61"/>
      <use x="552.361328" xlink:href="#DejaVuSans-6e"/>
      <use x="615.740234" xlink:href="#DejaVuSans-29"/>
     </g>
    </g>
    <g id="line2d_21">
     <path d="M 279.843437 83.926688 
L 299.843437 83.926688 
" style="fill:none;stroke:#2ca02c;stroke-linecap:square;stroke-width:1.5;"/>
    </g>
    <g id="line2d_22"/>
    <g id="text_16">
     <!-- pred.(5th percen.) -->
     <defs>
      <path d="M 10.796875 72.90625 
L 49.515625 72.90625 
L 49.515625 64.59375 
L 19.828125 64.59375 
L 19.828125 46.734375 
Q 21.96875 47.46875 24.109375 47.828125 
Q 26.265625 48.1875 28.421875 48.1875 
Q 40.625 48.1875 47.75 41.5 
Q 54.890625 34.8125 54.890625 23.390625 
Q 54.890625 11.625 47.5625 5.09375 
Q 40.234375 -1.421875 26.90625 -1.421875 
Q 22.3125 -1.421875 17.546875 -0.640625 
Q 12.796875 0.140625 7.71875 1.703125 
L 7.71875 11.625 
Q 12.109375 9.234375 16.796875 8.0625 
Q 21.484375 6.890625 26.703125 6.890625 
Q 35.15625 6.890625 40.078125 11.328125 
Q 45.015625 15.765625 45.015625 23.390625 
Q 45.015625 31 40.078125 35.4375 
Q 35.15625 39.890625 26.703125 39.890625 
Q 22.75 39.890625 18.8125 39.015625 
Q 14.890625 38.140625 10.796875 36.28125 
z
" id="DejaVuSans-35"/>
      <path d="M 54.890625 33.015625 
L 54.890625 0 
L 45.90625 0 
L 45.90625 32.71875 
Q 45.90625 40.484375 42.875 44.328125 
Q 39.84375 48.1875 33.796875 48.1875 
Q 26.515625 48.1875 22.3125 43.546875 
Q 18.109375 38.921875 18.109375 30.90625 
L 18.109375 0 
L 9.078125 0 
L 9.078125 75.984375 
L 18.109375 75.984375 
L 18.109375 46.1875 
Q 21.34375 51.125 25.703125 53.5625 
Q 30.078125 56 35.796875 56 
Q 45.21875 56 50.046875 50.171875 
Q 54.890625 44.34375 54.890625 33.015625 
z
" id="DejaVuSans-68"/>
     </defs>
     <g transform="translate(307.843437 87.426688)scale(0.1 -0.1)">
      <use xlink:href="#DejaVuSans-70"/>
      <use x="63.476562" xlink:href="#DejaVuSans-72"/>
      <use x="104.558594" xlink:href="#DejaVuSans-65"/>
      <use x="166.082031" xlink:href="#DejaVuSans-64"/>
      <use x="229.558594" xlink:href="#DejaVuSans-2e"/>
      <use x="261.345703" xlink:href="#DejaVuSans-28"/>
      <use x="300.359375" xlink:href="#DejaVuSans-35"/>
      <use x="363.982422" xlink:href="#DejaVuSans-74"/>
      <use x="403.191406" xlink:href="#DejaVuSans-68"/>
      <use x="466.570312" xlink:href="#DejaVuSans-20"/>
      <use x="498.357422" xlink:href="#DejaVuSans-70"/>
      <use x="561.833984" xlink:href="#DejaVuSans-65"/>
      <use x="623.357422" xlink:href="#DejaVuSans-72"/>
      <use x="664.439453" xlink:href="#DejaVuSans-63"/>
      <use x="719.419922" xlink:href="#DejaVuSans-65"/>
      <use x="780.943359" xlink:href="#DejaVuSans-6e"/>
      <use x="844.322266" xlink:href="#DejaVuSans-2e"/>
      <use x="876.109375" xlink:href="#DejaVuSans-29"/>
     </g>
    </g>
    <g id="line2d_23">
     <path d="M 279.843437 98.604813 
L 299.843437 98.604813 
" style="fill:none;stroke:#d62728;stroke-linecap:square;stroke-width:1.5;"/>
    </g>
    <g id="line2d_24"/>
    <g id="text_17">
     <!-- pred.(95th percen.) -->
     <defs>
      <path d="M 10.984375 1.515625 
L 10.984375 10.5 
Q 14.703125 8.734375 18.5 7.8125 
Q 22.3125 6.890625 25.984375 6.890625 
Q 35.75 6.890625 40.890625 13.453125 
Q 46.046875 20.015625 46.78125 33.40625 
Q 43.953125 29.203125 39.59375 26.953125 
Q 35.25 24.703125 29.984375 24.703125 
Q 19.046875 24.703125 12.671875 31.3125 
Q 6.296875 37.9375 6.296875 49.421875 
Q 6.296875 60.640625 12.9375 67.421875 
Q 19.578125 74.21875 30.609375 74.21875 
Q 43.265625 74.21875 49.921875 64.515625 
Q 56.59375 54.828125 56.59375 36.375 
Q 56.59375 19.140625 48.40625 8.859375 
Q 40.234375 -1.421875 26.421875 -1.421875 
Q 22.703125 -1.421875 18.890625 -0.6875 
Q 15.09375 0.046875 10.984375 1.515625 
z
M 30.609375 32.421875 
Q 37.25 32.421875 41.125 36.953125 
Q 45.015625 41.5 45.015625 49.421875 
Q 45.015625 57.28125 41.125 61.84375 
Q 37.25 66.40625 30.609375 66.40625 
Q 23.96875 66.40625 20.09375 61.84375 
Q 16.21875 57.28125 16.21875 49.421875 
Q 16.21875 41.5 20.09375 36.953125 
Q 23.96875 32.421875 30.609375 32.421875 
z
" id="DejaVuSans-39"/>
     </defs>
     <g transform="translate(307.843437 102.104813)scale(0.1 -0.1)">
      <use xlink:href="#DejaVuSans-70"/>
      <use x="63.476562" xlink:href="#DejaVuSans-72"/>
      <use x="104.558594" xlink:href="#DejaVuSans-65"/>
      <use x="166.082031" xlink:href="#DejaVuSans-64"/>
      <use x="229.558594" xlink:href="#DejaVuSans-2e"/>
      <use x="261.345703" xlink:href="#DejaVuSans-28"/>
      <use x="300.359375" xlink:href="#DejaVuSans-39"/>
      <use x="363.982422" xlink:href="#DejaVuSans-35"/>
      <use x="427.605469" xlink:href="#DejaVuSans-74"/>
      <use x="466.814453" xlink:href="#DejaVuSans-68"/>
      <use x="530.193359" xlink:href="#DejaVuSans-20"/>
      <use x="561.980469" xlink:href="#DejaVuSans-70"/>
      <use x="625.457031" xlink:href="#DejaVuSans-65"/>
      <use x="686.980469" xlink:href="#DejaVuSans-72"/>
      <use x="728.0625" xlink:href="#DejaVuSans-63"/>
      <use x="783.042969" xlink:href="#DejaVuSans-65"/>
      <use x="844.566406" xlink:href="#DejaVuSans-6e"/>
      <use x="907.945312" xlink:href="#DejaVuSans-2e"/>
      <use x="939.732422" xlink:href="#DejaVuSans-29"/>
     </g>
    </g>
   </g>
  </g>
 </g>
 <defs>
  <clipPath id="p71b879d449">
   <rect height="266.112" width="357.12" x="57.6" y="41.472"/>
  </clipPath>
 </defs>
</svg>
