<?xml version="1.0" encoding="utf-8" standalone="no"?>
<!DOCTYPE svg PUBLIC "-//W3C//DTD SVG 1.1//EN"
  "http://www.w3.org/Graphics/SVG/1.1/DTD/svg11.dtd">
<!-- Created with matplotlib (http://matplotlib.org/) -->
<svg height="345.6pt" version="1.1" viewBox="0 0 460.8 345.6" width="460.8pt" xmlns="http://www.w3.org/2000/svg" xmlns:xlink="http://www.w3.org/1999/xlink">
 <defs>
  <style type="text/css">
*{stroke-linecap:butt;stroke-linejoin:round;}
  </style>
 </defs>
 <g id="figure_1">
  <g id="patch_1">
   <path d="M 0 345.6 
L 460.8 345.6 
L 460.8 0 
L 0 0 
z
" style="fill:#ffffff;"/>
  </g>
  <g id="axes_1">
   <g id="patch_2">
    <path d="M 57.6 307.584 
L 414.72 307.584 
L 414.72 41.472 
L 57.6 41.472 
z
" style="fill:#ffffff;"/>
   </g>
   <g id="PolyCollection_1">
    <path clip-path="url(#p2a68cda980)" d="M 73.832727 104.286517 
L 73.832727 185.032678 
L 75.48072 184.757762 
L 77.128713 184.94182 
L 78.776705 184.632918 
L 80.424698 184.915574 
L 82.07269 184.6581 
L 83.720683 185.094474 
L 85.368676 185.553963 
L 87.016668 185.602564 
L 88.664661 185.832613 
L 90.312653 185.623478 
L 91.960646 186.275227 
L 93.608639 190.06769 
L 95.256631 195.865972 
L 96.904624 214.887718 
L 98.552617 228.406723 
L 100.200609 236.788636 
L 101.848602 243.127145 
L 103.496594 248.902847 
L 105.144587 258.605396 
L 106.79258 261.109574 
L 108.440572 261.488223 
L 110.088565 262.283374 
L 111.736557 261.489812 
L 113.38455 261.204257 
L 115.032543 261.72668 
L 116.680535 264.330279 
L 118.328528 267.622192 
L 119.976521 268.265082 
L 121.624513 269.647654 
L 123.272506 270.692192 
L 124.920498 271.115121 
L 126.568491 271.268759 
L 128.216484 269.80851 
L 129.864476 269.508977 
L 131.512469 270.065965 
L 133.160461 270.527007 
L 134.808454 270.92026 
L 136.456447 271.259919 
L 138.104439 271.713143 
L 139.752432 270.498246 
L 141.400425 269.233903 
L 143.048417 266.793453 
L 144.69641 263.036532 
L 146.344402 257.735604 
L 147.992395 250.068915 
L 149.640388 240.820974 
L 151.28838 229.820284 
L 152.936373 215.413418 
L 154.584365 197.10028 
L 156.232358 186.337017 
L 157.880351 185.306434 
L 159.528343 184.954936 
L 161.176336 184.941799 
L 162.824329 184.746907 
L 164.472321 184.861768 
L 166.120314 184.990478 
L 167.768306 185.102052 
L 169.416299 185.466782 
L 171.064292 185.433792 
L 172.712284 185.776587 
L 174.360277 185.762411 
L 176.008269 185.834902 
L 177.656262 185.812074 
L 179.304255 185.34183 
L 180.952247 185.212437 
L 182.60024 184.952246 
L 184.248233 184.896595 
L 185.896225 184.833371 
L 187.544218 184.50955 
L 189.19221 184.962521 
L 190.840203 185.118244 
L 192.488196 184.893468 
L 194.136188 185.546887 
L 195.784181 185.858583 
L 197.432174 189.035766 
L 199.080166 196.791869 
L 200.728159 203.79999 
L 202.376151 209.422441 
L 204.024144 216.540449 
L 205.672137 224.318303 
L 207.320129 230.261021 
L 208.968122 234.98437 
L 210.616114 240.743286 
L 212.264107 242.116941 
L 213.9121 242.474032 
L 215.560092 242.56667 
L 217.208085 242.645706 
L 218.856078 242.267763 
L 220.50407 241.131723 
L 222.152063 245.484124 
L 223.800055 249.179088 
L 225.448048 250.441159 
L 227.096041 253.926049 
L 228.744033 260.727323 
L 230.392026 262.976865 
L 232.040018 263.487738 
L 233.688011 263.682432 
L 235.336004 264.154661 
L 236.983996 264.515628 
L 238.631989 264.766817 
L 240.279982 266.02025 
L 241.927974 268.023909 
L 243.575967 270.109706 
L 245.223959 271.643881 
L 246.871952 272.832121 
L 248.519945 274.067995 
L 250.167937 274.336355 
L 251.81593 274.053362 
L 253.463922 273.897223 
L 255.111915 274.386257 
L 256.759908 274.313527 
L 258.4079 272.858611 
L 260.055893 271.851275 
L 261.703886 270.342532 
L 263.351878 267.425876 
L 264.999871 263.825676 
L 266.647863 259.989751 
L 268.295856 255.686899 
L 269.943849 250.758593 
L 271.591841 243.500161 
L 273.239834 237.930347 
L 274.887826 231.256759 
L 276.535819 222.611207 
L 278.183812 214.105321 
L 279.831804 209.227046 
L 281.479797 202.842766 
L 283.12779 191.65209 
L 284.775782 188.049056 
L 286.423775 186.453272 
L 288.071767 185.639894 
L 289.71976 185.415005 
L 291.367753 185.116404 
L 293.015745 185.114461 
L 294.663738 184.987248 
L 296.311731 185.238125 
L 297.959723 185.331635 
L 299.607716 185.22639 
L 301.255708 185.655635 
L 302.903701 185.196976 
L 304.551694 185.274603 
L 306.199686 185.27986 
L 307.847679 185.521251 
L 309.495671 185.358449 
L 311.143664 185.734426 
L 312.791657 187.264507 
L 314.439649 188.99485 
L 316.087642 187.736696 
L 317.735635 187.450971 
L 319.383627 189.738504 
L 321.03162 189.701017 
L 322.679612 187.222915 
L 324.327605 187.820963 
L 325.975598 202.65035 
L 327.62359 207.803567 
L 329.271583 208.382139 
L 330.919575 211.676803 
L 332.567568 223.851052 
L 334.215561 228.992753 
L 335.863553 233.98481 
L 337.511546 241.237397 
L 339.159539 254.188979 
L 340.807531 259.768484 
L 342.455524 260.150857 
L 344.103516 261.960201 
L 345.751509 264.647318 
L 347.399502 269.641445 
L 349.047494 270.931326 
L 350.695487 271.976118 
L 352.343479 273.413016 
L 353.991472 273.983211 
L 355.639465 274.15083 
L 357.287457 273.900803 
L 358.93545 273.577626 
L 360.583443 273.356505 
L 362.231435 273.815917 
L 363.879428 274.489636 
L 365.52742 274.991856 
L 367.175413 275.512929 
L 368.823406 275.802632 
L 370.471398 275.803241 
L 372.119391 274.581864 
L 373.767383 272.908546 
L 375.415376 271.408619 
L 377.063369 269.598956 
L 378.711361 266.289434 
L 380.359354 261.214388 
L 382.007347 255.512948 
L 383.655339 247.924298 
L 385.303332 234.713623 
L 386.951324 214.913648 
L 388.599317 200.566189 
L 390.24731 192.335727 
L 391.895302 186.909979 
L 393.543295 185.781092 
L 395.191287 185.69585 
L 396.83928 185.656545 
L 398.487273 185.638804 
L 398.487273 131.38179 
L 398.487273 131.38179 
L 396.83928 131.804344 
L 395.191287 130.169752 
L 393.543295 131.033978 
L 391.895302 132.834267 
L 390.24731 133.985758 
L 388.599317 135.049625 
L 386.951324 134.746826 
L 385.303332 132.258445 
L 383.655339 128.471761 
L 382.007347 124.531247 
L 380.359354 120.701307 
L 378.711361 117.596773 
L 377.063369 115.853573 
L 375.415376 114.769342 
L 373.767383 113.607255 
L 372.119391 112.559633 
L 370.471398 112.124822 
L 368.823406 112.206525 
L 367.175413 112.587947 
L 365.52742 112.928579 
L 363.879428 113.270373 
L 362.231435 113.719661 
L 360.583443 113.740836 
L 358.93545 113.605479 
L 357.287457 113.303145 
L 355.639465 113.261267 
L 353.991472 113.523942 
L 352.343479 114.273483 
L 350.695487 115.195927 
L 349.047494 115.999836 
L 347.399502 118.165743 
L 345.751509 120.109532 
L 344.103516 121.665891 
L 342.455524 122.658322 
L 340.807531 124.335437 
L 339.159539 127.630736 
L 337.511546 130.609653 
L 335.863553 131.855368 
L 334.215561 132.7953 
L 332.567568 134.089895 
L 330.919575 134.952256 
L 329.271583 135.156353 
L 327.62359 134.047833 
L 325.975598 134.488738 
L 324.327605 133.149945 
L 322.679612 133.654389 
L 321.03162 133.740745 
L 319.383627 133.411869 
L 317.735635 133.381939 
L 316.087642 133.394209 
L 314.439649 133.548493 
L 312.791657 132.373058 
L 311.143664 127.724747 
L 309.495671 124.944585 
L 307.847679 128.621358 
L 306.199686 129.701722 
L 304.551694 126.110189 
L 302.903701 124.152884 
L 301.255708 128.357311 
L 299.607716 129.705543 
L 297.959723 123.763098 
L 296.311731 120.692095 
L 294.663738 124.239285 
L 293.015745 127.054357 
L 291.367753 124.061187 
L 289.71976 124.589421 
L 288.071767 130.647537 
L 286.423775 132.952005 
L 284.775782 133.386753 
L 283.12779 134.346597 
L 281.479797 134.557105 
L 279.831804 134.729227 
L 278.183812 134.845695 
L 276.535819 133.924296 
L 274.887826 132.705014 
L 273.239834 131.153749 
L 271.591841 129.866095 
L 269.943849 127.198694 
L 268.295856 124.20525 
L 266.647863 121.750362 
L 264.999871 119.162753 
L 263.351878 116.928535 
L 261.703886 115.478563 
L 260.055893 114.699832 
L 258.4079 113.686348 
L 256.759908 113.125112 
L 255.111915 113.324465 
L 253.463922 113.393358 
L 251.81593 113.232312 
L 250.167937 113.058302 
L 248.519945 113.796583 
L 246.871952 114.549389 
L 245.223959 115.596874 
L 243.575967 116.852767 
L 241.927974 118.026139 
L 240.279982 118.999101 
L 238.631989 119.395553 
L 236.983996 119.568423 
L 235.336004 119.85072 
L 233.688011 119.989796 
L 232.040018 120.236482 
L 230.392026 121.5301 
L 228.744033 123.851262 
L 227.096041 125.932546 
L 225.448048 126.980012 
L 223.800055 127.999965 
L 222.152063 129.460931 
L 220.50407 130.423764 
L 218.856078 129.820537 
L 217.208085 129.814934 
L 215.560092 129.848817 
L 213.9121 129.92152 
L 212.264107 129.832103 
L 210.616114 130.521751 
L 208.968122 131.697871 
L 207.320129 132.601238 
L 205.672137 133.871254 
L 204.024144 134.45976 
L 202.376151 134.967334 
L 200.728159 134.731401 
L 199.080166 134.600852 
L 197.432174 133.347031 
L 195.784181 131.297812 
L 194.136188 128.569868 
L 192.488196 123.715887 
L 190.840203 120.346526 
L 189.19221 117.826757 
L 187.544218 108.463148 
L 185.896225 93.96298 
L 184.248233 86.037162 
L 182.60024 79.490525 
L 180.952247 69.426477 
L 179.304255 60.906075 
L 177.656262 53.653652 
L 176.008269 53.568 
L 174.360277 54.523348 
L 172.712284 55.729693 
L 171.064292 60.179273 
L 169.416299 65.876498 
L 167.768306 73.457414 
L 166.120314 81.013878 
L 164.472321 87.226944 
L 162.824329 92.535491 
L 161.176336 98.905886 
L 159.528343 112.620092 
L 157.880351 122.522443 
L 156.232358 132.203763 
L 154.584365 134.306323 
L 152.936373 134.4475 
L 151.28838 132.970311 
L 149.640388 130.675139 
L 147.992395 127.646451 
L 146.344402 122.957413 
L 144.69641 119.582605 
L 143.048417 117.506599 
L 141.400425 116.296806 
L 139.752432 115.382168 
L 138.104439 115.122006 
L 136.456447 115.398745 
L 134.808454 115.680021 
L 133.160461 115.983814 
L 131.512469 116.309862 
L 129.864476 116.495938 
L 128.216484 115.696226 
L 126.568491 115.342946 
L 124.920498 115.478434 
L 123.272506 116.087029 
L 121.624513 116.914811 
L 119.976521 117.40011 
L 118.328528 118.805952 
L 116.680535 120.364072 
L 115.032543 121.301501 
L 113.38455 121.510599 
L 111.736557 121.005535 
L 110.088565 121.074809 
L 108.440572 121.620326 
L 106.79258 122.779901 
L 105.144587 125.511188 
L 103.496594 128.351134 
L 101.848602 130.036137 
L 100.200609 131.789814 
L 98.552617 133.677224 
L 96.904624 134.840128 
L 95.256631 134.787595 
L 93.608639 133.224364 
L 91.960646 132.362258 
L 90.312653 130.997363 
L 88.664661 131.043071 
L 87.016668 131.770325 
L 85.368676 130.544446 
L 83.720683 124.939036 
L 82.07269 110.356325 
L 80.424698 98.647514 
L 78.776705 92.553478 
L 77.128713 90.696246 
L 75.48072 93.461749 
L 73.832727 104.286517 
z
" style="fill:#008000;fill-opacity:0.4;"/>
   </g>
   <g id="matplotlib.axis_1">
    <g id="xtick_1">
     <g id="line2d_1">
      <defs>
       <path d="M 0 0 
L 0 3.5 
" id="mcb2a112dba" style="stroke:#000000;stroke-width:0.8;"/>
      </defs>
      <g>
       <use style="stroke:#000000;stroke-width:0.8;" x="73.832727" xlink:href="#mcb2a112dba" y="307.584"/>
      </g>
     </g>
     <g id="text_1">
      <!-- 0.0 -->
      <defs>
       <path d="M 31.78125 66.40625 
Q 24.171875 66.40625 20.328125 58.90625 
Q 16.5 51.421875 16.5 36.375 
Q 16.5 21.390625 20.328125 13.890625 
Q 24.171875 6.390625 31.78125 6.390625 
Q 39.453125 6.390625 43.28125 13.890625 
Q 47.125 21.390625 47.125 36.375 
Q 47.125 51.421875 43.28125 58.90625 
Q 39.453125 66.40625 31.78125 66.40625 
z
M 31.78125 74.21875 
Q 44.046875 74.21875 50.515625 64.515625 
Q 56.984375 54.828125 56.984375 36.375 
Q 56.984375 17.96875 50.515625 8.265625 
Q 44.046875 -1.421875 31.78125 -1.421875 
Q 19.53125 -1.421875 13.0625 8.265625 
Q 6.59375 17.96875 6.59375 36.375 
Q 6.59375 54.828125 13.0625 64.515625 
Q 19.53125 74.21875 31.78125 74.21875 
z
" id="DejaVuSans-30"/>
       <path d="M 10.6875 12.40625 
L 21 12.40625 
L 21 0 
L 10.6875 0 
z
" id="DejaVuSans-2e"/>
      </defs>
      <g transform="translate(65.881165 322.182437)scale(0.1 -0.1)">
       <use xlink:href="#DejaVuSans-30"/>
       <use x="63.623047" xlink:href="#DejaVuSans-2e"/>
       <use x="95.410156" xlink:href="#DejaVuSans-30"/>
      </g>
     </g>
    </g>
    <g id="xtick_2">
     <g id="line2d_2">
      <g>
       <use style="stroke:#000000;stroke-width:0.8;" x="138.763636" xlink:href="#mcb2a112dba" y="307.584"/>
      </g>
     </g>
     <g id="text_2">
      <!-- 0.2 -->
      <defs>
       <path d="M 19.1875 8.296875 
L 53.609375 8.296875 
L 53.609375 0 
L 7.328125 0 
L 7.328125 8.296875 
Q 12.9375 14.109375 22.625 23.890625 
Q 32.328125 33.6875 34.8125 36.53125 
Q 39.546875 41.84375 41.421875 45.53125 
Q 43.3125 49.21875 43.3125 52.78125 
Q 43.3125 58.59375 39.234375 62.25 
Q 35.15625 65.921875 28.609375 65.921875 
Q 23.96875 65.921875 18.8125 64.3125 
Q 13.671875 62.703125 7.8125 59.421875 
L 7.8125 69.390625 
Q 13.765625 71.78125 18.9375 73 
Q 24.125 74.21875 28.421875 74.21875 
Q 39.75 74.21875 46.484375 68.546875 
Q 53.21875 62.890625 53.21875 53.421875 
Q 53.21875 48.921875 51.53125 44.890625 
Q 49.859375 40.875 45.40625 35.40625 
Q 44.1875 33.984375 37.640625 27.21875 
Q 31.109375 20.453125 19.1875 8.296875 
z
" id="DejaVuSans-32"/>
      </defs>
      <g transform="translate(130.812074 322.182437)scale(0.1 -0.1)">
       <use xlink:href="#DejaVuSans-30"/>
       <use x="63.623047" xlink:href="#DejaVuSans-2e"/>
       <use x="95.410156" xlink:href="#DejaVuSans-32"/>
      </g>
     </g>
    </g>
    <g id="xtick_3">
     <g id="line2d_3">
      <g>
       <use style="stroke:#000000;stroke-width:0.8;" x="203.694545" xlink:href="#mcb2a112dba" y="307.584"/>
      </g>
     </g>
     <g id="text_3">
      <!-- 0.4 -->
      <defs>
       <path d="M 37.796875 64.3125 
L 12.890625 25.390625 
L 37.796875 25.390625 
z
M 35.203125 72.90625 
L 47.609375 72.90625 
L 47.609375 25.390625 
L 58.015625 25.390625 
L 58.015625 17.1875 
L 47.609375 17.1875 
L 47.609375 0 
L 37.796875 0 
L 37.796875 17.1875 
L 4.890625 17.1875 
L 4.890625 26.703125 
z
" id="DejaVuSans-34"/>
      </defs>
      <g transform="translate(195.742983 322.182437)scale(0.1 -0.1)">
       <use xlink:href="#DejaVuSans-30"/>
       <use x="63.623047" xlink:href="#DejaVuSans-2e"/>
       <use x="95.410156" xlink:href="#DejaVuSans-34"/>
      </g>
     </g>
    </g>
    <g id="xtick_4">
     <g id="line2d_4">
      <g>
       <use style="stroke:#000000;stroke-width:0.8;" x="268.625455" xlink:href="#mcb2a112dba" y="307.584"/>
      </g>
     </g>
     <g id="text_4">
      <!-- 0.6 -->
      <defs>
       <path d="M 33.015625 40.375 
Q 26.375 40.375 22.484375 35.828125 
Q 18.609375 31.296875 18.609375 23.390625 
Q 18.609375 15.53125 22.484375 10.953125 
Q 26.375 6.390625 33.015625 6.390625 
Q 39.65625 6.390625 43.53125 10.953125 
Q 47.40625 15.53125 47.40625 23.390625 
Q 47.40625 31.296875 43.53125 35.828125 
Q 39.65625 40.375 33.015625 40.375 
z
M 52.59375 71.296875 
L 52.59375 62.3125 
Q 48.875 64.0625 45.09375 64.984375 
Q 41.3125 65.921875 37.59375 65.921875 
Q 27.828125 65.921875 22.671875 59.328125 
Q 17.53125 52.734375 16.796875 39.40625 
Q 19.671875 43.65625 24.015625 45.921875 
Q 28.375 48.1875 33.59375 48.1875 
Q 44.578125 48.1875 50.953125 41.515625 
Q 57.328125 34.859375 57.328125 23.390625 
Q 57.328125 12.15625 50.6875 5.359375 
Q 44.046875 -1.421875 33.015625 -1.421875 
Q 20.359375 -1.421875 13.671875 8.265625 
Q 6.984375 17.96875 6.984375 36.375 
Q 6.984375 53.65625 15.1875 63.9375 
Q 23.390625 74.21875 37.203125 74.21875 
Q 40.921875 74.21875 44.703125 73.484375 
Q 48.484375 72.75 52.59375 71.296875 
z
" id="DejaVuSans-36"/>
      </defs>
      <g transform="translate(260.673892 322.182437)scale(0.1 -0.1)">
       <use xlink:href="#DejaVuSans-30"/>
       <use x="63.623047" xlink:href="#DejaVuSans-2e"/>
       <use x="95.410156" xlink:href="#DejaVuSans-36"/>
      </g>
     </g>
    </g>
    <g id="xtick_5">
     <g id="line2d_5">
      <g>
       <use style="stroke:#000000;stroke-width:0.8;" x="333.556364" xlink:href="#mcb2a112dba" y="307.584"/>
      </g>
     </g>
     <g id="text_5">
      <!-- 0.8 -->
      <defs>
       <path d="M 31.78125 34.625 
Q 24.75 34.625 20.71875 30.859375 
Q 16.703125 27.09375 16.703125 20.515625 
Q 16.703125 13.921875 20.71875 10.15625 
Q 24.75 6.390625 31.78125 6.390625 
Q 38.8125 6.390625 42.859375 10.171875 
Q 46.921875 13.96875 46.921875 20.515625 
Q 46.921875 27.09375 42.890625 30.859375 
Q 38.875 34.625 31.78125 34.625 
z
M 21.921875 38.8125 
Q 15.578125 40.375 12.03125 44.71875 
Q 8.5 49.078125 8.5 55.328125 
Q 8.5 64.0625 14.71875 69.140625 
Q 20.953125 74.21875 31.78125 74.21875 
Q 42.671875 74.21875 48.875 69.140625 
Q 55.078125 64.0625 55.078125 55.328125 
Q 55.078125 49.078125 51.53125 44.71875 
Q 48 40.375 41.703125 38.8125 
Q 48.828125 37.15625 52.796875 32.3125 
Q 56.78125 27.484375 56.78125 20.515625 
Q 56.78125 9.90625 50.3125 4.234375 
Q 43.84375 -1.421875 31.78125 -1.421875 
Q 19.734375 -1.421875 13.25 4.234375 
Q 6.78125 9.90625 6.78125 20.515625 
Q 6.78125 27.484375 10.78125 32.3125 
Q 14.796875 37.15625 21.921875 38.8125 
z
M 18.3125 54.390625 
Q 18.3125 48.734375 21.84375 45.5625 
Q 25.390625 42.390625 31.78125 42.390625 
Q 38.140625 42.390625 41.71875 45.5625 
Q 45.3125 48.734375 45.3125 54.390625 
Q 45.3125 60.0625 41.71875 63.234375 
Q 38.140625 66.40625 31.78125 66.40625 
Q 25.390625 66.40625 21.84375 63.234375 
Q 18.3125 60.0625 18.3125 54.390625 
z
" id="DejaVuSans-38"/>
      </defs>
      <g transform="translate(325.604801 322.182437)scale(0.1 -0.1)">
       <use xlink:href="#DejaVuSans-30"/>
       <use x="63.623047" xlink:href="#DejaVuSans-2e"/>
       <use x="95.410156" xlink:href="#DejaVuSans-38"/>
      </g>
     </g>
    </g>
    <g id="xtick_6">
     <g id="line2d_6">
      <g>
       <use style="stroke:#000000;stroke-width:0.8;" x="398.487273" xlink:href="#mcb2a112dba" y="307.584"/>
      </g>
     </g>
     <g id="text_6">
      <!-- 1.0 -->
      <defs>
       <path d="M 12.40625 8.296875 
L 28.515625 8.296875 
L 28.515625 63.921875 
L 10.984375 60.40625 
L 10.984375 69.390625 
L 28.421875 72.90625 
L 38.28125 72.90625 
L 38.28125 8.296875 
L 54.390625 8.296875 
L 54.390625 0 
L 12.40625 0 
z
" id="DejaVuSans-31"/>
      </defs>
      <g transform="translate(390.53571 322.182437)scale(0.1 -0.1)">
       <use xlink:href="#DejaVuSans-31"/>
       <use x="63.623047" xlink:href="#DejaVuSans-2e"/>
       <use x="95.410156" xlink:href="#DejaVuSans-30"/>
      </g>
     </g>
    </g>
   </g>
   <g id="matplotlib.axis_2">
    <g id="ytick_1">
     <g id="line2d_7">
      <defs>
       <path d="M 0 0 
L -3.5 0 
" id="m32c6d347ba" style="stroke:#000000;stroke-width:0.8;"/>
      </defs>
      <g>
       <use style="stroke:#000000;stroke-width:0.8;" x="57.6" xlink:href="#m32c6d347ba" y="299.370559"/>
      </g>
     </g>
     <g id="text_7">
      <!-- 0.0 -->
      <g transform="translate(34.696875 303.169777)scale(0.1 -0.1)">
       <use xlink:href="#DejaVuSans-30"/>
       <use x="63.623047" xlink:href="#DejaVuSans-2e"/>
       <use x="95.410156" xlink:href="#DejaVuSans-30"/>
      </g>
     </g>
    </g>
    <g id="ytick_2">
     <g id="line2d_8">
      <g>
       <use style="stroke:#000000;stroke-width:0.8;" x="57.6" xlink:href="#m32c6d347ba" y="261.088577"/>
      </g>
     </g>
     <g id="text_8">
      <!-- 0.1 -->
      <g transform="translate(34.696875 264.887796)scale(0.1 -0.1)">
       <use xlink:href="#DejaVuSans-30"/>
       <use x="63.623047" xlink:href="#DejaVuSans-2e"/>
       <use x="95.410156" xlink:href="#DejaVuSans-31"/>
      </g>
     </g>
    </g>
    <g id="ytick_3">
     <g id="line2d_9">
      <g>
       <use style="stroke:#000000;stroke-width:0.8;" x="57.6" xlink:href="#m32c6d347ba" y="222.806596"/>
      </g>
     </g>
     <g id="text_9">
      <!-- 0.2 -->
      <g transform="translate(34.696875 226.605815)scale(0.1 -0.1)">
       <use xlink:href="#DejaVuSans-30"/>
       <use x="63.623047" xlink:href="#DejaVuSans-2e"/>
       <use x="95.410156" xlink:href="#DejaVuSans-32"/>
      </g>
     </g>
    </g>
    <g id="ytick_4">
     <g id="line2d_10">
      <g>
       <use style="stroke:#000000;stroke-width:0.8;" x="57.6" xlink:href="#m32c6d347ba" y="184.524615"/>
      </g>
     </g>
     <g id="text_10">
      <!-- 0.3 -->
      <defs>
       <path d="M 40.578125 39.3125 
Q 47.65625 37.796875 51.625 33 
Q 55.609375 28.21875 55.609375 21.1875 
Q 55.609375 10.40625 48.1875 4.484375 
Q 40.765625 -1.421875 27.09375 -1.421875 
Q 22.515625 -1.421875 17.65625 -0.515625 
Q 12.796875 0.390625 7.625 2.203125 
L 7.625 11.71875 
Q 11.71875 9.328125 16.59375 8.109375 
Q 21.484375 6.890625 26.8125 6.890625 
Q 36.078125 6.890625 40.9375 10.546875 
Q 45.796875 14.203125 45.796875 21.1875 
Q 45.796875 27.640625 41.28125 31.265625 
Q 36.765625 34.90625 28.71875 34.90625 
L 20.21875 34.90625 
L 20.21875 43.015625 
L 29.109375 43.015625 
Q 36.375 43.015625 40.234375 45.921875 
Q 44.09375 48.828125 44.09375 54.296875 
Q 44.09375 59.90625 40.109375 62.90625 
Q 36.140625 65.921875 28.71875 65.921875 
Q 24.65625 65.921875 20.015625 65.03125 
Q 15.375 64.15625 9.8125 62.3125 
L 9.8125 71.09375 
Q 15.4375 72.65625 20.34375 73.4375 
Q 25.25 74.21875 29.59375 74.21875 
Q 40.828125 74.21875 47.359375 69.109375 
Q 53.90625 64.015625 53.90625 55.328125 
Q 53.90625 49.265625 50.4375 45.09375 
Q 46.96875 40.921875 40.578125 39.3125 
z
" id="DejaVuSans-33"/>
      </defs>
      <g transform="translate(34.696875 188.323834)scale(0.1 -0.1)">
       <use xlink:href="#DejaVuSans-30"/>
       <use x="63.623047" xlink:href="#DejaVuSans-2e"/>
       <use x="95.410156" xlink:href="#DejaVuSans-33"/>
      </g>
     </g>
    </g>
    <g id="ytick_5">
     <g id="line2d_11">
      <g>
       <use style="stroke:#000000;stroke-width:0.8;" x="57.6" xlink:href="#m32c6d347ba" y="146.242634"/>
      </g>
     </g>
     <g id="text_11">
      <!-- 0.4 -->
      <g transform="translate(34.696875 150.041853)scale(0.1 -0.1)">
       <use xlink:href="#DejaVuSans-30"/>
       <use x="63.623047" xlink:href="#DejaVuSans-2e"/>
       <use x="95.410156" xlink:href="#DejaVuSans-34"/>
      </g>
     </g>
    </g>
    <g id="ytick_6">
     <g id="line2d_12">
      <g>
       <use style="stroke:#000000;stroke-width:0.8;" x="57.6" xlink:href="#m32c6d347ba" y="107.960653"/>
      </g>
     </g>
     <g id="text_12">
      <!-- 0.5 -->
      <defs>
       <path d="M 10.796875 72.90625 
L 49.515625 72.90625 
L 49.515625 64.59375 
L 19.828125 64.59375 
L 19.828125 46.734375 
Q 21.96875 47.46875 24.109375 47.828125 
Q 26.265625 48.1875 28.421875 48.1875 
Q 40.625 48.1875 47.75 41.5 
Q 54.890625 34.8125 54.890625 23.390625 
Q 54.890625 11.625 47.5625 5.09375 
Q 40.234375 -1.421875 26.90625 -1.421875 
Q 22.3125 -1.421875 17.546875 -0.640625 
Q 12.796875 0.140625 7.71875 1.703125 
L 7.71875 11.625 
Q 12.109375 9.234375 16.796875 8.0625 
Q 21.484375 6.890625 26.703125 6.890625 
Q 35.15625 6.890625 40.078125 11.328125 
Q 45.015625 15.765625 45.015625 23.390625 
Q 45.015625 31 40.078125 35.4375 
Q 35.15625 39.890625 26.703125 39.890625 
Q 22.75 39.890625 18.8125 39.015625 
Q 14.890625 38.140625 10.796875 36.28125 
z
" id="DejaVuSans-35"/>
      </defs>
      <g transform="translate(34.696875 111.759872)scale(0.1 -0.1)">
       <use xlink:href="#DejaVuSans-30"/>
       <use x="63.623047" xlink:href="#DejaVuSans-2e"/>
       <use x="95.410156" xlink:href="#DejaVuSans-35"/>
      </g>
     </g>
    </g>
    <g id="ytick_7">
     <g id="line2d_13">
      <g>
       <use style="stroke:#000000;stroke-width:0.8;" x="57.6" xlink:href="#m32c6d347ba" y="69.678672"/>
      </g>
     </g>
     <g id="text_13">
      <!-- 0.6 -->
      <g transform="translate(34.696875 73.477891)scale(0.1 -0.1)">
       <use xlink:href="#DejaVuSans-30"/>
       <use x="63.623047" xlink:href="#DejaVuSans-2e"/>
       <use x="95.410156" xlink:href="#DejaVuSans-36"/>
      </g>
     </g>
    </g>
   </g>
   <g id="line2d_14">
    <path clip-path="url(#p2a68cda980)" d="M 73.832727 110.419505 
L 75.48072 106.27816 
L 77.128713 113.784491 
L 78.776705 114.560849 
L 80.424698 131.90297 
L 82.07269 147.174418 
L 83.720683 159.080879 
L 85.368676 156.492635 
L 87.016668 150.79819 
L 88.664661 157.268993 
L 90.312653 162.187079 
L 91.960646 172.540441 
L 93.608639 177.199358 
L 95.256631 193.506334 
L 96.904624 211.10724 
L 100.200609 232.590705 
L 101.848602 239.061508 
L 103.496594 255.886056 
L 105.144587 263.392234 
L 106.79258 265.721769 
L 108.440572 268.568953 
L 110.088565 266.498281 
L 111.736557 265.721769 
L 113.38455 265.721769 
L 115.032543 269.863152 
L 116.680535 277.110582 
L 118.328528 279.181292 
L 119.976521 280.475453 
L 121.624513 284.358012 
L 123.272506 284.358012 
L 124.920498 285.652211 
L 126.568491 282.546164 
L 128.216484 280.99314 
L 129.864476 283.322675 
L 131.512469 283.063851 
L 133.160461 284.616836 
L 134.808454 284.875699 
L 136.456447 286.428722 
L 138.104439 284.358012 
L 139.752432 281.251965 
L 141.400425 277.110582 
L 143.048417 271.416175 
L 144.69641 256.662415 
L 146.344402 238.802722 
L 147.992395 223.79006 
L 149.640388 209.812926 
L 152.936373 169.952196 
L 154.584365 153.127648 
L 156.232358 138.891728 
L 157.880351 127.761625 
L 159.528343 115.596377 
L 161.176336 109.643146 
L 162.824329 104.466274 
L 164.472321 99.807357 
L 167.768306 85.571436 
L 171.064292 75.994433 
L 172.712284 78.582678 
L 174.360277 74.700119 
L 176.008269 76.253219 
L 177.656262 85.571436 
L 179.304255 93.854126 
L 180.952247 103.689915 
L 182.60024 104.207488 
L 184.248233 114.820018 
L 185.896225 130.609039 
L 187.544218 133.197283 
L 189.19221 135.00917 
L 190.840203 142.256714 
L 192.488196 148.727518 
L 194.136188 163.48101 
L 197.432174 178.752458 
L 199.080166 188.070675 
L 200.728159 191.694447 
L 202.376151 201.012665 
L 204.024144 208.00104 
L 205.672137 216.542899 
L 207.320129 221.460602 
L 208.968122 230.520033 
L 210.616114 232.849491 
L 213.9121 231.296391 
L 215.560092 233.108277 
L 217.208085 232.849491 
L 218.856078 227.931405 
L 222.152063 242.685281 
L 223.800055 246.826625 
L 225.448048 249.156084 
L 227.096041 260.286187 
L 228.744033 267.792441 
L 230.392026 269.863152 
L 232.040018 271.157351 
L 233.688011 270.121977 
L 235.336004 272.192687 
L 236.983996 271.933863 
L 238.631989 273.745711 
L 240.279982 278.145918 
L 243.575967 285.393348 
L 245.223959 287.981746 
L 246.871952 291.087793 
L 248.519945 292.123129 
L 250.167937 291.346617 
L 251.81593 290.052418 
L 253.463922 292.123129 
L 255.111915 292.381953 
L 256.759908 289.275906 
L 258.4079 286.428722 
L 260.055893 283.840324 
L 261.703886 278.92243 
L 263.351878 271.933863 
L 264.999871 261.839211 
L 266.647863 255.62727 
L 268.295856 241.132181 
L 269.943849 230.520033 
L 271.591841 222.754916 
L 273.239834 212.66034 
L 274.887826 201.789023 
L 276.535819 192.988761 
L 278.183812 191.694447 
L 279.831804 179.270413 
L 281.479797 168.916669 
L 283.12779 166.58721 
L 284.775782 160.892765 
L 286.423775 152.868862 
L 288.071767 135.267956 
L 289.71976 143.033073 
L 291.367753 145.362531 
L 293.015745 140.185659 
L 294.663738 133.197283 
L 296.311731 140.703614 
L 297.959723 160.892765 
L 299.607716 145.103745 
L 301.255708 137.856201 
L 302.903701 143.809431 
L 304.551694 157.010207 
L 306.199686 145.103745 
L 307.847679 136.821056 
L 309.495671 154.939535 
L 311.143664 169.175455 
L 312.791657 168.399096 
L 314.439649 165.810852 
L 316.087642 165.03411 
L 317.735635 172.799227 
L 319.383627 168.657883 
L 321.03162 161.928293 
L 322.679612 168.399096 
L 324.327605 179.270413 
L 325.975598 194.023906 
L 327.62359 187.294317 
L 329.271583 194.023906 
L 330.919575 207.742254 
L 335.863553 227.672619 
L 337.511546 246.050267 
L 339.159539 258.733087 
L 340.807531 263.133371 
L 342.455524 266.239418 
L 344.103516 270.380839 
L 345.751509 279.957804 
L 347.399502 284.358012 
L 349.047494 286.16986 
L 350.695487 289.017082 
L 352.343479 291.346617 
L 353.991472 291.605441 
L 355.639465 290.570105 
L 357.287457 290.570105 
L 358.93545 289.275906 
L 360.583443 290.311281 
L 362.231435 292.123129 
L 363.879428 292.89964 
L 365.52742 294.711488 
L 367.175413 295.488 
L 368.823406 295.488 
L 370.471398 293.158465 
L 372.119391 289.275906 
L 373.767383 286.428722 
L 375.415376 282.546164 
L 377.063369 276.592895 
L 378.711361 265.980594 
L 382.007347 236.473264 
L 383.655339 209.295354 
L 385.303332 189.882561 
L 386.951324 177.9761 
L 388.599317 170.469769 
L 390.24731 159.857621 
L 391.895302 147.69199 
L 393.543295 155.457107 
L 395.191287 160.375193 
L 396.83928 153.645221 
L 398.487273 143.550645 
L 398.487273 143.550645 
" style="fill:none;stroke:#1f77b4;stroke-linecap:square;stroke-width:1.5;"/>
   </g>
   <g id="line2d_15">
    <path clip-path="url(#p2a68cda980)" d="M 73.832727 135.967848 
L 75.48072 127.309602 
L 77.128713 125.07939 
L 78.776705 126.166168 
L 80.424698 130.374475 
L 82.07269 139.257044 
L 83.720683 149.994729 
L 85.368676 157.899176 
L 87.016668 158.315794 
L 88.664661 156.173857 
L 90.312653 157.907951 
L 91.960646 162.211819 
L 93.608639 167.982641 
L 95.256631 173.19685 
L 96.904624 181.072249 
L 98.552617 190.262866 
L 100.200609 196.758276 
L 101.848602 201.088683 
L 103.496594 204.783388 
L 105.144587 209.099539 
L 106.79258 212.459015 
L 108.440572 213.547776 
L 110.088565 214.0341 
L 111.736557 213.948445 
L 113.38455 213.639087 
L 115.032543 213.794084 
L 116.680535 214.622999 
L 118.328528 216.11013 
L 119.976521 217.055853 
L 124.920498 218.487398 
L 126.568491 218.570456 
L 129.864476 217.791229 
L 131.512469 217.920656 
L 133.160461 218.207003 
L 138.104439 218.74042 
L 139.752432 218.500241 
L 141.400425 217.847737 
L 143.048417 216.851987 
L 144.69641 215.129461 
L 146.344402 211.3343 
L 147.992395 205.662481 
L 149.640388 199.16903 
L 151.28838 191.963694 
L 152.936373 181.922133 
L 154.584365 169.339531 
L 157.880351 147.427821 
L 159.528343 138.650782 
L 161.176336 130.791541 
L 162.824329 125.505886 
L 166.120314 118.752322 
L 169.416299 110.094268 
L 171.064292 106.799942 
L 172.712284 104.524956 
L 174.360277 104.159275 
L 176.008269 102.993171 
L 177.656262 104.744704 
L 179.304255 108.747026 
L 182.60024 119.348548 
L 184.248233 122.532148 
L 185.896225 128.698661 
L 187.544218 136.890702 
L 189.19221 141.663803 
L 190.840203 143.608112 
L 192.488196 146.997823 
L 194.136188 153.4118 
L 195.784181 160.769699 
L 197.432174 167.552121 
L 199.080166 173.173638 
L 200.728159 177.923337 
L 202.376151 181.930003 
L 204.024144 185.629677 
L 205.672137 190.272388 
L 207.320129 194.010633 
L 210.616114 200.16317 
L 212.264107 201.655637 
L 213.9121 201.93569 
L 215.560092 201.885465 
L 217.208085 202.040679 
L 220.50407 201.034087 
L 222.152063 202.872592 
L 223.800055 205.510325 
L 225.448048 206.957096 
L 227.096041 208.683797 
L 228.744033 211.324868 
L 230.392026 213.641846 
L 232.040018 214.635381 
L 235.336004 215.063069 
L 238.631989 215.400665 
L 240.279982 215.806683 
L 241.927974 216.653081 
L 243.575967 217.670118 
L 245.223959 218.501979 
L 248.519945 219.709149 
L 250.167937 220.031734 
L 255.111915 219.956071 
L 256.759908 220.087044 
L 258.4079 219.650427 
L 261.703886 218.430711 
L 263.351878 217.249475 
L 264.999871 215.524102 
L 266.647863 213.206296 
L 268.295856 210.426668 
L 274.887826 193.602154 
L 276.535819 188.066078 
L 278.183812 183.495796 
L 279.831804 180.836457 
L 283.12779 168.411197 
L 286.423775 162.070112 
L 288.071767 155.312889 
L 289.71976 147.377618 
L 291.367753 147.787509 
L 293.015745 150.025152 
L 296.311731 143.442321 
L 297.959723 148.761173 
L 299.607716 156.587392 
L 301.255708 152.639185 
L 302.903701 146.448417 
L 304.551694 150.099068 
L 306.199686 155.150659 
L 307.847679 151.580778 
L 309.495671 147.31197 
L 311.143664 155.600626 
L 312.791657 164.780178 
L 314.439649 166.909371 
L 316.087642 164.701863 
L 317.735635 165.139746 
L 319.383627 167.871059 
L 321.03162 166.532016 
L 322.679612 164.14977 
L 324.327605 165.984386 
L 325.975598 174.037245 
L 327.62359 179.881932 
L 329.271583 180.443218 
L 330.919575 182.644064 
L 332.567568 188.678053 
L 334.215561 193.40525 
L 335.863553 196.461662 
L 337.511546 200.203489 
L 339.159539 205.72488 
L 340.807531 210.629702 
L 342.455524 212.574147 
L 344.103516 213.561634 
L 345.751509 214.806285 
L 347.399502 216.702264 
L 349.047494 218.187869 
L 353.991472 219.788034 
L 355.639465 219.950569 
L 358.93545 219.737331 
L 360.583443 219.640234 
L 362.231435 219.698236 
L 367.175413 220.519334 
L 368.823406 220.740688 
L 370.471398 220.791977 
L 372.119391 220.409514 
L 377.063369 218.136828 
L 378.711361 216.762877 
L 380.359354 213.956996 
L 382.007347 209.972299 
L 383.655339 203.727741 
L 385.303332 193.565107 
L 386.951324 182.128081 
L 388.599317 174.199796 
L 390.24731 168.564519 
L 391.895302 161.319541 
L 393.543295 155.267791 
L 395.191287 156.685051 
L 396.83928 159.769505 
L 398.487273 156.818341 
L 398.487273 156.818341 
" style="fill:none;stroke:#ff7f0e;stroke-linecap:square;stroke-width:1.5;"/>
   </g>
   <g id="line2d_16">
    <path clip-path="url(#p2a68cda980)" d="M 73.832727 185.032678 
L 75.48072 184.757762 
L 77.128713 184.94182 
L 78.776705 184.632918 
L 80.424698 184.915574 
L 82.07269 184.6581 
L 85.368676 185.553963 
L 87.016668 185.602564 
L 88.664661 185.832613 
L 90.312653 185.623478 
L 91.960646 186.275227 
L 93.608639 190.06769 
L 95.256631 195.865972 
L 96.904624 214.887718 
L 98.552617 228.406723 
L 100.200609 236.788636 
L 101.848602 243.127145 
L 103.496594 248.902847 
L 105.144587 258.605396 
L 106.79258 261.109574 
L 108.440572 261.488223 
L 110.088565 262.283374 
L 111.736557 261.489812 
L 113.38455 261.204257 
L 115.032543 261.72668 
L 116.680535 264.330279 
L 118.328528 267.622192 
L 119.976521 268.265082 
L 121.624513 269.647654 
L 123.272506 270.692192 
L 124.920498 271.115121 
L 126.568491 271.268759 
L 128.216484 269.80851 
L 129.864476 269.508977 
L 133.160461 270.527007 
L 138.104439 271.713143 
L 141.400425 269.233903 
L 143.048417 266.793453 
L 144.69641 263.036532 
L 146.344402 257.735604 
L 147.992395 250.068915 
L 149.640388 240.820974 
L 151.28838 229.820284 
L 152.936373 215.413418 
L 154.584365 197.10028 
L 156.232358 186.337017 
L 157.880351 185.306434 
L 159.528343 184.954936 
L 161.176336 184.941799 
L 162.824329 184.746907 
L 167.768306 185.102052 
L 169.416299 185.466782 
L 171.064292 185.433792 
L 172.712284 185.776587 
L 177.656262 185.812074 
L 179.304255 185.34183 
L 180.952247 185.212437 
L 182.60024 184.952246 
L 185.896225 184.833371 
L 187.544218 184.50955 
L 189.19221 184.962521 
L 190.840203 185.118244 
L 192.488196 184.893468 
L 194.136188 185.546887 
L 195.784181 185.858583 
L 197.432174 189.035766 
L 199.080166 196.791869 
L 200.728159 203.79999 
L 202.376151 209.422441 
L 204.024144 216.540449 
L 205.672137 224.318303 
L 207.320129 230.261021 
L 208.968122 234.98437 
L 210.616114 240.743286 
L 212.264107 242.116941 
L 213.9121 242.474032 
L 217.208085 242.645706 
L 218.856078 242.267763 
L 220.50407 241.131723 
L 222.152063 245.484124 
L 223.800055 249.179088 
L 225.448048 250.441159 
L 227.096041 253.926049 
L 228.744033 260.727323 
L 230.392026 262.976865 
L 232.040018 263.487738 
L 233.688011 263.682432 
L 236.983996 264.515628 
L 238.631989 264.766817 
L 240.279982 266.02025 
L 243.575967 270.109706 
L 245.223959 271.643881 
L 248.519945 274.067995 
L 250.167937 274.336355 
L 251.81593 274.053362 
L 253.463922 273.897223 
L 255.111915 274.386257 
L 256.759908 274.313527 
L 258.4079 272.858611 
L 260.055893 271.851275 
L 261.703886 270.342532 
L 263.351878 267.425876 
L 266.647863 259.989751 
L 268.295856 255.686899 
L 269.943849 250.758593 
L 271.591841 243.500161 
L 273.239834 237.930347 
L 274.887826 231.256759 
L 278.183812 214.105321 
L 279.831804 209.227046 
L 281.479797 202.842766 
L 283.12779 191.65209 
L 284.775782 188.049056 
L 286.423775 186.453272 
L 288.071767 185.639894 
L 291.367753 185.116404 
L 293.015745 185.114461 
L 294.663738 184.987248 
L 296.311731 185.238125 
L 297.959723 185.331635 
L 299.607716 185.22639 
L 301.255708 185.655635 
L 302.903701 185.196976 
L 307.847679 185.521251 
L 309.495671 185.358449 
L 311.143664 185.734426 
L 312.791657 187.264507 
L 314.439649 188.99485 
L 316.087642 187.736696 
L 317.735635 187.450971 
L 319.383627 189.738504 
L 321.03162 189.701017 
L 322.679612 187.222915 
L 324.327605 187.820963 
L 325.975598 202.65035 
L 327.62359 207.803567 
L 329.271583 208.382139 
L 330.919575 211.676803 
L 332.567568 223.851052 
L 335.863553 233.98481 
L 337.511546 241.237397 
L 339.159539 254.188979 
L 340.807531 259.768484 
L 342.455524 260.150857 
L 344.103516 261.960201 
L 345.751509 264.647318 
L 347.399502 269.641445 
L 349.047494 270.931326 
L 350.695487 271.976118 
L 352.343479 273.413016 
L 353.991472 273.983211 
L 355.639465 274.15083 
L 360.583443 273.356505 
L 362.231435 273.815917 
L 363.879428 274.489636 
L 367.175413 275.512929 
L 368.823406 275.802632 
L 370.471398 275.803241 
L 372.119391 274.581864 
L 373.767383 272.908546 
L 375.415376 271.408619 
L 377.063369 269.598956 
L 378.711361 266.289434 
L 380.359354 261.214388 
L 382.007347 255.512948 
L 383.655339 247.924298 
L 385.303332 234.713623 
L 386.951324 214.913648 
L 388.599317 200.566189 
L 390.24731 192.335727 
L 391.895302 186.909979 
L 393.543295 185.781092 
L 396.83928 185.656545 
L 398.487273 185.638804 
L 398.487273 185.638804 
" style="fill:none;stroke:#2ca02c;stroke-linecap:square;stroke-width:1.5;"/>
   </g>
   <g id="line2d_17">
    <path clip-path="url(#p2a68cda980)" d="M 73.832727 104.286517 
L 75.48072 93.461749 
L 77.128713 90.696246 
L 78.776705 92.553478 
L 80.424698 98.647514 
L 82.07269 110.356325 
L 83.720683 124.939036 
L 85.368676 130.544446 
L 87.016668 131.770325 
L 88.664661 131.043071 
L 90.312653 130.997363 
L 91.960646 132.362258 
L 93.608639 133.224364 
L 95.256631 134.787595 
L 96.904624 134.840128 
L 98.552617 133.677224 
L 101.848602 130.036137 
L 103.496594 128.351134 
L 106.79258 122.779901 
L 108.440572 121.620326 
L 110.088565 121.074809 
L 111.736557 121.005535 
L 113.38455 121.510599 
L 115.032543 121.301501 
L 116.680535 120.364072 
L 119.976521 117.40011 
L 121.624513 116.914811 
L 123.272506 116.087029 
L 124.920498 115.478434 
L 126.568491 115.342946 
L 128.216484 115.696226 
L 129.864476 116.495938 
L 131.512469 116.309862 
L 136.456447 115.398745 
L 138.104439 115.122006 
L 139.752432 115.382168 
L 141.400425 116.296806 
L 143.048417 117.506599 
L 144.69641 119.582605 
L 146.344402 122.957413 
L 147.992395 127.646451 
L 149.640388 130.675139 
L 151.28838 132.970311 
L 152.936373 134.4475 
L 154.584365 134.306323 
L 156.232358 132.203763 
L 159.528343 112.620092 
L 161.176336 98.905886 
L 162.824329 92.535491 
L 164.472321 87.226944 
L 166.120314 81.013878 
L 169.416299 65.876498 
L 171.064292 60.179273 
L 172.712284 55.729693 
L 174.360277 54.523348 
L 176.008269 53.568 
L 177.656262 53.653652 
L 179.304255 60.906075 
L 180.952247 69.426477 
L 182.60024 79.490525 
L 184.248233 86.037162 
L 185.896225 93.96298 
L 187.544218 108.463148 
L 189.19221 117.826757 
L 190.840203 120.346526 
L 192.488196 123.715887 
L 194.136188 128.569868 
L 195.784181 131.297812 
L 197.432174 133.347031 
L 199.080166 134.600852 
L 202.376151 134.967334 
L 205.672137 133.871254 
L 207.320129 132.601238 
L 208.968122 131.697871 
L 210.616114 130.521751 
L 212.264107 129.832103 
L 213.9121 129.92152 
L 217.208085 129.814934 
L 218.856078 129.820537 
L 220.50407 130.423764 
L 222.152063 129.460931 
L 223.800055 127.999965 
L 227.096041 125.932546 
L 228.744033 123.851262 
L 230.392026 121.5301 
L 232.040018 120.236482 
L 236.983996 119.568423 
L 238.631989 119.395553 
L 240.279982 118.999101 
L 241.927974 118.026139 
L 246.871952 114.549389 
L 250.167937 113.058302 
L 253.463922 113.393358 
L 255.111915 113.324465 
L 256.759908 113.125112 
L 258.4079 113.686348 
L 260.055893 114.699832 
L 261.703886 115.478563 
L 263.351878 116.928535 
L 264.999871 119.162753 
L 268.295856 124.20525 
L 269.943849 127.198694 
L 271.591841 129.866095 
L 273.239834 131.153749 
L 274.887826 132.705014 
L 276.535819 133.924296 
L 278.183812 134.845695 
L 281.479797 134.557105 
L 283.12779 134.346597 
L 284.775782 133.386753 
L 286.423775 132.952005 
L 288.071767 130.647537 
L 289.71976 124.589421 
L 291.367753 124.061187 
L 293.015745 127.054357 
L 294.663738 124.239285 
L 296.311731 120.692095 
L 297.959723 123.763098 
L 299.607716 129.705543 
L 301.255708 128.357311 
L 302.903701 124.152884 
L 304.551694 126.110189 
L 306.199686 129.701722 
L 307.847679 128.621358 
L 309.495671 124.944585 
L 311.143664 127.724747 
L 312.791657 132.373058 
L 314.439649 133.548493 
L 316.087642 133.394209 
L 319.383627 133.411869 
L 321.03162 133.740745 
L 322.679612 133.654389 
L 324.327605 133.149945 
L 325.975598 134.488738 
L 327.62359 134.047833 
L 329.271583 135.156353 
L 330.919575 134.952256 
L 332.567568 134.089895 
L 334.215561 132.7953 
L 335.863553 131.855368 
L 337.511546 130.609653 
L 339.159539 127.630736 
L 340.807531 124.335437 
L 342.455524 122.658322 
L 344.103516 121.665891 
L 345.751509 120.109532 
L 347.399502 118.165743 
L 349.047494 115.999836 
L 353.991472 113.523942 
L 355.639465 113.261267 
L 357.287457 113.303145 
L 358.93545 113.605479 
L 360.583443 113.740836 
L 362.231435 113.719661 
L 365.52742 112.928579 
L 368.823406 112.206525 
L 370.471398 112.124822 
L 372.119391 112.559633 
L 375.415376 114.769342 
L 377.063369 115.853573 
L 378.711361 117.596773 
L 380.359354 120.701307 
L 385.303332 132.258445 
L 386.951324 134.746826 
L 388.599317 135.049625 
L 391.895302 132.834267 
L 393.543295 131.033978 
L 395.191287 130.169752 
L 396.83928 131.804344 
L 398.487273 131.38179 
L 398.487273 131.38179 
" style="fill:none;stroke:#d62728;stroke-linecap:square;stroke-width:1.5;"/>
   </g>
   <g id="patch_3">
    <path d="M 57.6 307.584 
L 57.6 41.472 
" style="fill:none;stroke:#000000;stroke-linecap:square;stroke-linejoin:miter;stroke-width:0.8;"/>
   </g>
   <g id="patch_4">
    <path d="M 414.72 307.584 
L 414.72 41.472 
" style="fill:none;stroke:#000000;stroke-linecap:square;stroke-linejoin:miter;stroke-width:0.8;"/>
   </g>
   <g id="patch_5">
    <path d="M 57.6 307.584 
L 414.72 307.584 
" style="fill:none;stroke:#000000;stroke-linecap:square;stroke-linejoin:miter;stroke-width:0.8;"/>
   </g>
   <g id="patch_6">
    <path d="M 57.6 41.472 
L 414.72 41.472 
" style="fill:none;stroke:#000000;stroke-linecap:square;stroke-linejoin:miter;stroke-width:0.8;"/>
   </g>
   <g id="text_14">
    <!-- Plot of Test Data vs MCMC Uncertainty  -->
    <defs>
     <path d="M 19.671875 64.796875 
L 19.671875 37.40625 
L 32.078125 37.40625 
Q 38.96875 37.40625 42.71875 40.96875 
Q 46.484375 44.53125 46.484375 51.125 
Q 46.484375 57.671875 42.71875 61.234375 
Q 38.96875 64.796875 32.078125 64.796875 
z
M 9.8125 72.90625 
L 32.078125 72.90625 
Q 44.34375 72.90625 50.609375 67.359375 
Q 56.890625 61.8125 56.890625 51.125 
Q 56.890625 40.328125 50.609375 34.8125 
Q 44.34375 29.296875 32.078125 29.296875 
L 19.671875 29.296875 
L 19.671875 0 
L 9.8125 0 
z
" id="DejaVuSans-50"/>
     <path d="M 9.421875 75.984375 
L 18.40625 75.984375 
L 18.40625 0 
L 9.421875 0 
z
" id="DejaVuSans-6c"/>
     <path d="M 30.609375 48.390625 
Q 23.390625 48.390625 19.1875 42.75 
Q 14.984375 37.109375 14.984375 27.296875 
Q 14.984375 17.484375 19.15625 11.84375 
Q 23.34375 6.203125 30.609375 6.203125 
Q 37.796875 6.203125 41.984375 11.859375 
Q 46.1875 17.53125 46.1875 27.296875 
Q 46.1875 37.015625 41.984375 42.703125 
Q 37.796875 48.390625 30.609375 48.390625 
z
M 30.609375 56 
Q 42.328125 56 49.015625 48.375 
Q 55.71875 40.765625 55.71875 27.296875 
Q 55.71875 13.875 49.015625 6.21875 
Q 42.328125 -1.421875 30.609375 -1.421875 
Q 18.84375 -1.421875 12.171875 6.21875 
Q 5.515625 13.875 5.515625 27.296875 
Q 5.515625 40.765625 12.171875 48.375 
Q 18.84375 56 30.609375 56 
z
" id="DejaVuSans-6f"/>
     <path d="M 18.3125 70.21875 
L 18.3125 54.6875 
L 36.8125 54.6875 
L 36.8125 47.703125 
L 18.3125 47.703125 
L 18.3125 18.015625 
Q 18.3125 11.328125 20.140625 9.421875 
Q 21.96875 7.515625 27.59375 7.515625 
L 36.8125 7.515625 
L 36.8125 0 
L 27.59375 0 
Q 17.1875 0 13.234375 3.875 
Q 9.28125 7.765625 9.28125 18.015625 
L 9.28125 47.703125 
L 2.6875 47.703125 
L 2.6875 54.6875 
L 9.28125 54.6875 
L 9.28125 70.21875 
z
" id="DejaVuSans-74"/>
     <path id="DejaVuSans-20"/>
     <path d="M 37.109375 75.984375 
L 37.109375 68.5 
L 28.515625 68.5 
Q 23.6875 68.5 21.796875 66.546875 
Q 19.921875 64.59375 19.921875 59.515625 
L 19.921875 54.6875 
L 34.71875 54.6875 
L 34.71875 47.703125 
L 19.921875 47.703125 
L 19.921875 0 
L 10.890625 0 
L 10.890625 47.703125 
L 2.296875 47.703125 
L 2.296875 54.6875 
L 10.890625 54.6875 
L 10.890625 58.5 
Q 10.890625 67.625 15.140625 71.796875 
Q 19.390625 75.984375 28.609375 75.984375 
z
" id="DejaVuSans-66"/>
     <path d="M -0.296875 72.90625 
L 61.375 72.90625 
L 61.375 64.59375 
L 35.5 64.59375 
L 35.5 0 
L 25.59375 0 
L 25.59375 64.59375 
L -0.296875 64.59375 
z
" id="DejaVuSans-54"/>
     <path d="M 56.203125 29.59375 
L 56.203125 25.203125 
L 14.890625 25.203125 
Q 15.484375 15.921875 20.484375 11.0625 
Q 25.484375 6.203125 34.421875 6.203125 
Q 39.59375 6.203125 44.453125 7.46875 
Q 49.3125 8.734375 54.109375 11.28125 
L 54.109375 2.78125 
Q 49.265625 0.734375 44.1875 -0.34375 
Q 39.109375 -1.421875 33.890625 -1.421875 
Q 20.796875 -1.421875 13.15625 6.1875 
Q 5.515625 13.8125 5.515625 26.8125 
Q 5.515625 40.234375 12.765625 48.109375 
Q 20.015625 56 32.328125 56 
Q 43.359375 56 49.78125 48.890625 
Q 56.203125 41.796875 56.203125 29.59375 
z
M 47.21875 32.234375 
Q 47.125 39.59375 43.09375 43.984375 
Q 39.0625 48.390625 32.421875 48.390625 
Q 24.90625 48.390625 20.390625 44.140625 
Q 15.875 39.890625 15.1875 32.171875 
z
" id="DejaVuSans-65"/>
     <path d="M 44.28125 53.078125 
L 44.28125 44.578125 
Q 40.484375 46.53125 36.375 47.5 
Q 32.28125 48.484375 27.875 48.484375 
Q 21.1875 48.484375 17.84375 46.4375 
Q 14.5 44.390625 14.5 40.28125 
Q 14.5 37.15625 16.890625 35.375 
Q 19.28125 33.59375 26.515625 31.984375 
L 29.59375 31.296875 
Q 39.15625 29.25 43.1875 25.515625 
Q 47.21875 21.78125 47.21875 15.09375 
Q 47.21875 7.46875 41.1875 3.015625 
Q 35.15625 -1.421875 24.609375 -1.421875 
Q 20.21875 -1.421875 15.453125 -0.5625 
Q 10.6875 0.296875 5.421875 2 
L 5.421875 11.28125 
Q 10.40625 8.6875 15.234375 7.390625 
Q 20.0625 6.109375 24.8125 6.109375 
Q 31.15625 6.109375 34.5625 8.28125 
Q 37.984375 10.453125 37.984375 14.40625 
Q 37.984375 18.0625 35.515625 20.015625 
Q 33.0625 21.96875 24.703125 23.78125 
L 21.578125 24.515625 
Q 13.234375 26.265625 9.515625 29.90625 
Q 5.8125 33.546875 5.8125 39.890625 
Q 5.8125 47.609375 11.28125 51.796875 
Q 16.75 56 26.8125 56 
Q 31.78125 56 36.171875 55.265625 
Q 40.578125 54.546875 44.28125 53.078125 
z
" id="DejaVuSans-73"/>
     <path d="M 19.671875 64.796875 
L 19.671875 8.109375 
L 31.59375 8.109375 
Q 46.6875 8.109375 53.6875 14.9375 
Q 60.6875 21.78125 60.6875 36.53125 
Q 60.6875 51.171875 53.6875 57.984375 
Q 46.6875 64.796875 31.59375 64.796875 
z
M 9.8125 72.90625 
L 30.078125 72.90625 
Q 51.265625 72.90625 61.171875 64.09375 
Q 71.09375 55.28125 71.09375 36.53125 
Q 71.09375 17.671875 61.125 8.828125 
Q 51.171875 0 30.078125 0 
L 9.8125 0 
z
" id="DejaVuSans-44"/>
     <path d="M 34.28125 27.484375 
Q 23.390625 27.484375 19.1875 25 
Q 14.984375 22.515625 14.984375 16.5 
Q 14.984375 11.71875 18.140625 8.90625 
Q 21.296875 6.109375 26.703125 6.109375 
Q 34.1875 6.109375 38.703125 11.40625 
Q 43.21875 16.703125 43.21875 25.484375 
L 43.21875 27.484375 
z
M 52.203125 31.203125 
L 52.203125 0 
L 43.21875 0 
L 43.21875 8.296875 
Q 40.140625 3.328125 35.546875 0.953125 
Q 30.953125 -1.421875 24.3125 -1.421875 
Q 15.921875 -1.421875 10.953125 3.296875 
Q 6 8.015625 6 15.921875 
Q 6 25.140625 12.171875 29.828125 
Q 18.359375 34.515625 30.609375 34.515625 
L 43.21875 34.515625 
L 43.21875 35.40625 
Q 43.21875 41.609375 39.140625 45 
Q 35.0625 48.390625 27.6875 48.390625 
Q 23 48.390625 18.546875 47.265625 
Q 14.109375 46.140625 10.015625 43.890625 
L 10.015625 52.203125 
Q 14.9375 54.109375 19.578125 55.046875 
Q 24.21875 56 28.609375 56 
Q 40.484375 56 46.34375 49.84375 
Q 52.203125 43.703125 52.203125 31.203125 
z
" id="DejaVuSans-61"/>
     <path d="M 2.984375 54.6875 
L 12.5 54.6875 
L 29.59375 8.796875 
L 46.6875 54.6875 
L 56.203125 54.6875 
L 35.6875 0 
L 23.484375 0 
z
" id="DejaVuSans-76"/>
     <path d="M 9.8125 72.90625 
L 24.515625 72.90625 
L 43.109375 23.296875 
L 61.8125 72.90625 
L 76.515625 72.90625 
L 76.515625 0 
L 66.890625 0 
L 66.890625 64.015625 
L 48.09375 14.015625 
L 38.1875 14.015625 
L 19.390625 64.015625 
L 19.390625 0 
L 9.8125 0 
z
" id="DejaVuSans-4d"/>
     <path d="M 64.40625 67.28125 
L 64.40625 56.890625 
Q 59.421875 61.53125 53.78125 63.8125 
Q 48.140625 66.109375 41.796875 66.109375 
Q 29.296875 66.109375 22.65625 58.46875 
Q 16.015625 50.828125 16.015625 36.375 
Q 16.015625 21.96875 22.65625 14.328125 
Q 29.296875 6.6875 41.796875 6.6875 
Q 48.140625 6.6875 53.78125 8.984375 
Q 59.421875 11.28125 64.40625 15.921875 
L 64.40625 5.609375 
Q 59.234375 2.09375 53.4375 0.328125 
Q 47.65625 -1.421875 41.21875 -1.421875 
Q 24.65625 -1.421875 15.125 8.703125 
Q 5.609375 18.84375 5.609375 36.375 
Q 5.609375 53.953125 15.125 64.078125 
Q 24.65625 74.21875 41.21875 74.21875 
Q 47.75 74.21875 53.53125 72.484375 
Q 59.328125 70.75 64.40625 67.28125 
z
" id="DejaVuSans-43"/>
     <path d="M 8.6875 72.90625 
L 18.609375 72.90625 
L 18.609375 28.609375 
Q 18.609375 16.890625 22.84375 11.734375 
Q 27.09375 6.59375 36.625 6.59375 
Q 46.09375 6.59375 50.34375 11.734375 
Q 54.59375 16.890625 54.59375 28.609375 
L 54.59375 72.90625 
L 64.5 72.90625 
L 64.5 27.390625 
Q 64.5 13.140625 57.4375 5.859375 
Q 50.390625 -1.421875 36.625 -1.421875 
Q 22.796875 -1.421875 15.734375 5.859375 
Q 8.6875 13.140625 8.6875 27.390625 
z
" id="DejaVuSans-55"/>
     <path d="M 54.890625 33.015625 
L 54.890625 0 
L 45.90625 0 
L 45.90625 32.71875 
Q 45.90625 40.484375 42.875 44.328125 
Q 39.84375 48.1875 33.796875 48.1875 
Q 26.515625 48.1875 22.3125 43.546875 
Q 18.109375 38.921875 18.109375 30.90625 
L 18.109375 0 
L 9.078125 0 
L 9.078125 54.6875 
L 18.109375 54.6875 
L 18.109375 46.1875 
Q 21.34375 51.125 25.703125 53.5625 
Q 30.078125 56 35.796875 56 
Q 45.21875 56 50.046875 50.171875 
Q 54.890625 44.34375 54.890625 33.015625 
z
" id="DejaVuSans-6e"/>
     <path d="M 48.78125 52.59375 
L 48.78125 44.1875 
Q 44.96875 46.296875 41.140625 47.34375 
Q 37.3125 48.390625 33.40625 48.390625 
Q 24.65625 48.390625 19.8125 42.84375 
Q 14.984375 37.3125 14.984375 27.296875 
Q 14.984375 17.28125 19.8125 11.734375 
Q 24.65625 6.203125 33.40625 6.203125 
Q 37.3125 6.203125 41.140625 7.25 
Q 44.96875 8.296875 48.78125 10.40625 
L 48.78125 2.09375 
Q 45.015625 0.34375 40.984375 -0.53125 
Q 36.96875 -1.421875 32.421875 -1.421875 
Q 20.0625 -1.421875 12.78125 6.34375 
Q 5.515625 14.109375 5.515625 27.296875 
Q 5.515625 40.671875 12.859375 48.328125 
Q 20.21875 56 33.015625 56 
Q 37.15625 56 41.109375 55.140625 
Q 45.0625 54.296875 48.78125 52.59375 
z
" id="DejaVuSans-63"/>
     <path d="M 41.109375 46.296875 
Q 39.59375 47.171875 37.8125 47.578125 
Q 36.03125 48 33.890625 48 
Q 26.265625 48 22.1875 43.046875 
Q 18.109375 38.09375 18.109375 28.8125 
L 18.109375 0 
L 9.078125 0 
L 9.078125 54.6875 
L 18.109375 54.6875 
L 18.109375 46.1875 
Q 20.953125 51.171875 25.484375 53.578125 
Q 30.03125 56 36.53125 56 
Q 37.453125 56 38.578125 55.875 
Q 39.703125 55.765625 41.0625 55.515625 
z
" id="DejaVuSans-72"/>
     <path d="M 9.421875 54.6875 
L 18.40625 54.6875 
L 18.40625 0 
L 9.421875 0 
z
M 9.421875 75.984375 
L 18.40625 75.984375 
L 18.40625 64.59375 
L 9.421875 64.59375 
z
" id="DejaVuSans-69"/>
     <path d="M 32.171875 -5.078125 
Q 28.375 -14.84375 24.75 -17.8125 
Q 21.140625 -20.796875 15.09375 -20.796875 
L 7.90625 -20.796875 
L 7.90625 -13.28125 
L 13.1875 -13.28125 
Q 16.890625 -13.28125 18.9375 -11.515625 
Q 21 -9.765625 23.484375 -3.21875 
L 25.09375 0.875 
L 2.984375 54.6875 
L 12.5 54.6875 
L 29.59375 11.921875 
L 46.6875 54.6875 
L 56.203125 54.6875 
z
" id="DejaVuSans-79"/>
    </defs>
    <g transform="translate(118.112813 35.472)scale(0.12 -0.12)">
     <use xlink:href="#DejaVuSans-50"/>
     <use x="60.302734" xlink:href="#DejaVuSans-6c"/>
     <use x="88.085938" xlink:href="#DejaVuSans-6f"/>
     <use x="149.267578" xlink:href="#DejaVuSans-74"/>
     <use x="188.476562" xlink:href="#DejaVuSans-20"/>
     <use x="220.263672" xlink:href="#DejaVuSans-6f"/>
     <use x="281.445312" xlink:href="#DejaVuSans-66"/>
     <use x="316.650391" xlink:href="#DejaVuSans-20"/>
     <use x="348.4375" xlink:href="#DejaVuSans-54"/>
     <use x="409.255859" xlink:href="#DejaVuSans-65"/>
     <use x="470.779297" xlink:href="#DejaVuSans-73"/>
     <use x="522.878906" xlink:href="#DejaVuSans-74"/>
     <use x="562.087891" xlink:href="#DejaVuSans-20"/>
     <use x="593.875" xlink:href="#DejaVuSans-44"/>
     <use x="670.876953" xlink:href="#DejaVuSans-61"/>
     <use x="732.15625" xlink:href="#DejaVuSans-74"/>
     <use x="771.365234" xlink:href="#DejaVuSans-61"/>
     <use x="832.644531" xlink:href="#DejaVuSans-20"/>
     <use x="864.431641" xlink:href="#DejaVuSans-76"/>
     <use x="923.611328" xlink:href="#DejaVuSans-73"/>
     <use x="975.710938" xlink:href="#DejaVuSans-20"/>
     <use x="1007.498047" xlink:href="#DejaVuSans-4d"/>
     <use x="1093.777344" xlink:href="#DejaVuSans-43"/>
     <use x="1163.601562" xlink:href="#DejaVuSans-4d"/>
     <use x="1249.880859" xlink:href="#DejaVuSans-43"/>
     <use x="1319.705078" xlink:href="#DejaVuSans-20"/>
     <use x="1351.492188" xlink:href="#DejaVuSans-55"/>
     <use x="1424.685547" xlink:href="#DejaVuSans-6e"/>
     <use x="1488.064453" xlink:href="#DejaVuSans-63"/>
     <use x="1543.044922" xlink:href="#DejaVuSans-65"/>
     <use x="1604.568359" xlink:href="#DejaVuSans-72"/>
     <use x="1645.681641" xlink:href="#DejaVuSans-74"/>
     <use x="1684.890625" xlink:href="#DejaVuSans-61"/>
     <use x="1746.169922" xlink:href="#DejaVuSans-69"/>
     <use x="1773.953125" xlink:href="#DejaVuSans-6e"/>
     <use x="1837.332031" xlink:href="#DejaVuSans-74"/>
     <use x="1876.541016" xlink:href="#DejaVuSans-79"/>
     <use x="1935.720703" xlink:href="#DejaVuSans-20"/>
    </g>
   </g>
   <g id="legend_1">
    <g id="patch_7">
     <path d="M 277.843437 108.1845 
L 407.72 108.1845 
Q 409.72 108.1845 409.72 106.1845 
L 409.72 48.472 
Q 409.72 46.472 407.72 46.472 
L 277.843437 46.472 
Q 275.843437 46.472 275.843437 48.472 
L 275.843437 106.1845 
Q 275.843437 108.1845 277.843437 108.1845 
z
" style="fill:#ffffff;opacity:0.8;stroke:#cccccc;stroke-linejoin:miter;"/>
    </g>
    <g id="line2d_18">
     <path d="M 279.843437 54.570438 
L 299.843437 54.570438 
" style="fill:none;stroke:#1f77b4;stroke-linecap:square;stroke-width:1.5;"/>
    </g>
    <g id="line2d_19"/>
    <g id="text_15">
     <!-- actual -->
     <defs>
      <path d="M 8.5 21.578125 
L 8.5 54.6875 
L 17.484375 54.6875 
L 17.484375 21.921875 
Q 17.484375 14.15625 20.5 10.265625 
Q 23.53125 6.390625 29.59375 6.390625 
Q 36.859375 6.390625 41.078125 11.03125 
Q 45.3125 15.671875 45.3125 23.6875 
L 45.3125 54.6875 
L 54.296875 54.6875 
L 54.296875 0 
L 45.3125 0 
L 45.3125 8.40625 
Q 42.046875 3.421875 37.71875 1 
Q 33.40625 -1.421875 27.6875 -1.421875 
Q 18.265625 -1.421875 13.375 4.4375 
Q 8.5 10.296875 8.5 21.578125 
z
M 31.109375 56 
z
" id="DejaVuSans-75"/>
     </defs>
     <g transform="translate(307.843437 58.070438)scale(0.1 -0.1)">
      <use xlink:href="#DejaVuSans-61"/>
      <use x="61.279297" xlink:href="#DejaVuSans-63"/>
      <use x="116.259766" xlink:href="#DejaVuSans-74"/>
      <use x="155.46875" xlink:href="#DejaVuSans-75"/>
      <use x="218.847656" xlink:href="#DejaVuSans-61"/>
      <use x="280.126953" xlink:href="#DejaVuSans-6c"/>
     </g>
    </g>
    <g id="line2d_20">
     <path d="M 279.843437 69.248563 
L 299.843437 69.248563 
" style="fill:none;stroke:#ff7f0e;stroke-linecap:square;stroke-width:1.5;"/>
    </g>
    <g id="line2d_21"/>
    <g id="text_16">
     <!-- pred. (mean) -->
     <defs>
      <path d="M 18.109375 8.203125 
L 18.109375 -20.796875 
L 9.078125 -20.796875 
L 9.078125 54.6875 
L 18.109375 54.6875 
L 18.109375 46.390625 
Q 20.953125 51.265625 25.265625 53.625 
Q 29.59375 56 35.59375 56 
Q 45.5625 56 51.78125 48.09375 
Q 58.015625 40.1875 58.015625 27.296875 
Q 58.015625 14.40625 51.78125 6.484375 
Q 45.5625 -1.421875 35.59375 -1.421875 
Q 29.59375 -1.421875 25.265625 0.953125 
Q 20.953125 3.328125 18.109375 8.203125 
z
M 48.6875 27.296875 
Q 48.6875 37.203125 44.609375 42.84375 
Q 40.53125 48.484375 33.40625 48.484375 
Q 26.265625 48.484375 22.1875 42.84375 
Q 18.109375 37.203125 18.109375 27.296875 
Q 18.109375 17.390625 22.1875 11.75 
Q 26.265625 6.109375 33.40625 6.109375 
Q 40.53125 6.109375 44.609375 11.75 
Q 48.6875 17.390625 48.6875 27.296875 
z
" id="DejaVuSans-70"/>
      <path d="M 45.40625 46.390625 
L 45.40625 75.984375 
L 54.390625 75.984375 
L 54.390625 0 
L 45.40625 0 
L 45.40625 8.203125 
Q 42.578125 3.328125 38.25 0.953125 
Q 33.9375 -1.421875 27.875 -1.421875 
Q 17.96875 -1.421875 11.734375 6.484375 
Q 5.515625 14.40625 5.515625 27.296875 
Q 5.515625 40.1875 11.734375 48.09375 
Q 17.96875 56 27.875 56 
Q 33.9375 56 38.25 53.625 
Q 42.578125 51.265625 45.40625 46.390625 
z
M 14.796875 27.296875 
Q 14.796875 17.390625 18.875 11.75 
Q 22.953125 6.109375 30.078125 6.109375 
Q 37.203125 6.109375 41.296875 11.75 
Q 45.40625 17.390625 45.40625 27.296875 
Q 45.40625 37.203125 41.296875 42.84375 
Q 37.203125 48.484375 30.078125 48.484375 
Q 22.953125 48.484375 18.875 42.84375 
Q 14.796875 37.203125 14.796875 27.296875 
z
" id="DejaVuSans-64"/>
      <path d="M 31 75.875 
Q 24.46875 64.65625 21.28125 53.65625 
Q 18.109375 42.671875 18.109375 31.390625 
Q 18.109375 20.125 21.3125 9.0625 
Q 24.515625 -2 31 -13.1875 
L 23.1875 -13.1875 
Q 15.875 -1.703125 12.234375 9.375 
Q 8.59375 20.453125 8.59375 31.390625 
Q 8.59375 42.28125 12.203125 53.3125 
Q 15.828125 64.359375 23.1875 75.875 
z
" id="DejaVuSans-28"/>
      <path d="M 52 44.1875 
Q 55.375 50.25 60.0625 53.125 
Q 64.75 56 71.09375 56 
Q 79.640625 56 84.28125 50.015625 
Q 88.921875 44.046875 88.921875 33.015625 
L 88.921875 0 
L 79.890625 0 
L 79.890625 32.71875 
Q 79.890625 40.578125 77.09375 44.375 
Q 74.3125 48.1875 68.609375 48.1875 
Q 61.625 48.1875 57.5625 43.546875 
Q 53.515625 38.921875 53.515625 30.90625 
L 53.515625 0 
L 44.484375 0 
L 44.484375 32.71875 
Q 44.484375 40.625 41.703125 44.40625 
Q 38.921875 48.1875 33.109375 48.1875 
Q 26.21875 48.1875 22.15625 43.53125 
Q 18.109375 38.875 18.109375 30.90625 
L 18.109375 0 
L 9.078125 0 
L 9.078125 54.6875 
L 18.109375 54.6875 
L 18.109375 46.1875 
Q 21.1875 51.21875 25.484375 53.609375 
Q 29.78125 56 35.6875 56 
Q 41.65625 56 45.828125 52.96875 
Q 50 49.953125 52 44.1875 
z
" id="DejaVuSans-6d"/>
      <path d="M 8.015625 75.875 
L 15.828125 75.875 
Q 23.140625 64.359375 26.78125 53.3125 
Q 30.421875 42.28125 30.421875 31.390625 
Q 30.421875 20.453125 26.78125 9.375 
Q 23.140625 -1.703125 15.828125 -13.1875 
L 8.015625 -13.1875 
Q 14.5 -2 17.703125 9.0625 
Q 20.90625 20.125 20.90625 31.390625 
Q 20.90625 42.671875 17.703125 53.65625 
Q 14.5 64.65625 8.015625 75.875 
z
" id="DejaVuSans-29"/>
     </defs>
     <g transform="translate(307.843437 72.748563)scale(0.1 -0.1)">
      <use xlink:href="#DejaVuSans-70"/>
      <use x="63.476562" xlink:href="#DejaVuSans-72"/>
      <use x="104.558594" xlink:href="#DejaVuSans-65"/>
      <use x="166.082031" xlink:href="#DejaVuSans-64"/>
      <use x="229.558594" xlink:href="#DejaVuSans-2e"/>
      <use x="261.345703" xlink:href="#DejaVuSans-20"/>
      <use x="293.132812" xlink:href="#DejaVuSans-28"/>
      <use x="332.146484" xlink:href="#DejaVuSans-6d"/>
      <use x="429.558594" xlink:href="#DejaVuSans-65"/>
      <use x="491.082031" xlink:href="#DejaVuSans-61"/>
      <use x="552.361328" xlink:href="#DejaVuSans-6e"/>
      <use x="615.740234" xlink:href="#DejaVuSans-29"/>
     </g>
    </g>
    <g id="line2d_22">
     <path d="M 279.843437 83.926688 
L 299.843437 83.926688 
" style="fill:none;stroke:#2ca02c;stroke-linecap:square;stroke-width:1.5;"/>
    </g>
    <g id="line2d_23"/>
    <g id="text_17">
     <!-- pred.(5th percen.) -->
     <defs>
      <path d="M 54.890625 33.015625 
L 54.890625 0 
L 45.90625 0 
L 45.90625 32.71875 
Q 45.90625 40.484375 42.875 44.328125 
Q 39.84375 48.1875 33.796875 48.1875 
Q 26.515625 48.1875 22.3125 43.546875 
Q 18.109375 38.921875 18.109375 30.90625 
L 18.109375 0 
L 9.078125 0 
L 9.078125 75.984375 
L 18.109375 75.984375 
L 18.109375 46.1875 
Q 21.34375 51.125 25.703125 53.5625 
Q 30.078125 56 35.796875 56 
Q 45.21875 56 50.046875 50.171875 
Q 54.890625 44.34375 54.890625 33.015625 
z
" id="DejaVuSans-68"/>
     </defs>
     <g transform="translate(307.843437 87.426688)scale(0.1 -0.1)">
      <use xlink:href="#DejaVuSans-70"/>
      <use x="63.476562" xlink:href="#DejaVuSans-72"/>
      <use x="104.558594" xlink:href="#DejaVuSans-65"/>
      <use x="166.082031" xlink:href="#DejaVuSans-64"/>
      <use x="229.558594" xlink:href="#DejaVuSans-2e"/>
      <use x="261.345703" xlink:href="#DejaVuSans-28"/>
      <use x="300.359375" xlink:href="#DejaVuSans-35"/>
      <use x="363.982422" xlink:href="#DejaVuSans-74"/>
      <use x="403.191406" xlink:href="#DejaVuSans-68"/>
      <use x="466.570312" xlink:href="#DejaVuSans-20"/>
      <use x="498.357422" xlink:href="#DejaVuSans-70"/>
      <use x="561.833984" xlink:href="#DejaVuSans-65"/>
      <use x="623.357422" xlink:href="#DejaVuSans-72"/>
      <use x="664.439453" xlink:href="#DejaVuSans-63"/>
      <use x="719.419922" xlink:href="#DejaVuSans-65"/>
      <use x="780.943359" xlink:href="#DejaVuSans-6e"/>
      <use x="844.322266" xlink:href="#DejaVuSans-2e"/>
      <use x="876.109375" xlink:href="#DejaVuSans-29"/>
     </g>
    </g>
    <g id="line2d_24">
     <path d="M 279.843437 98.604813 
L 299.843437 98.604813 
" style="fill:none;stroke:#d62728;stroke-linecap:square;stroke-width:1.5;"/>
    </g>
    <g id="line2d_25"/>
    <g id="text_18">
     <!-- pred.(95th percen.) -->
     <defs>
      <path d="M 10.984375 1.515625 
L 10.984375 10.5 
Q 14.703125 8.734375 18.5 7.8125 
Q 22.3125 6.890625 25.984375 6.890625 
Q 35.75 6.890625 40.890625 13.453125 
Q 46.046875 20.015625 46.78125 33.40625 
Q 43.953125 29.203125 39.59375 26.953125 
Q 35.25 24.703125 29.984375 24.703125 
Q 19.046875 24.703125 12.671875 31.3125 
Q 6.296875 37.9375 6.296875 49.421875 
Q 6.296875 60.640625 12.9375 67.421875 
Q 19.578125 74.21875 30.609375 74.21875 
Q 43.265625 74.21875 49.921875 64.515625 
Q 56.59375 54.828125 56.59375 36.375 
Q 56.59375 19.140625 48.40625 8.859375 
Q 40.234375 -1.421875 26.421875 -1.421875 
Q 22.703125 -1.421875 18.890625 -0.6875 
Q 15.09375 0.046875 10.984375 1.515625 
z
M 30.609375 32.421875 
Q 37.25 32.421875 41.125 36.953125 
Q 45.015625 41.5 45.015625 49.421875 
Q 45.015625 57.28125 41.125 61.84375 
Q 37.25 66.40625 30.609375 66.40625 
Q 23.96875 66.40625 20.09375 61.84375 
Q 16.21875 57.28125 16.21875 49.421875 
Q 16.21875 41.5 20.09375 36.953125 
Q 23.96875 32.421875 30.609375 32.421875 
z
" id="DejaVuSans-39"/>
     </defs>
     <g transform="translate(307.843437 102.104813)scale(0.1 -0.1)">
      <use xlink:href="#DejaVuSans-70"/>
      <use x="63.476562" xlink:href="#DejaVuSans-72"/>
      <use x="104.558594" xlink:href="#DejaVuSans-65"/>
      <use x="166.082031" xlink:href="#DejaVuSans-64"/>
      <use x="229.558594" xlink:href="#DejaVuSans-2e"/>
      <use x="261.345703" xlink:href="#DejaVuSans-28"/>
      <use x="300.359375" xlink:href="#DejaVuSans-39"/>
      <use x="363.982422" xlink:href="#DejaVuSans-35"/>
      <use x="427.605469" xlink:href="#DejaVuSans-74"/>
      <use x="466.814453" xlink:href="#DejaVuSans-68"/>
      <use x="530.193359" xlink:href="#DejaVuSans-20"/>
      <use x="561.980469" xlink:href="#DejaVuSans-70"/>
      <use x="625.457031" xlink:href="#DejaVuSans-65"/>
      <use x="686.980469" xlink:href="#DejaVuSans-72"/>
      <use x="728.0625" xlink:href="#DejaVuSans-63"/>
      <use x="783.042969" xlink:href="#DejaVuSans-65"/>
      <use x="844.566406" xlink:href="#DejaVuSans-6e"/>
      <use x="907.945312" xlink:href="#DejaVuSans-2e"/>
      <use x="939.732422" xlink:href="#DejaVuSans-29"/>
     </g>
    </g>
   </g>
  </g>
 </g>
 <defs>
  <clipPath id="p2a68cda980">
   <rect height="266.112" width="357.12" x="57.6" y="41.472"/>
  </clipPath>
 </defs>
</svg>
