<?xml version="1.0" encoding="utf-8" standalone="no"?>
<!DOCTYPE svg PUBLIC "-//W3C//DTD SVG 1.1//EN"
  "http://www.w3.org/Graphics/SVG/1.1/DTD/svg11.dtd">
<!-- Created with matplotlib (http://matplotlib.org/) -->
<svg height="345.6pt" version="1.1" viewBox="0 0 460.8 345.6" width="460.8pt" xmlns="http://www.w3.org/2000/svg" xmlns:xlink="http://www.w3.org/1999/xlink">
 <defs>
  <style type="text/css">
*{stroke-linecap:butt;stroke-linejoin:round;}
  </style>
 </defs>
 <g id="figure_1">
  <g id="patch_1">
   <path d="M 0 345.6 
L 460.8 345.6 
L 460.8 0 
L 0 0 
z
" style="fill:#ffffff;"/>
  </g>
  <g id="axes_1">
   <g id="patch_2">
    <path d="M 57.6 307.584 
L 414.72 307.584 
L 414.72 41.472 
L 57.6 41.472 
z
" style="fill:#ffffff;"/>
   </g>
   <g id="PolyCollection_1">
    <path clip-path="url(#pb8a03fe062)" d="M 73.832727 181.452939 
L 73.832727 278.850135 
L 74.92584 279.308501 
L 76.018953 279.185343 
L 77.112066 279.120451 
L 78.205179 277.757287 
L 79.298292 275.402504 
L 80.391405 273.500454 
L 81.484518 270.759227 
L 82.577631 266.071913 
L 83.670744 258.651781 
L 84.763857 244.844507 
L 85.85697 228.831184 
L 86.950083 225.734258 
L 88.043196 225.446724 
L 89.136309 226.203703 
L 90.229421 227.086083 
L 91.322534 227.374041 
L 92.415647 228.021248 
L 93.50876 228.7295 
L 94.601873 229.376565 
L 95.694986 229.624256 
L 96.788099 229.880796 
L 97.881212 229.847518 
L 98.974325 229.384753 
L 100.067438 228.930276 
L 101.160551 228.649009 
L 102.253664 228.559571 
L 103.346777 228.017603 
L 104.43989 227.595057 
L 105.533003 227.207316 
L 106.626116 226.814477 
L 107.719229 226.221102 
L 108.812342 225.23017 
L 109.905455 225.186521 
L 110.998567 225.586403 
L 112.09168 225.588319 
L 113.184793 225.339591 
L 114.277906 225.233804 
L 115.371019 225.362052 
L 116.464132 225.204745 
L 117.557245 224.80073 
L 118.650358 225.018291 
L 119.743471 225.214885 
L 120.836584 226.728555 
L 121.929697 228.276189 
L 123.02281 231.968399 
L 124.115923 241.194368 
L 125.209036 246.48264 
L 126.302149 248.831014 
L 127.395262 251.832019 
L 128.488375 259.558709 
L 129.581488 263.027076 
L 130.674601 263.588618 
L 131.767713 263.886221 
L 132.860826 265.808878 
L 133.953939 268.240303 
L 135.047052 269.34443 
L 136.140165 270.956033 
L 137.233278 274.851074 
L 138.326391 276.629962 
L 139.419504 276.00233 
L 140.512617 275.277584 
L 141.60573 275.351507 
L 142.698843 274.503304 
L 143.791956 273.412111 
L 144.885069 272.434545 
L 145.978182 270.651096 
L 147.071295 267.212853 
L 148.164408 262.178873 
L 149.257521 257.480686 
L 150.350634 254.17254 
L 151.443747 248.82249 
L 152.53686 242.610517 
L 153.629972 238.664685 
L 154.723085 234.244039 
L 155.816198 228.875454 
L 156.909311 225.720489 
L 158.002424 225.17649 
L 159.095537 225.089259 
L 160.18865 225.112184 
L 161.281763 224.945888 
L 162.374876 224.970926 
L 163.467989 225.805726 
L 164.561102 226.554969 
L 165.654215 227.49509 
L 166.747328 227.901012 
L 167.840441 228.378644 
L 168.933554 228.784669 
L 170.026667 228.526057 
L 171.11978 228.310541 
L 172.212893 228.500312 
L 173.306006 228.528202 
L 174.399118 228.284793 
L 175.492231 227.660356 
L 176.585344 227.199636 
L 177.678457 226.637146 
L 178.77157 225.819571 
L 179.864683 225.347017 
L 180.957796 225.078307 
L 182.050909 224.924273 
L 183.144022 224.927128 
L 184.237135 224.814697 
L 185.330248 224.968159 
L 186.423361 224.921243 
L 187.516474 224.914285 
L 188.609587 224.963755 
L 189.7027 224.963835 
L 190.795813 225.01075 
L 191.888926 225.027274 
L 192.982039 225.036992 
L 194.075152 225.155212 
L 195.168264 225.309655 
L 196.261377 225.313267 
L 197.35449 225.686398 
L 198.447603 226.605123 
L 199.540716 231.264905 
L 200.633829 234.575764 
L 201.726942 235.888553 
L 202.820055 236.757749 
L 203.913168 243.569692 
L 205.006281 249.309046 
L 206.099394 253.559615 
L 207.192507 257.603086 
L 208.28562 263.2852 
L 209.378733 266.780759 
L 210.471846 267.481053 
L 211.564959 268.128061 
L 212.658072 270.247249 
L 213.751185 273.120014 
L 214.844298 275.544222 
L 215.93741 277.495018 
L 217.030523 279.823706 
L 218.123636 281.333814 
L 219.216749 282.296938 
L 220.309862 282.646966 
L 221.402975 282.370712 
L 222.496088 282.271813 
L 223.589201 281.706243 
L 224.682314 280.948676 
L 225.775427 279.776191 
L 226.86854 277.699537 
L 227.961653 275.104064 
L 229.054766 272.128233 
L 230.147879 268.069062 
L 231.240992 263.66631 
L 232.334105 257.948988 
L 233.427218 251.046198 
L 234.520331 244.260082 
L 235.613444 234.732326 
L 236.706556 226.80202 
L 237.799669 225.463766 
L 238.892782 225.106125 
L 239.985895 225.081442 
L 241.079008 225.324877 
L 242.172121 225.735172 
L 243.265234 226.182831 
L 244.358347 226.293881 
L 245.45146 226.305938 
L 246.544573 226.405776 
L 247.637686 226.599272 
L 248.730799 226.423998 
L 249.823912 226.360775 
L 250.917025 226.320585 
L 252.010138 226.272843 
L 253.103251 226.021103 
L 254.196364 225.530722 
L 255.289477 225.384209 
L 256.38259 225.08271 
L 257.475702 225.070818 
L 258.568815 224.798682 
L 259.661928 224.97214 
L 260.755041 224.938324 
L 261.848154 224.951865 
L 262.941267 225.09539 
L 264.03438 225.170602 
L 265.127493 225.421947 
L 266.220606 225.755206 
L 267.313719 229.815648 
L 268.406832 233.724824 
L 269.499945 236.091436 
L 270.593058 236.674368 
L 271.686171 237.231213 
L 272.779284 237.651684 
L 273.872397 235.560474 
L 274.96551 232.891072 
L 276.058623 232.238528 
L 277.151736 233.461633 
L 278.244848 237.01624 
L 279.337961 241.198514 
L 280.431074 246.867502 
L 281.524187 250.600107 
L 282.6173 255.847287 
L 283.710413 258.169946 
L 284.803526 260.660619 
L 285.896639 264.330891 
L 286.989752 267.974079 
L 288.082865 269.785226 
L 289.175978 272.140206 
L 290.269091 276.778946 
L 291.362204 278.806479 
L 292.455317 280.182796 
L 293.54843 281.020727 
L 294.641543 281.140199 
L 295.734656 279.716479 
L 296.827769 277.58345 
L 297.920882 274.682821 
L 299.013994 271.534786 
L 300.107107 267.804968 
L 301.20022 262.679701 
L 302.293333 254.193458 
L 303.386446 243.207569 
L 304.479559 233.560491 
L 305.572672 227.221989 
L 306.665785 225.199344 
L 307.758898 225.039694 
L 308.852011 224.876085 
L 309.945124 225.047645 
L 311.038237 226.316668 
L 312.13135 227.397364 
L 313.224463 227.944606 
L 314.317576 228.543081 
L 315.410689 229.264259 
L 316.503802 229.535275 
L 317.596915 229.416125 
L 318.690028 229.17017 
L 319.78314 228.760069 
L 320.876253 228.231703 
L 321.969366 227.729427 
L 323.062479 227.453276 
L 324.155592 227.097189 
L 325.248705 226.647975 
L 326.341818 226.67083 
L 327.434931 226.889312 
L 328.528044 226.954627 
L 329.621157 226.923953 
L 330.71427 226.774534 
L 331.807383 226.116444 
L 332.900496 225.428002 
L 333.993609 225.105154 
L 335.086722 224.788234 
L 336.179835 225.022052 
L 337.272948 225.341541 
L 338.366061 226.027434 
L 339.459174 226.743965 
L 340.552287 228.591224 
L 341.645399 235.345104 
L 342.738512 245.755967 
L 343.831625 249.197362 
L 344.924738 255.206425 
L 346.017851 264.628604 
L 347.110964 268.887274 
L 348.204077 270.554217 
L 349.29719 271.243621 
L 350.390303 273.310102 
L 351.483416 275.426533 
L 352.576529 275.682524 
L 353.669642 275.598089 
L 354.762755 275.640915 
L 355.855868 276.138895 
L 356.948981 275.846986 
L 358.042094 274.74784 
L 359.135207 274.459538 
L 360.22832 274.632978 
L 361.321433 275.374736 
L 362.414545 276.690752 
L 363.507658 278.138801 
L 364.600771 279.722601 
L 365.693884 280.711994 
L 366.786997 281.792151 
L 367.88011 282.509173 
L 368.973223 283.105692 
L 370.066336 283.284756 
L 371.159449 283.299205 
L 372.252562 282.666671 
L 373.345675 281.667695 
L 374.438788 280.329709 
L 375.531901 277.658301 
L 376.625014 275.000393 
L 377.718127 272.359962 
L 378.81124 268.843654 
L 379.904353 264.03943 
L 380.997466 257.665844 
L 382.090579 253.136069 
L 383.183691 247.405508 
L 384.276804 239.790831 
L 385.369917 232.598085 
L 386.46303 227.968134 
L 387.556143 226.421742 
L 388.649256 225.499961 
L 389.742369 225.333788 
L 390.835482 225.229564 
L 391.928595 225.13377 
L 393.021708 225.269937 
L 394.114821 225.264354 
L 395.207934 225.337287 
L 396.301047 225.427013 
L 397.39416 225.335128 
L 398.487273 225.517552 
L 398.487273 189.656854 
L 398.487273 189.656854 
L 397.39416 190.112596 
L 396.301047 189.132231 
L 395.207934 188.013477 
L 394.114821 188.29751 
L 393.021708 188.945969 
L 391.928595 187.308943 
L 390.835482 186.357046 
L 389.742369 188.438553 
L 388.649256 190.501273 
L 387.556143 191.51491 
L 386.46303 191.740678 
L 385.369917 192.634571 
L 384.276804 192.402902 
L 383.183691 192.240022 
L 382.090579 191.395505 
L 380.997466 190.594745 
L 379.904353 189.09976 
L 378.81124 186.864722 
L 377.718127 184.846063 
L 376.625014 183.122189 
L 375.531901 181.364934 
L 374.438788 179.847001 
L 373.345675 179.060184 
L 372.252562 178.532346 
L 371.159449 178.267974 
L 370.066336 178.341933 
L 368.973223 178.568335 
L 367.88011 179.051176 
L 366.786997 179.647171 
L 365.693884 180.440603 
L 364.600771 181.208317 
L 363.507658 182.151578 
L 362.414545 182.960914 
L 361.321433 183.559848 
L 360.22832 183.769664 
L 359.135207 183.926866 
L 358.042094 183.443179 
L 356.948981 182.967571 
L 355.855868 182.959746 
L 354.762755 183.146835 
L 353.669642 183.103061 
L 352.576529 183.196098 
L 351.483416 183.988621 
L 350.390303 185.166649 
L 349.29719 185.79376 
L 348.204077 186.503572 
L 347.110964 187.75519 
L 346.017851 189.567412 
L 344.924738 191.215868 
L 343.831625 191.903486 
L 342.738512 192.397617 
L 341.645399 192.523338 
L 340.552287 191.776522 
L 339.459174 191.56244 
L 338.366061 191.099134 
L 337.272948 188.66695 
L 336.179835 182.097608 
L 335.086722 168.790215 
L 333.993609 151.88706 
L 332.900496 138.399419 
L 331.807383 126.236806 
L 330.71427 119.806427 
L 329.621157 118.283257 
L 328.528044 118.308299 
L 327.434931 120.014131 
L 326.341818 121.958348 
L 325.248705 120.613961 
L 324.155592 114.206899 
L 323.062479 109.477595 
L 321.969366 105.37268 
L 320.876253 99.934711 
L 319.78314 94.564372 
L 318.690028 89.431658 
L 317.596915 85.596821 
L 316.503802 84.477198 
L 315.410689 83.653453 
L 314.317576 87.468307 
L 313.224463 97.326415 
L 312.13135 107.993265 
L 311.038237 118.243228 
L 309.945124 149.371193 
L 308.852011 166.869946 
L 307.758898 173.601545 
L 306.665785 177.786221 
L 305.572672 188.268574 
L 304.479559 192.377788 
L 303.386446 192.501999 
L 302.293333 191.397074 
L 301.20022 189.449669 
L 300.107107 187.478206 
L 299.013994 185.292167 
L 297.920882 183.218575 
L 296.827769 181.457032 
L 295.734656 180.172442 
L 294.641543 179.794703 
L 293.54843 180.105988 
L 292.455317 180.954164 
L 291.362204 182.098736 
L 290.269091 184.046569 
L 289.175978 185.805508 
L 288.082865 186.731123 
L 286.989752 187.870553 
L 285.896639 188.970094 
L 284.803526 189.770167 
L 283.710413 190.322768 
L 282.6173 190.949044 
L 281.524187 191.797438 
L 280.431074 192.205836 
L 279.337961 192.642219 
L 278.244848 192.550832 
L 277.151736 192.603127 
L 276.058623 192.58357 
L 274.96551 192.462121 
L 273.872397 192.669434 
L 272.779284 192.388682 
L 271.686171 192.671906 
L 270.593058 192.655267 
L 269.499945 192.441529 
L 268.406832 192.325219 
L 267.313719 191.114251 
L 266.220606 189.746898 
L 265.127493 189.242786 
L 264.03438 188.378618 
L 262.941267 185.604215 
L 261.848154 181.078471 
L 260.755041 176.978125 
L 259.661928 174.583655 
L 258.568815 165.419204 
L 257.475702 158.024367 
L 256.38259 151.107383 
L 255.289477 144.352159 
L 254.196364 137.627298 
L 253.103251 130.646562 
L 252.010138 128.546227 
L 250.917025 127.471929 
L 249.823912 126.743697 
L 248.730799 124.716904 
L 247.637686 124.042295 
L 246.544573 126.471452 
L 245.45146 128.108838 
L 244.358347 128.46683 
L 243.265234 130.821904 
L 242.172121 136.412653 
L 241.079008 144.97494 
L 239.985895 157.516733 
L 238.892782 171.914838 
L 237.799669 185.080259 
L 236.706556 191.404213 
L 235.613444 192.497406 
L 234.520331 192.366636 
L 233.427218 191.700063 
L 232.334105 190.697139 
L 231.240992 189.111264 
L 230.147879 187.264395 
L 229.054766 184.966563 
L 227.961653 182.968562 
L 226.86854 181.398534 
L 225.775427 180.299943 
L 224.682314 179.666553 
L 223.589201 179.179685 
L 222.496088 178.912775 
L 221.402975 178.744297 
L 220.309862 178.759154 
L 219.216749 179.254967 
L 218.123636 180.190211 
L 217.030523 181.482405 
L 215.93741 182.807255 
L 214.844298 184.098913 
L 213.751185 185.500292 
L 212.658072 186.53094 
L 211.564959 187.130039 
L 210.471846 187.441451 
L 209.378733 188.224631 
L 208.28562 189.470533 
L 207.192507 190.508216 
L 206.099394 191.327089 
L 205.006281 192.049039 
L 203.913168 192.449824 
L 202.820055 192.817917 
L 201.726942 192.574277 
L 200.633829 192.405298 
L 199.540716 192.061919 
L 198.447603 191.011827 
L 197.35449 190.480366 
L 196.261377 189.461291 
L 195.168264 188.529127 
L 194.075152 187.137829 
L 192.982039 186.17891 
L 191.888926 183.846195 
L 190.795813 182.030909 
L 189.7027 180.43734 
L 188.609587 178.165865 
L 187.516474 177.032679 
L 186.423361 176.85658 
L 185.330248 176.746284 
L 184.237135 170.232918 
L 183.144022 164.522515 
L 182.050909 159.288362 
L 180.957796 152.295582 
L 179.864683 142.912116 
L 178.77157 130.527343 
L 177.678457 119.770507 
L 176.585344 112.662367 
L 175.492231 106.006495 
L 174.399118 100.774114 
L 173.306006 96.169253 
L 172.212893 94.514635 
L 171.11978 96.462308 
L 170.026667 97.056774 
L 168.933554 90.472524 
L 167.840441 92.038818 
L 166.747328 98.843293 
L 165.654215 104.814022 
L 164.561102 116.960389 
L 163.467989 134.032163 
L 162.374876 165.986148 
L 161.281763 181.165653 
L 160.18865 182.894442 
L 159.095537 183.960835 
L 158.002424 186.638515 
L 156.909311 190.147135 
L 155.816198 191.821042 
L 154.723085 192.396555 
L 153.629972 192.547541 
L 152.53686 192.527968 
L 151.443747 192.046951 
L 150.350634 191.246702 
L 149.257521 190.590922 
L 148.164408 189.625533 
L 147.071295 187.785428 
L 145.978182 185.738123 
L 144.885069 184.891913 
L 143.791956 184.304063 
L 142.698843 183.616927 
L 141.60573 183.393837 
L 140.512617 183.175073 
L 139.419504 182.74976 
L 138.326391 183.24959 
L 137.233278 184.918749 
L 136.140165 186.138095 
L 135.047052 186.69584 
L 133.953939 187.444524 
L 132.860826 188.319083 
L 131.767713 188.751951 
L 130.674601 188.814105 
L 129.581488 189.296469 
L 128.488375 190.502292 
L 127.395262 191.608462 
L 126.302149 191.974582 
L 125.209036 192.22032 
L 124.115923 192.61408 
L 123.02281 192.343768 
L 121.929697 191.802916 
L 120.836584 190.583666 
L 119.743471 186.067576 
L 118.650358 179.633122 
L 117.557245 166.853026 
L 116.464132 152.266625 
L 115.371019 147.018066 
L 114.277906 146.785284 
L 113.184793 143.389834 
L 112.09168 139.272381 
L 110.998567 139.863585 
L 109.905455 147.673702 
L 108.812342 139.39818 
L 107.719229 125.445332 
L 106.626116 118.443332 
L 105.533003 112.74307 
L 104.43989 107.653743 
L 103.346777 102.13259 
L 102.253664 97.478929 
L 101.160551 93.439026 
L 100.067438 92.616477 
L 98.974325 86.455533 
L 97.881212 81.689846 
L 96.788099 80.390403 
L 95.694986 83.53313 
L 94.601873 85.017891 
L 93.50876 84.403149 
L 92.415647 94.677025 
L 91.322534 110.566905 
L 90.229421 113.612243 
L 89.136309 121.691208 
L 88.043196 141.519866 
L 86.950083 166.239822 
L 85.85697 189.295665 
L 84.763857 192.230803 
L 83.670744 190.322897 
L 82.577631 188.337088 
L 81.484518 185.698979 
L 80.391405 184.171056 
L 79.298292 182.774869 
L 78.205179 181.500434 
L 77.112066 181.054993 
L 76.018953 180.923674 
L 74.92584 181.114765 
L 73.832727 181.452939 
z
" style="fill:#008000;fill-opacity:0.4;"/>
   </g>
   <g id="matplotlib.axis_1">
    <g id="xtick_1">
     <g id="line2d_1">
      <defs>
       <path d="M 0 0 
L 0 3.5 
" id="md6e2bc6fd0" style="stroke:#000000;stroke-width:0.8;"/>
      </defs>
      <g>
       <use style="stroke:#000000;stroke-width:0.8;" x="73.832727" xlink:href="#md6e2bc6fd0" y="307.584"/>
      </g>
     </g>
     <g id="text_1">
      <!-- 0.0 -->
      <defs>
       <path d="M 31.78125 66.40625 
Q 24.171875 66.40625 20.328125 58.90625 
Q 16.5 51.421875 16.5 36.375 
Q 16.5 21.390625 20.328125 13.890625 
Q 24.171875 6.390625 31.78125 6.390625 
Q 39.453125 6.390625 43.28125 13.890625 
Q 47.125 21.390625 47.125 36.375 
Q 47.125 51.421875 43.28125 58.90625 
Q 39.453125 66.40625 31.78125 66.40625 
z
M 31.78125 74.21875 
Q 44.046875 74.21875 50.515625 64.515625 
Q 56.984375 54.828125 56.984375 36.375 
Q 56.984375 17.96875 50.515625 8.265625 
Q 44.046875 -1.421875 31.78125 -1.421875 
Q 19.53125 -1.421875 13.0625 8.265625 
Q 6.59375 17.96875 6.59375 36.375 
Q 6.59375 54.828125 13.0625 64.515625 
Q 19.53125 74.21875 31.78125 74.21875 
z
" id="DejaVuSans-30"/>
       <path d="M 10.6875 12.40625 
L 21 12.40625 
L 21 0 
L 10.6875 0 
z
" id="DejaVuSans-2e"/>
      </defs>
      <g transform="translate(65.881165 322.182437)scale(0.1 -0.1)">
       <use xlink:href="#DejaVuSans-30"/>
       <use x="63.623047" xlink:href="#DejaVuSans-2e"/>
       <use x="95.410156" xlink:href="#DejaVuSans-30"/>
      </g>
     </g>
    </g>
    <g id="xtick_2">
     <g id="line2d_2">
      <g>
       <use style="stroke:#000000;stroke-width:0.8;" x="138.763636" xlink:href="#md6e2bc6fd0" y="307.584"/>
      </g>
     </g>
     <g id="text_2">
      <!-- 0.2 -->
      <defs>
       <path d="M 19.1875 8.296875 
L 53.609375 8.296875 
L 53.609375 0 
L 7.328125 0 
L 7.328125 8.296875 
Q 12.9375 14.109375 22.625 23.890625 
Q 32.328125 33.6875 34.8125 36.53125 
Q 39.546875 41.84375 41.421875 45.53125 
Q 43.3125 49.21875 43.3125 52.78125 
Q 43.3125 58.59375 39.234375 62.25 
Q 35.15625 65.921875 28.609375 65.921875 
Q 23.96875 65.921875 18.8125 64.3125 
Q 13.671875 62.703125 7.8125 59.421875 
L 7.8125 69.390625 
Q 13.765625 71.78125 18.9375 73 
Q 24.125 74.21875 28.421875 74.21875 
Q 39.75 74.21875 46.484375 68.546875 
Q 53.21875 62.890625 53.21875 53.421875 
Q 53.21875 48.921875 51.53125 44.890625 
Q 49.859375 40.875 45.40625 35.40625 
Q 44.1875 33.984375 37.640625 27.21875 
Q 31.109375 20.453125 19.1875 8.296875 
z
" id="DejaVuSans-32"/>
      </defs>
      <g transform="translate(130.812074 322.182437)scale(0.1 -0.1)">
       <use xlink:href="#DejaVuSans-30"/>
       <use x="63.623047" xlink:href="#DejaVuSans-2e"/>
       <use x="95.410156" xlink:href="#DejaVuSans-32"/>
      </g>
     </g>
    </g>
    <g id="xtick_3">
     <g id="line2d_3">
      <g>
       <use style="stroke:#000000;stroke-width:0.8;" x="203.694545" xlink:href="#md6e2bc6fd0" y="307.584"/>
      </g>
     </g>
     <g id="text_3">
      <!-- 0.4 -->
      <defs>
       <path d="M 37.796875 64.3125 
L 12.890625 25.390625 
L 37.796875 25.390625 
z
M 35.203125 72.90625 
L 47.609375 72.90625 
L 47.609375 25.390625 
L 58.015625 25.390625 
L 58.015625 17.1875 
L 47.609375 17.1875 
L 47.609375 0 
L 37.796875 0 
L 37.796875 17.1875 
L 4.890625 17.1875 
L 4.890625 26.703125 
z
" id="DejaVuSans-34"/>
      </defs>
      <g transform="translate(195.742983 322.182437)scale(0.1 -0.1)">
       <use xlink:href="#DejaVuSans-30"/>
       <use x="63.623047" xlink:href="#DejaVuSans-2e"/>
       <use x="95.410156" xlink:href="#DejaVuSans-34"/>
      </g>
     </g>
    </g>
    <g id="xtick_4">
     <g id="line2d_4">
      <g>
       <use style="stroke:#000000;stroke-width:0.8;" x="268.625455" xlink:href="#md6e2bc6fd0" y="307.584"/>
      </g>
     </g>
     <g id="text_4">
      <!-- 0.6 -->
      <defs>
       <path d="M 33.015625 40.375 
Q 26.375 40.375 22.484375 35.828125 
Q 18.609375 31.296875 18.609375 23.390625 
Q 18.609375 15.53125 22.484375 10.953125 
Q 26.375 6.390625 33.015625 6.390625 
Q 39.65625 6.390625 43.53125 10.953125 
Q 47.40625 15.53125 47.40625 23.390625 
Q 47.40625 31.296875 43.53125 35.828125 
Q 39.65625 40.375 33.015625 40.375 
z
M 52.59375 71.296875 
L 52.59375 62.3125 
Q 48.875 64.0625 45.09375 64.984375 
Q 41.3125 65.921875 37.59375 65.921875 
Q 27.828125 65.921875 22.671875 59.328125 
Q 17.53125 52.734375 16.796875 39.40625 
Q 19.671875 43.65625 24.015625 45.921875 
Q 28.375 48.1875 33.59375 48.1875 
Q 44.578125 48.1875 50.953125 41.515625 
Q 57.328125 34.859375 57.328125 23.390625 
Q 57.328125 12.15625 50.6875 5.359375 
Q 44.046875 -1.421875 33.015625 -1.421875 
Q 20.359375 -1.421875 13.671875 8.265625 
Q 6.984375 17.96875 6.984375 36.375 
Q 6.984375 53.65625 15.1875 63.9375 
Q 23.390625 74.21875 37.203125 74.21875 
Q 40.921875 74.21875 44.703125 73.484375 
Q 48.484375 72.75 52.59375 71.296875 
z
" id="DejaVuSans-36"/>
      </defs>
      <g transform="translate(260.673892 322.182437)scale(0.1 -0.1)">
       <use xlink:href="#DejaVuSans-30"/>
       <use x="63.623047" xlink:href="#DejaVuSans-2e"/>
       <use x="95.410156" xlink:href="#DejaVuSans-36"/>
      </g>
     </g>
    </g>
    <g id="xtick_5">
     <g id="line2d_5">
      <g>
       <use style="stroke:#000000;stroke-width:0.8;" x="333.556364" xlink:href="#md6e2bc6fd0" y="307.584"/>
      </g>
     </g>
     <g id="text_5">
      <!-- 0.8 -->
      <defs>
       <path d="M 31.78125 34.625 
Q 24.75 34.625 20.71875 30.859375 
Q 16.703125 27.09375 16.703125 20.515625 
Q 16.703125 13.921875 20.71875 10.15625 
Q 24.75 6.390625 31.78125 6.390625 
Q 38.8125 6.390625 42.859375 10.171875 
Q 46.921875 13.96875 46.921875 20.515625 
Q 46.921875 27.09375 42.890625 30.859375 
Q 38.875 34.625 31.78125 34.625 
z
M 21.921875 38.8125 
Q 15.578125 40.375 12.03125 44.71875 
Q 8.5 49.078125 8.5 55.328125 
Q 8.5 64.0625 14.71875 69.140625 
Q 20.953125 74.21875 31.78125 74.21875 
Q 42.671875 74.21875 48.875 69.140625 
Q 55.078125 64.0625 55.078125 55.328125 
Q 55.078125 49.078125 51.53125 44.71875 
Q 48 40.375 41.703125 38.8125 
Q 48.828125 37.15625 52.796875 32.3125 
Q 56.78125 27.484375 56.78125 20.515625 
Q 56.78125 9.90625 50.3125 4.234375 
Q 43.84375 -1.421875 31.78125 -1.421875 
Q 19.734375 -1.421875 13.25 4.234375 
Q 6.78125 9.90625 6.78125 20.515625 
Q 6.78125 27.484375 10.78125 32.3125 
Q 14.796875 37.15625 21.921875 38.8125 
z
M 18.3125 54.390625 
Q 18.3125 48.734375 21.84375 45.5625 
Q 25.390625 42.390625 31.78125 42.390625 
Q 38.140625 42.390625 41.71875 45.5625 
Q 45.3125 48.734375 45.3125 54.390625 
Q 45.3125 60.0625 41.71875 63.234375 
Q 38.140625 66.40625 31.78125 66.40625 
Q 25.390625 66.40625 21.84375 63.234375 
Q 18.3125 60.0625 18.3125 54.390625 
z
" id="DejaVuSans-38"/>
      </defs>
      <g transform="translate(325.604801 322.182437)scale(0.1 -0.1)">
       <use xlink:href="#DejaVuSans-30"/>
       <use x="63.623047" xlink:href="#DejaVuSans-2e"/>
       <use x="95.410156" xlink:href="#DejaVuSans-38"/>
      </g>
     </g>
    </g>
    <g id="xtick_6">
     <g id="line2d_6">
      <g>
       <use style="stroke:#000000;stroke-width:0.8;" x="398.487273" xlink:href="#md6e2bc6fd0" y="307.584"/>
      </g>
     </g>
     <g id="text_6">
      <!-- 1.0 -->
      <defs>
       <path d="M 12.40625 8.296875 
L 28.515625 8.296875 
L 28.515625 63.921875 
L 10.984375 60.40625 
L 10.984375 69.390625 
L 28.421875 72.90625 
L 38.28125 72.90625 
L 38.28125 8.296875 
L 54.390625 8.296875 
L 54.390625 0 
L 12.40625 0 
z
" id="DejaVuSans-31"/>
      </defs>
      <g transform="translate(390.53571 322.182437)scale(0.1 -0.1)">
       <use xlink:href="#DejaVuSans-31"/>
       <use x="63.623047" xlink:href="#DejaVuSans-2e"/>
       <use x="95.410156" xlink:href="#DejaVuSans-30"/>
      </g>
     </g>
    </g>
   </g>
   <g id="matplotlib.axis_2">
    <g id="ytick_1">
     <g id="line2d_7">
      <defs>
       <path d="M 0 0 
L -3.5 0 
" id="m969f2050fe" style="stroke:#000000;stroke-width:0.8;"/>
      </defs>
      <g>
       <use style="stroke:#000000;stroke-width:0.8;" x="57.6" xlink:href="#m969f2050fe" y="299.17887"/>
      </g>
     </g>
     <g id="text_7">
      <!-- 0.0 -->
      <g transform="translate(34.696875 302.978089)scale(0.1 -0.1)">
       <use xlink:href="#DejaVuSans-30"/>
       <use x="63.623047" xlink:href="#DejaVuSans-2e"/>
       <use x="95.410156" xlink:href="#DejaVuSans-30"/>
      </g>
     </g>
    </g>
    <g id="ytick_2">
     <g id="line2d_8">
      <g>
       <use style="stroke:#000000;stroke-width:0.8;" x="57.6" xlink:href="#m969f2050fe" y="249.553394"/>
      </g>
     </g>
     <g id="text_8">
      <!-- 0.2 -->
      <g transform="translate(34.696875 253.352613)scale(0.1 -0.1)">
       <use xlink:href="#DejaVuSans-30"/>
       <use x="63.623047" xlink:href="#DejaVuSans-2e"/>
       <use x="95.410156" xlink:href="#DejaVuSans-32"/>
      </g>
     </g>
    </g>
    <g id="ytick_3">
     <g id="line2d_9">
      <g>
       <use style="stroke:#000000;stroke-width:0.8;" x="57.6" xlink:href="#m969f2050fe" y="199.927919"/>
      </g>
     </g>
     <g id="text_9">
      <!-- 0.4 -->
      <g transform="translate(34.696875 203.727138)scale(0.1 -0.1)">
       <use xlink:href="#DejaVuSans-30"/>
       <use x="63.623047" xlink:href="#DejaVuSans-2e"/>
       <use x="95.410156" xlink:href="#DejaVuSans-34"/>
      </g>
     </g>
    </g>
    <g id="ytick_4">
     <g id="line2d_10">
      <g>
       <use style="stroke:#000000;stroke-width:0.8;" x="57.6" xlink:href="#m969f2050fe" y="150.302443"/>
      </g>
     </g>
     <g id="text_10">
      <!-- 0.6 -->
      <g transform="translate(34.696875 154.101662)scale(0.1 -0.1)">
       <use xlink:href="#DejaVuSans-30"/>
       <use x="63.623047" xlink:href="#DejaVuSans-2e"/>
       <use x="95.410156" xlink:href="#DejaVuSans-36"/>
      </g>
     </g>
    </g>
    <g id="ytick_5">
     <g id="line2d_11">
      <g>
       <use style="stroke:#000000;stroke-width:0.8;" x="57.6" xlink:href="#m969f2050fe" y="100.676968"/>
      </g>
     </g>
     <g id="text_11">
      <!-- 0.8 -->
      <g transform="translate(34.696875 104.476186)scale(0.1 -0.1)">
       <use xlink:href="#DejaVuSans-30"/>
       <use x="63.623047" xlink:href="#DejaVuSans-2e"/>
       <use x="95.410156" xlink:href="#DejaVuSans-38"/>
      </g>
     </g>
    </g>
    <g id="ytick_6">
     <g id="line2d_12">
      <g>
       <use style="stroke:#000000;stroke-width:0.8;" x="57.6" xlink:href="#m969f2050fe" y="51.051492"/>
      </g>
     </g>
     <g id="text_12">
      <!-- 1.0 -->
      <g transform="translate(34.696875 54.850711)scale(0.1 -0.1)">
       <use xlink:href="#DejaVuSans-31"/>
       <use x="63.623047" xlink:href="#DejaVuSans-2e"/>
       <use x="95.410156" xlink:href="#DejaVuSans-30"/>
      </g>
     </g>
    </g>
   </g>
   <g id="line2d_13">
    <path clip-path="url(#pb8a03fe062)" d="M 73.832727 286.596355 
L 74.92584 286.764114 
L 76.018953 286.093054 
L 77.112066 285.086451 
L 78.205179 278.711289 
L 79.298292 276.194781 
L 80.391405 269.316244 
L 81.484518 258.411542 
L 82.577631 245.661268 
L 83.670744 224.522553 
L 84.763857 206.739263 
L 85.85697 186.607201 
L 88.043196 142.65218 
L 89.136309 124.868891 
L 90.229421 119.332673 
L 91.322534 104.40136 
L 92.415647 76.719773 
L 93.50876 67.324926 
L 94.601873 65.143887 
L 95.694986 54.574653 
L 96.788099 53.568 
L 97.881212 61.78846 
L 98.974325 79.571997 
L 100.067438 85.779152 
L 101.160551 87.456989 
L 102.253664 103.394707 
L 105.533003 130.405357 
L 106.626116 142.484446 
L 107.719229 161.609856 
L 108.812342 163.95863 
L 109.905455 152.047275 
L 110.998567 154.396049 
L 112.09168 159.932267 
L 113.184793 161.945572 
L 114.277906 159.932267 
L 115.371019 168.991645 
L 116.464132 184.761877 
L 117.557245 189.962627 
L 118.650358 202.712901 
L 119.743471 213.953319 
L 120.836584 215.463174 
L 121.929697 220.328456 
L 124.115923 236.433907 
L 125.209036 238.614947 
L 126.302149 241.131455 
L 127.395262 250.52655 
L 128.488375 256.398236 
L 129.581488 259.250212 
L 130.674601 257.069421 
L 131.767713 260.92805 
L 132.860826 265.289881 
L 135.047052 269.819694 
L 137.233278 280.892279 
L 138.326391 280.892279 
L 139.419504 278.54353 
L 140.512617 279.550133 
L 141.60573 277.704686 
L 142.698843 275.188178 
L 143.791956 274.684901 
L 144.885069 269.819694 
L 147.071295 251.532955 
L 148.164408 247.674326 
L 149.257521 242.64131 
L 150.350634 234.588584 
L 151.443747 229.555568 
L 152.53686 225.361471 
L 153.629972 220.49619 
L 154.723085 214.288787 
L 155.816198 200.867329 
L 156.909311 196.337764 
L 158.002424 193.150071 
L 159.095537 192.143419 
L 160.18865 190.298095 
L 161.281763 182.077387 
L 164.561102 115.809512 
L 167.840441 77.89416 
L 168.933554 90.141231 
L 170.026667 93.496658 
L 171.11978 88.79911 
L 172.212893 89.470047 
L 173.306006 96.1809 
L 174.399118 112.622068 
L 175.492231 122.352383 
L 176.585344 133.257333 
L 177.678457 151.543825 
L 178.77157 160.435469 
L 179.864683 167.984993 
L 180.957796 174.695846 
L 182.050909 176.205701 
L 183.144022 184.929611 
L 184.237135 186.607201 
L 185.330248 187.110403 
L 186.423361 186.607201 
L 187.516474 187.781587 
L 188.609587 191.304748 
L 189.7027 191.640216 
L 190.795813 194.659926 
L 191.888926 197.176434 
L 194.075152 200.364127 
L 195.168264 205.564877 
L 196.261377 206.571529 
L 197.35449 213.785585 
L 198.447603 219.992739 
L 199.540716 224.522553 
L 200.633829 223.683634 
L 201.726942 225.361471 
L 203.913168 238.950415 
L 205.006281 244.319147 
L 206.099394 248.680979 
L 207.192507 256.230502 
L 208.28562 262.270171 
L 209.378733 264.45121 
L 210.471846 265.625349 
L 211.564959 268.309839 
L 213.751185 277.536927 
L 214.844298 281.731099 
L 215.93741 286.596355 
L 217.030523 290.119442 
L 218.123636 292.803733 
L 219.216749 293.810336 
L 220.309862 293.139251 
L 221.402975 292.635949 
L 222.496088 292.300432 
L 223.589201 289.951683 
L 224.682314 288.777321 
L 225.775427 283.744305 
L 226.86854 279.717892 
L 229.054766 263.109089 
L 230.147879 255.559566 
L 231.240992 244.486881 
L 232.334105 238.782681 
L 233.427218 229.2201 
L 234.520331 217.811948 
L 235.613444 209.255771 
L 239.985895 160.603451 
L 242.172121 142.819914 
L 243.265234 141.813509 
L 244.358347 141.645775 
L 245.45146 138.961285 
L 246.544573 134.767188 
L 247.637686 138.961285 
L 248.730799 139.464736 
L 249.823912 141.981244 
L 250.917025 140.639123 
L 252.010138 147.181993 
L 253.103251 155.234719 
L 254.196364 159.764533 
L 255.289477 168.656177 
L 256.38259 170.501501 
L 257.475702 182.580838 
L 259.661928 187.278385 
L 262.941267 202.712901 
L 264.03438 200.867329 
L 265.127493 206.403795 
L 266.220606 216.13411 
L 267.313719 223.5159 
L 268.406832 225.361471 
L 269.499945 224.690287 
L 271.686171 226.703592 
L 272.779284 222.006045 
L 273.872397 220.999392 
L 274.96551 219.489537 
L 276.058623 222.173779 
L 277.151736 227.03906 
L 278.244848 229.891037 
L 279.337961 236.769624 
L 280.431074 240.124802 
L 281.524187 247.003389 
L 282.6173 250.52655 
L 283.710413 253.54626 
L 285.896639 263.94776 
L 286.989752 267.806389 
L 288.082865 270.994081 
L 289.175978 278.879073 
L 290.269091 284.583149 
L 291.362204 287.938476 
L 292.455317 290.119442 
L 293.54843 290.287225 
L 294.641543 288.609562 
L 295.734656 283.744305 
L 296.827769 278.040229 
L 299.013994 262.941107 
L 300.107107 252.371873 
L 302.293333 226.703592 
L 303.386446 219.657271 
L 304.479559 203.048369 
L 305.572672 190.298095 
L 306.665785 182.748572 
L 307.758898 177.547822 
L 308.852011 168.991645 
L 309.945124 142.148978 
L 311.038237 121.849181 
L 314.317576 67.828129 
L 315.410689 63.801766 
L 316.503802 64.976152 
L 317.596915 72.022474 
L 318.690028 82.256239 
L 319.78314 97.187304 
L 320.876253 109.769844 
L 321.969366 114.131923 
L 323.062479 126.378994 
L 324.155592 134.599454 
L 325.248705 134.263986 
L 326.341818 129.734172 
L 327.434931 128.224317 
L 328.528044 128.72752 
L 329.621157 130.069641 
L 330.71427 144.665485 
L 331.807383 156.409106 
L 333.993609 185.600548 
L 335.086722 194.659926 
L 336.179835 208.081384 
L 337.272948 211.940013 
L 338.366061 212.778932 
L 339.459174 216.973029 
L 340.552287 222.844963 
L 341.645399 233.749665 
L 342.738512 238.614947 
L 343.831625 244.486881 
L 344.924738 256.56597 
L 346.017851 264.786678 
L 347.110964 269.316244 
L 348.204077 271.161815 
L 349.29719 273.846057 
L 350.390303 278.207988 
L 351.483416 279.885676 
L 352.576529 279.046832 
L 353.669642 280.221194 
L 354.762755 279.382374 
L 355.855868 281.395581 
L 356.948981 277.201384 
L 358.042094 277.87247 
L 359.135207 277.536927 
L 360.22832 277.87247 
L 361.321433 281.395581 
L 362.414545 283.241003 
L 363.507658 287.099657 
L 364.600771 288.94508 
L 365.693884 291.293828 
L 366.786997 293.307035 
L 367.88011 294.145854 
L 368.973223 295.320241 
L 370.066336 295.488 
L 372.252562 292.132648 
L 373.345675 289.61614 
L 376.625014 272.67167 
L 377.718127 265.961065 
L 378.81124 252.875076 
L 379.904353 246.667921 
L 380.997466 241.466923 
L 382.090579 232.910995 
L 383.183691 226.032408 
L 384.276804 215.798642 
L 385.369917 215.463174 
L 386.46303 209.255771 
L 387.556143 205.732611 
L 388.649256 199.357474 
L 389.742369 194.492192 
L 390.835482 201.203045 
L 391.928595 202.20945 
L 393.021708 198.854272 
L 394.114821 198.518555 
L 395.207934 204.39049 
L 396.301047 207.745916 
L 397.39416 200.364127 
L 398.487273 198.854272 
L 398.487273 198.854272 
" style="fill:none;stroke:#1f77b4;stroke-linecap:square;stroke-width:1.5;"/>
   </g>
   <g id="line2d_14">
    <path clip-path="url(#pb8a03fe062)" d="M 73.832727 245.680824 
L 74.92584 245.962462 
L 76.018953 246.020961 
L 77.112066 245.96778 
L 78.205179 245.527323 
L 80.391405 243.277425 
L 81.484518 241.189265 
L 82.577631 237.577092 
L 83.670744 231.713362 
L 84.763857 221.643668 
L 85.85697 209.479713 
L 89.136309 167.421369 
L 90.229421 159.293479 
L 91.322534 155.226857 
L 93.50876 144.040561 
L 94.601873 141.191707 
L 96.788099 138.850972 
L 97.881212 138.336469 
L 98.974325 139.75571 
L 100.067438 142.678197 
L 102.253664 145.920466 
L 103.346777 149.0687 
L 106.626116 159.798659 
L 107.719229 165.788562 
L 108.812342 174.312204 
L 109.905455 176.248807 
L 110.998567 172.949229 
L 112.09168 172.393411 
L 113.184793 174.950777 
L 114.277906 176.239906 
L 115.371019 176.48563 
L 116.464132 181.528577 
L 117.557245 189.942111 
L 118.650358 196.265345 
L 120.836584 211.101186 
L 121.929697 214.206621 
L 123.02281 216.905103 
L 124.115923 221.610496 
L 125.209036 225.666086 
L 126.302149 227.796334 
L 127.395262 229.559953 
L 129.581488 235.876936 
L 130.674601 236.801307 
L 131.767713 237.047102 
L 132.860826 237.897114 
L 133.953939 239.35394 
L 135.047052 240.402038 
L 136.140165 241.241551 
L 138.326391 244.124218 
L 139.419504 244.495654 
L 140.512617 244.165491 
L 142.698843 243.800788 
L 144.885069 242.617075 
L 145.978182 241.343511 
L 147.071295 238.550264 
L 148.164408 235.13889 
L 150.350634 230.223231 
L 152.53686 223.205737 
L 153.629972 220.790786 
L 154.723085 217.529397 
L 155.816198 212.605013 
L 156.909311 206.156689 
L 158.002424 201.01289 
L 159.095537 198.600253 
L 160.18865 197.824234 
L 161.281763 196.468463 
L 162.374876 190.054594 
L 164.561102 164.417923 
L 165.654215 155.759146 
L 166.747328 150.206855 
L 167.840441 146.409691 
L 168.933554 144.39916 
L 171.11978 146.373771 
L 172.212893 145.818359 
L 173.306006 145.833274 
L 174.399118 147.887561 
L 176.585344 156.325442 
L 177.678457 161.727165 
L 179.864683 175.513179 
L 180.957796 180.420613 
L 182.050909 184.024289 
L 183.144022 186.755073 
L 184.237135 190.855246 
L 185.330248 193.610689 
L 186.423361 193.562089 
L 187.516474 193.749414 
L 188.609587 194.620449 
L 189.7027 196.334102 
L 190.795813 197.196733 
L 192.982039 200.946338 
L 194.075152 201.986078 
L 196.261377 205.914079 
L 197.35449 208.363863 
L 198.447603 212.085432 
L 199.540716 216.29273 
L 200.633829 218.961592 
L 201.726942 219.457098 
L 202.820055 220.571123 
L 203.913168 223.77227 
L 205.006281 227.396496 
L 206.099394 230.335753 
L 207.192507 232.781559 
L 209.378733 238.100502 
L 210.471846 239.267757 
L 211.564959 239.76205 
L 212.658072 240.698991 
L 215.93741 244.610016 
L 217.030523 245.744887 
L 218.123636 246.705382 
L 219.216749 247.280567 
L 220.309862 247.577086 
L 222.496088 247.462267 
L 223.589201 247.293858 
L 224.682314 246.978471 
L 225.775427 246.464735 
L 226.86854 245.620321 
L 227.961653 244.289539 
L 229.054766 242.202332 
L 230.147879 239.35274 
L 231.240992 236.084561 
L 233.427218 228.093957 
L 234.520331 223.344849 
L 236.706556 210.106749 
L 237.799669 202.563701 
L 239.985895 185.109447 
L 241.079008 177.104388 
L 242.172121 171.073253 
L 243.265234 167.115444 
L 244.358347 165.378958 
L 245.45146 165.242942 
L 247.637686 162.742339 
L 249.823912 164.400794 
L 250.917025 165.099962 
L 252.010138 165.522327 
L 253.103251 167.792168 
L 256.38259 179.647705 
L 257.475702 183.303625 
L 258.568815 188.501673 
L 259.661928 192.329494 
L 260.755041 194.053652 
L 261.848154 197.014914 
L 262.941267 201.005877 
L 264.03438 203.7427 
L 265.127493 204.644968 
L 266.220606 207.804732 
L 267.313719 213.455899 
L 268.406832 217.911581 
L 269.499945 219.778227 
L 270.593058 220.118669 
L 271.686171 220.645097 
L 272.779284 220.437684 
L 274.96551 217.429662 
L 276.058623 217.233664 
L 277.151736 218.38513 
L 278.244848 220.548808 
L 280.431074 226.039223 
L 282.6173 231.385551 
L 283.710413 233.439265 
L 284.803526 234.932054 
L 288.082865 240.35946 
L 289.175978 241.611166 
L 291.362204 245.190618 
L 292.455317 246.156908 
L 293.54843 246.717451 
L 294.641543 246.90534 
L 295.734656 246.492566 
L 296.827769 245.557684 
L 297.920882 244.003811 
L 299.013994 241.863244 
L 300.107107 239.135158 
L 301.20022 234.999202 
L 302.293333 229.116709 
L 303.386446 222.405065 
L 304.479559 216.503928 
L 305.572672 207.702978 
L 306.665785 197.462697 
L 307.758898 191.874894 
L 308.852011 187.635079 
L 309.945124 180.438537 
L 311.038237 167.842331 
L 312.13135 157.474706 
L 313.224463 150.845903 
L 314.317576 145.203076 
L 315.410689 141.675257 
L 316.503802 140.268178 
L 317.596915 140.306927 
L 318.690028 141.580919 
L 319.78314 143.965371 
L 321.969366 151.134385 
L 323.062479 153.682005 
L 324.155592 157.725622 
L 325.248705 160.784076 
L 326.341818 161.369508 
L 327.434931 160.12246 
L 328.528044 159.092416 
L 329.621157 159.131128 
L 330.71427 160.681022 
L 331.807383 166.007335 
L 332.900496 173.125602 
L 336.179835 199.031897 
L 337.272948 206.663161 
L 338.366061 211.079068 
L 339.459174 212.440841 
L 340.552287 214.655184 
L 341.645399 218.581534 
L 342.738512 223.854923 
L 343.831625 227.768448 
L 344.924738 230.771675 
L 346.017851 235.225007 
L 347.110964 238.87849 
L 348.204077 240.724777 
L 350.390303 242.449983 
L 351.483416 243.526252 
L 352.576529 244.152002 
L 356.948981 244.358988 
L 359.135207 243.586032 
L 360.22832 243.695298 
L 361.321433 243.92596 
L 362.414545 244.425858 
L 364.600771 245.908275 
L 365.693884 246.535035 
L 367.88011 247.433746 
L 368.973223 247.7452 
L 371.159449 247.946337 
L 372.252562 247.769173 
L 373.345675 247.33547 
L 374.438788 246.769783 
L 375.531901 245.669977 
L 376.625014 244.202983 
L 377.718127 242.494907 
L 378.81124 239.827449 
L 380.997466 232.444882 
L 382.090579 229.486299 
L 383.183691 225.618587 
L 385.369917 216.28935 
L 386.46303 213.260594 
L 387.556143 210.607982 
L 388.649256 207.460369 
L 389.742369 203.181945 
L 390.835482 200.817041 
L 391.928595 202.724761 
L 393.021708 204.178023 
L 394.114821 202.921274 
L 395.207934 202.990168 
L 396.301047 205.947571 
L 397.39416 207.028387 
L 398.487273 204.989837 
L 398.487273 204.989837 
" style="fill:none;stroke:#ff7f0e;stroke-linecap:square;stroke-width:1.5;"/>
   </g>
   <g id="line2d_15">
    <path clip-path="url(#pb8a03fe062)" d="M 73.832727 278.850135 
L 74.92584 279.308501 
L 77.112066 279.120451 
L 78.205179 277.757287 
L 79.298292 275.402504 
L 80.391405 273.500454 
L 81.484518 270.759227 
L 82.577631 266.071913 
L 83.670744 258.651781 
L 84.763857 244.844507 
L 85.85697 228.831184 
L 86.950083 225.734258 
L 88.043196 225.446724 
L 90.229421 227.086083 
L 91.322534 227.374041 
L 94.601873 229.376565 
L 96.788099 229.880796 
L 97.881212 229.847518 
L 100.067438 228.930276 
L 101.160551 228.649009 
L 102.253664 228.559571 
L 104.43989 227.595057 
L 106.626116 226.814477 
L 107.719229 226.221102 
L 108.812342 225.23017 
L 109.905455 225.186521 
L 110.998567 225.586403 
L 112.09168 225.588319 
L 113.184793 225.339591 
L 114.277906 225.233804 
L 115.371019 225.362052 
L 116.464132 225.204745 
L 117.557245 224.80073 
L 119.743471 225.214885 
L 121.929697 228.276189 
L 123.02281 231.968399 
L 124.115923 241.194368 
L 125.209036 246.48264 
L 126.302149 248.831014 
L 127.395262 251.832019 
L 128.488375 259.558709 
L 129.581488 263.027076 
L 130.674601 263.588618 
L 131.767713 263.886221 
L 132.860826 265.808878 
L 133.953939 268.240303 
L 135.047052 269.34443 
L 136.140165 270.956033 
L 137.233278 274.851074 
L 138.326391 276.629962 
L 140.512617 275.277584 
L 141.60573 275.351507 
L 142.698843 274.503304 
L 144.885069 272.434545 
L 145.978182 270.651096 
L 147.071295 267.212853 
L 149.257521 257.480686 
L 150.350634 254.17254 
L 151.443747 248.82249 
L 152.53686 242.610517 
L 153.629972 238.664685 
L 154.723085 234.244039 
L 155.816198 228.875454 
L 156.909311 225.720489 
L 158.002424 225.17649 
L 161.281763 224.945888 
L 162.374876 224.970926 
L 165.654215 227.49509 
L 168.933554 228.784669 
L 171.11978 228.310541 
L 172.212893 228.500312 
L 173.306006 228.528202 
L 174.399118 228.284793 
L 175.492231 227.660356 
L 177.678457 226.637146 
L 178.77157 225.819571 
L 179.864683 225.347017 
L 180.957796 225.078307 
L 182.050909 224.924273 
L 183.144022 224.927128 
L 184.237135 224.814697 
L 185.330248 224.968159 
L 187.516474 224.914285 
L 191.888926 225.027274 
L 194.075152 225.155212 
L 195.168264 225.309655 
L 196.261377 225.313267 
L 197.35449 225.686398 
L 198.447603 226.605123 
L 199.540716 231.264905 
L 200.633829 234.575764 
L 201.726942 235.888553 
L 202.820055 236.757749 
L 203.913168 243.569692 
L 205.006281 249.309046 
L 207.192507 257.603086 
L 208.28562 263.2852 
L 209.378733 266.780759 
L 211.564959 268.128061 
L 212.658072 270.247249 
L 213.751185 273.120014 
L 214.844298 275.544222 
L 215.93741 277.495018 
L 217.030523 279.823706 
L 218.123636 281.333814 
L 219.216749 282.296938 
L 220.309862 282.646966 
L 221.402975 282.370712 
L 222.496088 282.271813 
L 223.589201 281.706243 
L 224.682314 280.948676 
L 225.775427 279.776191 
L 226.86854 277.699537 
L 227.961653 275.104064 
L 229.054766 272.128233 
L 231.240992 263.66631 
L 232.334105 257.948988 
L 234.520331 244.260082 
L 235.613444 234.732326 
L 236.706556 226.80202 
L 237.799669 225.463766 
L 238.892782 225.106125 
L 239.985895 225.081442 
L 241.079008 225.324877 
L 243.265234 226.182831 
L 247.637686 226.599272 
L 249.823912 226.360775 
L 252.010138 226.272843 
L 253.103251 226.021103 
L 254.196364 225.530722 
L 255.289477 225.384209 
L 256.38259 225.08271 
L 257.475702 225.070818 
L 258.568815 224.798682 
L 259.661928 224.97214 
L 261.848154 224.951865 
L 265.127493 225.421947 
L 266.220606 225.755206 
L 268.406832 233.724824 
L 269.499945 236.091436 
L 271.686171 237.231213 
L 272.779284 237.651684 
L 273.872397 235.560474 
L 274.96551 232.891072 
L 276.058623 232.238528 
L 277.151736 233.461633 
L 278.244848 237.01624 
L 279.337961 241.198514 
L 280.431074 246.867502 
L 281.524187 250.600107 
L 282.6173 255.847287 
L 284.803526 260.660619 
L 286.989752 267.974079 
L 288.082865 269.785226 
L 289.175978 272.140206 
L 290.269091 276.778946 
L 291.362204 278.806479 
L 292.455317 280.182796 
L 293.54843 281.020727 
L 294.641543 281.140199 
L 295.734656 279.716479 
L 296.827769 277.58345 
L 299.013994 271.534786 
L 300.107107 267.804968 
L 301.20022 262.679701 
L 302.293333 254.193458 
L 303.386446 243.207569 
L 304.479559 233.560491 
L 305.572672 227.221989 
L 306.665785 225.199344 
L 308.852011 224.876085 
L 309.945124 225.047645 
L 311.038237 226.316668 
L 312.13135 227.397364 
L 314.317576 228.543081 
L 315.410689 229.264259 
L 316.503802 229.535275 
L 317.596915 229.416125 
L 318.690028 229.17017 
L 320.876253 228.231703 
L 321.969366 227.729427 
L 324.155592 227.097189 
L 325.248705 226.647975 
L 326.341818 226.67083 
L 327.434931 226.889312 
L 329.621157 226.923953 
L 330.71427 226.774534 
L 332.900496 225.428002 
L 335.086722 224.788234 
L 337.272948 225.341541 
L 339.459174 226.743965 
L 340.552287 228.591224 
L 341.645399 235.345104 
L 342.738512 245.755967 
L 343.831625 249.197362 
L 344.924738 255.206425 
L 346.017851 264.628604 
L 347.110964 268.887274 
L 348.204077 270.554217 
L 349.29719 271.243621 
L 351.483416 275.426533 
L 352.576529 275.682524 
L 353.669642 275.598089 
L 354.762755 275.640915 
L 355.855868 276.138895 
L 356.948981 275.846986 
L 358.042094 274.74784 
L 359.135207 274.459538 
L 360.22832 274.632978 
L 361.321433 275.374736 
L 363.507658 278.138801 
L 364.600771 279.722601 
L 366.786997 281.792151 
L 368.973223 283.105692 
L 370.066336 283.284756 
L 371.159449 283.299205 
L 372.252562 282.666671 
L 373.345675 281.667695 
L 374.438788 280.329709 
L 377.718127 272.359962 
L 378.81124 268.843654 
L 379.904353 264.03943 
L 380.997466 257.665844 
L 382.090579 253.136069 
L 383.183691 247.405508 
L 385.369917 232.598085 
L 386.46303 227.968134 
L 387.556143 226.421742 
L 388.649256 225.499961 
L 390.835482 225.229564 
L 391.928595 225.13377 
L 393.021708 225.269937 
L 395.207934 225.337287 
L 396.301047 225.427013 
L 397.39416 225.335128 
L 398.487273 225.517552 
L 398.487273 225.517552 
" style="fill:none;stroke:#2ca02c;stroke-linecap:square;stroke-width:1.5;"/>
   </g>
   <g id="line2d_16">
    <path clip-path="url(#pb8a03fe062)" d="M 73.832727 181.452939 
L 74.92584 181.114765 
L 76.018953 180.923674 
L 77.112066 181.054993 
L 78.205179 181.500434 
L 80.391405 184.171056 
L 81.484518 185.698979 
L 82.577631 188.337088 
L 84.763857 192.230803 
L 85.85697 189.295665 
L 89.136309 121.691208 
L 90.229421 113.612243 
L 91.322534 110.566905 
L 92.415647 94.677025 
L 93.50876 84.403149 
L 94.601873 85.017891 
L 95.694986 83.53313 
L 96.788099 80.390403 
L 97.881212 81.689846 
L 98.974325 86.455533 
L 100.067438 92.616477 
L 101.160551 93.439026 
L 102.253664 97.478929 
L 103.346777 102.13259 
L 106.626116 118.443332 
L 107.719229 125.445332 
L 108.812342 139.39818 
L 109.905455 147.673702 
L 110.998567 139.863585 
L 112.09168 139.272381 
L 113.184793 143.389834 
L 114.277906 146.785284 
L 115.371019 147.018066 
L 116.464132 152.266625 
L 117.557245 166.853026 
L 118.650358 179.633122 
L 119.743471 186.067576 
L 120.836584 190.583666 
L 121.929697 191.802916 
L 123.02281 192.343768 
L 124.115923 192.61408 
L 125.209036 192.22032 
L 126.302149 191.974582 
L 127.395262 191.608462 
L 129.581488 189.296469 
L 130.674601 188.814105 
L 131.767713 188.751951 
L 132.860826 188.319083 
L 135.047052 186.69584 
L 136.140165 186.138095 
L 137.233278 184.918749 
L 138.326391 183.24959 
L 139.419504 182.74976 
L 140.512617 183.175073 
L 142.698843 183.616927 
L 145.978182 185.738123 
L 148.164408 189.625533 
L 149.257521 190.590922 
L 150.350634 191.246702 
L 151.443747 192.046951 
L 152.53686 192.527968 
L 153.629972 192.547541 
L 154.723085 192.396555 
L 155.816198 191.821042 
L 156.909311 190.147135 
L 158.002424 186.638515 
L 159.095537 183.960835 
L 160.18865 182.894442 
L 161.281763 181.165653 
L 162.374876 165.986148 
L 163.467989 134.032163 
L 164.561102 116.960389 
L 165.654215 104.814022 
L 166.747328 98.843293 
L 167.840441 92.038818 
L 168.933554 90.472524 
L 170.026667 97.056774 
L 171.11978 96.462308 
L 172.212893 94.514635 
L 173.306006 96.169253 
L 174.399118 100.774114 
L 175.492231 106.006495 
L 177.678457 119.770507 
L 178.77157 130.527343 
L 179.864683 142.912116 
L 180.957796 152.295582 
L 182.050909 159.288362 
L 184.237135 170.232918 
L 185.330248 176.746284 
L 187.516474 177.032679 
L 188.609587 178.165865 
L 189.7027 180.43734 
L 190.795813 182.030909 
L 191.888926 183.846195 
L 192.982039 186.17891 
L 194.075152 187.137829 
L 195.168264 188.529127 
L 197.35449 190.480366 
L 198.447603 191.011827 
L 199.540716 192.061919 
L 200.633829 192.405298 
L 202.820055 192.817917 
L 205.006281 192.049039 
L 207.192507 190.508216 
L 208.28562 189.470533 
L 209.378733 188.224631 
L 210.471846 187.441451 
L 211.564959 187.130039 
L 212.658072 186.53094 
L 213.751185 185.500292 
L 215.93741 182.807255 
L 218.123636 180.190211 
L 219.216749 179.254967 
L 220.309862 178.759154 
L 221.402975 178.744297 
L 223.589201 179.179685 
L 224.682314 179.666553 
L 225.775427 180.299943 
L 226.86854 181.398534 
L 227.961653 182.968562 
L 229.054766 184.966563 
L 230.147879 187.264395 
L 231.240992 189.111264 
L 232.334105 190.697139 
L 233.427218 191.700063 
L 234.520331 192.366636 
L 235.613444 192.497406 
L 236.706556 191.404213 
L 237.799669 185.080259 
L 241.079008 144.97494 
L 242.172121 136.412653 
L 243.265234 130.821904 
L 244.358347 128.46683 
L 245.45146 128.108838 
L 246.544573 126.471452 
L 247.637686 124.042295 
L 248.730799 124.716904 
L 249.823912 126.743697 
L 250.917025 127.471929 
L 252.010138 128.546227 
L 253.103251 130.646562 
L 258.568815 165.419204 
L 259.661928 174.583655 
L 260.755041 176.978125 
L 262.941267 185.604215 
L 264.03438 188.378618 
L 265.127493 189.242786 
L 266.220606 189.746898 
L 268.406832 192.325219 
L 271.686171 192.671906 
L 272.779284 192.388682 
L 273.872397 192.669434 
L 274.96551 192.462121 
L 277.151736 192.603127 
L 278.244848 192.550832 
L 279.337961 192.642219 
L 281.524187 191.797438 
L 282.6173 190.949044 
L 285.896639 188.970094 
L 289.175978 185.805508 
L 291.362204 182.098736 
L 292.455317 180.954164 
L 293.54843 180.105988 
L 294.641543 179.794703 
L 295.734656 180.172442 
L 296.827769 181.457032 
L 297.920882 183.218575 
L 302.293333 191.397074 
L 303.386446 192.501999 
L 304.479559 192.377788 
L 305.572672 188.268574 
L 306.665785 177.786221 
L 307.758898 173.601545 
L 308.852011 166.869946 
L 309.945124 149.371193 
L 311.038237 118.243228 
L 314.317576 87.468307 
L 315.410689 83.653453 
L 316.503802 84.477198 
L 317.596915 85.596821 
L 318.690028 89.431658 
L 320.876253 99.934711 
L 321.969366 105.37268 
L 323.062479 109.477595 
L 324.155592 114.206899 
L 325.248705 120.613961 
L 326.341818 121.958348 
L 327.434931 120.014131 
L 328.528044 118.308299 
L 329.621157 118.283257 
L 330.71427 119.806427 
L 331.807383 126.236806 
L 332.900496 138.399419 
L 333.993609 151.88706 
L 335.086722 168.790215 
L 336.179835 182.097608 
L 337.272948 188.66695 
L 338.366061 191.099134 
L 339.459174 191.56244 
L 340.552287 191.776522 
L 341.645399 192.523338 
L 342.738512 192.397617 
L 343.831625 191.903486 
L 344.924738 191.215868 
L 347.110964 187.75519 
L 348.204077 186.503572 
L 350.390303 185.166649 
L 351.483416 183.988621 
L 352.576529 183.196098 
L 353.669642 183.103061 
L 354.762755 183.146835 
L 355.855868 182.959746 
L 356.948981 182.967571 
L 359.135207 183.926866 
L 361.321433 183.559848 
L 362.414545 182.960914 
L 367.88011 179.051176 
L 368.973223 178.568335 
L 370.066336 178.341933 
L 371.159449 178.267974 
L 372.252562 178.532346 
L 373.345675 179.060184 
L 374.438788 179.847001 
L 375.531901 181.364934 
L 377.718127 184.846063 
L 379.904353 189.09976 
L 380.997466 190.594745 
L 383.183691 192.240022 
L 385.369917 192.634571 
L 386.46303 191.740678 
L 387.556143 191.51491 
L 388.649256 190.501273 
L 390.835482 186.357046 
L 391.928595 187.308943 
L 393.021708 188.945969 
L 394.114821 188.29751 
L 395.207934 188.013477 
L 397.39416 190.112596 
L 398.487273 189.656854 
L 398.487273 189.656854 
" style="fill:none;stroke:#d62728;stroke-linecap:square;stroke-width:1.5;"/>
   </g>
   <g id="patch_3">
    <path d="M 57.6 307.584 
L 57.6 41.472 
" style="fill:none;stroke:#000000;stroke-linecap:square;stroke-linejoin:miter;stroke-width:0.8;"/>
   </g>
   <g id="patch_4">
    <path d="M 414.72 307.584 
L 414.72 41.472 
" style="fill:none;stroke:#000000;stroke-linecap:square;stroke-linejoin:miter;stroke-width:0.8;"/>
   </g>
   <g id="patch_5">
    <path d="M 57.6 307.584 
L 414.72 307.584 
" style="fill:none;stroke:#000000;stroke-linecap:square;stroke-linejoin:miter;stroke-width:0.8;"/>
   </g>
   <g id="patch_6">
    <path d="M 57.6 41.472 
L 414.72 41.472 
" style="fill:none;stroke:#000000;stroke-linecap:square;stroke-linejoin:miter;stroke-width:0.8;"/>
   </g>
   <g id="text_13">
    <!-- Plot of Train Data vs MCMC Uncertainty  -->
    <defs>
     <path d="M 19.671875 64.796875 
L 19.671875 37.40625 
L 32.078125 37.40625 
Q 38.96875 37.40625 42.71875 40.96875 
Q 46.484375 44.53125 46.484375 51.125 
Q 46.484375 57.671875 42.71875 61.234375 
Q 38.96875 64.796875 32.078125 64.796875 
z
M 9.8125 72.90625 
L 32.078125 72.90625 
Q 44.34375 72.90625 50.609375 67.359375 
Q 56.890625 61.8125 56.890625 51.125 
Q 56.890625 40.328125 50.609375 34.8125 
Q 44.34375 29.296875 32.078125 29.296875 
L 19.671875 29.296875 
L 19.671875 0 
L 9.8125 0 
z
" id="DejaVuSans-50"/>
     <path d="M 9.421875 75.984375 
L 18.40625 75.984375 
L 18.40625 0 
L 9.421875 0 
z
" id="DejaVuSans-6c"/>
     <path d="M 30.609375 48.390625 
Q 23.390625 48.390625 19.1875 42.75 
Q 14.984375 37.109375 14.984375 27.296875 
Q 14.984375 17.484375 19.15625 11.84375 
Q 23.34375 6.203125 30.609375 6.203125 
Q 37.796875 6.203125 41.984375 11.859375 
Q 46.1875 17.53125 46.1875 27.296875 
Q 46.1875 37.015625 41.984375 42.703125 
Q 37.796875 48.390625 30.609375 48.390625 
z
M 30.609375 56 
Q 42.328125 56 49.015625 48.375 
Q 55.71875 40.765625 55.71875 27.296875 
Q 55.71875 13.875 49.015625 6.21875 
Q 42.328125 -1.421875 30.609375 -1.421875 
Q 18.84375 -1.421875 12.171875 6.21875 
Q 5.515625 13.875 5.515625 27.296875 
Q 5.515625 40.765625 12.171875 48.375 
Q 18.84375 56 30.609375 56 
z
" id="DejaVuSans-6f"/>
     <path d="M 18.3125 70.21875 
L 18.3125 54.6875 
L 36.8125 54.6875 
L 36.8125 47.703125 
L 18.3125 47.703125 
L 18.3125 18.015625 
Q 18.3125 11.328125 20.140625 9.421875 
Q 21.96875 7.515625 27.59375 7.515625 
L 36.8125 7.515625 
L 36.8125 0 
L 27.59375 0 
Q 17.1875 0 13.234375 3.875 
Q 9.28125 7.765625 9.28125 18.015625 
L 9.28125 47.703125 
L 2.6875 47.703125 
L 2.6875 54.6875 
L 9.28125 54.6875 
L 9.28125 70.21875 
z
" id="DejaVuSans-74"/>
     <path id="DejaVuSans-20"/>
     <path d="M 37.109375 75.984375 
L 37.109375 68.5 
L 28.515625 68.5 
Q 23.6875 68.5 21.796875 66.546875 
Q 19.921875 64.59375 19.921875 59.515625 
L 19.921875 54.6875 
L 34.71875 54.6875 
L 34.71875 47.703125 
L 19.921875 47.703125 
L 19.921875 0 
L 10.890625 0 
L 10.890625 47.703125 
L 2.296875 47.703125 
L 2.296875 54.6875 
L 10.890625 54.6875 
L 10.890625 58.5 
Q 10.890625 67.625 15.140625 71.796875 
Q 19.390625 75.984375 28.609375 75.984375 
z
" id="DejaVuSans-66"/>
     <path d="M -0.296875 72.90625 
L 61.375 72.90625 
L 61.375 64.59375 
L 35.5 64.59375 
L 35.5 0 
L 25.59375 0 
L 25.59375 64.59375 
L -0.296875 64.59375 
z
" id="DejaVuSans-54"/>
     <path d="M 41.109375 46.296875 
Q 39.59375 47.171875 37.8125 47.578125 
Q 36.03125 48 33.890625 48 
Q 26.265625 48 22.1875 43.046875 
Q 18.109375 38.09375 18.109375 28.8125 
L 18.109375 0 
L 9.078125 0 
L 9.078125 54.6875 
L 18.109375 54.6875 
L 18.109375 46.1875 
Q 20.953125 51.171875 25.484375 53.578125 
Q 30.03125 56 36.53125 56 
Q 37.453125 56 38.578125 55.875 
Q 39.703125 55.765625 41.0625 55.515625 
z
" id="DejaVuSans-72"/>
     <path d="M 34.28125 27.484375 
Q 23.390625 27.484375 19.1875 25 
Q 14.984375 22.515625 14.984375 16.5 
Q 14.984375 11.71875 18.140625 8.90625 
Q 21.296875 6.109375 26.703125 6.109375 
Q 34.1875 6.109375 38.703125 11.40625 
Q 43.21875 16.703125 43.21875 25.484375 
L 43.21875 27.484375 
z
M 52.203125 31.203125 
L 52.203125 0 
L 43.21875 0 
L 43.21875 8.296875 
Q 40.140625 3.328125 35.546875 0.953125 
Q 30.953125 -1.421875 24.3125 -1.421875 
Q 15.921875 -1.421875 10.953125 3.296875 
Q 6 8.015625 6 15.921875 
Q 6 25.140625 12.171875 29.828125 
Q 18.359375 34.515625 30.609375 34.515625 
L 43.21875 34.515625 
L 43.21875 35.40625 
Q 43.21875 41.609375 39.140625 45 
Q 35.0625 48.390625 27.6875 48.390625 
Q 23 48.390625 18.546875 47.265625 
Q 14.109375 46.140625 10.015625 43.890625 
L 10.015625 52.203125 
Q 14.9375 54.109375 19.578125 55.046875 
Q 24.21875 56 28.609375 56 
Q 40.484375 56 46.34375 49.84375 
Q 52.203125 43.703125 52.203125 31.203125 
z
" id="DejaVuSans-61"/>
     <path d="M 9.421875 54.6875 
L 18.40625 54.6875 
L 18.40625 0 
L 9.421875 0 
z
M 9.421875 75.984375 
L 18.40625 75.984375 
L 18.40625 64.59375 
L 9.421875 64.59375 
z
" id="DejaVuSans-69"/>
     <path d="M 54.890625 33.015625 
L 54.890625 0 
L 45.90625 0 
L 45.90625 32.71875 
Q 45.90625 40.484375 42.875 44.328125 
Q 39.84375 48.1875 33.796875 48.1875 
Q 26.515625 48.1875 22.3125 43.546875 
Q 18.109375 38.921875 18.109375 30.90625 
L 18.109375 0 
L 9.078125 0 
L 9.078125 54.6875 
L 18.109375 54.6875 
L 18.109375 46.1875 
Q 21.34375 51.125 25.703125 53.5625 
Q 30.078125 56 35.796875 56 
Q 45.21875 56 50.046875 50.171875 
Q 54.890625 44.34375 54.890625 33.015625 
z
" id="DejaVuSans-6e"/>
     <path d="M 19.671875 64.796875 
L 19.671875 8.109375 
L 31.59375 8.109375 
Q 46.6875 8.109375 53.6875 14.9375 
Q 60.6875 21.78125 60.6875 36.53125 
Q 60.6875 51.171875 53.6875 57.984375 
Q 46.6875 64.796875 31.59375 64.796875 
z
M 9.8125 72.90625 
L 30.078125 72.90625 
Q 51.265625 72.90625 61.171875 64.09375 
Q 71.09375 55.28125 71.09375 36.53125 
Q 71.09375 17.671875 61.125 8.828125 
Q 51.171875 0 30.078125 0 
L 9.8125 0 
z
" id="DejaVuSans-44"/>
     <path d="M 2.984375 54.6875 
L 12.5 54.6875 
L 29.59375 8.796875 
L 46.6875 54.6875 
L 56.203125 54.6875 
L 35.6875 0 
L 23.484375 0 
z
" id="DejaVuSans-76"/>
     <path d="M 44.28125 53.078125 
L 44.28125 44.578125 
Q 40.484375 46.53125 36.375 47.5 
Q 32.28125 48.484375 27.875 48.484375 
Q 21.1875 48.484375 17.84375 46.4375 
Q 14.5 44.390625 14.5 40.28125 
Q 14.5 37.15625 16.890625 35.375 
Q 19.28125 33.59375 26.515625 31.984375 
L 29.59375 31.296875 
Q 39.15625 29.25 43.1875 25.515625 
Q 47.21875 21.78125 47.21875 15.09375 
Q 47.21875 7.46875 41.1875 3.015625 
Q 35.15625 -1.421875 24.609375 -1.421875 
Q 20.21875 -1.421875 15.453125 -0.5625 
Q 10.6875 0.296875 5.421875 2 
L 5.421875 11.28125 
Q 10.40625 8.6875 15.234375 7.390625 
Q 20.0625 6.109375 24.8125 6.109375 
Q 31.15625 6.109375 34.5625 8.28125 
Q 37.984375 10.453125 37.984375 14.40625 
Q 37.984375 18.0625 35.515625 20.015625 
Q 33.0625 21.96875 24.703125 23.78125 
L 21.578125 24.515625 
Q 13.234375 26.265625 9.515625 29.90625 
Q 5.8125 33.546875 5.8125 39.890625 
Q 5.8125 47.609375 11.28125 51.796875 
Q 16.75 56 26.8125 56 
Q 31.78125 56 36.171875 55.265625 
Q 40.578125 54.546875 44.28125 53.078125 
z
" id="DejaVuSans-73"/>
     <path d="M 9.8125 72.90625 
L 24.515625 72.90625 
L 43.109375 23.296875 
L 61.8125 72.90625 
L 76.515625 72.90625 
L 76.515625 0 
L 66.890625 0 
L 66.890625 64.015625 
L 48.09375 14.015625 
L 38.1875 14.015625 
L 19.390625 64.015625 
L 19.390625 0 
L 9.8125 0 
z
" id="DejaVuSans-4d"/>
     <path d="M 64.40625 67.28125 
L 64.40625 56.890625 
Q 59.421875 61.53125 53.78125 63.8125 
Q 48.140625 66.109375 41.796875 66.109375 
Q 29.296875 66.109375 22.65625 58.46875 
Q 16.015625 50.828125 16.015625 36.375 
Q 16.015625 21.96875 22.65625 14.328125 
Q 29.296875 6.6875 41.796875 6.6875 
Q 48.140625 6.6875 53.78125 8.984375 
Q 59.421875 11.28125 64.40625 15.921875 
L 64.40625 5.609375 
Q 59.234375 2.09375 53.4375 0.328125 
Q 47.65625 -1.421875 41.21875 -1.421875 
Q 24.65625 -1.421875 15.125 8.703125 
Q 5.609375 18.84375 5.609375 36.375 
Q 5.609375 53.953125 15.125 64.078125 
Q 24.65625 74.21875 41.21875 74.21875 
Q 47.75 74.21875 53.53125 72.484375 
Q 59.328125 70.75 64.40625 67.28125 
z
" id="DejaVuSans-43"/>
     <path d="M 8.6875 72.90625 
L 18.609375 72.90625 
L 18.609375 28.609375 
Q 18.609375 16.890625 22.84375 11.734375 
Q 27.09375 6.59375 36.625 6.59375 
Q 46.09375 6.59375 50.34375 11.734375 
Q 54.59375 16.890625 54.59375 28.609375 
L 54.59375 72.90625 
L 64.5 72.90625 
L 64.5 27.390625 
Q 64.5 13.140625 57.4375 5.859375 
Q 50.390625 -1.421875 36.625 -1.421875 
Q 22.796875 -1.421875 15.734375 5.859375 
Q 8.6875 13.140625 8.6875 27.390625 
z
" id="DejaVuSans-55"/>
     <path d="M 48.78125 52.59375 
L 48.78125 44.1875 
Q 44.96875 46.296875 41.140625 47.34375 
Q 37.3125 48.390625 33.40625 48.390625 
Q 24.65625 48.390625 19.8125 42.84375 
Q 14.984375 37.3125 14.984375 27.296875 
Q 14.984375 17.28125 19.8125 11.734375 
Q 24.65625 6.203125 33.40625 6.203125 
Q 37.3125 6.203125 41.140625 7.25 
Q 44.96875 8.296875 48.78125 10.40625 
L 48.78125 2.09375 
Q 45.015625 0.34375 40.984375 -0.53125 
Q 36.96875 -1.421875 32.421875 -1.421875 
Q 20.0625 -1.421875 12.78125 6.34375 
Q 5.515625 14.109375 5.515625 27.296875 
Q 5.515625 40.671875 12.859375 48.328125 
Q 20.21875 56 33.015625 56 
Q 37.15625 56 41.109375 55.140625 
Q 45.0625 54.296875 48.78125 52.59375 
z
" id="DejaVuSans-63"/>
     <path d="M 56.203125 29.59375 
L 56.203125 25.203125 
L 14.890625 25.203125 
Q 15.484375 15.921875 20.484375 11.0625 
Q 25.484375 6.203125 34.421875 6.203125 
Q 39.59375 6.203125 44.453125 7.46875 
Q 49.3125 8.734375 54.109375 11.28125 
L 54.109375 2.78125 
Q 49.265625 0.734375 44.1875 -0.34375 
Q 39.109375 -1.421875 33.890625 -1.421875 
Q 20.796875 -1.421875 13.15625 6.1875 
Q 5.515625 13.8125 5.515625 26.8125 
Q 5.515625 40.234375 12.765625 48.109375 
Q 20.015625 56 32.328125 56 
Q 43.359375 56 49.78125 48.890625 
Q 56.203125 41.796875 56.203125 29.59375 
z
M 47.21875 32.234375 
Q 47.125 39.59375 43.09375 43.984375 
Q 39.0625 48.390625 32.421875 48.390625 
Q 24.90625 48.390625 20.390625 44.140625 
Q 15.875 39.890625 15.1875 32.171875 
z
" id="DejaVuSans-65"/>
     <path d="M 32.171875 -5.078125 
Q 28.375 -14.84375 24.75 -17.8125 
Q 21.140625 -20.796875 15.09375 -20.796875 
L 7.90625 -20.796875 
L 7.90625 -13.28125 
L 13.1875 -13.28125 
Q 16.890625 -13.28125 18.9375 -11.515625 
Q 21 -9.765625 23.484375 -3.21875 
L 25.09375 0.875 
L 2.984375 54.6875 
L 12.5 54.6875 
L 29.59375 11.921875 
L 46.6875 54.6875 
L 56.203125 54.6875 
z
" id="DejaVuSans-79"/>
    </defs>
    <g transform="translate(115.666875 35.472)scale(0.12 -0.12)">
     <use xlink:href="#DejaVuSans-50"/>
     <use x="60.302734" xlink:href="#DejaVuSans-6c"/>
     <use x="88.085938" xlink:href="#DejaVuSans-6f"/>
     <use x="149.267578" xlink:href="#DejaVuSans-74"/>
     <use x="188.476562" xlink:href="#DejaVuSans-20"/>
     <use x="220.263672" xlink:href="#DejaVuSans-6f"/>
     <use x="281.445312" xlink:href="#DejaVuSans-66"/>
     <use x="316.650391" xlink:href="#DejaVuSans-20"/>
     <use x="348.4375" xlink:href="#DejaVuSans-54"/>
     <use x="409.302734" xlink:href="#DejaVuSans-72"/>
     <use x="450.416016" xlink:href="#DejaVuSans-61"/>
     <use x="511.695312" xlink:href="#DejaVuSans-69"/>
     <use x="539.478516" xlink:href="#DejaVuSans-6e"/>
     <use x="602.857422" xlink:href="#DejaVuSans-20"/>
     <use x="634.644531" xlink:href="#DejaVuSans-44"/>
     <use x="711.646484" xlink:href="#DejaVuSans-61"/>
     <use x="772.925781" xlink:href="#DejaVuSans-74"/>
     <use x="812.134766" xlink:href="#DejaVuSans-61"/>
     <use x="873.414062" xlink:href="#DejaVuSans-20"/>
     <use x="905.201172" xlink:href="#DejaVuSans-76"/>
     <use x="964.380859" xlink:href="#DejaVuSans-73"/>
     <use x="1016.480469" xlink:href="#DejaVuSans-20"/>
     <use x="1048.267578" xlink:href="#DejaVuSans-4d"/>
     <use x="1134.546875" xlink:href="#DejaVuSans-43"/>
     <use x="1204.371094" xlink:href="#DejaVuSans-4d"/>
     <use x="1290.650391" xlink:href="#DejaVuSans-43"/>
     <use x="1360.474609" xlink:href="#DejaVuSans-20"/>
     <use x="1392.261719" xlink:href="#DejaVuSans-55"/>
     <use x="1465.455078" xlink:href="#DejaVuSans-6e"/>
     <use x="1528.833984" xlink:href="#DejaVuSans-63"/>
     <use x="1583.814453" xlink:href="#DejaVuSans-65"/>
     <use x="1645.337891" xlink:href="#DejaVuSans-72"/>
     <use x="1686.451172" xlink:href="#DejaVuSans-74"/>
     <use x="1725.660156" xlink:href="#DejaVuSans-61"/>
     <use x="1786.939453" xlink:href="#DejaVuSans-69"/>
     <use x="1814.722656" xlink:href="#DejaVuSans-6e"/>
     <use x="1878.101562" xlink:href="#DejaVuSans-74"/>
     <use x="1917.310547" xlink:href="#DejaVuSans-79"/>
     <use x="1976.490234" xlink:href="#DejaVuSans-20"/>
    </g>
   </g>
   <g id="legend_1">
    <g id="patch_7">
     <path d="M 277.843437 108.1845 
L 407.72 108.1845 
Q 409.72 108.1845 409.72 106.1845 
L 409.72 48.472 
Q 409.72 46.472 407.72 46.472 
L 277.843437 46.472 
Q 275.843437 46.472 275.843437 48.472 
L 275.843437 106.1845 
Q 275.843437 108.1845 277.843437 108.1845 
z
" style="fill:#ffffff;opacity:0.8;stroke:#cccccc;stroke-linejoin:miter;"/>
    </g>
    <g id="line2d_17">
     <path d="M 279.843437 54.570438 
L 299.843437 54.570438 
" style="fill:none;stroke:#1f77b4;stroke-linecap:square;stroke-width:1.5;"/>
    </g>
    <g id="line2d_18"/>
    <g id="text_14">
     <!-- actual -->
     <defs>
      <path d="M 8.5 21.578125 
L 8.5 54.6875 
L 17.484375 54.6875 
L 17.484375 21.921875 
Q 17.484375 14.15625 20.5 10.265625 
Q 23.53125 6.390625 29.59375 6.390625 
Q 36.859375 6.390625 41.078125 11.03125 
Q 45.3125 15.671875 45.3125 23.6875 
L 45.3125 54.6875 
L 54.296875 54.6875 
L 54.296875 0 
L 45.3125 0 
L 45.3125 8.40625 
Q 42.046875 3.421875 37.71875 1 
Q 33.40625 -1.421875 27.6875 -1.421875 
Q 18.265625 -1.421875 13.375 4.4375 
Q 8.5 10.296875 8.5 21.578125 
z
M 31.109375 56 
z
" id="DejaVuSans-75"/>
     </defs>
     <g transform="translate(307.843437 58.070438)scale(0.1 -0.1)">
      <use xlink:href="#DejaVuSans-61"/>
      <use x="61.279297" xlink:href="#DejaVuSans-63"/>
      <use x="116.259766" xlink:href="#DejaVuSans-74"/>
      <use x="155.46875" xlink:href="#DejaVuSans-75"/>
      <use x="218.847656" xlink:href="#DejaVuSans-61"/>
      <use x="280.126953" xlink:href="#DejaVuSans-6c"/>
     </g>
    </g>
    <g id="line2d_19">
     <path d="M 279.843437 69.248563 
L 299.843437 69.248563 
" style="fill:none;stroke:#ff7f0e;stroke-linecap:square;stroke-width:1.5;"/>
    </g>
    <g id="line2d_20"/>
    <g id="text_15">
     <!-- pred. (mean) -->
     <defs>
      <path d="M 18.109375 8.203125 
L 18.109375 -20.796875 
L 9.078125 -20.796875 
L 9.078125 54.6875 
L 18.109375 54.6875 
L 18.109375 46.390625 
Q 20.953125 51.265625 25.265625 53.625 
Q 29.59375 56 35.59375 56 
Q 45.5625 56 51.78125 48.09375 
Q 58.015625 40.1875 58.015625 27.296875 
Q 58.015625 14.40625 51.78125 6.484375 
Q 45.5625 -1.421875 35.59375 -1.421875 
Q 29.59375 -1.421875 25.265625 0.953125 
Q 20.953125 3.328125 18.109375 8.203125 
z
M 48.6875 27.296875 
Q 48.6875 37.203125 44.609375 42.84375 
Q 40.53125 48.484375 33.40625 48.484375 
Q 26.265625 48.484375 22.1875 42.84375 
Q 18.109375 37.203125 18.109375 27.296875 
Q 18.109375 17.390625 22.1875 11.75 
Q 26.265625 6.109375 33.40625 6.109375 
Q 40.53125 6.109375 44.609375 11.75 
Q 48.6875 17.390625 48.6875 27.296875 
z
" id="DejaVuSans-70"/>
      <path d="M 45.40625 46.390625 
L 45.40625 75.984375 
L 54.390625 75.984375 
L 54.390625 0 
L 45.40625 0 
L 45.40625 8.203125 
Q 42.578125 3.328125 38.25 0.953125 
Q 33.9375 -1.421875 27.875 -1.421875 
Q 17.96875 -1.421875 11.734375 6.484375 
Q 5.515625 14.40625 5.515625 27.296875 
Q 5.515625 40.1875 11.734375 48.09375 
Q 17.96875 56 27.875 56 
Q 33.9375 56 38.25 53.625 
Q 42.578125 51.265625 45.40625 46.390625 
z
M 14.796875 27.296875 
Q 14.796875 17.390625 18.875 11.75 
Q 22.953125 6.109375 30.078125 6.109375 
Q 37.203125 6.109375 41.296875 11.75 
Q 45.40625 17.390625 45.40625 27.296875 
Q 45.40625 37.203125 41.296875 42.84375 
Q 37.203125 48.484375 30.078125 48.484375 
Q 22.953125 48.484375 18.875 42.84375 
Q 14.796875 37.203125 14.796875 27.296875 
z
" id="DejaVuSans-64"/>
      <path d="M 31 75.875 
Q 24.46875 64.65625 21.28125 53.65625 
Q 18.109375 42.671875 18.109375 31.390625 
Q 18.109375 20.125 21.3125 9.0625 
Q 24.515625 -2 31 -13.1875 
L 23.1875 -13.1875 
Q 15.875 -1.703125 12.234375 9.375 
Q 8.59375 20.453125 8.59375 31.390625 
Q 8.59375 42.28125 12.203125 53.3125 
Q 15.828125 64.359375 23.1875 75.875 
z
" id="DejaVuSans-28"/>
      <path d="M 52 44.1875 
Q 55.375 50.25 60.0625 53.125 
Q 64.75 56 71.09375 56 
Q 79.640625 56 84.28125 50.015625 
Q 88.921875 44.046875 88.921875 33.015625 
L 88.921875 0 
L 79.890625 0 
L 79.890625 32.71875 
Q 79.890625 40.578125 77.09375 44.375 
Q 74.3125 48.1875 68.609375 48.1875 
Q 61.625 48.1875 57.5625 43.546875 
Q 53.515625 38.921875 53.515625 30.90625 
L 53.515625 0 
L 44.484375 0 
L 44.484375 32.71875 
Q 44.484375 40.625 41.703125 44.40625 
Q 38.921875 48.1875 33.109375 48.1875 
Q 26.21875 48.1875 22.15625 43.53125 
Q 18.109375 38.875 18.109375 30.90625 
L 18.109375 0 
L 9.078125 0 
L 9.078125 54.6875 
L 18.109375 54.6875 
L 18.109375 46.1875 
Q 21.1875 51.21875 25.484375 53.609375 
Q 29.78125 56 35.6875 56 
Q 41.65625 56 45.828125 52.96875 
Q 50 49.953125 52 44.1875 
z
" id="DejaVuSans-6d"/>
      <path d="M 8.015625 75.875 
L 15.828125 75.875 
Q 23.140625 64.359375 26.78125 53.3125 
Q 30.421875 42.28125 30.421875 31.390625 
Q 30.421875 20.453125 26.78125 9.375 
Q 23.140625 -1.703125 15.828125 -13.1875 
L 8.015625 -13.1875 
Q 14.5 -2 17.703125 9.0625 
Q 20.90625 20.125 20.90625 31.390625 
Q 20.90625 42.671875 17.703125 53.65625 
Q 14.5 64.65625 8.015625 75.875 
z
" id="DejaVuSans-29"/>
     </defs>
     <g transform="translate(307.843437 72.748563)scale(0.1 -0.1)">
      <use xlink:href="#DejaVuSans-70"/>
      <use x="63.476562" xlink:href="#DejaVuSans-72"/>
      <use x="104.558594" xlink:href="#DejaVuSans-65"/>
      <use x="166.082031" xlink:href="#DejaVuSans-64"/>
      <use x="229.558594" xlink:href="#DejaVuSans-2e"/>
      <use x="261.345703" xlink:href="#DejaVuSans-20"/>
      <use x="293.132812" xlink:href="#DejaVuSans-28"/>
      <use x="332.146484" xlink:href="#DejaVuSans-6d"/>
      <use x="429.558594" xlink:href="#DejaVuSans-65"/>
      <use x="491.082031" xlink:href="#DejaVuSans-61"/>
      <use x="552.361328" xlink:href="#DejaVuSans-6e"/>
      <use x="615.740234" xlink:href="#DejaVuSans-29"/>
     </g>
    </g>
    <g id="line2d_21">
     <path d="M 279.843437 83.926688 
L 299.843437 83.926688 
" style="fill:none;stroke:#2ca02c;stroke-linecap:square;stroke-width:1.5;"/>
    </g>
    <g id="line2d_22"/>
    <g id="text_16">
     <!-- pred.(5th percen.) -->
     <defs>
      <path d="M 10.796875 72.90625 
L 49.515625 72.90625 
L 49.515625 64.59375 
L 19.828125 64.59375 
L 19.828125 46.734375 
Q 21.96875 47.46875 24.109375 47.828125 
Q 26.265625 48.1875 28.421875 48.1875 
Q 40.625 48.1875 47.75 41.5 
Q 54.890625 34.8125 54.890625 23.390625 
Q 54.890625 11.625 47.5625 5.09375 
Q 40.234375 -1.421875 26.90625 -1.421875 
Q 22.3125 -1.421875 17.546875 -0.640625 
Q 12.796875 0.140625 7.71875 1.703125 
L 7.71875 11.625 
Q 12.109375 9.234375 16.796875 8.0625 
Q 21.484375 6.890625 26.703125 6.890625 
Q 35.15625 6.890625 40.078125 11.328125 
Q 45.015625 15.765625 45.015625 23.390625 
Q 45.015625 31 40.078125 35.4375 
Q 35.15625 39.890625 26.703125 39.890625 
Q 22.75 39.890625 18.8125 39.015625 
Q 14.890625 38.140625 10.796875 36.28125 
z
" id="DejaVuSans-35"/>
      <path d="M 54.890625 33.015625 
L 54.890625 0 
L 45.90625 0 
L 45.90625 32.71875 
Q 45.90625 40.484375 42.875 44.328125 
Q 39.84375 48.1875 33.796875 48.1875 
Q 26.515625 48.1875 22.3125 43.546875 
Q 18.109375 38.921875 18.109375 30.90625 
L 18.109375 0 
L 9.078125 0 
L 9.078125 75.984375 
L 18.109375 75.984375 
L 18.109375 46.1875 
Q 21.34375 51.125 25.703125 53.5625 
Q 30.078125 56 35.796875 56 
Q 45.21875 56 50.046875 50.171875 
Q 54.890625 44.34375 54.890625 33.015625 
z
" id="DejaVuSans-68"/>
     </defs>
     <g transform="translate(307.843437 87.426688)scale(0.1 -0.1)">
      <use xlink:href="#DejaVuSans-70"/>
      <use x="63.476562" xlink:href="#DejaVuSans-72"/>
      <use x="104.558594" xlink:href="#DejaVuSans-65"/>
      <use x="166.082031" xlink:href="#DejaVuSans-64"/>
      <use x="229.558594" xlink:href="#DejaVuSans-2e"/>
      <use x="261.345703" xlink:href="#DejaVuSans-28"/>
      <use x="300.359375" xlink:href="#DejaVuSans-35"/>
      <use x="363.982422" xlink:href="#DejaVuSans-74"/>
      <use x="403.191406" xlink:href="#DejaVuSans-68"/>
      <use x="466.570312" xlink:href="#DejaVuSans-20"/>
      <use x="498.357422" xlink:href="#DejaVuSans-70"/>
      <use x="561.833984" xlink:href="#DejaVuSans-65"/>
      <use x="623.357422" xlink:href="#DejaVuSans-72"/>
      <use x="664.439453" xlink:href="#DejaVuSans-63"/>
      <use x="719.419922" xlink:href="#DejaVuSans-65"/>
      <use x="780.943359" xlink:href="#DejaVuSans-6e"/>
      <use x="844.322266" xlink:href="#DejaVuSans-2e"/>
      <use x="876.109375" xlink:href="#DejaVuSans-29"/>
     </g>
    </g>
    <g id="line2d_23">
     <path d="M 279.843437 98.604813 
L 299.843437 98.604813 
" style="fill:none;stroke:#d62728;stroke-linecap:square;stroke-width:1.5;"/>
    </g>
    <g id="line2d_24"/>
    <g id="text_17">
     <!-- pred.(95th percen.) -->
     <defs>
      <path d="M 10.984375 1.515625 
L 10.984375 10.5 
Q 14.703125 8.734375 18.5 7.8125 
Q 22.3125 6.890625 25.984375 6.890625 
Q 35.75 6.890625 40.890625 13.453125 
Q 46.046875 20.015625 46.78125 33.40625 
Q 43.953125 29.203125 39.59375 26.953125 
Q 35.25 24.703125 29.984375 24.703125 
Q 19.046875 24.703125 12.671875 31.3125 
Q 6.296875 37.9375 6.296875 49.421875 
Q 6.296875 60.640625 12.9375 67.421875 
Q 19.578125 74.21875 30.609375 74.21875 
Q 43.265625 74.21875 49.921875 64.515625 
Q 56.59375 54.828125 56.59375 36.375 
Q 56.59375 19.140625 48.40625 8.859375 
Q 40.234375 -1.421875 26.421875 -1.421875 
Q 22.703125 -1.421875 18.890625 -0.6875 
Q 15.09375 0.046875 10.984375 1.515625 
z
M 30.609375 32.421875 
Q 37.25 32.421875 41.125 36.953125 
Q 45.015625 41.5 45.015625 49.421875 
Q 45.015625 57.28125 41.125 61.84375 
Q 37.25 66.40625 30.609375 66.40625 
Q 23.96875 66.40625 20.09375 61.84375 
Q 16.21875 57.28125 16.21875 49.421875 
Q 16.21875 41.5 20.09375 36.953125 
Q 23.96875 32.421875 30.609375 32.421875 
z
" id="DejaVuSans-39"/>
     </defs>
     <g transform="translate(307.843437 102.104813)scale(0.1 -0.1)">
      <use xlink:href="#DejaVuSans-70"/>
      <use x="63.476562" xlink:href="#DejaVuSans-72"/>
      <use x="104.558594" xlink:href="#DejaVuSans-65"/>
      <use x="166.082031" xlink:href="#DejaVuSans-64"/>
      <use x="229.558594" xlink:href="#DejaVuSans-2e"/>
      <use x="261.345703" xlink:href="#DejaVuSans-28"/>
      <use x="300.359375" xlink:href="#DejaVuSans-39"/>
      <use x="363.982422" xlink:href="#DejaVuSans-35"/>
      <use x="427.605469" xlink:href="#DejaVuSans-74"/>
      <use x="466.814453" xlink:href="#DejaVuSans-68"/>
      <use x="530.193359" xlink:href="#DejaVuSans-20"/>
      <use x="561.980469" xlink:href="#DejaVuSans-70"/>
      <use x="625.457031" xlink:href="#DejaVuSans-65"/>
      <use x="686.980469" xlink:href="#DejaVuSans-72"/>
      <use x="728.0625" xlink:href="#DejaVuSans-63"/>
      <use x="783.042969" xlink:href="#DejaVuSans-65"/>
      <use x="844.566406" xlink:href="#DejaVuSans-6e"/>
      <use x="907.945312" xlink:href="#DejaVuSans-2e"/>
      <use x="939.732422" xlink:href="#DejaVuSans-29"/>
     </g>
    </g>
   </g>
  </g>
 </g>
 <defs>
  <clipPath id="pb8a03fe062">
   <rect height="266.112" width="357.12" x="57.6" y="41.472"/>
  </clipPath>
 </defs>
</svg>
